<?xml version="1.0" encoding="UTF-8" standalone="no"?>
<!DOCTYPE svg PUBLIC "-//W3C//DTD SVG 1.1//EN"
 "http://www.w3.org/Graphics/SVG/1.1/DTD/svg11.dtd">
<!-- Generated by graphviz version 7.0.5 (20221223.1930)
 -->
<!-- Title: lib/application_business_rules/command_line_interpreter.hpp Pages: 1 -->
<svg width="560pt" height="148pt"
 viewBox="0.00 0.00 559.50 148.00" xmlns="http://www.w3.org/2000/svg" xmlns:xlink="http://www.w3.org/1999/xlink">
<g id="graph0" class="graph" transform="scale(1 1) rotate(0) translate(4 144)">
<title>lib/application_business_rules/command_line_interpreter.hpp</title>
<!-- Node1 -->
<g id="node1" class="node">
<title>Node1</title>
<g id="a_node1"><a xlink:title=" ">
<polygon fill="#999999" stroke="#666666" points="313.5,-140 137.5,-140 137.5,-110 313.5,-110 313.5,-140"/>
<text text-anchor="start" x="145.5" y="-128" font-family="Helvetica,sans-Serif" font-size="10.00">lib/application_business</text>
<text text-anchor="middle" x="225.5" y="-117" font-family="Helvetica,sans-Serif" font-size="10.00">_rules/command_line_interpreter.hpp</text>
</a>
</g>
</g>
<!-- Node2 -->
<g id="node2" class="node">
<title>Node2</title>
<g id="a_node2"><a xlink:title=" ">
<polygon fill="#e0e0e0" stroke="#999999" points="59,-74 0,-74 0,-55 59,-55 59,-74"/>
<text text-anchor="middle" x="29.5" y="-62" font-family="Helvetica,sans-Serif" font-size="10.00">functional</text>
</a>
</g>
</g>
<!-- Node1&#45;&gt;Node2 -->
<g id="edge1" class="edge">
<title>Node1&#45;&gt;Node2</title>
<path fill="none" stroke="#63b8ff" d="M177.05,-109.54C144.24,-99.75 101.37,-86.95 70.3,-77.68"/>
<polygon fill="#63b8ff" stroke="#63b8ff" points="71.46,-74.37 60.88,-74.87 69.46,-81.08 71.46,-74.37"/>
</g>
<!-- Node3 -->
<g id="node3" class="node">
<title>Node3</title>
<g id="a_node3"><a xlink:title=" ">
<polygon fill="#e0e0e0" stroke="#999999" points="131.5,-74 77.5,-74 77.5,-55 131.5,-55 131.5,-74"/>
<text text-anchor="middle" x="104.5" y="-62" font-family="Helvetica,sans-Serif" font-size="10.00">iostream</text>
</a>
</g>
</g>
<!-- Node1&#45;&gt;Node3 -->
<g id="edge2" class="edge">
<title>Node1&#45;&gt;Node3</title>
<path fill="none" stroke="#63b8ff" d="M195.59,-109.54C176.52,-100.32 151.94,-88.44 133.13,-79.34"/>
<polygon fill="#63b8ff" stroke="#63b8ff" points="134.69,-76.21 124.16,-75 131.64,-82.51 134.69,-76.21"/>
</g>
<!-- Node4 -->
<g id="node4" class="node">
<title>Node4</title>
<g id="a_node4"><a xlink:title=" ">
<polygon fill="#e0e0e0" stroke="#999999" points="197,-74 150,-74 150,-55 197,-55 197,-74"/>
<text text-anchor="middle" x="173.5" y="-62" font-family="Helvetica,sans-Serif" font-size="10.00">iterator</text>
</a>
</g>
</g>
<!-- Node1&#45;&gt;Node4 -->
<g id="edge3" class="edge">
<title>Node1&#45;&gt;Node4</title>
<path fill="none" stroke="#63b8ff" d="M212.65,-109.54C205.4,-101.39 196.31,-91.16 188.71,-82.61"/>
<polygon fill="#63b8ff" stroke="#63b8ff" points="191.48,-80.46 182.22,-75.31 186.24,-85.11 191.48,-80.46"/>
</g>
<!-- Node5 -->
<g id="node5" class="node">
<title>Node5</title>
<g id="a_node5"><a xlink:title=" ">
<polygon fill="#e0e0e0" stroke="#999999" points="161,-19 102,-19 102,0 161,0 161,-19"/>
<text text-anchor="middle" x="131.5" y="-7" font-family="Helvetica,sans-Serif" font-size="10.00">stdexcept</text>
</a>
</g>
</g>
<!-- Node1&#45;&gt;Node5 -->
<g id="edge4" class="edge">
<title>Node1&#45;&gt;Node5</title>
<path fill="none" stroke="#63b8ff" d="M224.41,-109.68C222.61,-94.68 217.9,-71.11 205.5,-55 195.2,-41.61 179.64,-31.39 165.43,-24.14"/>
<polygon fill="#63b8ff" stroke="#63b8ff" points="167.33,-21.17 156.8,-20.03 164.32,-27.49 167.33,-21.17"/>
</g>
<!-- Node6 -->
<g id="node6" class="node">
<title>Node6</title>
<g id="a_node6"><a xlink:href="string__helpers_8hpp.xhtml" target="_top" xlink:title=" ">
<polygon fill="white" stroke="#666666" points="349,-74 254,-74 254,-55 349,-55 349,-74"/>
<text text-anchor="middle" x="301.5" y="-62" font-family="Helvetica,sans-Serif" font-size="10.00">string_helpers.hpp</text>
</a>
</g>
</g>
<!-- Node1&#45;&gt;Node6 -->
<g id="edge5" class="edge">
<title>Node1&#45;&gt;Node6</title>
<path fill="none" stroke="#63b8ff" d="M244.29,-109.54C255.55,-100.87 269.87,-89.85 281.37,-81"/>
<polygon fill="#63b8ff" stroke="#63b8ff" points="283.24,-83.97 289.03,-75.1 278.97,-78.42 283.24,-83.97"/>
</g>
<!-- Node13 -->
<g id="node13" class="node">
<title>Node13</title>
<g id="a_node13"><a xlink:title=" ">
<polygon fill="#e0e0e0" stroke="#999999" points="405.5,-74 367.5,-74 367.5,-55 405.5,-55 405.5,-74"/>
<text text-anchor="middle" x="386.5" y="-62" font-family="Helvetica,sans-Serif" font-size="10.00">tuple</text>
</a>
</g>
</g>
<!-- Node1&#45;&gt;Node13 -->
<g id="edge13" class="edge">
<title>Node1&#45;&gt;Node13</title>
<path fill="none" stroke="#63b8ff" d="M265.3,-109.54C293.53,-99.28 330.82,-85.73 356.54,-76.39"/>
<polygon fill="#63b8ff" stroke="#63b8ff" points="357.51,-79.76 365.71,-73.05 355.12,-73.18 357.51,-79.76"/>
</g>
<!-- Node14 -->
<g id="node14" class="node">
<title>Node14</title>
<g id="a_node14"><a xlink:title=" ">
<polygon fill="#e0e0e0" stroke="#999999" points="463,-74 424,-74 424,-55 463,-55 463,-74"/>
<text text-anchor="middle" x="443.5" y="-62" font-family="Helvetica,sans-Serif" font-size="10.00">utility</text>
</a>
</g>
</g>
<!-- Node1&#45;&gt;Node14 -->
<g id="edge14" class="edge">
<title>Node1&#45;&gt;Node14</title>
<path fill="none" stroke="#63b8ff" d="M281.84,-109.51C316.9,-100.4 363.18,-88.2 412.62,-74.47"/>
<polygon fill="#63b8ff" stroke="#63b8ff" points="413.4,-77.89 422.09,-71.83 411.52,-71.14 413.4,-77.89"/>
</g>
<!-- Node6&#45;&gt;Node5 -->
<g id="edge10" class="edge">
<title>Node6&#45;&gt;Node5</title>
<path fill="none" stroke="#63b8ff" d="M272.66,-54.51C244.74,-45.8 202.17,-32.53 171.08,-22.84"/>
<polygon fill="#63b8ff" stroke="#63b8ff" points="172.23,-19.53 161.64,-19.9 170.15,-26.21 172.23,-19.53"/>
</g>
<!-- Node7 -->
<g id="node7" class="node">
<title>Node7</title>
<g id="a_node7"><a xlink:title=" ">
<polygon fill="#e0e0e0" stroke="#999999" points="225.5,-19 179.5,-19 179.5,0 225.5,0 225.5,-19"/>
<text text-anchor="middle" x="202.5" y="-7" font-family="Helvetica,sans-Serif" font-size="10.00">cstring</text>
</a>
</g>
</g>
<!-- Node6&#45;&gt;Node7 -->
<g id="edge6" class="edge">
<title>Node6&#45;&gt;Node7</title>
<path fill="none" stroke="#63b8ff" d="M284.71,-54.51C269.4,-46.31 246.53,-34.07 228.8,-24.58"/>
<polygon fill="#63b8ff" stroke="#63b8ff" points="230.85,-21.71 220.38,-20.07 227.54,-27.88 230.85,-21.71"/>
</g>
<!-- Node8 -->
<g id="node8" class="node">
<title>Node8</title>
<g id="a_node8"><a xlink:title=" ">
<polygon fill="#e0e0e0" stroke="#999999" points="291.5,-19 243.5,-19 243.5,0 291.5,0 291.5,-19"/>
<text text-anchor="middle" x="267.5" y="-7" font-family="Helvetica,sans-Serif" font-size="10.00">cwchar</text>
</a>
</g>
</g>
<!-- Node6&#45;&gt;Node8 -->
<g id="edge7" class="edge">
<title>Node6&#45;&gt;Node8</title>
<path fill="none" stroke="#63b8ff" d="M295.89,-54.75C291.38,-47.73 284.91,-37.64 279.29,-28.87"/>
<polygon fill="#63b8ff" stroke="#63b8ff" points="282.4,-27.24 274.05,-20.72 276.51,-31.02 282.4,-27.24"/>
</g>
<!-- Node9 -->
<g id="node9" class="node">
<title>Node9</title>
<g id="a_node9"><a xlink:title=" ">
<polygon fill="#e0e0e0" stroke="#999999" points="359.5,-19 309.5,-19 309.5,0 359.5,0 359.5,-19"/>
<text text-anchor="middle" x="334.5" y="-7" font-family="Helvetica,sans-Serif" font-size="10.00">iomanip</text>
</a>
</g>
</g>
<!-- Node6&#45;&gt;Node9 -->
<g id="edge8" class="edge">
<title>Node6&#45;&gt;Node9</title>
<path fill="none" stroke="#63b8ff" d="M306.95,-54.75C311.27,-47.81 317.46,-37.86 322.88,-29.16"/>
<polygon fill="#63b8ff" stroke="#63b8ff" points="325.82,-31.07 328.13,-20.73 319.88,-27.37 325.82,-31.07"/>
</g>
<!-- Node10 -->
<g id="node10" class="node">
<title>Node10</title>
<g id="a_node10"><a xlink:title=" ">
<polygon fill="#e0e0e0" stroke="#999999" points="429.5,-19 377.5,-19 377.5,0 429.5,0 429.5,-19"/>
<text text-anchor="middle" x="403.5" y="-7" font-family="Helvetica,sans-Serif" font-size="10.00">sstream</text>
</a>
</g>
</g>
<!-- Node6&#45;&gt;Node10 -->
<g id="edge9" class="edge">
<title>Node6&#45;&gt;Node10</title>
<path fill="none" stroke="#63b8ff" d="M318.8,-54.51C334.58,-46.31 358.14,-34.07 376.41,-24.58"/>
<polygon fill="#63b8ff" stroke="#63b8ff" points="377.85,-27.77 385.11,-20.06 374.62,-21.56 377.85,-27.77"/>
</g>
<!-- Node11 -->
<g id="node11" class="node">
<title>Node11</title>
<g id="a_node11"><a xlink:title=" ">
<polygon fill="#e0e0e0" stroke="#999999" points="489,-19 448,-19 448,0 489,0 489,-19"/>
<text text-anchor="middle" x="468.5" y="-7" font-family="Helvetica,sans-Serif" font-size="10.00">string</text>
</a>
</g>
</g>
<!-- Node6&#45;&gt;Node11 -->
<g id="edge11" class="edge">
<title>Node6&#45;&gt;Node11</title>
<path fill="none" stroke="#63b8ff" d="M329.83,-54.51C359.58,-45.07 406.25,-30.25 437.11,-20.46"/>
<polygon fill="#63b8ff" stroke="#63b8ff" points="437.79,-23.92 446.26,-17.56 435.67,-17.25 437.79,-23.92"/>
</g>
<!-- Node12 -->
<g id="node12" class="node">
<title>Node12</title>
<g id="a_node12"><a xlink:title=" ">
<polygon fill="#e0e0e0" stroke="#999999" points="551.5,-19 507.5,-19 507.5,0 551.5,0 551.5,-19"/>
<text text-anchor="middle" x="529.5" y="-7" font-family="Helvetica,sans-Serif" font-size="10.00">vector</text>
</a>
</g>
</g>
<!-- Node6&#45;&gt;Node12 -->
<g id="edge12" class="edge">
<title>Node6&#45;&gt;Node12</title>
<path fill="none" stroke="#63b8ff" d="M343.9,-54.5C381.55,-46.39 438.3,-33.84 496.33,-19.46"/>
<polygon fill="#63b8ff" stroke="#63b8ff" points="496.86,-22.93 505.71,-17.12 495.16,-16.14 496.86,-22.93"/>
</g>
</g>
</svg>
