<?xml version="1.0" encoding="UTF-8" standalone="no"?>
<!DOCTYPE svg PUBLIC "-//W3C//DTD SVG 1.1//EN"
 "http://www.w3.org/Graphics/SVG/1.1/DTD/svg11.dtd">
<!-- Generated by graphviz version 8.1.0 (20230707.0739)
 -->
<!-- Title: src/board_pins.hpp Pages: 1 -->
<svg width="207pt" height="138pt"
 viewBox="0.00 0.00 206.75 137.75" xmlns="http://www.w3.org/2000/svg" xmlns:xlink="http://www.w3.org/1999/xlink">
<g id="graph0" class="graph" transform="scale(1 1) rotate(0) translate(4 133.75)">
<title>src/board_pins.hpp</title>
<!-- Node1 -->
<g id="Node000001" class="node">
<title>Node1</title>
<g id="a_Node000001"><a xlink:title="Provides named objects for the pins provided by the board.">
<polygon fill="#999999" stroke="#666666" points="146.12,-129.75 48.38,-129.75 48.38,-110.5 146.12,-110.5 146.12,-129.75"/>
<text text-anchor="middle" x="97.25" y="-116.25" font-family="Helvetica,sans-Serif" font-size="10.00">src/board_pins.hpp</text>
</a>
</g>
</g>
<!-- Node2 -->
<g id="Node000002" class="node">
<title>Node2</title>
<g id="a_Node000002"><a xlink:href="framework__config_8hpp.xhtml" target="_top" xlink:title="Provides defintions which are specific for the used framework.">
<polygon fill="white" stroke="#666666" points="152.5,-74.5 42,-74.5 42,-55.25 152.5,-55.25 152.5,-74.5"/>
<text text-anchor="middle" x="97.25" y="-61" font-family="Helvetica,sans-Serif" font-size="10.00">framework_config.hpp</text>
</a>
</g>
</g>
<!-- Node1&#45;&gt;Node2 -->
<g id="edge1_Node000001_Node000002" class="edge">
<title>Node1&#45;&gt;Node2</title>
<g id="a_edge1_Node000001_Node000002"><a xlink:title=" ">
<path fill="none" stroke="#63b8ff" d="M97.25,-110.33C97.25,-103.67 97.25,-94.24 97.25,-85.78"/>
<polygon fill="#63b8ff" stroke="#63b8ff" points="100.75,-85.86 97.25,-75.86 93.75,-85.86 100.75,-85.86"/>
</a>
</g>
</g>
<!-- Node3 -->
<g id="Node000003" class="node">
<title>Node3</title>
<g id="a_Node000003"><a xlink:title=" ">
<polygon fill="#e0e0e0" stroke="#999999" points="56.5,-19.25 0,-19.25 0,0 56.5,0 56.5,-19.25"/>
<text text-anchor="middle" x="28.25" y="-5.75" font-family="Helvetica,sans-Serif" font-size="10.00">Arduino.h</text>
</a>
</g>
</g>
<!-- Node2&#45;&gt;Node3 -->
<g id="edge2_Node000002_Node000003" class="edge">
<title>Node2&#45;&gt;Node3</title>
<g id="a_edge2_Node000002_Node000003"><a xlink:title=" ">
<path fill="none" stroke="#63b8ff" d="M85.55,-54.84C75.37,-46.99 60.42,-35.45 48.33,-26.12"/>
<polygon fill="#63b8ff" stroke="#63b8ff" points="50.84,-22.86 40.78,-19.52 46.56,-28.41 50.84,-22.86"/>
</a>
</g>
</g>
<!-- Node4 -->
<g id="Node000004" class="node">
<title>Node4</title>
<g id="a_Node000004"><a xlink:title=" ">
<polygon fill="#e0e0e0" stroke="#999999" points="119.88,-19.25 74.62,-19.25 74.62,0 119.88,0 119.88,-19.25"/>
<text text-anchor="middle" x="97.25" y="-5.75" font-family="Helvetica,sans-Serif" font-size="10.00">cstdint</text>
</a>
</g>
</g>
<!-- Node2&#45;&gt;Node4 -->
<g id="edge3_Node000002_Node000004" class="edge">
<title>Node2&#45;&gt;Node4</title>
<g id="a_edge3_Node000002_Node000004"><a xlink:title=" ">
<path fill="none" stroke="#63b8ff" d="M97.25,-55.08C97.25,-48.42 97.25,-38.99 97.25,-30.53"/>
<polygon fill="#63b8ff" stroke="#63b8ff" points="100.75,-30.61 97.25,-20.61 93.75,-30.61 100.75,-30.61"/>
</a>
</g>
</g>
<!-- Node5 -->
<g id="Node000005" class="node">
<title>Node5</title>
<g id="a_Node000005"><a xlink:title=" ">
<polygon fill="#e0e0e0" stroke="#999999" points="198.75,-19.25 137.75,-19.25 137.75,0 198.75,0 198.75,-19.25"/>
<text text-anchor="middle" x="168.25" y="-5.75" font-family="Helvetica,sans-Serif" font-size="10.00">type_traits</text>
</a>
</g>
</g>
<!-- Node2&#45;&gt;Node5 -->
<g id="edge4_Node000002_Node000005" class="edge">
<title>Node2&#45;&gt;Node5</title>
<g id="a_edge4_Node000002_Node000005"><a xlink:title=" ">
<path fill="none" stroke="#63b8ff" d="M109.29,-54.84C119.76,-46.99 135.15,-35.45 147.58,-26.12"/>
<polygon fill="#63b8ff" stroke="#63b8ff" points="149.48,-28.32 155.38,-19.52 145.28,-22.72 149.48,-28.32"/>
</a>
</g>
</g>
</g>
</svg>
