<?xml version="1.0" encoding="UTF-8" standalone="no"?>
<!DOCTYPE svg PUBLIC "-//W3C//DTD SVG 1.1//EN"
 "http://www.w3.org/Graphics/SVG/1.1/DTD/svg11.dtd">
<!-- Generated by graphviz version 8.0.5 (20230430.1635)
 -->
<!-- Title: src/board_pins.hpp Pages: 1 -->
<svg width="128pt" height="138pt"
 viewBox="0.00 0.00 127.88 137.75" xmlns="http://www.w3.org/2000/svg" xmlns:xlink="http://www.w3.org/1999/xlink">
<g id="graph0" class="graph" transform="scale(1 1) rotate(0) translate(4 133.75)">
<title>src/board_pins.hpp</title>
<!-- Node1 -->
<g id="Node000001" class="node">
<title>Node1</title>
<g id="a_Node000001"><a xlink:title="Provides named objects for the pins provided by the board.">
<polygon fill="#999999" stroke="#666666" points="111.12,-129.75 13.38,-129.75 13.38,-110.5 111.12,-110.5 111.12,-129.75"/>
<text text-anchor="middle" x="62.25" y="-116.25" font-family="Helvetica,sans-Serif" font-size="10.00">src/board_pins.hpp</text>
</a>
</g>
</g>
<!-- Node2 -->
<g id="Node000002" class="node">
<title>Node2</title>
<g id="a_Node000002"><a xlink:href="framework__config_8hpp.xhtml" target="_top" xlink:title="Provides defintions which are specific for the used framework.">
<polygon fill="white" stroke="#666666" points="117.5,-74.5 7,-74.5 7,-55.25 117.5,-55.25 117.5,-74.5"/>
<text text-anchor="middle" x="62.25" y="-61" font-family="Helvetica,sans-Serif" font-size="10.00">framework_config.hpp</text>
</a>
</g>
</g>
<!-- Node1&#45;&gt;Node2 -->
<g id="edge1_Node000001_Node000002" class="edge">
<title>Node1&#45;&gt;Node2</title>
<g id="a_edge1_Node000001_Node000002"><a xlink:title=" ">
<path fill="none" stroke="#63b8ff" d="M62.25,-110.33C62.25,-103.67 62.25,-94.24 62.25,-85.78"/>
<polygon fill="#63b8ff" stroke="#63b8ff" points="65.75,-85.86 62.25,-75.86 58.75,-85.86 65.75,-85.86"/>
</a>
</g>
</g>
<!-- Node3 -->
<g id="Node000003" class="node">
<title>Node3</title>
<g id="a_Node000003"><a xlink:title=" ">
<polygon fill="#e0e0e0" stroke="#999999" points="56.5,-19.25 0,-19.25 0,0 56.5,0 56.5,-19.25"/>
<text text-anchor="middle" x="28.25" y="-5.75" font-family="Helvetica,sans-Serif" font-size="10.00">Arduino.h</text>
</a>
</g>
</g>
<!-- Node2&#45;&gt;Node3 -->
<g id="edge2_Node000002_Node000003" class="edge">
<title>Node2&#45;&gt;Node3</title>
<g id="a_edge2_Node000002_Node000003"><a xlink:title=" ">
<path fill="none" stroke="#63b8ff" d="M56.64,-55.08C52.09,-47.96 45.52,-37.68 39.85,-28.8"/>
<polygon fill="#63b8ff" stroke="#63b8ff" points="42.32,-27.15 33.99,-20.61 36.42,-30.92 42.32,-27.15"/>
</a>
</g>
</g>
<!-- Node4 -->
<g id="Node000004" class="node">
<title>Node4</title>
<g id="a_Node000004"><a xlink:title=" ">
<polygon fill="#e0e0e0" stroke="#999999" points="119.88,-19.25 74.62,-19.25 74.62,0 119.88,0 119.88,-19.25"/>
<text text-anchor="middle" x="97.25" y="-5.75" font-family="Helvetica,sans-Serif" font-size="10.00">cstdint</text>
</a>
</g>
</g>
<!-- Node2&#45;&gt;Node4 -->
<g id="edge3_Node000002_Node000004" class="edge">
<title>Node2&#45;&gt;Node4</title>
<g id="a_edge3_Node000002_Node000004"><a xlink:title=" ">
<path fill="none" stroke="#63b8ff" d="M68.03,-55.08C72.71,-47.96 79.47,-37.68 85.31,-28.8"/>
<polygon fill="#63b8ff" stroke="#63b8ff" points="88.78,-30.89 91.34,-20.61 82.93,-27.04 88.78,-30.89"/>
</a>
</g>
</g>
</g>
</svg>
