<?xml version="1.0" encoding="UTF-8" standalone="no"?>
<!DOCTYPE svg PUBLIC "-//W3C//DTD SVG 1.1//EN"
 "http://www.w3.org/Graphics/SVG/1.1/DTD/svg11.dtd">
<!-- Generated by graphviz version 8.0.5 (20230430.1635)
 -->
<!-- Title: src/display.cpp Pages: 1 -->
<svg width="339pt" height="193pt"
 viewBox="0.00 0.00 338.75 193.00" xmlns="http://www.w3.org/2000/svg" xmlns:xlink="http://www.w3.org/1999/xlink">
<g id="graph0" class="graph" transform="scale(1 1) rotate(0) translate(4 189)">
<title>src/display.cpp</title>
<!-- Node1 -->
<g id="Node000001" class="node">
<title>Node1</title>
<g id="a_Node000001"><a xlink:title=" ">
<polygon fill="#999999" stroke="#666666" points="218.5,-185 138,-185 138,-165.75 218.5,-165.75 218.5,-185"/>
<text text-anchor="middle" x="178.25" y="-171.5" font-family="Helvetica,sans-Serif" font-size="10.00">src/display.cpp</text>
</a>
</g>
</g>
<!-- Node2 -->
<g id="Node000002" class="node">
<title>Node2</title>
<g id="a_Node000002"><a xlink:href="board__pins_8hpp.xhtml" target="_top" xlink:title="Provides named objects for the pins provided by the board.">
<polygon fill="white" stroke="#666666" points="102.88,-129.75 21.62,-129.75 21.62,-110.5 102.88,-110.5 102.88,-129.75"/>
<text text-anchor="middle" x="62.25" y="-116.25" font-family="Helvetica,sans-Serif" font-size="10.00">board_pins.hpp</text>
</a>
</g>
</g>
<!-- Node1&#45;&gt;Node2 -->
<g id="edge1_Node000001_Node000002" class="edge">
<title>Node1&#45;&gt;Node2</title>
<g id="a_edge1_Node000001_Node000002"><a xlink:title=" ">
<path fill="none" stroke="#63b8ff" d="M158.57,-165.34C140.32,-156.97 112.92,-144.38 92,-134.78"/>
<polygon fill="#63b8ff" stroke="#63b8ff" points="93.57,-131.19 83.02,-130.2 90.65,-137.56 93.57,-131.19"/>
</a>
</g>
</g>
<!-- Node4 -->
<g id="Node000004" class="node">
<title>Node4</title>
<g id="a_Node000004"><a xlink:title=" ">
<polygon fill="#e0e0e0" stroke="#999999" points="159.5,-19.25 103,-19.25 103,0 159.5,0 159.5,-19.25"/>
<text text-anchor="middle" x="131.25" y="-5.75" font-family="Helvetica,sans-Serif" font-size="10.00">Arduino.h</text>
</a>
</g>
</g>
<!-- Node1&#45;&gt;Node4 -->
<g id="edge6_Node000001_Node000004" class="edge">
<title>Node1&#45;&gt;Node4</title>
<g id="a_edge6_Node000001_Node000004"><a xlink:title=" ">
<path fill="none" stroke="#63b8ff" d="M173.29,-165.39C168.58,-156.56 161.6,-142.56 157.25,-129.75 145.66,-95.61 137.98,-54.17 134.14,-30.26"/>
<polygon fill="#63b8ff" stroke="#63b8ff" points="137.46,-29.83 132.48,-20.48 130.55,-30.89 137.46,-29.83"/>
</a>
</g>
</g>
<!-- Node6 -->
<g id="Node000006" class="node">
<title>Node6</title>
<g id="a_Node000006"><a xlink:title=" ">
<polygon fill="#e0e0e0" stroke="#999999" points="270.12,-129.75 166.38,-129.75 166.38,-110.5 270.12,-110.5 270.12,-129.75"/>
<text text-anchor="middle" x="218.25" y="-116.25" font-family="Helvetica,sans-Serif" font-size="10.00">Adafruit_SSD1306.h</text>
</a>
</g>
</g>
<!-- Node1&#45;&gt;Node6 -->
<g id="edge5_Node000001_Node000006" class="edge">
<title>Node1&#45;&gt;Node6</title>
<g id="a_edge5_Node000001_Node000006"><a xlink:title=" ">
<path fill="none" stroke="#63b8ff" d="M184.86,-165.58C190.32,-158.3 198.26,-147.73 205.03,-138.73"/>
<polygon fill="#63b8ff" stroke="#63b8ff" points="208.29,-141.21 211.5,-131.11 202.7,-137 208.29,-141.21"/>
</a>
</g>
</g>
<!-- Node7 -->
<g id="Node000007" class="node">
<title>Node7</title>
<g id="a_Node000007"><a xlink:title=" ">
<polygon fill="#e0e0e0" stroke="#999999" points="330.75,-129.75 287.75,-129.75 287.75,-110.5 330.75,-110.5 330.75,-129.75"/>
<text text-anchor="middle" x="309.25" y="-116.25" font-family="Helvetica,sans-Serif" font-size="10.00">Wire.h</text>
</a>
</g>
</g>
<!-- Node1&#45;&gt;Node7 -->
<g id="edge7_Node000001_Node000007" class="edge">
<title>Node1&#45;&gt;Node7</title>
<g id="a_edge7_Node000001_Node000007"><a xlink:title=" ">
<path fill="none" stroke="#63b8ff" d="M200.47,-165.34C221.58,-156.76 253.55,-143.77 277.38,-134.08"/>
<polygon fill="#63b8ff" stroke="#63b8ff" points="278.41,-137.03 286.36,-130.02 275.77,-130.55 278.41,-137.03"/>
</a>
</g>
</g>
<!-- Node3 -->
<g id="Node000003" class="node">
<title>Node3</title>
<g id="a_Node000003"><a xlink:href="framework__config_8hpp.xhtml" target="_top" xlink:title="Provides defintions which are specific for the used framework.">
<polygon fill="white" stroke="#666666" points="110.5,-74.5 0,-74.5 0,-55.25 110.5,-55.25 110.5,-74.5"/>
<text text-anchor="middle" x="55.25" y="-61" font-family="Helvetica,sans-Serif" font-size="10.00">framework_config.hpp</text>
</a>
</g>
</g>
<!-- Node2&#45;&gt;Node3 -->
<g id="edge2_Node000002_Node000003" class="edge">
<title>Node2&#45;&gt;Node3</title>
<g id="a_edge2_Node000002_Node000003"><a xlink:title=" ">
<path fill="none" stroke="#63b8ff" d="M61.09,-110.33C60.21,-103.59 58.95,-94.02 57.83,-85.49"/>
<polygon fill="#63b8ff" stroke="#63b8ff" points="61.2,-85.32 56.43,-75.86 54.26,-86.23 61.2,-85.32"/>
</a>
</g>
</g>
<!-- Node3&#45;&gt;Node4 -->
<g id="edge3_Node000003_Node000004" class="edge">
<title>Node3&#45;&gt;Node4</title>
<g id="a_edge3_Node000003_Node000004"><a xlink:title=" ">
<path fill="none" stroke="#63b8ff" d="M68.14,-54.84C79.5,-46.89 96.27,-35.14 109.66,-25.75"/>
<polygon fill="#63b8ff" stroke="#63b8ff" points="111.11,-28.31 117.29,-19.7 107.1,-22.57 111.11,-28.31"/>
</a>
</g>
</g>
<!-- Node5 -->
<g id="Node000005" class="node">
<title>Node5</title>
<g id="a_Node000005"><a xlink:title=" ">
<polygon fill="#e0e0e0" stroke="#999999" points="77.88,-19.25 32.62,-19.25 32.62,0 77.88,0 77.88,-19.25"/>
<text text-anchor="middle" x="55.25" y="-5.75" font-family="Helvetica,sans-Serif" font-size="10.00">cstdint</text>
</a>
</g>
</g>
<!-- Node3&#45;&gt;Node5 -->
<g id="edge4_Node000003_Node000005" class="edge">
<title>Node3&#45;&gt;Node5</title>
<g id="a_edge4_Node000003_Node000005"><a xlink:title=" ">
<path fill="none" stroke="#63b8ff" d="M55.25,-55.08C55.25,-48.42 55.25,-38.99 55.25,-30.53"/>
<polygon fill="#63b8ff" stroke="#63b8ff" points="58.75,-30.61 55.25,-20.61 51.75,-30.61 58.75,-30.61"/>
</a>
</g>
</g>
</g>
</svg>
