<?xml version="1.0" encoding="UTF-8" standalone="no"?>
<!DOCTYPE svg PUBLIC "-//W3C//DTD SVG 1.1//EN"
 "http://www.w3.org/Graphics/SVG/1.1/DTD/svg11.dtd">
<!-- Generated by graphviz version 9.0.0 (20230911.1827)
 -->
<!-- Title: src/framework_config.hpp Pages: 1 -->
<svg width="207pt" height="83pt"
 viewBox="0.00 0.00 206.75 82.50" xmlns="http://www.w3.org/2000/svg" xmlns:xlink="http://www.w3.org/1999/xlink">
<g id="graph0" class="graph" transform="scale(1 1) rotate(0) translate(4 78.5)">
<title>src/framework_config.hpp</title>
<!-- Node1 -->
<g id="Node000001" class="node">
<title>Node1</title>
<g id="a_Node000001"><a xlink:title="Provides defintions which are specific for the used framework.">
<polygon fill="#999999" stroke="#666666" points="160.75,-74.5 33.75,-74.5 33.75,-55.25 160.75,-55.25 160.75,-74.5"/>
<text text-anchor="middle" x="97.25" y="-61" font-family="Helvetica,sans-Serif" font-size="10.00">src/framework_config.hpp</text>
</a>
</g>
</g>
<!-- Node2 -->
<g id="Node000002" class="node">
<title>Node2</title>
<g id="a_Node000002"><a xlink:title=" ">
<polygon fill="#e0e0e0" stroke="#999999" points="56.5,-19.25 0,-19.25 0,0 56.5,0 56.5,-19.25"/>
<text text-anchor="middle" x="28.25" y="-5.75" font-family="Helvetica,sans-Serif" font-size="10.00">Arduino.h</text>
</a>
</g>
</g>
<!-- Node1&#45;&gt;Node2 -->
<g id="edge1_Node000001_Node000002" class="edge">
<title>Node1&#45;&gt;Node2</title>
<g id="a_edge1_Node000001_Node000002"><a xlink:title=" ">
<path fill="none" stroke="#63b8ff" d="M85.55,-54.84C75.47,-47.07 60.71,-35.67 48.69,-26.4"/>
<polygon fill="#63b8ff" stroke="#63b8ff" points="51.04,-23.79 40.98,-20.45 46.76,-29.33 51.04,-23.79"/>
</a>
</g>
</g>
<!-- Node3 -->
<g id="Node000003" class="node">
<title>Node3</title>
<g id="a_Node000003"><a xlink:title=" ">
<polygon fill="#e0e0e0" stroke="#999999" points="119.88,-19.25 74.62,-19.25 74.62,0 119.88,0 119.88,-19.25"/>
<text text-anchor="middle" x="97.25" y="-5.75" font-family="Helvetica,sans-Serif" font-size="10.00">cstdint</text>
</a>
</g>
</g>
<!-- Node1&#45;&gt;Node3 -->
<g id="edge2_Node000001_Node000003" class="edge">
<title>Node1&#45;&gt;Node3</title>
<g id="a_edge2_Node000001_Node000003"><a xlink:title=" ">
<path fill="none" stroke="#63b8ff" d="M97.25,-55.08C97.25,-48.57 97.25,-39.42 97.25,-31.12"/>
<polygon fill="#63b8ff" stroke="#63b8ff" points="100.75,-31.12 97.25,-21.12 93.75,-31.12 100.75,-31.12"/>
</a>
</g>
</g>
<!-- Node4 -->
<g id="Node000004" class="node">
<title>Node4</title>
<g id="a_Node000004"><a xlink:title=" ">
<polygon fill="#e0e0e0" stroke="#999999" points="198.75,-19.25 137.75,-19.25 137.75,0 198.75,0 198.75,-19.25"/>
<text text-anchor="middle" x="168.25" y="-5.75" font-family="Helvetica,sans-Serif" font-size="10.00">type_traits</text>
</a>
</g>
</g>
<!-- Node1&#45;&gt;Node4 -->
<g id="edge3_Node000001_Node000004" class="edge">
<title>Node1&#45;&gt;Node4</title>
<g id="a_edge3_Node000001_Node000004"><a xlink:title=" ">
<path fill="none" stroke="#63b8ff" d="M109.29,-54.84C119.66,-47.07 134.85,-35.67 147.22,-26.4"/>
<polygon fill="#63b8ff" stroke="#63b8ff" points="149.27,-29.23 155.17,-20.43 145.07,-23.63 149.27,-29.23"/>
</a>
</g>
</g>
</g>
</svg>
