<?xml version="1.0" encoding="UTF-8" standalone="no"?>
<!DOCTYPE svg PUBLIC "-//W3C//DTD SVG 1.1//EN"
 "http://www.w3.org/Graphics/SVG/1.1/DTD/svg11.dtd">
<!-- Generated by graphviz version 8.1.0 (20230707.0739)
 -->
<!-- Title: src/framework_config.hpp Pages: 1 -->
<svg width="178pt" height="138pt"
 viewBox="0.00 0.00 178.00 137.75" xmlns="http://www.w3.org/2000/svg" xmlns:xlink="http://www.w3.org/1999/xlink">
<g id="graph0" class="graph" transform="scale(1 1) rotate(0) translate(4 133.75)">
<title>src/framework_config.hpp</title>
<!-- Node1 -->
<g id="Node000001" class="node">
<title>Node1</title>
<g id="a_Node000001"><a xlink:title="Provides defintions which are specific for the used framework.">
<polygon fill="#999999" stroke="#666666" points="150.75,-129.75 23.75,-129.75 23.75,-110.5 150.75,-110.5 150.75,-129.75"/>
<text text-anchor="middle" x="87.25" y="-116.25" font-family="Helvetica,sans-Serif" font-size="10.00">src/framework_config.hpp</text>
</a>
</g>
</g>
<!-- Node2 -->
<g id="Node000002" class="node">
<title>Node2</title>
<g id="a_Node000002"><a xlink:href="board__pins_8hpp.xhtml" target="_top" xlink:title="Provides named objects for the pins provided by the board.">
<polygon fill="white" stroke="#666666" points="136.12,-74.5 38.38,-74.5 38.38,-55.25 136.12,-55.25 136.12,-74.5"/>
<text text-anchor="middle" x="87.25" y="-61" font-family="Helvetica,sans-Serif" font-size="10.00">src/board_pins.hpp</text>
</a>
</g>
</g>
<!-- Node1&#45;&gt;Node2 -->
<g id="edge1_Node000001_Node000002" class="edge">
<title>Node1&#45;&gt;Node2</title>
<g id="a_edge1_Node000001_Node000002"><a xlink:title=" ">
<path fill="none" stroke="#63b8ff" d="M87.25,-99.46C87.25,-91.02 87.25,-81.58 87.25,-74.86"/>
<polygon fill="#63b8ff" stroke="#63b8ff" points="83.75,-99.33 87.25,-109.33 90.75,-99.33 83.75,-99.33"/>
</a>
</g>
</g>
<!-- Node3 -->
<g id="Node000003" class="node">
<title>Node3</title>
<g id="a_Node000003"><a xlink:href="display_8cpp.xhtml" target="_top" xlink:title=" ">
<polygon fill="white" stroke="#666666" points="80.5,-19.25 0,-19.25 0,0 80.5,0 80.5,-19.25"/>
<text text-anchor="middle" x="40.25" y="-5.75" font-family="Helvetica,sans-Serif" font-size="10.00">src/display.cpp</text>
</a>
</g>
</g>
<!-- Node2&#45;&gt;Node3 -->
<g id="edge2_Node000002_Node000003" class="edge">
<title>Node2&#45;&gt;Node3</title>
<g id="a_edge2_Node000002_Node000003"><a xlink:title=" ">
<path fill="none" stroke="#63b8ff" d="M72.42,-47.07C64.39,-37.98 54.79,-27.1 48.18,-19.61"/>
<polygon fill="#63b8ff" stroke="#63b8ff" points="69.25,-48.9 78.49,-54.08 74.5,-44.27 69.25,-48.9"/>
</a>
</g>
</g>
<!-- Node4 -->
<g id="Node000004" class="node">
<title>Node4</title>
<g id="a_Node000004"><a xlink:href="main_8cpp.xhtml" target="_top" xlink:title=" ">
<polygon fill="white" stroke="#666666" points="170,-19.25 98.5,-19.25 98.5,0 170,0 170,-19.25"/>
<text text-anchor="middle" x="134.25" y="-5.75" font-family="Helvetica,sans-Serif" font-size="10.00">src/main.cpp</text>
</a>
</g>
</g>
<!-- Node2&#45;&gt;Node4 -->
<g id="edge3_Node000002_Node000004" class="edge">
<title>Node2&#45;&gt;Node4</title>
<g id="a_edge3_Node000002_Node000004"><a xlink:title=" ">
<path fill="none" stroke="#63b8ff" d="M102.08,-47.07C110.11,-37.98 119.71,-27.1 126.32,-19.61"/>
<polygon fill="#63b8ff" stroke="#63b8ff" points="100,-44.27 96.01,-54.08 105.25,-48.9 100,-44.27"/>
</a>
</g>
</g>
</g>
</svg>
