<?xml version="1.0" encoding="UTF-8" standalone="no"?>
<!DOCTYPE svg PUBLIC "-//W3C//DTD SVG 1.1//EN"
 "http://www.w3.org/Graphics/SVG/1.1/DTD/svg11.dtd">
<!-- Generated by graphviz version 8.0.5 (20230430.1635)
 -->
<!-- Title: src/main.cpp Pages: 1 -->
<svg width="693pt" height="193pt"
 viewBox="0.00 0.00 693.00 193.00" xmlns="http://www.w3.org/2000/svg" xmlns:xlink="http://www.w3.org/1999/xlink">
<g id="graph0" class="graph" transform="scale(1 1) rotate(0) translate(4 189)">
<title>src/main.cpp</title>
<!-- Node1 -->
<g id="Node000001" class="node">
<title>Node1</title>
<g id="a_Node000001"><a xlink:title=" ">
<polygon fill="#999999" stroke="#666666" points="380.25,-185 308.75,-185 308.75,-165.75 380.25,-165.75 380.25,-185"/>
<text text-anchor="middle" x="344.5" y="-171.5" font-family="Helvetica,sans-Serif" font-size="10.00">src/main.cpp</text>
</a>
</g>
</g>
<!-- Node2 -->
<g id="Node000002" class="node">
<title>Node2</title>
<g id="a_Node000002"><a xlink:href="main_8hpp.xhtml" target="_top" xlink:title=" ">
<polygon fill="white" stroke="#666666" points="55,-129.75 0,-129.75 0,-110.5 55,-110.5 55,-129.75"/>
<text text-anchor="middle" x="27.5" y="-116.25" font-family="Helvetica,sans-Serif" font-size="10.00">main.hpp</text>
</a>
</g>
</g>
<!-- Node1&#45;&gt;Node2 -->
<g id="edge1_Node000001_Node000002" class="edge">
<title>Node1&#45;&gt;Node2</title>
<g id="a_edge1_Node000001_Node000002"><a xlink:title=" ">
<path fill="none" stroke="#63b8ff" d="M308.38,-169C255.74,-161.07 154.89,-145.44 69.5,-129.75 68.37,-129.54 67.21,-129.33 66.05,-129.11"/>
<polygon fill="#63b8ff" stroke="#63b8ff" points="66.97,-125.52 56.48,-127.04 65.63,-132.39 66.97,-125.52"/>
</a>
</g>
</g>
<!-- Node3 -->
<g id="Node000003" class="node">
<title>Node3</title>
<g id="a_Node000003"><a xlink:href="board__pins_8hpp.xhtml" target="_top" xlink:title="Provides named objects for the pins provided by the board.">
<polygon fill="white" stroke="#666666" points="226.12,-129.75 144.88,-129.75 144.88,-110.5 226.12,-110.5 226.12,-129.75"/>
<text text-anchor="middle" x="185.5" y="-116.25" font-family="Helvetica,sans-Serif" font-size="10.00">board_pins.hpp</text>
</a>
</g>
</g>
<!-- Node1&#45;&gt;Node3 -->
<g id="edge2_Node000001_Node000003" class="edge">
<title>Node1&#45;&gt;Node3</title>
<g id="a_edge2_Node000001_Node000003"><a xlink:title=" ">
<path fill="none" stroke="#63b8ff" d="M317.53,-165.34C291.49,-156.62 251.84,-143.34 222.78,-133.61"/>
<polygon fill="#63b8ff" stroke="#63b8ff" points="224.2,-130.06 213.6,-130.2 221.98,-136.7 224.2,-130.06"/>
</a>
</g>
</g>
<!-- Node5 -->
<g id="Node000005" class="node">
<title>Node5</title>
<g id="a_Node000005"><a xlink:title=" ">
<polygon fill="#e0e0e0" stroke="#999999" points="153.75,-19.25 97.25,-19.25 97.25,0 153.75,0 153.75,-19.25"/>
<text text-anchor="middle" x="125.5" y="-5.75" font-family="Helvetica,sans-Serif" font-size="10.00">Arduino.h</text>
</a>
</g>
</g>
<!-- Node1&#45;&gt;Node5 -->
<g id="edge10_Node000001_Node000005" class="edge">
<title>Node1&#45;&gt;Node5</title>
<g id="a_edge10_Node000001_Node000005"><a xlink:title=" ">
<path fill="none" stroke="#63b8ff" d="M308.52,-175.11C263.9,-174.27 187.39,-166.9 135.5,-129.75 106.05,-108.67 93.96,-90.44 102.5,-55.25 104.73,-46.06 109.2,-36.65 113.61,-28.85"/>
<polygon fill="#63b8ff" stroke="#63b8ff" points="116.98,-31.05 119.18,-20.68 111,-27.41 116.98,-31.05"/>
</a>
</g>
</g>
<!-- Node6 -->
<g id="Node000006" class="node">
<title>Node6</title>
<g id="a_Node000006"><a xlink:title=" ">
<polygon fill="#e0e0e0" stroke="#999999" points="295.12,-19.25 249.88,-19.25 249.88,0 295.12,0 295.12,-19.25"/>
<text text-anchor="middle" x="272.5" y="-5.75" font-family="Helvetica,sans-Serif" font-size="10.00">cstdint</text>
</a>
</g>
</g>
<!-- Node1&#45;&gt;Node6 -->
<g id="edge14_Node000001_Node000006" class="edge">
<title>Node1&#45;&gt;Node6</title>
<g id="a_edge14_Node000001_Node000006"><a xlink:title=" ">
<path fill="none" stroke="#63b8ff" d="M355,-165.33C363.72,-157.07 375.46,-144.02 380.5,-129.75 391.52,-98.53 398.91,-82.77 380.5,-55.25 363.99,-30.57 331.07,-19.52 305.89,-14.59"/>
<polygon fill="#63b8ff" stroke="#63b8ff" points="306.74,-11.01 296.29,-12.78 305.56,-17.91 306.74,-11.01"/>
</a>
</g>
</g>
<!-- Node7 -->
<g id="Node000007" class="node">
<title>Node7</title>
<g id="a_Node000007"><a xlink:href="display_8h.xhtml" target="_top" xlink:title=" ">
<polygon fill="white" stroke="#666666" points="371.25,-129.75 317.75,-129.75 317.75,-110.5 371.25,-110.5 371.25,-129.75"/>
<text text-anchor="middle" x="344.5" y="-116.25" font-family="Helvetica,sans-Serif" font-size="10.00">display.h</text>
</a>
</g>
</g>
<!-- Node1&#45;&gt;Node7 -->
<g id="edge6_Node000001_Node000007" class="edge">
<title>Node1&#45;&gt;Node7</title>
<g id="a_edge6_Node000001_Node000007"><a xlink:title=" ">
<path fill="none" stroke="#63b8ff" d="M344.5,-165.58C344.5,-158.92 344.5,-149.49 344.5,-141.03"/>
<polygon fill="#63b8ff" stroke="#63b8ff" points="348,-141.11 344.5,-131.11 341,-141.11 348,-141.11"/>
</a>
</g>
</g>
<!-- Node9 -->
<g id="Node000009" class="node">
<title>Node9</title>
<g id="a_Node000009"><a xlink:href="pitches_8hpp.xhtml" target="_top" xlink:title=" ">
<polygon fill="white" stroke="#666666" points="305.25,-74.5 239.75,-74.5 239.75,-55.25 305.25,-55.25 305.25,-74.5"/>
<text text-anchor="middle" x="272.5" y="-61" font-family="Helvetica,sans-Serif" font-size="10.00">pitches.hpp</text>
</a>
</g>
</g>
<!-- Node1&#45;&gt;Node9 -->
<g id="edge8_Node000001_Node000009" class="edge">
<title>Node1&#45;&gt;Node9</title>
<g id="a_edge8_Node000001_Node000009"><a xlink:title=" ">
<path fill="none" stroke="#63b8ff" d="M336.59,-165.49C328.97,-156.71 317.33,-142.77 308.5,-129.75 298.56,-115.1 288.8,-97.52 281.95,-84.51"/>
<polygon fill="#63b8ff" stroke="#63b8ff" points="284.65,-83.11 276.95,-75.83 278.43,-86.32 284.65,-83.11"/>
</a>
</g>
</g>
<!-- Node10 -->
<g id="Node000010" class="node">
<title>Node10</title>
<g id="a_Node000010"><a xlink:title=" ">
<polygon fill="#e0e0e0" stroke="#999999" points="485.5,-129.75 427.5,-129.75 427.5,-110.5 485.5,-110.5 485.5,-129.75"/>
<text text-anchor="middle" x="456.5" y="-116.25" font-family="Helvetica,sans-Serif" font-size="10.00">RoxMux.h</text>
</a>
</g>
</g>
<!-- Node1&#45;&gt;Node10 -->
<g id="edge11_Node000001_Node000010" class="edge">
<title>Node1&#45;&gt;Node10</title>
<g id="a_edge11_Node000001_Node000010"><a xlink:title=" ">
<path fill="none" stroke="#63b8ff" d="M363.5,-165.34C381.04,-157 407.34,-144.5 427.5,-134.91"/>
<polygon fill="#63b8ff" stroke="#63b8ff" points="428.88,-137.66 436.41,-130.2 425.87,-131.34 428.88,-137.66"/>
</a>
</g>
</g>
<!-- Node11 -->
<g id="Node000011" class="node">
<title>Node11</title>
<g id="a_Node000011"><a xlink:title=" ">
<polygon fill="#e0e0e0" stroke="#999999" points="623.62,-129.75 503.38,-129.75 503.38,-110.5 623.62,-110.5 623.62,-129.75"/>
<text text-anchor="middle" x="563.5" y="-116.25" font-family="Helvetica,sans-Serif" font-size="10.00">ShiftRegister74HC595.h</text>
</a>
</g>
</g>
<!-- Node1&#45;&gt;Node11 -->
<g id="edge12_Node000001_Node000011" class="edge">
<title>Node1&#45;&gt;Node11</title>
<g id="a_edge12_Node000001_Node000011"><a xlink:title=" ">
<path fill="none" stroke="#63b8ff" d="M380.66,-165.58C417.58,-156.61 475.07,-142.63 515.72,-132.74"/>
<polygon fill="#63b8ff" stroke="#63b8ff" points="516.29,-135.96 525.18,-130.2 514.64,-129.16 516.29,-135.96"/>
</a>
</g>
</g>
<!-- Node12 -->
<g id="Node000012" class="node">
<title>Node12</title>
<g id="a_Node000012"><a xlink:title=" ">
<polygon fill="#e0e0e0" stroke="#999999" points="685,-129.75 642,-129.75 642,-110.5 685,-110.5 685,-129.75"/>
<text text-anchor="middle" x="663.5" y="-116.25" font-family="Helvetica,sans-Serif" font-size="10.00">cmath</text>
</a>
</g>
</g>
<!-- Node1&#45;&gt;Node12 -->
<g id="edge13_Node000001_Node000012" class="edge">
<title>Node1&#45;&gt;Node12</title>
<g id="a_edge13_Node000001_Node000012"><a xlink:title=" ">
<path fill="none" stroke="#63b8ff" d="M380.67,-170.16C433.51,-163.7 535.05,-150.15 630.82,-129.88"/>
<polygon fill="#63b8ff" stroke="#63b8ff" points="631.52,-133.09 640.56,-127.57 630.05,-126.25 631.52,-133.09"/>
</a>
</g>
</g>
<!-- Node4 -->
<g id="Node000004" class="node">
<title>Node4</title>
<g id="a_Node000004"><a xlink:href="framework__config_8hpp.xhtml" target="_top" xlink:title="Provides defintions which are specific for the used framework.">
<polygon fill="white" stroke="#666666" points="221.75,-74.5 111.25,-74.5 111.25,-55.25 221.75,-55.25 221.75,-74.5"/>
<text text-anchor="middle" x="166.5" y="-61" font-family="Helvetica,sans-Serif" font-size="10.00">framework_config.hpp</text>
</a>
</g>
</g>
<!-- Node3&#45;&gt;Node4 -->
<g id="edge3_Node000003_Node000004" class="edge">
<title>Node3&#45;&gt;Node4</title>
<g id="a_edge3_Node000003_Node000004"><a xlink:title=" ">
<path fill="none" stroke="#63b8ff" d="M182.36,-110.33C179.93,-103.51 176.47,-93.81 173.4,-85.2"/>
<polygon fill="#63b8ff" stroke="#63b8ff" points="176.36,-84.1 169.71,-75.86 169.77,-86.45 176.36,-84.1"/>
</a>
</g>
</g>
<!-- Node4&#45;&gt;Node5 -->
<g id="edge4_Node000004_Node000005" class="edge">
<title>Node4&#45;&gt;Node5</title>
<g id="a_edge4_Node000004_Node000005"><a xlink:title=" ">
<path fill="none" stroke="#63b8ff" d="M159.73,-55.08C154.13,-47.8 145.99,-37.23 139.05,-28.23"/>
<polygon fill="#63b8ff" stroke="#63b8ff" points="141.29,-26.4 132.42,-20.61 135.74,-30.67 141.29,-26.4"/>
</a>
</g>
</g>
<!-- Node4&#45;&gt;Node6 -->
<g id="edge5_Node000004_Node000006" class="edge">
<title>Node4&#45;&gt;Node6</title>
<g id="a_edge5_Node000004_Node000006"><a xlink:title=" ">
<path fill="none" stroke="#63b8ff" d="M184.48,-54.84C201,-46.54 225.75,-34.11 244.79,-24.54"/>
<polygon fill="#63b8ff" stroke="#63b8ff" points="246.07,-27.32 253.43,-19.7 242.92,-21.06 246.07,-27.32"/>
</a>
</g>
</g>
<!-- Node8 -->
<g id="Node000008" class="node">
<title>Node8</title>
<g id="a_Node000008"><a xlink:title=" ">
<polygon fill="#e0e0e0" stroke="#999999" points="371.25,-74.5 323.75,-74.5 323.75,-55.25 371.25,-55.25 371.25,-74.5"/>
<text text-anchor="middle" x="347.5" y="-61" font-family="Helvetica,sans-Serif" font-size="10.00">stdint.h</text>
</a>
</g>
</g>
<!-- Node7&#45;&gt;Node8 -->
<g id="edge7_Node000007_Node000008" class="edge">
<title>Node7&#45;&gt;Node8</title>
<g id="a_edge7_Node000007_Node000008"><a xlink:title=" ">
<path fill="none" stroke="#63b8ff" d="M345,-110.33C345.37,-103.67 345.9,-94.24 346.38,-85.78"/>
<polygon fill="#63b8ff" stroke="#63b8ff" points="349.93,-86.04 346.99,-75.86 342.94,-85.65 349.93,-86.04"/>
</a>
</g>
</g>
<!-- Node9&#45;&gt;Node6 -->
<g id="edge9_Node000009_Node000006" class="edge">
<title>Node9&#45;&gt;Node6</title>
<g id="a_edge9_Node000009_Node000006"><a xlink:title=" ">
<path fill="none" stroke="#63b8ff" d="M272.5,-55.08C272.5,-48.42 272.5,-38.99 272.5,-30.53"/>
<polygon fill="#63b8ff" stroke="#63b8ff" points="276,-30.61 272.5,-20.61 269,-30.61 276,-30.61"/>
</a>
</g>
</g>
</g>
</svg>
