<?xml version="1.0" encoding="UTF-8" standalone="no"?>
<!DOCTYPE svg PUBLIC "-//W3C//DTD SVG 1.1//EN"
 "http://www.w3.org/Graphics/SVG/1.1/DTD/svg11.dtd">
<!-- Generated by graphviz version 8.0.5 (20230430.1635)
 -->
<!-- Title: src/main.cpp Pages: 1 -->
<svg width="632pt" height="193pt"
 viewBox="0.00 0.00 631.62 193.00" xmlns="http://www.w3.org/2000/svg" xmlns:xlink="http://www.w3.org/1999/xlink">
<g id="graph0" class="graph" transform="scale(1 1) rotate(0) translate(4 189)">
<title>src/main.cpp</title>
<!-- Node1 -->
<g id="Node000001" class="node">
<title>Node1</title>
<g id="a_Node000001"><a xlink:title=" ">
<polygon fill="#999999" stroke="#666666" points="344.25,-185 272.75,-185 272.75,-165.75 344.25,-165.75 344.25,-185"/>
<text text-anchor="middle" x="308.5" y="-171.5" font-family="Helvetica,sans-Serif" font-size="10.00">src/main.cpp</text>
</a>
</g>
</g>
<!-- Node2 -->
<g id="Node000002" class="node">
<title>Node2</title>
<g id="a_Node000002"><a xlink:href="main_8hpp.xhtml" target="_top" xlink:title=" ">
<polygon fill="white" stroke="#666666" points="55,-129.75 0,-129.75 0,-110.5 55,-110.5 55,-129.75"/>
<text text-anchor="middle" x="27.5" y="-116.25" font-family="Helvetica,sans-Serif" font-size="10.00">main.hpp</text>
</a>
</g>
</g>
<!-- Node1&#45;&gt;Node2 -->
<g id="edge1_Node000001_Node000002" class="edge">
<title>Node1&#45;&gt;Node2</title>
<g id="a_edge1_Node000001_Node000002"><a xlink:title=" ">
<path fill="none" stroke="#63b8ff" d="M272.43,-167.85C225.6,-159.33 141.37,-143.84 69.5,-129.75 68.19,-129.49 66.85,-129.23 65.5,-128.96"/>
<polygon fill="#63b8ff" stroke="#63b8ff" points="66.54,-125.4 56.05,-126.86 65.16,-132.26 66.54,-125.4"/>
</a>
</g>
</g>
<!-- Node3 -->
<g id="Node000003" class="node">
<title>Node3</title>
<g id="a_Node000003"><a xlink:href="board__pins_8hpp.xhtml" target="_top" xlink:title="Provides named objects for the pins provided by the board.">
<polygon fill="white" stroke="#666666" points="222.12,-129.75 140.88,-129.75 140.88,-110.5 222.12,-110.5 222.12,-129.75"/>
<text text-anchor="middle" x="181.5" y="-116.25" font-family="Helvetica,sans-Serif" font-size="10.00">board_pins.hpp</text>
</a>
</g>
</g>
<!-- Node1&#45;&gt;Node3 -->
<g id="edge2_Node000001_Node000003" class="edge">
<title>Node1&#45;&gt;Node3</title>
<g id="a_edge2_Node000001_Node000003"><a xlink:title=" ">
<path fill="none" stroke="#63b8ff" d="M286.96,-165.34C266.7,-156.85 236.15,-144.04 213.13,-134.39"/>
<polygon fill="#63b8ff" stroke="#63b8ff" points="214.73,-130.84 204.15,-130.2 212.02,-137.3 214.73,-130.84"/>
</a>
</g>
</g>
<!-- Node5 -->
<g id="Node000005" class="node">
<title>Node5</title>
<g id="a_Node000005"><a xlink:title=" ">
<polygon fill="#e0e0e0" stroke="#999999" points="153.75,-19.25 97.25,-19.25 97.25,0 153.75,0 153.75,-19.25"/>
<text text-anchor="middle" x="125.5" y="-5.75" font-family="Helvetica,sans-Serif" font-size="10.00">Arduino.h</text>
</a>
</g>
</g>
<!-- Node1&#45;&gt;Node5 -->
<g id="edge10_Node000001_Node000005" class="edge">
<title>Node1&#45;&gt;Node5</title>
<g id="a_edge10_Node000001_Node000005"><a xlink:title=" ">
<path fill="none" stroke="#63b8ff" d="M272.52,-173.71C233.86,-171.24 172.45,-162.01 131.5,-129.75 103.59,-107.76 94.12,-89.78 102.5,-55.25 104.73,-46.06 109.2,-36.65 113.61,-28.85"/>
<polygon fill="#63b8ff" stroke="#63b8ff" points="116.98,-31.05 119.18,-20.68 111,-27.41 116.98,-31.05"/>
</a>
</g>
</g>
<!-- Node6 -->
<g id="Node000006" class="node">
<title>Node6</title>
<g id="a_Node000006"><a xlink:title=" ">
<polygon fill="#e0e0e0" stroke="#999999" points="295.12,-19.25 249.88,-19.25 249.88,0 295.12,0 295.12,-19.25"/>
<text text-anchor="middle" x="272.5" y="-5.75" font-family="Helvetica,sans-Serif" font-size="10.00">cstdint</text>
</a>
</g>
</g>
<!-- Node1&#45;&gt;Node6 -->
<g id="edge13_Node000001_Node000006" class="edge">
<title>Node1&#45;&gt;Node6</title>
<g id="a_edge13_Node000001_Node000006"><a xlink:title=" ">
<path fill="none" stroke="#63b8ff" d="M332.23,-165.38C347.64,-158.21 366.63,-146.55 376.5,-129.75 393.3,-101.16 398.93,-82.81 380.5,-55.25 363.99,-30.57 331.07,-19.52 305.89,-14.59"/>
<polygon fill="#63b8ff" stroke="#63b8ff" points="306.74,-11.01 296.29,-12.78 305.56,-17.91 306.74,-11.01"/>
</a>
</g>
</g>
<!-- Node7 -->
<g id="Node000007" class="node">
<title>Node7</title>
<g id="a_Node000007"><a xlink:href="display_8h.xhtml" target="_top" xlink:title=" ">
<polygon fill="white" stroke="#666666" points="367.25,-129.75 313.75,-129.75 313.75,-110.5 367.25,-110.5 367.25,-129.75"/>
<text text-anchor="middle" x="340.5" y="-116.25" font-family="Helvetica,sans-Serif" font-size="10.00">display.h</text>
</a>
</g>
</g>
<!-- Node1&#45;&gt;Node7 -->
<g id="edge6_Node000001_Node000007" class="edge">
<title>Node1&#45;&gt;Node7</title>
<g id="a_edge6_Node000001_Node000007"><a xlink:title=" ">
<path fill="none" stroke="#63b8ff" d="M313.78,-165.58C318.07,-158.46 324.24,-148.18 329.58,-139.3"/>
<polygon fill="#63b8ff" stroke="#63b8ff" points="332.95,-141.48 335.1,-131.11 326.95,-137.88 332.95,-141.48"/>
</a>
</g>
</g>
<!-- Node9 -->
<g id="Node000009" class="node">
<title>Node9</title>
<g id="a_Node000009"><a xlink:href="pitches_8hpp.xhtml" target="_top" xlink:title=" ">
<polygon fill="white" stroke="#666666" points="305.25,-74.5 239.75,-74.5 239.75,-55.25 305.25,-55.25 305.25,-74.5"/>
<text text-anchor="middle" x="272.5" y="-61" font-family="Helvetica,sans-Serif" font-size="10.00">pitches.hpp</text>
</a>
</g>
</g>
<!-- Node1&#45;&gt;Node9 -->
<g id="edge8_Node000001_Node000009" class="edge">
<title>Node1&#45;&gt;Node9</title>
<g id="a_edge8_Node000001_Node000009"><a xlink:title=" ">
<path fill="none" stroke="#63b8ff" d="M305.55,-165.5C299.75,-148.01 286.73,-108.77 278.87,-85.09"/>
<polygon fill="#63b8ff" stroke="#63b8ff" points="281.96,-84.27 275.49,-75.88 275.31,-86.47 281.96,-84.27"/>
</a>
</g>
</g>
<!-- Node10 -->
<g id="Node000010" class="node">
<title>Node10</title>
<g id="a_Node000010"><a xlink:title=" ">
<polygon fill="#e0e0e0" stroke="#999999" points="485.5,-129.75 427.5,-129.75 427.5,-110.5 485.5,-110.5 485.5,-129.75"/>
<text text-anchor="middle" x="456.5" y="-116.25" font-family="Helvetica,sans-Serif" font-size="10.00">RoxMux.h</text>
</a>
</g>
</g>
<!-- Node1&#45;&gt;Node10 -->
<g id="edge11_Node000001_Node000010" class="edge">
<title>Node1&#45;&gt;Node10</title>
<g id="a_edge11_Node000001_Node000010"><a xlink:title=" ">
<path fill="none" stroke="#63b8ff" d="M333.61,-165.34C357.63,-156.7 394.1,-143.57 421.08,-133.87"/>
<polygon fill="#63b8ff" stroke="#63b8ff" points="422.05,-136.88 430.27,-130.2 419.68,-130.29 422.05,-136.88"/>
</a>
</g>
</g>
<!-- Node11 -->
<g id="Node000011" class="node">
<title>Node11</title>
<g id="a_Node000011"><a xlink:title=" ">
<polygon fill="#e0e0e0" stroke="#999999" points="623.62,-129.75 503.38,-129.75 503.38,-110.5 623.62,-110.5 623.62,-129.75"/>
<text text-anchor="middle" x="563.5" y="-116.25" font-family="Helvetica,sans-Serif" font-size="10.00">ShiftRegister74HC595.h</text>
</a>
</g>
</g>
<!-- Node1&#45;&gt;Node11 -->
<g id="edge12_Node000001_Node000011" class="edge">
<title>Node1&#45;&gt;Node11</title>
<g id="a_edge12_Node000001_Node000011"><a xlink:title=" ">
<path fill="none" stroke="#63b8ff" d="M344.49,-166.86C387.47,-157.88 459.76,-142.79 509.45,-132.41"/>
<polygon fill="#63b8ff" stroke="#63b8ff" points="509.93,-135.68 519.01,-130.21 508.5,-128.83 509.93,-135.68"/>
</a>
</g>
</g>
<!-- Node4 -->
<g id="Node000004" class="node">
<title>Node4</title>
<g id="a_Node000004"><a xlink:href="framework__config_8hpp.xhtml" target="_top" xlink:title="Provides defintions which are specific for the used framework.">
<polygon fill="white" stroke="#666666" points="221.75,-74.5 111.25,-74.5 111.25,-55.25 221.75,-55.25 221.75,-74.5"/>
<text text-anchor="middle" x="166.5" y="-61" font-family="Helvetica,sans-Serif" font-size="10.00">framework_config.hpp</text>
</a>
</g>
</g>
<!-- Node3&#45;&gt;Node4 -->
<g id="edge3_Node000003_Node000004" class="edge">
<title>Node3&#45;&gt;Node4</title>
<g id="a_edge3_Node000003_Node000004"><a xlink:title=" ">
<path fill="none" stroke="#63b8ff" d="M179.02,-110.33C177.1,-103.51 174.37,-93.81 171.94,-85.2"/>
<polygon fill="#63b8ff" stroke="#63b8ff" points="175.11,-84.54 169.03,-75.86 168.37,-86.43 175.11,-84.54"/>
</a>
</g>
</g>
<!-- Node4&#45;&gt;Node5 -->
<g id="edge4_Node000004_Node000005" class="edge">
<title>Node4&#45;&gt;Node5</title>
<g id="a_edge4_Node000004_Node000005"><a xlink:title=" ">
<path fill="none" stroke="#63b8ff" d="M159.73,-55.08C154.13,-47.8 145.99,-37.23 139.05,-28.23"/>
<polygon fill="#63b8ff" stroke="#63b8ff" points="141.29,-26.4 132.42,-20.61 135.74,-30.67 141.29,-26.4"/>
</a>
</g>
</g>
<!-- Node4&#45;&gt;Node6 -->
<g id="edge5_Node000004_Node000006" class="edge">
<title>Node4&#45;&gt;Node6</title>
<g id="a_edge5_Node000004_Node000006"><a xlink:title=" ">
<path fill="none" stroke="#63b8ff" d="M184.48,-54.84C201,-46.54 225.75,-34.11 244.79,-24.54"/>
<polygon fill="#63b8ff" stroke="#63b8ff" points="246.07,-27.32 253.43,-19.7 242.92,-21.06 246.07,-27.32"/>
</a>
</g>
</g>
<!-- Node8 -->
<g id="Node000008" class="node">
<title>Node8</title>
<g id="a_Node000008"><a xlink:title=" ">
<polygon fill="#e0e0e0" stroke="#999999" points="371.25,-74.5 323.75,-74.5 323.75,-55.25 371.25,-55.25 371.25,-74.5"/>
<text text-anchor="middle" x="347.5" y="-61" font-family="Helvetica,sans-Serif" font-size="10.00">stdint.h</text>
</a>
</g>
</g>
<!-- Node7&#45;&gt;Node8 -->
<g id="edge7_Node000007_Node000008" class="edge">
<title>Node7&#45;&gt;Node8</title>
<g id="a_edge7_Node000007_Node000008"><a xlink:title=" ">
<path fill="none" stroke="#63b8ff" d="M341.66,-110.33C342.54,-103.59 343.8,-94.02 344.92,-85.49"/>
<polygon fill="#63b8ff" stroke="#63b8ff" points="348.49,-86.23 346.32,-75.86 341.55,-85.32 348.49,-86.23"/>
</a>
</g>
</g>
<!-- Node9&#45;&gt;Node6 -->
<g id="edge9_Node000009_Node000006" class="edge">
<title>Node9&#45;&gt;Node6</title>
<g id="a_edge9_Node000009_Node000006"><a xlink:title=" ">
<path fill="none" stroke="#63b8ff" d="M272.5,-55.08C272.5,-48.42 272.5,-38.99 272.5,-30.53"/>
<polygon fill="#63b8ff" stroke="#63b8ff" points="276,-30.61 272.5,-20.61 269,-30.61 276,-30.61"/>
</a>
</g>
</g>
</g>
</svg>
