<?xml version="1.0" encoding="UTF-8" standalone="no"?>
<!DOCTYPE svg PUBLIC "-//W3C//DTD SVG 1.1//EN"
 "http://www.w3.org/Graphics/SVG/1.1/DTD/svg11.dtd">
<!-- Generated by graphviz version 9.0.0 (20230911.1827)
 -->
<!-- Title: src/main.cpp Pages: 1 -->
<svg width="417pt" height="193pt"
 viewBox="0.00 0.00 417.25 193.00" xmlns="http://www.w3.org/2000/svg" xmlns:xlink="http://www.w3.org/1999/xlink">
<g id="graph0" class="graph" transform="scale(1 1) rotate(0) translate(4 189)">
<title>src/main.cpp</title>
<!-- Node1 -->
<g id="Node000001" class="node">
<title>Node1</title>
<g id="a_Node000001"><a xlink:title=" ">
<polygon fill="#999999" stroke="#666666" points="247.25,-185 175.75,-185 175.75,-165.75 247.25,-165.75 247.25,-185"/>
<text text-anchor="middle" x="211.5" y="-171.5" font-family="Helvetica,sans-Serif" font-size="10.00">src/main.cpp</text>
</a>
</g>
</g>
<!-- Node2 -->
<g id="Node000002" class="node">
<title>Node2</title>
<g id="a_Node000002"><a xlink:href="main_8hpp.xhtml" target="_top" xlink:title=" ">
<polygon fill="white" stroke="#666666" points="55,-129.75 0,-129.75 0,-110.5 55,-110.5 55,-129.75"/>
<text text-anchor="middle" x="27.5" y="-116.25" font-family="Helvetica,sans-Serif" font-size="10.00">main.hpp</text>
</a>
</g>
</g>
<!-- Node1&#45;&gt;Node2 -->
<g id="edge1_Node000001_Node000002" class="edge">
<title>Node1&#45;&gt;Node2</title>
<g id="a_edge1_Node000001_Node000002"><a xlink:title=" ">
<path fill="none" stroke="#63b8ff" d="M180.29,-165.34C148.78,-156.22 100.06,-142.13 66.14,-132.31"/>
<polygon fill="#63b8ff" stroke="#63b8ff" points="67.28,-128.99 56.7,-129.58 65.34,-135.72 67.28,-128.99"/>
</a>
</g>
</g>
<!-- Node3 -->
<g id="Node000003" class="node">
<title>Node3</title>
<g id="a_Node000003"><a xlink:href="board__pins_8hpp.xhtml" target="_top" xlink:title="Provides named objects for the pins provided by the board.">
<polygon fill="white" stroke="#666666" points="214.12,-129.75 132.88,-129.75 132.88,-110.5 214.12,-110.5 214.12,-129.75"/>
<text text-anchor="middle" x="173.5" y="-116.25" font-family="Helvetica,sans-Serif" font-size="10.00">board_pins.hpp</text>
</a>
</g>
</g>
<!-- Node1&#45;&gt;Node3 -->
<g id="edge2_Node000001_Node000003" class="edge">
<title>Node1&#45;&gt;Node3</title>
<g id="a_edge2_Node000001_Node000003"><a xlink:title=" ">
<path fill="none" stroke="#63b8ff" d="M205.23,-165.58C200.14,-158.46 192.8,-148.18 186.47,-139.3"/>
<polygon fill="#63b8ff" stroke="#63b8ff" points="189.45,-137.45 180.79,-131.34 183.75,-141.51 189.45,-137.45"/>
</a>
</g>
</g>
<!-- Node5 -->
<g id="Node000005" class="node">
<title>Node5</title>
<g id="a_Node000005"><a xlink:title=" ">
<polygon fill="#e0e0e0" stroke="#999999" points="114.75,-19.25 58.25,-19.25 58.25,0 114.75,0 114.75,-19.25"/>
<text text-anchor="middle" x="86.5" y="-5.75" font-family="Helvetica,sans-Serif" font-size="10.00">Arduino.h</text>
</a>
</g>
</g>
<!-- Node1&#45;&gt;Node5 -->
<g id="edge11_Node000001_Node000005" class="edge">
<title>Node1&#45;&gt;Node5</title>
<g id="a_edge11_Node000001_Node000005"><a xlink:title=" ">
<path fill="none" stroke="#63b8ff" d="M181.05,-165.26C162.24,-158.25 138.85,-146.82 123.5,-129.75 98.35,-101.78 90.3,-56.94 87.72,-30.99"/>
<polygon fill="#63b8ff" stroke="#63b8ff" points="91.22,-30.83 86.94,-21.13 84.24,-31.38 91.22,-30.83"/>
</a>
</g>
</g>
<!-- Node6 -->
<g id="Node000006" class="node">
<title>Node6</title>
<g id="a_Node000006"><a xlink:title=" ">
<polygon fill="#e0e0e0" stroke="#999999" points="272.12,-19.25 226.88,-19.25 226.88,0 272.12,0 272.12,-19.25"/>
<text text-anchor="middle" x="249.5" y="-5.75" font-family="Helvetica,sans-Serif" font-size="10.00">cstdint</text>
</a>
</g>
</g>
<!-- Node1&#45;&gt;Node6 -->
<g id="edge12_Node000001_Node000006" class="edge">
<title>Node1&#45;&gt;Node6</title>
<g id="a_edge12_Node000001_Node000006"><a xlink:title=" ">
<path fill="none" stroke="#63b8ff" d="M214.02,-165.52C216.54,-156.54 220.46,-142.22 223.5,-129.75 231.95,-95.06 240.55,-54.36 245.44,-30.64"/>
<polygon fill="#63b8ff" stroke="#63b8ff" points="248.81,-31.61 247.39,-21.11 241.95,-30.2 248.81,-31.61"/>
</a>
</g>
</g>
<!-- Node8 -->
<g id="Node000008" class="node">
<title>Node8</title>
<g id="a_Node000008"><a xlink:href="display_8h.xhtml" target="_top" xlink:title=" ">
<polygon fill="white" stroke="#666666" points="331.25,-129.75 277.75,-129.75 277.75,-110.5 331.25,-110.5 331.25,-129.75"/>
<text text-anchor="middle" x="304.5" y="-116.25" font-family="Helvetica,sans-Serif" font-size="10.00">display.h</text>
</a>
</g>
</g>
<!-- Node1&#45;&gt;Node8 -->
<g id="edge7_Node000001_Node000008" class="edge">
<title>Node1&#45;&gt;Node8</title>
<g id="a_edge7_Node000001_Node000008"><a xlink:title=" ">
<path fill="none" stroke="#63b8ff" d="M227.28,-165.34C241.44,-157.23 262.48,-145.18 279.03,-135.71"/>
<polygon fill="#63b8ff" stroke="#63b8ff" points="280.39,-138.96 287.33,-130.95 276.92,-132.89 280.39,-138.96"/>
</a>
</g>
</g>
<!-- Node10 -->
<g id="Node000010" class="node">
<title>Node10</title>
<g id="a_Node000010"><a xlink:href="pitches_8hpp.xhtml" target="_top" xlink:title=" ">
<polygon fill="white" stroke="#666666" points="409.25,-74.5 343.75,-74.5 343.75,-55.25 409.25,-55.25 409.25,-74.5"/>
<text text-anchor="middle" x="376.5" y="-61" font-family="Helvetica,sans-Serif" font-size="10.00">pitches.hpp</text>
</a>
</g>
</g>
<!-- Node1&#45;&gt;Node10 -->
<g id="edge9_Node000001_Node000010" class="edge">
<title>Node1&#45;&gt;Node10</title>
<g id="a_edge9_Node000001_Node000010"><a xlink:title=" ">
<path fill="none" stroke="#63b8ff" d="M247.48,-169.07C275.45,-163.39 313.84,-151.99 340.5,-129.75 354.55,-118.03 364.17,-99.33 369.91,-85.19"/>
<polygon fill="#63b8ff" stroke="#63b8ff" points="373.1,-86.64 373.3,-76.05 366.54,-84.21 373.1,-86.64"/>
</a>
</g>
</g>
<!-- Node4 -->
<g id="Node000004" class="node">
<title>Node4</title>
<g id="a_Node000004"><a xlink:href="framework__config_8hpp.xhtml" target="_top" xlink:title="Provides defintions which are specific for the used framework.">
<polygon fill="white" stroke="#666666" points="221.75,-74.5 111.25,-74.5 111.25,-55.25 221.75,-55.25 221.75,-74.5"/>
<text text-anchor="middle" x="166.5" y="-61" font-family="Helvetica,sans-Serif" font-size="10.00">framework_config.hpp</text>
</a>
</g>
</g>
<!-- Node3&#45;&gt;Node4 -->
<g id="edge3_Node000003_Node000004" class="edge">
<title>Node3&#45;&gt;Node4</title>
<g id="a_edge3_Node000003_Node000004"><a xlink:title=" ">
<path fill="none" stroke="#63b8ff" d="M172.34,-110.33C171.48,-103.74 170.26,-94.46 169.16,-86.07"/>
<polygon fill="#63b8ff" stroke="#63b8ff" points="172.65,-85.82 167.88,-76.36 165.71,-86.73 172.65,-85.82"/>
</a>
</g>
</g>
<!-- Node4&#45;&gt;Node5 -->
<g id="edge4_Node000004_Node000005" class="edge">
<title>Node4&#45;&gt;Node5</title>
<g id="a_edge4_Node000004_Node000005"><a xlink:title=" ">
<path fill="none" stroke="#63b8ff" d="M152.93,-54.84C141.09,-46.96 123.66,-35.36 109.63,-26.02"/>
<polygon fill="#63b8ff" stroke="#63b8ff" points="111.66,-23.17 101.4,-20.54 107.78,-29 111.66,-23.17"/>
</a>
</g>
</g>
<!-- Node4&#45;&gt;Node6 -->
<g id="edge5_Node000004_Node000006" class="edge">
<title>Node4&#45;&gt;Node6</title>
<g id="a_edge5_Node000004_Node000006"><a xlink:title=" ">
<path fill="none" stroke="#63b8ff" d="M180.58,-54.84C192.98,-46.89 211.29,-35.14 225.93,-25.75"/>
<polygon fill="#63b8ff" stroke="#63b8ff" points="227.55,-28.87 234.08,-20.52 223.77,-22.97 227.55,-28.87"/>
</a>
</g>
</g>
<!-- Node7 -->
<g id="Node000007" class="node">
<title>Node7</title>
<g id="a_Node000007"><a xlink:title=" ">
<polygon fill="#e0e0e0" stroke="#999999" points="197,-19.25 136,-19.25 136,0 197,0 197,-19.25"/>
<text text-anchor="middle" x="166.5" y="-5.75" font-family="Helvetica,sans-Serif" font-size="10.00">type_traits</text>
</a>
</g>
</g>
<!-- Node4&#45;&gt;Node7 -->
<g id="edge6_Node000004_Node000007" class="edge">
<title>Node4&#45;&gt;Node7</title>
<g id="a_edge6_Node000004_Node000007"><a xlink:title=" ">
<path fill="none" stroke="#63b8ff" d="M166.5,-55.08C166.5,-48.57 166.5,-39.42 166.5,-31.12"/>
<polygon fill="#63b8ff" stroke="#63b8ff" points="170,-31.12 166.5,-21.12 163,-31.12 170,-31.12"/>
</a>
</g>
</g>
<!-- Node9 -->
<g id="Node000009" class="node">
<title>Node9</title>
<g id="a_Node000009"><a xlink:title=" ">
<polygon fill="#e0e0e0" stroke="#999999" points="325.25,-74.5 277.75,-74.5 277.75,-55.25 325.25,-55.25 325.25,-74.5"/>
<text text-anchor="middle" x="301.5" y="-61" font-family="Helvetica,sans-Serif" font-size="10.00">stdint.h</text>
</a>
</g>
</g>
<!-- Node8&#45;&gt;Node9 -->
<g id="edge8_Node000008_Node000009" class="edge">
<title>Node8&#45;&gt;Node9</title>
<g id="a_edge8_Node000008_Node000009"><a xlink:title=" ">
<path fill="none" stroke="#63b8ff" d="M304,-110.33C303.63,-103.74 303.11,-94.46 302.64,-86.07"/>
<polygon fill="#63b8ff" stroke="#63b8ff" points="306.15,-86.16 302.09,-76.37 299.16,-86.55 306.15,-86.16"/>
</a>
</g>
</g>
<!-- Node10&#45;&gt;Node6 -->
<g id="edge10_Node000010_Node000006" class="edge">
<title>Node10&#45;&gt;Node6</title>
<g id="a_edge10_Node000010_Node000006"><a xlink:title=" ">
<path fill="none" stroke="#63b8ff" d="M354.96,-54.84C334.89,-46.43 304.7,-33.77 281.75,-24.15"/>
<polygon fill="#63b8ff" stroke="#63b8ff" points="283.12,-20.93 272.55,-20.29 280.41,-27.38 283.12,-20.93"/>
</a>
</g>
</g>
</g>
</svg>
