<?xml version="1.0" encoding="UTF-8" standalone="no"?>
<!DOCTYPE svg PUBLIC "-//W3C//DTD SVG 1.1//EN"
 "http://www.w3.org/Graphics/SVG/1.1/DTD/svg11.dtd">
<!-- Generated by graphviz version 8.0.5 (20230430.1635)
 -->
<!-- Title: src/main.hpp Pages: 1 -->
<svg width="196pt" height="83pt"
 viewBox="0.00 0.00 196.38 82.50" xmlns="http://www.w3.org/2000/svg" xmlns:xlink="http://www.w3.org/1999/xlink">
<g id="graph0" class="graph" transform="scale(1 1) rotate(0) translate(4 78.5)">
<title>src/main.hpp</title>
<!-- Node1 -->
<g id="node1" class="node">
<title>Node1</title>
<g id="a_node1"><a xlink:title=" ">
<polygon fill="#999999" stroke="#666666" points="122.5,-74.5 51,-74.5 51,-55.25 122.5,-55.25 122.5,-74.5"/>
<text text-anchor="middle" x="86.75" y="-61" font-family="Helvetica,sans-Serif" font-size="10.00">src/main.hpp</text>
</a>
</g>
</g>
<!-- Node2 -->
<g id="node2" class="node">
<title>Node2</title>
<g id="a_node2"><a xlink:href="main_8cpp.xhtml" target="_top" xlink:title=" ">
<polygon fill="white" stroke="#666666" points="71.5,-19.25 0,-19.25 0,0 71.5,0 71.5,-19.25"/>
<text text-anchor="middle" x="35.75" y="-5.75" font-family="Helvetica,sans-Serif" font-size="10.00">src/main.cpp</text>
</a>
</g>
</g>
<!-- Node1&#45;&gt;Node2 -->
<g id="edge1" class="edge">
<title>Node1&#45;&gt;Node2</title>
<path fill="none" stroke="#63b8ff" d="M70.93,-47.35C62.16,-38.2 51.6,-27.18 44.35,-19.61"/>
<polygon fill="#63b8ff" stroke="#63b8ff" points="67.88,-49.28 77.33,-54.08 72.94,-44.44 67.88,-49.28"/>
</g>
<!-- Node3 -->
<g id="node3" class="node">
<title>Node3</title>
<g id="a_node3"><a xlink:href="time-tracker_8ino.xhtml" target="_top" xlink:title=" ">
<polygon fill="white" stroke="#666666" points="188.38,-19.25 89.12,-19.25 89.12,0 188.38,0 188.38,-19.25"/>
<text text-anchor="middle" x="138.75" y="-5.75" font-family="Helvetica,sans-Serif" font-size="10.00">src/time&#45;tracker.ino</text>
</a>
</g>
</g>
<!-- Node1&#45;&gt;Node3 -->
<g id="edge2" class="edge">
<title>Node1&#45;&gt;Node3</title>
<path fill="none" stroke="#63b8ff" d="M102.88,-47.35C111.82,-38.2 122.59,-27.18 129.98,-19.61"/>
<polygon fill="#63b8ff" stroke="#63b8ff" points="100.82,-44.48 96.34,-54.08 105.83,-49.37 100.82,-44.48"/>
</g>
</g>
</svg>
