<?xml version="1.0" encoding="UTF-8" standalone="no"?>
<!DOCTYPE svg PUBLIC "-//W3C//DTD SVG 1.1//EN"
 "http://www.w3.org/Graphics/SVG/1.1/DTD/svg11.dtd">
<!-- Generated by graphviz version 7.0.5 (20221223.1930)
 -->
<!-- Title: lib/application_business_rules/command_line_interpreter.hpp Pages: 1 -->
<svg width="670pt" height="93pt"
 viewBox="0.00 0.00 670.00 93.00" xmlns="http://www.w3.org/2000/svg" xmlns:xlink="http://www.w3.org/1999/xlink">
<g id="graph0" class="graph" transform="scale(1 1) rotate(0) translate(4 89)">
<title>lib/application_business_rules/command_line_interpreter.hpp</title>
<!-- Node1 -->
<g id="node1" class="node">
<title>Node1</title>
<g id="a_node1"><a xlink:title=" ">
<polygon fill="#999999" stroke="#666666" points="425,-85 249,-85 249,-55 425,-55 425,-85"/>
<text text-anchor="start" x="257" y="-73" font-family="Helvetica,sans-Serif" font-size="10.00">lib/application_business</text>
<text text-anchor="middle" x="337" y="-62" font-family="Helvetica,sans-Serif" font-size="10.00">_rules/command_line_interpreter.hpp</text>
</a>
</g>
</g>
<!-- Node2 -->
<g id="node2" class="node">
<title>Node2</title>
<g id="a_node2"><a xlink:title=" ">
<polygon fill="#e0e0e0" stroke="#999999" points="46,-19 0,-19 0,0 46,0 46,-19"/>
<text text-anchor="middle" x="23" y="-7" font-family="Helvetica,sans-Serif" font-size="10.00">cstring</text>
</a>
</g>
</g>
<!-- Node1&#45;&gt;Node2 -->
<g id="edge1" class="edge">
<title>Node1&#45;&gt;Node2</title>
<path fill="none" stroke="#63b8ff" d="M248.66,-55.3C195.72,-46.63 126.86,-34.55 57.5,-19.41"/>
<polygon fill="#63b8ff" stroke="#63b8ff" points="58.36,-16.01 47.84,-17.27 56.85,-22.85 58.36,-16.01"/>
</g>
<!-- Node3 -->
<g id="node3" class="node">
<title>Node3</title>
<g id="a_node3"><a xlink:title=" ">
<polygon fill="#e0e0e0" stroke="#999999" points="112,-19 64,-19 64,0 112,0 112,-19"/>
<text text-anchor="middle" x="88" y="-7" font-family="Helvetica,sans-Serif" font-size="10.00">cwchar</text>
</a>
</g>
</g>
<!-- Node1&#45;&gt;Node3 -->
<g id="edge2" class="edge">
<title>Node1&#45;&gt;Node3</title>
<path fill="none" stroke="#63b8ff" d="M272.63,-54.54C232.32,-45.38 179.02,-33.09 123.6,-19.59"/>
<polygon fill="#63b8ff" stroke="#63b8ff" points="124.51,-16.21 113.96,-17.24 122.85,-23.01 124.51,-16.21"/>
</g>
<!-- Node4 -->
<g id="node4" class="node">
<title>Node4</title>
<g id="a_node4"><a xlink:title=" ">
<polygon fill="#e0e0e0" stroke="#999999" points="189.5,-19 130.5,-19 130.5,0 189.5,0 189.5,-19"/>
<text text-anchor="middle" x="160" y="-7" font-family="Helvetica,sans-Serif" font-size="10.00">functional</text>
</a>
</g>
</g>
<!-- Node1&#45;&gt;Node4 -->
<g id="edge3" class="edge">
<title>Node1&#45;&gt;Node4</title>
<path fill="none" stroke="#63b8ff" d="M293.25,-54.54C264.01,-44.87 225.92,-32.29 197.96,-23.04"/>
<polygon fill="#63b8ff" stroke="#63b8ff" points="199.06,-19.72 188.46,-19.91 196.86,-26.37 199.06,-19.72"/>
</g>
<!-- Node5 -->
<g id="node5" class="node">
<title>Node5</title>
<g id="a_node5"><a xlink:title=" ">
<polygon fill="#e0e0e0" stroke="#999999" points="258,-19 208,-19 208,0 258,0 258,-19"/>
<text text-anchor="middle" x="233" y="-7" font-family="Helvetica,sans-Serif" font-size="10.00">iomanip</text>
</a>
</g>
</g>
<!-- Node1&#45;&gt;Node5 -->
<g id="edge4" class="edge">
<title>Node1&#45;&gt;Node5</title>
<path fill="none" stroke="#63b8ff" d="M311.29,-54.54C295.21,-45.49 274.57,-33.88 258.52,-24.85"/>
<polygon fill="#63b8ff" stroke="#63b8ff" points="260.48,-21.94 250.05,-20.09 257.05,-28.04 260.48,-21.94"/>
</g>
<!-- Node6 -->
<g id="node6" class="node">
<title>Node6</title>
<g id="a_node6"><a xlink:title=" ">
<polygon fill="#e0e0e0" stroke="#999999" points="330,-19 276,-19 276,0 330,0 330,-19"/>
<text text-anchor="middle" x="303" y="-7" font-family="Helvetica,sans-Serif" font-size="10.00">iostream</text>
</a>
</g>
</g>
<!-- Node1&#45;&gt;Node6 -->
<g id="edge5" class="edge">
<title>Node1&#45;&gt;Node6</title>
<path fill="none" stroke="#63b8ff" d="M328.6,-54.54C324.11,-46.82 318.54,-37.24 313.75,-28.99"/>
<polygon fill="#63b8ff" stroke="#63b8ff" points="316.85,-27.37 308.8,-20.48 310.8,-30.89 316.85,-27.37"/>
</g>
<!-- Node7 -->
<g id="node7" class="node">
<title>Node7</title>
<g id="a_node7"><a xlink:title=" ">
<polygon fill="#e0e0e0" stroke="#999999" points="395.5,-19 348.5,-19 348.5,0 395.5,0 395.5,-19"/>
<text text-anchor="middle" x="372" y="-7" font-family="Helvetica,sans-Serif" font-size="10.00">iterator</text>
</a>
</g>
</g>
<!-- Node1&#45;&gt;Node7 -->
<g id="edge6" class="edge">
<title>Node1&#45;&gt;Node7</title>
<path fill="none" stroke="#63b8ff" d="M345.65,-54.54C350.27,-46.82 356,-37.24 360.94,-28.99"/>
<polygon fill="#63b8ff" stroke="#63b8ff" points="363.9,-30.85 366.03,-20.47 357.89,-27.26 363.9,-30.85"/>
</g>
<!-- Node8 -->
<g id="node8" class="node">
<title>Node8</title>
<g id="a_node8"><a xlink:title=" ">
<polygon fill="#e0e0e0" stroke="#999999" points="466,-19 414,-19 414,0 466,0 466,-19"/>
<text text-anchor="middle" x="440" y="-7" font-family="Helvetica,sans-Serif" font-size="10.00">sstream</text>
</a>
</g>
</g>
<!-- Node1&#45;&gt;Node8 -->
<g id="edge7" class="edge">
<title>Node1&#45;&gt;Node8</title>
<path fill="none" stroke="#63b8ff" d="M362.46,-54.54C378.39,-45.49 398.83,-33.88 414.73,-24.85"/>
<polygon fill="#63b8ff" stroke="#63b8ff" points="416.14,-28.08 423.11,-20.09 412.68,-21.99 416.14,-28.08"/>
</g>
<!-- Node9 -->
<g id="node9" class="node">
<title>Node9</title>
<g id="a_node9"><a xlink:title=" ">
<polygon fill="#e0e0e0" stroke="#999999" points="543.5,-19 484.5,-19 484.5,0 543.5,0 543.5,-19"/>
<text text-anchor="middle" x="514" y="-7" font-family="Helvetica,sans-Serif" font-size="10.00">stdexcept</text>
</a>
</g>
</g>
<!-- Node1&#45;&gt;Node9 -->
<g id="edge8" class="edge">
<title>Node1&#45;&gt;Node9</title>
<path fill="none" stroke="#63b8ff" d="M380.75,-54.54C409.99,-44.87 448.08,-32.29 476.04,-23.04"/>
<polygon fill="#63b8ff" stroke="#63b8ff" points="477.14,-26.37 485.54,-19.91 474.94,-19.72 477.14,-26.37"/>
</g>
<!-- Node10 -->
<g id="node10" class="node">
<title>Node10</title>
<g id="a_node10"><a xlink:title=" ">
<polygon fill="#e0e0e0" stroke="#999999" points="600,-19 562,-19 562,0 600,0 600,-19"/>
<text text-anchor="middle" x="581" y="-7" font-family="Helvetica,sans-Serif" font-size="10.00">tuple</text>
</a>
</g>
</g>
<!-- Node1&#45;&gt;Node10 -->
<g id="edge9" class="edge">
<title>Node1&#45;&gt;Node10</title>
<path fill="none" stroke="#63b8ff" d="M404.91,-54.51C444.93,-45.69 496.76,-33.77 550.91,-19.42"/>
<polygon fill="#63b8ff" stroke="#63b8ff" points="551.55,-22.88 560.31,-16.91 549.74,-16.11 551.55,-22.88"/>
</g>
<!-- Node11 -->
<g id="node11" class="node">
<title>Node11</title>
<g id="a_node11"><a xlink:title=" ">
<polygon fill="#e0e0e0" stroke="#999999" points="662,-19 618,-19 618,0 662,0 662,-19"/>
<text text-anchor="middle" x="640" y="-7" font-family="Helvetica,sans-Serif" font-size="10.00">vector</text>
</a>
</g>
</g>
<!-- Node1&#45;&gt;Node11 -->
<g id="edge10" class="edge">
<title>Node1&#45;&gt;Node11</title>
<path fill="none" stroke="#63b8ff" d="M425.28,-54.75C475.88,-46.11 540.77,-34.26 606.69,-19.37"/>
<polygon fill="#63b8ff" stroke="#63b8ff" points="607.26,-22.83 616.23,-17.2 605.7,-16.01 607.26,-22.83"/>
</g>
</g>
</svg>
