<?xml version="1.0" encoding="UTF-8" standalone="no"?>
<!DOCTYPE svg PUBLIC "-//W3C//DTD SVG 1.1//EN"
 "http://www.w3.org/Graphics/SVG/1.1/DTD/svg11.dtd">
<!-- Generated by graphviz version 7.0.5 (20221223.1930)
 -->
<!-- Title: lib/application_business_rules/command_line_interpreter.hpp Pages: 1 -->
<svg width="291pt" height="170pt"
 viewBox="0.00 0.00 290.50 170.00" xmlns="http://www.w3.org/2000/svg" xmlns:xlink="http://www.w3.org/1999/xlink">
<g id="graph0" class="graph" transform="scale(1 1) rotate(0) translate(4 166)">
<title>lib/application_business_rules/command_line_interpreter.hpp</title>
<!-- Node1 -->
<g id="node1" class="node">
<title>Node1</title>
<g id="a_node1"><a xlink:title=" ">
<polygon fill="#999999" stroke="#666666" points="266,-162 90,-162 90,-132 266,-132 266,-162"/>
<text text-anchor="start" x="98" y="-150" font-family="Helvetica,sans-Serif" font-size="10.00">lib/application_business</text>
<text text-anchor="middle" x="178" y="-139" font-family="Helvetica,sans-Serif" font-size="10.00">_rules/command_line_interpreter.hpp</text>
</a>
</g>
</g>
<!-- Node2 -->
<g id="node2" class="node">
<title>Node2</title>
<g id="a_node2"><a xlink:href="Protocol_8hpp.xhtml" target="_top" xlink:title=" ">
<polygon fill="white" stroke="#666666" points="177,-96 57,-96 57,-66 177,-66 177,-96"/>
<text text-anchor="start" x="65" y="-84" font-family="Helvetica,sans-Serif" font-size="10.00">lib/application_business</text>
<text text-anchor="middle" x="117" y="-73" font-family="Helvetica,sans-Serif" font-size="10.00">_rules/Protocol.hpp</text>
</a>
</g>
</g>
<!-- Node1&#45;&gt;Node2 -->
<g id="edge1" class="edge">
<title>Node1&#45;&gt;Node2</title>
<path fill="none" stroke="#63b8ff" d="M156.58,-123.53C147.91,-114.43 138.15,-104.19 130.5,-96.16"/>
<polygon fill="#63b8ff" stroke="#63b8ff" points="153.98,-125.88 163.42,-130.7 159.05,-121.05 153.98,-125.88"/>
</g>
<!-- Node5 -->
<g id="node5" class="node">
<title>Node5</title>
<g id="a_node5"><a xlink:href="test__cli_8cpp.xhtml" target="_top" xlink:title=" ">
<polygon fill="white" stroke="#666666" points="282.5,-96 195.5,-96 195.5,-66 282.5,-66 282.5,-96"/>
<text text-anchor="start" x="203.5" y="-84" font-family="Helvetica,sans-Serif" font-size="10.00">test/test_cli/test</text>
<text text-anchor="middle" x="239" y="-73" font-family="Helvetica,sans-Serif" font-size="10.00">_cli.cpp</text>
</a>
</g>
</g>
<!-- Node1&#45;&gt;Node5 -->
<g id="edge4" class="edge">
<title>Node1&#45;&gt;Node5</title>
<path fill="none" stroke="#63b8ff" d="M199.42,-123.53C208.09,-114.43 217.85,-104.19 225.5,-96.16"/>
<polygon fill="#63b8ff" stroke="#63b8ff" points="196.95,-121.05 192.58,-130.7 202.02,-125.88 196.95,-121.05"/>
</g>
<!-- Node3 -->
<g id="node3" class="node">
<title>Node3</title>
<g id="a_node3"><a xlink:href="Protocol_8cpp.xhtml" target="_top" xlink:title=" ">
<polygon fill="white" stroke="#666666" points="120,-30 0,-30 0,0 120,0 120,-30"/>
<text text-anchor="start" x="8" y="-18" font-family="Helvetica,sans-Serif" font-size="10.00">lib/application_business</text>
<text text-anchor="middle" x="60" y="-7" font-family="Helvetica,sans-Serif" font-size="10.00">_rules/Protocol.cpp</text>
</a>
</g>
</g>
<!-- Node2&#45;&gt;Node3 -->
<g id="edge2" class="edge">
<title>Node2&#45;&gt;Node3</title>
<path fill="none" stroke="#63b8ff" d="M96.73,-57.24C88.69,-48.21 79.69,-38.11 72.61,-30.16"/>
<polygon fill="#63b8ff" stroke="#63b8ff" points="94.08,-59.53 103.34,-64.67 99.31,-54.87 94.08,-59.53"/>
</g>
<!-- Node4 -->
<g id="node4" class="node">
<title>Node4</title>
<g id="a_node4"><a xlink:href="main_8cpp.xhtml" target="_top" xlink:title=" ">
<polygon fill="white" stroke="#666666" points="210,-24.5 138,-24.5 138,-5.5 210,-5.5 210,-24.5"/>
<text text-anchor="middle" x="174" y="-12.5" font-family="Helvetica,sans-Serif" font-size="10.00">src/main.cpp</text>
</a>
</g>
</g>
<!-- Node2&#45;&gt;Node4 -->
<g id="edge3" class="edge">
<title>Node2&#45;&gt;Node4</title>
<path fill="none" stroke="#63b8ff" d="M137.24,-57.28C147.22,-46.07 158.69,-33.19 166.12,-24.84"/>
<polygon fill="#63b8ff" stroke="#63b8ff" points="134.69,-54.87 130.66,-64.67 139.92,-59.53 134.69,-54.87"/>
</g>
</g>
</svg>
