<?xml version="1.0" encoding="UTF-8" standalone="no"?>
<!DOCTYPE svg PUBLIC "-//W3C//DTD SVG 1.1//EN"
 "http://www.w3.org/Graphics/SVG/1.1/DTD/svg11.dtd">
<!-- Generated by graphviz version 7.0.5 (20221223.1930)
 -->
<!-- Title: test Pages: 1 -->
<svg width="396pt" height="98pt"
 viewBox="0.00 0.00 396.00 98.00" xmlns="http://www.w3.org/2000/svg" xmlns:xlink="http://www.w3.org/1999/xlink">
<g id="graph0" class="graph" transform="scale(1 1) rotate(0) translate(4 94)">
<title>test</title>
<g id="clust1" class="cluster">
<title>clusterdir_13e138d54eb8818da29c3992edef070a</title>
<g id="a_clust1"><a xlink:href="dir_13e138d54eb8818da29c3992edef070a.xhtml" target="_top">
<polygon fill="#edf0f7" stroke="#404040" stroke-width="2" points="8,-47 8,-82 380,-82 380,-47 8,-47"/>
</a>
</g>
</g>
<!-- dir_13e138d54eb8818da29c3992edef070a -->
<g id="node1" class="node">
<title>dir_13e138d54eb8818da29c3992edef070a</title>
<text text-anchor="middle" x="355" y="-62" font-family="Helvetica,sans-Serif" font-size="10.00">test</text>
</g>
<!-- dir_96ee98e0a3ed0ab7302e1b0ef25efdfe -->
<g id="node2" class="node">
<title>dir_96ee98e0a3ed0ab7302e1b0ef25efdfe</title>
<g id="a_node2"><a xlink:href="dir_96ee98e0a3ed0ab7302e1b0ef25efdfe.xhtml" target="_top" xlink:title="test_cli">
<polygon fill="#c8d2e7" stroke="#404040" points="320,-74 272,-74 272,-55 320,-55 320,-74"/>
<text text-anchor="middle" x="296" y="-62" font-family="Helvetica,sans-Serif" font-size="10.00">test_cli</text>
</a>
</g>
</g>
<!-- dir_97aefd0d527b934f1d99a682da8fe6a9 -->
<g id="node6" class="node">
<title>dir_97aefd0d527b934f1d99a682da8fe6a9</title>
<g id="a_node6"><a xlink:href="dir_97aefd0d527b934f1d99a682da8fe6a9.xhtml" target="_top" xlink:title="lib">
<polygon fill="#edf0f7" stroke="red" points="180.5,-19 151.5,-19 151.5,0 180.5,0 180.5,-19"/>
<text text-anchor="middle" x="166" y="-7" font-family="Helvetica,sans-Serif" font-size="10.00">lib</text>
</a>
</g>
</g>
<!-- dir_96ee98e0a3ed0ab7302e1b0ef25efdfe&#45;&gt;dir_97aefd0d527b934f1d99a682da8fe6a9 -->
<g id="edge1" class="edge">
<title>dir_96ee98e0a3ed0ab7302e1b0ef25efdfe&#45;&gt;dir_97aefd0d527b934f1d99a682da8fe6a9</title>
<path fill="none" stroke="#63b8ff" d="M279.03,-54.59C273.93,-52.03 268.28,-49.31 263,-47 239.27,-36.63 211.55,-26.39 191.84,-19.4"/>
<polygon fill="#63b8ff" stroke="#63b8ff" points="193,-16.1 182.41,-16.09 190.69,-22.7 193,-16.1"/>
<g id="a_edge1&#45;headlabel"><a xlink:href="dir_000011_000007.xhtml" target="_top" xlink:title="1">
<text text-anchor="middle" x="195.91" y="-11.61" font-family="Helvetica,sans-Serif" font-size="10.00" fill="#63b8ff">1</text>
</a>
</g>
</g>
<!-- dir_a68ba28a5c4e4d243007bbf41b8fa72f -->
<g id="node3" class="node">
<title>dir_a68ba28a5c4e4d243007bbf41b8fa72f</title>
<g id="a_node3"><a xlink:href="dir_a68ba28a5c4e4d243007bbf41b8fa72f.xhtml" target="_top" xlink:title="test_serial_port">
<polygon fill="#c8d2e7" stroke="#404040" points="253.5,-74 170.5,-74 170.5,-55 253.5,-55 253.5,-74"/>
<text text-anchor="middle" x="212" y="-62" font-family="Helvetica,sans-Serif" font-size="10.00">test_serial_port</text>
</a>
</g>
</g>
<!-- dir_a68ba28a5c4e4d243007bbf41b8fa72f&#45;&gt;dir_97aefd0d527b934f1d99a682da8fe6a9 -->
<g id="edge2" class="edge">
<title>dir_a68ba28a5c4e4d243007bbf41b8fa72f&#45;&gt;dir_97aefd0d527b934f1d99a682da8fe6a9</title>
<path fill="none" stroke="#63b8ff" d="M204.4,-54.75C198.12,-47.5 188.99,-36.98 181.2,-28.02"/>
<polygon fill="#63b8ff" stroke="#63b8ff" points="183.95,-25.84 174.75,-20.59 178.66,-30.43 183.95,-25.84"/>
<g id="a_edge2&#45;headlabel"><a xlink:href="dir_000012_000007.xhtml" target="_top" xlink:title="1">
<text text-anchor="middle" x="187.46" y="-23.05" font-family="Helvetica,sans-Serif" font-size="10.00" fill="#63b8ff">1</text>
</a>
</g>
</g>
<!-- dir_24d5ee9663ee4cc920cf8960a9137137 -->
<g id="node4" class="node">
<title>dir_24d5ee9663ee4cc920cf8960a9137137</title>
<g id="a_node4"><a xlink:href="dir_24d5ee9663ee4cc920cf8960a9137137.xhtml" target="_top" xlink:title="test_tasks">
<polygon fill="#c8d2e7" stroke="#404040" points="152,-74 90,-74 90,-55 152,-55 152,-74"/>
<text text-anchor="middle" x="121" y="-62" font-family="Helvetica,sans-Serif" font-size="10.00">test_tasks</text>
</a>
</g>
</g>
<!-- dir_24d5ee9663ee4cc920cf8960a9137137&#45;&gt;dir_97aefd0d527b934f1d99a682da8fe6a9 -->
<g id="edge3" class="edge">
<title>dir_24d5ee9663ee4cc920cf8960a9137137&#45;&gt;dir_97aefd0d527b934f1d99a682da8fe6a9</title>
<path fill="none" stroke="#63b8ff" d="M128.43,-54.75C134.58,-47.5 143.51,-36.98 151.13,-28.02"/>
<polygon fill="#63b8ff" stroke="#63b8ff" points="153.62,-30.48 157.43,-20.6 148.29,-25.95 153.62,-30.48"/>
<g id="a_edge3&#45;headlabel"><a xlink:href="dir_000013_000007.xhtml" target="_top" xlink:title="1">
<text text-anchor="middle" x="154.44" y="-31.41" font-family="Helvetica,sans-Serif" font-size="10.00" fill="#63b8ff">1</text>
</a>
</g>
</g>
<!-- dir_ece35e499948654859026a64e193721b -->
<g id="node5" class="node">
<title>dir_ece35e499948654859026a64e193721b</title>
<g id="a_node5"><a xlink:href="dir_ece35e499948654859026a64e193721b.xhtml" target="_top" xlink:title="test_trim">
<polygon fill="#c8d2e7" stroke="#404040" points="71.5,-74 16.5,-74 16.5,-55 71.5,-55 71.5,-74"/>
<text text-anchor="middle" x="44" y="-62" font-family="Helvetica,sans-Serif" font-size="10.00">test_trim</text>
</a>
</g>
</g>
<!-- dir_ece35e499948654859026a64e193721b&#45;&gt;dir_97aefd0d527b934f1d99a682da8fe6a9 -->
<g id="edge4" class="edge">
<title>dir_ece35e499948654859026a64e193721b&#45;&gt;dir_97aefd0d527b934f1d99a682da8fe6a9</title>
<path fill="none" stroke="#63b8ff" d="M63.95,-54.54C69.46,-52.08 75.46,-49.43 81,-47 101.16,-38.18 124.08,-28.35 141.04,-21.11"/>
<polygon fill="#63b8ff" stroke="#63b8ff" points="142.01,-24.5 149.84,-17.36 139.27,-18.06 142.01,-24.5"/>
<g id="a_edge4&#45;headlabel"><a xlink:href="dir_000014_000007.xhtml" target="_top" xlink:title="1">
<text text-anchor="middle" x="141.21" y="-25.43" font-family="Helvetica,sans-Serif" font-size="10.00" fill="#63b8ff">1</text>
</a>
</g>
</g>
</g>
</svg>
