<?xml version="1.0" encoding="UTF-8" standalone="no"?>
<!DOCTYPE svg PUBLIC "-//W3C//DTD SVG 1.1//EN"
 "http://www.w3.org/Graphics/SVG/1.1/DTD/svg11.dtd">
<!-- Generated by graphviz version 7.0.5 (20221223.1930)
 -->
<!-- Title: lib/serial_interface/logging.hpp Pages: 1 -->
<svg width="116pt" height="93pt"
 viewBox="0.00 0.00 116.00 93.00" xmlns="http://www.w3.org/2000/svg" xmlns:xlink="http://www.w3.org/1999/xlink">
<g id="graph0" class="graph" transform="scale(1 1) rotate(0) translate(4 89)">
<title>lib/serial_interface/logging.hpp</title>
<!-- Node1 -->
<g id="node1" class="node">
<title>Node1</title>
<g id="a_node1"><a xlink:title=" ">
<polygon fill="#999999" stroke="#666666" points="97.5,-85 2.5,-85 2.5,-55 97.5,-55 97.5,-85"/>
<text text-anchor="start" x="10.5" y="-73" font-family="Helvetica,sans-Serif" font-size="10.00">lib/serial_interface</text>
<text text-anchor="middle" x="50" y="-62" font-family="Helvetica,sans-Serif" font-size="10.00">/logging.hpp</text>
</a>
</g>
</g>
<!-- Node2 -->
<g id="node2" class="node">
<title>Node2</title>
<g id="a_node2"><a xlink:title=" ">
<polygon fill="#e0e0e0" stroke="#999999" points="38,-19 0,-19 0,0 38,0 38,-19"/>
<text text-anchor="middle" x="19" y="-7" font-family="Helvetica,sans-Serif" font-size="10.00">array</text>
</a>
</g>
</g>
<!-- Node1&#45;&gt;Node2 -->
<g id="edge1" class="edge">
<title>Node1&#45;&gt;Node2</title>
<path fill="none" stroke="#63b8ff" d="M42.34,-54.54C38.29,-46.91 33.29,-37.46 28.95,-29.27"/>
<polygon fill="#63b8ff" stroke="#63b8ff" points="32.08,-27.71 24.31,-20.51 25.9,-30.99 32.08,-27.71"/>
</g>
<!-- Node3 -->
<g id="node3" class="node">
<title>Node3</title>
<g id="a_node3"><a xlink:title=" ">
<polygon fill="#e0e0e0" stroke="#999999" points="108,-19 56,-19 56,0 108,0 108,-19"/>
<text text-anchor="middle" x="82" y="-7" font-family="Helvetica,sans-Serif" font-size="10.00">ostream</text>
</a>
</g>
</g>
<!-- Node1&#45;&gt;Node3 -->
<g id="edge2" class="edge">
<title>Node1&#45;&gt;Node3</title>
<path fill="none" stroke="#63b8ff" d="M57.91,-54.54C62.08,-46.91 67.25,-37.46 71.73,-29.27"/>
<polygon fill="#63b8ff" stroke="#63b8ff" points="74.8,-30.96 76.53,-20.5 68.66,-27.6 74.8,-30.96"/>
</g>
</g>
</svg>
