<?xml version="1.0" encoding="UTF-8" standalone="no"?>
<!DOCTYPE svg PUBLIC "-//W3C//DTD SVG 1.1//EN"
 "http://www.w3.org/Graphics/SVG/1.1/DTD/svg11.dtd">
<!-- Generated by graphviz version 7.0.5 (20221223.1930)
 -->
<!-- Title: src/main.cpp Pages: 1 -->
<svg width="983pt" height="247pt"
 viewBox="0.00 0.00 983.00 247.00" xmlns="http://www.w3.org/2000/svg" xmlns:xlink="http://www.w3.org/1999/xlink">
<g id="graph0" class="graph" transform="scale(1 1) rotate(0) translate(4 243)">
<title>src/main.cpp</title>
<!-- Node1 -->
<g id="node1" class="node">
<title>Node1</title>
<g id="a_node1"><a xlink:title=" ">
<polygon fill="#999999" stroke="#666666" points="318,-239 246,-239 246,-220 318,-220 318,-239"/>
<text text-anchor="middle" x="282" y="-227" font-family="Helvetica,sans-Serif" font-size="10.00">src/main.cpp</text>
</a>
</g>
</g>
<!-- Node2 -->
<g id="node2" class="node">
<title>Node2</title>
<g id="a_node2"><a xlink:href="main_8hpp.xhtml" target="_top" xlink:title=" ">
<polygon fill="white" stroke="#666666" points="56,-184 0,-184 0,-165 56,-165 56,-184"/>
<text text-anchor="middle" x="28" y="-172" font-family="Helvetica,sans-Serif" font-size="10.00">main.hpp</text>
</a>
</g>
</g>
<!-- Node1&#45;&gt;Node2 -->
<g id="edge1" class="edge">
<title>Node1&#45;&gt;Node2</title>
<path fill="none" stroke="#63b8ff" d="M245.61,-220.91C198.37,-211.05 116.22,-193.91 67.5,-183.74"/>
<polygon fill="#63b8ff" stroke="#63b8ff" points="68.45,-180.37 57.95,-181.75 67.02,-187.22 68.45,-180.37"/>
</g>
<!-- Node3 -->
<g id="node3" class="node">
<title>Node3</title>
<g id="a_node3"><a xlink:href="board__pins_8hpp.xhtml" target="_top" xlink:title="Provides named objects for the pins provided by the board.">
<polygon fill="white" stroke="#666666" points="217,-184 135,-184 135,-165 217,-165 217,-184"/>
<text text-anchor="middle" x="176" y="-172" font-family="Helvetica,sans-Serif" font-size="10.00">board_pins.hpp</text>
</a>
</g>
</g>
<!-- Node1&#45;&gt;Node3 -->
<g id="edge2" class="edge">
<title>Node1&#45;&gt;Node3</title>
<path fill="none" stroke="#63b8ff" d="M264.02,-219.51C247.55,-211.27 222.91,-198.96 203.89,-189.45"/>
<polygon fill="#63b8ff" stroke="#63b8ff" points="205.58,-186.38 195.07,-185.03 202.45,-192.64 205.58,-186.38"/>
</g>
<!-- Node5 -->
<g id="node5" class="node">
<title>Node5</title>
<g id="a_node5"><a xlink:title=" ">
<polygon fill="#e0e0e0" stroke="#999999" points="115.5,-74 58.5,-74 58.5,-55 115.5,-55 115.5,-74"/>
<text text-anchor="middle" x="87" y="-62" font-family="Helvetica,sans-Serif" font-size="10.00">Arduino.h</text>
</a>
</g>
</g>
<!-- Node1&#45;&gt;Node5 -->
<g id="edge17" class="edge">
<title>Node1&#45;&gt;Node5</title>
<path fill="none" stroke="#63b8ff" d="M245.55,-226.92C210.9,-223.58 159.27,-213.55 126,-184 97.47,-158.66 89.74,-112.08 87.69,-85.49"/>
<polygon fill="#63b8ff" stroke="#63b8ff" points="91.2,-85.53 87.16,-75.74 84.21,-85.91 91.2,-85.53"/>
</g>
<!-- Node6 -->
<g id="node6" class="node">
<title>Node6</title>
<g id="a_node6"><a xlink:title=" ">
<polygon fill="#e0e0e0" stroke="#999999" points="262,-74 216,-74 216,-55 262,-55 262,-74"/>
<text text-anchor="middle" x="239" y="-62" font-family="Helvetica,sans-Serif" font-size="10.00">cstdint</text>
</a>
</g>
</g>
<!-- Node1&#45;&gt;Node6 -->
<g id="edge32" class="edge">
<title>Node1&#45;&gt;Node6</title>
<path fill="none" stroke="#63b8ff" d="M279.69,-219.74C273.01,-194.42 253.57,-120.72 244.19,-85.16"/>
<polygon fill="#63b8ff" stroke="#63b8ff" points="247.64,-84.55 241.71,-75.77 240.88,-86.33 247.64,-84.55"/>
</g>
<!-- Node8 -->
<g id="node8" class="node">
<title>Node8</title>
<g id="a_node8"><a xlink:href="display_8h.xhtml" target="_top" xlink:title=" ">
<polygon fill="white" stroke="#666666" points="400,-184 346,-184 346,-165 400,-165 400,-184"/>
<text text-anchor="middle" x="373" y="-172" font-family="Helvetica,sans-Serif" font-size="10.00">display.h</text>
</a>
</g>
</g>
<!-- Node1&#45;&gt;Node8 -->
<g id="edge7" class="edge">
<title>Node1&#45;&gt;Node8</title>
<path fill="none" stroke="#63b8ff" d="M297.44,-219.51C311.25,-211.47 331.75,-199.53 347.91,-190.11"/>
<polygon fill="#63b8ff" stroke="#63b8ff" points="349.6,-193.18 356.48,-185.12 346.08,-187.13 349.6,-193.18"/>
</g>
<!-- Node10 -->
<g id="node10" class="node">
<title>Node10</title>
<g id="a_node10"><a xlink:href="pitches_8hpp.xhtml" target="_top" xlink:title=" ">
<polygon fill="white" stroke="#666666" points="346,-129 280,-129 280,-110 346,-110 346,-129"/>
<text text-anchor="middle" x="313" y="-117" font-family="Helvetica,sans-Serif" font-size="10.00">pitches.hpp</text>
</a>
</g>
</g>
<!-- Node1&#45;&gt;Node10 -->
<g id="edge9" class="edge">
<title>Node1&#45;&gt;Node10</title>
<path fill="none" stroke="#63b8ff" d="M284.54,-219.66C289.49,-202.42 300.54,-163.9 307.33,-140.27"/>
<polygon fill="#63b8ff" stroke="#63b8ff" points="310.62,-141.49 310.01,-130.92 303.89,-139.56 310.62,-141.49"/>
</g>
<!-- Node11 -->
<g id="node11" class="node">
<title>Node11</title>
<g id="a_node11"><a xlink:href="serial__port_8hpp.xhtml" target="_top" xlink:title=" ">
<polygon fill="white" stroke="#666666" points="843,-129 763,-129 763,-110 843,-110 843,-129"/>
<text text-anchor="middle" x="803" y="-117" font-family="Helvetica,sans-Serif" font-size="10.00">serial_port.hpp</text>
</a>
</g>
</g>
<!-- Node1&#45;&gt;Node11 -->
<g id="edge11" class="edge">
<title>Node1&#45;&gt;Node11</title>
<path fill="none" stroke="#63b8ff" d="M318.4,-222.61C367.01,-214.6 455.73,-199.5 531,-184 610.59,-167.61 702.54,-145.47 756.56,-132.13"/>
<polygon fill="#63b8ff" stroke="#63b8ff" points="757.15,-135.58 766.02,-129.78 755.47,-128.79 757.15,-135.58"/>
</g>
<!-- Node17 -->
<g id="node17" class="node">
<title>Node17</title>
<g id="a_node17"><a xlink:href="Protocol_8hpp.xhtml" target="_top" xlink:title=" ">
<polygon fill="white" stroke="#666666" points="522.5,-184 451.5,-184 451.5,-165 522.5,-165 522.5,-184"/>
<text text-anchor="middle" x="487" y="-172" font-family="Helvetica,sans-Serif" font-size="10.00">Protocol.hpp</text>
</a>
</g>
</g>
<!-- Node1&#45;&gt;Node17 -->
<g id="edge18" class="edge">
<title>Node1&#45;&gt;Node17</title>
<path fill="none" stroke="#63b8ff" d="M316.78,-219.51C351.19,-210.61 404.04,-196.95 441.72,-187.21"/>
<polygon fill="#63b8ff" stroke="#63b8ff" points="442.13,-190.72 450.93,-184.83 440.37,-183.94 442.13,-190.72"/>
</g>
<!-- Node4 -->
<g id="node4" class="node">
<title>Node4</title>
<g id="a_node4"><a xlink:href="framework__config_8hpp.xhtml" target="_top" xlink:title="Provides defintions which are specific for the used framework.">
<polygon fill="white" stroke="#666666" points="223.5,-129 112.5,-129 112.5,-110 223.5,-110 223.5,-129"/>
<text text-anchor="middle" x="168" y="-117" font-family="Helvetica,sans-Serif" font-size="10.00">framework_config.hpp</text>
</a>
</g>
</g>
<!-- Node3&#45;&gt;Node4 -->
<g id="edge3" class="edge">
<title>Node3&#45;&gt;Node4</title>
<path fill="none" stroke="#63b8ff" d="M174.68,-164.75C173.69,-158.19 172.29,-148.95 171.03,-140.6"/>
<polygon fill="#63b8ff" stroke="#63b8ff" points="174.53,-140.3 169.58,-130.94 167.61,-141.35 174.53,-140.3"/>
</g>
<!-- Node4&#45;&gt;Node5 -->
<g id="edge4" class="edge">
<title>Node4&#45;&gt;Node5</title>
<path fill="none" stroke="#63b8ff" d="M154.26,-109.51C142.2,-101.62 124.41,-89.98 110.16,-80.65"/>
<polygon fill="#63b8ff" stroke="#63b8ff" points="112.09,-77.73 101.8,-75.19 108.26,-83.59 112.09,-77.73"/>
</g>
<!-- Node4&#45;&gt;Node6 -->
<g id="edge5" class="edge">
<title>Node4&#45;&gt;Node6</title>
<path fill="none" stroke="#63b8ff" d="M180.04,-109.51C190.41,-101.77 205.6,-90.43 217.97,-81.2"/>
<polygon fill="#63b8ff" stroke="#63b8ff" points="220,-84.05 225.92,-75.26 215.81,-78.44 220,-84.05"/>
</g>
<!-- Node7 -->
<g id="node7" class="node">
<title>Node7</title>
<g id="a_node7"><a xlink:title=" ">
<polygon fill="#e0e0e0" stroke="#999999" points="198,-74 136,-74 136,-55 198,-55 198,-74"/>
<text text-anchor="middle" x="167" y="-62" font-family="Helvetica,sans-Serif" font-size="10.00">type_traits</text>
</a>
</g>
</g>
<!-- Node4&#45;&gt;Node7 -->
<g id="edge6" class="edge">
<title>Node4&#45;&gt;Node7</title>
<path fill="none" stroke="#63b8ff" d="M167.83,-109.75C167.71,-103.27 167.54,-94.16 167.38,-85.9"/>
<polygon fill="#63b8ff" stroke="#63b8ff" points="170.89,-85.89 167.2,-75.96 163.89,-86.02 170.89,-85.89"/>
</g>
<!-- Node9 -->
<g id="node9" class="node">
<title>Node9</title>
<g id="a_node9"><a xlink:title=" ">
<polygon fill="#e0e0e0" stroke="#999999" points="412,-129 364,-129 364,-110 412,-110 412,-129"/>
<text text-anchor="middle" x="388" y="-117" font-family="Helvetica,sans-Serif" font-size="10.00">stdint.h</text>
</a>
</g>
</g>
<!-- Node8&#45;&gt;Node9 -->
<g id="edge8" class="edge">
<title>Node8&#45;&gt;Node9</title>
<path fill="none" stroke="#63b8ff" d="M375.48,-164.75C377.35,-158.11 380.01,-148.73 382.39,-140.31"/>
<polygon fill="#63b8ff" stroke="#63b8ff" points="385.7,-141.47 385.06,-130.9 378.97,-139.57 385.7,-141.47"/>
</g>
<!-- Node10&#45;&gt;Node6 -->
<g id="edge10" class="edge">
<title>Node10&#45;&gt;Node6</title>
<path fill="none" stroke="#63b8ff" d="M300.45,-109.51C289.54,-101.7 273.5,-90.21 260.54,-80.93"/>
<polygon fill="#63b8ff" stroke="#63b8ff" points="262.77,-78.22 252.6,-75.24 258.69,-83.91 262.77,-78.22"/>
</g>
<!-- Node12 -->
<g id="node12" class="node">
<title>Node12</title>
<g id="a_node12"><a xlink:title=" ">
<polygon fill="#e0e0e0" stroke="#999999" points="799,-74 761,-74 761,-55 799,-55 799,-74"/>
<text text-anchor="middle" x="780" y="-62" font-family="Helvetica,sans-Serif" font-size="10.00">array</text>
</a>
</g>
</g>
<!-- Node11&#45;&gt;Node12 -->
<g id="edge12" class="edge">
<title>Node11&#45;&gt;Node12</title>
<path fill="none" stroke="#63b8ff" d="M799.2,-109.75C796.26,-102.96 792.06,-93.3 788.35,-84.73"/>
<polygon fill="#63b8ff" stroke="#63b8ff" points="791.67,-83.61 784.48,-75.83 785.25,-86.4 791.67,-83.61"/>
</g>
<!-- Node13 -->
<g id="node13" class="node">
<title>Node13</title>
<g id="a_node13"><a xlink:title=" ">
<polygon fill="#e0e0e0" stroke="#999999" points="742.5,-74 683.5,-74 683.5,-55 742.5,-55 742.5,-74"/>
<text text-anchor="middle" x="713" y="-62" font-family="Helvetica,sans-Serif" font-size="10.00">functional</text>
</a>
</g>
</g>
<!-- Node11&#45;&gt;Node13 -->
<g id="edge13" class="edge">
<title>Node11&#45;&gt;Node13</title>
<path fill="none" stroke="#63b8ff" d="M787.73,-109.51C774.07,-101.47 753.8,-89.53 737.82,-80.11"/>
<polygon fill="#63b8ff" stroke="#63b8ff" points="739.74,-77.18 729.35,-75.13 736.19,-83.22 739.74,-77.18"/>
</g>
<!-- Node14 -->
<g id="node14" class="node">
<title>Node14</title>
<g id="a_node14"><a xlink:title=" ">
<polygon fill="#e0e0e0" stroke="#999999" points="905,-74 855,-74 855,-55 905,-55 905,-74"/>
<text text-anchor="middle" x="880" y="-62" font-family="Helvetica,sans-Serif" font-size="10.00">optional</text>
</a>
</g>
</g>
<!-- Node11&#45;&gt;Node14 -->
<g id="edge14" class="edge">
<title>Node11&#45;&gt;Node14</title>
<path fill="none" stroke="#63b8ff" d="M816.06,-109.51C827.52,-101.62 844.43,-89.98 857.98,-80.65"/>
<polygon fill="#63b8ff" stroke="#63b8ff" points="859.63,-83.77 865.88,-75.22 855.66,-78 859.63,-83.77"/>
</g>
<!-- Node15 -->
<g id="node15" class="node">
<title>Node15</title>
<g id="a_node15"><a xlink:title=" ">
<polygon fill="#e0e0e0" stroke="#999999" points="975,-74 923,-74 923,-55 975,-55 975,-74"/>
<text text-anchor="middle" x="949" y="-62" font-family="Helvetica,sans-Serif" font-size="10.00">ostream</text>
</a>
</g>
</g>
<!-- Node11&#45;&gt;Node15 -->
<g id="edge15" class="edge">
<title>Node11&#45;&gt;Node15</title>
<path fill="none" stroke="#63b8ff" d="M827.77,-109.51C851.4,-100.93 887.24,-87.92 913.83,-78.27"/>
<polygon fill="#63b8ff" stroke="#63b8ff" points="914.97,-81.58 923.18,-74.87 912.58,-75 914.97,-81.58"/>
</g>
<!-- Node16 -->
<g id="node16" class="node">
<title>Node16</title>
<g id="a_node16"><a xlink:title=" ">
<polygon fill="#e0e0e0" stroke="#999999" points="782.5,-19 741.5,-19 741.5,0 782.5,0 782.5,-19"/>
<text text-anchor="middle" x="762" y="-7" font-family="Helvetica,sans-Serif" font-size="10.00">string</text>
</a>
</g>
</g>
<!-- Node11&#45;&gt;Node16 -->
<g id="edge16" class="edge">
<title>Node11&#45;&gt;Node16</title>
<path fill="none" stroke="#63b8ff" d="M806.11,-109.88C810.14,-97.27 815.77,-73.33 808,-55 803.24,-43.76 794.09,-33.98 785.2,-26.46"/>
<polygon fill="#63b8ff" stroke="#63b8ff" points="787.47,-23.79 777.42,-20.42 783.17,-29.32 787.47,-23.79"/>
</g>
<!-- Node18 -->
<g id="node18" class="node">
<title>Node18</title>
<g id="a_node18"><a xlink:href="command__line__interpreter_8hpp.xhtml" target="_top" xlink:title=" ">
<polygon fill="white" stroke="#666666" points="577,-129 431,-129 431,-110 577,-110 577,-129"/>
<text text-anchor="middle" x="504" y="-117" font-family="Helvetica,sans-Serif" font-size="10.00">command_line_interpreter.hpp</text>
</a>
</g>
</g>
<!-- Node17&#45;&gt;Node18 -->
<g id="edge19" class="edge">
<title>Node17&#45;&gt;Node18</title>
<path fill="none" stroke="#63b8ff" d="M489.81,-164.75C491.94,-158.11 494.94,-148.73 497.64,-140.31"/>
<polygon fill="#63b8ff" stroke="#63b8ff" points="500.95,-141.47 500.67,-130.88 494.28,-139.34 500.95,-141.47"/>
</g>
<!-- Node18&#45;&gt;Node13 -->
<g id="edge20" class="edge">
<title>Node18&#45;&gt;Node13</title>
<path fill="none" stroke="#63b8ff" d="M539.45,-109.51C576.24,-100.18 633.67,-85.62 672.29,-75.82"/>
<polygon fill="#63b8ff" stroke="#63b8ff" points="672.84,-79.3 681.67,-73.44 671.12,-72.51 672.84,-79.3"/>
</g>
<!-- Node19 -->
<g id="node19" class="node">
<title>Node19</title>
<g id="a_node19"><a xlink:title=" ">
<polygon fill="#e0e0e0" stroke="#999999" points="334,-74 280,-74 280,-55 334,-55 334,-74"/>
<text text-anchor="middle" x="307" y="-62" font-family="Helvetica,sans-Serif" font-size="10.00">iostream</text>
</a>
</g>
</g>
<!-- Node18&#45;&gt;Node19 -->
<g id="edge21" class="edge">
<title>Node18&#45;&gt;Node19</title>
<path fill="none" stroke="#63b8ff" d="M470.58,-109.51C435.76,-100.14 381.3,-85.49 344.9,-75.7"/>
<polygon fill="#63b8ff" stroke="#63b8ff" points="346.25,-72.44 335.69,-73.22 344.44,-79.2 346.25,-72.44"/>
</g>
<!-- Node20 -->
<g id="node20" class="node">
<title>Node20</title>
<g id="a_node20"><a xlink:title=" ">
<polygon fill="#e0e0e0" stroke="#999999" points="399.5,-74 352.5,-74 352.5,-55 399.5,-55 399.5,-74"/>
<text text-anchor="middle" x="376" y="-62" font-family="Helvetica,sans-Serif" font-size="10.00">iterator</text>
</a>
</g>
</g>
<!-- Node18&#45;&gt;Node20 -->
<g id="edge22" class="edge">
<title>Node18&#45;&gt;Node20</title>
<path fill="none" stroke="#63b8ff" d="M482.29,-109.51C461.84,-101.04 430.98,-88.27 407.77,-78.66"/>
<polygon fill="#63b8ff" stroke="#63b8ff" points="409.37,-75.53 398.79,-74.94 406.69,-82 409.37,-75.53"/>
</g>
<!-- Node21 -->
<g id="node21" class="node">
<title>Node21</title>
<g id="a_node21"><a xlink:title=" ">
<polygon fill="#e0e0e0" stroke="#999999" points="457.5,-19 398.5,-19 398.5,0 457.5,0 457.5,-19"/>
<text text-anchor="middle" x="428" y="-7" font-family="Helvetica,sans-Serif" font-size="10.00">stdexcept</text>
</a>
</g>
</g>
<!-- Node18&#45;&gt;Node21 -->
<g id="edge23" class="edge">
<title>Node18&#45;&gt;Node21</title>
<path fill="none" stroke="#63b8ff" d="M487.72,-109.61C474.89,-101.82 457.48,-89.34 447,-74 438.15,-61.04 433.33,-43.86 430.77,-30.64"/>
<polygon fill="#63b8ff" stroke="#63b8ff" points="434.25,-30.24 429.18,-20.94 427.34,-31.37 434.25,-30.24"/>
</g>
<!-- Node22 -->
<g id="node22" class="node">
<title>Node22</title>
<g id="a_node22"><a xlink:href="string__helpers_8hpp.xhtml" target="_top" xlink:title=" ">
<polygon fill="white" stroke="#666666" points="551.5,-74 456.5,-74 456.5,-55 551.5,-55 551.5,-74"/>
<text text-anchor="middle" x="504" y="-62" font-family="Helvetica,sans-Serif" font-size="10.00">string_helpers.hpp</text>
</a>
</g>
</g>
<!-- Node18&#45;&gt;Node22 -->
<g id="edge24" class="edge">
<title>Node18&#45;&gt;Node22</title>
<path fill="none" stroke="#63b8ff" d="M504,-109.75C504,-103.27 504,-94.16 504,-85.9"/>
<polygon fill="#63b8ff" stroke="#63b8ff" points="507.5,-85.96 504,-75.96 500.5,-85.96 507.5,-85.96"/>
</g>
<!-- Node26 -->
<g id="node26" class="node">
<title>Node26</title>
<g id="a_node26"><a xlink:title=" ">
<polygon fill="#e0e0e0" stroke="#999999" points="608,-74 570,-74 570,-55 608,-55 608,-74"/>
<text text-anchor="middle" x="589" y="-62" font-family="Helvetica,sans-Serif" font-size="10.00">tuple</text>
</a>
</g>
</g>
<!-- Node18&#45;&gt;Node26 -->
<g id="edge30" class="edge">
<title>Node18&#45;&gt;Node26</title>
<path fill="none" stroke="#63b8ff" d="M518.42,-109.51C531.2,-101.54 550.1,-89.75 565.13,-80.38"/>
<polygon fill="#63b8ff" stroke="#63b8ff" points="566.88,-83.42 573.51,-75.16 563.17,-77.48 566.88,-83.42"/>
</g>
<!-- Node27 -->
<g id="node27" class="node">
<title>Node27</title>
<g id="a_node27"><a xlink:title=" ">
<polygon fill="#e0e0e0" stroke="#999999" points="665.5,-74 626.5,-74 626.5,-55 665.5,-55 665.5,-74"/>
<text text-anchor="middle" x="646" y="-62" font-family="Helvetica,sans-Serif" font-size="10.00">utility</text>
</a>
</g>
</g>
<!-- Node18&#45;&gt;Node27 -->
<g id="edge31" class="edge">
<title>Node18&#45;&gt;Node27</title>
<path fill="none" stroke="#63b8ff" d="M528.09,-109.51C552.32,-100.46 589.75,-86.49 615.92,-76.73"/>
<polygon fill="#63b8ff" stroke="#63b8ff" points="616.81,-80.13 624.96,-73.35 614.36,-73.57 616.81,-80.13"/>
</g>
<!-- Node22&#45;&gt;Node16 -->
<g id="edge28" class="edge">
<title>Node22&#45;&gt;Node16</title>
<path fill="none" stroke="#63b8ff" d="M547.77,-54.51C599.48,-43.89 684.26,-26.47 730.13,-17.05"/>
<polygon fill="#63b8ff" stroke="#63b8ff" points="730.6,-20.52 739.7,-15.08 729.2,-13.67 730.6,-20.52"/>
</g>
<!-- Node22&#45;&gt;Node21 -->
<g id="edge27" class="edge">
<title>Node22&#45;&gt;Node21</title>
<path fill="none" stroke="#63b8ff" d="M491.11,-54.51C479.9,-46.7 463.43,-35.21 450.12,-25.93"/>
<polygon fill="#63b8ff" stroke="#63b8ff" points="452.15,-23.07 441.94,-20.22 448.14,-28.81 452.15,-23.07"/>
</g>
<!-- Node23 -->
<g id="node23" class="node">
<title>Node23</title>
<g id="a_node23"><a xlink:title=" ">
<polygon fill="#e0e0e0" stroke="#999999" points="526,-19 476,-19 476,0 526,0 526,-19"/>
<text text-anchor="middle" x="501" y="-7" font-family="Helvetica,sans-Serif" font-size="10.00">iomanip</text>
</a>
</g>
</g>
<!-- Node22&#45;&gt;Node23 -->
<g id="edge25" class="edge">
<title>Node22&#45;&gt;Node23</title>
<path fill="none" stroke="#63b8ff" d="M503.5,-54.75C503.14,-48.27 502.62,-39.16 502.15,-30.9"/>
<polygon fill="#63b8ff" stroke="#63b8ff" points="505.65,-30.74 501.59,-20.95 498.66,-31.13 505.65,-30.74"/>
</g>
<!-- Node24 -->
<g id="node24" class="node">
<title>Node24</title>
<g id="a_node24"><a xlink:title=" ">
<polygon fill="#e0e0e0" stroke="#999999" points="596,-19 544,-19 544,0 596,0 596,-19"/>
<text text-anchor="middle" x="570" y="-7" font-family="Helvetica,sans-Serif" font-size="10.00">sstream</text>
</a>
</g>
</g>
<!-- Node22&#45;&gt;Node24 -->
<g id="edge26" class="edge">
<title>Node22&#45;&gt;Node24</title>
<path fill="none" stroke="#63b8ff" d="M515.2,-54.51C524.74,-46.85 538.67,-35.66 550.11,-26.47"/>
<polygon fill="#63b8ff" stroke="#63b8ff" points="552.18,-29.3 557.79,-20.31 547.8,-23.84 552.18,-29.3"/>
</g>
<!-- Node25 -->
<g id="node25" class="node">
<title>Node25</title>
<g id="a_node25"><a xlink:title=" ">
<polygon fill="#e0e0e0" stroke="#999999" points="658,-19 614,-19 614,0 658,0 658,-19"/>
<text text-anchor="middle" x="636" y="-7" font-family="Helvetica,sans-Serif" font-size="10.00">vector</text>
</a>
</g>
</g>
<!-- Node22&#45;&gt;Node25 -->
<g id="edge29" class="edge">
<title>Node22&#45;&gt;Node25</title>
<path fill="none" stroke="#63b8ff" d="M526.39,-54.51C547.57,-46.01 579.59,-33.15 603.56,-23.53"/>
<polygon fill="#63b8ff" stroke="#63b8ff" points="604.56,-26.9 612.53,-19.92 601.95,-20.4 604.56,-26.9"/>
</g>
</g>
</svg>
