<?xml version="1.0" encoding="UTF-8" standalone="no"?>
<!DOCTYPE svg PUBLIC "-//W3C//DTD SVG 1.1//EN"
 "http://www.w3.org/Graphics/SVG/1.1/DTD/svg11.dtd">
<!-- Generated by graphviz version 7.0.5 (20221223.1930)
 -->
<!-- Title: src/main.cpp Pages: 1 -->
<svg width="707pt" height="192pt"
 viewBox="0.00 0.00 706.50 192.00" xmlns="http://www.w3.org/2000/svg" xmlns:xlink="http://www.w3.org/1999/xlink">
<g id="graph0" class="graph" transform="scale(1 1) rotate(0) translate(4 188)">
<title>src/main.cpp</title>
<!-- Node1 -->
<g id="node1" class="node">
<title>Node1</title>
<g id="a_node1"><a xlink:title=" ">
<polygon fill="#999999" stroke="#666666" points="287,-184 215,-184 215,-165 287,-165 287,-184"/>
<text text-anchor="middle" x="251" y="-172" font-family="Helvetica,sans-Serif" font-size="10.00">src/main.cpp</text>
</a>
</g>
</g>
<!-- Node2 -->
<g id="node2" class="node">
<title>Node2</title>
<g id="a_node2"><a xlink:href="main_8hpp.xhtml" target="_top" xlink:title=" ">
<polygon fill="white" stroke="#666666" points="56,-129 0,-129 0,-110 56,-110 56,-129"/>
<text text-anchor="middle" x="28" y="-117" font-family="Helvetica,sans-Serif" font-size="10.00">main.hpp</text>
</a>
</g>
</g>
<!-- Node1&#45;&gt;Node2 -->
<g id="edge1" class="edge">
<title>Node1&#45;&gt;Node2</title>
<path fill="none" stroke="#63b8ff" d="M214.67,-164.87C174.18,-155.24 108.91,-139.73 67.26,-129.83"/>
<polygon fill="#63b8ff" stroke="#63b8ff" points="68.19,-126.45 57.65,-127.55 66.57,-133.26 68.19,-126.45"/>
</g>
<!-- Node3 -->
<g id="node3" class="node">
<title>Node3</title>
<g id="a_node3"><a xlink:href="board__pins_8hpp.xhtml" target="_top" xlink:title="Provides named objects for the pins provided by the board.">
<polygon fill="white" stroke="#666666" points="215,-129 133,-129 133,-110 215,-110 215,-129"/>
<text text-anchor="middle" x="174" y="-117" font-family="Helvetica,sans-Serif" font-size="10.00">board_pins.hpp</text>
</a>
</g>
</g>
<!-- Node1&#45;&gt;Node3 -->
<g id="edge2" class="edge">
<title>Node1&#45;&gt;Node3</title>
<path fill="none" stroke="#63b8ff" d="M237.94,-164.51C226.48,-156.62 209.57,-144.98 196.02,-135.65"/>
<polygon fill="#63b8ff" stroke="#63b8ff" points="198.34,-133 188.12,-130.22 194.37,-138.77 198.34,-133"/>
</g>
<!-- Node5 -->
<g id="node5" class="node">
<title>Node5</title>
<g id="a_node5"><a xlink:title=" ">
<polygon fill="#e0e0e0" stroke="#999999" points="115.5,-19 58.5,-19 58.5,0 115.5,0 115.5,-19"/>
<text text-anchor="middle" x="87" y="-7" font-family="Helvetica,sans-Serif" font-size="10.00">Arduino.h</text>
</a>
</g>
</g>
<!-- Node1&#45;&gt;Node5 -->
<g id="edge17" class="edge">
<title>Node1&#45;&gt;Node5</title>
<path fill="none" stroke="#63b8ff" d="M214.64,-169.14C186.58,-163.99 148.53,-152.86 124,-129 96.92,-102.66 89.57,-56.82 87.64,-30.54"/>
<polygon fill="#63b8ff" stroke="#63b8ff" points="91.15,-30.7 87.14,-20.9 84.16,-31.07 91.15,-30.7"/>
</g>
<!-- Node6 -->
<g id="node6" class="node">
<title>Node6</title>
<g id="a_node6"><a xlink:title=" ">
<polygon fill="#e0e0e0" stroke="#999999" points="275,-19 229,-19 229,0 275,0 275,-19"/>
<text text-anchor="middle" x="252" y="-7" font-family="Helvetica,sans-Serif" font-size="10.00">cstdint</text>
</a>
</g>
</g>
<!-- Node1&#45;&gt;Node6 -->
<g id="edge18" class="edge">
<title>Node1&#45;&gt;Node6</title>
<path fill="none" stroke="#63b8ff" d="M251.05,-164.74C251.21,-139.53 251.66,-66.36 251.88,-30.62"/>
<polygon fill="#63b8ff" stroke="#63b8ff" points="255.38,-30.84 251.94,-20.82 248.38,-30.8 255.38,-30.84"/>
</g>
<!-- Node8 -->
<g id="node8" class="node">
<title>Node8</title>
<g id="a_node8"><a xlink:href="display_8h.xhtml" target="_top" xlink:title=" ">
<polygon fill="white" stroke="#666666" points="333,-129 279,-129 279,-110 333,-110 333,-129"/>
<text text-anchor="middle" x="306" y="-117" font-family="Helvetica,sans-Serif" font-size="10.00">display.h</text>
</a>
</g>
</g>
<!-- Node1&#45;&gt;Node8 -->
<g id="edge7" class="edge">
<title>Node1&#45;&gt;Node8</title>
<path fill="none" stroke="#63b8ff" d="M260.08,-164.75C267.84,-157.27 279.21,-146.32 288.7,-137.17"/>
<polygon fill="#63b8ff" stroke="#63b8ff" points="290.86,-139.95 295.63,-130.49 286,-134.91 290.86,-139.95"/>
</g>
<!-- Node10 -->
<g id="node10" class="node">
<title>Node10</title>
<g id="a_node10"><a xlink:href="pitches_8hpp.xhtml" target="_top" xlink:title=" ">
<polygon fill="white" stroke="#666666" points="417,-129 351,-129 351,-110 417,-110 417,-129"/>
<text text-anchor="middle" x="384" y="-117" font-family="Helvetica,sans-Serif" font-size="10.00">pitches.hpp</text>
</a>
</g>
</g>
<!-- Node1&#45;&gt;Node10 -->
<g id="edge9" class="edge">
<title>Node1&#45;&gt;Node10</title>
<path fill="none" stroke="#63b8ff" d="M273.56,-164.51C294.9,-156.01 327.16,-143.15 351.31,-133.53"/>
<polygon fill="#63b8ff" stroke="#63b8ff" points="352.37,-136.87 360.37,-129.92 349.78,-130.37 352.37,-136.87"/>
</g>
<!-- Node11 -->
<g id="node11" class="node">
<title>Node11</title>
<g id="a_node11"><a xlink:href="serial__port_8hpp.xhtml" target="_top" xlink:title=" ">
<polygon fill="white" stroke="#666666" points="550,-129 470,-129 470,-110 550,-110 550,-129"/>
<text text-anchor="middle" x="510" y="-117" font-family="Helvetica,sans-Serif" font-size="10.00">serial_port.hpp</text>
</a>
</g>
</g>
<!-- Node1&#45;&gt;Node11 -->
<g id="edge11" class="edge">
<title>Node1&#45;&gt;Node11</title>
<path fill="none" stroke="#63b8ff" d="M287.29,-166.07C331.94,-156.94 408.05,-141.36 458.68,-131"/>
<polygon fill="#63b8ff" stroke="#63b8ff" points="459.13,-134.48 468.22,-129.05 457.72,-127.63 459.13,-134.48"/>
</g>
<!-- Node4 -->
<g id="node4" class="node">
<title>Node4</title>
<g id="a_node4"><a xlink:href="framework__config_8hpp.xhtml" target="_top" xlink:title="Provides defintions which are specific for the used framework.">
<polygon fill="white" stroke="#666666" points="223.5,-74 112.5,-74 112.5,-55 223.5,-55 223.5,-74"/>
<text text-anchor="middle" x="168" y="-62" font-family="Helvetica,sans-Serif" font-size="10.00">framework_config.hpp</text>
</a>
</g>
</g>
<!-- Node3&#45;&gt;Node4 -->
<g id="edge3" class="edge">
<title>Node3&#45;&gt;Node4</title>
<path fill="none" stroke="#63b8ff" d="M173.01,-109.75C172.27,-103.19 171.22,-93.95 170.28,-85.6"/>
<polygon fill="#63b8ff" stroke="#63b8ff" points="173.79,-85.49 169.18,-75.95 166.83,-86.28 173.79,-85.49"/>
</g>
<!-- Node4&#45;&gt;Node5 -->
<g id="edge4" class="edge">
<title>Node4&#45;&gt;Node5</title>
<path fill="none" stroke="#63b8ff" d="M154.26,-54.51C142.2,-46.62 124.41,-34.98 110.16,-25.65"/>
<polygon fill="#63b8ff" stroke="#63b8ff" points="112.09,-22.73 101.8,-20.19 108.26,-28.59 112.09,-22.73"/>
</g>
<!-- Node4&#45;&gt;Node6 -->
<g id="edge5" class="edge">
<title>Node4&#45;&gt;Node6</title>
<path fill="none" stroke="#63b8ff" d="M182.25,-54.51C194.88,-46.54 213.56,-34.75 228.41,-25.38"/>
<polygon fill="#63b8ff" stroke="#63b8ff" points="230.09,-28.46 236.68,-20.17 226.36,-22.54 230.09,-28.46"/>
</g>
<!-- Node7 -->
<g id="node7" class="node">
<title>Node7</title>
<g id="a_node7"><a xlink:title=" ">
<polygon fill="#e0e0e0" stroke="#999999" points="199,-19 137,-19 137,0 199,0 199,-19"/>
<text text-anchor="middle" x="168" y="-7" font-family="Helvetica,sans-Serif" font-size="10.00">type_traits</text>
</a>
</g>
</g>
<!-- Node4&#45;&gt;Node7 -->
<g id="edge6" class="edge">
<title>Node4&#45;&gt;Node7</title>
<path fill="none" stroke="#63b8ff" d="M168,-54.75C168,-48.27 168,-39.16 168,-30.9"/>
<polygon fill="#63b8ff" stroke="#63b8ff" points="171.5,-30.96 168,-20.96 164.5,-30.96 171.5,-30.96"/>
</g>
<!-- Node9 -->
<g id="node9" class="node">
<title>Node9</title>
<g id="a_node9"><a xlink:title=" ">
<polygon fill="#e0e0e0" stroke="#999999" points="329,-74 281,-74 281,-55 329,-55 329,-74"/>
<text text-anchor="middle" x="305" y="-62" font-family="Helvetica,sans-Serif" font-size="10.00">stdint.h</text>
</a>
</g>
</g>
<!-- Node8&#45;&gt;Node9 -->
<g id="edge8" class="edge">
<title>Node8&#45;&gt;Node9</title>
<path fill="none" stroke="#63b8ff" d="M305.83,-109.75C305.71,-103.27 305.54,-94.16 305.38,-85.9"/>
<polygon fill="#63b8ff" stroke="#63b8ff" points="308.89,-85.89 305.2,-75.96 301.89,-86.02 308.89,-85.89"/>
</g>
<!-- Node10&#45;&gt;Node6 -->
<g id="edge10" class="edge">
<title>Node10&#45;&gt;Node6</title>
<path fill="none" stroke="#63b8ff" d="M379.4,-109.7C372.11,-96.44 356.78,-71.16 338,-55 322.64,-41.78 302.66,-31.14 285.84,-23.58"/>
<polygon fill="#63b8ff" stroke="#63b8ff" points="287.27,-20.39 276.7,-19.66 284.51,-26.82 287.27,-20.39"/>
</g>
<!-- Node12 -->
<g id="node12" class="node">
<title>Node12</title>
<g id="a_node12"><a xlink:title=" ">
<polygon fill="#e0e0e0" stroke="#999999" points="423,-74 385,-74 385,-55 423,-55 423,-74"/>
<text text-anchor="middle" x="404" y="-62" font-family="Helvetica,sans-Serif" font-size="10.00">array</text>
</a>
</g>
</g>
<!-- Node11&#45;&gt;Node12 -->
<g id="edge12" class="edge">
<title>Node11&#45;&gt;Node12</title>
<path fill="none" stroke="#63b8ff" d="M492.02,-109.51C475.55,-101.27 450.91,-88.96 431.89,-79.45"/>
<polygon fill="#63b8ff" stroke="#63b8ff" points="433.58,-76.38 423.07,-75.03 430.45,-82.64 433.58,-76.38"/>
</g>
<!-- Node13 -->
<g id="node13" class="node">
<title>Node13</title>
<g id="a_node13"><a xlink:title=" ">
<polygon fill="#e0e0e0" stroke="#999999" points="500.5,-74 441.5,-74 441.5,-55 500.5,-55 500.5,-74"/>
<text text-anchor="middle" x="471" y="-62" font-family="Helvetica,sans-Serif" font-size="10.00">functional</text>
</a>
</g>
</g>
<!-- Node11&#45;&gt;Node13 -->
<g id="edge13" class="edge">
<title>Node11&#45;&gt;Node13</title>
<path fill="none" stroke="#63b8ff" d="M503.56,-109.75C498.34,-102.66 490.81,-92.42 484.31,-83.59"/>
<polygon fill="#63b8ff" stroke="#63b8ff" points="487.22,-81.64 478.48,-75.66 481.58,-85.79 487.22,-81.64"/>
</g>
<!-- Node14 -->
<g id="node14" class="node">
<title>Node14</title>
<g id="a_node14"><a xlink:title=" ">
<polygon fill="#e0e0e0" stroke="#999999" points="569,-74 519,-74 519,-55 569,-55 569,-74"/>
<text text-anchor="middle" x="544" y="-62" font-family="Helvetica,sans-Serif" font-size="10.00">optional</text>
</a>
</g>
</g>
<!-- Node11&#45;&gt;Node14 -->
<g id="edge14" class="edge">
<title>Node11&#45;&gt;Node14</title>
<path fill="none" stroke="#63b8ff" d="M515.61,-109.75C520.12,-102.73 526.59,-92.64 532.21,-83.87"/>
<polygon fill="#63b8ff" stroke="#63b8ff" points="534.99,-86.02 537.45,-75.72 529.1,-82.24 534.99,-86.02"/>
</g>
<!-- Node15 -->
<g id="node15" class="node">
<title>Node15</title>
<g id="a_node15"><a xlink:title=" ">
<polygon fill="#e0e0e0" stroke="#999999" points="639,-74 587,-74 587,-55 639,-55 639,-74"/>
<text text-anchor="middle" x="613" y="-62" font-family="Helvetica,sans-Serif" font-size="10.00">ostream</text>
</a>
</g>
</g>
<!-- Node11&#45;&gt;Node15 -->
<g id="edge15" class="edge">
<title>Node11&#45;&gt;Node15</title>
<path fill="none" stroke="#63b8ff" d="M527.47,-109.51C543.4,-101.31 567.19,-89.07 585.64,-79.58"/>
<polygon fill="#63b8ff" stroke="#63b8ff" points="587.15,-82.74 594.44,-75.05 583.95,-76.51 587.15,-82.74"/>
</g>
<!-- Node16 -->
<g id="node16" class="node">
<title>Node16</title>
<g id="a_node16"><a xlink:title=" ">
<polygon fill="#e0e0e0" stroke="#999999" points="698.5,-74 657.5,-74 657.5,-55 698.5,-55 698.5,-74"/>
<text text-anchor="middle" x="678" y="-62" font-family="Helvetica,sans-Serif" font-size="10.00">string</text>
</a>
</g>
</g>
<!-- Node11&#45;&gt;Node16 -->
<g id="edge16" class="edge">
<title>Node11&#45;&gt;Node16</title>
<path fill="none" stroke="#63b8ff" d="M538.5,-109.51C568.43,-100.07 615.38,-85.25 646.42,-75.46"/>
<polygon fill="#63b8ff" stroke="#63b8ff" points="647.15,-78.9 655.63,-72.56 645.04,-72.23 647.15,-78.9"/>
</g>
</g>
</svg>
