<?xml version="1.0" encoding="UTF-8" standalone="no"?>
<!DOCTYPE svg PUBLIC "-//W3C//DTD SVG 1.1//EN"
 "http://www.w3.org/Graphics/SVG/1.1/DTD/svg11.dtd">
<!-- Generated by graphviz version 7.0.5 (20221223.1930)
 -->
<!-- Title: lib/application_business_rules/Protocol.hpp Pages: 1 -->
<svg width="560pt" height="203pt"
 viewBox="0.00 0.00 559.50 203.00" xmlns="http://www.w3.org/2000/svg" xmlns:xlink="http://www.w3.org/1999/xlink">
<g id="graph0" class="graph" transform="scale(1 1) rotate(0) translate(4 199)">
<title>lib/application_business_rules/Protocol.hpp</title>
<!-- Node1 -->
<g id="node1" class="node">
<title>Node1</title>
<g id="a_node1"><a xlink:title=" ">
<polygon fill="#999999" stroke="#666666" points="285.5,-195 165.5,-195 165.5,-165 285.5,-165 285.5,-195"/>
<text text-anchor="start" x="173.5" y="-183" font-family="Helvetica,sans-Serif" font-size="10.00">lib/application_business</text>
<text text-anchor="middle" x="225.5" y="-172" font-family="Helvetica,sans-Serif" font-size="10.00">_rules/Protocol.hpp</text>
</a>
</g>
</g>
<!-- Node2 -->
<g id="node2" class="node">
<title>Node2</title>
<g id="a_node2"><a xlink:href="command__line__interpreter_8hpp.xhtml" target="_top" xlink:title=" ">
<polygon fill="white" stroke="#666666" points="298.5,-129 152.5,-129 152.5,-110 298.5,-110 298.5,-129"/>
<text text-anchor="middle" x="225.5" y="-117" font-family="Helvetica,sans-Serif" font-size="10.00">command_line_interpreter.hpp</text>
</a>
</g>
</g>
<!-- Node1&#45;&gt;Node2 -->
<g id="edge1" class="edge">
<title>Node1&#45;&gt;Node2</title>
<path fill="none" stroke="#63b8ff" d="M225.5,-164.54C225.5,-157.34 225.5,-148.53 225.5,-140.68"/>
<polygon fill="#63b8ff" stroke="#63b8ff" points="229,-140.69 225.5,-130.69 222,-140.69 229,-140.69"/>
</g>
<!-- Node3 -->
<g id="node3" class="node">
<title>Node3</title>
<g id="a_node3"><a xlink:title=" ">
<polygon fill="#e0e0e0" stroke="#999999" points="59,-74 0,-74 0,-55 59,-55 59,-74"/>
<text text-anchor="middle" x="29.5" y="-62" font-family="Helvetica,sans-Serif" font-size="10.00">functional</text>
</a>
</g>
</g>
<!-- Node2&#45;&gt;Node3 -->
<g id="edge2" class="edge">
<title>Node2&#45;&gt;Node3</title>
<path fill="none" stroke="#63b8ff" d="M192.25,-109.51C158.5,-100.38 106.2,-86.24 70.04,-76.46"/>
<polygon fill="#63b8ff" stroke="#63b8ff" points="71.4,-73.2 60.83,-73.97 69.57,-79.96 71.4,-73.2"/>
</g>
<!-- Node4 -->
<g id="node4" class="node">
<title>Node4</title>
<g id="a_node4"><a xlink:title=" ">
<polygon fill="#e0e0e0" stroke="#999999" points="131.5,-74 77.5,-74 77.5,-55 131.5,-55 131.5,-74"/>
<text text-anchor="middle" x="104.5" y="-62" font-family="Helvetica,sans-Serif" font-size="10.00">iostream</text>
</a>
</g>
</g>
<!-- Node2&#45;&gt;Node4 -->
<g id="edge3" class="edge">
<title>Node2&#45;&gt;Node4</title>
<path fill="none" stroke="#63b8ff" d="M204.97,-109.51C185.82,-101.12 157,-88.5 135.13,-78.92"/>
<polygon fill="#63b8ff" stroke="#63b8ff" points="136.67,-75.77 126.11,-74.97 133.86,-82.18 136.67,-75.77"/>
</g>
<!-- Node5 -->
<g id="node5" class="node">
<title>Node5</title>
<g id="a_node5"><a xlink:title=" ">
<polygon fill="#e0e0e0" stroke="#999999" points="197,-74 150,-74 150,-55 197,-55 197,-74"/>
<text text-anchor="middle" x="173.5" y="-62" font-family="Helvetica,sans-Serif" font-size="10.00">iterator</text>
</a>
</g>
</g>
<!-- Node2&#45;&gt;Node5 -->
<g id="edge4" class="edge">
<title>Node2&#45;&gt;Node5</title>
<path fill="none" stroke="#63b8ff" d="M216.91,-109.75C209.66,-102.35 199.05,-91.54 190.13,-82.45"/>
<polygon fill="#63b8ff" stroke="#63b8ff" points="192.84,-80.21 183.33,-75.52 187.84,-85.11 192.84,-80.21"/>
</g>
<!-- Node6 -->
<g id="node6" class="node">
<title>Node6</title>
<g id="a_node6"><a xlink:title=" ">
<polygon fill="#e0e0e0" stroke="#999999" points="161,-19 102,-19 102,0 161,0 161,-19"/>
<text text-anchor="middle" x="131.5" y="-7" font-family="Helvetica,sans-Serif" font-size="10.00">stdexcept</text>
</a>
</g>
</g>
<!-- Node2&#45;&gt;Node6 -->
<g id="edge5" class="edge">
<title>Node2&#45;&gt;Node6</title>
<path fill="none" stroke="#63b8ff" d="M224.72,-109.79C223.13,-96.65 218.52,-71.52 205.5,-55 195.05,-41.73 179.47,-31.53 165.29,-24.25"/>
<polygon fill="#63b8ff" stroke="#63b8ff" points="167.21,-21.29 156.68,-20.13 164.18,-27.6 167.21,-21.29"/>
</g>
<!-- Node7 -->
<g id="node7" class="node">
<title>Node7</title>
<g id="a_node7"><a xlink:href="string__helpers_8hpp.xhtml" target="_top" xlink:title=" ">
<polygon fill="white" stroke="#666666" points="349,-74 254,-74 254,-55 349,-55 349,-74"/>
<text text-anchor="middle" x="301.5" y="-62" font-family="Helvetica,sans-Serif" font-size="10.00">string_helpers.hpp</text>
</a>
</g>
</g>
<!-- Node2&#45;&gt;Node7 -->
<g id="edge6" class="edge">
<title>Node2&#45;&gt;Node7</title>
<path fill="none" stroke="#63b8ff" d="M238.39,-109.51C249.6,-101.7 266.07,-90.21 279.38,-80.93"/>
<polygon fill="#63b8ff" stroke="#63b8ff" points="281.36,-83.81 287.56,-75.22 277.35,-78.07 281.36,-83.81"/>
</g>
<!-- Node14 -->
<g id="node14" class="node">
<title>Node14</title>
<g id="a_node14"><a xlink:title=" ">
<polygon fill="#e0e0e0" stroke="#999999" points="405.5,-74 367.5,-74 367.5,-55 405.5,-55 405.5,-74"/>
<text text-anchor="middle" x="386.5" y="-62" font-family="Helvetica,sans-Serif" font-size="10.00">tuple</text>
</a>
</g>
</g>
<!-- Node2&#45;&gt;Node14 -->
<g id="edge14" class="edge">
<title>Node2&#45;&gt;Node14</title>
<path fill="none" stroke="#63b8ff" d="M252.81,-109.51C281.61,-100.03 326.84,-85.14 356.59,-75.35"/>
<polygon fill="#63b8ff" stroke="#63b8ff" points="357.32,-78.79 365.72,-72.34 355.13,-72.14 357.32,-78.79"/>
</g>
<!-- Node15 -->
<g id="node15" class="node">
<title>Node15</title>
<g id="a_node15"><a xlink:title=" ">
<polygon fill="#e0e0e0" stroke="#999999" points="463,-74 424,-74 424,-55 463,-55 463,-74"/>
<text text-anchor="middle" x="443.5" y="-62" font-family="Helvetica,sans-Serif" font-size="10.00">utility</text>
</a>
</g>
</g>
<!-- Node2&#45;&gt;Node15 -->
<g id="edge15" class="edge">
<title>Node2&#45;&gt;Node15</title>
<path fill="none" stroke="#63b8ff" d="M266.21,-109.58C302.27,-101.53 356.58,-89.05 412.7,-74.36"/>
<polygon fill="#63b8ff" stroke="#63b8ff" points="413.33,-77.82 422.11,-71.88 411.55,-71.05 413.33,-77.82"/>
</g>
<!-- Node7&#45;&gt;Node6 -->
<g id="edge11" class="edge">
<title>Node7&#45;&gt;Node6</title>
<path fill="none" stroke="#63b8ff" d="M272.66,-54.51C244.74,-45.8 202.17,-32.53 171.08,-22.84"/>
<polygon fill="#63b8ff" stroke="#63b8ff" points="172.23,-19.53 161.64,-19.9 170.15,-26.21 172.23,-19.53"/>
</g>
<!-- Node8 -->
<g id="node8" class="node">
<title>Node8</title>
<g id="a_node8"><a xlink:title=" ">
<polygon fill="#e0e0e0" stroke="#999999" points="225.5,-19 179.5,-19 179.5,0 225.5,0 225.5,-19"/>
<text text-anchor="middle" x="202.5" y="-7" font-family="Helvetica,sans-Serif" font-size="10.00">cstring</text>
</a>
</g>
</g>
<!-- Node7&#45;&gt;Node8 -->
<g id="edge7" class="edge">
<title>Node7&#45;&gt;Node8</title>
<path fill="none" stroke="#63b8ff" d="M284.71,-54.51C269.4,-46.31 246.53,-34.07 228.8,-24.58"/>
<polygon fill="#63b8ff" stroke="#63b8ff" points="230.85,-21.71 220.38,-20.07 227.54,-27.88 230.85,-21.71"/>
</g>
<!-- Node9 -->
<g id="node9" class="node">
<title>Node9</title>
<g id="a_node9"><a xlink:title=" ">
<polygon fill="#e0e0e0" stroke="#999999" points="291.5,-19 243.5,-19 243.5,0 291.5,0 291.5,-19"/>
<text text-anchor="middle" x="267.5" y="-7" font-family="Helvetica,sans-Serif" font-size="10.00">cwchar</text>
</a>
</g>
</g>
<!-- Node7&#45;&gt;Node9 -->
<g id="edge8" class="edge">
<title>Node7&#45;&gt;Node9</title>
<path fill="none" stroke="#63b8ff" d="M295.89,-54.75C291.38,-47.73 284.91,-37.64 279.29,-28.87"/>
<polygon fill="#63b8ff" stroke="#63b8ff" points="282.4,-27.24 274.05,-20.72 276.51,-31.02 282.4,-27.24"/>
</g>
<!-- Node10 -->
<g id="node10" class="node">
<title>Node10</title>
<g id="a_node10"><a xlink:title=" ">
<polygon fill="#e0e0e0" stroke="#999999" points="359.5,-19 309.5,-19 309.5,0 359.5,0 359.5,-19"/>
<text text-anchor="middle" x="334.5" y="-7" font-family="Helvetica,sans-Serif" font-size="10.00">iomanip</text>
</a>
</g>
</g>
<!-- Node7&#45;&gt;Node10 -->
<g id="edge9" class="edge">
<title>Node7&#45;&gt;Node10</title>
<path fill="none" stroke="#63b8ff" d="M306.95,-54.75C311.27,-47.81 317.46,-37.86 322.88,-29.16"/>
<polygon fill="#63b8ff" stroke="#63b8ff" points="325.82,-31.07 328.13,-20.73 319.88,-27.37 325.82,-31.07"/>
</g>
<!-- Node11 -->
<g id="node11" class="node">
<title>Node11</title>
<g id="a_node11"><a xlink:title=" ">
<polygon fill="#e0e0e0" stroke="#999999" points="429.5,-19 377.5,-19 377.5,0 429.5,0 429.5,-19"/>
<text text-anchor="middle" x="403.5" y="-7" font-family="Helvetica,sans-Serif" font-size="10.00">sstream</text>
</a>
</g>
</g>
<!-- Node7&#45;&gt;Node11 -->
<g id="edge10" class="edge">
<title>Node7&#45;&gt;Node11</title>
<path fill="none" stroke="#63b8ff" d="M318.8,-54.51C334.58,-46.31 358.14,-34.07 376.41,-24.58"/>
<polygon fill="#63b8ff" stroke="#63b8ff" points="377.85,-27.77 385.11,-20.06 374.62,-21.56 377.85,-27.77"/>
</g>
<!-- Node12 -->
<g id="node12" class="node">
<title>Node12</title>
<g id="a_node12"><a xlink:title=" ">
<polygon fill="#e0e0e0" stroke="#999999" points="489,-19 448,-19 448,0 489,0 489,-19"/>
<text text-anchor="middle" x="468.5" y="-7" font-family="Helvetica,sans-Serif" font-size="10.00">string</text>
</a>
</g>
</g>
<!-- Node7&#45;&gt;Node12 -->
<g id="edge12" class="edge">
<title>Node7&#45;&gt;Node12</title>
<path fill="none" stroke="#63b8ff" d="M329.83,-54.51C359.58,-45.07 406.25,-30.25 437.11,-20.46"/>
<polygon fill="#63b8ff" stroke="#63b8ff" points="437.79,-23.92 446.26,-17.56 435.67,-17.25 437.79,-23.92"/>
</g>
<!-- Node13 -->
<g id="node13" class="node">
<title>Node13</title>
<g id="a_node13"><a xlink:title=" ">
<polygon fill="#e0e0e0" stroke="#999999" points="551.5,-19 507.5,-19 507.5,0 551.5,0 551.5,-19"/>
<text text-anchor="middle" x="529.5" y="-7" font-family="Helvetica,sans-Serif" font-size="10.00">vector</text>
</a>
</g>
</g>
<!-- Node7&#45;&gt;Node13 -->
<g id="edge13" class="edge">
<title>Node7&#45;&gt;Node13</title>
<path fill="none" stroke="#63b8ff" d="M343.9,-54.5C381.55,-46.39 438.3,-33.84 496.33,-19.46"/>
<polygon fill="#63b8ff" stroke="#63b8ff" points="496.86,-22.93 505.71,-17.12 495.16,-16.14 496.86,-22.93"/>
</g>
</g>
</svg>
