<?xml version="1.0" encoding="UTF-8" standalone="no"?>
<!DOCTYPE svg PUBLIC "-//W3C//DTD SVG 1.1//EN"
 "http://www.w3.org/Graphics/SVG/1.1/DTD/svg11.dtd">
<!-- Generated by graphviz version 7.0.5 (20221223.1930)
 -->
<!-- Title: lib/application_business_rules/Protocol.cpp Pages: 1 -->
<svg width="587pt" height="258pt"
 viewBox="0.00 0.00 587.05 258.00" xmlns="http://www.w3.org/2000/svg" xmlns:xlink="http://www.w3.org/1999/xlink">
<g id="graph0" class="graph" transform="scale(1 1) rotate(0) translate(4 254)">
<title>lib/application_business_rules/Protocol.cpp</title>
<!-- Node1 -->
<g id="node1" class="node">
<title>Node1</title>
<g id="a_node1"><a xlink:title=" ">
<polygon fill="#999999" stroke="#666666" points="565,-250 445,-250 445,-220 565,-220 565,-250"/>
<text text-anchor="start" x="453" y="-238" font-family="Helvetica,sans-Serif" font-size="10.00">lib/application_business</text>
<text text-anchor="middle" x="505" y="-227" font-family="Helvetica,sans-Serif" font-size="10.00">_rules/Protocol.cpp</text>
</a>
</g>
</g>
<!-- Node2 -->
<g id="node2" class="node">
<title>Node2</title>
<g id="a_node2"><a xlink:href="Protocol_8hpp.xhtml" target="_top" xlink:title=" ">
<polygon fill="white" stroke="#666666" points="332.5,-184 261.5,-184 261.5,-165 332.5,-165 332.5,-184"/>
<text text-anchor="middle" x="297" y="-172" font-family="Helvetica,sans-Serif" font-size="10.00">Protocol.hpp</text>
</a>
</g>
</g>
<!-- Node1&#45;&gt;Node2 -->
<g id="edge1" class="edge">
<title>Node1&#45;&gt;Node2</title>
<path fill="none" stroke="#63b8ff" d="M453.58,-219.54C418.46,-209.66 372.47,-196.73 339.43,-187.43"/>
<polygon fill="#63b8ff" stroke="#63b8ff" points="340.79,-184.18 330.22,-184.84 338.89,-190.92 340.79,-184.18"/>
</g>
<!-- Node11 -->
<g id="node11" class="node">
<title>Node11</title>
<g id="a_node11"><a xlink:title=" ">
<polygon fill="#e0e0e0" stroke="#999999" points="521.5,-19 480.5,-19 480.5,0 521.5,0 521.5,-19"/>
<text text-anchor="middle" x="501" y="-7" font-family="Helvetica,sans-Serif" font-size="10.00">string</text>
</a>
</g>
</g>
<!-- Node1&#45;&gt;Node11 -->
<g id="edge22" class="edge">
<title>Node1&#45;&gt;Node11</title>
<path fill="none" stroke="#63b8ff" d="M522.96,-219.64C548.4,-197.43 590.33,-152.81 576,-110 564.85,-76.68 537.66,-45.59 519.27,-27.31"/>
<polygon fill="#63b8ff" stroke="#63b8ff" points="521.78,-24.87 512.15,-20.46 516.93,-29.92 521.78,-24.87"/>
</g>
<!-- Node15 -->
<g id="node15" class="node">
<title>Node15</title>
<g id="a_node15"><a xlink:href="serial__port_8hpp.xhtml" target="_top" xlink:title=" ">
<polygon fill="white" stroke="#666666" points="495,-184 415,-184 415,-165 495,-165 495,-184"/>
<text text-anchor="middle" x="455" y="-172" font-family="Helvetica,sans-Serif" font-size="10.00">serial_port.hpp</text>
</a>
</g>
</g>
<!-- Node1&#45;&gt;Node15 -->
<g id="edge15" class="edge">
<title>Node1&#45;&gt;Node15</title>
<path fill="none" stroke="#63b8ff" d="M492.64,-219.54C485.75,-211.48 477.12,-201.38 469.86,-192.89"/>
<polygon fill="#63b8ff" stroke="#63b8ff" points="472.56,-190.65 463.4,-185.33 467.23,-195.2 472.56,-190.65"/>
</g>
<!-- Node16 -->
<g id="node16" class="node">
<title>Node16</title>
<g id="a_node16"><a xlink:title=" ">
<polygon fill="#e0e0e0" stroke="#999999" points="567,-129 529,-129 529,-110 567,-110 567,-129"/>
<text text-anchor="middle" x="548" y="-117" font-family="Helvetica,sans-Serif" font-size="10.00">array</text>
</a>
</g>
</g>
<!-- Node1&#45;&gt;Node16 -->
<g id="edge21" class="edge">
<title>Node1&#45;&gt;Node16</title>
<path fill="none" stroke="#63b8ff" d="M510.45,-219.63C518.11,-199.4 532.09,-162.49 540.66,-139.86"/>
<polygon fill="#63b8ff" stroke="#63b8ff" points="543.89,-141.24 544.16,-130.64 537.34,-138.76 543.89,-141.24"/>
</g>
<!-- Node3 -->
<g id="node3" class="node">
<title>Node3</title>
<g id="a_node3"><a xlink:href="command__line__interpreter_8hpp.xhtml" target="_top" xlink:title=" ">
<polygon fill="white" stroke="#666666" points="297,-129 151,-129 151,-110 297,-110 297,-129"/>
<text text-anchor="middle" x="224" y="-117" font-family="Helvetica,sans-Serif" font-size="10.00">command_line_interpreter.hpp</text>
</a>
</g>
</g>
<!-- Node2&#45;&gt;Node3 -->
<g id="edge2" class="edge">
<title>Node2&#45;&gt;Node3</title>
<path fill="none" stroke="#63b8ff" d="M284.62,-164.51C273.85,-156.7 258.03,-145.21 245.25,-135.93"/>
<polygon fill="#63b8ff" stroke="#63b8ff" points="247.57,-133.29 237.43,-130.25 243.46,-138.95 247.57,-133.29"/>
</g>
<!-- Node4 -->
<g id="node4" class="node">
<title>Node4</title>
<g id="a_node4"><a xlink:title=" ">
<polygon fill="#e0e0e0" stroke="#999999" points="462.5,-74 403.5,-74 403.5,-55 462.5,-55 462.5,-74"/>
<text text-anchor="middle" x="433" y="-62" font-family="Helvetica,sans-Serif" font-size="10.00">functional</text>
</a>
</g>
</g>
<!-- Node3&#45;&gt;Node4 -->
<g id="edge3" class="edge">
<title>Node3&#45;&gt;Node4</title>
<path fill="none" stroke="#63b8ff" d="M259.45,-109.51C296.24,-100.18 353.67,-85.62 392.29,-75.82"/>
<polygon fill="#63b8ff" stroke="#63b8ff" points="392.84,-79.3 401.67,-73.44 391.12,-72.51 392.84,-79.3"/>
</g>
<!-- Node5 -->
<g id="node5" class="node">
<title>Node5</title>
<g id="a_node5"><a xlink:title=" ">
<polygon fill="#e0e0e0" stroke="#999999" points="54,-74 0,-74 0,-55 54,-55 54,-74"/>
<text text-anchor="middle" x="27" y="-62" font-family="Helvetica,sans-Serif" font-size="10.00">iostream</text>
</a>
</g>
</g>
<!-- Node3&#45;&gt;Node5 -->
<g id="edge4" class="edge">
<title>Node3&#45;&gt;Node5</title>
<path fill="none" stroke="#63b8ff" d="M190.58,-109.51C155.76,-100.14 101.3,-85.49 64.9,-75.7"/>
<polygon fill="#63b8ff" stroke="#63b8ff" points="66.25,-72.44 55.69,-73.22 64.44,-79.2 66.25,-72.44"/>
</g>
<!-- Node6 -->
<g id="node6" class="node">
<title>Node6</title>
<g id="a_node6"><a xlink:title=" ">
<polygon fill="#e0e0e0" stroke="#999999" points="119.5,-74 72.5,-74 72.5,-55 119.5,-55 119.5,-74"/>
<text text-anchor="middle" x="96" y="-62" font-family="Helvetica,sans-Serif" font-size="10.00">iterator</text>
</a>
</g>
</g>
<!-- Node3&#45;&gt;Node6 -->
<g id="edge5" class="edge">
<title>Node3&#45;&gt;Node6</title>
<path fill="none" stroke="#63b8ff" d="M202.29,-109.51C181.84,-101.04 150.98,-88.27 127.77,-78.66"/>
<polygon fill="#63b8ff" stroke="#63b8ff" points="129.37,-75.53 118.79,-74.94 126.69,-82 129.37,-75.53"/>
</g>
<!-- Node7 -->
<g id="node7" class="node">
<title>Node7</title>
<g id="a_node7"><a xlink:title=" ">
<polygon fill="#e0e0e0" stroke="#999999" points="177.5,-19 118.5,-19 118.5,0 177.5,0 177.5,-19"/>
<text text-anchor="middle" x="148" y="-7" font-family="Helvetica,sans-Serif" font-size="10.00">stdexcept</text>
</a>
</g>
</g>
<!-- Node3&#45;&gt;Node7 -->
<g id="edge6" class="edge">
<title>Node3&#45;&gt;Node7</title>
<path fill="none" stroke="#63b8ff" d="M207.72,-109.61C194.89,-101.82 177.48,-89.34 167,-74 158.15,-61.04 153.33,-43.86 150.77,-30.64"/>
<polygon fill="#63b8ff" stroke="#63b8ff" points="154.25,-30.24 149.18,-20.94 147.34,-31.37 154.25,-30.24"/>
</g>
<!-- Node8 -->
<g id="node8" class="node">
<title>Node8</title>
<g id="a_node8"><a xlink:href="string__helpers_8hpp.xhtml" target="_top" xlink:title=" ">
<polygon fill="white" stroke="#666666" points="271.5,-74 176.5,-74 176.5,-55 271.5,-55 271.5,-74"/>
<text text-anchor="middle" x="224" y="-62" font-family="Helvetica,sans-Serif" font-size="10.00">string_helpers.hpp</text>
</a>
</g>
</g>
<!-- Node3&#45;&gt;Node8 -->
<g id="edge7" class="edge">
<title>Node3&#45;&gt;Node8</title>
<path fill="none" stroke="#63b8ff" d="M224,-109.75C224,-103.27 224,-94.16 224,-85.9"/>
<polygon fill="#63b8ff" stroke="#63b8ff" points="227.5,-85.96 224,-75.96 220.5,-85.96 227.5,-85.96"/>
</g>
<!-- Node13 -->
<g id="node13" class="node">
<title>Node13</title>
<g id="a_node13"><a xlink:title=" ">
<polygon fill="#e0e0e0" stroke="#999999" points="328,-74 290,-74 290,-55 328,-55 328,-74"/>
<text text-anchor="middle" x="309" y="-62" font-family="Helvetica,sans-Serif" font-size="10.00">tuple</text>
</a>
</g>
</g>
<!-- Node3&#45;&gt;Node13 -->
<g id="edge13" class="edge">
<title>Node3&#45;&gt;Node13</title>
<path fill="none" stroke="#63b8ff" d="M238.42,-109.51C251.2,-101.54 270.1,-89.75 285.13,-80.38"/>
<polygon fill="#63b8ff" stroke="#63b8ff" points="286.88,-83.42 293.51,-75.16 283.17,-77.48 286.88,-83.42"/>
</g>
<!-- Node14 -->
<g id="node14" class="node">
<title>Node14</title>
<g id="a_node14"><a xlink:title=" ">
<polygon fill="#e0e0e0" stroke="#999999" points="385.5,-74 346.5,-74 346.5,-55 385.5,-55 385.5,-74"/>
<text text-anchor="middle" x="366" y="-62" font-family="Helvetica,sans-Serif" font-size="10.00">utility</text>
</a>
</g>
</g>
<!-- Node3&#45;&gt;Node14 -->
<g id="edge14" class="edge">
<title>Node3&#45;&gt;Node14</title>
<path fill="none" stroke="#63b8ff" d="M248.09,-109.51C272.32,-100.46 309.75,-86.49 335.92,-76.73"/>
<polygon fill="#63b8ff" stroke="#63b8ff" points="336.81,-80.13 344.96,-73.35 334.36,-73.57 336.81,-80.13"/>
</g>
<!-- Node8&#45;&gt;Node7 -->
<g id="edge10" class="edge">
<title>Node8&#45;&gt;Node7</title>
<path fill="none" stroke="#63b8ff" d="M211.11,-54.51C199.9,-46.7 183.43,-35.21 170.12,-25.93"/>
<polygon fill="#63b8ff" stroke="#63b8ff" points="172.15,-23.07 161.94,-20.22 168.14,-28.81 172.15,-23.07"/>
</g>
<!-- Node9 -->
<g id="node9" class="node">
<title>Node9</title>
<g id="a_node9"><a xlink:title=" ">
<polygon fill="#e0e0e0" stroke="#999999" points="246,-19 196,-19 196,0 246,0 246,-19"/>
<text text-anchor="middle" x="221" y="-7" font-family="Helvetica,sans-Serif" font-size="10.00">iomanip</text>
</a>
</g>
</g>
<!-- Node8&#45;&gt;Node9 -->
<g id="edge8" class="edge">
<title>Node8&#45;&gt;Node9</title>
<path fill="none" stroke="#63b8ff" d="M223.5,-54.75C223.14,-48.27 222.62,-39.16 222.15,-30.9"/>
<polygon fill="#63b8ff" stroke="#63b8ff" points="225.65,-30.74 221.59,-20.95 218.66,-31.13 225.65,-30.74"/>
</g>
<!-- Node10 -->
<g id="node10" class="node">
<title>Node10</title>
<g id="a_node10"><a xlink:title=" ">
<polygon fill="#e0e0e0" stroke="#999999" points="316,-19 264,-19 264,0 316,0 316,-19"/>
<text text-anchor="middle" x="290" y="-7" font-family="Helvetica,sans-Serif" font-size="10.00">sstream</text>
</a>
</g>
</g>
<!-- Node8&#45;&gt;Node10 -->
<g id="edge9" class="edge">
<title>Node8&#45;&gt;Node10</title>
<path fill="none" stroke="#63b8ff" d="M235.2,-54.51C244.74,-46.85 258.67,-35.66 270.11,-26.47"/>
<polygon fill="#63b8ff" stroke="#63b8ff" points="272.18,-29.3 277.79,-20.31 267.8,-23.84 272.18,-29.3"/>
</g>
<!-- Node8&#45;&gt;Node11 -->
<g id="edge11" class="edge">
<title>Node8&#45;&gt;Node11</title>
<path fill="none" stroke="#63b8ff" d="M270.99,-54.51C327.31,-43.73 420.19,-25.96 468.9,-16.64"/>
<polygon fill="#63b8ff" stroke="#63b8ff" points="469.36,-20.12 478.52,-14.8 468.04,-13.24 469.36,-20.12"/>
</g>
<!-- Node12 -->
<g id="node12" class="node">
<title>Node12</title>
<g id="a_node12"><a xlink:title=" ">
<polygon fill="#e0e0e0" stroke="#999999" points="378,-19 334,-19 334,0 378,0 378,-19"/>
<text text-anchor="middle" x="356" y="-7" font-family="Helvetica,sans-Serif" font-size="10.00">vector</text>
</a>
</g>
</g>
<!-- Node8&#45;&gt;Node12 -->
<g id="edge12" class="edge">
<title>Node8&#45;&gt;Node12</title>
<path fill="none" stroke="#63b8ff" d="M246.39,-54.51C267.57,-46.01 299.59,-33.15 323.56,-23.53"/>
<polygon fill="#63b8ff" stroke="#63b8ff" points="324.56,-26.9 332.53,-19.92 321.95,-20.4 324.56,-26.9"/>
</g>
<!-- Node15&#45;&gt;Node4 -->
<g id="edge17" class="edge">
<title>Node15&#45;&gt;Node4</title>
<path fill="none" stroke="#63b8ff" d="M442.09,-164.61C431.76,-156.65 418.04,-143.94 412,-129 405.95,-114.03 412.67,-96.59 420.07,-83.77"/>
<polygon fill="#63b8ff" stroke="#63b8ff" points="422.91,-85.84 425.36,-75.53 417.02,-82.05 422.91,-85.84"/>
</g>
<!-- Node15&#45;&gt;Node11 -->
<g id="edge20" class="edge">
<title>Node15&#45;&gt;Node11</title>
<path fill="none" stroke="#63b8ff" d="M461.68,-164.82C467.94,-156.21 477.08,-142.4 482,-129 494.13,-96 498.52,-55.01 500.11,-30.91"/>
<polygon fill="#63b8ff" stroke="#63b8ff" points="503.6,-31.1 500.65,-20.93 496.61,-30.72 503.6,-31.1"/>
</g>
<!-- Node15&#45;&gt;Node16 -->
<g id="edge16" class="edge">
<title>Node15&#45;&gt;Node16</title>
<path fill="none" stroke="#63b8ff" d="M470.78,-164.51C485.02,-156.39 506.24,-144.3 522.83,-134.85"/>
<polygon fill="#63b8ff" stroke="#63b8ff" points="524.19,-138.1 531.14,-130.11 520.72,-132.02 524.19,-138.1"/>
</g>
<!-- Node17 -->
<g id="node17" class="node">
<title>Node17</title>
<g id="a_node17"><a xlink:title=" ">
<polygon fill="#e0e0e0" stroke="#999999" points="365,-129 315,-129 315,-110 365,-110 365,-129"/>
<text text-anchor="middle" x="340" y="-117" font-family="Helvetica,sans-Serif" font-size="10.00">optional</text>
</a>
</g>
</g>
<!-- Node15&#45;&gt;Node17 -->
<g id="edge18" class="edge">
<title>Node15&#45;&gt;Node17</title>
<path fill="none" stroke="#63b8ff" d="M435.49,-164.51C417.37,-156.16 390.15,-143.61 369.4,-134.05"/>
<polygon fill="#63b8ff" stroke="#63b8ff" points="371.14,-131 360.59,-129.99 368.21,-137.36 371.14,-131"/>
</g>
<!-- Node18 -->
<g id="node18" class="node">
<title>Node18</title>
<g id="a_node18"><a xlink:title=" ">
<polygon fill="#e0e0e0" stroke="#999999" points="473,-129 421,-129 421,-110 473,-110 473,-129"/>
<text text-anchor="middle" x="447" y="-117" font-family="Helvetica,sans-Serif" font-size="10.00">ostream</text>
</a>
</g>
</g>
<!-- Node15&#45;&gt;Node18 -->
<g id="edge19" class="edge">
<title>Node15&#45;&gt;Node18</title>
<path fill="none" stroke="#63b8ff" d="M453.68,-164.75C452.69,-158.19 451.29,-148.95 450.03,-140.6"/>
<polygon fill="#63b8ff" stroke="#63b8ff" points="453.53,-140.3 448.58,-130.94 446.61,-141.35 453.53,-140.3"/>
</g>
</g>
</svg>
