<?xml version="1.0" encoding="UTF-8" standalone="no"?>
<!DOCTYPE svg PUBLIC "-//W3C//DTD SVG 1.1//EN"
 "http://www.w3.org/Graphics/SVG/1.1/DTD/svg11.dtd">
<!-- Generated by graphviz version 7.0.5 (20221223.1930)
 -->
<!-- Title: lib/enterprise_business_rules/string_helpers.hpp Pages: 1 -->
<svg width="499pt" height="170pt"
 viewBox="0.00 0.00 499.00 170.00" xmlns="http://www.w3.org/2000/svg" xmlns:xlink="http://www.w3.org/1999/xlink">
<g id="graph0" class="graph" transform="scale(1 1) rotate(0) translate(4 166)">
<title>lib/enterprise_business_rules/string_helpers.hpp</title>
<!-- Node1 -->
<g id="node1" class="node">
<title>Node1</title>
<g id="a_node1"><a xlink:title=" ">
<polygon fill="#999999" stroke="#666666" points="352.5,-162 227.5,-162 227.5,-132 352.5,-132 352.5,-162"/>
<text text-anchor="start" x="235.5" y="-150" font-family="Helvetica,sans-Serif" font-size="10.00">lib/enterprise_business</text>
<text text-anchor="middle" x="290" y="-139" font-family="Helvetica,sans-Serif" font-size="10.00">_rules/string_helpers.hpp</text>
</a>
</g>
</g>
<!-- Node2 -->
<g id="node2" class="node">
<title>Node2</title>
<g id="a_node2"><a xlink:href="command__line__interpreter_8hpp.xhtml" target="_top" xlink:title=" ">
<polygon fill="white" stroke="#666666" points="209,-96 33,-96 33,-66 209,-66 209,-96"/>
<text text-anchor="start" x="41" y="-84" font-family="Helvetica,sans-Serif" font-size="10.00">lib/application_business</text>
<text text-anchor="middle" x="121" y="-73" font-family="Helvetica,sans-Serif" font-size="10.00">_rules/command_line_interpreter.hpp</text>
</a>
</g>
</g>
<!-- Node1&#45;&gt;Node2 -->
<g id="edge1" class="edge">
<title>Node1&#45;&gt;Node2</title>
<path fill="none" stroke="#63b8ff" d="M241.6,-127.67C215.4,-117.75 183.5,-105.67 159.09,-96.43"/>
<polygon fill="#63b8ff" stroke="#63b8ff" points="240.07,-130.83 250.66,-131.1 242.55,-124.29 240.07,-130.83"/>
</g>
<!-- Node5 -->
<g id="node5" class="node">
<title>Node5</title>
<g id="a_node5"><a xlink:href="string__helpers_8cpp.xhtml" target="_top" xlink:title=" ">
<polygon fill="white" stroke="#666666" points="352.5,-96 227.5,-96 227.5,-66 352.5,-66 352.5,-96"/>
<text text-anchor="start" x="235.5" y="-84" font-family="Helvetica,sans-Serif" font-size="10.00">lib/enterprise_business</text>
<text text-anchor="middle" x="290" y="-73" font-family="Helvetica,sans-Serif" font-size="10.00">_rules/string_helpers.cpp</text>
</a>
</g>
</g>
<!-- Node1&#45;&gt;Node5 -->
<g id="edge4" class="edge">
<title>Node1&#45;&gt;Node5</title>
<path fill="none" stroke="#63b8ff" d="M290,-120.39C290,-112.13 290,-103.28 290,-96.16"/>
<polygon fill="#63b8ff" stroke="#63b8ff" points="286.5,-120.28 290,-130.28 293.5,-120.28 286.5,-120.28"/>
</g>
<!-- Node6 -->
<g id="node6" class="node">
<title>Node6</title>
<g id="a_node6"><a xlink:href="test__string__helpers_8cpp.xhtml" target="_top" xlink:title=" ">
<polygon fill="white" stroke="#666666" points="491,-96 371,-96 371,-66 491,-66 491,-96"/>
<text text-anchor="start" x="379" y="-84" font-family="Helvetica,sans-Serif" font-size="10.00">test/test_string_helpers</text>
<text text-anchor="middle" x="431" y="-73" font-family="Helvetica,sans-Serif" font-size="10.00">/test_string_helpers.cpp</text>
</a>
</g>
</g>
<!-- Node1&#45;&gt;Node6 -->
<g id="edge5" class="edge">
<title>Node1&#45;&gt;Node6</title>
<path fill="none" stroke="#63b8ff" d="M331.88,-126.99C353.53,-117.16 379.53,-105.36 399.46,-96.31"/>
<polygon fill="#63b8ff" stroke="#63b8ff" points="330.68,-123.69 323.02,-131.01 333.57,-130.07 330.68,-123.69"/>
</g>
<!-- Node3 -->
<g id="node3" class="node">
<title>Node3</title>
<g id="a_node3"><a xlink:href="Protocol_8cpp.xhtml" target="_top" xlink:title=" ">
<polygon fill="white" stroke="#666666" points="120,-30 0,-30 0,0 120,0 120,-30"/>
<text text-anchor="start" x="8" y="-18" font-family="Helvetica,sans-Serif" font-size="10.00">lib/application_business</text>
<text text-anchor="middle" x="60" y="-7" font-family="Helvetica,sans-Serif" font-size="10.00">_rules/Protocol.cpp</text>
</a>
</g>
</g>
<!-- Node2&#45;&gt;Node3 -->
<g id="edge2" class="edge">
<title>Node2&#45;&gt;Node3</title>
<path fill="none" stroke="#63b8ff" d="M99.58,-57.53C90.91,-48.43 81.15,-38.19 73.5,-30.16"/>
<polygon fill="#63b8ff" stroke="#63b8ff" points="96.98,-59.88 106.42,-64.7 102.05,-55.05 96.98,-59.88"/>
</g>
<!-- Node4 -->
<g id="node4" class="node">
<title>Node4</title>
<g id="a_node4"><a xlink:href="test__cli_8cpp.xhtml" target="_top" xlink:title=" ">
<polygon fill="white" stroke="#666666" points="225.5,-30 138.5,-30 138.5,0 225.5,0 225.5,-30"/>
<text text-anchor="start" x="146.5" y="-18" font-family="Helvetica,sans-Serif" font-size="10.00">test/test_cli/test</text>
<text text-anchor="middle" x="182" y="-7" font-family="Helvetica,sans-Serif" font-size="10.00">_cli.cpp</text>
</a>
</g>
</g>
<!-- Node2&#45;&gt;Node4 -->
<g id="edge3" class="edge">
<title>Node2&#45;&gt;Node4</title>
<path fill="none" stroke="#63b8ff" d="M142.42,-57.53C151.09,-48.43 160.85,-38.19 168.5,-30.16"/>
<polygon fill="#63b8ff" stroke="#63b8ff" points="139.95,-55.05 135.58,-64.7 145.02,-59.88 139.95,-55.05"/>
</g>
</g>
</svg>
