<?xml version="1.0" encoding="UTF-8" standalone="no"?>
<!DOCTYPE svg PUBLIC "-//W3C//DTD SVG 1.1//EN"
 "http://www.w3.org/Graphics/SVG/1.1/DTD/svg11.dtd">
<!-- Generated by graphviz version 7.0.5 (20221223.1930)
 -->
<!-- Title: lib/application_business_rules/user_interaction/KeyIds.hpp Pages: 1 -->
<svg width="983pt" height="280pt"
 viewBox="0.00 0.00 983.00 280.00" xmlns="http://www.w3.org/2000/svg" xmlns:xlink="http://www.w3.org/1999/xlink">
<g id="graph0" class="graph" transform="scale(1 1) rotate(0) translate(4 276)">
<title>lib/application_business_rules/user_interaction/KeyIds.hpp</title>
<!-- Node1 -->
<g id="node1" class="node">
<title>Node1</title>
<g id="a_node1"><a xlink:title=" ">
<polygon fill="#999999" stroke="#666666" points="658.5,-272 538.5,-272 538.5,-231 658.5,-231 658.5,-272"/>
<text text-anchor="start" x="546.5" y="-260" font-family="Helvetica,sans-Serif" font-size="10.00">lib/application_business</text>
<text text-anchor="start" x="546.5" y="-249" font-family="Helvetica,sans-Serif" font-size="10.00">_rules/user_interaction</text>
<text text-anchor="middle" x="598.5" y="-238" font-family="Helvetica,sans-Serif" font-size="10.00">/KeyIds.hpp</text>
</a>
</g>
</g>
<!-- Node2 -->
<g id="node2" class="node">
<title>Node2</title>
<g id="a_node2"><a xlink:href="IKeypad_8hpp.xhtml" target="_top" xlink:title=" ">
<polygon fill="white" stroke="#666666" points="356.5,-195 236.5,-195 236.5,-154 356.5,-154 356.5,-195"/>
<text text-anchor="start" x="244.5" y="-183" font-family="Helvetica,sans-Serif" font-size="10.00">lib/application_business</text>
<text text-anchor="start" x="244.5" y="-172" font-family="Helvetica,sans-Serif" font-size="10.00">_rules/user_interaction</text>
<text text-anchor="middle" x="296.5" y="-161" font-family="Helvetica,sans-Serif" font-size="10.00">/IKeypad.hpp</text>
</a>
</g>
</g>
<!-- Node1&#45;&gt;Node2 -->
<g id="edge1" class="edge">
<title>Node1&#45;&gt;Node2</title>
<path fill="none" stroke="#63b8ff" d="M527,-232.74C475.16,-219.87 405.83,-202.65 356.78,-190.47"/>
<polygon fill="#63b8ff" stroke="#63b8ff" points="526.09,-236.12 536.64,-235.14 527.78,-229.33 526.09,-236.12"/>
</g>
<!-- Node10 -->
<g id="node10" class="node">
<title>Node10</title>
<g id="a_node10"><a xlink:href="KeyIds_8cpp.xhtml" target="_top" xlink:title=" ">
<polygon fill="white" stroke="#666666" points="865.5,-195 745.5,-195 745.5,-154 865.5,-154 865.5,-195"/>
<text text-anchor="start" x="753.5" y="-183" font-family="Helvetica,sans-Serif" font-size="10.00">lib/application_business</text>
<text text-anchor="start" x="753.5" y="-172" font-family="Helvetica,sans-Serif" font-size="10.00">_rules/user_interaction</text>
<text text-anchor="middle" x="805.5" y="-161" font-family="Helvetica,sans-Serif" font-size="10.00">/KeyIds.cpp</text>
</a>
</g>
</g>
<!-- Node1&#45;&gt;Node10 -->
<g id="edge11" class="edge">
<title>Node1&#45;&gt;Node10</title>
<path fill="none" stroke="#63b8ff" d="M664.22,-226.69C691.94,-216.65 723.84,-205.09 750.31,-195.49"/>
<polygon fill="#63b8ff" stroke="#63b8ff" points="663.06,-223.39 654.85,-230.08 665.45,-229.97 663.06,-223.39"/>
</g>
<!-- Node11 -->
<g id="node11" class="node">
<title>Node11</title>
<g id="a_node11"><a xlink:href="ProcessHmiInputs_8hpp.xhtml" target="_top" xlink:title=" ">
<polygon fill="white" stroke="#666666" points="589.5,-195 469.5,-195 469.5,-154 589.5,-154 589.5,-195"/>
<text text-anchor="start" x="477.5" y="-183" font-family="Helvetica,sans-Serif" font-size="10.00">lib/application_business</text>
<text text-anchor="start" x="477.5" y="-172" font-family="Helvetica,sans-Serif" font-size="10.00">_rules/user_interaction</text>
<text text-anchor="middle" x="529.5" y="-161" font-family="Helvetica,sans-Serif" font-size="10.00">/ProcessHmiInputs.hpp</text>
</a>
</g>
</g>
<!-- Node1&#45;&gt;Node11 -->
<g id="edge12" class="edge">
<title>Node1&#45;&gt;Node11</title>
<path fill="none" stroke="#63b8ff" d="M572.7,-222.46C564.4,-213.44 555.39,-203.64 547.75,-195.33"/>
<polygon fill="#63b8ff" stroke="#63b8ff" points="570,-224.69 579.35,-229.68 575.15,-219.95 570,-224.69"/>
</g>
<!-- Node12 -->
<g id="node12" class="node">
<title>Node12</title>
<g id="a_node12"><a xlink:href="board__interface_8hpp.xhtml" target="_top" xlink:title=" ">
<polygon fill="white" stroke="#666666" points="727.5,-195 607.5,-195 607.5,-154 727.5,-154 727.5,-195"/>
<text text-anchor="start" x="615.5" y="-183" font-family="Helvetica,sans-Serif" font-size="10.00">lib/application_business</text>
<text text-anchor="start" x="615.5" y="-172" font-family="Helvetica,sans-Serif" font-size="10.00">_rules/user_interaction</text>
<text text-anchor="middle" x="667.5" y="-161" font-family="Helvetica,sans-Serif" font-size="10.00">/board_interface.hpp</text>
</a>
</g>
</g>
<!-- Node1&#45;&gt;Node12 -->
<g id="edge16" class="edge">
<title>Node1&#45;&gt;Node12</title>
<path fill="none" stroke="#63b8ff" d="M624.3,-222.46C632.6,-213.44 641.61,-203.64 649.25,-195.33"/>
<polygon fill="#63b8ff" stroke="#63b8ff" points="621.85,-219.95 617.65,-229.68 627,-224.69 621.85,-219.95"/>
</g>
<!-- Node3 -->
<g id="node3" class="node">
<title>Node3</title>
<g id="a_node3"><a xlink:href="ProcessHmiInputs_8cpp.xhtml" target="_top" xlink:title=" ">
<polygon fill="white" stroke="#666666" points="507.5,-118 387.5,-118 387.5,-77 507.5,-77 507.5,-118"/>
<text text-anchor="start" x="395.5" y="-106" font-family="Helvetica,sans-Serif" font-size="10.00">lib/application_business</text>
<text text-anchor="start" x="395.5" y="-95" font-family="Helvetica,sans-Serif" font-size="10.00">_rules/user_interaction</text>
<text text-anchor="middle" x="447.5" y="-84" font-family="Helvetica,sans-Serif" font-size="10.00">/ProcessHmiInputs.cpp</text>
</a>
</g>
</g>
<!-- Node2&#45;&gt;Node3 -->
<g id="edge2" class="edge">
<title>Node2&#45;&gt;Node3</title>
<path fill="none" stroke="#63b8ff" d="M346.87,-148.48C366.51,-138.73 388.7,-127.7 407.24,-118.49"/>
<polygon fill="#63b8ff" stroke="#63b8ff" points="345.32,-145.34 337.92,-152.92 348.44,-151.61 345.32,-145.34"/>
</g>
<!-- Node4 -->
<g id="node4" class="node">
<title>Node4</title>
<g id="a_node4"><a xlink:href="keypad__factory__interface_8hpp.xhtml" target="_top" xlink:title="Dependency injection for the keypad.">
<polygon fill="white" stroke="#666666" points="369.5,-118 223.5,-118 223.5,-77 369.5,-77 369.5,-118"/>
<text text-anchor="start" x="231.5" y="-106" font-family="Helvetica,sans-Serif" font-size="10.00">lib/application_business</text>
<text text-anchor="start" x="231.5" y="-95" font-family="Helvetica,sans-Serif" font-size="10.00">_rules/user_interaction</text>
<text text-anchor="middle" x="296.5" y="-84" font-family="Helvetica,sans-Serif" font-size="10.00">/keypad_factory_interface.hpp</text>
</a>
</g>
</g>
<!-- Node2&#45;&gt;Node4 -->
<g id="edge3" class="edge">
<title>Node2&#45;&gt;Node4</title>
<path fill="none" stroke="#63b8ff" d="M296.5,-142.36C296.5,-134.24 296.5,-125.7 296.5,-118.33"/>
<polygon fill="#63b8ff" stroke="#63b8ff" points="293,-142.28 296.5,-152.28 300,-142.28 293,-142.28"/>
</g>
<!-- Node7 -->
<g id="node7" class="node">
<title>Node7</title>
<g id="a_node7"><a xlink:href="test__hmi_8cpp.xhtml" target="_top" xlink:title=" ">
<polygon fill="white" stroke="#666666" points="393,-35.5 300,-35.5 300,-5.5 393,-5.5 393,-35.5"/>
<text text-anchor="start" x="308" y="-23.5" font-family="Helvetica,sans-Serif" font-size="10.00">test/test_hmi/test</text>
<text text-anchor="middle" x="346.5" y="-12.5" font-family="Helvetica,sans-Serif" font-size="10.00">_hmi.cpp</text>
</a>
</g>
</g>
<!-- Node2&#45;&gt;Node7 -->
<g id="edge10" class="edge">
<title>Node2&#45;&gt;Node7</title>
<path fill="none" stroke="#63b8ff" d="M241.87,-147.53C230.89,-139.65 220.8,-129.86 214.5,-118 205.96,-101.9 204.42,-92.18 214.5,-77 219.95,-68.79 269.25,-49.47 306.02,-35.95"/>
<polygon fill="#63b8ff" stroke="#63b8ff" points="239.7,-150.3 249.97,-152.87 243.55,-144.45 239.7,-150.3"/>
</g>
<!-- Node8 -->
<g id="node8" class="node">
<title>Node8</title>
<g id="a_node8"><a xlink:href="Keypad_8hpp.xhtml" target="_top" xlink:title=" ">
<polygon fill="white" stroke="#666666" points="167,-118 50,-118 50,-77 167,-77 167,-118"/>
<text text-anchor="start" x="58" y="-106" font-family="Helvetica,sans-Serif" font-size="10.00">lib/board_adapters</text>
<text text-anchor="start" x="58" y="-95" font-family="Helvetica,sans-Serif" font-size="10.00">/input_device_interface</text>
<text text-anchor="middle" x="108.5" y="-84" font-family="Helvetica,sans-Serif" font-size="10.00">/Keypad.hpp</text>
</a>
</g>
</g>
<!-- Node2&#45;&gt;Node8 -->
<g id="edge7" class="edge">
<title>Node2&#45;&gt;Node8</title>
<path fill="none" stroke="#63b8ff" d="M236.14,-149.42C211.13,-139.44 182.45,-128 158.62,-118.49"/>
<polygon fill="#63b8ff" stroke="#63b8ff" points="234.62,-152.58 245.21,-153.04 237.22,-146.08 234.62,-152.58"/>
</g>
<!-- Node5 -->
<g id="node5" class="node">
<title>Node5</title>
<g id="a_node5"><a xlink:href="keypad__factory__interface_8cpp.xhtml" target="_top" xlink:title=" ">
<polygon fill="white" stroke="#666666" points="281.5,-41 135.5,-41 135.5,0 281.5,0 281.5,-41"/>
<text text-anchor="start" x="143.5" y="-29" font-family="Helvetica,sans-Serif" font-size="10.00">lib/board_adapters</text>
<text text-anchor="start" x="143.5" y="-18" font-family="Helvetica,sans-Serif" font-size="10.00">/input_device_interface</text>
<text text-anchor="middle" x="208.5" y="-7" font-family="Helvetica,sans-Serif" font-size="10.00">/keypad_factory_interface.cpp</text>
</a>
</g>
</g>
<!-- Node4&#45;&gt;Node5 -->
<g id="edge4" class="edge">
<title>Node4&#45;&gt;Node5</title>
<path fill="none" stroke="#63b8ff" d="M264.9,-69.57C253.97,-60.25 241.92,-49.98 231.77,-41.33"/>
<polygon fill="#63b8ff" stroke="#63b8ff" points="262.35,-71.99 272.23,-75.81 266.89,-66.66 262.35,-71.99"/>
</g>
<!-- Node6 -->
<g id="node6" class="node">
<title>Node6</title>
<g id="a_node6"><a xlink:href="main_8cpp.xhtml" target="_top" xlink:title=" ">
<polygon fill="white" stroke="#666666" points="546.5,-30 474.5,-30 474.5,-11 546.5,-11 546.5,-30"/>
<text text-anchor="middle" x="510.5" y="-18" font-family="Helvetica,sans-Serif" font-size="10.00">src/main.cpp</text>
</a>
</g>
</g>
<!-- Node4&#45;&gt;Node6 -->
<g id="edge5" class="edge">
<title>Node4&#45;&gt;Node6</title>
<path fill="none" stroke="#63b8ff" d="M364.06,-72.82C405.12,-58.43 455.19,-40.88 484.87,-30.48"/>
<polygon fill="#63b8ff" stroke="#63b8ff" points="362.99,-69.49 354.71,-76.1 365.31,-76.09 362.99,-69.49"/>
</g>
<!-- Node4&#45;&gt;Node7 -->
<g id="edge6" class="edge">
<title>Node4&#45;&gt;Node7</title>
<path fill="none" stroke="#63b8ff" d="M315.98,-67.27C323.17,-56.49 331,-44.75 336.93,-35.86"/>
<polygon fill="#63b8ff" stroke="#63b8ff" points="313.11,-65.27 310.48,-75.54 318.94,-69.16 313.11,-65.27"/>
</g>
<!-- Node8&#45;&gt;Node5 -->
<g id="edge9" class="edge">
<title>Node8&#45;&gt;Node5</title>
<path fill="none" stroke="#63b8ff" d="M144.21,-69.71C156.62,-60.41 170.3,-50.15 181.84,-41.49"/>
<polygon fill="#63b8ff" stroke="#63b8ff" points="142.15,-66.89 136.25,-75.69 146.35,-72.49 142.15,-66.89"/>
</g>
<!-- Node9 -->
<g id="node9" class="node">
<title>Node9</title>
<g id="a_node9"><a xlink:href="Keypad_8cpp.xhtml" target="_top" xlink:title=" ">
<polygon fill="white" stroke="#666666" points="117,-41 0,-41 0,0 117,0 117,-41"/>
<text text-anchor="start" x="8" y="-29" font-family="Helvetica,sans-Serif" font-size="10.00">lib/board_adapters</text>
<text text-anchor="start" x="8" y="-18" font-family="Helvetica,sans-Serif" font-size="10.00">/input_device_interface</text>
<text text-anchor="middle" x="58.5" y="-7" font-family="Helvetica,sans-Serif" font-size="10.00">/Keypad.cpp</text>
</a>
</g>
</g>
<!-- Node8&#45;&gt;Node9 -->
<g id="edge8" class="edge">
<title>Node8&#45;&gt;Node9</title>
<path fill="none" stroke="#63b8ff" d="M89.06,-67.34C83.26,-58.63 77.03,-49.3 71.72,-41.33"/>
<polygon fill="#63b8ff" stroke="#63b8ff" points="86.06,-69.16 94.52,-75.54 91.89,-65.27 86.06,-69.16"/>
</g>
<!-- Node11&#45;&gt;Node3 -->
<g id="edge13" class="edge">
<title>Node11&#45;&gt;Node3</title>
<path fill="none" stroke="#63b8ff" d="M499.76,-146.29C489.65,-137.05 478.54,-126.89 469.19,-118.33"/>
<polygon fill="#63b8ff" stroke="#63b8ff" points="497.1,-148.61 506.84,-152.77 501.82,-143.44 497.1,-148.61"/>
</g>
<!-- Node11&#45;&gt;Node6 -->
<g id="edge14" class="edge">
<title>Node11&#45;&gt;Node6</title>
<path fill="none" stroke="#63b8ff" d="M543.68,-143.06C550.7,-123.86 556.36,-98.68 549.5,-77 543.61,-58.36 528.96,-40.56 519.39,-30.34"/>
<polygon fill="#63b8ff" stroke="#63b8ff" points="540.49,-141.62 540.03,-152.2 546.99,-144.21 540.49,-141.62"/>
</g>
<!-- Node11&#45;&gt;Node7 -->
<g id="edge15" class="edge">
<title>Node11&#45;&gt;Node7</title>
<path fill="none" stroke="#63b8ff" d="M533.28,-142.29C534.04,-121.54 531.42,-94.91 516.5,-77 486.39,-40.86 432.38,-28.06 393.31,-23.63"/>
<polygon fill="#63b8ff" stroke="#63b8ff" points="529.79,-141.99 532.61,-152.2 536.77,-142.46 529.79,-141.99"/>
</g>
<!-- Node12&#45;&gt;Node3 -->
<g id="edge18" class="edge">
<title>Node12&#45;&gt;Node3</title>
<path fill="none" stroke="#63b8ff" d="M598.43,-149.95C568.79,-139.85 534.53,-128.17 506.15,-118.49"/>
<polygon fill="#63b8ff" stroke="#63b8ff" points="597.09,-153.2 607.69,-153.11 599.35,-146.57 597.09,-153.2"/>
</g>
<!-- Node13 -->
<g id="node13" class="node">
<title>Node13</title>
<g id="a_node13"><a xlink:href="Presenter_8cpp.xhtml" target="_top" xlink:title=" ">
<polygon fill="white" stroke="#666666" points="721.5,-118 601.5,-118 601.5,-77 721.5,-77 721.5,-118"/>
<text text-anchor="start" x="609.5" y="-106" font-family="Helvetica,sans-Serif" font-size="10.00">lib/application_business</text>
<text text-anchor="start" x="609.5" y="-95" font-family="Helvetica,sans-Serif" font-size="10.00">_rules/user_interaction</text>
<text text-anchor="middle" x="661.5" y="-84" font-family="Helvetica,sans-Serif" font-size="10.00">/Presenter.cpp</text>
</a>
</g>
</g>
<!-- Node12&#45;&gt;Node13 -->
<g id="edge17" class="edge">
<title>Node12&#45;&gt;Node13</title>
<path fill="none" stroke="#63b8ff" d="M665.01,-142.36C664.36,-134.24 663.68,-125.7 663.09,-118.33"/>
<polygon fill="#63b8ff" stroke="#63b8ff" points="661.52,-142.6 665.8,-152.29 668.49,-142.04 661.52,-142.6"/>
</g>
<!-- Node14 -->
<g id="node14" class="node">
<title>Node14</title>
<g id="a_node14"><a xlink:href="board_8cpp.xhtml" target="_top" xlink:title=" ">
<polygon fill="white" stroke="#666666" points="835.5,-112.5 739.5,-112.5 739.5,-82.5 835.5,-82.5 835.5,-112.5"/>
<text text-anchor="start" x="747.5" y="-100.5" font-family="Helvetica,sans-Serif" font-size="10.00">lib/board_adapters</text>
<text text-anchor="middle" x="787.5" y="-89.5" font-family="Helvetica,sans-Serif" font-size="10.00">/board.cpp</text>
</a>
</g>
</g>
<!-- Node12&#45;&gt;Node14 -->
<g id="edge19" class="edge">
<title>Node12&#45;&gt;Node14</title>
<path fill="none" stroke="#63b8ff" d="M709.09,-147.51C727.71,-135.87 748.97,-122.58 764.64,-112.79"/>
<polygon fill="#63b8ff" stroke="#63b8ff" points="707.25,-144.53 700.63,-152.8 710.96,-150.46 707.25,-144.53"/>
</g>
<!-- Node15 -->
<g id="node15" class="node">
<title>Node15</title>
<g id="a_node15"><a xlink:href="sound__output_8cpp.xhtml" target="_top" xlink:title=" ">
<polygon fill="white" stroke="#666666" points="975,-118 854,-118 854,-77 975,-77 975,-118"/>
<text text-anchor="start" x="862" y="-106" font-family="Helvetica,sans-Serif" font-size="10.00">lib/board_adapters</text>
<text text-anchor="start" x="862" y="-95" font-family="Helvetica,sans-Serif" font-size="10.00">/sound_output_interface</text>
<text text-anchor="middle" x="914.5" y="-84" font-family="Helvetica,sans-Serif" font-size="10.00">/sound_output.cpp</text>
</a>
</g>
</g>
<!-- Node12&#45;&gt;Node15 -->
<g id="edge20" class="edge">
<title>Node12&#45;&gt;Node15</title>
<path fill="none" stroke="#63b8ff" d="M738.49,-151.94C774.97,-140.87 818.97,-127.51 853.84,-116.92"/>
<polygon fill="#63b8ff" stroke="#63b8ff" points="737.92,-148.46 729.37,-154.71 739.96,-155.16 737.92,-148.46"/>
</g>
</g>
</svg>
