<?xml version="1.0" encoding="UTF-8" standalone="no"?>
<!DOCTYPE svg PUBLIC "-//W3C//DTD SVG 1.1//EN"
 "http://www.w3.org/Graphics/SVG/1.1/DTD/svg11.dtd">
<!-- Generated by graphviz version 7.0.5 (20221223.1930)
 -->
<!-- Title: lib/board_adapters/input_device_interface/Keypad.cpp Pages: 1 -->
<svg width="857pt" height="269pt"
 viewBox="0.00 0.00 857.00 269.00" xmlns="http://www.w3.org/2000/svg" xmlns:xlink="http://www.w3.org/1999/xlink">
<g id="graph0" class="graph" transform="scale(1 1) rotate(0) translate(4 265)">
<title>lib/board_adapters/input_device_interface/Keypad.cpp</title>
<!-- Node1 -->
<g id="node1" class="node">
<title>Node1</title>
<g id="a_node1"><a xlink:title=" ">
<polygon fill="#999999" stroke="#666666" points="565,-261 448,-261 448,-220 565,-220 565,-261"/>
<text text-anchor="start" x="456" y="-249" font-family="Helvetica,sans-Serif" font-size="10.00">lib/board_adapters</text>
<text text-anchor="start" x="456" y="-238" font-family="Helvetica,sans-Serif" font-size="10.00">/input_device_interface</text>
<text text-anchor="middle" x="506.5" y="-227" font-family="Helvetica,sans-Serif" font-size="10.00">/Keypad.cpp</text>
</a>
</g>
</g>
<!-- Node2 -->
<g id="node2" class="node">
<title>Node2</title>
<g id="a_node2"><a xlink:href="Keypad_8hpp.xhtml" target="_top" xlink:title=" ">
<polygon fill="white" stroke="#666666" points="115,-184 48,-184 48,-165 115,-165 115,-184"/>
<text text-anchor="middle" x="81.5" y="-172" font-family="Helvetica,sans-Serif" font-size="10.00">Keypad.hpp</text>
</a>
</g>
</g>
<!-- Node1&#45;&gt;Node2 -->
<g id="edge1" class="edge">
<title>Node1&#45;&gt;Node2</title>
<path fill="none" stroke="#63b8ff" d="M447.8,-231.5C373.4,-221.21 241.25,-202.47 128.5,-184 127.84,-183.89 127.17,-183.78 126.49,-183.67"/>
<polygon fill="#63b8ff" stroke="#63b8ff" points="127.3,-180.26 116.86,-182.02 126.12,-187.16 127.3,-180.26"/>
</g>
<!-- Node7 -->
<g id="node7" class="node">
<title>Node7</title>
<g id="a_node7"><a xlink:href="Arduino-wrapper_8h.xhtml" target="_top" xlink:title="Circumvents problematic processor macros defined by Arduino framework.">
<polygon fill="white" stroke="#666666" points="233,-184 138,-184 138,-165 233,-165 233,-184"/>
<text text-anchor="middle" x="185.5" y="-172" font-family="Helvetica,sans-Serif" font-size="10.00">Arduino&#45;wrapper.h</text>
</a>
</g>
</g>
<!-- Node1&#45;&gt;Node7 -->
<g id="edge6" class="edge">
<title>Node1&#45;&gt;Node7</title>
<path fill="none" stroke="#63b8ff" d="M447.62,-227.76C388.91,-216.06 299.38,-198.21 241.65,-186.69"/>
<polygon fill="#63b8ff" stroke="#63b8ff" points="242.52,-183.3 232.03,-184.78 241.15,-190.16 242.52,-183.3"/>
</g>
<!-- Node9 -->
<g id="node9" class="node">
<title>Node9</title>
<g id="a_node9"><a xlink:title=" ">
<polygon fill="#e0e0e0" stroke="#999999" points="307.5,-184 251.5,-184 251.5,-165 307.5,-165 307.5,-184"/>
<text text-anchor="middle" x="279.5" y="-172" font-family="Helvetica,sans-Serif" font-size="10.00">algorithm</text>
</a>
</g>
</g>
<!-- Node1&#45;&gt;Node9 -->
<g id="edge8" class="edge">
<title>Node1&#45;&gt;Node9</title>
<path fill="none" stroke="#63b8ff" d="M447.75,-222.94C407.21,-211.51 354.41,-196.62 318.87,-186.6"/>
<polygon fill="#63b8ff" stroke="#63b8ff" points="320,-183.28 309.43,-183.94 318.1,-190.02 320,-183.28"/>
</g>
<!-- Node10 -->
<g id="node10" class="node">
<title>Node10</title>
<g id="a_node10"><a xlink:title=" ">
<polygon fill="#e0e0e0" stroke="#999999" points="363.5,-184 325.5,-184 325.5,-165 363.5,-165 363.5,-184"/>
<text text-anchor="middle" x="344.5" y="-172" font-family="Helvetica,sans-Serif" font-size="10.00">array</text>
</a>
</g>
</g>
<!-- Node1&#45;&gt;Node10 -->
<g id="edge9" class="edge">
<title>Node1&#45;&gt;Node10</title>
<path fill="none" stroke="#63b8ff" d="M456.13,-219.6C429.31,-209.01 397.24,-196.33 374.37,-187.3"/>
<polygon fill="#63b8ff" stroke="#63b8ff" points="375.93,-184.16 365.35,-183.74 373.36,-190.67 375.93,-184.16"/>
</g>
<!-- Node11 -->
<g id="node11" class="node">
<title>Node11</title>
<g id="a_node11"><a xlink:href="board__pins_8hpp.xhtml" target="_top" xlink:title="Provides named objects for the pins provided by the board.">
<polygon fill="white" stroke="#666666" points="463.5,-184 381.5,-184 381.5,-165 463.5,-165 463.5,-184"/>
<text text-anchor="middle" x="422.5" y="-172" font-family="Helvetica,sans-Serif" font-size="10.00">board_pins.hpp</text>
</a>
</g>
</g>
<!-- Node1&#45;&gt;Node11 -->
<g id="edge10" class="edge">
<title>Node1&#45;&gt;Node11</title>
<path fill="none" stroke="#63b8ff" d="M480.38,-219.6C468.31,-210.41 454.19,-199.65 442.92,-191.06"/>
<polygon fill="#63b8ff" stroke="#63b8ff" points="445.15,-188.36 435.07,-185.08 440.91,-193.92 445.15,-188.36"/>
</g>
<!-- Node14 -->
<g id="node14" class="node">
<title>Node14</title>
<g id="a_node14"><a xlink:title=" ">
<polygon fill="#e0e0e0" stroke="#999999" points="531,-184 482,-184 482,-165 531,-165 531,-184"/>
<text text-anchor="middle" x="506.5" y="-172" font-family="Helvetica,sans-Serif" font-size="10.00">cstddef</text>
</a>
</g>
</g>
<!-- Node1&#45;&gt;Node14 -->
<g id="edge13" class="edge">
<title>Node1&#45;&gt;Node14</title>
<path fill="none" stroke="#63b8ff" d="M506.5,-219.6C506.5,-211.98 506.5,-203.3 506.5,-195.66"/>
<polygon fill="#63b8ff" stroke="#63b8ff" points="510,-195.68 506.5,-185.68 503,-195.68 510,-195.68"/>
</g>
<!-- Node15 -->
<g id="node15" class="node">
<title>Node15</title>
<g id="a_node15"><a xlink:title=" ">
<polygon fill="#e0e0e0" stroke="#999999" points="596,-184 549,-184 549,-165 596,-165 596,-184"/>
<text text-anchor="middle" x="572.5" y="-172" font-family="Helvetica,sans-Serif" font-size="10.00">iterator</text>
</a>
</g>
</g>
<!-- Node1&#45;&gt;Node15 -->
<g id="edge14" class="edge">
<title>Node1&#45;&gt;Node15</title>
<path fill="none" stroke="#63b8ff" d="M527.02,-219.6C536.12,-210.78 546.7,-200.51 555.37,-192.11"/>
<polygon fill="#63b8ff" stroke="#63b8ff" points="557.74,-194.69 562.48,-185.22 552.86,-189.66 557.74,-194.69"/>
</g>
<!-- Node16 -->
<g id="node16" class="node">
<title>Node16</title>
<g id="a_node16"><a xlink:title=" ">
<polygon fill="#e0e0e0" stroke="#999999" points="649,-184 614,-184 614,-165 649,-165 649,-184"/>
<text text-anchor="middle" x="631.5" y="-172" font-family="Helvetica,sans-Serif" font-size="10.00">map</text>
</a>
</g>
</g>
<!-- Node1&#45;&gt;Node16 -->
<g id="edge15" class="edge">
<title>Node1&#45;&gt;Node16</title>
<path fill="none" stroke="#63b8ff" d="M545.37,-219.6C564.48,-209.82 587.04,-198.26 604.28,-189.43"/>
<polygon fill="#63b8ff" stroke="#63b8ff" points="605.6,-192.69 612.91,-185.02 602.41,-186.46 605.6,-192.69"/>
</g>
<!-- Node17 -->
<g id="node17" class="node">
<title>Node17</title>
<g id="a_node17"><a xlink:title=" ">
<polygon fill="#e0e0e0" stroke="#999999" points="711.5,-184 667.5,-184 667.5,-165 711.5,-165 711.5,-184"/>
<text text-anchor="middle" x="689.5" y="-172" font-family="Helvetica,sans-Serif" font-size="10.00">thread</text>
</a>
</g>
</g>
<!-- Node1&#45;&gt;Node17 -->
<g id="edge16" class="edge">
<title>Node1&#45;&gt;Node17</title>
<path fill="none" stroke="#63b8ff" d="M563.65,-219.51C594.16,-208.84 630.63,-196.09 656.44,-187.06"/>
<polygon fill="#63b8ff" stroke="#63b8ff" points="657.43,-190.42 665.72,-183.82 655.12,-183.82 657.43,-190.42"/>
</g>
<!-- Node18 -->
<g id="node18" class="node">
<title>Node18</title>
<g id="a_node18"><a xlink:title=" ">
<polygon fill="#e0e0e0" stroke="#999999" points="791.5,-184 729.5,-184 729.5,-165 791.5,-165 791.5,-184"/>
<text text-anchor="middle" x="760.5" y="-172" font-family="Helvetica,sans-Serif" font-size="10.00">type_traits</text>
</a>
</g>
</g>
<!-- Node1&#45;&gt;Node18 -->
<g id="edge17" class="edge">
<title>Node1&#45;&gt;Node18</title>
<path fill="none" stroke="#63b8ff" d="M565.41,-224.66C612.16,-212.88 676.39,-196.69 718.17,-186.17"/>
<polygon fill="#63b8ff" stroke="#63b8ff" points="719.01,-189.56 727.86,-183.73 717.3,-182.77 719.01,-189.56"/>
</g>
<!-- Node19 -->
<g id="node19" class="node">
<title>Node19</title>
<g id="a_node19"><a xlink:title=" ">
<polygon fill="#e0e0e0" stroke="#999999" points="849,-184 810,-184 810,-165 849,-165 849,-184"/>
<text text-anchor="middle" x="829.5" y="-172" font-family="Helvetica,sans-Serif" font-size="10.00">utility</text>
</a>
</g>
</g>
<!-- Node1&#45;&gt;Node19 -->
<g id="edge18" class="edge">
<title>Node1&#45;&gt;Node19</title>
<path fill="none" stroke="#63b8ff" d="M565.43,-230.13C622.6,-220.65 711.99,-204.79 798.52,-184.27"/>
<polygon fill="#63b8ff" stroke="#63b8ff" points="799.22,-187.7 808.13,-181.97 797.59,-180.89 799.22,-187.7"/>
</g>
<!-- Node3 -->
<g id="node3" class="node">
<title>Node3</title>
<g id="a_node3"><a xlink:href="IKeypad_8hpp.xhtml" target="_top" xlink:title=" ">
<polygon fill="white" stroke="#666666" points="143.5,-129 1.5,-129 1.5,-110 143.5,-110 143.5,-129"/>
<text text-anchor="middle" x="72.5" y="-117" font-family="Helvetica,sans-Serif" font-size="10.00">user_interaction/IKeypad.hpp</text>
</a>
</g>
</g>
<!-- Node2&#45;&gt;Node3 -->
<g id="edge2" class="edge">
<title>Node2&#45;&gt;Node3</title>
<path fill="none" stroke="#63b8ff" d="M80.01,-164.75C78.9,-158.19 77.33,-148.95 75.91,-140.6"/>
<polygon fill="#63b8ff" stroke="#63b8ff" points="79.4,-140.21 74.27,-130.93 72.5,-141.38 79.4,-140.21"/>
</g>
<!-- Node4 -->
<g id="node4" class="node">
<title>Node4</title>
<g id="a_node4"><a xlink:href="KeyIds_8hpp.xhtml" target="_top" xlink:title=" ">
<polygon fill="white" stroke="#666666" points="65,-74 0,-74 0,-55 65,-55 65,-74"/>
<text text-anchor="middle" x="32.5" y="-62" font-family="Helvetica,sans-Serif" font-size="10.00">KeyIds.hpp</text>
</a>
</g>
</g>
<!-- Node3&#45;&gt;Node4 -->
<g id="edge3" class="edge">
<title>Node3&#45;&gt;Node4</title>
<path fill="none" stroke="#63b8ff" d="M65.89,-109.75C60.54,-102.66 52.82,-92.42 46.15,-83.59"/>
<polygon fill="#63b8ff" stroke="#63b8ff" points="48.98,-81.52 40.16,-75.65 43.39,-85.74 48.98,-81.52"/>
</g>
<!-- Node6 -->
<g id="node6" class="node">
<title>Node6</title>
<g id="a_node6"><a xlink:title=" ">
<polygon fill="#e0e0e0" stroke="#999999" points="142,-74 83,-74 83,-55 142,-55 142,-74"/>
<text text-anchor="middle" x="112.5" y="-62" font-family="Helvetica,sans-Serif" font-size="10.00">functional</text>
</a>
</g>
</g>
<!-- Node3&#45;&gt;Node6 -->
<g id="edge5" class="edge">
<title>Node3&#45;&gt;Node6</title>
<path fill="none" stroke="#63b8ff" d="M79.11,-109.75C84.46,-102.66 92.18,-92.42 98.85,-83.59"/>
<polygon fill="#63b8ff" stroke="#63b8ff" points="101.61,-85.74 104.84,-75.65 96.02,-81.52 101.61,-85.74"/>
</g>
<!-- Node5 -->
<g id="node5" class="node">
<title>Node5</title>
<g id="a_node5"><a xlink:title=" ">
<polygon fill="#e0e0e0" stroke="#999999" points="58.5,-19 6.5,-19 6.5,0 58.5,0 58.5,-19"/>
<text text-anchor="middle" x="32.5" y="-7" font-family="Helvetica,sans-Serif" font-size="10.00">ostream</text>
</a>
</g>
</g>
<!-- Node4&#45;&gt;Node5 -->
<g id="edge4" class="edge">
<title>Node4&#45;&gt;Node5</title>
<path fill="none" stroke="#63b8ff" d="M32.5,-54.75C32.5,-48.27 32.5,-39.16 32.5,-30.9"/>
<polygon fill="#63b8ff" stroke="#63b8ff" points="36,-30.96 32.5,-20.96 29,-30.96 36,-30.96"/>
</g>
<!-- Node8 -->
<g id="node8" class="node">
<title>Node8</title>
<g id="a_node8"><a xlink:title=" ">
<polygon fill="#e0e0e0" stroke="#999999" points="219,-129 162,-129 162,-110 219,-110 219,-129"/>
<text text-anchor="middle" x="190.5" y="-117" font-family="Helvetica,sans-Serif" font-size="10.00">Arduino.h</text>
</a>
</g>
</g>
<!-- Node7&#45;&gt;Node8 -->
<g id="edge7" class="edge">
<title>Node7&#45;&gt;Node8</title>
<path fill="none" stroke="#63b8ff" d="M186.33,-164.75C186.94,-158.27 187.8,-149.16 188.58,-140.9"/>
<polygon fill="#63b8ff" stroke="#63b8ff" points="192.06,-141.23 189.51,-130.95 185.09,-140.58 192.06,-141.23"/>
</g>
<!-- Node12 -->
<g id="node12" class="node">
<title>Node12</title>
<g id="a_node12"><a xlink:href="board__types_8hpp.xhtml" target="_top" xlink:title=" ">
<polygon fill="white" stroke="#666666" points="466,-129 379,-129 379,-110 466,-110 466,-129"/>
<text text-anchor="middle" x="422.5" y="-117" font-family="Helvetica,sans-Serif" font-size="10.00">board_types.hpp</text>
</a>
</g>
</g>
<!-- Node11&#45;&gt;Node12 -->
<g id="edge11" class="edge">
<title>Node11&#45;&gt;Node12</title>
<path fill="none" stroke="#63b8ff" d="M422.5,-164.75C422.5,-158.27 422.5,-149.16 422.5,-140.9"/>
<polygon fill="#63b8ff" stroke="#63b8ff" points="426,-140.96 422.5,-130.96 419,-140.96 426,-140.96"/>
</g>
<!-- Node13 -->
<g id="node13" class="node">
<title>Node13</title>
<g id="a_node13"><a xlink:title=" ">
<polygon fill="#e0e0e0" stroke="#999999" points="445.5,-74 399.5,-74 399.5,-55 445.5,-55 445.5,-74"/>
<text text-anchor="middle" x="422.5" y="-62" font-family="Helvetica,sans-Serif" font-size="10.00">cstdint</text>
</a>
</g>
</g>
<!-- Node12&#45;&gt;Node13 -->
<g id="edge12" class="edge">
<title>Node12&#45;&gt;Node13</title>
<path fill="none" stroke="#63b8ff" d="M422.5,-109.75C422.5,-103.27 422.5,-94.16 422.5,-85.9"/>
<polygon fill="#63b8ff" stroke="#63b8ff" points="426,-85.96 422.5,-75.96 419,-85.96 426,-85.96"/>
</g>
</g>
</svg>
