<?xml version="1.0" encoding="UTF-8" standalone="no"?>
<!DOCTYPE svg PUBLIC "-//W3C//DTD SVG 1.1//EN"
 "http://www.w3.org/Graphics/SVG/1.1/DTD/svg11.dtd">
<!-- Generated by graphviz version 7.0.5 (20221223.1930)
 -->
<!-- Title: IStatusIndicator Pages: 1 -->
<svg width="126pt" height="170pt"
 viewBox="0.00 0.00 126.00 170.00" xmlns="http://www.w3.org/2000/svg" xmlns:xlink="http://www.w3.org/1999/xlink">
<g id="graph0" class="graph" transform="scale(1 1) rotate(0) translate(4 166)">
<title>IStatusIndicator</title>
<!-- Node1 -->
<g id="node1" class="node">
<title>Node1</title>
<g id="a_node1"><a xlink:title="Interface to an indicator capable to visualize a state.">
<polygon fill="#999999" stroke="#666666" points="111.5,-162 6.5,-162 6.5,-99 111.5,-99 111.5,-162"/>
<text text-anchor="middle" x="59" y="-150" font-family="Helvetica,sans-Serif" font-size="10.00">{IStatusIndicator</text>
<text text-anchor="start" x="14.5" y="-139" font-family="Helvetica,sans-Serif" font-size="10.00">||+ on()</text>
<text text-anchor="start" x="14.5" y="-128" font-family="Helvetica,sans-Serif" font-size="10.00">+ off()</text>
<text text-anchor="start" x="14.5" y="-117" font-family="Helvetica,sans-Serif" font-size="10.00">+ ~IStatusIndicator()</text>
<text text-anchor="middle" x="59" y="-106" font-family="Helvetica,sans-Serif" font-size="10.00">}</text>
</a>
</g>
</g>
<!-- Node2 -->
<g id="node2" class="node">
<title>Node2</title>
<g id="a_node2"><a xlink:href="classLedStatusIndicator.xhtml" target="_top" xlink:title=" ">
<polygon fill="white" stroke="#666666" points="118,-63 0,-63 0,0 118,0 118,-63"/>
<text text-anchor="middle" x="59" y="-51" font-family="Helvetica,sans-Serif" font-size="10.00">{LedStatusIndicator</text>
<text text-anchor="start" x="8" y="-40" font-family="Helvetica,sans-Serif" font-size="10.00">||+ LedStatusIndicator()</text>
<text text-anchor="start" x="8" y="-29" font-family="Helvetica,sans-Serif" font-size="10.00">+ off()</text>
<text text-anchor="start" x="8" y="-18" font-family="Helvetica,sans-Serif" font-size="10.00">+ on()</text>
<text text-anchor="middle" x="59" y="-7" font-family="Helvetica,sans-Serif" font-size="10.00">}</text>
</a>
</g>
</g>
<!-- Node1&#45;&gt;Node2 -->
<g id="edge1" class="edge">
<title>Node1&#45;&gt;Node2</title>
<path fill="none" stroke="#63b8ff" d="M59,-87.15C59,-79.2 59,-71.02 59,-63.5"/>
<polygon fill="none" stroke="#63b8ff" points="55.5,-87.03 59,-97.03 62.5,-87.03 55.5,-87.03"/>
</g>
</g>
</svg>
