<?xml version="1.0" encoding="UTF-8" standalone="no"?>
<!DOCTYPE svg PUBLIC "-//W3C//DTD SVG 1.1//EN"
 "http://www.w3.org/Graphics/SVG/1.1/DTD/svg11.dtd">
<!-- Generated by graphviz version 7.0.5 (20221223.1930)
 -->
<!-- Title: lib/application_business_rules Pages: 1 -->
<svg width="268pt" height="207pt"
 viewBox="0.00 0.00 268.00 207.00" xmlns="http://www.w3.org/2000/svg" xmlns:xlink="http://www.w3.org/1999/xlink">
<g id="graph0" class="graph" transform="scale(1 1) rotate(0) translate(4 203)">
<title>lib/application_business_rules</title>
<g id="clust1" class="cluster">
<title>clusterdir_97aefd0d527b934f1d99a682da8fe6a9</title>
<g id="a_clust1"><a xlink:href="dir_97aefd0d527b934f1d99a682da8fe6a9.xhtml" target="_top" xlink:title="lib">
<polygon fill="#edf0f7" stroke="#404040" stroke-dasharray="5,2" points="8,-8 8,-191 252,-191 252,-8 8,-8"/>
<text text-anchor="middle" x="130" y="-179" font-family="Helvetica,sans-Serif" font-size="10.00">lib</text>
</a>
</g>
</g>
<g id="clust2" class="cluster">
<title>clusterdir_6dbb42d2342d9d7292a192bc1d024acc</title>
<g id="a_clust2"><a xlink:href="dir_6dbb42d2342d9d7292a192bc1d024acc.xhtml" target="_top" xlink:title="Package Application Business Rules.">
<polygon fill="#edf0f7" stroke="#404040" stroke-width="2" points="16,-63 16,-164 244,-164 244,-63 16,-63"/>
</a>
</g>
</g>
<!-- dir_3a2f33b0f26bc6229d595c2c354e6333 -->
<g id="node1" class="node">
<title>dir_3a2f33b0f26bc6229d595c2c354e6333</title>
<g id="a_node1"><a xlink:href="dir_3a2f33b0f26bc6229d595c2c354e6333.xhtml" target="_top" xlink:title="Package Utilities.">
<polygon fill="#c8d2e7" stroke="#404040" points="149.5,-35 102.5,-35 102.5,-16 149.5,-16 149.5,-35"/>
<text text-anchor="middle" x="126" y="-23" font-family="Helvetica,sans-Serif" font-size="10.00">utilities</text>
</a>
</g>
</g>
<!-- dir_6dbb42d2342d9d7292a192bc1d024acc -->
<g id="node2" class="node">
<title>dir_6dbb42d2342d9d7292a192bc1d024acc</title>
<text text-anchor="start" x="136.5" y="-144" font-family="Helvetica,sans-Serif" font-size="10.00">application_business</text>
<text text-anchor="middle" x="182" y="-133" font-family="Helvetica,sans-Serif" font-size="10.00">_rules</text>
</g>
<!-- dir_17a6007a5c84c34f300c622be50c188b -->
<g id="node3" class="node">
<title>dir_17a6007a5c84c34f300c622be50c188b</title>
<g id="a_node3"><a xlink:href="dir_17a6007a5c84c34f300c622be50c188b.xhtml" target="_top" xlink:title="serial_interface">
<polygon fill="#c8d2e7" stroke="#404040" points="107.5,-90 24.5,-90 24.5,-71 107.5,-71 107.5,-90"/>
<text text-anchor="middle" x="66" y="-78" font-family="Helvetica,sans-Serif" font-size="10.00">serial_interface</text>
</a>
</g>
</g>
<!-- dir_17a6007a5c84c34f300c622be50c188b&#45;&gt;dir_3a2f33b0f26bc6229d595c2c354e6333 -->
<g id="edge1" class="edge">
<title>dir_17a6007a5c84c34f300c622be50c188b&#45;&gt;dir_3a2f33b0f26bc6229d595c2c354e6333</title>
<path fill="none" stroke="#63b8ff" d="M76.18,-70.51C84.76,-62.93 97.27,-51.88 107.6,-42.75"/>
<polygon fill="#63b8ff" stroke="#63b8ff" points="109.66,-45.6 114.84,-36.36 105.03,-40.36 109.66,-45.6"/>
<g id="a_edge1&#45;headlabel"><a xlink:href="dir_000011_000022.xhtml" target="_top" xlink:title="1">
<text text-anchor="middle" x="109.98" y="-46.61" font-family="Helvetica,sans-Serif" font-size="10.00" fill="#63b8ff">1</text>
</a>
</g>
</g>
<!-- dir_dab382b21b73aae3d74d7668eeeacf78 -->
<g id="node4" class="node">
<title>dir_dab382b21b73aae3d74d7668eeeacf78</title>
<g id="a_node4"><a xlink:href="dir_dab382b21b73aae3d74d7668eeeacf78.xhtml" target="_top" xlink:title="tasks">
<polygon fill="#c8d2e7" stroke="#404040" points="166.5,-90 125.5,-90 125.5,-71 166.5,-71 166.5,-90"/>
<text text-anchor="middle" x="146" y="-78" font-family="Helvetica,sans-Serif" font-size="10.00">tasks</text>
</a>
</g>
</g>
<!-- dir_6c970bd3e9ed525c032ca1b33f237f5b -->
<g id="node5" class="node">
<title>dir_6c970bd3e9ed525c032ca1b33f237f5b</title>
<g id="a_node5"><a xlink:href="dir_6c970bd3e9ed525c032ca1b33f237f5b.xhtml" target="_top" xlink:title="user_interaction">
<polygon fill="#c8d2e7" stroke="#404040" points="110,-150.5 24,-150.5 24,-131.5 110,-131.5 110,-150.5"/>
<text text-anchor="middle" x="67" y="-138.5" font-family="Helvetica,sans-Serif" font-size="10.00">user_interaction</text>
</a>
</g>
</g>
<!-- dir_6c970bd3e9ed525c032ca1b33f237f5b&#45;&gt;dir_3a2f33b0f26bc6229d595c2c354e6333 -->
<g id="edge3" class="edge">
<title>dir_6c970bd3e9ed525c032ca1b33f237f5b&#45;&gt;dir_3a2f33b0f26bc6229d595c2c354e6333</title>
<path fill="none" stroke="#63b8ff" d="M95.01,-131.02C124.13,-121.05 166.73,-104.46 176,-90 182.48,-79.9 181.44,-73.7 176,-63 171.54,-54.21 163.85,-47.04 155.83,-41.45"/>
<polygon fill="#63b8ff" stroke="#63b8ff" points="157.7,-38.49 147.36,-36.21 154.02,-44.44 157.7,-38.49"/>
<g id="a_edge3&#45;headlabel"><a xlink:href="dir_000021_000022.xhtml" target="_top" xlink:title="2">
<text text-anchor="middle" x="160.97" y="-34.67" font-family="Helvetica,sans-Serif" font-size="10.00" fill="#63b8ff">2</text>
</a>
</g>
</g>
<!-- dir_6c970bd3e9ed525c032ca1b33f237f5b&#45;&gt;dir_17a6007a5c84c34f300c622be50c188b -->
<g id="edge2" class="edge">
<title>dir_6c970bd3e9ed525c032ca1b33f237f5b&#45;&gt;dir_17a6007a5c84c34f300c622be50c188b</title>
<path fill="none" stroke="#63b8ff" d="M66.85,-131.37C66.72,-123.5 66.51,-111.6 66.34,-101.39"/>
<polygon fill="#63b8ff" stroke="#63b8ff" points="69.84,-101.62 66.17,-91.68 62.85,-101.74 69.84,-101.62"/>
<g id="a_edge2&#45;headlabel"><a xlink:href="dir_000021_000011.xhtml" target="_top" xlink:title="1">
<text text-anchor="middle" x="72.72" y="-101.15" font-family="Helvetica,sans-Serif" font-size="10.00" fill="#63b8ff">1</text>
</a>
</g>
</g>
<!-- dir_6c970bd3e9ed525c032ca1b33f237f5b&#45;&gt;dir_dab382b21b73aae3d74d7668eeeacf78 -->
<g id="edge4" class="edge">
<title>dir_6c970bd3e9ed525c032ca1b33f237f5b&#45;&gt;dir_dab382b21b73aae3d74d7668eeeacf78</title>
<path fill="none" stroke="#63b8ff" d="M79,-131.12C91.18,-122.1 110.29,-107.95 124.98,-97.06"/>
<polygon fill="#63b8ff" stroke="#63b8ff" points="126.72,-100.13 132.67,-91.37 122.55,-94.51 126.72,-100.13"/>
<g id="a_edge4&#45;headlabel"><a xlink:href="dir_000021_000015.xhtml" target="_top" xlink:title="1">
<text text-anchor="middle" x="126.74" y="-101.15" font-family="Helvetica,sans-Serif" font-size="10.00" fill="#63b8ff">1</text>
</a>
</g>
</g>
</g>
</svg>
