<?xml version="1.0" encoding="UTF-8" standalone="no"?>
<!DOCTYPE svg PUBLIC "-//W3C//DTD SVG 1.1//EN"
 "http://www.w3.org/Graphics/SVG/1.1/DTD/svg11.dtd">
<!-- Generated by graphviz version 7.0.5 (20221223.1930)
 -->
<!-- Title: lib/application_business_rules/user_interaction/IDisplay.hpp Pages: 1 -->
<svg width="710pt" height="280pt"
 viewBox="0.00 0.00 709.50 280.00" xmlns="http://www.w3.org/2000/svg" xmlns:xlink="http://www.w3.org/1999/xlink">
<g id="graph0" class="graph" transform="scale(1 1) rotate(0) translate(4 276)">
<title>lib/application_business_rules/user_interaction/IDisplay.hpp</title>
<!-- Node1 -->
<g id="node1" class="node">
<title>Node1</title>
<g id="a_node1"><a xlink:title=" ">
<polygon fill="#999999" stroke="#666666" points="332,-272 212,-272 212,-231 332,-231 332,-272"/>
<text text-anchor="start" x="220" y="-260" font-family="Helvetica,sans-Serif" font-size="10.00">lib/application_business</text>
<text text-anchor="start" x="220" y="-249" font-family="Helvetica,sans-Serif" font-size="10.00">_rules/user_interaction</text>
<text text-anchor="middle" x="272" y="-238" font-family="Helvetica,sans-Serif" font-size="10.00">/IDisplay.hpp</text>
</a>
</g>
</g>
<!-- Node2 -->
<g id="node2" class="node">
<title>Node2</title>
<g id="a_node2"><a xlink:href="Display_8hpp.xhtml" target="_top" xlink:title=" ">
<polygon fill="white" stroke="#666666" points="181,-189.5 69,-189.5 69,-159.5 181,-159.5 181,-189.5"/>
<text text-anchor="start" x="77" y="-177.5" font-family="Helvetica,sans-Serif" font-size="10.00">lib/3rd_party_adapters</text>
<text text-anchor="middle" x="125" y="-166.5" font-family="Helvetica,sans-Serif" font-size="10.00">/LVGL/Display.hpp</text>
</a>
</g>
</g>
<!-- Node1&#45;&gt;Node2 -->
<g id="edge1" class="edge">
<title>Node1&#45;&gt;Node2</title>
<path fill="none" stroke="#63b8ff" d="M222.94,-225.47C199.68,-213.6 172.74,-199.85 153,-189.79"/>
<polygon fill="#63b8ff" stroke="#63b8ff" points="221.15,-228.48 231.64,-229.91 224.33,-222.25 221.15,-228.48"/>
</g>
<!-- Node5 -->
<g id="node5" class="node">
<title>Node5</title>
<g id="a_node5"><a xlink:href="Menu_8hpp.xhtml" target="_top" xlink:title=" ">
<polygon fill="white" stroke="#666666" points="483,-195 363,-195 363,-154 483,-154 483,-195"/>
<text text-anchor="start" x="371" y="-183" font-family="Helvetica,sans-Serif" font-size="10.00">lib/application_business</text>
<text text-anchor="start" x="371" y="-172" font-family="Helvetica,sans-Serif" font-size="10.00">_rules/user_interaction</text>
<text text-anchor="middle" x="423" y="-161" font-family="Helvetica,sans-Serif" font-size="10.00">/Menu.hpp</text>
</a>
</g>
</g>
<!-- Node1&#45;&gt;Node5 -->
<g id="edge4" class="edge">
<title>Node1&#45;&gt;Node5</title>
<path fill="none" stroke="#63b8ff" d="M322.37,-225.48C342.01,-215.73 364.2,-204.7 382.74,-195.49"/>
<polygon fill="#63b8ff" stroke="#63b8ff" points="320.82,-222.34 313.42,-229.92 323.94,-228.61 320.82,-222.34"/>
</g>
<!-- Node12 -->
<g id="node12" class="node">
<title>Node12</title>
<g id="a_node12"><a xlink:href="display__factory__interface_8hpp.xhtml" target="_top" xlink:title="Dependency injection for the display.">
<polygon fill="white" stroke="#666666" points="344.5,-195 199.5,-195 199.5,-154 344.5,-154 344.5,-195"/>
<text text-anchor="start" x="207.5" y="-183" font-family="Helvetica,sans-Serif" font-size="10.00">lib/application_business</text>
<text text-anchor="start" x="207.5" y="-172" font-family="Helvetica,sans-Serif" font-size="10.00">_rules/user_interaction</text>
<text text-anchor="middle" x="272" y="-161" font-family="Helvetica,sans-Serif" font-size="10.00">/display_factory_interface.hpp</text>
</a>
</g>
</g>
<!-- Node1&#45;&gt;Node12 -->
<g id="edge13" class="edge">
<title>Node1&#45;&gt;Node12</title>
<path fill="none" stroke="#63b8ff" d="M272,-219.36C272,-211.24 272,-202.7 272,-195.33"/>
<polygon fill="#63b8ff" stroke="#63b8ff" points="268.5,-219.28 272,-229.28 275.5,-219.28 268.5,-219.28"/>
</g>
<!-- Node3 -->
<g id="node3" class="node">
<title>Node3</title>
<g id="a_node3"><a xlink:href="Display_8cpp.xhtml" target="_top" xlink:title=" ">
<polygon fill="white" stroke="#666666" points="112,-112.5 0,-112.5 0,-82.5 112,-82.5 112,-112.5"/>
<text text-anchor="start" x="8" y="-100.5" font-family="Helvetica,sans-Serif" font-size="10.00">lib/3rd_party_adapters</text>
<text text-anchor="middle" x="56" y="-89.5" font-family="Helvetica,sans-Serif" font-size="10.00">/LVGL/Display.cpp</text>
</a>
</g>
</g>
<!-- Node2&#45;&gt;Node3 -->
<g id="edge2" class="edge">
<title>Node2&#45;&gt;Node3</title>
<path fill="none" stroke="#63b8ff" d="M103.96,-150.63C92.66,-138.35 79.08,-123.59 69.26,-112.92"/>
<polygon fill="#63b8ff" stroke="#63b8ff" points="101.32,-152.94 110.67,-157.93 106.48,-148.2 101.32,-152.94"/>
</g>
<!-- Node4 -->
<g id="node4" class="node">
<title>Node4</title>
<g id="a_node4"><a xlink:href="display__factory__interface_8cpp.xhtml" target="_top" xlink:title=" ">
<polygon fill="white" stroke="#666666" points="243.5,-118 130.5,-118 130.5,-77 243.5,-77 243.5,-118"/>
<text text-anchor="start" x="138.5" y="-106" font-family="Helvetica,sans-Serif" font-size="10.00">lib/3rd_party_adapters</text>
<text text-anchor="start" x="138.5" y="-95" font-family="Helvetica,sans-Serif" font-size="10.00">/LVGL/display_factory</text>
<text text-anchor="middle" x="187" y="-84" font-family="Helvetica,sans-Serif" font-size="10.00">_interface.cpp</text>
</a>
</g>
</g>
<!-- Node2&#45;&gt;Node4 -->
<g id="edge3" class="edge">
<title>Node2&#45;&gt;Node4</title>
<path fill="none" stroke="#63b8ff" d="M144.25,-150.22C152.7,-139.99 162.53,-128.1 170.63,-118.3"/>
<polygon fill="#63b8ff" stroke="#63b8ff" points="141.59,-147.94 137.92,-157.87 146.99,-152.4 141.59,-147.94"/>
</g>
<!-- Node6 -->
<g id="node6" class="node">
<title>Node6</title>
<g id="a_node6"><a xlink:href="Menu_8cpp.xhtml" target="_top" xlink:title=" ">
<polygon fill="white" stroke="#666666" points="634,-118 514,-118 514,-77 634,-77 634,-118"/>
<text text-anchor="start" x="522" y="-106" font-family="Helvetica,sans-Serif" font-size="10.00">lib/application_business</text>
<text text-anchor="start" x="522" y="-95" font-family="Helvetica,sans-Serif" font-size="10.00">_rules/user_interaction</text>
<text text-anchor="middle" x="574" y="-84" font-family="Helvetica,sans-Serif" font-size="10.00">/Menu.cpp</text>
</a>
</g>
</g>
<!-- Node5&#45;&gt;Node6 -->
<g id="edge5" class="edge">
<title>Node5&#45;&gt;Node6</title>
<path fill="none" stroke="#63b8ff" d="M473.37,-148.48C493.01,-138.73 515.2,-127.7 533.74,-118.49"/>
<polygon fill="#63b8ff" stroke="#63b8ff" points="471.82,-145.34 464.42,-152.92 474.94,-151.61 471.82,-145.34"/>
</g>
<!-- Node7 -->
<g id="node7" class="node">
<title>Node7</title>
<g id="a_node7"><a xlink:href="Presenter_8hpp.xhtml" target="_top" xlink:title=" ">
<polygon fill="white" stroke="#666666" points="458,-118 338,-118 338,-77 458,-77 458,-118"/>
<text text-anchor="start" x="346" y="-106" font-family="Helvetica,sans-Serif" font-size="10.00">lib/application_business</text>
<text text-anchor="start" x="346" y="-95" font-family="Helvetica,sans-Serif" font-size="10.00">_rules/user_interaction</text>
<text text-anchor="middle" x="398" y="-84" font-family="Helvetica,sans-Serif" font-size="10.00">/Presenter.hpp</text>
</a>
</g>
</g>
<!-- Node5&#45;&gt;Node7 -->
<g id="edge6" class="edge">
<title>Node5&#45;&gt;Node7</title>
<path fill="none" stroke="#63b8ff" d="M412.81,-142.93C410.04,-134.63 407.12,-125.87 404.61,-118.33"/>
<polygon fill="#63b8ff" stroke="#63b8ff" points="409.47,-143.98 415.95,-152.36 416.11,-141.77 409.47,-143.98"/>
</g>
<!-- Node10 -->
<g id="node10" class="node">
<title>Node10</title>
<g id="a_node10"><a xlink:href="main_8cpp.xhtml" target="_top" xlink:title=" ">
<polygon fill="white" stroke="#666666" points="314,-30 242,-30 242,-11 314,-11 314,-30"/>
<text text-anchor="middle" x="278" y="-18" font-family="Helvetica,sans-Serif" font-size="10.00">src/main.cpp</text>
</a>
</g>
</g>
<!-- Node5&#45;&gt;Node10 -->
<g id="edge11" class="edge">
<title>Node5&#45;&gt;Node10</title>
<path fill="none" stroke="#63b8ff" d="M368.64,-148.22C354.59,-139.96 340.27,-129.81 329,-118 303.36,-91.13 287.09,-48.84 280.87,-30.49"/>
<polygon fill="#63b8ff" stroke="#63b8ff" points="366.53,-151.05 376.96,-152.9 369.96,-144.95 366.53,-151.05"/>
</g>
<!-- Node11 -->
<g id="node11" class="node">
<title>Node11</title>
<g id="a_node11"><a xlink:href="test__hmi_8cpp.xhtml" target="_top" xlink:title=" ">
<polygon fill="white" stroke="#666666" points="701.5,-35.5 608.5,-35.5 608.5,-5.5 701.5,-5.5 701.5,-35.5"/>
<text text-anchor="start" x="616.5" y="-23.5" font-family="Helvetica,sans-Serif" font-size="10.00">test/test_hmi/test</text>
<text text-anchor="middle" x="655" y="-12.5" font-family="Helvetica,sans-Serif" font-size="10.00">_hmi.cpp</text>
</a>
</g>
</g>
<!-- Node5&#45;&gt;Node11 -->
<g id="edge12" class="edge">
<title>Node5&#45;&gt;Node11</title>
<path fill="none" stroke="#63b8ff" d="M494.33,-164.3C550.82,-155.48 623.38,-140.21 643,-118 663.12,-95.23 660.88,-56.77 657.78,-35.94"/>
<polygon fill="#63b8ff" stroke="#63b8ff" points="494.13,-160.79 484.76,-165.75 495.18,-167.72 494.13,-160.79"/>
</g>
<!-- Node8 -->
<g id="node8" class="node">
<title>Node8</title>
<g id="a_node8"><a xlink:href="Presenter_8cpp.xhtml" target="_top" xlink:title=" ">
<polygon fill="white" stroke="#666666" points="590,-41 470,-41 470,0 590,0 590,-41"/>
<text text-anchor="start" x="478" y="-29" font-family="Helvetica,sans-Serif" font-size="10.00">lib/application_business</text>
<text text-anchor="start" x="478" y="-18" font-family="Helvetica,sans-Serif" font-size="10.00">_rules/user_interaction</text>
<text text-anchor="middle" x="530" y="-7" font-family="Helvetica,sans-Serif" font-size="10.00">/Presenter.cpp</text>
</a>
</g>
</g>
<!-- Node7&#45;&gt;Node8 -->
<g id="edge7" class="edge">
<title>Node7&#45;&gt;Node8</title>
<path fill="none" stroke="#63b8ff" d="M442.75,-71.08C459.74,-61.42 478.83,-50.58 494.81,-41.49"/>
<polygon fill="#63b8ff" stroke="#63b8ff" points="441.31,-67.87 434.34,-75.85 444.77,-73.95 441.31,-67.87"/>
</g>
<!-- Node9 -->
<g id="node9" class="node">
<title>Node9</title>
<g id="a_node9"><a xlink:href="ProcessHmiInputs_8cpp.xhtml" target="_top" xlink:title=" ">
<polygon fill="white" stroke="#666666" points="452,-41 332,-41 332,0 452,0 452,-41"/>
<text text-anchor="start" x="340" y="-29" font-family="Helvetica,sans-Serif" font-size="10.00">lib/application_business</text>
<text text-anchor="start" x="340" y="-18" font-family="Helvetica,sans-Serif" font-size="10.00">_rules/user_interaction</text>
<text text-anchor="middle" x="392" y="-7" font-family="Helvetica,sans-Serif" font-size="10.00">/ProcessHmiInputs.cpp</text>
</a>
</g>
</g>
<!-- Node7&#45;&gt;Node9 -->
<g id="edge8" class="edge">
<title>Node7&#45;&gt;Node9</title>
<path fill="none" stroke="#63b8ff" d="M395.51,-65.36C394.86,-57.24 394.18,-48.7 393.59,-41.33"/>
<polygon fill="#63b8ff" stroke="#63b8ff" points="392.02,-65.6 396.3,-75.29 398.99,-65.04 392.02,-65.6"/>
</g>
<!-- Node7&#45;&gt;Node10 -->
<g id="edge9" class="edge">
<title>Node7&#45;&gt;Node10</title>
<path fill="none" stroke="#63b8ff" d="M356.52,-70.58C334.16,-56.6 307.99,-40.24 292.22,-30.38"/>
<polygon fill="#63b8ff" stroke="#63b8ff" points="354.54,-73.46 364.87,-75.8 358.25,-67.53 354.54,-73.46"/>
</g>
<!-- Node7&#45;&gt;Node11 -->
<g id="edge10" class="edge">
<title>Node7&#45;&gt;Node11</title>
<path fill="none" stroke="#63b8ff" d="M468.95,-77.44C516.51,-64.56 574.71,-48.57 599,-41 604.01,-39.44 609.25,-37.72 614.42,-35.98"/>
<polygon fill="#63b8ff" stroke="#63b8ff" points="468.25,-74 459.51,-79.99 470.08,-80.76 468.25,-74"/>
</g>
<!-- Node12&#45;&gt;Node4 -->
<g id="edge14" class="edge">
<title>Node12&#45;&gt;Node4</title>
<path fill="none" stroke="#63b8ff" d="M241.17,-146.29C230.69,-137.05 219.18,-126.89 209.48,-118.33"/>
<polygon fill="#63b8ff" stroke="#63b8ff" points="238.72,-148.8 248.53,-152.79 243.35,-143.55 238.72,-148.8"/>
</g>
<!-- Node12&#45;&gt;Node10 -->
<g id="edge15" class="edge">
<title>Node12&#45;&gt;Node10</title>
<path fill="none" stroke="#63b8ff" d="M273.22,-142.49C274.62,-107.12 276.82,-51.44 277.66,-30.16"/>
<polygon fill="#63b8ff" stroke="#63b8ff" points="269.74,-141.99 272.84,-152.12 276.74,-142.26 269.74,-141.99"/>
</g>
<!-- Node12&#45;&gt;Node11 -->
<g id="edge16" class="edge">
<title>Node12&#45;&gt;Node11</title>
<path fill="none" stroke="#63b8ff" d="M355.69,-151.93C403.91,-139.11 456.94,-124.17 467,-118 488.18,-105.01 484.34,-90.8 505,-77 509.81,-73.79 571.81,-51.28 614.58,-35.93"/>
<polygon fill="#63b8ff" stroke="#63b8ff" points="355.08,-148.47 346.31,-154.41 356.87,-155.24 355.08,-148.47"/>
</g>
</g>
</svg>
