<?xml version="1.0" encoding="UTF-8" standalone="no"?>
<!DOCTYPE svg PUBLIC "-//W3C//DTD SVG 1.1//EN"
 "http://www.w3.org/Graphics/SVG/1.1/DTD/svg11.dtd">
<!-- Generated by graphviz version 7.0.5 (20221223.1930)
 -->
<!-- Title: lib/application_business_rules/serial_interface/Protocol.cpp Pages: 1 -->
<svg width="831pt" height="214pt"
 viewBox="0.00 0.00 831.00 214.00" xmlns="http://www.w3.org/2000/svg" xmlns:xlink="http://www.w3.org/1999/xlink">
<g id="graph0" class="graph" transform="scale(1 1) rotate(0) translate(4 210)">
<title>lib/application_business_rules/serial_interface/Protocol.cpp</title>
<!-- Node1 -->
<g id="node1" class="node">
<title>Node1</title>
<g id="a_node1"><a xlink:title=" ">
<polygon fill="#999999" stroke="#666666" points="206.5,-206 86.5,-206 86.5,-165 206.5,-165 206.5,-206"/>
<text text-anchor="start" x="94.5" y="-194" font-family="Helvetica,sans-Serif" font-size="10.00">lib/application_business</text>
<text text-anchor="start" x="94.5" y="-183" font-family="Helvetica,sans-Serif" font-size="10.00">_rules/serial_interface</text>
<text text-anchor="middle" x="146.5" y="-172" font-family="Helvetica,sans-Serif" font-size="10.00">/Protocol.cpp</text>
</a>
</g>
</g>
<!-- Node2 -->
<g id="node2" class="node">
<title>Node2</title>
<g id="a_node2"><a xlink:href="Protocol_8hpp.xhtml" target="_top" xlink:title=" ">
<polygon fill="white" stroke="#666666" points="71,-129 0,-129 0,-110 71,-110 71,-129"/>
<text text-anchor="middle" x="35.5" y="-117" font-family="Helvetica,sans-Serif" font-size="10.00">Protocol.hpp</text>
</a>
</g>
</g>
<!-- Node1&#45;&gt;Node2 -->
<g id="edge1" class="edge">
<title>Node1&#45;&gt;Node2</title>
<path fill="none" stroke="#63b8ff" d="M111.99,-164.6C95.34,-155 75.73,-143.7 60.54,-134.94"/>
<polygon fill="#63b8ff" stroke="#63b8ff" points="62.54,-132.05 52.13,-130.09 59.04,-138.11 62.54,-132.05"/>
</g>
<!-- Node3 -->
<g id="node3" class="node">
<title>Node3</title>
<g id="a_node3"><a xlink:href="command__line__interpreter_8hpp.xhtml" target="_top" xlink:title=" ">
<polygon fill="white" stroke="#666666" points="642.5,-129 496.5,-129 496.5,-110 642.5,-110 642.5,-129"/>
<text text-anchor="middle" x="569.5" y="-117" font-family="Helvetica,sans-Serif" font-size="10.00">command_line_interpreter.hpp</text>
</a>
</g>
</g>
<!-- Node1&#45;&gt;Node3 -->
<g id="edge2" class="edge">
<title>Node1&#45;&gt;Node3</title>
<path fill="none" stroke="#63b8ff" d="M206.66,-175.4C283.77,-163.73 417.26,-143.53 499.05,-131.16"/>
<polygon fill="#63b8ff" stroke="#63b8ff" points="499.37,-134.65 508.74,-129.69 498.33,-127.73 499.37,-134.65"/>
</g>
<!-- Node11 -->
<g id="node11" class="node">
<title>Node11</title>
<g id="a_node11"><a xlink:title=" ">
<polygon fill="#e0e0e0" stroke="#999999" points="214,-19 173,-19 173,0 214,0 214,-19"/>
<text text-anchor="middle" x="193.5" y="-7" font-family="Helvetica,sans-Serif" font-size="10.00">string</text>
</a>
</g>
</g>
<!-- Node1&#45;&gt;Node11 -->
<g id="edge22" class="edge">
<title>Node1&#45;&gt;Node11</title>
<path fill="none" stroke="#63b8ff" d="M134.14,-164.77C119.21,-138.2 98.47,-90.18 118.5,-55 127.87,-38.54 146,-27.54 162.09,-20.59"/>
<polygon fill="#63b8ff" stroke="#63b8ff" points="163.32,-23.87 171.35,-16.97 160.77,-17.35 163.32,-23.87"/>
</g>
<!-- Node15 -->
<g id="node15" class="node">
<title>Node15</title>
<g id="a_node15"><a xlink:href="serial__port_8hpp.xhtml" target="_top" xlink:title=" ">
<polygon fill="white" stroke="#666666" points="270.5,-129 190.5,-129 190.5,-110 270.5,-110 270.5,-129"/>
<text text-anchor="middle" x="230.5" y="-117" font-family="Helvetica,sans-Serif" font-size="10.00">serial_port.hpp</text>
</a>
</g>
</g>
<!-- Node1&#45;&gt;Node15 -->
<g id="edge15" class="edge">
<title>Node1&#45;&gt;Node15</title>
<path fill="none" stroke="#63b8ff" d="M172.62,-164.6C184.69,-155.41 198.81,-144.65 210.08,-136.06"/>
<polygon fill="#63b8ff" stroke="#63b8ff" points="212.09,-138.92 217.93,-130.08 207.85,-133.36 212.09,-138.92"/>
</g>
<!-- Node16 -->
<g id="node16" class="node">
<title>Node16</title>
<g id="a_node16"><a xlink:title=" ">
<polygon fill="#e0e0e0" stroke="#999999" points="165.5,-74 127.5,-74 127.5,-55 165.5,-55 165.5,-74"/>
<text text-anchor="middle" x="146.5" y="-62" font-family="Helvetica,sans-Serif" font-size="10.00">array</text>
</a>
</g>
</g>
<!-- Node1&#45;&gt;Node16 -->
<g id="edge21" class="edge">
<title>Node1&#45;&gt;Node16</title>
<path fill="none" stroke="#63b8ff" d="M146.5,-164.58C146.5,-142.68 146.5,-107.68 146.5,-85.68"/>
<polygon fill="#63b8ff" stroke="#63b8ff" points="150,-85.93 146.5,-75.93 143,-85.93 150,-85.93"/>
</g>
<!-- Node4 -->
<g id="node4" class="node">
<title>Node4</title>
<g id="a_node4"><a xlink:title=" ">
<polygon fill="#e0e0e0" stroke="#999999" points="419,-74 360,-74 360,-55 419,-55 419,-74"/>
<text text-anchor="middle" x="389.5" y="-62" font-family="Helvetica,sans-Serif" font-size="10.00">functional</text>
</a>
</g>
</g>
<!-- Node3&#45;&gt;Node4 -->
<g id="edge3" class="edge">
<title>Node3&#45;&gt;Node4</title>
<path fill="none" stroke="#63b8ff" d="M538.97,-109.51C508.96,-100.67 462.98,-87.14 429.95,-77.41"/>
<polygon fill="#63b8ff" stroke="#63b8ff" points="431.32,-74.16 420.74,-74.7 429.34,-80.88 431.32,-74.16"/>
</g>
<!-- Node5 -->
<g id="node5" class="node">
<title>Node5</title>
<g id="a_node5"><a xlink:title=" ">
<polygon fill="#e0e0e0" stroke="#999999" points="643.5,-74 589.5,-74 589.5,-55 643.5,-55 643.5,-74"/>
<text text-anchor="middle" x="616.5" y="-62" font-family="Helvetica,sans-Serif" font-size="10.00">iostream</text>
</a>
</g>
</g>
<!-- Node3&#45;&gt;Node5 -->
<g id="edge4" class="edge">
<title>Node3&#45;&gt;Node5</title>
<path fill="none" stroke="#63b8ff" d="M577.26,-109.75C583.69,-102.5 593.01,-91.98 600.96,-83.02"/>
<polygon fill="#63b8ff" stroke="#63b8ff" points="603.55,-85.38 607.57,-75.57 598.31,-80.73 603.55,-85.38"/>
</g>
<!-- Node6 -->
<g id="node6" class="node">
<title>Node6</title>
<g id="a_node6"><a xlink:title=" ">
<polygon fill="#e0e0e0" stroke="#999999" points="709,-74 662,-74 662,-55 709,-55 709,-74"/>
<text text-anchor="middle" x="685.5" y="-62" font-family="Helvetica,sans-Serif" font-size="10.00">iterator</text>
</a>
</g>
</g>
<!-- Node3&#45;&gt;Node6 -->
<g id="edge5" class="edge">
<title>Node3&#45;&gt;Node6</title>
<path fill="none" stroke="#63b8ff" d="M589.18,-109.51C607.45,-101.16 634.91,-88.61 655.85,-79.05"/>
<polygon fill="#63b8ff" stroke="#63b8ff" points="657.1,-82.33 664.74,-74.99 654.19,-75.96 657.1,-82.33"/>
</g>
<!-- Node7 -->
<g id="node7" class="node">
<title>Node7</title>
<g id="a_node7"><a xlink:title=" ">
<polygon fill="#e0e0e0" stroke="#999999" points="477,-19 418,-19 418,0 477,0 477,-19"/>
<text text-anchor="middle" x="447.5" y="-7" font-family="Helvetica,sans-Serif" font-size="10.00">stdexcept</text>
</a>
</g>
</g>
<!-- Node3&#45;&gt;Node7 -->
<g id="edge6" class="edge">
<title>Node3&#45;&gt;Node7</title>
<path fill="none" stroke="#63b8ff" d="M529.39,-109.58C508.34,-102.99 483.65,-91.96 467.5,-74 456.73,-62.02 451.76,-44.27 449.47,-30.58"/>
<polygon fill="#63b8ff" stroke="#63b8ff" points="452.97,-30.4 448.22,-20.93 446.03,-31.3 452.97,-30.4"/>
</g>
<!-- Node8 -->
<g id="node8" class="node">
<title>Node8</title>
<g id="a_node8"><a xlink:href="string__helpers_8hpp.xhtml" target="_top" xlink:title=" ">
<polygon fill="white" stroke="#666666" points="571,-74 476,-74 476,-55 571,-55 571,-74"/>
<text text-anchor="middle" x="523.5" y="-62" font-family="Helvetica,sans-Serif" font-size="10.00">string_helpers.hpp</text>
</a>
</g>
</g>
<!-- Node3&#45;&gt;Node8 -->
<g id="edge7" class="edge">
<title>Node3&#45;&gt;Node8</title>
<path fill="none" stroke="#63b8ff" d="M561.9,-109.75C555.62,-102.5 546.49,-91.98 538.7,-83.02"/>
<polygon fill="#63b8ff" stroke="#63b8ff" points="541.45,-80.84 532.25,-75.59 536.16,-85.43 541.45,-80.84"/>
</g>
<!-- Node13 -->
<g id="node13" class="node">
<title>Node13</title>
<g id="a_node13"><a xlink:title=" ">
<polygon fill="#e0e0e0" stroke="#999999" points="765.5,-74 727.5,-74 727.5,-55 765.5,-55 765.5,-74"/>
<text text-anchor="middle" x="746.5" y="-62" font-family="Helvetica,sans-Serif" font-size="10.00">tuple</text>
</a>
</g>
</g>
<!-- Node3&#45;&gt;Node13 -->
<g id="edge13" class="edge">
<title>Node3&#45;&gt;Node13</title>
<path fill="none" stroke="#63b8ff" d="M599.76,-109.51C627.7,-101.19 670.62,-88.4 716.46,-74.6"/>
<polygon fill="#63b8ff" stroke="#63b8ff" points="717.21,-78.03 725.77,-71.8 715.19,-71.33 717.21,-78.03"/>
</g>
<!-- Node14 -->
<g id="node14" class="node">
<title>Node14</title>
<g id="a_node14"><a xlink:title=" ">
<polygon fill="#e0e0e0" stroke="#999999" points="823,-74 784,-74 784,-55 823,-55 823,-74"/>
<text text-anchor="middle" x="803.5" y="-62" font-family="Helvetica,sans-Serif" font-size="10.00">utility</text>
</a>
</g>
</g>
<!-- Node3&#45;&gt;Node14 -->
<g id="edge14" class="edge">
<title>Node3&#45;&gt;Node14</title>
<path fill="none" stroke="#63b8ff" d="M615.31,-109.53C654.56,-101.63 712.82,-89.39 772.44,-74.38"/>
<polygon fill="#63b8ff" stroke="#63b8ff" points="773.29,-77.77 782.12,-71.91 771.56,-70.99 773.29,-77.77"/>
</g>
<!-- Node8&#45;&gt;Node7 -->
<g id="edge10" class="edge">
<title>Node8&#45;&gt;Node7</title>
<path fill="none" stroke="#63b8ff" d="M510.61,-54.51C499.4,-46.7 482.93,-35.21 469.62,-25.93"/>
<polygon fill="#63b8ff" stroke="#63b8ff" points="471.65,-23.07 461.44,-20.22 467.64,-28.81 471.65,-23.07"/>
</g>
<!-- Node9 -->
<g id="node9" class="node">
<title>Node9</title>
<g id="a_node9"><a xlink:title=" ">
<polygon fill="#e0e0e0" stroke="#999999" points="545.5,-19 495.5,-19 495.5,0 545.5,0 545.5,-19"/>
<text text-anchor="middle" x="520.5" y="-7" font-family="Helvetica,sans-Serif" font-size="10.00">iomanip</text>
</a>
</g>
</g>
<!-- Node8&#45;&gt;Node9 -->
<g id="edge8" class="edge">
<title>Node8&#45;&gt;Node9</title>
<path fill="none" stroke="#63b8ff" d="M523,-54.75C522.64,-48.27 522.12,-39.16 521.65,-30.9"/>
<polygon fill="#63b8ff" stroke="#63b8ff" points="525.15,-30.74 521.09,-20.95 518.16,-31.13 525.15,-30.74"/>
</g>
<!-- Node10 -->
<g id="node10" class="node">
<title>Node10</title>
<g id="a_node10"><a xlink:title=" ">
<polygon fill="#e0e0e0" stroke="#999999" points="615.5,-19 563.5,-19 563.5,0 615.5,0 615.5,-19"/>
<text text-anchor="middle" x="589.5" y="-7" font-family="Helvetica,sans-Serif" font-size="10.00">sstream</text>
</a>
</g>
</g>
<!-- Node8&#45;&gt;Node10 -->
<g id="edge9" class="edge">
<title>Node8&#45;&gt;Node10</title>
<path fill="none" stroke="#63b8ff" d="M534.7,-54.51C544.24,-46.85 558.17,-35.66 569.61,-26.47"/>
<polygon fill="#63b8ff" stroke="#63b8ff" points="571.68,-29.3 577.29,-20.31 567.3,-23.84 571.68,-29.3"/>
</g>
<!-- Node8&#45;&gt;Node11 -->
<g id="edge11" class="edge">
<title>Node8&#45;&gt;Node11</title>
<path fill="none" stroke="#63b8ff" d="M475.52,-55.79C407.11,-44.81 283.44,-24.95 225.31,-15.61"/>
<polygon fill="#63b8ff" stroke="#63b8ff" points="226.19,-12.21 215.77,-14.08 225.08,-19.12 226.19,-12.21"/>
</g>
<!-- Node12 -->
<g id="node12" class="node">
<title>Node12</title>
<g id="a_node12"><a xlink:title=" ">
<polygon fill="#e0e0e0" stroke="#999999" points="677.5,-19 633.5,-19 633.5,0 677.5,0 677.5,-19"/>
<text text-anchor="middle" x="655.5" y="-7" font-family="Helvetica,sans-Serif" font-size="10.00">vector</text>
</a>
</g>
</g>
<!-- Node8&#45;&gt;Node12 -->
<g id="edge12" class="edge">
<title>Node8&#45;&gt;Node12</title>
<path fill="none" stroke="#63b8ff" d="M545.89,-54.51C567.07,-46.01 599.09,-33.15 623.06,-23.53"/>
<polygon fill="#63b8ff" stroke="#63b8ff" points="624.06,-26.9 632.03,-19.92 621.45,-20.4 624.06,-26.9"/>
</g>
<!-- Node15&#45;&gt;Node4 -->
<g id="edge17" class="edge">
<title>Node15&#45;&gt;Node4</title>
<path fill="none" stroke="#63b8ff" d="M257.47,-109.51C283.48,-100.84 323.05,-87.65 352.1,-77.97"/>
<polygon fill="#63b8ff" stroke="#63b8ff" points="352.85,-81.41 361.23,-74.92 350.63,-74.77 352.85,-81.41"/>
</g>
<!-- Node15&#45;&gt;Node11 -->
<g id="edge20" class="edge">
<title>Node15&#45;&gt;Node11</title>
<path fill="none" stroke="#63b8ff" d="M226.67,-109.73C222.84,-100.82 216.92,-86.58 212.5,-74 207.41,-59.5 202.46,-42.86 198.89,-30.25"/>
<polygon fill="#63b8ff" stroke="#63b8ff" points="202.28,-29.37 196.23,-20.67 195.54,-31.24 202.28,-29.37"/>
</g>
<!-- Node15&#45;&gt;Node16 -->
<g id="edge16" class="edge">
<title>Node15&#45;&gt;Node16</title>
<path fill="none" stroke="#63b8ff" d="M216.25,-109.51C203.62,-101.54 184.94,-89.75 170.09,-80.38"/>
<polygon fill="#63b8ff" stroke="#63b8ff" points="172.14,-77.54 161.82,-75.17 168.41,-83.46 172.14,-77.54"/>
</g>
<!-- Node17 -->
<g id="node17" class="node">
<title>Node17</title>
<g id="a_node17"><a xlink:title=" ">
<polygon fill="#e0e0e0" stroke="#999999" points="271.5,-74 221.5,-74 221.5,-55 271.5,-55 271.5,-74"/>
<text text-anchor="middle" x="246.5" y="-62" font-family="Helvetica,sans-Serif" font-size="10.00">optional</text>
</a>
</g>
</g>
<!-- Node15&#45;&gt;Node17 -->
<g id="edge18" class="edge">
<title>Node15&#45;&gt;Node17</title>
<path fill="none" stroke="#63b8ff" d="M233.14,-109.75C235.14,-103.11 237.98,-93.73 240.52,-85.31"/>
<polygon fill="#63b8ff" stroke="#63b8ff" points="243.82,-86.48 243.36,-75.89 237.12,-84.45 243.82,-86.48"/>
</g>
<!-- Node18 -->
<g id="node18" class="node">
<title>Node18</title>
<g id="a_node18"><a xlink:title=" ">
<polygon fill="#e0e0e0" stroke="#999999" points="341.5,-74 289.5,-74 289.5,-55 341.5,-55 341.5,-74"/>
<text text-anchor="middle" x="315.5" y="-62" font-family="Helvetica,sans-Serif" font-size="10.00">ostream</text>
</a>
</g>
</g>
<!-- Node15&#45;&gt;Node18 -->
<g id="edge19" class="edge">
<title>Node15&#45;&gt;Node18</title>
<path fill="none" stroke="#63b8ff" d="M244.92,-109.51C257.7,-101.54 276.6,-89.75 291.63,-80.38"/>
<polygon fill="#63b8ff" stroke="#63b8ff" points="293.38,-83.42 300.01,-75.16 289.67,-77.48 293.38,-83.42"/>
</g>
</g>
</svg>
