<?xml version="1.0" encoding="UTF-8" standalone="no"?>
<!DOCTYPE svg PUBLIC "-//W3C//DTD SVG 1.1//EN"
 "http://www.w3.org/Graphics/SVG/1.1/DTD/svg11.dtd">
<!-- Generated by graphviz version 7.0.5 (20221223.1930)
 -->
<!-- Title: BarData Pages: 1 -->
<svg width="129pt" height="115pt"
 viewBox="0.00 0.00 128.50 115.00" xmlns="http://www.w3.org/2000/svg" xmlns:xlink="http://www.w3.org/1999/xlink">
<g id="graph0" class="graph" transform="scale(1 1) rotate(0) translate(4 111)">
<title>BarData</title>
<!-- Node1 -->
<g id="node1" class="node">
<title>Node1</title>
<g id="a_node1"><a xlink:title=" ">
<polygon fill="#999999" stroke="#666666" points="91,-30 36,-30 36,0 91,0 91,-30"/>
<text text-anchor="middle" x="63.5" y="-18" font-family="Helvetica,sans-Serif" font-size="10.00">{BarData</text>
<text text-anchor="middle" x="63.5" y="-7" font-family="Helvetica,sans-Serif" font-size="10.00">||}</text>
</a>
</g>
</g>
<!-- Node2 -->
<g id="node2" class="node">
<title>Node2</title>
<g id="a_node2"><a xlink:title=" ">
<polygon fill="white" stroke="#666666" points="45,-107 0,-107 0,-77 45,-77 45,-107"/>
<text text-anchor="middle" x="22.5" y="-95" font-family="Helvetica,sans-Serif" font-size="10.00">{size_t</text>
<text text-anchor="middle" x="22.5" y="-84" font-family="Helvetica,sans-Serif" font-size="10.00">||}</text>
</a>
</g>
</g>
<!-- Node2&#45;&gt;Node1 -->
<g id="edge1" class="edge">
<title>Node2&#45;&gt;Node1</title>
<path fill="none" stroke="#404040" d="M19.9,-76.73C19,-67.99 19.13,-56.83 23.5,-48 25.07,-44.82 27.13,-41.86 29.47,-39.12"/>
<polygon fill="none" stroke="#404040" points="29.54,-39.06 31.15,-32.03 38.26,-30.81 36.65,-37.84 29.54,-39.06"/>
<text text-anchor="middle" x="53.5" y="-51" font-family="Helvetica,sans-Serif" font-size="10.00"> +timesCalled</text>
</g>
<!-- Node3 -->
<g id="node3" class="node">
<title>Node3</title>
<g id="a_node3"><a xlink:title=" ">
<polygon fill="white" stroke="#666666" points="120.5,-107 90.5,-107 90.5,-77 120.5,-77 120.5,-107"/>
<text text-anchor="middle" x="105.5" y="-95" font-family="Helvetica,sans-Serif" font-size="10.00">{int</text>
<text text-anchor="middle" x="105.5" y="-84" font-family="Helvetica,sans-Serif" font-size="10.00">||}</text>
</a>
</g>
</g>
<!-- Node3&#45;&gt;Node1 -->
<g id="edge2" class="edge">
<title>Node3&#45;&gt;Node1</title>
<path fill="none" stroke="#404040" d="M98.47,-76.5C94.29,-68.09 88.79,-57.34 83.5,-48 82.26,-45.82 80.95,-43.58 79.61,-41.34"/>
<polygon fill="none" stroke="#404040" points="79.7,-41.48 73.14,-38.47 73.4,-31.26 79.95,-34.27 79.7,-41.48"/>
<text text-anchor="middle" x="95.5" y="-51" font-family="Helvetica,sans-Serif" font-size="10.00"> +n</text>
</g>
</g>
</svg>
