<?xml version="1.0" encoding="UTF-8" standalone="no"?>
<!DOCTYPE svg PUBLIC "-//W3C//DTD SVG 1.1//EN"
 "http://www.w3.org/Graphics/SVG/1.1/DTD/svg11.dtd">
<!-- Generated by graphviz version 7.0.5 (20221223.1930)
 -->
<!-- Title: dependency_injection_interface_adapter Pages: 1 -->
<svg width="635pt" height="309pt"
 viewBox="0.00 0.00 635.00 308.91" xmlns="http://www.w3.org/2000/svg" xmlns:xlink="http://www.w3.org/1999/xlink">
<g id="graph0" class="graph" transform="scale(1 1) rotate(0) translate(4 304.91)">
<title>dependency_injection_interface_adapter</title>
<polygon fill="white" stroke="none" points="-4,4 -4,-304.91 631,-304.91 631,4 -4,4"/>
<g id="clust1" class="cluster">
<title>cluster_high</title>
<polygon fill="none" stroke="black" points="8,-116 8,-292.91 321,-292.91 321,-116 8,-116"/>
<text text-anchor="middle" x="164.5" y="-123.8" font-family="Times,serif" font-size="14.00">high level policy package</text>
</g>
<g id="clust2" class="cluster">
<title>cluster_low</title>
<polygon fill="none" stroke="black" points="65,-8 65,-83 419,-83 419,-8 65,-8"/>
<text text-anchor="middle" x="242" y="-15.8" font-family="Times,serif" font-size="14.00">interface adapters package</text>
</g>
<g id="clust3" class="cluster">
<title>cluster_external</title>
<polygon fill="none" stroke="black" points="497,-8 497,-83 619,-83 619,-8 497,-8"/>
<text text-anchor="middle" x="558" y="-15.8" font-family="Times,serif" font-size="14.00">third party libraries</text>
</g>
<!-- factory_interface -->
<g id="node1" class="node">
<title>factory_interface</title>
<ellipse fill="none" stroke="black" cx="220" cy="-172.46" rx="93.18" ry="25.41"/>
<text text-anchor="start" x="189.5" y="-176.26" font-family="Times,serif" font-size="14.00">«interface»</text>
<text text-anchor="start" x="162" y="-162.26" font-family="Courier New" font-size="14.00">B&amp; factoryB();</text>
</g>
<!-- interface_b -->
<g id="node3" class="node">
<title>interface_b</title>
<polygon fill="none" stroke="black" points="156.5,-284.91 79.5,-284.91 79.5,-248.91 156.5,-248.91 156.5,-284.91"/>
<text text-anchor="start" x="87.5" y="-270.71" font-family="Times,serif" font-size="14.00">«interface»</text>
<text text-anchor="start" x="113.5" y="-256.71" font-family="Courier New" font-size="14.00">B</text>
</g>
<!-- factory_interface&#45;&gt;interface_b -->
<g id="edge6" class="edge">
<title>factory_interface&#45;&gt;interface_b</title>
<path fill="none" stroke="black" stroke-dasharray="5,2" d="M201.34,-197.67C192.45,-208.45 181.3,-220.93 170,-230.91 165.34,-235.03 160.18,-239.04 154.96,-242.81"/>
<polygon fill="black" stroke="black" points="146.79,-248.49 152.43,-239.08 150.89,-245.63 155,-242.78 155,-242.78 155,-242.78 150.89,-245.63 157.57,-246.48 146.79,-248.49 146.79,-248.49"/>
<text text-anchor="middle" x="222" y="-219.71" font-family="Times,serif" font-size="14.00">«depends on»</text>
</g>
<!-- component_a -->
<g id="node2" class="node">
<title>component_a</title>
<polygon fill="none" stroke="black" points="70,-190.46 16,-190.46 16,-186.46 12,-186.46 12,-182.46 16,-182.46 16,-162.46 12,-162.46 12,-158.46 16,-158.46 16,-154.46 70,-154.46 70,-190.46"/>
<polyline fill="none" stroke="black" points="16,-186.46 20,-186.46 20,-182.46 16,-182.46"/>
<polyline fill="none" stroke="black" points="16,-162.46 20,-162.46 20,-158.46 16,-158.46"/>
<text text-anchor="middle" x="43" y="-168.76" font-family="Courier New" font-size="14.00">A</text>
</g>
<!-- component_a&#45;&gt;factory_interface -->
<g id="edge5" class="edge">
<title>component_a&#45;&gt;factory_interface</title>
<path fill="none" stroke="black" stroke-dasharray="5,2" d="M70.27,-172.46C83.28,-172.46 99.75,-172.46 116.98,-172.46"/>
<polygon fill="black" stroke="black" points="126.61,-172.46 116.61,-176.96 121.61,-172.46 116.61,-172.46 116.61,-172.46 116.61,-172.46 121.61,-172.46 116.61,-167.96 126.61,-172.46 126.61,-172.46"/>
<text text-anchor="middle" x="98.33" y="-158.26" font-family="Times,serif" font-size="14.00">«calls»</text>
</g>
<!-- component_a&#45;&gt;interface_b -->
<g id="edge4" class="edge">
<title>component_a&#45;&gt;interface_b</title>
<path fill="none" stroke="black" stroke-dasharray="5,2" d="M57.11,-190.85C68.63,-205.05 85.06,-225.31 97.95,-241.2"/>
<polygon fill="black" stroke="black" points="103.96,-248.6 94.16,-243.67 100.81,-244.72 97.66,-240.83 97.66,-240.83 97.66,-240.83 100.81,-244.72 101.15,-238 103.96,-248.6 103.96,-248.6"/>
<text text-anchor="middle" x="128" y="-219.71" font-family="Times,serif" font-size="14.00">«depends on»</text>
</g>
<!-- factory_impl -->
<g id="node4" class="node">
<title>factory_impl</title>
<ellipse fill="none" stroke="black" cx="164" cy="-57" rx="90.98" ry="18"/>
<text text-anchor="middle" x="164" y="-53.3" font-family="Courier New" font-size="14.00">B&amp; factoryB(){}</text>
</g>
<!-- factory_impl&#45;&gt;factory_interface -->
<g id="edge7" class="edge">
<title>factory_impl&#45;&gt;factory_interface</title>
<path fill="none" stroke="black" stroke-dasharray="5,2" d="M172.51,-75.23C180.71,-91.86 193.36,-117.49 203.54,-138.11"/>
<polygon fill="black" stroke="black" points="207.88,-146.89 199.42,-139.92 205.66,-142.41 203.45,-137.93 203.45,-137.93 203.45,-137.93 205.66,-142.41 207.49,-135.94 207.88,-146.89 207.88,-146.89"/>
<text text-anchor="middle" x="227" y="-96.8" font-family="Times,serif" font-size="14.00">«implements»</text>
</g>
<!-- component_b -->
<g id="node5" class="node">
<title>component_b</title>
<polygon fill="none" stroke="black" points="411,-75 357,-75 357,-71 353,-71 353,-67 357,-67 357,-47 353,-47 353,-43 357,-43 357,-39 411,-39 411,-75"/>
<polyline fill="none" stroke="black" points="357,-71 361,-71 361,-67 357,-67"/>
<polyline fill="none" stroke="black" points="357,-47 361,-47 361,-43 357,-43"/>
<text text-anchor="middle" x="384" y="-53.3" font-family="Courier New" font-size="14.00">B</text>
</g>
<!-- factory_impl&#45;&gt;component_b -->
<g id="edge3" class="edge">
<title>factory_impl&#45;&gt;component_b</title>
<path fill="none" stroke="black" stroke-dasharray="5,2" d="M255.39,-57C287.55,-57 321.91,-57 347.01,-57"/>
<polygon fill="black" stroke="black" points="356.83,-57 346.83,-61.5 351.83,-57 346.83,-57 346.83,-57 346.83,-57 351.83,-57 346.83,-52.5 356.83,-57 356.83,-57"/>
<text text-anchor="middle" x="306" y="-42.8" font-family="Times,serif" font-size="14.00">«instantiates a»</text>
</g>
<!-- component_b&#45;&gt;interface_b -->
<g id="edge1" class="edge">
<title>component_b&#45;&gt;interface_b</title>
<path fill="none" stroke="black" stroke-dasharray="5,2" d="M380.06,-75.44C372.86,-104.01 355.15,-161.26 322,-197.91 282.64,-241.43 214.71,-257.14 168.13,-262.79"/>
<polygon fill="none" stroke="black" points="167.85,-259.3 158.28,-263.86 168.6,-266.26 167.85,-259.3"/>
<text text-anchor="middle" x="394.5" y="-168.76" font-family="Times,serif" font-size="14.00">«realizes»</text>
</g>
<!-- component_c -->
<g id="node6" class="node">
<title>component_c</title>
<polygon fill="none" stroke="black" points="608,-75 508,-75 508,-71 504,-71 504,-67 508,-67 508,-47 504,-47 504,-43 508,-43 508,-39 608,-39 608,-75"/>
<polyline fill="none" stroke="black" points="508,-71 512,-71 512,-67 508,-67"/>
<polyline fill="none" stroke="black" points="508,-47 512,-47 512,-43 508,-43"/>
<text text-anchor="middle" x="558" y="-53.3" font-family="Times,serif" font-size="14.00">external library</text>
</g>
<!-- component_b&#45;&gt;component_c -->
<g id="edge2" class="edge">
<title>component_b&#45;&gt;component_c</title>
<path fill="none" stroke="black" stroke-dasharray="5,2" d="M411.19,-57C434.29,-57 468.29,-57 497.76,-57"/>
<polygon fill="black" stroke="black" points="507.56,-57 497.56,-61.5 502.56,-57 497.56,-57 497.56,-57 497.56,-57 502.56,-57 497.56,-52.5 507.56,-57 507.56,-57"/>
<text text-anchor="middle" x="459.5" y="-42.8" font-family="Times,serif" font-size="14.00">«delegates to»</text>
</g>
</g>
</svg>
