<?xml version="1.0" encoding="UTF-8" standalone="no"?>
<!DOCTYPE svg PUBLIC "-//W3C//DTD SVG 1.1//EN"
 "http://www.w3.org/Graphics/SVG/1.1/DTD/svg11.dtd">
<!-- Generated by graphviz version 7.0.5 (20221223.1930)
 -->
<!-- Title: Graphical Class Hierarchy Pages: 1 -->
<svg width="250pt" height="64pt"
 viewBox="0.00 0.00 250.00 64.00" xmlns="http://www.w3.org/2000/svg" xmlns:xlink="http://www.w3.org/1999/xlink">
<g id="graph0" class="graph" transform="scale(1 1) rotate(0) translate(4 60)">
<title>Graphical Class Hierarchy</title>
<!-- Node0 -->
<g id="node1" class="node">
<title>Node0</title>
<g id="a_node1"><a xlink:title=" ">
<polygon fill="#e0e0e0" stroke="#999999" points="78,-37 0,-37 0,-18 78,-18 78,-37"/>
<text text-anchor="middle" x="39" y="-25" font-family="Helvetica,sans-Serif" font-size="10.00">std::streambuf</text>
</a>
</g>
</g>
<!-- Node1 -->
<g id="node2" class="node">
<title>Node1</title>
<g id="a_node2"><a xlink:href="classSerialInputStreamBuffer.xhtml" target="_top" xlink:title=" ">
<polygon fill="white" stroke="#666666" points="238,-56 118,-56 118,-37 238,-37 238,-56"/>
<text text-anchor="middle" x="178" y="-44" font-family="Helvetica,sans-Serif" font-size="10.00">SerialInputStreamBuffer</text>
</a>
</g>
</g>
<!-- Node0&#45;&gt;Node1 -->
<g id="edge1" class="edge">
<title>Node0&#45;&gt;Node1</title>
<path fill="none" stroke="#63b8ff" d="M89.47,-34.36C98.64,-35.63 108.32,-36.97 117.75,-38.28"/>
<polygon fill="#63b8ff" stroke="#63b8ff" points="90.05,-30.91 79.66,-33 89.09,-37.84 90.05,-30.91"/>
</g>
<!-- Node2 -->
<g id="node3" class="node">
<title>Node2</title>
<g id="a_node3"><a xlink:href="classSerialOutputStreamBuffer.xhtml" target="_top" xlink:title="Controls output of a character sequence to serial port.">
<polygon fill="white" stroke="#666666" points="242,-19 114,-19 114,0 242,0 242,-19"/>
<text text-anchor="middle" x="178" y="-7" font-family="Helvetica,sans-Serif" font-size="10.00">SerialOutputStreamBuffer</text>
</a>
</g>
</g>
<!-- Node0&#45;&gt;Node2 -->
<g id="edge2" class="edge">
<title>Node0&#45;&gt;Node2</title>
<path fill="none" stroke="#63b8ff" d="M89.36,-21.01C97.23,-19.98 105.45,-18.9 113.58,-17.83"/>
<polygon fill="#63b8ff" stroke="#63b8ff" points="89.12,-17.52 79.66,-22.29 90.03,-24.46 89.12,-17.52"/>
</g>
</g>
</svg>
