<?xml version="1.0" encoding="UTF-8" standalone="no"?>
<!DOCTYPE svg PUBLIC "-//W3C//DTD SVG 1.1//EN"
 "http://www.w3.org/Graphics/SVG/1.1/DTD/svg11.dtd">
<!-- Generated by graphviz version 7.0.5 (20221223.1930)
 -->
<!-- Title: src/main.cpp Pages: 1 -->
<svg width="546pt" height="192pt"
 viewBox="0.00 0.00 546.00 192.00" xmlns="http://www.w3.org/2000/svg" xmlns:xlink="http://www.w3.org/1999/xlink">
<g id="graph0" class="graph" transform="scale(1 1) rotate(0) translate(4 188)">
<title>src/main.cpp</title>
<!-- Node1 -->
<g id="node1" class="node">
<title>Node1</title>
<g id="a_node1"><a xlink:title=" ">
<polygon fill="#999999" stroke="#666666" points="288,-184 216,-184 216,-165 288,-165 288,-184"/>
<text text-anchor="middle" x="252" y="-172" font-family="Helvetica,sans-Serif" font-size="10.00">src/main.cpp</text>
</a>
</g>
</g>
<!-- Node2 -->
<g id="node2" class="node">
<title>Node2</title>
<g id="a_node2"><a xlink:href="main_8hpp.xhtml" target="_top" xlink:title=" ">
<polygon fill="white" stroke="#666666" points="56,-129 0,-129 0,-110 56,-110 56,-129"/>
<text text-anchor="middle" x="28" y="-117" font-family="Helvetica,sans-Serif" font-size="10.00">main.hpp</text>
</a>
</g>
</g>
<!-- Node1&#45;&gt;Node2 -->
<g id="edge1" class="edge">
<title>Node1&#45;&gt;Node2</title>
<path fill="none" stroke="#63b8ff" d="M215.51,-164.87C174.83,-155.24 109.27,-139.73 67.43,-129.83"/>
<polygon fill="#63b8ff" stroke="#63b8ff" points="68.31,-126.44 57.78,-127.55 66.7,-133.25 68.31,-126.44"/>
</g>
<!-- Node3 -->
<g id="node3" class="node">
<title>Node3</title>
<g id="a_node3"><a xlink:href="board__pins_8hpp.xhtml" target="_top" xlink:title="Provides named objects for the pins provided by the board.">
<polygon fill="white" stroke="#666666" points="217,-129 135,-129 135,-110 217,-110 217,-129"/>
<text text-anchor="middle" x="176" y="-117" font-family="Helvetica,sans-Serif" font-size="10.00">board_pins.hpp</text>
</a>
</g>
</g>
<!-- Node1&#45;&gt;Node3 -->
<g id="edge2" class="edge">
<title>Node1&#45;&gt;Node3</title>
<path fill="none" stroke="#63b8ff" d="M239.11,-164.51C227.9,-156.7 211.43,-145.21 198.12,-135.93"/>
<polygon fill="#63b8ff" stroke="#63b8ff" points="200.15,-133.07 189.94,-130.22 196.14,-138.81 200.15,-133.07"/>
</g>
<!-- Node5 -->
<g id="node5" class="node">
<title>Node5</title>
<g id="a_node5"><a xlink:title=" ">
<polygon fill="#e0e0e0" stroke="#999999" points="115.5,-19 58.5,-19 58.5,0 115.5,0 115.5,-19"/>
<text text-anchor="middle" x="87" y="-7" font-family="Helvetica,sans-Serif" font-size="10.00">Arduino.h</text>
</a>
</g>
</g>
<!-- Node1&#45;&gt;Node5 -->
<g id="edge14" class="edge">
<title>Node1&#45;&gt;Node5</title>
<path fill="none" stroke="#63b8ff" d="M215.55,-168.74C187.88,-163.39 150.53,-152.18 126,-129 98.4,-102.92 90.31,-56.99 87.96,-30.62"/>
<polygon fill="#63b8ff" stroke="#63b8ff" points="91.47,-30.68 87.3,-20.94 84.48,-31.15 91.47,-30.68"/>
</g>
<!-- Node6 -->
<g id="node6" class="node">
<title>Node6</title>
<g id="a_node6"><a xlink:title=" ">
<polygon fill="#e0e0e0" stroke="#999999" points="275,-19 229,-19 229,0 275,0 275,-19"/>
<text text-anchor="middle" x="252" y="-7" font-family="Helvetica,sans-Serif" font-size="10.00">cstdint</text>
</a>
</g>
</g>
<!-- Node1&#45;&gt;Node6 -->
<g id="edge15" class="edge">
<title>Node1&#45;&gt;Node6</title>
<path fill="none" stroke="#63b8ff" d="M252,-164.74C252,-139.53 252,-66.36 252,-30.62"/>
<polygon fill="#63b8ff" stroke="#63b8ff" points="255.5,-30.82 252,-20.82 248.5,-30.82 255.5,-30.82"/>
</g>
<!-- Node8 -->
<g id="node8" class="node">
<title>Node8</title>
<g id="a_node8"><a xlink:href="display_8h.xhtml" target="_top" xlink:title=" ">
<polygon fill="white" stroke="#666666" points="334,-129 280,-129 280,-110 334,-110 334,-129"/>
<text text-anchor="middle" x="307" y="-117" font-family="Helvetica,sans-Serif" font-size="10.00">display.h</text>
</a>
</g>
</g>
<!-- Node1&#45;&gt;Node8 -->
<g id="edge7" class="edge">
<title>Node1&#45;&gt;Node8</title>
<path fill="none" stroke="#63b8ff" d="M261.08,-164.75C268.84,-157.27 280.21,-146.32 289.7,-137.17"/>
<polygon fill="#63b8ff" stroke="#63b8ff" points="291.86,-139.95 296.63,-130.49 287,-134.91 291.86,-139.95"/>
</g>
<!-- Node10 -->
<g id="node10" class="node">
<title>Node10</title>
<g id="a_node10"><a xlink:href="pitches_8hpp.xhtml" target="_top" xlink:title=" ">
<polygon fill="white" stroke="#666666" points="412,-74 346,-74 346,-55 412,-55 412,-74"/>
<text text-anchor="middle" x="379" y="-62" font-family="Helvetica,sans-Serif" font-size="10.00">pitches.hpp</text>
</a>
</g>
</g>
<!-- Node1&#45;&gt;Node10 -->
<g id="edge9" class="edge">
<title>Node1&#45;&gt;Node10</title>
<path fill="none" stroke="#63b8ff" d="M280.49,-164.61C299.9,-157.43 325.2,-145.75 343,-129 356.12,-116.65 365.77,-98.43 371.76,-84.67"/>
<polygon fill="#63b8ff" stroke="#63b8ff" points="374.85,-86.37 375.36,-75.79 368.36,-83.75 374.85,-86.37"/>
</g>
<!-- Node11 -->
<g id="node11" class="node">
<title>Node11</title>
<g id="a_node11"><a xlink:href="serial__port_8hpp.xhtml" target="_top" xlink:title=" ">
<polygon fill="white" stroke="#666666" points="489,-129 409,-129 409,-110 489,-110 489,-129"/>
<text text-anchor="middle" x="449" y="-117" font-family="Helvetica,sans-Serif" font-size="10.00">serial_port.hpp</text>
</a>
</g>
</g>
<!-- Node1&#45;&gt;Node11 -->
<g id="edge11" class="edge">
<title>Node1&#45;&gt;Node11</title>
<path fill="none" stroke="#63b8ff" d="M285.42,-164.51C318.35,-155.65 368.84,-142.07 405.02,-132.33"/>
<polygon fill="#63b8ff" stroke="#63b8ff" points="405.54,-135.82 414.29,-129.84 403.72,-129.06 405.54,-135.82"/>
</g>
<!-- Node4 -->
<g id="node4" class="node">
<title>Node4</title>
<g id="a_node4"><a xlink:href="framework__config_8hpp.xhtml" target="_top" xlink:title="Provides defintions which are specific for the used framework.">
<polygon fill="white" stroke="#666666" points="223.5,-74 112.5,-74 112.5,-55 223.5,-55 223.5,-74"/>
<text text-anchor="middle" x="168" y="-62" font-family="Helvetica,sans-Serif" font-size="10.00">framework_config.hpp</text>
</a>
</g>
</g>
<!-- Node3&#45;&gt;Node4 -->
<g id="edge3" class="edge">
<title>Node3&#45;&gt;Node4</title>
<path fill="none" stroke="#63b8ff" d="M174.68,-109.75C173.69,-103.19 172.29,-93.95 171.03,-85.6"/>
<polygon fill="#63b8ff" stroke="#63b8ff" points="174.53,-85.3 169.58,-75.94 167.61,-86.35 174.53,-85.3"/>
</g>
<!-- Node4&#45;&gt;Node5 -->
<g id="edge4" class="edge">
<title>Node4&#45;&gt;Node5</title>
<path fill="none" stroke="#63b8ff" d="M154.26,-54.51C142.2,-46.62 124.41,-34.98 110.16,-25.65"/>
<polygon fill="#63b8ff" stroke="#63b8ff" points="112.09,-22.73 101.8,-20.19 108.26,-28.59 112.09,-22.73"/>
</g>
<!-- Node4&#45;&gt;Node6 -->
<g id="edge5" class="edge">
<title>Node4&#45;&gt;Node6</title>
<path fill="none" stroke="#63b8ff" d="M182.25,-54.51C194.88,-46.54 213.56,-34.75 228.41,-25.38"/>
<polygon fill="#63b8ff" stroke="#63b8ff" points="230.09,-28.46 236.68,-20.17 226.36,-22.54 230.09,-28.46"/>
</g>
<!-- Node7 -->
<g id="node7" class="node">
<title>Node7</title>
<g id="a_node7"><a xlink:title=" ">
<polygon fill="#e0e0e0" stroke="#999999" points="199,-19 137,-19 137,0 199,0 199,-19"/>
<text text-anchor="middle" x="168" y="-7" font-family="Helvetica,sans-Serif" font-size="10.00">type_traits</text>
</a>
</g>
</g>
<!-- Node4&#45;&gt;Node7 -->
<g id="edge6" class="edge">
<title>Node4&#45;&gt;Node7</title>
<path fill="none" stroke="#63b8ff" d="M168,-54.75C168,-48.27 168,-39.16 168,-30.9"/>
<polygon fill="#63b8ff" stroke="#63b8ff" points="171.5,-30.96 168,-20.96 164.5,-30.96 171.5,-30.96"/>
</g>
<!-- Node9 -->
<g id="node9" class="node">
<title>Node9</title>
<g id="a_node9"><a xlink:title=" ">
<polygon fill="#e0e0e0" stroke="#999999" points="328,-74 280,-74 280,-55 328,-55 328,-74"/>
<text text-anchor="middle" x="304" y="-62" font-family="Helvetica,sans-Serif" font-size="10.00">stdint.h</text>
</a>
</g>
</g>
<!-- Node8&#45;&gt;Node9 -->
<g id="edge8" class="edge">
<title>Node8&#45;&gt;Node9</title>
<path fill="none" stroke="#63b8ff" d="M306.5,-109.75C306.14,-103.27 305.62,-94.16 305.15,-85.9"/>
<polygon fill="#63b8ff" stroke="#63b8ff" points="308.65,-85.74 304.59,-75.95 301.66,-86.13 308.65,-85.74"/>
</g>
<!-- Node10&#45;&gt;Node6 -->
<g id="edge10" class="edge">
<title>Node10&#45;&gt;Node6</title>
<path fill="none" stroke="#63b8ff" d="M357.46,-54.51C337.26,-46.08 306.83,-33.38 283.84,-23.79"/>
<polygon fill="#63b8ff" stroke="#63b8ff" points="285.2,-20.56 274.62,-19.94 282.5,-27.02 285.2,-20.56"/>
</g>
<!-- Node12 -->
<g id="node12" class="node">
<title>Node12</title>
<g id="a_node12"><a xlink:title=" ">
<polygon fill="#e0e0e0" stroke="#999999" points="468,-74 430,-74 430,-55 468,-55 468,-74"/>
<text text-anchor="middle" x="449" y="-62" font-family="Helvetica,sans-Serif" font-size="10.00">array</text>
</a>
</g>
</g>
<!-- Node11&#45;&gt;Node12 -->
<g id="edge12" class="edge">
<title>Node11&#45;&gt;Node12</title>
<path fill="none" stroke="#63b8ff" d="M449,-109.75C449,-103.27 449,-94.16 449,-85.9"/>
<polygon fill="#63b8ff" stroke="#63b8ff" points="452.5,-85.96 449,-75.96 445.5,-85.96 452.5,-85.96"/>
</g>
<!-- Node13 -->
<g id="node13" class="node">
<title>Node13</title>
<g id="a_node13"><a xlink:title=" ">
<polygon fill="#e0e0e0" stroke="#999999" points="538,-74 486,-74 486,-55 538,-55 538,-74"/>
<text text-anchor="middle" x="512" y="-62" font-family="Helvetica,sans-Serif" font-size="10.00">ostream</text>
</a>
</g>
</g>
<!-- Node11&#45;&gt;Node13 -->
<g id="edge13" class="edge">
<title>Node11&#45;&gt;Node13</title>
<path fill="none" stroke="#63b8ff" d="M459.69,-109.51C468.7,-101.93 481.83,-90.88 492.68,-81.75"/>
<polygon fill="#63b8ff" stroke="#63b8ff" points="494.91,-84.45 500.31,-75.33 490.41,-79.09 494.91,-84.45"/>
</g>
</g>
</svg>
