<?xml version="1.0" encoding="UTF-8" standalone="no"?>
<!DOCTYPE svg PUBLIC "-//W3C//DTD SVG 1.1//EN"
 "http://www.w3.org/Graphics/SVG/1.1/DTD/svg11.dtd">
<!-- Generated by graphviz version 7.0.5 (20221223.1930)
 -->
<!-- Title: src/main.cpp Pages: 1 -->
<svg width="614pt" height="192pt"
 viewBox="0.00 0.00 614.00 192.00" xmlns="http://www.w3.org/2000/svg" xmlns:xlink="http://www.w3.org/1999/xlink">
<g id="graph0" class="graph" transform="scale(1 1) rotate(0) translate(4 188)">
<title>src/main.cpp</title>
<!-- Node1 -->
<g id="node1" class="node">
<title>Node1</title>
<g id="a_node1"><a xlink:title=" ">
<polygon fill="#999999" stroke="#666666" points="315,-184 243,-184 243,-165 315,-165 315,-184"/>
<text text-anchor="middle" x="279" y="-172" font-family="Helvetica,sans-Serif" font-size="10.00">src/main.cpp</text>
</a>
</g>
</g>
<!-- Node2 -->
<g id="node2" class="node">
<title>Node2</title>
<g id="a_node2"><a xlink:href="main_8hpp.xhtml" target="_top" xlink:title=" ">
<polygon fill="white" stroke="#666666" points="56,-129 0,-129 0,-110 56,-110 56,-129"/>
<text text-anchor="middle" x="28" y="-117" font-family="Helvetica,sans-Serif" font-size="10.00">main.hpp</text>
</a>
</g>
</g>
<!-- Node1&#45;&gt;Node2 -->
<g id="edge1" class="edge">
<title>Node1&#45;&gt;Node2</title>
<path fill="none" stroke="#63b8ff" d="M242.5,-165.79C195.9,-155.95 115.57,-138.99 67.55,-128.85"/>
<polygon fill="#63b8ff" stroke="#63b8ff" points="68.36,-125.44 57.85,-126.8 66.91,-132.29 68.36,-125.44"/>
</g>
<!-- Node3 -->
<g id="node3" class="node">
<title>Node3</title>
<g id="a_node3"><a xlink:href="board__pins_8hpp.xhtml" target="_top" xlink:title="Provides named objects for the pins provided by the board.">
<polygon fill="white" stroke="#666666" points="216,-129 134,-129 134,-110 216,-110 216,-129"/>
<text text-anchor="middle" x="175" y="-117" font-family="Helvetica,sans-Serif" font-size="10.00">board_pins.hpp</text>
</a>
</g>
</g>
<!-- Node1&#45;&gt;Node3 -->
<g id="edge2" class="edge">
<title>Node1&#45;&gt;Node3</title>
<path fill="none" stroke="#63b8ff" d="M261.36,-164.51C245.27,-156.31 221.25,-144.07 202.63,-134.58"/>
<polygon fill="#63b8ff" stroke="#63b8ff" points="204.23,-131.47 193.73,-130.05 201.05,-137.7 204.23,-131.47"/>
</g>
<!-- Node5 -->
<g id="node5" class="node">
<title>Node5</title>
<g id="a_node5"><a xlink:title=" ">
<polygon fill="#e0e0e0" stroke="#999999" points="115.5,-19 58.5,-19 58.5,0 115.5,0 115.5,-19"/>
<text text-anchor="middle" x="87" y="-7" font-family="Helvetica,sans-Serif" font-size="10.00">Arduino.h</text>
</a>
</g>
</g>
<!-- Node1&#45;&gt;Node5 -->
<g id="edge15" class="edge">
<title>Node1&#45;&gt;Node5</title>
<path fill="none" stroke="#63b8ff" d="M242.58,-171.87C208.3,-168.48 157.49,-158.42 125,-129 96.79,-103.45 89.41,-56.95 87.55,-30.43"/>
<polygon fill="#63b8ff" stroke="#63b8ff" points="91.06,-30.53 87.09,-20.71 84.07,-30.86 91.06,-30.53"/>
</g>
<!-- Node6 -->
<g id="node6" class="node">
<title>Node6</title>
<g id="a_node6"><a xlink:title=" ">
<polygon fill="#e0e0e0" stroke="#999999" points="275,-19 229,-19 229,0 275,0 275,-19"/>
<text text-anchor="middle" x="252" y="-7" font-family="Helvetica,sans-Serif" font-size="10.00">cstdint</text>
</a>
</g>
</g>
<!-- Node1&#45;&gt;Node6 -->
<g id="edge16" class="edge">
<title>Node1&#45;&gt;Node6</title>
<path fill="none" stroke="#63b8ff" d="M277.36,-164.64C275.7,-155.67 273.11,-141.38 271,-129 265.14,-94.51 258.79,-54.29 255.12,-30.69"/>
<polygon fill="#63b8ff" stroke="#63b8ff" points="258.6,-30.27 253.6,-20.92 251.68,-31.34 258.6,-30.27"/>
</g>
<!-- Node8 -->
<g id="node8" class="node">
<title>Node8</title>
<g id="a_node8"><a xlink:href="display_8h.xhtml" target="_top" xlink:title=" ">
<polygon fill="white" stroke="#666666" points="334,-129 280,-129 280,-110 334,-110 334,-129"/>
<text text-anchor="middle" x="307" y="-117" font-family="Helvetica,sans-Serif" font-size="10.00">display.h</text>
</a>
</g>
</g>
<!-- Node1&#45;&gt;Node8 -->
<g id="edge7" class="edge">
<title>Node1&#45;&gt;Node8</title>
<path fill="none" stroke="#63b8ff" d="M283.62,-164.75C287.25,-157.88 292.43,-148.08 296.99,-139.45"/>
<polygon fill="#63b8ff" stroke="#63b8ff" points="299.99,-141.26 301.57,-130.78 293.8,-137.99 299.99,-141.26"/>
</g>
<!-- Node10 -->
<g id="node10" class="node">
<title>Node10</title>
<g id="a_node10"><a xlink:href="pitches_8hpp.xhtml" target="_top" xlink:title=" ">
<polygon fill="white" stroke="#666666" points="412,-74 346,-74 346,-55 412,-55 412,-74"/>
<text text-anchor="middle" x="379" y="-62" font-family="Helvetica,sans-Serif" font-size="10.00">pitches.hpp</text>
</a>
</g>
</g>
<!-- Node1&#45;&gt;Node10 -->
<g id="edge9" class="edge">
<title>Node1&#45;&gt;Node10</title>
<path fill="none" stroke="#63b8ff" d="M295.8,-164.64C309.7,-156.7 329.32,-144 343,-129 355.02,-115.82 364.71,-97.94 370.99,-84.5"/>
<polygon fill="#63b8ff" stroke="#63b8ff" points="374.15,-86.02 375,-75.46 367.75,-83.19 374.15,-86.02"/>
</g>
<!-- Node11 -->
<g id="node11" class="node">
<title>Node11</title>
<g id="a_node11"><a xlink:href="serial__port_8hpp.xhtml" target="_top" xlink:title=" ">
<polygon fill="white" stroke="#666666" points="489,-129 409,-129 409,-110 489,-110 489,-129"/>
<text text-anchor="middle" x="449" y="-117" font-family="Helvetica,sans-Serif" font-size="10.00">serial_port.hpp</text>
</a>
</g>
</g>
<!-- Node1&#45;&gt;Node11 -->
<g id="edge11" class="edge">
<title>Node1&#45;&gt;Node11</title>
<path fill="none" stroke="#63b8ff" d="M307.84,-164.51C335.76,-155.8 378.33,-142.53 409.42,-132.84"/>
<polygon fill="#63b8ff" stroke="#63b8ff" points="410.35,-136.21 418.86,-129.9 408.27,-129.53 410.35,-136.21"/>
</g>
<!-- Node15 -->
<g id="node15" class="node">
<title>Node15</title>
<g id="a_node15"><a xlink:title=" ">
<polygon fill="#e0e0e0" stroke="#999999" points="548.5,-129 507.5,-129 507.5,-110 548.5,-110 548.5,-129"/>
<text text-anchor="middle" x="528" y="-117" font-family="Helvetica,sans-Serif" font-size="10.00">string</text>
</a>
</g>
</g>
<!-- Node1&#45;&gt;Node15 -->
<g id="edge17" class="edge">
<title>Node1&#45;&gt;Node15</title>
<path fill="none" stroke="#63b8ff" d="M315.23,-167.01C356.59,-159.4 426.53,-145.98 495.94,-129.34"/>
<polygon fill="#63b8ff" stroke="#63b8ff" points="496.71,-132.76 505.6,-127 495.06,-125.96 496.71,-132.76"/>
</g>
<!-- Node4 -->
<g id="node4" class="node">
<title>Node4</title>
<g id="a_node4"><a xlink:href="framework__config_8hpp.xhtml" target="_top" xlink:title="Provides defintions which are specific for the used framework.">
<polygon fill="white" stroke="#666666" points="223.5,-74 112.5,-74 112.5,-55 223.5,-55 223.5,-74"/>
<text text-anchor="middle" x="168" y="-62" font-family="Helvetica,sans-Serif" font-size="10.00">framework_config.hpp</text>
</a>
</g>
</g>
<!-- Node3&#45;&gt;Node4 -->
<g id="edge3" class="edge">
<title>Node3&#45;&gt;Node4</title>
<path fill="none" stroke="#63b8ff" d="M173.84,-109.75C172.98,-103.19 171.76,-93.95 170.66,-85.6"/>
<polygon fill="#63b8ff" stroke="#63b8ff" points="174.16,-85.4 169.38,-75.94 167.22,-86.31 174.16,-85.4"/>
</g>
<!-- Node4&#45;&gt;Node5 -->
<g id="edge4" class="edge">
<title>Node4&#45;&gt;Node5</title>
<path fill="none" stroke="#63b8ff" d="M154.26,-54.51C142.2,-46.62 124.41,-34.98 110.16,-25.65"/>
<polygon fill="#63b8ff" stroke="#63b8ff" points="112.09,-22.73 101.8,-20.19 108.26,-28.59 112.09,-22.73"/>
</g>
<!-- Node4&#45;&gt;Node6 -->
<g id="edge5" class="edge">
<title>Node4&#45;&gt;Node6</title>
<path fill="none" stroke="#63b8ff" d="M182.25,-54.51C194.88,-46.54 213.56,-34.75 228.41,-25.38"/>
<polygon fill="#63b8ff" stroke="#63b8ff" points="230.09,-28.46 236.68,-20.17 226.36,-22.54 230.09,-28.46"/>
</g>
<!-- Node7 -->
<g id="node7" class="node">
<title>Node7</title>
<g id="a_node7"><a xlink:title=" ">
<polygon fill="#e0e0e0" stroke="#999999" points="199,-19 137,-19 137,0 199,0 199,-19"/>
<text text-anchor="middle" x="168" y="-7" font-family="Helvetica,sans-Serif" font-size="10.00">type_traits</text>
</a>
</g>
</g>
<!-- Node4&#45;&gt;Node7 -->
<g id="edge6" class="edge">
<title>Node4&#45;&gt;Node7</title>
<path fill="none" stroke="#63b8ff" d="M168,-54.75C168,-48.27 168,-39.16 168,-30.9"/>
<polygon fill="#63b8ff" stroke="#63b8ff" points="171.5,-30.96 168,-20.96 164.5,-30.96 171.5,-30.96"/>
</g>
<!-- Node9 -->
<g id="node9" class="node">
<title>Node9</title>
<g id="a_node9"><a xlink:title=" ">
<polygon fill="#e0e0e0" stroke="#999999" points="328,-74 280,-74 280,-55 328,-55 328,-74"/>
<text text-anchor="middle" x="304" y="-62" font-family="Helvetica,sans-Serif" font-size="10.00">stdint.h</text>
</a>
</g>
</g>
<!-- Node8&#45;&gt;Node9 -->
<g id="edge8" class="edge">
<title>Node8&#45;&gt;Node9</title>
<path fill="none" stroke="#63b8ff" d="M306.5,-109.75C306.14,-103.27 305.62,-94.16 305.15,-85.9"/>
<polygon fill="#63b8ff" stroke="#63b8ff" points="308.65,-85.74 304.59,-75.95 301.66,-86.13 308.65,-85.74"/>
</g>
<!-- Node10&#45;&gt;Node6 -->
<g id="edge10" class="edge">
<title>Node10&#45;&gt;Node6</title>
<path fill="none" stroke="#63b8ff" d="M357.46,-54.51C337.26,-46.08 306.83,-33.38 283.84,-23.79"/>
<polygon fill="#63b8ff" stroke="#63b8ff" points="285.2,-20.56 274.62,-19.94 282.5,-27.02 285.2,-20.56"/>
</g>
<!-- Node12 -->
<g id="node12" class="node">
<title>Node12</title>
<g id="a_node12"><a xlink:title=" ">
<polygon fill="#e0e0e0" stroke="#999999" points="468,-74 430,-74 430,-55 468,-55 468,-74"/>
<text text-anchor="middle" x="449" y="-62" font-family="Helvetica,sans-Serif" font-size="10.00">array</text>
</a>
</g>
</g>
<!-- Node11&#45;&gt;Node12 -->
<g id="edge12" class="edge">
<title>Node11&#45;&gt;Node12</title>
<path fill="none" stroke="#63b8ff" d="M449,-109.75C449,-103.27 449,-94.16 449,-85.9"/>
<polygon fill="#63b8ff" stroke="#63b8ff" points="452.5,-85.96 449,-75.96 445.5,-85.96 452.5,-85.96"/>
</g>
<!-- Node13 -->
<g id="node13" class="node">
<title>Node13</title>
<g id="a_node13"><a xlink:title=" ">
<polygon fill="#e0e0e0" stroke="#999999" points="535.5,-74 486.5,-74 486.5,-55 535.5,-55 535.5,-74"/>
<text text-anchor="middle" x="511" y="-62" font-family="Helvetica,sans-Serif" font-size="10.00">istream</text>
</a>
</g>
</g>
<!-- Node11&#45;&gt;Node13 -->
<g id="edge13" class="edge">
<title>Node11&#45;&gt;Node13</title>
<path fill="none" stroke="#63b8ff" d="M459.52,-109.51C468.39,-101.93 481.31,-90.88 491.99,-81.75"/>
<polygon fill="#63b8ff" stroke="#63b8ff" points="494.16,-84.5 499.49,-75.34 489.61,-79.18 494.16,-84.5"/>
</g>
<!-- Node14 -->
<g id="node14" class="node">
<title>Node14</title>
<g id="a_node14"><a xlink:title=" ">
<polygon fill="#e0e0e0" stroke="#999999" points="606,-74 554,-74 554,-55 606,-55 606,-74"/>
<text text-anchor="middle" x="580" y="-62" font-family="Helvetica,sans-Serif" font-size="10.00">ostream</text>
</a>
</g>
</g>
<!-- Node11&#45;&gt;Node14 -->
<g id="edge14" class="edge">
<title>Node11&#45;&gt;Node14</title>
<path fill="none" stroke="#63b8ff" d="M471.22,-109.51C492.14,-101.04 523.73,-88.27 547.48,-78.66"/>
<polygon fill="#63b8ff" stroke="#63b8ff" points="548.75,-81.92 556.7,-74.93 546.12,-75.43 548.75,-81.92"/>
</g>
</g>
</svg>
