<?xml version="1.0" encoding="UTF-8" standalone="no"?>
<!DOCTYPE svg PUBLIC "-//W3C//DTD SVG 1.1//EN"
 "http://www.w3.org/Graphics/SVG/1.1/DTD/svg11.dtd">
<!-- Generated by graphviz version 7.0.5 (20221223.1930)
 -->
<!-- Title: lib/3rd_party_adapters/SerialOutputStreamBuffer.cpp Pages: 1 -->
<svg width="295pt" height="148pt"
 viewBox="0.00 0.00 294.50 148.00" xmlns="http://www.w3.org/2000/svg" xmlns:xlink="http://www.w3.org/1999/xlink">
<g id="graph0" class="graph" transform="scale(1 1) rotate(0) translate(4 144)">
<title>lib/3rd_party_adapters/SerialOutputStreamBuffer.cpp</title>
<!-- Node1 -->
<g id="node1" class="node">
<title>Node1</title>
<g id="a_node1"><a xlink:title=" ">
<polygon fill="#999999" stroke="#666666" points="267.5,-140 118.5,-140 118.5,-110 267.5,-110 267.5,-140"/>
<text text-anchor="start" x="126.5" y="-128" font-family="Helvetica,sans-Serif" font-size="10.00">lib/3rd_party_adapters</text>
<text text-anchor="middle" x="193" y="-117" font-family="Helvetica,sans-Serif" font-size="10.00">/SerialOutputStreamBuffer.cpp</text>
</a>
</g>
</g>
<!-- Node2 -->
<g id="node2" class="node">
<title>Node2</title>
<g id="a_node2"><a xlink:href="SerialOutputStreamBuffer_8hpp.xhtml" target="_top" xlink:title=" ">
<polygon fill="white" stroke="#666666" points="146,-74 0,-74 0,-55 146,-55 146,-74"/>
<text text-anchor="middle" x="73" y="-62" font-family="Helvetica,sans-Serif" font-size="10.00">SerialOutputStreamBuffer.hpp</text>
</a>
</g>
</g>
<!-- Node1&#45;&gt;Node2 -->
<g id="edge1" class="edge">
<title>Node1&#45;&gt;Node2</title>
<path fill="none" stroke="#63b8ff" d="M163.34,-109.54C144.42,-100.32 120.05,-88.44 101.39,-79.34"/>
<polygon fill="#63b8ff" stroke="#63b8ff" points="103.03,-76.25 92.51,-75.01 99.96,-82.54 103.03,-76.25"/>
</g>
<!-- Node4 -->
<g id="node4" class="node">
<title>Node4</title>
<g id="a_node4"><a xlink:title=" ">
<polygon fill="#e0e0e0" stroke="#999999" points="221.5,-74 164.5,-74 164.5,-55 221.5,-55 221.5,-74"/>
<text text-anchor="middle" x="193" y="-62" font-family="Helvetica,sans-Serif" font-size="10.00">Arduino.h</text>
</a>
</g>
</g>
<!-- Node1&#45;&gt;Node4 -->
<g id="edge3" class="edge">
<title>Node1&#45;&gt;Node4</title>
<path fill="none" stroke="#63b8ff" d="M193,-109.54C193,-102.34 193,-93.53 193,-85.68"/>
<polygon fill="#63b8ff" stroke="#63b8ff" points="196.5,-85.69 193,-75.69 189.5,-85.69 196.5,-85.69"/>
</g>
<!-- Node5 -->
<g id="node5" class="node">
<title>Node5</title>
<g id="a_node5"><a xlink:title=" ">
<polygon fill="#e0e0e0" stroke="#999999" points="286.5,-74 239.5,-74 239.5,-55 286.5,-55 286.5,-74"/>
<text text-anchor="middle" x="263" y="-62" font-family="Helvetica,sans-Serif" font-size="10.00">iterator</text>
</a>
</g>
</g>
<!-- Node1&#45;&gt;Node5 -->
<g id="edge4" class="edge">
<title>Node1&#45;&gt;Node5</title>
<path fill="none" stroke="#63b8ff" d="M210.3,-109.54C220.47,-101.04 233.34,-90.29 243.82,-81.53"/>
<polygon fill="#63b8ff" stroke="#63b8ff" points="246.03,-84.24 251.46,-75.15 241.54,-78.87 246.03,-84.24"/>
</g>
<!-- Node3 -->
<g id="node3" class="node">
<title>Node3</title>
<g id="a_node3"><a xlink:title=" ">
<polygon fill="#e0e0e0" stroke="#999999" points="103,-19 43,-19 43,0 103,0 103,-19"/>
<text text-anchor="middle" x="73" y="-7" font-family="Helvetica,sans-Serif" font-size="10.00">streambuf</text>
</a>
</g>
</g>
<!-- Node2&#45;&gt;Node3 -->
<g id="edge2" class="edge">
<title>Node2&#45;&gt;Node3</title>
<path fill="none" stroke="#63b8ff" d="M73,-54.75C73,-48.27 73,-39.16 73,-30.9"/>
<polygon fill="#63b8ff" stroke="#63b8ff" points="76.5,-30.96 73,-20.96 69.5,-30.96 76.5,-30.96"/>
</g>
</g>
</svg>
