<?xml version="1.0" encoding="UTF-8" standalone="no"?>
<!DOCTYPE svg PUBLIC "-//W3C//DTD SVG 1.1//EN"
 "http://www.w3.org/Graphics/SVG/1.1/DTD/svg11.dtd">
<!-- Generated by graphviz version 7.0.5 (20221223.1930)
 -->
<!-- Title: lib/3rd_party_adapters/serial_port.cpp Pages: 1 -->
<svg width="657pt" height="148pt"
 viewBox="0.00 0.00 656.50 148.00" xmlns="http://www.w3.org/2000/svg" xmlns:xlink="http://www.w3.org/1999/xlink">
<g id="graph0" class="graph" transform="scale(1 1) rotate(0) translate(4 144)">
<title>lib/3rd_party_adapters/serial_port.cpp</title>
<!-- Node1 -->
<g id="node1" class="node">
<title>Node1</title>
<g id="a_node1"><a xlink:title=" ">
<polygon fill="#999999" stroke="#666666" points="484,-140 372,-140 372,-110 484,-110 484,-140"/>
<text text-anchor="start" x="380" y="-128" font-family="Helvetica,sans-Serif" font-size="10.00">lib/3rd_party_adapters</text>
<text text-anchor="middle" x="428" y="-117" font-family="Helvetica,sans-Serif" font-size="10.00">/serial_port.cpp</text>
</a>
</g>
</g>
<!-- Node2 -->
<g id="node2" class="node">
<title>Node2</title>
<g id="a_node2"><a xlink:href="serial__port_8hpp.xhtml" target="_top" xlink:title=" ">
<polygon fill="white" stroke="#666666" points="121,-74 41,-74 41,-55 121,-55 121,-74"/>
<text text-anchor="middle" x="81" y="-62" font-family="Helvetica,sans-Serif" font-size="10.00">serial_port.hpp</text>
</a>
</g>
</g>
<!-- Node1&#45;&gt;Node2 -->
<g id="edge1" class="edge">
<title>Node1&#45;&gt;Node2</title>
<path fill="none" stroke="#63b8ff" d="M371.69,-114.65C314.15,-105.07 221.92,-89.66 132.54,-74.43"/>
<polygon fill="#63b8ff" stroke="#63b8ff" points="133.31,-71.01 122.87,-72.78 132.13,-77.91 133.31,-71.01"/>
</g>
<!-- Node6 -->
<g id="node6" class="node">
<title>Node6</title>
<g id="a_node6"><a xlink:href="SerialInputStreamBuffer_8hpp.xhtml" target="_top" xlink:title=" ">
<polygon fill="white" stroke="#666666" points="277,-74 139,-74 139,-55 277,-55 277,-74"/>
<text text-anchor="middle" x="208" y="-62" font-family="Helvetica,sans-Serif" font-size="10.00">SerialInputStreamBuffer.hpp</text>
</a>
</g>
</g>
<!-- Node1&#45;&gt;Node6 -->
<g id="edge5" class="edge">
<title>Node1&#45;&gt;Node6</title>
<path fill="none" stroke="#63b8ff" d="M373.62,-109.54C336.3,-99.62 287.4,-86.61 252.42,-77.31"/>
<polygon fill="#63b8ff" stroke="#63b8ff" points="253.62,-74.01 243.05,-74.82 251.82,-80.77 253.62,-74.01"/>
</g>
<!-- Node8 -->
<g id="node8" class="node">
<title>Node8</title>
<g id="a_node8"><a xlink:href="SerialOutputStreamBuffer_8hpp.xhtml" target="_top" xlink:title=" ">
<polygon fill="white" stroke="#666666" points="441,-74 295,-74 295,-55 441,-55 441,-74"/>
<text text-anchor="middle" x="368" y="-62" font-family="Helvetica,sans-Serif" font-size="10.00">SerialOutputStreamBuffer.hpp</text>
</a>
</g>
</g>
<!-- Node1&#45;&gt;Node8 -->
<g id="edge7" class="edge">
<title>Node1&#45;&gt;Node8</title>
<path fill="none" stroke="#63b8ff" d="M413.17,-109.54C404.63,-101.22 393.87,-90.72 384.99,-82.07"/>
<polygon fill="#63b8ff" stroke="#63b8ff" points="387.58,-79.71 377.98,-75.23 382.7,-84.72 387.58,-79.71"/>
</g>
<!-- Node9 -->
<g id="node9" class="node">
<title>Node9</title>
<g id="a_node9"><a xlink:title=" ">
<polygon fill="#e0e0e0" stroke="#999999" points="516.5,-74 459.5,-74 459.5,-55 516.5,-55 516.5,-74"/>
<text text-anchor="middle" x="488" y="-62" font-family="Helvetica,sans-Serif" font-size="10.00">Arduino.h</text>
</a>
</g>
</g>
<!-- Node1&#45;&gt;Node9 -->
<g id="edge9" class="edge">
<title>Node1&#45;&gt;Node9</title>
<path fill="none" stroke="#63b8ff" d="M442.83,-109.54C451.37,-101.22 462.13,-90.72 471.01,-82.07"/>
<polygon fill="#63b8ff" stroke="#63b8ff" points="473.3,-84.72 478.02,-75.23 468.42,-79.71 473.3,-84.72"/>
</g>
<!-- Node10 -->
<g id="node10" class="node">
<title>Node10</title>
<g id="a_node10"><a xlink:title=" ">
<polygon fill="#e0e0e0" stroke="#999999" points="583.5,-74 534.5,-74 534.5,-55 583.5,-55 583.5,-74"/>
<text text-anchor="middle" x="559" y="-62" font-family="Helvetica,sans-Serif" font-size="10.00">cstddef</text>
</a>
</g>
</g>
<!-- Node1&#45;&gt;Node10 -->
<g id="edge10" class="edge">
<title>Node1&#45;&gt;Node10</title>
<path fill="none" stroke="#63b8ff" d="M460.38,-109.54C481.32,-100.19 508.38,-88.1 528.86,-78.96"/>
<polygon fill="#63b8ff" stroke="#63b8ff" points="530.1,-82.24 537.81,-74.96 527.25,-75.85 530.1,-82.24"/>
</g>
<!-- Node11 -->
<g id="node11" class="node">
<title>Node11</title>
<g id="a_node11"><a xlink:title=" ">
<polygon fill="#e0e0e0" stroke="#999999" points="648.5,-74 601.5,-74 601.5,-55 648.5,-55 648.5,-74"/>
<text text-anchor="middle" x="625" y="-62" font-family="Helvetica,sans-Serif" font-size="10.00">iterator</text>
</a>
</g>
</g>
<!-- Node1&#45;&gt;Node11 -->
<g id="edge11" class="edge">
<title>Node1&#45;&gt;Node11</title>
<path fill="none" stroke="#63b8ff" d="M476.7,-109.54C511.91,-99.08 558.65,-85.2 590.17,-75.84"/>
<polygon fill="#63b8ff" stroke="#63b8ff" points="591,-79.25 599.59,-73.05 589.01,-72.54 591,-79.25"/>
</g>
<!-- Node3 -->
<g id="node3" class="node">
<title>Node3</title>
<g id="a_node3"><a xlink:title=" ">
<polygon fill="#e0e0e0" stroke="#999999" points="38,-19 0,-19 0,0 38,0 38,-19"/>
<text text-anchor="middle" x="19" y="-7" font-family="Helvetica,sans-Serif" font-size="10.00">array</text>
</a>
</g>
</g>
<!-- Node2&#45;&gt;Node3 -->
<g id="edge2" class="edge">
<title>Node2&#45;&gt;Node3</title>
<path fill="none" stroke="#63b8ff" d="M70.48,-54.51C61.61,-46.93 48.69,-35.88 38.01,-26.75"/>
<polygon fill="#63b8ff" stroke="#63b8ff" points="40.39,-24.18 30.51,-20.34 35.84,-29.5 40.39,-24.18"/>
</g>
<!-- Node4 -->
<g id="node4" class="node">
<title>Node4</title>
<g id="a_node4"><a xlink:title=" ">
<polygon fill="#e0e0e0" stroke="#999999" points="105.5,-19 56.5,-19 56.5,0 105.5,0 105.5,-19"/>
<text text-anchor="middle" x="81" y="-7" font-family="Helvetica,sans-Serif" font-size="10.00">istream</text>
</a>
</g>
</g>
<!-- Node2&#45;&gt;Node4 -->
<g id="edge3" class="edge">
<title>Node2&#45;&gt;Node4</title>
<path fill="none" stroke="#63b8ff" d="M81,-54.75C81,-48.27 81,-39.16 81,-30.9"/>
<polygon fill="#63b8ff" stroke="#63b8ff" points="84.5,-30.96 81,-20.96 77.5,-30.96 84.5,-30.96"/>
</g>
<!-- Node5 -->
<g id="node5" class="node">
<title>Node5</title>
<g id="a_node5"><a xlink:title=" ">
<polygon fill="#e0e0e0" stroke="#999999" points="176,-19 124,-19 124,0 176,0 176,-19"/>
<text text-anchor="middle" x="150" y="-7" font-family="Helvetica,sans-Serif" font-size="10.00">ostream</text>
</a>
</g>
</g>
<!-- Node2&#45;&gt;Node5 -->
<g id="edge4" class="edge">
<title>Node2&#45;&gt;Node5</title>
<path fill="none" stroke="#63b8ff" d="M92.7,-54.51C102.78,-46.77 117.54,-35.43 129.56,-26.2"/>
<polygon fill="#63b8ff" stroke="#63b8ff" points="131.47,-29.15 137.27,-20.28 127.21,-23.6 131.47,-29.15"/>
</g>
<!-- Node7 -->
<g id="node7" class="node">
<title>Node7</title>
<g id="a_node7"><a xlink:title=" ">
<polygon fill="#e0e0e0" stroke="#999999" points="326,-19 266,-19 266,0 326,0 326,-19"/>
<text text-anchor="middle" x="296" y="-7" font-family="Helvetica,sans-Serif" font-size="10.00">streambuf</text>
</a>
</g>
</g>
<!-- Node6&#45;&gt;Node7 -->
<g id="edge6" class="edge">
<title>Node6&#45;&gt;Node7</title>
<path fill="none" stroke="#63b8ff" d="M222.93,-54.51C236.28,-46.47 256.11,-34.53 271.74,-25.11"/>
<polygon fill="#63b8ff" stroke="#63b8ff" points="273.24,-28.3 280,-20.14 269.62,-22.3 273.24,-28.3"/>
</g>
<!-- Node8&#45;&gt;Node7 -->
<g id="edge8" class="edge">
<title>Node8&#45;&gt;Node7</title>
<path fill="none" stroke="#63b8ff" d="M355.79,-54.51C345.17,-46.7 329.56,-35.21 316.96,-25.93"/>
<polygon fill="#63b8ff" stroke="#63b8ff" points="319.38,-23.36 309.25,-20.26 315.23,-29 319.38,-23.36"/>
</g>
</g>
</svg>
