<?xml version="1.0" encoding="UTF-8" standalone="no"?>
<!DOCTYPE svg PUBLIC "-//W3C//DTD SVG 1.1//EN"
 "http://www.w3.org/Graphics/SVG/1.1/DTD/svg11.dtd">
<!-- Generated by graphviz version 7.0.5 (20221223.1930)
 -->
<!-- Title: lib/application_business_rules/serial_port.hpp Pages: 1 -->
<svg width="370pt" height="104pt"
 viewBox="0.00 0.00 369.50 104.00" xmlns="http://www.w3.org/2000/svg" xmlns:xlink="http://www.w3.org/1999/xlink">
<g id="graph0" class="graph" transform="scale(1 1) rotate(0) translate(4 100)">
<title>lib/application_business_rules/serial_port.hpp</title>
<!-- Node1 -->
<g id="node1" class="node">
<title>Node1</title>
<g id="a_node1"><a xlink:title=" ">
<polygon fill="#999999" stroke="#666666" points="275.5,-96 155.5,-96 155.5,-66 275.5,-66 275.5,-96"/>
<text text-anchor="start" x="163.5" y="-84" font-family="Helvetica,sans-Serif" font-size="10.00">lib/application_business</text>
<text text-anchor="middle" x="215.5" y="-73" font-family="Helvetica,sans-Serif" font-size="10.00">_rules/serial_port.hpp</text>
</a>
</g>
</g>
<!-- Node2 -->
<g id="node2" class="node">
<title>Node2</title>
<g id="a_node2"><a xlink:href="SerialInputStreamBuffer_8cpp.xhtml" target="_top" xlink:title=" ">
<polygon fill="white" stroke="#666666" points="141,-30 0,-30 0,0 141,0 141,-30"/>
<text text-anchor="start" x="8" y="-18" font-family="Helvetica,sans-Serif" font-size="10.00">lib/3rd_party_adapters</text>
<text text-anchor="middle" x="70.5" y="-7" font-family="Helvetica,sans-Serif" font-size="10.00">/SerialInputStreamBuffer.cpp</text>
</a>
</g>
</g>
<!-- Node1&#45;&gt;Node2 -->
<g id="edge1" class="edge">
<title>Node1&#45;&gt;Node2</title>
<path fill="none" stroke="#63b8ff" d="M172.47,-61.01C150.28,-51.22 123.66,-39.46 103.18,-30.43"/>
<polygon fill="#63b8ff" stroke="#63b8ff" points="171.01,-64.19 181.57,-65.03 173.84,-57.79 171.01,-64.19"/>
</g>
<!-- Node3 -->
<g id="node3" class="node">
<title>Node3</title>
<g id="a_node3"><a xlink:href="serial__port_8cpp.xhtml" target="_top" xlink:title=" ">
<polygon fill="white" stroke="#666666" points="271.5,-30 159.5,-30 159.5,0 271.5,0 271.5,-30"/>
<text text-anchor="start" x="167.5" y="-18" font-family="Helvetica,sans-Serif" font-size="10.00">lib/3rd_party_adapters</text>
<text text-anchor="middle" x="215.5" y="-7" font-family="Helvetica,sans-Serif" font-size="10.00">/serial_port.cpp</text>
</a>
</g>
</g>
<!-- Node1&#45;&gt;Node3 -->
<g id="edge2" class="edge">
<title>Node1&#45;&gt;Node3</title>
<path fill="none" stroke="#63b8ff" d="M215.5,-54.39C215.5,-46.13 215.5,-37.28 215.5,-30.16"/>
<polygon fill="#63b8ff" stroke="#63b8ff" points="212,-54.28 215.5,-64.28 219,-54.28 212,-54.28"/>
</g>
<!-- Node4 -->
<g id="node4" class="node">
<title>Node4</title>
<g id="a_node4"><a xlink:href="main_8cpp.xhtml" target="_top" xlink:title=" ">
<polygon fill="white" stroke="#666666" points="361.5,-24.5 289.5,-24.5 289.5,-5.5 361.5,-5.5 361.5,-24.5"/>
<text text-anchor="middle" x="325.5" y="-12.5" font-family="Helvetica,sans-Serif" font-size="10.00">src/main.cpp</text>
</a>
</g>
</g>
<!-- Node1&#45;&gt;Node4 -->
<g id="edge3" class="edge">
<title>Node1&#45;&gt;Node4</title>
<path fill="none" stroke="#63b8ff" d="M249.96,-59.95C270.11,-48.23 294.54,-34.01 310.06,-24.99"/>
<polygon fill="#63b8ff" stroke="#63b8ff" points="248.38,-56.82 241.49,-64.88 251.9,-62.87 248.38,-56.82"/>
</g>
</g>
</svg>
