<?xml version="1.0" encoding="UTF-8" standalone="no"?>
<!DOCTYPE svg PUBLIC "-//W3C//DTD SVG 1.1//EN"
 "http://www.w3.org/Graphics/SVG/1.1/DTD/svg11.dtd">
<!-- Generated by graphviz version 7.0.5 (20221223.1930)
 -->
<!-- Title: lib/3rd_party_adapters/SerialInputStreamBuffer.cpp Pages: 1 -->
<svg width="460pt" height="148pt"
 viewBox="0.00 0.00 459.50 148.00" xmlns="http://www.w3.org/2000/svg" xmlns:xlink="http://www.w3.org/1999/xlink">
<g id="graph0" class="graph" transform="scale(1 1) rotate(0) translate(4 144)">
<title>lib/3rd_party_adapters/SerialInputStreamBuffer.cpp</title>
<!-- Node1 -->
<g id="node1" class="node">
<title>Node1</title>
<g id="a_node1"><a xlink:title=" ">
<polygon fill="#999999" stroke="#666666" points="353.5,-140 212.5,-140 212.5,-110 353.5,-110 353.5,-140"/>
<text text-anchor="start" x="220.5" y="-128" font-family="Helvetica,sans-Serif" font-size="10.00">lib/3rd_party_adapters</text>
<text text-anchor="middle" x="283" y="-117" font-family="Helvetica,sans-Serif" font-size="10.00">/SerialInputStreamBuffer.cpp</text>
</a>
</g>
</g>
<!-- Node2 -->
<g id="node2" class="node">
<title>Node2</title>
<g id="a_node2"><a xlink:href="SerialInputStreamBuffer_8hpp.xhtml" target="_top" xlink:title=" ">
<polygon fill="white" stroke="#666666" points="138,-74 0,-74 0,-55 138,-55 138,-74"/>
<text text-anchor="middle" x="69" y="-62" font-family="Helvetica,sans-Serif" font-size="10.00">SerialInputStreamBuffer.hpp</text>
</a>
</g>
</g>
<!-- Node1&#45;&gt;Node2 -->
<g id="edge1" class="edge">
<title>Node1&#45;&gt;Node2</title>
<path fill="none" stroke="#63b8ff" d="M230.1,-109.54C193.96,-99.66 146.65,-86.73 112.66,-77.43"/>
<polygon fill="#63b8ff" stroke="#63b8ff" points="113.7,-74.09 103.13,-74.83 111.86,-80.84 113.7,-74.09"/>
</g>
<!-- Node4 -->
<g id="node4" class="node">
<title>Node4</title>
<g id="a_node4"><a xlink:href="serial__port_8hpp.xhtml" target="_top" xlink:title=" ">
<polygon fill="white" stroke="#666666" points="236,-74 156,-74 156,-55 236,-55 236,-74"/>
<text text-anchor="middle" x="196" y="-62" font-family="Helvetica,sans-Serif" font-size="10.00">serial_port.hpp</text>
</a>
</g>
</g>
<!-- Node1&#45;&gt;Node4 -->
<g id="edge3" class="edge">
<title>Node1&#45;&gt;Node4</title>
<path fill="none" stroke="#63b8ff" d="M261.49,-109.54C248.42,-100.75 231.75,-89.54 218.51,-80.63"/>
<polygon fill="#63b8ff" stroke="#63b8ff" points="220.66,-77.87 210.41,-75.19 216.76,-83.68 220.66,-77.87"/>
</g>
<!-- Node8 -->
<g id="node8" class="node">
<title>Node8</title>
<g id="a_node8"><a xlink:title=" ">
<polygon fill="#e0e0e0" stroke="#999999" points="311.5,-74 254.5,-74 254.5,-55 311.5,-55 311.5,-74"/>
<text text-anchor="middle" x="283" y="-62" font-family="Helvetica,sans-Serif" font-size="10.00">Arduino.h</text>
</a>
</g>
</g>
<!-- Node1&#45;&gt;Node8 -->
<g id="edge7" class="edge">
<title>Node1&#45;&gt;Node8</title>
<path fill="none" stroke="#63b8ff" d="M283,-109.54C283,-102.34 283,-93.53 283,-85.68"/>
<polygon fill="#63b8ff" stroke="#63b8ff" points="286.5,-85.69 283,-75.69 279.5,-85.69 286.5,-85.69"/>
</g>
<!-- Node9 -->
<g id="node9" class="node">
<title>Node9</title>
<g id="a_node9"><a xlink:title=" ">
<polygon fill="#e0e0e0" stroke="#999999" points="386,-74 330,-74 330,-55 386,-55 386,-74"/>
<text text-anchor="middle" x="358" y="-62" font-family="Helvetica,sans-Serif" font-size="10.00">algorithm</text>
</a>
</g>
</g>
<!-- Node1&#45;&gt;Node9 -->
<g id="edge8" class="edge">
<title>Node1&#45;&gt;Node9</title>
<path fill="none" stroke="#63b8ff" d="M301.54,-109.54C312.65,-100.87 326.79,-89.85 338.13,-81"/>
<polygon fill="#63b8ff" stroke="#63b8ff" points="339.95,-84.02 345.68,-75.11 335.65,-78.5 339.95,-84.02"/>
</g>
<!-- Node10 -->
<g id="node10" class="node">
<title>Node10</title>
<g id="a_node10"><a xlink:title=" ">
<polygon fill="#e0e0e0" stroke="#999999" points="451.5,-74 404.5,-74 404.5,-55 451.5,-55 451.5,-74"/>
<text text-anchor="middle" x="428" y="-62" font-family="Helvetica,sans-Serif" font-size="10.00">iterator</text>
</a>
</g>
</g>
<!-- Node1&#45;&gt;Node10 -->
<g id="edge9" class="edge">
<title>Node1&#45;&gt;Node10</title>
<path fill="none" stroke="#63b8ff" d="M318.84,-109.54C342.34,-100.06 372.8,-87.77 395.58,-78.58"/>
<polygon fill="#63b8ff" stroke="#63b8ff" points="396.71,-81.9 404.67,-74.91 394.09,-75.41 396.71,-81.9"/>
</g>
<!-- Node3 -->
<g id="node3" class="node">
<title>Node3</title>
<g id="a_node3"><a xlink:title=" ">
<polygon fill="#e0e0e0" stroke="#999999" points="98,-19 38,-19 38,0 98,0 98,-19"/>
<text text-anchor="middle" x="68" y="-7" font-family="Helvetica,sans-Serif" font-size="10.00">streambuf</text>
</a>
</g>
</g>
<!-- Node2&#45;&gt;Node3 -->
<g id="edge2" class="edge">
<title>Node2&#45;&gt;Node3</title>
<path fill="none" stroke="#63b8ff" d="M68.83,-54.75C68.71,-48.27 68.54,-39.16 68.38,-30.9"/>
<polygon fill="#63b8ff" stroke="#63b8ff" points="71.89,-30.89 68.2,-20.96 64.89,-31.02 71.89,-30.89"/>
</g>
<!-- Node5 -->
<g id="node5" class="node">
<title>Node5</title>
<g id="a_node5"><a xlink:title=" ">
<polygon fill="#e0e0e0" stroke="#999999" points="154,-19 116,-19 116,0 154,0 154,-19"/>
<text text-anchor="middle" x="135" y="-7" font-family="Helvetica,sans-Serif" font-size="10.00">array</text>
</a>
</g>
</g>
<!-- Node4&#45;&gt;Node5 -->
<g id="edge4" class="edge">
<title>Node4&#45;&gt;Node5</title>
<path fill="none" stroke="#63b8ff" d="M185.65,-54.51C176.92,-46.93 164.21,-35.88 153.7,-26.75"/>
<polygon fill="#63b8ff" stroke="#63b8ff" points="156.18,-24.27 146.34,-20.35 151.59,-29.55 156.18,-24.27"/>
</g>
<!-- Node6 -->
<g id="node6" class="node">
<title>Node6</title>
<g id="a_node6"><a xlink:title=" ">
<polygon fill="#e0e0e0" stroke="#999999" points="221.5,-19 172.5,-19 172.5,0 221.5,0 221.5,-19"/>
<text text-anchor="middle" x="197" y="-7" font-family="Helvetica,sans-Serif" font-size="10.00">istream</text>
</a>
</g>
</g>
<!-- Node4&#45;&gt;Node6 -->
<g id="edge5" class="edge">
<title>Node4&#45;&gt;Node6</title>
<path fill="none" stroke="#63b8ff" d="M196.17,-54.75C196.29,-48.27 196.46,-39.16 196.62,-30.9"/>
<polygon fill="#63b8ff" stroke="#63b8ff" points="200.11,-31.02 196.8,-20.96 193.11,-30.89 200.11,-31.02"/>
</g>
<!-- Node7 -->
<g id="node7" class="node">
<title>Node7</title>
<g id="a_node7"><a xlink:title=" ">
<polygon fill="#e0e0e0" stroke="#999999" points="292,-19 240,-19 240,0 292,0 292,-19"/>
<text text-anchor="middle" x="266" y="-7" font-family="Helvetica,sans-Serif" font-size="10.00">ostream</text>
</a>
</g>
</g>
<!-- Node4&#45;&gt;Node7 -->
<g id="edge6" class="edge">
<title>Node4&#45;&gt;Node7</title>
<path fill="none" stroke="#63b8ff" d="M207.87,-54.51C218.09,-46.77 233.07,-35.43 245.26,-26.2"/>
<polygon fill="#63b8ff" stroke="#63b8ff" points="247.23,-29.1 253.09,-20.27 243.01,-23.52 247.23,-29.1"/>
</g>
</g>
</svg>
