<?xml version="1.0" encoding="UTF-8" standalone="no"?>
<!DOCTYPE svg PUBLIC "-//W3C//DTD SVG 1.1//EN"
 "http://www.w3.org/Graphics/SVG/1.1/DTD/svg11.dtd">
<!-- Generated by graphviz version 7.0.5 (20221223.1930)
 -->
<!-- Title: test Pages: 1 -->
<svg width="496pt" height="98pt"
 viewBox="0.00 0.00 496.00 98.00" xmlns="http://www.w3.org/2000/svg" xmlns:xlink="http://www.w3.org/1999/xlink">
<g id="graph0" class="graph" transform="scale(1 1) rotate(0) translate(4 94)">
<title>test</title>
<g id="clust1" class="cluster">
<title>clusterdir_13e138d54eb8818da29c3992edef070a</title>
<g id="a_clust1"><a xlink:href="dir_13e138d54eb8818da29c3992edef070a.xhtml" target="_top">
<polygon fill="#edf0f7" stroke="#404040" stroke-width="2" points="8,-47 8,-82 480,-82 480,-47 8,-47"/>
</a>
</g>
</g>
<!-- dir_13e138d54eb8818da29c3992edef070a -->
<g id="node1" class="node">
<title>dir_13e138d54eb8818da29c3992edef070a</title>
<text text-anchor="middle" x="455" y="-62" font-family="Helvetica,sans-Serif" font-size="10.00">test</text>
</g>
<!-- dir_96ee98e0a3ed0ab7302e1b0ef25efdfe -->
<g id="node2" class="node">
<title>dir_96ee98e0a3ed0ab7302e1b0ef25efdfe</title>
<g id="a_node2"><a xlink:href="dir_96ee98e0a3ed0ab7302e1b0ef25efdfe.xhtml" target="_top" xlink:title="test_cli">
<polygon fill="#c8d2e7" stroke="#404040" points="420,-74 372,-74 372,-55 420,-55 420,-74"/>
<text text-anchor="middle" x="396" y="-62" font-family="Helvetica,sans-Serif" font-size="10.00">test_cli</text>
</a>
</g>
</g>
<!-- dir_97aefd0d527b934f1d99a682da8fe6a9 -->
<g id="node7" class="node">
<title>dir_97aefd0d527b934f1d99a682da8fe6a9</title>
<g id="a_node7"><a xlink:href="dir_97aefd0d527b934f1d99a682da8fe6a9.xhtml" target="_top" xlink:title="lib">
<polygon fill="#edf0f7" stroke="red" points="246.5,-19 217.5,-19 217.5,0 246.5,0 246.5,-19"/>
<text text-anchor="middle" x="232" y="-7" font-family="Helvetica,sans-Serif" font-size="10.00">lib</text>
</a>
</g>
</g>
<!-- dir_96ee98e0a3ed0ab7302e1b0ef25efdfe&#45;&gt;dir_97aefd0d527b934f1d99a682da8fe6a9 -->
<g id="edge1" class="edge">
<title>dir_96ee98e0a3ed0ab7302e1b0ef25efdfe&#45;&gt;dir_97aefd0d527b934f1d99a682da8fe6a9</title>
<path fill="none" stroke="#63b8ff" d="M379.83,-54.64C374.56,-51.96 368.62,-49.16 363,-47 327.46,-33.31 284.7,-22.38 257.93,-16.17"/>
<polygon fill="#63b8ff" stroke="#63b8ff" points="258.84,-12.79 248.31,-13.99 257.29,-19.61 258.84,-12.79"/>
<g id="a_edge1&#45;headlabel"><a xlink:href="dir_000017_000009.xhtml" target="_top" xlink:title="1">
<text text-anchor="middle" x="261.5" y="-7.98" font-family="Helvetica,sans-Serif" font-size="10.00" fill="#63b8ff">1</text>
</a>
</g>
</g>
<!-- dir_d4007516cc9bfff50cad23dd85f3b823 -->
<g id="node3" class="node">
<title>dir_d4007516cc9bfff50cad23dd85f3b823</title>
<g id="a_node3"><a xlink:href="dir_d4007516cc9bfff50cad23dd85f3b823.xhtml" target="_top" xlink:title="test_hmi">
<polygon fill="#c8d2e7" stroke="#404040" points="354,-74 300,-74 300,-55 354,-55 354,-74"/>
<text text-anchor="middle" x="327" y="-62" font-family="Helvetica,sans-Serif" font-size="10.00">test_hmi</text>
</a>
</g>
</g>
<!-- dir_d4007516cc9bfff50cad23dd85f3b823&#45;&gt;dir_97aefd0d527b934f1d99a682da8fe6a9 -->
<g id="edge2" class="edge">
<title>dir_d4007516cc9bfff50cad23dd85f3b823&#45;&gt;dir_97aefd0d527b934f1d99a682da8fe6a9</title>
<path fill="none" stroke="#63b8ff" d="M310.88,-54.51C296.07,-46.24 273.87,-33.86 256.8,-24.34"/>
<polygon fill="#63b8ff" stroke="#63b8ff" points="258.7,-21.39 248.26,-19.57 255.29,-27.5 258.7,-21.39"/>
<g id="a_edge2&#45;headlabel"><a xlink:href="dir_000018_000009.xhtml" target="_top" xlink:title="12">
<text text-anchor="middle" x="261.9" y="-17.42" font-family="Helvetica,sans-Serif" font-size="10.00" fill="#63b8ff">12</text>
</a>
</g>
</g>
<!-- dir_4fd65a4ec3cd24baa43ea60e9bd570e2 -->
<g id="node4" class="node">
<title>dir_4fd65a4ec3cd24baa43ea60e9bd570e2</title>
<g id="a_node4"><a xlink:href="dir_4fd65a4ec3cd24baa43ea60e9bd570e2.xhtml" target="_top" xlink:title="test_string_helpers">
<polygon fill="#c8d2e7" stroke="#404040" points="281.5,-74 182.5,-74 182.5,-55 281.5,-55 281.5,-74"/>
<text text-anchor="middle" x="232" y="-62" font-family="Helvetica,sans-Serif" font-size="10.00">test_string_helpers</text>
</a>
</g>
</g>
<!-- dir_4fd65a4ec3cd24baa43ea60e9bd570e2&#45;&gt;dir_97aefd0d527b934f1d99a682da8fe6a9 -->
<g id="edge3" class="edge">
<title>dir_4fd65a4ec3cd24baa43ea60e9bd570e2&#45;&gt;dir_97aefd0d527b934f1d99a682da8fe6a9</title>
<path fill="none" stroke="#63b8ff" d="M232,-54.75C232,-48.27 232,-39.16 232,-30.9"/>
<polygon fill="#63b8ff" stroke="#63b8ff" points="235.5,-30.96 232,-20.96 228.5,-30.96 235.5,-30.96"/>
<g id="a_edge3&#45;headlabel"><a xlink:href="dir_000019_000009.xhtml" target="_top" xlink:title="1">
<text text-anchor="middle" x="238.34" y="-30.54" font-family="Helvetica,sans-Serif" font-size="10.00" fill="#63b8ff">1</text>
</a>
</g>
</g>
<!-- dir_24d5ee9663ee4cc920cf8960a9137137 -->
<g id="node5" class="node">
<title>dir_24d5ee9663ee4cc920cf8960a9137137</title>
<g id="a_node5"><a xlink:href="dir_24d5ee9663ee4cc920cf8960a9137137.xhtml" target="_top" xlink:title="test_tasks">
<polygon fill="#c8d2e7" stroke="#404040" points="164,-74 102,-74 102,-55 164,-55 164,-74"/>
<text text-anchor="middle" x="133" y="-62" font-family="Helvetica,sans-Serif" font-size="10.00">test_tasks</text>
</a>
</g>
</g>
<!-- dir_24d5ee9663ee4cc920cf8960a9137137&#45;&gt;dir_97aefd0d527b934f1d99a682da8fe6a9 -->
<g id="edge4" class="edge">
<title>dir_24d5ee9663ee4cc920cf8960a9137137&#45;&gt;dir_97aefd0d527b934f1d99a682da8fe6a9</title>
<path fill="none" stroke="#63b8ff" d="M149.79,-54.51C165.49,-46.11 189.13,-33.45 207.04,-23.86"/>
<polygon fill="#63b8ff" stroke="#63b8ff" points="208.57,-27.01 215.74,-19.21 205.27,-20.84 208.57,-27.01"/>
<g id="a_edge4&#45;headlabel"><a xlink:href="dir_000020_000009.xhtml" target="_top" xlink:title="1">
<text text-anchor="middle" x="208.08" y="-28" font-family="Helvetica,sans-Serif" font-size="10.00" fill="#63b8ff">1</text>
</a>
</g>
</g>
<!-- dir_45e8f5d81b0c5aba4eae92e1ebee21a6 -->
<g id="node6" class="node">
<title>dir_45e8f5d81b0c5aba4eae92e1ebee21a6</title>
<g id="a_node6"><a xlink:href="dir_45e8f5d81b0c5aba4eae92e1ebee21a6.xhtml" target="_top" xlink:title="test_worker">
<polygon fill="#c8d2e7" stroke="#404040" points="84,-74 16,-74 16,-55 84,-55 84,-74"/>
<text text-anchor="middle" x="50" y="-62" font-family="Helvetica,sans-Serif" font-size="10.00">test_worker</text>
</a>
</g>
</g>
<!-- dir_45e8f5d81b0c5aba4eae92e1ebee21a6&#45;&gt;dir_97aefd0d527b934f1d99a682da8fe6a9 -->
<g id="edge5" class="edge">
<title>dir_45e8f5d81b0c5aba4eae92e1ebee21a6&#45;&gt;dir_97aefd0d527b934f1d99a682da8fe6a9</title>
<path fill="none" stroke="#63b8ff" d="M71.71,-54.64C78.48,-52.02 86,-49.26 93,-47 132.07,-34.42 178.32,-22.93 206.39,-16.33"/>
<polygon fill="#63b8ff" stroke="#63b8ff" points="206.82,-19.83 215.76,-14.16 205.23,-13.01 206.82,-19.83"/>
<g id="a_edge5&#45;headlabel"><a xlink:href="dir_000021_000009.xhtml" target="_top" xlink:title="1">
<text text-anchor="middle" x="205.43" y="-20.56" font-family="Helvetica,sans-Serif" font-size="10.00" fill="#63b8ff">1</text>
</a>
</g>
</g>
</g>
</svg>
