<?xml version="1.0" encoding="UTF-8" standalone="no"?>
<!DOCTYPE svg PUBLIC "-//W3C//DTD SVG 1.1//EN"
 "http://www.w3.org/Graphics/SVG/1.1/DTD/svg11.dtd">
<!-- Generated by graphviz version 7.0.5 (20221223.1930)
 -->
<!-- Title: lib/board_adapters Pages: 1 -->
<svg width="381pt" height="207pt"
 viewBox="0.00 0.00 381.00 207.00" xmlns="http://www.w3.org/2000/svg" xmlns:xlink="http://www.w3.org/1999/xlink">
<g id="graph0" class="graph" transform="scale(1 1) rotate(0) translate(4 203)">
<title>lib/board_adapters</title>
<g id="clust1" class="cluster">
<title>clusterdir_97aefd0d527b934f1d99a682da8fe6a9</title>
<g id="a_clust1"><a xlink:href="dir_97aefd0d527b934f1d99a682da8fe6a9.xhtml" target="_top" xlink:title="lib">
<polygon fill="#edf0f7" stroke="#404040" stroke-dasharray="5,2" points="8,-8 8,-191 365,-191 365,-8 8,-8"/>
<text text-anchor="middle" x="186.5" y="-179" font-family="Helvetica,sans-Serif" font-size="10.00">lib</text>
</a>
</g>
</g>
<g id="clust2" class="cluster">
<title>clusterdir_b49365647f74dff1c8dd1e88d29293e4</title>
<g id="a_clust2"><a xlink:href="dir_b49365647f74dff1c8dd1e88d29293e4.xhtml" target="_top" xlink:title="Package Board Adapters.">
<polygon fill="#edf0f7" stroke="#404040" stroke-width="2" points="16,-74 16,-164 357,-164 357,-74 16,-74"/>
</a>
</g>
</g>
<!-- dir_6dbb42d2342d9d7292a192bc1d024acc -->
<g id="node1" class="node">
<title>dir_6dbb42d2342d9d7292a192bc1d024acc</title>
<g id="a_node1"><a xlink:href="dir_6dbb42d2342d9d7292a192bc1d024acc.xhtml" target="_top" xlink:title="Package Application Business Rules.">
<polygon fill="#c8d2e7" stroke="red" points="179.5,-46 72.5,-46 72.5,-16 179.5,-16 179.5,-46"/>
<text text-anchor="start" x="80.5" y="-34" font-family="Helvetica,sans-Serif" font-size="10.00">application_business</text>
<text text-anchor="middle" x="126" y="-23" font-family="Helvetica,sans-Serif" font-size="10.00">_rules</text>
</a>
</g>
</g>
<!-- dir_3a2f33b0f26bc6229d595c2c354e6333 -->
<g id="node2" class="node">
<title>dir_3a2f33b0f26bc6229d595c2c354e6333</title>
<g id="a_node2"><a xlink:href="dir_3a2f33b0f26bc6229d595c2c354e6333.xhtml" target="_top" xlink:title="Package Utilities.">
<polygon fill="#c8d2e7" stroke="#404040" points="274.5,-40.5 227.5,-40.5 227.5,-21.5 274.5,-21.5 274.5,-40.5"/>
<text text-anchor="middle" x="251" y="-28.5" font-family="Helvetica,sans-Serif" font-size="10.00">utilities</text>
</a>
</g>
</g>
<!-- dir_b49365647f74dff1c8dd1e88d29293e4 -->
<g id="node3" class="node">
<title>dir_b49365647f74dff1c8dd1e88d29293e4</title>
<text text-anchor="middle" x="175" y="-144" font-family="Helvetica,sans-Serif" font-size="10.00">board_adapters</text>
</g>
<!-- dir_b49365647f74dff1c8dd1e88d29293e4&#45;&gt;dir_6dbb42d2342d9d7292a192bc1d024acc -->
<g id="edge2" class="edge">
<title>dir_b49365647f74dff1c8dd1e88d29293e4&#45;&gt;dir_6dbb42d2342d9d7292a192bc1d024acc</title>
<path fill="none" stroke="#63b8ff" d="M162.9,-137.19C152.43,-129.24 137.91,-116.24 131,-101 124.92,-87.6 123.51,-71.23 123.7,-57.79"/>
<polygon fill="#63b8ff" stroke="#63b8ff" points="127.19,-58.11 124.16,-47.96 120.2,-57.79 127.19,-58.11"/>
<g id="a_edge2&#45;headlabel"><a xlink:href="dir_000003_000001.xhtml" target="_top" xlink:title="6">
<text text-anchor="middle" x="129.93" y="-57.83" font-family="Helvetica,sans-Serif" font-size="10.00" fill="#63b8ff">6</text>
</a>
</g>
</g>
<!-- dir_5d3f509552af106634de565dc9d6f33a -->
<g id="node5" class="node">
<title>dir_5d3f509552af106634de565dc9d6f33a</title>
<g id="a_node5"><a xlink:href="dir_5d3f509552af106634de565dc9d6f33a.xhtml" target="_top" xlink:title="sound_output_interface">
<polygon fill="#c8d2e7" stroke="#404040" points="273,-101 155,-101 155,-82 273,-82 273,-101"/>
<text text-anchor="middle" x="214" y="-89" font-family="Helvetica,sans-Serif" font-size="10.00">sound_output_interface</text>
</a>
</g>
</g>
<!-- dir_b49365647f74dff1c8dd1e88d29293e4&#45;&gt;dir_5d3f509552af106634de565dc9d6f33a -->
<g id="edge1" class="edge">
<title>dir_b49365647f74dff1c8dd1e88d29293e4&#45;&gt;dir_5d3f509552af106634de565dc9d6f33a</title>
<path fill="none" stroke="#63b8ff" d="M181.09,-137.22C186.38,-130.03 194.21,-119.39 200.91,-110.29"/>
<polygon fill="#63b8ff" stroke="#63b8ff" points="203.56,-112.6 206.66,-102.47 197.92,-108.45 203.56,-112.6"/>
<g id="a_edge1&#45;headlabel"><a xlink:href="dir_000003_000012.xhtml" target="_top" xlink:title="1">
<text text-anchor="middle" x="204.61" y="-113.46" font-family="Helvetica,sans-Serif" font-size="10.00" fill="#63b8ff">1</text>
</a>
</g>
</g>
<!-- dir_8d1ee3be5d3bd43266cde43195651fe0 -->
<g id="node4" class="node">
<title>dir_8d1ee3be5d3bd43266cde43195651fe0</title>
<g id="a_node4"><a xlink:href="dir_8d1ee3be5d3bd43266cde43195651fe0.xhtml" target="_top" xlink:title="input_device_interface">
<polygon fill="#c8d2e7" stroke="#404040" points="349,-156 235,-156 235,-137 349,-137 349,-156"/>
<text text-anchor="middle" x="292" y="-144" font-family="Helvetica,sans-Serif" font-size="10.00">input_device_interface</text>
</a>
</g>
</g>
<!-- dir_8d1ee3be5d3bd43266cde43195651fe0&#45;&gt;dir_6dbb42d2342d9d7292a192bc1d024acc -->
<g id="edge4" class="edge">
<title>dir_8d1ee3be5d3bd43266cde43195651fe0&#45;&gt;dir_6dbb42d2342d9d7292a192bc1d024acc</title>
<path fill="none" stroke="#63b8ff" d="M246.29,-136.53C208.96,-128.34 160.14,-115.34 146,-101 134.71,-89.55 129.72,-72.14 127.55,-57.67"/>
<polygon fill="#63b8ff" stroke="#63b8ff" points="131.04,-57.47 126.47,-47.91 124.09,-58.23 131.04,-57.47"/>
<g id="a_edge4&#45;headlabel"><a xlink:href="dir_000008_000001.xhtml" target="_top" xlink:title="2">
<text text-anchor="middle" x="134.09" y="-56.72" font-family="Helvetica,sans-Serif" font-size="10.00" fill="#63b8ff">2</text>
</a>
</g>
</g>
<!-- dir_8d1ee3be5d3bd43266cde43195651fe0&#45;&gt;dir_3a2f33b0f26bc6229d595c2c354e6333 -->
<g id="edge3" class="edge">
<title>dir_8d1ee3be5d3bd43266cde43195651fe0&#45;&gt;dir_3a2f33b0f26bc6229d595c2c354e6333</title>
<path fill="none" stroke="#63b8ff" d="M292.14,-136.78C292.07,-122.95 290.71,-95.35 282,-74 278.42,-65.23 272.6,-56.62 266.96,-49.51"/>
<polygon fill="#63b8ff" stroke="#63b8ff" points="269.73,-47.36 260.59,-42 264.4,-51.89 269.73,-47.36"/>
<g id="a_edge3&#45;headlabel"><a xlink:href="dir_000008_000022.xhtml" target="_top" xlink:title="1">
<text text-anchor="middle" x="273.24" y="-44.61" font-family="Helvetica,sans-Serif" font-size="10.00" fill="#63b8ff">1</text>
</a>
</g>
</g>
<!-- dir_5d3f509552af106634de565dc9d6f33a&#45;&gt;dir_6dbb42d2342d9d7292a192bc1d024acc -->
<g id="edge6" class="edge">
<title>dir_5d3f509552af106634de565dc9d6f33a&#45;&gt;dir_6dbb42d2342d9d7292a192bc1d024acc</title>
<path fill="none" stroke="#63b8ff" d="M200.63,-81.62C189.12,-73.96 172.04,-62.61 157.13,-52.69"/>
<polygon fill="#63b8ff" stroke="#63b8ff" points="159.25,-49.9 148.98,-47.28 155.37,-55.73 159.25,-49.9"/>
<g id="a_edge6&#45;headlabel"><a xlink:href="dir_000012_000001.xhtml" target="_top" xlink:title="1">
<text text-anchor="middle" x="162.55" y="-46.19" font-family="Helvetica,sans-Serif" font-size="10.00" fill="#63b8ff">1</text>
</a>
</g>
</g>
<!-- dir_5d3f509552af106634de565dc9d6f33a&#45;&gt;dir_3a2f33b0f26bc6229d595c2c354e6333 -->
<g id="edge5" class="edge">
<title>dir_5d3f509552af106634de565dc9d6f33a&#45;&gt;dir_3a2f33b0f26bc6229d595c2c354e6333</title>
<path fill="none" stroke="#63b8ff" d="M219.46,-81.87C224.71,-73.57 232.8,-60.78 239.47,-50.22"/>
<polygon fill="#63b8ff" stroke="#63b8ff" points="242.32,-52.27 244.71,-41.95 236.41,-48.53 242.32,-52.27"/>
<g id="a_edge5&#45;headlabel"><a xlink:href="dir_000012_000022.xhtml" target="_top" xlink:title="1">
<text text-anchor="middle" x="243.61" y="-53.05" font-family="Helvetica,sans-Serif" font-size="10.00" fill="#63b8ff">1</text>
</a>
</g>
</g>
<!-- dir_dd038f7b9d5ffa107a6117feec92b6ac -->
<g id="node6" class="node">
<title>dir_dd038f7b9d5ffa107a6117feec92b6ac</title>
<g id="a_node6"><a xlink:href="dir_dd038f7b9d5ffa107a6117feec92b6ac.xhtml" target="_top" xlink:title="status_indicators">
<polygon fill="#c8d2e7" stroke="#404040" points="115.5,-156 24.5,-156 24.5,-137 115.5,-137 115.5,-156"/>
<text text-anchor="middle" x="70" y="-144" font-family="Helvetica,sans-Serif" font-size="10.00">status_indicators</text>
</a>
</g>
</g>
<!-- dir_dd038f7b9d5ffa107a6117feec92b6ac&#45;&gt;dir_6dbb42d2342d9d7292a192bc1d024acc -->
<g id="edge7" class="edge">
<title>dir_dd038f7b9d5ffa107a6117feec92b6ac&#45;&gt;dir_6dbb42d2342d9d7292a192bc1d024acc</title>
<path fill="none" stroke="#63b8ff" d="M74.39,-136.59C82.79,-119.57 101.4,-81.86 113.82,-56.69"/>
<polygon fill="#63b8ff" stroke="#63b8ff" points="116.92,-58.31 118.21,-47.8 110.64,-55.22 116.92,-58.31"/>
<g id="a_edge7&#45;headlabel"><a xlink:href="dir_000014_000001.xhtml" target="_top" xlink:title="2">
<text text-anchor="middle" x="118.55" y="-58.94" font-family="Helvetica,sans-Serif" font-size="10.00" fill="#63b8ff">2</text>
</a>
</g>
</g>
</g>
</svg>
