<?xml version="1.0" encoding="UTF-8" standalone="no"?>
<!DOCTYPE svg PUBLIC "-//W3C//DTD SVG 1.1//EN"
 "http://www.w3.org/Graphics/SVG/1.1/DTD/svg11.dtd">
<!-- Generated by graphviz version 7.0.5 (20221223.1930)
 -->
<!-- Title: lib/3rd_party_adapters/LVGL/Display.hpp Pages: 1 -->
<svg width="252pt" height="115pt"
 viewBox="0.00 0.00 251.50 115.00" xmlns="http://www.w3.org/2000/svg" xmlns:xlink="http://www.w3.org/1999/xlink">
<g id="graph0" class="graph" transform="scale(1 1) rotate(0) translate(4 111)">
<title>lib/3rd_party_adapters/LVGL/Display.hpp</title>
<!-- Node1 -->
<g id="node1" class="node">
<title>Node1</title>
<g id="a_node1"><a xlink:title=" ">
<polygon fill="#999999" stroke="#666666" points="177,-107 65,-107 65,-77 177,-77 177,-107"/>
<text text-anchor="start" x="73" y="-95" font-family="Helvetica,sans-Serif" font-size="10.00">lib/3rd_party_adapters</text>
<text text-anchor="middle" x="121" y="-84" font-family="Helvetica,sans-Serif" font-size="10.00">/LVGL/Display.hpp</text>
</a>
</g>
</g>
<!-- Node2 -->
<g id="node2" class="node">
<title>Node2</title>
<g id="a_node2"><a xlink:href="Display_8cpp.xhtml" target="_top" xlink:title=" ">
<polygon fill="white" stroke="#666666" points="112,-35.5 0,-35.5 0,-5.5 112,-5.5 112,-35.5"/>
<text text-anchor="start" x="8" y="-23.5" font-family="Helvetica,sans-Serif" font-size="10.00">lib/3rd_party_adapters</text>
<text text-anchor="middle" x="56" y="-12.5" font-family="Helvetica,sans-Serif" font-size="10.00">/LVGL/Display.cpp</text>
</a>
</g>
</g>
<!-- Node1&#45;&gt;Node2 -->
<g id="edge1" class="edge">
<title>Node1&#45;&gt;Node2</title>
<path fill="none" stroke="#63b8ff" d="M99.94,-68.48C89.93,-57.78 78.25,-45.29 69.45,-35.88"/>
<polygon fill="#63b8ff" stroke="#63b8ff" points="97.11,-70.58 106.5,-75.49 102.22,-65.8 97.11,-70.58"/>
</g>
<!-- Node3 -->
<g id="node3" class="node">
<title>Node3</title>
<g id="a_node3"><a xlink:href="display__factory__interface_8cpp.xhtml" target="_top" xlink:title=" ">
<polygon fill="white" stroke="#666666" points="243.5,-41 130.5,-41 130.5,0 243.5,0 243.5,-41"/>
<text text-anchor="start" x="138.5" y="-29" font-family="Helvetica,sans-Serif" font-size="10.00">lib/3rd_party_adapters</text>
<text text-anchor="start" x="138.5" y="-18" font-family="Helvetica,sans-Serif" font-size="10.00">/LVGL/display_factory</text>
<text text-anchor="middle" x="187" y="-7" font-family="Helvetica,sans-Serif" font-size="10.00">_interface.cpp</text>
</a>
</g>
</g>
<!-- Node1&#45;&gt;Node3 -->
<g id="edge2" class="edge">
<title>Node1&#45;&gt;Node3</title>
<path fill="none" stroke="#63b8ff" d="M142.47,-68.39C150.73,-59.69 160.09,-49.84 168.09,-41.42"/>
<polygon fill="#63b8ff" stroke="#63b8ff" points="140.07,-65.84 135.72,-75.5 145.14,-70.66 140.07,-65.84"/>
</g>
</g>
</svg>
