<?xml version="1.0" encoding="UTF-8" standalone="no"?>
<!DOCTYPE svg PUBLIC "-//W3C//DTD SVG 1.1//EN"
 "http://www.w3.org/Graphics/SVG/1.1/DTD/svg11.dtd">
<!-- Generated by graphviz version 7.0.5 (20221223.1930)
 -->
<!-- Title: lib/board_adapters/input_device_interface/Keypad.cpp Pages: 1 -->
<svg width="1033pt" height="269pt"
 viewBox="0.00 0.00 1032.50 269.00" xmlns="http://www.w3.org/2000/svg" xmlns:xlink="http://www.w3.org/1999/xlink">
<g id="graph0" class="graph" transform="scale(1 1) rotate(0) translate(4 265)">
<title>lib/board_adapters/input_device_interface/Keypad.cpp</title>
<!-- Node1 -->
<g id="node1" class="node">
<title>Node1</title>
<g id="a_node1"><a xlink:title=" ">
<polygon fill="#999999" stroke="#666666" points="626.5,-261 509.5,-261 509.5,-220 626.5,-220 626.5,-261"/>
<text text-anchor="start" x="517.5" y="-249" font-family="Helvetica,sans-Serif" font-size="10.00">lib/board_adapters</text>
<text text-anchor="start" x="517.5" y="-238" font-family="Helvetica,sans-Serif" font-size="10.00">/input_device_interface</text>
<text text-anchor="middle" x="568" y="-227" font-family="Helvetica,sans-Serif" font-size="10.00">/Keypad.cpp</text>
</a>
</g>
</g>
<!-- Node2 -->
<g id="node2" class="node">
<title>Node2</title>
<g id="a_node2"><a xlink:href="Keypad_8hpp.xhtml" target="_top" xlink:title=" ">
<polygon fill="white" stroke="#666666" points="129.5,-184 62.5,-184 62.5,-165 129.5,-165 129.5,-184"/>
<text text-anchor="middle" x="96" y="-172" font-family="Helvetica,sans-Serif" font-size="10.00">Keypad.hpp</text>
</a>
</g>
</g>
<!-- Node1&#45;&gt;Node2 -->
<g id="edge1" class="edge">
<title>Node1&#45;&gt;Node2</title>
<path fill="none" stroke="#63b8ff" d="M509.34,-232.41C427.91,-222.42 276.06,-203.26 147,-184 145.11,-183.72 143.18,-183.42 141.23,-183.12"/>
<polygon fill="#63b8ff" stroke="#63b8ff" points="141.91,-179.69 131.49,-181.57 140.81,-186.6 141.91,-179.69"/>
</g>
<!-- Node7 -->
<g id="node7" class="node">
<title>Node7</title>
<g id="a_node7"><a xlink:href="Arduino-wrapper_8h.xhtml" target="_top" xlink:title="Circumvents problematic processor macros defined by Arduino framework.">
<polygon fill="white" stroke="#666666" points="251.5,-184 156.5,-184 156.5,-165 251.5,-165 251.5,-184"/>
<text text-anchor="middle" x="204" y="-172" font-family="Helvetica,sans-Serif" font-size="10.00">Arduino&#45;wrapper.h</text>
</a>
</g>
</g>
<!-- Node1&#45;&gt;Node7 -->
<g id="edge6" class="edge">
<title>Node1&#45;&gt;Node7</title>
<path fill="none" stroke="#63b8ff" d="M509.11,-229.15C441.4,-217.24 330.88,-197.81 263.09,-185.89"/>
<polygon fill="#63b8ff" stroke="#63b8ff" points="263.71,-182.44 253.26,-184.16 262.5,-189.34 263.71,-182.44"/>
</g>
<!-- Node9 -->
<g id="node9" class="node">
<title>Node9</title>
<g id="a_node9"><a xlink:href="Worker_8hpp.xhtml" target="_top" xlink:title=" ">
<polygon fill="white" stroke="#666666" points="418.5,-184 353.5,-184 353.5,-165 418.5,-165 418.5,-184"/>
<text text-anchor="middle" x="386" y="-172" font-family="Helvetica,sans-Serif" font-size="10.00">Worker.hpp</text>
</a>
</g>
</g>
<!-- Node1&#45;&gt;Node9 -->
<g id="edge8" class="edge">
<title>Node1&#45;&gt;Node9</title>
<path fill="none" stroke="#63b8ff" d="M511.41,-219.6C482.14,-209.31 447.3,-197.06 421.78,-188.08"/>
<polygon fill="#63b8ff" stroke="#63b8ff" points="423.13,-184.85 412.54,-184.83 420.81,-191.45 423.13,-184.85"/>
</g>
<!-- Node10 -->
<g id="node10" class="node">
<title>Node10</title>
<g id="a_node10"><a xlink:title=" ">
<polygon fill="#e0e0e0" stroke="#999999" points="282,-129 236,-129 236,-110 282,-110 282,-129"/>
<text text-anchor="middle" x="259" y="-117" font-family="Helvetica,sans-Serif" font-size="10.00">chrono</text>
</a>
</g>
</g>
<!-- Node1&#45;&gt;Node10 -->
<g id="edge21" class="edge">
<title>Node1&#45;&gt;Node10</title>
<path fill="none" stroke="#63b8ff" d="M509.23,-231.51C462.74,-223.66 397.05,-209.12 344,-184 318.39,-171.87 292.87,-151.4 276.58,-136.98"/>
<polygon fill="#63b8ff" stroke="#63b8ff" points="279,-134.45 269.24,-130.32 274.29,-139.63 279,-134.45"/>
</g>
<!-- Node14 -->
<g id="node14" class="node">
<title>Node14</title>
<g id="a_node14"><a xlink:title=" ">
<polygon fill="#e0e0e0" stroke="#999999" points="626,-129 582,-129 582,-110 626,-110 626,-129"/>
<text text-anchor="middle" x="604" y="-117" font-family="Helvetica,sans-Serif" font-size="10.00">thread</text>
</a>
</g>
</g>
<!-- Node1&#45;&gt;Node14 -->
<g id="edge24" class="edge">
<title>Node1&#45;&gt;Node14</title>
<path fill="none" stroke="#63b8ff" d="M509.15,-221.2C477.67,-208.2 448.64,-188.84 466,-165 469.2,-160.6 530.99,-141.86 570.79,-130.14"/>
<polygon fill="#63b8ff" stroke="#63b8ff" points="571.55,-133.57 580.16,-127.4 569.58,-126.85 571.55,-133.57"/>
</g>
<!-- Node15 -->
<g id="node15" class="node">
<title>Node15</title>
<g id="a_node15"><a xlink:title=" ">
<polygon fill="#e0e0e0" stroke="#999999" points="531,-184 475,-184 475,-165 531,-165 531,-184"/>
<text text-anchor="middle" x="503" y="-172" font-family="Helvetica,sans-Serif" font-size="10.00">algorithm</text>
</a>
</g>
</g>
<!-- Node1&#45;&gt;Node15 -->
<g id="edge15" class="edge">
<title>Node1&#45;&gt;Node15</title>
<path fill="none" stroke="#63b8ff" d="M547.79,-219.6C538.83,-210.78 528.4,-200.51 519.87,-192.11"/>
<polygon fill="#63b8ff" stroke="#63b8ff" points="522.46,-189.75 512.88,-185.22 517.55,-194.73 522.46,-189.75"/>
</g>
<!-- Node16 -->
<g id="node16" class="node">
<title>Node16</title>
<g id="a_node16"><a xlink:title=" ">
<polygon fill="#e0e0e0" stroke="#999999" points="587,-184 549,-184 549,-165 587,-165 587,-184"/>
<text text-anchor="middle" x="568" y="-172" font-family="Helvetica,sans-Serif" font-size="10.00">array</text>
</a>
</g>
</g>
<!-- Node1&#45;&gt;Node16 -->
<g id="edge16" class="edge">
<title>Node1&#45;&gt;Node16</title>
<path fill="none" stroke="#63b8ff" d="M568,-219.6C568,-211.98 568,-203.3 568,-195.66"/>
<polygon fill="#63b8ff" stroke="#63b8ff" points="571.5,-195.68 568,-185.68 564.5,-195.68 571.5,-195.68"/>
</g>
<!-- Node17 -->
<g id="node17" class="node">
<title>Node17</title>
<g id="a_node17"><a xlink:href="board__pins_8hpp.xhtml" target="_top" xlink:title="Provides named objects for the pins provided by the board.">
<polygon fill="white" stroke="#666666" points="687,-184 605,-184 605,-165 687,-165 687,-184"/>
<text text-anchor="middle" x="646" y="-172" font-family="Helvetica,sans-Serif" font-size="10.00">board_pins.hpp</text>
</a>
</g>
</g>
<!-- Node1&#45;&gt;Node17 -->
<g id="edge17" class="edge">
<title>Node1&#45;&gt;Node17</title>
<path fill="none" stroke="#63b8ff" d="M592.25,-219.6C603.35,-210.5 616.31,-199.86 626.72,-191.32"/>
<polygon fill="#63b8ff" stroke="#63b8ff" points="628.76,-194.17 634.27,-185.12 624.32,-188.76 628.76,-194.17"/>
</g>
<!-- Node20 -->
<g id="node20" class="node">
<title>Node20</title>
<g id="a_node20"><a xlink:title=" ">
<polygon fill="#e0e0e0" stroke="#999999" points="754.5,-184 705.5,-184 705.5,-165 754.5,-165 754.5,-184"/>
<text text-anchor="middle" x="730" y="-172" font-family="Helvetica,sans-Serif" font-size="10.00">cassert</text>
</a>
</g>
</g>
<!-- Node1&#45;&gt;Node20 -->
<g id="edge20" class="edge">
<title>Node1&#45;&gt;Node20</title>
<path fill="none" stroke="#63b8ff" d="M618.37,-219.6C644.07,-209.45 674.6,-197.39 697.23,-188.45"/>
<polygon fill="#63b8ff" stroke="#63b8ff" points="698.23,-191.82 706.24,-184.89 695.65,-185.31 698.23,-191.82"/>
</g>
<!-- Node21 -->
<g id="node21" class="node">
<title>Node21</title>
<g id="a_node21"><a xlink:title=" ">
<polygon fill="#e0e0e0" stroke="#999999" points="821.5,-184 772.5,-184 772.5,-165 821.5,-165 821.5,-184"/>
<text text-anchor="middle" x="797" y="-172" font-family="Helvetica,sans-Serif" font-size="10.00">cstddef</text>
</a>
</g>
</g>
<!-- Node1&#45;&gt;Node21 -->
<g id="edge22" class="edge">
<title>Node1&#45;&gt;Node21</title>
<path fill="none" stroke="#63b8ff" d="M626.97,-223.02C669.42,-211.15 725.31,-195.54 761.2,-185.5"/>
<polygon fill="#63b8ff" stroke="#63b8ff" points="761.97,-188.93 770.66,-182.86 760.08,-182.18 761.97,-188.93"/>
</g>
<!-- Node22 -->
<g id="node22" class="node">
<title>Node22</title>
<g id="a_node22"><a xlink:title=" ">
<polygon fill="#e0e0e0" stroke="#999999" points="886.5,-184 839.5,-184 839.5,-165 886.5,-165 886.5,-184"/>
<text text-anchor="middle" x="863" y="-172" font-family="Helvetica,sans-Serif" font-size="10.00">iterator</text>
</a>
</g>
</g>
<!-- Node1&#45;&gt;Node22 -->
<g id="edge23" class="edge">
<title>Node1&#45;&gt;Node22</title>
<path fill="none" stroke="#63b8ff" d="M626.95,-227.77C677.67,-217.51 753.04,-201.85 828.16,-184.35"/>
<polygon fill="#63b8ff" stroke="#63b8ff" points="828.83,-187.79 837.76,-182.1 827.23,-180.97 828.83,-187.79"/>
</g>
<!-- Node23 -->
<g id="node23" class="node">
<title>Node23</title>
<g id="a_node23"><a xlink:title=" ">
<polygon fill="#e0e0e0" stroke="#999999" points="967,-184 905,-184 905,-165 967,-165 967,-184"/>
<text text-anchor="middle" x="936" y="-172" font-family="Helvetica,sans-Serif" font-size="10.00">type_traits</text>
</a>
</g>
</g>
<!-- Node1&#45;&gt;Node23 -->
<g id="edge25" class="edge">
<title>Node1&#45;&gt;Node23</title>
<path fill="none" stroke="#63b8ff" d="M626.89,-230.17C690.08,-220 793.67,-202.91 893.48,-184.22"/>
<polygon fill="#63b8ff" stroke="#63b8ff" points="894.02,-187.68 903.2,-182.39 892.72,-180.8 894.02,-187.68"/>
</g>
<!-- Node24 -->
<g id="node24" class="node">
<title>Node24</title>
<g id="a_node24"><a xlink:title=" ">
<polygon fill="#e0e0e0" stroke="#999999" points="1024.5,-184 985.5,-184 985.5,-165 1024.5,-165 1024.5,-184"/>
<text text-anchor="middle" x="1005" y="-172" font-family="Helvetica,sans-Serif" font-size="10.00">utility</text>
</a>
</g>
</g>
<!-- Node1&#45;&gt;Node24 -->
<g id="edge26" class="edge">
<title>Node1&#45;&gt;Node24</title>
<path fill="none" stroke="#63b8ff" d="M626.92,-234.28C704.41,-226.81 844.89,-211.13 973.88,-184.14"/>
<polygon fill="#63b8ff" stroke="#63b8ff" points="974.6,-187.57 983.65,-182.06 973.14,-180.72 974.6,-187.57"/>
</g>
<!-- Node3 -->
<g id="node3" class="node">
<title>Node3</title>
<g id="a_node3"><a xlink:href="IKeypad_8hpp.xhtml" target="_top" xlink:title=" ">
<polygon fill="white" stroke="#666666" points="142,-129 0,-129 0,-110 142,-110 142,-129"/>
<text text-anchor="middle" x="71" y="-117" font-family="Helvetica,sans-Serif" font-size="10.00">user_interaction/IKeypad.hpp</text>
</a>
</g>
</g>
<!-- Node2&#45;&gt;Node3 -->
<g id="edge2" class="edge">
<title>Node2&#45;&gt;Node3</title>
<path fill="none" stroke="#63b8ff" d="M91.87,-164.75C88.67,-157.96 84.11,-148.3 80.07,-139.73"/>
<polygon fill="#63b8ff" stroke="#63b8ff" points="83.3,-138.36 75.86,-130.81 76.96,-141.35 83.3,-138.36"/>
</g>
<!-- Node4 -->
<g id="node4" class="node">
<title>Node4</title>
<g id="a_node4"><a xlink:href="KeyIds_8hpp.xhtml" target="_top" xlink:title=" ">
<polygon fill="white" stroke="#666666" points="103.5,-74 38.5,-74 38.5,-55 103.5,-55 103.5,-74"/>
<text text-anchor="middle" x="71" y="-62" font-family="Helvetica,sans-Serif" font-size="10.00">KeyIds.hpp</text>
</a>
</g>
</g>
<!-- Node3&#45;&gt;Node4 -->
<g id="edge3" class="edge">
<title>Node3&#45;&gt;Node4</title>
<path fill="none" stroke="#63b8ff" d="M71,-109.75C71,-103.27 71,-94.16 71,-85.9"/>
<polygon fill="#63b8ff" stroke="#63b8ff" points="74.5,-85.96 71,-75.96 67.5,-85.96 74.5,-85.96"/>
</g>
<!-- Node6 -->
<g id="node6" class="node">
<title>Node6</title>
<g id="a_node6"><a xlink:title=" ">
<polygon fill="#e0e0e0" stroke="#999999" points="260.5,-74 201.5,-74 201.5,-55 260.5,-55 260.5,-74"/>
<text text-anchor="middle" x="231" y="-62" font-family="Helvetica,sans-Serif" font-size="10.00">functional</text>
</a>
</g>
</g>
<!-- Node3&#45;&gt;Node6 -->
<g id="edge5" class="edge">
<title>Node3&#45;&gt;Node6</title>
<path fill="none" stroke="#63b8ff" d="M98.14,-109.51C124.31,-100.84 164.14,-87.65 193.36,-77.97"/>
<polygon fill="#63b8ff" stroke="#63b8ff" points="194.16,-81.39 202.56,-74.92 191.96,-74.74 194.16,-81.39"/>
</g>
<!-- Node5 -->
<g id="node5" class="node">
<title>Node5</title>
<g id="a_node5"><a xlink:title=" ">
<polygon fill="#e0e0e0" stroke="#999999" points="97,-19 45,-19 45,0 97,0 97,-19"/>
<text text-anchor="middle" x="71" y="-7" font-family="Helvetica,sans-Serif" font-size="10.00">ostream</text>
</a>
</g>
</g>
<!-- Node4&#45;&gt;Node5 -->
<g id="edge4" class="edge">
<title>Node4&#45;&gt;Node5</title>
<path fill="none" stroke="#63b8ff" d="M71,-54.75C71,-48.27 71,-39.16 71,-30.9"/>
<polygon fill="#63b8ff" stroke="#63b8ff" points="74.5,-30.96 71,-20.96 67.5,-30.96 74.5,-30.96"/>
</g>
<!-- Node8 -->
<g id="node8" class="node">
<title>Node8</title>
<g id="a_node8"><a xlink:title=" ">
<polygon fill="#e0e0e0" stroke="#999999" points="217.5,-129 160.5,-129 160.5,-110 217.5,-110 217.5,-129"/>
<text text-anchor="middle" x="189" y="-117" font-family="Helvetica,sans-Serif" font-size="10.00">Arduino.h</text>
</a>
</g>
</g>
<!-- Node7&#45;&gt;Node8 -->
<g id="edge7" class="edge">
<title>Node7&#45;&gt;Node8</title>
<path fill="none" stroke="#63b8ff" d="M201.52,-164.75C199.65,-158.11 196.99,-148.73 194.61,-140.31"/>
<polygon fill="#63b8ff" stroke="#63b8ff" points="198.03,-139.57 191.94,-130.9 191.3,-141.47 198.03,-139.57"/>
</g>
<!-- Node9&#45;&gt;Node6 -->
<g id="edge11" class="edge">
<title>Node9&#45;&gt;Node6</title>
<path fill="none" stroke="#63b8ff" d="M373.32,-164.66C346.98,-146.31 286.07,-103.87 253.12,-80.91"/>
<polygon fill="#63b8ff" stroke="#63b8ff" points="255.31,-78.17 245.1,-75.33 251.31,-83.91 255.31,-78.17"/>
</g>
<!-- Node9&#45;&gt;Node10 -->
<g id="edge9" class="edge">
<title>Node9&#45;&gt;Node10</title>
<path fill="none" stroke="#63b8ff" d="M364.46,-164.51C344.26,-156.08 313.83,-143.38 290.84,-133.79"/>
<polygon fill="#63b8ff" stroke="#63b8ff" points="292.2,-130.56 281.62,-129.94 289.5,-137.02 292.2,-130.56"/>
</g>
<!-- Node11 -->
<g id="node11" class="node">
<title>Node11</title>
<g id="a_node11"><a xlink:title=" ">
<polygon fill="#e0e0e0" stroke="#999999" points="433.5,-129 338.5,-129 338.5,-110 433.5,-110 433.5,-129"/>
<text text-anchor="middle" x="386" y="-117" font-family="Helvetica,sans-Serif" font-size="10.00">condition_variable</text>
</a>
</g>
</g>
<!-- Node9&#45;&gt;Node11 -->
<g id="edge10" class="edge">
<title>Node9&#45;&gt;Node11</title>
<path fill="none" stroke="#63b8ff" d="M386,-164.75C386,-158.27 386,-149.16 386,-140.9"/>
<polygon fill="#63b8ff" stroke="#63b8ff" points="389.5,-140.96 386,-130.96 382.5,-140.96 389.5,-140.96"/>
</g>
<!-- Node12 -->
<g id="node12" class="node">
<title>Node12</title>
<g id="a_node12"><a xlink:title=" ">
<polygon fill="#e0e0e0" stroke="#999999" points="502.5,-129 451.5,-129 451.5,-110 502.5,-110 502.5,-129"/>
<text text-anchor="middle" x="477" y="-117" font-family="Helvetica,sans-Serif" font-size="10.00">memory</text>
</a>
</g>
</g>
<!-- Node9&#45;&gt;Node12 -->
<g id="edge12" class="edge">
<title>Node9&#45;&gt;Node12</title>
<path fill="none" stroke="#63b8ff" d="M401.44,-164.51C415.25,-156.47 435.75,-144.53 451.91,-135.11"/>
<polygon fill="#63b8ff" stroke="#63b8ff" points="453.6,-138.18 460.48,-130.12 450.08,-132.13 453.6,-138.18"/>
</g>
<!-- Node13 -->
<g id="node13" class="node">
<title>Node13</title>
<g id="a_node13"><a xlink:title=" ">
<polygon fill="#e0e0e0" stroke="#999999" points="563.5,-129 520.5,-129 520.5,-110 563.5,-110 563.5,-129"/>
<text text-anchor="middle" x="542" y="-117" font-family="Helvetica,sans-Serif" font-size="10.00">mutex</text>
</a>
</g>
</g>
<!-- Node9&#45;&gt;Node13 -->
<g id="edge13" class="edge">
<title>Node9&#45;&gt;Node13</title>
<path fill="none" stroke="#63b8ff" d="M412.46,-164.51C439.32,-155.38 480.94,-141.24 509.72,-131.47"/>
<polygon fill="#63b8ff" stroke="#63b8ff" points="510.66,-134.84 519.01,-128.31 508.41,-128.21 510.66,-134.84"/>
</g>
<!-- Node9&#45;&gt;Node14 -->
<g id="edge14" class="edge">
<title>Node9&#45;&gt;Node14</title>
<path fill="none" stroke="#63b8ff" d="M418.99,-165.87C454.04,-157.7 511.34,-144.19 570.56,-129.31"/>
<polygon fill="#63b8ff" stroke="#63b8ff" points="571.33,-132.73 580.17,-126.89 569.62,-125.94 571.33,-132.73"/>
</g>
<!-- Node18 -->
<g id="node18" class="node">
<title>Node18</title>
<g id="a_node18"><a xlink:href="board__types_8hpp.xhtml" target="_top" xlink:title=" ">
<polygon fill="white" stroke="#666666" points="731.5,-129 644.5,-129 644.5,-110 731.5,-110 731.5,-129"/>
<text text-anchor="middle" x="688" y="-117" font-family="Helvetica,sans-Serif" font-size="10.00">board_types.hpp</text>
</a>
</g>
</g>
<!-- Node17&#45;&gt;Node18 -->
<g id="edge18" class="edge">
<title>Node17&#45;&gt;Node18</title>
<path fill="none" stroke="#63b8ff" d="M652.94,-164.75C658.62,-157.58 666.84,-147.2 673.89,-138.3"/>
<polygon fill="#63b8ff" stroke="#63b8ff" points="676.51,-140.64 679.97,-130.63 671.02,-136.29 676.51,-140.64"/>
</g>
<!-- Node19 -->
<g id="node19" class="node">
<title>Node19</title>
<g id="a_node19"><a xlink:title=" ">
<polygon fill="#e0e0e0" stroke="#999999" points="711,-74 665,-74 665,-55 711,-55 711,-74"/>
<text text-anchor="middle" x="688" y="-62" font-family="Helvetica,sans-Serif" font-size="10.00">cstdint</text>
</a>
</g>
</g>
<!-- Node18&#45;&gt;Node19 -->
<g id="edge19" class="edge">
<title>Node18&#45;&gt;Node19</title>
<path fill="none" stroke="#63b8ff" d="M688,-109.75C688,-103.27 688,-94.16 688,-85.9"/>
<polygon fill="#63b8ff" stroke="#63b8ff" points="691.5,-85.96 688,-75.96 684.5,-85.96 691.5,-85.96"/>
</g>
</g>
</svg>
