<?xml version="1.0" encoding="UTF-8" standalone="no"?>
<!DOCTYPE svg PUBLIC "-//W3C//DTD SVG 1.1//EN"
 "http://www.w3.org/Graphics/SVG/1.1/DTD/svg11.dtd">
<!-- Generated by graphviz version 7.0.5 (20221223.1930)
 -->
<!-- Title: lib/board_adapters/input_device_interface/Keypad.cpp Pages: 1 -->
<svg width="1198pt" height="269pt"
 viewBox="0.00 0.00 1197.50 269.00" xmlns="http://www.w3.org/2000/svg" xmlns:xlink="http://www.w3.org/1999/xlink">
<g id="graph0" class="graph" transform="scale(1 1) rotate(0) translate(4 265)">
<title>lib/board_adapters/input_device_interface/Keypad.cpp</title>
<!-- Node1 -->
<g id="node1" class="node">
<title>Node1</title>
<g id="a_node1"><a xlink:title=" ">
<polygon fill="#999999" stroke="#666666" points="758.5,-261 641.5,-261 641.5,-220 758.5,-220 758.5,-261"/>
<text text-anchor="start" x="649.5" y="-249" font-family="Helvetica,sans-Serif" font-size="10.00">lib/board_adapters</text>
<text text-anchor="start" x="649.5" y="-238" font-family="Helvetica,sans-Serif" font-size="10.00">/input_device_interface</text>
<text text-anchor="middle" x="700" y="-227" font-family="Helvetica,sans-Serif" font-size="10.00">/Keypad.cpp</text>
</a>
</g>
</g>
<!-- Node2 -->
<g id="node2" class="node">
<title>Node2</title>
<g id="a_node2"><a xlink:href="Keypad_8hpp.xhtml" target="_top" xlink:title=" ">
<polygon fill="white" stroke="#666666" points="205.5,-184 138.5,-184 138.5,-165 205.5,-165 205.5,-184"/>
<text text-anchor="middle" x="172" y="-172" font-family="Helvetica,sans-Serif" font-size="10.00">Keypad.hpp</text>
</a>
</g>
</g>
<!-- Node1&#45;&gt;Node2 -->
<g id="edge1" class="edge">
<title>Node1&#45;&gt;Node2</title>
<path fill="none" stroke="#63b8ff" d="M641.22,-232.38C534.78,-219.47 312.32,-192.51 216.96,-180.95"/>
<polygon fill="#63b8ff" stroke="#63b8ff" points="217.56,-177.5 207.21,-179.77 216.72,-184.45 217.56,-177.5"/>
</g>
<!-- Node7 -->
<g id="node7" class="node">
<title>Node7</title>
<g id="a_node7"><a xlink:href="Arduino-wrapper_8h.xhtml" target="_top" xlink:title="Circumvents problematic processor macros defined by Arduino framework.">
<polygon fill="white" stroke="#666666" points="621.5,-184 526.5,-184 526.5,-165 621.5,-165 621.5,-184"/>
<text text-anchor="middle" x="574" y="-172" font-family="Helvetica,sans-Serif" font-size="10.00">Arduino&#45;wrapper.h</text>
</a>
</g>
</g>
<!-- Node1&#45;&gt;Node7 -->
<g id="edge6" class="edge">
<title>Node1&#45;&gt;Node7</title>
<path fill="none" stroke="#63b8ff" d="M660.82,-219.6C641.56,-209.82 618.81,-198.26 601.43,-189.43"/>
<polygon fill="#63b8ff" stroke="#63b8ff" points="603.24,-186.42 592.73,-185.02 600.07,-192.67 603.24,-186.42"/>
</g>
<!-- Node9 -->
<g id="node9" class="node">
<title>Node9</title>
<g id="a_node9"><a xlink:href="Worker_8hpp.xhtml" target="_top" xlink:title=" ">
<polygon fill="white" stroke="#666666" points="429.5,-184 364.5,-184 364.5,-165 429.5,-165 429.5,-184"/>
<text text-anchor="middle" x="397" y="-172" font-family="Helvetica,sans-Serif" font-size="10.00">Worker.hpp</text>
</a>
</g>
</g>
<!-- Node1&#45;&gt;Node9 -->
<g id="edge8" class="edge">
<title>Node1&#45;&gt;Node9</title>
<path fill="none" stroke="#63b8ff" d="M641.22,-227.08C582.54,-214.69 493.7,-195.92 440.9,-184.77"/>
<polygon fill="#63b8ff" stroke="#63b8ff" points="441.87,-181.4 431.37,-182.76 440.43,-188.25 441.87,-181.4"/>
</g>
<!-- Node10 -->
<g id="node10" class="node">
<title>Node10</title>
<g id="a_node10"><a xlink:title=" ">
<polygon fill="#e0e0e0" stroke="#999999" points="206,-129 160,-129 160,-110 206,-110 206,-129"/>
<text text-anchor="middle" x="183" y="-117" font-family="Helvetica,sans-Serif" font-size="10.00">chrono</text>
</a>
</g>
</g>
<!-- Node1&#45;&gt;Node10 -->
<g id="edge21" class="edge">
<title>Node1&#45;&gt;Node10</title>
<path fill="none" stroke="#63b8ff" d="M641.29,-233.57C572.06,-225.78 453.88,-209.94 355,-184 304.16,-170.66 247.34,-148.11 213.41,-133.78"/>
<polygon fill="#63b8ff" stroke="#63b8ff" points="215.2,-130.74 204.63,-130.03 212.45,-137.18 215.2,-130.74"/>
</g>
<!-- Node12 -->
<g id="node12" class="node">
<title>Node12</title>
<g id="a_node12"><a xlink:title=" ">
<polygon fill="#e0e0e0" stroke="#999999" points="487.5,-129 436.5,-129 436.5,-110 487.5,-110 487.5,-129"/>
<text text-anchor="middle" x="462" y="-117" font-family="Helvetica,sans-Serif" font-size="10.00">memory</text>
</a>
</g>
</g>
<!-- Node1&#45;&gt;Node12 -->
<g id="edge24" class="edge">
<title>Node1&#45;&gt;Node12</title>
<path fill="none" stroke="#63b8ff" d="M641.07,-232.7C600.67,-225.71 547.46,-211.73 508,-184 491.83,-172.64 479.21,-153.74 471.31,-139.51"/>
<polygon fill="#63b8ff" stroke="#63b8ff" points="474.43,-137.92 466.71,-130.67 468.22,-141.15 474.43,-137.92"/>
</g>
<!-- Node14 -->
<g id="node14" class="node">
<title>Node14</title>
<g id="a_node14"><a xlink:title=" ">
<polygon fill="#e0e0e0" stroke="#999999" points="550,-129 506,-129 506,-110 550,-110 550,-129"/>
<text text-anchor="middle" x="528" y="-117" font-family="Helvetica,sans-Serif" font-size="10.00">thread</text>
</a>
</g>
</g>
<!-- Node1&#45;&gt;Node14 -->
<g id="edge25" class="edge">
<title>Node1&#45;&gt;Node14</title>
<path fill="none" stroke="#63b8ff" d="M641.04,-238.89C599.07,-234.98 545.28,-222.13 517,-184 507.52,-171.22 511.97,-153.05 517.79,-139.42"/>
<polygon fill="#63b8ff" stroke="#63b8ff" points="520.85,-141.14 522.07,-130.61 514.55,-138.07 520.85,-141.14"/>
</g>
<!-- Node15 -->
<g id="node15" class="node">
<title>Node15</title>
<g id="a_node15"><a xlink:title=" ">
<polygon fill="#e0e0e0" stroke="#999999" points="696,-184 640,-184 640,-165 696,-165 696,-184"/>
<text text-anchor="middle" x="668" y="-172" font-family="Helvetica,sans-Serif" font-size="10.00">algorithm</text>
</a>
</g>
</g>
<!-- Node1&#45;&gt;Node15 -->
<g id="edge15" class="edge">
<title>Node1&#45;&gt;Node15</title>
<path fill="none" stroke="#63b8ff" d="M690.05,-219.6C686.01,-211.52 681.37,-202.23 677.39,-194.27"/>
<polygon fill="#63b8ff" stroke="#63b8ff" points="680.61,-192.9 673.01,-185.52 674.35,-196.03 680.61,-192.9"/>
</g>
<!-- Node16 -->
<g id="node16" class="node">
<title>Node16</title>
<g id="a_node16"><a xlink:title=" ">
<polygon fill="#e0e0e0" stroke="#999999" points="752,-184 714,-184 714,-165 752,-165 752,-184"/>
<text text-anchor="middle" x="733" y="-172" font-family="Helvetica,sans-Serif" font-size="10.00">array</text>
</a>
</g>
</g>
<!-- Node1&#45;&gt;Node16 -->
<g id="edge16" class="edge">
<title>Node1&#45;&gt;Node16</title>
<path fill="none" stroke="#63b8ff" d="M710.26,-219.6C714.43,-211.52 719.22,-202.23 723.32,-194.27"/>
<polygon fill="#63b8ff" stroke="#63b8ff" points="726.37,-196 727.84,-185.51 720.15,-192.79 726.37,-196"/>
</g>
<!-- Node17 -->
<g id="node17" class="node">
<title>Node17</title>
<g id="a_node17"><a xlink:href="board__pins_8hpp.xhtml" target="_top" xlink:title="Provides named objects for the pins provided by the board.">
<polygon fill="white" stroke="#666666" points="852,-184 770,-184 770,-165 852,-165 852,-184"/>
<text text-anchor="middle" x="811" y="-172" font-family="Helvetica,sans-Serif" font-size="10.00">board_pins.hpp</text>
</a>
</g>
</g>
<!-- Node1&#45;&gt;Node17 -->
<g id="edge17" class="edge">
<title>Node1&#45;&gt;Node17</title>
<path fill="none" stroke="#63b8ff" d="M734.51,-219.6C751.16,-210 770.77,-198.7 785.96,-189.94"/>
<polygon fill="#63b8ff" stroke="#63b8ff" points="787.46,-193.11 794.37,-185.09 783.96,-187.05 787.46,-193.11"/>
</g>
<!-- Node20 -->
<g id="node20" class="node">
<title>Node20</title>
<g id="a_node20"><a xlink:title=" ">
<polygon fill="#e0e0e0" stroke="#999999" points="919.5,-184 870.5,-184 870.5,-165 919.5,-165 919.5,-184"/>
<text text-anchor="middle" x="895" y="-172" font-family="Helvetica,sans-Serif" font-size="10.00">cassert</text>
</a>
</g>
</g>
<!-- Node1&#45;&gt;Node20 -->
<g id="edge20" class="edge">
<title>Node1&#45;&gt;Node20</title>
<path fill="none" stroke="#63b8ff" d="M758.77,-220.21C791.49,-209.47 831.17,-196.45 859.24,-187.24"/>
<polygon fill="#63b8ff" stroke="#63b8ff" points="860.28,-190.58 868.69,-184.13 858.1,-183.93 860.28,-190.58"/>
</g>
<!-- Node21 -->
<g id="node21" class="node">
<title>Node21</title>
<g id="a_node21"><a xlink:title=" ">
<polygon fill="#e0e0e0" stroke="#999999" points="986.5,-184 937.5,-184 937.5,-165 986.5,-165 986.5,-184"/>
<text text-anchor="middle" x="962" y="-172" font-family="Helvetica,sans-Serif" font-size="10.00">cstddef</text>
</a>
</g>
</g>
<!-- Node1&#45;&gt;Node21 -->
<g id="edge22" class="edge">
<title>Node1&#45;&gt;Node21</title>
<path fill="none" stroke="#63b8ff" d="M758.6,-225.34C802.15,-214.8 863.31,-199.93 926.19,-184.43"/>
<polygon fill="#63b8ff" stroke="#63b8ff" points="926.78,-187.89 935.65,-182.1 925.11,-181.1 926.78,-187.89"/>
</g>
<!-- Node22 -->
<g id="node22" class="node">
<title>Node22</title>
<g id="a_node22"><a xlink:title=" ">
<polygon fill="#e0e0e0" stroke="#999999" points="1051.5,-184 1004.5,-184 1004.5,-165 1051.5,-165 1051.5,-184"/>
<text text-anchor="middle" x="1028" y="-172" font-family="Helvetica,sans-Serif" font-size="10.00">iterator</text>
</a>
</g>
</g>
<!-- Node1&#45;&gt;Node22 -->
<g id="edge23" class="edge">
<title>Node1&#45;&gt;Node22</title>
<path fill="none" stroke="#63b8ff" d="M758.72,-229.63C815.98,-219.74 905.74,-203.54 993.06,-184.3"/>
<polygon fill="#63b8ff" stroke="#63b8ff" points="993.77,-187.73 1002.77,-182.15 992.25,-180.9 993.77,-187.73"/>
</g>
<!-- Node23 -->
<g id="node23" class="node">
<title>Node23</title>
<g id="a_node23"><a xlink:title=" ">
<polygon fill="#e0e0e0" stroke="#999999" points="1132,-184 1070,-184 1070,-165 1132,-165 1132,-184"/>
<text text-anchor="middle" x="1101" y="-172" font-family="Helvetica,sans-Serif" font-size="10.00">type_traits</text>
</a>
</g>
</g>
<!-- Node1&#45;&gt;Node23 -->
<g id="edge26" class="edge">
<title>Node1&#45;&gt;Node23</title>
<path fill="none" stroke="#63b8ff" d="M758.77,-231.39C827.87,-221.64 946.27,-204.27 1058.5,-184.18"/>
<polygon fill="#63b8ff" stroke="#63b8ff" points="1058.98,-187.65 1068.2,-182.43 1057.74,-180.76 1058.98,-187.65"/>
</g>
<!-- Node24 -->
<g id="node24" class="node">
<title>Node24</title>
<g id="a_node24"><a xlink:title=" ">
<polygon fill="#e0e0e0" stroke="#999999" points="1189.5,-184 1150.5,-184 1150.5,-165 1189.5,-165 1189.5,-184"/>
<text text-anchor="middle" x="1170" y="-172" font-family="Helvetica,sans-Serif" font-size="10.00">utility</text>
</a>
</g>
</g>
<!-- Node1&#45;&gt;Node24 -->
<g id="edge27" class="edge">
<title>Node1&#45;&gt;Node24</title>
<path fill="none" stroke="#63b8ff" d="M758.99,-235.09C841.88,-228.24 997.61,-212.94 1139.11,-184.06"/>
<polygon fill="#63b8ff" stroke="#63b8ff" points="1139.57,-187.54 1148.66,-182.08 1138.15,-180.68 1139.57,-187.54"/>
</g>
<!-- Node3 -->
<g id="node3" class="node">
<title>Node3</title>
<g id="a_node3"><a xlink:href="IKeypad_8hpp.xhtml" target="_top" xlink:title=" ">
<polygon fill="white" stroke="#666666" points="142,-129 0,-129 0,-110 142,-110 142,-129"/>
<text text-anchor="middle" x="71" y="-117" font-family="Helvetica,sans-Serif" font-size="10.00">user_interaction/IKeypad.hpp</text>
</a>
</g>
</g>
<!-- Node2&#45;&gt;Node3 -->
<g id="edge2" class="edge">
<title>Node2&#45;&gt;Node3</title>
<path fill="none" stroke="#63b8ff" d="M154.87,-164.51C139.25,-156.31 115.92,-144.07 97.83,-134.58"/>
<polygon fill="#63b8ff" stroke="#63b8ff" points="99.7,-131.61 89.22,-130.06 96.45,-137.81 99.7,-131.61"/>
</g>
<!-- Node4 -->
<g id="node4" class="node">
<title>Node4</title>
<g id="a_node4"><a xlink:href="KeyIds_8hpp.xhtml" target="_top" xlink:title=" ">
<polygon fill="white" stroke="#666666" points="103.5,-74 38.5,-74 38.5,-55 103.5,-55 103.5,-74"/>
<text text-anchor="middle" x="71" y="-62" font-family="Helvetica,sans-Serif" font-size="10.00">KeyIds.hpp</text>
</a>
</g>
</g>
<!-- Node3&#45;&gt;Node4 -->
<g id="edge3" class="edge">
<title>Node3&#45;&gt;Node4</title>
<path fill="none" stroke="#63b8ff" d="M71,-109.75C71,-103.27 71,-94.16 71,-85.9"/>
<polygon fill="#63b8ff" stroke="#63b8ff" points="74.5,-85.96 71,-75.96 67.5,-85.96 74.5,-85.96"/>
</g>
<!-- Node6 -->
<g id="node6" class="node">
<title>Node6</title>
<g id="a_node6"><a xlink:title=" ">
<polygon fill="#e0e0e0" stroke="#999999" points="222.5,-74 163.5,-74 163.5,-55 222.5,-55 222.5,-74"/>
<text text-anchor="middle" x="193" y="-62" font-family="Helvetica,sans-Serif" font-size="10.00">functional</text>
</a>
</g>
</g>
<!-- Node3&#45;&gt;Node6 -->
<g id="edge5" class="edge">
<title>Node3&#45;&gt;Node6</title>
<path fill="none" stroke="#63b8ff" d="M91.7,-109.51C111,-101.12 140.06,-88.5 162.11,-78.92"/>
<polygon fill="#63b8ff" stroke="#63b8ff" points="163.44,-82.16 171.22,-74.96 160.66,-75.74 163.44,-82.16"/>
</g>
<!-- Node5 -->
<g id="node5" class="node">
<title>Node5</title>
<g id="a_node5"><a xlink:title=" ">
<polygon fill="#e0e0e0" stroke="#999999" points="97,-19 45,-19 45,0 97,0 97,-19"/>
<text text-anchor="middle" x="71" y="-7" font-family="Helvetica,sans-Serif" font-size="10.00">ostream</text>
</a>
</g>
</g>
<!-- Node4&#45;&gt;Node5 -->
<g id="edge4" class="edge">
<title>Node4&#45;&gt;Node5</title>
<path fill="none" stroke="#63b8ff" d="M71,-54.75C71,-48.27 71,-39.16 71,-30.9"/>
<polygon fill="#63b8ff" stroke="#63b8ff" points="74.5,-30.96 71,-20.96 67.5,-30.96 74.5,-30.96"/>
</g>
<!-- Node8 -->
<g id="node8" class="node">
<title>Node8</title>
<g id="a_node8"><a xlink:title=" ">
<polygon fill="#e0e0e0" stroke="#999999" points="625.5,-129 568.5,-129 568.5,-110 625.5,-110 625.5,-129"/>
<text text-anchor="middle" x="597" y="-117" font-family="Helvetica,sans-Serif" font-size="10.00">Arduino.h</text>
</a>
</g>
</g>
<!-- Node7&#45;&gt;Node8 -->
<g id="edge7" class="edge">
<title>Node7&#45;&gt;Node8</title>
<path fill="none" stroke="#63b8ff" d="M577.8,-164.75C580.74,-157.96 584.94,-148.3 588.65,-139.73"/>
<polygon fill="#63b8ff" stroke="#63b8ff" points="591.75,-141.4 592.52,-130.83 585.33,-138.61 591.75,-141.4"/>
</g>
<!-- Node9&#45;&gt;Node6 -->
<g id="edge11" class="edge">
<title>Node9&#45;&gt;Node6</title>
<path fill="none" stroke="#63b8ff" d="M364.11,-168.31C333.55,-162.38 287.66,-150.57 253,-129 233.75,-117.02 216.52,-97.38 205.52,-83.1"/>
<polygon fill="#63b8ff" stroke="#63b8ff" points="208.62,-81.41 199.85,-75.46 202.99,-85.58 208.62,-81.41"/>
</g>
<!-- Node9&#45;&gt;Node10 -->
<g id="edge9" class="edge">
<title>Node9&#45;&gt;Node10</title>
<path fill="none" stroke="#63b8ff" d="M364.03,-165.33C324.34,-155.5 257.98,-139.07 217.58,-129.06"/>
<polygon fill="#63b8ff" stroke="#63b8ff" points="218.44,-125.67 207.89,-126.66 216.76,-132.47 218.44,-125.67"/>
</g>
<!-- Node11 -->
<g id="node11" class="node">
<title>Node11</title>
<g id="a_node11"><a xlink:title=" ">
<polygon fill="#e0e0e0" stroke="#999999" points="357.5,-129 262.5,-129 262.5,-110 357.5,-110 357.5,-129"/>
<text text-anchor="middle" x="310" y="-117" font-family="Helvetica,sans-Serif" font-size="10.00">condition_variable</text>
</a>
</g>
</g>
<!-- Node9&#45;&gt;Node11 -->
<g id="edge10" class="edge">
<title>Node9&#45;&gt;Node11</title>
<path fill="none" stroke="#63b8ff" d="M382.24,-164.51C369.04,-156.47 349.44,-144.53 333.99,-135.11"/>
<polygon fill="#63b8ff" stroke="#63b8ff" points="336.19,-132.36 325.83,-130.15 332.55,-138.34 336.19,-132.36"/>
</g>
<!-- Node9&#45;&gt;Node12 -->
<g id="edge12" class="edge">
<title>Node9&#45;&gt;Node12</title>
<path fill="none" stroke="#63b8ff" d="M408.03,-164.51C417.42,-156.85 431.15,-145.66 442.41,-136.47"/>
<polygon fill="#63b8ff" stroke="#63b8ff" points="444.43,-139.35 449.96,-130.31 440,-133.92 444.43,-139.35"/>
</g>
<!-- Node13 -->
<g id="node13" class="node">
<title>Node13</title>
<g id="a_node13"><a xlink:title=" ">
<polygon fill="#e0e0e0" stroke="#999999" points="418.5,-129 375.5,-129 375.5,-110 418.5,-110 418.5,-129"/>
<text text-anchor="middle" x="397" y="-117" font-family="Helvetica,sans-Serif" font-size="10.00">mutex</text>
</a>
</g>
</g>
<!-- Node9&#45;&gt;Node13 -->
<g id="edge13" class="edge">
<title>Node9&#45;&gt;Node13</title>
<path fill="none" stroke="#63b8ff" d="M397,-164.75C397,-158.27 397,-149.16 397,-140.9"/>
<polygon fill="#63b8ff" stroke="#63b8ff" points="400.5,-140.96 397,-130.96 393.5,-140.96 400.5,-140.96"/>
</g>
<!-- Node9&#45;&gt;Node14 -->
<g id="edge14" class="edge">
<title>Node9&#45;&gt;Node14</title>
<path fill="none" stroke="#63b8ff" d="M419.22,-164.51C440.14,-156.04 471.73,-143.27 495.48,-133.66"/>
<polygon fill="#63b8ff" stroke="#63b8ff" points="496.75,-136.92 504.7,-129.93 494.12,-130.43 496.75,-136.92"/>
</g>
<!-- Node18 -->
<g id="node18" class="node">
<title>Node18</title>
<g id="a_node18"><a xlink:href="board__types_8hpp.xhtml" target="_top" xlink:title=" ">
<polygon fill="white" stroke="#666666" points="854.5,-129 767.5,-129 767.5,-110 854.5,-110 854.5,-129"/>
<text text-anchor="middle" x="811" y="-117" font-family="Helvetica,sans-Serif" font-size="10.00">board_types.hpp</text>
</a>
</g>
</g>
<!-- Node17&#45;&gt;Node18 -->
<g id="edge18" class="edge">
<title>Node17&#45;&gt;Node18</title>
<path fill="none" stroke="#63b8ff" d="M811,-164.75C811,-158.27 811,-149.16 811,-140.9"/>
<polygon fill="#63b8ff" stroke="#63b8ff" points="814.5,-140.96 811,-130.96 807.5,-140.96 814.5,-140.96"/>
</g>
<!-- Node19 -->
<g id="node19" class="node">
<title>Node19</title>
<g id="a_node19"><a xlink:title=" ">
<polygon fill="#e0e0e0" stroke="#999999" points="834,-74 788,-74 788,-55 834,-55 834,-74"/>
<text text-anchor="middle" x="811" y="-62" font-family="Helvetica,sans-Serif" font-size="10.00">cstdint</text>
</a>
</g>
</g>
<!-- Node18&#45;&gt;Node19 -->
<g id="edge19" class="edge">
<title>Node18&#45;&gt;Node19</title>
<path fill="none" stroke="#63b8ff" d="M811,-109.75C811,-103.27 811,-94.16 811,-85.9"/>
<polygon fill="#63b8ff" stroke="#63b8ff" points="814.5,-85.96 811,-75.96 807.5,-85.96 814.5,-85.96"/>
</g>
</g>
</svg>
