<?xml version="1.0" encoding="UTF-8" standalone="no"?>
<!DOCTYPE svg PUBLIC "-//W3C//DTD SVG 1.1//EN"
 "http://www.w3.org/Graphics/SVG/1.1/DTD/svg11.dtd">
<!-- Generated by graphviz version 7.0.5 (20221223.1930)
 -->
<!-- Title: lib/board_adapters/input_device_interface/Keypad.cpp Pages: 1 -->
<svg width="1001pt" height="269pt"
 viewBox="0.00 0.00 1000.50 269.00" xmlns="http://www.w3.org/2000/svg" xmlns:xlink="http://www.w3.org/1999/xlink">
<g id="graph0" class="graph" transform="scale(1 1) rotate(0) translate(4 265)">
<title>lib/board_adapters/input_device_interface/Keypad.cpp</title>
<!-- Node1 -->
<g id="node1" class="node">
<title>Node1</title>
<g id="a_node1"><a xlink:title=" ">
<polygon fill="#999999" stroke="#666666" points="594.5,-261 477.5,-261 477.5,-220 594.5,-220 594.5,-261"/>
<text text-anchor="start" x="485.5" y="-249" font-family="Helvetica,sans-Serif" font-size="10.00">lib/board_adapters</text>
<text text-anchor="start" x="485.5" y="-238" font-family="Helvetica,sans-Serif" font-size="10.00">/input_device_interface</text>
<text text-anchor="middle" x="536" y="-227" font-family="Helvetica,sans-Serif" font-size="10.00">/Keypad.cpp</text>
</a>
</g>
</g>
<!-- Node2 -->
<g id="node2" class="node">
<title>Node2</title>
<g id="a_node2"><a xlink:href="Keypad_8hpp.xhtml" target="_top" xlink:title=" ">
<polygon fill="white" stroke="#666666" points="118.5,-184 51.5,-184 51.5,-165 118.5,-165 118.5,-184"/>
<text text-anchor="middle" x="85" y="-172" font-family="Helvetica,sans-Serif" font-size="10.00">Keypad.hpp</text>
</a>
</g>
</g>
<!-- Node1&#45;&gt;Node2 -->
<g id="edge1" class="edge">
<title>Node1&#45;&gt;Node2</title>
<path fill="none" stroke="#63b8ff" d="M477.3,-231.86C399.27,-221.6 257.11,-202.49 136,-184 134.11,-183.71 132.18,-183.41 130.23,-183.11"/>
<polygon fill="#63b8ff" stroke="#63b8ff" points="130.92,-179.67 120.49,-181.54 129.81,-186.58 130.92,-179.67"/>
</g>
<!-- Node7 -->
<g id="node7" class="node">
<title>Node7</title>
<g id="a_node7"><a xlink:href="Arduino-wrapper_8h.xhtml" target="_top" xlink:title="Circumvents problematic processor macros defined by Arduino framework.">
<polygon fill="white" stroke="#666666" points="240.5,-184 145.5,-184 145.5,-165 240.5,-165 240.5,-184"/>
<text text-anchor="middle" x="193" y="-172" font-family="Helvetica,sans-Serif" font-size="10.00">Arduino&#45;wrapper.h</text>
</a>
</g>
</g>
<!-- Node1&#45;&gt;Node7 -->
<g id="edge6" class="edge">
<title>Node1&#45;&gt;Node7</title>
<path fill="none" stroke="#63b8ff" d="M477.04,-228.5C414.07,-216.75 314.85,-198.24 251.9,-186.49"/>
<polygon fill="#63b8ff" stroke="#63b8ff" points="252.93,-183.12 242.46,-184.73 251.65,-190 252.93,-183.12"/>
</g>
<!-- Node9 -->
<g id="node9" class="node">
<title>Node9</title>
<g id="a_node9"><a xlink:href="Worker_8hpp.xhtml" target="_top" xlink:title=" ">
<polygon fill="white" stroke="#666666" points="386.5,-184 321.5,-184 321.5,-165 386.5,-165 386.5,-184"/>
<text text-anchor="middle" x="354" y="-172" font-family="Helvetica,sans-Serif" font-size="10.00">Worker.hpp</text>
</a>
</g>
</g>
<!-- Node1&#45;&gt;Node9 -->
<g id="edge8" class="edge">
<title>Node1&#45;&gt;Node9</title>
<path fill="none" stroke="#63b8ff" d="M479.41,-219.6C450.14,-209.31 415.3,-197.06 389.78,-188.08"/>
<polygon fill="#63b8ff" stroke="#63b8ff" points="391.13,-184.85 380.54,-184.83 388.81,-191.45 391.13,-184.85"/>
</g>
<!-- Node10 -->
<g id="node10" class="node">
<title>Node10</title>
<g id="a_node10"><a xlink:title=" ">
<polygon fill="#e0e0e0" stroke="#999999" points="282,-129 236,-129 236,-110 282,-110 282,-129"/>
<text text-anchor="middle" x="259" y="-117" font-family="Helvetica,sans-Serif" font-size="10.00">chrono</text>
</a>
</g>
</g>
<!-- Node1&#45;&gt;Node10 -->
<g id="edge20" class="edge">
<title>Node1&#45;&gt;Node10</title>
<path fill="none" stroke="#63b8ff" d="M477.36,-235.05C429.73,-229.18 362.44,-215.56 312,-184 293.98,-172.72 279.07,-153.25 269.71,-138.83"/>
<polygon fill="#63b8ff" stroke="#63b8ff" points="272.93,-137.38 264.7,-130.71 266.97,-141.06 272.93,-137.38"/>
</g>
<!-- Node13 -->
<g id="node13" class="node">
<title>Node13</title>
<g id="a_node13"><a xlink:title=" ">
<polygon fill="#e0e0e0" stroke="#999999" points="557,-129 513,-129 513,-110 557,-110 557,-129"/>
<text text-anchor="middle" x="535" y="-117" font-family="Helvetica,sans-Serif" font-size="10.00">thread</text>
</a>
</g>
</g>
<!-- Node1&#45;&gt;Node13 -->
<g id="edge23" class="edge">
<title>Node1&#45;&gt;Node13</title>
<path fill="none" stroke="#63b8ff" d="M477.3,-221.49C446.43,-208.73 418.01,-189.52 434,-165 441.92,-152.85 475.79,-139.51 502.15,-130.64"/>
<polygon fill="#63b8ff" stroke="#63b8ff" points="503.03,-134.03 511.45,-127.59 500.86,-127.38 503.03,-134.03"/>
</g>
<!-- Node14 -->
<g id="node14" class="node">
<title>Node14</title>
<g id="a_node14"><a xlink:title=" ">
<polygon fill="#e0e0e0" stroke="#999999" points="499,-184 443,-184 443,-165 499,-165 499,-184"/>
<text text-anchor="middle" x="471" y="-172" font-family="Helvetica,sans-Serif" font-size="10.00">algorithm</text>
</a>
</g>
</g>
<!-- Node1&#45;&gt;Node14 -->
<g id="edge14" class="edge">
<title>Node1&#45;&gt;Node14</title>
<path fill="none" stroke="#63b8ff" d="M515.79,-219.6C506.83,-210.78 496.4,-200.51 487.87,-192.11"/>
<polygon fill="#63b8ff" stroke="#63b8ff" points="490.46,-189.75 480.88,-185.22 485.55,-194.73 490.46,-189.75"/>
</g>
<!-- Node15 -->
<g id="node15" class="node">
<title>Node15</title>
<g id="a_node15"><a xlink:title=" ">
<polygon fill="#e0e0e0" stroke="#999999" points="555,-184 517,-184 517,-165 555,-165 555,-184"/>
<text text-anchor="middle" x="536" y="-172" font-family="Helvetica,sans-Serif" font-size="10.00">array</text>
</a>
</g>
</g>
<!-- Node1&#45;&gt;Node15 -->
<g id="edge15" class="edge">
<title>Node1&#45;&gt;Node15</title>
<path fill="none" stroke="#63b8ff" d="M536,-219.6C536,-211.98 536,-203.3 536,-195.66"/>
<polygon fill="#63b8ff" stroke="#63b8ff" points="539.5,-195.68 536,-185.68 532.5,-195.68 539.5,-195.68"/>
</g>
<!-- Node16 -->
<g id="node16" class="node">
<title>Node16</title>
<g id="a_node16"><a xlink:href="board__pins_8hpp.xhtml" target="_top" xlink:title="Provides named objects for the pins provided by the board.">
<polygon fill="white" stroke="#666666" points="655,-184 573,-184 573,-165 655,-165 655,-184"/>
<text text-anchor="middle" x="614" y="-172" font-family="Helvetica,sans-Serif" font-size="10.00">board_pins.hpp</text>
</a>
</g>
</g>
<!-- Node1&#45;&gt;Node16 -->
<g id="edge16" class="edge">
<title>Node1&#45;&gt;Node16</title>
<path fill="none" stroke="#63b8ff" d="M560.25,-219.6C571.35,-210.5 584.31,-199.86 594.72,-191.32"/>
<polygon fill="#63b8ff" stroke="#63b8ff" points="596.76,-194.17 602.27,-185.12 592.32,-188.76 596.76,-194.17"/>
</g>
<!-- Node19 -->
<g id="node19" class="node">
<title>Node19</title>
<g id="a_node19"><a xlink:title=" ">
<polygon fill="#e0e0e0" stroke="#999999" points="722.5,-184 673.5,-184 673.5,-165 722.5,-165 722.5,-184"/>
<text text-anchor="middle" x="698" y="-172" font-family="Helvetica,sans-Serif" font-size="10.00">cassert</text>
</a>
</g>
</g>
<!-- Node1&#45;&gt;Node19 -->
<g id="edge19" class="edge">
<title>Node1&#45;&gt;Node19</title>
<path fill="none" stroke="#63b8ff" d="M586.37,-219.6C612.07,-209.45 642.6,-197.39 665.23,-188.45"/>
<polygon fill="#63b8ff" stroke="#63b8ff" points="666.23,-191.82 674.24,-184.89 663.65,-185.31 666.23,-191.82"/>
</g>
<!-- Node20 -->
<g id="node20" class="node">
<title>Node20</title>
<g id="a_node20"><a xlink:title=" ">
<polygon fill="#e0e0e0" stroke="#999999" points="789.5,-184 740.5,-184 740.5,-165 789.5,-165 789.5,-184"/>
<text text-anchor="middle" x="765" y="-172" font-family="Helvetica,sans-Serif" font-size="10.00">cstddef</text>
</a>
</g>
</g>
<!-- Node1&#45;&gt;Node20 -->
<g id="edge21" class="edge">
<title>Node1&#45;&gt;Node20</title>
<path fill="none" stroke="#63b8ff" d="M594.97,-223.02C637.42,-211.15 693.31,-195.54 729.2,-185.5"/>
<polygon fill="#63b8ff" stroke="#63b8ff" points="729.97,-188.93 738.66,-182.86 728.08,-182.18 729.97,-188.93"/>
</g>
<!-- Node21 -->
<g id="node21" class="node">
<title>Node21</title>
<g id="a_node21"><a xlink:title=" ">
<polygon fill="#e0e0e0" stroke="#999999" points="854.5,-184 807.5,-184 807.5,-165 854.5,-165 854.5,-184"/>
<text text-anchor="middle" x="831" y="-172" font-family="Helvetica,sans-Serif" font-size="10.00">iterator</text>
</a>
</g>
</g>
<!-- Node1&#45;&gt;Node21 -->
<g id="edge22" class="edge">
<title>Node1&#45;&gt;Node21</title>
<path fill="none" stroke="#63b8ff" d="M594.95,-227.77C645.67,-217.51 721.04,-201.85 796.16,-184.35"/>
<polygon fill="#63b8ff" stroke="#63b8ff" points="796.83,-187.79 805.76,-182.1 795.23,-180.97 796.83,-187.79"/>
</g>
<!-- Node22 -->
<g id="node22" class="node">
<title>Node22</title>
<g id="a_node22"><a xlink:title=" ">
<polygon fill="#e0e0e0" stroke="#999999" points="935,-184 873,-184 873,-165 935,-165 935,-184"/>
<text text-anchor="middle" x="904" y="-172" font-family="Helvetica,sans-Serif" font-size="10.00">type_traits</text>
</a>
</g>
</g>
<!-- Node1&#45;&gt;Node22 -->
<g id="edge24" class="edge">
<title>Node1&#45;&gt;Node22</title>
<path fill="none" stroke="#63b8ff" d="M594.89,-230.17C658.08,-220 761.67,-202.91 861.48,-184.22"/>
<polygon fill="#63b8ff" stroke="#63b8ff" points="862.02,-187.68 871.2,-182.39 860.72,-180.8 862.02,-187.68"/>
</g>
<!-- Node23 -->
<g id="node23" class="node">
<title>Node23</title>
<g id="a_node23"><a xlink:title=" ">
<polygon fill="#e0e0e0" stroke="#999999" points="992.5,-184 953.5,-184 953.5,-165 992.5,-165 992.5,-184"/>
<text text-anchor="middle" x="973" y="-172" font-family="Helvetica,sans-Serif" font-size="10.00">utility</text>
</a>
</g>
</g>
<!-- Node1&#45;&gt;Node23 -->
<g id="edge25" class="edge">
<title>Node1&#45;&gt;Node23</title>
<path fill="none" stroke="#63b8ff" d="M594.92,-234.28C672.41,-226.81 812.89,-211.13 941.88,-184.14"/>
<polygon fill="#63b8ff" stroke="#63b8ff" points="942.6,-187.57 951.65,-182.06 941.14,-180.72 942.6,-187.57"/>
</g>
<!-- Node3 -->
<g id="node3" class="node">
<title>Node3</title>
<g id="a_node3"><a xlink:href="IKeypad_8hpp.xhtml" target="_top" xlink:title=" ">
<polygon fill="white" stroke="#666666" points="142,-129 0,-129 0,-110 142,-110 142,-129"/>
<text text-anchor="middle" x="71" y="-117" font-family="Helvetica,sans-Serif" font-size="10.00">user_interaction/IKeypad.hpp</text>
</a>
</g>
</g>
<!-- Node2&#45;&gt;Node3 -->
<g id="edge2" class="edge">
<title>Node2&#45;&gt;Node3</title>
<path fill="none" stroke="#63b8ff" d="M82.69,-164.75C80.94,-158.11 78.46,-148.73 76.23,-140.31"/>
<polygon fill="#63b8ff" stroke="#63b8ff" points="79.69,-139.68 73.75,-130.91 72.92,-141.47 79.69,-139.68"/>
</g>
<!-- Node4 -->
<g id="node4" class="node">
<title>Node4</title>
<g id="a_node4"><a xlink:href="KeyIds_8hpp.xhtml" target="_top" xlink:title=" ">
<polygon fill="white" stroke="#666666" points="103.5,-74 38.5,-74 38.5,-55 103.5,-55 103.5,-74"/>
<text text-anchor="middle" x="71" y="-62" font-family="Helvetica,sans-Serif" font-size="10.00">KeyIds.hpp</text>
</a>
</g>
</g>
<!-- Node3&#45;&gt;Node4 -->
<g id="edge3" class="edge">
<title>Node3&#45;&gt;Node4</title>
<path fill="none" stroke="#63b8ff" d="M71,-109.75C71,-103.27 71,-94.16 71,-85.9"/>
<polygon fill="#63b8ff" stroke="#63b8ff" points="74.5,-85.96 71,-75.96 67.5,-85.96 74.5,-85.96"/>
</g>
<!-- Node6 -->
<g id="node6" class="node">
<title>Node6</title>
<g id="a_node6"><a xlink:title=" ">
<polygon fill="#e0e0e0" stroke="#999999" points="260.5,-74 201.5,-74 201.5,-55 260.5,-55 260.5,-74"/>
<text text-anchor="middle" x="231" y="-62" font-family="Helvetica,sans-Serif" font-size="10.00">functional</text>
</a>
</g>
</g>
<!-- Node3&#45;&gt;Node6 -->
<g id="edge5" class="edge">
<title>Node3&#45;&gt;Node6</title>
<path fill="none" stroke="#63b8ff" d="M98.14,-109.51C124.31,-100.84 164.14,-87.65 193.36,-77.97"/>
<polygon fill="#63b8ff" stroke="#63b8ff" points="194.16,-81.39 202.56,-74.92 191.96,-74.74 194.16,-81.39"/>
</g>
<!-- Node5 -->
<g id="node5" class="node">
<title>Node5</title>
<g id="a_node5"><a xlink:title=" ">
<polygon fill="#e0e0e0" stroke="#999999" points="97,-19 45,-19 45,0 97,0 97,-19"/>
<text text-anchor="middle" x="71" y="-7" font-family="Helvetica,sans-Serif" font-size="10.00">ostream</text>
</a>
</g>
</g>
<!-- Node4&#45;&gt;Node5 -->
<g id="edge4" class="edge">
<title>Node4&#45;&gt;Node5</title>
<path fill="none" stroke="#63b8ff" d="M71,-54.75C71,-48.27 71,-39.16 71,-30.9"/>
<polygon fill="#63b8ff" stroke="#63b8ff" points="74.5,-30.96 71,-20.96 67.5,-30.96 74.5,-30.96"/>
</g>
<!-- Node8 -->
<g id="node8" class="node">
<title>Node8</title>
<g id="a_node8"><a xlink:title=" ">
<polygon fill="#e0e0e0" stroke="#999999" points="217.5,-129 160.5,-129 160.5,-110 217.5,-110 217.5,-129"/>
<text text-anchor="middle" x="189" y="-117" font-family="Helvetica,sans-Serif" font-size="10.00">Arduino.h</text>
</a>
</g>
</g>
<!-- Node7&#45;&gt;Node8 -->
<g id="edge7" class="edge">
<title>Node7&#45;&gt;Node8</title>
<path fill="none" stroke="#63b8ff" d="M192.34,-164.75C191.85,-158.27 191.16,-149.16 190.54,-140.9"/>
<polygon fill="#63b8ff" stroke="#63b8ff" points="194.03,-140.66 189.79,-130.95 187.05,-141.19 194.03,-140.66"/>
</g>
<!-- Node9&#45;&gt;Node6 -->
<g id="edge11" class="edge">
<title>Node9&#45;&gt;Node6</title>
<path fill="none" stroke="#63b8ff" d="M346.23,-164.87C334.69,-152.26 312.13,-128.3 291,-110 279.02,-99.62 264.81,-89.01 253.22,-80.76"/>
<polygon fill="#63b8ff" stroke="#63b8ff" points="255.27,-77.92 245.08,-75.04 251.25,-83.65 255.27,-77.92"/>
</g>
<!-- Node9&#45;&gt;Node10 -->
<g id="edge9" class="edge">
<title>Node9&#45;&gt;Node10</title>
<path fill="none" stroke="#63b8ff" d="M337.88,-164.51C323.33,-156.39 301.66,-144.3 284.71,-134.85"/>
<polygon fill="#63b8ff" stroke="#63b8ff" points="286.64,-131.91 276.2,-130.1 283.23,-138.02 286.64,-131.91"/>
</g>
<!-- Node11 -->
<g id="node11" class="node">
<title>Node11</title>
<g id="a_node11"><a xlink:title=" ">
<polygon fill="#e0e0e0" stroke="#999999" points="433.5,-129 338.5,-129 338.5,-110 433.5,-110 433.5,-129"/>
<text text-anchor="middle" x="386" y="-117" font-family="Helvetica,sans-Serif" font-size="10.00">condition_variable</text>
</a>
</g>
</g>
<!-- Node9&#45;&gt;Node11 -->
<g id="edge10" class="edge">
<title>Node9&#45;&gt;Node11</title>
<path fill="none" stroke="#63b8ff" d="M359.28,-164.75C363.47,-157.81 369.48,-147.86 374.73,-139.16"/>
<polygon fill="#63b8ff" stroke="#63b8ff" points="377.65,-141.11 379.82,-130.74 371.65,-137.49 377.65,-141.11"/>
</g>
<!-- Node12 -->
<g id="node12" class="node">
<title>Node12</title>
<g id="a_node12"><a xlink:title=" ">
<polygon fill="#e0e0e0" stroke="#999999" points="494.5,-129 451.5,-129 451.5,-110 494.5,-110 494.5,-129"/>
<text text-anchor="middle" x="473" y="-117" font-family="Helvetica,sans-Serif" font-size="10.00">mutex</text>
</a>
</g>
</g>
<!-- Node9&#45;&gt;Node12 -->
<g id="edge12" class="edge">
<title>Node9&#45;&gt;Node12</title>
<path fill="none" stroke="#63b8ff" d="M374.19,-164.51C393.02,-156.12 421.37,-143.5 442.87,-133.92"/>
<polygon fill="#63b8ff" stroke="#63b8ff" points="444.02,-137.24 451.73,-129.97 441.17,-130.85 444.02,-137.24"/>
</g>
<!-- Node9&#45;&gt;Node13 -->
<g id="edge13" class="edge">
<title>Node9&#45;&gt;Node13</title>
<path fill="none" stroke="#63b8ff" d="M384.7,-164.51C417.18,-155 468.26,-140.04 501.7,-130.25"/>
<polygon fill="#63b8ff" stroke="#63b8ff" points="502.66,-133.62 511.27,-127.45 500.69,-126.9 502.66,-133.62"/>
</g>
<!-- Node17 -->
<g id="node17" class="node">
<title>Node17</title>
<g id="a_node17"><a xlink:href="board__types_8hpp.xhtml" target="_top" xlink:title=" ">
<polygon fill="white" stroke="#666666" points="662.5,-129 575.5,-129 575.5,-110 662.5,-110 662.5,-129"/>
<text text-anchor="middle" x="619" y="-117" font-family="Helvetica,sans-Serif" font-size="10.00">board_types.hpp</text>
</a>
</g>
</g>
<!-- Node16&#45;&gt;Node17 -->
<g id="edge17" class="edge">
<title>Node16&#45;&gt;Node17</title>
<path fill="none" stroke="#63b8ff" d="M614.83,-164.75C615.44,-158.27 616.3,-149.16 617.08,-140.9"/>
<polygon fill="#63b8ff" stroke="#63b8ff" points="620.56,-141.23 618.01,-130.95 613.59,-140.58 620.56,-141.23"/>
</g>
<!-- Node18 -->
<g id="node18" class="node">
<title>Node18</title>
<g id="a_node18"><a xlink:title=" ">
<polygon fill="#e0e0e0" stroke="#999999" points="642,-74 596,-74 596,-55 642,-55 642,-74"/>
<text text-anchor="middle" x="619" y="-62" font-family="Helvetica,sans-Serif" font-size="10.00">cstdint</text>
</a>
</g>
</g>
<!-- Node17&#45;&gt;Node18 -->
<g id="edge18" class="edge">
<title>Node17&#45;&gt;Node18</title>
<path fill="none" stroke="#63b8ff" d="M619,-109.75C619,-103.27 619,-94.16 619,-85.9"/>
<polygon fill="#63b8ff" stroke="#63b8ff" points="622.5,-85.96 619,-75.96 615.5,-85.96 622.5,-85.96"/>
</g>
</g>
</svg>
