<?xml version="1.0" encoding="UTF-8" standalone="no"?>
<!DOCTYPE svg PUBLIC "-//W3C//DTD SVG 1.1//EN"
 "http://www.w3.org/Graphics/SVG/1.1/DTD/svg11.dtd">
<!-- Generated by graphviz version 7.0.5 (20221223.1930)
 -->
<!-- Title: lib/3rd_party_adapters/Arduino/serial_port.cpp Pages: 1 -->
<svg width="430pt" height="159pt"
 viewBox="0.00 0.00 430.00 159.00" xmlns="http://www.w3.org/2000/svg" xmlns:xlink="http://www.w3.org/1999/xlink">
<g id="graph0" class="graph" transform="scale(1 1) rotate(0) translate(4 155)">
<title>lib/3rd_party_adapters/Arduino/serial_port.cpp</title>
<!-- Node1 -->
<g id="node1" class="node">
<title>Node1</title>
<g id="a_node1"><a xlink:title=" ">
<polygon fill="#999999" stroke="#666666" points="231,-151 112,-151 112,-121 231,-121 231,-151"/>
<text text-anchor="start" x="120" y="-139" font-family="Helvetica,sans-Serif" font-size="10.00">lib/3rd_party_adapters</text>
<text text-anchor="middle" x="171.5" y="-128" font-family="Helvetica,sans-Serif" font-size="10.00">/Arduino/serial_port.cpp</text>
</a>
</g>
</g>
<!-- Node2 -->
<g id="node2" class="node">
<title>Node2</title>
<g id="a_node2"><a xlink:title=" ">
<polygon fill="#e0e0e0" stroke="#999999" points="57,-79.5 0,-79.5 0,-60.5 57,-60.5 57,-79.5"/>
<text text-anchor="middle" x="28.5" y="-67.5" font-family="Helvetica,sans-Serif" font-size="10.00">Arduino.h</text>
</a>
</g>
</g>
<!-- Node1&#45;&gt;Node2 -->
<g id="edge1" class="edge">
<title>Node1&#45;&gt;Node2</title>
<path fill="none" stroke="#63b8ff" d="M139.41,-120.64C115.38,-109.88 82.72,-95.27 59.07,-84.68"/>
<polygon fill="#63b8ff" stroke="#63b8ff" points="60.52,-81.49 49.96,-80.6 57.66,-87.88 60.52,-81.49"/>
</g>
<!-- Node3 -->
<g id="node3" class="node">
<title>Node3</title>
<g id="a_node3"><a xlink:title=" ">
<polygon fill="#e0e0e0" stroke="#999999" points="129.5,-79.5 75.5,-79.5 75.5,-60.5 129.5,-60.5 129.5,-79.5"/>
<text text-anchor="middle" x="102.5" y="-67.5" font-family="Helvetica,sans-Serif" font-size="10.00">iostream</text>
</a>
</g>
</g>
<!-- Node1&#45;&gt;Node3 -->
<g id="edge2" class="edge">
<title>Node1&#45;&gt;Node3</title>
<path fill="none" stroke="#63b8ff" d="M156.19,-120.8C145.54,-110.92 131.31,-97.72 120.17,-87.39"/>
<polygon fill="#63b8ff" stroke="#63b8ff" points="122.86,-85.11 113.14,-80.87 118.1,-90.24 122.86,-85.11"/>
</g>
<!-- Node4 -->
<g id="node4" class="node">
<title>Node4</title>
<g id="a_node4"><a xlink:title=" ">
<polygon fill="#e0e0e0" stroke="#999999" points="195,-79.5 148,-79.5 148,-60.5 195,-60.5 195,-79.5"/>
<text text-anchor="middle" x="171.5" y="-67.5" font-family="Helvetica,sans-Serif" font-size="10.00">iterator</text>
</a>
</g>
</g>
<!-- Node1&#45;&gt;Node4 -->
<g id="edge3" class="edge">
<title>Node1&#45;&gt;Node4</title>
<path fill="none" stroke="#63b8ff" d="M171.5,-120.8C171.5,-112.09 171.5,-100.81 171.5,-91.18"/>
<polygon fill="#63b8ff" stroke="#63b8ff" points="175,-91.36 171.5,-81.36 168,-91.36 175,-91.36"/>
</g>
<!-- Node5 -->
<g id="node5" class="node">
<title>Node5</title>
<g id="a_node5"><a xlink:href="serial__port_8hpp.xhtml" target="_top" xlink:title=" ">
<polygon fill="white" stroke="#666666" points="322,-85 213,-85 213,-55 322,-55 322,-85"/>
<text text-anchor="start" x="221" y="-73" font-family="Helvetica,sans-Serif" font-size="10.00">serial_interface/serial</text>
<text text-anchor="middle" x="267.5" y="-62" font-family="Helvetica,sans-Serif" font-size="10.00">_port.hpp</text>
</a>
</g>
</g>
<!-- Node1&#45;&gt;Node5 -->
<g id="edge4" class="edge">
<title>Node1&#45;&gt;Node5</title>
<path fill="none" stroke="#63b8ff" d="M192.81,-120.8C205.64,-112.24 222.21,-101.19 236.48,-91.68"/>
<polygon fill="#63b8ff" stroke="#63b8ff" points="238.28,-94.68 244.66,-86.22 234.4,-88.86 238.28,-94.68"/>
</g>
<!-- Node11 -->
<g id="node11" class="node">
<title>Node11</title>
<g id="a_node11"><a xlink:title=" ">
<polygon fill="#e0e0e0" stroke="#999999" points="402.5,-79.5 340.5,-79.5 340.5,-60.5 402.5,-60.5 402.5,-79.5"/>
<text text-anchor="middle" x="371.5" y="-67.5" font-family="Helvetica,sans-Serif" font-size="10.00">type_traits</text>
</a>
</g>
</g>
<!-- Node1&#45;&gt;Node11 -->
<g id="edge10" class="edge">
<title>Node1&#45;&gt;Node11</title>
<path fill="none" stroke="#63b8ff" d="M219.24,-120.54C251.12,-110.78 293.93,-97.44 331.5,-85 332.88,-84.54 334.28,-84.08 335.69,-83.6"/>
<polygon fill="#63b8ff" stroke="#63b8ff" points="336.82,-86.91 345.15,-80.36 334.55,-80.29 336.82,-86.91"/>
</g>
<!-- Node6 -->
<g id="node6" class="node">
<title>Node6</title>
<g id="a_node6"><a xlink:title=" ">
<polygon fill="#e0e0e0" stroke="#999999" points="146.5,-19 108.5,-19 108.5,0 146.5,0 146.5,-19"/>
<text text-anchor="middle" x="127.5" y="-7" font-family="Helvetica,sans-Serif" font-size="10.00">array</text>
</a>
</g>
</g>
<!-- Node5&#45;&gt;Node6 -->
<g id="edge5" class="edge">
<title>Node5&#45;&gt;Node6</title>
<path fill="none" stroke="#63b8ff" d="M232.89,-54.54C209.62,-44.81 179.26,-32.13 157.11,-22.87"/>
<polygon fill="#63b8ff" stroke="#63b8ff" points="158.63,-19.71 148.05,-19.09 155.93,-26.17 158.63,-19.71"/>
</g>
<!-- Node7 -->
<g id="node7" class="node">
<title>Node7</title>
<g id="a_node7"><a xlink:title=" ">
<polygon fill="#e0e0e0" stroke="#999999" points="224,-19 165,-19 165,0 224,0 224,-19"/>
<text text-anchor="middle" x="194.5" y="-7" font-family="Helvetica,sans-Serif" font-size="10.00">functional</text>
</a>
</g>
</g>
<!-- Node5&#45;&gt;Node7 -->
<g id="edge6" class="edge">
<title>Node5&#45;&gt;Node7</title>
<path fill="none" stroke="#63b8ff" d="M249.46,-54.54C238.74,-45.96 225.16,-35.07 214.17,-26.26"/>
<polygon fill="#63b8ff" stroke="#63b8ff" points="216.5,-23.64 206.51,-20.12 212.12,-29.11 216.5,-23.64"/>
</g>
<!-- Node8 -->
<g id="node8" class="node">
<title>Node8</title>
<g id="a_node8"><a xlink:title=" ">
<polygon fill="#e0e0e0" stroke="#999999" points="292.5,-19 242.5,-19 242.5,0 292.5,0 292.5,-19"/>
<text text-anchor="middle" x="267.5" y="-7" font-family="Helvetica,sans-Serif" font-size="10.00">optional</text>
</a>
</g>
</g>
<!-- Node5&#45;&gt;Node8 -->
<g id="edge7" class="edge">
<title>Node5&#45;&gt;Node8</title>
<path fill="none" stroke="#63b8ff" d="M267.5,-54.54C267.5,-47.34 267.5,-38.53 267.5,-30.68"/>
<polygon fill="#63b8ff" stroke="#63b8ff" points="271,-30.69 267.5,-20.69 264,-30.69 271,-30.69"/>
</g>
<!-- Node9 -->
<g id="node9" class="node">
<title>Node9</title>
<g id="a_node9"><a xlink:title=" ">
<polygon fill="#e0e0e0" stroke="#999999" points="362.5,-19 310.5,-19 310.5,0 362.5,0 362.5,-19"/>
<text text-anchor="middle" x="336.5" y="-7" font-family="Helvetica,sans-Serif" font-size="10.00">ostream</text>
</a>
</g>
</g>
<!-- Node5&#45;&gt;Node9 -->
<g id="edge8" class="edge">
<title>Node5&#45;&gt;Node9</title>
<path fill="none" stroke="#63b8ff" d="M284.56,-54.54C294.58,-46.04 307.26,-35.29 317.59,-26.53"/>
<polygon fill="#63b8ff" stroke="#63b8ff" points="319.75,-29.29 325.11,-20.15 315.22,-23.95 319.75,-29.29"/>
</g>
<!-- Node10 -->
<g id="node10" class="node">
<title>Node10</title>
<g id="a_node10"><a xlink:title=" ">
<polygon fill="#e0e0e0" stroke="#999999" points="422,-19 381,-19 381,0 422,0 422,-19"/>
<text text-anchor="middle" x="401.5" y="-7" font-family="Helvetica,sans-Serif" font-size="10.00">string</text>
</a>
</g>
</g>
<!-- Node5&#45;&gt;Node10 -->
<g id="edge9" class="edge">
<title>Node5&#45;&gt;Node10</title>
<path fill="none" stroke="#63b8ff" d="M300.62,-54.54C322.14,-45.15 349.98,-32.99 370.96,-23.83"/>
<polygon fill="#63b8ff" stroke="#63b8ff" points="372.09,-27.16 379.85,-19.95 369.28,-20.75 372.09,-27.16"/>
</g>
</g>
</svg>
