<?xml version="1.0" encoding="UTF-8" standalone="no"?>
<!DOCTYPE svg PUBLIC "-//W3C//DTD SVG 1.1//EN"
 "http://www.w3.org/Graphics/SVG/1.1/DTD/svg11.dtd">
<!-- Generated by graphviz version 7.0.5 (20221223.1930)
 -->
<!-- Title: command_line_interpreter::Option&lt; T, CharType &gt; Pages: 1 -->
<svg width="209pt" height="148pt"
 viewBox="0.00 0.00 209.00 148.00" xmlns="http://www.w3.org/2000/svg" xmlns:xlink="http://www.w3.org/1999/xlink">
<g id="graph0" class="graph" transform="scale(1 1) rotate(0) translate(4 144)">
<title>command_line_interpreter::Option&lt; T, CharType &gt;</title>
<!-- Node1 -->
<g id="node1" class="node">
<title>Node1</title>
<g id="a_node1"><a xlink:title="Extracts data from string options.">
<polygon fill="#999999" stroke="#666666" points="173.5,-63 42.5,-63 42.5,0 173.5,0 173.5,-63"/>
<text text-anchor="start" x="50.5" y="-51" font-family="Helvetica,sans-Serif" font-size="10.00">{command_line_interpreter</text>
<text text-anchor="middle" x="108" y="-40" font-family="Helvetica,sans-Serif" font-size="10.00">::Option&lt; T, CharType &gt;</text>
<text text-anchor="start" x="50.5" y="-29" font-family="Helvetica,sans-Serif" font-size="10.00">||+ doesMatchName()</text>
<text text-anchor="start" x="50.5" y="-18" font-family="Helvetica,sans-Serif" font-size="10.00">+ extractArgument()</text>
<text text-anchor="middle" x="108" y="-7" font-family="Helvetica,sans-Serif" font-size="10.00">}</text>
</a>
</g>
</g>
<!-- Node2 -->
<g id="node2" class="node">
<title>Node2</title>
<g id="a_node2"><a xlink:title=" ">
<polygon fill="white" stroke="#666666" points="122,-140 0,-140 0,-110 122,-110 122,-140"/>
<text text-anchor="middle" x="61" y="-128" font-family="Helvetica,sans-Serif" font-size="10.00">{vector&lt; const CharT * &gt;</text>
<text text-anchor="middle" x="61" y="-117" font-family="Helvetica,sans-Serif" font-size="10.00">||}</text>
</a>
</g>
</g>
<!-- Node2&#45;&gt;Node1 -->
<g id="edge1" class="edge">
<title>Node2&#45;&gt;Node1</title>
<path fill="none" stroke="#404040" d="M68.34,-109.7C73.21,-100.24 79.86,-87.29 86.32,-74.7"/>
<polygon fill="none" stroke="#404040" points="86.26,-74.83 85.44,-67.66 91.74,-64.15 92.56,-71.32 86.26,-74.83"/>
<text text-anchor="middle" x="99" y="-84" font-family="Helvetica,sans-Serif" font-size="10.00"> +labels</text>
</g>
<!-- Node3 -->
<g id="node3" class="node">
<title>Node3</title>
<g id="a_node3"><a xlink:title=" ">
<polygon fill="white" stroke="#666666" points="169.5,-140 140.5,-140 140.5,-110 169.5,-110 169.5,-140"/>
<text text-anchor="middle" x="155" y="-128" font-family="Helvetica,sans-Serif" font-size="10.00">{T</text>
<text text-anchor="middle" x="155" y="-117" font-family="Helvetica,sans-Serif" font-size="10.00">||}</text>
</a>
</g>
</g>
<!-- Node3&#45;&gt;Node1 -->
<g id="edge2" class="edge">
<title>Node3&#45;&gt;Node1</title>
<path fill="none" stroke="#404040" d="M147.66,-109.7C142.79,-100.24 136.14,-87.29 129.68,-74.7"/>
<polygon fill="none" stroke="#404040" points="129.74,-74.83 123.44,-71.32 124.26,-64.15 130.56,-67.66 129.74,-74.83"/>
<text text-anchor="middle" x="169.5" y="-84" font-family="Helvetica,sans-Serif" font-size="10.00"> +defaultValue</text>
</g>
</g>
</svg>
