<?xml version="1.0" encoding="UTF-8" standalone="no"?>
<!DOCTYPE svg PUBLIC "-//W3C//DTD SVG 1.1//EN"
 "http://www.w3.org/Graphics/SVG/1.1/DTD/svg11.dtd">
<!-- Generated by graphviz version 7.0.5 (20221223.1930)
 -->
<!-- Title: lib/serial_interface/logging.cpp Pages: 1 -->
<svg width="324pt" height="148pt"
 viewBox="0.00 0.00 323.50 148.00" xmlns="http://www.w3.org/2000/svg" xmlns:xlink="http://www.w3.org/1999/xlink">
<g id="graph0" class="graph" transform="scale(1 1) rotate(0) translate(4 144)">
<title>lib/serial_interface/logging.cpp</title>
<!-- Node1 -->
<g id="node1" class="node">
<title>Node1</title>
<g id="a_node1"><a xlink:title=" ">
<polygon fill="#999999" stroke="#666666" points="165.5,-140 70.5,-140 70.5,-110 165.5,-110 165.5,-140"/>
<text text-anchor="start" x="78.5" y="-128" font-family="Helvetica,sans-Serif" font-size="10.00">lib/serial_interface</text>
<text text-anchor="middle" x="118" y="-117" font-family="Helvetica,sans-Serif" font-size="10.00">/logging.cpp</text>
</a>
</g>
</g>
<!-- Node2 -->
<g id="node2" class="node">
<title>Node2</title>
<g id="a_node2"><a xlink:href="logging_8hpp.xhtml" target="_top" xlink:title=" ">
<polygon fill="white" stroke="#666666" points="88.5,-74 23.5,-74 23.5,-55 88.5,-55 88.5,-74"/>
<text text-anchor="middle" x="56" y="-62" font-family="Helvetica,sans-Serif" font-size="10.00">logging.hpp</text>
</a>
</g>
</g>
<!-- Node1&#45;&gt;Node2 -->
<g id="edge1" class="edge">
<title>Node1&#45;&gt;Node2</title>
<path fill="none" stroke="#63b8ff" d="M102.67,-109.54C93.85,-101.22 82.73,-90.72 73.56,-82.07"/>
<polygon fill="#63b8ff" stroke="#63b8ff" points="75.97,-79.53 66.3,-75.21 71.17,-84.62 75.97,-79.53"/>
</g>
<!-- Node5 -->
<g id="node5" class="node">
<title>Node5</title>
<g id="a_node5"><a xlink:href="SerialOutputStreamBuffer_8hpp.xhtml" target="_top" xlink:title=" ">
<polygon fill="white" stroke="#666666" points="253,-74 107,-74 107,-55 253,-55 253,-74"/>
<text text-anchor="middle" x="180" y="-62" font-family="Helvetica,sans-Serif" font-size="10.00">SerialOutputStreamBuffer.hpp</text>
</a>
</g>
</g>
<!-- Node1&#45;&gt;Node5 -->
<g id="edge4" class="edge">
<title>Node1&#45;&gt;Node5</title>
<path fill="none" stroke="#63b8ff" d="M133.33,-109.54C142.15,-101.22 153.27,-90.72 162.44,-82.07"/>
<polygon fill="#63b8ff" stroke="#63b8ff" points="164.83,-84.62 169.7,-75.21 160.03,-79.53 164.83,-84.62"/>
</g>
<!-- Node3 -->
<g id="node3" class="node">
<title>Node3</title>
<g id="a_node3"><a xlink:title=" ">
<polygon fill="#e0e0e0" stroke="#999999" points="38,-19 0,-19 0,0 38,0 38,-19"/>
<text text-anchor="middle" x="19" y="-7" font-family="Helvetica,sans-Serif" font-size="10.00">array</text>
</a>
</g>
</g>
<!-- Node2&#45;&gt;Node3 -->
<g id="edge2" class="edge">
<title>Node2&#45;&gt;Node3</title>
<path fill="none" stroke="#63b8ff" d="M49.89,-54.75C44.99,-47.73 37.95,-37.64 31.83,-28.87"/>
<polygon fill="#63b8ff" stroke="#63b8ff" points="34.7,-26.88 26.11,-20.68 28.96,-30.89 34.7,-26.88"/>
</g>
<!-- Node4 -->
<g id="node4" class="node">
<title>Node4</title>
<g id="a_node4"><a xlink:title=" ">
<polygon fill="#e0e0e0" stroke="#999999" points="108,-19 56,-19 56,0 108,0 108,-19"/>
<text text-anchor="middle" x="82" y="-7" font-family="Helvetica,sans-Serif" font-size="10.00">ostream</text>
</a>
</g>
</g>
<!-- Node2&#45;&gt;Node4 -->
<g id="edge3" class="edge">
<title>Node2&#45;&gt;Node4</title>
<path fill="none" stroke="#63b8ff" d="M60.29,-54.75C63.62,-47.96 68.36,-38.3 72.56,-29.73"/>
<polygon fill="#63b8ff" stroke="#63b8ff" points="75.68,-31.32 76.95,-20.8 69.4,-28.24 75.68,-31.32"/>
</g>
<!-- Node5&#45;&gt;Node4 -->
<g id="edge8" class="edge">
<title>Node5&#45;&gt;Node4</title>
<path fill="none" stroke="#63b8ff" d="M163.38,-54.51C148.22,-46.31 125.58,-34.07 108.03,-24.58"/>
<polygon fill="#63b8ff" stroke="#63b8ff" points="110.17,-21.76 99.71,-20.08 106.84,-27.91 110.17,-21.76"/>
</g>
<!-- Node6 -->
<g id="node6" class="node">
<title>Node6</title>
<g id="a_node6"><a xlink:title=" ">
<polygon fill="#e0e0e0" stroke="#999999" points="183.5,-19 126.5,-19 126.5,0 183.5,0 183.5,-19"/>
<text text-anchor="middle" x="155" y="-7" font-family="Helvetica,sans-Serif" font-size="10.00">Arduino.h</text>
</a>
</g>
</g>
<!-- Node5&#45;&gt;Node6 -->
<g id="edge5" class="edge">
<title>Node5&#45;&gt;Node6</title>
<path fill="none" stroke="#63b8ff" d="M175.87,-54.75C172.67,-47.96 168.11,-38.3 164.07,-29.73"/>
<polygon fill="#63b8ff" stroke="#63b8ff" points="167.3,-28.36 159.86,-20.81 160.96,-31.35 167.3,-28.36"/>
</g>
<!-- Node7 -->
<g id="node7" class="node">
<title>Node7</title>
<g id="a_node7"><a xlink:title=" ">
<polygon fill="#e0e0e0" stroke="#999999" points="250.5,-19 201.5,-19 201.5,0 250.5,0 250.5,-19"/>
<text text-anchor="middle" x="226" y="-7" font-family="Helvetica,sans-Serif" font-size="10.00">cstddef</text>
</a>
</g>
</g>
<!-- Node5&#45;&gt;Node7 -->
<g id="edge6" class="edge">
<title>Node5&#45;&gt;Node7</title>
<path fill="none" stroke="#63b8ff" d="M187.6,-54.75C193.88,-47.5 203.01,-36.98 210.8,-28.02"/>
<polygon fill="#63b8ff" stroke="#63b8ff" points="213.34,-30.43 217.25,-20.59 208.05,-25.84 213.34,-30.43"/>
</g>
<!-- Node8 -->
<g id="node8" class="node">
<title>Node8</title>
<g id="a_node8"><a xlink:title=" ">
<polygon fill="#e0e0e0" stroke="#999999" points="315.5,-19 268.5,-19 268.5,0 315.5,0 315.5,-19"/>
<text text-anchor="middle" x="292" y="-7" font-family="Helvetica,sans-Serif" font-size="10.00">iterator</text>
</a>
</g>
</g>
<!-- Node5&#45;&gt;Node8 -->
<g id="edge7" class="edge">
<title>Node5&#45;&gt;Node8</title>
<path fill="none" stroke="#63b8ff" d="M199,-54.51C216.56,-46.2 242.92,-33.73 263.09,-24.18"/>
<polygon fill="#63b8ff" stroke="#63b8ff" points="264.37,-27.45 271.91,-20.01 261.38,-21.12 264.37,-27.45"/>
</g>
</g>
</svg>
