<?xml version="1.0" encoding="UTF-8" standalone="no"?>
<!DOCTYPE svg PUBLIC "-//W3C//DTD SVG 1.1//EN"
 "http://www.w3.org/Graphics/SVG/1.1/DTD/svg11.dtd">
<!-- Generated by graphviz version 7.0.5 (20221223.1930)
 -->
<!-- Title: lib/serial_interface/SerialInputHandler.cpp Pages: 1 -->
<svg width="198pt" height="148pt"
 viewBox="0.00 0.00 198.00 148.00" xmlns="http://www.w3.org/2000/svg" xmlns:xlink="http://www.w3.org/1999/xlink">
<g id="graph0" class="graph" transform="scale(1 1) rotate(0) translate(4 144)">
<title>lib/serial_interface/SerialInputHandler.cpp</title>
<!-- Node1 -->
<g id="node1" class="node">
<title>Node1</title>
<g id="a_node1"><a xlink:title=" ">
<polygon fill="#999999" stroke="#666666" points="168.5,-140 50.5,-140 50.5,-110 168.5,-110 168.5,-140"/>
<text text-anchor="start" x="58.5" y="-128" font-family="Helvetica,sans-Serif" font-size="10.00">lib/serial_interface</text>
<text text-anchor="middle" x="109.5" y="-117" font-family="Helvetica,sans-Serif" font-size="10.00">/SerialInputHandler.cpp</text>
</a>
</g>
</g>
<!-- Node2 -->
<g id="node2" class="node">
<title>Node2</title>
<g id="a_node2"><a xlink:href="SerialInputHandler_8hpp.xhtml" target="_top" xlink:title=" ">
<polygon fill="white" stroke="#666666" points="115,-74 0,-74 0,-55 115,-55 115,-74"/>
<text text-anchor="middle" x="57.5" y="-62" font-family="Helvetica,sans-Serif" font-size="10.00">SerialInputHandler.hpp</text>
</a>
</g>
</g>
<!-- Node1&#45;&gt;Node2 -->
<g id="edge1" class="edge">
<title>Node1&#45;&gt;Node2</title>
<path fill="none" stroke="#63b8ff" d="M96.65,-109.54C89.4,-101.39 80.31,-91.16 72.71,-82.61"/>
<polygon fill="#63b8ff" stroke="#63b8ff" points="75.48,-80.46 66.22,-75.31 70.24,-85.11 75.48,-80.46"/>
</g>
<!-- Node5 -->
<g id="node5" class="node">
<title>Node5</title>
<g id="a_node5"><a xlink:title=" ">
<polygon fill="#e0e0e0" stroke="#999999" points="190,-74 133,-74 133,-55 190,-55 190,-74"/>
<text text-anchor="middle" x="161.5" y="-62" font-family="Helvetica,sans-Serif" font-size="10.00">Arduino.h</text>
</a>
</g>
</g>
<!-- Node1&#45;&gt;Node5 -->
<g id="edge4" class="edge">
<title>Node1&#45;&gt;Node5</title>
<path fill="none" stroke="#63b8ff" d="M122.35,-109.54C129.6,-101.39 138.69,-91.16 146.29,-82.61"/>
<polygon fill="#63b8ff" stroke="#63b8ff" points="148.76,-85.11 152.78,-75.31 143.52,-80.46 148.76,-85.11"/>
</g>
<!-- Node3 -->
<g id="node3" class="node">
<title>Node3</title>
<g id="a_node3"><a xlink:title=" ">
<polygon fill="#e0e0e0" stroke="#999999" points="49,-19 6,-19 6,0 49,0 49,-19"/>
<text text-anchor="middle" x="27.5" y="-7" font-family="Helvetica,sans-Serif" font-size="10.00">queue</text>
</a>
</g>
</g>
<!-- Node2&#45;&gt;Node3 -->
<g id="edge2" class="edge">
<title>Node2&#45;&gt;Node3</title>
<path fill="none" stroke="#63b8ff" d="M52.55,-54.75C48.66,-47.88 43.11,-38.08 38.22,-29.45"/>
<polygon fill="#63b8ff" stroke="#63b8ff" points="41.28,-27.74 33.31,-20.76 35.19,-31.19 41.28,-27.74"/>
</g>
<!-- Node4 -->
<g id="node4" class="node">
<title>Node4</title>
<g id="a_node4"><a xlink:title=" ">
<polygon fill="#e0e0e0" stroke="#999999" points="108,-19 67,-19 67,0 108,0 108,-19"/>
<text text-anchor="middle" x="87.5" y="-7" font-family="Helvetica,sans-Serif" font-size="10.00">string</text>
</a>
</g>
</g>
<!-- Node2&#45;&gt;Node4 -->
<g id="edge3" class="edge">
<title>Node2&#45;&gt;Node4</title>
<path fill="none" stroke="#63b8ff" d="M62.45,-54.75C66.34,-47.88 71.89,-38.08 76.78,-29.45"/>
<polygon fill="#63b8ff" stroke="#63b8ff" points="79.81,-31.19 81.69,-20.76 73.72,-27.74 79.81,-31.19"/>
</g>
</g>
</svg>
