<?xml version="1.0" encoding="UTF-8" standalone="no"?>
<!DOCTYPE svg PUBLIC "-//W3C//DTD SVG 1.1//EN"
 "http://www.w3.org/Graphics/SVG/1.1/DTD/svg11.dtd">
<!-- Generated by graphviz version 7.0.5 (20221223.1930)
 -->
<!-- Title: lib/3rd_party_adapters/serial_port.cpp Pages: 1 -->
<svg width="331pt" height="148pt"
 viewBox="0.00 0.00 330.50 148.00" xmlns="http://www.w3.org/2000/svg" xmlns:xlink="http://www.w3.org/1999/xlink">
<g id="graph0" class="graph" transform="scale(1 1) rotate(0) translate(4 144)">
<title>lib/3rd_party_adapters/serial_port.cpp</title>
<!-- Node1 -->
<g id="node1" class="node">
<title>Node1</title>
<g id="a_node1"><a xlink:title=" ">
<polygon fill="#999999" stroke="#666666" points="240,-140 128,-140 128,-110 240,-110 240,-140"/>
<text text-anchor="start" x="136" y="-128" font-family="Helvetica,sans-Serif" font-size="10.00">lib/3rd_party_adapters</text>
<text text-anchor="middle" x="184" y="-117" font-family="Helvetica,sans-Serif" font-size="10.00">/serial_port.cpp</text>
</a>
</g>
</g>
<!-- Node2 -->
<g id="node2" class="node">
<title>Node2</title>
<g id="a_node2"><a xlink:href="serial__port_8hpp.xhtml" target="_top" xlink:title=" ">
<polygon fill="white" stroke="#666666" points="93,-74 13,-74 13,-55 93,-55 93,-74"/>
<text text-anchor="middle" x="53" y="-62" font-family="Helvetica,sans-Serif" font-size="10.00">serial_port.hpp</text>
</a>
</g>
</g>
<!-- Node1&#45;&gt;Node2 -->
<g id="edge1" class="edge">
<title>Node1&#45;&gt;Node2</title>
<path fill="none" stroke="#63b8ff" d="M151.62,-109.54C130.68,-100.19 103.62,-88.1 83.14,-78.96"/>
<polygon fill="#63b8ff" stroke="#63b8ff" points="84.75,-75.85 74.19,-74.96 81.9,-82.24 84.75,-75.85"/>
</g>
<!-- Node5 -->
<g id="node5" class="node">
<title>Node5</title>
<g id="a_node5"><a xlink:href="SerialOutputStreamBuffer_8hpp.xhtml" target="_top" xlink:title=" ">
<polygon fill="white" stroke="#666666" points="257,-74 111,-74 111,-55 257,-55 257,-74"/>
<text text-anchor="middle" x="184" y="-62" font-family="Helvetica,sans-Serif" font-size="10.00">SerialOutputStreamBuffer.hpp</text>
</a>
</g>
</g>
<!-- Node1&#45;&gt;Node5 -->
<g id="edge4" class="edge">
<title>Node1&#45;&gt;Node5</title>
<path fill="none" stroke="#63b8ff" d="M184,-109.54C184,-102.34 184,-93.53 184,-85.68"/>
<polygon fill="#63b8ff" stroke="#63b8ff" points="187.5,-85.69 184,-75.69 180.5,-85.69 187.5,-85.69"/>
</g>
<!-- Node7 -->
<g id="node7" class="node">
<title>Node7</title>
<g id="a_node7"><a xlink:title=" ">
<polygon fill="#e0e0e0" stroke="#999999" points="322.5,-74 275.5,-74 275.5,-55 322.5,-55 322.5,-74"/>
<text text-anchor="middle" x="299" y="-62" font-family="Helvetica,sans-Serif" font-size="10.00">iterator</text>
</a>
</g>
</g>
<!-- Node1&#45;&gt;Node7 -->
<g id="edge6" class="edge">
<title>Node1&#45;&gt;Node7</title>
<path fill="none" stroke="#63b8ff" d="M212.43,-109.54C230.47,-100.36 253.69,-88.55 271.54,-79.47"/>
<polygon fill="#63b8ff" stroke="#63b8ff" points="272.93,-82.69 280.26,-75.03 269.76,-76.45 272.93,-82.69"/>
</g>
<!-- Node3 -->
<g id="node3" class="node">
<title>Node3</title>
<g id="a_node3"><a xlink:title=" ">
<polygon fill="#e0e0e0" stroke="#999999" points="38,-19 0,-19 0,0 38,0 38,-19"/>
<text text-anchor="middle" x="19" y="-7" font-family="Helvetica,sans-Serif" font-size="10.00">array</text>
</a>
</g>
</g>
<!-- Node2&#45;&gt;Node3 -->
<g id="edge2" class="edge">
<title>Node2&#45;&gt;Node3</title>
<path fill="none" stroke="#63b8ff" d="M47.39,-54.75C42.88,-47.73 36.41,-37.64 30.79,-28.87"/>
<polygon fill="#63b8ff" stroke="#63b8ff" points="33.9,-27.24 25.55,-20.72 28.01,-31.02 33.9,-27.24"/>
</g>
<!-- Node4 -->
<g id="node4" class="node">
<title>Node4</title>
<g id="a_node4"><a xlink:title=" ">
<polygon fill="#e0e0e0" stroke="#999999" points="108,-19 56,-19 56,0 108,0 108,-19"/>
<text text-anchor="middle" x="82" y="-7" font-family="Helvetica,sans-Serif" font-size="10.00">ostream</text>
</a>
</g>
</g>
<!-- Node2&#45;&gt;Node4 -->
<g id="edge3" class="edge">
<title>Node2&#45;&gt;Node4</title>
<path fill="none" stroke="#63b8ff" d="M57.79,-54.75C61.54,-47.88 66.91,-38.08 71.63,-29.45"/>
<polygon fill="#63b8ff" stroke="#63b8ff" points="74.65,-31.22 76.38,-20.77 68.51,-27.86 74.65,-31.22"/>
</g>
<!-- Node6 -->
<g id="node6" class="node">
<title>Node6</title>
<g id="a_node6"><a xlink:title=" ">
<polygon fill="#e0e0e0" stroke="#999999" points="214,-19 154,-19 154,0 214,0 214,-19"/>
<text text-anchor="middle" x="184" y="-7" font-family="Helvetica,sans-Serif" font-size="10.00">streambuf</text>
</a>
</g>
</g>
<!-- Node5&#45;&gt;Node6 -->
<g id="edge5" class="edge">
<title>Node5&#45;&gt;Node6</title>
<path fill="none" stroke="#63b8ff" d="M184,-54.75C184,-48.27 184,-39.16 184,-30.9"/>
<polygon fill="#63b8ff" stroke="#63b8ff" points="187.5,-30.96 184,-20.96 180.5,-30.96 187.5,-30.96"/>
</g>
</g>
</svg>
