<?xml version="1.0" encoding="UTF-8" standalone="no"?>
<!DOCTYPE svg PUBLIC "-//W3C//DTD SVG 1.1//EN"
 "http://www.w3.org/Graphics/SVG/1.1/DTD/svg11.dtd">
<!-- Generated by graphviz version 7.0.5 (20221223.1930)
 -->
<!-- Title: lib/board_adapters/board.cpp Pages: 1 -->
<svg width="731pt" height="203pt"
 viewBox="0.00 0.00 731.44 203.00" xmlns="http://www.w3.org/2000/svg" xmlns:xlink="http://www.w3.org/1999/xlink">
<g id="graph0" class="graph" transform="scale(1 1) rotate(0) translate(4 199)">
<title>lib/board_adapters/board.cpp</title>
<!-- Node1 -->
<g id="node1" class="node">
<title>Node1</title>
<g id="a_node1"><a xlink:title=" ">
<polygon fill="#999999" stroke="#666666" points="412.94,-195 316.94,-195 316.94,-165 412.94,-165 412.94,-195"/>
<text text-anchor="start" x="324.94" y="-183" font-family="Helvetica,sans-Serif" font-size="10.00">lib/board_adapters</text>
<text text-anchor="middle" x="364.94" y="-172" font-family="Helvetica,sans-Serif" font-size="10.00">/board.cpp</text>
</a>
</g>
</g>
<!-- Node2 -->
<g id="node2" class="node">
<title>Node2</title>
<g id="a_node2"><a xlink:href="board_8hpp.xhtml" target="_top" xlink:title="This is a Proxy header.">
<polygon fill="white" stroke="#666666" points="102.44,-129 43.44,-129 43.44,-110 102.44,-110 102.44,-129"/>
<text text-anchor="middle" x="72.94" y="-117" font-family="Helvetica,sans-Serif" font-size="10.00">board.hpp</text>
</a>
</g>
</g>
<!-- Node1&#45;&gt;Node2 -->
<g id="edge1" class="edge">
<title>Node1&#45;&gt;Node2</title>
<path fill="none" stroke="#63b8ff" d="M316.72,-169.34C260.13,-158 167.26,-139.4 113.98,-128.72"/>
<polygon fill="#63b8ff" stroke="#63b8ff" points="114.89,-125.34 104.4,-126.8 113.52,-132.2 114.89,-125.34"/>
</g>
<!-- Node4 -->
<g id="node4" class="node">
<title>Node4</title>
<g id="a_node4"><a xlink:title=" ">
<polygon fill="#e0e0e0" stroke="#999999" points="47.94,-19 1.94,-19 1.94,0 47.94,0 47.94,-19"/>
<text text-anchor="middle" x="24.94" y="-7" font-family="Helvetica,sans-Serif" font-size="10.00">chrono</text>
</a>
</g>
</g>
<!-- Node1&#45;&gt;Node4 -->
<g id="edge9" class="edge">
<title>Node1&#45;&gt;Node4</title>
<path fill="none" stroke="#63b8ff" d="M316.48,-176.84C235.92,-172.41 78.85,-159.97 33.94,-129 4.59,-108.76 -5.17,-89.72 2.94,-55 5.05,-45.99 9.26,-36.71 13.44,-28.97"/>
<polygon fill="#63b8ff" stroke="#63b8ff" points="16.33,-30.95 18.34,-20.55 10.28,-27.43 16.33,-30.95"/>
</g>
<!-- Node5 -->
<g id="node5" class="node">
<title>Node5</title>
<g id="a_node5"><a xlink:title=" ">
<polygon fill="#e0e0e0" stroke="#999999" points="129.44,-19 70.44,-19 70.44,0 129.44,0 129.44,-19"/>
<text text-anchor="middle" x="99.94" y="-7" font-family="Helvetica,sans-Serif" font-size="10.00">functional</text>
</a>
</g>
</g>
<!-- Node1&#45;&gt;Node5 -->
<g id="edge10" class="edge">
<title>Node1&#45;&gt;Node5</title>
<path fill="none" stroke="#63b8ff" d="M316.75,-178.23C272.01,-175.16 205.75,-164.34 160.94,-129 158.78,-127.29 126.04,-62.48 109.44,-29.45"/>
<polygon fill="#63b8ff" stroke="#63b8ff" points="112.61,-27.96 105,-20.6 106.36,-31.11 112.61,-27.96"/>
</g>
<!-- Node6 -->
<g id="node6" class="node">
<title>Node6</title>
<g id="a_node6"><a xlink:href="board__pins_8hpp.xhtml" target="_top" xlink:title="Provides named objects for the pins provided by the board.">
<polygon fill="white" stroke="#666666" points="251.94,-129 169.94,-129 169.94,-110 251.94,-110 251.94,-129"/>
<text text-anchor="middle" x="210.94" y="-117" font-family="Helvetica,sans-Serif" font-size="10.00">board_pins.hpp</text>
</a>
</g>
</g>
<!-- Node1&#45;&gt;Node6 -->
<g id="edge5" class="edge">
<title>Node1&#45;&gt;Node6</title>
<path fill="none" stroke="#63b8ff" d="M326.87,-164.54C301.69,-154.97 268.97,-142.55 244.72,-133.33"/>
<polygon fill="#63b8ff" stroke="#63b8ff" points="246.23,-130.16 235.64,-129.88 243.75,-136.71 246.23,-130.16"/>
</g>
<!-- Node8 -->
<g id="node8" class="node">
<title>Node8</title>
<g id="a_node8"><a xlink:title=" ">
<polygon fill="#e0e0e0" stroke="#999999" points="327.44,-129 270.44,-129 270.44,-110 327.44,-110 327.44,-129"/>
<text text-anchor="middle" x="298.94" y="-117" font-family="Helvetica,sans-Serif" font-size="10.00">Arduino.h</text>
</a>
</g>
</g>
<!-- Node1&#45;&gt;Node8 -->
<g id="edge7" class="edge">
<title>Node1&#45;&gt;Node8</title>
<path fill="none" stroke="#63b8ff" d="M348.63,-164.54C339.14,-156.13 327.15,-145.51 317.33,-136.8"/>
<polygon fill="#63b8ff" stroke="#63b8ff" points="319.67,-134.19 309.86,-130.18 315.02,-139.43 319.67,-134.19"/>
</g>
<!-- Node9 -->
<g id="node9" class="node">
<title>Node9</title>
<g id="a_node9"><a xlink:title=" ">
<polygon fill="#e0e0e0" stroke="#999999" points="383.94,-129 345.94,-129 345.94,-110 383.94,-110 383.94,-129"/>
<text text-anchor="middle" x="364.94" y="-117" font-family="Helvetica,sans-Serif" font-size="10.00">array</text>
</a>
</g>
</g>
<!-- Node1&#45;&gt;Node9 -->
<g id="edge8" class="edge">
<title>Node1&#45;&gt;Node9</title>
<path fill="none" stroke="#63b8ff" d="M364.94,-164.54C364.94,-157.34 364.94,-148.53 364.94,-140.68"/>
<polygon fill="#63b8ff" stroke="#63b8ff" points="368.44,-140.69 364.94,-130.69 361.44,-140.69 368.44,-140.69"/>
</g>
<!-- Node10 -->
<g id="node10" class="node">
<title>Node10</title>
<g id="a_node10"><a xlink:title=" ">
<polygon fill="#e0e0e0" stroke="#999999" points="443.44,-129 402.44,-129 402.44,-110 443.44,-110 443.44,-129"/>
<text text-anchor="middle" x="422.94" y="-117" font-family="Helvetica,sans-Serif" font-size="10.00">future</text>
</a>
</g>
</g>
<!-- Node1&#45;&gt;Node10 -->
<g id="edge11" class="edge">
<title>Node1&#45;&gt;Node10</title>
<path fill="none" stroke="#63b8ff" d="M379.28,-164.54C387.44,-156.3 397.71,-145.94 406.24,-137.34"/>
<polygon fill="#63b8ff" stroke="#63b8ff" points="408.72,-139.82 413.27,-130.25 403.75,-134.89 408.72,-139.82"/>
</g>
<!-- Node11 -->
<g id="node11" class="node">
<title>Node11</title>
<g id="a_node11"><a xlink:title=" ">
<polygon fill="#e0e0e0" stroke="#999999" points="508.44,-129 461.44,-129 461.44,-110 508.44,-110 508.44,-129"/>
<text text-anchor="middle" x="484.94" y="-117" font-family="Helvetica,sans-Serif" font-size="10.00">iterator</text>
</a>
</g>
</g>
<!-- Node1&#45;&gt;Node11 -->
<g id="edge12" class="edge">
<title>Node1&#45;&gt;Node11</title>
<path fill="none" stroke="#63b8ff" d="M394.6,-164.54C413.52,-155.32 437.89,-143.44 456.55,-134.34"/>
<polygon fill="#63b8ff" stroke="#63b8ff" points="457.98,-137.54 465.43,-130.01 454.91,-131.25 457.98,-137.54"/>
</g>
<!-- Node12 -->
<g id="node12" class="node">
<title>Node12</title>
<g id="a_node12"><a xlink:title=" ">
<polygon fill="#e0e0e0" stroke="#999999" points="585.44,-129 526.44,-129 526.44,-110 585.44,-110 585.44,-129"/>
<text text-anchor="middle" x="555.94" y="-117" font-family="Helvetica,sans-Serif" font-size="10.00">stdexcept</text>
</a>
</g>
</g>
<!-- Node1&#45;&gt;Node12 -->
<g id="edge13" class="edge">
<title>Node1&#45;&gt;Node12</title>
<path fill="none" stroke="#63b8ff" d="M412.15,-164.54C443.99,-154.79 485.54,-142.06 515.78,-132.8"/>
<polygon fill="#63b8ff" stroke="#63b8ff" points="516.79,-136.15 525.33,-129.88 514.74,-129.46 516.79,-136.15"/>
</g>
<!-- Node13 -->
<g id="node13" class="node">
<title>Node13</title>
<g id="a_node13"><a xlink:title=" ">
<polygon fill="#e0e0e0" stroke="#999999" points="665.94,-129 603.94,-129 603.94,-110 665.94,-110 665.94,-129"/>
<text text-anchor="middle" x="634.94" y="-117" font-family="Helvetica,sans-Serif" font-size="10.00">type_traits</text>
</a>
</g>
</g>
<!-- Node1&#45;&gt;Node13 -->
<g id="edge14" class="edge">
<title>Node1&#45;&gt;Node13</title>
<path fill="none" stroke="#63b8ff" d="M413.21,-168.54C464.18,-157.5 543.77,-140.25 592.44,-129.71"/>
<polygon fill="#63b8ff" stroke="#63b8ff" points="593.01,-133.17 602.04,-127.63 591.53,-126.32 593.01,-133.17"/>
</g>
<!-- Node14 -->
<g id="node14" class="node">
<title>Node14</title>
<g id="a_node14"><a xlink:title=" ">
<polygon fill="#e0e0e0" stroke="#999999" points="723.44,-129 684.44,-129 684.44,-110 723.44,-110 723.44,-129"/>
<text text-anchor="middle" x="703.94" y="-117" font-family="Helvetica,sans-Serif" font-size="10.00">utility</text>
</a>
</g>
</g>
<!-- Node1&#45;&gt;Node14 -->
<g id="edge15" class="edge">
<title>Node1&#45;&gt;Node14</title>
<path fill="none" stroke="#63b8ff" d="M413.36,-173.1C472.45,-165.48 575.56,-150.83 673.11,-129.15"/>
<polygon fill="#63b8ff" stroke="#63b8ff" points="673.6,-132.63 682.58,-127.02 672.06,-125.8 673.6,-132.63"/>
</g>
<!-- Node3 -->
<g id="node3" class="node">
<title>Node3</title>
<g id="a_node3"><a xlink:href="board__interface_8hpp.xhtml" target="_top" xlink:title=" ">
<polygon fill="white" stroke="#666666" points="113.44,-74 12.44,-74 12.44,-55 113.44,-55 113.44,-74"/>
<text text-anchor="middle" x="62.94" y="-62" font-family="Helvetica,sans-Serif" font-size="10.00">board_interface.hpp</text>
</a>
</g>
</g>
<!-- Node2&#45;&gt;Node3 -->
<g id="edge2" class="edge">
<title>Node2&#45;&gt;Node3</title>
<path fill="none" stroke="#63b8ff" d="M71.29,-109.75C70.05,-103.19 68.31,-93.95 66.73,-85.6"/>
<polygon fill="#63b8ff" stroke="#63b8ff" points="70.2,-85.11 64.91,-75.93 63.32,-86.4 70.2,-85.11"/>
</g>
<!-- Node3&#45;&gt;Node4 -->
<g id="edge3" class="edge">
<title>Node3&#45;&gt;Node4</title>
<path fill="none" stroke="#63b8ff" d="M56.67,-54.75C51.58,-47.66 44.24,-37.42 37.91,-28.59"/>
<polygon fill="#63b8ff" stroke="#63b8ff" points="40.9,-26.76 32.23,-20.67 35.22,-30.84 40.9,-26.76"/>
</g>
<!-- Node3&#45;&gt;Node5 -->
<g id="edge4" class="edge">
<title>Node3&#45;&gt;Node5</title>
<path fill="none" stroke="#63b8ff" d="M69.05,-54.75C73.95,-47.73 80.99,-37.64 87.11,-28.87"/>
<polygon fill="#63b8ff" stroke="#63b8ff" points="89.98,-30.89 92.83,-20.68 84.24,-26.88 89.98,-30.89"/>
</g>
<!-- Node7 -->
<g id="node7" class="node">
<title>Node7</title>
<g id="a_node7"><a xlink:title=" ">
<polygon fill="#e0e0e0" stroke="#999999" points="233.94,-74 187.94,-74 187.94,-55 233.94,-55 233.94,-74"/>
<text text-anchor="middle" x="210.94" y="-62" font-family="Helvetica,sans-Serif" font-size="10.00">cstdint</text>
</a>
</g>
</g>
<!-- Node6&#45;&gt;Node7 -->
<g id="edge6" class="edge">
<title>Node6&#45;&gt;Node7</title>
<path fill="none" stroke="#63b8ff" d="M210.94,-109.75C210.94,-103.27 210.94,-94.16 210.94,-85.9"/>
<polygon fill="#63b8ff" stroke="#63b8ff" points="214.44,-85.96 210.94,-75.96 207.44,-85.96 214.44,-85.96"/>
</g>
</g>
</svg>
