<?xml version="1.0" encoding="UTF-8" standalone="no"?>
<!DOCTYPE svg PUBLIC "-//W3C//DTD SVG 1.1//EN"
 "http://www.w3.org/Graphics/SVG/1.1/DTD/svg11.dtd">
<!-- Generated by graphviz version 2.43.0 (0)
 -->
<!-- Title: ScreenMenu Pages: 1 -->
<svg width="105pt" height="202pt"
 viewBox="0.00 0.00 105.00 202.00" xmlns="http://www.w3.org/2000/svg" xmlns:xlink="http://www.w3.org/1999/xlink">
<g id="graph0" class="graph" transform="scale(1 1) rotate(0) translate(4 198)">
<title>ScreenMenu</title>
<!-- Node1 -->
<g id="Node000001" class="node">
<title>Node1</title>
<g id="a_Node000001"><a xlink:title="Screen for menu navigation it receives a list of menu items for it&#39;s topology.">
<polygon fill="#999999" stroke="transparent" points="97,-79 0,-79 0,0 97,0 97,-79"/>
<text text-anchor="start" x="18.5" y="-66.5" font-family="Helvetica,sans-Serif" font-size="10.00">ScreenMenu</text>
<text text-anchor="start" x="47" y="-51.5" font-family="Helvetica,sans-Serif" font-size="10.00"> </text>
<text text-anchor="start" x="4.5" y="-36.5" font-family="Helvetica,sans-Serif" font-size="10.00">+</text>
<text text-anchor="start" x="17.5" y="-36.5" font-family="Helvetica,sans-Serif" font-size="10.00">ScreenMenu()</text>
<text text-anchor="start" x="4.5" y="-21.5" font-family="Helvetica,sans-Serif" font-size="10.00">+</text>
<text text-anchor="start" x="17.5" y="-21.5" font-family="Helvetica,sans-Serif" font-size="10.00">~ScreenMenu()</text>
<text text-anchor="start" x="4.5" y="-6.5" font-family="Helvetica,sans-Serif" font-size="10.00">+</text>
<text text-anchor="start" x="17.5" y="-6.5" font-family="Helvetica,sans-Serif" font-size="10.00">draw()</text>
<polygon fill="#666666" stroke="#666666" points="0.5,-61.5 0.5,-61.5 97.5,-61.5 97.5,-61.5 0.5,-61.5"/>
<polygon fill="#666666" stroke="#666666" points="0.5,-46.5 0.5,-46.5 97.5,-46.5 97.5,-46.5 0.5,-46.5"/>
<polygon fill="none" stroke="#666666" points="0,0 0,-79 97,-79 97,0 0,0"/>
</a>
</g>
</g>
<!-- Node2 -->
<g id="Node000002" class="node">
<title>Node2</title>
<g id="a_Node000002"><a xlink:href="classIScreen.xhtml" target="_top" xlink:title="Interface class for Screen objects.">
<polygon fill="white" stroke="transparent" points="85,-194 12,-194 12,-115 85,-115 85,-194"/>
<text text-anchor="start" x="30.5" y="-181.5" font-family="Helvetica,sans-Serif" font-size="10.00">IScreen</text>
<text text-anchor="start" x="47" y="-166.5" font-family="Helvetica,sans-Serif" font-size="10.00"> </text>
<text text-anchor="start" x="16.5" y="-151.5" font-family="Helvetica,sans-Serif" font-size="10.00">+</text>
<text text-anchor="start" x="29.5" y="-151.5" font-family="Helvetica,sans-Serif" font-size="10.00">IScreen()</text>
<text text-anchor="start" x="16.5" y="-136.5" font-family="Helvetica,sans-Serif" font-size="10.00">+</text>
<text text-anchor="start" x="29.5" y="-136.5" font-family="Helvetica,sans-Serif" font-size="10.00">~IScreen()</text>
<text text-anchor="start" x="16.5" y="-121.5" font-family="Helvetica,sans-Serif" font-size="10.00">+</text>
<text text-anchor="start" x="29.5" y="-121.5" font-family="Helvetica,sans-Serif" font-size="10.00">draw()</text>
<polygon fill="#666666" stroke="#666666" points="12.5,-176.5 12.5,-176.5 85.5,-176.5 85.5,-176.5 12.5,-176.5"/>
<polygon fill="#666666" stroke="#666666" points="12.5,-161.5 12.5,-161.5 85.5,-161.5 85.5,-161.5 12.5,-161.5"/>
<polygon fill="none" stroke="#666666" points="12,-115 12,-194 85,-194 85,-115 12,-115"/>
</a>
</g>
</g>
<!-- Node2&#45;&gt;Node1 -->
<g id="edge1_Node000001_Node000002" class="edge">
<title>Node2&#45;&gt;Node1</title>
<g id="a_edge1_Node000001_Node000002"><a xlink:title=" ">
<path fill="none" stroke="#63b8ff" d="M48.5,-104.72C48.5,-96.22 48.5,-87.47 48.5,-79.28"/>
<polygon fill="none" stroke="#63b8ff" points="45,-104.93 48.5,-114.93 52,-104.93 45,-104.93"/>
</a>
</g>
</g>
</g>
</svg>
