<?xml version="1.0" encoding="UTF-8" standalone="no"?>
<!DOCTYPE svg PUBLIC "-//W3C//DTD SVG 1.1//EN"
 "http://www.w3.org/Graphics/SVG/1.1/DTD/svg11.dtd">
<!-- Generated by graphviz version 7.0.5 (20221223.1930)
 -->
<!-- Title: lib Pages: 1 -->
<svg width="447pt" height="359pt"
 viewBox="0.00 0.00 447.00 358.50" xmlns="http://www.w3.org/2000/svg" xmlns:xlink="http://www.w3.org/1999/xlink">
<g id="graph0" class="graph" transform="scale(1 1) rotate(0) translate(4 354.5)">
<title>lib</title>
<g id="clust1" class="cluster">
<title>clusterdir_97aefd0d527b934f1d99a682da8fe6a9</title>
<g id="a_clust1"><a xlink:href="dir_97aefd0d527b934f1d99a682da8fe6a9.xhtml" target="_top">
<polygon fill="#edf0f7" stroke="#404040" stroke-width="2" points="8,-8 8,-342.5 431,-342.5 431,-8 8,-8"/>
</a>
</g>
</g>
<g id="clust4" class="cluster">
<title>clusterdir_b49365647f74dff1c8dd1e88d29293e4</title>
<g id="a_clust4"><a xlink:href="dir_b49365647f74dff1c8dd1e88d29293e4.xhtml" target="_top" xlink:title="Package Board Adapters.">
<polygon fill="#c8d2e7" stroke="#404040" points="82,-184 82,-274 423,-274 423,-184 82,-184"/>
</a>
</g>
</g>
<g id="clust3" class="cluster">
<title>clusterdir_6dbb42d2342d9d7292a192bc1d024acc</title>
<g id="a_clust3"><a xlink:href="dir_6dbb42d2342d9d7292a192bc1d024acc.xhtml" target="_top" xlink:title="Package Application Business Rules.">
<polygon fill="#c8d2e7" stroke="#404040" points="92,-63 92,-164 320,-164 320,-63 92,-63"/>
</a>
</g>
</g>
<g id="clust2" class="cluster">
<title>clusterdir_e75212beacfa7863df067e044f07f232</title>
<g id="a_clust2"><a xlink:href="dir_e75212beacfa7863df067e044f07f232.xhtml" target="_top" xlink:title="Package 3rd Party Adapters.">
<polygon fill="#c8d2e7" stroke="#404040" points="178,-299.5 178,-334.5 423,-334.5 423,-299.5 178,-299.5"/>
</a>
</g>
</g>
<!-- dir_97aefd0d527b934f1d99a682da8fe6a9 -->
<g id="node1" class="node">
<title>dir_97aefd0d527b934f1d99a682da8fe6a9</title>
<text text-anchor="middle" x="153" y="-314.5" font-family="Helvetica,sans-Serif" font-size="10.00">lib</text>
</g>
<!-- dir_e75212beacfa7863df067e044f07f232 -->
<g id="node2" class="node">
<title>dir_e75212beacfa7863df067e044f07f232</title>
<text text-anchor="middle" x="365" y="-314.5" font-family="Helvetica,sans-Serif" font-size="10.00">3rd_party_adapters</text>
</g>
<!-- dir_e5c908e09902ac05aca8138811a01df8 -->
<g id="node3" class="node">
<title>dir_e5c908e09902ac05aca8138811a01df8</title>
<g id="a_node3"><a xlink:href="dir_e5c908e09902ac05aca8138811a01df8.xhtml" target="_top" xlink:title="Arduino">
<polygon fill="#a2b4d6" stroke="#404040" points="236,-326.5 186,-326.5 186,-307.5 236,-307.5 236,-326.5"/>
<text text-anchor="middle" x="211" y="-314.5" font-family="Helvetica,sans-Serif" font-size="10.00">Arduino</text>
</a>
</g>
</g>
<!-- dir_17a6007a5c84c34f300c622be50c188b -->
<g id="node6" class="node">
<title>dir_17a6007a5c84c34f300c622be50c188b</title>
<g id="a_node6"><a xlink:href="dir_17a6007a5c84c34f300c622be50c188b.xhtml" target="_top" xlink:title="serial_interface">
<polygon fill="#a2b4d6" stroke="#404040" points="183.5,-90 100.5,-90 100.5,-71 183.5,-71 183.5,-90"/>
<text text-anchor="middle" x="142" y="-78" font-family="Helvetica,sans-Serif" font-size="10.00">serial_interface</text>
</a>
</g>
</g>
<!-- dir_e5c908e09902ac05aca8138811a01df8&#45;&gt;dir_17a6007a5c84c34f300c622be50c188b -->
<g id="edge1" class="edge">
<title>dir_e5c908e09902ac05aca8138811a01df8&#45;&gt;dir_17a6007a5c84c34f300c622be50c188b</title>
<path fill="none" stroke="#63b8ff" d="M197.27,-307.02C192.58,-304.27 187.2,-301.46 182,-299.5 129.34,-279.68 93.55,-317.61 58,-274 15.41,-221.77 49.4,-179.02 91,-126 99.47,-115.21 110.81,-105.01 120.65,-97.11"/>
<polygon fill="#63b8ff" stroke="#63b8ff" points="122.51,-100.09 128.29,-91.21 118.23,-94.55 122.51,-100.09"/>
<g id="a_edge1&#45;headlabel"><a xlink:href="dir_000002_000011.xhtml" target="_top" xlink:title="1">
<text text-anchor="middle" x="122.6" y="-101.11" font-family="Helvetica,sans-Serif" font-size="10.00" fill="#63b8ff">1</text>
</a>
</g>
</g>
<!-- dir_b49365647f74dff1c8dd1e88d29293e4 -->
<g id="node9" class="node">
<title>dir_b49365647f74dff1c8dd1e88d29293e4</title>
<text text-anchor="middle" x="241" y="-254" font-family="Helvetica,sans-Serif" font-size="10.00">board_adapters</text>
</g>
<!-- dir_e5c908e09902ac05aca8138811a01df8&#45;&gt;dir_b49365647f74dff1c8dd1e88d29293e4 -->
<g id="edge2" class="edge">
<title>dir_e5c908e09902ac05aca8138811a01df8&#45;&gt;dir_b49365647f74dff1c8dd1e88d29293e4</title>
<path fill="none" stroke="#63b8ff" d="M215.43,-307.37C219.64,-299.15 226.12,-286.52 231.5,-276.03"/>
<polygon fill="#63b8ff" stroke="#63b8ff" points="234.61,-277.63 236.06,-267.14 228.38,-274.44 234.61,-277.63"/>
<g id="a_edge2&#45;headlabel"><a xlink:href="dir_000002_000003.xhtml" target="_top" xlink:title="1">
<text text-anchor="middle" x="236.19" y="-278.28" font-family="Helvetica,sans-Serif" font-size="10.00" fill="#63b8ff">1</text>
</a>
</g>
</g>
<!-- dir_673789fe363c8cf83b6beac9ec7c58fa -->
<g id="node4" class="node">
<title>dir_673789fe363c8cf83b6beac9ec7c58fa</title>
<g id="a_node4"><a xlink:href="dir_673789fe363c8cf83b6beac9ec7c58fa.xhtml" target="_top" xlink:title="LVGL">
<polygon fill="#a2b4d6" stroke="#404040" points="297.5,-326.5 254.5,-326.5 254.5,-307.5 297.5,-307.5 297.5,-326.5"/>
<text text-anchor="middle" x="276" y="-314.5" font-family="Helvetica,sans-Serif" font-size="10.00">LVGL</text>
</a>
</g>
</g>
<!-- dir_6c970bd3e9ed525c032ca1b33f237f5b -->
<g id="node8" class="node">
<title>dir_6c970bd3e9ed525c032ca1b33f237f5b</title>
<g id="a_node8"><a xlink:href="dir_6c970bd3e9ed525c032ca1b33f237f5b.xhtml" target="_top" xlink:title="user_interaction">
<polygon fill="#a2b4d6" stroke="#404040" points="186,-150.5 100,-150.5 100,-131.5 186,-131.5 186,-150.5"/>
<text text-anchor="middle" x="143" y="-138.5" font-family="Helvetica,sans-Serif" font-size="10.00">user_interaction</text>
</a>
</g>
</g>
<!-- dir_673789fe363c8cf83b6beac9ec7c58fa&#45;&gt;dir_6c970bd3e9ed525c032ca1b33f237f5b -->
<g id="edge3" class="edge">
<title>dir_673789fe363c8cf83b6beac9ec7c58fa&#45;&gt;dir_6c970bd3e9ed525c032ca1b33f237f5b</title>
<path fill="none" stroke="#63b8ff" d="M261.63,-307.05C256.54,-304.24 250.67,-301.38 245,-299.5 209.37,-287.68 102.46,-302.48 78,-274 51.94,-243.66 58.87,-219.13 78,-184 84.61,-171.86 96.4,-162.7 108.14,-156.08"/>
<polygon fill="#63b8ff" stroke="#63b8ff" points="109.64,-159.24 116.97,-151.59 106.47,-153 109.64,-159.24"/>
<g id="a_edge3&#45;headlabel"><a xlink:href="dir_000010_000021.xhtml" target="_top" xlink:title="2">
<text text-anchor="middle" x="109.08" y="-160.21" font-family="Helvetica,sans-Serif" font-size="10.00" fill="#63b8ff">2</text>
</a>
</g>
</g>
<!-- dir_673789fe363c8cf83b6beac9ec7c58fa&#45;&gt;dir_b49365647f74dff1c8dd1e88d29293e4 -->
<g id="edge4" class="edge">
<title>dir_673789fe363c8cf83b6beac9ec7c58fa&#45;&gt;dir_b49365647f74dff1c8dd1e88d29293e4</title>
<path fill="none" stroke="#63b8ff" d="M270.84,-307.37C265.82,-298.98 258.04,-285.98 251.69,-275.36"/>
<polygon fill="#63b8ff" stroke="#63b8ff" points="254.87,-273.87 246.74,-267.09 248.87,-277.47 254.87,-273.87"/>
<g id="a_edge4&#45;headlabel"><a xlink:href="dir_000010_000003.xhtml" target="_top" xlink:title="1">
<text text-anchor="middle" x="258.38" y="-271.7" font-family="Helvetica,sans-Serif" font-size="10.00" fill="#63b8ff">1</text>
</a>
</g>
</g>
<!-- dir_6dbb42d2342d9d7292a192bc1d024acc -->
<g id="node5" class="node">
<title>dir_6dbb42d2342d9d7292a192bc1d024acc</title>
<text text-anchor="start" x="212.5" y="-144" font-family="Helvetica,sans-Serif" font-size="10.00">application_business</text>
<text text-anchor="middle" x="258" y="-133" font-family="Helvetica,sans-Serif" font-size="10.00">_rules</text>
</g>
<!-- dir_3a2f33b0f26bc6229d595c2c354e6333 -->
<g id="node14" class="node">
<title>dir_3a2f33b0f26bc6229d595c2c354e6333</title>
<g id="a_node14"><a xlink:href="dir_3a2f33b0f26bc6229d595c2c354e6333.xhtml" target="_top" xlink:title="Package Utilities.">
<polygon fill="#c8d2e7" stroke="#404040" points="331.5,-35 284.5,-35 284.5,-16 331.5,-16 331.5,-35"/>
<text text-anchor="middle" x="308" y="-23" font-family="Helvetica,sans-Serif" font-size="10.00">utilities</text>
</a>
</g>
</g>
<!-- dir_17a6007a5c84c34f300c622be50c188b&#45;&gt;dir_3a2f33b0f26bc6229d595c2c354e6333 -->
<g id="edge5" class="edge">
<title>dir_17a6007a5c84c34f300c622be50c188b&#45;&gt;dir_3a2f33b0f26bc6229d595c2c354e6333</title>
<path fill="none" stroke="#63b8ff" d="M169.52,-70.57C177.12,-68.11 185.38,-65.44 193,-63 219.96,-54.36 250.51,-44.67 273.34,-37.44"/>
<polygon fill="#63b8ff" stroke="#63b8ff" points="274.28,-40.82 282.76,-34.47 272.17,-34.15 274.28,-40.82"/>
<g id="a_edge5&#45;headlabel"><a xlink:href="dir_000011_000022.xhtml" target="_top" xlink:title="1">
<text text-anchor="middle" x="273.15" y="-41.65" font-family="Helvetica,sans-Serif" font-size="10.00" fill="#63b8ff">1</text>
</a>
</g>
</g>
<!-- dir_dab382b21b73aae3d74d7668eeeacf78 -->
<g id="node7" class="node">
<title>dir_dab382b21b73aae3d74d7668eeeacf78</title>
<g id="a_node7"><a xlink:href="dir_dab382b21b73aae3d74d7668eeeacf78.xhtml" target="_top" xlink:title="tasks">
<polygon fill="#a2b4d6" stroke="#404040" points="242.5,-90 201.5,-90 201.5,-71 242.5,-71 242.5,-90"/>
<text text-anchor="middle" x="222" y="-78" font-family="Helvetica,sans-Serif" font-size="10.00">tasks</text>
</a>
</g>
</g>
<!-- dir_6c970bd3e9ed525c032ca1b33f237f5b&#45;&gt;dir_17a6007a5c84c34f300c622be50c188b -->
<g id="edge6" class="edge">
<title>dir_6c970bd3e9ed525c032ca1b33f237f5b&#45;&gt;dir_17a6007a5c84c34f300c622be50c188b</title>
<path fill="none" stroke="#63b8ff" d="M142.85,-131.37C142.72,-123.5 142.51,-111.6 142.34,-101.39"/>
<polygon fill="#63b8ff" stroke="#63b8ff" points="145.84,-101.62 142.17,-91.68 138.85,-101.74 145.84,-101.62"/>
<g id="a_edge6&#45;headlabel"><a xlink:href="dir_000021_000011.xhtml" target="_top" xlink:title="1">
<text text-anchor="middle" x="148.72" y="-101.15" font-family="Helvetica,sans-Serif" font-size="10.00" fill="#63b8ff">1</text>
</a>
</g>
</g>
<!-- dir_6c970bd3e9ed525c032ca1b33f237f5b&#45;&gt;dir_dab382b21b73aae3d74d7668eeeacf78 -->
<g id="edge8" class="edge">
<title>dir_6c970bd3e9ed525c032ca1b33f237f5b&#45;&gt;dir_dab382b21b73aae3d74d7668eeeacf78</title>
<path fill="none" stroke="#63b8ff" d="M155,-131.12C167.18,-122.1 186.29,-107.95 200.98,-97.06"/>
<polygon fill="#63b8ff" stroke="#63b8ff" points="202.72,-100.13 208.67,-91.37 198.55,-94.51 202.72,-100.13"/>
<g id="a_edge8&#45;headlabel"><a xlink:href="dir_000021_000015.xhtml" target="_top" xlink:title="1">
<text text-anchor="middle" x="202.74" y="-101.15" font-family="Helvetica,sans-Serif" font-size="10.00" fill="#63b8ff">1</text>
</a>
</g>
</g>
<!-- dir_6c970bd3e9ed525c032ca1b33f237f5b&#45;&gt;dir_3a2f33b0f26bc6229d595c2c354e6333 -->
<g id="edge7" class="edge">
<title>dir_6c970bd3e9ed525c032ca1b33f237f5b&#45;&gt;dir_3a2f33b0f26bc6229d595c2c354e6333</title>
<path fill="none" stroke="#63b8ff" d="M170.23,-131.13C193.38,-122.78 226.77,-108.75 252,-90 269.28,-77.16 285.12,-58.23 295.5,-44.38"/>
<polygon fill="#63b8ff" stroke="#63b8ff" points="298.13,-46.73 301.16,-36.58 292.46,-42.62 298.13,-46.73"/>
<g id="a_edge7&#45;headlabel"><a xlink:href="dir_000021_000022.xhtml" target="_top" xlink:title="2">
<text text-anchor="middle" x="299.2" y="-47.58" font-family="Helvetica,sans-Serif" font-size="10.00" fill="#63b8ff">2</text>
</a>
</g>
</g>
<!-- dir_b49365647f74dff1c8dd1e88d29293e4&#45;&gt;dir_6c970bd3e9ed525c032ca1b33f237f5b -->
<g id="edge10" class="edge">
<title>dir_b49365647f74dff1c8dd1e88d29293e4&#45;&gt;dir_6c970bd3e9ed525c032ca1b33f237f5b</title>
<path fill="none" stroke="#63b8ff" d="M221.11,-247.01C205.63,-239.52 184.56,-227.26 171,-211 159.1,-196.73 151.73,-176.73 147.56,-161.93"/>
<polygon fill="#63b8ff" stroke="#63b8ff" points="151.01,-161.27 145.16,-152.44 144.22,-162.99 151.01,-161.27"/>
<g id="a_edge10&#45;headlabel"><a xlink:href="dir_000003_000021.xhtml" target="_top" xlink:title="6">
<text text-anchor="middle" x="154.27" y="-160.09" font-family="Helvetica,sans-Serif" font-size="10.00" fill="#63b8ff">6</text>
</a>
</g>
</g>
<!-- dir_5d3f509552af106634de565dc9d6f33a -->
<g id="node11" class="node">
<title>dir_5d3f509552af106634de565dc9d6f33a</title>
<g id="a_node11"><a xlink:href="dir_5d3f509552af106634de565dc9d6f33a.xhtml" target="_top" xlink:title="sound_output_interface">
<polygon fill="#a2b4d6" stroke="#404040" points="313,-211 195,-211 195,-192 313,-192 313,-211"/>
<text text-anchor="middle" x="254" y="-199" font-family="Helvetica,sans-Serif" font-size="10.00">sound_output_interface</text>
</a>
</g>
</g>
<!-- dir_b49365647f74dff1c8dd1e88d29293e4&#45;&gt;dir_5d3f509552af106634de565dc9d6f33a -->
<g id="edge9" class="edge">
<title>dir_b49365647f74dff1c8dd1e88d29293e4&#45;&gt;dir_5d3f509552af106634de565dc9d6f33a</title>
<path fill="none" stroke="#63b8ff" d="M243.03,-247.22C244.66,-240.57 247.02,-230.96 249.13,-222.34"/>
<polygon fill="#63b8ff" stroke="#63b8ff" points="252.51,-223.27 251.49,-212.72 245.71,-221.6 252.51,-223.27"/>
<g id="a_edge9&#45;headlabel"><a xlink:href="dir_000003_000012.xhtml" target="_top" xlink:title="1">
<text text-anchor="middle" x="254.77" y="-223.47" font-family="Helvetica,sans-Serif" font-size="10.00" fill="#63b8ff">1</text>
</a>
</g>
</g>
<!-- dir_8d1ee3be5d3bd43266cde43195651fe0 -->
<g id="node10" class="node">
<title>dir_8d1ee3be5d3bd43266cde43195651fe0</title>
<g id="a_node10"><a xlink:href="dir_8d1ee3be5d3bd43266cde43195651fe0.xhtml" target="_top" xlink:title="input_device_interface">
<polygon fill="#a2b4d6" stroke="#404040" points="415,-266 301,-266 301,-247 415,-247 415,-266"/>
<text text-anchor="middle" x="358" y="-254" font-family="Helvetica,sans-Serif" font-size="10.00">input_device_interface</text>
</a>
</g>
</g>
<!-- dir_8d1ee3be5d3bd43266cde43195651fe0&#45;&gt;dir_6c970bd3e9ed525c032ca1b33f237f5b -->
<g id="edge12" class="edge">
<title>dir_8d1ee3be5d3bd43266cde43195651fe0&#45;&gt;dir_6c970bd3e9ed525c032ca1b33f237f5b</title>
<path fill="none" stroke="#63b8ff" d="M306.54,-246.55C263.12,-238.22 205.08,-225.01 186,-211 183.63,-209.26 166.05,-180.43 154.12,-160.59"/>
<polygon fill="#63b8ff" stroke="#63b8ff" points="157.28,-159.05 149.13,-152.28 151.27,-162.65 157.28,-159.05"/>
<g id="a_edge12&#45;headlabel"><a xlink:href="dir_000008_000021.xhtml" target="_top" xlink:title="2">
<text text-anchor="middle" x="160.78" y="-156.88" font-family="Helvetica,sans-Serif" font-size="10.00" fill="#63b8ff">2</text>
</a>
</g>
</g>
<!-- dir_8d1ee3be5d3bd43266cde43195651fe0&#45;&gt;dir_3a2f33b0f26bc6229d595c2c354e6333 -->
<g id="edge11" class="edge">
<title>dir_8d1ee3be5d3bd43266cde43195651fe0&#45;&gt;dir_3a2f33b0f26bc6229d595c2c354e6333</title>
<path fill="none" stroke="#63b8ff" d="M358.18,-246.73C358.45,-218.86 357.17,-130.28 332,-63 329.61,-56.61 325.93,-50.2 322.17,-44.57"/>
<polygon fill="#63b8ff" stroke="#63b8ff" points="325.16,-42.73 316.45,-36.7 319.49,-46.85 325.16,-42.73"/>
<g id="a_edge11&#45;headlabel"><a xlink:href="dir_000008_000022.xhtml" target="_top" xlink:title="1">
<text text-anchor="middle" x="328.68" y="-40.25" font-family="Helvetica,sans-Serif" font-size="10.00" fill="#63b8ff">1</text>
</a>
</g>
</g>
<!-- dir_5d3f509552af106634de565dc9d6f33a&#45;&gt;dir_6c970bd3e9ed525c032ca1b33f237f5b -->
<g id="edge14" class="edge">
<title>dir_5d3f509552af106634de565dc9d6f33a&#45;&gt;dir_6c970bd3e9ed525c032ca1b33f237f5b</title>
<path fill="none" stroke="#63b8ff" d="M237.14,-191.62C219.38,-182.25 191.12,-167.36 170.2,-156.33"/>
<polygon fill="#63b8ff" stroke="#63b8ff" points="171.83,-153.24 161.36,-151.67 168.57,-159.43 171.83,-153.24"/>
<g id="a_edge14&#45;headlabel"><a xlink:href="dir_000012_000021.xhtml" target="_top" xlink:title="1">
<text text-anchor="middle" x="175" y="-149.2" font-family="Helvetica,sans-Serif" font-size="10.00" fill="#63b8ff">1</text>
</a>
</g>
</g>
<!-- dir_5d3f509552af106634de565dc9d6f33a&#45;&gt;dir_3a2f33b0f26bc6229d595c2c354e6333 -->
<g id="edge13" class="edge">
<title>dir_5d3f509552af106634de565dc9d6f33a&#45;&gt;dir_3a2f33b0f26bc6229d595c2c354e6333</title>
<path fill="none" stroke="#63b8ff" d="M287.24,-191.6C301.13,-186.06 315.9,-177.36 324,-164 347.27,-125.62 333.21,-106.93 324,-63 322.77,-57.13 320.54,-51.05 318.12,-45.58"/>
<polygon fill="#63b8ff" stroke="#63b8ff" points="321.38,-44.26 313.84,-36.81 315.09,-47.33 321.38,-44.26"/>
<g id="a_edge13&#45;headlabel"><a xlink:href="dir_000012_000022.xhtml" target="_top" xlink:title="1">
<text text-anchor="middle" x="324.84" y="-42.38" font-family="Helvetica,sans-Serif" font-size="10.00" fill="#63b8ff">1</text>
</a>
</g>
</g>
<!-- dir_dd038f7b9d5ffa107a6117feec92b6ac -->
<g id="node12" class="node">
<title>dir_dd038f7b9d5ffa107a6117feec92b6ac</title>
<g id="a_node12"><a xlink:href="dir_dd038f7b9d5ffa107a6117feec92b6ac.xhtml" target="_top" xlink:title="status_indicators">
<polygon fill="#a2b4d6" stroke="#404040" points="181.5,-266 90.5,-266 90.5,-247 181.5,-247 181.5,-266"/>
<text text-anchor="middle" x="136" y="-254" font-family="Helvetica,sans-Serif" font-size="10.00">status_indicators</text>
</a>
</g>
</g>
<!-- dir_dd038f7b9d5ffa107a6117feec92b6ac&#45;&gt;dir_6c970bd3e9ed525c032ca1b33f237f5b -->
<g id="edge15" class="edge">
<title>dir_dd038f7b9d5ffa107a6117feec92b6ac&#45;&gt;dir_6c970bd3e9ed525c032ca1b33f237f5b</title>
<path fill="none" stroke="#63b8ff" d="M136.55,-246.59C137.66,-228.53 140.21,-187.17 141.75,-162.21"/>
<polygon fill="#63b8ff" stroke="#63b8ff" points="145.24,-162.57 142.36,-152.38 138.25,-162.14 145.24,-162.57"/>
<g id="a_edge15&#45;headlabel"><a xlink:href="dir_000014_000021.xhtml" target="_top" xlink:title="2">
<text text-anchor="middle" x="147.94" y="-162.32" font-family="Helvetica,sans-Serif" font-size="10.00" fill="#63b8ff">2</text>
</a>
</g>
</g>
<!-- dir_71046b38222792489c3876836d4fbdbc -->
<g id="node13" class="node">
<title>dir_71046b38222792489c3876836d4fbdbc</title>
<g id="a_node13"><a xlink:href="dir_71046b38222792489c3876836d4fbdbc.xhtml" target="_top" xlink:title="Package Enterprise Business Rules.">
<polygon fill="#c8d2e7" stroke="#404040" points="120,-332 16,-332 16,-302 120,-302 120,-332"/>
<text text-anchor="start" x="24" y="-320" font-family="Helvetica,sans-Serif" font-size="10.00">enterprise_business</text>
<text text-anchor="middle" x="68" y="-309" font-family="Helvetica,sans-Serif" font-size="10.00">_rules</text>
</a>
</g>
</g>
</g>
</svg>
