<?xml version="1.0" encoding="UTF-8" standalone="no"?>
<!DOCTYPE svg PUBLIC "-//W3C//DTD SVG 1.1//EN"
 "http://www.w3.org/Graphics/SVG/1.1/DTD/svg11.dtd">
<!-- Generated by graphviz version 2.43.0 (0)
 -->
<!-- Title: Task&#45;Tracker&#45;Device/test Pages: 1 -->
<svg width="615pt" height="149pt"
 viewBox="0.00 0.00 615.00 149.00" xmlns="http://www.w3.org/2000/svg" xmlns:xlink="http://www.w3.org/1999/xlink">
<g id="graph0" class="graph" transform="scale(1 1) rotate(0) translate(4 145)">
<title>Task&#45;Tracker&#45;Device/test</title>
<g id="clust1" class="cluster">
<title>clusterdir_7a0d9093671d12905beda7b1ed8f0dec</title>
<g id="a_clust1"><a xlink:href="dir_7a0d9093671d12905beda7b1ed8f0dec.xhtml" target="_top" xlink:title="Task&#45;Tracker&#45;Device">
<polygon fill="#edf0f7" stroke="#404040" stroke-dasharray="5,2" points="8,-8 8,-133 599,-133 599,-8 8,-8"/>
<text text-anchor="middle" x="303.5" y="-121" font-family="Helvetica,sans-Serif" font-size="10.00">Task&#45;Tracker&#45;Device</text>
</a>
</g>
</g>
<g id="clust2" class="cluster">
<title>clusterdir_75b09ee04e6f334759174746683ad215</title>
<g id="a_clust2"><a xlink:href="dir_75b09ee04e6f334759174746683ad215.xhtml" target="_top">
<polygon fill="#edf0f7" stroke="#404040" stroke-width="2" points="16,-55 16,-106 591,-106 591,-55 16,-55"/>
</a>
</g>
</g>
<g id="clust3" class="cluster">
<title>clusterdir_4529f6765ae1cac1537a050fab398911</title>
<g id="a_clust3"><a xlink:href="dir_4529f6765ae1cac1537a050fab398911.xhtml" target="_top">
<polygon fill="#c8d2e7" stroke="#404040" points="353,-63 353,-98 583,-98 583,-63 353,-63"/>
</a>
</g>
</g>
<!-- dir_bb6849ea4d307d3e6f07c34bd3d0693d -->
<g id="node1" class="node">
<title>dir_bb6849ea4d307d3e6f07c34bd3d0693d</title>
<g id="a_node1"><a xlink:href="dir_bb6849ea4d307d3e6f07c34bd3d0693d.xhtml" target="_top" xlink:title="lib">
<polygon fill="#c8d2e7" stroke="red" points="347.5,-35 318.5,-35 318.5,-16 347.5,-16 347.5,-35"/>
<text text-anchor="middle" x="333" y="-23" font-family="Helvetica,sans-Serif" font-size="10.00">lib</text>
</a>
</g>
</g>
<!-- dir_75b09ee04e6f334759174746683ad215 -->
<g id="node2" class="node">
<title>dir_75b09ee04e6f334759174746683ad215</title>
<text text-anchor="middle" x="326" y="-78" font-family="Helvetica,sans-Serif" font-size="10.00">test</text>
</g>
<!-- dir_4529f6765ae1cac1537a050fab398911 -->
<g id="node3" class="node">
<title>dir_4529f6765ae1cac1537a050fab398911</title>
<text text-anchor="middle" x="557" y="-78" font-family="Helvetica,sans-Serif" font-size="10.00">hmi</text>
</g>
<!-- dir_4529f6765ae1cac1537a050fab398911&#45;&gt;dir_bb6849ea4d307d3e6f07c34bd3d0693d -->
<g id="edge1" class="edge">
<title>dir_4529f6765ae1cac1537a050fab398911&#45;&gt;dir_bb6849ea4d307d3e6f07c34bd3d0693d</title>
<g id="a_edge1"><a xlink:href="dir_000009_000011.xhtml" target="_top">
<path fill="none" stroke="#63b8ff" d="M550.23,-70.81C545.46,-65.35 538.6,-58.66 531,-55 500.81,-40.44 403.58,-31.63 357.57,-28.18"/>
<polygon fill="#63b8ff" stroke="#63b8ff" points="357.78,-24.69 347.55,-27.46 357.27,-31.67 357.78,-24.69"/>
</a>
</g>
<g id="a_edge1&#45;headlabel"><a xlink:href="dir_000009_000011.xhtml" target="_top" xlink:title="16">
<text text-anchor="middle" x="361.57" y="-19.62" font-family="Helvetica,sans-Serif" font-size="10.00" fill="#63b8ff">16</text>
</a>
</g>
</g>
<!-- dir_f83547bb58cdfc4b6281659838ae4c2b -->
<g id="node4" class="node">
<title>dir_f83547bb58cdfc4b6281659838ae4c2b</title>
<g id="a_node4"><a xlink:href="dir_f83547bb58cdfc4b6281659838ae4c2b.xhtml" target="_top" xlink:title="test_hmi">
<polygon fill="#a2b4d6" stroke="#404040" points="521.5,-90 462.5,-90 462.5,-71 521.5,-71 521.5,-90"/>
<text text-anchor="middle" x="492" y="-78" font-family="Helvetica,sans-Serif" font-size="10.00">test_hmi</text>
</a>
</g>
</g>
<!-- dir_f83547bb58cdfc4b6281659838ae4c2b&#45;&gt;dir_bb6849ea4d307d3e6f07c34bd3d0693d -->
<g id="edge2" class="edge">
<title>dir_f83547bb58cdfc4b6281659838ae4c2b&#45;&gt;dir_bb6849ea4d307d3e6f07c34bd3d0693d</title>
<g id="a_edge2"><a xlink:href="dir_000023_000011.xhtml" target="_top">
<path fill="none" stroke="#63b8ff" d="M480.93,-70.91C473.64,-65.64 463.68,-59.12 454,-55 422.17,-41.47 382.76,-33.71 357.75,-29.8"/>
<polygon fill="#63b8ff" stroke="#63b8ff" points="358.06,-26.31 347.66,-28.31 357.04,-33.23 358.06,-26.31"/>
</a>
</g>
<g id="a_edge2&#45;headlabel"><a xlink:href="dir_000023_000011.xhtml" target="_top" xlink:title="9">
<text text-anchor="middle" x="362.03" y="-21.52" font-family="Helvetica,sans-Serif" font-size="10.00" fill="#63b8ff">9</text>
</a>
</g>
</g>
<!-- dir_15457ae2eabadb2e4f1a3287cb974943 -->
<g id="node5" class="node">
<title>dir_15457ae2eabadb2e4f1a3287cb974943</title>
<g id="a_node5"><a xlink:href="dir_15457ae2eabadb2e4f1a3287cb974943.xhtml" target="_top" xlink:title="test_keyState">
<polygon fill="#a2b4d6" stroke="#404040" points="444.5,-90 361.5,-90 361.5,-71 444.5,-71 444.5,-90"/>
<text text-anchor="middle" x="403" y="-78" font-family="Helvetica,sans-Serif" font-size="10.00">test_keyState</text>
</a>
</g>
</g>
<!-- dir_15457ae2eabadb2e4f1a3287cb974943&#45;&gt;dir_bb6849ea4d307d3e6f07c34bd3d0693d -->
<g id="edge3" class="edge">
<title>dir_15457ae2eabadb2e4f1a3287cb974943&#45;&gt;dir_bb6849ea4d307d3e6f07c34bd3d0693d</title>
<g id="a_edge3"><a xlink:href="dir_000024_000011.xhtml" target="_top">
<path fill="none" stroke="#63b8ff" d="M391.75,-70.98C381.2,-63 365.2,-50.88 352.56,-41.31"/>
<polygon fill="#63b8ff" stroke="#63b8ff" points="354.54,-38.42 344.45,-35.17 350.31,-44 354.54,-38.42"/>
</a>
</g>
<g id="a_edge3&#45;headlabel"><a xlink:href="dir_000024_000011.xhtml" target="_top" xlink:title="3">
<text text-anchor="middle" x="359.12" y="-35.82" font-family="Helvetica,sans-Serif" font-size="10.00" fill="#63b8ff">3</text>
</a>
</g>
</g>
<!-- dir_819cd84af3524d09e659598f15263a22 -->
<g id="node6" class="node">
<title>dir_819cd84af3524d09e659598f15263a22</title>
<g id="a_node6"><a xlink:href="dir_819cd84af3524d09e659598f15263a22.xhtml" target="_top" xlink:title="test_cli">
<polygon fill="#c8d2e7" stroke="#404040" points="290,-90 238,-90 238,-71 290,-71 290,-90"/>
<text text-anchor="middle" x="264" y="-78" font-family="Helvetica,sans-Serif" font-size="10.00">test_cli</text>
</a>
</g>
</g>
<!-- dir_819cd84af3524d09e659598f15263a22&#45;&gt;dir_bb6849ea4d307d3e6f07c34bd3d0693d -->
<g id="edge4" class="edge">
<title>dir_819cd84af3524d09e659598f15263a22&#45;&gt;dir_bb6849ea4d307d3e6f07c34bd3d0693d</title>
<g id="a_edge4"><a xlink:href="dir_000022_000011.xhtml" target="_top">
<path fill="none" stroke="#63b8ff" d="M275.09,-70.98C285.49,-63 301.26,-50.88 313.72,-41.31"/>
<polygon fill="#63b8ff" stroke="#63b8ff" points="315.91,-44.04 321.71,-35.17 311.65,-38.49 315.91,-44.04"/>
</a>
</g>
<g id="a_edge4&#45;headlabel"><a xlink:href="dir_000022_000011.xhtml" target="_top" xlink:title="1">
<text text-anchor="middle" x="314.79" y="-45.98" font-family="Helvetica,sans-Serif" font-size="10.00" fill="#63b8ff">1</text>
</a>
</g>
</g>
<!-- dir_58405109ae94bf39283a73532e1c620b -->
<g id="node7" class="node">
<title>dir_58405109ae94bf39283a73532e1c620b</title>
<g id="a_node7"><a xlink:href="dir_58405109ae94bf39283a73532e1c620b.xhtml" target="_top" xlink:title="test_string_helpers">
<polygon fill="#c8d2e7" stroke="#404040" points="220,-90 110,-90 110,-71 220,-71 220,-90"/>
<text text-anchor="middle" x="165" y="-78" font-family="Helvetica,sans-Serif" font-size="10.00">test_string_helpers</text>
</a>
</g>
</g>
<!-- dir_58405109ae94bf39283a73532e1c620b&#45;&gt;dir_bb6849ea4d307d3e6f07c34bd3d0693d -->
<g id="edge5" class="edge">
<title>dir_58405109ae94bf39283a73532e1c620b&#45;&gt;dir_bb6849ea4d307d3e6f07c34bd3d0693d</title>
<g id="a_edge5"><a xlink:href="dir_000025_000011.xhtml" target="_top">
<path fill="none" stroke="#63b8ff" d="M185.86,-70.92C198.28,-65.96 214.41,-59.78 229,-55 255.94,-46.18 287.39,-37.82 308.6,-32.47"/>
<polygon fill="#63b8ff" stroke="#63b8ff" points="309.54,-35.84 318.4,-30.02 307.85,-29.05 309.54,-35.84"/>
</a>
</g>
<g id="a_edge5&#45;headlabel"><a xlink:href="dir_000025_000011.xhtml" target="_top" xlink:title="1">
<text text-anchor="middle" x="306.74" y="-36.96" font-family="Helvetica,sans-Serif" font-size="10.00" fill="#63b8ff">1</text>
</a>
</g>
</g>
<!-- dir_89fe783c9bd82ad9c25cd8b221206f12 -->
<g id="node8" class="node">
<title>dir_89fe783c9bd82ad9c25cd8b221206f12</title>
<g id="a_node8"><a xlink:href="dir_89fe783c9bd82ad9c25cd8b221206f12.xhtml" target="_top" xlink:title="test_tasks">
<polygon fill="#c8d2e7" stroke="#404040" points="91.5,-90 24.5,-90 24.5,-71 91.5,-71 91.5,-90"/>
<text text-anchor="middle" x="58" y="-78" font-family="Helvetica,sans-Serif" font-size="10.00">test_tasks</text>
</a>
</g>
</g>
<!-- dir_89fe783c9bd82ad9c25cd8b221206f12&#45;&gt;dir_bb6849ea4d307d3e6f07c34bd3d0693d -->
<g id="edge6" class="edge">
<title>dir_89fe783c9bd82ad9c25cd8b221206f12&#45;&gt;dir_bb6849ea4d307d3e6f07c34bd3d0693d</title>
<g id="a_edge6"><a xlink:href="dir_000026_000011.xhtml" target="_top">
<path fill="none" stroke="#63b8ff" d="M70.18,-70.82C78.47,-65.36 89.91,-58.68 101,-55 173.64,-30.92 265.16,-26.85 308.32,-26.38"/>
<polygon fill="#63b8ff" stroke="#63b8ff" points="308.47,-29.88 318.45,-26.33 308.43,-22.88 308.47,-29.88"/>
</a>
</g>
<g id="a_edge6&#45;headlabel"><a xlink:href="dir_000026_000011.xhtml" target="_top" xlink:title="1">
<text text-anchor="middle" x="304.89" y="-30.24" font-family="Helvetica,sans-Serif" font-size="10.00" fill="#63b8ff">1</text>
</a>
</g>
</g>
</g>
</svg>
