<svg xmlns="http://www.w3.org/2000/svg" xmlns:xlink="http://www.w3.org/1999/xlink" contentStyleType="text/css" data-diagram-type="TIMING" height="254px" preserveAspectRatio="none" style="width:1201px;height:254px;background:#FFFFFF;" version="1.1" viewBox="0 0 1201 254" width="1201px" zoomAndPan="magnify"><title>debouncing by post-event filtering: not too short</title><defs/><g><g class="title" data-source-line="1"><text fill="#000000" font-family="sans-serif" font-size="14" font-weight="bold" lengthAdjust="spacing" textLength="388.7051" x="404.7202" y="32.9951">debouncing by post-event filtering: not too short</text></g><line style="stroke:#333333;stroke-width:0.5;" x1="10" x2="10" y1="47.2969" y2="210.5"/><line style="stroke:#333333;stroke-width:0.5;" x1="1189.1455" x2="1189.1455" y1="47.2969" y2="210.5"/><rect fill="#EEEEEE" height="163.2031" style="stroke:none;stroke-width:1;" width="250" x="409.1455" y="47.2969"/><rect fill="#EEEEEE" height="163.2031" style="stroke:none;stroke-width:1;" width="250" x="734.1455" y="47.2969"/><line style="stroke:#333333;stroke-width:0.5;stroke-dasharray:3.0,5.0;" x1="159.1455" x2="159.1455" y1="47.2969" y2="210.5"/><line style="stroke:#333333;stroke-width:0.5;stroke-dasharray:3.0,5.0;" x1="409.1455" x2="409.1455" y1="47.2969" y2="210.5"/><line style="stroke:#333333;stroke-width:0.5;stroke-dasharray:3.0,5.0;" x1="659.1455" x2="659.1455" y1="47.2969" y2="210.5"/><line style="stroke:#333333;stroke-width:0.5;stroke-dasharray:3.0,5.0;" x1="909.1455" x2="909.1455" y1="47.2969" y2="210.5"/><line style="stroke:#333333;stroke-width:0.5;stroke-dasharray:3.0,5.0;" x1="1159.1455" x2="1159.1455" y1="47.2969" y2="210.5"/><line style="stroke:#333333;stroke-width:0.5;" x1="10" x2="1189.1455" y1="47.2969" y2="47.2969"/><text fill="#333333" font-family="sans-serif" font-size="14" font-weight="bold" lengthAdjust="spacing" textLength="96.8994" x="15" y="94.1943">digital input</text><line style="stroke:#006400;stroke-width:2;" x1="159.1455" x2="159.1455" y1="102.2344" y2="102.2344"/><line style="stroke:#006400;stroke-width:2;" x1="159.1455" x2="409.1455" y1="102.2344" y2="102.2344"/><line style="stroke:#006400;stroke-width:2;" x1="409.1455" x2="409.1455" y1="88.2344" y2="102.2344"/><line style="stroke:#006400;stroke-width:2;" x1="409.1455" x2="409.1455" y1="88.2344" y2="102.2344"/><line style="stroke:#006400;stroke-width:2;" x1="414.1455" x2="414.1455" y1="88.2344" y2="102.2344"/><line style="stroke:#006400;stroke-width:2;" x1="419.1455" x2="419.1455" y1="88.2344" y2="102.2344"/><line style="stroke:#006400;stroke-width:2;" x1="424.1455" x2="424.1455" y1="88.2344" y2="102.2344"/><line style="stroke:#006400;stroke-width:2;" x1="429.1455" x2="429.1455" y1="88.2344" y2="102.2344"/><line style="stroke:#006400;stroke-width:2;" x1="434.1455" x2="434.1455" y1="88.2344" y2="102.2344"/><line style="stroke:#006400;stroke-width:2;" x1="439.1455" x2="439.1455" y1="88.2344" y2="102.2344"/><line style="stroke:#006400;stroke-width:2;" x1="444.1455" x2="444.1455" y1="88.2344" y2="102.2344"/><line style="stroke:#006400;stroke-width:2;" x1="449.1455" x2="449.1455" y1="88.2344" y2="102.2344"/><line style="stroke:#006400;stroke-width:2;" x1="454.1455" x2="454.1455" y1="88.2344" y2="102.2344"/><line style="stroke:#006400;stroke-width:2;" x1="459.1455" x2="459.1455" y1="88.2344" y2="102.2344"/><line style="stroke:#006400;stroke-width:2;" x1="464.1455" x2="464.1455" y1="88.2344" y2="102.2344"/><line style="stroke:#006400;stroke-width:2;" x1="469.1455" x2="469.1455" y1="88.2344" y2="102.2344"/><line style="stroke:#006400;stroke-width:2;" x1="474.1455" x2="474.1455" y1="88.2344" y2="102.2344"/><line style="stroke:#006400;stroke-width:2;" x1="479.1455" x2="479.1455" y1="88.2344" y2="102.2344"/><line style="stroke:#006400;stroke-width:2;" x1="484.1455" x2="484.1455" y1="88.2344" y2="102.2344"/><line style="stroke:#006400;stroke-width:2;" x1="489.1455" x2="489.1455" y1="88.2344" y2="102.2344"/><line style="stroke:#006400;stroke-width:2;" x1="494.1455" x2="494.1455" y1="88.2344" y2="102.2344"/><line style="stroke:#006400;stroke-width:2;" x1="499.1455" x2="499.1455" y1="88.2344" y2="102.2344"/><line style="stroke:#006400;stroke-width:2;" x1="504.1455" x2="504.1455" y1="88.2344" y2="102.2344"/><line style="stroke:#006400;stroke-width:2;" x1="509.1455" x2="509.1455" y1="88.2344" y2="102.2344"/><line style="stroke:#006400;stroke-width:2;" x1="514.1455" x2="514.1455" y1="88.2344" y2="102.2344"/><line style="stroke:#006400;stroke-width:2;" x1="519.1455" x2="519.1455" y1="88.2344" y2="102.2344"/><line style="stroke:#006400;stroke-width:2;" x1="524.1455" x2="524.1455" y1="88.2344" y2="102.2344"/><line style="stroke:#006400;stroke-width:2;" x1="529.1455" x2="529.1455" y1="88.2344" y2="102.2344"/><line style="stroke:#006400;stroke-width:2;" x1="534.1455" x2="534.1455" y1="88.2344" y2="102.2344"/><line style="stroke:#006400;stroke-width:2;" x1="539.1455" x2="539.1455" y1="88.2344" y2="102.2344"/><line style="stroke:#006400;stroke-width:2;" x1="544.1455" x2="544.1455" y1="88.2344" y2="102.2344"/><line style="stroke:#006400;stroke-width:2;" x1="549.1455" x2="549.1455" y1="88.2344" y2="102.2344"/><line style="stroke:#006400;stroke-width:2;" x1="554.1455" x2="554.1455" y1="88.2344" y2="102.2344"/><line style="stroke:#006400;stroke-width:2;" x1="559.1455" x2="559.1455" y1="88.2344" y2="102.2344"/><line style="stroke:#006400;stroke-width:2;" x1="564.1455" x2="564.1455" y1="88.2344" y2="102.2344"/><line style="stroke:#006400;stroke-width:2;" x1="569.1455" x2="569.1455" y1="88.2344" y2="102.2344"/><line style="stroke:#006400;stroke-width:2;" x1="574.1455" x2="574.1455" y1="88.2344" y2="102.2344"/><line style="stroke:#006400;stroke-width:2;" x1="579.1455" x2="579.1455" y1="88.2344" y2="102.2344"/><line style="stroke:#006400;stroke-width:2;" x1="584.1455" x2="584.1455" y1="88.2344" y2="102.2344"/><line style="stroke:#006400;stroke-width:2;" x1="589.1455" x2="589.1455" y1="88.2344" y2="102.2344"/><line style="stroke:#006400;stroke-width:2;" x1="594.1455" x2="594.1455" y1="88.2344" y2="102.2344"/><line style="stroke:#006400;stroke-width:2;" x1="599.1455" x2="599.1455" y1="88.2344" y2="102.2344"/><line style="stroke:#006400;stroke-width:2;" x1="604.1455" x2="604.1455" y1="88.2344" y2="102.2344"/><line style="stroke:#006400;stroke-width:2;" x1="609.1455" x2="609.1455" y1="88.2344" y2="102.2344"/><line style="stroke:#006400;stroke-width:2;" x1="609.1455" x2="734.1455" y1="88.2344" y2="88.2344"/><line style="stroke:#006400;stroke-width:2;" x1="734.1455" x2="734.1455" y1="88.2344" y2="102.2344"/><line style="stroke:#006400;stroke-width:2;" x1="734.1455" x2="734.1455" y1="88.2344" y2="102.2344"/><line style="stroke:#006400;stroke-width:2;" x1="739.1455" x2="739.1455" y1="88.2344" y2="102.2344"/><line style="stroke:#006400;stroke-width:2;" x1="744.1455" x2="744.1455" y1="88.2344" y2="102.2344"/><line style="stroke:#006400;stroke-width:2;" x1="749.1455" x2="749.1455" y1="88.2344" y2="102.2344"/><line style="stroke:#006400;stroke-width:2;" x1="754.1455" x2="754.1455" y1="88.2344" y2="102.2344"/><line style="stroke:#006400;stroke-width:2;" x1="759.1455" x2="759.1455" y1="88.2344" y2="102.2344"/><line style="stroke:#006400;stroke-width:2;" x1="764.1455" x2="764.1455" y1="88.2344" y2="102.2344"/><line style="stroke:#006400;stroke-width:2;" x1="769.1455" x2="769.1455" y1="88.2344" y2="102.2344"/><line style="stroke:#006400;stroke-width:2;" x1="774.1455" x2="774.1455" y1="88.2344" y2="102.2344"/><line style="stroke:#006400;stroke-width:2;" x1="779.1455" x2="779.1455" y1="88.2344" y2="102.2344"/><line style="stroke:#006400;stroke-width:2;" x1="784.1455" x2="784.1455" y1="88.2344" y2="102.2344"/><line style="stroke:#006400;stroke-width:2;" x1="789.1455" x2="789.1455" y1="88.2344" y2="102.2344"/><line style="stroke:#006400;stroke-width:2;" x1="794.1455" x2="794.1455" y1="88.2344" y2="102.2344"/><line style="stroke:#006400;stroke-width:2;" x1="799.1455" x2="799.1455" y1="88.2344" y2="102.2344"/><line style="stroke:#006400;stroke-width:2;" x1="804.1455" x2="804.1455" y1="88.2344" y2="102.2344"/><line style="stroke:#006400;stroke-width:2;" x1="809.1455" x2="809.1455" y1="88.2344" y2="102.2344"/><line style="stroke:#006400;stroke-width:2;" x1="814.1455" x2="814.1455" y1="88.2344" y2="102.2344"/><line style="stroke:#006400;stroke-width:2;" x1="819.1455" x2="819.1455" y1="88.2344" y2="102.2344"/><line style="stroke:#006400;stroke-width:2;" x1="824.1455" x2="824.1455" y1="88.2344" y2="102.2344"/><line style="stroke:#006400;stroke-width:2;" x1="829.1455" x2="829.1455" y1="88.2344" y2="102.2344"/><line style="stroke:#006400;stroke-width:2;" x1="834.1455" x2="834.1455" y1="88.2344" y2="102.2344"/><line style="stroke:#006400;stroke-width:2;" x1="839.1455" x2="839.1455" y1="88.2344" y2="102.2344"/><line style="stroke:#006400;stroke-width:2;" x1="844.1455" x2="844.1455" y1="88.2344" y2="102.2344"/><line style="stroke:#006400;stroke-width:2;" x1="849.1455" x2="849.1455" y1="88.2344" y2="102.2344"/><line style="stroke:#006400;stroke-width:2;" x1="854.1455" x2="854.1455" y1="88.2344" y2="102.2344"/><line style="stroke:#006400;stroke-width:2;" x1="859.1455" x2="859.1455" y1="88.2344" y2="102.2344"/><line style="stroke:#006400;stroke-width:2;" x1="864.1455" x2="864.1455" y1="88.2344" y2="102.2344"/><line style="stroke:#006400;stroke-width:2;" x1="869.1455" x2="869.1455" y1="88.2344" y2="102.2344"/><line style="stroke:#006400;stroke-width:2;" x1="874.1455" x2="874.1455" y1="88.2344" y2="102.2344"/><line style="stroke:#006400;stroke-width:2;" x1="879.1455" x2="879.1455" y1="88.2344" y2="102.2344"/><line style="stroke:#006400;stroke-width:2;" x1="884.1455" x2="884.1455" y1="88.2344" y2="102.2344"/><line style="stroke:#006400;stroke-width:2;" x1="889.1455" x2="889.1455" y1="88.2344" y2="102.2344"/><line style="stroke:#006400;stroke-width:2;" x1="894.1455" x2="894.1455" y1="88.2344" y2="102.2344"/><line style="stroke:#006400;stroke-width:2;" x1="899.1455" x2="899.1455" y1="88.2344" y2="102.2344"/><line style="stroke:#006400;stroke-width:2;" x1="904.1455" x2="904.1455" y1="88.2344" y2="102.2344"/><line style="stroke:#006400;stroke-width:2;" x1="909.1455" x2="909.1455" y1="88.2344" y2="102.2344"/><line style="stroke:#006400;stroke-width:2;" x1="914.1455" x2="914.1455" y1="88.2344" y2="102.2344"/><line style="stroke:#006400;stroke-width:2;" x1="919.1455" x2="919.1455" y1="88.2344" y2="102.2344"/><line style="stroke:#006400;stroke-width:2;" x1="924.1455" x2="924.1455" y1="88.2344" y2="102.2344"/><line style="stroke:#006400;stroke-width:2;" x1="929.1455" x2="929.1455" y1="88.2344" y2="102.2344"/><line style="stroke:#006400;stroke-width:2;" x1="934.1455" x2="934.1455" y1="88.2344" y2="102.2344"/><line style="stroke:#006400;stroke-width:2;" x1="934.1455" x2="1184.1455" y1="102.2344" y2="102.2344"/><line style="stroke:#8B0000;stroke-width:1.5;" x1="411.6455" x2="606.6455" y1="80.2344" y2="80.2344"/><polygon fill="#8B0000" points="419.6455,84.2344,419.6455,76.2344,411.6455,80.2344" style="stroke:#8B0000;stroke-width:2;"/><polygon fill="#8B0000" points="598.6455,84.2344,598.6455,76.2344,606.6455,80.2344" style="stroke:#8B0000;stroke-width:2;"/><text fill="#8B0000" font-family="sans-serif" font-size="12" lengthAdjust="spacing" textLength="55.3242" x="481.4834" y="72.4043">bouncing</text><line style="stroke:#8B0000;stroke-width:1.5;" x1="736.6455" x2="931.6455" y1="80.2344" y2="80.2344"/><polygon fill="#8B0000" points="744.6455,84.2344,744.6455,76.2344,736.6455,80.2344" style="stroke:#8B0000;stroke-width:2;"/><polygon fill="#8B0000" points="923.6455,84.2344,923.6455,76.2344,931.6455,80.2344" style="stroke:#8B0000;stroke-width:2;"/><text fill="#8B0000" font-family="sans-serif" font-size="12" lengthAdjust="spacing" textLength="55.3242" x="806.4834" y="72.4043">bouncing</text><path d="M409.1455,111.2344 L409.1455,136.3672 L541.9785,136.3672 L541.9785,121.2344 L531.9785,111.2344 L409.1455,111.2344" fill="#FEFFDD" style="stroke:#333333;stroke-width:0.5;"/><path d="M531.9785,111.2344 L531.9785,121.2344 L541.9785,121.2344 L531.9785,111.2344" fill="#FEFFDD" style="stroke:#333333;stroke-width:0.5;"/><text fill="#333333" font-family="sans-serif" font-size="13" font-weight="bold" lengthAdjust="spacing" textLength="111.833" x="415.1455" y="128.3013">button pressed</text><path d="M734.1455,111.2344 L734.1455,136.3672 L871.9805,136.3672 L871.9805,121.2344 L861.9805,111.2344 L734.1455,111.2344" fill="#FEFFDD" style="stroke:#333333;stroke-width:0.5;"/><path d="M861.9805,111.2344 L861.9805,121.2344 L871.9805,121.2344 L861.9805,111.2344" fill="#FEFFDD" style="stroke:#333333;stroke-width:0.5;"/><text fill="#333333" font-family="sans-serif" font-size="13" font-weight="bold" lengthAdjust="spacing" textLength="116.835" x="740.1455" y="128.3013">button released</text><line style="stroke:#333333;stroke-width:0.5;" x1="10" x2="1189.1455" y1="145.3672" y2="145.3672"/><text fill="#333333" font-family="sans-serif" font-size="14" font-weight="bold" lengthAdjust="spacing" textLength="139.1455" x="15" y="182.7803">debounced signal</text><line style="stroke:#006400;stroke-width:2;" x1="159.1455" x2="159.1455" y1="202.5" y2="202.5"/><line style="stroke:#006400;stroke-width:2;" x1="159.1455" x2="409.1455" y1="202.5" y2="202.5"/><line style="stroke:#006400;stroke-width:2;" x1="409.1455" x2="409.1455" y1="188.5" y2="202.5"/><line style="stroke:#006400;stroke-width:2;" x1="409.1455" x2="734.1455" y1="188.5" y2="188.5"/><line style="stroke:#006400;stroke-width:2;" x1="734.1455" x2="734.1455" y1="188.5" y2="202.5"/><line style="stroke:#006400;stroke-width:2;" x1="734.1455" x2="1184.1455" y1="202.5" y2="202.5"/><path d="M159.1455,153.3672 L159.1455,178.5 L260.8433,178.5 L260.8433,163.3672 L250.8433,153.3672 L159.1455,153.3672" fill="#FEFFDD" style="stroke:#333333;stroke-width:0.5;"/><path d="M250.8433,153.3672 L250.8433,163.3672 L260.8433,163.3672 L250.8433,153.3672" fill="#FEFFDD" style="stroke:#333333;stroke-width:0.5;"/><text fill="#333333" font-family="sans-serif" font-size="13" font-weight="bold" lengthAdjust="spacing" textLength="80.6978" x="165.1455" y="170.4341">debounced</text><line style="stroke:#00008B;stroke-width:1.5;" x1="409.1455" x2="409.1455" y1="88.2344" y2="188.5"/><polygon fill="#00008B" points="406.4093,180.9825,411.8817,180.9825,409.1455,188.5" style="stroke:#00008B;stroke-width:1.5;"/><text fill="#00008B" font-family="Serif" font-size="14" lengthAdjust="spacing" textLength="146.0771" x="409.1455" y="177.6807">rising edge detected</text><line style="stroke:#00008B;stroke-width:1.5;" x1="734.1455" x2="734.1455" y1="88.2344" y2="188.5"/><polygon fill="#00008B" points="731.4093,180.9825,736.8817,180.9825,734.1455,188.5" style="stroke:#00008B;stroke-width:1.5;"/><text fill="#00008B" font-family="Serif" font-size="14" lengthAdjust="spacing" textLength="150.2061" x="734.1455" y="177.6807">falling edge detected</text><line style="stroke:#333333;stroke-width:2;stroke-dasharray:4.0,4.0;" x1="409.1455" x2="409.1455" y1="47.2969" y2="210.5"/><line style="stroke:#333333;stroke-width:2;stroke-dasharray:4.0,4.0;" x1="659.1455" x2="659.1455" y1="47.2969" y2="210.5"/><text fill="#000000" font-family="sans-serif" font-size="12" lengthAdjust="spacing" textLength="134.2734" x="412.1455" y="60.4355">state changes ignored</text><line style="stroke:#333333;stroke-width:2;stroke-dasharray:4.0,4.0;" x1="734.1455" x2="734.1455" y1="47.2969" y2="210.5"/><line style="stroke:#333333;stroke-width:2;stroke-dasharray:4.0,4.0;" x1="984.1455" x2="984.1455" y1="47.2969" y2="210.5"/><text fill="#000000" font-family="sans-serif" font-size="12" lengthAdjust="spacing" textLength="134.2734" x="737.1455" y="60.4355">state changes ignored</text><g class="caption" data-source-line="2"><text fill="#000000" font-family="sans-serif" font-size="14" lengthAdjust="spacing" textLength="177.8027" x="510.1714" y="237.2998">debouncing normal pulse</text></g><!--SRC=[bP3HQiCm34NV_HMYhrb7CoYCCaOe-H4dKHE1QnbBsLh6_droitQ3iOS-62Fh7jqhAsb06B3ZEVOKH-ZEa5XqZMyO5GuK5BEzxo2oWZA3J9pLzJufSVnDHiv77o3DGT1DD20e7N7jJoHEUcysDNY1f-q64fqmYEie-do6rK0ZgQ4Kqwoh8cf_Uei13Y0qHXykxRrppSQrG0A1tvr5CpDEm0VOmmvkZDjV9KrLB_eFgnuc6gVF1UjObO-5R8tiPgiYf8mYXhTDjO6NzIlO_VXS-j_BsYnxBLwPf2oFmrY-KR5NuyhyO4V1U6MeQbEAUlFh9nz75B1bE5yJ5hsxU2mXR_NsZj0P0_fBwcksWm_XRxZ_bxetzlAnjzHMVW40]--></g></svg>