<?xml version="1.0" encoding="UTF-8" standalone="no"?>
<!DOCTYPE svg PUBLIC "-//W3C//DTD SVG 1.1//EN"
 "http://www.w3.org/Graphics/SVG/1.1/DTD/svg11.dtd">
<!-- Generated by graphviz version 2.43.0 (0)
 -->
<!-- Title: Task&#45;Tracker&#45;Device/lib/application_business_rules/user_interaction/IStatusIndicator.hpp Pages: 1 -->
<svg width="633pt" height="247pt"
 viewBox="0.00 0.00 632.50 247.00" xmlns="http://www.w3.org/2000/svg" xmlns:xlink="http://www.w3.org/1999/xlink">
<g id="graph0" class="graph" transform="scale(1 1) rotate(0) translate(4 243)">
<title>Task&#45;Tracker&#45;Device/lib/application_business_rules/user_interaction/IStatusIndicator.hpp</title>
<!-- Node1 -->
<g id="Node000001" class="node">
<title>Node1</title>
<g id="a_Node000001"><a xlink:title=" ">
<polygon fill="#999999" stroke="#666666" points="363,-239 226,-239 226,-187 363,-187 363,-239"/>
<text text-anchor="start" x="234" y="-227" font-family="Helvetica,sans-Serif" font-size="10.00">Task&#45;Tracker&#45;Device</text>
<text text-anchor="start" x="234" y="-216" font-family="Helvetica,sans-Serif" font-size="10.00">/lib/application_business</text>
<text text-anchor="start" x="234" y="-205" font-family="Helvetica,sans-Serif" font-size="10.00">_rules/user_interaction</text>
<text text-anchor="middle" x="294.5" y="-194" font-family="Helvetica,sans-Serif" font-size="10.00">/IStatusIndicator.hpp</text>
</a>
</g>
</g>
<!-- Node2 -->
<g id="Node000002" class="node">
<title>Node2</title>
<g id="a_Node000002"><a xlink:href="Presenter_8hpp.xhtml" target="_top" xlink:title=" ">
<polygon fill="white" stroke="#666666" points="208,-145.5 71,-145.5 71,-93.5 208,-93.5 208,-145.5"/>
<text text-anchor="start" x="79" y="-133.5" font-family="Helvetica,sans-Serif" font-size="10.00">Task&#45;Tracker&#45;Device</text>
<text text-anchor="start" x="79" y="-122.5" font-family="Helvetica,sans-Serif" font-size="10.00">/lib/application_business</text>
<text text-anchor="start" x="79" y="-111.5" font-family="Helvetica,sans-Serif" font-size="10.00">_rules/user_interaction</text>
<text text-anchor="middle" x="139.5" y="-100.5" font-family="Helvetica,sans-Serif" font-size="10.00">/Presenter.hpp</text>
</a>
</g>
</g>
<!-- Node1&#45;&gt;Node2 -->
<g id="edge1_Node000001_Node000002" class="edge">
<title>Node1&#45;&gt;Node2</title>
<g id="a_edge1_Node000001_Node000002"><a xlink:title=" ">
<path fill="none" stroke="#63b8ff" d="M243.51,-181.9C223.62,-170.16 201.07,-156.85 182.07,-145.63"/>
<polygon fill="#63b8ff" stroke="#63b8ff" points="241.75,-184.93 252.15,-187 245.31,-178.9 241.75,-184.93"/>
</a>
</g>
</g>
<!-- Node5 -->
<g id="Node000005" class="node">
<title>Node5</title>
<g id="a_Node000005"><a xlink:href="statusindicators__factory__interface_8hpp.xhtml" target="_top" xlink:title="Dependency injection for the keypad.">
<polygon fill="white" stroke="#666666" points="363,-151 226,-151 226,-88 363,-88 363,-151"/>
<text text-anchor="start" x="234" y="-139" font-family="Helvetica,sans-Serif" font-size="10.00">Task&#45;Tracker&#45;Device</text>
<text text-anchor="start" x="234" y="-128" font-family="Helvetica,sans-Serif" font-size="10.00">/lib/application_business</text>
<text text-anchor="start" x="234" y="-117" font-family="Helvetica,sans-Serif" font-size="10.00">_rules/user_interaction</text>
<text text-anchor="start" x="234" y="-106" font-family="Helvetica,sans-Serif" font-size="10.00">/statusindicators_factory</text>
<text text-anchor="middle" x="294.5" y="-95" font-family="Helvetica,sans-Serif" font-size="10.00">_interface.hpp</text>
</a>
</g>
</g>
<!-- Node1&#45;&gt;Node5 -->
<g id="edge4_Node000001_Node000005" class="edge">
<title>Node1&#45;&gt;Node5</title>
<g id="a_edge4_Node000001_Node000005"><a xlink:title=" ">
<path fill="none" stroke="#63b8ff" d="M294.5,-176.93C294.5,-168.39 294.5,-159.32 294.5,-151.02"/>
<polygon fill="#63b8ff" stroke="#63b8ff" points="291,-177 294.5,-187 298,-177 291,-177"/>
</a>
</g>
</g>
<!-- Node7 -->
<g id="Node000007" class="node">
<title>Node7</title>
<g id="a_Node000007"><a xlink:href="status__indicators_8hpp.xhtml" target="_top" xlink:title=" ">
<polygon fill="white" stroke="#666666" points="517.5,-145.5 381.5,-145.5 381.5,-93.5 517.5,-93.5 517.5,-145.5"/>
<text text-anchor="start" x="389.5" y="-133.5" font-family="Helvetica,sans-Serif" font-size="10.00">Task&#45;Tracker&#45;Device</text>
<text text-anchor="start" x="389.5" y="-122.5" font-family="Helvetica,sans-Serif" font-size="10.00">/lib/board_adapters</text>
<text text-anchor="start" x="389.5" y="-111.5" font-family="Helvetica,sans-Serif" font-size="10.00">/status_indicators/status</text>
<text text-anchor="middle" x="449.5" y="-100.5" font-family="Helvetica,sans-Serif" font-size="10.00">_indicators.hpp</text>
</a>
</g>
</g>
<!-- Node1&#45;&gt;Node7 -->
<g id="edge7_Node000001_Node000007" class="edge">
<title>Node1&#45;&gt;Node7</title>
<g id="a_edge7_Node000001_Node000007"><a xlink:title=" ">
<path fill="none" stroke="#63b8ff" d="M345.49,-181.9C365.38,-170.16 387.93,-156.85 406.93,-145.63"/>
<polygon fill="#63b8ff" stroke="#63b8ff" points="343.69,-178.9 336.85,-187 347.25,-184.93 343.69,-178.9"/>
</a>
</g>
</g>
<!-- Node3 -->
<g id="Node000003" class="node">
<title>Node3</title>
<g id="a_Node000003"><a xlink:href="Presenter_8cpp.xhtml" target="_top" xlink:title=" ">
<polygon fill="white" stroke="#666666" points="137,-52 0,-52 0,0 137,0 137,-52"/>
<text text-anchor="start" x="8" y="-40" font-family="Helvetica,sans-Serif" font-size="10.00">Task&#45;Tracker&#45;Device</text>
<text text-anchor="start" x="8" y="-29" font-family="Helvetica,sans-Serif" font-size="10.00">/lib/application_business</text>
<text text-anchor="start" x="8" y="-18" font-family="Helvetica,sans-Serif" font-size="10.00">_rules/user_interaction</text>
<text text-anchor="middle" x="68.5" y="-7" font-family="Helvetica,sans-Serif" font-size="10.00">/Presenter.cpp</text>
</a>
</g>
</g>
<!-- Node2&#45;&gt;Node3 -->
<g id="edge2_Node000002_Node000003" class="edge">
<title>Node2&#45;&gt;Node3</title>
<g id="a_edge2_Node000002_Node000003"><a xlink:title=" ">
<path fill="none" stroke="#63b8ff" d="M113.82,-85.4C105.35,-74.48 96.07,-62.53 88.12,-52.29"/>
<polygon fill="#63b8ff" stroke="#63b8ff" points="111.2,-87.74 120.1,-93.5 116.73,-83.45 111.2,-87.74"/>
</a>
</g>
</g>
<!-- Node4 -->
<g id="Node000004" class="node">
<title>Node4</title>
<g id="a_Node000004"><a xlink:href="main_8cpp.xhtml" target="_top" xlink:title=" ">
<polygon fill="white" stroke="#666666" points="268,-41 155,-41 155,-11 268,-11 268,-41"/>
<text text-anchor="start" x="163" y="-29" font-family="Helvetica,sans-Serif" font-size="10.00">Task&#45;Tracker&#45;Device</text>
<text text-anchor="middle" x="211.5" y="-18" font-family="Helvetica,sans-Serif" font-size="10.00">/src/main.cpp</text>
</a>
</g>
</g>
<!-- Node2&#45;&gt;Node4 -->
<g id="edge3_Node000002_Node000004" class="edge">
<title>Node2&#45;&gt;Node4</title>
<g id="a_edge3_Node000002_Node000004"><a xlink:title=" ">
<path fill="none" stroke="#63b8ff" d="M165.62,-85.31C177.57,-70.11 191.11,-52.92 200.36,-41.16"/>
<polygon fill="#63b8ff" stroke="#63b8ff" points="162.61,-83.47 159.17,-93.5 168.11,-87.8 162.61,-83.47"/>
</a>
</g>
</g>
<!-- Node5&#45;&gt;Node4 -->
<g id="edge6_Node000005_Node000004" class="edge">
<title>Node5&#45;&gt;Node4</title>
<g id="a_edge6_Node000005_Node000004"><a xlink:title=" ">
<path fill="none" stroke="#63b8ff" d="M259.77,-80.22C247.21,-66.37 233.81,-51.59 224.32,-41.13"/>
<polygon fill="#63b8ff" stroke="#63b8ff" points="257.32,-82.72 266.63,-87.78 262.5,-78.02 257.32,-82.72"/>
</a>
</g>
</g>
<!-- Node6 -->
<g id="Node000006" class="node">
<title>Node6</title>
<g id="a_Node000006"><a xlink:href="statusindicators__factory__interface_8cpp.xhtml" target="_top" xlink:title=" ">
<polygon fill="white" stroke="#666666" points="470.5,-52 286.5,-52 286.5,0 470.5,0 470.5,-52"/>
<text text-anchor="start" x="294.5" y="-40" font-family="Helvetica,sans-Serif" font-size="10.00">Task&#45;Tracker&#45;Device</text>
<text text-anchor="start" x="294.5" y="-29" font-family="Helvetica,sans-Serif" font-size="10.00">/lib/board_adapters</text>
<text text-anchor="start" x="294.5" y="-18" font-family="Helvetica,sans-Serif" font-size="10.00">/status_indicators/statusindicators</text>
<text text-anchor="middle" x="378.5" y="-7" font-family="Helvetica,sans-Serif" font-size="10.00">_factory_interface.cpp</text>
</a>
</g>
</g>
<!-- Node5&#45;&gt;Node6 -->
<g id="edge5_Node000005_Node000006" class="edge">
<title>Node5&#45;&gt;Node6</title>
<g id="a_edge5_Node000005_Node000006"><a xlink:title=" ">
<path fill="none" stroke="#63b8ff" d="M329.61,-80.26C338.37,-70.72 347.53,-60.73 355.53,-52.02"/>
<polygon fill="#63b8ff" stroke="#63b8ff" points="326.89,-78.04 322.7,-87.78 332.05,-82.78 326.89,-78.04"/>
</a>
</g>
</g>
<!-- Node7&#45;&gt;Node6 -->
<g id="edge9_Node000007_Node000006" class="edge">
<title>Node7&#45;&gt;Node6</title>
<g id="a_edge9_Node000007_Node000006"><a xlink:title=" ">
<path fill="none" stroke="#63b8ff" d="M423.82,-85.4C415.35,-74.48 406.07,-62.53 398.12,-52.29"/>
<polygon fill="#63b8ff" stroke="#63b8ff" points="421.2,-87.74 430.1,-93.5 426.73,-83.45 421.2,-87.74"/>
</a>
</g>
</g>
<!-- Node8 -->
<g id="Node000008" class="node">
<title>Node8</title>
<g id="a_Node000008"><a xlink:href="status__indicators_8cpp.xhtml" target="_top" xlink:title=" ">
<polygon fill="white" stroke="#666666" points="624.5,-52 488.5,-52 488.5,0 624.5,0 624.5,-52"/>
<text text-anchor="start" x="496.5" y="-40" font-family="Helvetica,sans-Serif" font-size="10.00">Task&#45;Tracker&#45;Device</text>
<text text-anchor="start" x="496.5" y="-29" font-family="Helvetica,sans-Serif" font-size="10.00">/lib/board_adapters</text>
<text text-anchor="start" x="496.5" y="-18" font-family="Helvetica,sans-Serif" font-size="10.00">/status_indicators/status</text>
<text text-anchor="middle" x="556.5" y="-7" font-family="Helvetica,sans-Serif" font-size="10.00">_indicators.cpp</text>
</a>
</g>
</g>
<!-- Node7&#45;&gt;Node8 -->
<g id="edge8_Node000007_Node000008" class="edge">
<title>Node7&#45;&gt;Node8</title>
<g id="a_edge8_Node000007_Node000008"><a xlink:title=" ">
<path fill="none" stroke="#63b8ff" d="M486.34,-87C499.6,-75.66 514.37,-63.03 526.93,-52.29"/>
<polygon fill="#63b8ff" stroke="#63b8ff" points="484.06,-84.34 478.74,-93.5 488.61,-89.66 484.06,-84.34"/>
</a>
</g>
</g>
</g>
</svg>
