<?xml version="1.0" encoding="UTF-8" standalone="no"?>
<!DOCTYPE svg PUBLIC "-//W3C//DTD SVG 1.1//EN"
 "http://www.w3.org/Graphics/SVG/1.1/DTD/svg11.dtd">
<!-- Generated by graphviz version 2.43.0 (0)
 -->
<!-- Title: Task&#45;Tracker&#45;Device/lib/application_business_rules/user_interaction/KeyIds.hpp Pages: 1 -->
<svg width="1559pt" height="500pt"
 viewBox="0.00 0.00 1559.00 500.00" xmlns="http://www.w3.org/2000/svg" xmlns:xlink="http://www.w3.org/1999/xlink">
<g id="graph0" class="graph" transform="scale(1 1) rotate(0) translate(4 496)">
<title>Task&#45;Tracker&#45;Device/lib/application_business_rules/user_interaction/KeyIds.hpp</title>
<!-- Node1 -->
<g id="Node000001" class="node">
<title>Node1</title>
<g id="a_Node000001"><a xlink:title=" ">
<polygon fill="#999999" stroke="#666666" points="1277,-492 1140,-492 1140,-440 1277,-440 1277,-492"/>
<text text-anchor="start" x="1148" y="-480" font-family="Helvetica,sans-Serif" font-size="10.00">Task&#45;Tracker&#45;Device</text>
<text text-anchor="start" x="1148" y="-469" font-family="Helvetica,sans-Serif" font-size="10.00">/lib/application_business</text>
<text text-anchor="start" x="1148" y="-458" font-family="Helvetica,sans-Serif" font-size="10.00">_rules/user_interaction</text>
<text text-anchor="middle" x="1208.5" y="-447" font-family="Helvetica,sans-Serif" font-size="10.00">/KeyIds.hpp</text>
</a>
</g>
</g>
<!-- Node2 -->
<g id="Node000002" class="node">
<title>Node2</title>
<g id="a_Node000002"><a xlink:href="IKeypad_8hpp.xhtml" target="_top" xlink:title=" ">
<polygon fill="white" stroke="#666666" points="946,-404 809,-404 809,-352 946,-352 946,-404"/>
<text text-anchor="start" x="817" y="-392" font-family="Helvetica,sans-Serif" font-size="10.00">Task&#45;Tracker&#45;Device</text>
<text text-anchor="start" x="817" y="-381" font-family="Helvetica,sans-Serif" font-size="10.00">/lib/application_business</text>
<text text-anchor="start" x="817" y="-370" font-family="Helvetica,sans-Serif" font-size="10.00">_rules/user_interaction</text>
<text text-anchor="middle" x="877.5" y="-359" font-family="Helvetica,sans-Serif" font-size="10.00">/IKeypad.hpp</text>
</a>
</g>
</g>
<!-- Node1&#45;&gt;Node2 -->
<g id="edge1_Node000001_Node000002" class="edge">
<title>Node1&#45;&gt;Node2</title>
<g id="a_edge1_Node000001_Node000002"><a xlink:title=" ">
<path fill="none" stroke="#63b8ff" d="M1130.06,-444.62C1074.2,-430.11 999.83,-410.78 946.28,-396.87"/>
<polygon fill="#63b8ff" stroke="#63b8ff" points="1129.36,-448.05 1139.92,-447.18 1131.12,-441.28 1129.36,-448.05"/>
</a>
</g>
</g>
<!-- Node20 -->
<g id="Node000020" class="node">
<title>Node20</title>
<g id="a_Node000020"><a xlink:href="KeyIds_8cpp.xhtml" target="_top" xlink:title=" ">
<polygon fill="white" stroke="#666666" points="1528,-404 1391,-404 1391,-352 1528,-352 1528,-404"/>
<text text-anchor="start" x="1399" y="-392" font-family="Helvetica,sans-Serif" font-size="10.00">Task&#45;Tracker&#45;Device</text>
<text text-anchor="start" x="1399" y="-381" font-family="Helvetica,sans-Serif" font-size="10.00">/lib/application_business</text>
<text text-anchor="start" x="1399" y="-370" font-family="Helvetica,sans-Serif" font-size="10.00">_rules/user_interaction</text>
<text text-anchor="middle" x="1459.5" y="-359" font-family="Helvetica,sans-Serif" font-size="10.00">/KeyIds.cpp</text>
</a>
</g>
</g>
<!-- Node1&#45;&gt;Node20 -->
<g id="edge26_Node000001_Node000020" class="edge">
<title>Node1&#45;&gt;Node20</title>
<g id="a_edge26_Node000001_Node000020"><a xlink:title=" ">
<path fill="none" stroke="#63b8ff" d="M1286.81,-438.17C1320.18,-426.73 1358.77,-413.51 1391,-402.47"/>
<polygon fill="#63b8ff" stroke="#63b8ff" points="1285.41,-434.95 1277.09,-441.5 1287.68,-441.57 1285.41,-434.95"/>
</a>
</g>
</g>
<!-- Node21 -->
<g id="Node000021" class="node">
<title>Node21</title>
<g id="a_Node000021"><a xlink:href="ProcessHmiInputs_8hpp.xhtml" target="_top" xlink:title=" ">
<polygon fill="white" stroke="#666666" points="1200,-404 1063,-404 1063,-352 1200,-352 1200,-404"/>
<text text-anchor="start" x="1071" y="-392" font-family="Helvetica,sans-Serif" font-size="10.00">Task&#45;Tracker&#45;Device</text>
<text text-anchor="start" x="1071" y="-381" font-family="Helvetica,sans-Serif" font-size="10.00">/lib/application_business</text>
<text text-anchor="start" x="1071" y="-370" font-family="Helvetica,sans-Serif" font-size="10.00">_rules/user_interaction</text>
<text text-anchor="middle" x="1131.5" y="-359" font-family="Helvetica,sans-Serif" font-size="10.00">/ProcessHmiInputs.hpp</text>
</a>
</g>
</g>
<!-- Node1&#45;&gt;Node21 -->
<g id="edge27_Node000001_Node000021" class="edge">
<title>Node1&#45;&gt;Node21</title>
<g id="a_edge27_Node000001_Node000021"><a xlink:title=" ">
<path fill="none" stroke="#63b8ff" d="M1179.02,-432.08C1170.73,-422.81 1161.84,-412.89 1154.02,-404.16"/>
<polygon fill="#63b8ff" stroke="#63b8ff" points="1176.54,-434.55 1185.81,-439.66 1181.75,-429.88 1176.54,-434.55"/>
</a>
</g>
</g>
<!-- Node22 -->
<g id="Node000022" class="node">
<title>Node22</title>
<g id="a_Node000022"><a xlink:href="board__interface_8hpp.xhtml" target="_top" xlink:title=" ">
<polygon fill="white" stroke="#666666" points="1373,-404 1236,-404 1236,-352 1373,-352 1373,-404"/>
<text text-anchor="start" x="1244" y="-392" font-family="Helvetica,sans-Serif" font-size="10.00">Task&#45;Tracker&#45;Device</text>
<text text-anchor="start" x="1244" y="-381" font-family="Helvetica,sans-Serif" font-size="10.00">/lib/application_business</text>
<text text-anchor="start" x="1244" y="-370" font-family="Helvetica,sans-Serif" font-size="10.00">_rules/user_interaction</text>
<text text-anchor="middle" x="1304.5" y="-359" font-family="Helvetica,sans-Serif" font-size="10.00">/board_interface.hpp</text>
</a>
</g>
</g>
<!-- Node1&#45;&gt;Node22 -->
<g id="edge31_Node000001_Node000022" class="edge">
<title>Node1&#45;&gt;Node22</title>
<g id="a_edge31_Node000001_Node000022"><a xlink:title=" ">
<path fill="none" stroke="#63b8ff" d="M1244.07,-433.13C1254.7,-423.62 1266.19,-413.32 1276.27,-404.29"/>
<polygon fill="#63b8ff" stroke="#63b8ff" points="1241.64,-430.61 1236.53,-439.89 1246.31,-435.83 1241.64,-430.61"/>
</a>
</g>
</g>
<!-- Node3 -->
<g id="Node000003" class="node">
<title>Node3</title>
<g id="a_Node000003"><a xlink:href="IGuiEngine_8hpp.xhtml" target="_top" xlink:title=" ">
<polygon fill="white" stroke="#666666" points="392,-316 255,-316 255,-264 392,-264 392,-316"/>
<text text-anchor="start" x="263" y="-304" font-family="Helvetica,sans-Serif" font-size="10.00">Task&#45;Tracker&#45;Device</text>
<text text-anchor="start" x="263" y="-293" font-family="Helvetica,sans-Serif" font-size="10.00">/lib/application_business</text>
<text text-anchor="start" x="263" y="-282" font-family="Helvetica,sans-Serif" font-size="10.00">_rules/user_interaction</text>
<text text-anchor="middle" x="323.5" y="-271" font-family="Helvetica,sans-Serif" font-size="10.00">/IGuiEngine.hpp</text>
</a>
</g>
</g>
<!-- Node2&#45;&gt;Node3 -->
<g id="edge2_Node000002_Node000003" class="edge">
<title>Node2&#45;&gt;Node3</title>
<g id="a_edge2_Node000002_Node000003"><a xlink:title=" ">
<path fill="none" stroke="#63b8ff" d="M798.8,-364.78C690,-347.89 495.41,-317.69 392.19,-301.66"/>
<polygon fill="#63b8ff" stroke="#63b8ff" points="798.32,-368.25 808.73,-366.33 799.39,-361.33 798.32,-368.25"/>
</a>
</g>
</g>
<!-- Node7 -->
<g id="Node000007" class="node">
<title>Node7</title>
<g id="a_Node000007"><a xlink:href="Menu_8hpp.xhtml" target="_top" xlink:title=" ">
<polygon fill="white" stroke="#666666" points="479,-228 342,-228 342,-176 479,-176 479,-228"/>
<text text-anchor="start" x="350" y="-216" font-family="Helvetica,sans-Serif" font-size="10.00">Task&#45;Tracker&#45;Device</text>
<text text-anchor="start" x="350" y="-205" font-family="Helvetica,sans-Serif" font-size="10.00">/lib/application_business</text>
<text text-anchor="start" x="350" y="-194" font-family="Helvetica,sans-Serif" font-size="10.00">_rules/user_interaction</text>
<text text-anchor="middle" x="410.5" y="-183" font-family="Helvetica,sans-Serif" font-size="10.00">/Menu.hpp</text>
</a>
</g>
</g>
<!-- Node2&#45;&gt;Node7 -->
<g id="edge15_Node000002_Node000007" class="edge">
<title>Node2&#45;&gt;Node7</title>
<g id="a_edge15_Node000002_Node000007"><a xlink:title=" ">
<path fill="none" stroke="#63b8ff" d="M798.9,-361.46C751.41,-350.98 690.09,-335.52 637.5,-316 571.26,-291.41 498.85,-253.24 454.05,-228.18"/>
<polygon fill="#63b8ff" stroke="#63b8ff" points="798.31,-364.91 808.82,-363.62 799.8,-358.07 798.31,-364.91"/>
</a>
</g>
</g>
<!-- Node13 -->
<g id="Node000013" class="node">
<title>Node13</title>
<g id="a_Node000013"><a xlink:href="ProcessHmiInputs_8cpp.xhtml" target="_top" xlink:title=" ">
<polygon fill="white" stroke="#666666" points="1191,-316 1054,-316 1054,-264 1191,-264 1191,-316"/>
<text text-anchor="start" x="1062" y="-304" font-family="Helvetica,sans-Serif" font-size="10.00">Task&#45;Tracker&#45;Device</text>
<text text-anchor="start" x="1062" y="-293" font-family="Helvetica,sans-Serif" font-size="10.00">/lib/application_business</text>
<text text-anchor="start" x="1062" y="-282" font-family="Helvetica,sans-Serif" font-size="10.00">_rules/user_interaction</text>
<text text-anchor="middle" x="1122.5" y="-271" font-family="Helvetica,sans-Serif" font-size="10.00">/ProcessHmiInputs.cpp</text>
</a>
</g>
</g>
<!-- Node2&#45;&gt;Node13 -->
<g id="edge16_Node000002_Node000013" class="edge">
<title>Node2&#45;&gt;Node13</title>
<g id="a_edge16_Node000002_Node000013"><a xlink:title=" ">
<path fill="none" stroke="#63b8ff" d="M955.72,-349.54C987.3,-338.46 1023.41,-325.78 1053.94,-315.06"/>
<polygon fill="#63b8ff" stroke="#63b8ff" points="954.35,-346.32 946.07,-352.93 956.67,-352.92 954.35,-346.32"/>
</a>
</g>
</g>
<!-- Node14 -->
<g id="Node000014" class="node">
<title>Node14</title>
<g id="a_Node000014"><a xlink:href="keypad__factory__interface_8hpp.xhtml" target="_top" xlink:title="Dependency injection for the keypad.">
<polygon fill="white" stroke="#666666" points="959.5,-316 795.5,-316 795.5,-264 959.5,-264 959.5,-316"/>
<text text-anchor="start" x="803.5" y="-304" font-family="Helvetica,sans-Serif" font-size="10.00">Task&#45;Tracker&#45;Device</text>
<text text-anchor="start" x="803.5" y="-293" font-family="Helvetica,sans-Serif" font-size="10.00">/lib/application_business</text>
<text text-anchor="start" x="803.5" y="-282" font-family="Helvetica,sans-Serif" font-size="10.00">_rules/user_interaction</text>
<text text-anchor="middle" x="877.5" y="-271" font-family="Helvetica,sans-Serif" font-size="10.00">/keypad_factory_interface.hpp</text>
</a>
</g>
</g>
<!-- Node2&#45;&gt;Node14 -->
<g id="edge17_Node000002_Node000014" class="edge">
<title>Node2&#45;&gt;Node14</title>
<g id="a_edge17_Node000002_Node000014"><a xlink:title=" ">
<path fill="none" stroke="#63b8ff" d="M877.5,-341.56C877.5,-333.04 877.5,-324.1 877.5,-316.16"/>
<polygon fill="#63b8ff" stroke="#63b8ff" points="874,-341.66 877.5,-351.66 881,-341.66 874,-341.66"/>
</a>
</g>
</g>
<!-- Node16 -->
<g id="Node000016" class="node">
<title>Node16</title>
<g id="a_Node000016"><a xlink:href="test__hmi_8cpp.xhtml" target="_top" xlink:title=" ">
<polygon fill="white" stroke="#666666" points="1143.5,-222.5 1015.5,-222.5 1015.5,-181.5 1143.5,-181.5 1143.5,-222.5"/>
<text text-anchor="start" x="1023.5" y="-210.5" font-family="Helvetica,sans-Serif" font-size="10.00">Task&#45;Tracker&#45;Device</text>
<text text-anchor="start" x="1023.5" y="-199.5" font-family="Helvetica,sans-Serif" font-size="10.00">/test/hmi/test_hmi/test</text>
<text text-anchor="middle" x="1079.5" y="-188.5" font-family="Helvetica,sans-Serif" font-size="10.00">_hmi.cpp</text>
</a>
</g>
</g>
<!-- Node2&#45;&gt;Node16 -->
<g id="edge25_Node000002_Node000016" class="edge">
<title>Node2&#45;&gt;Node16</title>
<g id="a_edge25_Node000002_Node000016"><a xlink:title=" ">
<path fill="none" stroke="#63b8ff" d="M927.09,-346.4C940.91,-337.18 955.65,-326.66 968.5,-316 1004.48,-286.15 1041.62,-246.12 1062.52,-222.58"/>
<polygon fill="#63b8ff" stroke="#63b8ff" points="925.06,-343.55 918.63,-351.97 928.91,-349.4 925.06,-343.55"/>
</a>
</g>
</g>
<!-- Node17 -->
<g id="Node000017" class="node">
<title>Node17</title>
<g id="a_Node000017"><a xlink:href="Keypad_8hpp.xhtml" target="_top" xlink:title=" ">
<polygon fill="white" stroke="#666666" points="777,-316 646,-316 646,-264 777,-264 777,-316"/>
<text text-anchor="start" x="654" y="-304" font-family="Helvetica,sans-Serif" font-size="10.00">Task&#45;Tracker&#45;Device</text>
<text text-anchor="start" x="654" y="-293" font-family="Helvetica,sans-Serif" font-size="10.00">/lib/board_adapters</text>
<text text-anchor="start" x="654" y="-282" font-family="Helvetica,sans-Serif" font-size="10.00">/input_device_interface</text>
<text text-anchor="middle" x="711.5" y="-271" font-family="Helvetica,sans-Serif" font-size="10.00">/Keypad.hpp</text>
</a>
</g>
</g>
<!-- Node2&#45;&gt;Node17 -->
<g id="edge21_Node000002_Node000017" class="edge">
<title>Node2&#45;&gt;Node17</title>
<g id="a_edge21_Node000002_Node000017"><a xlink:title=" ">
<path fill="none" stroke="#63b8ff" d="M819.93,-347.18C800.4,-337.06 778.78,-325.86 760.02,-316.14"/>
<polygon fill="#63b8ff" stroke="#63b8ff" points="818.55,-350.4 829.04,-351.89 821.77,-344.19 818.55,-350.4"/>
</a>
</g>
</g>
<!-- Node4 -->
<g id="Node000004" class="node">
<title>Node4</title>
<g id="a_Node000004"><a xlink:href="GuiEngine_8hpp.xhtml" target="_top" xlink:title=" ">
<polygon fill="white" stroke="#666666" points="129,-222.5 0,-222.5 0,-181.5 129,-181.5 129,-222.5"/>
<text text-anchor="start" x="8" y="-210.5" font-family="Helvetica,sans-Serif" font-size="10.00">Task&#45;Tracker&#45;Device</text>
<text text-anchor="start" x="8" y="-199.5" font-family="Helvetica,sans-Serif" font-size="10.00">/lib/3rd_party_adapters</text>
<text text-anchor="middle" x="64.5" y="-188.5" font-family="Helvetica,sans-Serif" font-size="10.00">/LVGL/GuiEngine.hpp</text>
</a>
</g>
</g>
<!-- Node3&#45;&gt;Node4 -->
<g id="edge3_Node000003_Node000004" class="edge">
<title>Node3&#45;&gt;Node4</title>
<g id="a_edge3_Node000003_Node000004"><a xlink:title=" ">
<path fill="none" stroke="#63b8ff" d="M245.3,-263.6C212.04,-252.74 172.84,-239.85 137.5,-228 132.29,-226.25 126.88,-224.43 121.46,-222.59"/>
<polygon fill="#63b8ff" stroke="#63b8ff" points="244.38,-266.98 254.97,-266.76 246.55,-260.33 244.38,-266.98"/>
</a>
</g>
</g>
<!-- Node3&#45;&gt;Node7 -->
<g id="edge6_Node000003_Node000007" class="edge">
<title>Node3&#45;&gt;Node7</title>
<g id="a_edge6_Node000003_Node000007"><a xlink:title=" ">
<path fill="none" stroke="#63b8ff" d="M356.24,-256.63C365.78,-247.21 376.04,-237.06 385.05,-228.16"/>
<polygon fill="#63b8ff" stroke="#63b8ff" points="353.78,-254.14 349.13,-263.66 358.7,-259.12 353.78,-254.14"/>
</a>
</g>
</g>
<!-- Node12 -->
<g id="Node000012" class="node">
<title>Node12</title>
<g id="a_Node000012"><a xlink:href="guiEngine__factory__interface_8hpp.xhtml" target="_top" xlink:title="Dependency injection for the guiEngine.">
<polygon fill="white" stroke="#666666" points="324,-228 147,-228 147,-176 324,-176 324,-228"/>
<text text-anchor="start" x="155" y="-216" font-family="Helvetica,sans-Serif" font-size="10.00">Task&#45;Tracker&#45;Device</text>
<text text-anchor="start" x="155" y="-205" font-family="Helvetica,sans-Serif" font-size="10.00">/lib/application_business</text>
<text text-anchor="start" x="155" y="-194" font-family="Helvetica,sans-Serif" font-size="10.00">_rules/user_interaction</text>
<text text-anchor="middle" x="235.5" y="-183" font-family="Helvetica,sans-Serif" font-size="10.00">/guiEngine_factory_interface.hpp</text>
</a>
</g>
</g>
<!-- Node3&#45;&gt;Node12 -->
<g id="edge12_Node000003_Node000012" class="edge">
<title>Node3&#45;&gt;Node12</title>
<g id="a_edge12_Node000003_Node000012"><a xlink:title=" ">
<path fill="none" stroke="#63b8ff" d="M290.38,-256.63C280.74,-247.21 270.36,-237.06 261.24,-228.16"/>
<polygon fill="#63b8ff" stroke="#63b8ff" points="287.97,-259.18 297.57,-263.66 292.87,-254.17 287.97,-259.18"/>
</a>
</g>
</g>
<!-- Node5 -->
<g id="Node000005" class="node">
<title>Node5</title>
<g id="a_Node000005"><a xlink:href="GuiEngine_8cpp.xhtml" target="_top" xlink:title="Connects LVGL callbacks to display driver and input device.">
<polygon fill="white" stroke="#666666" points="129,-134.5 0,-134.5 0,-93.5 129,-93.5 129,-134.5"/>
<text text-anchor="start" x="8" y="-122.5" font-family="Helvetica,sans-Serif" font-size="10.00">Task&#45;Tracker&#45;Device</text>
<text text-anchor="start" x="8" y="-111.5" font-family="Helvetica,sans-Serif" font-size="10.00">/lib/3rd_party_adapters</text>
<text text-anchor="middle" x="64.5" y="-100.5" font-family="Helvetica,sans-Serif" font-size="10.00">/LVGL/GuiEngine.cpp</text>
</a>
</g>
</g>
<!-- Node4&#45;&gt;Node5 -->
<g id="edge4_Node000004_Node000005" class="edge">
<title>Node4&#45;&gt;Node5</title>
<g id="a_edge4_Node000004_Node000005"><a xlink:title=" ">
<path fill="none" stroke="#63b8ff" d="M64.5,-171.36C64.5,-159.26 64.5,-145.58 64.5,-134.74"/>
<polygon fill="#63b8ff" stroke="#63b8ff" points="61,-171.49 64.5,-181.49 68,-171.49 61,-171.49"/>
</a>
</g>
</g>
<!-- Node6 -->
<g id="Node000006" class="node">
<title>Node6</title>
<g id="a_Node000006"><a xlink:href="guiEngine__factory__interface_8cpp.xhtml" target="_top" xlink:title=" ">
<polygon fill="white" stroke="#666666" points="292.5,-140 158.5,-140 158.5,-88 292.5,-88 292.5,-140"/>
<text text-anchor="start" x="166.5" y="-128" font-family="Helvetica,sans-Serif" font-size="10.00">Task&#45;Tracker&#45;Device</text>
<text text-anchor="start" x="166.5" y="-117" font-family="Helvetica,sans-Serif" font-size="10.00">/lib/3rd_party_adapters</text>
<text text-anchor="start" x="166.5" y="-106" font-family="Helvetica,sans-Serif" font-size="10.00">/LVGL/guiEngine_factory</text>
<text text-anchor="middle" x="225.5" y="-95" font-family="Helvetica,sans-Serif" font-size="10.00">_interface.cpp</text>
</a>
</g>
</g>
<!-- Node4&#45;&gt;Node6 -->
<g id="edge5_Node000004_Node000006" class="edge">
<title>Node4&#45;&gt;Node6</title>
<g id="a_edge5_Node000004_Node000006"><a xlink:title=" ">
<path fill="none" stroke="#63b8ff" d="M109.92,-176.74C131.31,-165.31 156.81,-151.69 178.4,-140.16"/>
<polygon fill="#63b8ff" stroke="#63b8ff" points="108.2,-173.69 101.03,-181.49 111.5,-179.86 108.2,-173.69"/>
</a>
</g>
</g>
<!-- Node8 -->
<g id="Node000008" class="node">
<title>Node8</title>
<g id="a_Node000008"><a xlink:href="Menu_8cpp.xhtml" target="_top" xlink:title=" ">
<polygon fill="white" stroke="#666666" points="576,-140 439,-140 439,-88 576,-88 576,-140"/>
<text text-anchor="start" x="447" y="-128" font-family="Helvetica,sans-Serif" font-size="10.00">Task&#45;Tracker&#45;Device</text>
<text text-anchor="start" x="447" y="-117" font-family="Helvetica,sans-Serif" font-size="10.00">/lib/application_business</text>
<text text-anchor="start" x="447" y="-106" font-family="Helvetica,sans-Serif" font-size="10.00">_rules/user_interaction</text>
<text text-anchor="middle" x="507.5" y="-95" font-family="Helvetica,sans-Serif" font-size="10.00">/Menu.cpp</text>
</a>
</g>
</g>
<!-- Node7&#45;&gt;Node8 -->
<g id="edge7_Node000007_Node000008" class="edge">
<title>Node7&#45;&gt;Node8</title>
<g id="a_edge7_Node000007_Node000008"><a xlink:title=" ">
<path fill="none" stroke="#63b8ff" d="M446.44,-169.13C457.18,-159.62 468.79,-149.32 478.98,-140.29"/>
<polygon fill="#63b8ff" stroke="#63b8ff" points="443.98,-166.64 438.82,-175.89 448.62,-171.88 443.98,-166.64"/>
</a>
</g>
</g>
<!-- Node9 -->
<g id="Node000009" class="node">
<title>Node9</title>
<g id="a_Node000009"><a xlink:href="Presenter_8hpp.xhtml" target="_top" xlink:title=" ">
<polygon fill="white" stroke="#666666" points="845,-140 708,-140 708,-88 845,-88 845,-140"/>
<text text-anchor="start" x="716" y="-128" font-family="Helvetica,sans-Serif" font-size="10.00">Task&#45;Tracker&#45;Device</text>
<text text-anchor="start" x="716" y="-117" font-family="Helvetica,sans-Serif" font-size="10.00">/lib/application_business</text>
<text text-anchor="start" x="716" y="-106" font-family="Helvetica,sans-Serif" font-size="10.00">_rules/user_interaction</text>
<text text-anchor="middle" x="776.5" y="-95" font-family="Helvetica,sans-Serif" font-size="10.00">/Presenter.hpp</text>
</a>
</g>
</g>
<!-- Node7&#45;&gt;Node9 -->
<g id="edge8_Node000007_Node000009" class="edge">
<title>Node7&#45;&gt;Node9</title>
<g id="a_edge8_Node000007_Node000009"><a xlink:title=" ">
<path fill="none" stroke="#63b8ff" d="M489.09,-175.95C569.56,-154.9 651.6,-138.22 707.96,-127.49"/>
<polygon fill="#63b8ff" stroke="#63b8ff" points="488.07,-172.6 479.29,-178.53 489.85,-179.37 488.07,-172.6"/>
</a>
</g>
</g>
<!-- Node11 -->
<g id="Node000011" class="node">
<title>Node11</title>
<g id="a_Node000011"><a xlink:href="main_8cpp.xhtml" target="_top" xlink:title=" ">
<polygon fill="white" stroke="#666666" points="833,-41 720,-41 720,-11 833,-11 833,-41"/>
<text text-anchor="start" x="728" y="-29" font-family="Helvetica,sans-Serif" font-size="10.00">Task&#45;Tracker&#45;Device</text>
<text text-anchor="middle" x="776.5" y="-18" font-family="Helvetica,sans-Serif" font-size="10.00">/src/main.cpp</text>
</a>
</g>
</g>
<!-- Node7&#45;&gt;Node11 -->
<g id="edge11_Node000007_Node000011" class="edge">
<title>Node7&#45;&gt;Node11</title>
<g id="a_edge11_Node000007_Node000011"><a xlink:title=" ">
<path fill="none" stroke="#63b8ff" d="M406.61,-165.53C405.94,-140.51 409.63,-108.01 429.5,-88 469.25,-47.95 631.94,-33.95 719.72,-29.25"/>
<polygon fill="#63b8ff" stroke="#63b8ff" points="403.12,-165.92 407.12,-175.73 410.11,-165.57 403.12,-165.92"/>
</a>
</g>
</g>
<!-- Node10 -->
<g id="Node000010" class="node">
<title>Node10</title>
<g id="a_Node000010"><a xlink:href="Presenter_8cpp.xhtml" target="_top" xlink:title=" ">
<polygon fill="white" stroke="#666666" points="1290,-52 1153,-52 1153,0 1290,0 1290,-52"/>
<text text-anchor="start" x="1161" y="-40" font-family="Helvetica,sans-Serif" font-size="10.00">Task&#45;Tracker&#45;Device</text>
<text text-anchor="start" x="1161" y="-29" font-family="Helvetica,sans-Serif" font-size="10.00">/lib/application_business</text>
<text text-anchor="start" x="1161" y="-18" font-family="Helvetica,sans-Serif" font-size="10.00">_rules/user_interaction</text>
<text text-anchor="middle" x="1221.5" y="-7" font-family="Helvetica,sans-Serif" font-size="10.00">/Presenter.cpp</text>
</a>
</g>
</g>
<!-- Node9&#45;&gt;Node10 -->
<g id="edge9_Node000009_Node000010" class="edge">
<title>Node9&#45;&gt;Node10</title>
<g id="a_edge9_Node000009_Node000010"><a xlink:title=" ">
<path fill="none" stroke="#63b8ff" d="M855.11,-97.81C939.57,-81.49 1072.47,-55.8 1152.87,-40.26"/>
<polygon fill="#63b8ff" stroke="#63b8ff" points="854.21,-94.42 845.06,-99.75 855.54,-101.29 854.21,-94.42"/>
</a>
</g>
</g>
<!-- Node9&#45;&gt;Node11 -->
<g id="edge10_Node000009_Node000011" class="edge">
<title>Node9&#45;&gt;Node11</title>
<g id="a_edge10_Node000009_Node000011"><a xlink:title=" ">
<path fill="none" stroke="#63b8ff" d="M776.5,-77.37C776.5,-64.76 776.5,-51.28 776.5,-41.44"/>
<polygon fill="#63b8ff" stroke="#63b8ff" points="773,-77.66 776.5,-87.66 780,-77.66 773,-77.66"/>
</a>
</g>
</g>
<!-- Node12&#45;&gt;Node6 -->
<g id="edge13_Node000012_Node000006" class="edge">
<title>Node12&#45;&gt;Node6</title>
<g id="a_edge13_Node000012_Node000006"><a xlink:title=" ">
<path fill="none" stroke="#63b8ff" d="M231.38,-165.56C230.39,-157.04 229.35,-148.1 228.43,-140.16"/>
<polygon fill="#63b8ff" stroke="#63b8ff" points="227.92,-166.13 232.55,-175.66 234.88,-165.32 227.92,-166.13"/>
</a>
</g>
</g>
<!-- Node12&#45;&gt;Node11 -->
<g id="edge14_Node000012_Node000011" class="edge">
<title>Node12&#45;&gt;Node11</title>
<g id="a_edge14_Node000012_Node000011"><a xlink:title=" ">
<path fill="none" stroke="#63b8ff" d="M272.33,-169.54C304.91,-143.45 354.87,-107.59 404.5,-88 510.73,-46.07 644.98,-32.96 719.7,-28.86"/>
<polygon fill="#63b8ff" stroke="#63b8ff" points="269.99,-166.92 264.43,-175.94 274.4,-172.36 269.99,-166.92"/>
</a>
</g>
</g>
<!-- Node14&#45;&gt;Node11 -->
<g id="edge19_Node000014_Node000011" class="edge">
<title>Node14&#45;&gt;Node11</title>
<g id="a_edge19_Node000014_Node000011"><a xlink:title=" ">
<path fill="none" stroke="#63b8ff" d="M941.83,-257.83C952.55,-249.67 962.22,-239.77 968.5,-228 979.38,-207.61 978.67,-196.76 968.5,-176 935.37,-108.36 855.1,-62.61 809.53,-41.1"/>
<polygon fill="#63b8ff" stroke="#63b8ff" points="939.6,-255.12 933.45,-263.75 943.64,-260.84 939.6,-255.12"/>
</a>
</g>
</g>
<!-- Node15 -->
<g id="Node000015" class="node">
<title>Node15</title>
<g id="a_Node000015"><a xlink:href="keypad__factory__interface_8cpp.xhtml" target="_top" xlink:title=" ">
<polygon fill="white" stroke="#666666" points="959.5,-228 795.5,-228 795.5,-176 959.5,-176 959.5,-228"/>
<text text-anchor="start" x="803.5" y="-216" font-family="Helvetica,sans-Serif" font-size="10.00">Task&#45;Tracker&#45;Device</text>
<text text-anchor="start" x="803.5" y="-205" font-family="Helvetica,sans-Serif" font-size="10.00">/lib/board_adapters</text>
<text text-anchor="start" x="803.5" y="-194" font-family="Helvetica,sans-Serif" font-size="10.00">/input_device_interface</text>
<text text-anchor="middle" x="877.5" y="-183" font-family="Helvetica,sans-Serif" font-size="10.00">/keypad_factory_interface.cpp</text>
</a>
</g>
</g>
<!-- Node14&#45;&gt;Node15 -->
<g id="edge18_Node000014_Node000015" class="edge">
<title>Node14&#45;&gt;Node15</title>
<g id="a_edge18_Node000014_Node000015"><a xlink:title=" ">
<path fill="none" stroke="#63b8ff" d="M877.5,-253.56C877.5,-245.04 877.5,-236.1 877.5,-228.16"/>
<polygon fill="#63b8ff" stroke="#63b8ff" points="874,-253.66 877.5,-263.66 881,-253.66 874,-253.66"/>
</a>
</g>
</g>
<!-- Node14&#45;&gt;Node16 -->
<g id="edge20_Node000014_Node000016" class="edge">
<title>Node14&#45;&gt;Node16</title>
<g id="a_edge20_Node000014_Node000016"><a xlink:title=" ">
<path fill="none" stroke="#63b8ff" d="M945.71,-259.96C974.67,-247.63 1007.65,-233.59 1033.63,-222.53"/>
<polygon fill="#63b8ff" stroke="#63b8ff" points="944.3,-256.76 936.47,-263.89 947.04,-263.2 944.3,-256.76"/>
</a>
</g>
</g>
<!-- Node17&#45;&gt;Node15 -->
<g id="edge23_Node000017_Node000015" class="edge">
<title>Node17&#45;&gt;Node15</title>
<g id="a_edge23_Node000017_Node000015"><a xlink:title=" ">
<path fill="none" stroke="#63b8ff" d="M769.07,-259.18C788.6,-249.06 810.22,-237.86 828.98,-228.14"/>
<polygon fill="#63b8ff" stroke="#63b8ff" points="767.23,-256.19 759.96,-263.89 770.45,-262.4 767.23,-256.19"/>
</a>
</g>
</g>
<!-- Node18 -->
<g id="Node000018" class="node">
<title>Node18</title>
<g id="a_Node000018"><a xlink:href="Keypad_8cpp.xhtml" target="_top" xlink:title=" ">
<polygon fill="white" stroke="#666666" points="777,-228 646,-228 646,-176 777,-176 777,-228"/>
<text text-anchor="start" x="654" y="-216" font-family="Helvetica,sans-Serif" font-size="10.00">Task&#45;Tracker&#45;Device</text>
<text text-anchor="start" x="654" y="-205" font-family="Helvetica,sans-Serif" font-size="10.00">/lib/board_adapters</text>
<text text-anchor="start" x="654" y="-194" font-family="Helvetica,sans-Serif" font-size="10.00">/input_device_interface</text>
<text text-anchor="middle" x="711.5" y="-183" font-family="Helvetica,sans-Serif" font-size="10.00">/Keypad.cpp</text>
</a>
</g>
</g>
<!-- Node17&#45;&gt;Node18 -->
<g id="edge22_Node000017_Node000018" class="edge">
<title>Node17&#45;&gt;Node18</title>
<g id="a_edge22_Node000017_Node000018"><a xlink:title=" ">
<path fill="none" stroke="#63b8ff" d="M711.5,-253.56C711.5,-245.04 711.5,-236.1 711.5,-228.16"/>
<polygon fill="#63b8ff" stroke="#63b8ff" points="708,-253.66 711.5,-263.66 715,-253.66 708,-253.66"/>
</a>
</g>
</g>
<!-- Node19 -->
<g id="Node000019" class="node">
<title>Node19</title>
<g id="a_Node000019"><a xlink:href="test__keyState_8cpp.xhtml" target="_top" xlink:title=" ">
<polygon fill="white" stroke="#666666" points="627.5,-222.5 497.5,-222.5 497.5,-181.5 627.5,-181.5 627.5,-222.5"/>
<text text-anchor="start" x="505.5" y="-210.5" font-family="Helvetica,sans-Serif" font-size="10.00">Task&#45;Tracker&#45;Device</text>
<text text-anchor="start" x="505.5" y="-199.5" font-family="Helvetica,sans-Serif" font-size="10.00">/test/hmi/test_keyState</text>
<text text-anchor="middle" x="562.5" y="-188.5" font-family="Helvetica,sans-Serif" font-size="10.00">/test_keyState.cpp</text>
</a>
</g>
</g>
<!-- Node17&#45;&gt;Node19 -->
<g id="edge24_Node000017_Node000019" class="edge">
<title>Node17&#45;&gt;Node19</title>
<g id="a_edge24_Node000017_Node000019"><a xlink:title=" ">
<path fill="none" stroke="#63b8ff" d="M659.23,-258.83C638.36,-246.78 614.92,-233.25 596.34,-222.53"/>
<polygon fill="#63b8ff" stroke="#63b8ff" points="657.59,-261.93 668,-263.89 661.09,-255.86 657.59,-261.93"/>
</a>
</g>
</g>
<!-- Node21&#45;&gt;Node11 -->
<g id="edge29_Node000021_Node000011" class="edge">
<title>Node21&#45;&gt;Node11</title>
<g id="a_edge29_Node000021_Node000011"><a xlink:title=" ">
<path fill="none" stroke="#63b8ff" d="M1178.81,-345.03C1187.61,-336.7 1195.57,-326.93 1200.5,-316 1227.53,-256.03 1201.76,-219.59 1152.5,-176 1058.64,-92.94 912.87,-53.27 833.21,-36.86"/>
<polygon fill="#63b8ff" stroke="#63b8ff" points="1176.45,-342.45 1171.28,-351.7 1181.09,-347.7 1176.45,-342.45"/>
</a>
</g>
</g>
<!-- Node21&#45;&gt;Node13 -->
<g id="edge28_Node000021_Node000013" class="edge">
<title>Node21&#45;&gt;Node13</title>
<g id="a_edge28_Node000021_Node000013"><a xlink:title=" ">
<path fill="none" stroke="#63b8ff" d="M1127.79,-341.56C1126.9,-333.04 1125.96,-324.1 1125.13,-316.16"/>
<polygon fill="#63b8ff" stroke="#63b8ff" points="1124.33,-342.08 1128.85,-351.66 1131.29,-341.35 1124.33,-342.08"/>
</a>
</g>
</g>
<!-- Node21&#45;&gt;Node16 -->
<g id="edge30_Node000021_Node000016" class="edge">
<title>Node21&#45;&gt;Node16</title>
<g id="a_edge30_Node000021_Node000016"><a xlink:title=" ">
<path fill="none" stroke="#63b8ff" d="M1071.34,-345.81C1060.93,-337.58 1051.53,-327.66 1045.5,-316 1029.61,-285.24 1049.51,-245.85 1064.88,-222.62"/>
<polygon fill="#63b8ff" stroke="#63b8ff" points="1069.32,-348.68 1079.45,-351.78 1073.47,-343.04 1069.32,-348.68"/>
</a>
</g>
</g>
<!-- Node22&#45;&gt;Node10 -->
<g id="edge32_Node000022_Node000010" class="edge">
<title>Node22&#45;&gt;Node10</title>
<g id="a_edge32_Node000022_Node000010"><a xlink:title=" ">
<path fill="none" stroke="#63b8ff" d="M1364.66,-345.81C1375.07,-337.58 1384.47,-327.66 1390.5,-316 1401.11,-295.47 1397.54,-286.01 1390.5,-264 1362.24,-175.68 1287.66,-92.2 1247.69,-52.01"/>
<polygon fill="#63b8ff" stroke="#63b8ff" points="1362.53,-343.04 1356.55,-351.78 1366.68,-348.68 1362.53,-343.04"/>
</a>
</g>
</g>
<!-- Node22&#45;&gt;Node13 -->
<g id="edge33_Node000022_Node000013" class="edge">
<title>Node22&#45;&gt;Node13</title>
<g id="a_edge33_Node000022_Node000013"><a xlink:title=" ">
<path fill="none" stroke="#63b8ff" d="M1242.26,-347.59C1220.61,-337.36 1196.54,-325.99 1175.7,-316.14"/>
<polygon fill="#63b8ff" stroke="#63b8ff" points="1240.83,-350.79 1251.37,-351.89 1243.82,-344.46 1240.83,-350.79"/>
</a>
</g>
</g>
<!-- Node23 -->
<g id="Node000023" class="node">
<title>Node23</title>
<g id="a_Node000023"><a xlink:href="board_8cpp.xhtml" target="_top" xlink:title=" ">
<polygon fill="white" stroke="#666666" points="1551,-310.5 1438,-310.5 1438,-269.5 1551,-269.5 1551,-310.5"/>
<text text-anchor="start" x="1446" y="-298.5" font-family="Helvetica,sans-Serif" font-size="10.00">Task&#45;Tracker&#45;Device</text>
<text text-anchor="start" x="1446" y="-287.5" font-family="Helvetica,sans-Serif" font-size="10.00">/lib/board_adapters</text>
<text text-anchor="middle" x="1494.5" y="-276.5" font-family="Helvetica,sans-Serif" font-size="10.00">/board.cpp</text>
</a>
</g>
</g>
<!-- Node22&#45;&gt;Node23 -->
<g id="edge34_Node000022_Node000023" class="edge">
<title>Node22&#45;&gt;Node23</title>
<g id="a_edge34_Node000022_Node000023"><a xlink:title=" ">
<path fill="none" stroke="#63b8ff" d="M1369.37,-347.64C1396.43,-335.39 1427.13,-321.49 1451.35,-310.53"/>
<polygon fill="#63b8ff" stroke="#63b8ff" points="1367.63,-344.58 1359.97,-351.89 1370.52,-350.96 1367.63,-344.58"/>
</a>
</g>
</g>
<!-- Node24 -->
<g id="Node000024" class="node">
<title>Node24</title>
<g id="a_Node000024"><a xlink:href="sound__output_8cpp.xhtml" target="_top" xlink:title=" ">
<polygon fill="white" stroke="#666666" points="1381.5,-316 1247.5,-316 1247.5,-264 1381.5,-264 1381.5,-316"/>
<text text-anchor="start" x="1255.5" y="-304" font-family="Helvetica,sans-Serif" font-size="10.00">Task&#45;Tracker&#45;Device</text>
<text text-anchor="start" x="1255.5" y="-293" font-family="Helvetica,sans-Serif" font-size="10.00">/lib/board_adapters</text>
<text text-anchor="start" x="1255.5" y="-282" font-family="Helvetica,sans-Serif" font-size="10.00">/sound_output_interface</text>
<text text-anchor="middle" x="1314.5" y="-271" font-family="Helvetica,sans-Serif" font-size="10.00">/sound_output.cpp</text>
</a>
</g>
</g>
<!-- Node22&#45;&gt;Node24 -->
<g id="edge35_Node000022_Node000024" class="edge">
<title>Node22&#45;&gt;Node24</title>
<g id="a_edge35_Node000022_Node000024"><a xlink:title=" ">
<path fill="none" stroke="#63b8ff" d="M1308.62,-341.56C1309.61,-333.04 1310.65,-324.1 1311.57,-316.16"/>
<polygon fill="#63b8ff" stroke="#63b8ff" points="1305.12,-341.32 1307.45,-351.66 1312.08,-342.13 1305.12,-341.32"/>
</a>
</g>
</g>
</g>
</svg>
