<?xml version="1.0" encoding="UTF-8" standalone="no"?>
<!DOCTYPE svg PUBLIC "-//W3C//DTD SVG 1.1//EN"
 "http://www.w3.org/Graphics/SVG/1.1/DTD/svg11.dtd">
<!-- Generated by graphviz version 2.43.0 (0)
 -->
<!-- Title: Task&#45;Tracker&#45;Device/src/main.cpp Pages: 1 -->
<svg width="1240pt" height="412pt"
 viewBox="0.00 0.00 1240.00 412.00" xmlns="http://www.w3.org/2000/svg" xmlns:xlink="http://www.w3.org/1999/xlink">
<g id="graph0" class="graph" transform="scale(1 1) rotate(0) translate(4 408)">
<title>Task&#45;Tracker&#45;Device/src/main.cpp</title>
<!-- Node1 -->
<g id="Node000001" class="node">
<title>Node1</title>
<g id="a_Node000001"><a xlink:title=" ">
<polygon fill="#999999" stroke="#666666" points="599.5,-404 486.5,-404 486.5,-374 599.5,-374 599.5,-404"/>
<text text-anchor="start" x="494.5" y="-392" font-family="Helvetica,sans-Serif" font-size="10.00">Task&#45;Tracker&#45;Device</text>
<text text-anchor="middle" x="543" y="-381" font-family="Helvetica,sans-Serif" font-size="10.00">/src/main.cpp</text>
</a>
</g>
</g>
<!-- Node2 -->
<g id="Node000002" class="node">
<title>Node2</title>
<g id="a_Node000002"><a xlink:title=" ">
<polygon fill="#e0e0e0" stroke="#999999" points="156,-266.5 106,-266.5 106,-247.5 156,-247.5 156,-266.5"/>
<text text-anchor="middle" x="131" y="-254.5" font-family="Helvetica,sans-Serif" font-size="10.00">chrono</text>
</a>
</g>
</g>
<!-- Node1&#45;&gt;Node2 -->
<g id="edge1_Node000001_Node000002" class="edge">
<title>Node1&#45;&gt;Node2</title>
<g id="a_edge1_Node000001_Node000002"><a xlink:title=" ">
<path fill="none" stroke="#63b8ff" d="M486.46,-388.37C390.03,-387.79 199.47,-381.06 151,-338 133.8,-322.72 130.32,-295.11 130.1,-276.67"/>
<polygon fill="#63b8ff" stroke="#63b8ff" points="133.6,-276.62 130.3,-266.56 126.6,-276.49 133.6,-276.62"/>
</a>
</g>
</g>
<!-- Node3 -->
<g id="Node000003" class="node">
<title>Node3</title>
<g id="a_Node000003"><a xlink:href="Protocol_8hpp.xhtml" target="_top" xlink:title=" ">
<polygon fill="white" stroke="#666666" points="1166,-332.5 1010,-332.5 1010,-313.5 1166,-313.5 1166,-332.5"/>
<text text-anchor="middle" x="1088" y="-320.5" font-family="Helvetica,sans-Serif" font-size="10.00">serial_interface/Protocol.hpp</text>
</a>
</g>
</g>
<!-- Node1&#45;&gt;Node3 -->
<g id="edge2_Node000001_Node000003" class="edge">
<title>Node1&#45;&gt;Node3</title>
<g id="a_edge2_Node000001_Node000003"><a xlink:title=" ">
<path fill="none" stroke="#63b8ff" d="M599.52,-382.76C686.11,-374.53 856.73,-357.47 1001,-338 1009.7,-336.83 1018.88,-335.47 1027.87,-334.08"/>
<polygon fill="#63b8ff" stroke="#63b8ff" points="1028.58,-337.52 1037.92,-332.51 1027.5,-330.6 1028.58,-337.52"/>
</a>
</g>
</g>
<!-- Node4 -->
<g id="Node000004" class="node">
<title>Node4</title>
<g id="a_Node000004"><a xlink:href="serial__port_8hpp.xhtml" target="_top" xlink:title=" ">
<polygon fill="white" stroke="#666666" points="156,-140 34,-140 34,-110 156,-110 156,-140"/>
<text text-anchor="start" x="42" y="-128" font-family="Helvetica,sans-Serif" font-size="10.00">serial_interface/serial</text>
<text text-anchor="middle" x="95" y="-117" font-family="Helvetica,sans-Serif" font-size="10.00">_port.hpp</text>
</a>
</g>
</g>
<!-- Node1&#45;&gt;Node4 -->
<g id="edge3_Node000001_Node000004" class="edge">
<title>Node1&#45;&gt;Node4</title>
<g id="a_edge3_Node000001_Node000004"><a xlink:title=" ">
<path fill="none" stroke="#63b8ff" d="M486.17,-387.54C386.92,-385.7 187.19,-377.1 131,-338 71.57,-296.64 81.53,-196.27 89.84,-150.04"/>
<polygon fill="#63b8ff" stroke="#63b8ff" points="93.32,-150.5 91.78,-140.02 86.45,-149.18 93.32,-150.5"/>
</a>
</g>
</g>
<!-- Node10 -->
<g id="Node000010" class="node">
<title>Node10</title>
<g id="a_Node000010"><a xlink:href="Task_8hpp.xhtml" target="_top" xlink:title=" ">
<polygon fill="white" stroke="#666666" points="249.5,-332.5 160.5,-332.5 160.5,-313.5 249.5,-313.5 249.5,-332.5"/>
<text text-anchor="middle" x="205" y="-320.5" font-family="Helvetica,sans-Serif" font-size="10.00">tasks/Task.hpp</text>
</a>
</g>
</g>
<!-- Node1&#45;&gt;Node10 -->
<g id="edge9_Node000001_Node000010" class="edge">
<title>Node1&#45;&gt;Node10</title>
<g id="a_edge9_Node000001_Node000010"><a xlink:title=" ">
<path fill="none" stroke="#63b8ff" d="M486.45,-378.81C429.96,-369.42 340.72,-353.96 264,-338 259.29,-337.02 254.38,-335.94 249.49,-334.84"/>
<polygon fill="#63b8ff" stroke="#63b8ff" points="250.09,-331.38 239.56,-332.54 248.51,-338.2 250.09,-331.38"/>
</a>
</g>
</g>
<!-- Node12 -->
<g id="Node000012" class="node">
<title>Node12</title>
<g id="a_Node000012"><a xlink:title=" ">
<polygon fill="#e0e0e0" stroke="#999999" points="1232,-332.5 1184,-332.5 1184,-313.5 1232,-313.5 1232,-332.5"/>
<text text-anchor="middle" x="1208" y="-320.5" font-family="Helvetica,sans-Serif" font-size="10.00">thread</text>
</a>
</g>
</g>
<!-- Node1&#45;&gt;Node12 -->
<g id="edge13_Node000001_Node000012" class="edge">
<title>Node1&#45;&gt;Node12</title>
<g id="a_edge13_Node000001_Node000012"><a xlink:title=" ">
<path fill="none" stroke="#63b8ff" d="M599.59,-385.85C733.49,-380.4 1066.62,-364.53 1175,-338 1176.95,-337.52 1178.93,-336.94 1180.91,-336.3"/>
<polygon fill="#63b8ff" stroke="#63b8ff" points="1182.44,-339.46 1190.55,-332.64 1179.96,-332.91 1182.44,-339.46"/>
</a>
</g>
</g>
<!-- Node13 -->
<g id="Node000013" class="node">
<title>Node13</title>
<g id="a_Node000013"><a xlink:href="Menu_8hpp.xhtml" target="_top" xlink:title=" ">
<polygon fill="white" stroke="#666666" points="452,-266.5 306,-266.5 306,-247.5 452,-247.5 452,-266.5"/>
<text text-anchor="middle" x="379" y="-254.5" font-family="Helvetica,sans-Serif" font-size="10.00">user_interaction/Menu.hpp</text>
</a>
</g>
</g>
<!-- Node1&#45;&gt;Node13 -->
<g id="edge14_Node000001_Node000013" class="edge">
<title>Node1&#45;&gt;Node13</title>
<g id="a_edge14_Node000001_Node000013"><a xlink:title=" ">
<path fill="none" stroke="#63b8ff" d="M525.14,-373.84C494.02,-349.18 430.16,-298.56 398.16,-273.19"/>
<polygon fill="#63b8ff" stroke="#63b8ff" points="400.05,-270.22 390.04,-266.75 395.7,-275.7 400.05,-270.22"/>
</a>
</g>
</g>
<!-- Node20 -->
<g id="Node000020" class="node">
<title>Node20</title>
<g id="a_Node000020"><a xlink:href="Presenter_8hpp.xhtml" target="_top" xlink:title=" ">
<polygon fill="white" stroke="#666666" points="797.5,-332.5 632.5,-332.5 632.5,-313.5 797.5,-313.5 797.5,-332.5"/>
<text text-anchor="middle" x="715" y="-320.5" font-family="Helvetica,sans-Serif" font-size="10.00">user_interaction/Presenter.hpp</text>
</a>
</g>
</g>
<!-- Node1&#45;&gt;Node20 -->
<g id="edge25_Node000001_Node000020" class="edge">
<title>Node1&#45;&gt;Node20</title>
<g id="a_edge25_Node000001_Node000020"><a xlink:title=" ">
<path fill="none" stroke="#63b8ff" d="M580.75,-373.95C611.18,-362.63 653.52,-346.88 682.47,-336.1"/>
<polygon fill="#63b8ff" stroke="#63b8ff" points="683.96,-339.28 692.11,-332.52 681.52,-332.72 683.96,-339.28"/>
</a>
</g>
</g>
<!-- Node24 -->
<g id="Node000024" class="node">
<title>Node24</title>
<g id="a_Node000024"><a xlink:href="ProcessHmiInputs_8hpp.xhtml" target="_top" xlink:title=" ">
<polygon fill="white" stroke="#666666" points="658,-206 522,-206 522,-176 658,-176 658,-206"/>
<text text-anchor="start" x="530" y="-194" font-family="Helvetica,sans-Serif" font-size="10.00">user_interaction/Process</text>
<text text-anchor="middle" x="590" y="-183" font-family="Helvetica,sans-Serif" font-size="10.00">HmiInputs.hpp</text>
</a>
</g>
</g>
<!-- Node1&#45;&gt;Node24 -->
<g id="edge31_Node000001_Node000024" class="edge">
<title>Node1&#45;&gt;Node24</title>
<g id="a_edge31_Node000001_Node000024"><a xlink:title=" ">
<path fill="none" stroke="#63b8ff" d="M557.5,-373.91C577.26,-353.58 611.71,-313.84 625,-272 629.04,-259.29 629.01,-254.72 625,-242 621.83,-231.95 615.84,-222.16 609.7,-213.95"/>
<polygon fill="#63b8ff" stroke="#63b8ff" points="612.34,-211.64 603.36,-206.02 606.87,-216.01 612.34,-211.64"/>
</a>
</g>
</g>
<!-- Node25 -->
<g id="Node000025" class="node">
<title>Node25</title>
<g id="a_Node000025"><a xlink:href="guiEngine__factory__interface_8hpp.xhtml" target="_top" xlink:title="Dependency injection for the guiEngine.">
<polygon fill="white" stroke="#666666" points="616,-272 470,-272 470,-242 616,-242 616,-272"/>
<text text-anchor="start" x="478" y="-260" font-family="Helvetica,sans-Serif" font-size="10.00">user_interaction/guiEngine</text>
<text text-anchor="middle" x="543" y="-249" font-family="Helvetica,sans-Serif" font-size="10.00">_factory_interface.hpp</text>
</a>
</g>
</g>
<!-- Node1&#45;&gt;Node25 -->
<g id="edge33_Node000001_Node000025" class="edge">
<title>Node1&#45;&gt;Node25</title>
<g id="a_edge33_Node000001_Node000025"><a xlink:title=" ">
<path fill="none" stroke="#63b8ff" d="M543,-373.84C543,-351.86 543,-309.27 543,-282.3"/>
<polygon fill="#63b8ff" stroke="#63b8ff" points="546.5,-282.14 543,-272.14 539.5,-282.14 546.5,-282.14"/>
</a>
</g>
</g>
<!-- Node26 -->
<g id="Node000026" class="node">
<title>Node26</title>
<g id="a_Node000026"><a xlink:href="keypad__factory__interface_8hpp.xhtml" target="_top" xlink:title="Dependency injection for the keypad.">
<polygon fill="white" stroke="#666666" points="346,-206 212,-206 212,-176 346,-176 346,-206"/>
<text text-anchor="start" x="220" y="-194" font-family="Helvetica,sans-Serif" font-size="10.00">user_interaction/keypad</text>
<text text-anchor="middle" x="279" y="-183" font-family="Helvetica,sans-Serif" font-size="10.00">_factory_interface.hpp</text>
</a>
</g>
</g>
<!-- Node1&#45;&gt;Node26 -->
<g id="edge35_Node000001_Node000026" class="edge">
<title>Node1&#45;&gt;Node26</title>
<g id="a_edge35_Node000001_Node000026"><a xlink:title=" ">
<path fill="none" stroke="#63b8ff" d="M486.42,-376.51C429.85,-362 344.62,-331.41 297,-272 284.44,-256.33 280.25,-233.63 279.03,-216.41"/>
<polygon fill="#63b8ff" stroke="#63b8ff" points="282.51,-215.86 278.6,-206.02 275.52,-216.15 282.51,-215.86"/>
</a>
</g>
</g>
<!-- Node27 -->
<g id="Node000027" class="node">
<title>Node27</title>
<g id="a_Node000027"><a xlink:href="statusindicators__factory__interface_8hpp.xhtml" target="_top" xlink:title="Dependency injection for the keypad.">
<polygon fill="white" stroke="#666666" points="992,-338 816,-338 816,-308 992,-308 992,-338"/>
<text text-anchor="start" x="824" y="-326" font-family="Helvetica,sans-Serif" font-size="10.00">user_interaction/statusindicators</text>
<text text-anchor="middle" x="904" y="-315" font-family="Helvetica,sans-Serif" font-size="10.00">_factory_interface.hpp</text>
</a>
</g>
</g>
<!-- Node1&#45;&gt;Node27 -->
<g id="edge37_Node000001_Node000027" class="edge">
<title>Node1&#45;&gt;Node27</title>
<g id="a_edge37_Node000001_Node000027"><a xlink:title=" ">
<path fill="none" stroke="#63b8ff" d="M599.8,-377.93C657.41,-367.72 747.4,-351.76 814.58,-339.85"/>
<polygon fill="#63b8ff" stroke="#63b8ff" points="815.5,-343.24 824.73,-338.05 814.28,-336.35 815.5,-343.24"/>
</a>
</g>
</g>
<!-- Node5 -->
<g id="Node000005" class="node">
<title>Node5</title>
<g id="a_Node000005"><a xlink:title=" ">
<polygon fill="#e0e0e0" stroke="#999999" points="116,-74 74,-74 74,-55 116,-55 116,-74"/>
<text text-anchor="middle" x="95" y="-62" font-family="Helvetica,sans-Serif" font-size="10.00">array</text>
</a>
</g>
</g>
<!-- Node4&#45;&gt;Node5 -->
<g id="edge4_Node000004_Node000005" class="edge">
<title>Node4&#45;&gt;Node5</title>
<g id="a_edge4_Node000004_Node000005"><a xlink:title=" ">
<path fill="none" stroke="#63b8ff" d="M95,-109.84C95,-102.21 95,-92.7 95,-84.45"/>
<polygon fill="#63b8ff" stroke="#63b8ff" points="98.5,-84.27 95,-74.27 91.5,-84.27 98.5,-84.27"/>
</a>
</g>
</g>
<!-- Node6 -->
<g id="Node000006" class="node">
<title>Node6</title>
<g id="a_Node000006"><a xlink:title=" ">
<polygon fill="#e0e0e0" stroke="#999999" points="237.5,-74 172.5,-74 172.5,-55 237.5,-55 237.5,-74"/>
<text text-anchor="middle" x="205" y="-62" font-family="Helvetica,sans-Serif" font-size="10.00">functional</text>
</a>
</g>
</g>
<!-- Node4&#45;&gt;Node6 -->
<g id="edge5_Node000004_Node000006" class="edge">
<title>Node4&#45;&gt;Node6</title>
<g id="a_edge5_Node000004_Node000006"><a xlink:title=" ">
<path fill="none" stroke="#63b8ff" d="M121.35,-109.99C139.05,-100.58 162.23,-88.24 179.71,-78.95"/>
<polygon fill="#63b8ff" stroke="#63b8ff" points="181.57,-81.92 188.76,-74.14 178.28,-75.74 181.57,-81.92"/>
</a>
</g>
</g>
<!-- Node7 -->
<g id="Node000007" class="node">
<title>Node7</title>
<g id="a_Node000007"><a xlink:title=" ">
<polygon fill="#e0e0e0" stroke="#999999" points="56,-74 0,-74 0,-55 56,-55 56,-74"/>
<text text-anchor="middle" x="28" y="-62" font-family="Helvetica,sans-Serif" font-size="10.00">optional</text>
</a>
</g>
</g>
<!-- Node4&#45;&gt;Node7 -->
<g id="edge6_Node000004_Node000007" class="edge">
<title>Node4&#45;&gt;Node7</title>
<g id="a_edge6_Node000004_Node000007"><a xlink:title=" ">
<path fill="none" stroke="#63b8ff" d="M78.78,-109.84C68.76,-101.09 55.89,-89.85 45.62,-80.88"/>
<polygon fill="#63b8ff" stroke="#63b8ff" points="47.87,-78.21 38.04,-74.27 43.27,-83.48 47.87,-78.21"/>
</a>
</g>
</g>
<!-- Node8 -->
<g id="Node000008" class="node">
<title>Node8</title>
<g id="a_Node000008"><a xlink:title=" ">
<polygon fill="#e0e0e0" stroke="#999999" points="336.5,-19 279.5,-19 279.5,0 336.5,0 336.5,-19"/>
<text text-anchor="middle" x="308" y="-7" font-family="Helvetica,sans-Serif" font-size="10.00">ostream</text>
</a>
</g>
</g>
<!-- Node4&#45;&gt;Node8 -->
<g id="edge7_Node000004_Node000008" class="edge">
<title>Node4&#45;&gt;Node8</title>
<g id="a_edge7_Node000004_Node000008"><a xlink:title=" ">
<path fill="none" stroke="#63b8ff" d="M105.45,-109.78C117.62,-94.19 139.13,-69.48 163,-55 196.07,-34.94 238.93,-23.25 269.46,-16.93"/>
<polygon fill="#63b8ff" stroke="#63b8ff" points="270.17,-20.35 279.31,-14.99 268.82,-13.49 270.17,-20.35"/>
</a>
</g>
</g>
<!-- Node9 -->
<g id="Node000009" class="node">
<title>Node9</title>
<g id="a_Node000009"><a xlink:title=" ">
<polygon fill="#e0e0e0" stroke="#999999" points="300,-74 256,-74 256,-55 300,-55 300,-74"/>
<text text-anchor="middle" x="278" y="-62" font-family="Helvetica,sans-Serif" font-size="10.00">string</text>
</a>
</g>
</g>
<!-- Node4&#45;&gt;Node9 -->
<g id="edge8_Node000004_Node000009" class="edge">
<title>Node4&#45;&gt;Node9</title>
<g id="a_edge8_Node000004_Node000009"><a xlink:title=" ">
<path fill="none" stroke="#63b8ff" d="M138.83,-109.99C171.75,-99.47 216.08,-85.29 245.79,-75.8"/>
<polygon fill="#63b8ff" stroke="#63b8ff" points="247.18,-79.03 255.64,-72.65 245.05,-72.36 247.18,-79.03"/>
</a>
</g>
</g>
<!-- Node10&#45;&gt;Node2 -->
<g id="edge10_Node000010_Node000002" class="edge">
<title>Node10&#45;&gt;Node2</title>
<g id="a_edge10_Node000010_Node000002"><a xlink:title=" ">
<path fill="none" stroke="#63b8ff" d="M195.02,-313.37C183.28,-303.21 163.56,-286.16 149.1,-273.65"/>
<polygon fill="#63b8ff" stroke="#63b8ff" points="151.15,-270.8 141.3,-266.91 146.57,-276.09 151.15,-270.8"/>
</a>
</g>
</g>
<!-- Node10&#45;&gt;Node9 -->
<g id="edge12_Node000010_Node000009" class="edge">
<title>Node10&#45;&gt;Node9</title>
<g id="a_edge12_Node000010_Node000009"><a xlink:title=" ">
<path fill="none" stroke="#63b8ff" d="M202.77,-313.4C195.34,-282.75 174.28,-177.02 218,-110 226.3,-97.28 239.57,-86.88 251.52,-79.34"/>
<polygon fill="#63b8ff" stroke="#63b8ff" points="253.47,-82.25 260.3,-74.15 249.91,-76.23 253.47,-82.25"/>
</a>
</g>
</g>
<!-- Node11 -->
<g id="Node000011" class="node">
<title>Node11</title>
<g id="a_Node000011"><a xlink:title=" ">
<polygon fill="#e0e0e0" stroke="#999999" points="250,-266.5 212,-266.5 212,-247.5 250,-247.5 250,-266.5"/>
<text text-anchor="middle" x="231" y="-254.5" font-family="Helvetica,sans-Serif" font-size="10.00">map</text>
</a>
</g>
</g>
<!-- Node10&#45;&gt;Node11 -->
<g id="edge11_Node000010_Node000011" class="edge">
<title>Node10&#45;&gt;Node11</title>
<g id="a_edge11_Node000010_Node000011"><a xlink:title=" ">
<path fill="none" stroke="#63b8ff" d="M208.51,-313.37C212.32,-303.97 218.54,-288.67 223.47,-276.53"/>
<polygon fill="#63b8ff" stroke="#63b8ff" points="226.86,-277.49 227.38,-266.91 220.38,-274.85 226.86,-277.49"/>
</a>
</g>
</g>
<!-- Node14 -->
<g id="Node000014" class="node">
<title>Node14</title>
<g id="a_Node000014"><a xlink:href="IGuiEngine_8hpp.xhtml" target="_top" xlink:title=" ">
<polygon fill="white" stroke="#666666" points="492,-200.5 402,-200.5 402,-181.5 492,-181.5 492,-200.5"/>
<text text-anchor="middle" x="447" y="-188.5" font-family="Helvetica,sans-Serif" font-size="10.00">IGuiEngine.hpp</text>
</a>
</g>
</g>
<!-- Node13&#45;&gt;Node14 -->
<g id="edge15_Node000013_Node000014" class="edge">
<title>Node13&#45;&gt;Node14</title>
<g id="a_edge15_Node000013_Node000014"><a xlink:title=" ">
<path fill="none" stroke="#63b8ff" d="M388.17,-247.37C398.86,-237.31 416.74,-220.48 429.99,-208.01"/>
<polygon fill="#63b8ff" stroke="#63b8ff" points="432.65,-210.31 437.54,-200.91 427.86,-205.21 432.65,-210.31"/>
</a>
</g>
</g>
<!-- Node18 -->
<g id="Node000018" class="node">
<title>Node18</title>
<g id="a_Node000018"><a xlink:href="IKeypad_8hpp.xhtml" target="_top" xlink:title=" ">
<polygon fill="white" stroke="#666666" points="385,-134.5 227,-134.5 227,-115.5 385,-115.5 385,-134.5"/>
<text text-anchor="middle" x="306" y="-122.5" font-family="Helvetica,sans-Serif" font-size="10.00">user_interaction/IKeypad.hpp</text>
</a>
</g>
</g>
<!-- Node13&#45;&gt;Node18 -->
<g id="edge24_Node000013_Node000018" class="edge">
<title>Node13&#45;&gt;Node18</title>
<g id="a_edge24_Node000013_Node000018"><a xlink:title=" ">
<path fill="none" stroke="#63b8ff" d="M377.75,-247.03C375.31,-231.62 368.86,-199.47 355,-176 347.2,-162.79 335.17,-150.45 324.99,-141.33"/>
<polygon fill="#63b8ff" stroke="#63b8ff" points="327.2,-138.61 317.33,-134.76 322.64,-143.93 327.2,-138.61"/>
</a>
</g>
</g>
<!-- Node15 -->
<g id="Node000015" class="node">
<title>Node15</title>
<g id="a_Node000015"><a xlink:href="MenuItem_8hpp.xhtml" target="_top" xlink:title=" ">
<polygon fill="white" stroke="#666666" points="490.5,-134.5 403.5,-134.5 403.5,-115.5 490.5,-115.5 490.5,-134.5"/>
<text text-anchor="middle" x="447" y="-122.5" font-family="Helvetica,sans-Serif" font-size="10.00">MenuItem.hpp</text>
</a>
</g>
</g>
<!-- Node14&#45;&gt;Node15 -->
<g id="edge16_Node000014_Node000015" class="edge">
<title>Node14&#45;&gt;Node15</title>
<g id="a_edge16_Node000014_Node000015"><a xlink:title=" ">
<path fill="none" stroke="#63b8ff" d="M447,-181.37C447,-172.16 447,-157.29 447,-145.27"/>
<polygon fill="#63b8ff" stroke="#63b8ff" points="450.5,-144.91 447,-134.91 443.5,-144.91 450.5,-144.91"/>
</a>
</g>
</g>
<!-- Node14&#45;&gt;Node18 -->
<g id="edge20_Node000014_Node000018" class="edge">
<title>Node14&#45;&gt;Node18</title>
<g id="a_edge20_Node000014_Node000018"><a xlink:title=" ">
<path fill="none" stroke="#63b8ff" d="M427.98,-181.37C403.91,-170.44 362.23,-151.52 334.39,-138.88"/>
<polygon fill="#63b8ff" stroke="#63b8ff" points="335.72,-135.65 325.16,-134.7 332.82,-142.02 335.72,-135.65"/>
</a>
</g>
</g>
<!-- Node15&#45;&gt;Node9 -->
<g id="edge18_Node000015_Node000009" class="edge">
<title>Node15&#45;&gt;Node9</title>
<g id="a_edge18_Node000015_Node000009"><a xlink:title=" ">
<path fill="none" stroke="#63b8ff" d="M422.43,-115.49C392.64,-105.18 342.39,-87.79 309.71,-76.48"/>
<polygon fill="#63b8ff" stroke="#63b8ff" points="310.77,-73.14 300.18,-73.18 308.48,-79.76 310.77,-73.14"/>
</a>
</g>
</g>
<!-- Node16 -->
<g id="Node000016" class="node">
<title>Node16</title>
<g id="a_Node000016"><a xlink:title=" ">
<polygon fill="#e0e0e0" stroke="#999999" points="420,-74 370,-74 370,-55 420,-55 420,-74"/>
<text text-anchor="middle" x="395" y="-62" font-family="Helvetica,sans-Serif" font-size="10.00">cstdint</text>
</a>
</g>
</g>
<!-- Node15&#45;&gt;Node16 -->
<g id="edge17_Node000015_Node000016" class="edge">
<title>Node15&#45;&gt;Node16</title>
<g id="a_edge17_Node000015_Node000016"><a xlink:title=" ">
<path fill="none" stroke="#63b8ff" d="M439.33,-115.37C431.49,-106.55 419.14,-92.66 409.46,-81.77"/>
<polygon fill="#63b8ff" stroke="#63b8ff" points="411.96,-79.32 402.7,-74.17 406.73,-83.97 411.96,-79.32"/>
</a>
</g>
</g>
<!-- Node17 -->
<g id="Node000017" class="node">
<title>Node17</title>
<g id="a_Node000017"><a xlink:title=" ">
<polygon fill="#e0e0e0" stroke="#999999" points="809.5,-74 762.5,-74 762.5,-55 809.5,-55 809.5,-74"/>
<text text-anchor="middle" x="786" y="-62" font-family="Helvetica,sans-Serif" font-size="10.00">vector</text>
</a>
</g>
</g>
<!-- Node15&#45;&gt;Node17 -->
<g id="edge19_Node000015_Node000017" class="edge">
<title>Node15&#45;&gt;Node17</title>
<g id="a_edge19_Node000015_Node000017"><a xlink:title=" ">
<path fill="none" stroke="#63b8ff" d="M490.62,-116.47C559.09,-104.66 690.32,-82.01 752.17,-71.34"/>
<polygon fill="#63b8ff" stroke="#63b8ff" points="752.92,-74.76 762.18,-69.61 751.73,-67.86 752.92,-74.76"/>
</a>
</g>
</g>
<!-- Node18&#45;&gt;Node6 -->
<g id="edge23_Node000018_Node000006" class="edge">
<title>Node18&#45;&gt;Node6</title>
<g id="a_edge23_Node000018_Node000006"><a xlink:title=" ">
<path fill="none" stroke="#63b8ff" d="M291.1,-115.37C274.69,-105.86 248.07,-90.45 228.77,-79.27"/>
<polygon fill="#63b8ff" stroke="#63b8ff" points="230.37,-76.15 219.96,-74.17 226.86,-82.21 230.37,-76.15"/>
</a>
</g>
</g>
<!-- Node19 -->
<g id="Node000019" class="node">
<title>Node19</title>
<g id="a_Node000019"><a xlink:href="KeyIds_8hpp.xhtml" target="_top" xlink:title=" ">
<polygon fill="white" stroke="#666666" points="508,-74 438,-74 438,-55 508,-55 508,-74"/>
<text text-anchor="middle" x="473" y="-62" font-family="Helvetica,sans-Serif" font-size="10.00">KeyIds.hpp</text>
</a>
</g>
</g>
<!-- Node18&#45;&gt;Node19 -->
<g id="edge21_Node000018_Node000019" class="edge">
<title>Node18&#45;&gt;Node19</title>
<g id="a_edge21_Node000018_Node000019"><a xlink:title=" ">
<path fill="none" stroke="#63b8ff" d="M330.28,-115.49C358.98,-105.44 406.89,-88.66 439.2,-77.34"/>
<polygon fill="#63b8ff" stroke="#63b8ff" points="440.41,-80.63 448.69,-74.02 438.09,-74.02 440.41,-80.63"/>
</a>
</g>
</g>
<!-- Node19&#45;&gt;Node8 -->
<g id="edge22_Node000019_Node000008" class="edge">
<title>Node19&#45;&gt;Node8</title>
<g id="a_edge22_Node000019_Node000008"><a xlink:title=" ">
<path fill="none" stroke="#63b8ff" d="M446.49,-54.98C418.79,-46.09 375.14,-32.07 344.26,-22.15"/>
<polygon fill="#63b8ff" stroke="#63b8ff" points="345.31,-18.81 334.72,-19.08 343.17,-25.47 345.31,-18.81"/>
</a>
</g>
</g>
<!-- Node20&#45;&gt;Node13 -->
<g id="edge29_Node000020_Node000013" class="edge">
<title>Node20&#45;&gt;Node13</title>
<g id="a_edge29_Node000020_Node000013"><a xlink:title=" ">
<path fill="none" stroke="#63b8ff" d="M670.03,-313.44C608.93,-301.8 499.75,-281 433.88,-268.45"/>
<polygon fill="#63b8ff" stroke="#63b8ff" points="434.18,-264.95 423.7,-266.51 432.87,-271.82 434.18,-264.95"/>
</a>
</g>
</g>
<!-- Node20&#45;&gt;Node17 -->
<g id="edge30_Node000020_Node000017" class="edge">
<title>Node20&#45;&gt;Node17</title>
<g id="a_edge30_Node000020_Node000017"><a xlink:title=" ">
<path fill="none" stroke="#63b8ff" d="M728.26,-313.47C740.62,-304.7 758.42,-289.83 767,-272 797.41,-208.79 792.54,-122.17 788.47,-84.4"/>
<polygon fill="#63b8ff" stroke="#63b8ff" points="791.93,-83.84 787.28,-74.33 784.98,-84.67 791.93,-83.84"/>
</a>
</g>
</g>
<!-- Node21 -->
<g id="Node000021" class="node">
<title>Node21</title>
<g id="a_Node000021"><a xlink:href="IPresenter_8hpp.xhtml" target="_top" xlink:title=" ">
<polygon fill="white" stroke="#666666" points="758,-266.5 672,-266.5 672,-247.5 758,-247.5 758,-266.5"/>
<text text-anchor="middle" x="715" y="-254.5" font-family="Helvetica,sans-Serif" font-size="10.00">IPresenter.hpp</text>
</a>
</g>
</g>
<!-- Node20&#45;&gt;Node21 -->
<g id="edge26_Node000020_Node000021" class="edge">
<title>Node20&#45;&gt;Node21</title>
<g id="a_edge26_Node000020_Node000021"><a xlink:title=" ">
<path fill="none" stroke="#63b8ff" d="M715,-313.37C715,-304.16 715,-289.29 715,-277.27"/>
<polygon fill="#63b8ff" stroke="#63b8ff" points="718.5,-276.91 715,-266.91 711.5,-276.91 718.5,-276.91"/>
</a>
</g>
</g>
<!-- Node23 -->
<g id="Node000023" class="node">
<title>Node23</title>
<g id="a_Node000023"><a xlink:href="IStatusIndicator_8hpp.xhtml" target="_top" xlink:title=" ">
<polygon fill="white" stroke="#666666" points="927.5,-266.5 814.5,-266.5 814.5,-247.5 927.5,-247.5 927.5,-266.5"/>
<text text-anchor="middle" x="871" y="-254.5" font-family="Helvetica,sans-Serif" font-size="10.00">IStatusIndicator.hpp</text>
</a>
</g>
</g>
<!-- Node20&#45;&gt;Node23 -->
<g id="edge28_Node000020_Node000023" class="edge">
<title>Node20&#45;&gt;Node23</title>
<g id="a_edge28_Node000020_Node000023"><a xlink:title=" ">
<path fill="none" stroke="#63b8ff" d="M736.04,-313.37C762.98,-302.32 809.86,-283.08 840.66,-270.45"/>
<polygon fill="#63b8ff" stroke="#63b8ff" points="842.12,-273.63 850.05,-266.6 839.47,-267.15 842.12,-273.63"/>
</a>
</g>
</g>
<!-- Node22 -->
<g id="Node000022" class="node">
<title>Node22</title>
<g id="a_Node000022"><a xlink:title=" ">
<polygon fill="#e0e0e0" stroke="#999999" points="741.5,-200.5 688.5,-200.5 688.5,-181.5 741.5,-181.5 741.5,-200.5"/>
<text text-anchor="middle" x="715" y="-188.5" font-family="Helvetica,sans-Serif" font-size="10.00">cstddef</text>
</a>
</g>
</g>
<!-- Node21&#45;&gt;Node22 -->
<g id="edge27_Node000021_Node000022" class="edge">
<title>Node21&#45;&gt;Node22</title>
<g id="a_edge27_Node000021_Node000022"><a xlink:title=" ">
<path fill="none" stroke="#63b8ff" d="M715,-247.37C715,-238.16 715,-223.29 715,-211.27"/>
<polygon fill="#63b8ff" stroke="#63b8ff" points="718.5,-210.91 715,-200.91 711.5,-210.91 718.5,-210.91"/>
</a>
</g>
</g>
<!-- Node24&#45;&gt;Node19 -->
<g id="edge32_Node000024_Node000019" class="edge">
<title>Node24&#45;&gt;Node19</title>
<g id="a_edge32_Node000024_Node000019"><a xlink:title=" ">
<path fill="none" stroke="#63b8ff" d="M576.58,-175.72C554.58,-152.31 510.99,-105.92 488,-81.46"/>
<polygon fill="#63b8ff" stroke="#63b8ff" points="490.45,-78.96 481.05,-74.07 485.35,-83.75 490.45,-78.96"/>
</a>
</g>
</g>
<!-- Node25&#45;&gt;Node14 -->
<g id="edge34_Node000025_Node000014" class="edge">
<title>Node25&#45;&gt;Node14</title>
<g id="a_edge34_Node000025_Node000014"><a xlink:title=" ">
<path fill="none" stroke="#63b8ff" d="M521.69,-241.8C505.9,-231.27 484.46,-216.97 468.6,-206.4"/>
<polygon fill="#63b8ff" stroke="#63b8ff" points="470.25,-203.29 459.99,-200.66 466.37,-209.12 470.25,-203.29"/>
</a>
</g>
</g>
<!-- Node26&#45;&gt;Node18 -->
<g id="edge36_Node000026_Node000018" class="edge">
<title>Node26&#45;&gt;Node18</title>
<g id="a_edge36_Node000026_Node000018"><a xlink:title=" ">
<path fill="none" stroke="#63b8ff" d="M284.99,-175.8C288.91,-166.5 294.07,-154.27 298.3,-144.26"/>
<polygon fill="#63b8ff" stroke="#63b8ff" points="301.61,-145.42 302.27,-134.84 295.16,-142.7 301.61,-145.42"/>
</a>
</g>
</g>
<!-- Node27&#45;&gt;Node17 -->
<g id="edge39_Node000027_Node000017" class="edge">
<title>Node27&#45;&gt;Node17</title>
<g id="a_edge39_Node000027_Node000017"><a xlink:title=" ">
<path fill="none" stroke="#63b8ff" d="M916.61,-307.85C924.14,-298.42 932.99,-285.35 937,-272 940.83,-259.23 941.62,-254.51 937,-242 910.46,-170.16 840.2,-107.78 805.69,-80.35"/>
<polygon fill="#63b8ff" stroke="#63b8ff" points="807.77,-77.54 797.74,-74.15 803.47,-83.06 807.77,-77.54"/>
</a>
</g>
</g>
<!-- Node27&#45;&gt;Node23 -->
<g id="edge38_Node000027_Node000023" class="edge">
<title>Node27&#45;&gt;Node23</title>
<g id="a_edge38_Node000027_Node000023"><a xlink:title=" ">
<path fill="none" stroke="#63b8ff" d="M896.68,-307.8C891.83,-298.41 885.45,-286.02 880.25,-275.95"/>
<polygon fill="#63b8ff" stroke="#63b8ff" points="883.25,-274.13 875.56,-266.84 877.03,-277.34 883.25,-274.13"/>
</a>
</g>
</g>
</g>
</svg>
