<?xml version="1.0" encoding="UTF-8" standalone="no"?>
<!DOCTYPE svg PUBLIC "-//W3C//DTD SVG 1.1//EN"
 "http://www.w3.org/Graphics/SVG/1.1/DTD/svg11.dtd">
<!-- Generated by graphviz version 2.43.0 (0)
 -->
<!-- Title: Task&#45;Tracker&#45;Device/lib/application_business_rules/serial_interface/serial_port.hpp Pages: 1 -->
<svg width="346pt" height="115pt"
 viewBox="0.00 0.00 346.00 115.00" xmlns="http://www.w3.org/2000/svg" xmlns:xlink="http://www.w3.org/1999/xlink">
<g id="graph0" class="graph" transform="scale(1 1) rotate(0) translate(4 111)">
<title>Task&#45;Tracker&#45;Device/lib/application_business_rules/serial_interface/serial_port.hpp</title>
<!-- Node1 -->
<g id="Node000001" class="node">
<title>Node1</title>
<g id="a_Node000001"><a xlink:title=" ">
<polygon fill="#999999" stroke="#666666" points="240.5,-107 103.5,-107 103.5,-55 240.5,-55 240.5,-107"/>
<text text-anchor="start" x="111.5" y="-95" font-family="Helvetica,sans-Serif" font-size="10.00">Task&#45;Tracker&#45;Device</text>
<text text-anchor="start" x="111.5" y="-84" font-family="Helvetica,sans-Serif" font-size="10.00">/lib/application_business</text>
<text text-anchor="start" x="111.5" y="-73" font-family="Helvetica,sans-Serif" font-size="10.00">_rules/serial_interface</text>
<text text-anchor="middle" x="172" y="-62" font-family="Helvetica,sans-Serif" font-size="10.00">/serial_port.hpp</text>
</a>
</g>
</g>
<!-- Node2 -->
<g id="Node000002" class="node">
<title>Node2</title>
<g id="a_Node000002"><a xlink:title=" ">
<polygon fill="#e0e0e0" stroke="#999999" points="42,-19 0,-19 0,0 42,0 42,-19"/>
<text text-anchor="middle" x="21" y="-7" font-family="Helvetica,sans-Serif" font-size="10.00">array</text>
</a>
</g>
</g>
<!-- Node1&#45;&gt;Node2 -->
<g id="edge1_Node000001_Node000002" class="edge">
<title>Node1&#45;&gt;Node2</title>
<g id="a_edge1_Node000001_Node000002"><a xlink:title=" ">
<path fill="none" stroke="#63b8ff" d="M117.49,-54.91C94.22,-44.2 68.06,-32.16 48.85,-23.32"/>
<polygon fill="#63b8ff" stroke="#63b8ff" points="50.31,-20.14 39.76,-19.14 47.38,-26.5 50.31,-20.14"/>
</a>
</g>
</g>
<!-- Node3 -->
<g id="Node000003" class="node">
<title>Node3</title>
<g id="a_Node000003"><a xlink:title=" ">
<polygon fill="#e0e0e0" stroke="#999999" points="125.5,-19 60.5,-19 60.5,0 125.5,0 125.5,-19"/>
<text text-anchor="middle" x="93" y="-7" font-family="Helvetica,sans-Serif" font-size="10.00">functional</text>
</a>
</g>
</g>
<!-- Node1&#45;&gt;Node3 -->
<g id="edge2_Node000001_Node000003" class="edge">
<title>Node1&#45;&gt;Node3</title>
<g id="a_edge2_Node000001_Node000003"><a xlink:title=" ">
<path fill="none" stroke="#63b8ff" d="M143.48,-54.91C132.54,-45.29 120.38,-34.59 110.74,-26.11"/>
<polygon fill="#63b8ff" stroke="#63b8ff" points="112.83,-23.28 103.01,-19.3 108.2,-28.54 112.83,-23.28"/>
</a>
</g>
</g>
<!-- Node4 -->
<g id="Node000004" class="node">
<title>Node4</title>
<g id="a_Node000004"><a xlink:title=" ">
<polygon fill="#e0e0e0" stroke="#999999" points="200,-19 144,-19 144,0 200,0 200,-19"/>
<text text-anchor="middle" x="172" y="-7" font-family="Helvetica,sans-Serif" font-size="10.00">optional</text>
</a>
</g>
</g>
<!-- Node1&#45;&gt;Node4 -->
<g id="edge3_Node000001_Node000004" class="edge">
<title>Node1&#45;&gt;Node4</title>
<g id="a_edge3_Node000001_Node000004"><a xlink:title=" ">
<path fill="none" stroke="#63b8ff" d="M172,-54.91C172,-46.55 172,-37.38 172,-29.55"/>
<polygon fill="#63b8ff" stroke="#63b8ff" points="175.5,-29.3 172,-19.3 168.5,-29.3 175.5,-29.3"/>
</a>
</g>
</g>
<!-- Node5 -->
<g id="Node000005" class="node">
<title>Node5</title>
<g id="a_Node000005"><a xlink:title=" ">
<polygon fill="#e0e0e0" stroke="#999999" points="275.5,-19 218.5,-19 218.5,0 275.5,0 275.5,-19"/>
<text text-anchor="middle" x="247" y="-7" font-family="Helvetica,sans-Serif" font-size="10.00">ostream</text>
</a>
</g>
</g>
<!-- Node1&#45;&gt;Node5 -->
<g id="edge4_Node000001_Node000005" class="edge">
<title>Node1&#45;&gt;Node5</title>
<g id="a_edge4_Node000001_Node000005"><a xlink:title=" ">
<path fill="none" stroke="#63b8ff" d="M199.08,-54.91C209.46,-45.29 221,-34.59 230.16,-26.11"/>
<polygon fill="#63b8ff" stroke="#63b8ff" points="232.55,-28.67 237.5,-19.3 227.79,-23.53 232.55,-28.67"/>
</a>
</g>
</g>
<!-- Node6 -->
<g id="Node000006" class="node">
<title>Node6</title>
<g id="a_Node000006"><a xlink:title=" ">
<polygon fill="#e0e0e0" stroke="#999999" points="338,-19 294,-19 294,0 338,0 338,-19"/>
<text text-anchor="middle" x="316" y="-7" font-family="Helvetica,sans-Serif" font-size="10.00">string</text>
</a>
</g>
</g>
<!-- Node1&#45;&gt;Node6 -->
<g id="edge5_Node000001_Node000006" class="edge">
<title>Node1&#45;&gt;Node6</title>
<g id="a_edge5_Node000001_Node000006"><a xlink:title=" ">
<path fill="none" stroke="#63b8ff" d="M223.99,-54.91C245.98,-44.3 270.67,-32.38 288.94,-23.56"/>
<polygon fill="#63b8ff" stroke="#63b8ff" points="290.62,-26.63 298.11,-19.14 287.58,-20.33 290.62,-26.63"/>
</a>
</g>
</g>
</g>
</svg>
