<?xml version="1.0" encoding="UTF-8" standalone="no"?>
<!DOCTYPE svg PUBLIC "-//W3C//DTD SVG 1.1//EN"
 "http://www.w3.org/Graphics/SVG/1.1/DTD/svg11.dtd">
<!-- Generated by graphviz version 7.0.5 (20221223.1930)
 -->
<!-- Title: lib/3rd_party_adapters/Arduino/serial_port.cpp Pages: 1 -->
<svg width="562pt" height="214pt"
 viewBox="0.00 0.00 562.00 214.00" xmlns="http://www.w3.org/2000/svg" xmlns:xlink="http://www.w3.org/1999/xlink">
<g id="graph0" class="graph" transform="scale(1 1) rotate(0) translate(4 210)">
<title>lib/3rd_party_adapters/Arduino/serial_port.cpp</title>
<!-- Node1 -->
<g id="node1" class="node">
<title>Node1</title>
<g id="a_node1"><a xlink:title=" ">
<polygon fill="#999999" stroke="#666666" points="439.5,-206 320.5,-206 320.5,-176 439.5,-176 439.5,-206"/>
<text text-anchor="start" x="328.5" y="-194" font-family="Helvetica,sans-Serif" font-size="10.00">lib/3rd_party_adapters</text>
<text text-anchor="middle" x="380" y="-183" font-family="Helvetica,sans-Serif" font-size="10.00">/Arduino/serial_port.cpp</text>
</a>
</g>
</g>
<!-- Node2 -->
<g id="node2" class="node">
<title>Node2</title>
<g id="a_node2"><a xlink:href="SerialOutputStreamBuffer_8hpp.xhtml" target="_top" xlink:title=" ">
<polygon fill="white" stroke="#666666" points="333,-140 187,-140 187,-121 333,-121 333,-140"/>
<text text-anchor="middle" x="260" y="-128" font-family="Helvetica,sans-Serif" font-size="10.00">SerialOutputStreamBuffer.hpp</text>
</a>
</g>
</g>
<!-- Node1&#45;&gt;Node2 -->
<g id="edge1" class="edge">
<title>Node1&#45;&gt;Node2</title>
<path fill="none" stroke="#63b8ff" d="M350.34,-175.54C331.42,-166.32 307.05,-154.44 288.39,-145.34"/>
<polygon fill="#63b8ff" stroke="#63b8ff" points="290.03,-142.25 279.51,-141.01 286.96,-148.54 290.03,-142.25"/>
</g>
<!-- Node3 -->
<g id="node3" class="node">
<title>Node3</title>
<g id="a_node3"><a xlink:href="serial__port_8hpp.xhtml" target="_top" xlink:title=" ">
<polygon fill="white" stroke="#666666" points="213.5,-85 104.5,-85 104.5,-55 213.5,-55 213.5,-85"/>
<text text-anchor="start" x="112.5" y="-73" font-family="Helvetica,sans-Serif" font-size="10.00">serial_interface/serial</text>
<text text-anchor="middle" x="159" y="-62" font-family="Helvetica,sans-Serif" font-size="10.00">_port.hpp</text>
</a>
</g>
</g>
<!-- Node1&#45;&gt;Node3 -->
<g id="edge11" class="edge">
<title>Node1&#45;&gt;Node3</title>
<path fill="none" stroke="#63b8ff" d="M320.1,-181.96C268.1,-173.79 198.09,-159.57 178,-140 166.46,-128.76 161.73,-111.2 159.88,-96.61"/>
<polygon fill="#63b8ff" stroke="#63b8ff" points="163.38,-96.43 159.04,-86.76 156.41,-97.02 163.38,-96.43"/>
</g>
<!-- Node10 -->
<g id="node10" class="node">
<title>Node10</title>
<g id="a_node10"><a xlink:title=" ">
<polygon fill="#e0e0e0" stroke="#999999" points="408.5,-140 351.5,-140 351.5,-121 408.5,-121 408.5,-140"/>
<text text-anchor="middle" x="380" y="-128" font-family="Helvetica,sans-Serif" font-size="10.00">Arduino.h</text>
</a>
</g>
</g>
<!-- Node1&#45;&gt;Node10 -->
<g id="edge9" class="edge">
<title>Node1&#45;&gt;Node10</title>
<path fill="none" stroke="#63b8ff" d="M380,-175.54C380,-168.34 380,-159.53 380,-151.68"/>
<polygon fill="#63b8ff" stroke="#63b8ff" points="383.5,-151.69 380,-141.69 376.5,-151.69 383.5,-151.69"/>
</g>
<!-- Node11 -->
<g id="node11" class="node">
<title>Node11</title>
<g id="a_node11"><a xlink:title=" ">
<polygon fill="#e0e0e0" stroke="#999999" points="473.5,-140 426.5,-140 426.5,-121 473.5,-121 473.5,-140"/>
<text text-anchor="middle" x="450" y="-128" font-family="Helvetica,sans-Serif" font-size="10.00">iterator</text>
</a>
</g>
</g>
<!-- Node1&#45;&gt;Node11 -->
<g id="edge10" class="edge">
<title>Node1&#45;&gt;Node11</title>
<path fill="none" stroke="#63b8ff" d="M397.3,-175.54C407.47,-167.04 420.34,-156.29 430.82,-147.53"/>
<polygon fill="#63b8ff" stroke="#63b8ff" points="433.03,-150.24 438.46,-141.15 428.54,-144.87 433.03,-150.24"/>
</g>
<!-- Node12 -->
<g id="node12" class="node">
<title>Node12</title>
<g id="a_node12"><a xlink:title=" ">
<polygon fill="#e0e0e0" stroke="#999999" points="554,-140 492,-140 492,-121 554,-121 554,-140"/>
<text text-anchor="middle" x="523" y="-128" font-family="Helvetica,sans-Serif" font-size="10.00">type_traits</text>
</a>
</g>
</g>
<!-- Node1&#45;&gt;Node12 -->
<g id="edge12" class="edge">
<title>Node1&#45;&gt;Node12</title>
<path fill="none" stroke="#63b8ff" d="M415.35,-175.54C438.52,-166.06 468.56,-153.77 491.02,-144.58"/>
<polygon fill="#63b8ff" stroke="#63b8ff" points="492.04,-147.95 499.98,-140.92 489.39,-141.47 492.04,-147.95"/>
</g>
<!-- Node2&#45;&gt;Node3 -->
<g id="edge2" class="edge">
<title>Node2&#45;&gt;Node3</title>
<path fill="none" stroke="#63b8ff" d="M244.66,-120.62C231.19,-112.81 211.09,-101.17 193.75,-91.13"/>
<polygon fill="#63b8ff" stroke="#63b8ff" points="195.65,-88.18 185.24,-86.2 192.14,-94.24 195.65,-88.18"/>
</g>
<!-- Node9 -->
<g id="node9" class="node">
<title>Node9</title>
<g id="a_node9"><a xlink:title=" ">
<polygon fill="#e0e0e0" stroke="#999999" points="292,-79.5 232,-79.5 232,-60.5 292,-60.5 292,-79.5"/>
<text text-anchor="middle" x="262" y="-67.5" font-family="Helvetica,sans-Serif" font-size="10.00">streambuf</text>
</a>
</g>
</g>
<!-- Node2&#45;&gt;Node9 -->
<g id="edge8" class="edge">
<title>Node2&#45;&gt;Node9</title>
<path fill="none" stroke="#63b8ff" d="M260.3,-120.87C260.56,-113 260.97,-101.1 261.32,-90.89"/>
<polygon fill="#63b8ff" stroke="#63b8ff" points="264.81,-91.29 261.65,-81.18 257.81,-91.05 264.81,-91.29"/>
</g>
<!-- Node4 -->
<g id="node4" class="node">
<title>Node4</title>
<g id="a_node4"><a xlink:title=" ">
<polygon fill="#e0e0e0" stroke="#999999" points="38,-19 0,-19 0,0 38,0 38,-19"/>
<text text-anchor="middle" x="19" y="-7" font-family="Helvetica,sans-Serif" font-size="10.00">array</text>
</a>
</g>
</g>
<!-- Node3&#45;&gt;Node4 -->
<g id="edge3" class="edge">
<title>Node3&#45;&gt;Node4</title>
<path fill="none" stroke="#63b8ff" d="M124.39,-54.54C101.12,-44.81 70.76,-32.13 48.61,-22.87"/>
<polygon fill="#63b8ff" stroke="#63b8ff" points="50.13,-19.71 39.55,-19.09 47.43,-26.17 50.13,-19.71"/>
</g>
<!-- Node5 -->
<g id="node5" class="node">
<title>Node5</title>
<g id="a_node5"><a xlink:title=" ">
<polygon fill="#e0e0e0" stroke="#999999" points="115.5,-19 56.5,-19 56.5,0 115.5,0 115.5,-19"/>
<text text-anchor="middle" x="86" y="-7" font-family="Helvetica,sans-Serif" font-size="10.00">functional</text>
</a>
</g>
</g>
<!-- Node3&#45;&gt;Node5 -->
<g id="edge4" class="edge">
<title>Node3&#45;&gt;Node5</title>
<path fill="none" stroke="#63b8ff" d="M140.96,-54.54C130.24,-45.96 116.66,-35.07 105.67,-26.26"/>
<polygon fill="#63b8ff" stroke="#63b8ff" points="108,-23.64 98.01,-20.12 103.62,-29.11 108,-23.64"/>
</g>
<!-- Node6 -->
<g id="node6" class="node">
<title>Node6</title>
<g id="a_node6"><a xlink:title=" ">
<polygon fill="#e0e0e0" stroke="#999999" points="184,-19 134,-19 134,0 184,0 184,-19"/>
<text text-anchor="middle" x="159" y="-7" font-family="Helvetica,sans-Serif" font-size="10.00">optional</text>
</a>
</g>
</g>
<!-- Node3&#45;&gt;Node6 -->
<g id="edge5" class="edge">
<title>Node3&#45;&gt;Node6</title>
<path fill="none" stroke="#63b8ff" d="M159,-54.54C159,-47.34 159,-38.53 159,-30.68"/>
<polygon fill="#63b8ff" stroke="#63b8ff" points="162.5,-30.69 159,-20.69 155.5,-30.69 162.5,-30.69"/>
</g>
<!-- Node7 -->
<g id="node7" class="node">
<title>Node7</title>
<g id="a_node7"><a xlink:title=" ">
<polygon fill="#e0e0e0" stroke="#999999" points="254,-19 202,-19 202,0 254,0 254,-19"/>
<text text-anchor="middle" x="228" y="-7" font-family="Helvetica,sans-Serif" font-size="10.00">ostream</text>
</a>
</g>
</g>
<!-- Node3&#45;&gt;Node7 -->
<g id="edge6" class="edge">
<title>Node3&#45;&gt;Node7</title>
<path fill="none" stroke="#63b8ff" d="M176.06,-54.54C186.08,-46.04 198.76,-35.29 209.09,-26.53"/>
<polygon fill="#63b8ff" stroke="#63b8ff" points="211.25,-29.29 216.61,-20.15 206.72,-23.95 211.25,-29.29"/>
</g>
<!-- Node8 -->
<g id="node8" class="node">
<title>Node8</title>
<g id="a_node8"><a xlink:title=" ">
<polygon fill="#e0e0e0" stroke="#999999" points="313.5,-19 272.5,-19 272.5,0 313.5,0 313.5,-19"/>
<text text-anchor="middle" x="293" y="-7" font-family="Helvetica,sans-Serif" font-size="10.00">string</text>
</a>
</g>
</g>
<!-- Node3&#45;&gt;Node8 -->
<g id="edge7" class="edge">
<title>Node3&#45;&gt;Node8</title>
<path fill="none" stroke="#63b8ff" d="M192.12,-54.54C213.64,-45.15 241.48,-32.99 262.46,-23.83"/>
<polygon fill="#63b8ff" stroke="#63b8ff" points="263.59,-27.16 271.35,-19.95 260.78,-20.75 263.59,-27.16"/>
</g>
</g>
</svg>
