<?xml version="1.0" encoding="UTF-8" standalone="no"?>
<!DOCTYPE svg PUBLIC "-//W3C//DTD SVG 1.1//EN"
 "http://www.w3.org/Graphics/SVG/1.1/DTD/svg11.dtd">
<!-- Generated by graphviz version 7.0.5 (20221223.1930)
 -->
<!-- Title: lib/application_business_rules/serial_interface/serial_port.hpp Pages: 1 -->
<svg width="758pt" height="192pt"
 viewBox="0.00 0.00 758.00 192.00" xmlns="http://www.w3.org/2000/svg" xmlns:xlink="http://www.w3.org/1999/xlink">
<g id="graph0" class="graph" transform="scale(1 1) rotate(0) translate(4 188)">
<title>lib/application_business_rules/serial_interface/serial_port.hpp</title>
<!-- Node1 -->
<g id="node1" class="node">
<title>Node1</title>
<g id="a_node1"><a xlink:title=" ">
<polygon fill="#999999" stroke="#666666" points="479.5,-184 359.5,-184 359.5,-143 479.5,-143 479.5,-184"/>
<text text-anchor="start" x="367.5" y="-172" font-family="Helvetica,sans-Serif" font-size="10.00">lib/application_business</text>
<text text-anchor="start" x="367.5" y="-161" font-family="Helvetica,sans-Serif" font-size="10.00">_rules/serial_interface</text>
<text text-anchor="middle" x="419.5" y="-150" font-family="Helvetica,sans-Serif" font-size="10.00">/serial_port.hpp</text>
</a>
</g>
</g>
<!-- Node2 -->
<g id="node2" class="node">
<title>Node2</title>
<g id="a_node2"><a xlink:href="SerialOutputStreamBuffer_8hpp.xhtml" target="_top" xlink:title=" ">
<polygon fill="white" stroke="#666666" points="234,-101.5 49,-101.5 49,-71.5 234,-71.5 234,-101.5"/>
<text text-anchor="start" x="57" y="-89.5" font-family="Helvetica,sans-Serif" font-size="10.00">lib/3rd_party_adapters</text>
<text text-anchor="middle" x="141.5" y="-78.5" font-family="Helvetica,sans-Serif" font-size="10.00">/Arduino/SerialOutputStreamBuffer.hpp</text>
</a>
</g>
</g>
<!-- Node1&#45;&gt;Node2 -->
<g id="edge1" class="edge">
<title>Node1&#45;&gt;Node2</title>
<path fill="none" stroke="#63b8ff" d="M348.3,-143.29C300.57,-130.41 238.71,-113.73 195.13,-101.97"/>
<polygon fill="#63b8ff" stroke="#63b8ff" points="347.15,-146.61 357.72,-145.83 348.97,-139.85 347.15,-146.61"/>
</g>
<!-- Node4 -->
<g id="node4" class="node">
<title>Node4</title>
<g id="a_node4"><a xlink:href="serial__port_8cpp.xhtml" target="_top" xlink:title=" ">
<polygon fill="white" stroke="#666666" points="322,-30 203,-30 203,0 322,0 322,-30"/>
<text text-anchor="start" x="211" y="-18" font-family="Helvetica,sans-Serif" font-size="10.00">lib/3rd_party_adapters</text>
<text text-anchor="middle" x="262.5" y="-7" font-family="Helvetica,sans-Serif" font-size="10.00">/Arduino/serial_port.cpp</text>
</a>
</g>
</g>
<!-- Node1&#45;&gt;Node4 -->
<g id="edge4" class="edge">
<title>Node1&#45;&gt;Node4</title>
<path fill="none" stroke="#63b8ff" d="M348.38,-148.42C323.93,-140.2 298.47,-127.26 281.5,-107 263.16,-85.1 261.1,-49.98 261.57,-30.39"/>
<polygon fill="#63b8ff" stroke="#63b8ff" points="347.1,-151.69 357.69,-151.32 349.18,-145.01 347.1,-151.69"/>
</g>
<!-- Node5 -->
<g id="node5" class="node">
<title>Node5</title>
<g id="a_node5"><a xlink:href="Protocol_8cpp.xhtml" target="_top" xlink:title=" ">
<polygon fill="white" stroke="#666666" points="410.5,-107 290.5,-107 290.5,-66 410.5,-66 410.5,-107"/>
<text text-anchor="start" x="298.5" y="-95" font-family="Helvetica,sans-Serif" font-size="10.00">lib/application_business</text>
<text text-anchor="start" x="298.5" y="-84" font-family="Helvetica,sans-Serif" font-size="10.00">_rules/serial_interface</text>
<text text-anchor="middle" x="350.5" y="-73" font-family="Helvetica,sans-Serif" font-size="10.00">/Protocol.cpp</text>
</a>
</g>
</g>
<!-- Node1&#45;&gt;Node5 -->
<g id="edge5" class="edge">
<title>Node1&#45;&gt;Node5</title>
<path fill="none" stroke="#63b8ff" d="M393.7,-134.46C385.4,-125.44 376.39,-115.64 368.75,-107.33"/>
<polygon fill="#63b8ff" stroke="#63b8ff" points="391,-136.69 400.35,-141.68 396.15,-131.95 391,-136.69"/>
</g>
<!-- Node6 -->
<g id="node6" class="node">
<title>Node6</title>
<g id="a_node6"><a xlink:href="ProcessHmiInputs_8cpp.xhtml" target="_top" xlink:title=" ">
<polygon fill="white" stroke="#666666" points="548.5,-107 428.5,-107 428.5,-66 548.5,-66 548.5,-107"/>
<text text-anchor="start" x="436.5" y="-95" font-family="Helvetica,sans-Serif" font-size="10.00">lib/application_business</text>
<text text-anchor="start" x="436.5" y="-84" font-family="Helvetica,sans-Serif" font-size="10.00">_rules/user_interaction</text>
<text text-anchor="middle" x="488.5" y="-73" font-family="Helvetica,sans-Serif" font-size="10.00">/ProcessHmiInputs.cpp</text>
</a>
</g>
</g>
<!-- Node1&#45;&gt;Node6 -->
<g id="edge6" class="edge">
<title>Node1&#45;&gt;Node6</title>
<path fill="none" stroke="#63b8ff" d="M445.3,-134.46C453.6,-125.44 462.61,-115.64 470.25,-107.33"/>
<polygon fill="#63b8ff" stroke="#63b8ff" points="442.85,-131.95 438.65,-141.68 448,-136.69 442.85,-131.95"/>
</g>
<!-- Node7 -->
<g id="node7" class="node">
<title>Node7</title>
<g id="a_node7"><a xlink:href="main_8cpp.xhtml" target="_top" xlink:title=" ">
<polygon fill="white" stroke="#666666" points="638.5,-96 566.5,-96 566.5,-77 638.5,-77 638.5,-96"/>
<text text-anchor="middle" x="602.5" y="-84" font-family="Helvetica,sans-Serif" font-size="10.00">src/main.cpp</text>
</a>
</g>
</g>
<!-- Node1&#45;&gt;Node7 -->
<g id="edge7" class="edge">
<title>Node1&#45;&gt;Node7</title>
<path fill="none" stroke="#63b8ff" d="M480.51,-138.37C504.56,-128.75 532.38,-117.49 557.5,-107 565.67,-103.59 574.63,-99.73 582.39,-96.35"/>
<polygon fill="#63b8ff" stroke="#63b8ff" points="479.5,-135 471.51,-141.96 482.09,-141.5 479.5,-135"/>
</g>
<!-- Node8 -->
<g id="node8" class="node">
<title>Node8</title>
<g id="a_node8"><a xlink:href="test__hmi_8cpp.xhtml" target="_top" xlink:title=" ">
<polygon fill="white" stroke="#666666" points="750,-101.5 657,-101.5 657,-71.5 750,-71.5 750,-101.5"/>
<text text-anchor="start" x="665" y="-89.5" font-family="Helvetica,sans-Serif" font-size="10.00">test/test_hmi/test</text>
<text text-anchor="middle" x="703.5" y="-78.5" font-family="Helvetica,sans-Serif" font-size="10.00">_hmi.cpp</text>
</a>
</g>
</g>
<!-- Node1&#45;&gt;Node8 -->
<g id="edge8" class="edge">
<title>Node1&#45;&gt;Node8</title>
<path fill="none" stroke="#63b8ff" d="M491.09,-146.94C536.25,-136.66 595.63,-122.31 647.5,-107 652.73,-105.46 658.2,-103.72 663.58,-101.93"/>
<polygon fill="#63b8ff" stroke="#63b8ff" points="490.39,-143.51 481.4,-149.13 491.93,-150.34 490.39,-143.51"/>
</g>
<!-- Node3 -->
<g id="node3" class="node">
<title>Node3</title>
<g id="a_node3"><a xlink:href="SerialOutputStreamBuffer_8cpp.xhtml" target="_top" xlink:title=" ">
<polygon fill="white" stroke="#666666" points="185,-30 0,-30 0,0 185,0 185,-30"/>
<text text-anchor="start" x="8" y="-18" font-family="Helvetica,sans-Serif" font-size="10.00">lib/3rd_party_adapters</text>
<text text-anchor="middle" x="92.5" y="-7" font-family="Helvetica,sans-Serif" font-size="10.00">/Arduino/SerialOutputStreamBuffer.cpp</text>
</a>
</g>
</g>
<!-- Node2&#45;&gt;Node3 -->
<g id="edge2" class="edge">
<title>Node2&#45;&gt;Node3</title>
<path fill="none" stroke="#63b8ff" d="M124.72,-61.7C117.38,-51.29 109.01,-39.42 102.64,-30.38"/>
<polygon fill="#63b8ff" stroke="#63b8ff" points="121.85,-63.71 130.48,-69.86 127.57,-59.67 121.85,-63.71"/>
</g>
<!-- Node2&#45;&gt;Node4 -->
<g id="edge3" class="edge">
<title>Node2&#45;&gt;Node4</title>
<path fill="none" stroke="#63b8ff" d="M176.33,-65.49C195.87,-54.27 219.78,-40.54 237.46,-30.38"/>
<polygon fill="#63b8ff" stroke="#63b8ff" points="174.81,-62.33 167.88,-70.35 178.3,-68.4 174.81,-62.33"/>
</g>
</g>
</svg>
