<?xml version="1.0" encoding="UTF-8" standalone="no"?>
<!DOCTYPE svg PUBLIC "-//W3C//DTD SVG 1.1//EN"
 "http://www.w3.org/Graphics/SVG/1.1/DTD/svg11.dtd">
<!-- Generated by graphviz version 2.43.0 (0)
 -->
<!-- Title: Task&#45;Tracker&#45;Device/lib/application_business_rules/serial_interface/serial_port.hpp Pages: 1 -->
<svg width="728pt" height="148pt"
 viewBox="0.00 0.00 728.00 148.00" xmlns="http://www.w3.org/2000/svg" xmlns:xlink="http://www.w3.org/1999/xlink">
<g id="graph0" class="graph" transform="scale(1 1) rotate(0) translate(4 144)">
<title>Task&#45;Tracker&#45;Device/lib/application_business_rules/serial_interface/serial_port.hpp</title>
<!-- Node1 -->
<g id="Node000001" class="node">
<title>Node1</title>
<g id="a_Node000001"><a xlink:title=" ">
<polygon fill="#999999" stroke="#666666" points="442.5,-140 305.5,-140 305.5,-88 442.5,-88 442.5,-140"/>
<text text-anchor="start" x="313.5" y="-128" font-family="Helvetica,sans-Serif" font-size="10.00">Task&#45;Tracker&#45;Device</text>
<text text-anchor="start" x="313.5" y="-117" font-family="Helvetica,sans-Serif" font-size="10.00">/lib/application_business</text>
<text text-anchor="start" x="313.5" y="-106" font-family="Helvetica,sans-Serif" font-size="10.00">_rules/serial_interface</text>
<text text-anchor="middle" x="374" y="-95" font-family="Helvetica,sans-Serif" font-size="10.00">/serial_port.hpp</text>
</a>
</g>
</g>
<!-- Node2 -->
<g id="Node000002" class="node">
<title>Node2</title>
<g id="a_Node000002"><a xlink:href="serial__port_8cpp.xhtml" target="_top" xlink:title=" ">
<polygon fill="white" stroke="#666666" points="132,-46.5 0,-46.5 0,-5.5 132,-5.5 132,-46.5"/>
<text text-anchor="start" x="8" y="-34.5" font-family="Helvetica,sans-Serif" font-size="10.00">Task&#45;Tracker&#45;Device</text>
<text text-anchor="start" x="8" y="-23.5" font-family="Helvetica,sans-Serif" font-size="10.00">/lib/3rd_party_adapters</text>
<text text-anchor="middle" x="66" y="-12.5" font-family="Helvetica,sans-Serif" font-size="10.00">/Arduino/serial_port.cpp</text>
</a>
</g>
</g>
<!-- Node1&#45;&gt;Node2 -->
<g id="edge1_Node000001_Node000002" class="edge">
<title>Node1&#45;&gt;Node2</title>
<g id="a_edge1_Node000001_Node000002"><a xlink:title=" ">
<path fill="none" stroke="#63b8ff" d="M295.59,-93.84C250.22,-82.41 192.16,-67.21 141,-52 135.34,-50.32 129.47,-48.5 123.61,-46.63"/>
<polygon fill="#63b8ff" stroke="#63b8ff" points="294.81,-97.25 305.36,-96.29 296.52,-90.46 294.81,-97.25"/>
</a>
</g>
</g>
<!-- Node3 -->
<g id="Node000003" class="node">
<title>Node3</title>
<g id="a_Node000003"><a xlink:href="Protocol_8cpp.xhtml" target="_top" xlink:title=" ">
<polygon fill="white" stroke="#666666" points="287.5,-52 150.5,-52 150.5,0 287.5,0 287.5,-52"/>
<text text-anchor="start" x="158.5" y="-40" font-family="Helvetica,sans-Serif" font-size="10.00">Task&#45;Tracker&#45;Device</text>
<text text-anchor="start" x="158.5" y="-29" font-family="Helvetica,sans-Serif" font-size="10.00">/lib/application_business</text>
<text text-anchor="start" x="158.5" y="-18" font-family="Helvetica,sans-Serif" font-size="10.00">_rules/serial_interface</text>
<text text-anchor="middle" x="219" y="-7" font-family="Helvetica,sans-Serif" font-size="10.00">/Protocol.cpp</text>
</a>
</g>
</g>
<!-- Node1&#45;&gt;Node3 -->
<g id="edge2_Node000001_Node000003" class="edge">
<title>Node1&#45;&gt;Node3</title>
<g id="a_edge2_Node000001_Node000003"><a xlink:title=" ">
<path fill="none" stroke="#63b8ff" d="M320,-83.04C301.82,-72.95 281.74,-61.81 264.31,-52.14"/>
<polygon fill="#63b8ff" stroke="#63b8ff" points="318.31,-86.1 328.75,-87.89 321.7,-79.98 318.31,-86.1"/>
</a>
</g>
</g>
<!-- Node4 -->
<g id="Node000004" class="node">
<title>Node4</title>
<g id="a_Node000004"><a xlink:href="ProcessHmiInputs_8cpp.xhtml" target="_top" xlink:title=" ">
<polygon fill="white" stroke="#666666" points="442.5,-52 305.5,-52 305.5,0 442.5,0 442.5,-52"/>
<text text-anchor="start" x="313.5" y="-40" font-family="Helvetica,sans-Serif" font-size="10.00">Task&#45;Tracker&#45;Device</text>
<text text-anchor="start" x="313.5" y="-29" font-family="Helvetica,sans-Serif" font-size="10.00">/lib/application_business</text>
<text text-anchor="start" x="313.5" y="-18" font-family="Helvetica,sans-Serif" font-size="10.00">_rules/user_interaction</text>
<text text-anchor="middle" x="374" y="-7" font-family="Helvetica,sans-Serif" font-size="10.00">/ProcessHmiInputs.cpp</text>
</a>
</g>
</g>
<!-- Node1&#45;&gt;Node4 -->
<g id="edge3_Node000001_Node000004" class="edge">
<title>Node1&#45;&gt;Node4</title>
<g id="a_edge3_Node000001_Node000004"><a xlink:title=" ">
<path fill="none" stroke="#63b8ff" d="M374,-77.56C374,-69.04 374,-60.1 374,-52.16"/>
<polygon fill="#63b8ff" stroke="#63b8ff" points="370.5,-77.66 374,-87.66 377.5,-77.66 370.5,-77.66"/>
</a>
</g>
</g>
<!-- Node5 -->
<g id="Node000005" class="node">
<title>Node5</title>
<g id="a_Node000005"><a xlink:href="main_8cpp.xhtml" target="_top" xlink:title=" ">
<polygon fill="white" stroke="#666666" points="573.5,-41 460.5,-41 460.5,-11 573.5,-11 573.5,-41"/>
<text text-anchor="start" x="468.5" y="-29" font-family="Helvetica,sans-Serif" font-size="10.00">Task&#45;Tracker&#45;Device</text>
<text text-anchor="middle" x="517" y="-18" font-family="Helvetica,sans-Serif" font-size="10.00">/src/main.cpp</text>
</a>
</g>
</g>
<!-- Node1&#45;&gt;Node5 -->
<g id="edge4_Node000001_Node000005" class="edge">
<title>Node1&#45;&gt;Node5</title>
<g id="a_edge4_Node000001_Node000005"><a xlink:title=" ">
<path fill="none" stroke="#63b8ff" d="M424.59,-82.58C448.14,-68.41 475.01,-52.25 493.68,-41.03"/>
<polygon fill="#63b8ff" stroke="#63b8ff" points="422.51,-79.74 415.75,-87.89 426.12,-85.74 422.51,-79.74"/>
</a>
</g>
</g>
<!-- Node6 -->
<g id="Node000006" class="node">
<title>Node6</title>
<g id="a_Node000006"><a xlink:href="test__hmi_8cpp.xhtml" target="_top" xlink:title=" ">
<polygon fill="white" stroke="#666666" points="720,-46.5 592,-46.5 592,-5.5 720,-5.5 720,-46.5"/>
<text text-anchor="start" x="600" y="-34.5" font-family="Helvetica,sans-Serif" font-size="10.00">Task&#45;Tracker&#45;Device</text>
<text text-anchor="start" x="600" y="-23.5" font-family="Helvetica,sans-Serif" font-size="10.00">/test/hmi/test_hmi/test</text>
<text text-anchor="middle" x="656" y="-12.5" font-family="Helvetica,sans-Serif" font-size="10.00">_hmi.cpp</text>
</a>
</g>
</g>
<!-- Node1&#45;&gt;Node6 -->
<g id="edge5_Node000001_Node000006" class="edge">
<title>Node1&#45;&gt;Node6</title>
<g id="a_edge5_Node000001_Node000006"><a xlink:title=" ">
<path fill="none" stroke="#63b8ff" d="M452.74,-90.94C492.01,-79.71 540.15,-65.58 583,-52 588.49,-50.26 594.2,-48.4 599.89,-46.51"/>
<polygon fill="#63b8ff" stroke="#63b8ff" points="451.61,-87.63 442.96,-93.74 453.53,-94.36 451.61,-87.63"/>
</a>
</g>
</g>
</g>
</svg>
