<?xml version="1.0" encoding="UTF-8" standalone="no"?>
<!DOCTYPE svg PUBLIC "-//W3C//DTD SVG 1.1//EN"
 "http://www.w3.org/Graphics/SVG/1.1/DTD/svg11.dtd">
<!-- Generated by graphviz version 7.0.5 (20221223.1930)
 -->
<!-- Title: lib/tasks/Task.cpp Pages: 1 -->
<svg width="170pt" height="137pt"
 viewBox="0.00 0.00 170.00 137.00" xmlns="http://www.w3.org/2000/svg" xmlns:xlink="http://www.w3.org/1999/xlink">
<g id="graph0" class="graph" transform="scale(1 1) rotate(0) translate(4 133)">
<title>lib/tasks/Task.cpp</title>
<!-- Node1 -->
<g id="node1" class="node">
<title>Node1</title>
<g id="a_node1"><a xlink:title=" ">
<polygon fill="#999999" stroke="#666666" points="140,-129 44,-129 44,-110 140,-110 140,-129"/>
<text text-anchor="middle" x="92" y="-117" font-family="Helvetica,sans-Serif" font-size="10.00">lib/tasks/Task.cpp</text>
</a>
</g>
</g>
<!-- Node2 -->
<g id="node2" class="node">
<title>Node2</title>
<g id="a_node2"><a xlink:href="Task_8hpp.xhtml" target="_top" xlink:title=" ">
<polygon fill="white" stroke="#666666" points="82,-74 26,-74 26,-55 82,-55 82,-74"/>
<text text-anchor="middle" x="54" y="-62" font-family="Helvetica,sans-Serif" font-size="10.00">Task.hpp</text>
</a>
</g>
</g>
<!-- Node1&#45;&gt;Node2 -->
<g id="edge1" class="edge">
<title>Node1&#45;&gt;Node2</title>
<path fill="none" stroke="#63b8ff" d="M85.73,-109.75C80.64,-102.66 73.3,-92.42 66.97,-83.59"/>
<polygon fill="#63b8ff" stroke="#63b8ff" points="69.96,-81.76 61.29,-75.67 64.28,-85.84 69.96,-81.76"/>
</g>
<!-- Node5 -->
<g id="node5" class="node">
<title>Node5</title>
<g id="a_node5"><a xlink:title=" ">
<polygon fill="#e0e0e0" stroke="#999999" points="162,-74 100,-74 100,-55 162,-55 162,-74"/>
<text text-anchor="middle" x="131" y="-62" font-family="Helvetica,sans-Serif" font-size="10.00">type_traits</text>
</a>
</g>
</g>
<!-- Node1&#45;&gt;Node5 -->
<g id="edge4" class="edge">
<title>Node1&#45;&gt;Node5</title>
<path fill="none" stroke="#63b8ff" d="M98.44,-109.75C103.66,-102.66 111.19,-92.42 117.69,-83.59"/>
<polygon fill="#63b8ff" stroke="#63b8ff" points="120.42,-85.79 123.52,-75.66 114.78,-81.64 120.42,-85.79"/>
</g>
<!-- Node3 -->
<g id="node3" class="node">
<title>Node3</title>
<g id="a_node3"><a xlink:title=" ">
<polygon fill="#e0e0e0" stroke="#999999" points="46,-19 0,-19 0,0 46,0 46,-19"/>
<text text-anchor="middle" x="23" y="-7" font-family="Helvetica,sans-Serif" font-size="10.00">chrono</text>
</a>
</g>
</g>
<!-- Node2&#45;&gt;Node3 -->
<g id="edge2" class="edge">
<title>Node2&#45;&gt;Node3</title>
<path fill="none" stroke="#63b8ff" d="M48.88,-54.75C44.82,-47.81 39.01,-37.86 33.91,-29.16"/>
<polygon fill="#63b8ff" stroke="#63b8ff" points="37.06,-27.61 28.99,-20.75 31.02,-31.15 37.06,-27.61"/>
</g>
<!-- Node4 -->
<g id="node4" class="node">
<title>Node4</title>
<g id="a_node4"><a xlink:title=" ">
<polygon fill="#e0e0e0" stroke="#999999" points="105.5,-19 64.5,-19 64.5,0 105.5,0 105.5,-19"/>
<text text-anchor="middle" x="85" y="-7" font-family="Helvetica,sans-Serif" font-size="10.00">string</text>
</a>
</g>
</g>
<!-- Node2&#45;&gt;Node4 -->
<g id="edge3" class="edge">
<title>Node2&#45;&gt;Node4</title>
<path fill="none" stroke="#63b8ff" d="M59.12,-54.75C63.18,-47.81 68.99,-37.86 74.09,-29.16"/>
<polygon fill="#63b8ff" stroke="#63b8ff" points="76.98,-31.15 79.01,-20.75 70.94,-27.61 76.98,-31.15"/>
</g>
</g>
</svg>
