<?xml version="1.0" encoding="UTF-8" standalone="no"?>
<!DOCTYPE svg PUBLIC "-//W3C//DTD SVG 1.1//EN"
 "http://www.w3.org/Graphics/SVG/1.1/DTD/svg11.dtd">
<!-- Generated by graphviz version 7.0.5 (20221223.1930)
 -->
<!-- Title: src/display.cpp Pages: 1 -->
<svg width="331pt" height="192pt"
 viewBox="0.00 0.00 330.50 192.00" xmlns="http://www.w3.org/2000/svg" xmlns:xlink="http://www.w3.org/1999/xlink">
<g id="graph0" class="graph" transform="scale(1 1) rotate(0) translate(4 188)">
<title>src/display.cpp</title>
<!-- Node1 -->
<g id="node1" class="node">
<title>Node1</title>
<g id="a_node1"><a xlink:title=" ">
<polygon fill="#999999" stroke="#666666" points="193,-184 112,-184 112,-165 193,-165 193,-184"/>
<text text-anchor="middle" x="152.5" y="-172" font-family="Helvetica,sans-Serif" font-size="10.00">src/display.cpp</text>
</a>
</g>
</g>
<!-- Node2 -->
<g id="node2" class="node">
<title>Node2</title>
<g id="a_node2"><a xlink:href="board__pins_8hpp.xhtml" target="_top" xlink:title="Provides named objects for the pins provided by the board.">
<polygon fill="white" stroke="#666666" points="138.5,-129 56.5,-129 56.5,-110 138.5,-110 138.5,-129"/>
<text text-anchor="middle" x="97.5" y="-117" font-family="Helvetica,sans-Serif" font-size="10.00">board_pins.hpp</text>
</a>
</g>
</g>
<!-- Node1&#45;&gt;Node2 -->
<g id="edge1" class="edge">
<title>Node1&#45;&gt;Node2</title>
<path fill="none" stroke="#63b8ff" d="M143.42,-164.75C135.66,-157.27 124.29,-146.32 114.8,-137.17"/>
<polygon fill="#63b8ff" stroke="#63b8ff" points="117.5,-134.91 107.87,-130.49 112.64,-139.95 117.5,-134.91"/>
</g>
<!-- Node4 -->
<g id="node4" class="node">
<title>Node4</title>
<g id="a_node4"><a xlink:title=" ">
<polygon fill="#e0e0e0" stroke="#999999" points="57,-19 0,-19 0,0 57,0 57,-19"/>
<text text-anchor="middle" x="28.5" y="-7" font-family="Helvetica,sans-Serif" font-size="10.00">Arduino.h</text>
</a>
</g>
</g>
<!-- Node1&#45;&gt;Node4 -->
<g id="edge7" class="edge">
<title>Node1&#45;&gt;Node4</title>
<path fill="none" stroke="#63b8ff" d="M111.72,-166.21C89.38,-160.08 63.13,-148.95 47.5,-129 25.19,-100.51 24.4,-56.15 26.21,-30.55"/>
<polygon fill="#63b8ff" stroke="#63b8ff" points="29.67,-31.14 27.11,-20.86 22.7,-30.49 29.67,-31.14"/>
</g>
<!-- Node7 -->
<g id="node7" class="node">
<title>Node7</title>
<g id="a_node7"><a xlink:title=" ">
<polygon fill="#e0e0e0" stroke="#999999" points="260.5,-129 156.5,-129 156.5,-110 260.5,-110 260.5,-129"/>
<text text-anchor="middle" x="208.5" y="-117" font-family="Helvetica,sans-Serif" font-size="10.00">Adafruit_SSD1306.h</text>
</a>
</g>
</g>
<!-- Node1&#45;&gt;Node7 -->
<g id="edge6" class="edge">
<title>Node1&#45;&gt;Node7</title>
<path fill="none" stroke="#63b8ff" d="M162,-164.51C169.93,-157 181.45,-146.1 191.04,-137.03"/>
<polygon fill="#63b8ff" stroke="#63b8ff" points="193.18,-139.81 198.04,-130.4 188.37,-134.73 193.18,-139.81"/>
</g>
<!-- Node8 -->
<g id="node8" class="node">
<title>Node8</title>
<g id="a_node8"><a xlink:title=" ">
<polygon fill="#e0e0e0" stroke="#999999" points="322.5,-129 278.5,-129 278.5,-110 322.5,-110 322.5,-129"/>
<text text-anchor="middle" x="300.5" y="-117" font-family="Helvetica,sans-Serif" font-size="10.00">Wire.h</text>
</a>
</g>
</g>
<!-- Node1&#45;&gt;Node8 -->
<g id="edge8" class="edge">
<title>Node1&#45;&gt;Node8</title>
<path fill="none" stroke="#63b8ff" d="M177.61,-164.51C202.4,-155.63 240.44,-142.01 267.62,-132.27"/>
<polygon fill="#63b8ff" stroke="#63b8ff" points="268.52,-135.67 276.76,-129 266.16,-129.08 268.52,-135.67"/>
</g>
<!-- Node3 -->
<g id="node3" class="node">
<title>Node3</title>
<g id="a_node3"><a xlink:href="framework__config_8hpp.xhtml" target="_top" xlink:title="Provides defintions which are specific for the used framework.">
<polygon fill="white" stroke="#666666" points="161,-74 50,-74 50,-55 161,-55 161,-74"/>
<text text-anchor="middle" x="105.5" y="-62" font-family="Helvetica,sans-Serif" font-size="10.00">framework_config.hpp</text>
</a>
</g>
</g>
<!-- Node2&#45;&gt;Node3 -->
<g id="edge2" class="edge">
<title>Node2&#45;&gt;Node3</title>
<path fill="none" stroke="#63b8ff" d="M98.82,-109.75C99.81,-103.19 101.21,-93.95 102.47,-85.6"/>
<polygon fill="#63b8ff" stroke="#63b8ff" points="105.89,-86.35 103.92,-75.94 98.97,-85.3 105.89,-86.35"/>
</g>
<!-- Node3&#45;&gt;Node4 -->
<g id="edge3" class="edge">
<title>Node3&#45;&gt;Node4</title>
<path fill="none" stroke="#63b8ff" d="M92.44,-54.51C80.98,-46.62 64.07,-34.98 50.52,-25.65"/>
<polygon fill="#63b8ff" stroke="#63b8ff" points="52.84,-23 42.62,-20.22 48.87,-28.77 52.84,-23"/>
</g>
<!-- Node5 -->
<g id="node5" class="node">
<title>Node5</title>
<g id="a_node5"><a xlink:title=" ">
<polygon fill="#e0e0e0" stroke="#999999" points="124.5,-19 78.5,-19 78.5,0 124.5,0 124.5,-19"/>
<text text-anchor="middle" x="101.5" y="-7" font-family="Helvetica,sans-Serif" font-size="10.00">cstdint</text>
</a>
</g>
</g>
<!-- Node3&#45;&gt;Node5 -->
<g id="edge4" class="edge">
<title>Node3&#45;&gt;Node5</title>
<path fill="none" stroke="#63b8ff" d="M104.84,-54.75C104.35,-48.27 103.66,-39.16 103.04,-30.9"/>
<polygon fill="#63b8ff" stroke="#63b8ff" points="106.53,-30.66 102.29,-20.95 99.55,-31.19 106.53,-30.66"/>
</g>
<!-- Node6 -->
<g id="node6" class="node">
<title>Node6</title>
<g id="a_node6"><a xlink:title=" ">
<polygon fill="#e0e0e0" stroke="#999999" points="204.5,-19 142.5,-19 142.5,0 204.5,0 204.5,-19"/>
<text text-anchor="middle" x="173.5" y="-7" font-family="Helvetica,sans-Serif" font-size="10.00">type_traits</text>
</a>
</g>
</g>
<!-- Node3&#45;&gt;Node6 -->
<g id="edge5" class="edge">
<title>Node3&#45;&gt;Node6</title>
<path fill="none" stroke="#63b8ff" d="M117.04,-54.51C126.96,-46.77 141.51,-35.43 153.36,-26.2"/>
<polygon fill="#63b8ff" stroke="#63b8ff" points="155.21,-29.2 160.94,-20.29 150.9,-23.68 155.21,-29.2"/>
</g>
</g>
</svg>
