<?xml version="1.0" encoding="UTF-8" standalone="no"?>
<!DOCTYPE svg PUBLIC "-//W3C//DTD SVG 1.1//EN"
 "http://www.w3.org/Graphics/SVG/1.1/DTD/svg11.dtd">
<!-- Generated by graphviz version 7.0.5 (20221223.1930)
 -->
<!-- Title: src/main.cpp Pages: 1 -->
<svg width="420pt" height="192pt"
 viewBox="0.00 0.00 420.00 192.00" xmlns="http://www.w3.org/2000/svg" xmlns:xlink="http://www.w3.org/1999/xlink">
<g id="graph0" class="graph" transform="scale(1 1) rotate(0) translate(4 188)">
<title>src/main.cpp</title>
<!-- Node1 -->
<g id="node1" class="node">
<title>Node1</title>
<g id="a_node1"><a xlink:title=" ">
<polygon fill="#999999" stroke="#666666" points="249,-184 177,-184 177,-165 249,-165 249,-184"/>
<text text-anchor="middle" x="213" y="-172" font-family="Helvetica,sans-Serif" font-size="10.00">src/main.cpp</text>
</a>
</g>
</g>
<!-- Node2 -->
<g id="node2" class="node">
<title>Node2</title>
<g id="a_node2"><a xlink:href="main_8hpp.xhtml" target="_top" xlink:title=" ">
<polygon fill="white" stroke="#666666" points="56,-129 0,-129 0,-110 56,-110 56,-129"/>
<text text-anchor="middle" x="28" y="-117" font-family="Helvetica,sans-Serif" font-size="10.00">main.hpp</text>
</a>
</g>
</g>
<!-- Node1&#45;&gt;Node2 -->
<g id="edge1" class="edge">
<title>Node1&#45;&gt;Node2</title>
<path fill="none" stroke="#63b8ff" d="M181.62,-164.51C150.13,-155.49 101.53,-141.57 67.45,-131.8"/>
<polygon fill="#63b8ff" stroke="#63b8ff" points="68.53,-128.47 57.95,-129.08 66.6,-135.2 68.53,-128.47"/>
</g>
<!-- Node3 -->
<g id="node3" class="node">
<title>Node3</title>
<g id="a_node3"><a xlink:href="board__pins_8hpp.xhtml" target="_top" xlink:title="Provides named objects for the pins provided by the board.">
<polygon fill="white" stroke="#666666" points="216,-129 134,-129 134,-110 216,-110 216,-129"/>
<text text-anchor="middle" x="175" y="-117" font-family="Helvetica,sans-Serif" font-size="10.00">board_pins.hpp</text>
</a>
</g>
</g>
<!-- Node1&#45;&gt;Node3 -->
<g id="edge2" class="edge">
<title>Node1&#45;&gt;Node3</title>
<path fill="none" stroke="#63b8ff" d="M206.73,-164.75C201.64,-157.66 194.3,-147.42 187.97,-138.59"/>
<polygon fill="#63b8ff" stroke="#63b8ff" points="190.96,-136.76 182.29,-130.67 185.28,-140.84 190.96,-136.76"/>
</g>
<!-- Node5 -->
<g id="node5" class="node">
<title>Node5</title>
<g id="a_node5"><a xlink:title=" ">
<polygon fill="#e0e0e0" stroke="#999999" points="115.5,-19 58.5,-19 58.5,0 115.5,0 115.5,-19"/>
<text text-anchor="middle" x="87" y="-7" font-family="Helvetica,sans-Serif" font-size="10.00">Arduino.h</text>
</a>
</g>
</g>
<!-- Node1&#45;&gt;Node5 -->
<g id="edge11" class="edge">
<title>Node1&#45;&gt;Node5</title>
<path fill="none" stroke="#63b8ff" d="M183.49,-164.65C164.58,-157.66 140.73,-146.17 125,-129 99.66,-101.33 91.21,-56.67 88.4,-30.8"/>
<polygon fill="#63b8ff" stroke="#63b8ff" points="91.9,-30.64 87.54,-20.98 84.93,-31.25 91.9,-30.64"/>
</g>
<!-- Node6 -->
<g id="node6" class="node">
<title>Node6</title>
<g id="a_node6"><a xlink:title=" ">
<polygon fill="#e0e0e0" stroke="#999999" points="275,-19 229,-19 229,0 275,0 275,-19"/>
<text text-anchor="middle" x="252" y="-7" font-family="Helvetica,sans-Serif" font-size="10.00">cstdint</text>
</a>
</g>
</g>
<!-- Node1&#45;&gt;Node6 -->
<g id="edge12" class="edge">
<title>Node1&#45;&gt;Node6</title>
<path fill="none" stroke="#63b8ff" d="M215.49,-164.66C218,-155.7 221.91,-141.42 225,-129 233.59,-94.46 242.58,-53.99 247.72,-30.4"/>
<polygon fill="#63b8ff" stroke="#63b8ff" points="251.07,-31.44 249.77,-20.93 244.23,-29.96 251.07,-31.44"/>
</g>
<!-- Node8 -->
<g id="node8" class="node">
<title>Node8</title>
<g id="a_node8"><a xlink:href="display_8h.xhtml" target="_top" xlink:title=" ">
<polygon fill="white" stroke="#666666" points="334,-129 280,-129 280,-110 334,-110 334,-129"/>
<text text-anchor="middle" x="307" y="-117" font-family="Helvetica,sans-Serif" font-size="10.00">display.h</text>
</a>
</g>
</g>
<!-- Node1&#45;&gt;Node8 -->
<g id="edge7" class="edge">
<title>Node1&#45;&gt;Node8</title>
<path fill="none" stroke="#63b8ff" d="M228.95,-164.51C243.35,-156.39 264.79,-144.3 281.56,-134.85"/>
<polygon fill="#63b8ff" stroke="#63b8ff" points="282.98,-138.06 289.97,-130.1 279.54,-131.96 282.98,-138.06"/>
</g>
<!-- Node10 -->
<g id="node10" class="node">
<title>Node10</title>
<g id="a_node10"><a xlink:href="pitches_8hpp.xhtml" target="_top" xlink:title=" ">
<polygon fill="white" stroke="#666666" points="412,-74 346,-74 346,-55 412,-55 412,-74"/>
<text text-anchor="middle" x="379" y="-62" font-family="Helvetica,sans-Serif" font-size="10.00">pitches.hpp</text>
</a>
</g>
</g>
<!-- Node1&#45;&gt;Node10 -->
<g id="edge9" class="edge">
<title>Node1&#45;&gt;Node10</title>
<path fill="none" stroke="#63b8ff" d="M249.24,-168.29C277.42,-162.66 316.1,-151.31 343,-129 357.02,-117.37 366.65,-98.78 372.39,-84.71"/>
<polygon fill="#63b8ff" stroke="#63b8ff" points="375.57,-86.22 375.79,-75.63 369.01,-83.77 375.57,-86.22"/>
</g>
<!-- Node4 -->
<g id="node4" class="node">
<title>Node4</title>
<g id="a_node4"><a xlink:href="framework__config_8hpp.xhtml" target="_top" xlink:title="Provides defintions which are specific for the used framework.">
<polygon fill="white" stroke="#666666" points="223.5,-74 112.5,-74 112.5,-55 223.5,-55 223.5,-74"/>
<text text-anchor="middle" x="168" y="-62" font-family="Helvetica,sans-Serif" font-size="10.00">framework_config.hpp</text>
</a>
</g>
</g>
<!-- Node3&#45;&gt;Node4 -->
<g id="edge3" class="edge">
<title>Node3&#45;&gt;Node4</title>
<path fill="none" stroke="#63b8ff" d="M173.84,-109.75C172.98,-103.19 171.76,-93.95 170.66,-85.6"/>
<polygon fill="#63b8ff" stroke="#63b8ff" points="174.16,-85.4 169.38,-75.94 167.22,-86.31 174.16,-85.4"/>
</g>
<!-- Node4&#45;&gt;Node5 -->
<g id="edge4" class="edge">
<title>Node4&#45;&gt;Node5</title>
<path fill="none" stroke="#63b8ff" d="M154.26,-54.51C142.2,-46.62 124.41,-34.98 110.16,-25.65"/>
<polygon fill="#63b8ff" stroke="#63b8ff" points="112.09,-22.73 101.8,-20.19 108.26,-28.59 112.09,-22.73"/>
</g>
<!-- Node4&#45;&gt;Node6 -->
<g id="edge5" class="edge">
<title>Node4&#45;&gt;Node6</title>
<path fill="none" stroke="#63b8ff" d="M182.25,-54.51C194.88,-46.54 213.56,-34.75 228.41,-25.38"/>
<polygon fill="#63b8ff" stroke="#63b8ff" points="230.09,-28.46 236.68,-20.17 226.36,-22.54 230.09,-28.46"/>
</g>
<!-- Node7 -->
<g id="node7" class="node">
<title>Node7</title>
<g id="a_node7"><a xlink:title=" ">
<polygon fill="#e0e0e0" stroke="#999999" points="199,-19 137,-19 137,0 199,0 199,-19"/>
<text text-anchor="middle" x="168" y="-7" font-family="Helvetica,sans-Serif" font-size="10.00">type_traits</text>
</a>
</g>
</g>
<!-- Node4&#45;&gt;Node7 -->
<g id="edge6" class="edge">
<title>Node4&#45;&gt;Node7</title>
<path fill="none" stroke="#63b8ff" d="M168,-54.75C168,-48.27 168,-39.16 168,-30.9"/>
<polygon fill="#63b8ff" stroke="#63b8ff" points="171.5,-30.96 168,-20.96 164.5,-30.96 171.5,-30.96"/>
</g>
<!-- Node9 -->
<g id="node9" class="node">
<title>Node9</title>
<g id="a_node9"><a xlink:title=" ">
<polygon fill="#e0e0e0" stroke="#999999" points="328,-74 280,-74 280,-55 328,-55 328,-74"/>
<text text-anchor="middle" x="304" y="-62" font-family="Helvetica,sans-Serif" font-size="10.00">stdint.h</text>
</a>
</g>
</g>
<!-- Node8&#45;&gt;Node9 -->
<g id="edge8" class="edge">
<title>Node8&#45;&gt;Node9</title>
<path fill="none" stroke="#63b8ff" d="M306.5,-109.75C306.14,-103.27 305.62,-94.16 305.15,-85.9"/>
<polygon fill="#63b8ff" stroke="#63b8ff" points="308.65,-85.74 304.59,-75.95 301.66,-86.13 308.65,-85.74"/>
</g>
<!-- Node10&#45;&gt;Node6 -->
<g id="edge10" class="edge">
<title>Node10&#45;&gt;Node6</title>
<path fill="none" stroke="#63b8ff" d="M357.46,-54.51C337.26,-46.08 306.83,-33.38 283.84,-23.79"/>
<polygon fill="#63b8ff" stroke="#63b8ff" points="285.2,-20.56 274.62,-19.94 282.5,-27.02 285.2,-20.56"/>
</g>
</g>
</svg>
