<?xml version="1.0" encoding="UTF-8" standalone="no"?>
<!DOCTYPE svg PUBLIC "-//W3C//DTD SVG 1.1//EN"
 "http://www.w3.org/Graphics/SVG/1.1/DTD/svg11.dtd">
<!-- Generated by graphviz version 7.0.5 (20221223.1930)
 -->
<!-- Title: IMenuItem Pages: 1 -->
<svg width="380pt" height="291pt"
 viewBox="0.00 0.00 379.50 291.00" xmlns="http://www.w3.org/2000/svg" xmlns:xlink="http://www.w3.org/1999/xlink">
<g id="graph0" class="graph" transform="scale(1 1) rotate(0) translate(4 287)">
<title>IMenuItem</title>
<!-- Node1 -->
<g id="node1" class="node">
<title>Node1</title>
<g id="a_node1"><a xlink:title=" ">
<polygon fill="#999999" stroke="#666666" points="236,-283 153,-283 153,-209 236,-209 236,-283"/>
<text text-anchor="middle" x="194.5" y="-271" font-family="Helvetica,sans-Serif" font-size="10.00">{IMenuItem</text>
<text text-anchor="start" x="161" y="-260" font-family="Helvetica,sans-Serif" font-size="10.00">||+ IMenuItem()</text>
<text text-anchor="start" x="161" y="-249" font-family="Helvetica,sans-Serif" font-size="10.00">+ ~IMenuItem()</text>
<text text-anchor="start" x="161" y="-238" font-family="Helvetica,sans-Serif" font-size="10.00">+ getText()</text>
<text text-anchor="start" x="161" y="-227" font-family="Helvetica,sans-Serif" font-size="10.00">+ getType()</text>
<text text-anchor="middle" x="194.5" y="-216" font-family="Helvetica,sans-Serif" font-size="10.00">}</text>
</a>
</g>
</g>
<!-- Node2 -->
<g id="node2" class="node">
<title>Node2</title>
<g id="a_node2"><a xlink:href="classMenuItemSubmenu.xhtml" target="_top" xlink:title=" ">
<polygon fill="white" stroke="#666666" points="121,-140 0,-140 0,-33 121,-33 121,-140"/>
<text text-anchor="middle" x="60.5" y="-128" font-family="Helvetica,sans-Serif" font-size="10.00">{MenuItemSubmenu</text>
<text text-anchor="start" x="8" y="-117" font-family="Helvetica,sans-Serif" font-size="10.00">|# _text</text>
<text text-anchor="start" x="8" y="-106" font-family="Helvetica,sans-Serif" font-size="10.00"># _subMenuList</text>
<text text-anchor="start" x="8" y="-95" font-family="Helvetica,sans-Serif" font-size="10.00">|+ MenuItemSubmenu()</text>
<text text-anchor="start" x="8" y="-84" font-family="Helvetica,sans-Serif" font-size="10.00">+ ~MenuItemSubmenu()</text>
<text text-anchor="start" x="8" y="-73" font-family="Helvetica,sans-Serif" font-size="10.00">+ getText()</text>
<text text-anchor="start" x="8" y="-62" font-family="Helvetica,sans-Serif" font-size="10.00">+ getType()</text>
<text text-anchor="start" x="8" y="-51" font-family="Helvetica,sans-Serif" font-size="10.00">+ getSubMenuList()</text>
<text text-anchor="middle" x="60.5" y="-40" font-family="Helvetica,sans-Serif" font-size="10.00">}</text>
</a>
</g>
</g>
<!-- Node1&#45;&gt;Node2 -->
<g id="edge1" class="edge">
<title>Node1&#45;&gt;Node2</title>
<path fill="none" stroke="#63b8ff" d="M154.18,-200.2C146.26,-191.25 138.07,-181.87 130.5,-173 121.53,-162.49 112.08,-151.13 103.11,-140.23"/>
<polygon fill="none" stroke="#63b8ff" points="151.39,-202.34 160.65,-207.49 156.63,-197.69 151.39,-202.34"/>
</g>
<!-- Node3 -->
<g id="node3" class="node">
<title>Node3</title>
<g id="a_node3"><a xlink:href="structMenuItemSwitch.xhtml" target="_top" xlink:title=" ">
<polygon fill="white" stroke="#666666" points="249.5,-140 139.5,-140 139.5,-33 249.5,-33 249.5,-140"/>
<text text-anchor="middle" x="194.5" y="-128" font-family="Helvetica,sans-Serif" font-size="10.00">{MenuItemSwitch</text>
<text text-anchor="start" x="147.5" y="-117" font-family="Helvetica,sans-Serif" font-size="10.00">|# _text</text>
<text text-anchor="start" x="147.5" y="-106" font-family="Helvetica,sans-Serif" font-size="10.00"># _ptrBool</text>
<text text-anchor="start" x="147.5" y="-95" font-family="Helvetica,sans-Serif" font-size="10.00">|+ MenuItemSwitch()</text>
<text text-anchor="start" x="147.5" y="-84" font-family="Helvetica,sans-Serif" font-size="10.00">+ ~MenuItemSwitch()</text>
<text text-anchor="start" x="147.5" y="-73" font-family="Helvetica,sans-Serif" font-size="10.00">+ getText()</text>
<text text-anchor="start" x="147.5" y="-62" font-family="Helvetica,sans-Serif" font-size="10.00">+ getType()</text>
<text text-anchor="start" x="147.5" y="-51" font-family="Helvetica,sans-Serif" font-size="10.00">+ getPtrBool()</text>
<text text-anchor="middle" x="194.5" y="-40" font-family="Helvetica,sans-Serif" font-size="10.00">}</text>
</a>
</g>
</g>
<!-- Node1&#45;&gt;Node3 -->
<g id="edge2" class="edge">
<title>Node1&#45;&gt;Node3</title>
<path fill="none" stroke="#63b8ff" d="M194.5,-197.48C194.5,-179.5 194.5,-158.94 194.5,-140.49"/>
<polygon fill="none" stroke="#63b8ff" points="191,-197.35 194.5,-207.35 198,-197.35 191,-197.35"/>
</g>
<!-- Node4 -->
<g id="node4" class="node">
<title>Node4</title>
<g id="a_node4"><a xlink:href="structMenuItemValue.xhtml" target="_top" xlink:title=" ">
<polygon fill="white" stroke="#666666" points="371.5,-173 267.5,-173 267.5,0 371.5,0 371.5,-173"/>
<text text-anchor="middle" x="319.5" y="-161" font-family="Helvetica,sans-Serif" font-size="10.00">{MenuItemValue</text>
<text text-anchor="start" x="275.5" y="-150" font-family="Helvetica,sans-Serif" font-size="10.00">|# _text</text>
<text text-anchor="start" x="275.5" y="-139" font-family="Helvetica,sans-Serif" font-size="10.00"># _ptrDouble</text>
<text text-anchor="start" x="275.5" y="-128" font-family="Helvetica,sans-Serif" font-size="10.00"># _decimals</text>
<text text-anchor="start" x="275.5" y="-117" font-family="Helvetica,sans-Serif" font-size="10.00"># _min</text>
<text text-anchor="start" x="275.5" y="-106" font-family="Helvetica,sans-Serif" font-size="10.00"># _max</text>
<text text-anchor="start" x="275.5" y="-95" font-family="Helvetica,sans-Serif" font-size="10.00">|+ MenuItemValue()</text>
<text text-anchor="start" x="275.5" y="-84" font-family="Helvetica,sans-Serif" font-size="10.00">+ ~MenuItemValue()</text>
<text text-anchor="start" x="275.5" y="-73" font-family="Helvetica,sans-Serif" font-size="10.00">+ getText()</text>
<text text-anchor="start" x="275.5" y="-62" font-family="Helvetica,sans-Serif" font-size="10.00">+ getType()</text>
<text text-anchor="start" x="275.5" y="-51" font-family="Helvetica,sans-Serif" font-size="10.00">+ getPtrDouble()</text>
<text text-anchor="start" x="275.5" y="-40" font-family="Helvetica,sans-Serif" font-size="10.00">+ getDecimals()</text>
<text text-anchor="start" x="275.5" y="-29" font-family="Helvetica,sans-Serif" font-size="10.00">+ getMin()</text>
<text text-anchor="start" x="275.5" y="-18" font-family="Helvetica,sans-Serif" font-size="10.00">+ getMax()</text>
<text text-anchor="middle" x="319.5" y="-7" font-family="Helvetica,sans-Serif" font-size="10.00">}</text>
</a>
</g>
</g>
<!-- Node1&#45;&gt;Node4 -->
<g id="edge3" class="edge">
<title>Node1&#45;&gt;Node4</title>
<path fill="none" stroke="#63b8ff" d="M235.55,-200.3C243.35,-191.4 251.31,-182.02 258.5,-173 261.34,-169.44 264.21,-165.75 267.07,-162.01"/>
<polygon fill="none" stroke="#63b8ff" points="233.17,-197.71 229.17,-207.52 238.41,-202.35 233.17,-197.71"/>
</g>
</g>
</svg>
