<?xml version="1.0" encoding="UTF-8" standalone="no"?>
<!DOCTYPE svg PUBLIC "-//W3C//DTD SVG 1.1//EN"
 "http://www.w3.org/Graphics/SVG/1.1/DTD/svg11.dtd">
<!-- Generated by graphviz version 7.0.5 (20221223.1930)
 -->
<!-- Title: ScreenValueModifier Pages: 1 -->
<svg width="133pt" height="170pt"
 viewBox="0.00 0.00 133.00 170.00" xmlns="http://www.w3.org/2000/svg" xmlns:xlink="http://www.w3.org/1999/xlink">
<g id="graph0" class="graph" transform="scale(1 1) rotate(0) translate(4 166)">
<title>ScreenValueModifier</title>
<!-- Node1 -->
<g id="node1" class="node">
<title>Node1</title>
<g id="a_node1"><a xlink:title=" ">
<polygon fill="#999999" stroke="#666666" points="125,-63 0,-63 0,0 125,0 125,-63"/>
<text text-anchor="middle" x="62.5" y="-51" font-family="Helvetica,sans-Serif" font-size="10.00">{ScreenValueModifier</text>
<text text-anchor="start" x="8" y="-40" font-family="Helvetica,sans-Serif" font-size="10.00">||+ ScreenValueModifier()</text>
<text text-anchor="start" x="8" y="-29" font-family="Helvetica,sans-Serif" font-size="10.00">+ ~ScreenValueModifier()</text>
<text text-anchor="start" x="8" y="-18" font-family="Helvetica,sans-Serif" font-size="10.00">+ draw()</text>
<text text-anchor="middle" x="62.5" y="-7" font-family="Helvetica,sans-Serif" font-size="10.00">}</text>
</a>
</g>
</g>
<!-- Node2 -->
<g id="node2" class="node">
<title>Node2</title>
<g id="a_node2"><a xlink:href="classIScreen.xhtml" target="_top" xlink:title=" ">
<polygon fill="white" stroke="#666666" points="97.5,-162 27.5,-162 27.5,-99 97.5,-99 97.5,-162"/>
<text text-anchor="middle" x="62.5" y="-150" font-family="Helvetica,sans-Serif" font-size="10.00">{IScreen</text>
<text text-anchor="start" x="35.5" y="-139" font-family="Helvetica,sans-Serif" font-size="10.00">||+ IScreen()</text>
<text text-anchor="start" x="35.5" y="-128" font-family="Helvetica,sans-Serif" font-size="10.00">+ ~IScreen()</text>
<text text-anchor="start" x="35.5" y="-117" font-family="Helvetica,sans-Serif" font-size="10.00">+ draw()</text>
<text text-anchor="middle" x="62.5" y="-106" font-family="Helvetica,sans-Serif" font-size="10.00">}</text>
</a>
</g>
</g>
<!-- Node2&#45;&gt;Node1 -->
<g id="edge1" class="edge">
<title>Node2&#45;&gt;Node1</title>
<path fill="none" stroke="#63b8ff" d="M62.5,-87.15C62.5,-79.2 62.5,-71.02 62.5,-63.5"/>
<polygon fill="none" stroke="#63b8ff" points="59,-87.03 62.5,-97.03 66,-87.03 59,-87.03"/>
</g>
</g>
</svg>
