<?xml version="1.0" encoding="UTF-8" standalone="no"?>
<!DOCTYPE svg PUBLIC "-//W3C//DTD SVG 1.1//EN"
 "http://www.w3.org/Graphics/SVG/1.1/DTD/svg11.dtd">
<!-- Generated by graphviz version 7.0.5 (20221223.1930)
 -->
<!-- Title: MenuItemSubmenu Pages: 1 -->
<svg width="284pt" height="214pt"
 viewBox="0.00 0.00 283.50 214.00" xmlns="http://www.w3.org/2000/svg" xmlns:xlink="http://www.w3.org/1999/xlink">
<g id="graph0" class="graph" transform="scale(1 1) rotate(0) translate(4 210)">
<title>MenuItemSubmenu</title>
<!-- Node1 -->
<g id="node1" class="node">
<title>Node1</title>
<g id="a_node1"><a xlink:title=" ">
<polygon fill="#999999" stroke="#666666" points="184,-85 63,-85 63,0 184,0 184,-85"/>
<text text-anchor="middle" x="123.5" y="-73" font-family="Helvetica,sans-Serif" font-size="10.00">{MenuItemSubmenu</text>
<text text-anchor="start" x="71" y="-62" font-family="Helvetica,sans-Serif" font-size="10.00">||+ MenuItemSubmenu()</text>
<text text-anchor="start" x="71" y="-51" font-family="Helvetica,sans-Serif" font-size="10.00">+ ~MenuItemSubmenu()</text>
<text text-anchor="start" x="71" y="-40" font-family="Helvetica,sans-Serif" font-size="10.00">+ getText()</text>
<text text-anchor="start" x="71" y="-29" font-family="Helvetica,sans-Serif" font-size="10.00">+ getType()</text>
<text text-anchor="start" x="71" y="-18" font-family="Helvetica,sans-Serif" font-size="10.00">+ getSubMenuList()</text>
<text text-anchor="middle" x="123.5" y="-7" font-family="Helvetica,sans-Serif" font-size="10.00">}</text>
</a>
</g>
</g>
<!-- Node2 -->
<g id="node2" class="node">
<title>Node2</title>
<g id="a_node2"><a xlink:href="classIMenuItem.xhtml" target="_top" xlink:title=" ">
<polygon fill="white" stroke="#666666" points="83,-206 0,-206 0,-132 83,-132 83,-206"/>
<text text-anchor="middle" x="41.5" y="-194" font-family="Helvetica,sans-Serif" font-size="10.00">{IMenuItem</text>
<text text-anchor="start" x="8" y="-183" font-family="Helvetica,sans-Serif" font-size="10.00">||+ IMenuItem()</text>
<text text-anchor="start" x="8" y="-172" font-family="Helvetica,sans-Serif" font-size="10.00">+ ~IMenuItem()</text>
<text text-anchor="start" x="8" y="-161" font-family="Helvetica,sans-Serif" font-size="10.00">+ getText()</text>
<text text-anchor="start" x="8" y="-150" font-family="Helvetica,sans-Serif" font-size="10.00">+ getType()</text>
<text text-anchor="middle" x="41.5" y="-139" font-family="Helvetica,sans-Serif" font-size="10.00">}</text>
</a>
</g>
</g>
<!-- Node2&#45;&gt;Node1 -->
<g id="edge1" class="edge">
<title>Node2&#45;&gt;Node1</title>
<path fill="none" stroke="#63b8ff" d="M71.66,-122.21C79.6,-110.16 88.12,-97.21 95.92,-85.37"/>
<polygon fill="none" stroke="#63b8ff" points="68.85,-120.11 66.27,-130.39 74.69,-123.96 68.85,-120.11"/>
</g>
<!-- Node3 -->
<g id="node3" class="node">
<title>Node3</title>
<g id="a_node3"><a xlink:title=" ">
<polygon fill="white" stroke="#666666" points="145.5,-184 101.5,-184 101.5,-154 145.5,-154 145.5,-184"/>
<text text-anchor="middle" x="123.5" y="-172" font-family="Helvetica,sans-Serif" font-size="10.00">{string</text>
<text text-anchor="middle" x="123.5" y="-161" font-family="Helvetica,sans-Serif" font-size="10.00">||}</text>
</a>
</g>
</g>
<!-- Node3&#45;&gt;Node1 -->
<g id="edge2" class="edge">
<title>Node3&#45;&gt;Node1</title>
<path fill="none" stroke="#404040" d="M123.5,-153.72C123.5,-140.03 123.5,-118.49 123.5,-98.07"/>
<polygon fill="none" stroke="#404040" points="123.5,-98.15 119.5,-92.15 123.5,-86.15 127.5,-92.15 123.5,-98.15"/>
<text text-anchor="middle" x="138" y="-106" font-family="Helvetica,sans-Serif" font-size="10.00"> #_text</text>
</g>
<!-- Node4 -->
<g id="node4" class="node">
<title>Node4</title>
<g id="a_node4"><a xlink:title=" ">
<polygon fill="white" stroke="#666666" points="275.5,-184 163.5,-184 163.5,-154 275.5,-154 275.5,-184"/>
<text text-anchor="middle" x="219.5" y="-172" font-family="Helvetica,sans-Serif" font-size="10.00">{const MenuItemList *</text>
<text text-anchor="middle" x="219.5" y="-161" font-family="Helvetica,sans-Serif" font-size="10.00">||}</text>
</a>
</g>
</g>
<!-- Node4&#45;&gt;Node1 -->
<g id="edge3" class="edge">
<title>Node4&#45;&gt;Node1</title>
<path fill="none" stroke="#404040" d="M208.49,-153.72C197.48,-139.45 179.9,-116.64 163.57,-95.47"/>
<polygon fill="none" stroke="#404040" points="163.57,-95.47 156.74,-93.16 156.24,-85.96 163.07,-88.27 163.57,-95.47"/>
<text text-anchor="middle" x="211.5" y="-106" font-family="Helvetica,sans-Serif" font-size="10.00"> #_subMenuList</text>
</g>
</g>
</svg>
