<?xml version="1.0" encoding="UTF-8" standalone="no"?>
<!DOCTYPE svg PUBLIC "-//W3C//DTD SVG 1.1//EN"
 "http://www.w3.org/Graphics/SVG/1.1/DTD/svg11.dtd">
<!-- Generated by graphviz version 7.0.5 (20221223.1930)
 -->
<!-- Title: IScreen Pages: 1 -->
<svg width="242pt" height="170pt"
 viewBox="0.00 0.00 242.00 170.00" xmlns="http://www.w3.org/2000/svg" xmlns:xlink="http://www.w3.org/1999/xlink">
<g id="graph0" class="graph" transform="scale(1 1) rotate(0) translate(4 166)">
<title>IScreen</title>
<!-- Node1 -->
<g id="node1" class="node">
<title>Node1</title>
<g id="a_node1"><a xlink:title=" ">
<polygon fill="#999999" stroke="#666666" points="143.5,-162 73.5,-162 73.5,-99 143.5,-99 143.5,-162"/>
<text text-anchor="middle" x="108.5" y="-150" font-family="Helvetica,sans-Serif" font-size="10.00">{IScreen</text>
<text text-anchor="start" x="81.5" y="-139" font-family="Helvetica,sans-Serif" font-size="10.00">||+ IScreen()</text>
<text text-anchor="start" x="81.5" y="-128" font-family="Helvetica,sans-Serif" font-size="10.00">+ ~IScreen()</text>
<text text-anchor="start" x="81.5" y="-117" font-family="Helvetica,sans-Serif" font-size="10.00">+ draw()</text>
<text text-anchor="middle" x="108.5" y="-106" font-family="Helvetica,sans-Serif" font-size="10.00">}</text>
</a>
</g>
</g>
<!-- Node2 -->
<g id="node2" class="node">
<title>Node2</title>
<g id="a_node2"><a xlink:href="classScreenMenu.xhtml" target="_top" xlink:title=" ">
<polygon fill="white" stroke="#666666" points="91,-63 0,-63 0,0 91,0 91,-63"/>
<text text-anchor="middle" x="45.5" y="-51" font-family="Helvetica,sans-Serif" font-size="10.00">{ScreenMenu</text>
<text text-anchor="start" x="8" y="-40" font-family="Helvetica,sans-Serif" font-size="10.00">||+ ScreenMenu()</text>
<text text-anchor="start" x="8" y="-29" font-family="Helvetica,sans-Serif" font-size="10.00">+ ~ScreenMenu()</text>
<text text-anchor="start" x="8" y="-18" font-family="Helvetica,sans-Serif" font-size="10.00">+ draw()</text>
<text text-anchor="middle" x="45.5" y="-7" font-family="Helvetica,sans-Serif" font-size="10.00">}</text>
</a>
</g>
</g>
<!-- Node1&#45;&gt;Node2 -->
<g id="edge1" class="edge">
<title>Node1&#45;&gt;Node2</title>
<path fill="none" stroke="#63b8ff" d="M82.25,-89.09C76.7,-80.54 70.92,-71.64 65.63,-63.5"/>
<polygon fill="none" stroke="#63b8ff" points="79.19,-90.79 87.57,-97.27 85.06,-86.98 79.19,-90.79"/>
</g>
<!-- Node3 -->
<g id="node3" class="node">
<title>Node3</title>
<g id="a_node3"><a xlink:href="classScreenValueModifier.xhtml" target="_top" xlink:title=" ">
<polygon fill="white" stroke="#666666" points="234,-63 109,-63 109,0 234,0 234,-63"/>
<text text-anchor="middle" x="171.5" y="-51" font-family="Helvetica,sans-Serif" font-size="10.00">{ScreenValueModifier</text>
<text text-anchor="start" x="117" y="-40" font-family="Helvetica,sans-Serif" font-size="10.00">||+ ScreenValueModifier()</text>
<text text-anchor="start" x="117" y="-29" font-family="Helvetica,sans-Serif" font-size="10.00">+ ~ScreenValueModifier()</text>
<text text-anchor="start" x="117" y="-18" font-family="Helvetica,sans-Serif" font-size="10.00">+ draw()</text>
<text text-anchor="middle" x="171.5" y="-7" font-family="Helvetica,sans-Serif" font-size="10.00">}</text>
</a>
</g>
</g>
<!-- Node1&#45;&gt;Node3 -->
<g id="edge2" class="edge">
<title>Node1&#45;&gt;Node3</title>
<path fill="none" stroke="#63b8ff" d="M134.75,-89.09C140.3,-80.54 146.08,-71.64 151.37,-63.5"/>
<polygon fill="none" stroke="#63b8ff" points="131.94,-86.98 129.43,-97.27 137.81,-90.79 131.94,-86.98"/>
</g>
</g>
</svg>
