<?xml version="1.0" encoding="UTF-8" standalone="no"?>
<!DOCTYPE svg PUBLIC "-//W3C//DTD SVG 1.1//EN"
 "http://www.w3.org/Graphics/SVG/1.1/DTD/svg11.dtd">
<!-- Generated by graphviz version 7.0.5 (20221223.1930)
 -->
<!-- Title: Display Pages: 1 -->
<svg width="202pt" height="170pt"
 viewBox="0.00 0.00 202.00 170.00" xmlns="http://www.w3.org/2000/svg" xmlns:xlink="http://www.w3.org/1999/xlink">
<g id="graph0" class="graph" transform="scale(1 1) rotate(0) translate(4 166)">
<title>Display</title>
<!-- Node1 -->
<g id="node1" class="node">
<title>Node1</title>
<g id="a_node1"><a xlink:title=" ">
<polygon fill="#999999" stroke="#666666" points="129,-63 53,-63 53,0 129,0 129,-63"/>
<text text-anchor="middle" x="91" y="-51" font-family="Helvetica,sans-Serif" font-size="10.00">{Display</text>
<text text-anchor="start" x="61" y="-40" font-family="Helvetica,sans-Serif" font-size="10.00">||+ Display()</text>
<text text-anchor="start" x="61" y="-29" font-family="Helvetica,sans-Serif" font-size="10.00">+ refresh()</text>
<text text-anchor="start" x="61" y="-18" font-family="Helvetica,sans-Serif" font-size="10.00">+ drawMenu()</text>
<text text-anchor="middle" x="91" y="-7" font-family="Helvetica,sans-Serif" font-size="10.00">}</text>
</a>
</g>
</g>
<!-- Node2 -->
<g id="node2" class="node">
<title>Node2</title>
<g id="a_node2"><a xlink:href="classIDisplay.xhtml" target="_top" xlink:title="Interface to a display capable of displaying various information to a human.">
<polygon fill="white" stroke="#666666" points="76,-162 0,-162 0,-110 76,-110 76,-162"/>
<text text-anchor="middle" x="38" y="-150" font-family="Helvetica,sans-Serif" font-size="10.00">{IDisplay</text>
<text text-anchor="start" x="8" y="-139" font-family="Helvetica,sans-Serif" font-size="10.00">||+ refresh()</text>
<text text-anchor="start" x="8" y="-128" font-family="Helvetica,sans-Serif" font-size="10.00">+ drawMenu()</text>
<text text-anchor="middle" x="38" y="-117" font-family="Helvetica,sans-Serif" font-size="10.00">}</text>
</a>
</g>
</g>
<!-- Node2&#45;&gt;Node1 -->
<g id="edge1" class="edge">
<title>Node2&#45;&gt;Node1</title>
<path fill="none" stroke="#63b8ff" d="M56.26,-99.69C62.36,-87.89 69.11,-74.83 75.02,-63.4"/>
<polygon fill="none" stroke="#63b8ff" points="53.28,-97.83 51.8,-108.32 59.5,-101.04 53.28,-97.83"/>
</g>
<!-- Node3 -->
<g id="node3" class="node">
<title>Node3</title>
<g id="a_node3"><a xlink:title=" ">
<polygon fill="white" stroke="#666666" points="194,-151 94,-151 94,-121 194,-121 194,-151"/>
<text text-anchor="middle" x="144" y="-139" font-family="Helvetica,sans-Serif" font-size="10.00">{Adafruit_SSD1306</text>
<text text-anchor="middle" x="144" y="-128" font-family="Helvetica,sans-Serif" font-size="10.00">||}</text>
</a>
</g>
</g>
<!-- Node3&#45;&gt;Node1 -->
<g id="edge2" class="edge">
<title>Node3&#45;&gt;Node1</title>
<path fill="none" stroke="#404040" d="M136.63,-120.75C130.5,-108.88 121.43,-91.36 113,-75.05"/>
<polygon fill="none" stroke="#404040" points="112.94,-74.94 106.64,-71.45 107.43,-64.28 113.74,-67.77 112.94,-74.94"/>
<text text-anchor="middle" x="139.5" y="-84" font-family="Helvetica,sans-Serif" font-size="10.00"> +display</text>
</g>
</g>
</svg>
