<?xml version="1.0" encoding="UTF-8" standalone="no"?>
<!DOCTYPE svg PUBLIC "-//W3C//DTD SVG 1.1//EN"
 "http://www.w3.org/Graphics/SVG/1.1/DTD/svg11.dtd">
<!-- Generated by graphviz version 7.0.5 (20221223.1930)
 -->
<!-- Title: lib Pages: 1 -->
<svg width="629pt" height="304pt"
 viewBox="0.00 0.00 629.00 303.50" xmlns="http://www.w3.org/2000/svg" xmlns:xlink="http://www.w3.org/1999/xlink">
<g id="graph0" class="graph" transform="scale(1 1) rotate(0) translate(4 299.5)">
<title>lib</title>
<g id="clust1" class="cluster">
<title>clusterdir_97aefd0d527b934f1d99a682da8fe6a9</title>
<g id="a_clust1"><a xlink:href="dir_97aefd0d527b934f1d99a682da8fe6a9.xhtml" target="_top">
<polygon fill="#edf0f7" stroke="#404040" stroke-width="2" points="8,-8 8,-287.5 613,-287.5 613,-8 8,-8"/>
</a>
</g>
</g>
<g id="clust4" class="cluster">
<title>clusterdir_b49365647f74dff1c8dd1e88d29293e4</title>
<g id="a_clust4"><a xlink:href="dir_b49365647f74dff1c8dd1e88d29293e4.xhtml" target="_top" xlink:title="Package Board Adapters.">
<polygon fill="#c8d2e7" stroke="#404040" points="16,-123.5 16,-219 357,-219 357,-123.5 16,-123.5"/>
</a>
</g>
</g>
<g id="clust3" class="cluster">
<title>clusterdir_6dbb42d2342d9d7292a192bc1d024acc</title>
<g id="a_clust3"><a xlink:href="dir_6dbb42d2342d9d7292a192bc1d024acc.xhtml" target="_top" xlink:title="Package Application Business Rules.">
<polygon fill="#c8d2e7" stroke="#404040" points="365,-63 365,-164 593,-164 593,-63 365,-63"/>
</a>
</g>
</g>
<g id="clust2" class="cluster">
<title>clusterdir_e75212beacfa7863df067e044f07f232</title>
<g id="a_clust2"><a xlink:href="dir_e75212beacfa7863df067e044f07f232.xhtml" target="_top" xlink:title="Package 3rd Party Adapters.">
<polygon fill="#c8d2e7" stroke="#404040" points="359,-244.5 359,-279.5 605,-279.5 605,-244.5 359,-244.5"/>
</a>
</g>
</g>
<!-- dir_97aefd0d527b934f1d99a682da8fe6a9 -->
<g id="node1" class="node">
<title>dir_97aefd0d527b934f1d99a682da8fe6a9</title>
<text text-anchor="middle" x="290" y="-259.5" font-family="Helvetica,sans-Serif" font-size="10.00">lib</text>
</g>
<!-- dir_e75212beacfa7863df067e044f07f232 -->
<g id="node2" class="node">
<title>dir_e75212beacfa7863df067e044f07f232</title>
<text text-anchor="middle" x="547" y="-259.5" font-family="Helvetica,sans-Serif" font-size="10.00">3rd_party_adapters</text>
</g>
<!-- dir_e5c908e09902ac05aca8138811a01df8 -->
<g id="node3" class="node">
<title>dir_e5c908e09902ac05aca8138811a01df8</title>
<g id="a_node3"><a xlink:href="dir_e5c908e09902ac05aca8138811a01df8.xhtml" target="_top" xlink:title="Arduino">
<polygon fill="#a2b4d6" stroke="#404040" points="479,-271.5 429,-271.5 429,-252.5 479,-252.5 479,-271.5"/>
<text text-anchor="middle" x="454" y="-259.5" font-family="Helvetica,sans-Serif" font-size="10.00">Arduino</text>
</a>
</g>
</g>
<!-- dir_17a6007a5c84c34f300c622be50c188b -->
<g id="node6" class="node">
<title>dir_17a6007a5c84c34f300c622be50c188b</title>
<g id="a_node6"><a xlink:href="dir_17a6007a5c84c34f300c622be50c188b.xhtml" target="_top" xlink:title="serial_interface">
<polygon fill="#a2b4d6" stroke="#404040" points="526.5,-90 443.5,-90 443.5,-71 526.5,-71 526.5,-90"/>
<text text-anchor="middle" x="485" y="-78" font-family="Helvetica,sans-Serif" font-size="10.00">serial_interface</text>
</a>
</g>
</g>
<!-- dir_e5c908e09902ac05aca8138811a01df8&#45;&gt;dir_17a6007a5c84c34f300c622be50c188b -->
<g id="edge1" class="edge">
<title>dir_e5c908e09902ac05aca8138811a01df8&#45;&gt;dir_17a6007a5c84c34f300c622be50c188b</title>
<path fill="none" stroke="#63b8ff" d="M470.73,-252.03C504.87,-233.33 580.49,-189.8 594,-164 602.35,-148.05 604.19,-138.34 594,-123.5 581.26,-104.93 559.06,-94.57 538.01,-88.79"/>
<polygon fill="#63b8ff" stroke="#63b8ff" points="538.84,-85.39 528.3,-86.45 537.2,-92.2 538.84,-85.39"/>
<g id="a_edge1&#45;headlabel"><a xlink:href="dir_000002_000011.xhtml" target="_top" xlink:title="2">
<text text-anchor="middle" x="541.53" y="-80.62" font-family="Helvetica,sans-Serif" font-size="10.00" fill="#63b8ff">2</text>
</a>
</g>
</g>
<!-- dir_b49365647f74dff1c8dd1e88d29293e4 -->
<g id="node9" class="node">
<title>dir_b49365647f74dff1c8dd1e88d29293e4</title>
<text text-anchor="middle" x="198" y="-199" font-family="Helvetica,sans-Serif" font-size="10.00">board_adapters</text>
</g>
<!-- dir_e5c908e09902ac05aca8138811a01df8&#45;&gt;dir_b49365647f74dff1c8dd1e88d29293e4 -->
<g id="edge2" class="edge">
<title>dir_e5c908e09902ac05aca8138811a01df8&#45;&gt;dir_b49365647f74dff1c8dd1e88d29293e4</title>
<path fill="none" stroke="#63b8ff" d="M438.15,-252.07C432.57,-249.26 426.14,-246.4 420,-244.5 346.16,-221.7 323.19,-236.84 248,-219 242.67,-217.73 237.09,-216.16 231.67,-214.48"/>
<polygon fill="#63b8ff" stroke="#63b8ff" points="232.94,-211.22 222.35,-211.45 230.78,-217.87 232.94,-211.22"/>
<g id="a_edge2&#45;headlabel"><a xlink:href="dir_000002_000003.xhtml" target="_top" xlink:title="1">
<text text-anchor="middle" x="235.8" y="-206.66" font-family="Helvetica,sans-Serif" font-size="10.00" fill="#63b8ff">1</text>
</a>
</g>
</g>
<!-- dir_673789fe363c8cf83b6beac9ec7c58fa -->
<g id="node4" class="node">
<title>dir_673789fe363c8cf83b6beac9ec7c58fa</title>
<g id="a_node4"><a xlink:href="dir_673789fe363c8cf83b6beac9ec7c58fa.xhtml" target="_top" xlink:title="LVGL">
<polygon fill="#a2b4d6" stroke="#404040" points="410.5,-271.5 367.5,-271.5 367.5,-252.5 410.5,-252.5 410.5,-271.5"/>
<text text-anchor="middle" x="389" y="-259.5" font-family="Helvetica,sans-Serif" font-size="10.00">LVGL</text>
</a>
</g>
</g>
<!-- dir_6c970bd3e9ed525c032ca1b33f237f5b -->
<g id="node8" class="node">
<title>dir_6c970bd3e9ed525c032ca1b33f237f5b</title>
<g id="a_node8"><a xlink:href="dir_6c970bd3e9ed525c032ca1b33f237f5b.xhtml" target="_top" xlink:title="user_interaction">
<polygon fill="#a2b4d6" stroke="#404040" points="459,-150.5 373,-150.5 373,-131.5 459,-131.5 459,-150.5"/>
<text text-anchor="middle" x="416" y="-138.5" font-family="Helvetica,sans-Serif" font-size="10.00">user_interaction</text>
</a>
</g>
</g>
<!-- dir_673789fe363c8cf83b6beac9ec7c58fa&#45;&gt;dir_6c970bd3e9ed525c032ca1b33f237f5b -->
<g id="edge3" class="edge">
<title>dir_673789fe363c8cf83b6beac9ec7c58fa&#45;&gt;dir_6c970bd3e9ed525c032ca1b33f237f5b</title>
<path fill="none" stroke="#63b8ff" d="M391.03,-252.06C395.35,-233.01 405.55,-188.06 411.49,-161.87"/>
<polygon fill="#63b8ff" stroke="#63b8ff" points="414.89,-162.73 413.69,-152.2 408.06,-161.18 414.89,-162.73"/>
<g id="a_edge3&#45;headlabel"><a xlink:href="dir_000010_000021.xhtml" target="_top" xlink:title="6">
<text text-anchor="middle" x="417.19" y="-162.89" font-family="Helvetica,sans-Serif" font-size="10.00" fill="#63b8ff">6</text>
</a>
</g>
</g>
<!-- dir_673789fe363c8cf83b6beac9ec7c58fa&#45;&gt;dir_b49365647f74dff1c8dd1e88d29293e4 -->
<g id="edge4" class="edge">
<title>dir_673789fe363c8cf83b6beac9ec7c58fa&#45;&gt;dir_b49365647f74dff1c8dd1e88d29293e4</title>
<path fill="none" stroke="#63b8ff" d="M376.79,-252.02C372.59,-249.27 367.74,-246.46 363,-244.5 314.62,-224.51 298.48,-232.89 248,-219 243.06,-217.64 237.88,-216.08 232.81,-214.48"/>
<polygon fill="#63b8ff" stroke="#63b8ff" points="234.04,-211.2 223.45,-211.44 231.87,-217.86 234.04,-211.2"/>
<g id="a_edge4&#45;headlabel"><a xlink:href="dir_000010_000003.xhtml" target="_top" xlink:title="1">
<text text-anchor="middle" x="236.9" y="-206.65" font-family="Helvetica,sans-Serif" font-size="10.00" fill="#63b8ff">1</text>
</a>
</g>
</g>
<!-- dir_6dbb42d2342d9d7292a192bc1d024acc -->
<g id="node5" class="node">
<title>dir_6dbb42d2342d9d7292a192bc1d024acc</title>
<text text-anchor="start" x="485.5" y="-144" font-family="Helvetica,sans-Serif" font-size="10.00">application_business</text>
<text text-anchor="middle" x="531" y="-133" font-family="Helvetica,sans-Serif" font-size="10.00">_rules</text>
</g>
<!-- dir_3a2f33b0f26bc6229d595c2c354e6333 -->
<g id="node14" class="node">
<title>dir_3a2f33b0f26bc6229d595c2c354e6333</title>
<g id="a_node14"><a xlink:href="dir_3a2f33b0f26bc6229d595c2c354e6333.xhtml" target="_top" xlink:title="Package Utilities.">
<polygon fill="#c8d2e7" stroke="#404040" points="339.5,-35 292.5,-35 292.5,-16 339.5,-16 339.5,-35"/>
<text text-anchor="middle" x="316" y="-23" font-family="Helvetica,sans-Serif" font-size="10.00">utilities</text>
</a>
</g>
</g>
<!-- dir_17a6007a5c84c34f300c622be50c188b&#45;&gt;dir_3a2f33b0f26bc6229d595c2c354e6333 -->
<g id="edge5" class="edge">
<title>dir_17a6007a5c84c34f300c622be50c188b&#45;&gt;dir_3a2f33b0f26bc6229d595c2c354e6333</title>
<path fill="none" stroke="#63b8ff" d="M458.31,-70.58C450.78,-68.09 442.58,-65.41 435,-63 406.69,-53.99 374.46,-44.13 350.69,-36.93"/>
<polygon fill="#63b8ff" stroke="#63b8ff" points="351.79,-33.6 341.2,-34.06 349.76,-40.31 351.79,-33.6"/>
<g id="a_edge5&#45;headlabel"><a xlink:href="dir_000011_000022.xhtml" target="_top" xlink:title="1">
<text text-anchor="middle" x="354.6" y="-28.99" font-family="Helvetica,sans-Serif" font-size="10.00" fill="#63b8ff">1</text>
</a>
</g>
</g>
<!-- dir_dab382b21b73aae3d74d7668eeeacf78 -->
<g id="node7" class="node">
<title>dir_dab382b21b73aae3d74d7668eeeacf78</title>
<g id="a_node7"><a xlink:href="dir_dab382b21b73aae3d74d7668eeeacf78.xhtml" target="_top" xlink:title="tasks">
<polygon fill="#a2b4d6" stroke="#404040" points="425.5,-90 384.5,-90 384.5,-71 425.5,-71 425.5,-90"/>
<text text-anchor="middle" x="405" y="-78" font-family="Helvetica,sans-Serif" font-size="10.00">tasks</text>
</a>
</g>
</g>
<!-- dir_6c970bd3e9ed525c032ca1b33f237f5b&#45;&gt;dir_673789fe363c8cf83b6beac9ec7c58fa -->
<g id="edge8" class="edge">
<title>dir_6c970bd3e9ed525c032ca1b33f237f5b&#45;&gt;dir_673789fe363c8cf83b6beac9ec7c58fa</title>
<path fill="none" stroke="#63b8ff" d="M415.8,-150.7C415.28,-165.12 413.45,-194.81 407,-219 404.93,-226.75 401.69,-234.94 398.52,-242"/>
<polygon fill="#63b8ff" stroke="#63b8ff" points="395.43,-240.36 394.29,-250.89 401.75,-243.37 395.43,-240.36"/>
<g id="a_edge8&#45;headlabel"><a xlink:href="dir_000021_000010.xhtml" target="_top" xlink:title="1">
<text text-anchor="middle" x="393.76" y="-234.76" font-family="Helvetica,sans-Serif" font-size="10.00" fill="#63b8ff">1</text>
</a>
</g>
</g>
<!-- dir_6c970bd3e9ed525c032ca1b33f237f5b&#45;&gt;dir_17a6007a5c84c34f300c622be50c188b -->
<g id="edge6" class="edge">
<title>dir_6c970bd3e9ed525c032ca1b33f237f5b&#45;&gt;dir_17a6007a5c84c34f300c622be50c188b</title>
<path fill="none" stroke="#63b8ff" d="M426.48,-131.12C436.92,-122.27 453.17,-108.48 465.91,-97.69"/>
<polygon fill="#63b8ff" stroke="#63b8ff" points="467.9,-100.58 473.27,-91.45 463.38,-95.24 467.9,-100.58"/>
<g id="a_edge6&#45;headlabel"><a xlink:href="dir_000021_000011.xhtml" target="_top" xlink:title="1">
<text text-anchor="middle" x="468.15" y="-101.6" font-family="Helvetica,sans-Serif" font-size="10.00" fill="#63b8ff">1</text>
</a>
</g>
</g>
<!-- dir_6c970bd3e9ed525c032ca1b33f237f5b&#45;&gt;dir_dab382b21b73aae3d74d7668eeeacf78 -->
<g id="edge9" class="edge">
<title>dir_6c970bd3e9ed525c032ca1b33f237f5b&#45;&gt;dir_dab382b21b73aae3d74d7668eeeacf78</title>
<path fill="none" stroke="#63b8ff" d="M414.38,-131.37C412.9,-123.5 410.66,-111.6 408.74,-101.39"/>
<polygon fill="#63b8ff" stroke="#63b8ff" points="412.2,-100.84 406.91,-91.65 405.32,-102.13 412.2,-100.84"/>
<g id="a_edge9&#45;headlabel"><a xlink:href="dir_000021_000015.xhtml" target="_top" xlink:title="1">
<text text-anchor="middle" x="415.37" y="-99.86" font-family="Helvetica,sans-Serif" font-size="10.00" fill="#63b8ff">1</text>
</a>
</g>
</g>
<!-- dir_6c970bd3e9ed525c032ca1b33f237f5b&#45;&gt;dir_3a2f33b0f26bc6229d595c2c354e6333 -->
<g id="edge7" class="edge">
<title>dir_6c970bd3e9ed525c032ca1b33f237f5b&#45;&gt;dir_3a2f33b0f26bc6229d595c2c354e6333</title>
<path fill="none" stroke="#63b8ff" d="M408.15,-131.09C391.58,-112.28 352.75,-68.21 331.16,-43.71"/>
<polygon fill="#63b8ff" stroke="#63b8ff" points="334.05,-41.69 324.81,-36.5 328.8,-46.32 334.05,-41.69"/>
<g id="a_edge7&#45;headlabel"><a xlink:href="dir_000021_000022.xhtml" target="_top" xlink:title="2">
<text text-anchor="middle" x="337.55" y="-38.87" font-family="Helvetica,sans-Serif" font-size="10.00" fill="#63b8ff">2</text>
</a>
</g>
</g>
<!-- dir_b49365647f74dff1c8dd1e88d29293e4&#45;&gt;dir_6c970bd3e9ed525c032ca1b33f237f5b -->
<g id="edge11" class="edge">
<title>dir_b49365647f74dff1c8dd1e88d29293e4&#45;&gt;dir_6c970bd3e9ed525c032ca1b33f237f5b</title>
<path fill="none" stroke="#63b8ff" d="M239.34,-193.14C272.58,-186.78 320.28,-176.61 361,-164 369.01,-161.52 377.5,-158.38 385.35,-155.27"/>
<polygon fill="#63b8ff" stroke="#63b8ff" points="386.58,-158.54 394.51,-151.51 383.93,-152.07 386.58,-158.54"/>
<g id="a_edge11&#45;headlabel"><a xlink:href="dir_000003_000021.xhtml" target="_top" xlink:title="6">
<text text-anchor="middle" x="385.73" y="-159.46" font-family="Helvetica,sans-Serif" font-size="10.00" fill="#63b8ff">6</text>
</a>
</g>
</g>
<!-- dir_5d3f509552af106634de565dc9d6f33a -->
<g id="node11" class="node">
<title>dir_5d3f509552af106634de565dc9d6f33a</title>
<g id="a_node11"><a xlink:href="dir_5d3f509552af106634de565dc9d6f33a.xhtml" target="_top" xlink:title="sound_output_interface">
<polygon fill="#a2b4d6" stroke="#404040" points="349,-150.5 231,-150.5 231,-131.5 349,-131.5 349,-150.5"/>
<text text-anchor="middle" x="290" y="-138.5" font-family="Helvetica,sans-Serif" font-size="10.00">sound_output_interface</text>
</a>
</g>
</g>
<!-- dir_b49365647f74dff1c8dd1e88d29293e4&#45;&gt;dir_5d3f509552af106634de565dc9d6f33a -->
<g id="edge10" class="edge">
<title>dir_b49365647f74dff1c8dd1e88d29293e4&#45;&gt;dir_5d3f509552af106634de565dc9d6f33a</title>
<path fill="none" stroke="#63b8ff" d="M211.18,-192.12C225.55,-182.98 248.84,-168.17 266.38,-157.02"/>
<polygon fill="#63b8ff" stroke="#63b8ff" points="268.1,-160.07 274.66,-151.75 264.34,-154.17 268.1,-160.07"/>
<g id="a_edge10&#45;headlabel"><a xlink:href="dir_000003_000012.xhtml" target="_top" xlink:title="1">
<text text-anchor="middle" x="267.87" y="-161.09" font-family="Helvetica,sans-Serif" font-size="10.00" fill="#63b8ff">1</text>
</a>
</g>
</g>
<!-- dir_8d1ee3be5d3bd43266cde43195651fe0 -->
<g id="node10" class="node">
<title>dir_8d1ee3be5d3bd43266cde43195651fe0</title>
<g id="a_node10"><a xlink:href="dir_8d1ee3be5d3bd43266cde43195651fe0.xhtml" target="_top" xlink:title="input_device_interface">
<polygon fill="#a2b4d6" stroke="#404040" points="138,-211 24,-211 24,-192 138,-192 138,-211"/>
<text text-anchor="middle" x="81" y="-199" font-family="Helvetica,sans-Serif" font-size="10.00">input_device_interface</text>
</a>
</g>
</g>
<!-- dir_8d1ee3be5d3bd43266cde43195651fe0&#45;&gt;dir_6c970bd3e9ed525c032ca1b33f237f5b -->
<g id="edge13" class="edge">
<title>dir_8d1ee3be5d3bd43266cde43195651fe0&#45;&gt;dir_6c970bd3e9ed525c032ca1b33f237f5b</title>
<path fill="none" stroke="#63b8ff" d="M138.33,-193.12C219.46,-182.66 358.32,-164.7 361,-164 369.48,-161.79 378.42,-158.61 386.56,-155.35"/>
<polygon fill="#63b8ff" stroke="#63b8ff" points="387.79,-158.63 395.66,-151.53 385.08,-152.18 387.79,-158.63"/>
<g id="a_edge13&#45;headlabel"><a xlink:href="dir_000008_000021.xhtml" target="_top" xlink:title="2">
<text text-anchor="middle" x="386.97" y="-159.56" font-family="Helvetica,sans-Serif" font-size="10.00" fill="#63b8ff">2</text>
</a>
</g>
</g>
<!-- dir_8d1ee3be5d3bd43266cde43195651fe0&#45;&gt;dir_3a2f33b0f26bc6229d595c2c354e6333 -->
<g id="edge12" class="edge">
<title>dir_8d1ee3be5d3bd43266cde43195651fe0&#45;&gt;dir_3a2f33b0f26bc6229d595c2c354e6333</title>
<path fill="none" stroke="#63b8ff" d="M92.98,-191.63C130.61,-163.77 246.84,-77.71 294.88,-42.14"/>
<polygon fill="#63b8ff" stroke="#63b8ff" points="296.88,-45.01 302.83,-36.25 292.71,-39.39 296.88,-45.01"/>
<g id="a_edge12&#45;headlabel"><a xlink:href="dir_000008_000022.xhtml" target="_top" xlink:title="1">
<text text-anchor="middle" x="296.89" y="-46.03" font-family="Helvetica,sans-Serif" font-size="10.00" fill="#63b8ff">1</text>
</a>
</g>
</g>
<!-- dir_5d3f509552af106634de565dc9d6f33a&#45;&gt;dir_6c970bd3e9ed525c032ca1b33f237f5b -->
<g id="edge15" class="edge">
<title>dir_5d3f509552af106634de565dc9d6f33a&#45;&gt;dir_6c970bd3e9ed525c032ca1b33f237f5b</title>
<path fill="none" stroke="#63b8ff" d="M349.06,-141C353.11,-141 357.15,-141 361.2,-141"/>
<polygon fill="#63b8ff" stroke="#63b8ff" points="361.08,-144.5 371.08,-141 361.08,-137.5 361.08,-144.5"/>
<g id="a_edge15&#45;headlabel"><a xlink:href="dir_000012_000021.xhtml" target="_top" xlink:title="1">
<text text-anchor="middle" x="359" y="-144.84" font-family="Helvetica,sans-Serif" font-size="10.00" fill="#63b8ff">1</text>
</a>
</g>
</g>
<!-- dir_5d3f509552af106634de565dc9d6f33a&#45;&gt;dir_3a2f33b0f26bc6229d595c2c354e6333 -->
<g id="edge14" class="edge">
<title>dir_5d3f509552af106634de565dc9d6f33a&#45;&gt;dir_3a2f33b0f26bc6229d595c2c354e6333</title>
<path fill="none" stroke="#63b8ff" d="M292.04,-131.09C296.2,-112.94 305.74,-71.29 311.45,-46.37"/>
<polygon fill="#63b8ff" stroke="#63b8ff" points="314.81,-47.37 313.63,-36.84 307.99,-45.81 314.81,-47.37"/>
<g id="a_edge14&#45;headlabel"><a xlink:href="dir_000012_000022.xhtml" target="_top" xlink:title="1">
<text text-anchor="middle" x="317.11" y="-47.53" font-family="Helvetica,sans-Serif" font-size="10.00" fill="#63b8ff">1</text>
</a>
</g>
</g>
<!-- dir_dd038f7b9d5ffa107a6117feec92b6ac -->
<g id="node12" class="node">
<title>dir_dd038f7b9d5ffa107a6117feec92b6ac</title>
<g id="a_node12"><a xlink:href="dir_dd038f7b9d5ffa107a6117feec92b6ac.xhtml" target="_top" xlink:title="status_indicators">
<polygon fill="#a2b4d6" stroke="#404040" points="348.5,-211 257.5,-211 257.5,-192 348.5,-192 348.5,-211"/>
<text text-anchor="middle" x="303" y="-199" font-family="Helvetica,sans-Serif" font-size="10.00">status_indicators</text>
</a>
</g>
</g>
<!-- dir_dd038f7b9d5ffa107a6117feec92b6ac&#45;&gt;dir_6c970bd3e9ed525c032ca1b33f237f5b -->
<g id="edge16" class="edge">
<title>dir_dd038f7b9d5ffa107a6117feec92b6ac&#45;&gt;dir_6c970bd3e9ed525c032ca1b33f237f5b</title>
<path fill="none" stroke="#63b8ff" d="M320.16,-191.62C338.33,-182.21 367.28,-167.22 388.61,-156.18"/>
<polygon fill="#63b8ff" stroke="#63b8ff" points="390.06,-159.37 397.33,-151.66 386.84,-153.15 390.06,-159.37"/>
<g id="a_edge16&#45;headlabel"><a xlink:href="dir_000014_000021.xhtml" target="_top" xlink:title="2">
<text text-anchor="middle" x="389.52" y="-160.35" font-family="Helvetica,sans-Serif" font-size="10.00" fill="#63b8ff">2</text>
</a>
</g>
</g>
<!-- dir_71046b38222792489c3876836d4fbdbc -->
<g id="node13" class="node">
<title>dir_71046b38222792489c3876836d4fbdbc</title>
<g id="a_node13"><a xlink:href="dir_71046b38222792489c3876836d4fbdbc.xhtml" target="_top" xlink:title="Package Enterprise Business Rules.">
<polygon fill="#c8d2e7" stroke="#404040" points="166,-277 62,-277 62,-247 166,-247 166,-277"/>
<text text-anchor="start" x="70" y="-265" font-family="Helvetica,sans-Serif" font-size="10.00">enterprise_business</text>
<text text-anchor="middle" x="114" y="-254" font-family="Helvetica,sans-Serif" font-size="10.00">_rules</text>
</a>
</g>
</g>
</g>
</svg>
