<?xml version="1.0" encoding="UTF-8" standalone="no"?>
<!DOCTYPE svg PUBLIC "-//W3C//DTD SVG 1.1//EN"
 "http://www.w3.org/Graphics/SVG/1.1/DTD/svg11.dtd">
<!-- Generated by graphviz version 7.0.5 (20221223.1930)
 -->
<!-- Title: lib/3rd_party_adapters/LVGL/Display.cpp Pages: 1 -->
<svg width="651pt" height="258pt"
 viewBox="0.00 0.00 650.50 258.00" xmlns="http://www.w3.org/2000/svg" xmlns:xlink="http://www.w3.org/1999/xlink">
<g id="graph0" class="graph" transform="scale(1 1) rotate(0) translate(4 254)">
<title>lib/3rd_party_adapters/LVGL/Display.cpp</title>
<!-- Node1 -->
<g id="node1" class="node">
<title>Node1</title>
<g id="a_node1"><a xlink:title=" ">
<polygon fill="#999999" stroke="#666666" points="538,-250 426,-250 426,-220 538,-220 538,-250"/>
<text text-anchor="start" x="434" y="-238" font-family="Helvetica,sans-Serif" font-size="10.00">lib/3rd_party_adapters</text>
<text text-anchor="middle" x="482" y="-227" font-family="Helvetica,sans-Serif" font-size="10.00">/LVGL/Display.cpp</text>
</a>
</g>
</g>
<!-- Node2 -->
<g id="node2" class="node">
<title>Node2</title>
<g id="a_node2"><a xlink:href="Display_8hpp.xhtml" target="_top" xlink:title=" ">
<polygon fill="white" stroke="#666666" points="271,-184 205,-184 205,-165 271,-165 271,-184"/>
<text text-anchor="middle" x="238" y="-172" font-family="Helvetica,sans-Serif" font-size="10.00">Display.hpp</text>
</a>
</g>
</g>
<!-- Node1&#45;&gt;Node2 -->
<g id="edge1" class="edge">
<title>Node1&#45;&gt;Node2</title>
<path fill="none" stroke="#63b8ff" d="M425.72,-220.51C382.2,-210.07 322.78,-195.83 282.54,-186.18"/>
<polygon fill="#63b8ff" stroke="#63b8ff" points="283.48,-182.81 272.94,-183.88 281.85,-189.61 283.48,-182.81"/>
</g>
<!-- Node3 -->
<g id="node3" class="node">
<title>Node3</title>
<g id="a_node3"><a xlink:title=" ">
<polygon fill="#e0e0e0" stroke="#999999" points="104,-129 0,-129 0,-110 104,-110 104,-129"/>
<text text-anchor="middle" x="52" y="-117" font-family="Helvetica,sans-Serif" font-size="10.00">Adafruit_SSD1306.h</text>
</a>
</g>
</g>
<!-- Node1&#45;&gt;Node3 -->
<g id="edge10" class="edge">
<title>Node1&#45;&gt;Node3</title>
<path fill="none" stroke="#63b8ff" d="M425.71,-228.24C367.34,-221.33 273.91,-207.61 196,-184 153.34,-171.07 106.56,-148.83 78.25,-134.4"/>
<polygon fill="#63b8ff" stroke="#63b8ff" points="80.18,-131.46 69.69,-129.98 76.97,-137.68 80.18,-131.46"/>
</g>
<!-- Node8 -->
<g id="node8" class="node">
<title>Node8</title>
<g id="a_node8"><a xlink:href="MenuItem_8hpp.xhtml" target="_top" xlink:title=" ">
<polygon fill="white" stroke="#666666" points="521,-74 443,-74 443,-55 521,-55 521,-74"/>
<text text-anchor="middle" x="482" y="-62" font-family="Helvetica,sans-Serif" font-size="10.00">MenuItem.hpp</text>
</a>
</g>
</g>
<!-- Node1&#45;&gt;Node8 -->
<g id="edge12" class="edge">
<title>Node1&#45;&gt;Node8</title>
<path fill="none" stroke="#63b8ff" d="M482,-219.63C482,-189.57 482,-119.97 482,-85.54"/>
<polygon fill="#63b8ff" stroke="#63b8ff" points="485.5,-85.73 482,-75.73 478.5,-85.73 485.5,-85.73"/>
</g>
<!-- Node11 -->
<g id="node11" class="node">
<title>Node11</title>
<g id="a_node11"><a xlink:title=" ">
<polygon fill="#e0e0e0" stroke="#999999" points="559.5,-184 510.5,-184 510.5,-165 559.5,-165 559.5,-184"/>
<text text-anchor="middle" x="535" y="-172" font-family="Helvetica,sans-Serif" font-size="10.00">cassert</text>
</a>
</g>
</g>
<!-- Node1&#45;&gt;Node11 -->
<g id="edge11" class="edge">
<title>Node1&#45;&gt;Node11</title>
<path fill="none" stroke="#63b8ff" d="M495.1,-219.54C502.48,-211.39 511.75,-201.16 519.5,-192.61"/>
<polygon fill="#63b8ff" stroke="#63b8ff" points="522,-195.06 526.12,-185.3 516.82,-190.36 522,-195.06"/>
</g>
<!-- Node12 -->
<g id="node12" class="node">
<title>Node12</title>
<g id="a_node12"><a xlink:href="Screen_8hpp.xhtml" target="_top" xlink:title=" ">
<polygon fill="white" stroke="#666666" points="642.5,-184 577.5,-184 577.5,-165 642.5,-165 642.5,-184"/>
<text text-anchor="middle" x="610" y="-172" font-family="Helvetica,sans-Serif" font-size="10.00">Screen.hpp</text>
</a>
</g>
</g>
<!-- Node1&#45;&gt;Node12 -->
<g id="edge13" class="edge">
<title>Node1&#45;&gt;Node12</title>
<path fill="none" stroke="#63b8ff" d="M513.64,-219.54C534,-210.23 560.3,-198.22 580.27,-189.09"/>
<polygon fill="#63b8ff" stroke="#63b8ff" points="581.63,-192.32 589.27,-184.98 578.72,-185.95 581.63,-192.32"/>
</g>
<!-- Node2&#45;&gt;Node3 -->
<g id="edge2" class="edge">
<title>Node2&#45;&gt;Node3</title>
<path fill="none" stroke="#63b8ff" d="M206.45,-164.51C175.63,-155.73 128.5,-142.3 94.41,-132.59"/>
<polygon fill="#63b8ff" stroke="#63b8ff" points="95.43,-129.24 84.85,-129.86 93.51,-135.97 95.43,-129.24"/>
</g>
<!-- Node4 -->
<g id="node4" class="node">
<title>Node4</title>
<g id="a_node4"><a xlink:title=" ">
<polygon fill="#e0e0e0" stroke="#999999" points="168,-129 122,-129 122,-110 168,-110 168,-129"/>
<text text-anchor="middle" x="145" y="-117" font-family="Helvetica,sans-Serif" font-size="10.00">cstdint</text>
</a>
</g>
</g>
<!-- Node2&#45;&gt;Node4 -->
<g id="edge3" class="edge">
<title>Node2&#45;&gt;Node4</title>
<path fill="none" stroke="#63b8ff" d="M222.22,-164.51C207.98,-156.39 186.76,-144.3 170.17,-134.85"/>
<polygon fill="#63b8ff" stroke="#63b8ff" points="172.28,-132.02 161.86,-130.11 168.81,-138.1 172.28,-132.02"/>
</g>
<!-- Node5 -->
<g id="node5" class="node">
<title>Node5</title>
<g id="a_node5"><a xlink:title=" ">
<polygon fill="#e0e0e0" stroke="#999999" points="225.5,-129 186.5,-129 186.5,-110 225.5,-110 225.5,-129"/>
<text text-anchor="middle" x="206" y="-117" font-family="Helvetica,sans-Serif" font-size="10.00">lvgl.h</text>
</a>
</g>
</g>
<!-- Node2&#45;&gt;Node5 -->
<g id="edge4" class="edge">
<title>Node2&#45;&gt;Node5</title>
<path fill="none" stroke="#63b8ff" d="M232.72,-164.75C228.53,-157.81 222.52,-147.86 217.27,-139.16"/>
<polygon fill="#63b8ff" stroke="#63b8ff" points="220.35,-137.49 212.18,-130.74 214.35,-141.11 220.35,-137.49"/>
</g>
<!-- Node6 -->
<g id="node6" class="node">
<title>Node6</title>
<g id="a_node6"><a xlink:title=" ">
<polygon fill="#e0e0e0" stroke="#999999" points="294.5,-129 243.5,-129 243.5,-110 294.5,-110 294.5,-129"/>
<text text-anchor="middle" x="269" y="-117" font-family="Helvetica,sans-Serif" font-size="10.00">memory</text>
</a>
</g>
</g>
<!-- Node2&#45;&gt;Node6 -->
<g id="edge5" class="edge">
<title>Node2&#45;&gt;Node6</title>
<path fill="none" stroke="#63b8ff" d="M243.12,-164.75C247.18,-157.81 252.99,-147.86 258.09,-139.16"/>
<polygon fill="#63b8ff" stroke="#63b8ff" points="260.98,-141.15 263.01,-130.75 254.94,-137.61 260.98,-141.15"/>
</g>
<!-- Node7 -->
<g id="node7" class="node">
<title>Node7</title>
<g id="a_node7"><a xlink:href="IDisplay_8hpp.xhtml" target="_top" xlink:title=" ">
<polygon fill="white" stroke="#666666" points="453.5,-129 312.5,-129 312.5,-110 453.5,-110 453.5,-129"/>
<text text-anchor="middle" x="383" y="-117" font-family="Helvetica,sans-Serif" font-size="10.00">user_interaction/IDisplay.hpp</text>
</a>
</g>
</g>
<!-- Node2&#45;&gt;Node7 -->
<g id="edge6" class="edge">
<title>Node2&#45;&gt;Node7</title>
<path fill="none" stroke="#63b8ff" d="M262.6,-164.51C286.07,-155.93 321.67,-142.92 348.07,-133.27"/>
<polygon fill="#63b8ff" stroke="#63b8ff" points="349.15,-136.6 357.34,-129.88 346.75,-130.02 349.15,-136.6"/>
</g>
<!-- Node7&#45;&gt;Node8 -->
<g id="edge7" class="edge">
<title>Node7&#45;&gt;Node8</title>
<path fill="none" stroke="#63b8ff" d="M399.79,-109.51C415.1,-101.31 437.97,-89.07 455.7,-79.58"/>
<polygon fill="#63b8ff" stroke="#63b8ff" points="456.96,-82.88 464.12,-75.07 453.65,-76.71 456.96,-82.88"/>
</g>
<!-- Node9 -->
<g id="node9" class="node">
<title>Node9</title>
<g id="a_node9"><a xlink:title=" ">
<polygon fill="#e0e0e0" stroke="#999999" points="472.5,-19 431.5,-19 431.5,0 472.5,0 472.5,-19"/>
<text text-anchor="middle" x="452" y="-7" font-family="Helvetica,sans-Serif" font-size="10.00">string</text>
</a>
</g>
</g>
<!-- Node8&#45;&gt;Node9 -->
<g id="edge8" class="edge">
<title>Node8&#45;&gt;Node9</title>
<path fill="none" stroke="#63b8ff" d="M477.05,-54.75C473.16,-47.88 467.61,-38.08 462.72,-29.45"/>
<polygon fill="#63b8ff" stroke="#63b8ff" points="465.78,-27.74 457.81,-20.76 459.69,-31.19 465.78,-27.74"/>
</g>
<!-- Node10 -->
<g id="node10" class="node">
<title>Node10</title>
<g id="a_node10"><a xlink:title=" ">
<polygon fill="#e0e0e0" stroke="#999999" points="535,-19 491,-19 491,0 535,0 535,-19"/>
<text text-anchor="middle" x="513" y="-7" font-family="Helvetica,sans-Serif" font-size="10.00">vector</text>
</a>
</g>
</g>
<!-- Node8&#45;&gt;Node10 -->
<g id="edge9" class="edge">
<title>Node8&#45;&gt;Node10</title>
<path fill="none" stroke="#63b8ff" d="M487.12,-54.75C491.18,-47.81 496.99,-37.86 502.09,-29.16"/>
<polygon fill="#63b8ff" stroke="#63b8ff" points="504.98,-31.15 507.01,-20.75 498.94,-27.61 504.98,-31.15"/>
</g>
<!-- Node12&#45;&gt;Node8 -->
<g id="edge14" class="edge">
<title>Node12&#45;&gt;Node8</title>
<path fill="none" stroke="#63b8ff" d="M599.53,-164.66C578.05,-146.55 528.77,-104.96 501.33,-81.81"/>
<polygon fill="#63b8ff" stroke="#63b8ff" points="503.68,-79.21 493.78,-75.44 499.16,-84.56 503.68,-79.21"/>
</g>
</g>
</svg>
