<?xml version="1.0" encoding="UTF-8" standalone="no"?>
<!DOCTYPE svg PUBLIC "-//W3C//DTD SVG 1.1//EN"
 "http://www.w3.org/Graphics/SVG/1.1/DTD/svg11.dtd">
<!-- Generated by graphviz version 7.0.5 (20221223.1930)
 -->
<!-- Title: lib/3rd_party_adapters/LVGL/display_factory_interface.cpp Pages: 1 -->
<svg width="541pt" height="280pt"
 viewBox="0.00 0.00 541.00 280.00" xmlns="http://www.w3.org/2000/svg" xmlns:xlink="http://www.w3.org/1999/xlink">
<g id="graph0" class="graph" transform="scale(1 1) rotate(0) translate(4 276)">
<title>lib/3rd_party_adapters/LVGL/display_factory_interface.cpp</title>
<!-- Node1 -->
<g id="node1" class="node">
<title>Node1</title>
<g id="a_node1"><a xlink:title=" ">
<polygon fill="#999999" stroke="#666666" points="397,-272 284,-272 284,-231 397,-231 397,-272"/>
<text text-anchor="start" x="292" y="-260" font-family="Helvetica,sans-Serif" font-size="10.00">lib/3rd_party_adapters</text>
<text text-anchor="start" x="292" y="-249" font-family="Helvetica,sans-Serif" font-size="10.00">/LVGL/display_factory</text>
<text text-anchor="middle" x="340.5" y="-238" font-family="Helvetica,sans-Serif" font-size="10.00">_interface.cpp</text>
</a>
</g>
</g>
<!-- Node2 -->
<g id="node2" class="node">
<title>Node2</title>
<g id="a_node2"><a xlink:href="Display_8hpp.xhtml" target="_top" xlink:title=" ">
<polygon fill="white" stroke="#666666" points="318.5,-189.5 252.5,-189.5 252.5,-170.5 318.5,-170.5 318.5,-189.5"/>
<text text-anchor="middle" x="285.5" y="-177.5" font-family="Helvetica,sans-Serif" font-size="10.00">Display.hpp</text>
</a>
</g>
</g>
<!-- Node1&#45;&gt;Node2 -->
<g id="edge1" class="edge">
<title>Node1&#45;&gt;Node2</title>
<path fill="none" stroke="#63b8ff" d="M324.89,-230.77C316.88,-220.66 307.22,-208.44 299.46,-198.64"/>
<polygon fill="#63b8ff" stroke="#63b8ff" points="302.37,-196.68 293.42,-191.01 296.88,-201.02 302.37,-196.68"/>
</g>
<!-- Node11 -->
<g id="node11" class="node">
<title>Node11</title>
<g id="a_node11"><a xlink:title=" ">
<polygon fill="#e0e0e0" stroke="#999999" points="531,-189.5 474,-189.5 474,-170.5 531,-170.5 531,-189.5"/>
<text text-anchor="middle" x="502.5" y="-177.5" font-family="Helvetica,sans-Serif" font-size="10.00">Arduino.h</text>
</a>
</g>
</g>
<!-- Node1&#45;&gt;Node11 -->
<g id="edge10" class="edge">
<title>Node1&#45;&gt;Node11</title>
<path fill="none" stroke="#63b8ff" d="M386.92,-230.58C414,-218.97 447.43,-204.62 471.36,-194.36"/>
<polygon fill="#63b8ff" stroke="#63b8ff" points="472.43,-197.71 480.24,-190.55 469.67,-191.28 472.43,-197.71"/>
</g>
<!-- Node12 -->
<g id="node12" class="node">
<title>Node12</title>
<g id="a_node12"><a xlink:href="board__pins_8hpp.xhtml" target="_top" xlink:title="Provides named objects for the pins provided by the board.">
<polygon fill="white" stroke="#666666" points="159.5,-189.5 77.5,-189.5 77.5,-170.5 159.5,-170.5 159.5,-189.5"/>
<text text-anchor="middle" x="118.5" y="-177.5" font-family="Helvetica,sans-Serif" font-size="10.00">board_pins.hpp</text>
</a>
</g>
</g>
<!-- Node1&#45;&gt;Node12 -->
<g id="edge11" class="edge">
<title>Node1&#45;&gt;Node12</title>
<path fill="none" stroke="#63b8ff" d="M283.62,-232.69C244.2,-220.35 192.74,-204.24 157.82,-193.31"/>
<polygon fill="#63b8ff" stroke="#63b8ff" points="159.13,-190.05 148.54,-190.4 157.04,-196.73 159.13,-190.05"/>
</g>
<!-- Node14 -->
<g id="node14" class="node">
<title>Node14</title>
<g id="a_node14"><a xlink:href="display__factory__interface_8hpp.xhtml" target="_top" xlink:title="Dependency injection for the display.">
<polygon fill="white" stroke="#666666" points="456,-195 337,-195 337,-165 456,-165 456,-195"/>
<text text-anchor="start" x="345" y="-183" font-family="Helvetica,sans-Serif" font-size="10.00">user_interaction/display</text>
<text text-anchor="middle" x="396.5" y="-172" font-family="Helvetica,sans-Serif" font-size="10.00">_factory_interface.hpp</text>
</a>
</g>
</g>
<!-- Node1&#45;&gt;Node14 -->
<g id="edge14" class="edge">
<title>Node1&#45;&gt;Node14</title>
<path fill="none" stroke="#63b8ff" d="M356.4,-230.77C363.05,-222.52 370.82,-212.87 377.75,-204.27"/>
<polygon fill="#63b8ff" stroke="#63b8ff" points="380.34,-206.64 383.89,-196.65 374.89,-202.24 380.34,-206.64"/>
</g>
<!-- Node3 -->
<g id="node3" class="node">
<title>Node3</title>
<g id="a_node3"><a xlink:title=" ">
<polygon fill="#e0e0e0" stroke="#999999" points="209.5,-129 105.5,-129 105.5,-110 209.5,-110 209.5,-129"/>
<text text-anchor="middle" x="157.5" y="-117" font-family="Helvetica,sans-Serif" font-size="10.00">Adafruit_SSD1306.h</text>
</a>
</g>
</g>
<!-- Node2&#45;&gt;Node3 -->
<g id="edge2" class="edge">
<title>Node2&#45;&gt;Node3</title>
<path fill="none" stroke="#63b8ff" d="M266.06,-170.12C245.2,-160.58 211.79,-145.31 187.54,-134.23"/>
<polygon fill="#63b8ff" stroke="#63b8ff" points="189.05,-131.07 178.5,-130.1 186.14,-137.44 189.05,-131.07"/>
</g>
<!-- Node4 -->
<g id="node4" class="node">
<title>Node4</title>
<g id="a_node4"><a xlink:title=" ">
<polygon fill="#e0e0e0" stroke="#999999" points="163.5,-74 117.5,-74 117.5,-55 163.5,-55 163.5,-74"/>
<text text-anchor="middle" x="140.5" y="-62" font-family="Helvetica,sans-Serif" font-size="10.00">cstdint</text>
</a>
</g>
</g>
<!-- Node2&#45;&gt;Node4 -->
<g id="edge3" class="edge">
<title>Node2&#45;&gt;Node4</title>
<path fill="none" stroke="#63b8ff" d="M278.34,-170.16C266.77,-156.23 242.78,-128.82 218.5,-110 203.28,-98.21 184.59,-87.43 169.32,-79.44"/>
<polygon fill="#63b8ff" stroke="#63b8ff" points="171.23,-76.49 160.73,-75.07 168.05,-82.73 171.23,-76.49"/>
</g>
<!-- Node5 -->
<g id="node5" class="node">
<title>Node5</title>
<g id="a_node5"><a xlink:title=" ">
<polygon fill="#e0e0e0" stroke="#999999" points="305,-129 266,-129 266,-110 305,-110 305,-129"/>
<text text-anchor="middle" x="285.5" y="-117" font-family="Helvetica,sans-Serif" font-size="10.00">lvgl.h</text>
</a>
</g>
</g>
<!-- Node2&#45;&gt;Node5 -->
<g id="edge4" class="edge">
<title>Node2&#45;&gt;Node5</title>
<path fill="none" stroke="#63b8ff" d="M285.5,-170.37C285.5,-162.5 285.5,-150.6 285.5,-140.39"/>
<polygon fill="#63b8ff" stroke="#63b8ff" points="289,-140.68 285.5,-130.68 282,-140.68 289,-140.68"/>
</g>
<!-- Node6 -->
<g id="node6" class="node">
<title>Node6</title>
<g id="a_node6"><a xlink:title=" ">
<polygon fill="#e0e0e0" stroke="#999999" points="374,-129 323,-129 323,-110 374,-110 374,-129"/>
<text text-anchor="middle" x="348.5" y="-117" font-family="Helvetica,sans-Serif" font-size="10.00">memory</text>
</a>
</g>
</g>
<!-- Node2&#45;&gt;Node6 -->
<g id="edge5" class="edge">
<title>Node2&#45;&gt;Node6</title>
<path fill="none" stroke="#63b8ff" d="M295.07,-170.12C304.5,-161.35 319.15,-147.75 330.73,-137"/>
<polygon fill="#63b8ff" stroke="#63b8ff" points="332.79,-139.87 337.73,-130.5 328.02,-134.74 332.79,-139.87"/>
</g>
<!-- Node7 -->
<g id="node7" class="node">
<title>Node7</title>
<g id="a_node7"><a xlink:href="IDisplay_8hpp.xhtml" target="_top" xlink:title=" ">
<polygon fill="white" stroke="#666666" points="533,-129 392,-129 392,-110 533,-110 533,-129"/>
<text text-anchor="middle" x="462.5" y="-117" font-family="Helvetica,sans-Serif" font-size="10.00">user_interaction/IDisplay.hpp</text>
</a>
</g>
</g>
<!-- Node2&#45;&gt;Node7 -->
<g id="edge6" class="edge">
<title>Node2&#45;&gt;Node7</title>
<path fill="none" stroke="#63b8ff" d="M312.38,-170.12C342.27,-160.24 390.78,-144.21 424.53,-133.05"/>
<polygon fill="#63b8ff" stroke="#63b8ff" points="425.53,-136.4 433.93,-129.94 423.33,-129.76 425.53,-136.4"/>
</g>
<!-- Node8 -->
<g id="node8" class="node">
<title>Node8</title>
<g id="a_node8"><a xlink:href="MenuItem_8hpp.xhtml" target="_top" xlink:title=" ">
<polygon fill="white" stroke="#666666" points="501.5,-74 423.5,-74 423.5,-55 501.5,-55 501.5,-74"/>
<text text-anchor="middle" x="462.5" y="-62" font-family="Helvetica,sans-Serif" font-size="10.00">MenuItem.hpp</text>
</a>
</g>
</g>
<!-- Node7&#45;&gt;Node8 -->
<g id="edge7" class="edge">
<title>Node7&#45;&gt;Node8</title>
<path fill="none" stroke="#63b8ff" d="M462.5,-109.75C462.5,-103.27 462.5,-94.16 462.5,-85.9"/>
<polygon fill="#63b8ff" stroke="#63b8ff" points="466,-85.96 462.5,-75.96 459,-85.96 466,-85.96"/>
</g>
<!-- Node9 -->
<g id="node9" class="node">
<title>Node9</title>
<g id="a_node9"><a xlink:title=" ">
<polygon fill="#e0e0e0" stroke="#999999" points="453,-19 412,-19 412,0 453,0 453,-19"/>
<text text-anchor="middle" x="432.5" y="-7" font-family="Helvetica,sans-Serif" font-size="10.00">string</text>
</a>
</g>
</g>
<!-- Node8&#45;&gt;Node9 -->
<g id="edge8" class="edge">
<title>Node8&#45;&gt;Node9</title>
<path fill="none" stroke="#63b8ff" d="M457.55,-54.75C453.66,-47.88 448.11,-38.08 443.22,-29.45"/>
<polygon fill="#63b8ff" stroke="#63b8ff" points="446.28,-27.74 438.31,-20.76 440.19,-31.19 446.28,-27.74"/>
</g>
<!-- Node10 -->
<g id="node10" class="node">
<title>Node10</title>
<g id="a_node10"><a xlink:title=" ">
<polygon fill="#e0e0e0" stroke="#999999" points="515.5,-19 471.5,-19 471.5,0 515.5,0 515.5,-19"/>
<text text-anchor="middle" x="493.5" y="-7" font-family="Helvetica,sans-Serif" font-size="10.00">vector</text>
</a>
</g>
</g>
<!-- Node8&#45;&gt;Node10 -->
<g id="edge9" class="edge">
<title>Node8&#45;&gt;Node10</title>
<path fill="none" stroke="#63b8ff" d="M467.62,-54.75C471.68,-47.81 477.49,-37.86 482.59,-29.16"/>
<polygon fill="#63b8ff" stroke="#63b8ff" points="485.48,-31.15 487.51,-20.75 479.44,-27.61 485.48,-31.15"/>
</g>
<!-- Node13 -->
<g id="node13" class="node">
<title>Node13</title>
<g id="a_node13"><a xlink:href="board__types_8hpp.xhtml" target="_top" xlink:title=" ">
<polygon fill="white" stroke="#666666" points="87,-129 0,-129 0,-110 87,-110 87,-129"/>
<text text-anchor="middle" x="43.5" y="-117" font-family="Helvetica,sans-Serif" font-size="10.00">board_types.hpp</text>
</a>
</g>
</g>
<!-- Node12&#45;&gt;Node13 -->
<g id="edge12" class="edge">
<title>Node12&#45;&gt;Node13</title>
<path fill="none" stroke="#63b8ff" d="M107.11,-170.12C95.66,-161.18 77.75,-147.22 63.85,-136.37"/>
<polygon fill="#63b8ff" stroke="#63b8ff" points="66.23,-133.79 56.19,-130.4 61.92,-139.31 66.23,-133.79"/>
</g>
<!-- Node13&#45;&gt;Node4 -->
<g id="edge13" class="edge">
<title>Node13&#45;&gt;Node4</title>
<path fill="none" stroke="#63b8ff" d="M59.95,-109.51C74.82,-101.39 96.94,-89.3 114.25,-79.85"/>
<polygon fill="#63b8ff" stroke="#63b8ff" points="115.86,-82.95 122.96,-75.08 112.51,-76.81 115.86,-82.95"/>
</g>
<!-- Node14&#45;&gt;Node7 -->
<g id="edge15" class="edge">
<title>Node14&#45;&gt;Node7</title>
<path fill="none" stroke="#63b8ff" d="M412.81,-164.54C422.3,-156.13 434.29,-145.51 444.11,-136.8"/>
<polygon fill="#63b8ff" stroke="#63b8ff" points="446.42,-139.43 451.58,-130.18 441.77,-134.19 446.42,-139.43"/>
</g>
</g>
</svg>
