<?xml version="1.0" encoding="UTF-8" standalone="no"?>
<!DOCTYPE svg PUBLIC "-//W3C//DTD SVG 1.1//EN"
 "http://www.w3.org/Graphics/SVG/1.1/DTD/svg11.dtd">
<!-- Generated by graphviz version 7.0.5 (20221223.1930)
 -->
<!-- Pages: 1 -->
<svg width="154pt" height="206pt"
 viewBox="0.00 0.00 153.50 205.74" xmlns="http://www.w3.org/2000/svg" xmlns:xlink="http://www.w3.org/1999/xlink">
<g id="graph0" class="graph" transform="scale(1 1) rotate(0) translate(4 201.74)">
<polygon fill="white" stroke="none" points="-4,4 -4,-201.74 149.5,-201.74 149.5,4 -4,4"/>
<!-- L -->
<g id="node1" class="node">
<title>L</title>
<ellipse fill="none" stroke="black" cx="70.5" cy="-170.87" rx="47.25" ry="26.74"/>
<text text-anchor="middle" x="70.5" y="-174.67" font-family="Times,serif" font-size="14.00">use cases</text>
<text text-anchor="middle" x="70.5" y="-159.67" font-family="Times,serif" font-size="14.00"> (logic)</text>
</g>
<!-- P -->
<g id="node4" class="node">
<title>P</title>
<polygon fill="none" stroke="black" points="105.5,-108 35.5,-108 35.5,-72 105.5,-72 105.5,-108"/>
<text text-anchor="middle" x="70.5" y="-86.3" font-family="Times,serif" font-size="14.00">Processor</text>
</g>
<!-- L&#45;&gt;P -->
<g id="edge4" class="edge">
<title>L&#45;&gt;P</title>
<path fill="none" stroke="black" d="M76.88,-144.09C77.32,-136.25 77.37,-127.6 77.02,-119.58"/>
<polygon fill="black" stroke="black" points="80.51,-119.34 76.29,-109.62 73.53,-119.85 80.51,-119.34"/>
</g>
<!-- I -->
<g id="node2" class="node">
<title>I</title>
<polygon fill="none" stroke="black" points="59,-36 0,-36 0,0 59,0 59,-36"/>
<text text-anchor="middle" x="29.5" y="-14.3" font-family="Times,serif" font-size="14.00">Keypad</text>
</g>
<!-- I&#45;&gt;P -->
<g id="edge1" class="edge">
<title>I&#45;&gt;P</title>
<path fill="none" stroke="black" d="M39.63,-36.3C44.2,-44.1 49.7,-53.49 54.79,-62.17"/>
<polygon fill="black" stroke="black" points="51.64,-63.73 59.72,-70.59 57.68,-60.19 51.64,-63.73"/>
</g>
<!-- O -->
<g id="node3" class="node">
<title>O</title>
<polygon fill="none" stroke="black" points="145.5,-36 77.5,-36 77.5,0 145.5,0 145.5,-36"/>
<text text-anchor="middle" x="111.5" y="-14.3" font-family="Times,serif" font-size="14.00">Presenter</text>
</g>
<!-- P&#45;&gt;L -->
<g id="edge3" class="edge">
<title>P&#45;&gt;L</title>
<path fill="none" stroke="black" d="M64.82,-108.11C64.04,-115.34 63.69,-124.06 63.76,-132.63"/>
<polygon fill="black" stroke="black" points="60.26,-132.7 64.08,-142.58 67.26,-132.47 60.26,-132.7"/>
</g>
<!-- P&#45;&gt;O -->
<g id="edge2" class="edge">
<title>P&#45;&gt;O</title>
<path fill="none" stroke="black" d="M80.52,-71.9C85.07,-64.12 90.57,-54.74 95.66,-46.05"/>
<polygon fill="black" stroke="black" points="98.57,-48.01 100.6,-37.61 92.53,-44.47 98.57,-48.01"/>
</g>
</g>
</svg>
