<?xml version="1.0" encoding="UTF-8" standalone="no"?>
<!DOCTYPE svg PUBLIC "-//W3C//DTD SVG 1.1//EN"
 "http://www.w3.org/Graphics/SVG/1.1/DTD/svg11.dtd">
<!-- Generated by graphviz version 7.0.5 (20221223.1930)
 -->
<!-- Title: lib/application_business_rules/user_interaction/IKeypad.hpp Pages: 1 -->
<svg width="880pt" height="280pt"
 viewBox="0.00 0.00 880.27 280.00" xmlns="http://www.w3.org/2000/svg" xmlns:xlink="http://www.w3.org/1999/xlink">
<g id="graph0" class="graph" transform="scale(1 1) rotate(0) translate(4 276)">
<title>lib/application_business_rules/user_interaction/IKeypad.hpp</title>
<!-- Node1 -->
<g id="node1" class="node">
<title>Node1</title>
<g id="a_node1"><a xlink:title=" ">
<polygon fill="#999999" stroke="#666666" points="403.16,-272 283.16,-272 283.16,-231 403.16,-231 403.16,-272"/>
<text text-anchor="start" x="291.16" y="-260" font-family="Helvetica,sans-Serif" font-size="10.00">lib/application_business</text>
<text text-anchor="start" x="291.16" y="-249" font-family="Helvetica,sans-Serif" font-size="10.00">_rules/user_interaction</text>
<text text-anchor="middle" x="343.16" y="-238" font-family="Helvetica,sans-Serif" font-size="10.00">/IKeypad.hpp</text>
</a>
</g>
</g>
<!-- Node2 -->
<g id="node2" class="node">
<title>Node2</title>
<g id="a_node2"><a xlink:href="KeyInputs_8cpp.xhtml" target="_top" xlink:title=" ">
<polygon fill="white" stroke="#666666" points="127.16,-112.5 15.16,-112.5 15.16,-82.5 127.16,-82.5 127.16,-112.5"/>
<text text-anchor="start" x="23.16" y="-100.5" font-family="Helvetica,sans-Serif" font-size="10.00">lib/3rd_party_adapters</text>
<text text-anchor="middle" x="71.16" y="-89.5" font-family="Helvetica,sans-Serif" font-size="10.00">/LVGL/KeyInputs.cpp</text>
</a>
</g>
</g>
<!-- Node1&#45;&gt;Node2 -->
<g id="edge1" class="edge">
<title>Node1&#45;&gt;Node2</title>
<path fill="none" stroke="#63b8ff" d="M272,-243.07C230.57,-235.96 179.02,-222.07 140.16,-195 109.41,-173.57 87.51,-133.84 77.42,-112.66"/>
<polygon fill="#63b8ff" stroke="#63b8ff" points="271.2,-246.48 281.63,-244.62 272.31,-239.57 271.2,-246.48"/>
</g>
<!-- Node3 -->
<g id="node3" class="node">
<title>Node3</title>
<g id="a_node3"><a xlink:href="KeyInputs_8hpp.xhtml" target="_top" xlink:title=" ">
<polygon fill="white" stroke="#666666" points="261.16,-189.5 149.16,-189.5 149.16,-159.5 261.16,-159.5 261.16,-189.5"/>
<text text-anchor="start" x="157.16" y="-177.5" font-family="Helvetica,sans-Serif" font-size="10.00">lib/3rd_party_adapters</text>
<text text-anchor="middle" x="205.16" y="-166.5" font-family="Helvetica,sans-Serif" font-size="10.00">/LVGL/KeyInputs.hpp</text>
</a>
</g>
</g>
<!-- Node1&#45;&gt;Node3 -->
<g id="edge2" class="edge">
<title>Node1&#45;&gt;Node3</title>
<path fill="none" stroke="#63b8ff" d="M296.52,-225.15C274.82,-213.36 249.81,-199.76 231.45,-189.79"/>
<polygon fill="#63b8ff" stroke="#63b8ff" points="294.76,-228.18 305.21,-229.88 298.1,-222.03 294.76,-228.18"/>
</g>
<!-- Node5 -->
<g id="node5" class="node">
<title>Node5</title>
<g id="a_node5"><a xlink:href="Menu_8hpp.xhtml" target="_top" xlink:title=" ">
<polygon fill="white" stroke="#666666" points="403.16,-195 283.16,-195 283.16,-154 403.16,-154 403.16,-195"/>
<text text-anchor="start" x="291.16" y="-183" font-family="Helvetica,sans-Serif" font-size="10.00">lib/application_business</text>
<text text-anchor="start" x="291.16" y="-172" font-family="Helvetica,sans-Serif" font-size="10.00">_rules/user_interaction</text>
<text text-anchor="middle" x="343.16" y="-161" font-family="Helvetica,sans-Serif" font-size="10.00">/Menu.hpp</text>
</a>
</g>
</g>
<!-- Node1&#45;&gt;Node5 -->
<g id="edge5" class="edge">
<title>Node1&#45;&gt;Node5</title>
<path fill="none" stroke="#63b8ff" d="M343.16,-219.36C343.16,-211.24 343.16,-202.7 343.16,-195.33"/>
<polygon fill="#63b8ff" stroke="#63b8ff" points="339.66,-219.28 343.16,-229.28 346.66,-219.28 339.66,-219.28"/>
</g>
<!-- Node8 -->
<g id="node8" class="node">
<title>Node8</title>
<g id="a_node8"><a xlink:href="ProcessHmiInputs_8cpp.xhtml" target="_top" xlink:title=" ">
<polygon fill="white" stroke="#666666" points="146.16,-41 26.16,-41 26.16,0 146.16,0 146.16,-41"/>
<text text-anchor="start" x="34.16" y="-29" font-family="Helvetica,sans-Serif" font-size="10.00">lib/application_business</text>
<text text-anchor="start" x="34.16" y="-18" font-family="Helvetica,sans-Serif" font-size="10.00">_rules/user_interaction</text>
<text text-anchor="middle" x="86.16" y="-7" font-family="Helvetica,sans-Serif" font-size="10.00">/ProcessHmiInputs.cpp</text>
</a>
</g>
</g>
<!-- Node1&#45;&gt;Node8 -->
<g id="edge14" class="edge">
<title>Node1&#45;&gt;Node8</title>
<path fill="none" stroke="#63b8ff" d="M271.35,-248.54C186.74,-241.69 51.89,-215.22 6.16,-118 -1.59,-101.51 -2.29,-93.14 6.16,-77 14.08,-61.87 28.2,-50.04 42.4,-41.26"/>
<polygon fill="#63b8ff" stroke="#63b8ff" points="270.95,-252.02 281.18,-249.25 271.46,-245.04 270.95,-252.02"/>
</g>
<!-- Node10 -->
<g id="node10" class="node">
<title>Node10</title>
<g id="a_node10"><a xlink:href="test__hmi_8cpp.xhtml" target="_top" xlink:title=" ">
<polygon fill="white" stroke="#666666" points="587.66,-35.5 494.66,-35.5 494.66,-5.5 587.66,-5.5 587.66,-35.5"/>
<text text-anchor="start" x="502.66" y="-23.5" font-family="Helvetica,sans-Serif" font-size="10.00">test/test_hmi/test</text>
<text text-anchor="middle" x="541.16" y="-12.5" font-family="Helvetica,sans-Serif" font-size="10.00">_hmi.cpp</text>
</a>
</g>
</g>
<!-- Node1&#45;&gt;Node10 -->
<g id="edge22" class="edge">
<title>Node1&#45;&gt;Node10</title>
<path fill="none" stroke="#63b8ff" d="M414.96,-246.69C490.86,-241.07 613.33,-227.45 714.16,-195 785.5,-172.04 825.11,-181.95 864.16,-118 873.66,-102.45 875.91,-90.93 864.16,-77 829.37,-35.72 668.7,-25.14 587.87,-22.43"/>
<polygon fill="#63b8ff" stroke="#63b8ff" points="414.88,-243.18 405.15,-247.38 415.38,-250.17 414.88,-243.18"/>
</g>
<!-- Node11 -->
<g id="node11" class="node">
<title>Node11</title>
<g id="a_node11"><a xlink:href="keypad__factory__interface_8hpp.xhtml" target="_top" xlink:title="Dependency injection for the keypad.">
<polygon fill="white" stroke="#666666" points="568.16,-195 422.16,-195 422.16,-154 568.16,-154 568.16,-195"/>
<text text-anchor="start" x="430.16" y="-183" font-family="Helvetica,sans-Serif" font-size="10.00">lib/application_business</text>
<text text-anchor="start" x="430.16" y="-172" font-family="Helvetica,sans-Serif" font-size="10.00">_rules/user_interaction</text>
<text text-anchor="middle" x="495.16" y="-161" font-family="Helvetica,sans-Serif" font-size="10.00">/keypad_factory_interface.hpp</text>
</a>
</g>
</g>
<!-- Node1&#45;&gt;Node11 -->
<g id="edge15" class="edge">
<title>Node1&#45;&gt;Node11</title>
<path fill="none" stroke="#63b8ff" d="M393.6,-225.62C413.43,-215.83 435.89,-204.75 454.64,-195.49"/>
<polygon fill="#63b8ff" stroke="#63b8ff" points="392.27,-222.36 384.85,-229.93 395.37,-228.64 392.27,-222.36"/>
</g>
<!-- Node13 -->
<g id="node13" class="node">
<title>Node13</title>
<g id="a_node13"><a xlink:href="Keypad_8hpp.xhtml" target="_top" xlink:title=" ">
<polygon fill="white" stroke="#666666" points="704.66,-195 587.66,-195 587.66,-154 704.66,-154 704.66,-195"/>
<text text-anchor="start" x="595.66" y="-183" font-family="Helvetica,sans-Serif" font-size="10.00">lib/board_adapters</text>
<text text-anchor="start" x="595.66" y="-172" font-family="Helvetica,sans-Serif" font-size="10.00">/input_device_interface</text>
<text text-anchor="middle" x="646.16" y="-161" font-family="Helvetica,sans-Serif" font-size="10.00">/Keypad.hpp</text>
</a>
</g>
</g>
<!-- Node1&#45;&gt;Node13 -->
<g id="edge19" class="edge">
<title>Node1&#45;&gt;Node13</title>
<path fill="none" stroke="#63b8ff" d="M414.62,-234.38C461.05,-223.7 522.84,-209.11 577.16,-195 580.54,-194.12 584,-193.21 587.49,-192.27"/>
<polygon fill="#63b8ff" stroke="#63b8ff" points="413.89,-230.96 404.93,-236.6 415.46,-237.78 413.89,-230.96"/>
</g>
<!-- Node3&#45;&gt;Node2 -->
<g id="edge3" class="edge">
<title>Node3&#45;&gt;Node2</title>
<path fill="none" stroke="#63b8ff" d="M169.33,-153.44C146.51,-140.67 117.48,-124.42 96.92,-112.92"/>
<polygon fill="#63b8ff" stroke="#63b8ff" points="167.57,-156.47 178.01,-158.3 170.99,-150.36 167.57,-156.47"/>
</g>
<!-- Node4 -->
<g id="node4" class="node">
<title>Node4</title>
<g id="a_node4"><a xlink:href="Menu_8cpp.xhtml" target="_top" xlink:title=" ">
<polygon fill="white" stroke="#666666" points="265.16,-118 145.16,-118 145.16,-77 265.16,-77 265.16,-118"/>
<text text-anchor="start" x="153.16" y="-106" font-family="Helvetica,sans-Serif" font-size="10.00">lib/application_business</text>
<text text-anchor="start" x="153.16" y="-95" font-family="Helvetica,sans-Serif" font-size="10.00">_rules/user_interaction</text>
<text text-anchor="middle" x="205.16" y="-84" font-family="Helvetica,sans-Serif" font-size="10.00">/Menu.cpp</text>
</a>
</g>
</g>
<!-- Node3&#45;&gt;Node4 -->
<g id="edge4" class="edge">
<title>Node3&#45;&gt;Node4</title>
<path fill="none" stroke="#63b8ff" d="M205.16,-147.68C205.16,-138.06 205.16,-127.3 205.16,-118.3"/>
<polygon fill="#63b8ff" stroke="#63b8ff" points="201.66,-147.53 205.16,-157.53 208.66,-147.53 201.66,-147.53"/>
</g>
<!-- Node5&#45;&gt;Node4 -->
<g id="edge6" class="edge">
<title>Node5&#45;&gt;Node4</title>
<path fill="none" stroke="#63b8ff" d="M296.88,-148.35C279,-138.63 258.82,-127.66 241.95,-118.49"/>
<polygon fill="#63b8ff" stroke="#63b8ff" points="294.76,-151.18 305.21,-152.88 298.1,-145.03 294.76,-151.18"/>
</g>
<!-- Node6 -->
<g id="node6" class="node">
<title>Node6</title>
<g id="a_node6"><a xlink:href="Presenter_8hpp.xhtml" target="_top" xlink:title=" ">
<polygon fill="white" stroke="#666666" points="403.16,-118 283.16,-118 283.16,-77 403.16,-77 403.16,-118"/>
<text text-anchor="start" x="291.16" y="-106" font-family="Helvetica,sans-Serif" font-size="10.00">lib/application_business</text>
<text text-anchor="start" x="291.16" y="-95" font-family="Helvetica,sans-Serif" font-size="10.00">_rules/user_interaction</text>
<text text-anchor="middle" x="343.16" y="-84" font-family="Helvetica,sans-Serif" font-size="10.00">/Presenter.hpp</text>
</a>
</g>
</g>
<!-- Node5&#45;&gt;Node6 -->
<g id="edge7" class="edge">
<title>Node5&#45;&gt;Node6</title>
<path fill="none" stroke="#63b8ff" d="M343.16,-142.36C343.16,-134.24 343.16,-125.7 343.16,-118.33"/>
<polygon fill="#63b8ff" stroke="#63b8ff" points="339.66,-142.28 343.16,-152.28 346.66,-142.28 339.66,-142.28"/>
</g>
<!-- Node9 -->
<g id="node9" class="node">
<title>Node9</title>
<g id="a_node9"><a xlink:href="main_8cpp.xhtml" target="_top" xlink:title=" ">
<polygon fill="white" stroke="#666666" points="470.16,-30 398.16,-30 398.16,-11 470.16,-11 470.16,-30"/>
<text text-anchor="middle" x="434.16" y="-18" font-family="Helvetica,sans-Serif" font-size="10.00">src/main.cpp</text>
</a>
</g>
</g>
<!-- Node5&#45;&gt;Node9 -->
<g id="edge12" class="edge">
<title>Node5&#45;&gt;Node9</title>
<path fill="none" stroke="#63b8ff" d="M385.37,-146.92C395.46,-138.76 405.29,-128.99 412.16,-118 429.93,-89.59 433.39,-48.47 434.04,-30.49"/>
<polygon fill="#63b8ff" stroke="#63b8ff" points="383.54,-143.91 377.71,-152.75 387.78,-149.48 383.54,-143.91"/>
</g>
<!-- Node5&#45;&gt;Node10 -->
<g id="edge13" class="edge">
<title>Node5&#45;&gt;Node10</title>
<path fill="none" stroke="#63b8ff" d="M388.69,-148C403.57,-139.07 419.93,-128.62 434.16,-118 469.66,-91.53 507.22,-55.53 527.02,-35.84"/>
<polygon fill="#63b8ff" stroke="#63b8ff" points="387.3,-144.76 380.47,-152.86 390.86,-150.79 387.3,-144.76"/>
</g>
<!-- Node7 -->
<g id="node7" class="node">
<title>Node7</title>
<g id="a_node7"><a xlink:href="Presenter_8cpp.xhtml" target="_top" xlink:title=" ">
<polygon fill="white" stroke="#666666" points="380.16,-41 260.16,-41 260.16,0 380.16,0 380.16,-41"/>
<text text-anchor="start" x="268.16" y="-29" font-family="Helvetica,sans-Serif" font-size="10.00">lib/application_business</text>
<text text-anchor="start" x="268.16" y="-18" font-family="Helvetica,sans-Serif" font-size="10.00">_rules/user_interaction</text>
<text text-anchor="middle" x="320.16" y="-7" font-family="Helvetica,sans-Serif" font-size="10.00">/Presenter.cpp</text>
</a>
</g>
</g>
<!-- Node6&#45;&gt;Node7 -->
<g id="edge8" class="edge">
<title>Node6&#45;&gt;Node7</title>
<path fill="none" stroke="#63b8ff" d="M333.79,-65.93C331.24,-57.63 328.56,-48.87 326.25,-41.33"/>
<polygon fill="#63b8ff" stroke="#63b8ff" points="330.4,-66.81 336.68,-75.35 337.09,-64.76 330.4,-66.81"/>
</g>
<!-- Node6&#45;&gt;Node8 -->
<g id="edge9" class="edge">
<title>Node6&#45;&gt;Node8</title>
<path fill="none" stroke="#63b8ff" d="M272.04,-75.74C232.59,-64.23 184.06,-50.07 146.49,-39.1"/>
<polygon fill="#63b8ff" stroke="#63b8ff" points="270.88,-79.05 281.46,-78.49 272.84,-72.33 270.88,-79.05"/>
</g>
<!-- Node6&#45;&gt;Node9 -->
<g id="edge10" class="edge">
<title>Node6&#45;&gt;Node9</title>
<path fill="none" stroke="#63b8ff" d="M375.58,-69.78C392.41,-55.91 411.85,-39.89 423.56,-30.24"/>
<polygon fill="#63b8ff" stroke="#63b8ff" points="373.73,-66.77 368.24,-75.83 378.18,-72.17 373.73,-66.77"/>
</g>
<!-- Node6&#45;&gt;Node10 -->
<g id="edge11" class="edge">
<title>Node6&#45;&gt;Node10</title>
<path fill="none" stroke="#63b8ff" d="M406.27,-72.6C438.13,-60.53 475.74,-46.28 503.14,-35.9"/>
<polygon fill="#63b8ff" stroke="#63b8ff" points="405.23,-69.25 397.12,-76.06 407.71,-75.79 405.23,-69.25"/>
</g>
<!-- Node11&#45;&gt;Node9 -->
<g id="edge17" class="edge">
<title>Node11&#45;&gt;Node9</title>
<path fill="none" stroke="#63b8ff" d="M482.9,-142.95C468.72,-107.61 446.22,-51.54 437.64,-30.16"/>
<polygon fill="#63b8ff" stroke="#63b8ff" points="479.65,-144.25 486.63,-152.22 486.15,-141.64 479.65,-144.25"/>
</g>
<!-- Node11&#45;&gt;Node10 -->
<g id="edge18" class="edge">
<title>Node11&#45;&gt;Node10</title>
<path fill="none" stroke="#63b8ff" d="M510.76,-143.53C514.56,-135.4 518.34,-126.49 521.16,-118 530.62,-89.59 536.49,-54.93 539.26,-35.84"/>
<polygon fill="#63b8ff" stroke="#63b8ff" points="507.72,-141.78 506.5,-152.31 514.02,-144.84 507.72,-141.78"/>
</g>
<!-- Node12 -->
<g id="node12" class="node">
<title>Node12</title>
<g id="a_node12"><a xlink:href="keypad__factory__interface_8cpp.xhtml" target="_top" xlink:title=" ">
<polygon fill="white" stroke="#666666" points="719.16,-118 573.16,-118 573.16,-77 719.16,-77 719.16,-118"/>
<text text-anchor="start" x="581.16" y="-106" font-family="Helvetica,sans-Serif" font-size="10.00">lib/board_adapters</text>
<text text-anchor="start" x="581.16" y="-95" font-family="Helvetica,sans-Serif" font-size="10.00">/input_device_interface</text>
<text text-anchor="middle" x="646.16" y="-84" font-family="Helvetica,sans-Serif" font-size="10.00">/keypad_factory_interface.cpp</text>
</a>
</g>
</g>
<!-- Node11&#45;&gt;Node12 -->
<g id="edge16" class="edge">
<title>Node11&#45;&gt;Node12</title>
<path fill="none" stroke="#63b8ff" d="M545.54,-148.48C565.17,-138.73 587.37,-127.7 605.91,-118.49"/>
<polygon fill="#63b8ff" stroke="#63b8ff" points="543.99,-145.34 536.59,-152.92 547.1,-151.61 543.99,-145.34"/>
</g>
<!-- Node13&#45;&gt;Node12 -->
<g id="edge21" class="edge">
<title>Node13&#45;&gt;Node12</title>
<path fill="none" stroke="#63b8ff" d="M646.16,-142.36C646.16,-134.24 646.16,-125.7 646.16,-118.33"/>
<polygon fill="#63b8ff" stroke="#63b8ff" points="642.66,-142.28 646.16,-152.28 649.66,-142.28 642.66,-142.28"/>
</g>
<!-- Node14 -->
<g id="node14" class="node">
<title>Node14</title>
<g id="a_node14"><a xlink:href="Keypad_8cpp.xhtml" target="_top" xlink:title=" ">
<polygon fill="white" stroke="#666666" points="854.66,-118 737.66,-118 737.66,-77 854.66,-77 854.66,-118"/>
<text text-anchor="start" x="745.66" y="-106" font-family="Helvetica,sans-Serif" font-size="10.00">lib/board_adapters</text>
<text text-anchor="start" x="745.66" y="-95" font-family="Helvetica,sans-Serif" font-size="10.00">/input_device_interface</text>
<text text-anchor="middle" x="796.16" y="-84" font-family="Helvetica,sans-Serif" font-size="10.00">/Keypad.cpp</text>
</a>
</g>
</g>
<!-- Node13&#45;&gt;Node14 -->
<g id="edge20" class="edge">
<title>Node13&#45;&gt;Node14</title>
<path fill="none" stroke="#63b8ff" d="M696.2,-148.48C715.71,-138.73 737.76,-127.7 756.17,-118.49"/>
<polygon fill="#63b8ff" stroke="#63b8ff" points="694.7,-145.32 687.32,-152.92 697.83,-151.58 694.7,-145.32"/>
</g>
</g>
</svg>
