<?xml version="1.0" encoding="UTF-8" standalone="no"?>
<!DOCTYPE svg PUBLIC "-//W3C//DTD SVG 1.1//EN"
 "http://www.w3.org/Graphics/SVG/1.1/DTD/svg11.dtd">
<!-- Generated by graphviz version 7.0.5 (20221223.1930)
 -->
<!-- Title: Graphical Class Hierarchy Pages: 1 -->
<svg width="208pt" height="101pt"
 viewBox="0.00 0.00 208.00 101.00" xmlns="http://www.w3.org/2000/svg" xmlns:xlink="http://www.w3.org/1999/xlink">
<g id="graph0" class="graph" transform="scale(1 1) rotate(0) translate(4 97)">
<title>Graphical Class Hierarchy</title>
<!-- Node0 -->
<g id="node1" class="node">
<title>Node0</title>
<g id="a_node1"><a xlink:href="classIMenuItem.xhtml" target="_top" xlink:title=" ">
<polygon fill="white" stroke="#666666" points="63,-56 0,-56 0,-37 63,-37 63,-56"/>
<text text-anchor="middle" x="31.5" y="-44" font-family="Helvetica,sans-Serif" font-size="10.00">IMenuItem</text>
</a>
</g>
</g>
<!-- Node1 -->
<g id="node2" class="node">
<title>Node1</title>
<g id="a_node2"><a xlink:href="classMenuItemSubmenu.xhtml" target="_top" xlink:title=" ">
<polygon fill="white" stroke="#666666" points="200,-93 99,-93 99,-74 200,-74 200,-93"/>
<text text-anchor="middle" x="149.5" y="-81" font-family="Helvetica,sans-Serif" font-size="10.00">MenuItemSubmenu</text>
</a>
</g>
</g>
<!-- Node0&#45;&gt;Node1 -->
<g id="edge1" class="edge">
<title>Node0&#45;&gt;Node1</title>
<path fill="none" stroke="#63b8ff" d="M73.84,-59.69C88.1,-64.24 103.84,-69.25 117.17,-73.51"/>
<polygon fill="#63b8ff" stroke="#63b8ff" points="75.31,-56.48 64.72,-56.78 73.19,-63.15 75.31,-56.48"/>
</g>
<!-- Node2 -->
<g id="node3" class="node">
<title>Node2</title>
<g id="a_node3"><a xlink:href="structMenuItemSwitch.xhtml" target="_top" xlink:title=" ">
<polygon fill="white" stroke="#666666" points="194.5,-56 104.5,-56 104.5,-37 194.5,-37 194.5,-56"/>
<text text-anchor="middle" x="149.5" y="-44" font-family="Helvetica,sans-Serif" font-size="10.00">MenuItemSwitch</text>
</a>
</g>
</g>
<!-- Node0&#45;&gt;Node2 -->
<g id="edge2" class="edge">
<title>Node0&#45;&gt;Node2</title>
<path fill="none" stroke="#63b8ff" d="M74.58,-46.5C84.15,-46.5 94.36,-46.5 104.03,-46.5"/>
<polygon fill="#63b8ff" stroke="#63b8ff" points="74.79,-43 64.79,-46.5 74.79,-50 74.79,-43"/>
</g>
<!-- Node3 -->
<g id="node4" class="node">
<title>Node3</title>
<g id="a_node4"><a xlink:href="structMenuItemValue.xhtml" target="_top" xlink:title=" ">
<polygon fill="white" stroke="#666666" points="192,-19 107,-19 107,0 192,0 192,-19"/>
<text text-anchor="middle" x="149.5" y="-7" font-family="Helvetica,sans-Serif" font-size="10.00">MenuItemValue</text>
</a>
</g>
</g>
<!-- Node0&#45;&gt;Node3 -->
<g id="edge3" class="edge">
<title>Node0&#45;&gt;Node3</title>
<path fill="none" stroke="#63b8ff" d="M73.84,-33.31C88.1,-28.76 103.84,-23.75 117.17,-19.49"/>
<polygon fill="#63b8ff" stroke="#63b8ff" points="73.19,-29.85 64.72,-36.22 75.31,-36.52 73.19,-29.85"/>
</g>
</g>
</svg>
