<?xml version="1.0" encoding="UTF-8" standalone="no"?>
<!DOCTYPE svg PUBLIC "-//W3C//DTD SVG 1.1//EN"
 "http://www.w3.org/Graphics/SVG/1.1/DTD/svg11.dtd">
<!-- Generated by graphviz version 7.0.5 (20221223.1930)
 -->
<!-- Title: Graphical Class Hierarchy Pages: 1 -->
<svg width="200pt" height="64pt"
 viewBox="0.00 0.00 200.00 64.00" xmlns="http://www.w3.org/2000/svg" xmlns:xlink="http://www.w3.org/1999/xlink">
<g id="graph0" class="graph" transform="scale(1 1) rotate(0) translate(4 60)">
<title>Graphical Class Hierarchy</title>
<!-- Node0 -->
<g id="node1" class="node">
<title>Node0</title>
<g id="a_node1"><a xlink:href="classIScreen.xhtml" target="_top" xlink:title=" ">
<polygon fill="white" stroke="#666666" points="50,-37 0,-37 0,-18 50,-18 50,-37"/>
<text text-anchor="middle" x="25" y="-25" font-family="Helvetica,sans-Serif" font-size="10.00">IScreen</text>
</a>
</g>
</g>
<!-- Node1 -->
<g id="node2" class="node">
<title>Node1</title>
<g id="a_node2"><a xlink:href="classScreenMenu.xhtml" target="_top" xlink:title=" ">
<polygon fill="white" stroke="#666666" points="174.5,-56 103.5,-56 103.5,-37 174.5,-37 174.5,-56"/>
<text text-anchor="middle" x="139" y="-44" font-family="Helvetica,sans-Serif" font-size="10.00">ScreenMenu</text>
</a>
</g>
</g>
<!-- Node0&#45;&gt;Node1 -->
<g id="edge1" class="edge">
<title>Node0&#45;&gt;Node1</title>
<path fill="none" stroke="#63b8ff" d="M61.44,-33.51C74.75,-35.77 89.86,-38.33 103.12,-40.58"/>
<polygon fill="#63b8ff" stroke="#63b8ff" points="62.24,-30.1 51.79,-31.88 61.07,-37 62.24,-30.1"/>
</g>
<!-- Node2 -->
<g id="node3" class="node">
<title>Node2</title>
<g id="a_node3"><a xlink:href="classScreenValueModifier.xhtml" target="_top" xlink:title=" ">
<polygon fill="white" stroke="#666666" points="192,-19 86,-19 86,0 192,0 192,-19"/>
<text text-anchor="middle" x="139" y="-7" font-family="Helvetica,sans-Serif" font-size="10.00">ScreenValueModifier</text>
</a>
</g>
</g>
<!-- Node0&#45;&gt;Node2 -->
<g id="edge2" class="edge">
<title>Node0&#45;&gt;Node2</title>
<path fill="none" stroke="#63b8ff" d="M61.45,-21.8C69.17,-20.56 77.49,-19.23 85.7,-17.91"/>
<polygon fill="#63b8ff" stroke="#63b8ff" points="61.11,-18.31 51.8,-23.35 62.23,-25.22 61.11,-18.31"/>
</g>
</g>
</svg>
