<?xml version="1.0" encoding="UTF-8" standalone="no"?>
<!DOCTYPE svg PUBLIC "-//W3C//DTD SVG 1.1//EN"
 "http://www.w3.org/Graphics/SVG/1.1/DTD/svg11.dtd">
<!-- Generated by graphviz version 7.0.5 (20221223.1930)
 -->
<!-- Title: lib/application_business_rules/user_interaction/IStatusIndicator.hpp Pages: 1 -->
<svg width="794pt" height="214pt"
 viewBox="0.00 0.00 794.00 214.00" xmlns="http://www.w3.org/2000/svg" xmlns:xlink="http://www.w3.org/1999/xlink">
<g id="graph0" class="graph" transform="scale(1 1) rotate(0) translate(4 210)">
<title>lib/application_business_rules/user_interaction/IStatusIndicator.hpp</title>
<!-- Node1 -->
<g id="node1" class="node">
<title>Node1</title>
<g id="a_node1"><a xlink:title=" ">
<polygon fill="#999999" stroke="#666666" points="476,-206 356,-206 356,-165 476,-165 476,-206"/>
<text text-anchor="start" x="364" y="-194" font-family="Helvetica,sans-Serif" font-size="10.00">lib/application_business</text>
<text text-anchor="start" x="364" y="-183" font-family="Helvetica,sans-Serif" font-size="10.00">_rules/user_interaction</text>
<text text-anchor="middle" x="416" y="-172" font-family="Helvetica,sans-Serif" font-size="10.00">/IStatusIndicator.hpp</text>
</a>
</g>
</g>
<!-- Node2 -->
<g id="node2" class="node">
<title>Node2</title>
<g id="a_node2"><a xlink:href="Presenter_8hpp.xhtml" target="_top" xlink:title=" ">
<polygon fill="white" stroke="#666666" points="336,-123.5 216,-123.5 216,-82.5 336,-82.5 336,-123.5"/>
<text text-anchor="start" x="224" y="-111.5" font-family="Helvetica,sans-Serif" font-size="10.00">lib/application_business</text>
<text text-anchor="start" x="224" y="-100.5" font-family="Helvetica,sans-Serif" font-size="10.00">_rules/user_interaction</text>
<text text-anchor="middle" x="276" y="-89.5" font-family="Helvetica,sans-Serif" font-size="10.00">/Presenter.hpp</text>
</a>
</g>
</g>
<!-- Node1&#45;&gt;Node2 -->
<g id="edge1" class="edge">
<title>Node1&#45;&gt;Node2</title>
<path fill="none" stroke="#63b8ff" d="M371.44,-158.88C351.79,-147.58 329.05,-134.5 310.69,-123.95"/>
<polygon fill="#63b8ff" stroke="#63b8ff" points="369.67,-161.9 380.08,-163.85 373.16,-155.83 369.67,-161.9"/>
</g>
<!-- Node7 -->
<g id="node7" class="node">
<title>Node7</title>
<g id="a_node7"><a xlink:href="statusindicators__factory__interface_8hpp.xhtml" target="_top" xlink:title="Dependency injection for the keypad.">
<polygon fill="white" stroke="#666666" points="477.5,-129 354.5,-129 354.5,-77 477.5,-77 477.5,-129"/>
<text text-anchor="start" x="362.5" y="-117" font-family="Helvetica,sans-Serif" font-size="10.00">lib/application_business</text>
<text text-anchor="start" x="362.5" y="-106" font-family="Helvetica,sans-Serif" font-size="10.00">_rules/user_interaction</text>
<text text-anchor="start" x="362.5" y="-95" font-family="Helvetica,sans-Serif" font-size="10.00">/statusindicators_factory</text>
<text text-anchor="middle" x="416" y="-84" font-family="Helvetica,sans-Serif" font-size="10.00">_interface.hpp</text>
</a>
</g>
</g>
<!-- Node1&#45;&gt;Node7 -->
<g id="edge6" class="edge">
<title>Node1&#45;&gt;Node7</title>
<path fill="none" stroke="#63b8ff" d="M416,-153.2C416,-145.34 416,-136.99 416,-129.45"/>
<polygon fill="#63b8ff" stroke="#63b8ff" points="412.5,-153.09 416,-163.09 419.5,-153.09 412.5,-153.09"/>
</g>
<!-- Node9 -->
<g id="node9" class="node">
<title>Node9</title>
<g id="a_node9"><a xlink:href="status__indicators_8hpp.xhtml" target="_top" xlink:title=" ">
<polygon fill="white" stroke="#666666" points="623,-123.5 499,-123.5 499,-82.5 623,-82.5 623,-123.5"/>
<text text-anchor="start" x="507" y="-111.5" font-family="Helvetica,sans-Serif" font-size="10.00">lib/board_adapters</text>
<text text-anchor="start" x="507" y="-100.5" font-family="Helvetica,sans-Serif" font-size="10.00">/status_indicators/status</text>
<text text-anchor="middle" x="561" y="-89.5" font-family="Helvetica,sans-Serif" font-size="10.00">_indicators.hpp</text>
</a>
</g>
</g>
<!-- Node1&#45;&gt;Node9 -->
<g id="edge10" class="edge">
<title>Node1&#45;&gt;Node9</title>
<path fill="none" stroke="#63b8ff" d="M461.87,-159.03C482.28,-147.7 505.97,-134.55 525.07,-123.95"/>
<polygon fill="#63b8ff" stroke="#63b8ff" points="460.21,-155.95 453.17,-163.87 463.61,-162.07 460.21,-155.95"/>
</g>
<!-- Node3 -->
<g id="node3" class="node">
<title>Node3</title>
<g id="a_node3"><a xlink:href="Presenter_8cpp.xhtml" target="_top" xlink:title=" ">
<polygon fill="white" stroke="#666666" points="120,-41 0,-41 0,0 120,0 120,-41"/>
<text text-anchor="start" x="8" y="-29" font-family="Helvetica,sans-Serif" font-size="10.00">lib/application_business</text>
<text text-anchor="start" x="8" y="-18" font-family="Helvetica,sans-Serif" font-size="10.00">_rules/user_interaction</text>
<text text-anchor="middle" x="60" y="-7" font-family="Helvetica,sans-Serif" font-size="10.00">/Presenter.cpp</text>
</a>
</g>
</g>
<!-- Node2&#45;&gt;Node3 -->
<g id="edge2" class="edge">
<title>Node2&#45;&gt;Node3</title>
<path fill="none" stroke="#63b8ff" d="M212.21,-78.23C180.82,-66.53 143.41,-52.58 113.53,-41.45"/>
<polygon fill="#63b8ff" stroke="#63b8ff" points="210.6,-81.36 221.19,-81.57 213.04,-74.8 210.6,-81.36"/>
</g>
<!-- Node4 -->
<g id="node4" class="node">
<title>Node4</title>
<g id="a_node4"><a xlink:href="ProcessHmiInputs_8cpp.xhtml" target="_top" xlink:title=" ">
<polygon fill="white" stroke="#666666" points="258,-41 138,-41 138,0 258,0 258,-41"/>
<text text-anchor="start" x="146" y="-29" font-family="Helvetica,sans-Serif" font-size="10.00">lib/application_business</text>
<text text-anchor="start" x="146" y="-18" font-family="Helvetica,sans-Serif" font-size="10.00">_rules/user_interaction</text>
<text text-anchor="middle" x="198" y="-7" font-family="Helvetica,sans-Serif" font-size="10.00">/ProcessHmiInputs.cpp</text>
</a>
</g>
</g>
<!-- Node2&#45;&gt;Node4 -->
<g id="edge3" class="edge">
<title>Node2&#45;&gt;Node4</title>
<path fill="none" stroke="#63b8ff" d="M248.74,-73.86C238.38,-63.17 226.81,-51.23 217.33,-41.45"/>
<polygon fill="#63b8ff" stroke="#63b8ff" points="246.19,-76.27 255.67,-81.01 251.22,-71.4 246.19,-76.27"/>
</g>
<!-- Node5 -->
<g id="node5" class="node">
<title>Node5</title>
<g id="a_node5"><a xlink:href="main_8cpp.xhtml" target="_top" xlink:title=" ">
<polygon fill="white" stroke="#666666" points="348,-30 276,-30 276,-11 348,-11 348,-30"/>
<text text-anchor="middle" x="312" y="-18" font-family="Helvetica,sans-Serif" font-size="10.00">src/main.cpp</text>
</a>
</g>
</g>
<!-- Node2&#45;&gt;Node5 -->
<g id="edge4" class="edge">
<title>Node2&#45;&gt;Node5</title>
<path fill="none" stroke="#63b8ff" d="M289.51,-71.8C296.12,-57.01 303.6,-40.29 308.05,-30.33"/>
<polygon fill="#63b8ff" stroke="#63b8ff" points="286.4,-70.16 285.52,-80.72 292.79,-73.02 286.4,-70.16"/>
</g>
<!-- Node6 -->
<g id="node6" class="node">
<title>Node6</title>
<g id="a_node6"><a xlink:href="test__hmi_8cpp.xhtml" target="_top" xlink:title=" ">
<polygon fill="white" stroke="#666666" points="459.5,-35.5 366.5,-35.5 366.5,-5.5 459.5,-5.5 459.5,-35.5"/>
<text text-anchor="start" x="374.5" y="-23.5" font-family="Helvetica,sans-Serif" font-size="10.00">test/test_hmi/test</text>
<text text-anchor="middle" x="413" y="-12.5" font-family="Helvetica,sans-Serif" font-size="10.00">_hmi.cpp</text>
</a>
</g>
</g>
<!-- Node2&#45;&gt;Node6 -->
<g id="edge5" class="edge">
<title>Node2&#45;&gt;Node6</title>
<path fill="none" stroke="#63b8ff" d="M319.66,-76.35C342.44,-62.96 369.46,-47.08 388.55,-35.87"/>
<polygon fill="#63b8ff" stroke="#63b8ff" points="318.02,-73.25 311.17,-81.33 321.57,-79.29 318.02,-73.25"/>
</g>
<!-- Node7&#45;&gt;Node5 -->
<g id="edge8" class="edge">
<title>Node7&#45;&gt;Node5</title>
<path fill="none" stroke="#63b8ff" d="M374.03,-69.51C355.77,-55.38 335.79,-39.92 323.58,-30.46"/>
<polygon fill="#63b8ff" stroke="#63b8ff" points="371.85,-72.25 381.9,-75.6 376.13,-66.71 371.85,-72.25"/>
</g>
<!-- Node7&#45;&gt;Node6 -->
<g id="edge9" class="edge">
<title>Node7&#45;&gt;Node6</title>
<path fill="none" stroke="#63b8ff" d="M414.62,-65.07C414.24,-54.68 413.84,-43.99 413.53,-35.8"/>
<polygon fill="#63b8ff" stroke="#63b8ff" points="411.12,-65.15 414.99,-75.02 418.12,-64.89 411.12,-65.15"/>
</g>
<!-- Node8 -->
<g id="node8" class="node">
<title>Node8</title>
<g id="a_node8"><a xlink:href="statusindicators__factory__interface_8cpp.xhtml" target="_top" xlink:title=" ">
<polygon fill="white" stroke="#666666" points="644,-41 478,-41 478,0 644,0 644,-41"/>
<text text-anchor="start" x="486" y="-29" font-family="Helvetica,sans-Serif" font-size="10.00">lib/board_adapters</text>
<text text-anchor="start" x="486" y="-18" font-family="Helvetica,sans-Serif" font-size="10.00">/status_indicators/statusindicators</text>
<text text-anchor="middle" x="561" y="-7" font-family="Helvetica,sans-Serif" font-size="10.00">_factory_interface.cpp</text>
</a>
</g>
</g>
<!-- Node7&#45;&gt;Node8 -->
<g id="edge7" class="edge">
<title>Node7&#45;&gt;Node8</title>
<path fill="none" stroke="#63b8ff" d="M471.66,-71.1C489.58,-61.15 508.95,-50.4 525.06,-41.45"/>
<polygon fill="#63b8ff" stroke="#63b8ff" points="470.25,-67.88 463.2,-75.79 473.64,-74 470.25,-67.88"/>
</g>
<!-- Node9&#45;&gt;Node8 -->
<g id="edge12" class="edge">
<title>Node9&#45;&gt;Node8</title>
<path fill="none" stroke="#63b8ff" d="M561,-70.66C561,-60.83 561,-50.26 561,-41.45"/>
<polygon fill="#63b8ff" stroke="#63b8ff" points="557.5,-70.59 561,-80.59 564.5,-70.59 557.5,-70.59"/>
</g>
<!-- Node10 -->
<g id="node10" class="node">
<title>Node10</title>
<g id="a_node10"><a xlink:href="status__indicators_8cpp.xhtml" target="_top" xlink:title=" ">
<polygon fill="white" stroke="#666666" points="786,-41 662,-41 662,0 786,0 786,-41"/>
<text text-anchor="start" x="670" y="-29" font-family="Helvetica,sans-Serif" font-size="10.00">lib/board_adapters</text>
<text text-anchor="start" x="670" y="-18" font-family="Helvetica,sans-Serif" font-size="10.00">/status_indicators/status</text>
<text text-anchor="middle" x="724" y="-7" font-family="Helvetica,sans-Serif" font-size="10.00">_indicators.cpp</text>
</a>
</g>
</g>
<!-- Node9&#45;&gt;Node10 -->
<g id="edge11" class="edge">
<title>Node9&#45;&gt;Node10</title>
<path fill="none" stroke="#63b8ff" d="M611.31,-77.15C634.54,-65.68 661.75,-52.25 683.61,-41.45"/>
<polygon fill="#63b8ff" stroke="#63b8ff" points="610.07,-73.86 602.65,-81.43 613.17,-80.14 610.07,-73.86"/>
</g>
</g>
</svg>
