<?xml version="1.0" encoding="UTF-8" standalone="no"?>
<!DOCTYPE svg PUBLIC "-//W3C//DTD SVG 1.1//EN"
 "http://www.w3.org/Graphics/SVG/1.1/DTD/svg11.dtd">
<!-- Generated by graphviz version 7.0.5 (20221223.1930)
 -->
<!-- Title: lib/application_business_rules/user_interaction/KeyIds.hpp Pages: 1 -->
<svg width="1403pt" height="357pt"
 viewBox="0.00 0.00 1402.50 357.00" xmlns="http://www.w3.org/2000/svg" xmlns:xlink="http://www.w3.org/1999/xlink">
<g id="graph0" class="graph" transform="scale(1 1) rotate(0) translate(4 353)">
<title>lib/application_business_rules/user_interaction/KeyIds.hpp</title>
<!-- Node1 -->
<g id="node1" class="node">
<title>Node1</title>
<g id="a_node1"><a xlink:title=" ">
<polygon fill="#999999" stroke="#666666" points="786,-349 666,-349 666,-308 786,-308 786,-349"/>
<text text-anchor="start" x="674" y="-337" font-family="Helvetica,sans-Serif" font-size="10.00">lib/application_business</text>
<text text-anchor="start" x="674" y="-326" font-family="Helvetica,sans-Serif" font-size="10.00">_rules/user_interaction</text>
<text text-anchor="middle" x="726" y="-315" font-family="Helvetica,sans-Serif" font-size="10.00">/KeyIds.hpp</text>
</a>
</g>
</g>
<!-- Node2 -->
<g id="node2" class="node">
<title>Node2</title>
<g id="a_node2"><a xlink:href="IKeypad_8hpp.xhtml" target="_top" xlink:title=" ">
<polygon fill="white" stroke="#666666" points="899,-272 779,-272 779,-231 899,-231 899,-272"/>
<text text-anchor="start" x="787" y="-260" font-family="Helvetica,sans-Serif" font-size="10.00">lib/application_business</text>
<text text-anchor="start" x="787" y="-249" font-family="Helvetica,sans-Serif" font-size="10.00">_rules/user_interaction</text>
<text text-anchor="middle" x="839" y="-238" font-family="Helvetica,sans-Serif" font-size="10.00">/IKeypad.hpp</text>
</a>
</g>
</g>
<!-- Node1&#45;&gt;Node2 -->
<g id="edge1" class="edge">
<title>Node1&#45;&gt;Node2</title>
<path fill="none" stroke="#63b8ff" d="M765.53,-301.26C779.76,-291.82 795.58,-281.32 808.87,-272.49"/>
<polygon fill="#63b8ff" stroke="#63b8ff" points="763.64,-298.32 757.25,-306.76 767.51,-304.15 763.64,-298.32"/>
</g>
<!-- Node16 -->
<g id="node16" class="node">
<title>Node16</title>
<g id="a_node16"><a xlink:href="KeyIds_8cpp.xhtml" target="_top" xlink:title=" ">
<polygon fill="white" stroke="#666666" points="1037,-272 917,-272 917,-231 1037,-231 1037,-272"/>
<text text-anchor="start" x="925" y="-260" font-family="Helvetica,sans-Serif" font-size="10.00">lib/application_business</text>
<text text-anchor="start" x="925" y="-249" font-family="Helvetica,sans-Serif" font-size="10.00">_rules/user_interaction</text>
<text text-anchor="middle" x="977" y="-238" font-family="Helvetica,sans-Serif" font-size="10.00">/KeyIds.cpp</text>
</a>
</g>
</g>
<!-- Node1&#45;&gt;Node16 -->
<g id="edge24" class="edge">
<title>Node1&#45;&gt;Node16</title>
<path fill="none" stroke="#63b8ff" d="M797.34,-306.18C835.02,-294.92 880.75,-281.26 916.65,-270.53"/>
<polygon fill="#63b8ff" stroke="#63b8ff" points="796.47,-302.79 787.89,-309.01 798.47,-309.5 796.47,-302.79"/>
</g>
<!-- Node17 -->
<g id="node17" class="node">
<title>Node17</title>
<g id="a_node17"><a xlink:href="ProcessHmiInputs_8hpp.xhtml" target="_top" xlink:title=" ">
<polygon fill="white" stroke="#666666" points="637,-118 517,-118 517,-77 637,-77 637,-118"/>
<text text-anchor="start" x="525" y="-106" font-family="Helvetica,sans-Serif" font-size="10.00">lib/application_business</text>
<text text-anchor="start" x="525" y="-95" font-family="Helvetica,sans-Serif" font-size="10.00">_rules/user_interaction</text>
<text text-anchor="middle" x="577" y="-84" font-family="Helvetica,sans-Serif" font-size="10.00">/ProcessHmiInputs.hpp</text>
</a>
</g>
</g>
<!-- Node1&#45;&gt;Node17 -->
<g id="edge25" class="edge">
<title>Node1&#45;&gt;Node17</title>
<path fill="none" stroke="#63b8ff" d="M704.94,-298.49C685.87,-271.92 657.29,-231.32 634,-195 617.3,-168.96 599.36,-138.04 588.16,-118.35"/>
<polygon fill="#63b8ff" stroke="#63b8ff" points="701.94,-300.31 710.62,-306.38 707.62,-296.22 701.94,-300.31"/>
</g>
<!-- Node18 -->
<g id="node18" class="node">
<title>Node18</title>
<g id="a_node18"><a xlink:href="board__interface_8hpp.xhtml" target="_top" xlink:title=" ">
<polygon fill="white" stroke="#666666" points="323,-118 203,-118 203,-77 323,-77 323,-118"/>
<text text-anchor="start" x="211" y="-106" font-family="Helvetica,sans-Serif" font-size="10.00">lib/application_business</text>
<text text-anchor="start" x="211" y="-95" font-family="Helvetica,sans-Serif" font-size="10.00">_rules/user_interaction</text>
<text text-anchor="middle" x="263" y="-84" font-family="Helvetica,sans-Serif" font-size="10.00">/board_interface.hpp</text>
</a>
</g>
</g>
<!-- Node1&#45;&gt;Node18 -->
<g id="edge29" class="edge">
<title>Node1&#45;&gt;Node18</title>
<path fill="none" stroke="#63b8ff" d="M662.52,-303.44C599.33,-278.74 500.18,-237.94 418,-195 372.49,-171.22 322.51,-138.89 291.94,-118.36"/>
<polygon fill="#63b8ff" stroke="#63b8ff" points="661.12,-306.65 671.71,-307.02 663.66,-300.13 661.12,-306.65"/>
</g>
<!-- Node3 -->
<g id="node3" class="node">
<title>Node3</title>
<g id="a_node3"><a xlink:href="KeyInputs_8cpp.xhtml" target="_top" xlink:title=" ">
<polygon fill="white" stroke="#666666" points="981,-112.5 869,-112.5 869,-82.5 981,-82.5 981,-112.5"/>
<text text-anchor="start" x="877" y="-100.5" font-family="Helvetica,sans-Serif" font-size="10.00">lib/3rd_party_adapters</text>
<text text-anchor="middle" x="925" y="-89.5" font-family="Helvetica,sans-Serif" font-size="10.00">/LVGL/KeyInputs.cpp</text>
</a>
</g>
</g>
<!-- Node2&#45;&gt;Node3 -->
<g id="edge2" class="edge">
<title>Node2&#45;&gt;Node3</title>
<path fill="none" stroke="#63b8ff" d="M878.86,-223.55C888.35,-215.4 897.58,-205.72 904,-195 919.58,-168.96 923.66,-132.8 924.69,-112.96"/>
<polygon fill="#63b8ff" stroke="#63b8ff" points="876.89,-220.64 871.31,-229.65 881.29,-226.09 876.89,-220.64"/>
</g>
<!-- Node4 -->
<g id="node4" class="node">
<title>Node4</title>
<g id="a_node4"><a xlink:href="KeyInputs_8hpp.xhtml" target="_top" xlink:title=" ">
<polygon fill="white" stroke="#666666" points="895,-189.5 783,-189.5 783,-159.5 895,-159.5 895,-189.5"/>
<text text-anchor="start" x="791" y="-177.5" font-family="Helvetica,sans-Serif" font-size="10.00">lib/3rd_party_adapters</text>
<text text-anchor="middle" x="839" y="-166.5" font-family="Helvetica,sans-Serif" font-size="10.00">/LVGL/KeyInputs.hpp</text>
</a>
</g>
</g>
<!-- Node2&#45;&gt;Node4 -->
<g id="edge3" class="edge">
<title>Node2&#45;&gt;Node4</title>
<path fill="none" stroke="#63b8ff" d="M839,-219.28C839,-209.07 839,-198.21 839,-189.86"/>
<polygon fill="#63b8ff" stroke="#63b8ff" points="835.5,-219.28 839,-229.28 842.5,-219.28 835.5,-219.28"/>
</g>
<!-- Node6 -->
<g id="node6" class="node">
<title>Node6</title>
<g id="a_node6"><a xlink:href="Menu_8hpp.xhtml" target="_top" xlink:title=" ">
<polygon fill="white" stroke="#666666" points="763,-195 643,-195 643,-154 763,-154 763,-195"/>
<text text-anchor="start" x="651" y="-183" font-family="Helvetica,sans-Serif" font-size="10.00">lib/application_business</text>
<text text-anchor="start" x="651" y="-172" font-family="Helvetica,sans-Serif" font-size="10.00">_rules/user_interaction</text>
<text text-anchor="middle" x="703" y="-161" font-family="Helvetica,sans-Serif" font-size="10.00">/Menu.hpp</text>
</a>
</g>
</g>
<!-- Node2&#45;&gt;Node6 -->
<g id="edge6" class="edge">
<title>Node2&#45;&gt;Node6</title>
<path fill="none" stroke="#63b8ff" d="M792.9,-225.08C775.39,-215.42 755.72,-204.58 739.26,-195.49"/>
<polygon fill="#63b8ff" stroke="#63b8ff" points="791.14,-228.1 801.59,-229.87 794.52,-221.97 791.14,-228.1"/>
</g>
<!-- Node9 -->
<g id="node9" class="node">
<title>Node9</title>
<g id="a_node9"><a xlink:href="ProcessHmiInputs_8cpp.xhtml" target="_top" xlink:title=" ">
<polygon fill="white" stroke="#666666" points="512,-41 392,-41 392,0 512,0 512,-41"/>
<text text-anchor="start" x="400" y="-29" font-family="Helvetica,sans-Serif" font-size="10.00">lib/application_business</text>
<text text-anchor="start" x="400" y="-18" font-family="Helvetica,sans-Serif" font-size="10.00">_rules/user_interaction</text>
<text text-anchor="middle" x="452" y="-7" font-family="Helvetica,sans-Serif" font-size="10.00">/ProcessHmiInputs.cpp</text>
</a>
</g>
</g>
<!-- Node2&#45;&gt;Node9 -->
<g id="edge15" class="edge">
<title>Node2&#45;&gt;Node9</title>
<path fill="none" stroke="#63b8ff" d="M767.75,-240.94C648.73,-223.34 417.77,-181.69 370,-118 359.07,-103.42 361.46,-93.1 370,-77 378.06,-61.82 392.33,-50.03 406.74,-41.29"/>
<polygon fill="#63b8ff" stroke="#63b8ff" points="767.01,-244.37 777.41,-242.35 768.02,-237.44 767.01,-244.37"/>
</g>
<!-- Node11 -->
<g id="node11" class="node">
<title>Node11</title>
<g id="a_node11"><a xlink:href="test__hmi_8cpp.xhtml" target="_top" xlink:title=" ">
<polygon fill="white" stroke="#666666" points="749.5,-35.5 656.5,-35.5 656.5,-5.5 749.5,-5.5 749.5,-35.5"/>
<text text-anchor="start" x="664.5" y="-23.5" font-family="Helvetica,sans-Serif" font-size="10.00">test/test_hmi/test</text>
<text text-anchor="middle" x="703" y="-12.5" font-family="Helvetica,sans-Serif" font-size="10.00">_hmi.cpp</text>
</a>
</g>
</g>
<!-- Node2&#45;&gt;Node11 -->
<g id="edge23" class="edge">
<title>Node2&#45;&gt;Node11</title>
<path fill="none" stroke="#63b8ff" d="M888.74,-225.23C948.17,-191.77 1034.33,-130.72 990,-77 960.08,-40.74 823.18,-27.9 749.79,-23.57"/>
<polygon fill="#63b8ff" stroke="#63b8ff" points="887.12,-222.13 880.06,-230.03 890.5,-228.26 887.12,-222.13"/>
</g>
<!-- Node12 -->
<g id="node12" class="node">
<title>Node12</title>
<g id="a_node12"><a xlink:href="keypad__factory__interface_8hpp.xhtml" target="_top" xlink:title="Dependency injection for the keypad.">
<polygon fill="white" stroke="#666666" points="1189,-195 1043,-195 1043,-154 1189,-154 1189,-195"/>
<text text-anchor="start" x="1051" y="-183" font-family="Helvetica,sans-Serif" font-size="10.00">lib/application_business</text>
<text text-anchor="start" x="1051" y="-172" font-family="Helvetica,sans-Serif" font-size="10.00">_rules/user_interaction</text>
<text text-anchor="middle" x="1116" y="-161" font-family="Helvetica,sans-Serif" font-size="10.00">/keypad_factory_interface.hpp</text>
</a>
</g>
</g>
<!-- Node2&#45;&gt;Node12 -->
<g id="edge16" class="edge">
<title>Node2&#45;&gt;Node12</title>
<path fill="none" stroke="#63b8ff" d="M910.12,-230.43C959.5,-216.9 1005.61,-204.6 1042.77,-194.76"/>
<polygon fill="#63b8ff" stroke="#63b8ff" points="909.37,-227.01 900.66,-233.03 911.23,-233.76 909.37,-227.01"/>
</g>
<!-- Node14 -->
<g id="node14" class="node">
<title>Node14</title>
<g id="a_node14"><a xlink:href="Keypad_8hpp.xhtml" target="_top" xlink:title=" ">
<polygon fill="white" stroke="#666666" points="1324.5,-195 1207.5,-195 1207.5,-154 1324.5,-154 1324.5,-195"/>
<text text-anchor="start" x="1215.5" y="-183" font-family="Helvetica,sans-Serif" font-size="10.00">lib/board_adapters</text>
<text text-anchor="start" x="1215.5" y="-172" font-family="Helvetica,sans-Serif" font-size="10.00">/input_device_interface</text>
<text text-anchor="middle" x="1266" y="-161" font-family="Helvetica,sans-Serif" font-size="10.00">/Keypad.hpp</text>
</a>
</g>
</g>
<!-- Node2&#45;&gt;Node14 -->
<g id="edge20" class="edge">
<title>Node2&#45;&gt;Node14</title>
<path fill="none" stroke="#63b8ff" d="M910.38,-230.69C1037.31,-206.09 1074.23,-220.27 1198,-195 1201.01,-194.39 1204.08,-193.71 1207.17,-192.98"/>
<polygon fill="#63b8ff" stroke="#63b8ff" points="910.07,-227.18 900.94,-232.56 911.43,-234.05 910.07,-227.18"/>
</g>
<!-- Node4&#45;&gt;Node3 -->
<g id="edge4" class="edge">
<title>Node4&#45;&gt;Node3</title>
<path fill="none" stroke="#63b8ff" d="M864,-151.7C878.31,-139.22 895.87,-123.9 908.47,-112.92"/>
<polygon fill="#63b8ff" stroke="#63b8ff" points="861.96,-148.83 856.72,-158.04 866.56,-154.11 861.96,-148.83"/>
</g>
<!-- Node5 -->
<g id="node5" class="node">
<title>Node5</title>
<g id="a_node5"><a xlink:href="Menu_8cpp.xhtml" target="_top" xlink:title=" ">
<polygon fill="white" stroke="#666666" points="851,-118 731,-118 731,-77 851,-77 851,-118"/>
<text text-anchor="start" x="739" y="-106" font-family="Helvetica,sans-Serif" font-size="10.00">lib/application_business</text>
<text text-anchor="start" x="739" y="-95" font-family="Helvetica,sans-Serif" font-size="10.00">_rules/user_interaction</text>
<text text-anchor="middle" x="791" y="-84" font-family="Helvetica,sans-Serif" font-size="10.00">/Menu.cpp</text>
</a>
</g>
</g>
<!-- Node4&#45;&gt;Node5 -->
<g id="edge5" class="edge">
<title>Node4&#45;&gt;Node5</title>
<path fill="none" stroke="#63b8ff" d="M823.7,-149.59C817.24,-139.5 809.82,-127.9 803.67,-118.3"/>
<polygon fill="#63b8ff" stroke="#63b8ff" points="820.59,-151.23 828.93,-157.76 826.49,-147.46 820.59,-151.23"/>
</g>
<!-- Node6&#45;&gt;Node5 -->
<g id="edge7" class="edge">
<title>Node6&#45;&gt;Node5</title>
<path fill="none" stroke="#63b8ff" d="M734.6,-146.57C745.53,-137.25 757.58,-126.98 767.73,-118.33"/>
<polygon fill="#63b8ff" stroke="#63b8ff" points="732.61,-143.66 727.27,-152.81 737.15,-148.99 732.61,-143.66"/>
</g>
<!-- Node7 -->
<g id="node7" class="node">
<title>Node7</title>
<g id="a_node7"><a xlink:href="Presenter_8hpp.xhtml" target="_top" xlink:title=" ">
<polygon fill="white" stroke="#666666" points="499,-118 379,-118 379,-77 499,-77 499,-118"/>
<text text-anchor="start" x="387" y="-106" font-family="Helvetica,sans-Serif" font-size="10.00">lib/application_business</text>
<text text-anchor="start" x="387" y="-95" font-family="Helvetica,sans-Serif" font-size="10.00">_rules/user_interaction</text>
<text text-anchor="middle" x="439" y="-84" font-family="Helvetica,sans-Serif" font-size="10.00">/Presenter.hpp</text>
</a>
</g>
</g>
<!-- Node6&#45;&gt;Node7 -->
<g id="edge8" class="edge">
<title>Node6&#45;&gt;Node7</title>
<path fill="none" stroke="#63b8ff" d="M631.93,-153.31C590.52,-141.55 538.87,-126.87 499.43,-115.67"/>
<polygon fill="#63b8ff" stroke="#63b8ff" points="630.73,-156.61 641.31,-155.97 632.65,-149.87 630.73,-156.61"/>
</g>
<!-- Node10 -->
<g id="node10" class="node">
<title>Node10</title>
<g id="a_node10"><a xlink:href="main_8cpp.xhtml" target="_top" xlink:title=" ">
<polygon fill="white" stroke="#666666" points="626,-30 554,-30 554,-11 626,-11 626,-30"/>
<text text-anchor="middle" x="590" y="-18" font-family="Helvetica,sans-Serif" font-size="10.00">src/main.cpp</text>
</a>
</g>
</g>
<!-- Node6&#45;&gt;Node10 -->
<g id="edge13" class="edge">
<title>Node6&#45;&gt;Node10</title>
<path fill="none" stroke="#63b8ff" d="M688,-143.73C677.44,-123.99 662.32,-97.95 646,-77 631.87,-58.86 612.17,-40.63 600.29,-30.23"/>
<polygon fill="#63b8ff" stroke="#63b8ff" points="684.78,-145.14 692.53,-152.37 690.98,-141.89 684.78,-145.14"/>
</g>
<!-- Node6&#45;&gt;Node11 -->
<g id="edge14" class="edge">
<title>Node6&#45;&gt;Node11</title>
<path fill="none" stroke="#63b8ff" d="M703,-142.5C703,-109.97 703,-60.25 703,-35.92"/>
<polygon fill="#63b8ff" stroke="#63b8ff" points="699.5,-142.12 703,-152.12 706.5,-142.12 699.5,-142.12"/>
</g>
<!-- Node8 -->
<g id="node8" class="node">
<title>Node8</title>
<g id="a_node8"><a xlink:href="Presenter_8cpp.xhtml" target="_top" xlink:title=" ">
<polygon fill="white" stroke="#666666" points="374,-41 254,-41 254,0 374,0 374,-41"/>
<text text-anchor="start" x="262" y="-29" font-family="Helvetica,sans-Serif" font-size="10.00">lib/application_business</text>
<text text-anchor="start" x="262" y="-18" font-family="Helvetica,sans-Serif" font-size="10.00">_rules/user_interaction</text>
<text text-anchor="middle" x="314" y="-7" font-family="Helvetica,sans-Serif" font-size="10.00">/Presenter.cpp</text>
</a>
</g>
</g>
<!-- Node7&#45;&gt;Node8 -->
<g id="edge9" class="edge">
<title>Node7&#45;&gt;Node8</title>
<path fill="none" stroke="#63b8ff" d="M396.17,-70.8C380.2,-61.22 362.32,-50.49 347.32,-41.49"/>
<polygon fill="#63b8ff" stroke="#63b8ff" points="394.16,-73.68 404.53,-75.82 397.76,-67.67 394.16,-73.68"/>
</g>
<!-- Node7&#45;&gt;Node9 -->
<g id="edge10" class="edge">
<title>Node7&#45;&gt;Node9</title>
<path fill="none" stroke="#63b8ff" d="M444.35,-65.65C445.77,-57.43 447.27,-48.78 448.56,-41.33"/>
<polygon fill="#63b8ff" stroke="#63b8ff" points="440.93,-64.85 442.67,-75.3 447.83,-66.05 440.93,-64.85"/>
</g>
<!-- Node7&#45;&gt;Node10 -->
<g id="edge11" class="edge">
<title>Node7&#45;&gt;Node10</title>
<path fill="none" stroke="#63b8ff" d="M489.3,-71.51C517.85,-57.34 551.82,-40.46 572.11,-30.38"/>
<polygon fill="#63b8ff" stroke="#63b8ff" points="487.82,-68.34 480.42,-75.92 490.94,-74.61 487.82,-68.34"/>
</g>
<!-- Node7&#45;&gt;Node11 -->
<g id="edge12" class="edge">
<title>Node7&#45;&gt;Node11</title>
<path fill="none" stroke="#63b8ff" d="M510.18,-76.37C556.09,-63.38 611.46,-47.71 635,-41 641.85,-39.05 649.09,-36.98 656.18,-34.95"/>
<polygon fill="#63b8ff" stroke="#63b8ff" points="509.47,-72.94 500.8,-79.03 511.37,-79.67 509.47,-72.94"/>
</g>
<!-- Node12&#45;&gt;Node10 -->
<g id="edge18" class="edge">
<title>Node12&#45;&gt;Node10</title>
<path fill="none" stroke="#63b8ff" d="M1084.62,-146.28C1054.43,-120.7 1010.44,-85.15 990,-77 848.02,-20.42 797.33,-73.55 648,-41 636.17,-38.42 623.37,-34.27 612.82,-30.46"/>
<polygon fill="#63b8ff" stroke="#63b8ff" points="1082.09,-148.72 1091.97,-152.55 1086.63,-143.4 1082.09,-148.72"/>
</g>
<!-- Node12&#45;&gt;Node11 -->
<g id="edge19" class="edge">
<title>Node12&#45;&gt;Node11</title>
<path fill="none" stroke="#63b8ff" d="M1106.6,-142.87C1098.22,-120.95 1083.72,-92.65 1061,-77 1011.34,-42.79 835.22,-28.69 749.95,-23.77"/>
<polygon fill="#63b8ff" stroke="#63b8ff" points="1103.27,-143.97 1109.92,-152.22 1109.87,-141.63 1103.27,-143.97"/>
</g>
<!-- Node13 -->
<g id="node13" class="node">
<title>Node13</title>
<g id="a_node13"><a xlink:href="keypad__factory__interface_8cpp.xhtml" target="_top" xlink:title=" ">
<polygon fill="white" stroke="#666666" points="1259,-118 1113,-118 1113,-77 1259,-77 1259,-118"/>
<text text-anchor="start" x="1121" y="-106" font-family="Helvetica,sans-Serif" font-size="10.00">lib/board_adapters</text>
<text text-anchor="start" x="1121" y="-95" font-family="Helvetica,sans-Serif" font-size="10.00">/input_device_interface</text>
<text text-anchor="middle" x="1186" y="-84" font-family="Helvetica,sans-Serif" font-size="10.00">/keypad_factory_interface.cpp</text>
</a>
</g>
</g>
<!-- Node12&#45;&gt;Node13 -->
<g id="edge17" class="edge">
<title>Node12&#45;&gt;Node13</title>
<path fill="none" stroke="#63b8ff" d="M1142.17,-145.46C1150.59,-136.44 1159.74,-126.64 1167.49,-118.33"/>
<polygon fill="#63b8ff" stroke="#63b8ff" points="1139.69,-142.99 1135.42,-152.69 1144.81,-147.77 1139.69,-142.99"/>
</g>
<!-- Node14&#45;&gt;Node13 -->
<g id="edge22" class="edge">
<title>Node14&#45;&gt;Node13</title>
<path fill="none" stroke="#63b8ff" d="M1236.68,-146.02C1226.9,-136.84 1216.2,-126.81 1207.16,-118.33"/>
<polygon fill="#63b8ff" stroke="#63b8ff" points="1234.19,-148.47 1243.88,-152.76 1238.98,-143.37 1234.19,-148.47"/>
</g>
<!-- Node15 -->
<g id="node15" class="node">
<title>Node15</title>
<g id="a_node15"><a xlink:href="Keypad_8cpp.xhtml" target="_top" xlink:title=" ">
<polygon fill="white" stroke="#666666" points="1394.5,-118 1277.5,-118 1277.5,-77 1394.5,-77 1394.5,-118"/>
<text text-anchor="start" x="1285.5" y="-106" font-family="Helvetica,sans-Serif" font-size="10.00">lib/board_adapters</text>
<text text-anchor="start" x="1285.5" y="-95" font-family="Helvetica,sans-Serif" font-size="10.00">/input_device_interface</text>
<text text-anchor="middle" x="1336" y="-84" font-family="Helvetica,sans-Serif" font-size="10.00">/Keypad.cpp</text>
</a>
</g>
</g>
<!-- Node14&#45;&gt;Node15 -->
<g id="edge21" class="edge">
<title>Node14&#45;&gt;Node15</title>
<path fill="none" stroke="#63b8ff" d="M1292.17,-145.46C1300.59,-136.44 1309.74,-126.64 1317.49,-118.33"/>
<polygon fill="#63b8ff" stroke="#63b8ff" points="1289.69,-142.99 1285.42,-152.69 1294.81,-147.77 1289.69,-142.99"/>
</g>
<!-- Node17&#45;&gt;Node9 -->
<g id="edge26" class="edge">
<title>Node17&#45;&gt;Node9</title>
<path fill="none" stroke="#63b8ff" d="M534.17,-70.8C518.2,-61.22 500.32,-50.49 485.32,-41.49"/>
<polygon fill="#63b8ff" stroke="#63b8ff" points="532.16,-73.68 542.53,-75.82 535.76,-67.67 532.16,-73.68"/>
</g>
<!-- Node17&#45;&gt;Node10 -->
<g id="edge27" class="edge">
<title>Node17&#45;&gt;Node10</title>
<path fill="none" stroke="#63b8ff" d="M582.37,-65.53C584.58,-52.74 586.98,-38.92 588.49,-30.24"/>
<polygon fill="#63b8ff" stroke="#63b8ff" points="578.93,-64.85 580.67,-75.3 585.83,-66.05 578.93,-64.85"/>
</g>
<!-- Node17&#45;&gt;Node11 -->
<g id="edge28" class="edge">
<title>Node17&#45;&gt;Node11</title>
<path fill="none" stroke="#63b8ff" d="M620.12,-70.83C639.81,-59.11 662.39,-45.67 679,-35.79"/>
<polygon fill="#63b8ff" stroke="#63b8ff" points="618.54,-67.7 611.74,-75.82 622.12,-73.72 618.54,-67.7"/>
</g>
<!-- Node18&#45;&gt;Node8 -->
<g id="edge30" class="edge">
<title>Node18&#45;&gt;Node8</title>
<path fill="none" stroke="#63b8ff" d="M282.83,-67.34C288.75,-58.63 295.1,-49.3 300.51,-41.33"/>
<polygon fill="#63b8ff" stroke="#63b8ff" points="279.98,-65.31 277.25,-75.54 285.77,-69.24 279.98,-65.31"/>
</g>
<!-- Node18&#45;&gt;Node9 -->
<g id="edge31" class="edge">
<title>Node18&#45;&gt;Node9</title>
<path fill="none" stroke="#63b8ff" d="M323.68,-72.42C348.83,-62.44 377.66,-51 401.61,-41.49"/>
<polygon fill="#63b8ff" stroke="#63b8ff" points="322.56,-69.1 314.56,-76.04 325.15,-75.6 322.56,-69.1"/>
</g>
<!-- Node19 -->
<g id="node19" class="node">
<title>Node19</title>
<g id="a_node19"><a xlink:href="board_8cpp.xhtml" target="_top" xlink:title=" ">
<polygon fill="white" stroke="#666666" points="96,-35.5 0,-35.5 0,-5.5 96,-5.5 96,-35.5"/>
<text text-anchor="start" x="8" y="-23.5" font-family="Helvetica,sans-Serif" font-size="10.00">lib/board_adapters</text>
<text text-anchor="middle" x="48" y="-12.5" font-family="Helvetica,sans-Serif" font-size="10.00">/board.cpp</text>
</a>
</g>
</g>
<!-- Node18&#45;&gt;Node19 -->
<g id="edge32" class="edge">
<title>Node18&#45;&gt;Node19</title>
<path fill="none" stroke="#63b8ff" d="M195.38,-72.91C160.59,-60.77 119.3,-46.37 89.29,-35.9"/>
<polygon fill="#63b8ff" stroke="#63b8ff" points="193.92,-76.11 204.52,-76.1 196.23,-69.5 193.92,-76.11"/>
</g>
<!-- Node20 -->
<g id="node20" class="node">
<title>Node20</title>
<g id="a_node20"><a xlink:href="sound__output_8cpp.xhtml" target="_top" xlink:title=" ">
<polygon fill="white" stroke="#666666" points="235.5,-41 114.5,-41 114.5,0 235.5,0 235.5,-41"/>
<text text-anchor="start" x="122.5" y="-29" font-family="Helvetica,sans-Serif" font-size="10.00">lib/board_adapters</text>
<text text-anchor="start" x="122.5" y="-18" font-family="Helvetica,sans-Serif" font-size="10.00">/sound_output_interface</text>
<text text-anchor="middle" x="175" y="-7" font-family="Helvetica,sans-Serif" font-size="10.00">/sound_output.cpp</text>
</a>
</g>
</g>
<!-- Node18&#45;&gt;Node20 -->
<g id="edge33" class="edge">
<title>Node18&#45;&gt;Node20</title>
<path fill="none" stroke="#63b8ff" d="M231.4,-69.57C220.47,-60.25 208.42,-49.98 198.27,-41.33"/>
<polygon fill="#63b8ff" stroke="#63b8ff" points="228.85,-71.99 238.73,-75.81 233.39,-66.66 228.85,-71.99"/>
</g>
</g>
</svg>
