<?xml version="1.0" encoding="UTF-8" standalone="no"?>
<!DOCTYPE svg PUBLIC "-//W3C//DTD SVG 1.1//EN"
 "http://www.w3.org/Graphics/SVG/1.1/DTD/svg11.dtd">
<!-- Generated by graphviz version 7.0.5 (20221223.1930)
 -->
<!-- Title: src/main.cpp Pages: 1 -->
<svg width="1198pt" height="324pt"
 viewBox="0.00 0.00 1197.50 324.00" xmlns="http://www.w3.org/2000/svg" xmlns:xlink="http://www.w3.org/1999/xlink">
<g id="graph0" class="graph" transform="scale(1 1) rotate(0) translate(4 320)">
<title>src/main.cpp</title>
<!-- Node1 -->
<g id="node1" class="node">
<title>Node1</title>
<g id="a_node1"><a xlink:title=" ">
<polygon fill="#999999" stroke="#666666" points="617.5,-316 545.5,-316 545.5,-297 617.5,-297 617.5,-316"/>
<text text-anchor="middle" x="581.5" y="-304" font-family="Helvetica,sans-Serif" font-size="10.00">src/main.cpp</text>
</a>
</g>
</g>
<!-- Node2 -->
<g id="node2" class="node">
<title>Node2</title>
<g id="a_node2"><a xlink:title=" ">
<polygon fill="#e0e0e0" stroke="#999999" points="392.5,-189.5 346.5,-189.5 346.5,-170.5 392.5,-170.5 392.5,-189.5"/>
<text text-anchor="middle" x="369.5" y="-177.5" font-family="Helvetica,sans-Serif" font-size="10.00">chrono</text>
</a>
</g>
</g>
<!-- Node1&#45;&gt;Node2 -->
<g id="edge1" class="edge">
<title>Node1&#45;&gt;Node2</title>
<path fill="none" stroke="#63b8ff" d="M552.05,-296.65C528.57,-288.96 495.28,-276.6 468.5,-261 459.95,-256.02 414.95,-218.89 388.66,-197"/>
<polygon fill="#63b8ff" stroke="#63b8ff" points="391,-194.4 381.08,-190.69 386.52,-199.78 391,-194.4"/>
</g>
<!-- Node3 -->
<g id="node3" class="node">
<title>Node3</title>
<g id="a_node3"><a xlink:href="Protocol_8hpp.xhtml" target="_top" xlink:title=" ">
<polygon fill="white" stroke="#666666" points="283.5,-255.5 143.5,-255.5 143.5,-236.5 283.5,-236.5 283.5,-255.5"/>
<text text-anchor="middle" x="213.5" y="-243.5" font-family="Helvetica,sans-Serif" font-size="10.00">serial_interface/Protocol.hpp</text>
</a>
</g>
</g>
<!-- Node1&#45;&gt;Node3 -->
<g id="edge2" class="edge">
<title>Node1&#45;&gt;Node3</title>
<path fill="none" stroke="#63b8ff" d="M545.41,-300.21C490.68,-292.13 383.4,-276.05 292.5,-261 286.57,-260.02 280.4,-258.97 274.24,-257.91"/>
<polygon fill="#63b8ff" stroke="#63b8ff" points="275.14,-254.51 264.69,-256.24 273.94,-261.41 275.14,-254.51"/>
</g>
<!-- Node4 -->
<g id="node4" class="node">
<title>Node4</title>
<g id="a_node4"><a xlink:href="serial__port_8hpp.xhtml" target="_top" xlink:title=" ">
<polygon fill="white" stroke="#666666" points="573,-195 464,-195 464,-165 573,-165 573,-195"/>
<text text-anchor="start" x="472" y="-183" font-family="Helvetica,sans-Serif" font-size="10.00">serial_interface/serial</text>
<text text-anchor="middle" x="518.5" y="-172" font-family="Helvetica,sans-Serif" font-size="10.00">_port.hpp</text>
</a>
</g>
</g>
<!-- Node1&#45;&gt;Node4 -->
<g id="edge3" class="edge">
<title>Node1&#45;&gt;Node4</title>
<path fill="none" stroke="#63b8ff" d="M596.93,-296.8C608.85,-289.11 624.46,-276.69 631.5,-261 636.96,-248.84 638.77,-242.17 631.5,-231 620.54,-214.16 602.48,-202.96 583.98,-195.51"/>
<polygon fill="#63b8ff" stroke="#63b8ff" points="585.41,-192.31 574.81,-192.17 583.01,-198.88 585.41,-192.31"/>
</g>
<!-- Node10 -->
<g id="node10" class="node">
<title>Node10</title>
<g id="a_node10"><a xlink:href="Task_8hpp.xhtml" target="_top" xlink:title=" ">
<polygon fill="white" stroke="#666666" points="623,-255.5 540,-255.5 540,-236.5 623,-236.5 623,-255.5"/>
<text text-anchor="middle" x="581.5" y="-243.5" font-family="Helvetica,sans-Serif" font-size="10.00">tasks/Task.hpp</text>
</a>
</g>
</g>
<!-- Node1&#45;&gt;Node10 -->
<g id="edge9" class="edge">
<title>Node1&#45;&gt;Node10</title>
<path fill="none" stroke="#63b8ff" d="M581.5,-296.87C581.5,-289 581.5,-277.1 581.5,-266.89"/>
<polygon fill="#63b8ff" stroke="#63b8ff" points="585,-267.18 581.5,-257.18 578,-267.18 585,-267.18"/>
</g>
<!-- Node12 -->
<g id="node12" class="node">
<title>Node12</title>
<g id="a_node12"><a xlink:title=" ">
<polygon fill="#e0e0e0" stroke="#999999" points="521.5,-255.5 477.5,-255.5 477.5,-236.5 521.5,-236.5 521.5,-255.5"/>
<text text-anchor="middle" x="499.5" y="-243.5" font-family="Helvetica,sans-Serif" font-size="10.00">thread</text>
</a>
</g>
</g>
<!-- Node1&#45;&gt;Node12 -->
<g id="edge13" class="edge">
<title>Node1&#45;&gt;Node12</title>
<path fill="none" stroke="#63b8ff" d="M569.05,-296.62C556.4,-287.6 536.57,-273.45 521.31,-262.56"/>
<polygon fill="#63b8ff" stroke="#63b8ff" points="523.48,-259.81 513.3,-256.85 519.41,-265.5 523.48,-259.81"/>
</g>
<!-- Node13 -->
<g id="node13" class="node">
<title>Node13</title>
<g id="a_node13"><a xlink:href="Menu_8hpp.xhtml" target="_top" xlink:title=" ">
<polygon fill="white" stroke="#666666" points="898,-189.5 767,-189.5 767,-170.5 898,-170.5 898,-189.5"/>
<text text-anchor="middle" x="832.5" y="-177.5" font-family="Helvetica,sans-Serif" font-size="10.00">user_interaction/Menu.hpp</text>
</a>
</g>
</g>
<!-- Node1&#45;&gt;Node13 -->
<g id="edge14" class="edge">
<title>Node1&#45;&gt;Node13</title>
<path fill="none" stroke="#63b8ff" d="M600,-296.51C618.4,-287.56 647.43,-273.39 672.5,-261 719.02,-238 772.98,-210.94 804.85,-194.92"/>
<polygon fill="#63b8ff" stroke="#63b8ff" points="806.05,-198.23 813.42,-190.61 802.91,-191.98 806.05,-198.23"/>
</g>
<!-- Node17 -->
<g id="node17" class="node">
<title>Node17</title>
<g id="a_node17"><a xlink:href="Presenter_8hpp.xhtml" target="_top" xlink:title=" ">
<polygon fill="white" stroke="#666666" points="1013,-255.5 864,-255.5 864,-236.5 1013,-236.5 1013,-255.5"/>
<text text-anchor="middle" x="938.5" y="-243.5" font-family="Helvetica,sans-Serif" font-size="10.00">user_interaction/Presenter.hpp</text>
</a>
</g>
</g>
<!-- Node1&#45;&gt;Node17 -->
<g id="edge19" class="edge">
<title>Node1&#45;&gt;Node17</title>
<path fill="none" stroke="#63b8ff" d="M617.7,-299.57C677.38,-289.79 797.31,-270.14 872.43,-257.83"/>
<polygon fill="#63b8ff" stroke="#63b8ff" points="872.84,-261.31 882.14,-256.24 871.7,-254.4 872.84,-261.31"/>
</g>
<!-- Node20 -->
<g id="node20" class="node">
<title>Node20</title>
<g id="a_node20"><a xlink:href="ProcessHmiInputs_8hpp.xhtml" target="_top" xlink:title=" ">
<polygon fill="white" stroke="#666666" points="125,-261 0,-261 0,-231 125,-231 125,-261"/>
<text text-anchor="start" x="8" y="-249" font-family="Helvetica,sans-Serif" font-size="10.00">user_interaction/Process</text>
<text text-anchor="middle" x="62.5" y="-238" font-family="Helvetica,sans-Serif" font-size="10.00">HmiInputs.hpp</text>
</a>
</g>
</g>
<!-- Node1&#45;&gt;Node20 -->
<g id="edge24" class="edge">
<title>Node1&#45;&gt;Node20</title>
<path fill="none" stroke="#63b8ff" d="M545.15,-303.03C470.6,-297.72 294.81,-283.93 136.63,-261.21"/>
<polygon fill="#63b8ff" stroke="#63b8ff" points="137.17,-257.75 126.77,-259.78 136.16,-264.68 137.17,-257.75"/>
</g>
<!-- Node22 -->
<g id="node22" class="node">
<title>Node22</title>
<g id="a_node22"><a xlink:href="display__factory__interface_8hpp.xhtml" target="_top" xlink:title="Dependency injection for the display.">
<polygon fill="white" stroke="#666666" points="749,-195 630,-195 630,-165 749,-165 749,-195"/>
<text text-anchor="start" x="638" y="-183" font-family="Helvetica,sans-Serif" font-size="10.00">user_interaction/display</text>
<text text-anchor="middle" x="689.5" y="-172" font-family="Helvetica,sans-Serif" font-size="10.00">_factory_interface.hpp</text>
</a>
</g>
</g>
<!-- Node1&#45;&gt;Node22 -->
<g id="edge27" class="edge">
<title>Node1&#45;&gt;Node22</title>
<path fill="none" stroke="#63b8ff" d="M599.86,-296.65C614.49,-288.88 634.73,-276.41 648.5,-261 662.86,-244.92 673.66,-222.91 680.56,-206.04"/>
<polygon fill="#63b8ff" stroke="#63b8ff" points="683.82,-207.32 684.17,-196.73 677.29,-204.79 683.82,-207.32"/>
</g>
<!-- Node23 -->
<g id="node23" class="node">
<title>Node23</title>
<g id="a_node23"><a xlink:href="keypad__factory__interface_8hpp.xhtml" target="_top" xlink:title="Dependency injection for the keypad.">
<polygon fill="white" stroke="#666666" points="421,-261 302,-261 302,-231 421,-231 421,-261"/>
<text text-anchor="start" x="310" y="-249" font-family="Helvetica,sans-Serif" font-size="10.00">user_interaction/keypad</text>
<text text-anchor="middle" x="361.5" y="-238" font-family="Helvetica,sans-Serif" font-size="10.00">_factory_interface.hpp</text>
</a>
</g>
</g>
<!-- Node1&#45;&gt;Node23 -->
<g id="edge29" class="edge">
<title>Node1&#45;&gt;Node23</title>
<path fill="none" stroke="#63b8ff" d="M548.09,-296.62C516,-288.08 466.66,-274.96 426.78,-264.36"/>
<polygon fill="#63b8ff" stroke="#63b8ff" points="427.83,-261.02 417.27,-261.83 426.03,-267.78 427.83,-261.02"/>
</g>
<!-- Node25 -->
<g id="node25" class="node">
<title>Node25</title>
<g id="a_node25"><a xlink:href="statusindicators__factory__interface_8hpp.xhtml" target="_top" xlink:title="Dependency injection for the keypad.">
<polygon fill="white" stroke="#666666" points="1189.5,-261 1031.5,-261 1031.5,-231 1189.5,-231 1189.5,-261"/>
<text text-anchor="start" x="1039.5" y="-249" font-family="Helvetica,sans-Serif" font-size="10.00">user_interaction/statusindicators</text>
<text text-anchor="middle" x="1110.5" y="-238" font-family="Helvetica,sans-Serif" font-size="10.00">_factory_interface.hpp</text>
</a>
</g>
</g>
<!-- Node1&#45;&gt;Node25 -->
<g id="edge33" class="edge">
<title>Node1&#45;&gt;Node25</title>
<path fill="none" stroke="#63b8ff" d="M617.8,-302.51C691.4,-296.31 863.73,-281.03 1020.2,-261.11"/>
<polygon fill="#63b8ff" stroke="#63b8ff" points="1020.46,-264.61 1029.93,-259.86 1019.57,-257.66 1020.46,-264.61"/>
</g>
<!-- Node5 -->
<g id="node5" class="node">
<title>Node5</title>
<g id="a_node5"><a xlink:title=" ">
<polygon fill="#e0e0e0" stroke="#999999" points="467.5,-129 429.5,-129 429.5,-110 467.5,-110 467.5,-129"/>
<text text-anchor="middle" x="448.5" y="-117" font-family="Helvetica,sans-Serif" font-size="10.00">array</text>
</a>
</g>
</g>
<!-- Node4&#45;&gt;Node5 -->
<g id="edge4" class="edge">
<title>Node4&#45;&gt;Node5</title>
<path fill="none" stroke="#63b8ff" d="M501.2,-164.54C491.03,-156.04 478.16,-145.29 467.68,-136.53"/>
<polygon fill="#63b8ff" stroke="#63b8ff" points="469.96,-133.87 460.04,-130.15 465.47,-139.24 469.96,-133.87"/>
</g>
<!-- Node6 -->
<g id="node6" class="node">
<title>Node6</title>
<g id="a_node6"><a xlink:title=" ">
<polygon fill="#e0e0e0" stroke="#999999" points="373,-129 314,-129 314,-110 373,-110 373,-129"/>
<text text-anchor="middle" x="343.5" y="-117" font-family="Helvetica,sans-Serif" font-size="10.00">functional</text>
</a>
</g>
</g>
<!-- Node4&#45;&gt;Node6 -->
<g id="edge5" class="edge">
<title>Node4&#45;&gt;Node6</title>
<path fill="none" stroke="#63b8ff" d="M475.24,-164.54C446.33,-154.87 408.67,-142.29 381.03,-133.04"/>
<polygon fill="#63b8ff" stroke="#63b8ff" points="382.25,-129.76 371.66,-129.91 380.03,-136.4 382.25,-129.76"/>
</g>
<!-- Node7 -->
<g id="node7" class="node">
<title>Node7</title>
<g id="a_node7"><a xlink:title=" ">
<polygon fill="#e0e0e0" stroke="#999999" points="535.5,-129 485.5,-129 485.5,-110 535.5,-110 535.5,-129"/>
<text text-anchor="middle" x="510.5" y="-117" font-family="Helvetica,sans-Serif" font-size="10.00">optional</text>
</a>
</g>
</g>
<!-- Node4&#45;&gt;Node7 -->
<g id="edge6" class="edge">
<title>Node4&#45;&gt;Node7</title>
<path fill="none" stroke="#63b8ff" d="M516.52,-164.54C515.53,-157.26 514.3,-148.31 513.22,-140.39"/>
<polygon fill="#63b8ff" stroke="#63b8ff" points="516.71,-140.11 511.89,-130.67 509.78,-141.06 516.71,-140.11"/>
</g>
<!-- Node8 -->
<g id="node8" class="node">
<title>Node8</title>
<g id="a_node8"><a xlink:title=" ">
<polygon fill="#e0e0e0" stroke="#999999" points="358.5,-74 306.5,-74 306.5,-55 358.5,-55 358.5,-74"/>
<text text-anchor="middle" x="332.5" y="-62" font-family="Helvetica,sans-Serif" font-size="10.00">ostream</text>
</a>
</g>
</g>
<!-- Node4&#45;&gt;Node8 -->
<g id="edge7" class="edge">
<title>Node4&#45;&gt;Node8</title>
<path fill="none" stroke="#63b8ff" d="M487.38,-164.64C467.78,-155.22 442.18,-142.24 420.5,-129 396.08,-114.08 369.66,-94.52 352.21,-81.07"/>
<polygon fill="#63b8ff" stroke="#63b8ff" points="354.75,-78.6 344.71,-75.22 350.45,-84.13 354.75,-78.6"/>
</g>
<!-- Node9 -->
<g id="node9" class="node">
<title>Node9</title>
<g id="a_node9"><a xlink:title=" ">
<polygon fill="#e0e0e0" stroke="#999999" points="622,-19 581,-19 581,0 622,0 622,-19"/>
<text text-anchor="middle" x="601.5" y="-7" font-family="Helvetica,sans-Serif" font-size="10.00">string</text>
</a>
</g>
</g>
<!-- Node4&#45;&gt;Node9 -->
<g id="edge8" class="edge">
<title>Node4&#45;&gt;Node9</title>
<path fill="none" stroke="#63b8ff" d="M526.13,-164.62C531.38,-154.66 538.46,-141.07 544.5,-129 561.89,-94.24 581.36,-53.31 592.45,-29.78"/>
<polygon fill="#63b8ff" stroke="#63b8ff" points="595.57,-31.37 596.66,-20.84 589.24,-28.39 595.57,-31.37"/>
</g>
<!-- Node10&#45;&gt;Node2 -->
<g id="edge10" class="edge">
<title>Node10&#45;&gt;Node2</title>
<path fill="none" stroke="#63b8ff" d="M549.28,-236.11C498.46,-222.09 405.05,-196.26 401.5,-195 400.71,-194.72 399.91,-194.43 399.1,-194.12"/>
<polygon fill="#63b8ff" stroke="#63b8ff" points="400.6,-190.96 390.02,-190.45 397.98,-197.45 400.6,-190.96"/>
</g>
<!-- Node10&#45;&gt;Node9 -->
<g id="edge12" class="edge">
<title>Node10&#45;&gt;Node9</title>
<path fill="none" stroke="#63b8ff" d="M582.26,-236.09C585.16,-202.07 595.59,-79.75 599.76,-30.88"/>
<polygon fill="#63b8ff" stroke="#63b8ff" points="603.25,-31.18 600.61,-20.92 596.27,-30.59 603.25,-31.18"/>
</g>
<!-- Node11 -->
<g id="node11" class="node">
<title>Node11</title>
<g id="a_node11"><a xlink:title=" ">
<polygon fill="#e0e0e0" stroke="#999999" points="446,-189.5 411,-189.5 411,-170.5 446,-170.5 446,-189.5"/>
<text text-anchor="middle" x="428.5" y="-177.5" font-family="Helvetica,sans-Serif" font-size="10.00">map</text>
</a>
</g>
</g>
<!-- Node10&#45;&gt;Node11 -->
<g id="edge11" class="edge">
<title>Node10&#45;&gt;Node11</title>
<path fill="none" stroke="#63b8ff" d="M556.31,-236.09C532.44,-227.43 495.47,-213.46 454.73,-194.75"/>
<polygon fill="#63b8ff" stroke="#63b8ff" points="456.21,-191.58 445.67,-190.53 453.26,-197.93 456.21,-191.58"/>
</g>
<!-- Node14 -->
<g id="node14" class="node">
<title>Node14</title>
<g id="a_node14"><a xlink:href="IDisplay_8hpp.xhtml" target="_top" xlink:title=" ">
<polygon fill="white" stroke="#666666" points="795,-129 726,-129 726,-110 795,-110 795,-129"/>
<text text-anchor="middle" x="760.5" y="-117" font-family="Helvetica,sans-Serif" font-size="10.00">IDisplay.hpp</text>
</a>
</g>
</g>
<!-- Node13&#45;&gt;Node14 -->
<g id="edge15" class="edge">
<title>Node13&#45;&gt;Node14</title>
<path fill="none" stroke="#63b8ff" d="M821.56,-170.12C810.68,-161.27 793.71,-147.48 780.42,-136.69"/>
<polygon fill="#63b8ff" stroke="#63b8ff" points="782.68,-134.01 772.71,-130.42 778.27,-139.45 782.68,-134.01"/>
</g>
<!-- Node15 -->
<g id="node15" class="node">
<title>Node15</title>
<g id="a_node15"><a xlink:href="MenuItem_8hpp.xhtml" target="_top" xlink:title=" ">
<polygon fill="white" stroke="#666666" points="799.5,-74 721.5,-74 721.5,-55 799.5,-55 799.5,-74"/>
<text text-anchor="middle" x="760.5" y="-62" font-family="Helvetica,sans-Serif" font-size="10.00">MenuItem.hpp</text>
</a>
</g>
</g>
<!-- Node14&#45;&gt;Node15 -->
<g id="edge16" class="edge">
<title>Node14&#45;&gt;Node15</title>
<path fill="none" stroke="#63b8ff" d="M760.5,-109.75C760.5,-103.27 760.5,-94.16 760.5,-85.9"/>
<polygon fill="#63b8ff" stroke="#63b8ff" points="764,-85.96 760.5,-75.96 757,-85.96 764,-85.96"/>
</g>
<!-- Node15&#45;&gt;Node9 -->
<g id="edge17" class="edge">
<title>Node15&#45;&gt;Node9</title>
<path fill="none" stroke="#63b8ff" d="M733.53,-54.51C705.84,-45.28 662.76,-30.92 633.4,-21.13"/>
<polygon fill="#63b8ff" stroke="#63b8ff" points="634.53,-17.82 623.93,-17.98 632.31,-24.46 634.53,-17.82"/>
</g>
<!-- Node16 -->
<g id="node16" class="node">
<title>Node16</title>
<g id="a_node16"><a xlink:title=" ">
<polygon fill="#e0e0e0" stroke="#999999" points="1015.5,-19 971.5,-19 971.5,0 1015.5,0 1015.5,-19"/>
<text text-anchor="middle" x="993.5" y="-7" font-family="Helvetica,sans-Serif" font-size="10.00">vector</text>
</a>
</g>
</g>
<!-- Node15&#45;&gt;Node16 -->
<g id="edge18" class="edge">
<title>Node15&#45;&gt;Node16</title>
<path fill="none" stroke="#63b8ff" d="M799.76,-54.57C844.69,-44.35 917.52,-27.78 959.92,-18.14"/>
<polygon fill="#63b8ff" stroke="#63b8ff" points="960.57,-21.58 969.55,-15.95 959.02,-14.75 960.57,-21.58"/>
</g>
<!-- Node17&#45;&gt;Node13 -->
<g id="edge21" class="edge">
<title>Node17&#45;&gt;Node13</title>
<path fill="none" stroke="#63b8ff" d="M923.76,-236.1C906.44,-225.64 877.43,-208.13 856.77,-195.66"/>
<polygon fill="#63b8ff" stroke="#63b8ff" points="858.78,-192.78 848.41,-190.61 855.16,-198.77 858.78,-192.78"/>
</g>
<!-- Node17&#45;&gt;Node16 -->
<g id="edge23" class="edge">
<title>Node17&#45;&gt;Node16</title>
<path fill="none" stroke="#63b8ff" d="M946.75,-236.23C955.05,-226.82 967.46,-211.07 973.5,-195 994.8,-138.3 995.6,-65.39 994.53,-30.64"/>
<polygon fill="#63b8ff" stroke="#63b8ff" points="998.03,-30.67 994.12,-20.82 991.04,-30.96 998.03,-30.67"/>
</g>
<!-- Node18 -->
<g id="node18" class="node">
<title>Node18</title>
<g id="a_node18"><a xlink:href="IStatusIndicator_8hpp.xhtml" target="_top" xlink:title=" ">
<polygon fill="white" stroke="#666666" points="1125.5,-189.5 1021.5,-189.5 1021.5,-170.5 1125.5,-170.5 1125.5,-189.5"/>
<text text-anchor="middle" x="1073.5" y="-177.5" font-family="Helvetica,sans-Serif" font-size="10.00">IStatusIndicator.hpp</text>
</a>
</g>
</g>
<!-- Node17&#45;&gt;Node18 -->
<g id="edge20" class="edge">
<title>Node17&#45;&gt;Node18</title>
<path fill="none" stroke="#63b8ff" d="M957.27,-236.1C979.94,-225.35 1018.31,-207.16 1044.72,-194.64"/>
<polygon fill="#63b8ff" stroke="#63b8ff" points="1045.98,-197.92 1053.52,-190.47 1042.99,-191.59 1045.98,-197.92"/>
</g>
<!-- Node19 -->
<g id="node19" class="node">
<title>Node19</title>
<g id="a_node19"><a xlink:title=" ">
<polygon fill="#e0e0e0" stroke="#999999" points="965,-189.5 916,-189.5 916,-170.5 965,-170.5 965,-189.5"/>
<text text-anchor="middle" x="940.5" y="-177.5" font-family="Helvetica,sans-Serif" font-size="10.00">cstddef</text>
</a>
</g>
</g>
<!-- Node17&#45;&gt;Node19 -->
<g id="edge22" class="edge">
<title>Node17&#45;&gt;Node19</title>
<path fill="none" stroke="#63b8ff" d="M938.78,-236.1C939.06,-227.12 939.5,-212.95 939.87,-201.22"/>
<polygon fill="#63b8ff" stroke="#63b8ff" points="943.36,-201.44 940.18,-191.34 936.37,-201.22 943.36,-201.44"/>
</g>
<!-- Node21 -->
<g id="node21" class="node">
<title>Node21</title>
<g id="a_node21"><a xlink:href="KeyIds_8hpp.xhtml" target="_top" xlink:title=" ">
<polygon fill="white" stroke="#666666" points="296,-129 231,-129 231,-110 296,-110 296,-129"/>
<text text-anchor="middle" x="263.5" y="-117" font-family="Helvetica,sans-Serif" font-size="10.00">KeyIds.hpp</text>
</a>
</g>
</g>
<!-- Node20&#45;&gt;Node21 -->
<g id="edge25" class="edge">
<title>Node20&#45;&gt;Node21</title>
<path fill="none" stroke="#63b8ff" d="M85.56,-230.72C123.99,-206.91 200.76,-159.36 239.69,-135.25"/>
<polygon fill="#63b8ff" stroke="#63b8ff" points="241.22,-138.42 247.87,-130.18 237.53,-132.47 241.22,-138.42"/>
</g>
<!-- Node21&#45;&gt;Node8 -->
<g id="edge26" class="edge">
<title>Node21&#45;&gt;Node8</title>
<path fill="none" stroke="#63b8ff" d="M275.2,-109.51C285.28,-101.77 300.04,-90.43 312.06,-81.2"/>
<polygon fill="#63b8ff" stroke="#63b8ff" points="313.97,-84.15 319.77,-75.28 309.71,-78.6 313.97,-84.15"/>
</g>
<!-- Node22&#45;&gt;Node14 -->
<g id="edge28" class="edge">
<title>Node22&#45;&gt;Node14</title>
<path fill="none" stroke="#63b8ff" d="M707.05,-164.54C717.47,-155.96 730.68,-145.07 741.37,-136.26"/>
<polygon fill="#63b8ff" stroke="#63b8ff" points="743.31,-139.2 748.8,-130.14 738.86,-133.8 743.31,-139.2"/>
</g>
<!-- Node24 -->
<g id="node24" class="node">
<title>Node24</title>
<g id="a_node24"><a xlink:href="IKeypad_8hpp.xhtml" target="_top" xlink:title=" ">
<polygon fill="white" stroke="#666666" points="328.5,-189.5 258.5,-189.5 258.5,-170.5 328.5,-170.5 328.5,-189.5"/>
<text text-anchor="middle" x="293.5" y="-177.5" font-family="Helvetica,sans-Serif" font-size="10.00">IKeypad.hpp</text>
</a>
</g>
</g>
<!-- Node23&#45;&gt;Node24 -->
<g id="edge30" class="edge">
<title>Node23&#45;&gt;Node24</title>
<path fill="none" stroke="#63b8ff" d="M346.41,-230.8C336.02,-221.01 322.17,-207.98 311.24,-197.7"/>
<polygon fill="#63b8ff" stroke="#63b8ff" points="313.68,-195.19 304,-190.88 308.88,-200.28 313.68,-195.19"/>
</g>
<!-- Node24&#45;&gt;Node6 -->
<g id="edge32" class="edge">
<title>Node24&#45;&gt;Node6</title>
<path fill="none" stroke="#63b8ff" d="M300.88,-170.37C308.19,-161.81 319.59,-148.47 328.76,-137.74"/>
<polygon fill="#63b8ff" stroke="#63b8ff" points="331.27,-140.19 335.11,-130.32 325.95,-135.65 331.27,-140.19"/>
</g>
<!-- Node24&#45;&gt;Node21 -->
<g id="edge31" class="edge">
<title>Node24&#45;&gt;Node21</title>
<path fill="none" stroke="#63b8ff" d="M289.07,-170.37C284.91,-162.25 278.53,-149.81 273.18,-139.39"/>
<polygon fill="#63b8ff" stroke="#63b8ff" points="276.31,-137.82 268.64,-130.51 270.08,-141.01 276.31,-137.82"/>
</g>
<!-- Node25&#45;&gt;Node16 -->
<g id="edge35" class="edge">
<title>Node25&#45;&gt;Node16</title>
<path fill="none" stroke="#63b8ff" d="M1120.54,-230.61C1130.53,-214.42 1143.2,-187.44 1134.5,-165 1110.48,-103.06 1048.79,-50.75 1015.53,-25.93"/>
<polygon fill="#63b8ff" stroke="#63b8ff" points="1017.94,-23.36 1007.8,-20.3 1013.82,-29.02 1017.94,-23.36"/>
</g>
<!-- Node25&#45;&gt;Node18 -->
<g id="edge34" class="edge">
<title>Node25&#45;&gt;Node18</title>
<path fill="none" stroke="#63b8ff" d="M1102.29,-230.8C1096.97,-221.6 1089.99,-209.53 1084.24,-199.58"/>
<polygon fill="#63b8ff" stroke="#63b8ff" points="1087.41,-198.06 1079.37,-191.15 1081.35,-201.56 1087.41,-198.06"/>
</g>
</g>
</svg>
