<?xml version="1.0" encoding="UTF-8" standalone="no"?>
<!DOCTYPE svg PUBLIC "-//W3C//DTD SVG 1.1//EN"
 "http://www.w3.org/Graphics/SVG/1.1/DTD/svg11.dtd">
<!-- Generated by graphviz version 7.0.5 (20221223.1930)
 -->
<!-- Title: src/main.cpp Pages: 1 -->
<svg width="1149pt" height="335pt"
 viewBox="0.00 0.00 1149.00 335.00" xmlns="http://www.w3.org/2000/svg" xmlns:xlink="http://www.w3.org/1999/xlink">
<g id="graph0" class="graph" transform="scale(1 1) rotate(0) translate(4 331)">
<title>src/main.cpp</title>
<!-- Node1 -->
<g id="node1" class="node">
<title>Node1</title>
<g id="a_node1"><a xlink:title=" ">
<polygon fill="#999999" stroke="#666666" points="565,-327 493,-327 493,-308 565,-308 565,-327"/>
<text text-anchor="middle" x="529" y="-315" font-family="Helvetica,sans-Serif" font-size="10.00">src/main.cpp</text>
</a>
</g>
</g>
<!-- Node2 -->
<g id="node2" class="node">
<title>Node2</title>
<g id="a_node2"><a xlink:title=" ">
<polygon fill="#e0e0e0" stroke="#999999" points="46,-200.5 0,-200.5 0,-181.5 46,-181.5 46,-200.5"/>
<text text-anchor="middle" x="23" y="-188.5" font-family="Helvetica,sans-Serif" font-size="10.00">chrono</text>
</a>
</g>
</g>
<!-- Node1&#45;&gt;Node2 -->
<g id="edge1" class="edge">
<title>Node1&#45;&gt;Node2</title>
<path fill="none" stroke="#63b8ff" d="M492.84,-315.54C386.17,-312.39 78.07,-300.86 44,-272 26.82,-257.45 22.81,-230.7 22.28,-212.17"/>
<polygon fill="#63b8ff" stroke="#63b8ff" points="25.78,-212.43 22.34,-202.41 18.78,-212.39 25.78,-212.43"/>
</g>
<!-- Node3 -->
<g id="node3" class="node">
<title>Node3</title>
<g id="a_node3"><a xlink:href="Protocol_8hpp.xhtml" target="_top" xlink:title=" ">
<polygon fill="white" stroke="#666666" points="1079,-266.5 939,-266.5 939,-247.5 1079,-247.5 1079,-266.5"/>
<text text-anchor="middle" x="1009" y="-254.5" font-family="Helvetica,sans-Serif" font-size="10.00">serial_interface/Protocol.hpp</text>
</a>
</g>
</g>
<!-- Node1&#45;&gt;Node3 -->
<g id="edge2" class="edge">
<title>Node1&#45;&gt;Node3</title>
<path fill="none" stroke="#63b8ff" d="M565.32,-313.27C635.81,-306.81 796.02,-291.29 930,-272 936.54,-271.06 943.36,-269.99 950.14,-268.86"/>
<polygon fill="#63b8ff" stroke="#63b8ff" points="950.69,-272.32 959.96,-267.19 949.52,-265.42 950.69,-272.32"/>
</g>
<!-- Node4 -->
<g id="node4" class="node">
<title>Node4</title>
<g id="a_node4"><a xlink:href="serial__port_8hpp.xhtml" target="_top" xlink:title=" ">
<polygon fill="white" stroke="#666666" points="234.5,-140 125.5,-140 125.5,-110 234.5,-110 234.5,-140"/>
<text text-anchor="start" x="133.5" y="-128" font-family="Helvetica,sans-Serif" font-size="10.00">serial_interface/serial</text>
<text text-anchor="middle" x="180" y="-117" font-family="Helvetica,sans-Serif" font-size="10.00">_port.hpp</text>
</a>
</g>
</g>
<!-- Node1&#45;&gt;Node4 -->
<g id="edge3" class="edge">
<title>Node1&#45;&gt;Node4</title>
<path fill="none" stroke="#63b8ff" d="M492.68,-317.41C420.15,-317 258.05,-304.5 185,-206 173.59,-190.62 173,-168.66 174.9,-151.64"/>
<polygon fill="#63b8ff" stroke="#63b8ff" points="178.36,-152.19 176.38,-141.78 171.43,-151.15 178.36,-152.19"/>
</g>
<!-- Node10 -->
<g id="node10" class="node">
<title>Node10</title>
<g id="a_node10"><a xlink:href="Task_8hpp.xhtml" target="_top" xlink:title=" ">
<polygon fill="white" stroke="#666666" points="136.5,-266.5 53.5,-266.5 53.5,-247.5 136.5,-247.5 136.5,-266.5"/>
<text text-anchor="middle" x="95" y="-254.5" font-family="Helvetica,sans-Serif" font-size="10.00">tasks/Task.hpp</text>
</a>
</g>
</g>
<!-- Node1&#45;&gt;Node10 -->
<g id="edge9" class="edge">
<title>Node1&#45;&gt;Node10</title>
<path fill="none" stroke="#63b8ff" d="M492.65,-313.71C425.15,-308.2 276.03,-294.46 152,-272 147.95,-271.27 143.76,-270.42 139.58,-269.5"/>
<polygon fill="#63b8ff" stroke="#63b8ff" points="140.61,-266.15 130.08,-267.32 139.05,-272.97 140.61,-266.15"/>
</g>
<!-- Node12 -->
<g id="node12" class="node">
<title>Node12</title>
<g id="a_node12"><a xlink:title=" ">
<polygon fill="#e0e0e0" stroke="#999999" points="1141,-266.5 1097,-266.5 1097,-247.5 1141,-247.5 1141,-266.5"/>
<text text-anchor="middle" x="1119" y="-254.5" font-family="Helvetica,sans-Serif" font-size="10.00">thread</text>
</a>
</g>
</g>
<!-- Node1&#45;&gt;Node12 -->
<g id="edge13" class="edge">
<title>Node1&#45;&gt;Node12</title>
<path fill="none" stroke="#63b8ff" d="M565.14,-315.24C672.53,-311.26 988.41,-297.62 1088,-272 1089.17,-271.7 1090.36,-271.36 1091.54,-270.98"/>
<polygon fill="#63b8ff" stroke="#63b8ff" points="1092.52,-274.35 1100.59,-267.48 1090,-267.82 1092.52,-274.35"/>
</g>
<!-- Node13 -->
<g id="node13" class="node">
<title>Node13</title>
<g id="a_node13"><a xlink:href="Menu_8hpp.xhtml" target="_top" xlink:title=" ">
<polygon fill="white" stroke="#666666" points="599.5,-200.5 468.5,-200.5 468.5,-181.5 599.5,-181.5 599.5,-200.5"/>
<text text-anchor="middle" x="534" y="-188.5" font-family="Helvetica,sans-Serif" font-size="10.00">user_interaction/Menu.hpp</text>
</a>
</g>
</g>
<!-- Node1&#45;&gt;Node13 -->
<g id="edge14" class="edge">
<title>Node1&#45;&gt;Node13</title>
<path fill="none" stroke="#63b8ff" d="M529.36,-307.55C530.16,-287.72 532.09,-239.68 533.19,-212.19"/>
<polygon fill="#63b8ff" stroke="#63b8ff" points="536.68,-212.52 533.58,-202.38 529.68,-212.24 536.68,-212.52"/>
</g>
<!-- Node19 -->
<g id="node19" class="node">
<title>Node19</title>
<g id="a_node19"><a xlink:href="Presenter_8hpp.xhtml" target="_top" xlink:title=" ">
<polygon fill="white" stroke="#666666" points="744.5,-266.5 595.5,-266.5 595.5,-247.5 744.5,-247.5 744.5,-266.5"/>
<text text-anchor="middle" x="670" y="-254.5" font-family="Helvetica,sans-Serif" font-size="10.00">user_interaction/Presenter.hpp</text>
</a>
</g>
</g>
<!-- Node1&#45;&gt;Node19 -->
<g id="edge23" class="edge">
<title>Node1&#45;&gt;Node19</title>
<path fill="none" stroke="#63b8ff" d="M550.41,-307.62C573.71,-297.95 611.19,-282.4 637.98,-271.28"/>
<polygon fill="#63b8ff" stroke="#63b8ff" points="639.09,-274.61 646.99,-267.55 636.41,-268.15 639.09,-274.61"/>
</g>
<!-- Node22 -->
<g id="node22" class="node">
<title>Node22</title>
<g id="a_node22"><a xlink:href="ProcessHmiInputs_8hpp.xhtml" target="_top" xlink:title=" ">
<polygon fill="white" stroke="#666666" points="637.5,-140 512.5,-140 512.5,-110 637.5,-110 637.5,-140"/>
<text text-anchor="start" x="520.5" y="-128" font-family="Helvetica,sans-Serif" font-size="10.00">user_interaction/Process</text>
<text text-anchor="middle" x="575" y="-117" font-family="Helvetica,sans-Serif" font-size="10.00">HmiInputs.hpp</text>
</a>
</g>
</g>
<!-- Node1&#45;&gt;Node22 -->
<g id="edge28" class="edge">
<title>Node1&#45;&gt;Node22</title>
<path fill="none" stroke="#63b8ff" d="M535.98,-307.54C554.76,-283.34 605.2,-217.72 609,-206 613.11,-193.32 612.92,-188.74 609,-176 606.06,-166.44 600.6,-157.07 594.9,-149.08"/>
<polygon fill="#63b8ff" stroke="#63b8ff" points="597.78,-147.08 588.91,-141.28 592.23,-151.34 597.78,-147.08"/>
</g>
<!-- Node23 -->
<g id="node23" class="node">
<title>Node23</title>
<g id="a_node23"><a xlink:href="display__factory__interface_8hpp.xhtml" target="_top" xlink:title="Dependency injection for the display.">
<polygon fill="white" stroke="#666666" points="313.5,-206 194.5,-206 194.5,-176 313.5,-176 313.5,-206"/>
<text text-anchor="start" x="202.5" y="-194" font-family="Helvetica,sans-Serif" font-size="10.00">user_interaction/display</text>
<text text-anchor="middle" x="254" y="-183" font-family="Helvetica,sans-Serif" font-size="10.00">_factory_interface.hpp</text>
</a>
</g>
</g>
<!-- Node1&#45;&gt;Node23 -->
<g id="edge30" class="edge">
<title>Node1&#45;&gt;Node23</title>
<path fill="none" stroke="#63b8ff" d="M509.22,-307.55C464.84,-287.45 356.5,-238.41 296.22,-211.11"/>
<polygon fill="#63b8ff" stroke="#63b8ff" points="297.84,-208.01 287.29,-207.07 294.95,-214.38 297.84,-208.01"/>
</g>
<!-- Node24 -->
<g id="node24" class="node">
<title>Node24</title>
<g id="a_node24"><a xlink:href="keypad__factory__interface_8hpp.xhtml" target="_top" xlink:title="Dependency injection for the keypad.">
<polygon fill="white" stroke="#666666" points="450.5,-206 331.5,-206 331.5,-176 450.5,-176 450.5,-206"/>
<text text-anchor="start" x="339.5" y="-194" font-family="Helvetica,sans-Serif" font-size="10.00">user_interaction/keypad</text>
<text text-anchor="middle" x="391" y="-183" font-family="Helvetica,sans-Serif" font-size="10.00">_factory_interface.hpp</text>
</a>
</g>
</g>
<!-- Node1&#45;&gt;Node24 -->
<g id="edge32" class="edge">
<title>Node1&#45;&gt;Node24</title>
<path fill="none" stroke="#63b8ff" d="M519.08,-307.55C497.59,-288.16 446.22,-241.82 415.47,-214.07"/>
<polygon fill="#63b8ff" stroke="#63b8ff" points="417.9,-211.56 408.14,-207.46 413.22,-216.76 417.9,-211.56"/>
</g>
<!-- Node25 -->
<g id="node25" class="node">
<title>Node25</title>
<g id="a_node25"><a xlink:href="statusindicators__factory__interface_8hpp.xhtml" target="_top" xlink:title="Dependency injection for the keypad.">
<polygon fill="white" stroke="#666666" points="921,-272 763,-272 763,-242 921,-242 921,-272"/>
<text text-anchor="start" x="771" y="-260" font-family="Helvetica,sans-Serif" font-size="10.00">user_interaction/statusindicators</text>
<text text-anchor="middle" x="842" y="-249" font-family="Helvetica,sans-Serif" font-size="10.00">_factory_interface.hpp</text>
</a>
</g>
</g>
<!-- Node1&#45;&gt;Node25 -->
<g id="edge34" class="edge">
<title>Node1&#45;&gt;Node25</title>
<path fill="none" stroke="#63b8ff" d="M565.21,-309.73C610.98,-301.18 691.31,-286.16 753.69,-274.51"/>
<polygon fill="#63b8ff" stroke="#63b8ff" points="754.04,-278 763.23,-272.72 752.76,-271.12 754.04,-278"/>
</g>
<!-- Node5 -->
<g id="node5" class="node">
<title>Node5</title>
<g id="a_node5"><a xlink:title=" ">
<polygon fill="#e0e0e0" stroke="#999999" points="140,-74 102,-74 102,-55 140,-55 140,-74"/>
<text text-anchor="middle" x="121" y="-62" font-family="Helvetica,sans-Serif" font-size="10.00">array</text>
</a>
</g>
</g>
<!-- Node4&#45;&gt;Node5 -->
<g id="edge4" class="edge">
<title>Node4&#45;&gt;Node5</title>
<path fill="none" stroke="#63b8ff" d="M165.42,-109.54C157.02,-101.22 146.44,-90.72 137.71,-82.07"/>
<polygon fill="#63b8ff" stroke="#63b8ff" points="140.39,-79.8 130.82,-75.24 135.46,-84.77 140.39,-79.8"/>
</g>
<!-- Node6 -->
<g id="node6" class="node">
<title>Node6</title>
<g id="a_node6"><a xlink:title=" ">
<polygon fill="#e0e0e0" stroke="#999999" points="361.5,-74 302.5,-74 302.5,-55 361.5,-55 361.5,-74"/>
<text text-anchor="middle" x="332" y="-62" font-family="Helvetica,sans-Serif" font-size="10.00">functional</text>
</a>
</g>
</g>
<!-- Node4&#45;&gt;Node6 -->
<g id="edge5" class="edge">
<title>Node4&#45;&gt;Node6</title>
<path fill="none" stroke="#63b8ff" d="M217.57,-109.54C242.31,-100.02 274.43,-87.66 298.34,-78.46"/>
<polygon fill="#63b8ff" stroke="#63b8ff" points="299.53,-81.75 307.6,-74.89 297.01,-75.22 299.53,-81.75"/>
</g>
<!-- Node7 -->
<g id="node7" class="node">
<title>Node7</title>
<g id="a_node7"><a xlink:title=" ">
<polygon fill="#e0e0e0" stroke="#999999" points="284,-74 234,-74 234,-55 284,-55 284,-74"/>
<text text-anchor="middle" x="259" y="-62" font-family="Helvetica,sans-Serif" font-size="10.00">optional</text>
</a>
</g>
</g>
<!-- Node4&#45;&gt;Node7 -->
<g id="edge6" class="edge">
<title>Node4&#45;&gt;Node7</title>
<path fill="none" stroke="#63b8ff" d="M199.53,-109.54C211.24,-100.87 226.12,-89.85 238.07,-81"/>
<polygon fill="#63b8ff" stroke="#63b8ff" points="240.11,-83.84 246.07,-75.08 235.95,-78.21 240.11,-83.84"/>
</g>
<!-- Node8 -->
<g id="node8" class="node">
<title>Node8</title>
<g id="a_node8"><a xlink:title=" ">
<polygon fill="#e0e0e0" stroke="#999999" points="397,-19 345,-19 345,0 397,0 397,-19"/>
<text text-anchor="middle" x="371" y="-7" font-family="Helvetica,sans-Serif" font-size="10.00">ostream</text>
</a>
</g>
</g>
<!-- Node4&#45;&gt;Node8 -->
<g id="edge7" class="edge">
<title>Node4&#45;&gt;Node8</title>
<path fill="none" stroke="#63b8ff" d="M185.74,-109.7C192.73,-94.04 206.02,-69.26 225,-55 256.98,-30.97 302.01,-19.81 333.58,-14.69"/>
<polygon fill="#63b8ff" stroke="#63b8ff" points="333.68,-18.22 343.06,-13.29 332.66,-11.29 333.68,-18.22"/>
</g>
<!-- Node9 -->
<g id="node9" class="node">
<title>Node9</title>
<g id="a_node9"><a xlink:title=" ">
<polygon fill="#e0e0e0" stroke="#999999" points="188.5,-19 147.5,-19 147.5,0 188.5,0 188.5,-19"/>
<text text-anchor="middle" x="168" y="-7" font-family="Helvetica,sans-Serif" font-size="10.00">string</text>
</a>
</g>
</g>
<!-- Node4&#45;&gt;Node9 -->
<g id="edge8" class="edge">
<title>Node4&#45;&gt;Node9</title>
<path fill="none" stroke="#63b8ff" d="M178.48,-109.63C176.36,-89.59 172.51,-53.17 170.11,-30.49"/>
<polygon fill="#63b8ff" stroke="#63b8ff" points="173.61,-30.31 169.08,-20.73 166.65,-31.05 173.61,-30.31"/>
</g>
<!-- Node10&#45;&gt;Node2 -->
<g id="edge10" class="edge">
<title>Node10&#45;&gt;Node2</title>
<path fill="none" stroke="#63b8ff" d="M84.99,-247.1C73.7,-237.07 55.13,-220.56 41.25,-208.22"/>
<polygon fill="#63b8ff" stroke="#63b8ff" points="43.86,-205.86 34.06,-201.83 39.21,-211.09 43.86,-205.86"/>
</g>
<!-- Node10&#45;&gt;Node9 -->
<g id="edge12" class="edge">
<title>Node10&#45;&gt;Node9</title>
<path fill="none" stroke="#63b8ff" d="M92.01,-247.2C82.52,-217.66 55.87,-120.2 93,-55 102.37,-38.54 120.5,-27.54 136.59,-20.59"/>
<polygon fill="#63b8ff" stroke="#63b8ff" points="137.82,-23.87 145.85,-16.97 135.27,-17.35 137.82,-23.87"/>
</g>
<!-- Node11 -->
<g id="node11" class="node">
<title>Node11</title>
<g id="a_node11"><a xlink:title=" ">
<polygon fill="#e0e0e0" stroke="#999999" points="137.5,-200.5 102.5,-200.5 102.5,-181.5 137.5,-181.5 137.5,-200.5"/>
<text text-anchor="middle" x="120" y="-188.5" font-family="Helvetica,sans-Serif" font-size="10.00">map</text>
</a>
</g>
</g>
<!-- Node10&#45;&gt;Node11 -->
<g id="edge11" class="edge">
<title>Node10&#45;&gt;Node11</title>
<path fill="none" stroke="#63b8ff" d="M98.48,-247.1C102.06,-237.93 107.76,-223.34 112.39,-211.48"/>
<polygon fill="#63b8ff" stroke="#63b8ff" points="115.62,-212.82 116,-202.23 109.1,-210.27 115.62,-212.82"/>
</g>
<!-- Node14 -->
<g id="node14" class="node">
<title>Node14</title>
<g id="a_node14"><a xlink:href="IDisplay_8hpp.xhtml" target="_top" xlink:title=" ">
<polygon fill="white" stroke="#666666" points="333.5,-134.5 264.5,-134.5 264.5,-115.5 333.5,-115.5 333.5,-134.5"/>
<text text-anchor="middle" x="299" y="-122.5" font-family="Helvetica,sans-Serif" font-size="10.00">IDisplay.hpp</text>
</a>
</g>
</g>
<!-- Node13&#45;&gt;Node14 -->
<g id="edge15" class="edge">
<title>Node13&#45;&gt;Node14</title>
<path fill="none" stroke="#63b8ff" d="M497.59,-181.07C459.04,-171.47 396.5,-155.5 343,-140 341.15,-139.46 339.25,-138.9 337.34,-138.33"/>
<polygon fill="#63b8ff" stroke="#63b8ff" points="338.43,-135 327.84,-135.4 336.37,-141.69 338.43,-135"/>
</g>
<!-- Node17 -->
<g id="node17" class="node">
<title>Node17</title>
<g id="a_node17"><a xlink:href="IKeypad_8hpp.xhtml" target="_top" xlink:title=" ">
<polygon fill="white" stroke="#666666" points="494,-134.5 352,-134.5 352,-115.5 494,-115.5 494,-134.5"/>
<text text-anchor="middle" x="423" y="-122.5" font-family="Helvetica,sans-Serif" font-size="10.00">user_interaction/IKeypad.hpp</text>
</a>
</g>
</g>
<!-- Node13&#45;&gt;Node17 -->
<g id="edge19" class="edge">
<title>Node13&#45;&gt;Node17</title>
<path fill="none" stroke="#63b8ff" d="M518.57,-181.1C500.34,-170.59 469.77,-152.97 448.12,-140.49"/>
<polygon fill="#63b8ff" stroke="#63b8ff" points="450.03,-137.54 439.61,-135.58 446.53,-143.61 450.03,-137.54"/>
</g>
<!-- Node15 -->
<g id="node15" class="node">
<title>Node15</title>
<g id="a_node15"><a xlink:href="MenuItem_8hpp.xhtml" target="_top" xlink:title=" ">
<polygon fill="white" stroke="#666666" points="458,-74 380,-74 380,-55 458,-55 458,-74"/>
<text text-anchor="middle" x="419" y="-62" font-family="Helvetica,sans-Serif" font-size="10.00">MenuItem.hpp</text>
</a>
</g>
</g>
<!-- Node14&#45;&gt;Node15 -->
<g id="edge16" class="edge">
<title>Node14&#45;&gt;Node15</title>
<path fill="none" stroke="#63b8ff" d="M317.23,-115.12C336.7,-105.62 367.82,-90.45 390.53,-79.38"/>
<polygon fill="#63b8ff" stroke="#63b8ff" points="391.79,-82.66 399.24,-75.13 388.72,-76.37 391.79,-82.66"/>
</g>
<!-- Node15&#45;&gt;Node9 -->
<g id="edge17" class="edge">
<title>Node15&#45;&gt;Node9</title>
<path fill="none" stroke="#63b8ff" d="M379.51,-55.16C329.85,-44.67 245.58,-26.88 199.83,-17.22"/>
<polygon fill="#63b8ff" stroke="#63b8ff" points="200.8,-13.85 190.29,-15.21 199.35,-20.7 200.8,-13.85"/>
</g>
<!-- Node16 -->
<g id="node16" class="node">
<title>Node16</title>
<g id="a_node16"><a xlink:title=" ">
<polygon fill="#e0e0e0" stroke="#999999" points="688,-19 644,-19 644,0 688,0 688,-19"/>
<text text-anchor="middle" x="666" y="-7" font-family="Helvetica,sans-Serif" font-size="10.00">vector</text>
</a>
</g>
</g>
<!-- Node15&#45;&gt;Node16 -->
<g id="edge18" class="edge">
<title>Node15&#45;&gt;Node16</title>
<path fill="none" stroke="#63b8ff" d="M458.41,-55.04C506.55,-44.71 587.14,-27.42 632.45,-17.7"/>
<polygon fill="#63b8ff" stroke="#63b8ff" points="633.18,-21.12 642.22,-15.6 631.71,-14.28 633.18,-21.12"/>
</g>
<!-- Node17&#45;&gt;Node6 -->
<g id="edge22" class="edge">
<title>Node17&#45;&gt;Node6</title>
<path fill="none" stroke="#63b8ff" d="M409.18,-115.12C394.88,-105.92 372.3,-91.41 355.25,-80.44"/>
<polygon fill="#63b8ff" stroke="#63b8ff" points="357.53,-77.75 347.22,-75.29 353.74,-83.64 357.53,-77.75"/>
</g>
<!-- Node18 -->
<g id="node18" class="node">
<title>Node18</title>
<g id="a_node18"><a xlink:href="KeyIds_8hpp.xhtml" target="_top" xlink:title=" ">
<polygon fill="white" stroke="#666666" points="541.5,-74 476.5,-74 476.5,-55 541.5,-55 541.5,-74"/>
<text text-anchor="middle" x="509" y="-62" font-family="Helvetica,sans-Serif" font-size="10.00">KeyIds.hpp</text>
</a>
</g>
</g>
<!-- Node17&#45;&gt;Node18 -->
<g id="edge20" class="edge">
<title>Node17&#45;&gt;Node18</title>
<path fill="none" stroke="#63b8ff" d="M436.06,-115.12C449.45,-106.01 470.52,-91.68 486.58,-80.75"/>
<polygon fill="#63b8ff" stroke="#63b8ff" points="488.26,-83.84 494.56,-75.32 484.33,-78.05 488.26,-83.84"/>
</g>
<!-- Node18&#45;&gt;Node8 -->
<g id="edge21" class="edge">
<title>Node18&#45;&gt;Node8</title>
<path fill="none" stroke="#63b8ff" d="M485.59,-54.51C463.35,-45.97 429.67,-33.03 404.58,-23.4"/>
<polygon fill="#63b8ff" stroke="#63b8ff" points="406.07,-20.22 395.48,-19.9 403.56,-26.75 406.07,-20.22"/>
</g>
<!-- Node19&#45;&gt;Node13 -->
<g id="edge25" class="edge">
<title>Node19&#45;&gt;Node13</title>
<path fill="none" stroke="#63b8ff" d="M651.09,-247.1C628.25,-236.35 589.6,-218.16 562.99,-205.64"/>
<polygon fill="#63b8ff" stroke="#63b8ff" points="564.66,-202.56 554.12,-201.47 561.68,-208.89 564.66,-202.56"/>
</g>
<!-- Node19&#45;&gt;Node16 -->
<g id="edge27" class="edge">
<title>Node19&#45;&gt;Node16</title>
<path fill="none" stroke="#63b8ff" d="M669.86,-247.26C669.29,-212.22 667.15,-81.3 666.33,-30.67"/>
<polygon fill="#63b8ff" stroke="#63b8ff" points="669.83,-30.84 666.17,-20.9 662.83,-30.96 669.83,-30.84"/>
</g>
<!-- Node20 -->
<g id="node20" class="node">
<title>Node20</title>
<g id="a_node20"><a xlink:href="IStatusIndicator_8hpp.xhtml" target="_top" xlink:title=" ">
<polygon fill="white" stroke="#666666" points="866,-200.5 762,-200.5 762,-181.5 866,-181.5 866,-200.5"/>
<text text-anchor="middle" x="814" y="-188.5" font-family="Helvetica,sans-Serif" font-size="10.00">IStatusIndicator.hpp</text>
</a>
</g>
</g>
<!-- Node19&#45;&gt;Node20 -->
<g id="edge24" class="edge">
<title>Node19&#45;&gt;Node20</title>
<path fill="none" stroke="#63b8ff" d="M690.02,-247.1C714.31,-236.31 755.49,-218 783.68,-205.48"/>
<polygon fill="#63b8ff" stroke="#63b8ff" points="785.05,-208.7 792.76,-201.44 782.2,-202.3 785.05,-208.7"/>
</g>
<!-- Node21 -->
<g id="node21" class="node">
<title>Node21</title>
<g id="a_node21"><a xlink:title=" ">
<polygon fill="#e0e0e0" stroke="#999999" points="743.5,-200.5 694.5,-200.5 694.5,-181.5 743.5,-181.5 743.5,-200.5"/>
<text text-anchor="middle" x="719" y="-188.5" font-family="Helvetica,sans-Serif" font-size="10.00">cstddef</text>
</a>
</g>
</g>
<!-- Node19&#45;&gt;Node21 -->
<g id="edge26" class="edge">
<title>Node19&#45;&gt;Node21</title>
<path fill="none" stroke="#63b8ff" d="M676.81,-247.1C684.2,-237.45 696.18,-221.81 705.49,-209.65"/>
<polygon fill="#63b8ff" stroke="#63b8ff" points="708.02,-212.09 711.32,-202.03 702.47,-207.84 708.02,-212.09"/>
</g>
<!-- Node22&#45;&gt;Node18 -->
<g id="edge29" class="edge">
<title>Node22&#45;&gt;Node18</title>
<path fill="none" stroke="#63b8ff" d="M558.69,-109.54C549.2,-101.13 537.21,-90.51 527.39,-81.8"/>
<polygon fill="#63b8ff" stroke="#63b8ff" points="529.73,-79.19 519.92,-75.18 525.08,-84.43 529.73,-79.19"/>
</g>
<!-- Node23&#45;&gt;Node14 -->
<g id="edge31" class="edge">
<title>Node23&#45;&gt;Node14</title>
<path fill="none" stroke="#63b8ff" d="M263.99,-175.8C270.52,-166.5 279.12,-154.27 286.16,-144.26"/>
<polygon fill="#63b8ff" stroke="#63b8ff" points="289.02,-146.28 291.91,-136.08 283.3,-142.25 289.02,-146.28"/>
</g>
<!-- Node24&#45;&gt;Node17 -->
<g id="edge33" class="edge">
<title>Node24&#45;&gt;Node17</title>
<path fill="none" stroke="#63b8ff" d="M398.1,-175.8C402.65,-166.7 408.61,-154.79 413.55,-144.9"/>
<polygon fill="#63b8ff" stroke="#63b8ff" points="416.56,-146.71 417.9,-136.2 410.3,-143.58 416.56,-146.71"/>
</g>
<!-- Node25&#45;&gt;Node16 -->
<g id="edge36" class="edge">
<title>Node25&#45;&gt;Node16</title>
<path fill="none" stroke="#63b8ff" d="M855.39,-241.61C868.76,-225.42 885.86,-198.45 875,-176 837.9,-99.3 746.09,-47.33 697.44,-24.19"/>
<polygon fill="#63b8ff" stroke="#63b8ff" points="699.1,-21.1 688.55,-20.07 696.15,-27.45 699.1,-21.1"/>
</g>
<!-- Node25&#45;&gt;Node20 -->
<g id="edge35" class="edge">
<title>Node25&#45;&gt;Node20</title>
<path fill="none" stroke="#63b8ff" d="M835.79,-241.8C831.85,-232.8 826.71,-221.04 822.41,-211.22"/>
<polygon fill="#63b8ff" stroke="#63b8ff" points="825.69,-209.99 818.48,-202.23 819.28,-212.8 825.69,-209.99"/>
</g>
</g>
</svg>
