<?xml version="1.0" encoding="UTF-8" standalone="no"?>
<!DOCTYPE svg PUBLIC "-//W3C//DTD SVG 1.1//EN"
 "http://www.w3.org/Graphics/SVG/1.1/DTD/svg11.dtd">
<!-- Generated by graphviz version 7.0.5 (20221223.1930)
 -->
<!-- Title: lib/application_business_rules/user_interaction/Menu.cpp Pages: 1 -->
<svg width="302pt" height="269pt"
 viewBox="0.00 0.00 302.00 269.00" xmlns="http://www.w3.org/2000/svg" xmlns:xlink="http://www.w3.org/1999/xlink">
<g id="graph0" class="graph" transform="scale(1 1) rotate(0) translate(4 265)">
<title>lib/application_business_rules/user_interaction/Menu.cpp</title>
<!-- Node1 -->
<g id="node1" class="node">
<title>Node1</title>
<g id="a_node1"><a xlink:title=" ">
<polygon fill="#999999" stroke="#666666" points="165,-261 45,-261 45,-220 165,-220 165,-261"/>
<text text-anchor="start" x="53" y="-249" font-family="Helvetica,sans-Serif" font-size="10.00">lib/application_business</text>
<text text-anchor="start" x="53" y="-238" font-family="Helvetica,sans-Serif" font-size="10.00">_rules/user_interaction</text>
<text text-anchor="middle" x="105" y="-227" font-family="Helvetica,sans-Serif" font-size="10.00">/Menu.cpp</text>
</a>
</g>
</g>
<!-- Node2 -->
<g id="node2" class="node">
<title>Node2</title>
<g id="a_node2"><a xlink:href="Menu_8hpp.xhtml" target="_top" xlink:title=" ">
<polygon fill="white" stroke="#666666" points="134.5,-184 75.5,-184 75.5,-165 134.5,-165 134.5,-184"/>
<text text-anchor="middle" x="105" y="-172" font-family="Helvetica,sans-Serif" font-size="10.00">Menu.hpp</text>
</a>
</g>
</g>
<!-- Node1&#45;&gt;Node2 -->
<g id="edge1" class="edge">
<title>Node1&#45;&gt;Node2</title>
<path fill="none" stroke="#63b8ff" d="M105,-219.6C105,-211.98 105,-203.3 105,-195.66"/>
<polygon fill="#63b8ff" stroke="#63b8ff" points="108.5,-195.68 105,-185.68 101.5,-195.68 108.5,-195.68"/>
</g>
<!-- Node4 -->
<g id="node4" class="node">
<title>Node4</title>
<g id="a_node4"><a xlink:href="MenuItem_8hpp.xhtml" target="_top" xlink:title=" ">
<polygon fill="white" stroke="#666666" points="83,-74 5,-74 5,-55 83,-55 83,-74"/>
<text text-anchor="middle" x="44" y="-62" font-family="Helvetica,sans-Serif" font-size="10.00">MenuItem.hpp</text>
</a>
</g>
</g>
<!-- Node1&#45;&gt;Node4 -->
<g id="edge10" class="edge">
<title>Node1&#45;&gt;Node4</title>
<path fill="none" stroke="#63b8ff" d="M87.99,-219.64C80.19,-209.56 71.47,-196.77 66,-184 51.95,-151.23 46.86,-109.59 45.02,-85.4"/>
<polygon fill="#63b8ff" stroke="#63b8ff" points="48.53,-85.48 44.41,-75.72 41.55,-85.92 48.53,-85.48"/>
</g>
<!-- Node11 -->
<g id="node11" class="node">
<title>Node11</title>
<g id="a_node11"><a xlink:href="KeyInputs_8hpp.xhtml" target="_top" xlink:title=" ">
<polygon fill="white" stroke="#666666" points="270.5,-184 163.5,-184 163.5,-165 270.5,-165 270.5,-184"/>
<text text-anchor="middle" x="217" y="-172" font-family="Helvetica,sans-Serif" font-size="10.00">LVGL/KeyInputs.hpp</text>
</a>
</g>
</g>
<!-- Node1&#45;&gt;Node11 -->
<g id="edge11" class="edge">
<title>Node1&#45;&gt;Node11</title>
<path fill="none" stroke="#63b8ff" d="M139.82,-219.6C156.62,-210 176.41,-198.7 191.74,-189.94"/>
<polygon fill="#63b8ff" stroke="#63b8ff" points="193.29,-193.08 200.23,-185.08 189.81,-187 193.29,-193.08"/>
</g>
<!-- Node3 -->
<g id="node3" class="node">
<title>Node3</title>
<g id="a_node3"><a xlink:href="IDisplay_8hpp.xhtml" target="_top" xlink:title=" ">
<polygon fill="white" stroke="#666666" points="133.5,-129 64.5,-129 64.5,-110 133.5,-110 133.5,-129"/>
<text text-anchor="middle" x="99" y="-117" font-family="Helvetica,sans-Serif" font-size="10.00">IDisplay.hpp</text>
</a>
</g>
</g>
<!-- Node2&#45;&gt;Node3 -->
<g id="edge2" class="edge">
<title>Node2&#45;&gt;Node3</title>
<path fill="none" stroke="#63b8ff" d="M104.01,-164.75C103.27,-158.19 102.22,-148.95 101.28,-140.6"/>
<polygon fill="#63b8ff" stroke="#63b8ff" points="104.79,-140.49 100.18,-130.95 97.83,-141.28 104.79,-140.49"/>
</g>
<!-- Node7 -->
<g id="node7" class="node">
<title>Node7</title>
<g id="a_node7"><a xlink:href="IKeypad_8hpp.xhtml" target="_top" xlink:title=" ">
<polygon fill="white" stroke="#666666" points="294,-129 152,-129 152,-110 294,-110 294,-129"/>
<text text-anchor="middle" x="223" y="-117" font-family="Helvetica,sans-Serif" font-size="10.00">user_interaction/IKeypad.hpp</text>
</a>
</g>
</g>
<!-- Node2&#45;&gt;Node7 -->
<g id="edge6" class="edge">
<title>Node2&#45;&gt;Node7</title>
<path fill="none" stroke="#63b8ff" d="M125.02,-164.51C143.61,-156.16 171.54,-143.61 192.83,-134.05"/>
<polygon fill="#63b8ff" stroke="#63b8ff" points="194.21,-137.27 201.9,-129.98 191.34,-130.88 194.21,-137.27"/>
</g>
<!-- Node3&#45;&gt;Node4 -->
<g id="edge3" class="edge">
<title>Node3&#45;&gt;Node4</title>
<path fill="none" stroke="#63b8ff" d="M89.92,-109.75C82.16,-102.27 70.79,-91.32 61.3,-82.17"/>
<polygon fill="#63b8ff" stroke="#63b8ff" points="64,-79.91 54.37,-75.49 59.14,-84.95 64,-79.91"/>
</g>
<!-- Node5 -->
<g id="node5" class="node">
<title>Node5</title>
<g id="a_node5"><a xlink:title=" ">
<polygon fill="#e0e0e0" stroke="#999999" points="103.5,-19 62.5,-19 62.5,0 103.5,0 103.5,-19"/>
<text text-anchor="middle" x="83" y="-7" font-family="Helvetica,sans-Serif" font-size="10.00">string</text>
</a>
</g>
</g>
<!-- Node4&#45;&gt;Node5 -->
<g id="edge4" class="edge">
<title>Node4&#45;&gt;Node5</title>
<path fill="none" stroke="#63b8ff" d="M50.44,-54.75C55.66,-47.66 63.19,-37.42 69.69,-28.59"/>
<polygon fill="#63b8ff" stroke="#63b8ff" points="72.42,-30.79 75.52,-20.66 66.78,-26.64 72.42,-30.79"/>
</g>
<!-- Node6 -->
<g id="node6" class="node">
<title>Node6</title>
<g id="a_node6"><a xlink:title=" ">
<polygon fill="#e0e0e0" stroke="#999999" points="44,-19 0,-19 0,0 44,0 44,-19"/>
<text text-anchor="middle" x="22" y="-7" font-family="Helvetica,sans-Serif" font-size="10.00">vector</text>
</a>
</g>
</g>
<!-- Node4&#45;&gt;Node6 -->
<g id="edge5" class="edge">
<title>Node4&#45;&gt;Node6</title>
<path fill="none" stroke="#63b8ff" d="M40.37,-54.75C37.58,-48.04 33.63,-38.52 30.1,-30.02"/>
<polygon fill="#63b8ff" stroke="#63b8ff" points="33.36,-28.73 26.29,-20.84 26.89,-31.42 33.36,-28.73"/>
</g>
<!-- Node8 -->
<g id="node8" class="node">
<title>Node8</title>
<g id="a_node8"><a xlink:href="KeyIds_8hpp.xhtml" target="_top" xlink:title=" ">
<polygon fill="white" stroke="#666666" points="197.5,-74 132.5,-74 132.5,-55 197.5,-55 197.5,-74"/>
<text text-anchor="middle" x="165" y="-62" font-family="Helvetica,sans-Serif" font-size="10.00">KeyIds.hpp</text>
</a>
</g>
</g>
<!-- Node7&#45;&gt;Node8 -->
<g id="edge7" class="edge">
<title>Node7&#45;&gt;Node8</title>
<path fill="none" stroke="#63b8ff" d="M213.16,-109.51C204.95,-102 193.02,-91.1 183.09,-82.03"/>
<polygon fill="#63b8ff" stroke="#63b8ff" points="185.55,-79.54 175.81,-75.38 180.83,-84.71 185.55,-79.54"/>
</g>
<!-- Node10 -->
<g id="node10" class="node">
<title>Node10</title>
<g id="a_node10"><a xlink:title=" ">
<polygon fill="#e0e0e0" stroke="#999999" points="274.5,-74 215.5,-74 215.5,-55 274.5,-55 274.5,-74"/>
<text text-anchor="middle" x="245" y="-62" font-family="Helvetica,sans-Serif" font-size="10.00">functional</text>
</a>
</g>
</g>
<!-- Node7&#45;&gt;Node10 -->
<g id="edge9" class="edge">
<title>Node7&#45;&gt;Node10</title>
<path fill="none" stroke="#63b8ff" d="M226.63,-109.75C229.42,-103.04 233.37,-93.52 236.9,-85.02"/>
<polygon fill="#63b8ff" stroke="#63b8ff" points="240.11,-86.42 240.71,-75.84 233.64,-83.73 240.11,-86.42"/>
</g>
<!-- Node9 -->
<g id="node9" class="node">
<title>Node9</title>
<g id="a_node9"><a xlink:title=" ">
<polygon fill="#e0e0e0" stroke="#999999" points="191,-19 139,-19 139,0 191,0 191,-19"/>
<text text-anchor="middle" x="165" y="-7" font-family="Helvetica,sans-Serif" font-size="10.00">ostream</text>
</a>
</g>
</g>
<!-- Node8&#45;&gt;Node9 -->
<g id="edge8" class="edge">
<title>Node8&#45;&gt;Node9</title>
<path fill="none" stroke="#63b8ff" d="M165,-54.75C165,-48.27 165,-39.16 165,-30.9"/>
<polygon fill="#63b8ff" stroke="#63b8ff" points="168.5,-30.96 165,-20.96 161.5,-30.96 168.5,-30.96"/>
</g>
<!-- Node11&#45;&gt;Node7 -->
<g id="edge12" class="edge">
<title>Node11&#45;&gt;Node7</title>
<path fill="none" stroke="#63b8ff" d="M217.99,-164.75C218.73,-158.19 219.78,-148.95 220.72,-140.6"/>
<polygon fill="#63b8ff" stroke="#63b8ff" points="224.17,-141.28 221.82,-130.95 217.21,-140.49 224.17,-141.28"/>
</g>
</g>
</svg>
