<?xml version="1.0" encoding="UTF-8" standalone="no"?>
<!DOCTYPE svg PUBLIC "-//W3C//DTD SVG 1.1//EN"
 "http://www.w3.org/Graphics/SVG/1.1/DTD/svg11.dtd">
<!-- Generated by graphviz version 7.0.5 (20221223.1930)
 -->
<!-- Title: lib/application_business_rules/user_interaction/MenuItem.hpp Pages: 1 -->
<svg width="782pt" height="357pt"
 viewBox="0.00 0.00 781.73 357.00" xmlns="http://www.w3.org/2000/svg" xmlns:xlink="http://www.w3.org/1999/xlink">
<g id="graph0" class="graph" transform="scale(1 1) rotate(0) translate(4 353)">
<title>lib/application_business_rules/user_interaction/MenuItem.hpp</title>
<!-- Node1 -->
<g id="node1" class="node">
<title>Node1</title>
<g id="a_node1"><a xlink:title=" ">
<polygon fill="#999999" stroke="#666666" points="446.73,-349 326.73,-349 326.73,-308 446.73,-308 446.73,-349"/>
<text text-anchor="start" x="334.73" y="-337" font-family="Helvetica,sans-Serif" font-size="10.00">lib/application_business</text>
<text text-anchor="start" x="334.73" y="-326" font-family="Helvetica,sans-Serif" font-size="10.00">_rules/user_interaction</text>
<text text-anchor="middle" x="386.73" y="-315" font-family="Helvetica,sans-Serif" font-size="10.00">/MenuItem.hpp</text>
</a>
</g>
</g>
<!-- Node2 -->
<g id="node2" class="node">
<title>Node2</title>
<g id="a_node2"><a xlink:href="Display_8cpp.xhtml" target="_top" xlink:title=" ">
<polygon fill="white" stroke="#666666" points="187.73,-112.5 75.73,-112.5 75.73,-82.5 187.73,-82.5 187.73,-112.5"/>
<text text-anchor="start" x="83.73" y="-100.5" font-family="Helvetica,sans-Serif" font-size="10.00">lib/3rd_party_adapters</text>
<text text-anchor="middle" x="131.73" y="-89.5" font-family="Helvetica,sans-Serif" font-size="10.00">/LVGL/Display.cpp</text>
</a>
</g>
</g>
<!-- Node1&#45;&gt;Node2 -->
<g id="edge1" class="edge">
<title>Node1&#45;&gt;Node2</title>
<path fill="none" stroke="#63b8ff" d="M328.58,-302.87C281.8,-280.56 217.09,-243.72 174.73,-195 153.19,-170.22 140.75,-132.92 135.21,-112.71"/>
<polygon fill="#63b8ff" stroke="#63b8ff" points="326.96,-305.98 337.5,-307.04 329.93,-299.64 326.96,-305.98"/>
</g>
<!-- Node3 -->
<g id="node3" class="node">
<title>Node3</title>
<g id="a_node3"><a xlink:href="Screen_8hpp.xhtml" target="_top" xlink:title=" ">
<polygon fill="white" stroke="#666666" points="127.73,-266.5 15.73,-266.5 15.73,-236.5 127.73,-236.5 127.73,-266.5"/>
<text text-anchor="start" x="23.73" y="-254.5" font-family="Helvetica,sans-Serif" font-size="10.00">lib/3rd_party_adapters</text>
<text text-anchor="middle" x="71.73" y="-243.5" font-family="Helvetica,sans-Serif" font-size="10.00">/LVGL/Screen.hpp</text>
</a>
</g>
</g>
<!-- Node1&#45;&gt;Node3 -->
<g id="edge2" class="edge">
<title>Node1&#45;&gt;Node3</title>
<path fill="none" stroke="#63b8ff" d="M315.26,-312.28C266.27,-301.6 199.89,-286.68 141.73,-272 135.49,-270.43 128.96,-268.7 122.5,-266.96"/>
<polygon fill="#63b8ff" stroke="#63b8ff" points="314.38,-315.67 324.9,-314.37 315.87,-308.83 314.38,-315.67"/>
</g>
<!-- Node5 -->
<g id="node5" class="node">
<title>Node5</title>
<g id="a_node5"><a xlink:href="IDisplay_8hpp.xhtml" target="_top" xlink:title=" ">
<polygon fill="white" stroke="#666666" points="446.73,-272 326.73,-272 326.73,-231 446.73,-231 446.73,-272"/>
<text text-anchor="start" x="334.73" y="-260" font-family="Helvetica,sans-Serif" font-size="10.00">lib/application_business</text>
<text text-anchor="start" x="334.73" y="-249" font-family="Helvetica,sans-Serif" font-size="10.00">_rules/user_interaction</text>
<text text-anchor="middle" x="386.73" y="-238" font-family="Helvetica,sans-Serif" font-size="10.00">/IDisplay.hpp</text>
</a>
</g>
</g>
<!-- Node1&#45;&gt;Node5 -->
<g id="edge5" class="edge">
<title>Node1&#45;&gt;Node5</title>
<path fill="none" stroke="#63b8ff" d="M386.73,-296.36C386.73,-288.24 386.73,-279.7 386.73,-272.33"/>
<polygon fill="#63b8ff" stroke="#63b8ff" points="383.23,-296.28 386.73,-306.28 390.23,-296.28 383.23,-296.28"/>
</g>
<!-- Node9 -->
<g id="node9" class="node">
<title>Node9</title>
<g id="a_node9"><a xlink:href="Menu_8cpp.xhtml" target="_top" xlink:title=" ">
<polygon fill="white" stroke="#666666" points="747.73,-118 627.73,-118 627.73,-77 747.73,-77 747.73,-118"/>
<text text-anchor="start" x="635.73" y="-106" font-family="Helvetica,sans-Serif" font-size="10.00">lib/application_business</text>
<text text-anchor="start" x="635.73" y="-95" font-family="Helvetica,sans-Serif" font-size="10.00">_rules/user_interaction</text>
<text text-anchor="middle" x="687.73" y="-84" font-family="Helvetica,sans-Serif" font-size="10.00">/Menu.cpp</text>
</a>
</g>
</g>
<!-- Node1&#45;&gt;Node9 -->
<g id="edge22" class="edge">
<title>Node1&#45;&gt;Node9</title>
<path fill="none" stroke="#63b8ff" d="M438.94,-302.34C485.65,-278.43 554.58,-239.58 606.73,-195 633.83,-171.83 659.26,-139.05 674.16,-118.28"/>
<polygon fill="#63b8ff" stroke="#63b8ff" points="437.43,-299.18 430.09,-306.82 440.6,-305.43 437.43,-299.18"/>
</g>
<!-- Node16 -->
<g id="node16" class="node">
<title>Node16</title>
<g id="a_node16"><a xlink:href="MenuItem_8cpp.xhtml" target="_top" xlink:title=" ">
<polygon fill="white" stroke="#666666" points="773.73,-272 653.73,-272 653.73,-231 773.73,-231 773.73,-272"/>
<text text-anchor="start" x="661.73" y="-260" font-family="Helvetica,sans-Serif" font-size="10.00">lib/application_business</text>
<text text-anchor="start" x="661.73" y="-249" font-family="Helvetica,sans-Serif" font-size="10.00">_rules/user_interaction</text>
<text text-anchor="middle" x="713.73" y="-238" font-family="Helvetica,sans-Serif" font-size="10.00">/MenuItem.cpp</text>
</a>
</g>
</g>
<!-- Node1&#45;&gt;Node16 -->
<g id="edge23" class="edge">
<title>Node1&#45;&gt;Node16</title>
<path fill="none" stroke="#63b8ff" d="M458.39,-312.61C509.15,-301.86 578.77,-286.71 639.73,-272 644.25,-270.91 648.92,-269.75 653.61,-268.57"/>
<polygon fill="#63b8ff" stroke="#63b8ff" points="457.75,-309.17 448.69,-314.66 459.2,-316.02 457.75,-309.17"/>
</g>
<!-- Node3&#45;&gt;Node2 -->
<g id="edge3" class="edge">
<title>Node3&#45;&gt;Node2</title>
<path fill="none" stroke="#63b8ff" d="M36.54,-229.49C24.81,-220.48 13.1,-208.82 6.73,-195 -0.9,-178.45 -3.2,-169.28 6.73,-154 22,-130.51 49.75,-116.88 75.23,-109.02"/>
<polygon fill="#63b8ff" stroke="#63b8ff" points="34.46,-232.3 44.63,-235.25 38.52,-226.6 34.46,-232.3"/>
</g>
<!-- Node4 -->
<g id="node4" class="node">
<title>Node4</title>
<g id="a_node4"><a xlink:href="Screen_8cpp.xhtml" target="_top" xlink:title=" ">
<polygon fill="white" stroke="#666666" points="127.73,-189.5 15.73,-189.5 15.73,-159.5 127.73,-159.5 127.73,-189.5"/>
<text text-anchor="start" x="23.73" y="-177.5" font-family="Helvetica,sans-Serif" font-size="10.00">lib/3rd_party_adapters</text>
<text text-anchor="middle" x="71.73" y="-166.5" font-family="Helvetica,sans-Serif" font-size="10.00">/LVGL/Screen.cpp</text>
</a>
</g>
</g>
<!-- Node3&#45;&gt;Node4 -->
<g id="edge4" class="edge">
<title>Node3&#45;&gt;Node4</title>
<path fill="none" stroke="#63b8ff" d="M71.73,-224.73C71.73,-213.08 71.73,-199.76 71.73,-189.92"/>
<polygon fill="#63b8ff" stroke="#63b8ff" points="68.23,-224.53 71.73,-234.53 75.23,-224.53 68.23,-224.53"/>
</g>
<!-- Node6 -->
<g id="node6" class="node">
<title>Node6</title>
<g id="a_node6"><a xlink:href="Display_8hpp.xhtml" target="_top" xlink:title=" ">
<polygon fill="white" stroke="#666666" points="295.73,-189.5 183.73,-189.5 183.73,-159.5 295.73,-159.5 295.73,-189.5"/>
<text text-anchor="start" x="191.73" y="-177.5" font-family="Helvetica,sans-Serif" font-size="10.00">lib/3rd_party_adapters</text>
<text text-anchor="middle" x="239.73" y="-166.5" font-family="Helvetica,sans-Serif" font-size="10.00">/LVGL/Display.hpp</text>
</a>
</g>
</g>
<!-- Node5&#45;&gt;Node6 -->
<g id="edge6" class="edge">
<title>Node5&#45;&gt;Node6</title>
<path fill="none" stroke="#63b8ff" d="M337.67,-225.47C314.41,-213.6 287.46,-199.85 267.73,-189.79"/>
<polygon fill="#63b8ff" stroke="#63b8ff" points="335.88,-228.48 346.37,-229.91 339.06,-222.25 335.88,-228.48"/>
</g>
<!-- Node8 -->
<g id="node8" class="node">
<title>Node8</title>
<g id="a_node8"><a xlink:href="Menu_8hpp.xhtml" target="_top" xlink:title=" ">
<polygon fill="white" stroke="#666666" points="597.73,-195 477.73,-195 477.73,-154 597.73,-154 597.73,-195"/>
<text text-anchor="start" x="485.73" y="-183" font-family="Helvetica,sans-Serif" font-size="10.00">lib/application_business</text>
<text text-anchor="start" x="485.73" y="-172" font-family="Helvetica,sans-Serif" font-size="10.00">_rules/user_interaction</text>
<text text-anchor="middle" x="537.73" y="-161" font-family="Helvetica,sans-Serif" font-size="10.00">/Menu.hpp</text>
</a>
</g>
</g>
<!-- Node5&#45;&gt;Node8 -->
<g id="edge9" class="edge">
<title>Node5&#45;&gt;Node8</title>
<path fill="none" stroke="#63b8ff" d="M437.1,-225.48C456.74,-215.73 478.93,-204.7 497.47,-195.49"/>
<polygon fill="#63b8ff" stroke="#63b8ff" points="435.55,-222.34 428.15,-229.92 438.67,-228.61 435.55,-222.34"/>
</g>
<!-- Node15 -->
<g id="node15" class="node">
<title>Node15</title>
<g id="a_node15"><a xlink:href="display__factory__interface_8hpp.xhtml" target="_top" xlink:title="Dependency injection for the display.">
<polygon fill="white" stroke="#666666" points="459.23,-195 314.23,-195 314.23,-154 459.23,-154 459.23,-195"/>
<text text-anchor="start" x="322.23" y="-183" font-family="Helvetica,sans-Serif" font-size="10.00">lib/application_business</text>
<text text-anchor="start" x="322.23" y="-172" font-family="Helvetica,sans-Serif" font-size="10.00">_rules/user_interaction</text>
<text text-anchor="middle" x="386.73" y="-161" font-family="Helvetica,sans-Serif" font-size="10.00">/display_factory_interface.hpp</text>
</a>
</g>
</g>
<!-- Node5&#45;&gt;Node15 -->
<g id="edge18" class="edge">
<title>Node5&#45;&gt;Node15</title>
<path fill="none" stroke="#63b8ff" d="M386.73,-219.36C386.73,-211.24 386.73,-202.7 386.73,-195.33"/>
<polygon fill="#63b8ff" stroke="#63b8ff" points="383.23,-219.28 386.73,-229.28 390.23,-219.28 383.23,-219.28"/>
</g>
<!-- Node6&#45;&gt;Node2 -->
<g id="edge7" class="edge">
<title>Node6&#45;&gt;Node2</title>
<path fill="none" stroke="#63b8ff" d="M209.6,-152.58C191.4,-139.94 168.68,-124.16 152.49,-112.92"/>
<polygon fill="#63b8ff" stroke="#63b8ff" points="207.45,-155.35 217.66,-158.18 211.45,-149.6 207.45,-155.35"/>
</g>
<!-- Node7 -->
<g id="node7" class="node">
<title>Node7</title>
<g id="a_node7"><a xlink:href="display__factory__interface_8cpp.xhtml" target="_top" xlink:title=" ">
<polygon fill="white" stroke="#666666" points="319.23,-118 206.23,-118 206.23,-77 319.23,-77 319.23,-118"/>
<text text-anchor="start" x="214.23" y="-106" font-family="Helvetica,sans-Serif" font-size="10.00">lib/3rd_party_adapters</text>
<text text-anchor="start" x="214.23" y="-95" font-family="Helvetica,sans-Serif" font-size="10.00">/LVGL/display_factory</text>
<text text-anchor="middle" x="262.73" y="-84" font-family="Helvetica,sans-Serif" font-size="10.00">_interface.cpp</text>
</a>
</g>
</g>
<!-- Node6&#45;&gt;Node7 -->
<g id="edge8" class="edge">
<title>Node6&#45;&gt;Node7</title>
<path fill="none" stroke="#63b8ff" d="M247.45,-148.32C250.45,-138.54 253.84,-127.5 256.66,-118.3"/>
<polygon fill="#63b8ff" stroke="#63b8ff" points="244.19,-147.01 244.61,-157.59 250.89,-149.06 244.19,-147.01"/>
</g>
<!-- Node8&#45;&gt;Node9 -->
<g id="edge10" class="edge">
<title>Node8&#45;&gt;Node9</title>
<path fill="none" stroke="#63b8ff" d="M587.77,-148.48C607.27,-138.73 629.32,-127.7 647.74,-118.49"/>
<polygon fill="#63b8ff" stroke="#63b8ff" points="586.27,-145.32 578.89,-152.92 589.4,-151.58 586.27,-145.32"/>
</g>
<!-- Node10 -->
<g id="node10" class="node">
<title>Node10</title>
<g id="a_node10"><a xlink:href="Presenter_8hpp.xhtml" target="_top" xlink:title=" ">
<polygon fill="white" stroke="#666666" points="533.73,-118 413.73,-118 413.73,-77 533.73,-77 533.73,-118"/>
<text text-anchor="start" x="421.73" y="-106" font-family="Helvetica,sans-Serif" font-size="10.00">lib/application_business</text>
<text text-anchor="start" x="421.73" y="-95" font-family="Helvetica,sans-Serif" font-size="10.00">_rules/user_interaction</text>
<text text-anchor="middle" x="473.73" y="-84" font-family="Helvetica,sans-Serif" font-size="10.00">/Presenter.hpp</text>
</a>
</g>
</g>
<!-- Node8&#45;&gt;Node10 -->
<g id="edge11" class="edge">
<title>Node8&#45;&gt;Node10</title>
<path fill="none" stroke="#63b8ff" d="M513.56,-145.18C505.93,-136.24 497.67,-126.55 490.65,-118.33"/>
<polygon fill="#63b8ff" stroke="#63b8ff" points="510.78,-147.31 519.93,-152.64 516.1,-142.76 510.78,-147.31"/>
</g>
<!-- Node13 -->
<g id="node13" class="node">
<title>Node13</title>
<g id="a_node13"><a xlink:href="main_8cpp.xhtml" target="_top" xlink:title=" ">
<polygon fill="white" stroke="#666666" points="321.73,-30 249.73,-30 249.73,-11 321.73,-11 321.73,-30"/>
<text text-anchor="middle" x="285.73" y="-18" font-family="Helvetica,sans-Serif" font-size="10.00">src/main.cpp</text>
</a>
</g>
</g>
<!-- Node8&#45;&gt;Node13 -->
<g id="edge16" class="edge">
<title>Node8&#45;&gt;Node13</title>
<path fill="none" stroke="#63b8ff" d="M469.06,-149.3C447.8,-140.64 424.73,-130.02 404.73,-118 380.1,-103.2 377.04,-95.12 354.73,-77 334.2,-60.33 310.11,-41.01 296.51,-30.12"/>
<polygon fill="#63b8ff" stroke="#63b8ff" points="467.66,-152.51 478.25,-152.95 470.25,-146 467.66,-152.51"/>
</g>
<!-- Node14 -->
<g id="node14" class="node">
<title>Node14</title>
<g id="a_node14"><a xlink:href="test__hmi_8cpp.xhtml" target="_top" xlink:title=" ">
<polygon fill="white" stroke="#666666" points="709.23,-35.5 616.23,-35.5 616.23,-5.5 709.23,-5.5 709.23,-35.5"/>
<text text-anchor="start" x="624.23" y="-23.5" font-family="Helvetica,sans-Serif" font-size="10.00">test/test_hmi/test</text>
<text text-anchor="middle" x="662.73" y="-12.5" font-family="Helvetica,sans-Serif" font-size="10.00">_hmi.cpp</text>
</a>
</g>
</g>
<!-- Node8&#45;&gt;Node14 -->
<g id="edge17" class="edge">
<title>Node8&#45;&gt;Node14</title>
<path fill="none" stroke="#63b8ff" d="M561.14,-145.03C587.81,-112.61 630.33,-60.89 650.87,-35.92"/>
<polygon fill="#63b8ff" stroke="#63b8ff" points="558.68,-142.51 555.03,-152.46 564.09,-146.96 558.68,-142.51"/>
</g>
<!-- Node11 -->
<g id="node11" class="node">
<title>Node11</title>
<g id="a_node11"><a xlink:href="Presenter_8cpp.xhtml" target="_top" xlink:title=" ">
<polygon fill="white" stroke="#666666" points="597.73,-41 477.73,-41 477.73,0 597.73,0 597.73,-41"/>
<text text-anchor="start" x="485.73" y="-29" font-family="Helvetica,sans-Serif" font-size="10.00">lib/application_business</text>
<text text-anchor="start" x="485.73" y="-18" font-family="Helvetica,sans-Serif" font-size="10.00">_rules/user_interaction</text>
<text text-anchor="middle" x="537.73" y="-7" font-family="Helvetica,sans-Serif" font-size="10.00">/Presenter.cpp</text>
</a>
</g>
</g>
<!-- Node10&#45;&gt;Node11 -->
<g id="edge12" class="edge">
<title>Node10&#45;&gt;Node11</title>
<path fill="none" stroke="#63b8ff" d="M497.9,-68.18C505.53,-59.24 513.79,-49.55 520.8,-41.33"/>
<polygon fill="#63b8ff" stroke="#63b8ff" points="495.36,-65.76 491.53,-75.64 500.68,-70.31 495.36,-65.76"/>
</g>
<!-- Node12 -->
<g id="node12" class="node">
<title>Node12</title>
<g id="a_node12"><a xlink:href="ProcessHmiInputs_8cpp.xhtml" target="_top" xlink:title=" ">
<polygon fill="white" stroke="#666666" points="459.73,-41 339.73,-41 339.73,0 459.73,0 459.73,-41"/>
<text text-anchor="start" x="347.73" y="-29" font-family="Helvetica,sans-Serif" font-size="10.00">lib/application_business</text>
<text text-anchor="start" x="347.73" y="-18" font-family="Helvetica,sans-Serif" font-size="10.00">_rules/user_interaction</text>
<text text-anchor="middle" x="399.73" y="-7" font-family="Helvetica,sans-Serif" font-size="10.00">/ProcessHmiInputs.cpp</text>
</a>
</g>
</g>
<!-- Node10&#45;&gt;Node12 -->
<g id="edge13" class="edge">
<title>Node10&#45;&gt;Node12</title>
<path fill="none" stroke="#63b8ff" d="M446.34,-68.74C437.36,-59.64 427.58,-49.72 419.3,-41.33"/>
<polygon fill="#63b8ff" stroke="#63b8ff" points="443.71,-71.06 453.22,-75.72 448.69,-66.14 443.71,-71.06"/>
</g>
<!-- Node10&#45;&gt;Node13 -->
<g id="edge14" class="edge">
<title>Node10&#45;&gt;Node13</title>
<path fill="none" stroke="#63b8ff" d="M410.48,-72.55C385.54,-62.96 356.7,-51.66 330.73,-41 322.54,-37.64 313.58,-33.79 305.82,-30.4"/>
<polygon fill="#63b8ff" stroke="#63b8ff" points="408.9,-75.7 419.49,-76.01 411.41,-69.16 408.9,-75.7"/>
</g>
<!-- Node10&#45;&gt;Node14 -->
<g id="edge15" class="edge">
<title>Node10&#45;&gt;Node14</title>
<path fill="none" stroke="#63b8ff" d="M534.36,-72.44C564.7,-60.4 600.39,-46.24 626.43,-35.9"/>
<polygon fill="#63b8ff" stroke="#63b8ff" points="533.29,-69.1 525.29,-76.04 535.87,-75.6 533.29,-69.1"/>
</g>
<!-- Node15&#45;&gt;Node7 -->
<g id="edge19" class="edge">
<title>Node15&#45;&gt;Node7</title>
<path fill="none" stroke="#63b8ff" d="M344.25,-147.8C328.4,-138.22 310.66,-127.49 295.79,-118.49"/>
<polygon fill="#63b8ff" stroke="#63b8ff" points="342.16,-150.63 352.53,-152.81 345.79,-144.64 342.16,-150.63"/>
</g>
<!-- Node15&#45;&gt;Node13 -->
<g id="edge20" class="edge">
<title>Node15&#45;&gt;Node13</title>
<path fill="none" stroke="#63b8ff" d="M369.6,-143.79C358.2,-124.46 342.64,-98.87 327.73,-77 316.16,-60.03 301.44,-41.12 292.85,-30.34"/>
<polygon fill="#63b8ff" stroke="#63b8ff" points="366.47,-145.38 374.55,-152.24 372.51,-141.84 366.47,-145.38"/>
</g>
<!-- Node15&#45;&gt;Node14 -->
<g id="edge21" class="edge">
<title>Node15&#45;&gt;Node14</title>
<path fill="none" stroke="#63b8ff" d="M470.36,-152C494.84,-143.57 520.88,-132.4 542.73,-118 563.48,-104.33 561.87,-93.18 580.73,-77 598.86,-61.44 621.48,-46.41 638.36,-35.93"/>
<polygon fill="#63b8ff" stroke="#63b8ff" points="469.44,-148.61 461.05,-155.08 471.64,-155.26 469.44,-148.61"/>
</g>
</g>
</svg>
