<?xml version="1.0" encoding="UTF-8" standalone="no"?>
<!DOCTYPE svg PUBLIC "-//W3C//DTD SVG 1.1//EN"
 "http://www.w3.org/Graphics/SVG/1.1/DTD/svg11.dtd">
<!-- Generated by graphviz version 7.0.5 (20221223.1930)
 -->
<!-- Title: lib/application_business_rules/user_interaction/Menu.cpp Pages: 1 -->
<svg width="135pt" height="269pt"
 viewBox="0.00 0.00 134.50 269.00" xmlns="http://www.w3.org/2000/svg" xmlns:xlink="http://www.w3.org/1999/xlink">
<g id="graph0" class="graph" transform="scale(1 1) rotate(0) translate(4 265)">
<title>lib/application_business_rules/user_interaction/Menu.cpp</title>
<!-- Node1 -->
<g id="node1" class="node">
<title>Node1</title>
<g id="a_node1"><a xlink:title=" ">
<polygon fill="#999999" stroke="#666666" points="126.5,-261 6.5,-261 6.5,-220 126.5,-220 126.5,-261"/>
<text text-anchor="start" x="14.5" y="-249" font-family="Helvetica,sans-Serif" font-size="10.00">lib/application_business</text>
<text text-anchor="start" x="14.5" y="-238" font-family="Helvetica,sans-Serif" font-size="10.00">_rules/user_interaction</text>
<text text-anchor="middle" x="66.5" y="-227" font-family="Helvetica,sans-Serif" font-size="10.00">/Menu.cpp</text>
</a>
</g>
</g>
<!-- Node2 -->
<g id="node2" class="node">
<title>Node2</title>
<g id="a_node2"><a xlink:href="Menu_8hpp.xhtml" target="_top" xlink:title=" ">
<polygon fill="white" stroke="#666666" points="67,-184 8,-184 8,-165 67,-165 67,-184"/>
<text text-anchor="middle" x="37.5" y="-172" font-family="Helvetica,sans-Serif" font-size="10.00">Menu.hpp</text>
</a>
</g>
</g>
<!-- Node1&#45;&gt;Node2 -->
<g id="edge1" class="edge">
<title>Node1&#45;&gt;Node2</title>
<path fill="none" stroke="#63b8ff" d="M57.48,-219.6C53.86,-211.61 49.71,-202.45 46.13,-194.55"/>
<polygon fill="#63b8ff" stroke="#63b8ff" points="49.37,-193.21 42.05,-185.54 42.99,-196.09 49.37,-193.21"/>
</g>
<!-- Node4 -->
<g id="node4" class="node">
<title>Node4</title>
<g id="a_node4"><a xlink:href="MenuItem_8hpp.xhtml" target="_top" xlink:title=" ">
<polygon fill="white" stroke="#666666" points="104.5,-74 26.5,-74 26.5,-55 104.5,-55 104.5,-74"/>
<text text-anchor="middle" x="65.5" y="-62" font-family="Helvetica,sans-Serif" font-size="10.00">MenuItem.hpp</text>
</a>
</g>
</g>
<!-- Node1&#45;&gt;Node4 -->
<g id="edge6" class="edge">
<title>Node1&#45;&gt;Node4</title>
<path fill="none" stroke="#63b8ff" d="M71.21,-219.68C76.61,-194.21 84.03,-148.67 78.5,-110 77.3,-101.63 74.9,-92.64 72.48,-84.95"/>
<polygon fill="#63b8ff" stroke="#63b8ff" points="75.85,-83.98 69.33,-75.64 69.22,-86.23 75.85,-83.98"/>
</g>
<!-- Node3 -->
<g id="node3" class="node">
<title>Node3</title>
<g id="a_node3"><a xlink:href="IDisplay_8hpp.xhtml" target="_top" xlink:title=" ">
<polygon fill="white" stroke="#666666" points="69,-129 0,-129 0,-110 69,-110 69,-129"/>
<text text-anchor="middle" x="34.5" y="-117" font-family="Helvetica,sans-Serif" font-size="10.00">IDisplay.hpp</text>
</a>
</g>
</g>
<!-- Node2&#45;&gt;Node3 -->
<g id="edge2" class="edge">
<title>Node2&#45;&gt;Node3</title>
<path fill="none" stroke="#63b8ff" d="M37,-164.75C36.64,-158.27 36.12,-149.16 35.65,-140.9"/>
<polygon fill="#63b8ff" stroke="#63b8ff" points="39.15,-140.74 35.09,-130.95 32.16,-141.13 39.15,-140.74"/>
</g>
<!-- Node3&#45;&gt;Node4 -->
<g id="edge3" class="edge">
<title>Node3&#45;&gt;Node4</title>
<path fill="none" stroke="#63b8ff" d="M39.62,-109.75C43.68,-102.81 49.49,-92.86 54.59,-84.16"/>
<polygon fill="#63b8ff" stroke="#63b8ff" points="57.48,-86.15 59.51,-75.75 51.44,-82.61 57.48,-86.15"/>
</g>
<!-- Node5 -->
<g id="node5" class="node">
<title>Node5</title>
<g id="a_node5"><a xlink:title=" ">
<polygon fill="#e0e0e0" stroke="#999999" points="56,-19 15,-19 15,0 56,0 56,-19"/>
<text text-anchor="middle" x="35.5" y="-7" font-family="Helvetica,sans-Serif" font-size="10.00">string</text>
</a>
</g>
</g>
<!-- Node4&#45;&gt;Node5 -->
<g id="edge4" class="edge">
<title>Node4&#45;&gt;Node5</title>
<path fill="none" stroke="#63b8ff" d="M60.55,-54.75C56.66,-47.88 51.11,-38.08 46.22,-29.45"/>
<polygon fill="#63b8ff" stroke="#63b8ff" points="49.28,-27.74 41.31,-20.76 43.19,-31.19 49.28,-27.74"/>
</g>
<!-- Node6 -->
<g id="node6" class="node">
<title>Node6</title>
<g id="a_node6"><a xlink:title=" ">
<polygon fill="#e0e0e0" stroke="#999999" points="118.5,-19 74.5,-19 74.5,0 118.5,0 118.5,-19"/>
<text text-anchor="middle" x="96.5" y="-7" font-family="Helvetica,sans-Serif" font-size="10.00">vector</text>
</a>
</g>
</g>
<!-- Node4&#45;&gt;Node6 -->
<g id="edge5" class="edge">
<title>Node4&#45;&gt;Node6</title>
<path fill="none" stroke="#63b8ff" d="M70.62,-54.75C74.68,-47.81 80.49,-37.86 85.59,-29.16"/>
<polygon fill="#63b8ff" stroke="#63b8ff" points="88.48,-31.15 90.51,-20.75 82.44,-27.61 88.48,-31.15"/>
</g>
</g>
</svg>
