<?xml version="1.0" encoding="UTF-8" standalone="no"?>
<!DOCTYPE svg PUBLIC "-//W3C//DTD SVG 1.1//EN"
 "http://www.w3.org/Graphics/SVG/1.1/DTD/svg11.dtd">
<!-- Generated by graphviz version 7.0.5 (20221223.1930)
 -->
<!-- Title: lib/application_business_rules/user_interaction/Presenter.cpp Pages: 1 -->
<svg width="742pt" height="324pt"
 viewBox="0.00 0.00 742.00 324.00" xmlns="http://www.w3.org/2000/svg" xmlns:xlink="http://www.w3.org/1999/xlink">
<g id="graph0" class="graph" transform="scale(1 1) rotate(0) translate(4 320)">
<title>lib/application_business_rules/user_interaction/Presenter.cpp</title>
<!-- Node1 -->
<g id="node1" class="node">
<title>Node1</title>
<g id="a_node1"><a xlink:title=" ">
<polygon fill="#999999" stroke="#666666" points="593,-316 473,-316 473,-275 593,-275 593,-316"/>
<text text-anchor="start" x="481" y="-304" font-family="Helvetica,sans-Serif" font-size="10.00">lib/application_business</text>
<text text-anchor="start" x="481" y="-293" font-family="Helvetica,sans-Serif" font-size="10.00">_rules/user_interaction</text>
<text text-anchor="middle" x="533" y="-282" font-family="Helvetica,sans-Serif" font-size="10.00">/Presenter.cpp</text>
</a>
</g>
</g>
<!-- Node2 -->
<g id="node2" class="node">
<title>Node2</title>
<g id="a_node2"><a xlink:href="Presenter_8hpp.xhtml" target="_top" xlink:title=" ">
<polygon fill="white" stroke="#666666" points="233.5,-239 156.5,-239 156.5,-220 233.5,-220 233.5,-239"/>
<text text-anchor="middle" x="195" y="-227" font-family="Helvetica,sans-Serif" font-size="10.00">Presenter.hpp</text>
</a>
</g>
</g>
<!-- Node1&#45;&gt;Node2 -->
<g id="edge1" class="edge">
<title>Node1&#45;&gt;Node2</title>
<path fill="none" stroke="#63b8ff" d="M472.57,-283.06C407.64,-270.76 305.62,-251.45 245.02,-239.97"/>
<polygon fill="#63b8ff" stroke="#63b8ff" points="245.81,-236.56 235.33,-238.14 244.51,-243.44 245.81,-236.56"/>
</g>
<!-- Node14 -->
<g id="node14" class="node">
<title>Node14</title>
<g id="a_node14"><a xlink:href="board__interface_8hpp.xhtml" target="_top" xlink:title=" ">
<polygon fill="white" stroke="#666666" points="478.5,-239 377.5,-239 377.5,-220 478.5,-220 478.5,-239"/>
<text text-anchor="middle" x="428" y="-227" font-family="Helvetica,sans-Serif" font-size="10.00">board_interface.hpp</text>
</a>
</g>
</g>
<!-- Node1&#45;&gt;Node14 -->
<g id="edge14" class="edge">
<title>Node1&#45;&gt;Node14</title>
<path fill="none" stroke="#63b8ff" d="M500.35,-274.6C484.75,-265.09 466.41,-253.91 452.1,-245.19"/>
<polygon fill="#63b8ff" stroke="#63b8ff" points="454.14,-242.33 443.78,-240.12 450.5,-248.31 454.14,-242.33"/>
</g>
<!-- Node15 -->
<g id="node15" class="node">
<title>Node15</title>
<g id="a_node15"><a xlink:title=" ">
<polygon fill="#e0e0e0" stroke="#999999" points="530,-184 484,-184 484,-165 530,-165 530,-184"/>
<text text-anchor="middle" x="507" y="-172" font-family="Helvetica,sans-Serif" font-size="10.00">chrono</text>
</a>
</g>
</g>
<!-- Node1&#45;&gt;Node15 -->
<g id="edge19" class="edge">
<title>Node1&#45;&gt;Node15</title>
<path fill="none" stroke="#63b8ff" d="M528.65,-274.58C523.84,-252.58 516.14,-217.35 511.34,-195.37"/>
<polygon fill="#63b8ff" stroke="#63b8ff" points="514.83,-194.92 509.27,-185.9 507.99,-196.41 514.83,-194.92"/>
</g>
<!-- Node16 -->
<g id="node16" class="node">
<title>Node16</title>
<g id="a_node16"><a xlink:title=" ">
<polygon fill="#e0e0e0" stroke="#999999" points="584.5,-239 535.5,-239 535.5,-220 584.5,-220 584.5,-239"/>
<text text-anchor="middle" x="560" y="-227" font-family="Helvetica,sans-Serif" font-size="10.00">cassert</text>
</a>
</g>
</g>
<!-- Node1&#45;&gt;Node16 -->
<g id="edge18" class="edge">
<title>Node1&#45;&gt;Node16</title>
<path fill="none" stroke="#63b8ff" d="M541.39,-274.6C544.76,-266.61 548.63,-257.45 551.97,-249.55"/>
<polygon fill="#63b8ff" stroke="#63b8ff" points="555.09,-251.13 555.76,-240.56 548.65,-248.41 555.09,-251.13"/>
</g>
<!-- Node17 -->
<g id="node17" class="node">
<title>Node17</title>
<g id="a_node17"><a xlink:title=" ">
<polygon fill="#e0e0e0" stroke="#999999" points="649.5,-239 602.5,-239 602.5,-220 649.5,-220 649.5,-239"/>
<text text-anchor="middle" x="626" y="-227" font-family="Helvetica,sans-Serif" font-size="10.00">iterator</text>
</a>
</g>
</g>
<!-- Node1&#45;&gt;Node17 -->
<g id="edge20" class="edge">
<title>Node1&#45;&gt;Node17</title>
<path fill="none" stroke="#63b8ff" d="M561.92,-274.6C575.55,-265.22 591.54,-254.21 604.14,-245.54"/>
<polygon fill="#63b8ff" stroke="#63b8ff" points="605.91,-248.57 612.17,-240.02 601.94,-242.81 605.91,-248.57"/>
</g>
<!-- Node18 -->
<g id="node18" class="node">
<title>Node18</title>
<g id="a_node18"><a xlink:href="pitches_8hpp.xhtml" target="_top" xlink:title=" ">
<polygon fill="white" stroke="#666666" points="734,-239 668,-239 668,-220 734,-220 734,-239"/>
<text text-anchor="middle" x="701" y="-227" font-family="Helvetica,sans-Serif" font-size="10.00">pitches.hpp</text>
</a>
</g>
</g>
<!-- Node1&#45;&gt;Node18 -->
<g id="edge21" class="edge">
<title>Node1&#45;&gt;Node18</title>
<path fill="none" stroke="#63b8ff" d="M585.24,-274.6C612.01,-264.4 643.84,-252.28 667.33,-243.32"/>
<polygon fill="#63b8ff" stroke="#63b8ff" points="668.31,-246.7 676.41,-239.87 665.81,-240.16 668.31,-246.7"/>
</g>
<!-- Node3 -->
<g id="node3" class="node">
<title>Node3</title>
<g id="a_node3"><a xlink:href="IStatusIndicator_8hpp.xhtml" target="_top" xlink:title=" ">
<polygon fill="white" stroke="#666666" points="104,-184 0,-184 0,-165 104,-165 104,-184"/>
<text text-anchor="middle" x="52" y="-172" font-family="Helvetica,sans-Serif" font-size="10.00">IStatusIndicator.hpp</text>
</a>
</g>
</g>
<!-- Node2&#45;&gt;Node3 -->
<g id="edge2" class="edge">
<title>Node2&#45;&gt;Node3</title>
<path fill="none" stroke="#63b8ff" d="M170.74,-219.51C147.59,-210.93 112.49,-197.92 86.44,-188.27"/>
<polygon fill="#63b8ff" stroke="#63b8ff" points="87.91,-185.08 77.32,-184.88 85.48,-191.64 87.91,-185.08"/>
</g>
<!-- Node4 -->
<g id="node4" class="node">
<title>Node4</title>
<g id="a_node4"><a xlink:href="Menu_8hpp.xhtml" target="_top" xlink:title=" ">
<polygon fill="white" stroke="#666666" points="224.5,-184 165.5,-184 165.5,-165 224.5,-165 224.5,-184"/>
<text text-anchor="middle" x="195" y="-172" font-family="Helvetica,sans-Serif" font-size="10.00">Menu.hpp</text>
</a>
</g>
</g>
<!-- Node2&#45;&gt;Node4 -->
<g id="edge3" class="edge">
<title>Node2&#45;&gt;Node4</title>
<path fill="none" stroke="#63b8ff" d="M195,-219.75C195,-213.27 195,-204.16 195,-195.9"/>
<polygon fill="#63b8ff" stroke="#63b8ff" points="198.5,-195.96 195,-185.96 191.5,-195.96 198.5,-195.96"/>
</g>
<!-- Node8 -->
<g id="node8" class="node">
<title>Node8</title>
<g id="a_node8"><a xlink:title=" ">
<polygon fill="#e0e0e0" stroke="#999999" points="157,-19 113,-19 113,0 157,0 157,-19"/>
<text text-anchor="middle" x="135" y="-7" font-family="Helvetica,sans-Serif" font-size="10.00">vector</text>
</a>
</g>
</g>
<!-- Node2&#45;&gt;Node8 -->
<g id="edge13" class="edge">
<title>Node2&#45;&gt;Node8</title>
<path fill="none" stroke="#63b8ff" d="M184.43,-219.82C175.25,-211.61 162.45,-198.44 156,-184 132.95,-132.4 132.33,-64.03 133.7,-30.62"/>
<polygon fill="#63b8ff" stroke="#63b8ff" points="137.18,-30.96 134.22,-20.79 130.19,-30.59 137.18,-30.96"/>
</g>
<!-- Node13 -->
<g id="node13" class="node">
<title>Node13</title>
<g id="a_node13"><a xlink:title=" ">
<polygon fill="#e0e0e0" stroke="#999999" points="291.5,-184 242.5,-184 242.5,-165 291.5,-165 291.5,-184"/>
<text text-anchor="middle" x="267" y="-172" font-family="Helvetica,sans-Serif" font-size="10.00">cstddef</text>
</a>
</g>
</g>
<!-- Node2&#45;&gt;Node13 -->
<g id="edge12" class="edge">
<title>Node2&#45;&gt;Node13</title>
<path fill="none" stroke="#63b8ff" d="M207.21,-219.51C217.83,-211.7 233.44,-200.21 246.04,-190.93"/>
<polygon fill="#63b8ff" stroke="#63b8ff" points="247.77,-194 253.75,-185.26 243.62,-188.36 247.77,-194"/>
</g>
<!-- Node5 -->
<g id="node5" class="node">
<title>Node5</title>
<g id="a_node5"><a xlink:href="IDisplay_8hpp.xhtml" target="_top" xlink:title=" ">
<polygon fill="white" stroke="#666666" points="229.5,-129 160.5,-129 160.5,-110 229.5,-110 229.5,-129"/>
<text text-anchor="middle" x="195" y="-117" font-family="Helvetica,sans-Serif" font-size="10.00">IDisplay.hpp</text>
</a>
</g>
</g>
<!-- Node4&#45;&gt;Node5 -->
<g id="edge4" class="edge">
<title>Node4&#45;&gt;Node5</title>
<path fill="none" stroke="#63b8ff" d="M195,-164.75C195,-158.27 195,-149.16 195,-140.9"/>
<polygon fill="#63b8ff" stroke="#63b8ff" points="198.5,-140.96 195,-130.96 191.5,-140.96 198.5,-140.96"/>
</g>
<!-- Node9 -->
<g id="node9" class="node">
<title>Node9</title>
<g id="a_node9"><a xlink:href="IKeypad_8hpp.xhtml" target="_top" xlink:title=" ">
<polygon fill="white" stroke="#666666" points="390,-129 248,-129 248,-110 390,-110 390,-129"/>
<text text-anchor="middle" x="319" y="-117" font-family="Helvetica,sans-Serif" font-size="10.00">user_interaction/IKeypad.hpp</text>
</a>
</g>
</g>
<!-- Node4&#45;&gt;Node9 -->
<g id="edge8" class="edge">
<title>Node4&#45;&gt;Node9</title>
<path fill="none" stroke="#63b8ff" d="M216.03,-164.51C235.75,-156.08 265.47,-143.38 287.91,-133.79"/>
<polygon fill="#63b8ff" stroke="#63b8ff" points="289.06,-137.1 296.88,-129.95 286.31,-130.66 289.06,-137.1"/>
</g>
<!-- Node6 -->
<g id="node6" class="node">
<title>Node6</title>
<g id="a_node6"><a xlink:href="MenuItem_8hpp.xhtml" target="_top" xlink:title=" ">
<polygon fill="white" stroke="#666666" points="238,-74 160,-74 160,-55 238,-55 238,-74"/>
<text text-anchor="middle" x="199" y="-62" font-family="Helvetica,sans-Serif" font-size="10.00">MenuItem.hpp</text>
</a>
</g>
</g>
<!-- Node5&#45;&gt;Node6 -->
<g id="edge5" class="edge">
<title>Node5&#45;&gt;Node6</title>
<path fill="none" stroke="#63b8ff" d="M195.66,-109.75C196.15,-103.27 196.84,-94.16 197.46,-85.9"/>
<polygon fill="#63b8ff" stroke="#63b8ff" points="200.95,-86.19 198.21,-75.95 193.97,-85.66 200.95,-86.19"/>
</g>
<!-- Node7 -->
<g id="node7" class="node">
<title>Node7</title>
<g id="a_node7"><a xlink:title=" ">
<polygon fill="#e0e0e0" stroke="#999999" points="219.5,-19 178.5,-19 178.5,0 219.5,0 219.5,-19"/>
<text text-anchor="middle" x="199" y="-7" font-family="Helvetica,sans-Serif" font-size="10.00">string</text>
</a>
</g>
</g>
<!-- Node6&#45;&gt;Node7 -->
<g id="edge6" class="edge">
<title>Node6&#45;&gt;Node7</title>
<path fill="none" stroke="#63b8ff" d="M199,-54.75C199,-48.27 199,-39.16 199,-30.9"/>
<polygon fill="#63b8ff" stroke="#63b8ff" points="202.5,-30.96 199,-20.96 195.5,-30.96 202.5,-30.96"/>
</g>
<!-- Node6&#45;&gt;Node8 -->
<g id="edge7" class="edge">
<title>Node6&#45;&gt;Node8</title>
<path fill="none" stroke="#63b8ff" d="M188.14,-54.51C178.89,-46.85 165.38,-35.66 154.29,-26.47"/>
<polygon fill="#63b8ff" stroke="#63b8ff" points="156.8,-24.01 146.86,-20.32 152.33,-29.4 156.8,-24.01"/>
</g>
<!-- Node10 -->
<g id="node10" class="node">
<title>Node10</title>
<g id="a_node10"><a xlink:href="KeyIds_8hpp.xhtml" target="_top" xlink:title=" ">
<polygon fill="white" stroke="#666666" points="365.5,-74 300.5,-74 300.5,-55 365.5,-55 365.5,-74"/>
<text text-anchor="middle" x="333" y="-62" font-family="Helvetica,sans-Serif" font-size="10.00">KeyIds.hpp</text>
</a>
</g>
</g>
<!-- Node9&#45;&gt;Node10 -->
<g id="edge9" class="edge">
<title>Node9&#45;&gt;Node10</title>
<path fill="none" stroke="#63b8ff" d="M321.31,-109.75C323.06,-103.11 325.54,-93.73 327.77,-85.31"/>
<polygon fill="#63b8ff" stroke="#63b8ff" points="331.08,-86.47 330.25,-75.91 324.31,-84.68 331.08,-86.47"/>
</g>
<!-- Node12 -->
<g id="node12" class="node">
<title>Node12</title>
<g id="a_node12"><a xlink:title=" ">
<polygon fill="#e0e0e0" stroke="#999999" points="470.5,-74 411.5,-74 411.5,-55 470.5,-55 470.5,-74"/>
<text text-anchor="middle" x="441" y="-62" font-family="Helvetica,sans-Serif" font-size="10.00">functional</text>
</a>
</g>
</g>
<!-- Node9&#45;&gt;Node12 -->
<g id="edge11" class="edge">
<title>Node9&#45;&gt;Node12</title>
<path fill="none" stroke="#63b8ff" d="M339.7,-109.51C359,-101.12 388.06,-88.5 410.11,-78.92"/>
<polygon fill="#63b8ff" stroke="#63b8ff" points="411.44,-82.16 419.22,-74.96 408.66,-75.74 411.44,-82.16"/>
</g>
<!-- Node11 -->
<g id="node11" class="node">
<title>Node11</title>
<g id="a_node11"><a xlink:title=" ">
<polygon fill="#e0e0e0" stroke="#999999" points="359,-19 307,-19 307,0 359,0 359,-19"/>
<text text-anchor="middle" x="333" y="-7" font-family="Helvetica,sans-Serif" font-size="10.00">ostream</text>
</a>
</g>
</g>
<!-- Node10&#45;&gt;Node11 -->
<g id="edge10" class="edge">
<title>Node10&#45;&gt;Node11</title>
<path fill="none" stroke="#63b8ff" d="M333,-54.75C333,-48.27 333,-39.16 333,-30.9"/>
<polygon fill="#63b8ff" stroke="#63b8ff" points="336.5,-30.96 333,-20.96 329.5,-30.96 336.5,-30.96"/>
</g>
<!-- Node14&#45;&gt;Node10 -->
<g id="edge15" class="edge">
<title>Node14&#45;&gt;Node10</title>
<path fill="none" stroke="#63b8ff" d="M427.94,-219.59C427.38,-198.59 423.47,-145.1 399,-110 390.08,-97.21 376.2,-87.05 363.47,-79.68"/>
<polygon fill="#63b8ff" stroke="#63b8ff" points="365.42,-76.76 354.95,-75.1 362.1,-82.92 365.42,-76.76"/>
</g>
<!-- Node14&#45;&gt;Node12 -->
<g id="edge17" class="edge">
<title>Node14&#45;&gt;Node12</title>
<path fill="none" stroke="#63b8ff" d="M428.83,-219.64C429.67,-210.66 430.97,-196.37 432,-184 434.86,-149.48 437.84,-109.26 439.55,-85.67"/>
<polygon fill="#63b8ff" stroke="#63b8ff" points="443.03,-86.16 440.26,-75.93 436.05,-85.65 443.03,-86.16"/>
</g>
<!-- Node14&#45;&gt;Node15 -->
<g id="edge16" class="edge">
<title>Node14&#45;&gt;Node15</title>
<path fill="none" stroke="#63b8ff" d="M441.4,-219.51C453.16,-211.62 470.51,-199.98 484.41,-190.65"/>
<polygon fill="#63b8ff" stroke="#63b8ff" points="486.19,-193.68 492.54,-185.2 482.29,-187.87 486.19,-193.68"/>
</g>
<!-- Node19 -->
<g id="node19" class="node">
<title>Node19</title>
<g id="a_node19"><a xlink:title=" ">
<polygon fill="#e0e0e0" stroke="#999999" points="724,-184 678,-184 678,-165 724,-165 724,-184"/>
<text text-anchor="middle" x="701" y="-172" font-family="Helvetica,sans-Serif" font-size="10.00">cstdint</text>
</a>
</g>
</g>
<!-- Node18&#45;&gt;Node19 -->
<g id="edge22" class="edge">
<title>Node18&#45;&gt;Node19</title>
<path fill="none" stroke="#63b8ff" d="M701,-219.75C701,-213.27 701,-204.16 701,-195.9"/>
<polygon fill="#63b8ff" stroke="#63b8ff" points="704.5,-195.96 701,-185.96 697.5,-195.96 704.5,-195.96"/>
</g>
</g>
</svg>
