<?xml version="1.0" encoding="UTF-8" standalone="no"?>
<!DOCTYPE svg PUBLIC "-//W3C//DTD SVG 1.1//EN"
 "http://www.w3.org/Graphics/SVG/1.1/DTD/svg11.dtd">
<!-- Generated by graphviz version 7.0.5 (20221223.1930)
 -->
<!-- Title: lib/application_business_rules/user_interaction/Presenter.cpp Pages: 1 -->
<svg width="724pt" height="324pt"
 viewBox="0.00 0.00 724.00 324.00" xmlns="http://www.w3.org/2000/svg" xmlns:xlink="http://www.w3.org/1999/xlink">
<g id="graph0" class="graph" transform="scale(1 1) rotate(0) translate(4 320)">
<title>lib/application_business_rules/user_interaction/Presenter.cpp</title>
<!-- Node1 -->
<g id="node1" class="node">
<title>Node1</title>
<g id="a_node1"><a xlink:title=" ">
<polygon fill="#999999" stroke="#666666" points="575,-316 455,-316 455,-275 575,-275 575,-316"/>
<text text-anchor="start" x="463" y="-304" font-family="Helvetica,sans-Serif" font-size="10.00">lib/application_business</text>
<text text-anchor="start" x="463" y="-293" font-family="Helvetica,sans-Serif" font-size="10.00">_rules/user_interaction</text>
<text text-anchor="middle" x="515" y="-282" font-family="Helvetica,sans-Serif" font-size="10.00">/Presenter.cpp</text>
</a>
</g>
</g>
<!-- Node2 -->
<g id="node2" class="node">
<title>Node2</title>
<g id="a_node2"><a xlink:href="Presenter_8hpp.xhtml" target="_top" xlink:title=" ">
<polygon fill="white" stroke="#666666" points="248.5,-239 171.5,-239 171.5,-220 248.5,-220 248.5,-239"/>
<text text-anchor="middle" x="210" y="-227" font-family="Helvetica,sans-Serif" font-size="10.00">Presenter.hpp</text>
</a>
</g>
</g>
<!-- Node1&#45;&gt;Node2 -->
<g id="edge1" class="edge">
<title>Node1&#45;&gt;Node2</title>
<path fill="none" stroke="#63b8ff" d="M454.74,-281.86C397.81,-269.91 313.4,-252.2 260.07,-241.01"/>
<polygon fill="#63b8ff" stroke="#63b8ff" points="260.85,-237.59 250.34,-238.97 259.41,-244.44 260.85,-237.59"/>
</g>
<!-- Node10 -->
<g id="node10" class="node">
<title>Node10</title>
<g id="a_node10"><a xlink:href="board__interface_8hpp.xhtml" target="_top" xlink:title=" ">
<polygon fill="white" stroke="#666666" points="460.5,-239 359.5,-239 359.5,-220 460.5,-220 460.5,-239"/>
<text text-anchor="middle" x="410" y="-227" font-family="Helvetica,sans-Serif" font-size="10.00">board_interface.hpp</text>
</a>
</g>
</g>
<!-- Node1&#45;&gt;Node10 -->
<g id="edge10" class="edge">
<title>Node1&#45;&gt;Node10</title>
<path fill="none" stroke="#63b8ff" d="M482.35,-274.6C466.75,-265.09 448.41,-253.91 434.1,-245.19"/>
<polygon fill="#63b8ff" stroke="#63b8ff" points="436.14,-242.33 425.78,-240.12 432.5,-248.31 436.14,-242.33"/>
</g>
<!-- Node13 -->
<g id="node13" class="node">
<title>Node13</title>
<g id="a_node13"><a xlink:title=" ">
<polygon fill="#e0e0e0" stroke="#999999" points="512,-184 466,-184 466,-165 512,-165 512,-184"/>
<text text-anchor="middle" x="489" y="-172" font-family="Helvetica,sans-Serif" font-size="10.00">chrono</text>
</a>
</g>
</g>
<!-- Node1&#45;&gt;Node13 -->
<g id="edge16" class="edge">
<title>Node1&#45;&gt;Node13</title>
<path fill="none" stroke="#63b8ff" d="M510.65,-274.58C505.84,-252.58 498.14,-217.35 493.34,-195.37"/>
<polygon fill="#63b8ff" stroke="#63b8ff" points="496.83,-194.92 491.27,-185.9 489.99,-196.41 496.83,-194.92"/>
</g>
<!-- Node15 -->
<g id="node15" class="node">
<title>Node15</title>
<g id="a_node15"><a xlink:title=" ">
<polygon fill="#e0e0e0" stroke="#999999" points="566.5,-239 517.5,-239 517.5,-220 566.5,-220 566.5,-239"/>
<text text-anchor="middle" x="542" y="-227" font-family="Helvetica,sans-Serif" font-size="10.00">cassert</text>
</a>
</g>
</g>
<!-- Node1&#45;&gt;Node15 -->
<g id="edge15" class="edge">
<title>Node1&#45;&gt;Node15</title>
<path fill="none" stroke="#63b8ff" d="M523.39,-274.6C526.76,-266.61 530.63,-257.45 533.97,-249.55"/>
<polygon fill="#63b8ff" stroke="#63b8ff" points="537.09,-251.13 537.76,-240.56 530.65,-248.41 537.09,-251.13"/>
</g>
<!-- Node16 -->
<g id="node16" class="node">
<title>Node16</title>
<g id="a_node16"><a xlink:title=" ">
<polygon fill="#e0e0e0" stroke="#999999" points="631.5,-239 584.5,-239 584.5,-220 631.5,-220 631.5,-239"/>
<text text-anchor="middle" x="608" y="-227" font-family="Helvetica,sans-Serif" font-size="10.00">iterator</text>
</a>
</g>
</g>
<!-- Node1&#45;&gt;Node16 -->
<g id="edge17" class="edge">
<title>Node1&#45;&gt;Node16</title>
<path fill="none" stroke="#63b8ff" d="M543.92,-274.6C557.55,-265.22 573.54,-254.21 586.14,-245.54"/>
<polygon fill="#63b8ff" stroke="#63b8ff" points="587.91,-248.57 594.17,-240.02 583.94,-242.81 587.91,-248.57"/>
</g>
<!-- Node17 -->
<g id="node17" class="node">
<title>Node17</title>
<g id="a_node17"><a xlink:href="pitches_8hpp.xhtml" target="_top" xlink:title=" ">
<polygon fill="white" stroke="#666666" points="716,-239 650,-239 650,-220 716,-220 716,-239"/>
<text text-anchor="middle" x="683" y="-227" font-family="Helvetica,sans-Serif" font-size="10.00">pitches.hpp</text>
</a>
</g>
</g>
<!-- Node1&#45;&gt;Node17 -->
<g id="edge18" class="edge">
<title>Node1&#45;&gt;Node17</title>
<path fill="none" stroke="#63b8ff" d="M567.24,-274.6C594.01,-264.4 625.84,-252.28 649.33,-243.32"/>
<polygon fill="#63b8ff" stroke="#63b8ff" points="650.31,-246.7 658.41,-239.87 647.81,-240.16 650.31,-246.7"/>
</g>
<!-- Node3 -->
<g id="node3" class="node">
<title>Node3</title>
<g id="a_node3"><a xlink:href="IStatusIndicator_8hpp.xhtml" target="_top" xlink:title=" ">
<polygon fill="white" stroke="#666666" points="104,-184 0,-184 0,-165 104,-165 104,-184"/>
<text text-anchor="middle" x="52" y="-172" font-family="Helvetica,sans-Serif" font-size="10.00">IStatusIndicator.hpp</text>
</a>
</g>
</g>
<!-- Node2&#45;&gt;Node3 -->
<g id="edge2" class="edge">
<title>Node2&#45;&gt;Node3</title>
<path fill="none" stroke="#63b8ff" d="M183.2,-219.51C157.47,-210.88 118.37,-197.76 89.55,-188.1"/>
<polygon fill="#63b8ff" stroke="#63b8ff" points="90.7,-184.79 80.1,-184.93 88.47,-191.43 90.7,-184.79"/>
</g>
<!-- Node4 -->
<g id="node4" class="node">
<title>Node4</title>
<g id="a_node4"><a xlink:href="Menu_8hpp.xhtml" target="_top" xlink:title=" ">
<polygon fill="white" stroke="#666666" points="181.5,-184 122.5,-184 122.5,-165 181.5,-165 181.5,-184"/>
<text text-anchor="middle" x="152" y="-172" font-family="Helvetica,sans-Serif" font-size="10.00">Menu.hpp</text>
</a>
</g>
</g>
<!-- Node2&#45;&gt;Node4 -->
<g id="edge3" class="edge">
<title>Node2&#45;&gt;Node4</title>
<path fill="none" stroke="#63b8ff" d="M200.16,-219.51C191.95,-212 180.02,-201.1 170.09,-192.03"/>
<polygon fill="#63b8ff" stroke="#63b8ff" points="172.55,-189.54 162.81,-185.38 167.83,-194.71 172.55,-189.54"/>
</g>
<!-- Node8 -->
<g id="node8" class="node">
<title>Node8</title>
<g id="a_node8"><a xlink:title=" ">
<polygon fill="#e0e0e0" stroke="#999999" points="229,-19 185,-19 185,0 229,0 229,-19"/>
<text text-anchor="middle" x="207" y="-7" font-family="Helvetica,sans-Serif" font-size="10.00">vector</text>
</a>
</g>
</g>
<!-- Node2&#45;&gt;Node8 -->
<g id="edge9" class="edge">
<title>Node2&#45;&gt;Node8</title>
<path fill="none" stroke="#63b8ff" d="M209.88,-219.68C209.44,-187.57 207.91,-76.33 207.28,-30.49"/>
<polygon fill="#63b8ff" stroke="#63b8ff" points="210.78,-30.65 207.14,-20.7 203.78,-30.75 210.78,-30.65"/>
</g>
<!-- Node9 -->
<g id="node9" class="node">
<title>Node9</title>
<g id="a_node9"><a xlink:title=" ">
<polygon fill="#e0e0e0" stroke="#999999" points="287.5,-184 238.5,-184 238.5,-165 287.5,-165 287.5,-184"/>
<text text-anchor="middle" x="263" y="-172" font-family="Helvetica,sans-Serif" font-size="10.00">cstddef</text>
</a>
</g>
</g>
<!-- Node2&#45;&gt;Node9 -->
<g id="edge8" class="edge">
<title>Node2&#45;&gt;Node9</title>
<path fill="none" stroke="#63b8ff" d="M218.75,-219.75C226.15,-212.35 236.96,-201.54 246.05,-192.45"/>
<polygon fill="#63b8ff" stroke="#63b8ff" points="248.39,-195.06 252.99,-185.51 243.44,-190.11 248.39,-195.06"/>
</g>
<!-- Node5 -->
<g id="node5" class="node">
<title>Node5</title>
<g id="a_node5"><a xlink:href="IDisplay_8hpp.xhtml" target="_top" xlink:title=" ">
<polygon fill="white" stroke="#666666" points="179.5,-129 110.5,-129 110.5,-110 179.5,-110 179.5,-129"/>
<text text-anchor="middle" x="145" y="-117" font-family="Helvetica,sans-Serif" font-size="10.00">IDisplay.hpp</text>
</a>
</g>
</g>
<!-- Node4&#45;&gt;Node5 -->
<g id="edge4" class="edge">
<title>Node4&#45;&gt;Node5</title>
<path fill="none" stroke="#63b8ff" d="M150.84,-164.75C149.98,-158.19 148.76,-148.95 147.66,-140.6"/>
<polygon fill="#63b8ff" stroke="#63b8ff" points="151.16,-140.4 146.38,-130.94 144.22,-141.31 151.16,-140.4"/>
</g>
<!-- Node6 -->
<g id="node6" class="node">
<title>Node6</title>
<g id="a_node6"><a xlink:href="MenuItem_8hpp.xhtml" target="_top" xlink:title=" ">
<polygon fill="white" stroke="#666666" points="182,-74 104,-74 104,-55 182,-55 182,-74"/>
<text text-anchor="middle" x="143" y="-62" font-family="Helvetica,sans-Serif" font-size="10.00">MenuItem.hpp</text>
</a>
</g>
</g>
<!-- Node5&#45;&gt;Node6 -->
<g id="edge5" class="edge">
<title>Node5&#45;&gt;Node6</title>
<path fill="none" stroke="#63b8ff" d="M144.67,-109.75C144.43,-103.27 144.08,-94.16 143.77,-85.9"/>
<polygon fill="#63b8ff" stroke="#63b8ff" points="147.27,-85.82 143.39,-75.95 140.27,-86.08 147.27,-85.82"/>
</g>
<!-- Node7 -->
<g id="node7" class="node">
<title>Node7</title>
<g id="a_node7"><a xlink:title=" ">
<polygon fill="#e0e0e0" stroke="#999999" points="163.5,-19 122.5,-19 122.5,0 163.5,0 163.5,-19"/>
<text text-anchor="middle" x="143" y="-7" font-family="Helvetica,sans-Serif" font-size="10.00">string</text>
</a>
</g>
</g>
<!-- Node6&#45;&gt;Node7 -->
<g id="edge6" class="edge">
<title>Node6&#45;&gt;Node7</title>
<path fill="none" stroke="#63b8ff" d="M143,-54.75C143,-48.27 143,-39.16 143,-30.9"/>
<polygon fill="#63b8ff" stroke="#63b8ff" points="146.5,-30.96 143,-20.96 139.5,-30.96 146.5,-30.96"/>
</g>
<!-- Node6&#45;&gt;Node8 -->
<g id="edge7" class="edge">
<title>Node6&#45;&gt;Node8</title>
<path fill="none" stroke="#63b8ff" d="M153.86,-54.51C163.11,-46.85 176.62,-35.66 187.71,-26.47"/>
<polygon fill="#63b8ff" stroke="#63b8ff" points="189.67,-29.4 195.14,-20.32 185.2,-24.01 189.67,-29.4"/>
</g>
<!-- Node11 -->
<g id="node11" class="node">
<title>Node11</title>
<g id="a_node11"><a xlink:href="KeyIds_8hpp.xhtml" target="_top" xlink:title=" ">
<polygon fill="white" stroke="#666666" points="370.5,-184 305.5,-184 305.5,-165 370.5,-165 370.5,-184"/>
<text text-anchor="middle" x="338" y="-172" font-family="Helvetica,sans-Serif" font-size="10.00">KeyIds.hpp</text>
</a>
</g>
</g>
<!-- Node10&#45;&gt;Node11 -->
<g id="edge11" class="edge">
<title>Node10&#45;&gt;Node11</title>
<path fill="none" stroke="#63b8ff" d="M397.79,-219.51C387.17,-211.7 371.56,-200.21 358.96,-190.93"/>
<polygon fill="#63b8ff" stroke="#63b8ff" points="361.38,-188.36 351.25,-185.26 357.23,-194 361.38,-188.36"/>
</g>
<!-- Node10&#45;&gt;Node13 -->
<g id="edge13" class="edge">
<title>Node10&#45;&gt;Node13</title>
<path fill="none" stroke="#63b8ff" d="M423.4,-219.51C435.16,-211.62 452.51,-199.98 466.41,-190.65"/>
<polygon fill="#63b8ff" stroke="#63b8ff" points="468.19,-193.68 474.54,-185.2 464.29,-187.87 468.19,-193.68"/>
</g>
<!-- Node14 -->
<g id="node14" class="node">
<title>Node14</title>
<g id="a_node14"><a xlink:title=" ">
<polygon fill="#e0e0e0" stroke="#999999" points="447.5,-184 388.5,-184 388.5,-165 447.5,-165 447.5,-184"/>
<text text-anchor="middle" x="418" y="-172" font-family="Helvetica,sans-Serif" font-size="10.00">functional</text>
</a>
</g>
</g>
<!-- Node10&#45;&gt;Node14 -->
<g id="edge14" class="edge">
<title>Node10&#45;&gt;Node14</title>
<path fill="none" stroke="#63b8ff" d="M411.32,-219.75C412.31,-213.19 413.71,-203.95 414.97,-195.6"/>
<polygon fill="#63b8ff" stroke="#63b8ff" points="418.39,-196.35 416.42,-185.94 411.47,-195.3 418.39,-196.35"/>
</g>
<!-- Node12 -->
<g id="node12" class="node">
<title>Node12</title>
<g id="a_node12"><a xlink:title=" ">
<polygon fill="#e0e0e0" stroke="#999999" points="364,-129 312,-129 312,-110 364,-110 364,-129"/>
<text text-anchor="middle" x="338" y="-117" font-family="Helvetica,sans-Serif" font-size="10.00">ostream</text>
</a>
</g>
</g>
<!-- Node11&#45;&gt;Node12 -->
<g id="edge12" class="edge">
<title>Node11&#45;&gt;Node12</title>
<path fill="none" stroke="#63b8ff" d="M338,-164.75C338,-158.27 338,-149.16 338,-140.9"/>
<polygon fill="#63b8ff" stroke="#63b8ff" points="341.5,-140.96 338,-130.96 334.5,-140.96 341.5,-140.96"/>
</g>
<!-- Node18 -->
<g id="node18" class="node">
<title>Node18</title>
<g id="a_node18"><a xlink:title=" ">
<polygon fill="#e0e0e0" stroke="#999999" points="706,-184 660,-184 660,-165 706,-165 706,-184"/>
<text text-anchor="middle" x="683" y="-172" font-family="Helvetica,sans-Serif" font-size="10.00">cstdint</text>
</a>
</g>
</g>
<!-- Node17&#45;&gt;Node18 -->
<g id="edge19" class="edge">
<title>Node17&#45;&gt;Node18</title>
<path fill="none" stroke="#63b8ff" d="M683,-219.75C683,-213.27 683,-204.16 683,-195.9"/>
<polygon fill="#63b8ff" stroke="#63b8ff" points="686.5,-195.96 683,-185.96 679.5,-195.96 686.5,-195.96"/>
</g>
</g>
</svg>
