<?xml version="1.0" encoding="UTF-8" standalone="no"?>
<!DOCTYPE svg PUBLIC "-//W3C//DTD SVG 1.1//EN"
 "http://www.w3.org/Graphics/SVG/1.1/DTD/svg11.dtd">
<!-- Generated by graphviz version 7.0.5 (20221223.1930)
 -->
<!-- Title: lib/application_business_rules/user_interaction/Presenter.hpp Pages: 1 -->
<svg width="367pt" height="269pt"
 viewBox="0.00 0.00 367.00 269.00" xmlns="http://www.w3.org/2000/svg" xmlns:xlink="http://www.w3.org/1999/xlink">
<g id="graph0" class="graph" transform="scale(1 1) rotate(0) translate(4 265)">
<title>lib/application_business_rules/user_interaction/Presenter.hpp</title>
<!-- Node1 -->
<g id="node1" class="node">
<title>Node1</title>
<g id="a_node1"><a xlink:title=" ">
<polygon fill="#999999" stroke="#666666" points="311.5,-261 191.5,-261 191.5,-220 311.5,-220 311.5,-261"/>
<text text-anchor="start" x="199.5" y="-249" font-family="Helvetica,sans-Serif" font-size="10.00">lib/application_business</text>
<text text-anchor="start" x="199.5" y="-238" font-family="Helvetica,sans-Serif" font-size="10.00">_rules/user_interaction</text>
<text text-anchor="middle" x="251.5" y="-227" font-family="Helvetica,sans-Serif" font-size="10.00">/Presenter.hpp</text>
</a>
</g>
</g>
<!-- Node2 -->
<g id="node2" class="node">
<title>Node2</title>
<g id="a_node2"><a xlink:href="IStatusIndicator_8hpp.xhtml" target="_top" xlink:title=" ">
<polygon fill="white" stroke="#666666" points="172.5,-184 68.5,-184 68.5,-165 172.5,-165 172.5,-184"/>
<text text-anchor="middle" x="120.5" y="-172" font-family="Helvetica,sans-Serif" font-size="10.00">IStatusIndicator.hpp</text>
</a>
</g>
</g>
<!-- Node1&#45;&gt;Node2 -->
<g id="edge1" class="edge">
<title>Node1&#45;&gt;Node2</title>
<path fill="none" stroke="#63b8ff" d="M210.77,-219.6C190.65,-209.77 166.87,-198.15 148.77,-189.31"/>
<polygon fill="#63b8ff" stroke="#63b8ff" points="150.46,-186.24 139.94,-185 147.38,-192.53 150.46,-186.24"/>
</g>
<!-- Node3 -->
<g id="node3" class="node">
<title>Node3</title>
<g id="a_node3"><a xlink:href="Menu_8hpp.xhtml" target="_top" xlink:title=" ">
<polygon fill="white" stroke="#666666" points="250,-184 191,-184 191,-165 250,-165 250,-184"/>
<text text-anchor="middle" x="220.5" y="-172" font-family="Helvetica,sans-Serif" font-size="10.00">Menu.hpp</text>
</a>
</g>
</g>
<!-- Node1&#45;&gt;Node3 -->
<g id="edge2" class="edge">
<title>Node1&#45;&gt;Node3</title>
<path fill="none" stroke="#63b8ff" d="M241.86,-219.6C237.95,-211.52 233.45,-202.23 229.59,-194.27"/>
<polygon fill="#63b8ff" stroke="#63b8ff" points="232.86,-193 225.36,-185.52 226.57,-196.05 232.86,-193"/>
</g>
<!-- Node7 -->
<g id="node7" class="node">
<title>Node7</title>
<g id="a_node7"><a xlink:title=" ">
<polygon fill="#e0e0e0" stroke="#999999" points="300.5,-19 256.5,-19 256.5,0 300.5,0 300.5,-19"/>
<text text-anchor="middle" x="278.5" y="-7" font-family="Helvetica,sans-Serif" font-size="10.00">vector</text>
</a>
</g>
</g>
<!-- Node1&#45;&gt;Node7 -->
<g id="edge12" class="edge">
<title>Node1&#45;&gt;Node7</title>
<path fill="none" stroke="#63b8ff" d="M254.51,-219.74C256.09,-209.16 257.99,-195.88 259.5,-184 266.53,-128.52 273.3,-62.85 276.53,-30.53"/>
<polygon fill="#63b8ff" stroke="#63b8ff" points="280,-30.98 277.51,-20.68 273.04,-30.29 280,-30.98"/>
</g>
<!-- Node12 -->
<g id="node12" class="node">
<title>Node12</title>
<g id="a_node12"><a xlink:title=" ">
<polygon fill="#e0e0e0" stroke="#999999" points="359,-184 310,-184 310,-165 359,-165 359,-184"/>
<text text-anchor="middle" x="334.5" y="-172" font-family="Helvetica,sans-Serif" font-size="10.00">cstddef</text>
</a>
</g>
</g>
<!-- Node1&#45;&gt;Node12 -->
<g id="edge11" class="edge">
<title>Node1&#45;&gt;Node12</title>
<path fill="none" stroke="#63b8ff" d="M277.31,-219.6C289.23,-210.41 303.18,-199.65 314.32,-191.06"/>
<polygon fill="#63b8ff" stroke="#63b8ff" points="316.29,-193.96 322.07,-185.09 312.01,-188.42 316.29,-193.96"/>
</g>
<!-- Node4 -->
<g id="node4" class="node">
<title>Node4</title>
<g id="a_node4"><a xlink:href="IDisplay_8hpp.xhtml" target="_top" xlink:title=" ">
<polygon fill="white" stroke="#666666" points="253,-129 184,-129 184,-110 253,-110 253,-129"/>
<text text-anchor="middle" x="218.5" y="-117" font-family="Helvetica,sans-Serif" font-size="10.00">IDisplay.hpp</text>
</a>
</g>
</g>
<!-- Node3&#45;&gt;Node4 -->
<g id="edge3" class="edge">
<title>Node3&#45;&gt;Node4</title>
<path fill="none" stroke="#63b8ff" d="M220.17,-164.75C219.93,-158.27 219.58,-149.16 219.27,-140.9"/>
<polygon fill="#63b8ff" stroke="#63b8ff" points="222.77,-140.82 218.89,-130.95 215.77,-141.08 222.77,-140.82"/>
</g>
<!-- Node8 -->
<g id="node8" class="node">
<title>Node8</title>
<g id="a_node8"><a xlink:href="IKeypad_8hpp.xhtml" target="_top" xlink:title=" ">
<polygon fill="white" stroke="#666666" points="165.5,-129 23.5,-129 23.5,-110 165.5,-110 165.5,-129"/>
<text text-anchor="middle" x="94.5" y="-117" font-family="Helvetica,sans-Serif" font-size="10.00">user_interaction/IKeypad.hpp</text>
</a>
</g>
</g>
<!-- Node3&#45;&gt;Node8 -->
<g id="edge7" class="edge">
<title>Node3&#45;&gt;Node8</title>
<path fill="none" stroke="#63b8ff" d="M199.13,-164.51C179.09,-156.08 148.9,-143.38 126.09,-133.79"/>
<polygon fill="#63b8ff" stroke="#63b8ff" points="127.53,-130.6 116.95,-129.94 124.81,-137.05 127.53,-130.6"/>
</g>
<!-- Node5 -->
<g id="node5" class="node">
<title>Node5</title>
<g id="a_node5"><a xlink:href="MenuItem_8hpp.xhtml" target="_top" xlink:title=" ">
<polygon fill="white" stroke="#666666" points="253.5,-74 175.5,-74 175.5,-55 253.5,-55 253.5,-74"/>
<text text-anchor="middle" x="214.5" y="-62" font-family="Helvetica,sans-Serif" font-size="10.00">MenuItem.hpp</text>
</a>
</g>
</g>
<!-- Node4&#45;&gt;Node5 -->
<g id="edge4" class="edge">
<title>Node4&#45;&gt;Node5</title>
<path fill="none" stroke="#63b8ff" d="M217.84,-109.75C217.35,-103.27 216.66,-94.16 216.04,-85.9"/>
<polygon fill="#63b8ff" stroke="#63b8ff" points="219.53,-85.66 215.29,-75.95 212.55,-86.19 219.53,-85.66"/>
</g>
<!-- Node6 -->
<g id="node6" class="node">
<title>Node6</title>
<g id="a_node6"><a xlink:title=" ">
<polygon fill="#e0e0e0" stroke="#999999" points="235,-19 194,-19 194,0 235,0 235,-19"/>
<text text-anchor="middle" x="214.5" y="-7" font-family="Helvetica,sans-Serif" font-size="10.00">string</text>
</a>
</g>
</g>
<!-- Node5&#45;&gt;Node6 -->
<g id="edge5" class="edge">
<title>Node5&#45;&gt;Node6</title>
<path fill="none" stroke="#63b8ff" d="M214.5,-54.75C214.5,-48.27 214.5,-39.16 214.5,-30.9"/>
<polygon fill="#63b8ff" stroke="#63b8ff" points="218,-30.96 214.5,-20.96 211,-30.96 218,-30.96"/>
</g>
<!-- Node5&#45;&gt;Node7 -->
<g id="edge6" class="edge">
<title>Node5&#45;&gt;Node7</title>
<path fill="none" stroke="#63b8ff" d="M225.36,-54.51C234.61,-46.85 248.12,-35.66 259.21,-26.47"/>
<polygon fill="#63b8ff" stroke="#63b8ff" points="261.17,-29.4 266.64,-20.32 256.7,-24.01 261.17,-29.4"/>
</g>
<!-- Node9 -->
<g id="node9" class="node">
<title>Node9</title>
<g id="a_node9"><a xlink:href="KeyIds_8hpp.xhtml" target="_top" xlink:title=" ">
<polygon fill="white" stroke="#666666" points="142,-74 77,-74 77,-55 142,-55 142,-74"/>
<text text-anchor="middle" x="109.5" y="-62" font-family="Helvetica,sans-Serif" font-size="10.00">KeyIds.hpp</text>
</a>
</g>
</g>
<!-- Node8&#45;&gt;Node9 -->
<g id="edge8" class="edge">
<title>Node8&#45;&gt;Node9</title>
<path fill="none" stroke="#63b8ff" d="M96.98,-109.75C98.85,-103.11 101.51,-93.73 103.89,-85.31"/>
<polygon fill="#63b8ff" stroke="#63b8ff" points="107.2,-86.47 106.56,-75.9 100.47,-84.57 107.2,-86.47"/>
</g>
<!-- Node11 -->
<g id="node11" class="node">
<title>Node11</title>
<g id="a_node11"><a xlink:title=" ">
<polygon fill="#e0e0e0" stroke="#999999" points="59,-74 0,-74 0,-55 59,-55 59,-74"/>
<text text-anchor="middle" x="29.5" y="-62" font-family="Helvetica,sans-Serif" font-size="10.00">functional</text>
</a>
</g>
</g>
<!-- Node8&#45;&gt;Node11 -->
<g id="edge10" class="edge">
<title>Node8&#45;&gt;Node11</title>
<path fill="none" stroke="#63b8ff" d="M83.47,-109.51C74.08,-101.85 60.35,-90.66 49.09,-81.47"/>
<polygon fill="#63b8ff" stroke="#63b8ff" points="51.5,-78.92 41.54,-75.31 47.07,-84.35 51.5,-78.92"/>
</g>
<!-- Node10 -->
<g id="node10" class="node">
<title>Node10</title>
<g id="a_node10"><a xlink:title=" ">
<polygon fill="#e0e0e0" stroke="#999999" points="135.5,-19 83.5,-19 83.5,0 135.5,0 135.5,-19"/>
<text text-anchor="middle" x="109.5" y="-7" font-family="Helvetica,sans-Serif" font-size="10.00">ostream</text>
</a>
</g>
</g>
<!-- Node9&#45;&gt;Node10 -->
<g id="edge9" class="edge">
<title>Node9&#45;&gt;Node10</title>
<path fill="none" stroke="#63b8ff" d="M109.5,-54.75C109.5,-48.27 109.5,-39.16 109.5,-30.9"/>
<polygon fill="#63b8ff" stroke="#63b8ff" points="113,-30.96 109.5,-20.96 106,-30.96 113,-30.96"/>
</g>
</g>
</svg>
