<?xml version="1.0" encoding="UTF-8" standalone="no"?>
<!DOCTYPE svg PUBLIC "-//W3C//DTD SVG 1.1//EN"
 "http://www.w3.org/Graphics/SVG/1.1/DTD/svg11.dtd">
<!-- Generated by graphviz version 7.0.5 (20221223.1930)
 -->
<!-- Title: lib/application_business_rules/user_interaction/ProcessHmiInputs.cpp Pages: 1 -->
<svg width="820pt" height="335pt"
 viewBox="0.00 0.00 820.13 335.00" xmlns="http://www.w3.org/2000/svg" xmlns:xlink="http://www.w3.org/1999/xlink">
<g id="graph0" class="graph" transform="scale(1 1) rotate(0) translate(4 331)">
<title>lib/application_business_rules/user_interaction/ProcessHmiInputs.cpp</title>
<!-- Node1 -->
<g id="node1" class="node">
<title>Node1</title>
<g id="a_node1"><a xlink:title=" ">
<polygon fill="#999999" stroke="#666666" points="438.13,-327 318.13,-327 318.13,-286 438.13,-286 438.13,-327"/>
<text text-anchor="start" x="326.13" y="-315" font-family="Helvetica,sans-Serif" font-size="10.00">lib/application_business</text>
<text text-anchor="start" x="326.13" y="-304" font-family="Helvetica,sans-Serif" font-size="10.00">_rules/user_interaction</text>
<text text-anchor="middle" x="378.13" y="-293" font-family="Helvetica,sans-Serif" font-size="10.00">/ProcessHmiInputs.cpp</text>
</a>
</g>
</g>
<!-- Node2 -->
<g id="node2" class="node">
<title>Node2</title>
<g id="a_node2"><a xlink:href="ProcessHmiInputs_8hpp.xhtml" target="_top" xlink:title=" ">
<polygon fill="white" stroke="#666666" points="224.13,-250 108.13,-250 108.13,-231 224.13,-231 224.13,-250"/>
<text text-anchor="middle" x="166.13" y="-238" font-family="Helvetica,sans-Serif" font-size="10.00">ProcessHmiInputs.hpp</text>
</a>
</g>
</g>
<!-- Node1&#45;&gt;Node2 -->
<g id="edge1" class="edge">
<title>Node1&#45;&gt;Node2</title>
<path fill="none" stroke="#63b8ff" d="M317.66,-287.25C282.13,-276.52 238.16,-263.25 206.76,-253.77"/>
<polygon fill="#63b8ff" stroke="#63b8ff" points="207.83,-250.43 197.24,-250.89 205.81,-257.13 207.83,-250.43"/>
</g>
<!-- Node5 -->
<g id="node5" class="node">
<title>Node5</title>
<g id="a_node5"><a xlink:href="IKeypad_8hpp.xhtml" target="_top" xlink:title=" ">
<polygon fill="white" stroke="#666666" points="241.13,-134.5 171.13,-134.5 171.13,-115.5 241.13,-115.5 241.13,-134.5"/>
<text text-anchor="middle" x="206.13" y="-122.5" font-family="Helvetica,sans-Serif" font-size="10.00">IKeypad.hpp</text>
</a>
</g>
</g>
<!-- Node1&#45;&gt;Node5 -->
<g id="edge4" class="edge">
<title>Node1&#45;&gt;Node5</title>
<path fill="none" stroke="#63b8ff" d="M359.06,-285.6C325,-250.06 254.29,-176.27 222.38,-142.96"/>
<polygon fill="#63b8ff" stroke="#63b8ff" points="224.96,-140.6 215.51,-135.8 219.91,-145.44 224.96,-140.6"/>
</g>
<!-- Node6 -->
<g id="node6" class="node">
<title>Node6</title>
<g id="a_node6"><a xlink:title=" ">
<polygon fill="#e0e0e0" stroke="#999999" points="329.63,-74 270.63,-74 270.63,-55 329.63,-55 329.63,-74"/>
<text text-anchor="middle" x="300.13" y="-62" font-family="Helvetica,sans-Serif" font-size="10.00">functional</text>
</a>
</g>
</g>
<!-- Node1&#45;&gt;Node6 -->
<g id="edge21" class="edge">
<title>Node1&#45;&gt;Node6</title>
<path fill="none" stroke="#63b8ff" d="M382.98,-285.55C390.91,-248.22 402.69,-166.51 370.13,-110 362.41,-96.61 348.86,-86.63 335.73,-79.55"/>
<polygon fill="#63b8ff" stroke="#63b8ff" points="337.28,-76.41 326.76,-75.15 334.2,-82.69 337.28,-76.41"/>
</g>
<!-- Node7 -->
<g id="node7" class="node">
<title>Node7</title>
<g id="a_node7"><a xlink:href="Presenter_8hpp.xhtml" target="_top" xlink:title=" ">
<polygon fill="white" stroke="#666666" points="567.63,-250 490.63,-250 490.63,-231 567.63,-231 567.63,-250"/>
<text text-anchor="middle" x="529.13" y="-238" font-family="Helvetica,sans-Serif" font-size="10.00">Presenter.hpp</text>
</a>
</g>
</g>
<!-- Node1&#45;&gt;Node7 -->
<g id="edge7" class="edge">
<title>Node1&#45;&gt;Node7</title>
<path fill="none" stroke="#63b8ff" d="M425.08,-285.6C448.71,-275.59 476.71,-263.72 497.71,-254.81"/>
<polygon fill="#63b8ff" stroke="#63b8ff" points="499.06,-258.05 506.9,-250.92 496.32,-251.6 499.06,-258.05"/>
</g>
<!-- Node15 -->
<g id="node15" class="node">
<title>Node15</title>
<g id="a_node15"><a xlink:href="board__interface_8hpp.xhtml" target="_top" xlink:title=" ">
<polygon fill="white" stroke="#666666" points="360.63,-134.5 259.63,-134.5 259.63,-115.5 360.63,-115.5 360.63,-134.5"/>
<text text-anchor="middle" x="310.13" y="-122.5" font-family="Helvetica,sans-Serif" font-size="10.00">board_interface.hpp</text>
</a>
</g>
</g>
<!-- Node1&#45;&gt;Node15 -->
<g id="edge17" class="edge">
<title>Node1&#45;&gt;Node15</title>
<path fill="none" stroke="#63b8ff" d="M370.59,-285.6C357.41,-250.82 330.36,-179.4 317.38,-145.15"/>
<polygon fill="#63b8ff" stroke="#63b8ff" points="320.78,-144.23 313.96,-136.12 314.23,-146.71 320.78,-144.23"/>
</g>
<!-- Node17 -->
<g id="node17" class="node">
<title>Node17</title>
<g id="a_node17"><a xlink:href="serial__port_8hpp.xhtml" target="_top" xlink:title=" ">
<polygon fill="white" stroke="#666666" points="114.63,-140 5.63,-140 5.63,-110 114.63,-110 114.63,-140"/>
<text text-anchor="start" x="13.63" y="-128" font-family="Helvetica,sans-Serif" font-size="10.00">serial_interface/serial</text>
<text text-anchor="middle" x="60.13" y="-117" font-family="Helvetica,sans-Serif" font-size="10.00">_port.hpp</text>
</a>
</g>
</g>
<!-- Node1&#45;&gt;Node17 -->
<g id="edge22" class="edge">
<title>Node1&#45;&gt;Node17</title>
<path fill="none" stroke="#63b8ff" d="M317.93,-300.66C245.82,-293.67 130.74,-278.36 99.13,-250 71.18,-224.93 63.08,-180.07 60.84,-151.73"/>
<polygon fill="#63b8ff" stroke="#63b8ff" points="64.34,-151.65 60.27,-141.87 57.36,-152.05 64.34,-151.65"/>
</g>
<!-- Node20 -->
<g id="node20" class="node">
<title>Node20</title>
<g id="a_node20"><a xlink:title=" ">
<polygon fill="#e0e0e0" stroke="#999999" points="644.63,-250 585.63,-250 585.63,-231 644.63,-231 644.63,-250"/>
<text text-anchor="middle" x="615.13" y="-238" font-family="Helvetica,sans-Serif" font-size="10.00">stdexcept</text>
</a>
</g>
</g>
<!-- Node1&#45;&gt;Node20 -->
<g id="edge28" class="edge">
<title>Node1&#45;&gt;Node20</title>
<path fill="none" stroke="#63b8ff" d="M438.54,-289.18C481.05,-277.71 536.8,-262.65 574.19,-252.56"/>
<polygon fill="#63b8ff" stroke="#63b8ff" points="574.96,-255.97 583.7,-249.99 573.14,-249.21 574.96,-255.97"/>
</g>
<!-- Node21 -->
<g id="node21" class="node">
<title>Node21</title>
<g id="a_node21"><a xlink:href="Task_8hpp.xhtml" target="_top" xlink:title=" ">
<polygon fill="white" stroke="#666666" points="500.63,-134.5 417.63,-134.5 417.63,-115.5 500.63,-115.5 500.63,-134.5"/>
<text text-anchor="middle" x="459.13" y="-122.5" font-family="Helvetica,sans-Serif" font-size="10.00">tasks/Task.hpp</text>
</a>
</g>
</g>
<!-- Node1&#45;&gt;Node21 -->
<g id="edge29" class="edge">
<title>Node1&#45;&gt;Node21</title>
<path fill="none" stroke="#63b8ff" d="M386.91,-285.73C398.22,-260.3 418.51,-214.81 436.13,-176 440.74,-165.84 445.92,-154.56 450.2,-145.28"/>
<polygon fill="#63b8ff" stroke="#63b8ff" points="453.37,-146.76 454.39,-136.21 447.02,-143.82 453.37,-146.76"/>
</g>
<!-- Node23 -->
<g id="node23" class="node">
<title>Node23</title>
<g id="a_node23"><a xlink:href="type__traits_8hpp.xhtml" target="_top" xlink:title=" ">
<polygon fill="white" stroke="#666666" points="759.13,-250 679.13,-250 679.13,-231 759.13,-231 759.13,-250"/>
<text text-anchor="middle" x="719.13" y="-238" font-family="Helvetica,sans-Serif" font-size="10.00">type_traits.hpp</text>
</a>
</g>
</g>
<!-- Node1&#45;&gt;Node23 -->
<g id="edge33" class="edge">
<title>Node1&#45;&gt;Node23</title>
<path fill="none" stroke="#63b8ff" d="M438.31,-294.21C503.46,-281.98 606.29,-262.68 667.78,-251.14"/>
<polygon fill="#63b8ff" stroke="#63b8ff" points="668.09,-254.64 677.27,-249.35 666.8,-247.76 668.09,-254.64"/>
</g>
<!-- Node3 -->
<g id="node3" class="node">
<title>Node3</title>
<g id="a_node3"><a xlink:href="KeyIds_8hpp.xhtml" target="_top" xlink:title=" ">
<polygon fill="white" stroke="#666666" points="240.63,-74 175.63,-74 175.63,-55 240.63,-55 240.63,-74"/>
<text text-anchor="middle" x="208.13" y="-62" font-family="Helvetica,sans-Serif" font-size="10.00">KeyIds.hpp</text>
</a>
</g>
</g>
<!-- Node2&#45;&gt;Node3 -->
<g id="edge2" class="edge">
<title>Node2&#45;&gt;Node3</title>
<path fill="none" stroke="#63b8ff" d="M163.39,-230.55C157.26,-208.84 144.3,-152.04 162.13,-110 166.89,-98.76 176.03,-88.98 184.92,-81.46"/>
<polygon fill="#63b8ff" stroke="#63b8ff" points="186.95,-84.32 192.7,-75.42 182.66,-78.79 186.95,-84.32"/>
</g>
<!-- Node4 -->
<g id="node4" class="node">
<title>Node4</title>
<g id="a_node4"><a xlink:title=" ">
<polygon fill="#e0e0e0" stroke="#999999" points="123.13,-19 71.13,-19 71.13,0 123.13,0 123.13,-19"/>
<text text-anchor="middle" x="97.13" y="-7" font-family="Helvetica,sans-Serif" font-size="10.00">ostream</text>
</a>
</g>
</g>
<!-- Node3&#45;&gt;Node4 -->
<g id="edge3" class="edge">
<title>Node3&#45;&gt;Node4</title>
<path fill="none" stroke="#63b8ff" d="M189.3,-54.51C171.97,-46.24 146.01,-33.84 126.05,-24.31"/>
<polygon fill="#63b8ff" stroke="#63b8ff" points="127.58,-21.16 117.04,-20.01 124.56,-27.48 127.58,-21.16"/>
</g>
<!-- Node5&#45;&gt;Node3 -->
<g id="edge5" class="edge">
<title>Node5&#45;&gt;Node3</title>
<path fill="none" stroke="#63b8ff" d="M206.42,-115.37C206.69,-107.5 207.1,-95.6 207.45,-85.39"/>
<polygon fill="#63b8ff" stroke="#63b8ff" points="210.93,-85.79 207.78,-75.68 203.94,-85.55 210.93,-85.79"/>
</g>
<!-- Node5&#45;&gt;Node6 -->
<g id="edge6" class="edge">
<title>Node5&#45;&gt;Node6</title>
<path fill="none" stroke="#63b8ff" d="M220.4,-115.12C235.17,-105.92 258.5,-91.41 276.11,-80.44"/>
<polygon fill="#63b8ff" stroke="#63b8ff" points="277.79,-83.52 284.43,-75.27 274.09,-77.58 277.79,-83.52"/>
</g>
<!-- Node8 -->
<g id="node8" class="node">
<title>Node8</title>
<g id="a_node8"><a xlink:href="IStatusIndicator_8hpp.xhtml" target="_top" xlink:title=" ">
<polygon fill="white" stroke="#666666" points="626.13,-195 522.13,-195 522.13,-176 626.13,-176 626.13,-195"/>
<text text-anchor="middle" x="574.13" y="-183" font-family="Helvetica,sans-Serif" font-size="10.00">IStatusIndicator.hpp</text>
</a>
</g>
</g>
<!-- Node7&#45;&gt;Node8 -->
<g id="edge8" class="edge">
<title>Node7&#45;&gt;Node8</title>
<path fill="none" stroke="#63b8ff" d="M536.56,-230.75C542.71,-223.5 551.64,-212.98 559.25,-204.02"/>
<polygon fill="#63b8ff" stroke="#63b8ff" points="561.75,-206.48 565.55,-196.6 556.41,-201.95 561.75,-206.48"/>
</g>
<!-- Node9 -->
<g id="node9" class="node">
<title>Node9</title>
<g id="a_node9"><a xlink:href="Menu_8hpp.xhtml" target="_top" xlink:title=" ">
<polygon fill="white" stroke="#666666" points="503.63,-195 444.63,-195 444.63,-176 503.63,-176 503.63,-195"/>
<text text-anchor="middle" x="474.13" y="-183" font-family="Helvetica,sans-Serif" font-size="10.00">Menu.hpp</text>
</a>
</g>
</g>
<!-- Node7&#45;&gt;Node9 -->
<g id="edge9" class="edge">
<title>Node7&#45;&gt;Node9</title>
<path fill="none" stroke="#63b8ff" d="M520.04,-230.75C512.29,-223.27 500.92,-212.32 491.43,-203.17"/>
<polygon fill="#63b8ff" stroke="#63b8ff" points="494.12,-200.91 484.5,-196.49 489.27,-205.95 494.12,-200.91"/>
</g>
<!-- Node13 -->
<g id="node13" class="node">
<title>Node13</title>
<g id="a_node13"><a xlink:title=" ">
<polygon fill="#e0e0e0" stroke="#999999" points="654.13,-19 610.13,-19 610.13,0 654.13,0 654.13,-19"/>
<text text-anchor="middle" x="632.13" y="-7" font-family="Helvetica,sans-Serif" font-size="10.00">vector</text>
</a>
</g>
</g>
<!-- Node7&#45;&gt;Node13 -->
<g id="edge16" class="edge">
<title>Node7&#45;&gt;Node13</title>
<path fill="none" stroke="#63b8ff" d="M567.85,-232.19C616.52,-222.61 694.76,-205.77 703.13,-195 744.28,-141.99 681.15,-62.33 649.03,-27.65"/>
<polygon fill="#63b8ff" stroke="#63b8ff" points="651.73,-25.41 642.3,-20.58 646.66,-30.23 651.73,-25.41"/>
</g>
<!-- Node14 -->
<g id="node14" class="node">
<title>Node14</title>
<g id="a_node14"><a xlink:title=" ">
<polygon fill="#e0e0e0" stroke="#999999" points="693.63,-195 644.63,-195 644.63,-176 693.63,-176 693.63,-195"/>
<text text-anchor="middle" x="669.13" y="-183" font-family="Helvetica,sans-Serif" font-size="10.00">cstddef</text>
</a>
</g>
</g>
<!-- Node7&#45;&gt;Node14 -->
<g id="edge15" class="edge">
<title>Node7&#45;&gt;Node14</title>
<path fill="none" stroke="#63b8ff" d="M552.88,-230.51C575.44,-221.97 609.6,-209.03 635.06,-199.4"/>
<polygon fill="#63b8ff" stroke="#63b8ff" points="636.2,-202.71 644.31,-195.89 633.72,-196.16 636.2,-202.71"/>
</g>
<!-- Node9&#45;&gt;Node5 -->
<g id="edge14" class="edge">
<title>Node9&#45;&gt;Node5</title>
<path fill="none" stroke="#63b8ff" d="M444.33,-179.58C401.35,-172.24 319.61,-157.43 251.13,-140 248.83,-139.42 246.49,-138.79 244.12,-138.13"/>
<polygon fill="#63b8ff" stroke="#63b8ff" points="245.16,-134.78 234.58,-135.33 243.19,-141.5 245.16,-134.78"/>
</g>
<!-- Node10 -->
<g id="node10" class="node">
<title>Node10</title>
<g id="a_node10"><a xlink:href="IDisplay_8hpp.xhtml" target="_top" xlink:title=" ">
<polygon fill="white" stroke="#666666" points="587.63,-134.5 518.63,-134.5 518.63,-115.5 587.63,-115.5 587.63,-134.5"/>
<text text-anchor="middle" x="553.13" y="-122.5" font-family="Helvetica,sans-Serif" font-size="10.00">IDisplay.hpp</text>
</a>
</g>
</g>
<!-- Node9&#45;&gt;Node10 -->
<g id="edge10" class="edge">
<title>Node9&#45;&gt;Node10</title>
<path fill="none" stroke="#63b8ff" d="M486.12,-175.62C498.3,-166.6 517.41,-152.45 532.11,-141.56"/>
<polygon fill="#63b8ff" stroke="#63b8ff" points="533.84,-144.63 539.8,-135.87 529.68,-139.01 533.84,-144.63"/>
</g>
<!-- Node11 -->
<g id="node11" class="node">
<title>Node11</title>
<g id="a_node11"><a xlink:href="MenuItem_8hpp.xhtml" target="_top" xlink:title=" ">
<polygon fill="white" stroke="#666666" points="592.13,-74 514.13,-74 514.13,-55 592.13,-55 592.13,-74"/>
<text text-anchor="middle" x="553.13" y="-62" font-family="Helvetica,sans-Serif" font-size="10.00">MenuItem.hpp</text>
</a>
</g>
</g>
<!-- Node10&#45;&gt;Node11 -->
<g id="edge11" class="edge">
<title>Node10&#45;&gt;Node11</title>
<path fill="none" stroke="#63b8ff" d="M553.13,-115.37C553.13,-107.5 553.13,-95.6 553.13,-85.39"/>
<polygon fill="#63b8ff" stroke="#63b8ff" points="556.63,-85.68 553.13,-75.68 549.63,-85.68 556.63,-85.68"/>
</g>
<!-- Node12 -->
<g id="node12" class="node">
<title>Node12</title>
<g id="a_node12"><a xlink:title=" ">
<polygon fill="#e0e0e0" stroke="#999999" points="451.63,-19 410.63,-19 410.63,0 451.63,0 451.63,-19"/>
<text text-anchor="middle" x="431.13" y="-7" font-family="Helvetica,sans-Serif" font-size="10.00">string</text>
</a>
</g>
</g>
<!-- Node11&#45;&gt;Node12 -->
<g id="edge12" class="edge">
<title>Node11&#45;&gt;Node12</title>
<path fill="none" stroke="#63b8ff" d="M532.43,-54.51C513.12,-46.12 484.06,-33.5 462.01,-23.92"/>
<polygon fill="#63b8ff" stroke="#63b8ff" points="463.47,-20.74 452.9,-19.96 460.68,-27.16 463.47,-20.74"/>
</g>
<!-- Node11&#45;&gt;Node13 -->
<g id="edge13" class="edge">
<title>Node11&#45;&gt;Node13</title>
<path fill="none" stroke="#63b8ff" d="M566.53,-54.51C578.29,-46.62 595.64,-34.98 609.54,-25.65"/>
<polygon fill="#63b8ff" stroke="#63b8ff" points="611.31,-28.68 617.67,-20.2 607.41,-22.87 611.31,-28.68"/>
</g>
<!-- Node15&#45;&gt;Node3 -->
<g id="edge18" class="edge">
<title>Node15&#45;&gt;Node3</title>
<path fill="none" stroke="#63b8ff" d="M294.63,-115.12C278.46,-105.84 252.82,-91.13 233.65,-80.14"/>
<polygon fill="#63b8ff" stroke="#63b8ff" points="235.49,-77.16 225.08,-75.22 232.01,-83.23 235.49,-77.16"/>
</g>
<!-- Node15&#45;&gt;Node6 -->
<g id="edge20" class="edge">
<title>Node15&#45;&gt;Node6</title>
<path fill="none" stroke="#63b8ff" d="M308.65,-115.37C307.31,-107.5 305.27,-95.6 303.53,-85.39"/>
<polygon fill="#63b8ff" stroke="#63b8ff" points="307,-84.93 301.86,-75.66 300.1,-86.11 307,-84.93"/>
</g>
<!-- Node16 -->
<g id="node16" class="node">
<title>Node16</title>
<g id="a_node16"><a xlink:title=" ">
<polygon fill="#e0e0e0" stroke="#999999" points="400.13,-74 354.13,-74 354.13,-55 400.13,-55 400.13,-74"/>
<text text-anchor="middle" x="377.13" y="-62" font-family="Helvetica,sans-Serif" font-size="10.00">chrono</text>
</a>
</g>
</g>
<!-- Node15&#45;&gt;Node16 -->
<g id="edge19" class="edge">
<title>Node15&#45;&gt;Node16</title>
<path fill="none" stroke="#63b8ff" d="M320.3,-115.12C330.34,-106.35 345.92,-92.75 358.22,-82"/>
<polygon fill="#63b8ff" stroke="#63b8ff" points="360.48,-84.68 365.71,-75.46 355.88,-79.4 360.48,-84.68"/>
</g>
<!-- Node17&#45;&gt;Node4 -->
<g id="edge26" class="edge">
<title>Node17&#45;&gt;Node4</title>
<path fill="none" stroke="#63b8ff" d="M34.9,-109.7C14.6,-96.26 -8.62,-75.23 4.13,-55 16.36,-35.58 39.68,-24.45 59.9,-18.18"/>
<polygon fill="#63b8ff" stroke="#63b8ff" points="60.57,-21.62 69.27,-15.57 58.7,-14.88 60.57,-21.62"/>
</g>
<!-- Node17&#45;&gt;Node6 -->
<g id="edge24" class="edge">
<title>Node17&#45;&gt;Node6</title>
<path fill="none" stroke="#63b8ff" d="M114.89,-110.65C158.83,-99.94 219.55,-85.14 259.31,-75.45"/>
<polygon fill="#63b8ff" stroke="#63b8ff" points="260.08,-78.86 268.97,-73.1 258.42,-72.06 260.08,-78.86"/>
</g>
<!-- Node17&#45;&gt;Node12 -->
<g id="edge27" class="edge">
<title>Node17&#45;&gt;Node12</title>
<path fill="none" stroke="#63b8ff" d="M77.26,-109.61C97.26,-93.62 131.96,-68.32 166.13,-55 246.2,-23.78 348.27,-14.45 399.2,-11.67"/>
<polygon fill="#63b8ff" stroke="#63b8ff" points="399.1,-15.18 408.92,-11.2 398.76,-8.19 399.1,-15.18"/>
</g>
<!-- Node18 -->
<g id="node18" class="node">
<title>Node18</title>
<g id="a_node18"><a xlink:title=" ">
<polygon fill="#e0e0e0" stroke="#999999" points="51.13,-74 13.13,-74 13.13,-55 51.13,-55 51.13,-74"/>
<text text-anchor="middle" x="32.13" y="-62" font-family="Helvetica,sans-Serif" font-size="10.00">array</text>
</a>
</g>
</g>
<!-- Node17&#45;&gt;Node18 -->
<g id="edge23" class="edge">
<title>Node17&#45;&gt;Node18</title>
<path fill="none" stroke="#63b8ff" d="M53.2,-109.54C49.59,-102 45.13,-92.67 41.24,-84.55"/>
<polygon fill="#63b8ff" stroke="#63b8ff" points="44.41,-83.05 36.93,-75.54 38.09,-86.07 44.41,-83.05"/>
</g>
<!-- Node19 -->
<g id="node19" class="node">
<title>Node19</title>
<g id="a_node19"><a xlink:title=" ">
<polygon fill="#e0e0e0" stroke="#999999" points="119.13,-74 69.13,-74 69.13,-55 119.13,-55 119.13,-74"/>
<text text-anchor="middle" x="94.13" y="-62" font-family="Helvetica,sans-Serif" font-size="10.00">optional</text>
</a>
</g>
</g>
<!-- Node17&#45;&gt;Node19 -->
<g id="edge25" class="edge">
<title>Node17&#45;&gt;Node19</title>
<path fill="none" stroke="#63b8ff" d="M68.53,-109.54C73.02,-101.82 78.58,-92.24 83.38,-83.99"/>
<polygon fill="#63b8ff" stroke="#63b8ff" points="86.32,-85.89 88.32,-75.48 80.27,-82.37 86.32,-85.89"/>
</g>
<!-- Node21&#45;&gt;Node12 -->
<g id="edge32" class="edge">
<title>Node21&#45;&gt;Node12</title>
<path fill="none" stroke="#63b8ff" d="M456.93,-115.09C452.45,-96.94 442.17,-55.29 436.03,-30.37"/>
<polygon fill="#63b8ff" stroke="#63b8ff" points="439.47,-29.7 433.68,-20.83 432.67,-31.38 439.47,-29.7"/>
</g>
<!-- Node21&#45;&gt;Node16 -->
<g id="edge30" class="edge">
<title>Node21&#45;&gt;Node16</title>
<path fill="none" stroke="#63b8ff" d="M446.67,-115.12C434.03,-106.1 414.2,-91.95 398.94,-81.06"/>
<polygon fill="#63b8ff" stroke="#63b8ff" points="401.1,-78.31 390.93,-75.35 397.04,-84 401.1,-78.31"/>
</g>
<!-- Node22 -->
<g id="node22" class="node">
<title>Node22</title>
<g id="a_node22"><a xlink:title=" ">
<polygon fill="#e0e0e0" stroke="#999999" points="494.63,-74 459.63,-74 459.63,-55 494.63,-55 494.63,-74"/>
<text text-anchor="middle" x="477.13" y="-62" font-family="Helvetica,sans-Serif" font-size="10.00">map</text>
</a>
</g>
</g>
<!-- Node21&#45;&gt;Node22 -->
<g id="edge31" class="edge">
<title>Node21&#45;&gt;Node22</title>
<path fill="none" stroke="#63b8ff" d="M461.78,-115.37C464.23,-107.42 467.95,-95.33 471.11,-85.05"/>
<polygon fill="#63b8ff" stroke="#63b8ff" points="474.42,-86.2 474.01,-75.61 467.73,-84.14 474.42,-86.2"/>
</g>
<!-- Node24 -->
<g id="node24" class="node">
<title>Node24</title>
<g id="a_node24"><a xlink:title=" ">
<polygon fill="#e0e0e0" stroke="#999999" points="812.13,-195 750.13,-195 750.13,-176 812.13,-176 812.13,-195"/>
<text text-anchor="middle" x="781.13" y="-183" font-family="Helvetica,sans-Serif" font-size="10.00">type_traits</text>
</a>
</g>
</g>
<!-- Node23&#45;&gt;Node24 -->
<g id="edge34" class="edge">
<title>Node23&#45;&gt;Node24</title>
<path fill="none" stroke="#63b8ff" d="M729.64,-230.51C738.51,-222.93 751.44,-211.88 762.12,-202.75"/>
<polygon fill="#63b8ff" stroke="#63b8ff" points="764.29,-205.5 769.61,-196.34 759.74,-200.18 764.29,-205.5"/>
</g>
</g>
</svg>
