<?xml version="1.0" encoding="UTF-8" standalone="no"?>
<!DOCTYPE svg PUBLIC "-//W3C//DTD SVG 1.1//EN"
 "http://www.w3.org/Graphics/SVG/1.1/DTD/svg11.dtd">
<!-- Generated by graphviz version 7.0.5 (20221223.1930)
 -->
<!-- Title: lib/application_business_rules/user_interaction/ProcessHmiInputs.cpp Pages: 1 -->
<svg width="1020pt" height="335pt"
 viewBox="0.00 0.00 1020.00 335.00" xmlns="http://www.w3.org/2000/svg" xmlns:xlink="http://www.w3.org/1999/xlink">
<g id="graph0" class="graph" transform="scale(1 1) rotate(0) translate(4 331)">
<title>lib/application_business_rules/user_interaction/ProcessHmiInputs.cpp</title>
<!-- Node1 -->
<g id="node1" class="node">
<title>Node1</title>
<g id="a_node1"><a xlink:title=" ">
<polygon fill="#999999" stroke="#666666" points="495,-327 375,-327 375,-286 495,-286 495,-327"/>
<text text-anchor="start" x="383" y="-315" font-family="Helvetica,sans-Serif" font-size="10.00">lib/application_business</text>
<text text-anchor="start" x="383" y="-304" font-family="Helvetica,sans-Serif" font-size="10.00">_rules/user_interaction</text>
<text text-anchor="middle" x="435" y="-293" font-family="Helvetica,sans-Serif" font-size="10.00">/ProcessHmiInputs.cpp</text>
</a>
</g>
</g>
<!-- Node2 -->
<g id="node2" class="node">
<title>Node2</title>
<g id="a_node2"><a xlink:href="ProcessHmiInputs_8hpp.xhtml" target="_top" xlink:title=" ">
<polygon fill="white" stroke="#666666" points="116,-244.5 0,-244.5 0,-225.5 116,-225.5 116,-244.5"/>
<text text-anchor="middle" x="58" y="-232.5" font-family="Helvetica,sans-Serif" font-size="10.00">ProcessHmiInputs.hpp</text>
</a>
</g>
</g>
<!-- Node1&#45;&gt;Node2 -->
<g id="edge1" class="edge">
<title>Node1&#45;&gt;Node2</title>
<path fill="none" stroke="#63b8ff" d="M374.61,-295.22C312.06,-284.45 211.55,-266.79 125,-250 120.47,-249.12 115.78,-248.19 111.07,-247.24"/>
<polygon fill="#63b8ff" stroke="#63b8ff" points="112.12,-243.88 101.62,-245.3 110.71,-250.74 112.12,-243.88"/>
</g>
<!-- Node5 -->
<g id="node5" class="node">
<title>Node5</title>
<g id="a_node5"><a xlink:href="IKeypad_8hpp.xhtml" target="_top" xlink:title=" ">
<polygon fill="white" stroke="#666666" points="204,-244.5 134,-244.5 134,-225.5 204,-225.5 204,-244.5"/>
<text text-anchor="middle" x="169" y="-232.5" font-family="Helvetica,sans-Serif" font-size="10.00">IKeypad.hpp</text>
</a>
</g>
</g>
<!-- Node1&#45;&gt;Node5 -->
<g id="edge4" class="edge">
<title>Node1&#45;&gt;Node5</title>
<path fill="none" stroke="#63b8ff" d="M374.9,-291.56C330.08,-280.9 267.46,-265.46 213,-250 211,-249.43 208.96,-248.84 206.91,-248.23"/>
<polygon fill="#63b8ff" stroke="#63b8ff" points="207.94,-244.89 197.36,-245.3 205.89,-251.58 207.94,-244.89"/>
</g>
<!-- Node6 -->
<g id="node6" class="node">
<title>Node6</title>
<g id="a_node6"><a xlink:title=" ">
<polygon fill="#e0e0e0" stroke="#999999" points="270.5,-184 211.5,-184 211.5,-165 270.5,-165 270.5,-184"/>
<text text-anchor="middle" x="241" y="-172" font-family="Helvetica,sans-Serif" font-size="10.00">functional</text>
</a>
</g>
</g>
<!-- Node1&#45;&gt;Node6 -->
<g id="edge20" class="edge">
<title>Node1&#45;&gt;Node6</title>
<path fill="none" stroke="#63b8ff" d="M412.91,-285.87C388.13,-264.07 349.3,-230.54 333,-220 314.28,-207.89 291.78,-196.95 273.71,-188.95"/>
<polygon fill="#63b8ff" stroke="#63b8ff" points="275.34,-185.84 264.77,-185.08 272.56,-192.26 275.34,-185.84"/>
</g>
<!-- Node7 -->
<g id="node7" class="node">
<title>Node7</title>
<g id="a_node7"><a xlink:href="Presenter_8hpp.xhtml" target="_top" xlink:title=" ">
<polygon fill="white" stroke="#666666" points="762.5,-244.5 685.5,-244.5 685.5,-225.5 762.5,-225.5 762.5,-244.5"/>
<text text-anchor="middle" x="724" y="-232.5" font-family="Helvetica,sans-Serif" font-size="10.00">Presenter.hpp</text>
</a>
</g>
</g>
<!-- Node1&#45;&gt;Node7 -->
<g id="edge7" class="edge">
<title>Node1&#45;&gt;Node7</title>
<path fill="none" stroke="#63b8ff" d="M495.23,-291.02C548.79,-278.13 626.1,-259.54 675.7,-247.62"/>
<polygon fill="#63b8ff" stroke="#63b8ff" points="676.38,-251.05 685.29,-245.31 674.75,-244.25 676.38,-251.05"/>
</g>
<!-- Node15 -->
<g id="node15" class="node">
<title>Node15</title>
<g id="a_node15"><a xlink:href="board__interface_8hpp.xhtml" target="_top" xlink:title=" ">
<polygon fill="white" stroke="#666666" points="323.5,-244.5 222.5,-244.5 222.5,-225.5 323.5,-225.5 323.5,-244.5"/>
<text text-anchor="middle" x="273" y="-232.5" font-family="Helvetica,sans-Serif" font-size="10.00">board_interface.hpp</text>
</a>
</g>
</g>
<!-- Node1&#45;&gt;Node15 -->
<g id="edge16" class="edge">
<title>Node1&#45;&gt;Node15</title>
<path fill="none" stroke="#63b8ff" d="M388.58,-285.58C361.5,-273.97 328.07,-259.62 304.14,-249.36"/>
<polygon fill="#63b8ff" stroke="#63b8ff" points="305.83,-246.28 295.26,-245.55 303.07,-252.71 305.83,-246.28"/>
</g>
<!-- Node17 -->
<g id="node17" class="node">
<title>Node17</title>
<g id="a_node17"><a xlink:href="serial__port_8hpp.xhtml" target="_top" xlink:title=" ">
<polygon fill="white" stroke="#666666" points="489.5,-250 380.5,-250 380.5,-220 489.5,-220 489.5,-250"/>
<text text-anchor="start" x="388.5" y="-238" font-family="Helvetica,sans-Serif" font-size="10.00">serial_interface/serial</text>
<text text-anchor="middle" x="435" y="-227" font-family="Helvetica,sans-Serif" font-size="10.00">_port.hpp</text>
</a>
</g>
</g>
<!-- Node1&#45;&gt;Node17 -->
<g id="edge21" class="edge">
<title>Node1&#45;&gt;Node17</title>
<path fill="none" stroke="#63b8ff" d="M435,-285.77C435,-278.31 435,-269.7 435,-261.77"/>
<polygon fill="#63b8ff" stroke="#63b8ff" points="438.5,-261.99 435,-251.99 431.5,-261.99 438.5,-261.99"/>
</g>
<!-- Node20 -->
<g id="node20" class="node">
<title>Node20</title>
<g id="a_node20"><a xlink:title=" ">
<polygon fill="#e0e0e0" stroke="#999999" points="839.5,-244.5 780.5,-244.5 780.5,-225.5 839.5,-225.5 839.5,-244.5"/>
<text text-anchor="middle" x="810" y="-232.5" font-family="Helvetica,sans-Serif" font-size="10.00">stdexcept</text>
</a>
</g>
</g>
<!-- Node1&#45;&gt;Node20 -->
<g id="edge27" class="edge">
<title>Node1&#45;&gt;Node20</title>
<path fill="none" stroke="#63b8ff" d="M495.38,-299.06C563.39,-291 676.83,-275.12 772,-250 773.74,-249.54 775.51,-249.03 777.29,-248.49"/>
<polygon fill="#63b8ff" stroke="#63b8ff" points="778.32,-251.84 786.69,-245.34 776.09,-245.2 778.32,-251.84"/>
</g>
<!-- Node21 -->
<g id="node21" class="node">
<title>Node21</title>
<g id="a_node21"><a xlink:href="Task_8hpp.xhtml" target="_top" xlink:title=" ">
<polygon fill="white" stroke="#666666" points="605.5,-244.5 522.5,-244.5 522.5,-225.5 605.5,-225.5 605.5,-244.5"/>
<text text-anchor="middle" x="564" y="-232.5" font-family="Helvetica,sans-Serif" font-size="10.00">tasks/Task.hpp</text>
</a>
</g>
</g>
<!-- Node1&#45;&gt;Node21 -->
<g id="edge28" class="edge">
<title>Node1&#45;&gt;Node21</title>
<path fill="none" stroke="#63b8ff" d="M471.97,-285.58C492.85,-274.33 518.48,-260.53 537.38,-250.34"/>
<polygon fill="#63b8ff" stroke="#63b8ff" points="538.9,-253.5 546.05,-245.67 535.58,-247.33 538.9,-253.5"/>
</g>
<!-- Node23 -->
<g id="node23" class="node">
<title>Node23</title>
<g id="a_node23"><a xlink:href="type__traits_8hpp.xhtml" target="_top" xlink:title=" ">
<polygon fill="white" stroke="#666666" points="993,-244.5 913,-244.5 913,-225.5 993,-225.5 993,-244.5"/>
<text text-anchor="middle" x="953" y="-232.5" font-family="Helvetica,sans-Serif" font-size="10.00">type_traits.hpp</text>
</a>
</g>
</g>
<!-- Node1&#45;&gt;Node23 -->
<g id="edge32" class="edge">
<title>Node1&#45;&gt;Node23</title>
<path fill="none" stroke="#63b8ff" d="M495.34,-297.42C575.94,-286.63 723.22,-266.9 849,-250 866.02,-247.71 884.6,-245.21 901.29,-242.97"/>
<polygon fill="#63b8ff" stroke="#63b8ff" points="901.56,-246.46 911,-241.66 900.62,-239.52 901.56,-246.46"/>
</g>
<!-- Node3 -->
<g id="node3" class="node">
<title>Node3</title>
<g id="a_node3"><a xlink:href="KeyIds_8hpp.xhtml" target="_top" xlink:title=" ">
<polygon fill="white" stroke="#666666" points="193.5,-184 128.5,-184 128.5,-165 193.5,-165 193.5,-184"/>
<text text-anchor="middle" x="161" y="-172" font-family="Helvetica,sans-Serif" font-size="10.00">KeyIds.hpp</text>
</a>
</g>
</g>
<!-- Node2&#45;&gt;Node3 -->
<g id="edge2" class="edge">
<title>Node2&#45;&gt;Node3</title>
<path fill="none" stroke="#63b8ff" d="M73.64,-225.12C89.98,-215.84 115.87,-201.13 135.23,-190.14"/>
<polygon fill="#63b8ff" stroke="#63b8ff" points="136.93,-193.2 143.89,-185.22 133.47,-187.11 136.93,-193.2"/>
</g>
<!-- Node4 -->
<g id="node4" class="node">
<title>Node4</title>
<g id="a_node4"><a xlink:title=" ">
<polygon fill="#e0e0e0" stroke="#999999" points="318,-129 266,-129 266,-110 318,-110 318,-129"/>
<text text-anchor="middle" x="292" y="-117" font-family="Helvetica,sans-Serif" font-size="10.00">ostream</text>
</a>
</g>
</g>
<!-- Node3&#45;&gt;Node4 -->
<g id="edge3" class="edge">
<title>Node3&#45;&gt;Node4</title>
<path fill="none" stroke="#63b8ff" d="M183.22,-164.51C204.14,-156.04 235.73,-143.27 259.48,-133.66"/>
<polygon fill="#63b8ff" stroke="#63b8ff" points="260.75,-136.92 268.7,-129.93 258.12,-130.43 260.75,-136.92"/>
</g>
<!-- Node5&#45;&gt;Node3 -->
<g id="edge5" class="edge">
<title>Node5&#45;&gt;Node3</title>
<path fill="none" stroke="#63b8ff" d="M167.82,-225.37C166.74,-217.5 165.12,-205.6 163.72,-195.39"/>
<polygon fill="#63b8ff" stroke="#63b8ff" points="167.21,-195.1 162.39,-185.67 160.28,-196.05 167.21,-195.1"/>
</g>
<!-- Node5&#45;&gt;Node6 -->
<g id="edge6" class="edge">
<title>Node5&#45;&gt;Node6</title>
<path fill="none" stroke="#63b8ff" d="M179.94,-225.12C190.82,-216.27 207.79,-202.48 221.08,-191.69"/>
<polygon fill="#63b8ff" stroke="#63b8ff" points="223.23,-194.45 228.79,-185.42 218.82,-189.01 223.23,-194.45"/>
</g>
<!-- Node8 -->
<g id="node8" class="node">
<title>Node8</title>
<g id="a_node8"><a xlink:href="IStatusIndicator_8hpp.xhtml" target="_top" xlink:title=" ">
<polygon fill="white" stroke="#666666" points="749,-184 645,-184 645,-165 749,-165 749,-184"/>
<text text-anchor="middle" x="697" y="-172" font-family="Helvetica,sans-Serif" font-size="10.00">IStatusIndicator.hpp</text>
</a>
</g>
</g>
<!-- Node7&#45;&gt;Node8 -->
<g id="edge8" class="edge">
<title>Node7&#45;&gt;Node8</title>
<path fill="none" stroke="#63b8ff" d="M720.02,-225.37C716.27,-217.25 710.53,-204.81 705.72,-194.39"/>
<polygon fill="#63b8ff" stroke="#63b8ff" points="709,-193.15 701.63,-185.54 702.65,-196.09 709,-193.15"/>
</g>
<!-- Node9 -->
<g id="node9" class="node">
<title>Node9</title>
<g id="a_node9"><a xlink:href="Menu_8hpp.xhtml" target="_top" xlink:title=" ">
<polygon fill="white" stroke="#666666" points="893.5,-184 834.5,-184 834.5,-165 893.5,-165 893.5,-184"/>
<text text-anchor="middle" x="864" y="-172" font-family="Helvetica,sans-Serif" font-size="10.00">Menu.hpp</text>
</a>
</g>
</g>
<!-- Node7&#45;&gt;Node9 -->
<g id="edge9" class="edge">
<title>Node7&#45;&gt;Node9</title>
<path fill="none" stroke="#63b8ff" d="M745.26,-225.12C768.39,-215.45 805.61,-199.9 832.21,-188.78"/>
<polygon fill="#63b8ff" stroke="#63b8ff" points="833.26,-192.14 841.14,-185.05 830.56,-185.68 833.26,-192.14"/>
</g>
<!-- Node13 -->
<g id="node13" class="node">
<title>Node13</title>
<g id="a_node13"><a xlink:title=" ">
<polygon fill="#e0e0e0" stroke="#999999" points="910,-19 866,-19 866,0 910,0 910,-19"/>
<text text-anchor="middle" x="888" y="-7" font-family="Helvetica,sans-Serif" font-size="10.00">vector</text>
</a>
</g>
</g>
<!-- Node7&#45;&gt;Node13 -->
<g id="edge15" class="edge">
<title>Node7&#45;&gt;Node13</title>
<path fill="none" stroke="#63b8ff" d="M754.45,-225.04C760.27,-223.35 766.32,-221.61 772,-220 830.1,-203.55 866.4,-232.02 903,-184 938.07,-137.99 912.33,-63.81 897.09,-29.29"/>
<polygon fill="#63b8ff" stroke="#63b8ff" points="900.44,-28.19 893.07,-20.58 894.08,-31.13 900.44,-28.19"/>
</g>
<!-- Node14 -->
<g id="node14" class="node">
<title>Node14</title>
<g id="a_node14"><a xlink:title=" ">
<polygon fill="#e0e0e0" stroke="#999999" points="816.5,-184 767.5,-184 767.5,-165 816.5,-165 816.5,-184"/>
<text text-anchor="middle" x="792" y="-172" font-family="Helvetica,sans-Serif" font-size="10.00">cstddef</text>
</a>
</g>
</g>
<!-- Node7&#45;&gt;Node14 -->
<g id="edge14" class="edge">
<title>Node7&#45;&gt;Node14</title>
<path fill="none" stroke="#63b8ff" d="M734.33,-225.12C744.61,-216.27 760.63,-202.48 773.18,-191.69"/>
<polygon fill="#63b8ff" stroke="#63b8ff" points="775.13,-194.63 780.43,-185.46 770.56,-189.32 775.13,-194.63"/>
</g>
<!-- Node10 -->
<g id="node10" class="node">
<title>Node10</title>
<g id="a_node10"><a xlink:href="IDisplay_8hpp.xhtml" target="_top" xlink:title=" ">
<polygon fill="white" stroke="#666666" points="891.5,-129 822.5,-129 822.5,-110 891.5,-110 891.5,-129"/>
<text text-anchor="middle" x="857" y="-117" font-family="Helvetica,sans-Serif" font-size="10.00">IDisplay.hpp</text>
</a>
</g>
</g>
<!-- Node9&#45;&gt;Node10 -->
<g id="edge10" class="edge">
<title>Node9&#45;&gt;Node10</title>
<path fill="none" stroke="#63b8ff" d="M862.84,-164.75C861.98,-158.19 860.76,-148.95 859.66,-140.6"/>
<polygon fill="#63b8ff" stroke="#63b8ff" points="863.16,-140.4 858.38,-130.94 856.22,-141.31 863.16,-140.4"/>
</g>
<!-- Node11 -->
<g id="node11" class="node">
<title>Node11</title>
<g id="a_node11"><a xlink:href="MenuItem_8hpp.xhtml" target="_top" xlink:title=" ">
<polygon fill="white" stroke="#666666" points="894,-74 816,-74 816,-55 894,-55 894,-74"/>
<text text-anchor="middle" x="855" y="-62" font-family="Helvetica,sans-Serif" font-size="10.00">MenuItem.hpp</text>
</a>
</g>
</g>
<!-- Node10&#45;&gt;Node11 -->
<g id="edge11" class="edge">
<title>Node10&#45;&gt;Node11</title>
<path fill="none" stroke="#63b8ff" d="M856.67,-109.75C856.43,-103.27 856.08,-94.16 855.77,-85.9"/>
<polygon fill="#63b8ff" stroke="#63b8ff" points="859.27,-85.82 855.39,-75.95 852.27,-86.08 859.27,-85.82"/>
</g>
<!-- Node12 -->
<g id="node12" class="node">
<title>Node12</title>
<g id="a_node12"><a xlink:title=" ">
<polygon fill="#e0e0e0" stroke="#999999" points="637.5,-19 596.5,-19 596.5,0 637.5,0 637.5,-19"/>
<text text-anchor="middle" x="617" y="-7" font-family="Helvetica,sans-Serif" font-size="10.00">string</text>
</a>
</g>
</g>
<!-- Node11&#45;&gt;Node12 -->
<g id="edge12" class="edge">
<title>Node11&#45;&gt;Node12</title>
<path fill="none" stroke="#63b8ff" d="M815.7,-54.75C769.02,-44.35 692.05,-27.21 648.89,-17.6"/>
<polygon fill="#63b8ff" stroke="#63b8ff" points="649.92,-14.24 639.4,-15.49 648.4,-21.08 649.92,-14.24"/>
</g>
<!-- Node11&#45;&gt;Node13 -->
<g id="edge13" class="edge">
<title>Node11&#45;&gt;Node13</title>
<path fill="none" stroke="#63b8ff" d="M860.45,-54.75C864.77,-47.81 870.96,-37.86 876.38,-29.16"/>
<polygon fill="#63b8ff" stroke="#63b8ff" points="879.32,-31.07 881.63,-20.73 873.38,-27.37 879.32,-31.07"/>
</g>
<!-- Node15&#45;&gt;Node3 -->
<g id="edge17" class="edge">
<title>Node15&#45;&gt;Node3</title>
<path fill="none" stroke="#63b8ff" d="M255.99,-225.12C237.98,-215.71 209.29,-200.72 188.15,-189.68"/>
<polygon fill="#63b8ff" stroke="#63b8ff" points="190,-186.7 179.51,-185.17 186.76,-192.9 190,-186.7"/>
</g>
<!-- Node15&#45;&gt;Node6 -->
<g id="edge19" class="edge">
<title>Node15&#45;&gt;Node6</title>
<path fill="none" stroke="#63b8ff" d="M268.28,-225.37C263.79,-217.16 256.89,-204.54 251.15,-194.05"/>
<polygon fill="#63b8ff" stroke="#63b8ff" points="254.34,-192.59 246.47,-185.5 248.2,-195.95 254.34,-192.59"/>
</g>
<!-- Node16 -->
<g id="node16" class="node">
<title>Node16</title>
<g id="a_node16"><a xlink:title=" ">
<polygon fill="#e0e0e0" stroke="#999999" points="497,-184 451,-184 451,-165 497,-165 497,-184"/>
<text text-anchor="middle" x="474" y="-172" font-family="Helvetica,sans-Serif" font-size="10.00">chrono</text>
</a>
</g>
</g>
<!-- Node15&#45;&gt;Node16 -->
<g id="edge18" class="edge">
<title>Node15&#45;&gt;Node16</title>
<path fill="none" stroke="#63b8ff" d="M303.53,-225.12C340.31,-214.41 401.92,-196.48 440.14,-185.36"/>
<polygon fill="#63b8ff" stroke="#63b8ff" points="440.65,-188.85 449.27,-182.7 438.69,-182.13 440.65,-188.85"/>
</g>
<!-- Node17&#45;&gt;Node4 -->
<g id="edge25" class="edge">
<title>Node17&#45;&gt;Node4</title>
<path fill="none" stroke="#63b8ff" d="M431.97,-219.72C428.01,-204.31 419.66,-179.98 404,-165 383.47,-145.36 353.21,-134.03 329.32,-127.73"/>
<polygon fill="#63b8ff" stroke="#63b8ff" points="330.19,-124.34 319.64,-125.38 328.54,-131.14 330.19,-124.34"/>
</g>
<!-- Node17&#45;&gt;Node6 -->
<g id="edge23" class="edge">
<title>Node17&#45;&gt;Node6</title>
<path fill="none" stroke="#63b8ff" d="M387.04,-219.54C354.57,-209.75 312.13,-196.95 281.38,-187.68"/>
<polygon fill="#63b8ff" stroke="#63b8ff" points="282.65,-184.41 272.07,-184.87 280.63,-191.11 282.65,-184.41"/>
</g>
<!-- Node17&#45;&gt;Node12 -->
<g id="edge26" class="edge">
<title>Node17&#45;&gt;Node12</title>
<path fill="none" stroke="#63b8ff" d="M460.16,-219.67C474.63,-210.64 492.56,-198.05 506,-184 552.87,-135 591.21,-63.39 607.94,-29.55"/>
<polygon fill="#63b8ff" stroke="#63b8ff" points="611.06,-31.15 612.27,-20.62 604.76,-28.09 611.06,-31.15"/>
</g>
<!-- Node18 -->
<g id="node18" class="node">
<title>Node18</title>
<g id="a_node18"><a xlink:title=" ">
<polygon fill="#e0e0e0" stroke="#999999" points="327,-184 289,-184 289,-165 327,-165 327,-184"/>
<text text-anchor="middle" x="308" y="-172" font-family="Helvetica,sans-Serif" font-size="10.00">array</text>
</a>
</g>
</g>
<!-- Node17&#45;&gt;Node18 -->
<g id="edge22" class="edge">
<title>Node17&#45;&gt;Node18</title>
<path fill="none" stroke="#63b8ff" d="M403.61,-219.54C383.4,-210.23 357.31,-198.22 337.49,-189.09"/>
<polygon fill="#63b8ff" stroke="#63b8ff" points="339.13,-185.98 328.58,-184.98 336.2,-192.34 339.13,-185.98"/>
</g>
<!-- Node19 -->
<g id="node19" class="node">
<title>Node19</title>
<g id="a_node19"><a xlink:title=" ">
<polygon fill="#e0e0e0" stroke="#999999" points="395,-184 345,-184 345,-165 395,-165 395,-184"/>
<text text-anchor="middle" x="370" y="-172" font-family="Helvetica,sans-Serif" font-size="10.00">optional</text>
</a>
</g>
</g>
<!-- Node17&#45;&gt;Node19 -->
<g id="edge24" class="edge">
<title>Node17&#45;&gt;Node19</title>
<path fill="none" stroke="#63b8ff" d="M418.93,-219.54C409.59,-211.13 397.78,-200.51 388.11,-191.8"/>
<polygon fill="#63b8ff" stroke="#63b8ff" points="390.54,-189.28 380.76,-185.19 385.86,-194.48 390.54,-189.28"/>
</g>
<!-- Node21&#45;&gt;Node12 -->
<g id="edge31" class="edge">
<title>Node21&#45;&gt;Node12</title>
<path fill="none" stroke="#63b8ff" d="M572.01,-225.18C580.07,-215.74 592.12,-199.96 598,-184 617.52,-131.04 618.69,-63.29 617.88,-30.32"/>
<polygon fill="#63b8ff" stroke="#63b8ff" points="621.39,-30.52 617.55,-20.65 614.4,-30.77 621.39,-30.52"/>
</g>
<!-- Node21&#45;&gt;Node16 -->
<g id="edge29" class="edge">
<title>Node21&#45;&gt;Node16</title>
<path fill="none" stroke="#63b8ff" d="M550.33,-225.12C536.19,-215.92 513.86,-201.41 496.99,-190.44"/>
<polygon fill="#63b8ff" stroke="#63b8ff" points="499.36,-187.81 489.07,-185.29 495.54,-193.68 499.36,-187.81"/>
</g>
<!-- Node22 -->
<g id="node22" class="node">
<title>Node22</title>
<g id="a_node22"><a xlink:title=" ">
<polygon fill="#e0e0e0" stroke="#999999" points="588.5,-184 553.5,-184 553.5,-165 588.5,-165 588.5,-184"/>
<text text-anchor="middle" x="571" y="-172" font-family="Helvetica,sans-Serif" font-size="10.00">map</text>
</a>
</g>
</g>
<!-- Node21&#45;&gt;Node22 -->
<g id="edge30" class="edge">
<title>Node21&#45;&gt;Node22</title>
<path fill="none" stroke="#63b8ff" d="M565.03,-225.37C565.97,-217.5 567.4,-205.6 568.62,-195.39"/>
<polygon fill="#63b8ff" stroke="#63b8ff" points="572.07,-196.02 569.78,-185.67 565.12,-195.18 572.07,-196.02"/>
</g>
<!-- Node24 -->
<g id="node24" class="node">
<title>Node24</title>
<g id="a_node24"><a xlink:title=" ">
<polygon fill="#e0e0e0" stroke="#999999" points="1012,-184 950,-184 950,-165 1012,-165 1012,-184"/>
<text text-anchor="middle" x="981" y="-172" font-family="Helvetica,sans-Serif" font-size="10.00">type_traits</text>
</a>
</g>
</g>
<!-- Node23&#45;&gt;Node24 -->
<g id="edge33" class="edge">
<title>Node23&#45;&gt;Node24</title>
<path fill="none" stroke="#63b8ff" d="M957.13,-225.37C961.02,-217.25 966.97,-204.81 971.96,-194.39"/>
<polygon fill="#63b8ff" stroke="#63b8ff" points="975.04,-196.06 976.2,-185.53 968.72,-193.04 975.04,-196.06"/>
</g>
</g>
</svg>
