<?xml version="1.0" encoding="UTF-8" standalone="no"?>
<!DOCTYPE svg PUBLIC "-//W3C//DTD SVG 1.1//EN"
 "http://www.w3.org/Graphics/SVG/1.1/DTD/svg11.dtd">
<!-- Generated by graphviz version 7.0.5 (20221223.1930)
 -->
<!-- Title: lib/board_adapters/sound_output_interface/sound_output.hpp Pages: 1 -->
<svg width="244pt" height="126pt"
 viewBox="0.00 0.00 243.50 126.00" xmlns="http://www.w3.org/2000/svg" xmlns:xlink="http://www.w3.org/1999/xlink">
<g id="graph0" class="graph" transform="scale(1 1) rotate(0) translate(4 122)">
<title>lib/board_adapters/sound_output_interface/sound_output.hpp</title>
<!-- Node1 -->
<g id="node1" class="node">
<title>Node1</title>
<g id="a_node1"><a xlink:title=" ">
<polygon fill="#999999" stroke="#666666" points="171.5,-118 50.5,-118 50.5,-77 171.5,-77 171.5,-118"/>
<text text-anchor="start" x="58.5" y="-106" font-family="Helvetica,sans-Serif" font-size="10.00">lib/board_adapters</text>
<text text-anchor="start" x="58.5" y="-95" font-family="Helvetica,sans-Serif" font-size="10.00">/sound_output_interface</text>
<text text-anchor="middle" x="111" y="-84" font-family="Helvetica,sans-Serif" font-size="10.00">/sound_output.hpp</text>
</a>
</g>
</g>
<!-- Node2 -->
<g id="node2" class="node">
<title>Node2</title>
<g id="a_node2"><a xlink:href="board_8cpp.xhtml" target="_top" xlink:title=" ">
<polygon fill="white" stroke="#666666" points="96,-35.5 0,-35.5 0,-5.5 96,-5.5 96,-35.5"/>
<text text-anchor="start" x="8" y="-23.5" font-family="Helvetica,sans-Serif" font-size="10.00">lib/board_adapters</text>
<text text-anchor="middle" x="48" y="-12.5" font-family="Helvetica,sans-Serif" font-size="10.00">/board.cpp</text>
</a>
</g>
</g>
<!-- Node1&#45;&gt;Node2 -->
<g id="edge1" class="edge">
<title>Node1&#45;&gt;Node2</title>
<path fill="none" stroke="#63b8ff" d="M87.28,-68.26C78,-57.21 67.76,-45.02 60.06,-35.86"/>
<polygon fill="#63b8ff" stroke="#63b8ff" points="84.36,-70.23 93.47,-75.64 89.72,-65.73 84.36,-70.23"/>
</g>
<!-- Node3 -->
<g id="node3" class="node">
<title>Node3</title>
<g id="a_node3"><a xlink:href="sound__output_8cpp.xhtml" target="_top" xlink:title=" ">
<polygon fill="white" stroke="#666666" points="235.5,-41 114.5,-41 114.5,0 235.5,0 235.5,-41"/>
<text text-anchor="start" x="122.5" y="-29" font-family="Helvetica,sans-Serif" font-size="10.00">lib/board_adapters</text>
<text text-anchor="start" x="122.5" y="-18" font-family="Helvetica,sans-Serif" font-size="10.00">/sound_output_interface</text>
<text text-anchor="middle" x="175" y="-7" font-family="Helvetica,sans-Serif" font-size="10.00">/sound_output.cpp</text>
</a>
</g>
</g>
<!-- Node1&#45;&gt;Node3 -->
<g id="edge2" class="edge">
<title>Node1&#45;&gt;Node3</title>
<path fill="none" stroke="#63b8ff" d="M135.17,-68.18C142.8,-59.24 151.06,-49.55 158.07,-41.33"/>
<polygon fill="#63b8ff" stroke="#63b8ff" points="132.63,-65.76 128.8,-75.64 137.95,-70.31 132.63,-65.76"/>
</g>
</g>
</svg>
