<?xml version="1.0" encoding="UTF-8" standalone="no"?>
<!DOCTYPE svg PUBLIC "-//W3C//DTD SVG 1.1//EN"
 "http://www.w3.org/Graphics/SVG/1.1/DTD/svg11.dtd">
<!-- Generated by graphviz version 7.0.5 (20221223.1930)
 -->
<!-- Title: MenuItemValue Pages: 1 -->
<svg width="372pt" height="258pt"
 viewBox="0.00 0.00 371.50 258.00" xmlns="http://www.w3.org/2000/svg" xmlns:xlink="http://www.w3.org/1999/xlink">
<g id="graph0" class="graph" transform="scale(1 1) rotate(0) translate(4 254)">
<title>MenuItemValue</title>
<!-- Node1 -->
<g id="node1" class="node">
<title>Node1</title>
<g id="a_node1"><a xlink:title=" ">
<polygon fill="#999999" stroke="#666666" points="238.5,-118 134.5,-118 134.5,0 238.5,0 238.5,-118"/>
<text text-anchor="middle" x="186.5" y="-106" font-family="Helvetica,sans-Serif" font-size="10.00">{MenuItemValue</text>
<text text-anchor="start" x="142.5" y="-95" font-family="Helvetica,sans-Serif" font-size="10.00">||+ MenuItemValue()</text>
<text text-anchor="start" x="142.5" y="-84" font-family="Helvetica,sans-Serif" font-size="10.00">+ ~MenuItemValue()</text>
<text text-anchor="start" x="142.5" y="-73" font-family="Helvetica,sans-Serif" font-size="10.00">+ getText()</text>
<text text-anchor="start" x="142.5" y="-62" font-family="Helvetica,sans-Serif" font-size="10.00">+ getType()</text>
<text text-anchor="start" x="142.5" y="-51" font-family="Helvetica,sans-Serif" font-size="10.00">+ getPtrDouble()</text>
<text text-anchor="start" x="142.5" y="-40" font-family="Helvetica,sans-Serif" font-size="10.00">+ getDecimals()</text>
<text text-anchor="start" x="142.5" y="-29" font-family="Helvetica,sans-Serif" font-size="10.00">+ getMin()</text>
<text text-anchor="start" x="142.5" y="-18" font-family="Helvetica,sans-Serif" font-size="10.00">+ getMax()</text>
<text text-anchor="middle" x="186.5" y="-7" font-family="Helvetica,sans-Serif" font-size="10.00">}</text>
</a>
</g>
</g>
<!-- Node2 -->
<g id="node2" class="node">
<title>Node2</title>
<g id="a_node2"><a xlink:href="classIMenuItem.xhtml" target="_top" xlink:title=" ">
<polygon fill="white" stroke="#666666" points="83,-250 0,-250 0,-176 83,-176 83,-250"/>
<text text-anchor="middle" x="41.5" y="-238" font-family="Helvetica,sans-Serif" font-size="10.00">{IMenuItem</text>
<text text-anchor="start" x="8" y="-227" font-family="Helvetica,sans-Serif" font-size="10.00">||+ IMenuItem()</text>
<text text-anchor="start" x="8" y="-216" font-family="Helvetica,sans-Serif" font-size="10.00">+ ~IMenuItem()</text>
<text text-anchor="start" x="8" y="-205" font-family="Helvetica,sans-Serif" font-size="10.00">+ getText()</text>
<text text-anchor="start" x="8" y="-194" font-family="Helvetica,sans-Serif" font-size="10.00">+ getType()</text>
<text text-anchor="middle" x="41.5" y="-183" font-family="Helvetica,sans-Serif" font-size="10.00">}</text>
</a>
</g>
</g>
<!-- Node2&#45;&gt;Node1 -->
<g id="edge1" class="edge">
<title>Node2&#45;&gt;Node1</title>
<path fill="none" stroke="#63b8ff" d="M83.77,-167.69C99.54,-151.16 117.63,-132.2 134.19,-114.83"/>
<polygon fill="none" stroke="#63b8ff" points="81.65,-164.85 77.28,-174.5 86.71,-169.68 81.65,-164.85"/>
</g>
<!-- Node3 -->
<g id="node3" class="node">
<title>Node3</title>
<g id="a_node3"><a xlink:title=" ">
<polygon fill="white" stroke="#666666" points="145.5,-228 101.5,-228 101.5,-198 145.5,-198 145.5,-228"/>
<text text-anchor="middle" x="123.5" y="-216" font-family="Helvetica,sans-Serif" font-size="10.00">{string</text>
<text text-anchor="middle" x="123.5" y="-205" font-family="Helvetica,sans-Serif" font-size="10.00">||}</text>
</a>
</g>
</g>
<!-- Node3&#45;&gt;Node1 -->
<g id="edge2" class="edge">
<title>Node3&#45;&gt;Node1</title>
<path fill="none" stroke="#404040" d="M129,-197.65C134.91,-182.33 144.65,-157.36 153.5,-136 154.28,-134.12 155.07,-132.23 155.87,-130.31"/>
<polygon fill="none" stroke="#404040" points="155.87,-130.3 154.53,-123.22 160.55,-119.25 161.89,-126.33 155.87,-130.3"/>
<text text-anchor="middle" x="168" y="-144.5" font-family="Helvetica,sans-Serif" font-size="10.00"> #_text</text>
</g>
<!-- Node4 -->
<g id="node4" class="node">
<title>Node4</title>
<g id="a_node4"><a xlink:title=" ">
<polygon fill="white" stroke="#666666" points="217.5,-228 163.5,-228 163.5,-198 217.5,-198 217.5,-228"/>
<text text-anchor="middle" x="190.5" y="-216" font-family="Helvetica,sans-Serif" font-size="10.00">{double *</text>
<text text-anchor="middle" x="190.5" y="-205" font-family="Helvetica,sans-Serif" font-size="10.00">||}</text>
</a>
</g>
</g>
<!-- Node4&#45;&gt;Node1 -->
<g id="edge3" class="edge">
<title>Node4&#45;&gt;Node1</title>
<path fill="none" stroke="#404040" d="M189.53,-197.8C188.84,-186.91 187.94,-171.51 187.5,-158 187.22,-149.37 187.01,-140.32 186.85,-131.34"/>
<polygon fill="none" stroke="#404040" points="186.85,-131.21 182.76,-125.27 186.67,-119.21 190.76,-125.15 186.85,-131.21"/>
<text text-anchor="middle" x="215" y="-144.5" font-family="Helvetica,sans-Serif" font-size="10.00"> #_ptrDouble</text>
</g>
<!-- Node5 -->
<g id="node5" class="node">
<title>Node5</title>
<g id="a_node5"><a xlink:title=" ">
<polygon fill="white" stroke="#666666" points="289,-228 240,-228 240,-198 289,-198 289,-228"/>
<text text-anchor="middle" x="264.5" y="-216" font-family="Helvetica,sans-Serif" font-size="10.00">{uint8_t</text>
<text text-anchor="middle" x="264.5" y="-205" font-family="Helvetica,sans-Serif" font-size="10.00">||}</text>
</a>
</g>
</g>
<!-- Node5&#45;&gt;Node1 -->
<g id="edge4" class="edge">
<title>Node5&#45;&gt;Node1</title>
<path fill="none" stroke="#404040" d="M261.94,-197.72C258.77,-182.02 252.53,-156.32 242.5,-136 241.46,-133.89 240.36,-131.77 239.2,-129.66"/>
<polygon fill="none" stroke="#404040" points="239.16,-129.58 232.67,-126.43 233.09,-119.23 239.57,-122.39 239.16,-129.58"/>
<text text-anchor="middle" x="276.5" y="-144.5" font-family="Helvetica,sans-Serif" font-size="10.00"> #_decimals</text>
</g>
<!-- Node6 -->
<g id="node6" class="node">
<title>Node6</title>
<g id="a_node6"><a xlink:title=" ">
<polygon fill="white" stroke="#666666" points="363.5,-228 315.5,-228 315.5,-198 363.5,-198 363.5,-228"/>
<text text-anchor="middle" x="339.5" y="-216" font-family="Helvetica,sans-Serif" font-size="10.00">{double</text>
<text text-anchor="middle" x="339.5" y="-205" font-family="Helvetica,sans-Serif" font-size="10.00">||}</text>
</a>
</g>
</g>
<!-- Node6&#45;&gt;Node1 -->
<g id="edge5" class="edge">
<title>Node6&#45;&gt;Node1</title>
<path fill="none" stroke="#404040" d="M336.05,-197.74C331.52,-181.35 322.21,-154.36 306.5,-136 291.01,-117.91 270.13,-102.65 250.13,-90.66"/>
<polygon fill="none" stroke="#404040" points="250.01,-90.59 242.82,-91.07 239.61,-84.61 246.8,-84.13 250.01,-90.59"/>
<text text-anchor="middle" x="335" y="-150" font-family="Helvetica,sans-Serif" font-size="10.00"> #_max</text>
<text text-anchor="middle" x="335" y="-139" font-family="Helvetica,sans-Serif" font-size="10.00">#_min</text>
</g>
</g>
</svg>
