<?xml version="1.0" encoding="UTF-8" standalone="no"?>
<!DOCTYPE svg PUBLIC "-//W3C//DTD SVG 1.1//EN"
 "http://www.w3.org/Graphics/SVG/1.1/DTD/svg11.dtd">
<!-- Generated by graphviz version 7.0.5 (20221223.1930)
 -->
<!-- Title: src/main.cpp Pages: 1 -->
<svg width="554pt" height="192pt"
 viewBox="0.00 0.00 554.00 192.00" xmlns="http://www.w3.org/2000/svg" xmlns:xlink="http://www.w3.org/1999/xlink">
<g id="graph0" class="graph" transform="scale(1 1) rotate(0) translate(4 188)">
<title>src/main.cpp</title>
<!-- Node1 -->
<g id="node1" class="node">
<title>Node1</title>
<g id="a_node1"><a xlink:title=" ">
<polygon fill="#999999" stroke="#666666" points="338,-184 266,-184 266,-165 338,-165 338,-184"/>
<text text-anchor="middle" x="302" y="-172" font-family="Helvetica,sans-Serif" font-size="10.00">src/main.cpp</text>
</a>
</g>
</g>
<!-- Node2 -->
<g id="node2" class="node">
<title>Node2</title>
<g id="a_node2"><a xlink:href="main_8hpp.xhtml" target="_top" xlink:title=" ">
<polygon fill="white" stroke="#666666" points="56,-129 0,-129 0,-110 56,-110 56,-129"/>
<text text-anchor="middle" x="28" y="-117" font-family="Helvetica,sans-Serif" font-size="10.00">main.hpp</text>
</a>
</g>
</g>
<!-- Node1&#45;&gt;Node2 -->
<g id="edge1" class="edge">
<title>Node1&#45;&gt;Node2</title>
<path fill="none" stroke="#63b8ff" d="M265.77,-167.17C221.39,-159.3 143.63,-145.2 67.48,-129.45"/>
<polygon fill="#63b8ff" stroke="#63b8ff" points="68.24,-126.03 57.74,-127.42 66.82,-132.89 68.24,-126.03"/>
</g>
<!-- Node3 -->
<g id="node3" class="node">
<title>Node3</title>
<g id="a_node3"><a xlink:href="SerialInputHandler_8hpp.xhtml" target="_top" xlink:title=" ">
<polygon fill="white" stroke="#666666" points="189.5,-129 74.5,-129 74.5,-110 189.5,-110 189.5,-129"/>
<text text-anchor="middle" x="132" y="-117" font-family="Helvetica,sans-Serif" font-size="10.00">SerialInputHandler.hpp</text>
</a>
</g>
</g>
<!-- Node1&#45;&gt;Node3 -->
<g id="edge2" class="edge">
<title>Node1&#45;&gt;Node3</title>
<path fill="none" stroke="#63b8ff" d="M273.16,-164.51C245.24,-155.8 202.67,-142.53 171.58,-132.84"/>
<polygon fill="#63b8ff" stroke="#63b8ff" points="172.73,-129.53 162.14,-129.9 170.65,-136.21 172.73,-129.53"/>
</g>
<!-- Node6 -->
<g id="node6" class="node">
<title>Node6</title>
<g id="a_node6"><a xlink:href="board__pins_8hpp.xhtml" target="_top" xlink:title="Provides named objects for the pins provided by the board.">
<polygon fill="white" stroke="#666666" points="343,-129 261,-129 261,-110 343,-110 343,-129"/>
<text text-anchor="middle" x="302" y="-117" font-family="Helvetica,sans-Serif" font-size="10.00">board_pins.hpp</text>
</a>
</g>
</g>
<!-- Node1&#45;&gt;Node6 -->
<g id="edge5" class="edge">
<title>Node1&#45;&gt;Node6</title>
<path fill="none" stroke="#63b8ff" d="M302,-164.75C302,-158.27 302,-149.16 302,-140.9"/>
<polygon fill="#63b8ff" stroke="#63b8ff" points="305.5,-140.96 302,-130.96 298.5,-140.96 305.5,-140.96"/>
</g>
<!-- Node8 -->
<g id="node8" class="node">
<title>Node8</title>
<g id="a_node8"><a xlink:title=" ">
<polygon fill="#e0e0e0" stroke="#999999" points="249.5,-19 192.5,-19 192.5,0 249.5,0 249.5,-19"/>
<text text-anchor="middle" x="221" y="-7" font-family="Helvetica,sans-Serif" font-size="10.00">Arduino.h</text>
</a>
</g>
</g>
<!-- Node1&#45;&gt;Node8 -->
<g id="edge14" class="edge">
<title>Node1&#45;&gt;Node8</title>
<path fill="none" stroke="#63b8ff" d="M288.11,-164.55C276.77,-156.55 261.18,-143.82 252,-129 232.73,-97.91 225.36,-55.1 222.6,-30.35"/>
<polygon fill="#63b8ff" stroke="#63b8ff" points="226.11,-30.35 221.68,-20.73 219.14,-31.01 226.11,-30.35"/>
</g>
<!-- Node9 -->
<g id="node9" class="node">
<title>Node9</title>
<g id="a_node9"><a xlink:title=" ">
<polygon fill="#e0e0e0" stroke="#999999" points="409,-19 363,-19 363,0 409,0 409,-19"/>
<text text-anchor="middle" x="386" y="-7" font-family="Helvetica,sans-Serif" font-size="10.00">cstdint</text>
</a>
</g>
</g>
<!-- Node1&#45;&gt;Node9 -->
<g id="edge15" class="edge">
<title>Node1&#45;&gt;Node9</title>
<path fill="none" stroke="#63b8ff" d="M315.84,-164.52C327.15,-156.5 342.72,-143.75 352,-129 371.6,-97.84 380.21,-55.05 383.75,-30.33"/>
<polygon fill="#63b8ff" stroke="#63b8ff" points="387.19,-31.07 384.98,-20.71 380.24,-30.19 387.19,-31.07"/>
</g>
<!-- Node11 -->
<g id="node11" class="node">
<title>Node11</title>
<g id="a_node11"><a xlink:href="display_8h.xhtml" target="_top" xlink:title=" ">
<polygon fill="white" stroke="#666666" points="468,-129 414,-129 414,-110 468,-110 468,-129"/>
<text text-anchor="middle" x="441" y="-117" font-family="Helvetica,sans-Serif" font-size="10.00">display.h</text>
</a>
</g>
</g>
<!-- Node1&#45;&gt;Node11 -->
<g id="edge10" class="edge">
<title>Node1&#45;&gt;Node11</title>
<path fill="none" stroke="#63b8ff" d="M325.58,-164.51C347.98,-155.97 381.9,-143.03 407.18,-133.4"/>
<polygon fill="#63b8ff" stroke="#63b8ff" points="408.26,-136.73 416.35,-129.9 405.76,-130.19 408.26,-136.73"/>
</g>
<!-- Node13 -->
<g id="node13" class="node">
<title>Node13</title>
<g id="a_node13"><a xlink:href="pitches_8hpp.xhtml" target="_top" xlink:title=" ">
<polygon fill="white" stroke="#666666" points="546,-74 480,-74 480,-55 546,-55 546,-74"/>
<text text-anchor="middle" x="513" y="-62" font-family="Helvetica,sans-Serif" font-size="10.00">pitches.hpp</text>
</a>
</g>
</g>
<!-- Node1&#45;&gt;Node13 -->
<g id="edge12" class="edge">
<title>Node1&#45;&gt;Node13</title>
<path fill="none" stroke="#63b8ff" d="M338.43,-172.42C376.54,-169.57 436.38,-160.01 477,-129 491.48,-117.95 501.05,-99.28 506.66,-85.04"/>
<polygon fill="#63b8ff" stroke="#63b8ff" points="509.89,-86.41 509.95,-75.81 503.29,-84.06 509.89,-86.41"/>
</g>
<!-- Node4 -->
<g id="node4" class="node">
<title>Node4</title>
<g id="a_node4"><a xlink:title=" ">
<polygon fill="#e0e0e0" stroke="#999999" points="112.5,-74 69.5,-74 69.5,-55 112.5,-55 112.5,-74"/>
<text text-anchor="middle" x="91" y="-62" font-family="Helvetica,sans-Serif" font-size="10.00">queue</text>
</a>
</g>
</g>
<!-- Node3&#45;&gt;Node4 -->
<g id="edge3" class="edge">
<title>Node3&#45;&gt;Node4</title>
<path fill="none" stroke="#63b8ff" d="M125.23,-109.75C119.68,-102.58 111.66,-92.2 104.77,-83.3"/>
<polygon fill="#63b8ff" stroke="#63b8ff" points="107.73,-81.41 98.84,-75.64 102.19,-85.69 107.73,-81.41"/>
</g>
<!-- Node5 -->
<g id="node5" class="node">
<title>Node5</title>
<g id="a_node5"><a xlink:title=" ">
<polygon fill="#e0e0e0" stroke="#999999" points="171.5,-74 130.5,-74 130.5,-55 171.5,-55 171.5,-74"/>
<text text-anchor="middle" x="151" y="-62" font-family="Helvetica,sans-Serif" font-size="10.00">string</text>
</a>
</g>
</g>
<!-- Node3&#45;&gt;Node5 -->
<g id="edge4" class="edge">
<title>Node3&#45;&gt;Node5</title>
<path fill="none" stroke="#63b8ff" d="M135.14,-109.75C137.54,-103.04 140.96,-93.52 144,-85.02"/>
<polygon fill="#63b8ff" stroke="#63b8ff" points="147.2,-86.46 147.28,-75.87 140.61,-84.1 147.2,-86.46"/>
</g>
<!-- Node7 -->
<g id="node7" class="node">
<title>Node7</title>
<g id="a_node7"><a xlink:href="framework__config_8hpp.xhtml" target="_top" xlink:title="Provides defintions which are specific for the used framework.">
<polygon fill="white" stroke="#666666" points="357.5,-74 246.5,-74 246.5,-55 357.5,-55 357.5,-74"/>
<text text-anchor="middle" x="302" y="-62" font-family="Helvetica,sans-Serif" font-size="10.00">framework_config.hpp</text>
</a>
</g>
</g>
<!-- Node6&#45;&gt;Node7 -->
<g id="edge6" class="edge">
<title>Node6&#45;&gt;Node7</title>
<path fill="none" stroke="#63b8ff" d="M302,-109.75C302,-103.27 302,-94.16 302,-85.9"/>
<polygon fill="#63b8ff" stroke="#63b8ff" points="305.5,-85.96 302,-75.96 298.5,-85.96 305.5,-85.96"/>
</g>
<!-- Node7&#45;&gt;Node8 -->
<g id="edge7" class="edge">
<title>Node7&#45;&gt;Node8</title>
<path fill="none" stroke="#63b8ff" d="M288.26,-54.51C276.2,-46.62 258.41,-34.98 244.16,-25.65"/>
<polygon fill="#63b8ff" stroke="#63b8ff" points="246.09,-22.73 235.8,-20.19 242.26,-28.59 246.09,-22.73"/>
</g>
<!-- Node7&#45;&gt;Node9 -->
<g id="edge8" class="edge">
<title>Node7&#45;&gt;Node9</title>
<path fill="none" stroke="#63b8ff" d="M316.25,-54.51C328.88,-46.54 347.56,-34.75 362.41,-25.38"/>
<polygon fill="#63b8ff" stroke="#63b8ff" points="364.09,-28.46 370.68,-20.17 360.36,-22.54 364.09,-28.46"/>
</g>
<!-- Node10 -->
<g id="node10" class="node">
<title>Node10</title>
<g id="a_node10"><a xlink:title=" ">
<polygon fill="#e0e0e0" stroke="#999999" points="333,-19 271,-19 271,0 333,0 333,-19"/>
<text text-anchor="middle" x="302" y="-7" font-family="Helvetica,sans-Serif" font-size="10.00">type_traits</text>
</a>
</g>
</g>
<!-- Node7&#45;&gt;Node10 -->
<g id="edge9" class="edge">
<title>Node7&#45;&gt;Node10</title>
<path fill="none" stroke="#63b8ff" d="M302,-54.75C302,-48.27 302,-39.16 302,-30.9"/>
<polygon fill="#63b8ff" stroke="#63b8ff" points="305.5,-30.96 302,-20.96 298.5,-30.96 305.5,-30.96"/>
</g>
<!-- Node12 -->
<g id="node12" class="node">
<title>Node12</title>
<g id="a_node12"><a xlink:title=" ">
<polygon fill="#e0e0e0" stroke="#999999" points="462,-74 414,-74 414,-55 462,-55 462,-74"/>
<text text-anchor="middle" x="438" y="-62" font-family="Helvetica,sans-Serif" font-size="10.00">stdint.h</text>
</a>
</g>
</g>
<!-- Node11&#45;&gt;Node12 -->
<g id="edge11" class="edge">
<title>Node11&#45;&gt;Node12</title>
<path fill="none" stroke="#63b8ff" d="M440.5,-109.75C440.14,-103.27 439.62,-94.16 439.15,-85.9"/>
<polygon fill="#63b8ff" stroke="#63b8ff" points="442.65,-85.74 438.59,-75.95 435.66,-86.13 442.65,-85.74"/>
</g>
<!-- Node13&#45;&gt;Node9 -->
<g id="edge13" class="edge">
<title>Node13&#45;&gt;Node9</title>
<path fill="none" stroke="#63b8ff" d="M491.46,-54.51C471.26,-46.08 440.83,-33.38 417.84,-23.79"/>
<polygon fill="#63b8ff" stroke="#63b8ff" points="419.2,-20.56 408.62,-19.94 416.5,-27.02 419.2,-20.56"/>
</g>
</g>
</svg>
