<?xml version="1.0" encoding="UTF-8" standalone="no"?>
<!DOCTYPE svg PUBLIC "-//W3C//DTD SVG 1.1//EN"
 "http://www.w3.org/Graphics/SVG/1.1/DTD/svg11.dtd">
<!-- Generated by graphviz version 7.0.5 (20221223.1930)
 -->
<!-- Title: tasktrackersystems::valueTooHighException Pages: 1 -->
<svg width="188pt" height="214pt"
 viewBox="0.00 0.00 188.00 214.00" xmlns="http://www.w3.org/2000/svg" xmlns:xlink="http://www.w3.org/1999/xlink">
<g id="graph0" class="graph" transform="scale(1 1) rotate(0) translate(4 210)">
<title>tasktrackersystems::valueTooHighException</title>
<!-- Node1 -->
<g id="node1" class="node">
<title>Node1</title>
<g id="a_node1"><a xlink:title=" ">
<polygon fill="#999999" stroke="#666666" points="158.5,-52 21.5,-52 21.5,0 158.5,0 158.5,-52"/>
<text text-anchor="start" x="29.5" y="-40" font-family="Helvetica,sans-Serif" font-size="10.00">{tasktrackersystems</text>
<text text-anchor="middle" x="90" y="-29" font-family="Helvetica,sans-Serif" font-size="10.00">::valueTooHighException</text>
<text text-anchor="start" x="29.5" y="-18" font-family="Helvetica,sans-Serif" font-size="10.00">||+ valueTooHighException()</text>
<text text-anchor="middle" x="90" y="-7" font-family="Helvetica,sans-Serif" font-size="10.00">}</text>
</a>
</g>
</g>
<!-- Node2 -->
<g id="node2" class="node">
<title>Node2</title>
<g id="a_node2"><a xlink:href="classtasktrackersystems_1_1classMemberConstraintException.xhtml" target="_top" xlink:title=" ">
<polygon fill="white" stroke="#666666" points="180,-140 0,-140 0,-88 180,-88 180,-140"/>
<text text-anchor="start" x="8" y="-128" font-family="Helvetica,sans-Serif" font-size="10.00">{tasktrackersystems</text>
<text text-anchor="middle" x="90" y="-117" font-family="Helvetica,sans-Serif" font-size="10.00">::classMemberConstraintException</text>
<text text-anchor="start" x="8" y="-106" font-family="Helvetica,sans-Serif" font-size="10.00">||+ classMemberConstraintException()</text>
<text text-anchor="middle" x="90" y="-95" font-family="Helvetica,sans-Serif" font-size="10.00">}</text>
</a>
</g>
</g>
<!-- Node2&#45;&gt;Node1 -->
<g id="edge1" class="edge">
<title>Node2&#45;&gt;Node1</title>
<path fill="none" stroke="#63b8ff" d="M90,-76.26C90,-68.24 90,-59.92 90,-52.45"/>
<polygon fill="none" stroke="#63b8ff" points="86.5,-76.15 90,-86.15 93.5,-76.15 86.5,-76.15"/>
</g>
<!-- Node3 -->
<g id="node3" class="node">
<title>Node3</title>
<g id="a_node3"><a xlink:title=" ">
<polygon fill="white" stroke="#666666" points="137.5,-206 42.5,-206 42.5,-176 137.5,-176 137.5,-206"/>
<text text-anchor="middle" x="90" y="-194" font-family="Helvetica,sans-Serif" font-size="10.00">{std::runtime_error</text>
<text text-anchor="middle" x="90" y="-183" font-family="Helvetica,sans-Serif" font-size="10.00">||}</text>
</a>
</g>
</g>
<!-- Node3&#45;&gt;Node2 -->
<g id="edge2" class="edge">
<title>Node3&#45;&gt;Node2</title>
<path fill="none" stroke="#63b8ff" d="M90,-164.23C90,-156.51 90,-148.05 90,-140.35"/>
<polygon fill="none" stroke="#63b8ff" points="86.5,-164.03 90,-174.03 93.5,-164.03 86.5,-164.03"/>
</g>
</g>
</svg>
