<?xml version="1.0" encoding="UTF-8" standalone="no"?>
<!DOCTYPE svg PUBLIC "-//W3C//DTD SVG 1.1//EN"
 "http://www.w3.org/Graphics/SVG/1.1/DTD/svg11.dtd">
<!-- Generated by graphviz version 7.0.5 (20221223.1930)
 -->
<!-- Title: tasktrackersystems::classMemberConstraintException Pages: 1 -->
<svg width="770pt" height="214pt"
 viewBox="0.00 0.00 769.50 214.00" xmlns="http://www.w3.org/2000/svg" xmlns:xlink="http://www.w3.org/1999/xlink">
<g id="graph0" class="graph" transform="scale(1 1) rotate(0) translate(4 210)">
<title>tasktrackersystems::classMemberConstraintException</title>
<!-- Node1 -->
<g id="node1" class="node">
<title>Node1</title>
<g id="a_node1"><a xlink:title=" ">
<polygon fill="#999999" stroke="#666666" points="469.5,-140 289.5,-140 289.5,-88 469.5,-88 469.5,-140"/>
<text text-anchor="start" x="297.5" y="-128" font-family="Helvetica,sans-Serif" font-size="10.00">{tasktrackersystems</text>
<text text-anchor="middle" x="379.5" y="-117" font-family="Helvetica,sans-Serif" font-size="10.00">::classMemberConstraintException</text>
<text text-anchor="start" x="297.5" y="-106" font-family="Helvetica,sans-Serif" font-size="10.00">||+ classMemberConstraintException()</text>
<text text-anchor="middle" x="379.5" y="-95" font-family="Helvetica,sans-Serif" font-size="10.00">}</text>
</a>
</g>
</g>
<!-- Node3 -->
<g id="node3" class="node">
<title>Node3</title>
<g id="a_node3"><a xlink:href="classtasktrackersystems_1_1invalidPatternException.xhtml" target="_top" xlink:title=" ">
<polygon fill="white" stroke="#666666" points="137,-52 0,-52 0,0 137,0 137,-52"/>
<text text-anchor="start" x="8" y="-40" font-family="Helvetica,sans-Serif" font-size="10.00">{tasktrackersystems</text>
<text text-anchor="middle" x="68.5" y="-29" font-family="Helvetica,sans-Serif" font-size="10.00">::invalidPatternException</text>
<text text-anchor="start" x="8" y="-18" font-family="Helvetica,sans-Serif" font-size="10.00">||+ invalidPatternException()</text>
<text text-anchor="middle" x="68.5" y="-7" font-family="Helvetica,sans-Serif" font-size="10.00">}</text>
</a>
</g>
</g>
<!-- Node1&#45;&gt;Node3 -->
<g id="edge2" class="edge">
<title>Node1&#45;&gt;Node3</title>
<path fill="none" stroke="#63b8ff" d="M278.25,-87.99C236.93,-77.43 188.78,-64.65 145.5,-52 142.8,-51.21 140.06,-50.39 137.28,-49.55"/>
<polygon fill="none" stroke="#63b8ff" points="277.13,-91.32 287.69,-90.4 278.86,-84.54 277.13,-91.32"/>
</g>
<!-- Node4 -->
<g id="node4" class="node">
<title>Node4</title>
<g id="a_node4"><a xlink:href="classtasktrackersystems_1_1valueTooHighException.xhtml" target="_top" xlink:title=" ">
<polygon fill="white" stroke="#666666" points="292,-52 155,-52 155,0 292,0 292,-52"/>
<text text-anchor="start" x="163" y="-40" font-family="Helvetica,sans-Serif" font-size="10.00">{tasktrackersystems</text>
<text text-anchor="middle" x="223.5" y="-29" font-family="Helvetica,sans-Serif" font-size="10.00">::valueTooHighException</text>
<text text-anchor="start" x="163" y="-18" font-family="Helvetica,sans-Serif" font-size="10.00">||+ valueTooHighException()</text>
<text text-anchor="middle" x="223.5" y="-7" font-family="Helvetica,sans-Serif" font-size="10.00">}</text>
</a>
</g>
</g>
<!-- Node1&#45;&gt;Node4 -->
<g id="edge3" class="edge">
<title>Node1&#45;&gt;Node4</title>
<path fill="none" stroke="#63b8ff" d="M323.88,-82.34C306.12,-72.55 286.68,-61.83 269.67,-52.45"/>
<polygon fill="none" stroke="#63b8ff" points="321.77,-85.17 332.21,-86.93 325.15,-79.04 321.77,-85.17"/>
</g>
<!-- Node5 -->
<g id="node5" class="node">
<title>Node5</title>
<g id="a_node5"><a xlink:href="classtasktrackersystems_1_1valueTooLongException.xhtml" target="_top" xlink:title=" ">
<polygon fill="white" stroke="#666666" points="449,-52 310,-52 310,0 449,0 449,-52"/>
<text text-anchor="start" x="318" y="-40" font-family="Helvetica,sans-Serif" font-size="10.00">{tasktrackersystems</text>
<text text-anchor="middle" x="379.5" y="-29" font-family="Helvetica,sans-Serif" font-size="10.00">::valueTooLongException</text>
<text text-anchor="start" x="318" y="-18" font-family="Helvetica,sans-Serif" font-size="10.00">||+ valueTooLongException()</text>
<text text-anchor="middle" x="379.5" y="-7" font-family="Helvetica,sans-Serif" font-size="10.00">}</text>
</a>
</g>
</g>
<!-- Node1&#45;&gt;Node5 -->
<g id="edge4" class="edge">
<title>Node1&#45;&gt;Node5</title>
<path fill="none" stroke="#63b8ff" d="M379.5,-76.26C379.5,-68.24 379.5,-59.92 379.5,-52.45"/>
<polygon fill="none" stroke="#63b8ff" points="376,-76.15 379.5,-86.15 383,-76.15 376,-76.15"/>
</g>
<!-- Node6 -->
<g id="node6" class="node">
<title>Node6</title>
<g id="a_node6"><a xlink:href="classtasktrackersystems_1_1valueTooLowException.xhtml" target="_top" xlink:title=" ">
<polygon fill="white" stroke="#666666" points="603.5,-52 467.5,-52 467.5,0 603.5,0 603.5,-52"/>
<text text-anchor="start" x="475.5" y="-40" font-family="Helvetica,sans-Serif" font-size="10.00">{tasktrackersystems</text>
<text text-anchor="middle" x="535.5" y="-29" font-family="Helvetica,sans-Serif" font-size="10.00">::valueTooLowException</text>
<text text-anchor="start" x="475.5" y="-18" font-family="Helvetica,sans-Serif" font-size="10.00">||+ valueTooLowException()</text>
<text text-anchor="middle" x="535.5" y="-7" font-family="Helvetica,sans-Serif" font-size="10.00">}</text>
</a>
</g>
</g>
<!-- Node1&#45;&gt;Node6 -->
<g id="edge5" class="edge">
<title>Node1&#45;&gt;Node6</title>
<path fill="none" stroke="#63b8ff" d="M435.12,-82.34C452.88,-72.55 472.32,-61.83 489.33,-52.45"/>
<polygon fill="none" stroke="#63b8ff" points="433.85,-79.04 426.79,-86.93 437.23,-85.17 433.85,-79.04"/>
</g>
<!-- Node7 -->
<g id="node7" class="node">
<title>Node7</title>
<g id="a_node7"><a xlink:href="classtasktrackersystems_1_1valueTooShortException.xhtml" target="_top" xlink:title=" ">
<polygon fill="white" stroke="#666666" points="761.5,-52 621.5,-52 621.5,0 761.5,0 761.5,-52"/>
<text text-anchor="start" x="629.5" y="-40" font-family="Helvetica,sans-Serif" font-size="10.00">{tasktrackersystems</text>
<text text-anchor="middle" x="691.5" y="-29" font-family="Helvetica,sans-Serif" font-size="10.00">::valueTooShortException</text>
<text text-anchor="start" x="629.5" y="-18" font-family="Helvetica,sans-Serif" font-size="10.00">||+ valueTooShortException()</text>
<text text-anchor="middle" x="691.5" y="-7" font-family="Helvetica,sans-Serif" font-size="10.00">}</text>
</a>
</g>
</g>
<!-- Node1&#45;&gt;Node7 -->
<g id="edge6" class="edge">
<title>Node1&#45;&gt;Node7</title>
<path fill="none" stroke="#63b8ff" d="M481.06,-87.6C522.01,-77.05 569.63,-64.39 612.5,-52 615.4,-51.16 618.36,-50.29 621.34,-49.4"/>
<polygon fill="none" stroke="#63b8ff" points="480.25,-84.19 471.43,-90.07 481.99,-90.97 480.25,-84.19"/>
</g>
<!-- Node2 -->
<g id="node2" class="node">
<title>Node2</title>
<g id="a_node2"><a xlink:title=" ">
<polygon fill="white" stroke="#666666" points="427,-206 332,-206 332,-176 427,-176 427,-206"/>
<text text-anchor="middle" x="379.5" y="-194" font-family="Helvetica,sans-Serif" font-size="10.00">{std::runtime_error</text>
<text text-anchor="middle" x="379.5" y="-183" font-family="Helvetica,sans-Serif" font-size="10.00">||}</text>
</a>
</g>
</g>
<!-- Node2&#45;&gt;Node1 -->
<g id="edge1" class="edge">
<title>Node2&#45;&gt;Node1</title>
<path fill="none" stroke="#63b8ff" d="M379.5,-164.23C379.5,-156.51 379.5,-148.05 379.5,-140.35"/>
<polygon fill="none" stroke="#63b8ff" points="376,-164.03 379.5,-174.03 383,-164.03 376,-164.03"/>
</g>
</g>
</svg>
