<?xml version="1.0" encoding="UTF-8" standalone="no"?>
<!DOCTYPE svg PUBLIC "-//W3C//DTD SVG 1.1//EN"
 "http://www.w3.org/Graphics/SVG/1.1/DTD/svg11.dtd">
<!-- Generated by graphviz version 7.0.5 (20221223.1930)
 -->
<!-- Title: lib Pages: 1 -->
<svg width="453pt" height="372pt"
 viewBox="0.00 0.00 453.00 372.00" xmlns="http://www.w3.org/2000/svg" xmlns:xlink="http://www.w3.org/1999/xlink">
<g id="graph0" class="graph" transform="scale(1 1) rotate(0) translate(4 368)">
<title>lib</title>
<g id="clust1" class="cluster">
<title>clusterdir_97aefd0d527b934f1d99a682da8fe6a9</title>
<g id="a_clust1"><a xlink:href="dir_97aefd0d527b934f1d99a682da8fe6a9.xhtml" target="_top">
<polygon fill="#edf0f7" stroke="#404040" stroke-width="2" points="8,-8 8,-356 437,-356 437,-8 8,-8"/>
</a>
</g>
</g>
<g id="clust5" class="cluster">
<title>clusterdir_71046b38222792489c3876836d4fbdbc</title>
<g id="a_clust5"><a xlink:href="dir_71046b38222792489c3876836d4fbdbc.xhtml" target="_top" xlink:title="Package Enterprise Business Rules.">
<polygon fill="#c8d2e7" stroke="#404040" points="211,-16 211,-62 429,-62 429,-16 211,-16"/>
</a>
</g>
</g>
<g id="clust4" class="cluster">
<title>clusterdir_b49365647f74dff1c8dd1e88d29293e4</title>
<g id="a_clust4"><a xlink:href="dir_b49365647f74dff1c8dd1e88d29293e4.xhtml" target="_top" xlink:title="Package Board Adapters.">
<polygon fill="#c8d2e7" stroke="#404040" points="16,-203 16,-293 357,-293 357,-203 16,-203"/>
</a>
</g>
</g>
<g id="clust3" class="cluster">
<title>clusterdir_6dbb42d2342d9d7292a192bc1d024acc</title>
<g id="a_clust3"><a xlink:href="dir_6dbb42d2342d9d7292a192bc1d024acc.xhtml" target="_top" xlink:title="Package Application Business Rules.">
<polygon fill="#c8d2e7" stroke="#404040" points="149,-82 149,-183 377,-183 377,-82 149,-82"/>
</a>
</g>
</g>
<g id="clust2" class="cluster">
<title>clusterdir_e75212beacfa7863df067e044f07f232</title>
<g id="a_clust2"><a xlink:href="dir_e75212beacfa7863df067e044f07f232.xhtml" target="_top" xlink:title="Package 3rd Party Adapters.">
<polygon fill="#c8d2e7" stroke="#404040" points="106,-313 106,-348 429,-348 429,-313 106,-313"/>
</a>
</g>
</g>
<!-- dir_97aefd0d527b934f1d99a682da8fe6a9 -->
<g id="node1" class="node">
<title>dir_97aefd0d527b934f1d99a682da8fe6a9</title>
<text text-anchor="middle" x="57" y="-328" font-family="Helvetica,sans-Serif" font-size="10.00">lib</text>
</g>
<!-- dir_e75212beacfa7863df067e044f07f232 -->
<g id="node2" class="node">
<title>dir_e75212beacfa7863df067e044f07f232</title>
<text text-anchor="middle" x="371" y="-328" font-family="Helvetica,sans-Serif" font-size="10.00">3rd_party_adapters</text>
</g>
<!-- dir_e5c908e09902ac05aca8138811a01df8 -->
<g id="node3" class="node">
<title>dir_e5c908e09902ac05aca8138811a01df8</title>
<g id="a_node3"><a xlink:href="dir_e5c908e09902ac05aca8138811a01df8.xhtml" target="_top" xlink:title="Arduino">
<polygon fill="#a2b4d6" stroke="#404040" points="226,-340 176,-340 176,-321 226,-321 226,-340"/>
<text text-anchor="middle" x="201" y="-328" font-family="Helvetica,sans-Serif" font-size="10.00">Arduino</text>
</a>
</g>
</g>
<!-- dir_17a6007a5c84c34f300c622be50c188b -->
<g id="node7" class="node">
<title>dir_17a6007a5c84c34f300c622be50c188b</title>
<g id="a_node7"><a xlink:href="dir_17a6007a5c84c34f300c622be50c188b.xhtml" target="_top" xlink:title="serial_interface">
<polygon fill="#a2b4d6" stroke="#404040" points="320.5,-109 237.5,-109 237.5,-90 320.5,-90 320.5,-109"/>
<text text-anchor="middle" x="279" y="-97" font-family="Helvetica,sans-Serif" font-size="10.00">serial_interface</text>
</a>
</g>
</g>
<!-- dir_e5c908e09902ac05aca8138811a01df8&#45;&gt;dir_17a6007a5c84c34f300c622be50c188b -->
<g id="edge1" class="edge">
<title>dir_e5c908e09902ac05aca8138811a01df8&#45;&gt;dir_17a6007a5c84c34f300c622be50c188b</title>
<path fill="none" stroke="#63b8ff" d="M216.84,-320.55C222.43,-317.74 228.85,-314.88 235,-313 265.05,-303.81 354.19,-316.55 375,-293 396.78,-268.35 394.81,-172.65 377,-145 366.69,-129 349.07,-118.69 331.59,-112.07"/>
<polygon fill="#63b8ff" stroke="#63b8ff" points="332.82,-108.79 322.22,-108.89 330.57,-115.42 332.82,-108.79"/>
<g id="a_edge1&#45;headlabel"><a xlink:href="dir_000002_000012.xhtml" target="_top" xlink:title="2">
<text text-anchor="middle" x="335.7" y="-104.27" font-family="Helvetica,sans-Serif" font-size="10.00" fill="#63b8ff">2</text>
</a>
</g>
</g>
<!-- dir_b49365647f74dff1c8dd1e88d29293e4 -->
<g id="node10" class="node">
<title>dir_b49365647f74dff1c8dd1e88d29293e4</title>
<text text-anchor="middle" x="198" y="-273" font-family="Helvetica,sans-Serif" font-size="10.00">board_adapters</text>
</g>
<!-- dir_e5c908e09902ac05aca8138811a01df8&#45;&gt;dir_b49365647f74dff1c8dd1e88d29293e4 -->
<g id="edge2" class="edge">
<title>dir_e5c908e09902ac05aca8138811a01df8&#45;&gt;dir_b49365647f74dff1c8dd1e88d29293e4</title>
<path fill="none" stroke="#63b8ff" d="M200.5,-320.75C200.12,-314.03 199.58,-304.5 199.1,-296"/>
<polygon fill="#63b8ff" stroke="#63b8ff" points="202.61,-296.04 198.55,-286.25 195.62,-296.43 202.61,-296.04"/>
<g id="a_edge2&#45;headlabel"><a xlink:href="dir_000002_000003.xhtml" target="_top" xlink:title="1">
<text text-anchor="middle" x="205.56" y="-295.46" font-family="Helvetica,sans-Serif" font-size="10.00" fill="#63b8ff">1</text>
</a>
</g>
</g>
<!-- dir_673789fe363c8cf83b6beac9ec7c58fa -->
<g id="node4" class="node">
<title>dir_673789fe363c8cf83b6beac9ec7c58fa</title>
<g id="a_node4"><a xlink:href="dir_673789fe363c8cf83b6beac9ec7c58fa.xhtml" target="_top" xlink:title="LVGL">
<polygon fill="#a2b4d6" stroke="#404040" points="157.5,-340 114.5,-340 114.5,-321 157.5,-321 157.5,-340"/>
<text text-anchor="middle" x="136" y="-328" font-family="Helvetica,sans-Serif" font-size="10.00">LVGL</text>
</a>
</g>
</g>
<!-- dir_6c970bd3e9ed525c032ca1b33f237f5b -->
<g id="node9" class="node">
<title>dir_6c970bd3e9ed525c032ca1b33f237f5b</title>
<g id="a_node9"><a xlink:href="dir_6c970bd3e9ed525c032ca1b33f237f5b.xhtml" target="_top" xlink:title="user_interaction">
<polygon fill="#a2b4d6" stroke="#404040" points="243,-169.5 157,-169.5 157,-150.5 243,-150.5 243,-169.5"/>
<text text-anchor="middle" x="200" y="-157.5" font-family="Helvetica,sans-Serif" font-size="10.00">user_interaction</text>
</a>
</g>
</g>
<!-- dir_673789fe363c8cf83b6beac9ec7c58fa&#45;&gt;dir_6c970bd3e9ed525c032ca1b33f237f5b -->
<g id="edge3" class="edge">
<title>dir_673789fe363c8cf83b6beac9ec7c58fa&#45;&gt;dir_6c970bd3e9ed525c032ca1b33f237f5b</title>
<path fill="none" stroke="#63b8ff" d="M150.01,-320.57C155.16,-317.68 161.17,-314.78 167,-313 208.46,-300.36 331.97,-325.18 361,-293 387.79,-263.3 386.61,-233.73 361,-203 329.47,-165.16 299.18,-197.12 252,-183 244.3,-180.7 236.2,-177.61 228.75,-174.48"/>
<polygon fill="#63b8ff" stroke="#63b8ff" points="230.36,-171.37 219.8,-170.56 227.55,-177.78 230.36,-171.37"/>
<g id="a_edge3&#45;headlabel"><a xlink:href="dir_000010_000023.xhtml" target="_top" xlink:title="2">
<text text-anchor="middle" x="233.41" y="-167.1" font-family="Helvetica,sans-Serif" font-size="10.00" fill="#63b8ff">2</text>
</a>
</g>
</g>
<!-- dir_673789fe363c8cf83b6beac9ec7c58fa&#45;&gt;dir_b49365647f74dff1c8dd1e88d29293e4 -->
<g id="edge4" class="edge">
<title>dir_673789fe363c8cf83b6beac9ec7c58fa&#45;&gt;dir_b49365647f74dff1c8dd1e88d29293e4</title>
<path fill="none" stroke="#63b8ff" d="M146.52,-320.51C155.6,-312.74 168.94,-301.34 179.76,-292.09"/>
<polygon fill="#63b8ff" stroke="#63b8ff" points="181.97,-294.81 187.3,-285.65 177.42,-289.48 181.97,-294.81"/>
<g id="a_edge4&#45;headlabel"><a xlink:href="dir_000010_000003.xhtml" target="_top" xlink:title="1">
<text text-anchor="middle" x="182.24" y="-295.82" font-family="Helvetica,sans-Serif" font-size="10.00" fill="#63b8ff">1</text>
</a>
</g>
</g>
<!-- dir_0c9e3c7283f36edd21eeaa604bb6b292 -->
<g id="node5" class="node">
<title>dir_0c9e3c7283f36edd21eeaa604bb6b292</title>
<g id="a_node5"><a xlink:href="dir_0c9e3c7283f36edd21eeaa604bb6b292.xhtml" target="_top" xlink:title="nlohmann">
<polygon fill="#a2b4d6" stroke="#404040" points="303.5,-340 244.5,-340 244.5,-321 303.5,-321 303.5,-340"/>
<text text-anchor="middle" x="274" y="-328" font-family="Helvetica,sans-Serif" font-size="10.00">nlohmann</text>
</a>
</g>
</g>
<!-- dir_0c9e3c7283f36edd21eeaa604bb6b292&#45;&gt;dir_17a6007a5c84c34f300c622be50c188b -->
<g id="edge5" class="edge">
<title>dir_0c9e3c7283f36edd21eeaa604bb6b292&#45;&gt;dir_17a6007a5c84c34f300c622be50c188b</title>
<path fill="none" stroke="#63b8ff" d="M292.7,-320.64C298.77,-317.96 305.6,-315.16 312,-313 347.13,-301.13 370.14,-322.19 393,-293 433.56,-241.21 430.1,-199.31 393,-145 379.15,-124.72 354.56,-113.68 331.76,-107.68"/>
<polygon fill="#63b8ff" stroke="#63b8ff" points="332.78,-104.32 322.24,-105.46 331.19,-111.13 332.78,-104.32"/>
<g id="a_edge5&#45;headlabel"><a xlink:href="dir_000011_000012.xhtml" target="_top" xlink:title="1">
<text text-anchor="middle" x="335.45" y="-99.53" font-family="Helvetica,sans-Serif" font-size="10.00" fill="#63b8ff">1</text>
</a>
</g>
</g>
<!-- dir_2b4ed0f0f8a947c7a7cb51e3d9d332b8 -->
<g id="node15" class="node">
<title>dir_2b4ed0f0f8a947c7a7cb51e3d9d332b8</title>
<g id="a_node15"><a xlink:href="dir_2b4ed0f0f8a947c7a7cb51e3d9d332b8.xhtml" target="_top" xlink:title="serial_protocol">
<polygon fill="#a2b4d6" stroke="#404040" points="299,-48.5 219,-48.5 219,-29.5 299,-29.5 299,-48.5"/>
<text text-anchor="middle" x="259" y="-36.5" font-family="Helvetica,sans-Serif" font-size="10.00">serial_protocol</text>
</a>
</g>
</g>
<!-- dir_0c9e3c7283f36edd21eeaa604bb6b292&#45;&gt;dir_2b4ed0f0f8a947c7a7cb51e3d9d332b8 -->
<g id="edge6" class="edge">
<title>dir_0c9e3c7283f36edd21eeaa604bb6b292&#45;&gt;dir_2b4ed0f0f8a947c7a7cb51e3d9d332b8</title>
<path fill="none" stroke="#63b8ff" d="M292.66,-320.52C298.73,-317.83 305.56,-315.06 312,-313 352.68,-299.98 374.49,-321.83 406,-293 430.53,-270.56 428,-254.75 428,-221.5 428,-221.5 428,-221.5 428,-159 428,-118.91 413.04,-106.11 381,-82 354.12,-61.77 339.66,-73.37 308,-62 301.09,-59.52 293.79,-56.48 287,-53.47"/>
<polygon fill="#63b8ff" stroke="#63b8ff" points="288.8,-50.44 278.25,-49.46 285.89,-56.81 288.8,-50.44"/>
<g id="a_edge6&#45;headlabel"><a xlink:href="dir_000011_000013.xhtml" target="_top" xlink:title="3">
<text text-anchor="middle" x="291.88" y="-46.23" font-family="Helvetica,sans-Serif" font-size="10.00" fill="#63b8ff">3</text>
</a>
</g>
</g>
<!-- dir_6dbb42d2342d9d7292a192bc1d024acc -->
<g id="node6" class="node">
<title>dir_6dbb42d2342d9d7292a192bc1d024acc</title>
<text text-anchor="start" x="269.5" y="-163" font-family="Helvetica,sans-Serif" font-size="10.00">application_business</text>
<text text-anchor="middle" x="315" y="-152" font-family="Helvetica,sans-Serif" font-size="10.00">_rules</text>
</g>
<!-- dir_17a6007a5c84c34f300c622be50c188b&#45;&gt;dir_2b4ed0f0f8a947c7a7cb51e3d9d332b8 -->
<g id="edge7" class="edge">
<title>dir_17a6007a5c84c34f300c622be50c188b&#45;&gt;dir_2b4ed0f0f8a947c7a7cb51e3d9d332b8</title>
<path fill="none" stroke="#63b8ff" d="M276.05,-89.87C273.33,-81.92 269.2,-69.83 265.68,-59.55"/>
<polygon fill="#63b8ff" stroke="#63b8ff" points="269,-58.43 262.45,-50.1 262.38,-60.69 269,-58.43"/>
<g id="a_edge7&#45;headlabel"><a xlink:href="dir_000012_000013.xhtml" target="_top" xlink:title="1">
<text text-anchor="middle" x="272.36" y="-56.98" font-family="Helvetica,sans-Serif" font-size="10.00" fill="#63b8ff">1</text>
</a>
</g>
</g>
<!-- dir_3a2f33b0f26bc6229d595c2c354e6333 -->
<g id="node16" class="node">
<title>dir_3a2f33b0f26bc6229d595c2c354e6333</title>
<g id="a_node16"><a xlink:href="dir_3a2f33b0f26bc6229d595c2c354e6333.xhtml" target="_top" xlink:title="Package Utilities.">
<polygon fill="#c8d2e7" stroke="#404040" points="171.5,-48.5 124.5,-48.5 124.5,-29.5 171.5,-29.5 171.5,-48.5"/>
<text text-anchor="middle" x="148" y="-36.5" font-family="Helvetica,sans-Serif" font-size="10.00">utilities</text>
</a>
</g>
</g>
<!-- dir_17a6007a5c84c34f300c622be50c188b&#45;&gt;dir_3a2f33b0f26bc6229d595c2c354e6333 -->
<g id="edge8" class="edge">
<title>dir_17a6007a5c84c34f300c622be50c188b&#45;&gt;dir_3a2f33b0f26bc6229d595c2c354e6333</title>
<path fill="none" stroke="#63b8ff" d="M259.1,-89.62C237.66,-80.04 203.26,-64.68 178.41,-53.58"/>
<polygon fill="#63b8ff" stroke="#63b8ff" points="180.02,-50.47 169.47,-49.59 177.17,-56.86 180.02,-50.47"/>
<g id="a_edge8&#45;headlabel"><a xlink:href="dir_000012_000024.xhtml" target="_top" xlink:title="1">
<text text-anchor="middle" x="183.08" y="-46.22" font-family="Helvetica,sans-Serif" font-size="10.00" fill="#63b8ff">1</text>
</a>
</g>
</g>
<!-- dir_dab382b21b73aae3d74d7668eeeacf78 -->
<g id="node8" class="node">
<title>dir_dab382b21b73aae3d74d7668eeeacf78</title>
<g id="a_node8"><a xlink:href="dir_dab382b21b73aae3d74d7668eeeacf78.xhtml" target="_top" xlink:title="tasks">
<polygon fill="#a2b4d6" stroke="#404040" points="219.5,-109 178.5,-109 178.5,-90 219.5,-90 219.5,-109"/>
<text text-anchor="middle" x="199" y="-97" font-family="Helvetica,sans-Serif" font-size="10.00">tasks</text>
</a>
</g>
</g>
<!-- dir_6c970bd3e9ed525c032ca1b33f237f5b&#45;&gt;dir_17a6007a5c84c34f300c622be50c188b -->
<g id="edge9" class="edge">
<title>dir_6c970bd3e9ed525c032ca1b33f237f5b&#45;&gt;dir_17a6007a5c84c34f300c622be50c188b</title>
<path fill="none" stroke="#63b8ff" d="M212,-150.12C224.18,-141.1 243.29,-126.95 257.98,-116.06"/>
<polygon fill="#63b8ff" stroke="#63b8ff" points="259.72,-119.13 265.67,-110.37 255.55,-113.51 259.72,-119.13"/>
<g id="a_edge9&#45;headlabel"><a xlink:href="dir_000023_000012.xhtml" target="_top" xlink:title="1">
<text text-anchor="middle" x="259.74" y="-120.15" font-family="Helvetica,sans-Serif" font-size="10.00" fill="#63b8ff">1</text>
</a>
</g>
</g>
<!-- dir_6c970bd3e9ed525c032ca1b33f237f5b&#45;&gt;dir_dab382b21b73aae3d74d7668eeeacf78 -->
<g id="edge11" class="edge">
<title>dir_6c970bd3e9ed525c032ca1b33f237f5b&#45;&gt;dir_dab382b21b73aae3d74d7668eeeacf78</title>
<path fill="none" stroke="#63b8ff" d="M199.85,-150.37C199.72,-142.5 199.51,-130.6 199.34,-120.39"/>
<polygon fill="#63b8ff" stroke="#63b8ff" points="202.84,-120.62 199.17,-110.68 195.85,-120.74 202.84,-120.62"/>
<g id="a_edge11&#45;headlabel"><a xlink:href="dir_000023_000017.xhtml" target="_top" xlink:title="1">
<text text-anchor="middle" x="205.72" y="-120.15" font-family="Helvetica,sans-Serif" font-size="10.00" fill="#63b8ff">1</text>
</a>
</g>
</g>
<!-- dir_6c970bd3e9ed525c032ca1b33f237f5b&#45;&gt;dir_3a2f33b0f26bc6229d595c2c354e6333 -->
<g id="edge10" class="edge">
<title>dir_6c970bd3e9ed525c032ca1b33f237f5b&#45;&gt;dir_3a2f33b0f26bc6229d595c2c354e6333</title>
<path fill="none" stroke="#63b8ff" d="M193.54,-150.18C186.69,-140.49 175.91,-124.26 169,-109 161.73,-92.94 156.1,-73.68 152.51,-59.6"/>
<polygon fill="#63b8ff" stroke="#63b8ff" points="156,-59.13 150.25,-50.23 149.2,-60.77 156,-59.13"/>
<g id="a_edge10&#45;headlabel"><a xlink:href="dir_000023_000024.xhtml" target="_top" xlink:title="2">
<text text-anchor="middle" x="159.25" y="-57.98" font-family="Helvetica,sans-Serif" font-size="10.00" fill="#63b8ff">2</text>
</a>
</g>
</g>
<!-- dir_b49365647f74dff1c8dd1e88d29293e4&#45;&gt;dir_6c970bd3e9ed525c032ca1b33f237f5b -->
<g id="edge13" class="edge">
<title>dir_b49365647f74dff1c8dd1e88d29293e4&#45;&gt;dir_6c970bd3e9ed525c032ca1b33f237f5b</title>
<path fill="none" stroke="#63b8ff" d="M203.89,-266.12C209.55,-257.52 217.71,-243.52 221,-230 223.84,-218.34 223.76,-214.68 221,-203 219.11,-194.98 215.44,-186.75 211.69,-179.72"/>
<polygon fill="#63b8ff" stroke="#63b8ff" points="214.78,-178.07 206.73,-171.18 208.72,-181.59 214.78,-178.07"/>
<g id="a_edge13&#45;headlabel"><a xlink:href="dir_000003_000023.xhtml" target="_top" xlink:title="6">
<text text-anchor="middle" x="218.28" y="-175.95" font-family="Helvetica,sans-Serif" font-size="10.00" fill="#63b8ff">6</text>
</a>
</g>
</g>
<!-- dir_5d3f509552af106634de565dc9d6f33a -->
<g id="node12" class="node">
<title>dir_5d3f509552af106634de565dc9d6f33a</title>
<g id="a_node12"><a xlink:href="dir_5d3f509552af106634de565dc9d6f33a.xhtml" target="_top" xlink:title="sound_output_interface">
<polygon fill="#a2b4d6" stroke="#404040" points="197,-230 79,-230 79,-211 197,-211 197,-230"/>
<text text-anchor="middle" x="138" y="-218" font-family="Helvetica,sans-Serif" font-size="10.00">sound_output_interface</text>
</a>
</g>
</g>
<!-- dir_b49365647f74dff1c8dd1e88d29293e4&#45;&gt;dir_5d3f509552af106634de565dc9d6f33a -->
<g id="edge12" class="edge">
<title>dir_b49365647f74dff1c8dd1e88d29293e4&#45;&gt;dir_5d3f509552af106634de565dc9d6f33a</title>
<path fill="none" stroke="#63b8ff" d="M188.62,-266.22C180.06,-258.65 167.15,-247.25 156.51,-237.85"/>
<polygon fill="#63b8ff" stroke="#63b8ff" points="158.85,-235.25 149.04,-231.25 154.22,-240.5 158.85,-235.25"/>
<g id="a_edge12&#45;headlabel"><a xlink:href="dir_000003_000014.xhtml" target="_top" xlink:title="1">
<text text-anchor="middle" x="162.29" y="-232" font-family="Helvetica,sans-Serif" font-size="10.00" fill="#63b8ff">1</text>
</a>
</g>
</g>
<!-- dir_8d1ee3be5d3bd43266cde43195651fe0 -->
<g id="node11" class="node">
<title>dir_8d1ee3be5d3bd43266cde43195651fe0</title>
<g id="a_node11"><a xlink:href="dir_8d1ee3be5d3bd43266cde43195651fe0.xhtml" target="_top" xlink:title="input_device_interface">
<polygon fill="#a2b4d6" stroke="#404040" points="138,-285 24,-285 24,-266 138,-266 138,-285"/>
<text text-anchor="middle" x="81" y="-273" font-family="Helvetica,sans-Serif" font-size="10.00">input_device_interface</text>
</a>
</g>
</g>
<!-- dir_8d1ee3be5d3bd43266cde43195651fe0&#45;&gt;dir_6c970bd3e9ed525c032ca1b33f237f5b -->
<g id="edge15" class="edge">
<title>dir_8d1ee3be5d3bd43266cde43195651fe0&#45;&gt;dir_6c970bd3e9ed525c032ca1b33f237f5b</title>
<path fill="none" stroke="#63b8ff" d="M121.13,-265.52C153.73,-257.31 195.91,-244.31 206,-230 216.17,-215.58 212.71,-195.02 207.9,-180.09"/>
<polygon fill="#63b8ff" stroke="#63b8ff" points="211.28,-179.13 204.52,-170.98 204.72,-181.57 211.28,-179.13"/>
<g id="a_edge15&#45;headlabel"><a xlink:href="dir_000008_000023.xhtml" target="_top" xlink:title="2">
<text text-anchor="middle" x="214.67" y="-177.6" font-family="Helvetica,sans-Serif" font-size="10.00" fill="#63b8ff">2</text>
</a>
</g>
</g>
<!-- dir_8d1ee3be5d3bd43266cde43195651fe0&#45;&gt;dir_3a2f33b0f26bc6229d595c2c354e6333 -->
<g id="edge14" class="edge">
<title>dir_8d1ee3be5d3bd43266cde43195651fe0&#45;&gt;dir_3a2f33b0f26bc6229d595c2c354e6333</title>
<path fill="none" stroke="#63b8ff" d="M77.51,-265.62C72.64,-252.03 64.94,-225.29 70,-203 82.74,-146.84 117.31,-87.42 135.86,-58.28"/>
<polygon fill="#63b8ff" stroke="#63b8ff" points="138.76,-60.23 141.28,-49.94 132.89,-56.42 138.76,-60.23"/>
<g id="a_edge14&#45;headlabel"><a xlink:href="dir_000008_000024.xhtml" target="_top" xlink:title="1">
<text text-anchor="middle" x="140.01" y="-61.02" font-family="Helvetica,sans-Serif" font-size="10.00" fill="#63b8ff">1</text>
</a>
</g>
</g>
<!-- dir_5d3f509552af106634de565dc9d6f33a&#45;&gt;dir_6c970bd3e9ed525c032ca1b33f237f5b -->
<g id="edge17" class="edge">
<title>dir_5d3f509552af106634de565dc9d6f33a&#45;&gt;dir_6c970bd3e9ed525c032ca1b33f237f5b</title>
<path fill="none" stroke="#63b8ff" d="M147.42,-210.62C156.61,-201.94 170.84,-188.52 182.17,-177.82"/>
<polygon fill="#63b8ff" stroke="#63b8ff" points="184.52,-180.42 189.39,-171.01 179.72,-175.32 184.52,-180.42"/>
<g id="a_edge17&#45;headlabel"><a xlink:href="dir_000014_000023.xhtml" target="_top" xlink:title="1">
<text text-anchor="middle" x="184.96" y="-181.41" font-family="Helvetica,sans-Serif" font-size="10.00" fill="#63b8ff">1</text>
</a>
</g>
</g>
<!-- dir_5d3f509552af106634de565dc9d6f33a&#45;&gt;dir_3a2f33b0f26bc6229d595c2c354e6333 -->
<g id="edge16" class="edge">
<title>dir_5d3f509552af106634de565dc9d6f33a&#45;&gt;dir_3a2f33b0f26bc6229d595c2c354e6333</title>
<path fill="none" stroke="#63b8ff" d="M138.38,-210.81C139.35,-189.09 142.02,-130.67 145,-82 145.44,-74.79 145.99,-66.9 146.49,-59.92"/>
<polygon fill="#63b8ff" stroke="#63b8ff" points="149.97,-60.43 147.22,-50.19 142.98,-59.91 149.97,-60.43"/>
<g id="a_edge16&#45;headlabel"><a xlink:href="dir_000014_000024.xhtml" target="_top" xlink:title="1">
<text text-anchor="middle" x="152.64" y="-60.21" font-family="Helvetica,sans-Serif" font-size="10.00" fill="#63b8ff">1</text>
</a>
</g>
</g>
<!-- dir_dd038f7b9d5ffa107a6117feec92b6ac -->
<g id="node13" class="node">
<title>dir_dd038f7b9d5ffa107a6117feec92b6ac</title>
<g id="a_node13"><a xlink:href="dir_dd038f7b9d5ffa107a6117feec92b6ac.xhtml" target="_top" xlink:title="status_indicators">
<polygon fill="#a2b4d6" stroke="#404040" points="348.5,-285 257.5,-285 257.5,-266 348.5,-266 348.5,-285"/>
<text text-anchor="middle" x="303" y="-273" font-family="Helvetica,sans-Serif" font-size="10.00">status_indicators</text>
</a>
</g>
</g>
<!-- dir_dd038f7b9d5ffa107a6117feec92b6ac&#45;&gt;dir_6c970bd3e9ed525c032ca1b33f237f5b -->
<g id="edge18" class="edge">
<title>dir_dd038f7b9d5ffa107a6117feec92b6ac&#45;&gt;dir_6c970bd3e9ed525c032ca1b33f237f5b</title>
<path fill="none" stroke="#63b8ff" d="M294.92,-265.59C277.84,-246.78 237.85,-202.71 215.61,-178.21"/>
<polygon fill="#63b8ff" stroke="#63b8ff" points="218.37,-176.04 209.06,-170.99 213.19,-180.74 218.37,-176.04"/>
<g id="a_edge18&#45;headlabel"><a xlink:href="dir_000016_000023.xhtml" target="_top" xlink:title="2">
<text text-anchor="middle" x="221.88" y="-173.17" font-family="Helvetica,sans-Serif" font-size="10.00" fill="#63b8ff">2</text>
</a>
</g>
</g>
<!-- dir_71046b38222792489c3876836d4fbdbc -->
<g id="node14" class="node">
<title>dir_71046b38222792489c3876836d4fbdbc</title>
<text text-anchor="start" x="325" y="-42" font-family="Helvetica,sans-Serif" font-size="10.00">enterprise_business</text>
<text text-anchor="middle" x="369" y="-31" font-family="Helvetica,sans-Serif" font-size="10.00">_rules</text>
</g>
</g>
</svg>
