<?xml version="1.0" encoding="UTF-8" standalone="no"?>
<!DOCTYPE svg PUBLIC "-//W3C//DTD SVG 1.1//EN"
 "http://www.w3.org/Graphics/SVG/1.1/DTD/svg11.dtd">
<!-- Generated by graphviz version 7.0.5 (20221223.1930)
 -->
<!-- Title: lib/application_business_rules Pages: 1 -->
<svg width="268pt" height="218pt"
 viewBox="0.00 0.00 268.00 218.00" xmlns="http://www.w3.org/2000/svg" xmlns:xlink="http://www.w3.org/1999/xlink">
<g id="graph0" class="graph" transform="scale(1 1) rotate(0) translate(4 214)">
<title>lib/application_business_rules</title>
<g id="clust1" class="cluster">
<title>clusterdir_97aefd0d527b934f1d99a682da8fe6a9</title>
<g id="a_clust1"><a xlink:href="dir_97aefd0d527b934f1d99a682da8fe6a9.xhtml" target="_top" xlink:title="lib">
<polygon fill="#edf0f7" stroke="#404040" stroke-dasharray="5,2" points="8,-8 8,-202 252,-202 252,-8 8,-8"/>
<text text-anchor="middle" x="130" y="-190" font-family="Helvetica,sans-Serif" font-size="10.00">lib</text>
</a>
</g>
</g>
<g id="clust2" class="cluster">
<title>clusterdir_6dbb42d2342d9d7292a192bc1d024acc</title>
<g id="a_clust2"><a xlink:href="dir_6dbb42d2342d9d7292a192bc1d024acc.xhtml" target="_top" xlink:title="Package Application Business Rules.">
<polygon fill="#edf0f7" stroke="#404040" stroke-width="2" points="16,-74 16,-175 244,-175 244,-74 16,-74"/>
</a>
</g>
</g>
<!-- dir_3a2f33b0f26bc6229d595c2c354e6333 -->
<g id="node1" class="node">
<title>dir_3a2f33b0f26bc6229d595c2c354e6333</title>
<g id="a_node1"><a xlink:href="dir_3a2f33b0f26bc6229d595c2c354e6333.xhtml" target="_top" xlink:title="Package Utilities.">
<polygon fill="#c8d2e7" stroke="#404040" points="197.5,-40.5 150.5,-40.5 150.5,-21.5 197.5,-21.5 197.5,-40.5"/>
<text text-anchor="middle" x="174" y="-28.5" font-family="Helvetica,sans-Serif" font-size="10.00">utilities</text>
</a>
</g>
</g>
<!-- dir_71046b38222792489c3876836d4fbdbc -->
<g id="node2" class="node">
<title>dir_71046b38222792489c3876836d4fbdbc</title>
<g id="a_node2"><a xlink:href="dir_71046b38222792489c3876836d4fbdbc.xhtml" target="_top" xlink:title="Package Enterprise Business Rules.">
<polygon fill="#c8d2e7" stroke="red" points="120,-46 16,-46 16,-16 120,-16 120,-46"/>
<text text-anchor="start" x="24" y="-34" font-family="Helvetica,sans-Serif" font-size="10.00">enterprise_business</text>
<text text-anchor="middle" x="68" y="-23" font-family="Helvetica,sans-Serif" font-size="10.00">_rules</text>
</a>
</g>
</g>
<!-- dir_6dbb42d2342d9d7292a192bc1d024acc -->
<g id="node3" class="node">
<title>dir_6dbb42d2342d9d7292a192bc1d024acc</title>
<text text-anchor="start" x="136.5" y="-155" font-family="Helvetica,sans-Serif" font-size="10.00">application_business</text>
<text text-anchor="middle" x="182" y="-144" font-family="Helvetica,sans-Serif" font-size="10.00">_rules</text>
</g>
<!-- dir_17a6007a5c84c34f300c622be50c188b -->
<g id="node4" class="node">
<title>dir_17a6007a5c84c34f300c622be50c188b</title>
<g id="a_node4"><a xlink:href="dir_17a6007a5c84c34f300c622be50c188b.xhtml" target="_top" xlink:title="serial_interface">
<polygon fill="#c8d2e7" stroke="#404040" points="107.5,-101 24.5,-101 24.5,-82 107.5,-82 107.5,-101"/>
<text text-anchor="middle" x="66" y="-89" font-family="Helvetica,sans-Serif" font-size="10.00">serial_interface</text>
</a>
</g>
</g>
<!-- dir_17a6007a5c84c34f300c622be50c188b&#45;&gt;dir_3a2f33b0f26bc6229d595c2c354e6333 -->
<g id="edge1" class="edge">
<title>dir_17a6007a5c84c34f300c622be50c188b&#45;&gt;dir_3a2f33b0f26bc6229d595c2c354e6333</title>
<path fill="none" stroke="#63b8ff" d="M82.4,-81.62C99.69,-72.25 127.18,-57.36 147.54,-46.33"/>
<polygon fill="#63b8ff" stroke="#63b8ff" points="148.99,-49.53 156.11,-41.69 145.65,-43.37 148.99,-49.53"/>
<g id="a_edge1&#45;headlabel"><a xlink:href="dir_000012_000024.xhtml" target="_top" xlink:title="1">
<text text-anchor="middle" x="148.51" y="-50.52" font-family="Helvetica,sans-Serif" font-size="10.00" fill="#63b8ff">1</text>
</a>
</g>
</g>
<!-- dir_17a6007a5c84c34f300c622be50c188b&#45;&gt;dir_71046b38222792489c3876836d4fbdbc -->
<g id="edge2" class="edge">
<title>dir_17a6007a5c84c34f300c622be50c188b&#45;&gt;dir_71046b38222792489c3876836d4fbdbc</title>
<path fill="none" stroke="#63b8ff" d="M66.3,-81.87C66.52,-75.4 66.83,-66.2 67.13,-57.45"/>
<polygon fill="#63b8ff" stroke="#63b8ff" points="70.62,-57.74 67.47,-47.63 63.63,-57.5 70.62,-57.74"/>
<g id="a_edge2&#45;headlabel"><a xlink:href="dir_000012_000006.xhtml" target="_top" xlink:title="1">
<text text-anchor="middle" x="73.39" y="-57.42" font-family="Helvetica,sans-Serif" font-size="10.00" fill="#63b8ff">1</text>
</a>
</g>
</g>
<!-- dir_dab382b21b73aae3d74d7668eeeacf78 -->
<g id="node5" class="node">
<title>dir_dab382b21b73aae3d74d7668eeeacf78</title>
<g id="a_node5"><a xlink:href="dir_dab382b21b73aae3d74d7668eeeacf78.xhtml" target="_top" xlink:title="tasks">
<polygon fill="#c8d2e7" stroke="#404040" points="166.5,-101 125.5,-101 125.5,-82 166.5,-82 166.5,-101"/>
<text text-anchor="middle" x="146" y="-89" font-family="Helvetica,sans-Serif" font-size="10.00">tasks</text>
</a>
</g>
</g>
<!-- dir_6c970bd3e9ed525c032ca1b33f237f5b -->
<g id="node6" class="node">
<title>dir_6c970bd3e9ed525c032ca1b33f237f5b</title>
<g id="a_node6"><a xlink:href="dir_6c970bd3e9ed525c032ca1b33f237f5b.xhtml" target="_top" xlink:title="user_interaction">
<polygon fill="#c8d2e7" stroke="#404040" points="110,-161.5 24,-161.5 24,-142.5 110,-142.5 110,-161.5"/>
<text text-anchor="middle" x="67" y="-149.5" font-family="Helvetica,sans-Serif" font-size="10.00">user_interaction</text>
</a>
</g>
</g>
<!-- dir_6c970bd3e9ed525c032ca1b33f237f5b&#45;&gt;dir_3a2f33b0f26bc6229d595c2c354e6333 -->
<g id="edge4" class="edge">
<title>dir_6c970bd3e9ed525c032ca1b33f237f5b&#45;&gt;dir_3a2f33b0f26bc6229d595c2c354e6333</title>
<path fill="none" stroke="#63b8ff" d="M95.01,-142.02C124.13,-132.05 166.73,-115.46 176,-101 185.3,-86.5 183.53,-66.53 180.18,-51.8"/>
<polygon fill="#63b8ff" stroke="#63b8ff" points="183.61,-51.09 177.61,-42.36 176.86,-52.93 183.61,-51.09"/>
<g id="a_edge4&#45;headlabel"><a xlink:href="dir_000023_000024.xhtml" target="_top" xlink:title="2">
<text text-anchor="middle" x="186.9" y="-49.85" font-family="Helvetica,sans-Serif" font-size="10.00" fill="#63b8ff">2</text>
</a>
</g>
</g>
<!-- dir_6c970bd3e9ed525c032ca1b33f237f5b&#45;&gt;dir_17a6007a5c84c34f300c622be50c188b -->
<g id="edge3" class="edge">
<title>dir_6c970bd3e9ed525c032ca1b33f237f5b&#45;&gt;dir_17a6007a5c84c34f300c622be50c188b</title>
<path fill="none" stroke="#63b8ff" d="M66.85,-142.37C66.72,-134.5 66.51,-122.6 66.34,-112.39"/>
<polygon fill="#63b8ff" stroke="#63b8ff" points="69.84,-112.62 66.17,-102.68 62.85,-112.74 69.84,-112.62"/>
<g id="a_edge3&#45;headlabel"><a xlink:href="dir_000023_000012.xhtml" target="_top" xlink:title="1">
<text text-anchor="middle" x="72.72" y="-112.15" font-family="Helvetica,sans-Serif" font-size="10.00" fill="#63b8ff">1</text>
</a>
</g>
</g>
<!-- dir_6c970bd3e9ed525c032ca1b33f237f5b&#45;&gt;dir_dab382b21b73aae3d74d7668eeeacf78 -->
<g id="edge5" class="edge">
<title>dir_6c970bd3e9ed525c032ca1b33f237f5b&#45;&gt;dir_dab382b21b73aae3d74d7668eeeacf78</title>
<path fill="none" stroke="#63b8ff" d="M79,-142.12C91.18,-133.1 110.29,-118.95 124.98,-108.06"/>
<polygon fill="#63b8ff" stroke="#63b8ff" points="126.72,-111.13 132.67,-102.37 122.55,-105.51 126.72,-111.13"/>
<g id="a_edge5&#45;headlabel"><a xlink:href="dir_000023_000017.xhtml" target="_top" xlink:title="1">
<text text-anchor="middle" x="126.74" y="-112.15" font-family="Helvetica,sans-Serif" font-size="10.00" fill="#63b8ff">1</text>
</a>
</g>
</g>
</g>
</svg>
