<?xml version="1.0" encoding="UTF-8" standalone="no"?>
<!DOCTYPE svg PUBLIC "-//W3C//DTD SVG 1.1//EN"
 "http://www.w3.org/Graphics/SVG/1.1/DTD/svg11.dtd">
<!-- Generated by graphviz version 7.0.5 (20221223.1930)
 -->
<!-- Title: lib Pages: 1 -->
<svg width="551pt" height="364pt"
 viewBox="0.00 0.00 551.00 364.00" xmlns="http://www.w3.org/2000/svg" xmlns:xlink="http://www.w3.org/1999/xlink">
<g id="graph0" class="graph" transform="scale(1 1) rotate(0) translate(4 360)">
<title>lib</title>
<g id="clust1" class="cluster">
<title>clusterdir_97aefd0d527b934f1d99a682da8fe6a9</title>
<g id="a_clust1"><a xlink:href="dir_97aefd0d527b934f1d99a682da8fe6a9.xhtml" target="_top">
<polygon fill="#edf0f7" stroke="#404040" stroke-width="2" points="8,-8 8,-348 535,-348 535,-8 8,-8"/>
</a>
</g>
</g>
<g id="clust4" class="cluster">
<title>clusterdir_b49365647f74dff1c8dd1e88d29293e4</title>
<g id="a_clust4"><a xlink:href="dir_b49365647f74dff1c8dd1e88d29293e4.xhtml" target="_top" xlink:title="Package Board Adapters.">
<polygon fill="#c8d2e7" stroke="#404040" points="84,-184 84,-274 425,-274 425,-184 84,-184"/>
</a>
</g>
</g>
<g id="clust5" class="cluster">
<title>clusterdir_71046b38222792489c3876836d4fbdbc</title>
<g id="a_clust5"><a xlink:href="dir_71046b38222792489c3876836d4fbdbc.xhtml" target="_top" xlink:title="Package Enterprise Business Rules.">
<polygon fill="#c8d2e7" stroke="#404040" points="309,-294 309,-340 527,-340 527,-294 309,-294"/>
</a>
</g>
</g>
<g id="clust3" class="cluster">
<title>clusterdir_6dbb42d2342d9d7292a192bc1d024acc</title>
<g id="a_clust3"><a xlink:href="dir_6dbb42d2342d9d7292a192bc1d024acc.xhtml" target="_top" xlink:title="Package Application Business Rules.">
<polygon fill="#c8d2e7" stroke="#404040" points="94,-63 94,-164 322,-164 322,-63 94,-63"/>
</a>
</g>
</g>
<g id="clust2" class="cluster">
<title>clusterdir_e75212beacfa7863df067e044f07f232</title>
<g id="a_clust2"><a xlink:href="dir_e75212beacfa7863df067e044f07f232.xhtml" target="_top" xlink:title="Package 3rd Party Adapters.">
<polygon fill="#c8d2e7" stroke="#404040" points="56,-299.5 56,-334.5 301,-334.5 301,-299.5 56,-299.5"/>
</a>
</g>
</g>
<!-- dir_97aefd0d527b934f1d99a682da8fe6a9 -->
<g id="node1" class="node">
<title>dir_97aefd0d527b934f1d99a682da8fe6a9</title>
<text text-anchor="middle" x="31" y="-314.5" font-family="Helvetica,sans-Serif" font-size="10.00">lib</text>
</g>
<!-- dir_e75212beacfa7863df067e044f07f232 -->
<g id="node2" class="node">
<title>dir_e75212beacfa7863df067e044f07f232</title>
<text text-anchor="middle" x="243" y="-314.5" font-family="Helvetica,sans-Serif" font-size="10.00">3rd_party_adapters</text>
</g>
<!-- dir_e5c908e09902ac05aca8138811a01df8 -->
<g id="node3" class="node">
<title>dir_e5c908e09902ac05aca8138811a01df8</title>
<g id="a_node3"><a xlink:href="dir_e5c908e09902ac05aca8138811a01df8.xhtml" target="_top" xlink:title="Arduino">
<polygon fill="#a2b4d6" stroke="#404040" points="114,-326.5 64,-326.5 64,-307.5 114,-307.5 114,-326.5"/>
<text text-anchor="middle" x="89" y="-314.5" font-family="Helvetica,sans-Serif" font-size="10.00">Arduino</text>
</a>
</g>
</g>
<!-- dir_17a6007a5c84c34f300c622be50c188b -->
<g id="node6" class="node">
<title>dir_17a6007a5c84c34f300c622be50c188b</title>
<g id="a_node6"><a xlink:href="dir_17a6007a5c84c34f300c622be50c188b.xhtml" target="_top" xlink:title="serial_interface">
<polygon fill="#a2b4d6" stroke="#404040" points="185.5,-90 102.5,-90 102.5,-71 185.5,-71 185.5,-90"/>
<text text-anchor="middle" x="144" y="-78" font-family="Helvetica,sans-Serif" font-size="10.00">serial_interface</text>
</a>
</g>
</g>
<!-- dir_e5c908e09902ac05aca8138811a01df8&#45;&gt;dir_17a6007a5c84c34f300c622be50c188b -->
<g id="edge1" class="edge">
<title>dir_e5c908e09902ac05aca8138811a01df8&#45;&gt;dir_17a6007a5c84c34f300c622be50c188b</title>
<path fill="none" stroke="#63b8ff" d="M81.38,-307.04C75.06,-298.99 66.57,-286.54 63,-274 59.64,-262.2 57.69,-209.82 64,-184 70.84,-156 75.36,-148.79 93,-126 101.39,-115.15 112.73,-104.95 122.59,-97.05"/>
<polygon fill="#63b8ff" stroke="#63b8ff" points="124.44,-100.04 130.24,-91.17 120.18,-94.49 124.44,-100.04"/>
<g id="a_edge1&#45;headlabel"><a xlink:href="dir_000002_000011.xhtml" target="_top" xlink:title="2">
<text text-anchor="middle" x="124.53" y="-101.06" font-family="Helvetica,sans-Serif" font-size="10.00" fill="#63b8ff">2</text>
</a>
</g>
</g>
<!-- dir_b49365647f74dff1c8dd1e88d29293e4 -->
<g id="node9" class="node">
<title>dir_b49365647f74dff1c8dd1e88d29293e4</title>
<text text-anchor="middle" x="243" y="-254" font-family="Helvetica,sans-Serif" font-size="10.00">board_adapters</text>
</g>
<!-- dir_e5c908e09902ac05aca8138811a01df8&#45;&gt;dir_b49365647f74dff1c8dd1e88d29293e4 -->
<g id="edge2" class="edge">
<title>dir_e5c908e09902ac05aca8138811a01df8&#45;&gt;dir_b49365647f74dff1c8dd1e88d29293e4</title>
<path fill="none" stroke="#63b8ff" d="M101.16,-307.17C107.69,-302.75 116.01,-297.58 124,-294 153.13,-280.93 162.5,-283.45 193,-274 197.57,-272.58 202.36,-271.06 207.09,-269.53"/>
<polygon fill="#63b8ff" stroke="#63b8ff" points="208.03,-272.9 216.44,-266.46 205.85,-266.25 208.03,-272.9"/>
<g id="a_edge2&#45;headlabel"><a xlink:href="dir_000002_000003.xhtml" target="_top" xlink:title="1">
<text text-anchor="middle" x="206.93" y="-273.75" font-family="Helvetica,sans-Serif" font-size="10.00" fill="#63b8ff">1</text>
</a>
</g>
</g>
<!-- dir_673789fe363c8cf83b6beac9ec7c58fa -->
<g id="node4" class="node">
<title>dir_673789fe363c8cf83b6beac9ec7c58fa</title>
<g id="a_node4"><a xlink:href="dir_673789fe363c8cf83b6beac9ec7c58fa.xhtml" target="_top" xlink:title="LVGL">
<polygon fill="#a2b4d6" stroke="#404040" points="175.5,-326.5 132.5,-326.5 132.5,-307.5 175.5,-307.5 175.5,-326.5"/>
<text text-anchor="middle" x="154" y="-314.5" font-family="Helvetica,sans-Serif" font-size="10.00">LVGL</text>
</a>
</g>
</g>
<!-- dir_6c970bd3e9ed525c032ca1b33f237f5b -->
<g id="node8" class="node">
<title>dir_6c970bd3e9ed525c032ca1b33f237f5b</title>
<g id="a_node8"><a xlink:href="dir_6c970bd3e9ed525c032ca1b33f237f5b.xhtml" target="_top" xlink:title="user_interaction">
<polygon fill="#a2b4d6" stroke="#404040" points="188,-150.5 102,-150.5 102,-131.5 188,-131.5 188,-150.5"/>
<text text-anchor="middle" x="145" y="-138.5" font-family="Helvetica,sans-Serif" font-size="10.00">user_interaction</text>
</a>
</g>
</g>
<!-- dir_673789fe363c8cf83b6beac9ec7c58fa&#45;&gt;dir_6c970bd3e9ed525c032ca1b33f237f5b -->
<g id="edge3" class="edge">
<title>dir_673789fe363c8cf83b6beac9ec7c58fa&#45;&gt;dir_6c970bd3e9ed525c032ca1b33f237f5b</title>
<path fill="none" stroke="#63b8ff" d="M142.56,-307.12C136.85,-302.89 129.73,-297.91 123,-294 104.77,-283.41 91.33,-291.77 80,-274 58.49,-240.27 60.87,-219.13 80,-184 86.61,-171.86 98.4,-162.7 110.14,-156.08"/>
<polygon fill="#63b8ff" stroke="#63b8ff" points="111.64,-159.24 118.97,-151.59 108.47,-153 111.64,-159.24"/>
<g id="a_edge3&#45;headlabel"><a xlink:href="dir_000010_000022.xhtml" target="_top" xlink:title="2">
<text text-anchor="middle" x="111.08" y="-160.21" font-family="Helvetica,sans-Serif" font-size="10.00" fill="#63b8ff">2</text>
</a>
</g>
</g>
<!-- dir_673789fe363c8cf83b6beac9ec7c58fa&#45;&gt;dir_b49365647f74dff1c8dd1e88d29293e4 -->
<g id="edge4" class="edge">
<title>dir_673789fe363c8cf83b6beac9ec7c58fa&#45;&gt;dir_b49365647f74dff1c8dd1e88d29293e4</title>
<path fill="none" stroke="#63b8ff" d="M166.26,-307.06C171.91,-303 178.75,-298.18 185,-294 196.13,-286.56 208.67,-278.61 219.25,-272.04"/>
<polygon fill="#63b8ff" stroke="#63b8ff" points="221.08,-275.02 227.75,-266.78 217.4,-269.06 221.08,-275.02"/>
<g id="a_edge4&#45;headlabel"><a xlink:href="dir_000010_000003.xhtml" target="_top" xlink:title="1">
<text text-anchor="middle" x="220.8" y="-276.03" font-family="Helvetica,sans-Serif" font-size="10.00" fill="#63b8ff">1</text>
</a>
</g>
</g>
<!-- dir_6dbb42d2342d9d7292a192bc1d024acc -->
<g id="node5" class="node">
<title>dir_6dbb42d2342d9d7292a192bc1d024acc</title>
<text text-anchor="start" x="214.5" y="-144" font-family="Helvetica,sans-Serif" font-size="10.00">application_business</text>
<text text-anchor="middle" x="260" y="-133" font-family="Helvetica,sans-Serif" font-size="10.00">_rules</text>
</g>
<!-- dir_3a2f33b0f26bc6229d595c2c354e6333 -->
<g id="node15" class="node">
<title>dir_3a2f33b0f26bc6229d595c2c354e6333</title>
<g id="a_node15"><a xlink:href="dir_3a2f33b0f26bc6229d595c2c354e6333.xhtml" target="_top" xlink:title="Package Utilities.">
<polygon fill="#c8d2e7" stroke="#404040" points="333.5,-35 286.5,-35 286.5,-16 333.5,-16 333.5,-35"/>
<text text-anchor="middle" x="310" y="-23" font-family="Helvetica,sans-Serif" font-size="10.00">utilities</text>
</a>
</g>
</g>
<!-- dir_17a6007a5c84c34f300c622be50c188b&#45;&gt;dir_3a2f33b0f26bc6229d595c2c354e6333 -->
<g id="edge5" class="edge">
<title>dir_17a6007a5c84c34f300c622be50c188b&#45;&gt;dir_3a2f33b0f26bc6229d595c2c354e6333</title>
<path fill="none" stroke="#63b8ff" d="M171.52,-70.57C179.12,-68.11 187.38,-65.44 195,-63 221.96,-54.36 252.51,-44.67 275.34,-37.44"/>
<polygon fill="#63b8ff" stroke="#63b8ff" points="276.28,-40.82 284.76,-34.47 274.17,-34.15 276.28,-40.82"/>
<g id="a_edge5&#45;headlabel"><a xlink:href="dir_000011_000023.xhtml" target="_top" xlink:title="1">
<text text-anchor="middle" x="275.15" y="-41.65" font-family="Helvetica,sans-Serif" font-size="10.00" fill="#63b8ff">1</text>
</a>
</g>
</g>
<!-- dir_dab382b21b73aae3d74d7668eeeacf78 -->
<g id="node7" class="node">
<title>dir_dab382b21b73aae3d74d7668eeeacf78</title>
<g id="a_node7"><a xlink:href="dir_dab382b21b73aae3d74d7668eeeacf78.xhtml" target="_top" xlink:title="tasks">
<polygon fill="#a2b4d6" stroke="#404040" points="244.5,-90 203.5,-90 203.5,-71 244.5,-71 244.5,-90"/>
<text text-anchor="middle" x="224" y="-78" font-family="Helvetica,sans-Serif" font-size="10.00">tasks</text>
</a>
</g>
</g>
<!-- dir_6c970bd3e9ed525c032ca1b33f237f5b&#45;&gt;dir_17a6007a5c84c34f300c622be50c188b -->
<g id="edge6" class="edge">
<title>dir_6c970bd3e9ed525c032ca1b33f237f5b&#45;&gt;dir_17a6007a5c84c34f300c622be50c188b</title>
<path fill="none" stroke="#63b8ff" d="M144.85,-131.37C144.72,-123.5 144.51,-111.6 144.34,-101.39"/>
<polygon fill="#63b8ff" stroke="#63b8ff" points="147.84,-101.62 144.17,-91.68 140.85,-101.74 147.84,-101.62"/>
<g id="a_edge6&#45;headlabel"><a xlink:href="dir_000022_000011.xhtml" target="_top" xlink:title="1">
<text text-anchor="middle" x="150.72" y="-101.15" font-family="Helvetica,sans-Serif" font-size="10.00" fill="#63b8ff">1</text>
</a>
</g>
</g>
<!-- dir_6c970bd3e9ed525c032ca1b33f237f5b&#45;&gt;dir_dab382b21b73aae3d74d7668eeeacf78 -->
<g id="edge8" class="edge">
<title>dir_6c970bd3e9ed525c032ca1b33f237f5b&#45;&gt;dir_dab382b21b73aae3d74d7668eeeacf78</title>
<path fill="none" stroke="#63b8ff" d="M157,-131.12C169.18,-122.1 188.29,-107.95 202.98,-97.06"/>
<polygon fill="#63b8ff" stroke="#63b8ff" points="204.72,-100.13 210.67,-91.37 200.55,-94.51 204.72,-100.13"/>
<g id="a_edge8&#45;headlabel"><a xlink:href="dir_000022_000016.xhtml" target="_top" xlink:title="1">
<text text-anchor="middle" x="204.74" y="-101.15" font-family="Helvetica,sans-Serif" font-size="10.00" fill="#63b8ff">1</text>
</a>
</g>
</g>
<!-- dir_6c970bd3e9ed525c032ca1b33f237f5b&#45;&gt;dir_3a2f33b0f26bc6229d595c2c354e6333 -->
<g id="edge7" class="edge">
<title>dir_6c970bd3e9ed525c032ca1b33f237f5b&#45;&gt;dir_3a2f33b0f26bc6229d595c2c354e6333</title>
<path fill="none" stroke="#63b8ff" d="M172.23,-131.13C195.38,-122.78 228.77,-108.75 254,-90 271.28,-77.16 287.12,-58.23 297.5,-44.38"/>
<polygon fill="#63b8ff" stroke="#63b8ff" points="300.13,-46.73 303.16,-36.58 294.46,-42.62 300.13,-46.73"/>
<g id="a_edge7&#45;headlabel"><a xlink:href="dir_000022_000023.xhtml" target="_top" xlink:title="2">
<text text-anchor="middle" x="301.2" y="-47.58" font-family="Helvetica,sans-Serif" font-size="10.00" fill="#63b8ff">2</text>
</a>
</g>
</g>
<!-- dir_b49365647f74dff1c8dd1e88d29293e4&#45;&gt;dir_6c970bd3e9ed525c032ca1b33f237f5b -->
<g id="edge10" class="edge">
<title>dir_b49365647f74dff1c8dd1e88d29293e4&#45;&gt;dir_6c970bd3e9ed525c032ca1b33f237f5b</title>
<path fill="none" stroke="#63b8ff" d="M223.11,-247.01C207.63,-239.52 186.56,-227.26 173,-211 161.1,-196.73 153.73,-176.73 149.56,-161.93"/>
<polygon fill="#63b8ff" stroke="#63b8ff" points="153.01,-161.27 147.16,-152.44 146.22,-162.99 153.01,-161.27"/>
<g id="a_edge10&#45;headlabel"><a xlink:href="dir_000003_000022.xhtml" target="_top" xlink:title="6">
<text text-anchor="middle" x="156.27" y="-160.09" font-family="Helvetica,sans-Serif" font-size="10.00" fill="#63b8ff">6</text>
</a>
</g>
</g>
<!-- dir_5d3f509552af106634de565dc9d6f33a -->
<g id="node11" class="node">
<title>dir_5d3f509552af106634de565dc9d6f33a</title>
<g id="a_node11"><a xlink:href="dir_5d3f509552af106634de565dc9d6f33a.xhtml" target="_top" xlink:title="sound_output_interface">
<polygon fill="#a2b4d6" stroke="#404040" points="315,-211 197,-211 197,-192 315,-192 315,-211"/>
<text text-anchor="middle" x="256" y="-199" font-family="Helvetica,sans-Serif" font-size="10.00">sound_output_interface</text>
</a>
</g>
</g>
<!-- dir_b49365647f74dff1c8dd1e88d29293e4&#45;&gt;dir_5d3f509552af106634de565dc9d6f33a -->
<g id="edge9" class="edge">
<title>dir_b49365647f74dff1c8dd1e88d29293e4&#45;&gt;dir_5d3f509552af106634de565dc9d6f33a</title>
<path fill="none" stroke="#63b8ff" d="M245.03,-247.22C246.66,-240.57 249.02,-230.96 251.13,-222.34"/>
<polygon fill="#63b8ff" stroke="#63b8ff" points="254.51,-223.27 253.49,-212.72 247.71,-221.6 254.51,-223.27"/>
<g id="a_edge9&#45;headlabel"><a xlink:href="dir_000003_000013.xhtml" target="_top" xlink:title="1">
<text text-anchor="middle" x="256.77" y="-223.47" font-family="Helvetica,sans-Serif" font-size="10.00" fill="#63b8ff">1</text>
</a>
</g>
</g>
<!-- dir_8d1ee3be5d3bd43266cde43195651fe0 -->
<g id="node10" class="node">
<title>dir_8d1ee3be5d3bd43266cde43195651fe0</title>
<g id="a_node10"><a xlink:href="dir_8d1ee3be5d3bd43266cde43195651fe0.xhtml" target="_top" xlink:title="input_device_interface">
<polygon fill="#a2b4d6" stroke="#404040" points="417,-266 303,-266 303,-247 417,-247 417,-266"/>
<text text-anchor="middle" x="360" y="-254" font-family="Helvetica,sans-Serif" font-size="10.00">input_device_interface</text>
</a>
</g>
</g>
<!-- dir_8d1ee3be5d3bd43266cde43195651fe0&#45;&gt;dir_6c970bd3e9ed525c032ca1b33f237f5b -->
<g id="edge12" class="edge">
<title>dir_8d1ee3be5d3bd43266cde43195651fe0&#45;&gt;dir_6c970bd3e9ed525c032ca1b33f237f5b</title>
<path fill="none" stroke="#63b8ff" d="M308.54,-246.55C265.12,-238.22 207.08,-225.01 188,-211 185.63,-209.26 168.05,-180.43 156.12,-160.59"/>
<polygon fill="#63b8ff" stroke="#63b8ff" points="159.28,-159.05 151.13,-152.28 153.27,-162.65 159.28,-159.05"/>
<g id="a_edge12&#45;headlabel"><a xlink:href="dir_000008_000022.xhtml" target="_top" xlink:title="2">
<text text-anchor="middle" x="162.78" y="-156.88" font-family="Helvetica,sans-Serif" font-size="10.00" fill="#63b8ff">2</text>
</a>
</g>
</g>
<!-- dir_8d1ee3be5d3bd43266cde43195651fe0&#45;&gt;dir_3a2f33b0f26bc6229d595c2c354e6333 -->
<g id="edge11" class="edge">
<title>dir_8d1ee3be5d3bd43266cde43195651fe0&#45;&gt;dir_3a2f33b0f26bc6229d595c2c354e6333</title>
<path fill="none" stroke="#63b8ff" d="M360.18,-246.73C360.45,-218.86 359.17,-130.28 334,-63 331.61,-56.61 327.93,-50.2 324.17,-44.57"/>
<polygon fill="#63b8ff" stroke="#63b8ff" points="327.16,-42.73 318.45,-36.7 321.49,-46.85 327.16,-42.73"/>
<g id="a_edge11&#45;headlabel"><a xlink:href="dir_000008_000023.xhtml" target="_top" xlink:title="1">
<text text-anchor="middle" x="330.68" y="-40.25" font-family="Helvetica,sans-Serif" font-size="10.00" fill="#63b8ff">1</text>
</a>
</g>
</g>
<!-- dir_5d3f509552af106634de565dc9d6f33a&#45;&gt;dir_6c970bd3e9ed525c032ca1b33f237f5b -->
<g id="edge14" class="edge">
<title>dir_5d3f509552af106634de565dc9d6f33a&#45;&gt;dir_6c970bd3e9ed525c032ca1b33f237f5b</title>
<path fill="none" stroke="#63b8ff" d="M239.14,-191.62C221.38,-182.25 193.12,-167.36 172.2,-156.33"/>
<polygon fill="#63b8ff" stroke="#63b8ff" points="173.83,-153.24 163.36,-151.67 170.57,-159.43 173.83,-153.24"/>
<g id="a_edge14&#45;headlabel"><a xlink:href="dir_000013_000022.xhtml" target="_top" xlink:title="1">
<text text-anchor="middle" x="177" y="-149.2" font-family="Helvetica,sans-Serif" font-size="10.00" fill="#63b8ff">1</text>
</a>
</g>
</g>
<!-- dir_5d3f509552af106634de565dc9d6f33a&#45;&gt;dir_3a2f33b0f26bc6229d595c2c354e6333 -->
<g id="edge13" class="edge">
<title>dir_5d3f509552af106634de565dc9d6f33a&#45;&gt;dir_3a2f33b0f26bc6229d595c2c354e6333</title>
<path fill="none" stroke="#63b8ff" d="M289.24,-191.6C303.13,-186.06 317.9,-177.36 326,-164 349.27,-125.62 335.21,-106.93 326,-63 324.77,-57.13 322.54,-51.05 320.12,-45.58"/>
<polygon fill="#63b8ff" stroke="#63b8ff" points="323.38,-44.26 315.84,-36.81 317.09,-47.33 323.38,-44.26"/>
<g id="a_edge13&#45;headlabel"><a xlink:href="dir_000013_000023.xhtml" target="_top" xlink:title="1">
<text text-anchor="middle" x="326.84" y="-42.38" font-family="Helvetica,sans-Serif" font-size="10.00" fill="#63b8ff">1</text>
</a>
</g>
</g>
<!-- dir_dd038f7b9d5ffa107a6117feec92b6ac -->
<g id="node12" class="node">
<title>dir_dd038f7b9d5ffa107a6117feec92b6ac</title>
<g id="a_node12"><a xlink:href="dir_dd038f7b9d5ffa107a6117feec92b6ac.xhtml" target="_top" xlink:title="status_indicators">
<polygon fill="#a2b4d6" stroke="#404040" points="183.5,-266 92.5,-266 92.5,-247 183.5,-247 183.5,-266"/>
<text text-anchor="middle" x="138" y="-254" font-family="Helvetica,sans-Serif" font-size="10.00">status_indicators</text>
</a>
</g>
</g>
<!-- dir_dd038f7b9d5ffa107a6117feec92b6ac&#45;&gt;dir_6c970bd3e9ed525c032ca1b33f237f5b -->
<g id="edge15" class="edge">
<title>dir_dd038f7b9d5ffa107a6117feec92b6ac&#45;&gt;dir_6c970bd3e9ed525c032ca1b33f237f5b</title>
<path fill="none" stroke="#63b8ff" d="M138.55,-246.59C139.66,-228.53 142.21,-187.17 143.75,-162.21"/>
<polygon fill="#63b8ff" stroke="#63b8ff" points="147.24,-162.57 144.36,-152.38 140.25,-162.14 147.24,-162.57"/>
<g id="a_edge15&#45;headlabel"><a xlink:href="dir_000015_000022.xhtml" target="_top" xlink:title="2">
<text text-anchor="middle" x="149.94" y="-162.32" font-family="Helvetica,sans-Serif" font-size="10.00" fill="#63b8ff">2</text>
</a>
</g>
</g>
<!-- dir_71046b38222792489c3876836d4fbdbc -->
<g id="node13" class="node">
<title>dir_71046b38222792489c3876836d4fbdbc</title>
<text text-anchor="start" x="423" y="-320" font-family="Helvetica,sans-Serif" font-size="10.00">enterprise_business</text>
<text text-anchor="middle" x="467" y="-309" font-family="Helvetica,sans-Serif" font-size="10.00">_rules</text>
</g>
<!-- dir_2b4ed0f0f8a947c7a7cb51e3d9d332b8 -->
<g id="node14" class="node">
<title>dir_2b4ed0f0f8a947c7a7cb51e3d9d332b8</title>
<g id="a_node14"><a xlink:href="dir_2b4ed0f0f8a947c7a7cb51e3d9d332b8.xhtml" target="_top" xlink:title="serial_protocol">
<polygon fill="#a2b4d6" stroke="#404040" points="397,-326.5 317,-326.5 317,-307.5 397,-307.5 397,-326.5"/>
<text text-anchor="middle" x="357" y="-314.5" font-family="Helvetica,sans-Serif" font-size="10.00">serial_protocol</text>
</a>
</g>
</g>
</g>
</svg>
