<?xml version="1.0" encoding="UTF-8" standalone="no"?>
<!DOCTYPE svg PUBLIC "-//W3C//DTD SVG 1.1//EN"
 "http://www.w3.org/Graphics/SVG/1.1/DTD/svg11.dtd">
<!-- Generated by graphviz version 7.0.5 (20221223.1930)
 -->
<!-- Title: test Pages: 1 -->
<svg width="410pt" height="98pt"
 viewBox="0.00 0.00 410.00 98.00" xmlns="http://www.w3.org/2000/svg" xmlns:xlink="http://www.w3.org/1999/xlink">
<g id="graph0" class="graph" transform="scale(1 1) rotate(0) translate(4 94)">
<title>test</title>
<g id="clust1" class="cluster">
<title>clusterdir_13e138d54eb8818da29c3992edef070a</title>
<g id="a_clust1"><a xlink:href="dir_13e138d54eb8818da29c3992edef070a.xhtml" target="_top">
<polygon fill="#edf0f7" stroke="#404040" stroke-width="2" points="8,-47 8,-82 394,-82 394,-47 8,-47"/>
</a>
</g>
</g>
<!-- dir_13e138d54eb8818da29c3992edef070a -->
<g id="node1" class="node">
<title>dir_13e138d54eb8818da29c3992edef070a</title>
<text text-anchor="middle" x="369" y="-62" font-family="Helvetica,sans-Serif" font-size="10.00">test</text>
</g>
<!-- dir_96ee98e0a3ed0ab7302e1b0ef25efdfe -->
<g id="node2" class="node">
<title>dir_96ee98e0a3ed0ab7302e1b0ef25efdfe</title>
<g id="a_node2"><a xlink:href="dir_96ee98e0a3ed0ab7302e1b0ef25efdfe.xhtml" target="_top" xlink:title="test_cli">
<polygon fill="#c8d2e7" stroke="#404040" points="334,-74 286,-74 286,-55 334,-55 334,-74"/>
<text text-anchor="middle" x="310" y="-62" font-family="Helvetica,sans-Serif" font-size="10.00">test_cli</text>
</a>
</g>
</g>
<!-- dir_97aefd0d527b934f1d99a682da8fe6a9 -->
<g id="node6" class="node">
<title>dir_97aefd0d527b934f1d99a682da8fe6a9</title>
<g id="a_node6"><a xlink:href="dir_97aefd0d527b934f1d99a682da8fe6a9.xhtml" target="_top" xlink:title="lib">
<polygon fill="#edf0f7" stroke="red" points="207.5,-19 178.5,-19 178.5,0 207.5,0 207.5,-19"/>
<text text-anchor="middle" x="193" y="-7" font-family="Helvetica,sans-Serif" font-size="10.00">lib</text>
</a>
</g>
</g>
<!-- dir_96ee98e0a3ed0ab7302e1b0ef25efdfe&#45;&gt;dir_97aefd0d527b934f1d99a682da8fe6a9 -->
<g id="edge1" class="edge">
<title>dir_96ee98e0a3ed0ab7302e1b0ef25efdfe&#45;&gt;dir_97aefd0d527b934f1d99a682da8fe6a9</title>
<path fill="none" stroke="#63b8ff" d="M292.62,-54.59C287.6,-52.08 282.11,-49.38 277,-47 257.57,-37.93 235.29,-28.28 218.57,-21.19"/>
<polygon fill="#63b8ff" stroke="#63b8ff" points="219.95,-17.97 209.37,-17.31 217.23,-24.42 219.95,-17.97"/>
<g id="a_edge1&#45;headlabel"><a xlink:href="dir_000019_000009.xhtml" target="_top" xlink:title="1">
<text text-anchor="middle" x="222.97" y="-13.66" font-family="Helvetica,sans-Serif" font-size="10.00" fill="#63b8ff">1</text>
</a>
</g>
</g>
<!-- dir_d4007516cc9bfff50cad23dd85f3b823 -->
<g id="node3" class="node">
<title>dir_d4007516cc9bfff50cad23dd85f3b823</title>
<g id="a_node3"><a xlink:href="dir_d4007516cc9bfff50cad23dd85f3b823.xhtml" target="_top" xlink:title="test_hmi">
<polygon fill="#c8d2e7" stroke="#404040" points="268,-74 214,-74 214,-55 268,-55 268,-74"/>
<text text-anchor="middle" x="241" y="-62" font-family="Helvetica,sans-Serif" font-size="10.00">test_hmi</text>
</a>
</g>
</g>
<!-- dir_d4007516cc9bfff50cad23dd85f3b823&#45;&gt;dir_97aefd0d527b934f1d99a682da8fe6a9 -->
<g id="edge2" class="edge">
<title>dir_d4007516cc9bfff50cad23dd85f3b823&#45;&gt;dir_97aefd0d527b934f1d99a682da8fe6a9</title>
<path fill="none" stroke="#63b8ff" d="M233.07,-54.75C226.44,-47.43 216.78,-36.76 208.61,-27.74"/>
<polygon fill="#63b8ff" stroke="#63b8ff" points="211.42,-25.63 202.11,-20.56 206.23,-30.33 211.42,-25.63"/>
<g id="a_edge2&#45;headlabel"><a xlink:href="dir_000020_000009.xhtml" target="_top" xlink:title="12">
<text text-anchor="middle" x="214.92" y="-22.76" font-family="Helvetica,sans-Serif" font-size="10.00" fill="#63b8ff">12</text>
</a>
</g>
</g>
<!-- dir_4fd65a4ec3cd24baa43ea60e9bd570e2 -->
<g id="node4" class="node">
<title>dir_4fd65a4ec3cd24baa43ea60e9bd570e2</title>
<g id="a_node4"><a xlink:href="dir_4fd65a4ec3cd24baa43ea60e9bd570e2.xhtml" target="_top" xlink:title="test_string_helpers">
<polygon fill="#c8d2e7" stroke="#404040" points="195.5,-74 96.5,-74 96.5,-55 195.5,-55 195.5,-74"/>
<text text-anchor="middle" x="146" y="-62" font-family="Helvetica,sans-Serif" font-size="10.00">test_string_helpers</text>
</a>
</g>
</g>
<!-- dir_4fd65a4ec3cd24baa43ea60e9bd570e2&#45;&gt;dir_97aefd0d527b934f1d99a682da8fe6a9 -->
<g id="edge3" class="edge">
<title>dir_4fd65a4ec3cd24baa43ea60e9bd570e2&#45;&gt;dir_97aefd0d527b934f1d99a682da8fe6a9</title>
<path fill="none" stroke="#63b8ff" d="M153.76,-54.75C160.19,-47.5 169.51,-36.98 177.46,-28.02"/>
<polygon fill="#63b8ff" stroke="#63b8ff" points="180.05,-30.38 184.07,-20.57 174.81,-25.73 180.05,-30.38"/>
<g id="a_edge3&#45;headlabel"><a xlink:href="dir_000021_000009.xhtml" target="_top" xlink:title="1">
<text text-anchor="middle" x="180.79" y="-31.32" font-family="Helvetica,sans-Serif" font-size="10.00" fill="#63b8ff">1</text>
</a>
</g>
</g>
<!-- dir_24d5ee9663ee4cc920cf8960a9137137 -->
<g id="node5" class="node">
<title>dir_24d5ee9663ee4cc920cf8960a9137137</title>
<g id="a_node5"><a xlink:href="dir_24d5ee9663ee4cc920cf8960a9137137.xhtml" target="_top" xlink:title="test_tasks">
<polygon fill="#c8d2e7" stroke="#404040" points="78,-74 16,-74 16,-55 78,-55 78,-74"/>
<text text-anchor="middle" x="47" y="-62" font-family="Helvetica,sans-Serif" font-size="10.00">test_tasks</text>
</a>
</g>
</g>
<!-- dir_24d5ee9663ee4cc920cf8960a9137137&#45;&gt;dir_97aefd0d527b934f1d99a682da8fe6a9 -->
<g id="edge4" class="edge">
<title>dir_24d5ee9663ee4cc920cf8960a9137137&#45;&gt;dir_97aefd0d527b934f1d99a682da8fe6a9</title>
<path fill="none" stroke="#63b8ff" d="M68.63,-54.57C74.86,-52.06 81.68,-49.37 88,-47 114.99,-36.89 146.22,-26.15 167.56,-18.96"/>
<polygon fill="#63b8ff" stroke="#63b8ff" points="168.51,-22.34 176.88,-15.84 166.28,-15.7 168.51,-22.34"/>
<g id="a_edge4&#45;headlabel"><a xlink:href="dir_000022_000009.xhtml" target="_top" xlink:title="1">
<text text-anchor="middle" x="167.44" y="-23.19" font-family="Helvetica,sans-Serif" font-size="10.00" fill="#63b8ff">1</text>
</a>
</g>
</g>
</g>
</svg>
