<?xml version="1.0" encoding="UTF-8" standalone="no"?>
<!DOCTYPE svg PUBLIC "-//W3C//DTD SVG 1.1//EN"
 "http://www.w3.org/Graphics/SVG/1.1/DTD/svg11.dtd">
<!-- Generated by graphviz version 7.0.5 (20221223.1930)
 -->
<!-- Title: lib/enterprise_business_rules/serial_protocol/Generators.hpp Pages: 1 -->
<svg width="380pt" height="214pt"
 viewBox="0.00 0.00 380.00 214.00" xmlns="http://www.w3.org/2000/svg" xmlns:xlink="http://www.w3.org/1999/xlink">
<g id="graph0" class="graph" transform="scale(1 1) rotate(0) translate(4 210)">
<title>lib/enterprise_business_rules/serial_protocol/Generators.hpp</title>
<!-- Node1 -->
<g id="node1" class="node">
<title>Node1</title>
<g id="a_node1"><a xlink:title=" ">
<polygon fill="#999999" stroke="#666666" points="190,-206 74,-206 74,-165 190,-165 190,-206"/>
<text text-anchor="start" x="82" y="-194" font-family="Helvetica,sans-Serif" font-size="10.00">lib/enterprise_business</text>
<text text-anchor="start" x="82" y="-183" font-family="Helvetica,sans-Serif" font-size="10.00">_rules/serial_protocol</text>
<text text-anchor="middle" x="132" y="-172" font-family="Helvetica,sans-Serif" font-size="10.00">/Generators.hpp</text>
</a>
</g>
</g>
<!-- Node2 -->
<g id="node2" class="node">
<title>Node2</title>
<g id="a_node2"><a xlink:title=" ">
<polygon fill="#e0e0e0" stroke="#999999" points="98,-19 0,-19 0,0 98,0 98,-19"/>
<text text-anchor="middle" x="49" y="-7" font-family="Helvetica,sans-Serif" font-size="10.00">nlohmann/json.hpp</text>
</a>
</g>
</g>
<!-- Node1&#45;&gt;Node2 -->
<g id="edge1" class="edge">
<title>Node1&#45;&gt;Node2</title>
<path fill="none" stroke="#63b8ff" d="M92.63,-164.67C78.98,-155.71 65.08,-143.78 57,-129 39.98,-97.88 42.22,-55.08 45.52,-30.35"/>
<polygon fill="#63b8ff" stroke="#63b8ff" points="48.94,-31.13 47.02,-20.71 42.02,-30.06 48.94,-31.13"/>
</g>
<!-- Node3 -->
<g id="node3" class="node">
<title>Node3</title>
<g id="a_node3"><a xlink:href="helper_8hpp.xhtml" target="_top" xlink:title=" ">
<polygon fill="white" stroke="#666666" points="244.5,-74 183.5,-74 183.5,-55 244.5,-55 244.5,-74"/>
<text text-anchor="middle" x="214" y="-62" font-family="Helvetica,sans-Serif" font-size="10.00">helper.hpp</text>
</a>
</g>
</g>
<!-- Node1&#45;&gt;Node3 -->
<g id="edge2" class="edge">
<title>Node1&#45;&gt;Node3</title>
<path fill="none" stroke="#63b8ff" d="M170.65,-164.74C184.38,-155.73 198.52,-143.75 207,-129 214.54,-115.88 216.03,-98.72 215.78,-85.54"/>
<polygon fill="#63b8ff" stroke="#63b8ff" points="219.3,-85.69 215.23,-75.9 212.31,-86.08 219.3,-85.69"/>
</g>
<!-- Node8 -->
<g id="node8" class="node">
<title>Node8</title>
<g id="a_node8"><a xlink:href="protocolVersionObject_8hpp.xhtml" target="_top" xlink:title=" ">
<polygon fill="white" stroke="#666666" points="197.5,-129 66.5,-129 66.5,-110 197.5,-110 197.5,-129"/>
<text text-anchor="middle" x="132" y="-117" font-family="Helvetica,sans-Serif" font-size="10.00">protocolVersionObject.hpp</text>
</a>
</g>
</g>
<!-- Node1&#45;&gt;Node8 -->
<g id="edge8" class="edge">
<title>Node1&#45;&gt;Node8</title>
<path fill="none" stroke="#63b8ff" d="M132,-164.6C132,-156.98 132,-148.3 132,-140.66"/>
<polygon fill="#63b8ff" stroke="#63b8ff" points="135.5,-140.68 132,-130.68 128.5,-140.68 135.5,-140.68"/>
</g>
<!-- Node3&#45;&gt;Node2 -->
<g id="edge3" class="edge">
<title>Node3&#45;&gt;Node2</title>
<path fill="none" stroke="#63b8ff" d="M186.01,-54.51C158.91,-45.8 117.59,-32.53 87.42,-22.84"/>
<polygon fill="#63b8ff" stroke="#63b8ff" points="88.88,-19.64 78.29,-19.91 86.74,-26.3 88.88,-19.64"/>
</g>
<!-- Node4 -->
<g id="node4" class="node">
<title>Node4</title>
<g id="a_node4"><a xlink:title=" ">
<polygon fill="#e0e0e0" stroke="#999999" points="166,-19 116,-19 116,0 166,0 166,-19"/>
<text text-anchor="middle" x="141" y="-7" font-family="Helvetica,sans-Serif" font-size="10.00">optional</text>
</a>
</g>
</g>
<!-- Node3&#45;&gt;Node4 -->
<g id="edge4" class="edge">
<title>Node3&#45;&gt;Node4</title>
<path fill="none" stroke="#63b8ff" d="M201.62,-54.51C190.85,-46.7 175.03,-35.21 162.25,-25.93"/>
<polygon fill="#63b8ff" stroke="#63b8ff" points="164.57,-23.29 154.43,-20.25 160.46,-28.95 164.57,-23.29"/>
</g>
<!-- Node5 -->
<g id="node5" class="node">
<title>Node5</title>
<g id="a_node5"><a xlink:title=" ">
<polygon fill="#e0e0e0" stroke="#999999" points="243.5,-19 184.5,-19 184.5,0 243.5,0 243.5,-19"/>
<text text-anchor="middle" x="214" y="-7" font-family="Helvetica,sans-Serif" font-size="10.00">stdexcept</text>
</a>
</g>
</g>
<!-- Node3&#45;&gt;Node5 -->
<g id="edge5" class="edge">
<title>Node3&#45;&gt;Node5</title>
<path fill="none" stroke="#63b8ff" d="M214,-54.75C214,-48.27 214,-39.16 214,-30.9"/>
<polygon fill="#63b8ff" stroke="#63b8ff" points="217.5,-30.96 214,-20.96 210.5,-30.96 217.5,-30.96"/>
</g>
<!-- Node6 -->
<g id="node6" class="node">
<title>Node6</title>
<g id="a_node6"><a xlink:title=" ">
<polygon fill="#e0e0e0" stroke="#999999" points="302,-19 262,-19 262,0 302,0 302,-19"/>
<text text-anchor="middle" x="282" y="-7" font-family="Helvetica,sans-Serif" font-size="10.00">regex</text>
</a>
</g>
</g>
<!-- Node3&#45;&gt;Node6 -->
<g id="edge6" class="edge">
<title>Node3&#45;&gt;Node6</title>
<path fill="none" stroke="#63b8ff" d="M225.54,-54.51C235.46,-46.77 250.01,-35.43 261.86,-26.2"/>
<polygon fill="#63b8ff" stroke="#63b8ff" points="263.71,-29.2 269.44,-20.29 259.4,-23.68 263.71,-29.2"/>
</g>
<!-- Node7 -->
<g id="node7" class="node">
<title>Node7</title>
<g id="a_node7"><a xlink:title=" ">
<polygon fill="#e0e0e0" stroke="#999999" points="372,-19 320,-19 320,0 372,0 372,-19"/>
<text text-anchor="middle" x="346" y="-7" font-family="Helvetica,sans-Serif" font-size="10.00">sstream</text>
</a>
</g>
</g>
<!-- Node3&#45;&gt;Node7 -->
<g id="edge7" class="edge">
<title>Node3&#45;&gt;Node7</title>
<path fill="none" stroke="#63b8ff" d="M236.39,-54.51C257.57,-46.01 289.59,-33.15 313.56,-23.53"/>
<polygon fill="#63b8ff" stroke="#63b8ff" points="314.56,-26.9 322.53,-19.92 311.95,-20.4 314.56,-26.9"/>
</g>
<!-- Node8&#45;&gt;Node2 -->
<g id="edge9" class="edge">
<title>Node8&#45;&gt;Node2</title>
<path fill="none" stroke="#63b8ff" d="M125.21,-109.66C111.59,-91.94 80.71,-51.77 62.72,-28.35"/>
<polygon fill="#63b8ff" stroke="#63b8ff" points="65.68,-26.46 56.81,-20.66 60.13,-30.72 65.68,-26.46"/>
</g>
<!-- Node8&#45;&gt;Node3 -->
<g id="edge10" class="edge">
<title>Node8&#45;&gt;Node3</title>
<path fill="none" stroke="#63b8ff" d="M145.91,-109.51C158.24,-101.54 176.47,-89.75 190.97,-80.38"/>
<polygon fill="#63b8ff" stroke="#63b8ff" points="192.53,-83.55 199.02,-75.18 188.73,-77.67 192.53,-83.55"/>
</g>
</g>
</svg>
