<?xml version="1.0" encoding="UTF-8" standalone="no"?>
<!DOCTYPE svg PUBLIC "-//W3C//DTD SVG 1.1//EN"
 "http://www.w3.org/Graphics/SVG/1.1/DTD/svg11.dtd">
<!-- Generated by graphviz version 7.0.5 (20221223.1930)
 -->
<!-- Title: lib/enterprise_business_rules/serial_protocol/helper.hpp Pages: 1 -->
<svg width="181pt" height="203pt"
 viewBox="0.00 0.00 181.00 203.00" xmlns="http://www.w3.org/2000/svg" xmlns:xlink="http://www.w3.org/1999/xlink">
<g id="graph0" class="graph" transform="scale(1 1) rotate(0) translate(4 199)">
<title>lib/enterprise_business_rules/serial_protocol/helper.hpp</title>
<!-- Node1 -->
<g id="node1" class="node">
<title>Node1</title>
<g id="a_node1"><a xlink:title=" ">
<polygon fill="#999999" stroke="#666666" points="116,-195 0,-195 0,-154 116,-154 116,-195"/>
<text text-anchor="start" x="8" y="-183" font-family="Helvetica,sans-Serif" font-size="10.00">lib/enterprise_business</text>
<text text-anchor="start" x="8" y="-172" font-family="Helvetica,sans-Serif" font-size="10.00">_rules/serial_protocol</text>
<text text-anchor="middle" x="58" y="-161" font-family="Helvetica,sans-Serif" font-size="10.00">/helper.hpp</text>
</a>
</g>
</g>
<!-- Node2 -->
<g id="node2" class="node">
<title>Node2</title>
<g id="a_node2"><a xlink:href="Generators_8hpp.xhtml" target="_top" xlink:title=" ">
<polygon fill="white" stroke="#666666" points="116,-41 0,-41 0,0 116,0 116,-41"/>
<text text-anchor="start" x="8" y="-29" font-family="Helvetica,sans-Serif" font-size="10.00">lib/enterprise_business</text>
<text text-anchor="start" x="8" y="-18" font-family="Helvetica,sans-Serif" font-size="10.00">_rules/serial_protocol</text>
<text text-anchor="middle" x="58" y="-7" font-family="Helvetica,sans-Serif" font-size="10.00">/Generators.hpp</text>
</a>
</g>
</g>
<!-- Node1&#45;&gt;Node2 -->
<g id="edge1" class="edge">
<title>Node1&#45;&gt;Node2</title>
<path fill="none" stroke="#63b8ff" d="M39.72,-143.58C35.72,-135.56 32.07,-126.69 30,-118 25.78,-100.27 25.78,-94.73 30,-77 32.97,-64.51 39.23,-51.64 45.08,-41.44"/>
<polygon fill="#63b8ff" stroke="#63b8ff" points="36.55,-145.07 44.36,-152.23 42.72,-141.76 36.55,-145.07"/>
</g>
<!-- Node3 -->
<g id="node3" class="node">
<title>Node3</title>
<g id="a_node3"><a xlink:href="protocolVersionObject_8hpp.xhtml" target="_top" xlink:title=" ">
<polygon fill="white" stroke="#666666" points="173,-118 39,-118 39,-77 173,-77 173,-118"/>
<text text-anchor="start" x="47" y="-106" font-family="Helvetica,sans-Serif" font-size="10.00">lib/enterprise_business</text>
<text text-anchor="start" x="47" y="-95" font-family="Helvetica,sans-Serif" font-size="10.00">_rules/serial_protocol</text>
<text text-anchor="middle" x="106" y="-84" font-family="Helvetica,sans-Serif" font-size="10.00">/protocolVersionObject.hpp</text>
</a>
</g>
</g>
<!-- Node1&#45;&gt;Node3 -->
<g id="edge2" class="edge">
<title>Node1&#45;&gt;Node3</title>
<path fill="none" stroke="#63b8ff" d="M76.66,-144.34C82.23,-135.63 88.21,-126.3 93.31,-118.33"/>
<polygon fill="#63b8ff" stroke="#63b8ff" points="73.87,-142.21 71.43,-152.52 79.77,-145.98 73.87,-142.21"/>
</g>
<!-- Node3&#45;&gt;Node2 -->
<g id="edge3" class="edge">
<title>Node3&#45;&gt;Node2</title>
<path fill="none" stroke="#63b8ff" d="M87.34,-67.34C81.77,-58.63 75.79,-49.3 70.69,-41.33"/>
<polygon fill="#63b8ff" stroke="#63b8ff" points="84.23,-68.98 92.57,-75.52 90.13,-65.21 84.23,-68.98"/>
</g>
</g>
</svg>
