<?xml version="1.0" encoding="UTF-8" standalone="no"?>
<!DOCTYPE svg PUBLIC "-//W3C//DTD SVG 1.1//EN"
 "http://www.w3.org/Graphics/SVG/1.1/DTD/svg11.dtd">
<!-- Generated by graphviz version 7.0.5 (20221223.1930)
 -->
<!-- Title: Graphical Class Hierarchy Pages: 1 -->
<svg width="464pt" height="230pt"
 viewBox="0.00 0.00 464.00 230.00" xmlns="http://www.w3.org/2000/svg" xmlns:xlink="http://www.w3.org/1999/xlink">
<g id="graph0" class="graph" transform="scale(1 1) rotate(0) translate(4 226)">
<title>Graphical Class Hierarchy</title>
<!-- Node0 -->
<g id="node1" class="node">
<title>Node0</title>
<g id="a_node1"><a xlink:title=" ">
<polygon fill="#e0e0e0" stroke="#999999" points="92,-120.5 0,-120.5 0,-101.5 92,-101.5 92,-120.5"/>
<text text-anchor="middle" x="46" y="-108.5" font-family="Helvetica,sans-Serif" font-size="10.00">std::runtime_error</text>
</a>
</g>
</g>
<!-- Node1 -->
<g id="node2" class="node">
<title>Node1</title>
<g id="a_node2"><a xlink:href="classtasktrackersystems_1_1classMemberConstraintException.xhtml" target="_top" xlink:title=" ">
<polygon fill="white" stroke="#666666" points="294,-126 128,-126 128,-96 294,-96 294,-126"/>
<text text-anchor="start" x="136" y="-114" font-family="Helvetica,sans-Serif" font-size="10.00">tasktrackersystems</text>
<text text-anchor="middle" x="211" y="-103" font-family="Helvetica,sans-Serif" font-size="10.00">::classMemberConstraintException</text>
</a>
</g>
</g>
<!-- Node0&#45;&gt;Node1 -->
<g id="edge1" class="edge">
<title>Node0&#45;&gt;Node1</title>
<path fill="none" stroke="#63b8ff" d="M103.84,-111C111.58,-111 119.63,-111 127.7,-111"/>
<polygon fill="#63b8ff" stroke="#63b8ff" points="103.92,-107.5 93.92,-111 103.92,-114.5 103.92,-107.5"/>
</g>
<!-- Node2 -->
<g id="node3" class="node">
<title>Node2</title>
<g id="a_node3"><a xlink:href="classtasktrackersystems_1_1invalidPatternException.xhtml" target="_top" xlink:title=" ">
<polygon fill="white" stroke="#666666" points="454,-222 332,-222 332,-192 454,-192 454,-222"/>
<text text-anchor="start" x="340" y="-210" font-family="Helvetica,sans-Serif" font-size="10.00">tasktrackersystems</text>
<text text-anchor="middle" x="393" y="-199" font-family="Helvetica,sans-Serif" font-size="10.00">::invalidPatternException</text>
</a>
</g>
</g>
<!-- Node1&#45;&gt;Node2 -->
<g id="edge2" class="edge">
<title>Node1&#45;&gt;Node2</title>
<path fill="none" stroke="#63b8ff" d="M243.74,-132.51C267,-147.74 299.69,-168.03 330,-183 336.11,-186.01 342.69,-188.91 349.21,-191.59"/>
<polygon fill="#63b8ff" stroke="#63b8ff" points="245.91,-129.75 235.64,-127.15 242.05,-135.59 245.91,-129.75"/>
</g>
<!-- Node3 -->
<g id="node4" class="node">
<title>Node3</title>
<g id="a_node4"><a xlink:href="classtasktrackersystems_1_1valueTooHighException.xhtml" target="_top" xlink:title=" ">
<polygon fill="white" stroke="#666666" points="454.5,-174 331.5,-174 331.5,-144 454.5,-144 454.5,-174"/>
<text text-anchor="start" x="339.5" y="-162" font-family="Helvetica,sans-Serif" font-size="10.00">tasktrackersystems</text>
<text text-anchor="middle" x="393" y="-151" font-family="Helvetica,sans-Serif" font-size="10.00">::valueTooHighException</text>
</a>
</g>
</g>
<!-- Node1&#45;&gt;Node3 -->
<g id="edge3" class="edge">
<title>Node1&#45;&gt;Node3</title>
<path fill="none" stroke="#63b8ff" d="M280.74,-129.33C298.37,-134.03 317.15,-139.04 334.16,-143.58"/>
<polygon fill="#63b8ff" stroke="#63b8ff" points="281.97,-126.04 271.41,-126.84 280.17,-132.8 281.97,-126.04"/>
</g>
<!-- Node4 -->
<g id="node5" class="node">
<title>Node4</title>
<g id="a_node5"><a xlink:href="classtasktrackersystems_1_1valueTooLongException.xhtml" target="_top" xlink:title=" ">
<polygon fill="white" stroke="#666666" points="455.5,-126 330.5,-126 330.5,-96 455.5,-96 455.5,-126"/>
<text text-anchor="start" x="338.5" y="-114" font-family="Helvetica,sans-Serif" font-size="10.00">tasktrackersystems</text>
<text text-anchor="middle" x="393" y="-103" font-family="Helvetica,sans-Serif" font-size="10.00">::valueTooLongException</text>
</a>
</g>
</g>
<!-- Node1&#45;&gt;Node4 -->
<g id="edge4" class="edge">
<title>Node1&#45;&gt;Node4</title>
<path fill="none" stroke="#63b8ff" d="M305.67,-111C313.97,-111 322.22,-111 330.15,-111"/>
<polygon fill="#63b8ff" stroke="#63b8ff" points="305.88,-107.5 295.88,-111 305.88,-114.5 305.88,-107.5"/>
</g>
<!-- Node5 -->
<g id="node6" class="node">
<title>Node5</title>
<g id="a_node6"><a xlink:href="classtasktrackersystems_1_1valueTooLowException.xhtml" target="_top" xlink:title=" ">
<polygon fill="white" stroke="#666666" points="454,-78 332,-78 332,-48 454,-48 454,-78"/>
<text text-anchor="start" x="340" y="-66" font-family="Helvetica,sans-Serif" font-size="10.00">tasktrackersystems</text>
<text text-anchor="middle" x="393" y="-55" font-family="Helvetica,sans-Serif" font-size="10.00">::valueTooLowException</text>
</a>
</g>
</g>
<!-- Node1&#45;&gt;Node5 -->
<g id="edge5" class="edge">
<title>Node1&#45;&gt;Node5</title>
<path fill="none" stroke="#63b8ff" d="M280.74,-92.67C298.37,-87.97 317.15,-82.96 334.16,-78.42"/>
<polygon fill="#63b8ff" stroke="#63b8ff" points="280.17,-89.2 271.41,-95.16 281.97,-95.96 280.17,-89.2"/>
</g>
<!-- Node6 -->
<g id="node7" class="node">
<title>Node6</title>
<g id="a_node7"><a xlink:href="classtasktrackersystems_1_1valueTooShortException.xhtml" target="_top" xlink:title=" ">
<polygon fill="white" stroke="#666666" points="456,-30 330,-30 330,0 456,0 456,-30"/>
<text text-anchor="start" x="338" y="-18" font-family="Helvetica,sans-Serif" font-size="10.00">tasktrackersystems</text>
<text text-anchor="middle" x="393" y="-7" font-family="Helvetica,sans-Serif" font-size="10.00">::valueTooShortException</text>
</a>
</g>
</g>
<!-- Node1&#45;&gt;Node6 -->
<g id="edge6" class="edge">
<title>Node1&#45;&gt;Node6</title>
<path fill="none" stroke="#63b8ff" d="M243.74,-89.49C267,-74.26 299.69,-53.97 330,-39 336.11,-35.99 342.69,-33.09 349.21,-30.41"/>
<polygon fill="#63b8ff" stroke="#63b8ff" points="242.05,-86.41 235.64,-94.85 245.91,-92.25 242.05,-86.41"/>
</g>
</g>
</svg>
