<?xml version="1.0" encoding="UTF-8" standalone="no"?>
<!DOCTYPE svg PUBLIC "-//W3C//DTD SVG 1.1//EN"
 "http://www.w3.org/Graphics/SVG/1.1/DTD/svg11.dtd">
<!-- Generated by graphviz version 7.0.5 (20221223.1930)
 -->
<!-- Title: lib/3rd_party_adapters/nlohmann/JsonGenerator.cpp Pages: 1 -->
<svg width="753pt" height="159pt"
 viewBox="0.00 0.00 752.50 159.00" xmlns="http://www.w3.org/2000/svg" xmlns:xlink="http://www.w3.org/1999/xlink">
<g id="graph0" class="graph" transform="scale(1 1) rotate(0) translate(4 155)">
<title>lib/3rd_party_adapters/nlohmann/JsonGenerator.cpp</title>
<!-- Node1 -->
<g id="node1" class="node">
<title>Node1</title>
<g id="a_node1"><a xlink:title=" ">
<polygon fill="#999999" stroke="#666666" points="443,-151 297,-151 297,-121 443,-121 443,-151"/>
<text text-anchor="start" x="305" y="-139" font-family="Helvetica,sans-Serif" font-size="10.00">lib/3rd_party_adapters</text>
<text text-anchor="middle" x="370" y="-128" font-family="Helvetica,sans-Serif" font-size="10.00">/nlohmann/JsonGenerator.cpp</text>
</a>
</g>
</g>
<!-- Node2 -->
<g id="node2" class="node">
<title>Node2</title>
<g id="a_node2"><a xlink:title=" ">
<polygon fill="#e0e0e0" stroke="#999999" points="98,-79.5 0,-79.5 0,-60.5 98,-60.5 98,-79.5"/>
<text text-anchor="middle" x="49" y="-67.5" font-family="Helvetica,sans-Serif" font-size="10.00">nlohmann/json.hpp</text>
</a>
</g>
</g>
<!-- Node1&#45;&gt;Node2 -->
<g id="edge1" class="edge">
<title>Node1&#45;&gt;Node2</title>
<path fill="none" stroke="#63b8ff" d="M296.68,-122.06C243.82,-112.48 170.83,-98.76 107,-85 103.41,-84.22 99.69,-83.4 95.96,-82.54"/>
<polygon fill="#63b8ff" stroke="#63b8ff" points="96.84,-79.15 86.3,-80.28 95.24,-85.97 96.84,-79.15"/>
</g>
<!-- Node3 -->
<g id="node3" class="node">
<title>Node3</title>
<g id="a_node3"><a xlink:href="JsonGenerator_8hpp.xhtml" target="_top" xlink:title=" ">
<polygon fill="white" stroke="#666666" points="283.5,-79.5 116.5,-79.5 116.5,-60.5 283.5,-60.5 283.5,-79.5"/>
<text text-anchor="middle" x="200" y="-67.5" font-family="Helvetica,sans-Serif" font-size="10.00">serial_interface/JsonGenerator.hpp</text>
</a>
</g>
</g>
<!-- Node1&#45;&gt;Node3 -->
<g id="edge2" class="edge">
<title>Node1&#45;&gt;Node3</title>
<path fill="none" stroke="#63b8ff" d="M331.85,-120.64C302.64,-109.64 262.69,-94.6 234.45,-83.97"/>
<polygon fill="#63b8ff" stroke="#63b8ff" points="235.88,-80.77 225.29,-80.52 233.41,-87.32 235.88,-80.77"/>
</g>
<!-- Node5 -->
<g id="node5" class="node">
<title>Node5</title>
<g id="a_node5"><a xlink:href="DeletedTaskObject_8hpp.xhtml" target="_top" xlink:title=" ">
<polygon fill="white" stroke="#666666" points="438.5,-85 301.5,-85 301.5,-55 438.5,-55 438.5,-85"/>
<text text-anchor="start" x="309.5" y="-73" font-family="Helvetica,sans-Serif" font-size="10.00">serial_protocol/DeletedTask</text>
<text text-anchor="middle" x="370" y="-62" font-family="Helvetica,sans-Serif" font-size="10.00">Object.hpp</text>
</a>
</g>
</g>
<!-- Node1&#45;&gt;Node5 -->
<g id="edge4" class="edge">
<title>Node1&#45;&gt;Node5</title>
<path fill="none" stroke="#63b8ff" d="M370,-120.8C370,-113.67 370,-104.82 370,-96.56"/>
<polygon fill="#63b8ff" stroke="#63b8ff" points="373.5,-96.68 370,-86.68 366.5,-96.68 373.5,-96.68"/>
</g>
<!-- Node6 -->
<g id="node6" class="node">
<title>Node6</title>
<g id="a_node6"><a xlink:href="ProtocolVersionObject_8hpp.xhtml" target="_top" xlink:title=" ">
<polygon fill="white" stroke="#666666" points="744.5,-85 625.5,-85 625.5,-55 744.5,-55 744.5,-85"/>
<text text-anchor="start" x="633.5" y="-73" font-family="Helvetica,sans-Serif" font-size="10.00">serial_protocol/Protocol</text>
<text text-anchor="middle" x="685" y="-62" font-family="Helvetica,sans-Serif" font-size="10.00">VersionObject.hpp</text>
</a>
</g>
</g>
<!-- Node1&#45;&gt;Node6 -->
<g id="edge5" class="edge">
<title>Node1&#45;&gt;Node6</title>
<path fill="none" stroke="#63b8ff" d="M441.08,-120.56C492.73,-110.06 562.33,-95.92 613.96,-85.43"/>
<polygon fill="#63b8ff" stroke="#63b8ff" points="614.44,-88.91 623.54,-83.49 613.05,-82.05 614.44,-88.91"/>
</g>
<!-- Node8 -->
<g id="node8" class="node">
<title>Node8</title>
<g id="a_node8"><a xlink:href="TaskObject_8hpp.xhtml" target="_top" xlink:title=" ">
<polygon fill="white" stroke="#666666" points="607.5,-79.5 456.5,-79.5 456.5,-60.5 607.5,-60.5 607.5,-79.5"/>
<text text-anchor="middle" x="532" y="-67.5" font-family="Helvetica,sans-Serif" font-size="10.00">serial_protocol/TaskObject.hpp</text>
</a>
</g>
</g>
<!-- Node1&#45;&gt;Node8 -->
<g id="edge7" class="edge">
<title>Node1&#45;&gt;Node8</title>
<path fill="none" stroke="#63b8ff" d="M406.36,-120.64C434.07,-109.69 471.92,-94.73 498.82,-84.11"/>
<polygon fill="#63b8ff" stroke="#63b8ff" points="499.83,-87.47 507.85,-80.54 497.26,-80.96 499.83,-87.47"/>
</g>
<!-- Node4 -->
<g id="node4" class="node">
<title>Node4</title>
<g id="a_node4"><a xlink:title=" ">
<polygon fill="#e0e0e0" stroke="#999999" points="355.5,-19 314.5,-19 314.5,0 355.5,0 355.5,-19"/>
<text text-anchor="middle" x="335" y="-7" font-family="Helvetica,sans-Serif" font-size="10.00">string</text>
</a>
</g>
</g>
<!-- Node3&#45;&gt;Node4 -->
<g id="edge3" class="edge">
<title>Node3&#45;&gt;Node4</title>
<path fill="none" stroke="#63b8ff" d="M220.5,-60.12C242.71,-50.49 278.37,-35.04 304,-23.93"/>
<polygon fill="#63b8ff" stroke="#63b8ff" points="305.13,-27.26 312.91,-20.07 302.35,-20.83 305.13,-27.26"/>
</g>
<!-- Node7 -->
<g id="node7" class="node">
<title>Node7</title>
<g id="a_node7"><a xlink:title=" ">
<polygon fill="#e0e0e0" stroke="#999999" points="708,-19 662,-19 662,0 708,0 708,-19"/>
<text text-anchor="middle" x="685" y="-7" font-family="Helvetica,sans-Serif" font-size="10.00">cstdint</text>
</a>
</g>
</g>
<!-- Node6&#45;&gt;Node7 -->
<g id="edge6" class="edge">
<title>Node6&#45;&gt;Node7</title>
<path fill="none" stroke="#63b8ff" d="M685,-54.54C685,-47.34 685,-38.53 685,-30.68"/>
<polygon fill="#63b8ff" stroke="#63b8ff" points="688.5,-30.69 685,-20.69 681.5,-30.69 688.5,-30.69"/>
</g>
<!-- Node8&#45;&gt;Node4 -->
<g id="edge9" class="edge">
<title>Node8&#45;&gt;Node4</title>
<path fill="none" stroke="#63b8ff" d="M502.08,-60.12C465.5,-49.25 403.87,-30.95 366.56,-19.87"/>
<polygon fill="#63b8ff" stroke="#63b8ff" points="367.85,-16.6 357.27,-17.11 365.86,-23.31 367.85,-16.6"/>
</g>
<!-- Node9 -->
<g id="node9" class="node">
<title>Node9</title>
<g id="a_node9"><a xlink:title=" ">
<polygon fill="#e0e0e0" stroke="#999999" points="555,-19 509,-19 509,0 555,0 555,-19"/>
<text text-anchor="middle" x="532" y="-7" font-family="Helvetica,sans-Serif" font-size="10.00">chrono</text>
</a>
</g>
</g>
<!-- Node8&#45;&gt;Node9 -->
<g id="edge8" class="edge">
<title>Node8&#45;&gt;Node9</title>
<path fill="none" stroke="#63b8ff" d="M532,-60.37C532,-52.5 532,-40.6 532,-30.39"/>
<polygon fill="#63b8ff" stroke="#63b8ff" points="535.5,-30.68 532,-20.68 528.5,-30.68 535.5,-30.68"/>
</g>
</g>
</svg>
