<?xml version="1.0" encoding="UTF-8" standalone="no"?>
<!DOCTYPE svg PUBLIC "-//W3C//DTD SVG 1.1//EN"
 "http://www.w3.org/Graphics/SVG/1.1/DTD/svg11.dtd">
<!-- Generated by graphviz version 7.0.5 (20221223.1930)
 -->
<!-- Title: src/main.cpp Pages: 1 -->
<svg width="1460pt" height="258pt"
 viewBox="0.00 0.00 1460.00 258.00" xmlns="http://www.w3.org/2000/svg" xmlns:xlink="http://www.w3.org/1999/xlink">
<g id="graph0" class="graph" transform="scale(1 1) rotate(0) translate(4 254)">
<title>src/main.cpp</title>
<!-- Node1 -->
<g id="node1" class="node">
<title>Node1</title>
<g id="a_node1"><a xlink:title=" ">
<polygon fill="#999999" stroke="#666666" points="747,-250 675,-250 675,-231 747,-231 747,-250"/>
<text text-anchor="middle" x="711" y="-238" font-family="Helvetica,sans-Serif" font-size="10.00">src/main.cpp</text>
</a>
</g>
</g>
<!-- Node2 -->
<g id="node2" class="node">
<title>Node2</title>
<g id="a_node2"><a xlink:title=" ">
<polygon fill="#e0e0e0" stroke="#999999" points="46,-129 0,-129 0,-110 46,-110 46,-129"/>
<text text-anchor="middle" x="23" y="-117" font-family="Helvetica,sans-Serif" font-size="10.00">chrono</text>
</a>
</g>
</g>
<!-- Node1&#45;&gt;Node2 -->
<g id="edge1" class="edge">
<title>Node1&#45;&gt;Node2</title>
<path fill="none" stroke="#63b8ff" d="M674.83,-239.53C542.65,-239.32 90.83,-235.61 42,-195 26.3,-181.95 22.58,-157.9 22.13,-140.65"/>
<polygon fill="#63b8ff" stroke="#63b8ff" points="25.62,-140.87 22.24,-130.83 18.63,-140.79 25.62,-140.87"/>
</g>
<!-- Node3 -->
<g id="node3" class="node">
<title>Node3</title>
<g id="a_node3"><a xlink:href="Protocol_8hpp.xhtml" target="_top" xlink:title=" ">
<polygon fill="white" stroke="#666666" points="700,-189.5 560,-189.5 560,-170.5 700,-170.5 700,-189.5"/>
<text text-anchor="middle" x="630" y="-177.5" font-family="Helvetica,sans-Serif" font-size="10.00">serial_interface/Protocol.hpp</text>
</a>
</g>
</g>
<!-- Node1&#45;&gt;Node3 -->
<g id="edge2" class="edge">
<title>Node1&#45;&gt;Node3</title>
<path fill="none" stroke="#63b8ff" d="M698.7,-230.62C686.21,-221.6 666.62,-207.45 651.55,-196.56"/>
<polygon fill="#63b8ff" stroke="#63b8ff" points="653.8,-193.87 643.64,-190.85 649.7,-199.55 653.8,-193.87"/>
</g>
<!-- Node4 -->
<g id="node4" class="node">
<title>Node4</title>
<g id="a_node4"><a xlink:href="serial__port_8hpp.xhtml" target="_top" xlink:title=" ">
<polygon fill="white" stroke="#666666" points="261.5,-195 152.5,-195 152.5,-165 261.5,-165 261.5,-195"/>
<text text-anchor="start" x="160.5" y="-183" font-family="Helvetica,sans-Serif" font-size="10.00">serial_interface/serial</text>
<text text-anchor="middle" x="207" y="-172" font-family="Helvetica,sans-Serif" font-size="10.00">_port.hpp</text>
</a>
</g>
</g>
<!-- Node1&#45;&gt;Node4 -->
<g id="edge3" class="edge">
<title>Node1&#45;&gt;Node4</title>
<path fill="none" stroke="#63b8ff" d="M674.51,-237.28C600.54,-232.47 427.46,-219.62 272.99,-195.37"/>
<polygon fill="#63b8ff" stroke="#63b8ff" points="273.82,-191.96 263.4,-193.84 272.72,-198.87 273.82,-191.96"/>
</g>
<!-- Node10 -->
<g id="node10" class="node">
<title>Node10</title>
<g id="a_node10"><a xlink:href="Generators_8hpp.xhtml" target="_top" xlink:title=" ">
<polygon fill="white" stroke="#666666" points="867.5,-189.5 718.5,-189.5 718.5,-170.5 867.5,-170.5 867.5,-189.5"/>
<text text-anchor="middle" x="793" y="-177.5" font-family="Helvetica,sans-Serif" font-size="10.00">serial_protocol/Generators.hpp</text>
</a>
</g>
</g>
<!-- Node1&#45;&gt;Node10 -->
<g id="edge9" class="edge">
<title>Node1&#45;&gt;Node10</title>
<path fill="none" stroke="#63b8ff" d="M723.45,-230.62C736.1,-221.6 755.93,-207.45 771.19,-196.56"/>
<polygon fill="#63b8ff" stroke="#63b8ff" points="773.09,-199.5 779.2,-190.85 769.02,-193.81 773.09,-199.5"/>
</g>
<!-- Node14 -->
<g id="node14" class="node">
<title>Node14</title>
<g id="a_node14"><a xlink:href="Task_8hpp.xhtml" target="_top" xlink:title=" ">
<polygon fill="white" stroke="#666666" points="134.5,-189.5 51.5,-189.5 51.5,-170.5 134.5,-170.5 134.5,-189.5"/>
<text text-anchor="middle" x="93" y="-177.5" font-family="Helvetica,sans-Serif" font-size="10.00">tasks/Task.hpp</text>
</a>
</g>
</g>
<!-- Node1&#45;&gt;Node14 -->
<g id="edge13" class="edge">
<title>Node1&#45;&gt;Node14</title>
<path fill="none" stroke="#63b8ff" d="M674.81,-239.1C584.4,-237.58 341.68,-230.25 143,-195 139.56,-194.39 136.02,-193.64 132.48,-192.82"/>
<polygon fill="#63b8ff" stroke="#63b8ff" points="133.36,-189.43 122.8,-190.34 131.62,-196.21 133.36,-189.43"/>
</g>
<!-- Node16 -->
<g id="node16" class="node">
<title>Node16</title>
<g id="a_node16"><a xlink:title=" ">
<polygon fill="#e0e0e0" stroke="#999999" points="930,-189.5 886,-189.5 886,-170.5 930,-170.5 930,-189.5"/>
<text text-anchor="middle" x="908" y="-177.5" font-family="Helvetica,sans-Serif" font-size="10.00">thread</text>
</a>
</g>
</g>
<!-- Node1&#45;&gt;Node16 -->
<g id="edge17" class="edge">
<title>Node1&#45;&gt;Node16</title>
<path fill="none" stroke="#63b8ff" d="M747.2,-231.38C780.95,-223.43 832.47,-210.3 876,-195 876.79,-194.72 877.6,-194.43 878.4,-194.13"/>
<polygon fill="#63b8ff" stroke="#63b8ff" points="879.52,-197.46 887.49,-190.48 876.91,-190.96 879.52,-197.46"/>
</g>
<!-- Node17 -->
<g id="node17" class="node">
<title>Node17</title>
<g id="a_node17"><a xlink:href="Menu_8hpp.xhtml" target="_top" xlink:title=" ">
<polygon fill="white" stroke="#666666" points="1159.5,-129 1028.5,-129 1028.5,-110 1159.5,-110 1159.5,-129"/>
<text text-anchor="middle" x="1094" y="-117" font-family="Helvetica,sans-Serif" font-size="10.00">user_interaction/Menu.hpp</text>
</a>
</g>
</g>
<!-- Node1&#45;&gt;Node17 -->
<g id="edge18" class="edge">
<title>Node1&#45;&gt;Node17</title>
<path fill="none" stroke="#63b8ff" d="M747.36,-240.13C829.91,-240.77 1028.03,-237.72 1076,-195 1091.05,-181.6 1094.59,-157.99 1094.98,-140.94"/>
<polygon fill="#63b8ff" stroke="#63b8ff" points="1098.48,-140.91 1094.82,-130.96 1091.48,-141.02 1098.48,-140.91"/>
</g>
<!-- Node19 -->
<g id="node19" class="node">
<title>Node19</title>
<g id="a_node19"><a xlink:href="Presenter_8hpp.xhtml" target="_top" xlink:title=" ">
<polygon fill="white" stroke="#666666" points="1275.5,-189.5 1126.5,-189.5 1126.5,-170.5 1275.5,-170.5 1275.5,-189.5"/>
<text text-anchor="middle" x="1201" y="-177.5" font-family="Helvetica,sans-Serif" font-size="10.00">user_interaction/Presenter.hpp</text>
</a>
</g>
</g>
<!-- Node1&#45;&gt;Node19 -->
<g id="edge20" class="edge">
<title>Node1&#45;&gt;Node19</title>
<path fill="none" stroke="#63b8ff" d="M747.37,-235.95C817.58,-229 976.65,-212.69 1110,-195 1117.75,-193.97 1125.87,-192.82 1133.92,-191.64"/>
<polygon fill="#63b8ff" stroke="#63b8ff" points="1134.36,-195.12 1143.73,-190.18 1133.32,-188.19 1134.36,-195.12"/>
</g>
<!-- Node23 -->
<g id="node23" class="node">
<title>Node23</title>
<g id="a_node23"><a xlink:href="ProcessHmiInputs_8hpp.xhtml" target="_top" xlink:title=" ">
<polygon fill="white" stroke="#666666" points="541.5,-195 416.5,-195 416.5,-165 541.5,-165 541.5,-195"/>
<text text-anchor="start" x="424.5" y="-183" font-family="Helvetica,sans-Serif" font-size="10.00">user_interaction/Process</text>
<text text-anchor="middle" x="479" y="-172" font-family="Helvetica,sans-Serif" font-size="10.00">HmiInputs.hpp</text>
</a>
</g>
</g>
<!-- Node1&#45;&gt;Node23 -->
<g id="edge25" class="edge">
<title>Node1&#45;&gt;Node23</title>
<path fill="none" stroke="#63b8ff" d="M675.51,-230.55C641.49,-221.97 589.23,-208.79 547.15,-198.18"/>
<polygon fill="#63b8ff" stroke="#63b8ff" points="548.16,-194.83 537.6,-195.78 546.45,-201.62 548.16,-194.83"/>
</g>
<!-- Node25 -->
<g id="node25" class="node">
<title>Node25</title>
<g id="a_node25"><a xlink:href="display__factory__interface_8hpp.xhtml" target="_top" xlink:title="Dependency injection for the display.">
<polygon fill="white" stroke="#666666" points="1067.5,-195 948.5,-195 948.5,-165 1067.5,-165 1067.5,-195"/>
<text text-anchor="start" x="956.5" y="-183" font-family="Helvetica,sans-Serif" font-size="10.00">user_interaction/display</text>
<text text-anchor="middle" x="1008" y="-172" font-family="Helvetica,sans-Serif" font-size="10.00">_factory_interface.hpp</text>
</a>
</g>
</g>
<!-- Node1&#45;&gt;Node25 -->
<g id="edge28" class="edge">
<title>Node1&#45;&gt;Node25</title>
<path fill="none" stroke="#63b8ff" d="M747.35,-232.49C790.16,-224.22 863.73,-209.94 936.9,-195.41"/>
<polygon fill="#63b8ff" stroke="#63b8ff" points="937.56,-198.85 946.68,-193.46 936.19,-191.98 937.56,-198.85"/>
</g>
<!-- Node26 -->
<g id="node26" class="node">
<title>Node26</title>
<g id="a_node26"><a xlink:href="keypad__factory__interface_8hpp.xhtml" target="_top" xlink:title="Dependency injection for the keypad.">
<polygon fill="white" stroke="#666666" points="398.5,-195 279.5,-195 279.5,-165 398.5,-165 398.5,-195"/>
<text text-anchor="start" x="287.5" y="-183" font-family="Helvetica,sans-Serif" font-size="10.00">user_interaction/keypad</text>
<text text-anchor="middle" x="339" y="-172" font-family="Helvetica,sans-Serif" font-size="10.00">_factory_interface.hpp</text>
</a>
</g>
</g>
<!-- Node1&#45;&gt;Node26 -->
<g id="edge30" class="edge">
<title>Node1&#45;&gt;Node26</title>
<path fill="none" stroke="#63b8ff" d="M674.86,-234.9C619.8,-227.73 511.37,-213.04 409.75,-195.42"/>
<polygon fill="#63b8ff" stroke="#63b8ff" points="410.61,-192.02 400.16,-193.75 409.41,-198.92 410.61,-192.02"/>
</g>
<!-- Node28 -->
<g id="node28" class="node">
<title>Node28</title>
<g id="a_node28"><a xlink:href="statusindicators__factory__interface_8hpp.xhtml" target="_top" xlink:title="Dependency injection for the keypad.">
<polygon fill="white" stroke="#666666" points="1452,-195 1294,-195 1294,-165 1452,-165 1452,-195"/>
<text text-anchor="start" x="1302" y="-183" font-family="Helvetica,sans-Serif" font-size="10.00">user_interaction/statusindicators</text>
<text text-anchor="middle" x="1373" y="-172" font-family="Helvetica,sans-Serif" font-size="10.00">_factory_interface.hpp</text>
</a>
</g>
</g>
<!-- Node1&#45;&gt;Node28 -->
<g id="edge34" class="edge">
<title>Node1&#45;&gt;Node28</title>
<path fill="none" stroke="#63b8ff" d="M747.36,-237.7C836.64,-233.06 1073.97,-219.41 1282.71,-195.2"/>
<polygon fill="#63b8ff" stroke="#63b8ff" points="1282.86,-198.71 1292.38,-194.07 1282.04,-191.76 1282.86,-198.71"/>
</g>
<!-- Node5 -->
<g id="node5" class="node">
<title>Node5</title>
<g id="a_node5"><a xlink:title=" ">
<polygon fill="#e0e0e0" stroke="#999999" points="291,-129 253,-129 253,-110 291,-110 291,-129"/>
<text text-anchor="middle" x="272" y="-117" font-family="Helvetica,sans-Serif" font-size="10.00">array</text>
</a>
</g>
</g>
<!-- Node4&#45;&gt;Node5 -->
<g id="edge4" class="edge">
<title>Node4&#45;&gt;Node5</title>
<path fill="none" stroke="#63b8ff" d="M223.07,-164.54C232.41,-156.13 244.22,-145.51 253.89,-136.8"/>
<polygon fill="#63b8ff" stroke="#63b8ff" points="256.14,-139.48 261.24,-130.19 251.46,-134.28 256.14,-139.48"/>
</g>
<!-- Node6 -->
<g id="node6" class="node">
<title>Node6</title>
<g id="a_node6"><a xlink:title=" ">
<polygon fill="#e0e0e0" stroke="#999999" points="318.5,-74 259.5,-74 259.5,-55 318.5,-55 318.5,-74"/>
<text text-anchor="middle" x="289" y="-62" font-family="Helvetica,sans-Serif" font-size="10.00">functional</text>
</a>
</g>
</g>
<!-- Node4&#45;&gt;Node6 -->
<g id="edge5" class="edge">
<title>Node4&#45;&gt;Node6</title>
<path fill="none" stroke="#63b8ff" d="M213.22,-164.52C219.78,-150.02 230.98,-127.42 244,-110 251.61,-99.81 261.54,-89.73 270.14,-81.75"/>
<polygon fill="#63b8ff" stroke="#63b8ff" points="272.23,-84.58 277.33,-75.29 267.56,-79.37 272.23,-84.58"/>
</g>
<!-- Node7 -->
<g id="node7" class="node">
<title>Node7</title>
<g id="a_node7"><a xlink:title=" ">
<polygon fill="#e0e0e0" stroke="#999999" points="359,-129 309,-129 309,-110 359,-110 359,-129"/>
<text text-anchor="middle" x="334" y="-117" font-family="Helvetica,sans-Serif" font-size="10.00">optional</text>
</a>
</g>
</g>
<!-- Node4&#45;&gt;Node7 -->
<g id="edge6" class="edge">
<title>Node4&#45;&gt;Node7</title>
<path fill="none" stroke="#63b8ff" d="M238.39,-164.54C258.6,-155.23 284.69,-143.22 304.51,-134.09"/>
<polygon fill="#63b8ff" stroke="#63b8ff" points="305.8,-137.34 313.42,-129.98 302.87,-130.98 305.8,-137.34"/>
</g>
<!-- Node8 -->
<g id="node8" class="node">
<title>Node8</title>
<g id="a_node8"><a xlink:title=" ">
<polygon fill="#e0e0e0" stroke="#999999" points="325,-19 273,-19 273,0 325,0 325,-19"/>
<text text-anchor="middle" x="299" y="-7" font-family="Helvetica,sans-Serif" font-size="10.00">ostream</text>
</a>
</g>
</g>
<!-- Node4&#45;&gt;Node8 -->
<g id="edge7" class="edge">
<title>Node4&#45;&gt;Node8</title>
<path fill="none" stroke="#63b8ff" d="M209.45,-164.5C214.1,-140.13 225.97,-90.19 250,-55 257.39,-44.18 267.91,-34.17 277.32,-26.4"/>
<polygon fill="#63b8ff" stroke="#63b8ff" points="279.3,-29.29 285,-20.36 274.97,-23.79 279.3,-29.29"/>
</g>
<!-- Node9 -->
<g id="node9" class="node">
<title>Node9</title>
<g id="a_node9"><a xlink:title=" ">
<polygon fill="#e0e0e0" stroke="#999999" points="158.5,-129 117.5,-129 117.5,-110 158.5,-110 158.5,-129"/>
<text text-anchor="middle" x="138" y="-117" font-family="Helvetica,sans-Serif" font-size="10.00">string</text>
</a>
</g>
</g>
<!-- Node4&#45;&gt;Node9 -->
<g id="edge8" class="edge">
<title>Node4&#45;&gt;Node9</title>
<path fill="none" stroke="#63b8ff" d="M189.94,-164.54C179.92,-156.04 167.24,-145.29 156.91,-136.53"/>
<polygon fill="#63b8ff" stroke="#63b8ff" points="159.28,-133.95 149.39,-130.15 154.75,-139.29 159.28,-133.95"/>
</g>
<!-- Node11 -->
<g id="node11" class="node">
<title>Node11</title>
<g id="a_node11"><a xlink:href="ProtocolVersionObject_8hpp.xhtml" target="_top" xlink:title=" ">
<polygon fill="white" stroke="#666666" points="790,-129 658,-129 658,-110 790,-110 790,-129"/>
<text text-anchor="middle" x="724" y="-117" font-family="Helvetica,sans-Serif" font-size="10.00">ProtocolVersionObject.hpp</text>
</a>
</g>
</g>
<!-- Node10&#45;&gt;Node11 -->
<g id="edge10" class="edge">
<title>Node10&#45;&gt;Node11</title>
<path fill="none" stroke="#63b8ff" d="M782.52,-170.12C772.08,-161.27 755.83,-147.48 743.09,-136.69"/>
<polygon fill="#63b8ff" stroke="#63b8ff" points="745.62,-134.24 735.73,-130.45 741.1,-139.58 745.62,-134.24"/>
</g>
<!-- Node13 -->
<g id="node13" class="node">
<title>Node13</title>
<g id="a_node13"><a xlink:title=" ">
<polygon fill="#e0e0e0" stroke="#999999" points="906,-129 808,-129 808,-110 906,-110 906,-129"/>
<text text-anchor="middle" x="857" y="-117" font-family="Helvetica,sans-Serif" font-size="10.00">nlohmann/json.hpp</text>
</a>
</g>
</g>
<!-- Node10&#45;&gt;Node13 -->
<g id="edge12" class="edge">
<title>Node10&#45;&gt;Node13</title>
<path fill="none" stroke="#63b8ff" d="M802.72,-170.12C812.31,-161.35 827.19,-147.75 838.94,-137"/>
<polygon fill="#63b8ff" stroke="#63b8ff" points="841.05,-139.82 846.07,-130.49 836.33,-134.65 841.05,-139.82"/>
</g>
<!-- Node12 -->
<g id="node12" class="node">
<title>Node12</title>
<g id="a_node12"><a xlink:title=" ">
<polygon fill="#e0e0e0" stroke="#999999" points="747,-74 701,-74 701,-55 747,-55 747,-74"/>
<text text-anchor="middle" x="724" y="-62" font-family="Helvetica,sans-Serif" font-size="10.00">cstdint</text>
</a>
</g>
</g>
<!-- Node11&#45;&gt;Node12 -->
<g id="edge11" class="edge">
<title>Node11&#45;&gt;Node12</title>
<path fill="none" stroke="#63b8ff" d="M724,-109.75C724,-103.27 724,-94.16 724,-85.9"/>
<polygon fill="#63b8ff" stroke="#63b8ff" points="727.5,-85.96 724,-75.96 720.5,-85.96 727.5,-85.96"/>
</g>
<!-- Node14&#45;&gt;Node2 -->
<g id="edge14" class="edge">
<title>Node14&#45;&gt;Node2</title>
<path fill="none" stroke="#63b8ff" d="M82.37,-170.12C71.78,-161.27 55.29,-147.48 42.37,-136.69"/>
<polygon fill="#63b8ff" stroke="#63b8ff" points="44.81,-134.17 34.89,-130.44 40.32,-139.54 44.81,-134.17"/>
</g>
<!-- Node14&#45;&gt;Node9 -->
<g id="edge16" class="edge">
<title>Node14&#45;&gt;Node9</title>
<path fill="none" stroke="#63b8ff" d="M99.64,-170.37C106.15,-161.9 116.28,-148.74 124.49,-138.07"/>
<polygon fill="#63b8ff" stroke="#63b8ff" points="127.09,-140.43 130.41,-130.37 121.54,-136.16 127.09,-140.43"/>
</g>
<!-- Node15 -->
<g id="node15" class="node">
<title>Node15</title>
<g id="a_node15"><a xlink:title=" ">
<polygon fill="#e0e0e0" stroke="#999999" points="99.5,-129 64.5,-129 64.5,-110 99.5,-110 99.5,-129"/>
<text text-anchor="middle" x="82" y="-117" font-family="Helvetica,sans-Serif" font-size="10.00">map</text>
</a>
</g>
</g>
<!-- Node14&#45;&gt;Node15 -->
<g id="edge15" class="edge">
<title>Node14&#45;&gt;Node15</title>
<path fill="none" stroke="#63b8ff" d="M91.38,-170.37C89.9,-162.5 87.66,-150.6 85.74,-140.39"/>
<polygon fill="#63b8ff" stroke="#63b8ff" points="89.2,-139.84 83.91,-130.65 82.32,-141.13 89.2,-139.84"/>
</g>
<!-- Node18 -->
<g id="node18" class="node">
<title>Node18</title>
<g id="a_node18"><a xlink:href="IDisplay_8hpp.xhtml" target="_top" xlink:title=" ">
<polygon fill="white" stroke="#666666" points="1081.5,-74 1012.5,-74 1012.5,-55 1081.5,-55 1081.5,-74"/>
<text text-anchor="middle" x="1047" y="-62" font-family="Helvetica,sans-Serif" font-size="10.00">IDisplay.hpp</text>
</a>
</g>
</g>
<!-- Node17&#45;&gt;Node18 -->
<g id="edge19" class="edge">
<title>Node17&#45;&gt;Node18</title>
<path fill="none" stroke="#63b8ff" d="M1086.24,-109.75C1079.81,-102.5 1070.49,-91.98 1062.54,-83.02"/>
<polygon fill="#63b8ff" stroke="#63b8ff" points="1065.19,-80.73 1055.93,-75.57 1059.95,-85.38 1065.19,-80.73"/>
</g>
<!-- Node19&#45;&gt;Node17 -->
<g id="edge22" class="edge">
<title>Node19&#45;&gt;Node17</title>
<path fill="none" stroke="#63b8ff" d="M1184.75,-170.12C1167.7,-160.79 1140.64,-146 1120.49,-134.99"/>
<polygon fill="#63b8ff" stroke="#63b8ff" points="1122.19,-131.92 1111.73,-130.19 1118.83,-138.06 1122.19,-131.92"/>
</g>
<!-- Node20 -->
<g id="node20" class="node">
<title>Node20</title>
<g id="a_node20"><a xlink:href="IStatusIndicator_8hpp.xhtml" target="_top" xlink:title=" ">
<polygon fill="white" stroke="#666666" points="1349,-129 1245,-129 1245,-110 1349,-110 1349,-129"/>
<text text-anchor="middle" x="1297" y="-117" font-family="Helvetica,sans-Serif" font-size="10.00">IStatusIndicator.hpp</text>
</a>
</g>
</g>
<!-- Node19&#45;&gt;Node20 -->
<g id="edge21" class="edge">
<title>Node19&#45;&gt;Node20</title>
<path fill="none" stroke="#63b8ff" d="M1215.58,-170.12C1230.66,-160.92 1254.49,-146.41 1272.48,-135.44"/>
<polygon fill="#63b8ff" stroke="#63b8ff" points="1274.27,-138.45 1280.99,-130.26 1270.63,-132.47 1274.27,-138.45"/>
</g>
<!-- Node21 -->
<g id="node21" class="node">
<title>Node21</title>
<g id="a_node21"><a xlink:title=" ">
<polygon fill="#e0e0e0" stroke="#999999" points="1226.5,-129 1177.5,-129 1177.5,-110 1226.5,-110 1226.5,-129"/>
<text text-anchor="middle" x="1202" y="-117" font-family="Helvetica,sans-Serif" font-size="10.00">cstddef</text>
</a>
</g>
</g>
<!-- Node19&#45;&gt;Node21 -->
<g id="edge23" class="edge">
<title>Node19&#45;&gt;Node21</title>
<path fill="none" stroke="#63b8ff" d="M1201.15,-170.37C1201.28,-162.5 1201.49,-150.6 1201.66,-140.39"/>
<polygon fill="#63b8ff" stroke="#63b8ff" points="1205.15,-140.74 1201.83,-130.68 1198.16,-140.62 1205.15,-140.74"/>
</g>
<!-- Node22 -->
<g id="node22" class="node">
<title>Node22</title>
<g id="a_node22"><a xlink:title=" ">
<polygon fill="#e0e0e0" stroke="#999999" points="1411,-129 1367,-129 1367,-110 1411,-110 1411,-129"/>
<text text-anchor="middle" x="1389" y="-117" font-family="Helvetica,sans-Serif" font-size="10.00">vector</text>
</a>
</g>
</g>
<!-- Node19&#45;&gt;Node22 -->
<g id="edge24" class="edge">
<title>Node19&#45;&gt;Node22</title>
<path fill="none" stroke="#63b8ff" d="M1229.55,-170.12C1263.48,-159.56 1319.98,-141.98 1355.81,-130.83"/>
<polygon fill="#63b8ff" stroke="#63b8ff" points="1356.72,-134.21 1365.22,-127.9 1354.64,-127.53 1356.72,-134.21"/>
</g>
<!-- Node24 -->
<g id="node24" class="node">
<title>Node24</title>
<g id="a_node24"><a xlink:href="KeyIds_8hpp.xhtml" target="_top" xlink:title=" ">
<polygon fill="white" stroke="#666666" points="444.5,-74 379.5,-74 379.5,-55 444.5,-55 444.5,-74"/>
<text text-anchor="middle" x="412" y="-62" font-family="Helvetica,sans-Serif" font-size="10.00">KeyIds.hpp</text>
</a>
</g>
</g>
<!-- Node23&#45;&gt;Node24 -->
<g id="edge26" class="edge">
<title>Node23&#45;&gt;Node24</title>
<path fill="none" stroke="#63b8ff" d="M476.24,-164.7C472.99,-150.15 466.64,-127.32 456,-110 449.57,-99.53 440.23,-89.63 431.81,-81.83"/>
<polygon fill="#63b8ff" stroke="#63b8ff" points="434.18,-79.25 424.36,-75.27 429.55,-84.5 434.18,-79.25"/>
</g>
<!-- Node24&#45;&gt;Node8 -->
<g id="edge27" class="edge">
<title>Node24&#45;&gt;Node8</title>
<path fill="none" stroke="#63b8ff" d="M392.83,-54.51C375.11,-46.2 348.52,-33.73 328.17,-24.18"/>
<polygon fill="#63b8ff" stroke="#63b8ff" points="329.8,-21.08 319.26,-20 326.82,-27.42 329.8,-21.08"/>
</g>
<!-- Node25&#45;&gt;Node18 -->
<g id="edge29" class="edge">
<title>Node25&#45;&gt;Node18</title>
<path fill="none" stroke="#63b8ff" d="M1008.62,-164.56C1009.61,-150.3 1012.21,-128.05 1019,-110 1022.49,-100.73 1028.05,-91.33 1033.29,-83.57"/>
<polygon fill="#63b8ff" stroke="#63b8ff" points="1035.96,-85.86 1038.93,-75.7 1030.27,-81.79 1035.96,-85.86"/>
</g>
<!-- Node27 -->
<g id="node27" class="node">
<title>Node27</title>
<g id="a_node27"><a xlink:href="IKeypad_8hpp.xhtml" target="_top" xlink:title=" ">
<polygon fill="white" stroke="#666666" points="447,-129 377,-129 377,-110 447,-110 447,-129"/>
<text text-anchor="middle" x="412" y="-117" font-family="Helvetica,sans-Serif" font-size="10.00">IKeypad.hpp</text>
</a>
</g>
</g>
<!-- Node26&#45;&gt;Node27 -->
<g id="edge31" class="edge">
<title>Node26&#45;&gt;Node27</title>
<path fill="none" stroke="#63b8ff" d="M357.04,-164.54C367.76,-155.96 381.34,-145.07 392.33,-136.26"/>
<polygon fill="#63b8ff" stroke="#63b8ff" points="394.38,-139.11 399.99,-130.12 390,-133.64 394.38,-139.11"/>
</g>
<!-- Node27&#45;&gt;Node6 -->
<g id="edge33" class="edge">
<title>Node27&#45;&gt;Node6</title>
<path fill="none" stroke="#63b8ff" d="M391.13,-109.51C371.58,-101.08 342.1,-88.38 319.83,-78.79"/>
<polygon fill="#63b8ff" stroke="#63b8ff" points="321.52,-75.7 310.95,-74.96 318.75,-82.13 321.52,-75.7"/>
</g>
<!-- Node27&#45;&gt;Node24 -->
<g id="edge32" class="edge">
<title>Node27&#45;&gt;Node24</title>
<path fill="none" stroke="#63b8ff" d="M412,-109.75C412,-103.27 412,-94.16 412,-85.9"/>
<polygon fill="#63b8ff" stroke="#63b8ff" points="415.5,-85.96 412,-75.96 408.5,-85.96 415.5,-85.96"/>
</g>
<!-- Node28&#45;&gt;Node20 -->
<g id="edge35" class="edge">
<title>Node28&#45;&gt;Node20</title>
<path fill="none" stroke="#63b8ff" d="M1354.21,-164.54C1342.95,-155.87 1328.63,-144.85 1317.13,-136"/>
<polygon fill="#63b8ff" stroke="#63b8ff" points="1319.53,-133.42 1309.47,-130.1 1315.26,-138.97 1319.53,-133.42"/>
</g>
<!-- Node28&#45;&gt;Node22 -->
<g id="edge36" class="edge">
<title>Node28&#45;&gt;Node22</title>
<path fill="none" stroke="#63b8ff" d="M1376.96,-164.54C1378.97,-157.17 1381.45,-148.1 1383.64,-140.11"/>
<polygon fill="#63b8ff" stroke="#63b8ff" points="1386.97,-141.2 1386.23,-130.64 1380.21,-139.36 1386.97,-141.2"/>
</g>
</g>
</svg>
