<?xml version="1.0" encoding="UTF-8" standalone="no"?>
<!DOCTYPE svg PUBLIC "-//W3C//DTD SVG 1.1//EN"
 "http://www.w3.org/Graphics/SVG/1.1/DTD/svg11.dtd">
<!-- Generated by graphviz version 7.0.5 (20221223.1930)
 -->
<!-- Title: lib/application_business_rules/serial_interface/Protocol.cpp Pages: 1 -->
<svg width="1007pt" height="225pt"
 viewBox="0.00 0.00 1006.50 225.00" xmlns="http://www.w3.org/2000/svg" xmlns:xlink="http://www.w3.org/1999/xlink">
<g id="graph0" class="graph" transform="scale(1 1) rotate(0) translate(4 221)">
<title>lib/application_business_rules/serial_interface/Protocol.cpp</title>
<!-- Node1 -->
<g id="node1" class="node">
<title>Node1</title>
<g id="a_node1"><a xlink:title=" ">
<polygon fill="#999999" stroke="#666666" points="317.5,-217 197.5,-217 197.5,-176 317.5,-176 317.5,-217"/>
<text text-anchor="start" x="205.5" y="-205" font-family="Helvetica,sans-Serif" font-size="10.00">lib/application_business</text>
<text text-anchor="start" x="205.5" y="-194" font-family="Helvetica,sans-Serif" font-size="10.00">_rules/serial_interface</text>
<text text-anchor="middle" x="257.5" y="-183" font-family="Helvetica,sans-Serif" font-size="10.00">/Protocol.cpp</text>
</a>
</g>
</g>
<!-- Node2 -->
<g id="node2" class="node">
<title>Node2</title>
<g id="a_node2"><a xlink:href="Protocol_8hpp.xhtml" target="_top" xlink:title=" ">
<polygon fill="white" stroke="#666666" points="71,-134.5 0,-134.5 0,-115.5 71,-115.5 71,-134.5"/>
<text text-anchor="middle" x="35.5" y="-122.5" font-family="Helvetica,sans-Serif" font-size="10.00">Protocol.hpp</text>
</a>
</g>
</g>
<!-- Node1&#45;&gt;Node2 -->
<g id="edge1" class="edge">
<title>Node1&#45;&gt;Node2</title>
<path fill="none" stroke="#63b8ff" d="M197.13,-176.6C158.26,-164.43 108.84,-148.96 74.94,-138.35"/>
<polygon fill="#63b8ff" stroke="#63b8ff" points="76.11,-135.05 65.52,-135.4 74.02,-141.73 76.11,-135.05"/>
</g>
<!-- Node3 -->
<g id="node3" class="node">
<title>Node3</title>
<g id="a_node3"><a xlink:href="command__line__interpreter_8hpp.xhtml" target="_top" xlink:title=" ">
<polygon fill="white" stroke="#666666" points="753.5,-134.5 607.5,-134.5 607.5,-115.5 753.5,-115.5 753.5,-134.5"/>
<text text-anchor="middle" x="680.5" y="-122.5" font-family="Helvetica,sans-Serif" font-size="10.00">command_line_interpreter.hpp</text>
</a>
</g>
</g>
<!-- Node1&#45;&gt;Node3 -->
<g id="edge2" class="edge">
<title>Node1&#45;&gt;Node3</title>
<path fill="none" stroke="#63b8ff" d="M317.66,-185.62C396.3,-172.7 533.56,-150.14 614.84,-136.79"/>
<polygon fill="#63b8ff" stroke="#63b8ff" points="615.13,-140.29 624.43,-135.21 613.99,-133.38 615.13,-140.29"/>
</g>
<!-- Node11 -->
<g id="node11" class="node">
<title>Node11</title>
<g id="a_node11"><a xlink:title=" ">
<polygon fill="#e0e0e0" stroke="#999999" points="347,-19 306,-19 306,0 347,0 347,-19"/>
<text text-anchor="middle" x="326.5" y="-7" font-family="Helvetica,sans-Serif" font-size="10.00">string</text>
</a>
</g>
</g>
<!-- Node1&#45;&gt;Node11 -->
<g id="edge26" class="edge">
<title>Node1&#45;&gt;Node11</title>
<path fill="none" stroke="#63b8ff" d="M245.17,-175.67C228.99,-146.84 205.33,-92.68 229.5,-55 243.73,-32.82 272.08,-21.55 294.48,-15.91"/>
<polygon fill="#63b8ff" stroke="#63b8ff" points="295.06,-19.37 304.06,-13.78 293.54,-12.54 295.06,-19.37"/>
</g>
<!-- Node15 -->
<g id="node15" class="node">
<title>Node15</title>
<g id="a_node15"><a xlink:href="serial__port_8hpp.xhtml" target="_top" xlink:title=" ">
<polygon fill="white" stroke="#666666" points="397.5,-134.5 317.5,-134.5 317.5,-115.5 397.5,-115.5 397.5,-134.5"/>
<text text-anchor="middle" x="357.5" y="-122.5" font-family="Helvetica,sans-Serif" font-size="10.00">serial_port.hpp</text>
</a>
</g>
</g>
<!-- Node1&#45;&gt;Node15 -->
<g id="edge15" class="edge">
<title>Node1&#45;&gt;Node15</title>
<path fill="none" stroke="#63b8ff" d="M286.16,-175.58C301.82,-164.7 320.92,-151.42 335.42,-141.35"/>
<polygon fill="#63b8ff" stroke="#63b8ff" points="337.16,-144.4 343.37,-135.82 333.16,-138.65 337.16,-144.4"/>
</g>
<!-- Node16 -->
<g id="node16" class="node">
<title>Node16</title>
<g id="a_node16"><a xlink:title=" ">
<polygon fill="#e0e0e0" stroke="#999999" points="276.5,-74 238.5,-74 238.5,-55 276.5,-55 276.5,-74"/>
<text text-anchor="middle" x="257.5" y="-62" font-family="Helvetica,sans-Serif" font-size="10.00">array</text>
</a>
</g>
</g>
<!-- Node1&#45;&gt;Node16 -->
<g id="edge21" class="edge">
<title>Node1&#45;&gt;Node16</title>
<path fill="none" stroke="#63b8ff" d="M257.5,-175.76C257.5,-151.43 257.5,-110.32 257.5,-85.76"/>
<polygon fill="#63b8ff" stroke="#63b8ff" points="261,-85.83 257.5,-75.83 254,-85.83 261,-85.83"/>
</g>
<!-- Node19 -->
<g id="node19" class="node">
<title>Node19</title>
<g id="a_node19"><a xlink:href="JsonGenerator_8hpp.xhtml" target="_top" xlink:title=" ">
<polygon fill="white" stroke="#666666" points="187.5,-134.5 89.5,-134.5 89.5,-115.5 187.5,-115.5 187.5,-134.5"/>
<text text-anchor="middle" x="138.5" y="-122.5" font-family="Helvetica,sans-Serif" font-size="10.00">JsonGenerator.hpp</text>
</a>
</g>
</g>
<!-- Node1&#45;&gt;Node19 -->
<g id="edge22" class="edge">
<title>Node1&#45;&gt;Node19</title>
<path fill="none" stroke="#63b8ff" d="M223.4,-175.58C204.22,-164.38 180.71,-150.65 163.3,-140.48"/>
<polygon fill="#63b8ff" stroke="#63b8ff" points="165.54,-137.74 155.14,-135.72 162.01,-143.78 165.54,-137.74"/>
</g>
<!-- Node20 -->
<g id="node20" class="node">
<title>Node20</title>
<g id="a_node20"><a xlink:href="ProtocolVersionObject_8hpp.xhtml" target="_top" xlink:title=" ">
<polygon fill="white" stroke="#666666" points="986,-140 867,-140 867,-110 986,-110 986,-140"/>
<text text-anchor="start" x="875" y="-128" font-family="Helvetica,sans-Serif" font-size="10.00">serial_protocol/Protocol</text>
<text text-anchor="middle" x="926.5" y="-117" font-family="Helvetica,sans-Serif" font-size="10.00">VersionObject.hpp</text>
</a>
</g>
</g>
<!-- Node1&#45;&gt;Node20 -->
<g id="edge24" class="edge">
<title>Node1&#45;&gt;Node20</title>
<path fill="none" stroke="#63b8ff" d="M317.75,-189.24C441.34,-176.4 722.99,-147.14 855.32,-133.39"/>
<polygon fill="#63b8ff" stroke="#63b8ff" points="855.41,-136.9 865,-132.39 854.69,-129.94 855.41,-136.9"/>
</g>
<!-- Node4 -->
<g id="node4" class="node">
<title>Node4</title>
<g id="a_node4"><a xlink:title=" ">
<polygon fill="#e0e0e0" stroke="#999999" points="530,-74 471,-74 471,-55 530,-55 530,-74"/>
<text text-anchor="middle" x="500.5" y="-62" font-family="Helvetica,sans-Serif" font-size="10.00">functional</text>
</a>
</g>
</g>
<!-- Node3&#45;&gt;Node4 -->
<g id="edge3" class="edge">
<title>Node3&#45;&gt;Node4</title>
<path fill="none" stroke="#63b8ff" d="M653.16,-115.12C622.63,-105.19 573.01,-89.07 538.67,-77.9"/>
<polygon fill="#63b8ff" stroke="#63b8ff" points="540.13,-74.7 529.53,-74.94 537.96,-81.36 540.13,-74.7"/>
</g>
<!-- Node5 -->
<g id="node5" class="node">
<title>Node5</title>
<g id="a_node5"><a xlink:title=" ">
<polygon fill="#e0e0e0" stroke="#999999" points="754.5,-74 700.5,-74 700.5,-55 754.5,-55 754.5,-74"/>
<text text-anchor="middle" x="727.5" y="-62" font-family="Helvetica,sans-Serif" font-size="10.00">iostream</text>
</a>
</g>
</g>
<!-- Node3&#45;&gt;Node5 -->
<g id="edge4" class="edge">
<title>Node3&#45;&gt;Node5</title>
<path fill="none" stroke="#63b8ff" d="M687.44,-115.37C694.24,-106.9 704.81,-93.74 713.39,-83.07"/>
<polygon fill="#63b8ff" stroke="#63b8ff" points="716.05,-85.34 719.59,-75.35 710.6,-80.95 716.05,-85.34"/>
</g>
<!-- Node6 -->
<g id="node6" class="node">
<title>Node6</title>
<g id="a_node6"><a xlink:title=" ">
<polygon fill="#e0e0e0" stroke="#999999" points="820,-74 773,-74 773,-55 820,-55 820,-74"/>
<text text-anchor="middle" x="796.5" y="-62" font-family="Helvetica,sans-Serif" font-size="10.00">iterator</text>
</a>
</g>
</g>
<!-- Node3&#45;&gt;Node6 -->
<g id="edge5" class="edge">
<title>Node3&#45;&gt;Node6</title>
<path fill="none" stroke="#63b8ff" d="M698.12,-115.12C716.85,-105.67 746.75,-90.59 768.68,-79.53"/>
<polygon fill="#63b8ff" stroke="#63b8ff" points="770.01,-82.78 777.36,-75.15 766.86,-76.53 770.01,-82.78"/>
</g>
<!-- Node7 -->
<g id="node7" class="node">
<title>Node7</title>
<g id="a_node7"><a xlink:title=" ">
<polygon fill="#e0e0e0" stroke="#999999" points="588,-19 529,-19 529,0 588,0 588,-19"/>
<text text-anchor="middle" x="558.5" y="-7" font-family="Helvetica,sans-Serif" font-size="10.00">stdexcept</text>
</a>
</g>
</g>
<!-- Node3&#45;&gt;Node7 -->
<g id="edge6" class="edge">
<title>Node3&#45;&gt;Node7</title>
<path fill="none" stroke="#63b8ff" d="M646.77,-115.08C624.5,-107.56 596.24,-94.64 578.5,-74 568,-61.79 563.01,-44.06 560.63,-30.43"/>
<polygon fill="#63b8ff" stroke="#63b8ff" points="564.15,-30.28 559.32,-20.85 557.21,-31.23 564.15,-30.28"/>
</g>
<!-- Node8 -->
<g id="node8" class="node">
<title>Node8</title>
<g id="a_node8"><a xlink:href="string__helpers_8hpp.xhtml" target="_top" xlink:title=" ">
<polygon fill="white" stroke="#666666" points="682,-74 587,-74 587,-55 682,-55 682,-74"/>
<text text-anchor="middle" x="634.5" y="-62" font-family="Helvetica,sans-Serif" font-size="10.00">string_helpers.hpp</text>
</a>
</g>
</g>
<!-- Node3&#45;&gt;Node8 -->
<g id="edge7" class="edge">
<title>Node3&#45;&gt;Node8</title>
<path fill="none" stroke="#63b8ff" d="M673.71,-115.37C667.05,-106.9 656.71,-93.74 648.31,-83.07"/>
<polygon fill="#63b8ff" stroke="#63b8ff" points="651.18,-81.05 642.25,-75.36 645.68,-85.38 651.18,-81.05"/>
</g>
<!-- Node13 -->
<g id="node13" class="node">
<title>Node13</title>
<g id="a_node13"><a xlink:title=" ">
<polygon fill="#e0e0e0" stroke="#999999" points="876.5,-74 838.5,-74 838.5,-55 876.5,-55 876.5,-74"/>
<text text-anchor="middle" x="857.5" y="-62" font-family="Helvetica,sans-Serif" font-size="10.00">tuple</text>
</a>
</g>
</g>
<!-- Node3&#45;&gt;Node13 -->
<g id="edge13" class="edge">
<title>Node3&#45;&gt;Node13</title>
<path fill="none" stroke="#63b8ff" d="M707.38,-115.12C739.7,-104.43 793.8,-86.55 827.46,-75.43"/>
<polygon fill="#63b8ff" stroke="#63b8ff" points="828.2,-78.87 836.6,-72.41 826.01,-72.22 828.2,-78.87"/>
</g>
<!-- Node14 -->
<g id="node14" class="node">
<title>Node14</title>
<g id="a_node14"><a xlink:title=" ">
<polygon fill="#e0e0e0" stroke="#999999" points="934,-74 895,-74 895,-55 934,-55 934,-74"/>
<text text-anchor="middle" x="914.5" y="-62" font-family="Helvetica,sans-Serif" font-size="10.00">utility</text>
</a>
</g>
</g>
<!-- Node3&#45;&gt;Node14 -->
<g id="edge14" class="edge">
<title>Node3&#45;&gt;Node14</title>
<path fill="none" stroke="#63b8ff" d="M719.55,-115.04C758.64,-105.94 820.74,-91.16 883.64,-74.4"/>
<polygon fill="#63b8ff" stroke="#63b8ff" points="884.35,-77.84 893.1,-71.87 882.54,-71.07 884.35,-77.84"/>
</g>
<!-- Node8&#45;&gt;Node7 -->
<g id="edge10" class="edge">
<title>Node8&#45;&gt;Node7</title>
<path fill="none" stroke="#63b8ff" d="M621.61,-54.51C610.4,-46.7 593.93,-35.21 580.62,-25.93"/>
<polygon fill="#63b8ff" stroke="#63b8ff" points="582.65,-23.07 572.44,-20.22 578.64,-28.81 582.65,-23.07"/>
</g>
<!-- Node9 -->
<g id="node9" class="node">
<title>Node9</title>
<g id="a_node9"><a xlink:title=" ">
<polygon fill="#e0e0e0" stroke="#999999" points="656.5,-19 606.5,-19 606.5,0 656.5,0 656.5,-19"/>
<text text-anchor="middle" x="631.5" y="-7" font-family="Helvetica,sans-Serif" font-size="10.00">iomanip</text>
</a>
</g>
</g>
<!-- Node8&#45;&gt;Node9 -->
<g id="edge8" class="edge">
<title>Node8&#45;&gt;Node9</title>
<path fill="none" stroke="#63b8ff" d="M634,-54.75C633.64,-48.27 633.12,-39.16 632.65,-30.9"/>
<polygon fill="#63b8ff" stroke="#63b8ff" points="636.15,-30.74 632.09,-20.95 629.16,-31.13 636.15,-30.74"/>
</g>
<!-- Node10 -->
<g id="node10" class="node">
<title>Node10</title>
<g id="a_node10"><a xlink:title=" ">
<polygon fill="#e0e0e0" stroke="#999999" points="726.5,-19 674.5,-19 674.5,0 726.5,0 726.5,-19"/>
<text text-anchor="middle" x="700.5" y="-7" font-family="Helvetica,sans-Serif" font-size="10.00">sstream</text>
</a>
</g>
</g>
<!-- Node8&#45;&gt;Node10 -->
<g id="edge9" class="edge">
<title>Node8&#45;&gt;Node10</title>
<path fill="none" stroke="#63b8ff" d="M645.7,-54.51C655.24,-46.85 669.17,-35.66 680.61,-26.47"/>
<polygon fill="#63b8ff" stroke="#63b8ff" points="682.68,-29.3 688.29,-20.31 678.3,-23.84 682.68,-29.3"/>
</g>
<!-- Node8&#45;&gt;Node11 -->
<g id="edge11" class="edge">
<title>Node8&#45;&gt;Node11</title>
<path fill="none" stroke="#63b8ff" d="M586.71,-55.28C523.25,-44.36 412.87,-25.36 358.55,-16.02"/>
<polygon fill="#63b8ff" stroke="#63b8ff" points="359.18,-12.57 348.73,-14.33 357.99,-19.47 359.18,-12.57"/>
</g>
<!-- Node12 -->
<g id="node12" class="node">
<title>Node12</title>
<g id="a_node12"><a xlink:title=" ">
<polygon fill="#e0e0e0" stroke="#999999" points="788.5,-19 744.5,-19 744.5,0 788.5,0 788.5,-19"/>
<text text-anchor="middle" x="766.5" y="-7" font-family="Helvetica,sans-Serif" font-size="10.00">vector</text>
</a>
</g>
</g>
<!-- Node8&#45;&gt;Node12 -->
<g id="edge12" class="edge">
<title>Node8&#45;&gt;Node12</title>
<path fill="none" stroke="#63b8ff" d="M656.89,-54.51C678.07,-46.01 710.09,-33.15 734.06,-23.53"/>
<polygon fill="#63b8ff" stroke="#63b8ff" points="735.06,-26.9 743.03,-19.92 732.45,-20.4 735.06,-26.9"/>
</g>
<!-- Node15&#45;&gt;Node4 -->
<g id="edge17" class="edge">
<title>Node15&#45;&gt;Node4</title>
<path fill="none" stroke="#63b8ff" d="M379.22,-115.12C402.84,-105.45 440.86,-89.9 468.03,-78.78"/>
<polygon fill="#63b8ff" stroke="#63b8ff" points="469.25,-82.07 477.18,-75.04 466.6,-75.59 469.25,-82.07"/>
</g>
<!-- Node15&#45;&gt;Node11 -->
<g id="edge20" class="edge">
<title>Node15&#45;&gt;Node11</title>
<path fill="none" stroke="#63b8ff" d="M377.42,-115.19C402.15,-102.96 439.25,-79.56 423.5,-55 409.27,-32.82 380.92,-21.55 358.52,-15.91"/>
<polygon fill="#63b8ff" stroke="#63b8ff" points="359.46,-12.54 348.94,-13.78 357.94,-19.37 359.46,-12.54"/>
</g>
<!-- Node15&#45;&gt;Node16 -->
<g id="edge16" class="edge">
<title>Node15&#45;&gt;Node16</title>
<path fill="none" stroke="#63b8ff" d="M342.31,-115.12C326.45,-105.84 301.32,-91.13 282.52,-80.14"/>
<polygon fill="#63b8ff" stroke="#63b8ff" points="284.54,-77.26 274.14,-75.23 281,-83.3 284.54,-77.26"/>
</g>
<!-- Node17 -->
<g id="node17" class="node">
<title>Node17</title>
<g id="a_node17"><a xlink:title=" ">
<polygon fill="#e0e0e0" stroke="#999999" points="414.5,-74 364.5,-74 364.5,-55 414.5,-55 414.5,-74"/>
<text text-anchor="middle" x="389.5" y="-62" font-family="Helvetica,sans-Serif" font-size="10.00">optional</text>
</a>
</g>
</g>
<!-- Node15&#45;&gt;Node17 -->
<g id="edge18" class="edge">
<title>Node15&#45;&gt;Node17</title>
<path fill="none" stroke="#63b8ff" d="M362.22,-115.37C366.71,-107.16 373.61,-94.54 379.35,-84.05"/>
<polygon fill="#63b8ff" stroke="#63b8ff" points="382.3,-85.95 384.03,-75.5 376.16,-82.59 382.3,-85.95"/>
</g>
<!-- Node18 -->
<g id="node18" class="node">
<title>Node18</title>
<g id="a_node18"><a xlink:title=" ">
<polygon fill="#e0e0e0" stroke="#999999" points="346.5,-74 294.5,-74 294.5,-55 346.5,-55 346.5,-74"/>
<text text-anchor="middle" x="320.5" y="-62" font-family="Helvetica,sans-Serif" font-size="10.00">ostream</text>
</a>
</g>
</g>
<!-- Node15&#45;&gt;Node18 -->
<g id="edge19" class="edge">
<title>Node15&#45;&gt;Node18</title>
<path fill="none" stroke="#63b8ff" d="M352.04,-115.37C346.79,-107.07 338.7,-94.28 332.03,-83.72"/>
<polygon fill="#63b8ff" stroke="#63b8ff" points="335.09,-82.03 326.79,-75.45 329.18,-85.77 335.09,-82.03"/>
</g>
<!-- Node19&#45;&gt;Node11 -->
<g id="edge23" class="edge">
<title>Node19&#45;&gt;Node11</title>
<path fill="none" stroke="#63b8ff" d="M143.75,-115.04C152.75,-100.42 172.49,-71.45 196.5,-55 226.46,-34.47 266.76,-22.62 294.51,-16.39"/>
<polygon fill="#63b8ff" stroke="#63b8ff" points="295.03,-19.85 304.09,-14.36 293.58,-13.01 295.03,-19.85"/>
</g>
<!-- Node21 -->
<g id="node21" class="node">
<title>Node21</title>
<g id="a_node21"><a xlink:title=" ">
<polygon fill="#e0e0e0" stroke="#999999" points="998.5,-74 952.5,-74 952.5,-55 998.5,-55 998.5,-74"/>
<text text-anchor="middle" x="975.5" y="-62" font-family="Helvetica,sans-Serif" font-size="10.00">cstdint</text>
</a>
</g>
</g>
<!-- Node20&#45;&gt;Node21 -->
<g id="edge25" class="edge">
<title>Node20&#45;&gt;Node21</title>
<path fill="none" stroke="#63b8ff" d="M938.61,-109.54C945.37,-101.48 953.82,-91.38 960.94,-82.89"/>
<polygon fill="#63b8ff" stroke="#63b8ff" points="963.52,-85.25 967.26,-75.34 958.16,-80.75 963.52,-85.25"/>
</g>
</g>
</svg>
