<?xml version="1.0" encoding="UTF-8" standalone="no"?>
<!DOCTYPE svg PUBLIC "-//W3C//DTD SVG 1.1//EN"
 "http://www.w3.org/Graphics/SVG/1.1/DTD/svg11.dtd">
<!-- Generated by graphviz version 7.0.5 (20221223.1930)
 -->
<!-- Title: lib/board_adapters/status_indicators/statusindicators_factory_interface.cpp Pages: 1 -->
<svg width="394pt" height="236pt"
 viewBox="0.00 0.00 394.00 236.00" xmlns="http://www.w3.org/2000/svg" xmlns:xlink="http://www.w3.org/1999/xlink">
<g id="graph0" class="graph" transform="scale(1 1) rotate(0) translate(4 232)">
<title>lib/board_adapters/status_indicators/statusindicators_factory_interface.cpp</title>
<!-- Node1 -->
<g id="node1" class="node">
<title>Node1</title>
<g id="a_node1"><a xlink:title=" ">
<polygon fill="#999999" stroke="#666666" points="238,-228 72,-228 72,-187 238,-187 238,-228"/>
<text text-anchor="start" x="80" y="-216" font-family="Helvetica,sans-Serif" font-size="10.00">lib/board_adapters</text>
<text text-anchor="start" x="80" y="-205" font-family="Helvetica,sans-Serif" font-size="10.00">/status_indicators/statusindicators</text>
<text text-anchor="middle" x="155" y="-194" font-family="Helvetica,sans-Serif" font-size="10.00">_factory_interface.cpp</text>
</a>
</g>
</g>
<!-- Node2 -->
<g id="node2" class="node">
<title>Node2</title>
<g id="a_node2"><a xlink:href="status__indicators_8hpp.xhtml" target="_top" xlink:title=" ">
<polygon fill="white" stroke="#666666" points="209.5,-145.5 100.5,-145.5 100.5,-126.5 209.5,-126.5 209.5,-145.5"/>
<text text-anchor="middle" x="155" y="-133.5" font-family="Helvetica,sans-Serif" font-size="10.00">status_indicators.hpp</text>
</a>
</g>
</g>
<!-- Node1&#45;&gt;Node2 -->
<g id="edge1" class="edge">
<title>Node1&#45;&gt;Node2</title>
<path fill="none" stroke="#63b8ff" d="M155,-186.77C155,-177.5 155,-166.46 155,-157.14"/>
<polygon fill="#63b8ff" stroke="#63b8ff" points="158.5,-157.33 155,-147.33 151.5,-157.33 158.5,-157.33"/>
</g>
<!-- Node6 -->
<g id="node6" class="node">
<title>Node6</title>
<g id="a_node6"><a xlink:href="board__pins_8hpp.xhtml" target="_top" xlink:title="Provides named objects for the pins provided by the board.">
<polygon fill="white" stroke="#666666" points="82,-145.5 0,-145.5 0,-126.5 82,-126.5 82,-145.5"/>
<text text-anchor="middle" x="41" y="-133.5" font-family="Helvetica,sans-Serif" font-size="10.00">board_pins.hpp</text>
</a>
</g>
</g>
<!-- Node1&#45;&gt;Node6 -->
<g id="edge5" class="edge">
<title>Node1&#45;&gt;Node6</title>
<path fill="none" stroke="#63b8ff" d="M122.33,-186.58C104.13,-175.49 81.86,-161.91 65.23,-151.77"/>
<polygon fill="#63b8ff" stroke="#63b8ff" points="67.34,-148.96 56.98,-146.74 63.7,-154.94 67.34,-148.96"/>
</g>
<!-- Node7 -->
<g id="node7" class="node">
<title>Node7</title>
<g id="a_node7"><a xlink:href="statusindicators__factory__interface_8hpp.xhtml" target="_top" xlink:title="Dependency injection for the keypad.">
<polygon fill="white" stroke="#666666" points="386,-151 228,-151 228,-121 386,-121 386,-151"/>
<text text-anchor="start" x="236" y="-139" font-family="Helvetica,sans-Serif" font-size="10.00">user_interaction/statusindicators</text>
<text text-anchor="middle" x="307" y="-128" font-family="Helvetica,sans-Serif" font-size="10.00">_factory_interface.hpp</text>
</a>
</g>
</g>
<!-- Node1&#45;&gt;Node7 -->
<g id="edge7" class="edge">
<title>Node1&#45;&gt;Node7</title>
<path fill="none" stroke="#63b8ff" d="M198.56,-186.58C219.47,-177.02 244.43,-165.61 265.12,-156.15"/>
<polygon fill="#63b8ff" stroke="#63b8ff" points="266.5,-159.37 274.13,-152.03 263.58,-153 266.5,-159.37"/>
</g>
<!-- Node3 -->
<g id="node3" class="node">
<title>Node3</title>
<g id="a_node3"><a xlink:href="board__types_8hpp.xhtml" target="_top" xlink:title=" ">
<polygon fill="white" stroke="#666666" points="95.5,-79.5 8.5,-79.5 8.5,-60.5 95.5,-60.5 95.5,-79.5"/>
<text text-anchor="middle" x="52" y="-67.5" font-family="Helvetica,sans-Serif" font-size="10.00">board_types.hpp</text>
</a>
</g>
</g>
<!-- Node2&#45;&gt;Node3 -->
<g id="edge2" class="edge">
<title>Node2&#45;&gt;Node3</title>
<path fill="none" stroke="#63b8ff" d="M140.68,-126.1C123.92,-115.69 95.92,-98.29 75.86,-85.83"/>
<polygon fill="#63b8ff" stroke="#63b8ff" points="77.83,-82.93 67.49,-80.62 74.13,-88.87 77.83,-82.93"/>
</g>
<!-- Node5 -->
<g id="node5" class="node">
<title>Node5</title>
<g id="a_node5"><a xlink:href="IStatusIndicator_8hpp.xhtml" target="_top" xlink:title=" ">
<polygon fill="white" stroke="#666666" points="256,-85 136,-85 136,-55 256,-55 256,-85"/>
<text text-anchor="start" x="144" y="-73" font-family="Helvetica,sans-Serif" font-size="10.00">user_interaction/IStatus</text>
<text text-anchor="middle" x="196" y="-62" font-family="Helvetica,sans-Serif" font-size="10.00">Indicator.hpp</text>
</a>
</g>
</g>
<!-- Node2&#45;&gt;Node5 -->
<g id="edge4" class="edge">
<title>Node2&#45;&gt;Node5</title>
<path fill="none" stroke="#63b8ff" d="M160.7,-126.1C165.89,-118 173.79,-105.67 180.8,-94.73"/>
<polygon fill="#63b8ff" stroke="#63b8ff" points="183.62,-96.82 186.07,-86.51 177.72,-93.04 183.62,-96.82"/>
</g>
<!-- Node4 -->
<g id="node4" class="node">
<title>Node4</title>
<g id="a_node4"><a xlink:title=" ">
<polygon fill="#e0e0e0" stroke="#999999" points="75,-19 29,-19 29,0 75,0 75,-19"/>
<text text-anchor="middle" x="52" y="-7" font-family="Helvetica,sans-Serif" font-size="10.00">cstdint</text>
</a>
</g>
</g>
<!-- Node3&#45;&gt;Node4 -->
<g id="edge3" class="edge">
<title>Node3&#45;&gt;Node4</title>
<path fill="none" stroke="#63b8ff" d="M52,-60.37C52,-52.5 52,-40.6 52,-30.39"/>
<polygon fill="#63b8ff" stroke="#63b8ff" points="55.5,-30.68 52,-20.68 48.5,-30.68 55.5,-30.68"/>
</g>
<!-- Node6&#45;&gt;Node3 -->
<g id="edge6" class="edge">
<title>Node6&#45;&gt;Node3</title>
<path fill="none" stroke="#63b8ff" d="M42.53,-126.1C44.09,-117.03 46.56,-102.64 48.59,-90.85"/>
<polygon fill="#63b8ff" stroke="#63b8ff" points="51.98,-91.76 50.23,-81.32 45.08,-90.58 51.98,-91.76"/>
</g>
<!-- Node7&#45;&gt;Node5 -->
<g id="edge8" class="edge">
<title>Node7&#45;&gt;Node5</title>
<path fill="none" stroke="#63b8ff" d="M282.09,-120.64C266.95,-111.91 247.4,-100.63 230.75,-91.04"/>
<polygon fill="#63b8ff" stroke="#63b8ff" points="232.55,-88.03 222.14,-86.07 229.05,-94.1 232.55,-88.03"/>
</g>
<!-- Node8 -->
<g id="node8" class="node">
<title>Node8</title>
<g id="a_node8"><a xlink:title=" ">
<polygon fill="#e0e0e0" stroke="#999999" points="329,-79.5 285,-79.5 285,-60.5 329,-60.5 329,-79.5"/>
<text text-anchor="middle" x="307" y="-67.5" font-family="Helvetica,sans-Serif" font-size="10.00">vector</text>
</a>
</g>
</g>
<!-- Node7&#45;&gt;Node8 -->
<g id="edge9" class="edge">
<title>Node7&#45;&gt;Node8</title>
<path fill="none" stroke="#63b8ff" d="M307,-120.8C307,-112.09 307,-100.81 307,-91.18"/>
<polygon fill="#63b8ff" stroke="#63b8ff" points="310.5,-91.36 307,-81.36 303.5,-91.36 310.5,-91.36"/>
</g>
</g>
</svg>
