<?xml version="1.0" encoding="UTF-8" standalone="no"?>
<!DOCTYPE svg PUBLIC "-//W3C//DTD SVG 1.1//EN"
 "http://www.w3.org/Graphics/SVG/1.1/DTD/svg11.dtd">
<!-- Generated by graphviz version 7.0.5 (20221223.1930)
 -->
<!-- Title: task_tracker_systems::TaskObject Pages: 1 -->
<svg width="168pt" height="126pt"
 viewBox="0.00 0.00 167.50 126.00" xmlns="http://www.w3.org/2000/svg" xmlns:xlink="http://www.w3.org/1999/xlink">
<g id="graph0" class="graph" transform="scale(1 1) rotate(0) translate(4 122)">
<title>task_tracker_systems::TaskObject</title>
<!-- Node1 -->
<g id="node1" class="node">
<title>Node1</title>
<g id="a_node1"><a xlink:title="task object">
<polygon fill="#999999" stroke="#666666" points="140.5,-41 24.5,-41 24.5,0 140.5,0 140.5,-41"/>
<text text-anchor="start" x="32.5" y="-29" font-family="Helvetica,sans-Serif" font-size="10.00">{task_tracker_systems</text>
<text text-anchor="middle" x="82.5" y="-18" font-family="Helvetica,sans-Serif" font-size="10.00">::TaskObject</text>
<text text-anchor="middle" x="82.5" y="-7" font-family="Helvetica,sans-Serif" font-size="10.00">||}</text>
</a>
</g>
</g>
<!-- Node2 -->
<g id="node2" class="node">
<title>Node2</title>
<g id="a_node2"><a xlink:title=" ">
<polygon fill="white" stroke="#666666" points="33,-118 0,-118 0,-88 33,-88 33,-118"/>
<text text-anchor="middle" x="16.5" y="-106" font-family="Helvetica,sans-Serif" font-size="10.00">{rep</text>
<text text-anchor="middle" x="16.5" y="-95" font-family="Helvetica,sans-Serif" font-size="10.00">||}</text>
</a>
</g>
</g>
<!-- Node2&#45;&gt;Node1 -->
<g id="edge1" class="edge">
<title>Node2&#45;&gt;Node1</title>
<path fill="none" stroke="#404040" d="M20.93,-87.51C24.08,-78.7 28.92,-67.53 35.5,-59 37.91,-55.88 40.63,-52.86 43.52,-49.98"/>
<polygon fill="none" stroke="#404040" points="43.55,-49.95 45.33,-42.97 52.47,-41.93 50.69,-48.91 43.55,-49.95"/>
<text text-anchor="middle" x="57" y="-62" font-family="Helvetica,sans-Serif" font-size="10.00"> +duration</text>
</g>
<!-- Node3 -->
<g id="node3" class="node">
<title>Node3</title>
<g id="a_node3"><a xlink:title=" ">
<polygon fill="white" stroke="#666666" points="97.5,-118 67.5,-118 67.5,-88 97.5,-88 97.5,-118"/>
<text text-anchor="middle" x="82.5" y="-106" font-family="Helvetica,sans-Serif" font-size="10.00">{int</text>
<text text-anchor="middle" x="82.5" y="-95" font-family="Helvetica,sans-Serif" font-size="10.00">||}</text>
</a>
</g>
</g>
<!-- Node3&#45;&gt;Node1 -->
<g id="edge2" class="edge">
<title>Node3&#45;&gt;Node1</title>
<path fill="none" stroke="#404040" d="M82.5,-87.61C82.5,-78.31 82.5,-65.82 82.5,-54.21"/>
<polygon fill="none" stroke="#404040" points="82.5,-54.11 78.5,-48.11 82.5,-42.11 86.5,-48.11 82.5,-54.11"/>
<text text-anchor="middle" x="90.5" y="-62" font-family="Helvetica,sans-Serif" font-size="10.00"> +id</text>
</g>
<!-- Node4 -->
<g id="node4" class="node">
<title>Node4</title>
<g id="a_node4"><a xlink:title=" ">
<polygon fill="white" stroke="#666666" points="159.5,-118 115.5,-118 115.5,-88 159.5,-88 159.5,-118"/>
<text text-anchor="middle" x="137.5" y="-106" font-family="Helvetica,sans-Serif" font-size="10.00">{string</text>
<text text-anchor="middle" x="137.5" y="-95" font-family="Helvetica,sans-Serif" font-size="10.00">||}</text>
</a>
</g>
</g>
<!-- Node4&#45;&gt;Node1 -->
<g id="edge3" class="edge">
<title>Node4&#45;&gt;Node1</title>
<path fill="none" stroke="#404040" d="M127.67,-87.61C120.9,-77.71 111.66,-64.18 103.3,-51.95"/>
<polygon fill="none" stroke="#404040" points="103.24,-51.86 96.56,-49.17 96.48,-41.95 103.16,-44.65 103.24,-51.86"/>
<text text-anchor="middle" x="129" y="-62" font-family="Helvetica,sans-Serif" font-size="10.00"> +label</text>
</g>
</g>
</svg>
