<?xml version="1.0" encoding="UTF-8" standalone="no"?>
<!DOCTYPE svg PUBLIC "-//W3C//DTD SVG 1.1//EN"
 "http://www.w3.org/Graphics/SVG/1.1/DTD/svg11.dtd">
<!-- Generated by graphviz version 7.0.5 (20221223.1930)
 -->
<!-- Title: lib/enterprise_business_rules/serial_protocol/TaskList.hpp Pages: 1 -->
<svg width="167pt" height="159pt"
 viewBox="0.00 0.00 167.00 159.00" xmlns="http://www.w3.org/2000/svg" xmlns:xlink="http://www.w3.org/1999/xlink">
<g id="graph0" class="graph" transform="scale(1 1) rotate(0) translate(4 155)">
<title>lib/enterprise_business_rules/serial_protocol/TaskList.hpp</title>
<!-- Node1 -->
<g id="node1" class="node">
<title>Node1</title>
<g id="a_node1"><a xlink:title=" ">
<polygon fill="#999999" stroke="#666666" points="153,-151 37,-151 37,-110 153,-110 153,-151"/>
<text text-anchor="start" x="45" y="-139" font-family="Helvetica,sans-Serif" font-size="10.00">lib/enterprise_business</text>
<text text-anchor="start" x="45" y="-128" font-family="Helvetica,sans-Serif" font-size="10.00">_rules/serial_protocol</text>
<text text-anchor="middle" x="95" y="-117" font-family="Helvetica,sans-Serif" font-size="10.00">/TaskList.hpp</text>
</a>
</g>
</g>
<!-- Node2 -->
<g id="node2" class="node">
<title>Node2</title>
<g id="a_node2"><a xlink:href="TaskObject_8hpp.xhtml" target="_top" xlink:title=" ">
<polygon fill="white" stroke="#666666" points="96.5,-74 11.5,-74 11.5,-55 96.5,-55 96.5,-74"/>
<text text-anchor="middle" x="54" y="-62" font-family="Helvetica,sans-Serif" font-size="10.00">TaskObject.hpp</text>
</a>
</g>
</g>
<!-- Node1&#45;&gt;Node2 -->
<g id="edge1" class="edge">
<title>Node1&#45;&gt;Node2</title>
<path fill="none" stroke="#63b8ff" d="M82.25,-109.6C76.96,-101.33 70.85,-91.8 65.67,-83.72"/>
<polygon fill="#63b8ff" stroke="#63b8ff" points="68.71,-81.97 60.37,-75.44 62.81,-85.75 68.71,-81.97"/>
</g>
<!-- Node5 -->
<g id="node5" class="node">
<title>Node5</title>
<g id="a_node5"><a xlink:title=" ">
<polygon fill="#e0e0e0" stroke="#999999" points="159,-74 115,-74 115,-55 159,-55 159,-74"/>
<text text-anchor="middle" x="137" y="-62" font-family="Helvetica,sans-Serif" font-size="10.00">vector</text>
</a>
</g>
</g>
<!-- Node1&#45;&gt;Node5 -->
<g id="edge4" class="edge">
<title>Node1&#45;&gt;Node5</title>
<path fill="none" stroke="#63b8ff" d="M108.06,-109.6C113.48,-101.33 119.74,-91.8 125.04,-83.72"/>
<polygon fill="#63b8ff" stroke="#63b8ff" points="127.92,-85.71 130.48,-75.43 122.07,-81.87 127.92,-85.71"/>
</g>
<!-- Node3 -->
<g id="node3" class="node">
<title>Node3</title>
<g id="a_node3"><a xlink:title=" ">
<polygon fill="#e0e0e0" stroke="#999999" points="46,-19 0,-19 0,0 46,0 46,-19"/>
<text text-anchor="middle" x="23" y="-7" font-family="Helvetica,sans-Serif" font-size="10.00">chrono</text>
</a>
</g>
</g>
<!-- Node2&#45;&gt;Node3 -->
<g id="edge2" class="edge">
<title>Node2&#45;&gt;Node3</title>
<path fill="none" stroke="#63b8ff" d="M48.88,-54.75C44.82,-47.81 39.01,-37.86 33.91,-29.16"/>
<polygon fill="#63b8ff" stroke="#63b8ff" points="37.06,-27.61 28.99,-20.75 31.02,-31.15 37.06,-27.61"/>
</g>
<!-- Node4 -->
<g id="node4" class="node">
<title>Node4</title>
<g id="a_node4"><a xlink:title=" ">
<polygon fill="#e0e0e0" stroke="#999999" points="105.5,-19 64.5,-19 64.5,0 105.5,0 105.5,-19"/>
<text text-anchor="middle" x="85" y="-7" font-family="Helvetica,sans-Serif" font-size="10.00">string</text>
</a>
</g>
</g>
<!-- Node2&#45;&gt;Node4 -->
<g id="edge3" class="edge">
<title>Node2&#45;&gt;Node4</title>
<path fill="none" stroke="#63b8ff" d="M59.12,-54.75C63.18,-47.81 68.99,-37.86 74.09,-29.16"/>
<polygon fill="#63b8ff" stroke="#63b8ff" points="76.98,-31.15 79.01,-20.75 70.94,-27.61 76.98,-31.15"/>
</g>
</g>
</svg>
