<?xml version="1.0" encoding="UTF-8" standalone="no"?>
<!DOCTYPE svg PUBLIC "-//W3C//DTD SVG 1.1//EN"
 "http://www.w3.org/Graphics/SVG/1.1/DTD/svg11.dtd">
<!-- Generated by graphviz version 7.0.5 (20221223.1930)
 -->
<!-- Title: src/framework_config.hpp Pages: 1 -->
<svg width="180pt" height="137pt"
 viewBox="0.00 0.00 179.50 137.00" xmlns="http://www.w3.org/2000/svg" xmlns:xlink="http://www.w3.org/1999/xlink">
<g id="graph0" class="graph" transform="scale(1 1) rotate(0) translate(4 133)">
<title>src/framework_config.hpp</title>
<!-- Node1 -->
<g id="node1" class="node">
<title>Node1</title>
<g id="a_node1"><a xlink:title="Provides defintions which are specific for the used framework.">
<polygon fill="#999999" stroke="#666666" points="151.5,-129 23.5,-129 23.5,-110 151.5,-110 151.5,-129"/>
<text text-anchor="middle" x="87.5" y="-117" font-family="Helvetica,sans-Serif" font-size="10.00">src/framework_config.hpp</text>
</a>
</g>
</g>
<!-- Node2 -->
<g id="node2" class="node">
<title>Node2</title>
<g id="a_node2"><a xlink:href="board__pins_8hpp.xhtml" target="_top" xlink:title="Provides named objects for the pins provided by the board.">
<polygon fill="white" stroke="#666666" points="136.5,-74 38.5,-74 38.5,-55 136.5,-55 136.5,-74"/>
<text text-anchor="middle" x="87.5" y="-62" font-family="Helvetica,sans-Serif" font-size="10.00">src/board_pins.hpp</text>
</a>
</g>
</g>
<!-- Node1&#45;&gt;Node2 -->
<g id="edge1" class="edge">
<title>Node1&#45;&gt;Node2</title>
<path fill="none" stroke="#63b8ff" d="M87.5,-98.35C87.5,-90.1 87.5,-80.97 87.5,-74.44"/>
<polygon fill="#63b8ff" stroke="#63b8ff" points="84,-98.23 87.5,-108.23 91,-98.23 84,-98.23"/>
</g>
<!-- Node3 -->
<g id="node3" class="node">
<title>Node3</title>
<g id="a_node3"><a xlink:href="display_8cpp.xhtml" target="_top" xlink:title=" ">
<polygon fill="white" stroke="#666666" points="81,-19 0,-19 0,0 81,0 81,-19"/>
<text text-anchor="middle" x="40.5" y="-7" font-family="Helvetica,sans-Serif" font-size="10.00">src/display.cpp</text>
</a>
</g>
</g>
<!-- Node2&#45;&gt;Node3 -->
<g id="edge2" class="edge">
<title>Node2&#45;&gt;Node3</title>
<path fill="none" stroke="#63b8ff" d="M72.17,-46.22C64.25,-37.28 54.9,-26.74 48.43,-19.44"/>
<polygon fill="#63b8ff" stroke="#63b8ff" points="69.48,-48.46 78.73,-53.62 74.72,-43.81 69.48,-48.46"/>
</g>
<!-- Node4 -->
<g id="node4" class="node">
<title>Node4</title>
<g id="a_node4"><a xlink:href="main_8cpp.xhtml" target="_top" xlink:title=" ">
<polygon fill="white" stroke="#666666" points="171.5,-19 99.5,-19 99.5,0 171.5,0 171.5,-19"/>
<text text-anchor="middle" x="135.5" y="-7" font-family="Helvetica,sans-Serif" font-size="10.00">src/main.cpp</text>
</a>
</g>
</g>
<!-- Node2&#45;&gt;Node4 -->
<g id="edge3" class="edge">
<title>Node2&#45;&gt;Node4</title>
<path fill="none" stroke="#63b8ff" d="M103.15,-46.22C111.25,-37.28 120.79,-26.74 127.4,-19.44"/>
<polygon fill="#63b8ff" stroke="#63b8ff" points="100.56,-43.86 96.44,-53.63 105.75,-48.56 100.56,-43.86"/>
</g>
</g>
</svg>
