<?xml version="1.0" encoding="UTF-8" standalone="no"?>
<!DOCTYPE svg PUBLIC "-//W3C//DTD SVG 1.1//EN"
 "http://www.w3.org/Graphics/SVG/1.1/DTD/svg11.dtd">
<!-- Generated by graphviz version 7.0.5 (20221223.1930)
 -->
<!-- Pages: 1 -->
<svg width="130pt" height="44pt"
 viewBox="0.00 0.00 130.00 44.00" xmlns="http://www.w3.org/2000/svg" xmlns:xlink="http://www.w3.org/1999/xlink">
<g id="graph0" class="graph" transform="scale(1 1) rotate(0) translate(4 40)">
<polygon fill="white" stroke="none" points="-4,4 -4,-40 126,-40 126,4 -4,4"/>
<!-- c -->
<g id="node1" class="node">
<title>c</title>
<polygon fill="#b3cde3" stroke="black" points="122,-36 0,-36 0,-32 -4,-32 -4,-28 0,-28 0,-8 -4,-8 -4,-4 0,-4 0,0 122,0 122,-36"/>
<polyline fill="none" stroke="black" points="0,-32 4,-32 4,-28 0,-28"/>
<polyline fill="none" stroke="black" points="0,-8 4,-8 4,-4 0,-4"/>
<text text-anchor="middle" x="61" y="-14.3" font-family="Times,serif" font-size="14.00">use case interactors</text>
</g>
</g>
</svg>
