<?xml version="1.0" encoding="UTF-8" standalone="no"?>
<!DOCTYPE svg PUBLIC "-//W3C//DTD SVG 1.1//EN"
 "http://www.w3.org/Graphics/SVG/1.1/DTD/svg11.dtd">
<!-- Generated by graphviz version 7.0.5 (20221223.1930)
 -->
<!-- Title: lib/board_adapters/include/board_types.hpp Pages: 1 -->
<svg width="607pt" height="258pt"
 viewBox="0.00 0.00 607.00 258.00" xmlns="http://www.w3.org/2000/svg" xmlns:xlink="http://www.w3.org/1999/xlink">
<g id="graph0" class="graph" transform="scale(1 1) rotate(0) translate(4 254)">
<title>lib/board_adapters/include/board_types.hpp</title>
<!-- Node1 -->
<g id="node1" class="node">
<title>Node1</title>
<g id="a_node1"><a xlink:title=" ">
<polygon fill="#999999" stroke="#666666" points="332.5,-250 208.5,-250 208.5,-220 332.5,-220 332.5,-250"/>
<text text-anchor="start" x="216.5" y="-238" font-family="Helvetica,sans-Serif" font-size="10.00">lib/board_adapters</text>
<text text-anchor="middle" x="270.5" y="-227" font-family="Helvetica,sans-Serif" font-size="10.00">/include/board_types.hpp</text>
</a>
</g>
</g>
<!-- Node2 -->
<g id="node2" class="node">
<title>Node2</title>
<g id="a_node2"><a xlink:href="framework__config_8cpp.xhtml" target="_top" xlink:title=" ">
<polygon fill="white" stroke="#666666" points="189,-184 58,-184 58,-154 189,-154 189,-184"/>
<text text-anchor="start" x="66" y="-172" font-family="Helvetica,sans-Serif" font-size="10.00">lib/3rd_party_adapters</text>
<text text-anchor="middle" x="123.5" y="-161" font-family="Helvetica,sans-Serif" font-size="10.00">/src/framework_config.cpp</text>
</a>
</g>
</g>
<!-- Node1&#45;&gt;Node2 -->
<g id="edge1" class="edge">
<title>Node1&#45;&gt;Node2</title>
<path fill="none" stroke="#63b8ff" d="M227.18,-215.14C204.63,-205.32 177.49,-193.51 156.63,-184.43"/>
<polygon fill="#63b8ff" stroke="#63b8ff" points="225.56,-218.25 236.12,-219.03 228.35,-211.83 225.56,-218.25"/>
</g>
<!-- Node3 -->
<g id="node3" class="node">
<title>Node3</title>
<g id="a_node3"><a xlink:href="board__config_8hpp.xhtml" target="_top" xlink:title="Provides named objects for the pins provided by the board.">
<polygon fill="white" stroke="#666666" points="333.5,-184 207.5,-184 207.5,-154 333.5,-154 333.5,-184"/>
<text text-anchor="start" x="215.5" y="-172" font-family="Helvetica,sans-Serif" font-size="10.00">lib/board_adapters</text>
<text text-anchor="middle" x="270.5" y="-161" font-family="Helvetica,sans-Serif" font-size="10.00">/include/board_config.hpp</text>
</a>
</g>
</g>
<!-- Node1&#45;&gt;Node3 -->
<g id="edge2" class="edge">
<title>Node1&#45;&gt;Node3</title>
<path fill="none" stroke="#63b8ff" d="M270.5,-208.39C270.5,-200.13 270.5,-191.28 270.5,-184.16"/>
<polygon fill="#63b8ff" stroke="#63b8ff" points="267,-208.28 270.5,-218.28 274,-208.28 267,-208.28"/>
</g>
<!-- Node10 -->
<g id="node10" class="node">
<title>Node10</title>
<g id="a_node10"><a xlink:href="LedStatusIndicator_8hpp.xhtml" target="_top" xlink:title=" ">
<polygon fill="white" stroke="#666666" points="489,-184 352,-184 352,-154 489,-154 489,-184"/>
<text text-anchor="start" x="360" y="-172" font-family="Helvetica,sans-Serif" font-size="10.00">lib/board_adapters</text>
<text text-anchor="middle" x="420.5" y="-161" font-family="Helvetica,sans-Serif" font-size="10.00">/src/LedStatusIndicator.hpp</text>
</a>
</g>
</g>
<!-- Node1&#45;&gt;Node10 -->
<g id="edge10" class="edge">
<title>Node1&#45;&gt;Node10</title>
<path fill="none" stroke="#63b8ff" d="M314.7,-215.14C337.71,-205.32 365.41,-193.51 386.69,-184.43"/>
<polygon fill="#63b8ff" stroke="#63b8ff" points="313.38,-211.9 305.56,-219.04 316.13,-218.34 313.38,-211.9"/>
</g>
<!-- Node4 -->
<g id="node4" class="node">
<title>Node4</title>
<g id="a_node4"><a xlink:href="display__factory__interface_8cpp.xhtml" target="_top" xlink:title=" ">
<polygon fill="white" stroke="#666666" points="161,-112.5 0,-112.5 0,-82.5 161,-82.5 161,-112.5"/>
<text text-anchor="start" x="8" y="-100.5" font-family="Helvetica,sans-Serif" font-size="10.00">lib/3rd_party_adapters</text>
<text text-anchor="middle" x="80.5" y="-89.5" font-family="Helvetica,sans-Serif" font-size="10.00">/src/display_factory_interface.cpp</text>
</a>
</g>
</g>
<!-- Node3&#45;&gt;Node4 -->
<g id="edge3" class="edge">
<title>Node3&#45;&gt;Node4</title>
<path fill="none" stroke="#63b8ff" d="M220.4,-149.67C188.95,-138.17 148.97,-123.55 119.82,-112.88"/>
<polygon fill="#63b8ff" stroke="#63b8ff" points="219.12,-152.93 229.71,-153.08 221.52,-146.36 219.12,-152.93"/>
</g>
<!-- Node5 -->
<g id="node5" class="node">
<title>Node5</title>
<g id="a_node5"><a xlink:href="Keypad_8hpp.xhtml" target="_top" xlink:title=" ">
<polygon fill="white" stroke="#666666" points="275.5,-112.5 179.5,-112.5 179.5,-82.5 275.5,-82.5 275.5,-112.5"/>
<text text-anchor="start" x="187.5" y="-100.5" font-family="Helvetica,sans-Serif" font-size="10.00">lib/board_adapters</text>
<text text-anchor="middle" x="227.5" y="-89.5" font-family="Helvetica,sans-Serif" font-size="10.00">/src/Keypad.hpp</text>
</a>
</g>
</g>
<!-- Node3&#45;&gt;Node5 -->
<g id="edge4" class="edge">
<title>Node3&#45;&gt;Node5</title>
<path fill="none" stroke="#63b8ff" d="M255.58,-143.88C249.18,-133.55 241.93,-121.82 236.4,-112.88"/>
<polygon fill="#63b8ff" stroke="#63b8ff" points="252.56,-145.65 260.79,-152.31 258.51,-141.97 252.56,-145.65"/>
</g>
<!-- Node7 -->
<g id="node7" class="node">
<title>Node7</title>
<g id="a_node7"><a xlink:href="keypad__factory__interface_8cpp.xhtml" target="_top" xlink:title=" ">
<polygon fill="white" stroke="#666666" points="376,-41 275,-41 275,0 376,0 376,-41"/>
<text text-anchor="start" x="283" y="-29" font-family="Helvetica,sans-Serif" font-size="10.00">lib/board_adapters</text>
<text text-anchor="start" x="283" y="-18" font-family="Helvetica,sans-Serif" font-size="10.00">/src/keypad_factory</text>
<text text-anchor="middle" x="325.5" y="-7" font-family="Helvetica,sans-Serif" font-size="10.00">_interface.cpp</text>
</a>
</g>
</g>
<!-- Node3&#45;&gt;Node7 -->
<g id="edge8" class="edge">
<title>Node3&#45;&gt;Node7</title>
<path fill="none" stroke="#63b8ff" d="M279.78,-143.28C290.58,-114.52 308.19,-67.6 318.11,-41.19"/>
<polygon fill="#63b8ff" stroke="#63b8ff" points="276.64,-141.68 276.41,-152.27 283.2,-144.14 276.64,-141.68"/>
</g>
<!-- Node9 -->
<g id="node9" class="node">
<title>Node9</title>
<g id="a_node9"><a xlink:href="statusindicators__factory__interface_8cpp.xhtml" target="_top" xlink:title=" ">
<polygon fill="white" stroke="#666666" points="443.5,-118 331.5,-118 331.5,-77 443.5,-77 443.5,-118"/>
<text text-anchor="start" x="339.5" y="-106" font-family="Helvetica,sans-Serif" font-size="10.00">lib/board_adapters</text>
<text text-anchor="start" x="339.5" y="-95" font-family="Helvetica,sans-Serif" font-size="10.00">/src/statusindicators</text>
<text text-anchor="middle" x="387.5" y="-84" font-family="Helvetica,sans-Serif" font-size="10.00">_factory_interface.cpp</text>
</a>
</g>
</g>
<!-- Node3&#45;&gt;Node9 -->
<g id="edge9" class="edge">
<title>Node3&#45;&gt;Node9</title>
<path fill="none" stroke="#63b8ff" d="M304.51,-147.8C320.07,-138.55 338.46,-127.63 353.97,-118.42"/>
<polygon fill="#63b8ff" stroke="#63b8ff" points="302.85,-144.71 296.04,-152.83 306.43,-150.73 302.85,-144.71"/>
</g>
<!-- Node6 -->
<g id="node6" class="node">
<title>Node6</title>
<g id="a_node6"><a xlink:href="Keypad_8cpp.xhtml" target="_top" xlink:title=" ">
<polygon fill="white" stroke="#666666" points="137.5,-35.5 41.5,-35.5 41.5,-5.5 137.5,-5.5 137.5,-35.5"/>
<text text-anchor="start" x="49.5" y="-23.5" font-family="Helvetica,sans-Serif" font-size="10.00">lib/board_adapters</text>
<text text-anchor="middle" x="89.5" y="-12.5" font-family="Helvetica,sans-Serif" font-size="10.00">/src/Keypad.cpp</text>
</a>
</g>
</g>
<!-- Node5&#45;&gt;Node6 -->
<g id="edge5" class="edge">
<title>Node5&#45;&gt;Node6</title>
<path fill="none" stroke="#63b8ff" d="M190.91,-76.62C167.36,-63.82 137.29,-47.47 116.03,-35.92"/>
<polygon fill="#63b8ff" stroke="#63b8ff" points="189.1,-79.62 199.56,-81.32 192.45,-73.47 189.1,-79.62"/>
</g>
<!-- Node5&#45;&gt;Node7 -->
<g id="edge6" class="edge">
<title>Node5&#45;&gt;Node7</title>
<path fill="none" stroke="#63b8ff" d="M255.49,-75.08C269.38,-64.45 286.04,-51.7 299.62,-41.3"/>
<polygon fill="#63b8ff" stroke="#63b8ff" points="253.41,-72.26 247.6,-81.12 257.67,-77.82 253.41,-72.26"/>
</g>
<!-- Node8 -->
<g id="node8" class="node">
<title>Node8</title>
<g id="a_node8"><a xlink:href="test__board_8cpp.xhtml" target="_top" xlink:title=" ">
<polygon fill="white" stroke="#666666" points="257,-35.5 156,-35.5 156,-5.5 257,-5.5 257,-35.5"/>
<text text-anchor="start" x="164" y="-23.5" font-family="Helvetica,sans-Serif" font-size="10.00">test/test_board/test</text>
<text text-anchor="middle" x="206.5" y="-12.5" font-family="Helvetica,sans-Serif" font-size="10.00">_board.cpp</text>
</a>
</g>
</g>
<!-- Node5&#45;&gt;Node8 -->
<g id="edge7" class="edge">
<title>Node5&#45;&gt;Node8</title>
<path fill="none" stroke="#63b8ff" d="M220.39,-71.1C217.1,-59.37 213.32,-45.87 210.54,-35.92"/>
<polygon fill="#63b8ff" stroke="#63b8ff" points="216.98,-71.9 223.04,-80.58 223.72,-70.01 216.98,-71.9"/>
</g>
<!-- Node10&#45;&gt;Node9 -->
<g id="edge12" class="edge">
<title>Node10&#45;&gt;Node9</title>
<path fill="none" stroke="#63b8ff" d="M408.85,-143.47C404.96,-135.26 400.66,-126.22 396.96,-118.42"/>
<polygon fill="#63b8ff" stroke="#63b8ff" points="405.56,-144.7 413.01,-152.23 411.89,-141.7 405.56,-144.7"/>
</g>
<!-- Node11 -->
<g id="node11" class="node">
<title>Node11</title>
<g id="a_node11"><a xlink:href="LedStatusIndicator_8cpp.xhtml" target="_top" xlink:title=" ">
<polygon fill="white" stroke="#666666" points="599,-112.5 462,-112.5 462,-82.5 599,-82.5 599,-112.5"/>
<text text-anchor="start" x="470" y="-100.5" font-family="Helvetica,sans-Serif" font-size="10.00">lib/board_adapters</text>
<text text-anchor="middle" x="530.5" y="-89.5" font-family="Helvetica,sans-Serif" font-size="10.00">/src/LedStatusIndicator.cpp</text>
</a>
</g>
</g>
<!-- Node10&#45;&gt;Node11 -->
<g id="edge11" class="edge">
<title>Node10&#45;&gt;Node11</title>
<path fill="none" stroke="#63b8ff" d="M452.65,-147.68C470.32,-136.52 491.82,-122.94 507.74,-112.88"/>
<polygon fill="#63b8ff" stroke="#63b8ff" points="451.16,-144.49 444.57,-152.79 454.9,-150.41 451.16,-144.49"/>
</g>
</g>
</svg>
