<?xml version="1.0" encoding="UTF-8" standalone="no"?>
<!DOCTYPE svg PUBLIC "-//W3C//DTD SVG 1.1//EN"
 "http://www.w3.org/Graphics/SVG/1.1/DTD/svg11.dtd">
<!-- Generated by graphviz version 9.0.0 (20230911.1827)
 -->
<!-- Title: lib/layer3_board/src/board_config.hpp Pages: 1 -->
<svg width="554pt" height="194pt"
 viewBox="0.00 0.00 554.00 194.00" xmlns="http://www.w3.org/2000/svg" xmlns:xlink="http://www.w3.org/1999/xlink">
<g id="graph0" class="graph" transform="scale(1 1) rotate(0) translate(4 190)">
<title>lib/layer3_board/src/board_config.hpp</title>
<!-- Node1 -->
<g id="Node000001" class="node">
<title>Node1</title>
<g id="a_Node000001"><a xlink:title="Provides named objects for the pins provided by the board.">
<polygon fill="#999999" stroke="#666666" points="328,-186 228,-186 228,-155.5 328,-155.5 328,-186"/>
<text text-anchor="start" x="236" y="-172.5" font-family="Helvetica,sans-Serif" font-size="10.00">lib/layer3_board/src</text>
<text text-anchor="middle" x="278" y="-161.25" font-family="Helvetica,sans-Serif" font-size="10.00">/board_config.hpp</text>
</a>
</g>
</g>
<!-- Node2 -->
<g id="Node000002" class="node">
<title>Node2</title>
<g id="a_Node000002"><a xlink:href="Presenter_8cpp.xhtml" target="_top" xlink:title=" ">
<polygon fill="white" stroke="#666666" points="131.88,-108.25 40.12,-108.25 40.12,-77.75 131.88,-77.75 131.88,-108.25"/>
<text text-anchor="start" x="48.12" y="-94.75" font-family="Helvetica,sans-Serif" font-size="10.00">lib/layer2_hmi/src</text>
<text text-anchor="middle" x="86" y="-83.5" font-family="Helvetica,sans-Serif" font-size="10.00">/Presenter.cpp</text>
</a>
</g>
</g>
<!-- Node1&#45;&gt;Node2 -->
<g id="edge1_Node000001_Node000002" class="edge">
<title>Node1&#45;&gt;Node2</title>
<g id="a_edge1_Node000001_Node000002"><a xlink:title=" ">
<path fill="none" stroke="#63b8ff" d="M224.5,-151.28C199.02,-142.2 168.24,-130.79 141,-119.5 133.03,-116.2 124.52,-112.39 116.64,-108.75"/>
<polygon fill="#63b8ff" stroke="#63b8ff" points="223.05,-154.48 233.64,-154.52 225.39,-147.88 223.05,-154.48"/>
</a>
</g>
</g>
<!-- Node3 -->
<g id="Node000003" class="node">
<title>Node3</title>
<g id="a_Node000003"><a xlink:href="Keypad_8hpp.xhtml" target="_top" xlink:title=" ">
<polygon fill="white" stroke="#666666" points="250,-108.25 150,-108.25 150,-77.75 250,-77.75 250,-108.25"/>
<text text-anchor="start" x="158" y="-94.75" font-family="Helvetica,sans-Serif" font-size="10.00">lib/layer3_board/src</text>
<text text-anchor="middle" x="200" y="-83.5" font-family="Helvetica,sans-Serif" font-size="10.00">/Keypad.hpp</text>
</a>
</g>
</g>
<!-- Node1&#45;&gt;Node3 -->
<g id="edge2_Node000001_Node000003" class="edge">
<title>Node1&#45;&gt;Node3</title>
<g id="a_edge2_Node000001_Node000003"><a xlink:title=" ">
<path fill="none" stroke="#63b8ff" d="M254.96,-147.37C242.04,-134.83 226.31,-119.55 214.99,-108.56"/>
<polygon fill="#63b8ff" stroke="#63b8ff" points="252.26,-149.63 261.88,-154.09 257.14,-144.61 252.26,-149.63"/>
</a>
</g>
</g>
<!-- Node5 -->
<g id="Node000005" class="node">
<title>Node5</title>
<g id="a_Node000005"><a xlink:href="keypad__factory__interface_8cpp.xhtml" target="_top" xlink:title=" ">
<polygon fill="white" stroke="#666666" points="381.5,-30.5 236.5,-30.5 236.5,0 381.5,0 381.5,-30.5"/>
<text text-anchor="start" x="244.5" y="-17" font-family="Helvetica,sans-Serif" font-size="10.00">lib/layer3_board/src</text>
<text text-anchor="middle" x="309" y="-5.75" font-family="Helvetica,sans-Serif" font-size="10.00">/keypad_factory_interface.cpp</text>
</a>
</g>
</g>
<!-- Node1&#45;&gt;Node5 -->
<g id="edge6_Node000001_Node000005" class="edge">
<title>Node1&#45;&gt;Node5</title>
<g id="a_edge6_Node000001_Node000005"><a xlink:title=" ">
<path fill="none" stroke="#63b8ff" d="M282.32,-144.2C285.95,-123.26 291.43,-92.89 297,-66.5 299.56,-54.39 302.85,-40.73 305.33,-30.72"/>
<polygon fill="#63b8ff" stroke="#63b8ff" points="278.9,-143.4 280.66,-153.85 285.8,-144.58 278.9,-143.4"/>
</a>
</g>
</g>
<!-- Node7 -->
<g id="Node000007" class="node">
<title>Node7</title>
<g id="a_Node000007"><a xlink:href="statusindicators__factory__interface_8cpp.xhtml" target="_top" xlink:title=" ">
<polygon fill="white" stroke="#666666" points="428.25,-113.88 305.75,-113.88 305.75,-72.12 428.25,-72.12 428.25,-113.88"/>
<text text-anchor="start" x="313.75" y="-100.38" font-family="Helvetica,sans-Serif" font-size="10.00">lib/layer3_board/src</text>
<text text-anchor="start" x="313.75" y="-89.12" font-family="Helvetica,sans-Serif" font-size="10.00">/statusindicators_factory</text>
<text text-anchor="middle" x="367" y="-77.88" font-family="Helvetica,sans-Serif" font-size="10.00">_interface.cpp</text>
</a>
</g>
</g>
<!-- Node1&#45;&gt;Node7 -->
<g id="edge7_Node000001_Node000007" class="edge">
<title>Node1&#45;&gt;Node7</title>
<g id="a_edge7_Node000001_Node000007"><a xlink:title=" ">
<path fill="none" stroke="#63b8ff" d="M303.72,-147.86C316.15,-137.28 330.99,-124.65 343.16,-114.29"/>
<polygon fill="#63b8ff" stroke="#63b8ff" points="301.66,-145.02 296.31,-154.16 306.2,-150.35 301.66,-145.02"/>
</a>
</g>
</g>
<!-- Node8 -->
<g id="Node000008" class="node">
<title>Node8</title>
<g id="a_Node000008"><a xlink:href="display__factory__interface_8cpp.xhtml" target="_top" xlink:title=" ">
<polygon fill="white" stroke="#666666" points="546,-119.5 446,-119.5 446,-66.5 546,-66.5 546,-119.5"/>
<text text-anchor="start" x="454" y="-106" font-family="Helvetica,sans-Serif" font-size="10.00">lib/layer4_drivers</text>
<text text-anchor="start" x="454" y="-94.75" font-family="Helvetica,sans-Serif" font-size="10.00">_libraries_adapters</text>
<text text-anchor="start" x="454" y="-83.5" font-family="Helvetica,sans-Serif" font-size="10.00">/src/display_factory</text>
<text text-anchor="middle" x="496" y="-72.25" font-family="Helvetica,sans-Serif" font-size="10.00">_interface.cpp</text>
</a>
</g>
</g>
<!-- Node1&#45;&gt;Node8 -->
<g id="edge8_Node000001_Node000008" class="edge">
<title>Node1&#45;&gt;Node8</title>
<g id="a_edge8_Node000001_Node000008"><a xlink:title=" ">
<path fill="none" stroke="#63b8ff" d="M338.89,-152.1C368.71,-143.05 404.99,-131.44 437,-119.5 439.82,-118.45 442.71,-117.33 445.61,-116.18"/>
<polygon fill="#63b8ff" stroke="#63b8ff" points="338.23,-148.64 329.67,-154.87 340.25,-155.34 338.23,-148.64"/>
</a>
</g>
</g>
<!-- Node4 -->
<g id="Node000004" class="node">
<title>Node4</title>
<g id="a_Node000004"><a xlink:href="Keypad_8cpp.xhtml" target="_top" xlink:title=" ">
<polygon fill="white" stroke="#666666" points="100,-30.5 0,-30.5 0,0 100,0 100,-30.5"/>
<text text-anchor="start" x="8" y="-17" font-family="Helvetica,sans-Serif" font-size="10.00">lib/layer3_board/src</text>
<text text-anchor="middle" x="50" y="-5.75" font-family="Helvetica,sans-Serif" font-size="10.00">/Keypad.cpp</text>
</a>
</g>
</g>
<!-- Node3&#45;&gt;Node4 -->
<g id="edge3_Node000003_Node000004" class="edge">
<title>Node3&#45;&gt;Node4</title>
<g id="a_edge3_Node000003_Node000004"><a xlink:title=" ">
<path fill="none" stroke="#63b8ff" d="M160.95,-72.28C135.34,-59.35 102.4,-42.71 79.09,-30.94"/>
<polygon fill="#63b8ff" stroke="#63b8ff" points="159.22,-75.33 169.73,-76.71 162.38,-69.08 159.22,-75.33"/>
</a>
</g>
</g>
<!-- Node3&#45;&gt;Node5 -->
<g id="edge4_Node000003_Node000005" class="edge">
<title>Node3&#45;&gt;Node5</title>
<g id="a_edge4_Node000003_Node000005"><a xlink:title=" ">
<path fill="none" stroke="#63b8ff" d="M230.41,-70.87C248.77,-58.1 271.7,-42.17 288.05,-30.81"/>
<polygon fill="#63b8ff" stroke="#63b8ff" points="228.47,-67.95 222.26,-76.53 232.47,-73.7 228.47,-67.95"/>
</a>
</g>
</g>
<!-- Node6 -->
<g id="Node000006" class="node">
<title>Node6</title>
<g id="a_Node000006"><a xlink:href="test__board_8cpp.xhtml" target="_top" xlink:title=" ">
<polygon fill="white" stroke="#666666" points="218.38,-30.5 117.62,-30.5 117.62,0 218.38,0 218.38,-30.5"/>
<text text-anchor="start" x="125.62" y="-17" font-family="Helvetica,sans-Serif" font-size="10.00">test/test_board/test</text>
<text text-anchor="middle" x="168" y="-5.75" font-family="Helvetica,sans-Serif" font-size="10.00">_board.cpp</text>
</a>
</g>
</g>
<!-- Node3&#45;&gt;Node6 -->
<g id="edge5_Node000003_Node000006" class="edge">
<title>Node3&#45;&gt;Node6</title>
<g id="a_edge5_Node000003_Node000006"><a xlink:title=" ">
<path fill="none" stroke="#63b8ff" d="M189.47,-67.08C184.4,-55.06 178.48,-41.07 174.15,-30.81"/>
<polygon fill="#63b8ff" stroke="#63b8ff" points="186.13,-68.15 193.24,-76 192.57,-65.43 186.13,-68.15"/>
</a>
</g>
</g>
</g>
</svg>
