<?xml version="1.0" encoding="UTF-8" standalone="no"?>
<!DOCTYPE svg PUBLIC "-//W3C//DTD SVG 1.1//EN"
 "http://www.w3.org/Graphics/SVG/1.1/DTD/svg11.dtd">
<!-- Generated by graphviz version 9.0.0 (20230911.1827)
 -->
<!-- Title: lib/layer3_board/include/board_types.hpp Pages: 1 -->
<svg width="652pt" height="272pt"
 viewBox="0.00 0.00 651.75 271.75" xmlns="http://www.w3.org/2000/svg" xmlns:xlink="http://www.w3.org/1999/xlink">
<g id="graph0" class="graph" transform="scale(1 1) rotate(0) translate(4 267.75)">
<title>lib/layer3_board/include/board_types.hpp</title>
<!-- Node1 -->
<g id="Node000001" class="node">
<title>Node1</title>
<g id="a_Node000001"><a xlink:title=" ">
<polygon fill="#999999" stroke="#666666" points="440.38,-263.75 323.12,-263.75 323.12,-233.25 440.38,-233.25 440.38,-263.75"/>
<text text-anchor="start" x="331.12" y="-250.25" font-family="Helvetica,sans-Serif" font-size="10.00">lib/layer3_board/include</text>
<text text-anchor="middle" x="381.75" y="-239" font-family="Helvetica,sans-Serif" font-size="10.00">/board_types.hpp</text>
</a>
</g>
</g>
<!-- Node2 -->
<g id="Node000002" class="node">
<title>Node2</title>
<g id="a_Node000002"><a xlink:href="LedStatusIndicator_8hpp.xhtml" target="_top" xlink:title=" ">
<polygon fill="white" stroke="#666666" points="258.5,-191.62 139,-191.62 139,-161.12 258.5,-161.12 258.5,-191.62"/>
<text text-anchor="start" x="147" y="-178.12" font-family="Helvetica,sans-Serif" font-size="10.00">lib/layer3_board/src</text>
<text text-anchor="middle" x="198.75" y="-166.88" font-family="Helvetica,sans-Serif" font-size="10.00">/LedStatusIndicator.hpp</text>
</a>
</g>
</g>
<!-- Node1&#45;&gt;Node2 -->
<g id="edge1_Node000001_Node000002" class="edge">
<title>Node1&#45;&gt;Node2</title>
<g id="a_edge1_Node000001_Node000002"><a xlink:title=" ">
<path fill="none" stroke="#63b8ff" d="M332.72,-228.71C302.71,-217.21 264.87,-202.71 237.06,-192.06"/>
<polygon fill="#63b8ff" stroke="#63b8ff" points="331.38,-231.95 341.97,-232.26 333.89,-225.41 331.38,-231.95"/>
</a>
</g>
</g>
<!-- Node5 -->
<g id="Node000005" class="node">
<title>Node5</title>
<g id="a_Node000005"><a xlink:href="board__config_8hpp.xhtml" target="_top" xlink:title="Provides named objects for the pins provided by the board.">
<polygon fill="white" stroke="#666666" points="431.75,-191.62 331.75,-191.62 331.75,-161.12 431.75,-161.12 431.75,-191.62"/>
<text text-anchor="start" x="339.75" y="-178.12" font-family="Helvetica,sans-Serif" font-size="10.00">lib/layer3_board/src</text>
<text text-anchor="middle" x="381.75" y="-166.88" font-family="Helvetica,sans-Serif" font-size="10.00">/board_config.hpp</text>
</a>
</g>
</g>
<!-- Node1&#45;&gt;Node5 -->
<g id="edge4_Node000001_Node000005" class="edge">
<title>Node1&#45;&gt;Node5</title>
<g id="a_edge4_Node000001_Node000005"><a xlink:title=" ">
<path fill="none" stroke="#63b8ff" d="M381.75,-221.52C381.75,-211.51 381.75,-200.44 381.75,-191.89"/>
<polygon fill="#63b8ff" stroke="#63b8ff" points="378.25,-221.46 381.75,-231.46 385.25,-221.46 378.25,-221.46"/>
</a>
</g>
</g>
<!-- Node12 -->
<g id="Node000012" class="node">
<title>Node12</title>
<g id="a_Node000012"><a xlink:href="framework__config_8cpp.xhtml" target="_top" xlink:title=" ">
<polygon fill="white" stroke="#666666" points="579.75,-197.25 449.75,-197.25 449.75,-155.5 579.75,-155.5 579.75,-197.25"/>
<text text-anchor="start" x="457.75" y="-183.75" font-family="Helvetica,sans-Serif" font-size="10.00">lib/layer4_drivers</text>
<text text-anchor="start" x="457.75" y="-172.5" font-family="Helvetica,sans-Serif" font-size="10.00">_libraries_adapters</text>
<text text-anchor="middle" x="514.75" y="-161.25" font-family="Helvetica,sans-Serif" font-size="10.00">/src/framework_config.cpp</text>
</a>
</g>
</g>
<!-- Node1&#45;&gt;Node12 -->
<g id="edge13_Node000001_Node000012" class="edge">
<title>Node1&#45;&gt;Node12</title>
<g id="a_edge13_Node000001_Node000012"><a xlink:title=" ">
<path fill="none" stroke="#63b8ff" d="M419.64,-227.52C437.39,-218.16 458.5,-207.03 476.31,-197.64"/>
<polygon fill="#63b8ff" stroke="#63b8ff" points="418.18,-224.33 410.97,-232.09 421.45,-230.53 418.18,-224.33"/>
</a>
</g>
</g>
<!-- Node3 -->
<g id="Node000003" class="node">
<title>Node3</title>
<g id="a_Node000003"><a xlink:href="LedStatusIndicator_8cpp.xhtml" target="_top" xlink:title=" ">
<polygon fill="white" stroke="#666666" points="119.5,-108.25 0,-108.25 0,-77.75 119.5,-77.75 119.5,-108.25"/>
<text text-anchor="start" x="8" y="-94.75" font-family="Helvetica,sans-Serif" font-size="10.00">lib/layer3_board/src</text>
<text text-anchor="middle" x="59.75" y="-83.5" font-family="Helvetica,sans-Serif" font-size="10.00">/LedStatusIndicator.cpp</text>
</a>
</g>
</g>
<!-- Node2&#45;&gt;Node3 -->
<g id="edge2_Node000002_Node000003" class="edge">
<title>Node2&#45;&gt;Node3</title>
<g id="a_edge2_Node000002_Node000003"><a xlink:title=" ">
<path fill="none" stroke="#63b8ff" d="M163.89,-154.97C139.25,-140.54 106.82,-121.55 84.73,-108.63"/>
<polygon fill="#63b8ff" stroke="#63b8ff" points="161.87,-157.84 172.27,-159.87 165.41,-151.8 161.87,-157.84"/>
</a>
</g>
</g>
<!-- Node4 -->
<g id="Node000004" class="node">
<title>Node4</title>
<g id="a_Node000004"><a xlink:href="statusindicators__factory__interface_8cpp.xhtml" target="_top" xlink:title=" ">
<polygon fill="white" stroke="#666666" points="260,-113.88 137.5,-113.88 137.5,-72.12 260,-72.12 260,-113.88"/>
<text text-anchor="start" x="145.5" y="-100.38" font-family="Helvetica,sans-Serif" font-size="10.00">lib/layer3_board/src</text>
<text text-anchor="start" x="145.5" y="-89.12" font-family="Helvetica,sans-Serif" font-size="10.00">/statusindicators_factory</text>
<text text-anchor="middle" x="198.75" y="-77.88" font-family="Helvetica,sans-Serif" font-size="10.00">_interface.cpp</text>
</a>
</g>
</g>
<!-- Node2&#45;&gt;Node4 -->
<g id="edge3_Node000002_Node000004" class="edge">
<title>Node2&#45;&gt;Node4</title>
<g id="a_edge3_Node000002_Node000004"><a xlink:title=" ">
<path fill="none" stroke="#63b8ff" d="M198.75,-149.38C198.75,-138 198.75,-124.86 198.75,-114.23"/>
<polygon fill="#63b8ff" stroke="#63b8ff" points="195.25,-149.31 198.75,-159.31 202.25,-149.31 195.25,-149.31"/>
</a>
</g>
</g>
<!-- Node5&#45;&gt;Node4 -->
<g id="edge11_Node000005_Node000004" class="edge">
<title>Node5&#45;&gt;Node4</title>
<g id="a_edge11_Node000005_Node000004"><a xlink:title=" ">
<path fill="none" stroke="#63b8ff" d="M338.22,-156.02C309.92,-143.43 273.08,-127.05 244.38,-114.29"/>
<polygon fill="#63b8ff" stroke="#63b8ff" points="336.67,-159.16 347.23,-160.02 339.51,-152.76 336.67,-159.16"/>
</a>
</g>
</g>
<!-- Node6 -->
<g id="Node000006" class="node">
<title>Node6</title>
<g id="a_Node000006"><a xlink:href="Presenter_8cpp.xhtml" target="_top" xlink:title=" ">
<polygon fill="white" stroke="#666666" points="369.62,-108.25 277.88,-108.25 277.88,-77.75 369.62,-77.75 369.62,-108.25"/>
<text text-anchor="start" x="285.88" y="-94.75" font-family="Helvetica,sans-Serif" font-size="10.00">lib/layer2_hmi/src</text>
<text text-anchor="middle" x="323.75" y="-83.5" font-family="Helvetica,sans-Serif" font-size="10.00">/Presenter.cpp</text>
</a>
</g>
</g>
<!-- Node5&#45;&gt;Node6 -->
<g id="edge5_Node000005_Node000006" class="edge">
<title>Node5&#45;&gt;Node6</title>
<g id="a_edge5_Node000005_Node000006"><a xlink:title=" ">
<path fill="none" stroke="#63b8ff" d="M364.96,-151.82C355.04,-137.89 342.78,-120.7 334.23,-108.7"/>
<polygon fill="#63b8ff" stroke="#63b8ff" points="361.85,-153.48 370.5,-159.59 367.55,-149.42 361.85,-153.48"/>
</a>
</g>
</g>
<!-- Node7 -->
<g id="Node000007" class="node">
<title>Node7</title>
<g id="a_Node000007"><a xlink:href="Keypad_8hpp.xhtml" target="_top" xlink:title=" ">
<polygon fill="white" stroke="#666666" points="487.75,-108.25 387.75,-108.25 387.75,-77.75 487.75,-77.75 487.75,-108.25"/>
<text text-anchor="start" x="395.75" y="-94.75" font-family="Helvetica,sans-Serif" font-size="10.00">lib/layer3_board/src</text>
<text text-anchor="middle" x="437.75" y="-83.5" font-family="Helvetica,sans-Serif" font-size="10.00">/Keypad.hpp</text>
</a>
</g>
</g>
<!-- Node5&#45;&gt;Node7 -->
<g id="edge6_Node000005_Node000007" class="edge">
<title>Node5&#45;&gt;Node7</title>
<g id="a_edge6_Node000005_Node000007"><a xlink:title=" ">
<path fill="none" stroke="#63b8ff" d="M398.24,-151.41C407.77,-137.56 419.46,-120.58 427.64,-108.7"/>
<polygon fill="#63b8ff" stroke="#63b8ff" points="395.41,-149.36 392.62,-159.58 401.17,-153.33 395.41,-149.36"/>
</a>
</g>
</g>
<!-- Node9 -->
<g id="Node000009" class="node">
<title>Node9</title>
<g id="a_Node000009"><a xlink:href="keypad__factory__interface_8cpp.xhtml" target="_top" xlink:title=" ">
<polygon fill="white" stroke="#666666" points="619.25,-30.5 474.25,-30.5 474.25,0 619.25,0 619.25,-30.5"/>
<text text-anchor="start" x="482.25" y="-17" font-family="Helvetica,sans-Serif" font-size="10.00">lib/layer3_board/src</text>
<text text-anchor="middle" x="546.75" y="-5.75" font-family="Helvetica,sans-Serif" font-size="10.00">/keypad_factory_interface.cpp</text>
</a>
</g>
</g>
<!-- Node5&#45;&gt;Node9 -->
<g id="edge10_Node000005_Node000009" class="edge">
<title>Node5&#45;&gt;Node9</title>
<g id="a_edge10_Node000005_Node000009"><a xlink:title=" ">
<path fill="none" stroke="#63b8ff" d="M429.01,-156.15C455.95,-144.49 486.36,-129.9 496.75,-119.5 522.36,-93.85 536.83,-52.49 543.05,-30.71"/>
<polygon fill="#63b8ff" stroke="#63b8ff" points="427.74,-152.89 419.91,-160.03 430.48,-159.33 427.74,-152.89"/>
</a>
</g>
</g>
<!-- Node11 -->
<g id="Node000011" class="node">
<title>Node11</title>
<g id="a_Node000011"><a xlink:href="display__factory__interface_8cpp.xhtml" target="_top" xlink:title=" ">
<polygon fill="white" stroke="#666666" points="643.75,-119.5 543.75,-119.5 543.75,-66.5 643.75,-66.5 643.75,-119.5"/>
<text text-anchor="start" x="551.75" y="-106" font-family="Helvetica,sans-Serif" font-size="10.00">lib/layer4_drivers</text>
<text text-anchor="start" x="551.75" y="-94.75" font-family="Helvetica,sans-Serif" font-size="10.00">_libraries_adapters</text>
<text text-anchor="start" x="551.75" y="-83.5" font-family="Helvetica,sans-Serif" font-size="10.00">/src/display_factory</text>
<text text-anchor="middle" x="593.75" y="-72.25" font-family="Helvetica,sans-Serif" font-size="10.00">_interface.cpp</text>
</a>
</g>
</g>
<!-- Node5&#45;&gt;Node11 -->
<g id="edge12_Node000005_Node000011" class="edge">
<title>Node5&#45;&gt;Node11</title>
<g id="a_edge12_Node000005_Node000011"><a xlink:title=" ">
<path fill="none" stroke="#63b8ff" d="M431.98,-156.67C460.67,-145.92 497.28,-132.1 529.75,-119.5 534.21,-117.77 538.84,-115.96 543.48,-114.13"/>
<polygon fill="#63b8ff" stroke="#63b8ff" points="430.96,-153.32 422.82,-160.1 433.41,-159.87 430.96,-153.32"/>
</a>
</g>
</g>
<!-- Node8 -->
<g id="Node000008" class="node">
<title>Node8</title>
<g id="a_Node000008"><a xlink:href="Keypad_8cpp.xhtml" target="_top" xlink:title=" ">
<polygon fill="white" stroke="#666666" points="337.75,-30.5 237.75,-30.5 237.75,0 337.75,0 337.75,-30.5"/>
<text text-anchor="start" x="245.75" y="-17" font-family="Helvetica,sans-Serif" font-size="10.00">lib/layer3_board/src</text>
<text text-anchor="middle" x="287.75" y="-5.75" font-family="Helvetica,sans-Serif" font-size="10.00">/Keypad.cpp</text>
</a>
</g>
</g>
<!-- Node7&#45;&gt;Node8 -->
<g id="edge7_Node000007_Node000008" class="edge">
<title>Node7&#45;&gt;Node8</title>
<g id="a_edge7_Node000007_Node000008"><a xlink:title=" ">
<path fill="none" stroke="#63b8ff" d="M398.7,-72.28C373.09,-59.35 340.15,-42.71 316.84,-30.94"/>
<polygon fill="#63b8ff" stroke="#63b8ff" points="396.97,-75.33 407.48,-76.71 400.13,-69.08 396.97,-75.33"/>
</a>
</g>
</g>
<!-- Node7&#45;&gt;Node9 -->
<g id="edge8_Node000007_Node000009" class="edge">
<title>Node7&#45;&gt;Node9</title>
<g id="a_edge8_Node000007_Node000009"><a xlink:title=" ">
<path fill="none" stroke="#63b8ff" d="M468.16,-70.87C486.52,-58.1 509.45,-42.17 525.8,-30.81"/>
<polygon fill="#63b8ff" stroke="#63b8ff" points="466.22,-67.95 460.01,-76.53 470.22,-73.7 466.22,-67.95"/>
</a>
</g>
</g>
<!-- Node10 -->
<g id="Node000010" class="node">
<title>Node10</title>
<g id="a_Node000010"><a xlink:href="test__board_8cpp.xhtml" target="_top" xlink:title=" ">
<polygon fill="white" stroke="#666666" points="456.12,-30.5 355.38,-30.5 355.38,0 456.12,0 456.12,-30.5"/>
<text text-anchor="start" x="363.38" y="-17" font-family="Helvetica,sans-Serif" font-size="10.00">test/test_board/test</text>
<text text-anchor="middle" x="405.75" y="-5.75" font-family="Helvetica,sans-Serif" font-size="10.00">_board.cpp</text>
</a>
</g>
</g>
<!-- Node7&#45;&gt;Node10 -->
<g id="edge9_Node000007_Node000010" class="edge">
<title>Node7&#45;&gt;Node10</title>
<g id="a_edge9_Node000007_Node000010"><a xlink:title=" ">
<path fill="none" stroke="#63b8ff" d="M427.22,-67.08C422.15,-55.06 416.23,-41.07 411.9,-30.81"/>
<polygon fill="#63b8ff" stroke="#63b8ff" points="423.88,-68.15 430.99,-76 430.32,-65.43 423.88,-68.15"/>
</a>
</g>
</g>
</g>
</svg>
