<?xml version="1.0" encoding="UTF-8" standalone="no"?>
<!DOCTYPE svg PUBLIC "-//W3C//DTD SVG 1.1//EN"
 "http://www.w3.org/Graphics/SVG/1.1/DTD/svg11.dtd">
<!-- Generated by graphviz version 7.0.5 (20221223.1930)
 -->
<!-- Title: lib/board_adapters/include/board_config.hpp Pages: 1 -->
<svg width="134pt" height="148pt"
 viewBox="0.00 0.00 134.00 148.00" xmlns="http://www.w3.org/2000/svg" xmlns:xlink="http://www.w3.org/1999/xlink">
<g id="graph0" class="graph" transform="scale(1 1) rotate(0) translate(4 144)">
<title>lib/board_adapters/include/board_config.hpp</title>
<!-- Node1 -->
<g id="node1" class="node">
<title>Node1</title>
<g id="a_node1"><a xlink:title="Provides named objects for the pins provided by the board.">
<polygon fill="#999999" stroke="#666666" points="126,-140 0,-140 0,-110 126,-110 126,-140"/>
<text text-anchor="start" x="8" y="-128" font-family="Helvetica,sans-Serif" font-size="10.00">lib/board_adapters</text>
<text text-anchor="middle" x="63" y="-117" font-family="Helvetica,sans-Serif" font-size="10.00">/include/board_config.hpp</text>
</a>
</g>
</g>
<!-- Node2 -->
<g id="node2" class="node">
<title>Node2</title>
<g id="a_node2"><a xlink:href="board__types_8hpp.xhtml" target="_top" xlink:title=" ">
<polygon fill="white" stroke="#666666" points="106.5,-74 19.5,-74 19.5,-55 106.5,-55 106.5,-74"/>
<text text-anchor="middle" x="63" y="-62" font-family="Helvetica,sans-Serif" font-size="10.00">board_types.hpp</text>
</a>
</g>
</g>
<!-- Node1&#45;&gt;Node2 -->
<g id="edge1" class="edge">
<title>Node1&#45;&gt;Node2</title>
<path fill="none" stroke="#63b8ff" d="M63,-109.54C63,-102.34 63,-93.53 63,-85.68"/>
<polygon fill="#63b8ff" stroke="#63b8ff" points="66.5,-85.69 63,-75.69 59.5,-85.69 66.5,-85.69"/>
</g>
<!-- Node3 -->
<g id="node3" class="node">
<title>Node3</title>
<g id="a_node3"><a xlink:title=" ">
<polygon fill="#e0e0e0" stroke="#999999" points="86,-19 40,-19 40,0 86,0 86,-19"/>
<text text-anchor="middle" x="63" y="-7" font-family="Helvetica,sans-Serif" font-size="10.00">cstdint</text>
</a>
</g>
</g>
<!-- Node2&#45;&gt;Node3 -->
<g id="edge2" class="edge">
<title>Node2&#45;&gt;Node3</title>
<path fill="none" stroke="#63b8ff" d="M63,-54.75C63,-48.27 63,-39.16 63,-30.9"/>
<polygon fill="#63b8ff" stroke="#63b8ff" points="66.5,-30.96 63,-20.96 59.5,-30.96 66.5,-30.96"/>
</g>
</g>
</svg>
