<?xml version="1.0" encoding="UTF-8" standalone="no"?>
<!DOCTYPE svg PUBLIC "-//W3C//DTD SVG 1.1//EN"
 "http://www.w3.org/Graphics/SVG/1.1/DTD/svg11.dtd">
<!-- Generated by graphviz version 7.0.5 (20221223.1930)
 -->
<!-- Title: lib/board_adapters/include/board_types.hpp Pages: 1 -->
<svg width="686pt" height="258pt"
 viewBox="0.00 0.00 686.00 258.00" xmlns="http://www.w3.org/2000/svg" xmlns:xlink="http://www.w3.org/1999/xlink">
<g id="graph0" class="graph" transform="scale(1 1) rotate(0) translate(4 254)">
<title>lib/board_adapters/include/board_types.hpp</title>
<!-- Node1 -->
<g id="node1" class="node">
<title>Node1</title>
<g id="a_node1"><a xlink:title=" ">
<polygon fill="#999999" stroke="#666666" points="279.5,-250 155.5,-250 155.5,-220 279.5,-220 279.5,-250"/>
<text text-anchor="start" x="163.5" y="-238" font-family="Helvetica,sans-Serif" font-size="10.00">lib/board_adapters</text>
<text text-anchor="middle" x="217.5" y="-227" font-family="Helvetica,sans-Serif" font-size="10.00">/include/board_types.hpp</text>
</a>
</g>
</g>
<!-- Node2 -->
<g id="node2" class="node">
<title>Node2</title>
<g id="a_node2"><a xlink:href="framework__config_8cpp.xhtml" target="_top" xlink:title=" ">
<polygon fill="white" stroke="#666666" points="131,-184 0,-184 0,-154 131,-154 131,-184"/>
<text text-anchor="start" x="8" y="-172" font-family="Helvetica,sans-Serif" font-size="10.00">lib/3rd_party_adapters</text>
<text text-anchor="middle" x="65.5" y="-161" font-family="Helvetica,sans-Serif" font-size="10.00">/src/framework_config.cpp</text>
</a>
</g>
</g>
<!-- Node1&#45;&gt;Node2 -->
<g id="edge1" class="edge">
<title>Node1&#45;&gt;Node2</title>
<path fill="none" stroke="#63b8ff" d="M173.03,-215.27C149.64,-205.43 121.42,-193.55 99.76,-184.43"/>
<polygon fill="#63b8ff" stroke="#63b8ff" points="171.42,-218.39 181.99,-219.05 174.14,-211.94 171.42,-218.39"/>
</g>
<!-- Node3 -->
<g id="node3" class="node">
<title>Node3</title>
<g id="a_node3"><a xlink:href="LedStatusIndicator_8hpp.xhtml" target="_top" xlink:title=" ">
<polygon fill="white" stroke="#666666" points="286,-184 149,-184 149,-154 286,-154 286,-184"/>
<text text-anchor="start" x="157" y="-172" font-family="Helvetica,sans-Serif" font-size="10.00">lib/board_adapters</text>
<text text-anchor="middle" x="217.5" y="-161" font-family="Helvetica,sans-Serif" font-size="10.00">/src/LedStatusIndicator.hpp</text>
</a>
</g>
</g>
<!-- Node1&#45;&gt;Node3 -->
<g id="edge2" class="edge">
<title>Node1&#45;&gt;Node3</title>
<path fill="none" stroke="#63b8ff" d="M217.5,-208.39C217.5,-200.13 217.5,-191.28 217.5,-184.16"/>
<polygon fill="#63b8ff" stroke="#63b8ff" points="214,-208.28 217.5,-218.28 221,-208.28 214,-208.28"/>
</g>
<!-- Node6 -->
<g id="node6" class="node">
<title>Node6</title>
<g id="a_node6"><a xlink:href="board__config_8hpp.xhtml" target="_top" xlink:title="Provides named objects for the pins provided by the board.">
<polygon fill="white" stroke="#666666" points="427,-184 318,-184 318,-154 427,-154 427,-184"/>
<text text-anchor="start" x="326" y="-172" font-family="Helvetica,sans-Serif" font-size="10.00">lib/board_adapters</text>
<text text-anchor="middle" x="372.5" y="-161" font-family="Helvetica,sans-Serif" font-size="10.00">/src/board_config.hpp</text>
</a>
</g>
</g>
<!-- Node1&#45;&gt;Node6 -->
<g id="edge5" class="edge">
<title>Node1&#45;&gt;Node6</title>
<path fill="none" stroke="#63b8ff" d="M262.85,-215.27C286.69,-205.43 315.47,-193.55 337.56,-184.43"/>
<polygon fill="#63b8ff" stroke="#63b8ff" points="261.59,-212.01 253.68,-219.06 264.26,-218.48 261.59,-212.01"/>
</g>
<!-- Node4 -->
<g id="node4" class="node">
<title>Node4</title>
<g id="a_node4"><a xlink:href="LedStatusIndicator_8cpp.xhtml" target="_top" xlink:title=" ">
<polygon fill="white" stroke="#666666" points="143,-112.5 6,-112.5 6,-82.5 143,-82.5 143,-112.5"/>
<text text-anchor="start" x="14" y="-100.5" font-family="Helvetica,sans-Serif" font-size="10.00">lib/board_adapters</text>
<text text-anchor="middle" x="74.5" y="-89.5" font-family="Helvetica,sans-Serif" font-size="10.00">/src/LedStatusIndicator.cpp</text>
</a>
</g>
</g>
<!-- Node3&#45;&gt;Node4 -->
<g id="edge3" class="edge">
<title>Node3&#45;&gt;Node4</title>
<path fill="none" stroke="#63b8ff" d="M177.6,-148.61C154.29,-137.28 125.37,-123.22 104.09,-112.88"/>
<polygon fill="#63b8ff" stroke="#63b8ff" points="175.99,-151.71 186.51,-152.94 179.04,-145.42 175.99,-151.71"/>
</g>
<!-- Node5 -->
<g id="node5" class="node">
<title>Node5</title>
<g id="a_node5"><a xlink:href="statusindicators__factory__interface_8cpp.xhtml" target="_top" xlink:title=" ">
<polygon fill="white" stroke="#666666" points="273.5,-118 161.5,-118 161.5,-77 273.5,-77 273.5,-118"/>
<text text-anchor="start" x="169.5" y="-106" font-family="Helvetica,sans-Serif" font-size="10.00">lib/board_adapters</text>
<text text-anchor="start" x="169.5" y="-95" font-family="Helvetica,sans-Serif" font-size="10.00">/src/statusindicators</text>
<text text-anchor="middle" x="217.5" y="-84" font-family="Helvetica,sans-Serif" font-size="10.00">_factory_interface.cpp</text>
</a>
</g>
</g>
<!-- Node3&#45;&gt;Node5 -->
<g id="edge4" class="edge">
<title>Node3&#45;&gt;Node5</title>
<path fill="none" stroke="#63b8ff" d="M217.5,-142.36C217.5,-134.45 217.5,-125.87 217.5,-118.42"/>
<polygon fill="#63b8ff" stroke="#63b8ff" points="214,-142.09 217.5,-152.09 221,-142.09 214,-142.09"/>
</g>
<!-- Node6&#45;&gt;Node5 -->
<g id="edge12" class="edge">
<title>Node6&#45;&gt;Node5</title>
<path fill="none" stroke="#63b8ff" d="M330.08,-148.98C308.92,-139.49 283.34,-128.02 261.92,-118.42"/>
<polygon fill="#63b8ff" stroke="#63b8ff" points="328.45,-152.08 339,-152.98 331.31,-145.7 328.45,-152.08"/>
</g>
<!-- Node7 -->
<g id="node7" class="node">
<title>Node7</title>
<g id="a_node7"><a xlink:href="display__factory__interface_8cpp.xhtml" target="_top" xlink:title=" ">
<polygon fill="white" stroke="#666666" points="453,-112.5 292,-112.5 292,-82.5 453,-82.5 453,-112.5"/>
<text text-anchor="start" x="300" y="-100.5" font-family="Helvetica,sans-Serif" font-size="10.00">lib/3rd_party_adapters</text>
<text text-anchor="middle" x="372.5" y="-89.5" font-family="Helvetica,sans-Serif" font-size="10.00">/src/display_factory_interface.cpp</text>
</a>
</g>
</g>
<!-- Node6&#45;&gt;Node7 -->
<g id="edge6" class="edge">
<title>Node6&#45;&gt;Node7</title>
<path fill="none" stroke="#63b8ff" d="M372.5,-142.26C372.5,-132.33 372.5,-121.36 372.5,-112.88"/>
<polygon fill="#63b8ff" stroke="#63b8ff" points="369,-142.09 372.5,-152.09 376,-142.09 369,-142.09"/>
</g>
<!-- Node8 -->
<g id="node8" class="node">
<title>Node8</title>
<g id="a_node8"><a xlink:href="Keypad_8hpp.xhtml" target="_top" xlink:title=" ">
<polygon fill="white" stroke="#666666" points="567.5,-112.5 471.5,-112.5 471.5,-82.5 567.5,-82.5 567.5,-112.5"/>
<text text-anchor="start" x="479.5" y="-100.5" font-family="Helvetica,sans-Serif" font-size="10.00">lib/board_adapters</text>
<text text-anchor="middle" x="519.5" y="-89.5" font-family="Helvetica,sans-Serif" font-size="10.00">/src/Keypad.hpp</text>
</a>
</g>
</g>
<!-- Node6&#45;&gt;Node8 -->
<g id="edge7" class="edge">
<title>Node6&#45;&gt;Node8</title>
<path fill="none" stroke="#63b8ff" d="M413.19,-148.76C437.21,-137.41 467.11,-123.27 489.08,-112.88"/>
<polygon fill="#63b8ff" stroke="#63b8ff" points="411.87,-145.51 404.33,-152.95 414.86,-151.84 411.87,-145.51"/>
</g>
<!-- Node10 -->
<g id="node10" class="node">
<title>Node10</title>
<g id="a_node10"><a xlink:href="keypad__factory__interface_8cpp.xhtml" target="_top" xlink:title=" ">
<polygon fill="white" stroke="#666666" points="678,-41 577,-41 577,0 678,0 678,-41"/>
<text text-anchor="start" x="585" y="-29" font-family="Helvetica,sans-Serif" font-size="10.00">lib/board_adapters</text>
<text text-anchor="start" x="585" y="-18" font-family="Helvetica,sans-Serif" font-size="10.00">/src/keypad_factory</text>
<text text-anchor="middle" x="627.5" y="-7" font-family="Helvetica,sans-Serif" font-size="10.00">_interface.cpp</text>
</a>
</g>
</g>
<!-- Node6&#45;&gt;Node10 -->
<g id="edge11" class="edge">
<title>Node6&#45;&gt;Node10</title>
<path fill="none" stroke="#63b8ff" d="M438.44,-165.53C481.64,-160.85 537.17,-148.68 576.5,-118 601.45,-98.54 615.55,-63.4 622.34,-41.32"/>
<polygon fill="#63b8ff" stroke="#63b8ff" points="438.3,-162.03 428.68,-166.47 438.97,-168.99 438.3,-162.03"/>
</g>
<!-- Node9 -->
<g id="node9" class="node">
<title>Node9</title>
<g id="a_node9"><a xlink:href="Keypad_8cpp.xhtml" target="_top" xlink:title=" ">
<polygon fill="white" stroke="#666666" points="439.5,-35.5 343.5,-35.5 343.5,-5.5 439.5,-5.5 439.5,-35.5"/>
<text text-anchor="start" x="351.5" y="-23.5" font-family="Helvetica,sans-Serif" font-size="10.00">lib/board_adapters</text>
<text text-anchor="middle" x="391.5" y="-12.5" font-family="Helvetica,sans-Serif" font-size="10.00">/src/Keypad.cpp</text>
</a>
</g>
</g>
<!-- Node8&#45;&gt;Node9 -->
<g id="edge8" class="edge">
<title>Node8&#45;&gt;Node9</title>
<path fill="none" stroke="#63b8ff" d="M484.98,-76.27C463.22,-63.52 435.65,-47.37 416.1,-35.92"/>
<polygon fill="#63b8ff" stroke="#63b8ff" points="483.12,-79.24 493.51,-81.27 486.66,-73.2 483.12,-79.24"/>
</g>
<!-- Node8&#45;&gt;Node10 -->
<g id="edge9" class="edge">
<title>Node8&#45;&gt;Node10</title>
<path fill="none" stroke="#63b8ff" d="M549.47,-75.69C564.94,-64.94 583.72,-51.9 598.98,-41.3"/>
<polygon fill="#63b8ff" stroke="#63b8ff" points="547.78,-72.6 541.57,-81.18 551.78,-78.35 547.78,-72.6"/>
</g>
<!-- Node11 -->
<g id="node11" class="node">
<title>Node11</title>
<g id="a_node11"><a xlink:href="test__board_8cpp.xhtml" target="_top" xlink:title=" ">
<polygon fill="white" stroke="#666666" points="559,-35.5 458,-35.5 458,-5.5 559,-5.5 559,-35.5"/>
<text text-anchor="start" x="466" y="-23.5" font-family="Helvetica,sans-Serif" font-size="10.00">test/test_board/test</text>
<text text-anchor="middle" x="508.5" y="-12.5" font-family="Helvetica,sans-Serif" font-size="10.00">_board.cpp</text>
</a>
</g>
</g>
<!-- Node8&#45;&gt;Node11 -->
<g id="edge10" class="edge">
<title>Node8&#45;&gt;Node11</title>
<path fill="none" stroke="#63b8ff" d="M515.72,-70.73C514.01,-59.08 512.06,-45.76 510.61,-35.92"/>
<polygon fill="#63b8ff" stroke="#63b8ff" points="512.25,-71.16 517.16,-80.54 519.17,-70.14 512.25,-71.16"/>
</g>
</g>
</svg>
