<?xml version="1.0" encoding="UTF-8" standalone="no"?>
<!DOCTYPE svg PUBLIC "-//W3C//DTD SVG 1.1//EN"
 "http://www.w3.org/Graphics/SVG/1.1/DTD/svg11.dtd">
<!-- Generated by graphviz version 9.0.0 (20230911.1827)
 -->
<!-- Title: Keypad Pages: 1 -->
<svg width="475pt" height="198pt"
 viewBox="0.00 0.00 475.00 198.25" xmlns="http://www.w3.org/2000/svg" xmlns:xlink="http://www.w3.org/1999/xlink">
<g id="graph0" class="graph" transform="scale(1 1) rotate(0) translate(4 194.25)">
<title>Keypad</title>
<!-- Node1 -->
<g id="Node000001" class="node">
<title>Node1</title>
<g id="a_Node000001"><a xlink:title=" ">
<polygon fill="#999999" stroke="none" points="332,-79 200,-79 200,0 332,0 332,-79"/>
<text text-anchor="start" x="249.88" y="-65.5" font-family="Helvetica,sans-Serif" font-size="10.00">Keypad</text>
<text text-anchor="start" x="264.5" y="-50.5" font-family="Helvetica,sans-Serif" font-size="10.00"> </text>
<text text-anchor="start" x="204" y="-35.5" font-family="Helvetica,sans-Serif" font-size="10.00">+</text>
<text text-anchor="start" x="214" y="-35.5" font-family="Helvetica,sans-Serif" font-size="10.00">getCurrentlyPressedKey()</text>
<text text-anchor="start" x="204" y="-20.5" font-family="Helvetica,sans-Serif" font-size="10.00">+</text>
<text text-anchor="start" x="214" y="-20.5" font-family="Helvetica,sans-Serif" font-size="10.00">Keypad()</text>
<text text-anchor="start" x="205.5" y="-5.5" font-family="Helvetica,sans-Serif" font-size="10.00">&#45;</text>
<text text-anchor="start" x="214" y="-5.5" font-family="Helvetica,sans-Serif" font-size="10.00">getFirstPressedKeyIndex()</text>
<polygon fill="#666666" stroke="#666666" points="200,-62 200,-62 332,-62 332,-62 200,-62"/>
<polygon fill="#666666" stroke="#666666" points="200,-47 200,-47 332,-47 332,-47 200,-47"/>
<polygon fill="none" stroke="#666666" points="200,0 200,-79 332,-79 332,0 200,0"/>
</a>
</g>
</g>
<!-- Node2 -->
<g id="Node000002" class="node">
<title>Node2</title>
<g id="a_Node000002"><a xlink:href="classIKeypad.xhtml" target="_top" xlink:title=" ">
<polygon fill="white" stroke="none" points="128,-190.25 0,-190.25 0,-126.25 128,-126.25 128,-190.25"/>
<text text-anchor="start" x="46.38" y="-176.75" font-family="Helvetica,sans-Serif" font-size="10.00">IKeypad</text>
<text text-anchor="start" x="62.5" y="-161.75" font-family="Helvetica,sans-Serif" font-size="10.00"> </text>
<text text-anchor="start" x="4" y="-146.75" font-family="Helvetica,sans-Serif" font-size="10.00">+</text>
<text text-anchor="start" x="14" y="-146.75" font-family="Helvetica,sans-Serif" font-size="10.00">getCurrentlyPressedKey()</text>
<text text-anchor="start" x="4" y="-131.75" font-family="Helvetica,sans-Serif" font-size="10.00">+</text>
<text text-anchor="start" x="14" y="-131.75" font-family="Helvetica,sans-Serif" font-size="10.00">~IKeypad()</text>
<polygon fill="#666666" stroke="#666666" points="0,-173.25 0,-173.25 128,-173.25 128,-173.25 0,-173.25"/>
<polygon fill="#666666" stroke="#666666" points="0,-158.25 0,-158.25 128,-158.25 128,-158.25 0,-158.25"/>
<polygon fill="none" stroke="#666666" points="0,-126.25 0,-190.25 128,-190.25 128,-126.25 0,-126.25"/>
</a>
</g>
</g>
<!-- Node2&#45;&gt;Node1 -->
<g id="edge1_Node000001_Node000002" class="edge">
<title>Node2&#45;&gt;Node1</title>
<g id="a_edge1_Node000001_Node000002"><a xlink:title=" ">
<path fill="none" stroke="#63b8ff" d="M127.34,-120.64C150.54,-107.23 176.83,-92.04 200.24,-78.51"/>
<polygon fill="none" stroke="#63b8ff" points="125.82,-117.48 118.91,-125.51 129.32,-123.54 125.82,-117.48"/>
</a>
</g>
</g>
<!-- Node3 -->
<g id="Node000003" class="node">
<title>Node3</title>
<g id="a_Node000003"><a xlink:title=" ">
<polygon fill="white" stroke="none" points="261.5,-182.75 146.5,-182.75 146.5,-133.75 261.5,-133.75 261.5,-182.75"/>
<text text-anchor="start" x="151.12" y="-169.25" font-family="Helvetica,sans-Serif" font-size="10.00">static constexpr PinType</text>
<text text-anchor="start" x="202.5" y="-154.25" font-family="Helvetica,sans-Serif" font-size="10.00"> </text>
<text text-anchor="start" x="202.5" y="-139.25" font-family="Helvetica,sans-Serif" font-size="10.00"> </text>
<polygon fill="#666666" stroke="#666666" points="146.5,-165.75 146.5,-165.75 261.5,-165.75 261.5,-165.75 146.5,-165.75"/>
<polygon fill="#666666" stroke="#666666" points="146.5,-150.75 146.5,-150.75 261.5,-150.75 261.5,-150.75 146.5,-150.75"/>
<polygon fill="none" stroke="#666666" points="146.5,-133.75 146.5,-182.75 261.5,-182.75 261.5,-133.75 146.5,-133.75"/>
</a>
</g>
</g>
<!-- Node3&#45;&gt;Node1 -->
<g id="edge2_Node000001_Node000003" class="edge">
<title>Node3&#45;&gt;Node1</title>
<g id="a_edge2_Node000001_Node000003"><a xlink:title=" ">
<path fill="none" stroke="#63b8ff" d="M216.4,-133.9C223.04,-121.39 231.5,-105.47 239.54,-90.33"/>
<polygon fill="none" stroke="#63b8ff" points="239.52,-90.37 238.8,-83.19 245.15,-79.77 245.86,-86.94 239.52,-90.37"/>
</a>
</g>
<text text-anchor="middle" x="257.88" y="-98.75" font-family="Helvetica,sans-Serif" font-size="10.00" fill="grey"> &#45;inputPins</text>
</g>
<!-- Node4 -->
<g id="Node000004" class="node">
<title>Node4</title>
<g id="a_Node000004"><a xlink:title=" ">
<polygon fill="white" stroke="none" points="378.5,-182.75 279.5,-182.75 279.5,-133.75 378.5,-133.75 378.5,-182.75"/>
<text text-anchor="start" x="284.38" y="-169.25" font-family="Helvetica,sans-Serif" font-size="10.00">static constexpr auto</text>
<text text-anchor="start" x="327.5" y="-154.25" font-family="Helvetica,sans-Serif" font-size="10.00"> </text>
<text text-anchor="start" x="327.5" y="-139.25" font-family="Helvetica,sans-Serif" font-size="10.00"> </text>
<polygon fill="#666666" stroke="#666666" points="279.5,-165.75 279.5,-165.75 378.5,-165.75 378.5,-165.75 279.5,-165.75"/>
<polygon fill="#666666" stroke="#666666" points="279.5,-150.75 279.5,-150.75 378.5,-150.75 378.5,-150.75 279.5,-150.75"/>
<polygon fill="none" stroke="#666666" points="279.5,-133.75 279.5,-182.75 378.5,-182.75 378.5,-133.75 279.5,-133.75"/>
</a>
</g>
</g>
<!-- Node4&#45;&gt;Node1 -->
<g id="edge3_Node000001_Node000004" class="edge">
<title>Node4&#45;&gt;Node1</title>
<g id="a_edge3_Node000001_Node000004"><a xlink:title=" ">
<path fill="none" stroke="#63b8ff" d="M316.4,-133.9C309.65,-121.39 301.06,-105.47 292.89,-90.33"/>
<polygon fill="none" stroke="#63b8ff" points="292.89,-90.33 286.52,-86.95 287.19,-79.77 293.56,-83.15 292.89,-90.33"/>
</a>
</g>
<text text-anchor="middle" x="336.25" y="-98.75" font-family="Helvetica,sans-Serif" font-size="10.00" fill="grey"> +numberOfPins</text>
</g>
<!-- Node5 -->
<g id="Node000005" class="node">
<title>Node5</title>
<g id="a_Node000005"><a xlink:title=" ">
<polygon fill="white" stroke="none" points="467,-182.75 397,-182.75 397,-133.75 467,-133.75 467,-182.75"/>
<text text-anchor="start" x="401.62" y="-169.25" font-family="Helvetica,sans-Serif" font-size="10.00">const KeyId(&amp;</text>
<text text-anchor="start" x="430.5" y="-154.25" font-family="Helvetica,sans-Serif" font-size="10.00"> </text>
<text text-anchor="start" x="430.5" y="-139.25" font-family="Helvetica,sans-Serif" font-size="10.00"> </text>
<polygon fill="#666666" stroke="#666666" points="397,-165.75 397,-165.75 467,-165.75 467,-165.75 397,-165.75"/>
<polygon fill="#666666" stroke="#666666" points="397,-150.75 397,-150.75 467,-150.75 467,-150.75 397,-150.75"/>
<polygon fill="none" stroke="#666666" points="397,-133.75 397,-182.75 467,-182.75 467,-133.75 397,-133.75"/>
</a>
</g>
</g>
<!-- Node5&#45;&gt;Node1 -->
<g id="edge4_Node000001_Node000005" class="edge">
<title>Node5&#45;&gt;Node1</title>
<g id="a_edge4_Node000001_Node000005"><a xlink:title=" ">
<path fill="none" stroke="#63b8ff" d="M413.7,-133.95C403.48,-121.93 390,-107.61 376,-97 365.92,-89.37 354.66,-82.26 343.3,-75.83"/>
<polygon fill="none" stroke="#63b8ff" points="343.27,-75.82 336.08,-76.46 332.73,-70.08 339.91,-69.43 343.27,-75.82"/>
</a>
</g>
<text text-anchor="middle" x="419.5" y="-98.75" font-family="Helvetica,sans-Serif" font-size="10.00" fill="grey"> &#45;inputMapping</text>
</g>
</g>
</svg>
