<?xml version="1.0" encoding="UTF-8" standalone="no"?>
<!DOCTYPE svg PUBLIC "-//W3C//DTD SVG 1.1//EN"
 "http://www.w3.org/Graphics/SVG/1.1/DTD/svg11.dtd">
<!-- Generated by graphviz version 9.0.0 (20230911.1827)
 -->
<!-- Title: IPresenter Pages: 1 -->
<svg width="133pt" height="187pt"
 viewBox="0.00 0.00 133.00 187.00" xmlns="http://www.w3.org/2000/svg" xmlns:xlink="http://www.w3.org/1999/xlink">
<g id="graph0" class="graph" transform="scale(1 1) rotate(0) translate(4 183)">
<title>IPresenter</title>
<!-- Node1 -->
<g id="Node000001" class="node">
<title>Node1</title>
<g id="a_Node000001"><a xlink:title=" ">
<polygon fill="#999999" stroke="none" points="125,-179 0,-179 0,-115 125,-115 125,-179"/>
<text text-anchor="start" x="40" y="-165.5" font-family="Helvetica,sans-Serif" font-size="10.00">IPresenter</text>
<text text-anchor="start" x="61" y="-150.5" font-family="Helvetica,sans-Serif" font-size="10.00"> </text>
<text text-anchor="start" x="4" y="-135.5" font-family="Helvetica,sans-Serif" font-size="10.00">+</text>
<text text-anchor="start" x="14" y="-135.5" font-family="Helvetica,sans-Serif" font-size="10.00">setTaskStatusIndicator()</text>
<text text-anchor="start" x="4" y="-120.5" font-family="Helvetica,sans-Serif" font-size="10.00">+</text>
<text text-anchor="start" x="14" y="-120.5" font-family="Helvetica,sans-Serif" font-size="10.00">~IPresenter()</text>
<polygon fill="#666666" stroke="#666666" points="0,-162 0,-162 125,-162 125,-162 0,-162"/>
<polygon fill="#666666" stroke="#666666" points="0,-147 0,-147 125,-147 125,-147 0,-147"/>
<polygon fill="none" stroke="#666666" points="0,-115 0,-179 125,-179 125,-115 0,-115"/>
</a>
</g>
</g>
<!-- Node2 -->
<g id="Node000002" class="node">
<title>Node2</title>
<g id="a_Node000002"><a xlink:href="classPresenter.xhtml" target="_top" xlink:title=" ">
<polygon fill="white" stroke="none" points="125,-79 0,-79 0,0 125,0 125,-79"/>
<text text-anchor="start" x="41.5" y="-65.5" font-family="Helvetica,sans-Serif" font-size="10.00">Presenter</text>
<text text-anchor="start" x="5.5" y="-50.5" font-family="Helvetica,sans-Serif" font-size="10.00">&#45;</text>
<text text-anchor="start" x="14" y="-50.5" font-family="Helvetica,sans-Serif" font-size="10.00">menu</text>
<text text-anchor="start" x="5.5" y="-35.5" font-family="Helvetica,sans-Serif" font-size="10.00">&#45;</text>
<text text-anchor="start" x="14" y="-35.5" font-family="Helvetica,sans-Serif" font-size="10.00">statusIndicators</text>
<text text-anchor="start" x="4" y="-20.5" font-family="Helvetica,sans-Serif" font-size="10.00">+</text>
<text text-anchor="start" x="14" y="-20.5" font-family="Helvetica,sans-Serif" font-size="10.00">Presenter()</text>
<text text-anchor="start" x="4" y="-5.5" font-family="Helvetica,sans-Serif" font-size="10.00">+</text>
<text text-anchor="start" x="14" y="-5.5" font-family="Helvetica,sans-Serif" font-size="10.00">setTaskStatusIndicator()</text>
<polygon fill="#666666" stroke="#666666" points="0,-62 0,-62 125,-62 125,-62 0,-62"/>
<polygon fill="#666666" stroke="#666666" points="0,-32 0,-32 12,-32 12,-32 0,-32"/>
<polygon fill="#666666" stroke="#666666" points="12,-32 12,-32 125,-32 125,-32 12,-32"/>
<polygon fill="none" stroke="#666666" points="0,0 0,-79 125,-79 125,0 0,0"/>
</a>
</g>
</g>
<!-- Node1&#45;&gt;Node2 -->
<g id="edge1_Node000001_Node000002" class="edge">
<title>Node1&#45;&gt;Node2</title>
<g id="a_edge1_Node000001_Node000002"><a xlink:title=" ">
<path fill="none" stroke="#63b8ff" d="M62.5,-103.79C62.5,-95.48 62.5,-86.81 62.5,-78.65"/>
<polygon fill="none" stroke="#63b8ff" points="59,-103.69 62.5,-113.69 66,-103.69 59,-103.69"/>
</a>
</g>
</g>
</g>
</svg>
