<?xml version="1.0" encoding="UTF-8" standalone="no"?>
<!DOCTYPE svg PUBLIC "-//W3C//DTD SVG 1.1//EN"
 "http://www.w3.org/Graphics/SVG/1.1/DTD/svg11.dtd">
<!-- Generated by graphviz version 9.0.0 (20230911.1827)
 -->
<!-- Title: InputShiftRegister&lt; numberOfBytes &gt; Pages: 1 -->
<svg width="288pt" height="424pt"
 viewBox="0.00 0.00 287.50 423.75" xmlns="http://www.w3.org/2000/svg" xmlns:xlink="http://www.w3.org/1999/xlink">
<g id="graph0" class="graph" transform="scale(1 1) rotate(0) translate(4 419.75)">
<title>InputShiftRegister&lt; numberOfBytes &gt;</title>
<!-- Node1 -->
<g id="Node000001" class="node">
<title>Node1</title>
<g id="a_Node000001"><a xlink:title=" ">
<polygon fill="#999999" stroke="none" points="180,-75 78,-75 78,0 180,0 180,-75"/>
<text text-anchor="start" x="87" y="-61.5" font-family="Helvetica,sans-Serif" font-size="10.00">InputShiftRegister</text>
<text text-anchor="start" x="87" y="-50.25" font-family="Helvetica,sans-Serif" font-size="10.00">&lt; numberOfBytes &gt;</text>
<text text-anchor="start" x="127.5" y="-35.5" font-family="Helvetica,sans-Serif" font-size="10.00"> </text>
<text text-anchor="start" x="82" y="-20.5" font-family="Helvetica,sans-Serif" font-size="10.00">+</text>
<text text-anchor="start" x="92" y="-20.5" font-family="Helvetica,sans-Serif" font-size="10.00">InputShiftRegister()</text>
<text text-anchor="start" x="82" y="-5.5" font-family="Helvetica,sans-Serif" font-size="10.00">+</text>
<text text-anchor="start" x="92" y="-5.5" font-family="Helvetica,sans-Serif" font-size="10.00">readRegister()</text>
<polygon fill="#666666" stroke="#666666" points="78,-47 78,-47 180,-47 180,-47 78,-47"/>
<polygon fill="#666666" stroke="#666666" points="78,-32 78,-32 180,-32 180,-32 78,-32"/>
<polygon fill="none" stroke="#666666" points="78,0 78,-75 180,-75 180,0 78,0"/>
</a>
</g>
</g>
<!-- Node2 -->
<g id="Node000002" class="node">
<title>Node2</title>
<g id="a_Node000002"><a xlink:href="classIInputShiftRegister.xhtml" target="_top" xlink:title=" ">
<polygon fill="white" stroke="none" points="110,-197.25 0,-197.25 0,-122.25 110,-122.25 110,-197.25"/>
<text text-anchor="start" x="7.38" y="-183.75" font-family="Helvetica,sans-Serif" font-size="10.00">IInputShiftRegister</text>
<text text-anchor="start" x="7.38" y="-172.5" font-family="Helvetica,sans-Serif" font-size="10.00">&lt; numberOfBytes *8 &gt;</text>
<text text-anchor="start" x="53.5" y="-157.75" font-family="Helvetica,sans-Serif" font-size="10.00"> </text>
<text text-anchor="start" x="4" y="-142.75" font-family="Helvetica,sans-Serif" font-size="10.00">+</text>
<text text-anchor="start" x="14" y="-142.75" font-family="Helvetica,sans-Serif" font-size="10.00">readRegister()</text>
<text text-anchor="start" x="4" y="-127.75" font-family="Helvetica,sans-Serif" font-size="10.00">+</text>
<text text-anchor="start" x="14" y="-127.75" font-family="Helvetica,sans-Serif" font-size="10.00">~IInputShiftRegister()</text>
<polygon fill="#666666" stroke="#666666" points="0,-169.25 0,-169.25 110,-169.25 110,-169.25 0,-169.25"/>
<polygon fill="#666666" stroke="#666666" points="0,-154.25 0,-154.25 110,-154.25 110,-154.25 0,-154.25"/>
<polygon fill="none" stroke="#666666" points="0,-122.25 0,-197.25 110,-197.25 110,-122.25 0,-122.25"/>
</a>
</g>
</g>
<!-- Node2&#45;&gt;Node1 -->
<g id="edge1_Node000001_Node000002" class="edge">
<title>Node2&#45;&gt;Node1</title>
<g id="a_edge1_Node000001_Node000002"><a xlink:title=" ">
<path fill="none" stroke="#63b8ff" d="M83.21,-112.91C90.98,-100.29 99.29,-86.78 106.67,-74.78"/>
<polygon fill="none" stroke="#63b8ff" points="80.46,-110.7 78.2,-121.06 86.42,-114.37 80.46,-110.7"/>
</a>
</g>
</g>
<!-- Node3 -->
<g id="Node000003" class="node">
<title>Node3</title>
<g id="a_Node000003"><a xlink:title=" ">
<polygon fill="white" stroke="none" points="72.5,-415.75 37.5,-415.75 37.5,-366.75 72.5,-366.75 72.5,-415.75"/>
<text text-anchor="start" x="42.25" y="-402.25" font-family="Helvetica,sans-Serif" font-size="10.00">size_t</text>
<text text-anchor="start" x="53.5" y="-387.25" font-family="Helvetica,sans-Serif" font-size="10.00"> </text>
<text text-anchor="start" x="53.5" y="-372.25" font-family="Helvetica,sans-Serif" font-size="10.00"> </text>
<polygon fill="#666666" stroke="#666666" points="37.5,-398.75 37.5,-398.75 72.5,-398.75 72.5,-398.75 37.5,-398.75"/>
<polygon fill="#666666" stroke="#666666" points="37.5,-383.75 37.5,-383.75 72.5,-383.75 72.5,-383.75 37.5,-383.75"/>
<polygon fill="none" stroke="#666666" points="37.5,-366.75 37.5,-415.75 72.5,-415.75 72.5,-366.75 37.5,-366.75"/>
</a>
</g>
</g>
<!-- Node3&#45;&gt;Node2 -->
<g id="edge2_Node000002_Node000003" class="edge">
<title>Node3&#45;&gt;Node2</title>
<g id="a_edge2_Node000002_Node000003"><a xlink:title=" ">
<path fill="none" stroke="#63b8ff" d="M52.02,-367.03C50.4,-353.25 48.56,-335.41 47.75,-319.5 46.05,-286.21 46.31,-277.8 47.75,-244.5 48.23,-233.29 49.08,-221.25 50.03,-209.9"/>
<polygon fill="none" stroke="#63b8ff" points="50.04,-209.83 46.58,-203.5 51.1,-197.88 54.55,-204.21 50.04,-209.83"/>
</a>
</g>
<text text-anchor="middle" x="82.12" y="-278.12" font-family="Helvetica,sans-Serif" font-size="10.00" fill="grey"> +numberOfBits</text>
</g>
<!-- Node4 -->
<g id="Node000004" class="node">
<title>Node4</title>
<g id="a_Node000004"><a xlink:href="classIInputShiftRegister.xhtml" target="_top" xlink:title=" ">
<polygon fill="white" stroke="none" points="235,-319.5 125,-319.5 125,-244.5 235,-244.5 235,-319.5"/>
<text text-anchor="start" x="139.5" y="-306" font-family="Helvetica,sans-Serif" font-size="10.00">IInputShiftRegister</text>
<text text-anchor="start" x="140.62" y="-294.75" font-family="Helvetica,sans-Serif" font-size="10.00">&lt; NumberOfBits &gt;</text>
<text text-anchor="start" x="178.5" y="-280" font-family="Helvetica,sans-Serif" font-size="10.00"> </text>
<text text-anchor="start" x="129" y="-265" font-family="Helvetica,sans-Serif" font-size="10.00">+</text>
<text text-anchor="start" x="139" y="-265" font-family="Helvetica,sans-Serif" font-size="10.00">readRegister()</text>
<text text-anchor="start" x="129" y="-250" font-family="Helvetica,sans-Serif" font-size="10.00">+</text>
<text text-anchor="start" x="139" y="-250" font-family="Helvetica,sans-Serif" font-size="10.00">~IInputShiftRegister()</text>
<polygon fill="#666666" stroke="#666666" points="125,-291.5 125,-291.5 235,-291.5 235,-291.5 125,-291.5"/>
<polygon fill="#666666" stroke="#666666" points="125,-276.5 125,-276.5 235,-276.5 235,-276.5 125,-276.5"/>
<polygon fill="none" stroke="#666666" points="125,-244.5 125,-319.5 235,-319.5 235,-244.5 125,-244.5"/>
</a>
</g>
</g>
<!-- Node3&#45;&gt;Node4 -->
<g id="edge4_Node000004_Node000003" class="edge">
<title>Node3&#45;&gt;Node4</title>
<g id="a_edge4_Node000004_Node000003"><a xlink:title=" ">
<path fill="none" stroke="#63b8ff" d="M72.38,-375.34C86.73,-363.03 107.87,-344.89 127.62,-327.94"/>
<polygon fill="none" stroke="#63b8ff" points="127.68,-327.89 129.63,-320.95 136.79,-320.07 134.84,-327.02 127.68,-327.89"/>
</a>
</g>
<text text-anchor="middle" x="148.12" y="-339.25" font-family="Helvetica,sans-Serif" font-size="10.00" fill="grey"> +numberOfBits</text>
</g>
<!-- Node4&#45;&gt;Node2 -->
<g id="edge3_Node000002_Node000004" class="edge">
<title>Node4&#45;&gt;Node2</title>
<g id="a_edge3_Node000002_Node000004"><a xlink:title=" ">
<path fill="none" stroke="orange" d="M133.89,-236.64C120.33,-223.6 105.68,-209.5 92.71,-197.03"/>
<polygon fill="orange" stroke="orange" points="131.43,-239.13 141.07,-243.55 136.29,-234.09 131.43,-239.13"/>
</a>
</g>
<text text-anchor="middle" x="170.75" y="-217" font-family="Helvetica,sans-Serif" font-size="10.00" fill="grey"> &lt; numberOfBytes *8 &gt;</text>
</g>
<!-- Node5 -->
<g id="Node000005" class="node">
<title>Node5</title>
<g id="a_Node000005"><a xlink:title=" ">
<polygon fill="white" stroke="none" points="279.5,-184.25 128.5,-184.25 128.5,-135.25 279.5,-135.25 279.5,-184.25"/>
<text text-anchor="start" x="133.5" y="-170.75" font-family="Helvetica,sans-Serif" font-size="10.00">Rox74HC165&lt; numberOfBytes &gt;</text>
<text text-anchor="start" x="202.5" y="-155.75" font-family="Helvetica,sans-Serif" font-size="10.00"> </text>
<text text-anchor="start" x="202.5" y="-140.75" font-family="Helvetica,sans-Serif" font-size="10.00"> </text>
<polygon fill="#666666" stroke="#666666" points="128.5,-167.25 128.5,-167.25 279.5,-167.25 279.5,-167.25 128.5,-167.25"/>
<polygon fill="#666666" stroke="#666666" points="128.5,-152.25 128.5,-152.25 279.5,-152.25 279.5,-152.25 128.5,-152.25"/>
<polygon fill="none" stroke="#666666" points="128.5,-135.25 128.5,-184.25 279.5,-184.25 279.5,-135.25 128.5,-135.25"/>
</a>
</g>
</g>
<!-- Node5&#45;&gt;Node1 -->
<g id="edge5_Node000001_Node000005" class="edge">
<title>Node5&#45;&gt;Node1</title>
<g id="a_edge5_Node000001_Node000005"><a xlink:title=" ">
<path fill="none" stroke="#63b8ff" d="M189.36,-135.28C180.55,-121.15 169.01,-102.65 158.39,-85.62"/>
<polygon fill="none" stroke="#63b8ff" points="158.4,-85.65 151.84,-82.67 152.05,-75.46 158.62,-78.44 158.4,-85.65"/>
</a>
</g>
<text text-anchor="middle" x="196" y="-94.75" font-family="Helvetica,sans-Serif" font-size="10.00" fill="grey"> &#45;isrBackend</text>
</g>
</g>
</svg>
