<?xml version="1.0" encoding="UTF-8" standalone="no"?>
<!DOCTYPE svg PUBLIC "-//W3C//DTD SVG 1.1//EN"
 "http://www.w3.org/Graphics/SVG/1.1/DTD/svg11.dtd">
<!-- Generated by graphviz version 9.0.0 (20230911.1827)
 -->
<!-- Title: Menu Pages: 1 -->
<svg width="67pt" height="153pt"
 viewBox="0.00 0.00 67.25 153.25" xmlns="http://www.w3.org/2000/svg" xmlns:xlink="http://www.w3.org/1999/xlink">
<g id="graph0" class="graph" transform="scale(1 1) rotate(0) translate(4 149.25)">
<title>Menu</title>
<!-- Node1 -->
<g id="Node000001" class="node">
<title>Node1</title>
<g id="a_Node000001"><a xlink:title=" ">
<polygon fill="#999999" stroke="none" points="48,-49 0,-49 0,0 48,0 48,-49"/>
<text text-anchor="start" x="12" y="-35.5" font-family="Helvetica,sans-Serif" font-size="10.00">Menu</text>
<text text-anchor="start" x="22.5" y="-20.5" font-family="Helvetica,sans-Serif" font-size="10.00"> </text>
<text text-anchor="start" x="4" y="-5.5" font-family="Helvetica,sans-Serif" font-size="10.00">+</text>
<text text-anchor="start" x="14" y="-5.5" font-family="Helvetica,sans-Serif" font-size="10.00">Menu()</text>
<polygon fill="#666666" stroke="#666666" points="0,-32 0,-32 48,-32 48,-32 0,-32"/>
<polygon fill="#666666" stroke="#666666" points="0,-17 0,-17 48,-17 48,-17 0,-17"/>
<polygon fill="none" stroke="#666666" points="0,0 0,-49 48,-49 48,0 0,0"/>
</a>
</g>
</g>
<!-- Node2 -->
<g id="Node000002" class="node">
<title>Node2</title>
<g id="a_Node000002"><a xlink:href="classIDisplay.xhtml" target="_top" xlink:title=" ">
<polygon fill="white" stroke="none" points="46,-145.25 2,-145.25 2,-96.25 46,-96.25 46,-145.25"/>
<text text-anchor="start" x="6.75" y="-131.75" font-family="Helvetica,sans-Serif" font-size="10.00">IDisplay</text>
<text text-anchor="start" x="22.5" y="-116.75" font-family="Helvetica,sans-Serif" font-size="10.00"> </text>
<text text-anchor="start" x="22.5" y="-101.75" font-family="Helvetica,sans-Serif" font-size="10.00"> </text>
<polygon fill="#666666" stroke="#666666" points="2,-128.25 2,-128.25 46,-128.25 46,-128.25 2,-128.25"/>
<polygon fill="#666666" stroke="#666666" points="2,-113.25 2,-113.25 46,-113.25 46,-113.25 2,-113.25"/>
<polygon fill="none" stroke="#666666" points="2,-96.25 2,-145.25 46,-145.25 46,-96.25 2,-96.25"/>
</a>
</g>
</g>
<!-- Node2&#45;&gt;Node1 -->
<g id="edge1_Node000001_Node000002" class="edge">
<title>Node2&#45;&gt;Node1</title>
<g id="a_edge1_Node000001_Node000002"><a xlink:title=" ">
<path fill="none" stroke="#63b8ff" d="M24,-96.45C24,-86.03 24,-73.5 24,-61.89"/>
<polygon fill="none" stroke="#63b8ff" points="24,-61.76 20,-55.76 24,-49.76 28,-55.76 24,-61.76"/>
</a>
</g>
<text text-anchor="middle" x="41.62" y="-68.75" font-family="Helvetica,sans-Serif" font-size="10.00" fill="grey"> &#45;display</text>
</g>
</g>
</svg>
