<?xml version="1.0" encoding="UTF-8" standalone="no"?>
<!DOCTYPE svg PUBLIC "-//W3C//DTD SVG 1.1//EN"
 "http://www.w3.org/Graphics/SVG/1.1/DTD/svg11.dtd">
<!-- Generated by graphviz version 9.0.0 (20230911.1827)
 -->
<!-- Title: SerialOutputStreamBuffer&lt; BufferSize &gt; Pages: 1 -->
<svg width="151pt" height="224pt"
 viewBox="0.00 0.00 151.00 224.25" xmlns="http://www.w3.org/2000/svg" xmlns:xlink="http://www.w3.org/1999/xlink">
<g id="graph0" class="graph" transform="scale(1 1) rotate(0) translate(4 220.25)">
<title>SerialOutputStreamBuffer&lt; BufferSize &gt;</title>
<!-- Node1 -->
<g id="Node000001" class="node">
<title>Node1</title>
<g id="a_Node000001"><a xlink:title=" ">
<polygon fill="#999999" stroke="none" points="143,-120 8,-120 8,0 143,0 143,-120"/>
<text text-anchor="start" x="20" y="-106.5" font-family="Helvetica,sans-Serif" font-size="10.00">SerialOutputStreamBuffer</text>
<text text-anchor="start" x="45.12" y="-95.25" font-family="Helvetica,sans-Serif" font-size="10.00">&lt; BufferSize &gt;</text>
<text text-anchor="start" x="74" y="-80.5" font-family="Helvetica,sans-Serif" font-size="10.00"> </text>
<text text-anchor="start" x="12" y="-65.5" font-family="Helvetica,sans-Serif" font-size="10.00">+</text>
<text text-anchor="start" x="22" y="-65.5" font-family="Helvetica,sans-Serif" font-size="10.00">SerialOutputStreamBuffer()</text>
<text text-anchor="start" x="12.38" y="-50.5" font-family="Helvetica,sans-Serif" font-size="10.00">#</text>
<text text-anchor="start" x="22" y="-50.5" font-family="Helvetica,sans-Serif" font-size="10.00">overflow()</text>
<text text-anchor="start" x="12.38" y="-35.5" font-family="Helvetica,sans-Serif" font-size="10.00">#</text>
<text text-anchor="start" x="22" y="-35.5" font-family="Helvetica,sans-Serif" font-size="10.00">sync()</text>
<text text-anchor="start" x="12.38" y="-20.5" font-family="Helvetica,sans-Serif" font-size="10.00">#</text>
<text text-anchor="start" x="22" y="-20.5" font-family="Helvetica,sans-Serif" font-size="10.00">flush()</text>
<text text-anchor="start" x="12.38" y="-5.5" font-family="Helvetica,sans-Serif" font-size="10.00">#</text>
<text text-anchor="start" x="22" y="-5.5" font-family="Helvetica,sans-Serif" font-size="10.00">resetOutputPointers()</text>
<polygon fill="#666666" stroke="#666666" points="8,-92 8,-92 143,-92 143,-92 8,-92"/>
<polygon fill="#666666" stroke="#666666" points="8,-77 8,-77 143,-77 143,-77 8,-77"/>
<polygon fill="none" stroke="#666666" points="8,0 8,-120 143,-120 143,0 8,0"/>
</a>
</g>
</g>
<!-- Node2 -->
<g id="Node000002" class="node">
<title>Node2</title>
<g id="a_Node000002"><a xlink:title=" ">
<polygon fill="white" stroke="none" points="71,-216.25 0,-216.25 0,-167.25 71,-167.25 71,-216.25"/>
<text text-anchor="start" x="4.75" y="-202.75" font-family="Helvetica,sans-Serif" font-size="10.00">std::streambuf</text>
<text text-anchor="start" x="34" y="-187.75" font-family="Helvetica,sans-Serif" font-size="10.00"> </text>
<text text-anchor="start" x="34" y="-172.75" font-family="Helvetica,sans-Serif" font-size="10.00"> </text>
<polygon fill="#666666" stroke="#666666" points="0,-199.25 0,-199.25 71,-199.25 71,-199.25 0,-199.25"/>
<polygon fill="#666666" stroke="#666666" points="0,-184.25 0,-184.25 71,-184.25 71,-184.25 0,-184.25"/>
<polygon fill="none" stroke="#666666" points="0,-167.25 0,-216.25 71,-216.25 71,-167.25 0,-167.25"/>
</a>
</g>
</g>
<!-- Node2&#45;&gt;Node1 -->
<g id="edge1_Node000001_Node000002" class="edge">
<title>Node2&#45;&gt;Node1</title>
<g id="a_edge1_Node000001_Node000002"><a xlink:title=" ">
<path fill="none" stroke="#63b8ff" d="M46.13,-156.26C49.58,-145.09 53.49,-132.38 57.32,-119.96"/>
<polygon fill="none" stroke="#63b8ff" points="42.79,-155.22 43.19,-165.81 49.48,-157.28 42.79,-155.22"/>
</a>
</g>
</g>
<!-- Node3 -->
<g id="Node000003" class="node">
<title>Node3</title>
<g id="a_Node000003"><a xlink:title=" ">
<polygon fill="white" stroke="none" points="141.5,-216.25 89.5,-216.25 89.5,-167.25 141.5,-167.25 141.5,-216.25"/>
<text text-anchor="start" x="94.5" y="-202.75" font-family="Helvetica,sans-Serif" font-size="10.00">char_type</text>
<text text-anchor="start" x="114" y="-187.75" font-family="Helvetica,sans-Serif" font-size="10.00"> </text>
<text text-anchor="start" x="114" y="-172.75" font-family="Helvetica,sans-Serif" font-size="10.00"> </text>
<polygon fill="#666666" stroke="#666666" points="89.5,-199.25 89.5,-199.25 141.5,-199.25 141.5,-199.25 89.5,-199.25"/>
<polygon fill="#666666" stroke="#666666" points="89.5,-184.25 89.5,-184.25 141.5,-184.25 141.5,-184.25 89.5,-184.25"/>
<polygon fill="none" stroke="#666666" points="89.5,-167.25 89.5,-216.25 141.5,-216.25 141.5,-167.25 89.5,-167.25"/>
</a>
</g>
</g>
<!-- Node3&#45;&gt;Node1 -->
<g id="edge2_Node000001_Node000003" class="edge">
<title>Node3&#45;&gt;Node1</title>
<g id="a_edge2_Node000001_Node000003"><a xlink:title=" ">
<path fill="none" stroke="#63b8ff" d="M108.26,-167.25C105.15,-157.18 101.34,-144.83 97.43,-132.15"/>
<polygon fill="none" stroke="#63b8ff" points="97.48,-132.29 91.89,-127.73 93.94,-120.82 99.53,-125.37 97.48,-132.29"/>
</a>
</g>
<text text-anchor="middle" x="117.12" y="-139.75" font-family="Helvetica,sans-Serif" font-size="10.00" fill="grey"> &#45;buffer</text>
</g>
</g>
</svg>
