<?xml version="1.0" encoding="UTF-8" standalone="no"?>
<!DOCTYPE svg PUBLIC "-//W3C//DTD SVG 1.1//EN"
 "http://www.w3.org/Graphics/SVG/1.1/DTD/svg11.dtd">
<!-- Generated by graphviz version 9.0.0 (20230911.1827)
 -->
<!-- Title: IOutputShiftRegister Pages: 1 -->
<svg width="125pt" height="183pt"
 viewBox="0.00 0.00 125.00 183.00" xmlns="http://www.w3.org/2000/svg" xmlns:xlink="http://www.w3.org/1999/xlink">
<g id="graph0" class="graph" transform="scale(1 1) rotate(0) translate(4 179)">
<title>IOutputShiftRegister</title>
<!-- Node1 -->
<g id="Node000001" class="node">
<title>Node1</title>
<g id="a_Node000001"><a xlink:title=" ">
<polygon fill="#999999" stroke="none" points="117,-175 0,-175 0,-111 117,-111 117,-175"/>
<text text-anchor="start" x="14.25" y="-161.5" font-family="Helvetica,sans-Serif" font-size="10.00">IOutputShiftRegister</text>
<text text-anchor="start" x="57" y="-146.5" font-family="Helvetica,sans-Serif" font-size="10.00"> </text>
<text text-anchor="start" x="4" y="-131.5" font-family="Helvetica,sans-Serif" font-size="10.00">+</text>
<text text-anchor="start" x="14" y="-131.5" font-family="Helvetica,sans-Serif" font-size="10.00">writePin()</text>
<text text-anchor="start" x="4" y="-116.5" font-family="Helvetica,sans-Serif" font-size="10.00">+</text>
<text text-anchor="start" x="14" y="-116.5" font-family="Helvetica,sans-Serif" font-size="10.00">~IOutputShiftRegister()</text>
<polygon fill="#666666" stroke="#666666" points="0,-158 0,-158 117,-158 117,-158 0,-158"/>
<polygon fill="#666666" stroke="#666666" points="0,-143 0,-143 117,-143 117,-143 0,-143"/>
<polygon fill="none" stroke="#666666" points="0,-111 0,-175 117,-175 117,-111 0,-111"/>
</a>
</g>
</g>
<!-- Node2 -->
<g id="Node000002" class="node">
<title>Node2</title>
<g id="a_Node000002"><a xlink:href="classOutputShiftRegister.xhtml" target="_top" xlink:title=" ">
<polygon fill="white" stroke="none" points="113,-75 4,-75 4,0 113,0 113,-75"/>
<text text-anchor="start" x="15.75" y="-61.5" font-family="Helvetica,sans-Serif" font-size="10.00">OutputShiftRegister</text>
<text text-anchor="start" x="16.5" y="-50.25" font-family="Helvetica,sans-Serif" font-size="10.00">&lt; numberOfBytes &gt;</text>
<text text-anchor="start" x="9.5" y="-35.5" font-family="Helvetica,sans-Serif" font-size="10.00">&#45;</text>
<text text-anchor="start" x="18" y="-35.5" font-family="Helvetica,sans-Serif" font-size="10.00">outputShiftRegister</text>
<text text-anchor="start" x="8" y="-20.5" font-family="Helvetica,sans-Serif" font-size="10.00">+</text>
<text text-anchor="start" x="18" y="-20.5" font-family="Helvetica,sans-Serif" font-size="10.00">OutputShiftRegister()</text>
<text text-anchor="start" x="8" y="-5.5" font-family="Helvetica,sans-Serif" font-size="10.00">+</text>
<text text-anchor="start" x="18" y="-5.5" font-family="Helvetica,sans-Serif" font-size="10.00">writePin()</text>
<polygon fill="#666666" stroke="#666666" points="4,-47 4,-47 113,-47 113,-47 4,-47"/>
<polygon fill="#666666" stroke="#666666" points="4,-32 4,-32 16,-32 16,-32 4,-32"/>
<polygon fill="#666666" stroke="#666666" points="16,-32 16,-32 113,-32 113,-32 16,-32"/>
<polygon fill="none" stroke="#666666" points="4,0 4,-75 113,-75 113,0 4,0"/>
</a>
</g>
</g>
<!-- Node1&#45;&gt;Node2 -->
<g id="edge1_Node000001_Node000002" class="edge">
<title>Node1&#45;&gt;Node2</title>
<g id="a_edge1_Node000001_Node000002"><a xlink:title=" ">
<path fill="none" stroke="#63b8ff" d="M58.5,-99.82C58.5,-91.52 58.5,-82.89 58.5,-74.81"/>
<polygon fill="none" stroke="#63b8ff" points="55,-99.71 58.5,-109.71 62,-99.71 55,-99.71"/>
</a>
</g>
</g>
</g>
</svg>
