<?xml version="1.0" encoding="UTF-8" standalone="no"?>
<!DOCTYPE svg PUBLIC "-//W3C//DTD SVG 1.1//EN"
 "http://www.w3.org/Graphics/SVG/1.1/DTD/svg11.dtd">
<!-- Generated by graphviz version 7.0.5 (20221223.1930)
 -->
<!-- Title: Keypad Pages: 1 -->
<svg width="276pt" height="159pt"
 viewBox="0.00 0.00 275.50 159.00" xmlns="http://www.w3.org/2000/svg" xmlns:xlink="http://www.w3.org/1999/xlink">
<g id="graph0" class="graph" transform="scale(1 1) rotate(0) translate(4 155)">
<title>Keypad</title>
<!-- Node1 -->
<g id="node1" class="node">
<title>Node1</title>
<g id="a_node1"><a xlink:title=" ">
<polygon fill="#999999" stroke="#666666" points="211,-52 71,-52 71,0 211,0 211,-52"/>
<text text-anchor="middle" x="141" y="-40" font-family="Helvetica,sans-Serif" font-size="10.00">{Keypad</text>
<text text-anchor="start" x="79" y="-29" font-family="Helvetica,sans-Serif" font-size="10.00">||+ getCurrentlyPressedKey()</text>
<text text-anchor="start" x="79" y="-18" font-family="Helvetica,sans-Serif" font-size="10.00">+ Keypad()</text>
<text text-anchor="middle" x="141" y="-7" font-family="Helvetica,sans-Serif" font-size="10.00">}</text>
</a>
</g>
</g>
<!-- Node2 -->
<g id="node2" class="node">
<title>Node2</title>
<g id="a_node2"><a xlink:href="classIKeypad.xhtml" target="_top" xlink:title=" ">
<polygon fill="white" stroke="#666666" points="140,-151 0,-151 0,-99 140,-99 140,-151"/>
<text text-anchor="middle" x="70" y="-139" font-family="Helvetica,sans-Serif" font-size="10.00">{IKeypad</text>
<text text-anchor="start" x="8" y="-128" font-family="Helvetica,sans-Serif" font-size="10.00">||+ getCurrentlyPressedKey()</text>
<text text-anchor="start" x="8" y="-117" font-family="Helvetica,sans-Serif" font-size="10.00">+ ~IKeypad()</text>
<text text-anchor="middle" x="70" y="-106" font-family="Helvetica,sans-Serif" font-size="10.00">}</text>
</a>
</g>
</g>
<!-- Node2&#45;&gt;Node1 -->
<g id="edge1" class="edge">
<title>Node2&#45;&gt;Node1</title>
<path fill="none" stroke="#63b8ff" d="M95.28,-89.46C104.25,-77.21 114.17,-63.65 122.47,-52.32"/>
<polygon fill="none" stroke="#63b8ff" points="92.63,-87.16 89.55,-97.29 98.28,-91.29 92.63,-87.16"/>
</g>
<!-- Node3 -->
<g id="node3" class="node">
<title>Node3</title>
<g id="a_node3"><a xlink:title=" ">
<polygon fill="white" stroke="#666666" points="267.5,-140 158.5,-140 158.5,-110 267.5,-110 267.5,-140"/>
<text text-anchor="middle" x="213" y="-128" font-family="Helvetica,sans-Serif" font-size="10.00">{static constexpr auto</text>
<text text-anchor="middle" x="213" y="-117" font-family="Helvetica,sans-Serif" font-size="10.00">||}</text>
</a>
</g>
</g>
<!-- Node3&#45;&gt;Node1 -->
<g id="edge2" class="edge">
<title>Node3&#45;&gt;Node1</title>
<path fill="none" stroke="#404040" d="M202.38,-109.69C193.2,-97.32 179.55,-78.93 167.44,-62.63"/>
<polygon fill="none" stroke="#404040" points="167.47,-62.66 160.68,-60.23 160.32,-53.02 167.1,-55.46 167.47,-62.66"/>
<text text-anchor="middle" x="214.5" y="-73" font-family="Helvetica,sans-Serif" font-size="10.00"> +numberOfPins</text>
</g>
</g>
</svg>
