<?xml version="1.0" encoding="UTF-8" standalone="no"?>
<!DOCTYPE svg PUBLIC "-//W3C//DTD SVG 1.1//EN"
 "http://www.w3.org/Graphics/SVG/1.1/DTD/svg11.dtd">
<!-- Generated by graphviz version 9.0.0 (20230911.1827)
 -->
<!-- Title: IDisplay Pages: 1 -->
<svg width="63pt" height="142pt"
 viewBox="0.00 0.00 63.00 142.00" xmlns="http://www.w3.org/2000/svg" xmlns:xlink="http://www.w3.org/1999/xlink">
<g id="graph0" class="graph" transform="scale(1 1) rotate(0) translate(4 138)">
<title>IDisplay</title>
<!-- Node1 -->
<g id="Node000001" class="node">
<title>Node1</title>
<g id="a_Node000001"><a xlink:title=" ">
<polygon fill="#999999" stroke="none" points="49.5,-134 5.5,-134 5.5,-85 49.5,-85 49.5,-134"/>
<text text-anchor="start" x="10.25" y="-120.5" font-family="Helvetica,sans-Serif" font-size="10.00">IDisplay</text>
<text text-anchor="start" x="26" y="-105.5" font-family="Helvetica,sans-Serif" font-size="10.00"> </text>
<text text-anchor="start" x="26" y="-90.5" font-family="Helvetica,sans-Serif" font-size="10.00"> </text>
<polygon fill="#666666" stroke="#666666" points="5.5,-117 5.5,-117 49.5,-117 49.5,-117 5.5,-117"/>
<polygon fill="#666666" stroke="#666666" points="5.5,-102 5.5,-102 49.5,-102 49.5,-102 5.5,-102"/>
<polygon fill="none" stroke="#666666" points="5.5,-85 5.5,-134 49.5,-134 49.5,-85 5.5,-85"/>
</a>
</g>
</g>
<!-- Node2 -->
<g id="Node000002" class="node">
<title>Node2</title>
<g id="a_Node000002"><a xlink:href="classDisplay.xhtml" target="_top" xlink:title=" ">
<polygon fill="white" stroke="none" points="55,-49 0,-49 0,0 55,0 55,-49"/>
<text text-anchor="start" x="11.75" y="-35.5" font-family="Helvetica,sans-Serif" font-size="10.00">Display</text>
<text text-anchor="start" x="5.5" y="-20.5" font-family="Helvetica,sans-Serif" font-size="10.00">&#45;</text>
<text text-anchor="start" x="14" y="-20.5" font-family="Helvetica,sans-Serif" font-size="10.00">display</text>
<text text-anchor="start" x="4" y="-5.5" font-family="Helvetica,sans-Serif" font-size="10.00">+</text>
<text text-anchor="start" x="14" y="-5.5" font-family="Helvetica,sans-Serif" font-size="10.00">Display()</text>
<polygon fill="#666666" stroke="#666666" points="0,-32 0,-32 55,-32 55,-32 0,-32"/>
<polygon fill="#666666" stroke="#666666" points="0,-17 0,-17 12,-17 12,-17 0,-17"/>
<polygon fill="#666666" stroke="#666666" points="12,-17 12,-17 55,-17 55,-17 12,-17"/>
<polygon fill="none" stroke="#666666" points="0,0 0,-49 55,-49 55,0 0,0"/>
</a>
</g>
</g>
<!-- Node1&#45;&gt;Node2 -->
<g id="edge1_Node000001_Node000002" class="edge">
<title>Node1&#45;&gt;Node2</title>
<g id="a_edge1_Node000001_Node000002"><a xlink:title=" ">
<path fill="none" stroke="#63b8ff" d="M27.5,-74.14C27.5,-65.6 27.5,-56.65 27.5,-48.78"/>
<polygon fill="none" stroke="#63b8ff" points="24,-73.87 27.5,-83.87 31,-73.87 24,-73.87"/>
</a>
</g>
</g>
</g>
</svg>
