<?xml version="1.0" encoding="UTF-8" standalone="no"?>
<!DOCTYPE svg PUBLIC "-//W3C//DTD SVG 1.1//EN"
 "http://www.w3.org/Graphics/SVG/1.1/DTD/svg11.dtd">
<!-- Generated by graphviz version 9.0.0 (20230911.1827)
 -->
<!-- Title: Presenter Pages: 1 -->
<svg width="316pt" height="295pt"
 viewBox="0.00 0.00 315.50 294.50" xmlns="http://www.w3.org/2000/svg" xmlns:xlink="http://www.w3.org/1999/xlink">
<g id="graph0" class="graph" transform="scale(1 1) rotate(0) translate(4 290.5)">
<title>Presenter</title>
<!-- Node1 -->
<g id="Node000001" class="node">
<title>Node1</title>
<g id="a_Node000001"><a xlink:title=" ">
<polygon fill="#999999" stroke="none" points="230,-64 105,-64 105,0 230,0 230,-64"/>
<text text-anchor="start" x="146.5" y="-50.5" font-family="Helvetica,sans-Serif" font-size="10.00">Presenter</text>
<text text-anchor="start" x="166" y="-35.5" font-family="Helvetica,sans-Serif" font-size="10.00"> </text>
<text text-anchor="start" x="109" y="-20.5" font-family="Helvetica,sans-Serif" font-size="10.00">+</text>
<text text-anchor="start" x="119" y="-20.5" font-family="Helvetica,sans-Serif" font-size="10.00">Presenter()</text>
<text text-anchor="start" x="109" y="-5.5" font-family="Helvetica,sans-Serif" font-size="10.00">+</text>
<text text-anchor="start" x="119" y="-5.5" font-family="Helvetica,sans-Serif" font-size="10.00">setTaskStatusIndicator()</text>
<polygon fill="#666666" stroke="#666666" points="105,-47 105,-47 230,-47 230,-47 105,-47"/>
<polygon fill="#666666" stroke="#666666" points="105,-32 105,-32 230,-32 230,-32 105,-32"/>
<polygon fill="none" stroke="#666666" points="105,0 105,-64 230,-64 230,0 105,0"/>
</a>
</g>
</g>
<!-- Node2 -->
<g id="Node000002" class="node">
<title>Node2</title>
<g id="a_Node000002"><a xlink:href="classIPresenter.xhtml" target="_top" xlink:title=" ">
<polygon fill="white" stroke="none" points="125,-182.75 0,-182.75 0,-118.75 125,-118.75 125,-182.75"/>
<text text-anchor="start" x="40" y="-169.25" font-family="Helvetica,sans-Serif" font-size="10.00">IPresenter</text>
<text text-anchor="start" x="61" y="-154.25" font-family="Helvetica,sans-Serif" font-size="10.00"> </text>
<text text-anchor="start" x="4" y="-139.25" font-family="Helvetica,sans-Serif" font-size="10.00">+</text>
<text text-anchor="start" x="14" y="-139.25" font-family="Helvetica,sans-Serif" font-size="10.00">setTaskStatusIndicator()</text>
<text text-anchor="start" x="4" y="-124.25" font-family="Helvetica,sans-Serif" font-size="10.00">+</text>
<text text-anchor="start" x="14" y="-124.25" font-family="Helvetica,sans-Serif" font-size="10.00">~IPresenter()</text>
<polygon fill="#666666" stroke="#666666" points="0,-165.75 0,-165.75 125,-165.75 125,-165.75 0,-165.75"/>
<polygon fill="#666666" stroke="#666666" points="0,-150.75 0,-150.75 125,-150.75 125,-150.75 0,-150.75"/>
<polygon fill="none" stroke="#666666" points="0,-118.75 0,-182.75 125,-182.75 125,-118.75 0,-118.75"/>
</a>
</g>
</g>
<!-- Node2&#45;&gt;Node1 -->
<g id="edge1_Node000001_Node000002" class="edge">
<title>Node2&#45;&gt;Node1</title>
<g id="a_edge1_Node000001_Node000002"><a xlink:title=" ">
<path fill="none" stroke="#63b8ff" d="M97.78,-110.53C111.5,-95.27 126.98,-78.05 139.87,-63.72"/>
<polygon fill="none" stroke="#63b8ff" points="95.46,-107.87 91.37,-117.64 100.66,-112.55 95.46,-107.87"/>
</a>
</g>
</g>
<!-- Node3 -->
<g id="Node000003" class="node">
<title>Node3</title>
<g id="a_Node000003"><a xlink:href="classMenu.xhtml" target="_top" xlink:title=" ">
<polygon fill="white" stroke="none" points="191.5,-175.25 143.5,-175.25 143.5,-126.25 191.5,-126.25 191.5,-175.25"/>
<text text-anchor="start" x="155.5" y="-161.75" font-family="Helvetica,sans-Serif" font-size="10.00">Menu</text>
<text text-anchor="start" x="166" y="-146.75" font-family="Helvetica,sans-Serif" font-size="10.00"> </text>
<text text-anchor="start" x="147.5" y="-131.75" font-family="Helvetica,sans-Serif" font-size="10.00">+</text>
<text text-anchor="start" x="157.5" y="-131.75" font-family="Helvetica,sans-Serif" font-size="10.00">Menu()</text>
<polygon fill="#666666" stroke="#666666" points="143.5,-158.25 143.5,-158.25 191.5,-158.25 191.5,-158.25 143.5,-158.25"/>
<polygon fill="#666666" stroke="#666666" points="143.5,-143.25 143.5,-143.25 191.5,-143.25 191.5,-143.25 143.5,-143.25"/>
<polygon fill="none" stroke="#666666" points="143.5,-126.25 143.5,-175.25 191.5,-175.25 191.5,-126.25 143.5,-126.25"/>
</a>
</g>
</g>
<!-- Node3&#45;&gt;Node1 -->
<g id="edge2_Node000001_Node000003" class="edge">
<title>Node3&#45;&gt;Node1</title>
<g id="a_edge2_Node000001_Node000003"><a xlink:title=" ">
<path fill="none" stroke="#63b8ff" d="M167.5,-126.4C167.5,-112.23 167.5,-93.68 167.5,-76.85"/>
<polygon fill="none" stroke="#63b8ff" points="167.5,-76.73 163.5,-70.73 167.5,-64.73 171.5,-70.73 167.5,-76.73"/>
</a>
</g>
<text text-anchor="middle" x="182.12" y="-83.75" font-family="Helvetica,sans-Serif" font-size="10.00" fill="grey"> &#45;menu</text>
</g>
<!-- Node4 -->
<g id="Node000004" class="node">
<title>Node4</title>
<g id="a_Node000004"><a xlink:href="classIDisplay.xhtml" target="_top" xlink:title=" ">
<polygon fill="white" stroke="none" points="189.5,-286.5 145.5,-286.5 145.5,-237.5 189.5,-237.5 189.5,-286.5"/>
<text text-anchor="start" x="150.25" y="-273" font-family="Helvetica,sans-Serif" font-size="10.00">IDisplay</text>
<text text-anchor="start" x="166" y="-258" font-family="Helvetica,sans-Serif" font-size="10.00"> </text>
<text text-anchor="start" x="166" y="-243" font-family="Helvetica,sans-Serif" font-size="10.00"> </text>
<polygon fill="#666666" stroke="#666666" points="145.5,-269.5 145.5,-269.5 189.5,-269.5 189.5,-269.5 145.5,-269.5"/>
<polygon fill="#666666" stroke="#666666" points="145.5,-254.5 145.5,-254.5 189.5,-254.5 189.5,-254.5 145.5,-254.5"/>
<polygon fill="none" stroke="#666666" points="145.5,-237.5 145.5,-286.5 189.5,-286.5 189.5,-237.5 145.5,-237.5"/>
</a>
</g>
</g>
<!-- Node4&#45;&gt;Node3 -->
<g id="edge3_Node000003_Node000004" class="edge">
<title>Node4&#45;&gt;Node3</title>
<g id="a_edge3_Node000003_Node000004"><a xlink:title=" ">
<path fill="none" stroke="#63b8ff" d="M167.5,-237.56C167.5,-223.16 167.5,-204.41 167.5,-188.11"/>
<polygon fill="none" stroke="#63b8ff" points="167.5,-188.05 163.5,-182.05 167.5,-176.05 171.5,-182.05 167.5,-188.05"/>
</a>
</g>
<text text-anchor="middle" x="185.12" y="-210" font-family="Helvetica,sans-Serif" font-size="10.00" fill="grey"> &#45;display</text>
</g>
<!-- Node5 -->
<g id="Node000005" class="node">
<title>Node5</title>
<g id="a_Node000005"><a xlink:href="classIStatusIndicator.xhtml" target="_top" xlink:title=" ">
<polygon fill="white" stroke="none" points="307.5,-190.25 209.5,-190.25 209.5,-111.25 307.5,-111.25 307.5,-190.25"/>
<text text-anchor="start" x="224" y="-176.75" font-family="Helvetica,sans-Serif" font-size="10.00">IStatusIndicator</text>
<text text-anchor="start" x="257" y="-161.75" font-family="Helvetica,sans-Serif" font-size="10.00"> </text>
<text text-anchor="start" x="213.5" y="-146.75" font-family="Helvetica,sans-Serif" font-size="10.00">+</text>
<text text-anchor="start" x="223.5" y="-146.75" font-family="Helvetica,sans-Serif" font-size="10.00">on()</text>
<text text-anchor="start" x="213.5" y="-131.75" font-family="Helvetica,sans-Serif" font-size="10.00">+</text>
<text text-anchor="start" x="223.5" y="-131.75" font-family="Helvetica,sans-Serif" font-size="10.00">off()</text>
<text text-anchor="start" x="213.5" y="-116.75" font-family="Helvetica,sans-Serif" font-size="10.00">+</text>
<text text-anchor="start" x="223.5" y="-116.75" font-family="Helvetica,sans-Serif" font-size="10.00">~IStatusIndicator()</text>
<polygon fill="#666666" stroke="#666666" points="209.5,-173.25 209.5,-173.25 307.5,-173.25 307.5,-173.25 209.5,-173.25"/>
<polygon fill="#666666" stroke="#666666" points="209.5,-158.25 209.5,-158.25 307.5,-158.25 307.5,-158.25 209.5,-158.25"/>
<polygon fill="none" stroke="#666666" points="209.5,-111.25 209.5,-190.25 307.5,-190.25 307.5,-111.25 209.5,-111.25"/>
</a>
</g>
</g>
<!-- Node5&#45;&gt;Node1 -->
<g id="edge4_Node000001_Node000005" class="edge">
<title>Node5&#45;&gt;Node1</title>
<g id="a_edge4_Node000001_Node000005"><a xlink:title=" ">
<path fill="none" stroke="#63b8ff" d="M228.7,-111.52C219.31,-99.47 208.89,-86.11 199.36,-73.88"/>
<polygon fill="none" stroke="#63b8ff" points="199.53,-74.1 192.69,-71.83 192.16,-64.63 199,-66.91 199.53,-74.1"/>
</a>
</g>
<text text-anchor="middle" x="250" y="-83.75" font-family="Helvetica,sans-Serif" font-size="10.00" fill="grey"> &#45;statusIndicators</text>
</g>
</g>
</svg>
