<?xml version="1.0" encoding="UTF-8" standalone="no"?>
<!DOCTYPE svg PUBLIC "-//W3C//DTD SVG 1.1//EN"
 "http://www.w3.org/Graphics/SVG/1.1/DTD/svg11.dtd">
<!-- Generated by graphviz version 7.0.5 (20221223.1930)
 -->
<!-- Title: IPresenter Pages: 1 -->
<svg width="145pt" height="170pt"
 viewBox="0.00 0.00 145.00 170.00" xmlns="http://www.w3.org/2000/svg" xmlns:xlink="http://www.w3.org/1999/xlink">
<g id="graph0" class="graph" transform="scale(1 1) rotate(0) translate(4 166)">
<title>IPresenter</title>
<!-- Node1 -->
<g id="node1" class="node">
<title>Node1</title>
<g id="a_node1"><a xlink:title=" ">
<polygon fill="#999999" stroke="#666666" points="137,-162 0,-162 0,-99 137,-99 137,-162"/>
<text text-anchor="middle" x="68.5" y="-150" font-family="Helvetica,sans-Serif" font-size="10.00">{IPresenter</text>
<text text-anchor="start" x="8" y="-139" font-family="Helvetica,sans-Serif" font-size="10.00">||+ setTaskStatusIndicator()</text>
<text text-anchor="start" x="8" y="-128" font-family="Helvetica,sans-Serif" font-size="10.00">+ loop()</text>
<text text-anchor="start" x="8" y="-117" font-family="Helvetica,sans-Serif" font-size="10.00">+ ~IPresenter()</text>
<text text-anchor="middle" x="68.5" y="-106" font-family="Helvetica,sans-Serif" font-size="10.00">}</text>
</a>
</g>
</g>
<!-- Node2 -->
<g id="node2" class="node">
<title>Node2</title>
<g id="a_node2"><a xlink:href="classPresenter.xhtml" target="_top" xlink:title=" ">
<polygon fill="white" stroke="#666666" points="134.5,-63 2.5,-63 2.5,0 134.5,0 134.5,-63"/>
<text text-anchor="middle" x="68.5" y="-51" font-family="Helvetica,sans-Serif" font-size="10.00">{Presenter</text>
<text text-anchor="start" x="10.5" y="-40" font-family="Helvetica,sans-Serif" font-size="10.00">||+ Presenter()</text>
<text text-anchor="start" x="10.5" y="-29" font-family="Helvetica,sans-Serif" font-size="10.00">+ setTaskStatusIndicator()</text>
<text text-anchor="start" x="10.5" y="-18" font-family="Helvetica,sans-Serif" font-size="10.00">+ loop()</text>
<text text-anchor="middle" x="68.5" y="-7" font-family="Helvetica,sans-Serif" font-size="10.00">}</text>
</a>
</g>
</g>
<!-- Node1&#45;&gt;Node2 -->
<g id="edge1" class="edge">
<title>Node1&#45;&gt;Node2</title>
<path fill="none" stroke="#63b8ff" d="M68.5,-87.15C68.5,-79.2 68.5,-71.02 68.5,-63.5"/>
<polygon fill="none" stroke="#63b8ff" points="65,-87.03 68.5,-97.03 72,-87.03 65,-87.03"/>
</g>
</g>
</svg>
