<?xml version="1.0" encoding="UTF-8" standalone="no"?>
<!DOCTYPE svg PUBLIC "-//W3C//DTD SVG 1.1//EN"
 "http://www.w3.org/Graphics/SVG/1.1/DTD/svg11.dtd">
<!-- Generated by graphviz version 9.0.0 (20230911.1827)
 -->
<!-- Title: ShiftRegisterStatusIndicator Pages: 1 -->
<svg width="154pt" height="217pt"
 viewBox="0.00 0.00 154.00 217.00" xmlns="http://www.w3.org/2000/svg" xmlns:xlink="http://www.w3.org/1999/xlink">
<g id="graph0" class="graph" transform="scale(1 1) rotate(0) translate(4 213)">
<title>ShiftRegisterStatusIndicator</title>
<!-- Node1 -->
<g id="Node000001" class="node">
<title>Node1</title>
<g id="a_Node000001"><a xlink:title=" ">
<polygon fill="#999999" stroke="none" points="146,-94 0,-94 0,0 146,0 146,-94"/>
<text text-anchor="start" x="11.88" y="-80.5" font-family="Helvetica,sans-Serif" font-size="10.00">ShiftRegisterStatusIndicator</text>
<text text-anchor="start" x="5.5" y="-65.5" font-family="Helvetica,sans-Serif" font-size="10.00">&#45;</text>
<text text-anchor="start" x="14" y="-65.5" font-family="Helvetica,sans-Serif" font-size="10.00">shiftRegister</text>
<text text-anchor="start" x="5.5" y="-50.5" font-family="Helvetica,sans-Serif" font-size="10.00">&#45;</text>
<text text-anchor="start" x="14" y="-50.5" font-family="Helvetica,sans-Serif" font-size="10.00">bit</text>
<text text-anchor="start" x="4" y="-35.5" font-family="Helvetica,sans-Serif" font-size="10.00">+</text>
<text text-anchor="start" x="14" y="-35.5" font-family="Helvetica,sans-Serif" font-size="10.00">ShiftRegisterStatusIndicator()</text>
<text text-anchor="start" x="4" y="-20.5" font-family="Helvetica,sans-Serif" font-size="10.00">+</text>
<text text-anchor="start" x="14" y="-20.5" font-family="Helvetica,sans-Serif" font-size="10.00">off()</text>
<text text-anchor="start" x="4" y="-5.5" font-family="Helvetica,sans-Serif" font-size="10.00">+</text>
<text text-anchor="start" x="14" y="-5.5" font-family="Helvetica,sans-Serif" font-size="10.00">on()</text>
<polygon fill="#666666" stroke="#666666" points="0,-77 0,-77 146,-77 146,-77 0,-77"/>
<polygon fill="#666666" stroke="#666666" points="0,-47 0,-47 12,-47 12,-47 0,-47"/>
<polygon fill="#666666" stroke="#666666" points="12,-47 12,-47 146,-47 146,-47 12,-47"/>
<polygon fill="none" stroke="#666666" points="0,0 0,-94 146,-94 146,0 0,0"/>
</a>
</g>
</g>
<!-- Node2 -->
<g id="Node000002" class="node">
<title>Node2</title>
<g id="a_Node000002"><a xlink:href="classIStatusIndicator.xhtml" target="_top" xlink:title=" ">
<polygon fill="white" stroke="none" points="122,-209 24,-209 24,-130 122,-130 122,-209"/>
<text text-anchor="start" x="38.5" y="-195.5" font-family="Helvetica,sans-Serif" font-size="10.00">IStatusIndicator</text>
<text text-anchor="start" x="71.5" y="-180.5" font-family="Helvetica,sans-Serif" font-size="10.00"> </text>
<text text-anchor="start" x="28" y="-165.5" font-family="Helvetica,sans-Serif" font-size="10.00">+</text>
<text text-anchor="start" x="38" y="-165.5" font-family="Helvetica,sans-Serif" font-size="10.00">on()</text>
<text text-anchor="start" x="28" y="-150.5" font-family="Helvetica,sans-Serif" font-size="10.00">+</text>
<text text-anchor="start" x="38" y="-150.5" font-family="Helvetica,sans-Serif" font-size="10.00">off()</text>
<text text-anchor="start" x="28" y="-135.5" font-family="Helvetica,sans-Serif" font-size="10.00">+</text>
<text text-anchor="start" x="38" y="-135.5" font-family="Helvetica,sans-Serif" font-size="10.00">~IStatusIndicator()</text>
<polygon fill="#666666" stroke="#666666" points="24,-192 24,-192 122,-192 122,-192 24,-192"/>
<polygon fill="#666666" stroke="#666666" points="24,-177 24,-177 122,-177 122,-177 24,-177"/>
<polygon fill="none" stroke="#666666" points="24,-130 24,-209 122,-209 122,-130 24,-130"/>
</a>
</g>
</g>
<!-- Node2&#45;&gt;Node1 -->
<g id="edge1_Node000001_Node000002" class="edge">
<title>Node2&#45;&gt;Node1</title>
<g id="a_edge1_Node000001_Node000002"><a xlink:title=" ">
<path fill="none" stroke="#63b8ff" d="M73,-118.61C73,-110.35 73,-101.82 73,-93.67"/>
<polygon fill="none" stroke="#63b8ff" points="69.5,-118.53 73,-128.53 76.5,-118.53 69.5,-118.53"/>
</a>
</g>
</g>
</g>
</svg>
