<?xml version="1.0" encoding="UTF-8" standalone="no"?>
<!DOCTYPE svg PUBLIC "-//W3C//DTD SVG 1.1//EN"
 "http://www.w3.org/Graphics/SVG/1.1/DTD/svg11.dtd">
<!-- Generated by graphviz version 9.0.0 (20230911.1827)
 -->
<!-- Title: Keypad Pages: 1 -->
<svg width="405pt" height="198pt"
 viewBox="0.00 0.00 405.00 198.25" xmlns="http://www.w3.org/2000/svg" xmlns:xlink="http://www.w3.org/1999/xlink">
<g id="graph0" class="graph" transform="scale(1 1) rotate(0) translate(4 194.25)">
<title>Keypad</title>
<!-- Node1 -->
<g id="Node000001" class="node">
<title>Node1</title>
<g id="a_Node000001"><a xlink:title=" ">
<polygon fill="#999999" stroke="none" points="280,-79 148,-79 148,0 280,0 280,-79"/>
<text text-anchor="start" x="197.88" y="-65.5" font-family="Helvetica,sans-Serif" font-size="10.00">Keypad</text>
<text text-anchor="start" x="212.5" y="-50.5" font-family="Helvetica,sans-Serif" font-size="10.00"> </text>
<text text-anchor="start" x="152" y="-35.5" font-family="Helvetica,sans-Serif" font-size="10.00">+</text>
<text text-anchor="start" x="162" y="-35.5" font-family="Helvetica,sans-Serif" font-size="10.00">getCurrentlyPressedKey()</text>
<text text-anchor="start" x="152" y="-20.5" font-family="Helvetica,sans-Serif" font-size="10.00">+</text>
<text text-anchor="start" x="162" y="-20.5" font-family="Helvetica,sans-Serif" font-size="10.00">Keypad()</text>
<text text-anchor="start" x="153.5" y="-5.5" font-family="Helvetica,sans-Serif" font-size="10.00">&#45;</text>
<text text-anchor="start" x="162" y="-5.5" font-family="Helvetica,sans-Serif" font-size="10.00">getFirstPressedKeyIndex()</text>
<polygon fill="#666666" stroke="#666666" points="148,-62 148,-62 280,-62 280,-62 148,-62"/>
<polygon fill="#666666" stroke="#666666" points="148,-47 148,-47 280,-47 280,-47 148,-47"/>
<polygon fill="none" stroke="#666666" points="148,0 148,-79 280,-79 280,0 148,0"/>
</a>
</g>
</g>
<!-- Node2 -->
<g id="Node000002" class="node">
<title>Node2</title>
<g id="a_Node000002"><a xlink:href="classIKeypad.xhtml" target="_top" xlink:title=" ">
<polygon fill="white" stroke="none" points="128,-190.25 0,-190.25 0,-126.25 128,-126.25 128,-190.25"/>
<text text-anchor="start" x="46.38" y="-176.75" font-family="Helvetica,sans-Serif" font-size="10.00">IKeypad</text>
<text text-anchor="start" x="62.5" y="-161.75" font-family="Helvetica,sans-Serif" font-size="10.00"> </text>
<text text-anchor="start" x="4" y="-146.75" font-family="Helvetica,sans-Serif" font-size="10.00">+</text>
<text text-anchor="start" x="14" y="-146.75" font-family="Helvetica,sans-Serif" font-size="10.00">getCurrentlyPressedKey()</text>
<text text-anchor="start" x="4" y="-131.75" font-family="Helvetica,sans-Serif" font-size="10.00">+</text>
<text text-anchor="start" x="14" y="-131.75" font-family="Helvetica,sans-Serif" font-size="10.00">~IKeypad()</text>
<polygon fill="#666666" stroke="#666666" points="0,-173.25 0,-173.25 128,-173.25 128,-173.25 0,-173.25"/>
<polygon fill="#666666" stroke="#666666" points="0,-158.25 0,-158.25 128,-158.25 128,-158.25 0,-158.25"/>
<polygon fill="none" stroke="#666666" points="0,-126.25 0,-190.25 128,-190.25 128,-126.25 0,-126.25"/>
</a>
</g>
</g>
<!-- Node2&#45;&gt;Node1 -->
<g id="edge1_Node000001_Node000002" class="edge">
<title>Node2&#45;&gt;Node1</title>
<g id="a_edge1_Node000001_Node000002"><a xlink:title=" ">
<path fill="none" stroke="#63b8ff" d="M112.8,-119.27C129.4,-106.34 147.97,-91.9 164.62,-78.94"/>
<polygon fill="none" stroke="#63b8ff" points="110.74,-116.44 105,-125.34 115.04,-121.96 110.74,-116.44"/>
</a>
</g>
</g>
<!-- Node3 -->
<g id="Node000003" class="node">
<title>Node3</title>
<g id="a_Node000003"><a xlink:title=" ">
<polygon fill="white" stroke="none" points="191.5,-182.75 146.5,-182.75 146.5,-133.75 191.5,-133.75 191.5,-182.75"/>
<text text-anchor="start" x="151.38" y="-169.25" font-family="Helvetica,sans-Serif" font-size="10.00">PinType</text>
<text text-anchor="start" x="167.5" y="-154.25" font-family="Helvetica,sans-Serif" font-size="10.00"> </text>
<text text-anchor="start" x="167.5" y="-139.25" font-family="Helvetica,sans-Serif" font-size="10.00"> </text>
<polygon fill="#666666" stroke="#666666" points="146.5,-165.75 146.5,-165.75 191.5,-165.75 191.5,-165.75 146.5,-165.75"/>
<polygon fill="#666666" stroke="#666666" points="146.5,-150.75 146.5,-150.75 191.5,-150.75 191.5,-150.75 146.5,-150.75"/>
<polygon fill="none" stroke="#666666" points="146.5,-133.75 146.5,-182.75 191.5,-182.75 191.5,-133.75 146.5,-133.75"/>
</a>
</g>
</g>
<!-- Node3&#45;&gt;Node1 -->
<g id="edge2_Node000001_Node000003" class="edge">
<title>Node3&#45;&gt;Node1</title>
<g id="a_edge2_Node000001_Node000003"><a xlink:title=" ">
<path fill="none" stroke="#63b8ff" d="M177.4,-134.02C181.5,-122.8 186.55,-109.17 191.25,-97 192.04,-94.97 192.84,-92.89 193.66,-90.8"/>
<polygon fill="none" stroke="#63b8ff" points="193.69,-90.73 192.17,-83.68 198.1,-79.57 199.61,-86.62 193.69,-90.73"/>
</a>
</g>
<text text-anchor="middle" x="213.88" y="-98.75" font-family="Helvetica,sans-Serif" font-size="10.00" fill="grey"> &#45;inputPins</text>
</g>
<!-- Node4 -->
<g id="Node000004" class="node">
<title>Node4</title>
<g id="a_Node000004"><a xlink:title=" ">
<polygon fill="white" stroke="none" points="308.5,-182.75 209.5,-182.75 209.5,-133.75 308.5,-133.75 308.5,-182.75"/>
<text text-anchor="start" x="214.38" y="-169.25" font-family="Helvetica,sans-Serif" font-size="10.00">static constexpr auto</text>
<text text-anchor="start" x="257.5" y="-154.25" font-family="Helvetica,sans-Serif" font-size="10.00"> </text>
<text text-anchor="start" x="257.5" y="-139.25" font-family="Helvetica,sans-Serif" font-size="10.00"> </text>
<polygon fill="#666666" stroke="#666666" points="209.5,-165.75 209.5,-165.75 308.5,-165.75 308.5,-165.75 209.5,-165.75"/>
<polygon fill="#666666" stroke="#666666" points="209.5,-150.75 209.5,-150.75 308.5,-150.75 308.5,-150.75 209.5,-150.75"/>
<polygon fill="none" stroke="#666666" points="209.5,-133.75 209.5,-182.75 308.5,-182.75 308.5,-133.75 209.5,-133.75"/>
</a>
</g>
</g>
<!-- Node4&#45;&gt;Node1 -->
<g id="edge3_Node000001_Node000004" class="edge">
<title>Node4&#45;&gt;Node1</title>
<g id="a_edge3_Node000001_Node000004"><a xlink:title=" ">
<path fill="none" stroke="#63b8ff" d="M250.73,-134C246.69,-122.78 241.69,-109.15 237,-97 236.21,-94.96 235.4,-92.89 234.58,-90.79"/>
<polygon fill="none" stroke="#63b8ff" points="234.55,-90.71 228.61,-86.61 230.11,-79.56 236.05,-83.65 234.55,-90.71"/>
</a>
</g>
<text text-anchor="middle" x="275.25" y="-98.75" font-family="Helvetica,sans-Serif" font-size="10.00" fill="grey"> +numberOfPins</text>
</g>
<!-- Node5 -->
<g id="Node000005" class="node">
<title>Node5</title>
<g id="a_Node000005"><a xlink:title=" ">
<polygon fill="white" stroke="none" points="397,-182.75 327,-182.75 327,-133.75 397,-133.75 397,-182.75"/>
<text text-anchor="start" x="331.62" y="-169.25" font-family="Helvetica,sans-Serif" font-size="10.00">const KeyId(&amp;</text>
<text text-anchor="start" x="360.5" y="-154.25" font-family="Helvetica,sans-Serif" font-size="10.00"> </text>
<text text-anchor="start" x="360.5" y="-139.25" font-family="Helvetica,sans-Serif" font-size="10.00"> </text>
<polygon fill="#666666" stroke="#666666" points="327,-165.75 327,-165.75 397,-165.75 397,-165.75 327,-165.75"/>
<polygon fill="#666666" stroke="#666666" points="327,-150.75 327,-150.75 397,-150.75 397,-150.75 327,-150.75"/>
<polygon fill="none" stroke="#666666" points="327,-133.75 327,-182.75 397,-182.75 397,-133.75 327,-133.75"/>
</a>
</g>
</g>
<!-- Node5&#45;&gt;Node1 -->
<g id="edge4_Node000001_Node000005" class="edge">
<title>Node5&#45;&gt;Node1</title>
<g id="a_edge4_Node000001_Node000005"><a xlink:title=" ">
<path fill="none" stroke="#63b8ff" d="M347.15,-133.97C338.72,-121.95 327.38,-107.63 315,-97 307.55,-90.61 299.26,-84.59 290.73,-79.05"/>
<polygon fill="none" stroke="#63b8ff" points="290.8,-79.09 283.59,-79.33 280.6,-72.77 287.81,-72.53 290.8,-79.09"/>
</a>
</g>
<text text-anchor="middle" x="356.5" y="-98.75" font-family="Helvetica,sans-Serif" font-size="10.00" fill="grey"> &#45;inputMapping</text>
</g>
</g>
</svg>
