<?xml version="1.0" encoding="UTF-8" standalone="no"?>
<!DOCTYPE svg PUBLIC "-//W3C//DTD SVG 1.1//EN"
 "http://www.w3.org/Graphics/SVG/1.1/DTD/svg11.dtd">
<!-- Generated by graphviz version 9.0.0 (20230911.1827)
 -->
<!-- Title: Display Pages: 1 -->
<svg width="160pt" height="153pt"
 viewBox="0.00 0.00 160.00 153.25" xmlns="http://www.w3.org/2000/svg" xmlns:xlink="http://www.w3.org/1999/xlink">
<g id="graph0" class="graph" transform="scale(1 1) rotate(0) translate(4 149.25)">
<title>Display</title>
<!-- Node1 -->
<g id="Node000001" class="node">
<title>Node1</title>
<g id="a_Node000001"><a xlink:title=" ">
<polygon fill="#999999" stroke="none" points="91.5,-49 36.5,-49 36.5,0 91.5,0 91.5,-49"/>
<text text-anchor="start" x="48.25" y="-35.5" font-family="Helvetica,sans-Serif" font-size="10.00">Display</text>
<text text-anchor="start" x="62.5" y="-20.5" font-family="Helvetica,sans-Serif" font-size="10.00"> </text>
<text text-anchor="start" x="40.5" y="-5.5" font-family="Helvetica,sans-Serif" font-size="10.00">+</text>
<text text-anchor="start" x="50.5" y="-5.5" font-family="Helvetica,sans-Serif" font-size="10.00">Display()</text>
<polygon fill="#666666" stroke="#666666" points="36.5,-32 36.5,-32 91.5,-32 91.5,-32 36.5,-32"/>
<polygon fill="#666666" stroke="#666666" points="36.5,-17 36.5,-17 91.5,-17 91.5,-17 36.5,-17"/>
<polygon fill="none" stroke="#666666" points="36.5,0 36.5,-49 91.5,-49 91.5,0 36.5,0"/>
</a>
</g>
</g>
<!-- Node2 -->
<g id="Node000002" class="node">
<title>Node2</title>
<g id="a_Node000002"><a xlink:href="classIDisplay.xhtml" target="_top" xlink:title=" ">
<polygon fill="white" stroke="none" points="44,-145.25 0,-145.25 0,-96.25 44,-96.25 44,-145.25"/>
<text text-anchor="start" x="4.75" y="-131.75" font-family="Helvetica,sans-Serif" font-size="10.00">IDisplay</text>
<text text-anchor="start" x="20.5" y="-116.75" font-family="Helvetica,sans-Serif" font-size="10.00"> </text>
<text text-anchor="start" x="20.5" y="-101.75" font-family="Helvetica,sans-Serif" font-size="10.00"> </text>
<polygon fill="#666666" stroke="#666666" points="0,-128.25 0,-128.25 44,-128.25 44,-128.25 0,-128.25"/>
<polygon fill="#666666" stroke="#666666" points="0,-113.25 0,-113.25 44,-113.25 44,-113.25 0,-113.25"/>
<polygon fill="none" stroke="#666666" points="0,-96.25 0,-145.25 44,-145.25 44,-96.25 0,-96.25"/>
</a>
</g>
</g>
<!-- Node2&#45;&gt;Node1 -->
<g id="edge1_Node000001_Node000002" class="edge">
<title>Node2&#45;&gt;Node1</title>
<g id="a_edge1_Node000001_Node000002"><a xlink:title=" ">
<path fill="none" stroke="#63b8ff" d="M37.01,-86.06C42.5,-73.74 48.59,-60.08 53.59,-48.86"/>
<polygon fill="none" stroke="#63b8ff" points="33.87,-84.51 33,-95.07 40.27,-87.36 33.87,-84.51"/>
</a>
</g>
</g>
<!-- Node3 -->
<g id="Node000003" class="node">
<title>Node3</title>
<g id="a_Node000003"><a xlink:title=" ">
<polygon fill="white" stroke="none" points="152,-145.25 62,-145.25 62,-96.25 152,-96.25 152,-145.25"/>
<text text-anchor="start" x="66.88" y="-131.75" font-family="Helvetica,sans-Serif" font-size="10.00">Adafruit_SSD1306</text>
<text text-anchor="start" x="105.5" y="-116.75" font-family="Helvetica,sans-Serif" font-size="10.00"> </text>
<text text-anchor="start" x="105.5" y="-101.75" font-family="Helvetica,sans-Serif" font-size="10.00"> </text>
<polygon fill="#666666" stroke="#666666" points="62,-128.25 62,-128.25 152,-128.25 152,-128.25 62,-128.25"/>
<polygon fill="#666666" stroke="#666666" points="62,-113.25 62,-113.25 152,-113.25 152,-113.25 62,-113.25"/>
<polygon fill="none" stroke="#666666" points="62,-96.25 62,-145.25 152,-145.25 152,-96.25 62,-96.25"/>
</a>
</g>
</g>
<!-- Node3&#45;&gt;Node1 -->
<g id="edge2_Node000001_Node000003" class="edge">
<title>Node3&#45;&gt;Node1</title>
<g id="a_edge2_Node000001_Node000003"><a xlink:title=" ">
<path fill="none" stroke="#63b8ff" d="M96.37,-96.45C91.41,-85.58 85.4,-72.4 79.91,-60.38"/>
<polygon fill="none" stroke="#63b8ff" points="80.01,-60.59 73.88,-56.8 75.03,-49.68 81.16,-53.47 80.01,-60.59"/>
</a>
</g>
<text text-anchor="middle" x="103.62" y="-68.75" font-family="Helvetica,sans-Serif" font-size="10.00" fill="grey"> &#45;display</text>
</g>
</g>
</svg>
