<?xml version="1.0" encoding="UTF-8" standalone="no"?>
<!DOCTYPE svg PUBLIC "-//W3C//DTD SVG 1.1//EN"
 "http://www.w3.org/Graphics/SVG/1.1/DTD/svg11.dtd">
<!-- Generated by graphviz version 7.0.5 (20221223.1930)
 -->
<!-- Title: lib/application_business_rules/src/Controller.hpp Pages: 1 -->
<svg width="485pt" height="170pt"
 viewBox="0.00 0.00 485.00 170.00" xmlns="http://www.w3.org/2000/svg" xmlns:xlink="http://www.w3.org/1999/xlink">
<g id="graph0" class="graph" transform="scale(1 1) rotate(0) translate(4 166)">
<title>lib/application_business_rules/src/Controller.hpp</title>
<!-- Node1 -->
<g id="node1" class="node">
<title>Node1</title>
<g id="a_node1"><a xlink:title=" ">
<polygon fill="#999999" stroke="#666666" points="320.5,-162 198.5,-162 198.5,-132 320.5,-132 320.5,-162"/>
<text text-anchor="start" x="206.5" y="-150" font-family="Helvetica,sans-Serif" font-size="10.00">lib/application_business</text>
<text text-anchor="middle" x="259.5" y="-139" font-family="Helvetica,sans-Serif" font-size="10.00">_rules/src/Controller.hpp</text>
</a>
</g>
</g>
<!-- Node2 -->
<g id="node2" class="node">
<title>Node2</title>
<g id="a_node2"><a xlink:href="ProcessHmiInputs_8hpp.xhtml" target="_top" xlink:title=" ">
<polygon fill="white" stroke="#666666" points="187,-96 8,-96 8,-66 187,-66 187,-96"/>
<text text-anchor="start" x="16" y="-84" font-family="Helvetica,sans-Serif" font-size="10.00">lib/application_business</text>
<text text-anchor="middle" x="97.5" y="-73" font-family="Helvetica,sans-Serif" font-size="10.00">_rules/include/ProcessHmiInputs.hpp</text>
</a>
</g>
</g>
<!-- Node1&#45;&gt;Node2 -->
<g id="edge1" class="edge">
<title>Node1&#45;&gt;Node2</title>
<path fill="none" stroke="#63b8ff" d="M212.44,-127.41C187.45,-117.54 157.21,-105.59 134.01,-96.43"/>
<polygon fill="#63b8ff" stroke="#63b8ff" points="211.15,-130.66 221.74,-131.08 213.72,-124.15 211.15,-130.66"/>
</g>
<!-- Node4 -->
<g id="node4" class="node">
<title>Node4</title>
<g id="a_node4"><a xlink:href="main_8cpp.xhtml" target="_top" xlink:title=" ">
<polygon fill="white" stroke="#666666" points="251.5,-24.5 179.5,-24.5 179.5,-5.5 251.5,-5.5 251.5,-24.5"/>
<text text-anchor="middle" x="215.5" y="-12.5" font-family="Helvetica,sans-Serif" font-size="10.00">src/main.cpp</text>
</a>
</g>
</g>
<!-- Node1&#45;&gt;Node4 -->
<g id="edge5" class="edge">
<title>Node1&#45;&gt;Node4</title>
<path fill="none" stroke="#63b8ff" d="M245.81,-121.45C241.77,-113.5 237.6,-104.53 234.5,-96 225.34,-70.78 219.39,-39.45 216.87,-24.6"/>
<polygon fill="#63b8ff" stroke="#63b8ff" points="242.66,-122.98 250.43,-130.18 248.85,-119.7 242.66,-122.98"/>
</g>
<!-- Node5 -->
<g id="node5" class="node">
<title>Node5</title>
<g id="a_node5"><a xlink:href="Controller_8cpp.xhtml" target="_top" xlink:title=" ">
<polygon fill="white" stroke="#666666" points="365.5,-96 243.5,-96 243.5,-66 365.5,-66 365.5,-96"/>
<text text-anchor="start" x="251.5" y="-84" font-family="Helvetica,sans-Serif" font-size="10.00">lib/application_business</text>
<text text-anchor="middle" x="304.5" y="-73" font-family="Helvetica,sans-Serif" font-size="10.00">_rules/src/Controller.cpp</text>
</a>
</g>
</g>
<!-- Node1&#45;&gt;Node5 -->
<g id="edge4" class="edge">
<title>Node1&#45;&gt;Node5</title>
<path fill="none" stroke="#63b8ff" d="M276.1,-122.39C282.29,-113.59 289.13,-103.86 294.54,-96.16"/>
<polygon fill="#63b8ff" stroke="#63b8ff" points="273.25,-120.36 270.36,-130.56 278.97,-124.39 273.25,-120.36"/>
</g>
<!-- Node6 -->
<g id="node6" class="node">
<title>Node6</title>
<g id="a_node6"><a xlink:href="test__hmi_8cpp.xhtml" target="_top" xlink:title=" ">
<polygon fill="white" stroke="#666666" points="477,-96 384,-96 384,-66 477,-66 477,-96"/>
<text text-anchor="start" x="392" y="-84" font-family="Helvetica,sans-Serif" font-size="10.00">test/test_hmi/test</text>
<text text-anchor="middle" x="430.5" y="-73" font-family="Helvetica,sans-Serif" font-size="10.00">_hmi.cpp</text>
</a>
</g>
</g>
<!-- Node1&#45;&gt;Node6 -->
<g id="edge6" class="edge">
<title>Node1&#45;&gt;Node6</title>
<path fill="none" stroke="#63b8ff" d="M308.47,-127.67C334.98,-117.75 367.26,-105.67 391.96,-96.43"/>
<polygon fill="#63b8ff" stroke="#63b8ff" points="307.43,-124.32 299.29,-131.11 309.89,-130.88 307.43,-124.32"/>
</g>
<!-- Node3 -->
<g id="node3" class="node">
<title>Node3</title>
<g id="a_node3"><a xlink:href="ProcessHmiInputs_8cpp.xhtml" target="_top" xlink:title=" ">
<polygon fill="white" stroke="#666666" points="161,-30 0,-30 0,0 161,0 161,-30"/>
<text text-anchor="start" x="8" y="-18" font-family="Helvetica,sans-Serif" font-size="10.00">lib/application_business</text>
<text text-anchor="middle" x="80.5" y="-7" font-family="Helvetica,sans-Serif" font-size="10.00">_rules/src/ProcessHmiInputs.cpp</text>
</a>
</g>
</g>
<!-- Node2&#45;&gt;Node3 -->
<g id="edge2" class="edge">
<title>Node2&#45;&gt;Node3</title>
<path fill="none" stroke="#63b8ff" d="M90.77,-54.68C88.56,-46.34 86.18,-37.37 84.26,-30.16"/>
<polygon fill="#63b8ff" stroke="#63b8ff" points="87.39,-55.57 93.34,-64.33 94.15,-53.77 87.39,-55.57"/>
</g>
<!-- Node2&#45;&gt;Node4 -->
<g id="edge3" class="edge">
<title>Node2&#45;&gt;Node4</title>
<path fill="none" stroke="#63b8ff" d="M133.88,-60.27C155.6,-48.49 182.14,-34.1 198.93,-24.99"/>
<polygon fill="#63b8ff" stroke="#63b8ff" points="132.43,-57.07 125.31,-64.92 135.77,-63.22 132.43,-57.07"/>
</g>
</g>
</svg>
