<?xml version="1.0" encoding="UTF-8" standalone="no"?>
<!DOCTYPE svg PUBLIC "-//W3C//DTD SVG 1.1//EN"
 "http://www.w3.org/Graphics/SVG/1.1/DTD/svg11.dtd">
<!-- Generated by graphviz version 9.0.0 (20230911.1827)
 -->
<!-- Title: lib/layer2_hmi/src/Controller.hpp Pages: 1 -->
<svg width="205pt" height="204pt"
 viewBox="0.00 0.00 205.25 204.25" xmlns="http://www.w3.org/2000/svg" xmlns:xlink="http://www.w3.org/1999/xlink">
<g id="graph0" class="graph" transform="scale(1 1) rotate(0) translate(4 200.25)">
<title>lib/layer2_hmi/src/Controller.hpp</title>
<!-- Node1 -->
<g id="Node000001" class="node">
<title>Node1</title>
<g id="a_Node000001"><a xlink:title=" ">
<polygon fill="#999999" stroke="#666666" points="139.25,-196.25 47.5,-196.25 47.5,-165.75 139.25,-165.75 139.25,-196.25"/>
<text text-anchor="start" x="55.5" y="-182.75" font-family="Helvetica,sans-Serif" font-size="10.00">lib/layer2_hmi/src</text>
<text text-anchor="middle" x="93.38" y="-171.5" font-family="Helvetica,sans-Serif" font-size="10.00">/Controller.hpp</text>
</a>
</g>
</g>
<!-- Node2 -->
<g id="Node000002" class="node">
<title>Node2</title>
<g id="a_Node000002"><a xlink:href="IController_8hpp.xhtml" target="_top" xlink:title=" ">
<polygon fill="white" stroke="#666666" points="178.5,-129.75 100.25,-129.75 100.25,-110.5 178.5,-110.5 178.5,-129.75"/>
<text text-anchor="middle" x="139.38" y="-116.25" font-family="Helvetica,sans-Serif" font-size="10.00">IController.hpp</text>
</a>
</g>
</g>
<!-- Node1&#45;&gt;Node2 -->
<g id="edge1_Node000001_Node000002" class="edge">
<title>Node1&#45;&gt;Node2</title>
<g id="a_edge1_Node000001_Node000002"><a xlink:title=" ">
<path fill="none" stroke="#63b8ff" d="M104.75,-165.45C110.94,-157.52 118.67,-147.63 125.25,-139.21"/>
<polygon fill="#63b8ff" stroke="#63b8ff" points="127.95,-141.43 131.35,-131.39 122.44,-137.12 127.95,-141.43"/>
</a>
</g>
</g>
<!-- Node3 -->
<g id="Node000003" class="node">
<title>Node3</title>
<g id="a_Node000003"><a xlink:href="KeyIds_8hpp.xhtml" target="_top" xlink:title=" ">
<polygon fill="white" stroke="#666666" points="79.38,-74.5 15.38,-74.5 15.38,-55.25 79.38,-55.25 79.38,-74.5"/>
<text text-anchor="middle" x="47.38" y="-61" font-family="Helvetica,sans-Serif" font-size="10.00">KeyIds.hpp</text>
</a>
</g>
</g>
<!-- Node1&#45;&gt;Node3 -->
<g id="edge7_Node000001_Node000003" class="edge">
<title>Node1&#45;&gt;Node3</title>
<g id="a_edge7_Node000001_Node000003"><a xlink:title=" ">
<path fill="none" stroke="#63b8ff" d="M47.25,-165.53C30.38,-157.75 13.07,-146.26 3.38,-129.75 -6.6,-112.76 9.2,-94.33 24.56,-81.65"/>
<polygon fill="#63b8ff" stroke="#63b8ff" points="26.36,-84.69 32.16,-75.83 22.1,-79.13 26.36,-84.69"/>
</a>
</g>
</g>
<!-- Node5 -->
<g id="Node000005" class="node">
<title>Node5</title>
<g id="a_Node000005"><a xlink:title=" ">
<polygon fill="#e0e0e0" stroke="#999999" points="197.25,-74.5 147.5,-74.5 147.5,-55.25 197.25,-55.25 197.25,-74.5"/>
<text text-anchor="middle" x="172.38" y="-61" font-family="Helvetica,sans-Serif" font-size="10.00">optional</text>
</a>
</g>
</g>
<!-- Node1&#45;&gt;Node5 -->
<g id="edge8_Node000001_Node000005" class="edge">
<title>Node1&#45;&gt;Node5</title>
<g id="a_edge8_Node000001_Node000005"><a xlink:title=" ">
<path fill="none" stroke="#63b8ff" d="M139.52,-166.86C157.74,-159.16 176.82,-147.37 187.38,-129.75 195.61,-116.01 190.27,-98.09 183.79,-84.73"/>
<polygon fill="#63b8ff" stroke="#63b8ff" points="186.94,-83.2 179.07,-76.1 180.79,-86.55 186.94,-83.2"/>
</a>
</g>
</g>
<!-- Node6 -->
<g id="Node000006" class="node">
<title>Node6</title>
<g id="a_Node000006"><a xlink:href="IKeypad_8hpp.xhtml" target="_top" xlink:title=" ">
<polygon fill="white" stroke="#666666" points="82,-129.75 12.75,-129.75 12.75,-110.5 82,-110.5 82,-129.75"/>
<text text-anchor="middle" x="47.38" y="-116.25" font-family="Helvetica,sans-Serif" font-size="10.00">IKeypad.hpp</text>
</a>
</g>
</g>
<!-- Node1&#45;&gt;Node6 -->
<g id="edge5_Node000001_Node000006" class="edge">
<title>Node1&#45;&gt;Node6</title>
<g id="a_edge5_Node000001_Node000006"><a xlink:title=" ">
<path fill="none" stroke="#63b8ff" d="M82,-165.45C75.81,-157.52 68.09,-147.63 61.51,-139.21"/>
<polygon fill="#63b8ff" stroke="#63b8ff" points="64.31,-137.12 55.4,-131.39 58.8,-141.43 64.31,-137.12"/>
</a>
</g>
</g>
<!-- Node2&#45;&gt;Node3 -->
<g id="edge2_Node000002_Node000003" class="edge">
<title>Node2&#45;&gt;Node3</title>
<g id="a_edge2_Node000002_Node000003"><a xlink:title=" ">
<path fill="none" stroke="#63b8ff" d="M123.77,-110.09C109.76,-101.98 88.94,-89.93 72.57,-80.46"/>
<polygon fill="#63b8ff" stroke="#63b8ff" points="74.78,-77.69 64.37,-75.71 71.27,-83.75 74.78,-77.69"/>
</a>
</g>
</g>
<!-- Node2&#45;&gt;Node5 -->
<g id="edge4_Node000002_Node000005" class="edge">
<title>Node2&#45;&gt;Node5</title>
<g id="a_edge4_Node000002_Node000005"><a xlink:title=" ">
<path fill="none" stroke="#63b8ff" d="M144.82,-110.33C149.15,-103.36 155.34,-93.37 160.76,-84.62"/>
<polygon fill="#63b8ff" stroke="#63b8ff" points="163.72,-86.49 166.01,-76.15 157.77,-82.8 163.72,-86.49"/>
</a>
</g>
</g>
<!-- Node4 -->
<g id="Node000004" class="node">
<title>Node4</title>
<g id="a_Node000004"><a xlink:title=" ">
<polygon fill="#e0e0e0" stroke="#999999" points="73,-19.25 21.75,-19.25 21.75,0 73,0 73,-19.25"/>
<text text-anchor="middle" x="47.38" y="-5.75" font-family="Helvetica,sans-Serif" font-size="10.00">ostream</text>
</a>
</g>
</g>
<!-- Node3&#45;&gt;Node4 -->
<g id="edge3_Node000003_Node000004" class="edge">
<title>Node3&#45;&gt;Node4</title>
<g id="a_edge3_Node000003_Node000004"><a xlink:title=" ">
<path fill="none" stroke="#63b8ff" d="M47.38,-55.08C47.38,-48.57 47.38,-39.42 47.38,-31.12"/>
<polygon fill="#63b8ff" stroke="#63b8ff" points="50.88,-31.12 47.38,-21.12 43.88,-31.12 50.88,-31.12"/>
</a>
</g>
</g>
<!-- Node6&#45;&gt;Node3 -->
<g id="edge6_Node000006_Node000003" class="edge">
<title>Node6&#45;&gt;Node3</title>
<g id="a_edge6_Node000006_Node000003"><a xlink:title=" ">
<path fill="none" stroke="#63b8ff" d="M47.38,-110.33C47.38,-103.82 47.38,-94.67 47.38,-86.37"/>
<polygon fill="#63b8ff" stroke="#63b8ff" points="50.88,-86.37 47.38,-76.37 43.88,-86.37 50.88,-86.37"/>
</a>
</g>
</g>
</g>
</svg>
