<?xml version="1.0" encoding="UTF-8" standalone="no"?>
<!DOCTYPE svg PUBLIC "-//W3C//DTD SVG 1.1//EN"
 "http://www.w3.org/Graphics/SVG/1.1/DTD/svg11.dtd">
<!-- Generated by graphviz version 7.0.5 (20221223.1930)
 -->
<!-- Title: lib/application_business_rules/src/Controller.hpp Pages: 1 -->
<svg width="184pt" height="203pt"
 viewBox="0.00 0.00 184.00 203.00" xmlns="http://www.w3.org/2000/svg" xmlns:xlink="http://www.w3.org/1999/xlink">
<g id="graph0" class="graph" transform="scale(1 1) rotate(0) translate(4 199)">
<title>lib/application_business_rules/src/Controller.hpp</title>
<!-- Node1 -->
<g id="node1" class="node">
<title>Node1</title>
<g id="a_node1"><a xlink:title=" ">
<polygon fill="#999999" stroke="#666666" points="159,-195 37,-195 37,-165 159,-165 159,-195"/>
<text text-anchor="start" x="45" y="-183" font-family="Helvetica,sans-Serif" font-size="10.00">lib/application_business</text>
<text text-anchor="middle" x="98" y="-172" font-family="Helvetica,sans-Serif" font-size="10.00">_rules/src/Controller.hpp</text>
</a>
</g>
</g>
<!-- Node2 -->
<g id="node2" class="node">
<title>Node2</title>
<g id="a_node2"><a xlink:href="IKeypad_8hpp.xhtml" target="_top" xlink:title=" ">
<polygon fill="white" stroke="#666666" points="70,-129 0,-129 0,-110 70,-110 70,-129"/>
<text text-anchor="middle" x="35" y="-117" font-family="Helvetica,sans-Serif" font-size="10.00">IKeypad.hpp</text>
</a>
</g>
</g>
<!-- Node1&#45;&gt;Node2 -->
<g id="edge1" class="edge">
<title>Node1&#45;&gt;Node2</title>
<path fill="none" stroke="#63b8ff" d="M82.43,-164.54C73.37,-156.13 61.93,-145.51 52.55,-136.8"/>
<polygon fill="#63b8ff" stroke="#63b8ff" points="55.16,-134.44 45.45,-130.21 50.4,-139.57 55.16,-134.44"/>
</g>
<!-- Node3 -->
<g id="node3" class="node">
<title>Node3</title>
<g id="a_node3"><a xlink:href="KeyIds_8hpp.xhtml" target="_top" xlink:title=" ">
<polygon fill="white" stroke="#666666" points="98.5,-74 33.5,-74 33.5,-55 98.5,-55 98.5,-74"/>
<text text-anchor="middle" x="66" y="-62" font-family="Helvetica,sans-Serif" font-size="10.00">KeyIds.hpp</text>
</a>
</g>
</g>
<!-- Node1&#45;&gt;Node3 -->
<g id="edge4" class="edge">
<title>Node1&#45;&gt;Node3</title>
<path fill="none" stroke="#63b8ff" d="M94.13,-164.71C90.34,-150.74 84.36,-128.89 79,-110 76.69,-101.87 74.09,-92.92 71.83,-85.2"/>
<polygon fill="#63b8ff" stroke="#63b8ff" points="75.24,-84.41 69.06,-75.81 68.53,-86.39 75.24,-84.41"/>
</g>
<!-- Node5 -->
<g id="node5" class="node">
<title>Node5</title>
<g id="a_node5"><a xlink:title=" ">
<polygon fill="#e0e0e0" stroke="#999999" points="176,-129 126,-129 126,-110 176,-110 176,-129"/>
<text text-anchor="middle" x="151" y="-117" font-family="Helvetica,sans-Serif" font-size="10.00">optional</text>
</a>
</g>
</g>
<!-- Node1&#45;&gt;Node5 -->
<g id="edge5" class="edge">
<title>Node1&#45;&gt;Node5</title>
<path fill="none" stroke="#63b8ff" d="M111.1,-164.54C118.48,-156.39 127.75,-146.16 135.5,-137.61"/>
<polygon fill="#63b8ff" stroke="#63b8ff" points="138,-140.06 142.12,-130.3 132.82,-135.36 138,-140.06"/>
</g>
<!-- Node2&#45;&gt;Node3 -->
<g id="edge2" class="edge">
<title>Node2&#45;&gt;Node3</title>
<path fill="none" stroke="#63b8ff" d="M40.12,-109.75C44.18,-102.81 49.99,-92.86 55.09,-84.16"/>
<polygon fill="#63b8ff" stroke="#63b8ff" points="57.98,-86.15 60.01,-75.75 51.94,-82.61 57.98,-86.15"/>
</g>
<!-- Node4 -->
<g id="node4" class="node">
<title>Node4</title>
<g id="a_node4"><a xlink:title=" ">
<polygon fill="#e0e0e0" stroke="#999999" points="92,-19 40,-19 40,0 92,0 92,-19"/>
<text text-anchor="middle" x="66" y="-7" font-family="Helvetica,sans-Serif" font-size="10.00">ostream</text>
</a>
</g>
</g>
<!-- Node3&#45;&gt;Node4 -->
<g id="edge3" class="edge">
<title>Node3&#45;&gt;Node4</title>
<path fill="none" stroke="#63b8ff" d="M66,-54.75C66,-48.27 66,-39.16 66,-30.9"/>
<polygon fill="#63b8ff" stroke="#63b8ff" points="69.5,-30.96 66,-20.96 62.5,-30.96 69.5,-30.96"/>
</g>
</g>
</svg>
