<?xml version="1.0" encoding="UTF-8" standalone="no"?>
<!DOCTYPE svg PUBLIC "-//W3C//DTD SVG 1.1//EN"
 "http://www.w3.org/Graphics/SVG/1.1/DTD/svg11.dtd">
<!-- Generated by graphviz version 7.0.5 (20221223.1930)
 -->
<!-- Title: lib/application_business_rules/src/controller_factory_interface.cpp Pages: 1 -->
<svg width="355pt" height="280pt"
 viewBox="0.00 0.00 355.00 280.00" xmlns="http://www.w3.org/2000/svg" xmlns:xlink="http://www.w3.org/1999/xlink">
<g id="graph0" class="graph" transform="scale(1 1) rotate(0) translate(4 276)">
<title>lib/application_business_rules/src/controller_factory_interface.cpp</title>
<!-- Node1 -->
<g id="node1" class="node">
<title>Node1</title>
<g id="a_node1"><a xlink:title=" ">
<polygon fill="#999999" stroke="#666666" points="216,-272 79,-272 79,-231 216,-231 216,-272"/>
<text text-anchor="start" x="87" y="-260" font-family="Helvetica,sans-Serif" font-size="10.00">lib/application_business</text>
<text text-anchor="start" x="87" y="-249" font-family="Helvetica,sans-Serif" font-size="10.00">_rules/src/controller_factory</text>
<text text-anchor="middle" x="147.5" y="-238" font-family="Helvetica,sans-Serif" font-size="10.00">_interface.cpp</text>
</a>
</g>
</g>
<!-- Node2 -->
<g id="node2" class="node">
<title>Node2</title>
<g id="a_node2"><a xlink:href="controller__factory__interface_8hpp.xhtml" target="_top" xlink:title=" ">
<polygon fill="white" stroke="#666666" points="91,-195 0,-195 0,-165 91,-165 91,-195"/>
<text text-anchor="start" x="8" y="-183" font-family="Helvetica,sans-Serif" font-size="10.00">controller_factory</text>
<text text-anchor="middle" x="45.5" y="-172" font-family="Helvetica,sans-Serif" font-size="10.00">_interface.hpp</text>
</a>
</g>
</g>
<!-- Node1&#45;&gt;Node2 -->
<g id="edge1" class="edge">
<title>Node1&#45;&gt;Node2</title>
<path fill="none" stroke="#63b8ff" d="M118.27,-230.58C105.01,-221.55 89.32,-210.86 75.92,-201.73"/>
<polygon fill="#63b8ff" stroke="#63b8ff" points="78.12,-198.99 67.88,-196.25 74.17,-204.77 78.12,-198.99"/>
</g>
<!-- Node7 -->
<g id="node7" class="node">
<title>Node7</title>
<g id="a_node7"><a xlink:href="Controller_8hpp.xhtml" target="_top" xlink:title=" ">
<polygon fill="white" stroke="#666666" points="185.5,-189.5 109.5,-189.5 109.5,-170.5 185.5,-170.5 185.5,-189.5"/>
<text text-anchor="middle" x="147.5" y="-177.5" font-family="Helvetica,sans-Serif" font-size="10.00">Controller.hpp</text>
</a>
</g>
</g>
<!-- Node1&#45;&gt;Node7 -->
<g id="edge6" class="edge">
<title>Node1&#45;&gt;Node7</title>
<path fill="none" stroke="#63b8ff" d="M147.5,-230.77C147.5,-221.5 147.5,-210.46 147.5,-201.14"/>
<polygon fill="#63b8ff" stroke="#63b8ff" points="151,-201.33 147.5,-191.33 144,-201.33 151,-201.33"/>
</g>
<!-- Node9 -->
<g id="node9" class="node">
<title>Node9</title>
<g id="a_node9"><a xlink:href="keypad__factory__interface_8hpp.xhtml" target="_top" xlink:title=" ">
<polygon fill="white" stroke="#666666" points="347,-189.5 204,-189.5 204,-170.5 347,-170.5 347,-189.5"/>
<text text-anchor="middle" x="275.5" y="-177.5" font-family="Helvetica,sans-Serif" font-size="10.00">keypad_factory_interface.hpp</text>
</a>
</g>
</g>
<!-- Node1&#45;&gt;Node9 -->
<g id="edge12" class="edge">
<title>Node1&#45;&gt;Node9</title>
<path fill="none" stroke="#63b8ff" d="M184.18,-230.58C204.9,-219.33 230.33,-205.53 249.09,-195.34"/>
<polygon fill="#63b8ff" stroke="#63b8ff" points="250.56,-198.52 257.68,-190.68 247.22,-192.37 250.56,-198.52"/>
</g>
<!-- Node3 -->
<g id="node3" class="node">
<title>Node3</title>
<g id="a_node3"><a xlink:href="IController_8hpp.xhtml" target="_top" xlink:title=" ">
<polygon fill="white" stroke="#666666" points="102,-129 23,-129 23,-110 102,-110 102,-129"/>
<text text-anchor="middle" x="62.5" y="-117" font-family="Helvetica,sans-Serif" font-size="10.00">IController.hpp</text>
</a>
</g>
</g>
<!-- Node2&#45;&gt;Node3 -->
<g id="edge2" class="edge">
<title>Node2&#45;&gt;Node3</title>
<path fill="none" stroke="#63b8ff" d="M49.7,-164.54C51.84,-157.17 54.48,-148.1 56.8,-140.11"/>
<polygon fill="#63b8ff" stroke="#63b8ff" points="60.13,-141.21 59.56,-130.63 53.41,-139.25 60.13,-141.21"/>
</g>
<!-- Node4 -->
<g id="node4" class="node">
<title>Node4</title>
<g id="a_node4"><a xlink:href="KeyIds_8hpp.xhtml" target="_top" xlink:title=" ">
<polygon fill="white" stroke="#666666" points="201,-74 136,-74 136,-55 201,-55 201,-74"/>
<text text-anchor="middle" x="168.5" y="-62" font-family="Helvetica,sans-Serif" font-size="10.00">KeyIds.hpp</text>
</a>
</g>
</g>
<!-- Node3&#45;&gt;Node4 -->
<g id="edge3" class="edge">
<title>Node3&#45;&gt;Node4</title>
<path fill="none" stroke="#63b8ff" d="M80.48,-109.51C96.95,-101.27 121.59,-88.96 140.61,-79.45"/>
<polygon fill="#63b8ff" stroke="#63b8ff" points="142.05,-82.64 149.43,-75.03 138.92,-76.38 142.05,-82.64"/>
</g>
<!-- Node6 -->
<g id="node6" class="node">
<title>Node6</title>
<g id="a_node6"><a xlink:title=" ">
<polygon fill="#e0e0e0" stroke="#999999" points="102.5,-74 52.5,-74 52.5,-55 102.5,-55 102.5,-74"/>
<text text-anchor="middle" x="77.5" y="-62" font-family="Helvetica,sans-Serif" font-size="10.00">optional</text>
</a>
</g>
</g>
<!-- Node3&#45;&gt;Node6 -->
<g id="edge5" class="edge">
<title>Node3&#45;&gt;Node6</title>
<path fill="none" stroke="#63b8ff" d="M64.98,-109.75C66.85,-103.11 69.51,-93.73 71.89,-85.31"/>
<polygon fill="#63b8ff" stroke="#63b8ff" points="75.2,-86.47 74.56,-75.9 68.47,-84.57 75.2,-86.47"/>
</g>
<!-- Node5 -->
<g id="node5" class="node">
<title>Node5</title>
<g id="a_node5"><a xlink:title=" ">
<polygon fill="#e0e0e0" stroke="#999999" points="194.5,-19 142.5,-19 142.5,0 194.5,0 194.5,-19"/>
<text text-anchor="middle" x="168.5" y="-7" font-family="Helvetica,sans-Serif" font-size="10.00">ostream</text>
</a>
</g>
</g>
<!-- Node4&#45;&gt;Node5 -->
<g id="edge4" class="edge">
<title>Node4&#45;&gt;Node5</title>
<path fill="none" stroke="#63b8ff" d="M168.5,-54.75C168.5,-48.27 168.5,-39.16 168.5,-30.9"/>
<polygon fill="#63b8ff" stroke="#63b8ff" points="172,-30.96 168.5,-20.96 165,-30.96 172,-30.96"/>
</g>
<!-- Node7&#45;&gt;Node3 -->
<g id="edge7" class="edge">
<title>Node7&#45;&gt;Node3</title>
<path fill="none" stroke="#63b8ff" d="M134.59,-170.12C121.36,-161.01 100.53,-146.68 84.66,-135.75"/>
<polygon fill="#63b8ff" stroke="#63b8ff" points="87,-133.11 76.78,-130.33 83.03,-138.88 87,-133.11"/>
</g>
<!-- Node7&#45;&gt;Node4 -->
<g id="edge10" class="edge">
<title>Node7&#45;&gt;Node4</title>
<path fill="none" stroke="#63b8ff" d="M149.15,-170.09C152.51,-151.94 160.21,-110.29 164.82,-85.37"/>
<polygon fill="#63b8ff" stroke="#63b8ff" points="168.21,-86.32 166.58,-75.85 161.32,-85.05 168.21,-86.32"/>
</g>
<!-- Node7&#45;&gt;Node6 -->
<g id="edge11" class="edge">
<title>Node7&#45;&gt;Node6</title>
<path fill="none" stroke="#63b8ff" d="M143.33,-170.27C136.86,-156.95 123.75,-130.89 110.5,-110 104.78,-100.98 97.81,-91.4 91.75,-83.46"/>
<polygon fill="#63b8ff" stroke="#63b8ff" points="94.56,-81.37 85.66,-75.62 89.03,-85.67 94.56,-81.37"/>
</g>
<!-- Node8 -->
<g id="node8" class="node">
<title>Node8</title>
<g id="a_node8"><a xlink:href="IKeypad_8hpp.xhtml" target="_top" xlink:title=" ">
<polygon fill="white" stroke="#666666" points="266.5,-129 196.5,-129 196.5,-110 266.5,-110 266.5,-129"/>
<text text-anchor="middle" x="231.5" y="-117" font-family="Helvetica,sans-Serif" font-size="10.00">IKeypad.hpp</text>
</a>
</g>
</g>
<!-- Node7&#45;&gt;Node8 -->
<g id="edge8" class="edge">
<title>Node7&#45;&gt;Node8</title>
<path fill="none" stroke="#63b8ff" d="M160.26,-170.12C173.33,-161.01 193.91,-146.68 209.6,-135.75"/>
<polygon fill="#63b8ff" stroke="#63b8ff" points="211.17,-138.92 217.38,-130.33 207.17,-133.18 211.17,-138.92"/>
</g>
<!-- Node8&#45;&gt;Node4 -->
<g id="edge9" class="edge">
<title>Node8&#45;&gt;Node4</title>
<path fill="none" stroke="#63b8ff" d="M220.81,-109.51C211.8,-101.93 198.67,-90.88 187.82,-81.75"/>
<polygon fill="#63b8ff" stroke="#63b8ff" points="190.09,-79.09 180.19,-75.33 185.59,-84.45 190.09,-79.09"/>
</g>
<!-- Node9&#45;&gt;Node8 -->
<g id="edge13" class="edge">
<title>Node9&#45;&gt;Node8</title>
<path fill="none" stroke="#63b8ff" d="M269.01,-170.37C262.64,-161.9 252.74,-148.74 244.71,-138.07"/>
<polygon fill="#63b8ff" stroke="#63b8ff" points="247.74,-136.26 238.93,-130.38 242.14,-140.47 247.74,-136.26"/>
</g>
</g>
</svg>
