<?xml version="1.0" encoding="UTF-8" standalone="no"?>
<!DOCTYPE svg PUBLIC "-//W3C//DTD SVG 1.1//EN"
 "http://www.w3.org/Graphics/SVG/1.1/DTD/svg11.dtd">
<!-- Generated by graphviz version 7.0.5 (20221223.1930)
 -->
<!-- Title: lib/application_business_rules/src/Controller.hpp Pages: 1 -->
<svg width="207pt" height="203pt"
 viewBox="0.00 0.00 207.37 203.00" xmlns="http://www.w3.org/2000/svg" xmlns:xlink="http://www.w3.org/1999/xlink">
<g id="graph0" class="graph" transform="scale(1 1) rotate(0) translate(4 199)">
<title>lib/application_business_rules/src/Controller.hpp</title>
<!-- Node1 -->
<g id="node1" class="node">
<title>Node1</title>
<g id="a_node1"><a xlink:title=" ">
<polygon fill="#999999" stroke="#666666" points="154.37,-195 32.37,-195 32.37,-165 154.37,-165 154.37,-195"/>
<text text-anchor="start" x="40.37" y="-183" font-family="Helvetica,sans-Serif" font-size="10.00">lib/application_business</text>
<text text-anchor="middle" x="93.37" y="-172" font-family="Helvetica,sans-Serif" font-size="10.00">_rules/src/Controller.hpp</text>
</a>
</g>
</g>
<!-- Node2 -->
<g id="node2" class="node">
<title>Node2</title>
<g id="a_node2"><a xlink:href="IController_8hpp.xhtml" target="_top" xlink:title=" ">
<polygon fill="white" stroke="#666666" points="179.87,-129 100.87,-129 100.87,-110 179.87,-110 179.87,-129"/>
<text text-anchor="middle" x="140.37" y="-117" font-family="Helvetica,sans-Serif" font-size="10.00">IController.hpp</text>
</a>
</g>
</g>
<!-- Node1&#45;&gt;Node2 -->
<g id="edge1" class="edge">
<title>Node1&#45;&gt;Node2</title>
<path fill="none" stroke="#63b8ff" d="M104.98,-164.54C111.46,-156.48 119.58,-146.38 126.4,-137.89"/>
<polygon fill="#63b8ff" stroke="#63b8ff" points="128.91,-140.34 132.45,-130.36 123.46,-135.96 128.91,-140.34"/>
</g>
<!-- Node3 -->
<g id="node3" class="node">
<title>Node3</title>
<g id="a_node3"><a xlink:href="KeyIds_8hpp.xhtml" target="_top" xlink:title=" ">
<polygon fill="white" stroke="#666666" points="79.87,-74 14.87,-74 14.87,-55 79.87,-55 79.87,-74"/>
<text text-anchor="middle" x="47.37" y="-62" font-family="Helvetica,sans-Serif" font-size="10.00">KeyIds.hpp</text>
</a>
</g>
</g>
<!-- Node1&#45;&gt;Node3 -->
<g id="edge7" class="edge">
<title>Node1&#45;&gt;Node3</title>
<path fill="none" stroke="#63b8ff" d="M47.25,-164.65C30.38,-156.92 13.07,-145.48 3.37,-129 -6.58,-112.09 9.21,-93.77 24.57,-81.17"/>
<polygon fill="#63b8ff" stroke="#63b8ff" points="26.33,-84.23 32.16,-75.39 22.08,-78.67 26.33,-84.23"/>
</g>
<!-- Node5 -->
<g id="node5" class="node">
<title>Node5</title>
<g id="a_node5"><a xlink:title=" ">
<polygon fill="#e0e0e0" stroke="#999999" points="199.37,-74 149.37,-74 149.37,-55 199.37,-55 199.37,-74"/>
<text text-anchor="middle" x="174.37" y="-62" font-family="Helvetica,sans-Serif" font-size="10.00">optional</text>
</a>
</g>
</g>
<!-- Node1&#45;&gt;Node5 -->
<g id="edge8" class="edge">
<title>Node1&#45;&gt;Node5</title>
<path fill="none" stroke="#63b8ff" d="M144.49,-164.5C161.83,-156.87 179.33,-145.55 189.37,-129 197.63,-115.38 192.29,-97.56 185.79,-84.27"/>
<polygon fill="#63b8ff" stroke="#63b8ff" points="188.96,-82.76 181.07,-75.68 182.83,-86.13 188.96,-82.76"/>
</g>
<!-- Node6 -->
<g id="node6" class="node">
<title>Node6</title>
<g id="a_node6"><a xlink:href="IKeypad_8hpp.xhtml" target="_top" xlink:title=" ">
<polygon fill="white" stroke="#666666" points="82.37,-129 12.37,-129 12.37,-110 82.37,-110 82.37,-129"/>
<text text-anchor="middle" x="47.37" y="-117" font-family="Helvetica,sans-Serif" font-size="10.00">IKeypad.hpp</text>
</a>
</g>
</g>
<!-- Node1&#45;&gt;Node6 -->
<g id="edge5" class="edge">
<title>Node1&#45;&gt;Node6</title>
<path fill="none" stroke="#63b8ff" d="M82,-164.54C75.72,-156.56 67.89,-146.59 61.25,-138.16"/>
<polygon fill="#63b8ff" stroke="#63b8ff" points="64.06,-136.06 55.12,-130.36 58.55,-140.39 64.06,-136.06"/>
</g>
<!-- Node2&#45;&gt;Node3 -->
<g id="edge2" class="edge">
<title>Node2&#45;&gt;Node3</title>
<path fill="none" stroke="#63b8ff" d="M124.59,-109.51C110.34,-101.39 89.13,-89.3 72.54,-79.85"/>
<polygon fill="#63b8ff" stroke="#63b8ff" points="74.65,-77.02 64.22,-75.11 71.18,-83.1 74.65,-77.02"/>
</g>
<!-- Node2&#45;&gt;Node5 -->
<g id="edge4" class="edge">
<title>Node2&#45;&gt;Node5</title>
<path fill="none" stroke="#63b8ff" d="M145.98,-109.75C150.48,-102.73 156.95,-92.64 162.58,-83.87"/>
<polygon fill="#63b8ff" stroke="#63b8ff" points="165.36,-86.02 167.81,-75.72 159.47,-82.24 165.36,-86.02"/>
</g>
<!-- Node4 -->
<g id="node4" class="node">
<title>Node4</title>
<g id="a_node4"><a xlink:title=" ">
<polygon fill="#e0e0e0" stroke="#999999" points="73.37,-19 21.37,-19 21.37,0 73.37,0 73.37,-19"/>
<text text-anchor="middle" x="47.37" y="-7" font-family="Helvetica,sans-Serif" font-size="10.00">ostream</text>
</a>
</g>
</g>
<!-- Node3&#45;&gt;Node4 -->
<g id="edge3" class="edge">
<title>Node3&#45;&gt;Node4</title>
<path fill="none" stroke="#63b8ff" d="M47.37,-54.75C47.37,-48.27 47.37,-39.16 47.37,-30.9"/>
<polygon fill="#63b8ff" stroke="#63b8ff" points="50.87,-30.96 47.37,-20.96 43.87,-30.96 50.87,-30.96"/>
</g>
<!-- Node6&#45;&gt;Node3 -->
<g id="edge6" class="edge">
<title>Node6&#45;&gt;Node3</title>
<path fill="none" stroke="#63b8ff" d="M47.37,-109.75C47.37,-103.27 47.37,-94.16 47.37,-85.9"/>
<polygon fill="#63b8ff" stroke="#63b8ff" points="50.87,-85.96 47.37,-75.96 43.87,-85.96 50.87,-85.96"/>
</g>
</g>
</svg>
