<?xml version="1.0" encoding="UTF-8" standalone="no"?>
<!DOCTYPE svg PUBLIC "-//W3C//DTD SVG 1.1//EN"
 "http://www.w3.org/Graphics/SVG/1.1/DTD/svg11.dtd">
<!-- Generated by graphviz version 7.0.5 (20221223.1930)
 -->
<!-- Title: lib/application_business_rules/src/Controller.cpp Pages: 1 -->
<svg width="208pt" height="258pt"
 viewBox="0.00 0.00 207.55 258.00" xmlns="http://www.w3.org/2000/svg" xmlns:xlink="http://www.w3.org/1999/xlink">
<g id="graph0" class="graph" transform="scale(1 1) rotate(0) translate(4 254)">
<title>lib/application_business_rules/src/Controller.cpp</title>
<!-- Node1 -->
<g id="node1" class="node">
<title>Node1</title>
<g id="a_node1"><a xlink:title=" ">
<polygon fill="#999999" stroke="#666666" points="154.55,-250 32.55,-250 32.55,-220 154.55,-220 154.55,-250"/>
<text text-anchor="start" x="40.55" y="-238" font-family="Helvetica,sans-Serif" font-size="10.00">lib/application_business</text>
<text text-anchor="middle" x="93.55" y="-227" font-family="Helvetica,sans-Serif" font-size="10.00">_rules/src/Controller.cpp</text>
</a>
</g>
</g>
<!-- Node2 -->
<g id="node2" class="node">
<title>Node2</title>
<g id="a_node2"><a xlink:href="Controller_8hpp.xhtml" target="_top" xlink:title=" ">
<polygon fill="white" stroke="#666666" points="131.55,-184 55.55,-184 55.55,-165 131.55,-165 131.55,-184"/>
<text text-anchor="middle" x="93.55" y="-172" font-family="Helvetica,sans-Serif" font-size="10.00">Controller.hpp</text>
</a>
</g>
</g>
<!-- Node1&#45;&gt;Node2 -->
<g id="edge1" class="edge">
<title>Node1&#45;&gt;Node2</title>
<path fill="none" stroke="#63b8ff" d="M93.55,-219.54C93.55,-212.34 93.55,-203.53 93.55,-195.68"/>
<polygon fill="#63b8ff" stroke="#63b8ff" points="97.05,-195.69 93.55,-185.69 90.05,-195.69 97.05,-195.69"/>
</g>
<!-- Node3 -->
<g id="node3" class="node">
<title>Node3</title>
<g id="a_node3"><a xlink:href="IController_8hpp.xhtml" target="_top" xlink:title=" ">
<polygon fill="white" stroke="#666666" points="180.05,-129 101.05,-129 101.05,-110 180.05,-110 180.05,-129"/>
<text text-anchor="middle" x="140.55" y="-117" font-family="Helvetica,sans-Serif" font-size="10.00">IController.hpp</text>
</a>
</g>
</g>
<!-- Node2&#45;&gt;Node3 -->
<g id="edge2" class="edge">
<title>Node2&#45;&gt;Node3</title>
<path fill="none" stroke="#63b8ff" d="M101.31,-164.75C107.74,-157.5 117.06,-146.98 125.01,-138.02"/>
<polygon fill="#63b8ff" stroke="#63b8ff" points="127.6,-140.38 131.62,-130.57 122.36,-135.73 127.6,-140.38"/>
</g>
<!-- Node4 -->
<g id="node4" class="node">
<title>Node4</title>
<g id="a_node4"><a xlink:href="KeyIds_8hpp.xhtml" target="_top" xlink:title=" ">
<polygon fill="white" stroke="#666666" points="80.05,-74 15.05,-74 15.05,-55 80.05,-55 80.05,-74"/>
<text text-anchor="middle" x="47.55" y="-62" font-family="Helvetica,sans-Serif" font-size="10.00">KeyIds.hpp</text>
</a>
</g>
</g>
<!-- Node2&#45;&gt;Node4 -->
<g id="edge8" class="edge">
<title>Node2&#45;&gt;Node4</title>
<path fill="none" stroke="#63b8ff" d="M55.07,-164.69C36.08,-158.2 14.86,-147.21 3.55,-129 -6.86,-112.24 9.23,-93.77 24.79,-81.09"/>
<polygon fill="#63b8ff" stroke="#63b8ff" points="26.63,-84.09 32.49,-75.27 22.4,-78.51 26.63,-84.09"/>
</g>
<!-- Node6 -->
<g id="node6" class="node">
<title>Node6</title>
<g id="a_node6"><a xlink:title=" ">
<polygon fill="#e0e0e0" stroke="#999999" points="199.55,-74 149.55,-74 149.55,-55 199.55,-55 199.55,-74"/>
<text text-anchor="middle" x="174.55" y="-62" font-family="Helvetica,sans-Serif" font-size="10.00">optional</text>
</a>
</g>
</g>
<!-- Node2&#45;&gt;Node6 -->
<g id="edge9" class="edge">
<title>Node2&#45;&gt;Node6</title>
<path fill="none" stroke="#63b8ff" d="M131.57,-166.26C152.52,-160.12 176.79,-148.97 189.55,-129 198.12,-115.57 192.75,-97.74 186.17,-84.39"/>
<polygon fill="#63b8ff" stroke="#63b8ff" points="189.28,-82.79 181.37,-75.75 183.16,-86.19 189.28,-82.79"/>
</g>
<!-- Node7 -->
<g id="node7" class="node">
<title>Node7</title>
<g id="a_node7"><a xlink:href="IKeypad_8hpp.xhtml" target="_top" xlink:title=" ">
<polygon fill="white" stroke="#666666" points="82.55,-129 12.55,-129 12.55,-110 82.55,-110 82.55,-129"/>
<text text-anchor="middle" x="47.55" y="-117" font-family="Helvetica,sans-Serif" font-size="10.00">IKeypad.hpp</text>
</a>
</g>
</g>
<!-- Node2&#45;&gt;Node7 -->
<g id="edge6" class="edge">
<title>Node2&#45;&gt;Node7</title>
<path fill="none" stroke="#63b8ff" d="M85.95,-164.75C79.67,-157.5 70.54,-146.98 62.75,-138.02"/>
<polygon fill="#63b8ff" stroke="#63b8ff" points="65.5,-135.84 56.3,-130.59 60.21,-140.43 65.5,-135.84"/>
</g>
<!-- Node3&#45;&gt;Node4 -->
<g id="edge3" class="edge">
<title>Node3&#45;&gt;Node4</title>
<path fill="none" stroke="#63b8ff" d="M124.77,-109.51C110.53,-101.39 89.31,-89.3 72.72,-79.85"/>
<polygon fill="#63b8ff" stroke="#63b8ff" points="74.83,-77.02 64.41,-75.11 71.36,-83.1 74.83,-77.02"/>
</g>
<!-- Node3&#45;&gt;Node6 -->
<g id="edge5" class="edge">
<title>Node3&#45;&gt;Node6</title>
<path fill="none" stroke="#63b8ff" d="M146.16,-109.75C150.66,-102.73 157.14,-92.64 162.76,-83.87"/>
<polygon fill="#63b8ff" stroke="#63b8ff" points="165.54,-86.02 168,-75.72 159.65,-82.24 165.54,-86.02"/>
</g>
<!-- Node5 -->
<g id="node5" class="node">
<title>Node5</title>
<g id="a_node5"><a xlink:title=" ">
<polygon fill="#e0e0e0" stroke="#999999" points="73.55,-19 21.55,-19 21.55,0 73.55,0 73.55,-19"/>
<text text-anchor="middle" x="47.55" y="-7" font-family="Helvetica,sans-Serif" font-size="10.00">ostream</text>
</a>
</g>
</g>
<!-- Node4&#45;&gt;Node5 -->
<g id="edge4" class="edge">
<title>Node4&#45;&gt;Node5</title>
<path fill="none" stroke="#63b8ff" d="M47.55,-54.75C47.55,-48.27 47.55,-39.16 47.55,-30.9"/>
<polygon fill="#63b8ff" stroke="#63b8ff" points="51.05,-30.96 47.55,-20.96 44.05,-30.96 51.05,-30.96"/>
</g>
<!-- Node7&#45;&gt;Node4 -->
<g id="edge7" class="edge">
<title>Node7&#45;&gt;Node4</title>
<path fill="none" stroke="#63b8ff" d="M47.55,-109.75C47.55,-103.27 47.55,-94.16 47.55,-85.9"/>
<polygon fill="#63b8ff" stroke="#63b8ff" points="51.05,-85.96 47.55,-75.96 44.05,-85.96 51.05,-85.96"/>
</g>
</g>
</svg>
