<?xml version="1.0" encoding="UTF-8" standalone="no"?>
<!DOCTYPE svg PUBLIC "-//W3C//DTD SVG 1.1//EN"
 "http://www.w3.org/Graphics/SVG/1.1/DTD/svg11.dtd">
<!-- Generated by graphviz version 9.0.0 (20230911.1827)
 -->
<!-- Title: lib/layer2_hmi/src/controller_factory_interface.cpp Pages: 1 -->
<svg width="352pt" height="282pt"
 viewBox="0.00 0.00 352.12 282.00" xmlns="http://www.w3.org/2000/svg" xmlns:xlink="http://www.w3.org/1999/xlink">
<g id="graph0" class="graph" transform="scale(1 1) rotate(0) translate(4 278)">
<title>lib/layer2_hmi/src/controller_factory_interface.cpp</title>
<!-- Node1 -->
<g id="Node000001" class="node">
<title>Node1</title>
<g id="a_Node000001"><a xlink:title=" ">
<polygon fill="#999999" stroke="#666666" points="192.75,-274 99.5,-274 99.5,-232.25 192.75,-232.25 192.75,-274"/>
<text text-anchor="start" x="107.5" y="-260.5" font-family="Helvetica,sans-Serif" font-size="10.00">lib/layer2_hmi/src</text>
<text text-anchor="start" x="107.5" y="-249.25" font-family="Helvetica,sans-Serif" font-size="10.00">/controller_factory</text>
<text text-anchor="middle" x="146.12" y="-238" font-family="Helvetica,sans-Serif" font-size="10.00">_interface.cpp</text>
</a>
</g>
</g>
<!-- Node2 -->
<g id="Node000002" class="node">
<title>Node2</title>
<g id="a_Node000002"><a xlink:href="controller__factory__interface_8hpp.xhtml" target="_top" xlink:title=" ">
<polygon fill="white" stroke="#666666" points="90.25,-196.25 0,-196.25 0,-165.75 90.25,-165.75 90.25,-196.25"/>
<text text-anchor="start" x="8" y="-182.75" font-family="Helvetica,sans-Serif" font-size="10.00">controller_factory</text>
<text text-anchor="middle" x="45.12" y="-171.5" font-family="Helvetica,sans-Serif" font-size="10.00">_interface.hpp</text>
</a>
</g>
</g>
<!-- Node1&#45;&gt;Node2 -->
<g id="edge1_Node000001_Node000002" class="edge">
<title>Node1&#45;&gt;Node2</title>
<g id="a_edge1_Node000001_Node000002"><a xlink:title=" ">
<path fill="none" stroke="#63b8ff" d="M116.91,-231.84C103.88,-222.79 88.53,-212.14 75.38,-203"/>
<polygon fill="#63b8ff" stroke="#63b8ff" points="77.71,-200.36 67.5,-197.53 73.72,-206.11 77.71,-200.36"/>
</a>
</g>
</g>
<!-- Node7 -->
<g id="Node000007" class="node">
<title>Node7</title>
<g id="a_Node000007"><a xlink:href="Controller_8hpp.xhtml" target="_top" xlink:title=" ">
<polygon fill="white" stroke="#666666" points="183.75,-190.62 108.5,-190.62 108.5,-171.38 183.75,-171.38 183.75,-190.62"/>
<text text-anchor="middle" x="146.12" y="-177.12" font-family="Helvetica,sans-Serif" font-size="10.00">Controller.hpp</text>
</a>
</g>
</g>
<!-- Node1&#45;&gt;Node7 -->
<g id="edge6_Node000001_Node000007" class="edge">
<title>Node1&#45;&gt;Node7</title>
<g id="a_edge6_Node000001_Node000007"><a xlink:title=" ">
<path fill="none" stroke="#63b8ff" d="M146.12,-231.84C146.12,-222.5 146.12,-211.44 146.12,-202.12"/>
<polygon fill="#63b8ff" stroke="#63b8ff" points="149.63,-202.32 146.13,-192.32 142.63,-202.32 149.63,-202.32"/>
</a>
</g>
</g>
<!-- Node9 -->
<g id="Node000009" class="node">
<title>Node9</title>
<g id="a_Node000009"><a xlink:href="keypad__factory__interface_8hpp.xhtml" target="_top" xlink:title=" ">
<polygon fill="white" stroke="#666666" points="344.12,-190.62 202.12,-190.62 202.12,-171.38 344.12,-171.38 344.12,-190.62"/>
<text text-anchor="middle" x="273.12" y="-177.12" font-family="Helvetica,sans-Serif" font-size="10.00">keypad_factory_interface.hpp</text>
</a>
</g>
</g>
<!-- Node1&#45;&gt;Node9 -->
<g id="edge12_Node000001_Node000009" class="edge">
<title>Node1&#45;&gt;Node9</title>
<g id="a_edge12_Node000001_Node000009"><a xlink:title=" ">
<path fill="none" stroke="#63b8ff" d="M182.86,-231.84C203.31,-220.55 228.3,-206.75 246.8,-196.54"/>
<polygon fill="#63b8ff" stroke="#63b8ff" points="248.47,-199.61 255.53,-191.72 245.08,-193.49 248.47,-199.61"/>
</a>
</g>
</g>
<!-- Node3 -->
<g id="Node000003" class="node">
<title>Node3</title>
<g id="a_Node000003"><a xlink:href="IController_8hpp.xhtml" target="_top" xlink:title=" ">
<polygon fill="white" stroke="#666666" points="101.25,-129.75 23,-129.75 23,-110.5 101.25,-110.5 101.25,-129.75"/>
<text text-anchor="middle" x="62.12" y="-116.25" font-family="Helvetica,sans-Serif" font-size="10.00">IController.hpp</text>
</a>
</g>
</g>
<!-- Node2&#45;&gt;Node3 -->
<g id="edge2_Node000002_Node000003" class="edge">
<title>Node2&#45;&gt;Node3</title>
<g id="a_edge2_Node000002_Node000003"><a xlink:title=" ">
<path fill="none" stroke="#63b8ff" d="M49.33,-165.45C51.44,-158.12 54.04,-149.12 56.34,-141.16"/>
<polygon fill="#63b8ff" stroke="#63b8ff" points="59.67,-142.23 59.08,-131.66 52.95,-140.29 59.67,-142.23"/>
</a>
</g>
</g>
<!-- Node4 -->
<g id="Node000004" class="node">
<title>Node4</title>
<g id="a_Node000004"><a xlink:href="KeyIds_8hpp.xhtml" target="_top" xlink:title=" ">
<polygon fill="white" stroke="#666666" points="199.12,-74.5 135.12,-74.5 135.12,-55.25 199.12,-55.25 199.12,-74.5"/>
<text text-anchor="middle" x="167.12" y="-61" font-family="Helvetica,sans-Serif" font-size="10.00">KeyIds.hpp</text>
</a>
</g>
</g>
<!-- Node3&#45;&gt;Node4 -->
<g id="edge3_Node000003_Node000004" class="edge">
<title>Node3&#45;&gt;Node4</title>
<g id="a_edge3_Node000003_Node000004"><a xlink:title=" ">
<path fill="none" stroke="#63b8ff" d="M79.94,-110.09C96.15,-101.87 120.36,-89.59 139.16,-80.06"/>
<polygon fill="#63b8ff" stroke="#63b8ff" points="140.54,-83.28 147.88,-75.64 137.37,-77.04 140.54,-83.28"/>
</a>
</g>
</g>
<!-- Node6 -->
<g id="Node000006" class="node">
<title>Node6</title>
<g id="a_Node000006"><a xlink:title=" ">
<polygon fill="#e0e0e0" stroke="#999999" points="102,-74.5 52.25,-74.5 52.25,-55.25 102,-55.25 102,-74.5"/>
<text text-anchor="middle" x="77.12" y="-61" font-family="Helvetica,sans-Serif" font-size="10.00">optional</text>
</a>
</g>
</g>
<!-- Node3&#45;&gt;Node6 -->
<g id="edge5_Node000003_Node000006" class="edge">
<title>Node3&#45;&gt;Node6</title>
<g id="a_edge5_Node000003_Node000006"><a xlink:title=" ">
<path fill="none" stroke="#63b8ff" d="M64.6,-110.33C66.48,-103.67 69.13,-94.24 71.52,-85.78"/>
<polygon fill="#63b8ff" stroke="#63b8ff" points="74.84,-86.89 74.18,-76.32 68.1,-84.99 74.84,-86.89"/>
</a>
</g>
</g>
<!-- Node5 -->
<g id="Node000005" class="node">
<title>Node5</title>
<g id="a_Node000005"><a xlink:title=" ">
<polygon fill="#e0e0e0" stroke="#999999" points="192.75,-19.25 141.5,-19.25 141.5,0 192.75,0 192.75,-19.25"/>
<text text-anchor="middle" x="167.12" y="-5.75" font-family="Helvetica,sans-Serif" font-size="10.00">ostream</text>
</a>
</g>
</g>
<!-- Node4&#45;&gt;Node5 -->
<g id="edge4_Node000004_Node000005" class="edge">
<title>Node4&#45;&gt;Node5</title>
<g id="a_edge4_Node000004_Node000005"><a xlink:title=" ">
<path fill="none" stroke="#63b8ff" d="M167.12,-55.08C167.12,-48.57 167.12,-39.42 167.12,-31.12"/>
<polygon fill="#63b8ff" stroke="#63b8ff" points="170.63,-31.12 167.13,-21.12 163.63,-31.12 170.63,-31.12"/>
</a>
</g>
</g>
<!-- Node7&#45;&gt;Node3 -->
<g id="edge7_Node000007_Node000003" class="edge">
<title>Node7&#45;&gt;Node3</title>
<g id="a_edge7_Node000007_Node000003"><a xlink:title=" ">
<path fill="none" stroke="#63b8ff" d="M133.37,-171.06C120.29,-161.89 99.71,-147.47 84.03,-136.48"/>
<polygon fill="#63b8ff" stroke="#63b8ff" points="86.44,-133.89 76.24,-131.02 82.42,-139.63 86.44,-133.89"/>
</a>
</g>
</g>
<!-- Node7&#45;&gt;Node4 -->
<g id="edge10_Node000007_Node000004" class="edge">
<title>Node7&#45;&gt;Node4</title>
<g id="a_edge10_Node000007_Node000004"><a xlink:title=" ">
<path fill="none" stroke="#63b8ff" d="M147.77,-171.04C151.13,-152.79 158.84,-110.91 163.45,-85.85"/>
<polygon fill="#63b8ff" stroke="#63b8ff" points="166.84,-86.75 165.21,-76.28 159.96,-85.48 166.84,-86.75"/>
</a>
</g>
</g>
<!-- Node7&#45;&gt;Node6 -->
<g id="edge11_Node000007_Node000006" class="edge">
<title>Node7&#45;&gt;Node6</title>
<g id="a_edge11_Node000007_Node000006"><a xlink:title=" ">
<path fill="none" stroke="#63b8ff" d="M142.12,-171.2C135.88,-157.76 123.21,-131.49 110.12,-110.5 104.46,-101.42 97.5,-91.81 91.43,-83.85"/>
<polygon fill="#63b8ff" stroke="#63b8ff" points="94.23,-81.74 85.32,-76 88.7,-86.04 94.23,-81.74"/>
</a>
</g>
</g>
<!-- Node8 -->
<g id="Node000008" class="node">
<title>Node8</title>
<g id="a_Node000008"><a xlink:href="IKeypad_8hpp.xhtml" target="_top" xlink:title=" ">
<polygon fill="white" stroke="#666666" points="264.75,-129.75 195.5,-129.75 195.5,-110.5 264.75,-110.5 264.75,-129.75"/>
<text text-anchor="middle" x="230.12" y="-116.25" font-family="Helvetica,sans-Serif" font-size="10.00">IKeypad.hpp</text>
</a>
</g>
</g>
<!-- Node7&#45;&gt;Node8 -->
<g id="edge8_Node000007_Node000008" class="edge">
<title>Node7&#45;&gt;Node8</title>
<g id="a_edge8_Node000007_Node000008"><a xlink:title=" ">
<path fill="none" stroke="#63b8ff" d="M158.88,-171.06C171.96,-161.89 192.54,-147.47 208.22,-136.48"/>
<polygon fill="#63b8ff" stroke="#63b8ff" points="209.83,-139.63 216.01,-131.02 205.81,-133.89 209.83,-139.63"/>
</a>
</g>
</g>
<!-- Node8&#45;&gt;Node4 -->
<g id="edge9_Node000008_Node000004" class="edge">
<title>Node8&#45;&gt;Node4</title>
<g id="a_edge9_Node000008_Node000004"><a xlink:title=" ">
<path fill="none" stroke="#63b8ff" d="M219.44,-110.09C210.42,-102.47 197.29,-91.37 186.44,-82.2"/>
<polygon fill="#63b8ff" stroke="#63b8ff" points="188.71,-79.53 178.81,-75.75 184.19,-84.88 188.71,-79.53"/>
</a>
</g>
</g>
<!-- Node9&#45;&gt;Node8 -->
<g id="edge13_Node000009_Node000008" class="edge">
<title>Node9&#45;&gt;Node8</title>
<g id="a_edge13_Node000009_Node000008"><a xlink:title=" ">
<path fill="none" stroke="#63b8ff" d="M266.59,-171.06C260.47,-162.67 251.13,-149.88 243.43,-139.34"/>
<polygon fill="#63b8ff" stroke="#63b8ff" points="246.33,-137.38 237.61,-131.37 240.68,-141.51 246.33,-137.38"/>
</a>
</g>
</g>
</g>
</svg>
