<?xml version="1.0" encoding="UTF-8" standalone="no"?>
<!DOCTYPE svg PUBLIC "-//W3C//DTD SVG 1.1//EN"
 "http://www.w3.org/Graphics/SVG/1.1/DTD/svg11.dtd">
<!-- Generated by graphviz version 7.0.5 (20221223.1930)
 -->
<!-- Title: lib/application_business_rules/include/controller_factory_interface.hpp Pages: 1 -->
<svg width="236pt" height="126pt"
 viewBox="0.00 0.00 235.50 126.00" xmlns="http://www.w3.org/2000/svg" xmlns:xlink="http://www.w3.org/1999/xlink">
<g id="graph0" class="graph" transform="scale(1 1) rotate(0) translate(4 122)">
<title>lib/application_business_rules/include/controller_factory_interface.hpp</title>
<!-- Node1 -->
<g id="node1" class="node">
<title>Node1</title>
<g id="a_node1"><a xlink:title=" ">
<polygon fill="#999999" stroke="#666666" points="189.5,-118 69.5,-118 69.5,-77 189.5,-77 189.5,-118"/>
<text text-anchor="start" x="77.5" y="-106" font-family="Helvetica,sans-Serif" font-size="10.00">lib/application_business</text>
<text text-anchor="start" x="77.5" y="-95" font-family="Helvetica,sans-Serif" font-size="10.00">_rules/include/controller</text>
<text text-anchor="middle" x="129.5" y="-84" font-family="Helvetica,sans-Serif" font-size="10.00">_factory_interface.hpp</text>
</a>
</g>
</g>
<!-- Node2 -->
<g id="node2" class="node">
<title>Node2</title>
<g id="a_node2"><a xlink:href="controller__factory__interface_8cpp.xhtml" target="_top" xlink:title=" ">
<polygon fill="white" stroke="#666666" points="137,-41 0,-41 0,0 137,0 137,-41"/>
<text text-anchor="start" x="8" y="-29" font-family="Helvetica,sans-Serif" font-size="10.00">lib/application_business</text>
<text text-anchor="start" x="8" y="-18" font-family="Helvetica,sans-Serif" font-size="10.00">_rules/src/controller_factory</text>
<text text-anchor="middle" x="68.5" y="-7" font-family="Helvetica,sans-Serif" font-size="10.00">_interface.cpp</text>
</a>
</g>
</g>
<!-- Node1&#45;&gt;Node2 -->
<g id="edge1" class="edge">
<title>Node1&#45;&gt;Node2</title>
<path fill="none" stroke="#63b8ff" d="M106.24,-67.9C99.03,-59.04 91.25,-49.47 84.63,-41.33"/>
<polygon fill="#63b8ff" stroke="#63b8ff" points="103.49,-70.07 112.52,-75.62 108.92,-65.65 103.49,-70.07"/>
</g>
<!-- Node3 -->
<g id="node3" class="node">
<title>Node3</title>
<g id="a_node3"><a xlink:href="main_8cpp.xhtml" target="_top" xlink:title=" ">
<polygon fill="white" stroke="#666666" points="227.5,-30 155.5,-30 155.5,-11 227.5,-11 227.5,-30"/>
<text text-anchor="middle" x="191.5" y="-18" font-family="Helvetica,sans-Serif" font-size="10.00">src/main.cpp</text>
</a>
</g>
</g>
<!-- Node1&#45;&gt;Node3 -->
<g id="edge2" class="edge">
<title>Node1&#45;&gt;Node3</title>
<path fill="none" stroke="#63b8ff" d="M152.86,-68.25C164.02,-54.75 176.59,-39.54 184.28,-30.24"/>
<polygon fill="#63b8ff" stroke="#63b8ff" points="150.43,-65.69 146.75,-75.63 155.82,-70.15 150.43,-65.69"/>
</g>
</g>
</svg>
