<?xml version="1.0" encoding="UTF-8" standalone="no"?>
<!DOCTYPE svg PUBLIC "-//W3C//DTD SVG 1.1//EN"
 "http://www.w3.org/Graphics/SVG/1.1/DTD/svg11.dtd">
<!-- Generated by graphviz version 9.0.0 (20230911.1827)
 -->
<!-- Title: lib/layer2_hmi/src/Controller.hpp Pages: 1 -->
<svg width="322pt" height="116pt"
 viewBox="0.00 0.00 322.12 116.25" xmlns="http://www.w3.org/2000/svg" xmlns:xlink="http://www.w3.org/1999/xlink">
<g id="graph0" class="graph" transform="scale(1 1) rotate(0) translate(4 112.25)">
<title>lib/layer2_hmi/src/Controller.hpp</title>
<!-- Node1 -->
<g id="Node000001" class="node">
<title>Node1</title>
<g id="a_Node000001"><a xlink:title=" ">
<polygon fill="#999999" stroke="#666666" points="202.75,-108.25 111,-108.25 111,-77.75 202.75,-77.75 202.75,-108.25"/>
<text text-anchor="start" x="119" y="-94.75" font-family="Helvetica,sans-Serif" font-size="10.00">lib/layer2_hmi/src</text>
<text text-anchor="middle" x="156.88" y="-83.5" font-family="Helvetica,sans-Serif" font-size="10.00">/Controller.hpp</text>
</a>
</g>
</g>
<!-- Node2 -->
<g id="Node000002" class="node">
<title>Node2</title>
<g id="a_Node000002"><a xlink:href="Controller_8cpp.xhtml" target="_top" xlink:title=" ">
<polygon fill="white" stroke="#666666" points="91.75,-36.12 0,-36.12 0,-5.62 91.75,-5.62 91.75,-36.12"/>
<text text-anchor="start" x="8" y="-22.62" font-family="Helvetica,sans-Serif" font-size="10.00">lib/layer2_hmi/src</text>
<text text-anchor="middle" x="45.88" y="-11.38" font-family="Helvetica,sans-Serif" font-size="10.00">/Controller.cpp</text>
</a>
</g>
</g>
<!-- Node1&#45;&gt;Node2 -->
<g id="edge1_Node000001_Node000002" class="edge">
<title>Node1&#45;&gt;Node2</title>
<g id="a_edge1_Node000001_Node000002"><a xlink:title=" ">
<path fill="none" stroke="#63b8ff" d="M124.22,-71.37C106.53,-60.2 85.09,-46.65 69.11,-36.56"/>
<polygon fill="#63b8ff" stroke="#63b8ff" points="122,-74.11 132.33,-76.49 125.74,-68.19 122,-74.11"/>
</a>
</g>
</g>
<!-- Node3 -->
<g id="Node000003" class="node">
<title>Node3</title>
<g id="a_Node000003"><a xlink:href="controller__factory__interface_8cpp.xhtml" target="_top" xlink:title=" ">
<polygon fill="white" stroke="#666666" points="203.5,-41.75 110.25,-41.75 110.25,0 203.5,0 203.5,-41.75"/>
<text text-anchor="start" x="118.25" y="-28.25" font-family="Helvetica,sans-Serif" font-size="10.00">lib/layer2_hmi/src</text>
<text text-anchor="start" x="118.25" y="-17" font-family="Helvetica,sans-Serif" font-size="10.00">/controller_factory</text>
<text text-anchor="middle" x="156.88" y="-5.75" font-family="Helvetica,sans-Serif" font-size="10.00">_interface.cpp</text>
</a>
</g>
</g>
<!-- Node1&#45;&gt;Node3 -->
<g id="edge2_Node000001_Node000003" class="edge">
<title>Node1&#45;&gt;Node3</title>
<g id="a_edge2_Node000001_Node000003"><a xlink:title=" ">
<path fill="none" stroke="#63b8ff" d="M156.88,-66.22C156.88,-58.31 156.88,-49.73 156.88,-42.24"/>
<polygon fill="#63b8ff" stroke="#63b8ff" points="153.38,-65.96 156.88,-75.96 160.38,-65.96 153.38,-65.96"/>
</a>
</g>
</g>
<!-- Node4 -->
<g id="Node000004" class="node">
<title>Node4</title>
<g id="a_Node000004"><a xlink:href="test__hmi_8cpp.xhtml" target="_top" xlink:title=" ">
<polygon fill="white" stroke="#666666" points="314.12,-36.12 221.62,-36.12 221.62,-5.62 314.12,-5.62 314.12,-36.12"/>
<text text-anchor="start" x="229.62" y="-22.62" font-family="Helvetica,sans-Serif" font-size="10.00">test/test_hmi/test</text>
<text text-anchor="middle" x="267.88" y="-11.38" font-family="Helvetica,sans-Serif" font-size="10.00">_hmi.cpp</text>
</a>
</g>
</g>
<!-- Node1&#45;&gt;Node4 -->
<g id="edge3_Node000001_Node000004" class="edge">
<title>Node1&#45;&gt;Node4</title>
<g id="a_edge3_Node000001_Node000004"><a xlink:title=" ">
<path fill="none" stroke="#63b8ff" d="M189.53,-71.37C207.22,-60.2 228.66,-46.65 244.64,-36.56"/>
<polygon fill="#63b8ff" stroke="#63b8ff" points="188.01,-68.19 181.42,-76.49 191.75,-74.11 188.01,-68.19"/>
</a>
</g>
</g>
</g>
</svg>
