<?xml version="1.0" encoding="UTF-8" standalone="no"?>
<!DOCTYPE svg PUBLIC "-//W3C//DTD SVG 1.1//EN"
 "http://www.w3.org/Graphics/SVG/1.1/DTD/svg11.dtd">
<!-- Generated by graphviz version 7.0.5 (20221223.1930)
 -->
<!-- Title: lib Pages: 1 -->
<svg width="397pt" height="257pt"
 viewBox="0.00 0.00 397.00 256.50" xmlns="http://www.w3.org/2000/svg" xmlns:xlink="http://www.w3.org/1999/xlink">
<g id="graph0" class="graph" transform="scale(1 1) rotate(0) translate(4 252.5)">
<title>lib</title>
<g id="clust1" class="cluster">
<title>clusterdir_97aefd0d527b934f1d99a682da8fe6a9</title>
<g id="a_clust1"><a xlink:href="dir_97aefd0d527b934f1d99a682da8fe6a9.xhtml" target="_top">
<polygon fill="#edf0f7" stroke="#404040" stroke-width="2" points="8,-8 8,-240.5 381,-240.5 381,-8 8,-8"/>
</a>
</g>
</g>
<g id="clust4" class="cluster">
<title>clusterdir_b49365647f74dff1c8dd1e88d29293e4</title>
<g id="a_clust4"><a xlink:href="dir_b49365647f74dff1c8dd1e88d29293e4.xhtml" target="_top" xlink:title="Package Board Adapters.">
<polygon fill="#c8d2e7" stroke="#404040" points="213,-82 213,-177.5 361,-177.5 361,-82 213,-82"/>
</a>
</g>
</g>
<g id="clust2" class="cluster">
<title>clusterdir_e75212beacfa7863df067e044f07f232</title>
<g id="a_clust2"><a xlink:href="dir_e75212beacfa7863df067e044f07f232.xhtml" target="_top" xlink:title="Package 3rd Party Adapters.">
<polygon fill="#c8d2e7" stroke="#404040" points="209,-197.5 209,-232.5 373,-232.5 373,-197.5 209,-197.5"/>
</a>
</g>
</g>
<g id="clust3" class="cluster">
<title>clusterdir_6dbb42d2342d9d7292a192bc1d024acc</title>
<g id="a_clust3"><a xlink:href="dir_6dbb42d2342d9d7292a192bc1d024acc.xhtml" target="_top" xlink:title="Package Application Business Rules.">
<polygon fill="#c8d2e7" stroke="#404040" points="16,-16 16,-122.5 205,-122.5 205,-16 16,-16"/>
</a>
</g>
</g>
<!-- dir_97aefd0d527b934f1d99a682da8fe6a9 -->
<g id="node1" class="node">
<title>dir_97aefd0d527b934f1d99a682da8fe6a9</title>
<text text-anchor="middle" x="161" y="-212.5" font-family="Helvetica,sans-Serif" font-size="10.00">lib</text>
</g>
<!-- dir_e75212beacfa7863df067e044f07f232 -->
<g id="node2" class="node">
<title>dir_e75212beacfa7863df067e044f07f232</title>
<text text-anchor="middle" x="315" y="-212.5" font-family="Helvetica,sans-Serif" font-size="10.00">3rd_party_adapters</text>
</g>
<!-- dir_b5cb1ba11efb8a917f62f701cc18c3ad -->
<g id="node3" class="node">
<title>dir_b5cb1ba11efb8a917f62f701cc18c3ad</title>
<g id="a_node3"><a xlink:href="dir_b5cb1ba11efb8a917f62f701cc18c3ad.xhtml" target="_top" xlink:title="src">
<polygon fill="#a2b4d6" stroke="#404040" points="247,-224.5 217,-224.5 217,-205.5 247,-205.5 247,-224.5"/>
<text text-anchor="middle" x="232" y="-212.5" font-family="Helvetica,sans-Serif" font-size="10.00">src</text>
</a>
</g>
</g>
<!-- dir_932fe8ce124fd491e58b86c0a19867e4 -->
<g id="node5" class="node">
<title>dir_932fe8ce124fd491e58b86c0a19867e4</title>
<g id="a_node5"><a xlink:href="dir_932fe8ce124fd491e58b86c0a19867e4.xhtml" target="_top" xlink:title="include">
<polygon fill="#a2b4d6" stroke="#404040" points="71.5,-109 24.5,-109 24.5,-90 71.5,-90 71.5,-109"/>
<text text-anchor="middle" x="48" y="-97" font-family="Helvetica,sans-Serif" font-size="10.00">include</text>
</a>
</g>
</g>
<!-- dir_b5cb1ba11efb8a917f62f701cc18c3ad&#45;&gt;dir_932fe8ce124fd491e58b86c0a19867e4 -->
<g id="edge3" class="edge">
<title>dir_b5cb1ba11efb8a917f62f701cc18c3ad&#45;&gt;dir_932fe8ce124fd491e58b86c0a19867e4</title>
<path fill="none" stroke="#63b8ff" d="M222.64,-205.22C219.66,-202.61 216.28,-199.82 213,-197.5 157.92,-158.52 138.44,-157.9 81,-122.5 77.55,-120.38 73.95,-118.07 70.44,-115.77"/>
<polygon fill="#63b8ff" stroke="#63b8ff" points="72.55,-112.97 62.29,-110.34 68.67,-118.79 72.55,-112.97"/>
<g id="a_edge3&#45;headlabel"><a xlink:href="dir_000010_000007.xhtml" target="_top" xlink:title="4">
<text text-anchor="middle" x="75.86" y="-109.26" font-family="Helvetica,sans-Serif" font-size="10.00" fill="#63b8ff">4</text>
</a>
</g>
</g>
<!-- dir_6f5baad296e1747fe62cc418affea6db -->
<g id="node8" class="node">
<title>dir_6f5baad296e1747fe62cc418affea6db</title>
<g id="a_node8"><a xlink:href="dir_6f5baad296e1747fe62cc418affea6db.xhtml" target="_top" xlink:title="include">
<polygon fill="#a2b4d6" stroke="#404040" points="310.5,-109 263.5,-109 263.5,-90 310.5,-90 310.5,-109"/>
<text text-anchor="middle" x="287" y="-97" font-family="Helvetica,sans-Serif" font-size="10.00">include</text>
</a>
</g>
</g>
<!-- dir_b5cb1ba11efb8a917f62f701cc18c3ad&#45;&gt;dir_6f5baad296e1747fe62cc418affea6db -->
<g id="edge1" class="edge">
<title>dir_b5cb1ba11efb8a917f62f701cc18c3ad&#45;&gt;dir_6f5baad296e1747fe62cc418affea6db</title>
<path fill="none" stroke="#63b8ff" d="M243.17,-205.27C247.31,-202.4 252.18,-199.46 257,-197.5 301.01,-179.62 331.71,-214.1 362,-177.5 381.39,-154.07 345.69,-129.26 317.19,-114.33"/>
<polygon fill="#63b8ff" stroke="#63b8ff" points="318.99,-111.32 308.48,-109.97 315.86,-117.58 318.99,-111.32"/>
<g id="a_edge1&#45;headlabel"><a xlink:href="dir_000010_000008.xhtml" target="_top" xlink:title="1">
<text text-anchor="middle" x="322.12" y="-107.21" font-family="Helvetica,sans-Serif" font-size="10.00" fill="#63b8ff">1</text>
</a>
</g>
</g>
<!-- dir_7f49939d24979e82cbd0609955c19b57 -->
<g id="node9" class="node">
<title>dir_7f49939d24979e82cbd0609955c19b57</title>
<g id="a_node9"><a xlink:href="dir_7f49939d24979e82cbd0609955c19b57.xhtml" target="_top" xlink:title="src">
<polygon fill="#a2b4d6" stroke="#404040" points="251,-169.5 221,-169.5 221,-150.5 251,-150.5 251,-169.5"/>
<text text-anchor="middle" x="236" y="-157.5" font-family="Helvetica,sans-Serif" font-size="10.00">src</text>
</a>
</g>
</g>
<!-- dir_b5cb1ba11efb8a917f62f701cc18c3ad&#45;&gt;dir_7f49939d24979e82cbd0609955c19b57 -->
<g id="edge2" class="edge">
<title>dir_b5cb1ba11efb8a917f62f701cc18c3ad&#45;&gt;dir_7f49939d24979e82cbd0609955c19b57</title>
<path fill="none" stroke="#63b8ff" d="M232.66,-205.25C233.15,-198.77 233.84,-189.66 234.46,-181.4"/>
<polygon fill="#63b8ff" stroke="#63b8ff" points="237.95,-181.69 235.21,-171.45 230.97,-181.16 237.95,-181.69"/>
<g id="a_edge2&#45;headlabel"><a xlink:href="dir_000010_000012.xhtml" target="_top" xlink:title="1">
<text text-anchor="middle" x="240.62" y="-181.48" font-family="Helvetica,sans-Serif" font-size="10.00" fill="#63b8ff">1</text>
</a>
</g>
</g>
<!-- dir_6dbb42d2342d9d7292a192bc1d024acc -->
<g id="node4" class="node">
<title>dir_6dbb42d2342d9d7292a192bc1d024acc</title>
<text text-anchor="start" x="97.5" y="-102.5" font-family="Helvetica,sans-Serif" font-size="10.00">application_business</text>
<text text-anchor="middle" x="143" y="-91.5" font-family="Helvetica,sans-Serif" font-size="10.00">_rules</text>
</g>
<!-- dir_0464404e99892fac2d89b16bbf2dbee3 -->
<g id="node6" class="node">
<title>dir_0464404e99892fac2d89b16bbf2dbee3</title>
<g id="a_node6"><a xlink:href="dir_0464404e99892fac2d89b16bbf2dbee3.xhtml" target="_top" xlink:title="src">
<polygon fill="#a2b4d6" stroke="#404040" points="63,-43 33,-43 33,-24 63,-24 63,-43"/>
<text text-anchor="middle" x="48" y="-31" font-family="Helvetica,sans-Serif" font-size="10.00">src</text>
</a>
</g>
</g>
<!-- dir_932fe8ce124fd491e58b86c0a19867e4&#45;&gt;dir_0464404e99892fac2d89b16bbf2dbee3 -->
<g id="edge4" class="edge">
<title>dir_932fe8ce124fd491e58b86c0a19867e4&#45;&gt;dir_0464404e99892fac2d89b16bbf2dbee3</title>
<path fill="none" stroke="#63b8ff" d="M43.16,-89.6C41.29,-80.62 40.79,-66.45 41.67,-54.72"/>
<polygon fill="#63b8ff" stroke="#63b8ff" points="45.14,-55.19 42.97,-44.82 38.2,-54.28 45.14,-55.19"/>
<g id="a_edge4&#45;headlabel"><a xlink:href="dir_000007_000011.xhtml" target="_top" xlink:title="1">
<text text-anchor="middle" x="47.69" y="-55.13" font-family="Helvetica,sans-Serif" font-size="10.00" fill="#63b8ff">1</text>
</a>
</g>
</g>
<!-- dir_71046b38222792489c3876836d4fbdbc -->
<g id="node10" class="node">
<title>dir_71046b38222792489c3876836d4fbdbc</title>
<g id="a_node10"><a xlink:href="dir_71046b38222792489c3876836d4fbdbc.xhtml" target="_top" xlink:title="Package Enterprise Business Rules.">
<polygon fill="#c8d2e7" stroke="#404040" points="317,-48.5 213,-48.5 213,-18.5 317,-18.5 317,-48.5"/>
<text text-anchor="start" x="221" y="-36.5" font-family="Helvetica,sans-Serif" font-size="10.00">enterprise_business</text>
<text text-anchor="middle" x="265" y="-25.5" font-family="Helvetica,sans-Serif" font-size="10.00">_rules</text>
</a>
</g>
</g>
<!-- dir_932fe8ce124fd491e58b86c0a19867e4&#45;&gt;dir_71046b38222792489c3876836d4fbdbc -->
<g id="edge5" class="edge">
<title>dir_932fe8ce124fd491e58b86c0a19867e4&#45;&gt;dir_71046b38222792489c3876836d4fbdbc</title>
<path fill="none" stroke="#63b8ff" d="M64.15,-89.58C69.41,-86.9 75.36,-84.11 81,-82 86.88,-79.8 150.91,-63.4 201.8,-50.48"/>
<polygon fill="#63b8ff" stroke="#63b8ff" points="202.47,-53.92 211.3,-48.07 200.74,-47.14 202.47,-53.92"/>
<g id="a_edge5&#45;headlabel"><a xlink:href="dir_000007_000005.xhtml" target="_top" xlink:title="1">
<text text-anchor="middle" x="201.15" y="-54.68" font-family="Helvetica,sans-Serif" font-size="10.00" fill="#63b8ff">1</text>
</a>
</g>
</g>
<!-- dir_0464404e99892fac2d89b16bbf2dbee3&#45;&gt;dir_932fe8ce124fd491e58b86c0a19867e4 -->
<g id="edge6" class="edge">
<title>dir_0464404e99892fac2d89b16bbf2dbee3&#45;&gt;dir_932fe8ce124fd491e58b86c0a19867e4</title>
<path fill="none" stroke="#63b8ff" d="M52.83,-43.32C54.73,-52.37 55.22,-66.74 54.31,-78.55"/>
<polygon fill="#63b8ff" stroke="#63b8ff" points="50.88,-77.73 53.04,-88.1 57.82,-78.65 50.88,-77.73"/>
<g id="a_edge6&#45;headlabel"><a xlink:href="dir_000011_000007.xhtml" target="_top" xlink:title="10">
<text text-anchor="middle" x="48.34" y="-72.79" font-family="Helvetica,sans-Serif" font-size="10.00" fill="#63b8ff">10</text>
</a>
</g>
</g>
<!-- dir_b49365647f74dff1c8dd1e88d29293e4 -->
<g id="node7" class="node">
<title>dir_b49365647f74dff1c8dd1e88d29293e4</title>
<text text-anchor="middle" x="311" y="-157.5" font-family="Helvetica,sans-Serif" font-size="10.00">board_adapters</text>
</g>
<!-- dir_7f49939d24979e82cbd0609955c19b57&#45;&gt;dir_932fe8ce124fd491e58b86c0a19867e4 -->
<g id="edge8" class="edge">
<title>dir_7f49939d24979e82cbd0609955c19b57&#45;&gt;dir_932fe8ce124fd491e58b86c0a19867e4</title>
<path fill="none" stroke="#63b8ff" d="M220.91,-157.26C192.53,-153.6 129.69,-143.64 81,-122.5 76.72,-120.64 72.39,-118.22 68.34,-115.67"/>
<polygon fill="#63b8ff" stroke="#63b8ff" points="70.51,-112.91 60.28,-110.16 66.55,-118.69 70.51,-112.91"/>
<g id="a_edge8&#45;headlabel"><a xlink:href="dir_000012_000007.xhtml" target="_top" xlink:title="4">
<text text-anchor="middle" x="73.83" y="-109.25" font-family="Helvetica,sans-Serif" font-size="10.00" fill="#63b8ff">4</text>
</a>
</g>
</g>
<!-- dir_7f49939d24979e82cbd0609955c19b57&#45;&gt;dir_6f5baad296e1747fe62cc418affea6db -->
<g id="edge7" class="edge">
<title>dir_7f49939d24979e82cbd0609955c19b57&#45;&gt;dir_6f5baad296e1747fe62cc418affea6db</title>
<path fill="none" stroke="#63b8ff" d="M243.53,-150.37C250.98,-141.81 262.61,-128.47 271.97,-117.74"/>
<polygon fill="#63b8ff" stroke="#63b8ff" points="274.52,-120.15 278.45,-110.31 269.24,-115.55 274.52,-120.15"/>
<g id="a_edge7&#45;headlabel"><a xlink:href="dir_000012_000008.xhtml" target="_top" xlink:title="2">
<text text-anchor="middle" x="275.29" y="-121.08" font-family="Helvetica,sans-Serif" font-size="10.00" fill="#63b8ff">2</text>
</a>
</g>
</g>
<!-- dir_39f7659512e965af922d437530a62078 -->
<g id="node11" class="node">
<title>dir_39f7659512e965af922d437530a62078</title>
<g id="a_node11"><a xlink:href="dir_39f7659512e965af922d437530a62078.xhtml" target="_top" xlink:title="tasks">
<polygon fill="#c8d2e7" stroke="#404040" points="81.5,-224.5 40.5,-224.5 40.5,-205.5 81.5,-205.5 81.5,-224.5"/>
<text text-anchor="middle" x="61" y="-212.5" font-family="Helvetica,sans-Serif" font-size="10.00">tasks</text>
</a>
</g>
</g>
</g>
</svg>
