<?xml version="1.0" encoding="UTF-8" standalone="no"?>
<!DOCTYPE svg PUBLIC "-//W3C//DTD SVG 1.1//EN"
 "http://www.w3.org/Graphics/SVG/1.1/DTD/svg11.dtd">
<!-- Generated by graphviz version 9.0.0 (20230911.1827)
 -->
<!-- Title: lib Pages: 1 -->
<svg width="549pt" height="197pt"
 viewBox="0.00 0.00 548.75 197.00" xmlns="http://www.w3.org/2000/svg" xmlns:xlink="http://www.w3.org/1999/xlink">
<g id="graph0" class="graph" transform="scale(1 1) rotate(0) translate(4 193)">
<title>lib</title>
<g id="clust1" class="cluster">
<title>clusterdir_97aefd0d527b934f1d99a682da8fe6a9</title>
<g id="a_clust1"><a xlink:href="dir_97aefd0d527b934f1d99a682da8fe6a9.xhtml" target="_top">
<polygon fill="#edf0f7" stroke="#404040" stroke-width="2" points="8,-8 8,-181 503,-181 503,-8 8,-8"/>
</a>
</g>
</g>
<g id="clust5" class="cluster">
<title>clusterdir_f26425450d9dd9fa37833a7aaddd2ab4</title>
<g id="a_clust5"><a xlink:href="dir_f26425450d9dd9fa37833a7aaddd2ab4.xhtml" target="_top">
<polygon fill="#c8d2e7" stroke="#404040" points="316,-126.5 316,-173 495,-173 495,-126.5 316,-126.5"/>
</a>
</g>
</g>
<g id="clust3" class="cluster">
<title>clusterdir_a647c64d7ac458a08d86dd39ddd46fd3</title>
<g id="a_clust3"><a xlink:href="dir_a647c64d7ac458a08d86dd39ddd46fd3.xhtml" target="_top">
<polygon fill="#c8d2e7" stroke="#404040" points="182,-71.25 182,-167.38 308,-167.38 308,-71.25 182,-71.25"/>
</a>
</g>
</g>
<g id="clust4" class="cluster">
<title>clusterdir_5c46fa0267ad0d15fb3a57afaaf550a7</title>
<g id="a_clust4"><a xlink:href="dir_5c46fa0267ad0d15fb3a57afaaf550a7.xhtml" target="_top" xlink:title="board abstraction layer">
<polygon fill="#c8d2e7" stroke="#404040" points="328,-16 328,-106.5 462,-106.5 462,-16 328,-16"/>
</a>
</g>
</g>
<g id="clust2" class="cluster">
<title>clusterdir_bc8d9efccb68c9442e5dc466270ac2ea</title>
<g id="a_clust2"><a xlink:href="dir_bc8d9efccb68c9442e5dc466270ac2ea.xhtml" target="_top">
<polygon fill="#c8d2e7" stroke="#404040" points="16,-16 16,-106.5 174,-106.5 174,-16 16,-16"/>
</a>
</g>
</g>
<!-- dir_97aefd0d527b934f1d99a682da8fe6a9 -->
<g id="node1" class="node">
<title>dir_97aefd0d527b934f1d99a682da8fe6a9</title>
<text text-anchor="middle" x="94" y="-145.88" font-family="Helvetica,sans-Serif" font-size="10.00">lib</text>
</g>
<!-- dir_bc8d9efccb68c9442e5dc466270ac2ea -->
<g id="node2" class="node">
<title>dir_bc8d9efccb68c9442e5dc466270ac2ea</title>
<text text-anchor="middle" x="119" y="-85" font-family="Helvetica,sans-Serif" font-size="10.00">layer1_use_cases</text>
</g>
<!-- dir_e00cb76f2f7b7cac5e74a789c47d6ea8 -->
<g id="node3" class="node">
<title>dir_e00cb76f2f7b7cac5e74a789c47d6ea8</title>
<g id="a_node3"><a xlink:href="dir_e00cb76f2f7b7cac5e74a789c47d6ea8.xhtml" target="_top" xlink:title="include">
<polygon fill="#a2b4d6" stroke="#404040" points="166.38,-43.25 119.62,-43.25 119.62,-24 166.38,-24 166.38,-43.25"/>
<text text-anchor="middle" x="143" y="-29.75" font-family="Helvetica,sans-Serif" font-size="10.00">include</text>
</a>
</g>
</g>
<!-- dir_2cf2900545e40fdaff2bf17f1fd3d63c -->
<g id="node4" class="node">
<title>dir_2cf2900545e40fdaff2bf17f1fd3d63c</title>
<g id="a_node4"><a xlink:href="dir_2cf2900545e40fdaff2bf17f1fd3d63c.xhtml" target="_top" xlink:title="src">
<polygon fill="#a2b4d6" stroke="#404040" points="53.75,-98.5 24.25,-98.5 24.25,-79.25 53.75,-79.25 53.75,-98.5"/>
<text text-anchor="middle" x="39" y="-85" font-family="Helvetica,sans-Serif" font-size="10.00">src</text>
</a>
</g>
</g>
<!-- dir_2cf2900545e40fdaff2bf17f1fd3d63c&#45;&gt;dir_e00cb76f2f7b7cac5e74a789c47d6ea8 -->
<g id="edge1" class="edge">
<title>dir_2cf2900545e40fdaff2bf17f1fd3d63c&#45;&gt;dir_e00cb76f2f7b7cac5e74a789c47d6ea8</title>
<g id="a_edge1"><a xlink:href="dir_000009_000001.xhtml" target="_top">
<path fill="none" stroke="#63b8ff" d="M50.94,-78.99C54.71,-76.35 58.95,-73.56 63,-71.25 78.06,-62.67 95.49,-54.51 110.22,-48.07"/>
<polygon fill="#63b8ff" stroke="#63b8ff" points="111.2,-51.46 119.01,-44.3 108.44,-45.02 111.2,-51.46"/>
</a>
</g>
<g id="a_edge1&#45;headlabel"><a xlink:href="dir_000009_000001.xhtml" target="_top" xlink:title="3">
<text text-anchor="middle" x="110.4" y="-51.01" font-family="Helvetica,sans-Serif" font-size="10.00" fill="#63b8ff">3</text>
</a>
</g>
</g>
<!-- dir_a647c64d7ac458a08d86dd39ddd46fd3 -->
<g id="node5" class="node">
<title>dir_a647c64d7ac458a08d86dd39ddd46fd3</title>
<text text-anchor="middle" x="269" y="-145.88" font-family="Helvetica,sans-Serif" font-size="10.00">layer2_hmi</text>
</g>
<!-- dir_5cc884592035fcf1f8f92921114afb76 -->
<g id="node6" class="node">
<title>dir_5cc884592035fcf1f8f92921114afb76</title>
<g id="a_node6"><a xlink:href="dir_5cc884592035fcf1f8f92921114afb76.xhtml" target="_top" xlink:title="include">
<polygon fill="#a2b4d6" stroke="#404040" points="279.38,-98.5 232.62,-98.5 232.62,-79.25 279.38,-79.25 279.38,-98.5"/>
<text text-anchor="middle" x="256" y="-85" font-family="Helvetica,sans-Serif" font-size="10.00">include</text>
</a>
</g>
</g>
<!-- dir_5cc884592035fcf1f8f92921114afb76&#45;&gt;dir_e00cb76f2f7b7cac5e74a789c47d6ea8 -->
<g id="edge2" class="edge">
<title>dir_5cc884592035fcf1f8f92921114afb76&#45;&gt;dir_e00cb76f2f7b7cac5e74a789c47d6ea8</title>
<g id="a_edge2"><a xlink:href="dir_000002_000001.xhtml" target="_top">
<path fill="none" stroke="#63b8ff" d="M236.83,-78.84C219.22,-70.54 192.84,-58.11 172.54,-48.54"/>
<polygon fill="#63b8ff" stroke="#63b8ff" points="174.17,-45.44 163.63,-44.35 171.19,-51.78 174.17,-45.44"/>
</a>
</g>
<g id="a_edge2&#45;headlabel"><a xlink:href="dir_000002_000001.xhtml" target="_top" xlink:title="1">
<text text-anchor="middle" x="177.26" y="-39.89" font-family="Helvetica,sans-Serif" font-size="10.00" fill="#63b8ff">1</text>
</a>
</g>
</g>
<!-- dir_9bd86a7a38936839c6e136efba5b5507 -->
<g id="node7" class="node">
<title>dir_9bd86a7a38936839c6e136efba5b5507</title>
<g id="a_node7"><a xlink:href="dir_9bd86a7a38936839c6e136efba5b5507.xhtml" target="_top" xlink:title="src">
<polygon fill="#a2b4d6" stroke="#404040" points="219.75,-159.38 190.25,-159.38 190.25,-140.12 219.75,-140.12 219.75,-159.38"/>
<text text-anchor="middle" x="205" y="-145.88" font-family="Helvetica,sans-Serif" font-size="10.00">src</text>
</a>
</g>
</g>
<!-- dir_9bd86a7a38936839c6e136efba5b5507&#45;&gt;dir_e00cb76f2f7b7cac5e74a789c47d6ea8 -->
<g id="edge6" class="edge">
<title>dir_9bd86a7a38936839c6e136efba5b5507&#45;&gt;dir_e00cb76f2f7b7cac5e74a789c47d6ea8</title>
<g id="a_edge6"><a xlink:href="dir_000010_000001.xhtml" target="_top">
<path fill="none" stroke="#63b8ff" d="M202.61,-139.69C198.43,-124.72 188.88,-94.22 175,-71.25 170.87,-64.42 165.43,-57.64 160.21,-51.81"/>
<polygon fill="#63b8ff" stroke="#63b8ff" points="162.85,-49.51 153.44,-44.65 157.77,-54.32 162.85,-49.51"/>
</a>
</g>
<g id="a_edge6&#45;headlabel"><a xlink:href="dir_000010_000001.xhtml" target="_top" xlink:title="5">
<text text-anchor="middle" x="166.35" y="-45.2" font-family="Helvetica,sans-Serif" font-size="10.00" fill="#63b8ff">5</text>
</a>
</g>
</g>
<!-- dir_9bd86a7a38936839c6e136efba5b5507&#45;&gt;dir_5cc884592035fcf1f8f92921114afb76 -->
<g id="edge4" class="edge">
<title>dir_9bd86a7a38936839c6e136efba5b5507&#45;&gt;dir_5cc884592035fcf1f8f92921114afb76</title>
<g id="a_edge4"><a xlink:href="dir_000010_000002.xhtml" target="_top">
<path fill="none" stroke="#63b8ff" d="M212.75,-139.81C220.16,-131.25 231.55,-118.1 240.78,-107.45"/>
<polygon fill="#63b8ff" stroke="#63b8ff" points="243.29,-109.9 247.19,-100.05 238,-105.31 243.29,-109.9"/>
</a>
</g>
<g id="a_edge4&#45;headlabel"><a xlink:href="dir_000010_000002.xhtml" target="_top" xlink:title="7">
<text text-anchor="middle" x="244.07" y="-109.45" font-family="Helvetica,sans-Serif" font-size="10.00" fill="#63b8ff">7</text>
</a>
</g>
</g>
<!-- dir_3759a663fc5d3666c52d85a4ce32d8d5 -->
<g id="node10" class="node">
<title>dir_3759a663fc5d3666c52d85a4ce32d8d5</title>
<g id="a_node10"><a xlink:href="dir_3759a663fc5d3666c52d85a4ce32d8d5.xhtml" target="_top" xlink:title="src">
<polygon fill="#a2b4d6" stroke="#404040" points="365.75,-98.5 336.25,-98.5 336.25,-79.25 365.75,-79.25 365.75,-98.5"/>
<text text-anchor="middle" x="351" y="-85" font-family="Helvetica,sans-Serif" font-size="10.00">src</text>
</a>
</g>
</g>
<!-- dir_9bd86a7a38936839c6e136efba5b5507&#45;&gt;dir_3759a663fc5d3666c52d85a4ce32d8d5 -->
<g id="edge3" class="edge">
<title>dir_9bd86a7a38936839c6e136efba5b5507&#45;&gt;dir_3759a663fc5d3666c52d85a4ce32d8d5</title>
<g id="a_edge3"><a xlink:href="dir_000010_000011.xhtml" target="_top">
<path fill="none" stroke="#63b8ff" d="M212.61,-139.76C216.97,-135.15 222.79,-129.83 229,-126.5 262.44,-108.57 275.98,-118.43 312,-106.5 316.43,-105.03 321.06,-103.27 325.52,-101.45"/>
<polygon fill="#63b8ff" stroke="#63b8ff" points="326.83,-104.7 334.65,-97.54 324.08,-98.26 326.83,-104.7"/>
</a>
</g>
<g id="a_edge3&#45;headlabel"><a xlink:href="dir_000010_000011.xhtml" target="_top" xlink:title="1">
<text text-anchor="middle" x="326.04" y="-104.25" font-family="Helvetica,sans-Serif" font-size="10.00" fill="#63b8ff">1</text>
</a>
</g>
</g>
<!-- dir_68267d1309a1af8e8297ef4c3efbcdba -->
<g id="node13" class="node">
<title>dir_68267d1309a1af8e8297ef4c3efbcdba</title>
<g id="a_node13"><a xlink:href="dir_68267d1309a1af8e8297ef4c3efbcdba.xhtml" target="_top" xlink:title="src">
<polygon fill="#edf0f7" stroke="#404040" points="540.75,-98.5 511.25,-98.5 511.25,-79.25 540.75,-79.25 540.75,-98.5"/>
<text text-anchor="middle" x="526" y="-85" font-family="Helvetica,sans-Serif" font-size="10.00">src</text>
</a>
</g>
</g>
<!-- dir_9bd86a7a38936839c6e136efba5b5507&#45;&gt;dir_68267d1309a1af8e8297ef4c3efbcdba -->
<g id="edge5" class="edge">
<title>dir_9bd86a7a38936839c6e136efba5b5507&#45;&gt;dir_68267d1309a1af8e8297ef4c3efbcdba</title>
<g id="a_edge5"><a xlink:href="dir_000010_000013.xhtml" target="_top">
<path fill="none" stroke="#63b8ff" d="M212.01,-139.83C216.35,-135 222.35,-129.44 229,-126.5 277.35,-105.15 413.97,-115.82 466,-106.5 477.29,-104.48 489.52,-101.28 499.98,-98.22"/>
<polygon fill="#63b8ff" stroke="#63b8ff" points="500.89,-101.6 509.44,-95.34 498.86,-94.91 500.89,-101.6"/>
</a>
</g>
<g id="a_edge5&#45;headlabel"><a xlink:href="dir_000010_000013.xhtml" target="_top" xlink:title="1">
<text text-anchor="middle" x="499.73" y="-101.05" font-family="Helvetica,sans-Serif" font-size="10.00" fill="#63b8ff">1</text>
</a>
</g>
</g>
<!-- dir_5c46fa0267ad0d15fb3a57afaaf550a7 -->
<g id="node8" class="node">
<title>dir_5c46fa0267ad0d15fb3a57afaaf550a7</title>
<text text-anchor="middle" x="419" y="-85" font-family="Helvetica,sans-Serif" font-size="10.00">layer3_board</text>
</g>
<!-- dir_4a59ee2936cd97636e3d6a1e10ecaf53 -->
<g id="node9" class="node">
<title>dir_4a59ee2936cd97636e3d6a1e10ecaf53</title>
<g id="a_node9"><a xlink:href="dir_4a59ee2936cd97636e3d6a1e10ecaf53.xhtml" target="_top" xlink:title="include">
<polygon fill="#a2b4d6" stroke="#404040" points="418.38,-43.25 371.62,-43.25 371.62,-24 418.38,-24 418.38,-43.25"/>
<text text-anchor="middle" x="395" y="-29.75" font-family="Helvetica,sans-Serif" font-size="10.00">include</text>
</a>
</g>
</g>
<!-- dir_3759a663fc5d3666c52d85a4ce32d8d5&#45;&gt;dir_5cc884592035fcf1f8f92921114afb76 -->
<g id="edge8" class="edge">
<title>dir_3759a663fc5d3666c52d85a4ce32d8d5&#45;&gt;dir_5cc884592035fcf1f8f92921114afb76</title>
<g id="a_edge8"><a xlink:href="dir_000011_000002.xhtml" target="_top">
<path fill="none" stroke="#63b8ff" d="M335.97,-88.88C321.04,-88.88 306.1,-88.88 291.17,-88.88"/>
<polygon fill="#63b8ff" stroke="#63b8ff" points="291.26,-85.38 281.26,-88.88 291.26,-92.38 291.26,-85.38"/>
</a>
</g>
<g id="a_edge8&#45;headlabel"><a xlink:href="dir_000011_000002.xhtml" target="_top" xlink:title="5">
<text text-anchor="middle" x="293.34" y="-78.66" font-family="Helvetica,sans-Serif" font-size="10.00" fill="#63b8ff">5</text>
</a>
</g>
</g>
<!-- dir_3759a663fc5d3666c52d85a4ce32d8d5&#45;&gt;dir_4a59ee2936cd97636e3d6a1e10ecaf53 -->
<g id="edge7" class="edge">
<title>dir_3759a663fc5d3666c52d85a4ce32d8d5&#45;&gt;dir_4a59ee2936cd97636e3d6a1e10ecaf53</title>
<g id="a_edge7"><a xlink:href="dir_000011_000003.xhtml" target="_top">
<path fill="none" stroke="#63b8ff" d="M358.27,-79.08C364.28,-71.8 373.01,-61.23 380.46,-52.23"/>
<polygon fill="#63b8ff" stroke="#63b8ff" points="382.94,-54.71 386.61,-44.78 377.54,-50.26 382.94,-54.71"/>
</a>
</g>
<g id="a_edge7&#45;headlabel"><a xlink:href="dir_000011_000003.xhtml" target="_top" xlink:title="4">
<text text-anchor="middle" x="383.8" y="-54.25" font-family="Helvetica,sans-Serif" font-size="10.00" fill="#63b8ff">4</text>
</a>
</g>
</g>
<!-- dir_f26425450d9dd9fa37833a7aaddd2ab4 -->
<g id="node11" class="node">
<title>dir_f26425450d9dd9fa37833a7aaddd2ab4</title>
<text text-anchor="start" x="379.5" y="-151.5" font-family="Helvetica,sans-Serif" font-size="10.00">layer4_drivers_libraries</text>
<text text-anchor="middle" x="429" y="-140.25" font-family="Helvetica,sans-Serif" font-size="10.00">_adapters</text>
</g>
<!-- dir_d8c8a4aa26881fe254ca2200cac73413 -->
<g id="node12" class="node">
<title>dir_d8c8a4aa26881fe254ca2200cac73413</title>
<g id="a_node12"><a xlink:href="dir_d8c8a4aa26881fe254ca2200cac73413.xhtml" target="_top" xlink:title="src">
<polygon fill="#a2b4d6" stroke="#404040" points="353.75,-159.38 324.25,-159.38 324.25,-140.12 353.75,-140.12 353.75,-159.38"/>
<text text-anchor="middle" x="339" y="-145.88" font-family="Helvetica,sans-Serif" font-size="10.00">src</text>
</a>
</g>
</g>
<!-- dir_d8c8a4aa26881fe254ca2200cac73413&#45;&gt;dir_e00cb76f2f7b7cac5e74a789c47d6ea8 -->
<g id="edge12" class="edge">
<title>dir_d8c8a4aa26881fe254ca2200cac73413&#45;&gt;dir_e00cb76f2f7b7cac5e74a789c47d6ea8</title>
<g id="a_edge12"><a xlink:href="dir_000012_000001.xhtml" target="_top">
<path fill="none" stroke="#63b8ff" d="M335.75,-139.7C332.69,-131.15 327.99,-117.97 324,-106.5 318.56,-90.87 324.35,-82.26 312,-71.25 292.5,-53.87 221.4,-43.19 177.88,-38.14"/>
<polygon fill="#63b8ff" stroke="#63b8ff" points="178.49,-34.68 168.17,-37.06 177.72,-41.64 178.49,-34.68"/>
</a>
</g>
<g id="a_edge12&#45;headlabel"><a xlink:href="dir_000012_000001.xhtml" target="_top" xlink:title="1">
<text text-anchor="middle" x="180.87" y="-28.22" font-family="Helvetica,sans-Serif" font-size="10.00" fill="#63b8ff">1</text>
</a>
</g>
</g>
<!-- dir_d8c8a4aa26881fe254ca2200cac73413&#45;&gt;dir_5cc884592035fcf1f8f92921114afb76 -->
<g id="edge11" class="edge">
<title>dir_d8c8a4aa26881fe254ca2200cac73413&#45;&gt;dir_5cc884592035fcf1f8f92921114afb76</title>
<g id="a_edge11"><a xlink:href="dir_000012_000002.xhtml" target="_top">
<path fill="none" stroke="#63b8ff" d="M328.7,-139.81C323.75,-135.63 317.68,-130.68 312,-126.5 301.86,-119.04 290.27,-111.33 280.28,-104.93"/>
<polygon fill="#63b8ff" stroke="#63b8ff" points="282.17,-101.98 271.84,-99.59 278.42,-107.9 282.17,-101.98"/>
</a>
</g>
<g id="a_edge11&#45;headlabel"><a xlink:href="dir_000012_000002.xhtml" target="_top" xlink:title="2">
<text text-anchor="middle" x="285.44" y="-96.82" font-family="Helvetica,sans-Serif" font-size="10.00" fill="#63b8ff">2</text>
</a>
</g>
</g>
<!-- dir_d8c8a4aa26881fe254ca2200cac73413&#45;&gt;dir_4a59ee2936cd97636e3d6a1e10ecaf53 -->
<g id="edge10" class="edge">
<title>dir_d8c8a4aa26881fe254ca2200cac73413&#45;&gt;dir_4a59ee2936cd97636e3d6a1e10ecaf53</title>
<g id="a_edge10"><a xlink:href="dir_000012_000003.xhtml" target="_top">
<path fill="none" stroke="#63b8ff" d="M346.56,-139.66C350.9,-135.03 356.73,-129.71 363,-126.5 403.36,-105.87 434.26,-141.55 463,-106.5 472.93,-94.38 471.03,-84.7 463,-71.25 455.53,-58.75 442.17,-50.26 429.25,-44.64"/>
<polygon fill="#63b8ff" stroke="#63b8ff" points="430.64,-41.42 420.05,-41.1 428.13,-47.96 430.64,-41.42"/>
</a>
</g>
<g id="a_edge10&#45;headlabel"><a xlink:href="dir_000012_000003.xhtml" target="_top" xlink:title="5">
<text text-anchor="middle" x="433.6" y="-35.64" font-family="Helvetica,sans-Serif" font-size="10.00" fill="#63b8ff">5</text>
</a>
</g>
</g>
<!-- dir_d8c8a4aa26881fe254ca2200cac73413&#45;&gt;dir_3759a663fc5d3666c52d85a4ce32d8d5 -->
<g id="edge9" class="edge">
<title>dir_d8c8a4aa26881fe254ca2200cac73413&#45;&gt;dir_3759a663fc5d3666c52d85a4ce32d8d5</title>
<g id="a_edge9"><a xlink:href="dir_000012_000011.xhtml" target="_top">
<path fill="none" stroke="#63b8ff" d="M340.82,-139.81C342.43,-131.94 344.82,-120.2 346.88,-110.07"/>
<polygon fill="#63b8ff" stroke="#63b8ff" points="350.29,-110.88 348.86,-100.38 343.43,-109.48 350.29,-110.88"/>
</a>
</g>
<g id="a_edge9&#45;headlabel"><a xlink:href="dir_000012_000011.xhtml" target="_top" xlink:title="1">
<text text-anchor="middle" x="352.66" y="-109.61" font-family="Helvetica,sans-Serif" font-size="10.00" fill="#63b8ff">1</text>
</a>
</g>
</g>
</g>
</svg>
