<?xml version="1.0" encoding="UTF-8" standalone="no"?>
<!DOCTYPE svg PUBLIC "-//W3C//DTD SVG 1.1//EN"
 "http://www.w3.org/Graphics/SVG/1.1/DTD/svg11.dtd">
<!-- Generated by graphviz version 7.0.5 (20221223.1930)
 -->
<!-- Title: lib Pages: 1 -->
<svg width="392pt" height="254pt"
 viewBox="0.00 0.00 392.00 254.00" xmlns="http://www.w3.org/2000/svg" xmlns:xlink="http://www.w3.org/1999/xlink">
<g id="graph0" class="graph" transform="scale(1 1) rotate(0) translate(4 250)">
<title>lib</title>
<g id="clust1" class="cluster">
<title>clusterdir_97aefd0d527b934f1d99a682da8fe6a9</title>
<g id="a_clust1"><a xlink:href="dir_97aefd0d527b934f1d99a682da8fe6a9.xhtml" target="_top">
<polygon fill="#edf0f7" stroke="#404040" stroke-width="2" points="8,-8 8,-238 376,-238 376,-8 8,-8"/>
</a>
</g>
</g>
<g id="clust4" class="cluster">
<title>clusterdir_b49365647f74dff1c8dd1e88d29293e4</title>
<g id="a_clust4"><a xlink:href="dir_b49365647f74dff1c8dd1e88d29293e4.xhtml" target="_top" xlink:title="Package Board Adapters.">
<polygon fill="#c8d2e7" stroke="#404040" points="28,-74 28,-169.5 176,-169.5 176,-74 28,-74"/>
</a>
</g>
</g>
<g id="clust2" class="cluster">
<title>clusterdir_e75212beacfa7863df067e044f07f232</title>
<g id="a_clust2"><a xlink:href="dir_e75212beacfa7863df067e044f07f232.xhtml" target="_top" xlink:title="Package 3rd Party Adapters.">
<polygon fill="#c8d2e7" stroke="#404040" points="115,-195 115,-230 279,-230 279,-195 115,-195"/>
</a>
</g>
</g>
<g id="clust3" class="cluster">
<title>clusterdir_6dbb42d2342d9d7292a192bc1d024acc</title>
<g id="a_clust3"><a xlink:href="dir_6dbb42d2342d9d7292a192bc1d024acc.xhtml" target="_top" xlink:title="Package Application Business Rules.">
<polygon fill="#c8d2e7" stroke="#404040" points="184,-74 184,-175 356,-175 356,-74 184,-74"/>
</a>
</g>
</g>
<!-- dir_97aefd0d527b934f1d99a682da8fe6a9 -->
<g id="node1" class="node">
<title>dir_97aefd0d527b934f1d99a682da8fe6a9</title>
<text text-anchor="middle" x="90" y="-210" font-family="Helvetica,sans-Serif" font-size="10.00">lib</text>
</g>
<!-- dir_e75212beacfa7863df067e044f07f232 -->
<g id="node2" class="node">
<title>dir_e75212beacfa7863df067e044f07f232</title>
<text text-anchor="middle" x="221" y="-210" font-family="Helvetica,sans-Serif" font-size="10.00">3rd_party_adapters</text>
</g>
<!-- dir_b5cb1ba11efb8a917f62f701cc18c3ad -->
<g id="node3" class="node">
<title>dir_b5cb1ba11efb8a917f62f701cc18c3ad</title>
<g id="a_node3"><a xlink:href="dir_b5cb1ba11efb8a917f62f701cc18c3ad.xhtml" target="_top" xlink:title="src">
<polygon fill="#a2b4d6" stroke="#404040" points="153,-222 123,-222 123,-203 153,-203 153,-222"/>
<text text-anchor="middle" x="138" y="-210" font-family="Helvetica,sans-Serif" font-size="10.00">src</text>
</a>
</g>
</g>
<!-- dir_932fe8ce124fd491e58b86c0a19867e4 -->
<g id="node5" class="node">
<title>dir_932fe8ce124fd491e58b86c0a19867e4</title>
<g id="a_node5"><a xlink:href="dir_932fe8ce124fd491e58b86c0a19867e4.xhtml" target="_top" xlink:title="include">
<polygon fill="#a2b4d6" stroke="#404040" points="239.5,-101 192.5,-101 192.5,-82 239.5,-82 239.5,-101"/>
<text text-anchor="middle" x="216" y="-89" font-family="Helvetica,sans-Serif" font-size="10.00">include</text>
</a>
</g>
</g>
<!-- dir_b5cb1ba11efb8a917f62f701cc18c3ad&#45;&gt;dir_932fe8ce124fd491e58b86c0a19867e4 -->
<g id="edge3" class="edge">
<title>dir_b5cb1ba11efb8a917f62f701cc18c3ad&#45;&gt;dir_932fe8ce124fd491e58b86c0a19867e4</title>
<path fill="none" stroke="#63b8ff" d="M148.59,-202.53C152.55,-199.64 157.25,-196.74 162,-195 202.89,-179.97 327.81,-207.34 357,-175 368.32,-162.46 366.98,-150.62 357,-137 332.84,-104.04 284.18,-94.86 250.85,-92.64"/>
<polygon fill="#63b8ff" stroke="#63b8ff" points="251.44,-89.16 241.28,-92.18 251.1,-96.15 251.44,-89.16"/>
<g id="a_edge3&#45;headlabel"><a xlink:href="dir_000010_000007.xhtml" target="_top" xlink:title="4">
<text text-anchor="middle" x="253.65" y="-83.92" font-family="Helvetica,sans-Serif" font-size="10.00" fill="#63b8ff">4</text>
</a>
</g>
</g>
<!-- dir_6f5baad296e1747fe62cc418affea6db -->
<g id="node8" class="node">
<title>dir_6f5baad296e1747fe62cc418affea6db</title>
<g id="a_node8"><a xlink:href="dir_6f5baad296e1747fe62cc418affea6db.xhtml" target="_top" xlink:title="include">
<polygon fill="#a2b4d6" stroke="#404040" points="83.5,-101 36.5,-101 36.5,-82 83.5,-82 83.5,-101"/>
<text text-anchor="middle" x="60" y="-89" font-family="Helvetica,sans-Serif" font-size="10.00">include</text>
</a>
</g>
</g>
<!-- dir_b5cb1ba11efb8a917f62f701cc18c3ad&#45;&gt;dir_6f5baad296e1747fe62cc418affea6db -->
<g id="edge1" class="edge">
<title>dir_b5cb1ba11efb8a917f62f701cc18c3ad&#45;&gt;dir_6f5baad296e1747fe62cc418affea6db</title>
<path fill="none" stroke="#63b8ff" d="M129.78,-202.77C126.66,-199.9 122.91,-196.96 119,-195 81.59,-176.25 53.26,-207.58 27,-175 11.26,-155.46 28.84,-127.45 43.76,-109.62"/>
<polygon fill="#63b8ff" stroke="#63b8ff" points="46.1,-112.25 50.12,-102.45 40.86,-107.6 46.1,-112.25"/>
<g id="a_edge1&#45;headlabel"><a xlink:href="dir_000010_000008.xhtml" target="_top" xlink:title="1">
<text text-anchor="middle" x="46.84" y="-113.19" font-family="Helvetica,sans-Serif" font-size="10.00" fill="#63b8ff">1</text>
</a>
</g>
</g>
<!-- dir_7f49939d24979e82cbd0609955c19b57 -->
<g id="node9" class="node">
<title>dir_7f49939d24979e82cbd0609955c19b57</title>
<g id="a_node9"><a xlink:href="dir_7f49939d24979e82cbd0609955c19b57.xhtml" target="_top" xlink:title="src">
<polygon fill="#a2b4d6" stroke="#404040" points="66,-161.5 36,-161.5 36,-142.5 66,-142.5 66,-161.5"/>
<text text-anchor="middle" x="51" y="-149.5" font-family="Helvetica,sans-Serif" font-size="10.00">src</text>
</a>
</g>
</g>
<!-- dir_b5cb1ba11efb8a917f62f701cc18c3ad&#45;&gt;dir_7f49939d24979e82cbd0609955c19b57 -->
<g id="edge2" class="edge">
<title>dir_b5cb1ba11efb8a917f62f701cc18c3ad&#45;&gt;dir_7f49939d24979e82cbd0609955c19b57</title>
<path fill="none" stroke="#63b8ff" d="M128.76,-202.54C125.79,-199.91 122.38,-197.17 119,-195 100.93,-183.39 92.92,-186.85 75,-175 72.52,-173.36 70.06,-171.47 67.69,-169.5"/>
<polygon fill="#63b8ff" stroke="#63b8ff" points="70.19,-167.04 60.45,-162.88 65.47,-172.21 70.19,-167.04"/>
<g id="a_edge2&#45;headlabel"><a xlink:href="dir_000010_000012.xhtml" target="_top" xlink:title="1">
<text text-anchor="middle" x="73.65" y="-163.85" font-family="Helvetica,sans-Serif" font-size="10.00" fill="#63b8ff">1</text>
</a>
</g>
</g>
<!-- dir_6dbb42d2342d9d7292a192bc1d024acc -->
<g id="node4" class="node">
<title>dir_6dbb42d2342d9d7292a192bc1d024acc</title>
<text text-anchor="start" x="248.5" y="-155" font-family="Helvetica,sans-Serif" font-size="10.00">application_business</text>
<text text-anchor="middle" x="294" y="-144" font-family="Helvetica,sans-Serif" font-size="10.00">_rules</text>
</g>
<!-- dir_71046b38222792489c3876836d4fbdbc -->
<g id="node10" class="node">
<title>dir_71046b38222792489c3876836d4fbdbc</title>
<g id="a_node10"><a xlink:href="dir_71046b38222792489c3876836d4fbdbc.xhtml" target="_top" xlink:title="Package Enterprise Business Rules.">
<polygon fill="#c8d2e7" stroke="#404040" points="268,-46 164,-46 164,-16 268,-16 268,-46"/>
<text text-anchor="start" x="172" y="-34" font-family="Helvetica,sans-Serif" font-size="10.00">enterprise_business</text>
<text text-anchor="middle" x="216" y="-23" font-family="Helvetica,sans-Serif" font-size="10.00">_rules</text>
</a>
</g>
</g>
<!-- dir_932fe8ce124fd491e58b86c0a19867e4&#45;&gt;dir_71046b38222792489c3876836d4fbdbc -->
<g id="edge4" class="edge">
<title>dir_932fe8ce124fd491e58b86c0a19867e4&#45;&gt;dir_71046b38222792489c3876836d4fbdbc</title>
<path fill="none" stroke="#63b8ff" d="M216,-81.87C216,-75.4 216,-66.2 216,-57.45"/>
<polygon fill="#63b8ff" stroke="#63b8ff" points="219.5,-57.63 216,-47.63 212.5,-57.63 219.5,-57.63"/>
<g id="a_edge4&#45;headlabel"><a xlink:href="dir_000007_000005.xhtml" target="_top" xlink:title="1">
<text text-anchor="middle" x="222.34" y="-57.21" font-family="Helvetica,sans-Serif" font-size="10.00" fill="#63b8ff">1</text>
</a>
</g>
</g>
<!-- dir_0464404e99892fac2d89b16bbf2dbee3 -->
<g id="node6" class="node">
<title>dir_0464404e99892fac2d89b16bbf2dbee3</title>
<g id="a_node6"><a xlink:href="dir_0464404e99892fac2d89b16bbf2dbee3.xhtml" target="_top" xlink:title="src">
<polygon fill="#a2b4d6" stroke="#404040" points="222,-161.5 192,-161.5 192,-142.5 222,-142.5 222,-161.5"/>
<text text-anchor="middle" x="207" y="-149.5" font-family="Helvetica,sans-Serif" font-size="10.00">src</text>
</a>
</g>
</g>
<!-- dir_0464404e99892fac2d89b16bbf2dbee3&#45;&gt;dir_932fe8ce124fd491e58b86c0a19867e4 -->
<g id="edge5" class="edge">
<title>dir_0464404e99892fac2d89b16bbf2dbee3&#45;&gt;dir_932fe8ce124fd491e58b86c0a19867e4</title>
<path fill="none" stroke="#63b8ff" d="M208.33,-142.37C209.54,-134.5 211.37,-122.6 212.94,-112.39"/>
<polygon fill="#63b8ff" stroke="#63b8ff" points="216.38,-113.08 214.44,-102.66 209.46,-112.01 216.38,-113.08"/>
<g id="a_edge5&#45;headlabel"><a xlink:href="dir_000011_000007.xhtml" target="_top" xlink:title="18">
<text text-anchor="middle" x="218.86" y="-113.07" font-family="Helvetica,sans-Serif" font-size="10.00" fill="#63b8ff">18</text>
</a>
</g>
</g>
<!-- dir_b49365647f74dff1c8dd1e88d29293e4 -->
<g id="node7" class="node">
<title>dir_b49365647f74dff1c8dd1e88d29293e4</title>
<text text-anchor="middle" x="126" y="-149.5" font-family="Helvetica,sans-Serif" font-size="10.00">board_adapters</text>
</g>
<!-- dir_7f49939d24979e82cbd0609955c19b57&#45;&gt;dir_932fe8ce124fd491e58b86c0a19867e4 -->
<g id="edge7" class="edge">
<title>dir_7f49939d24979e82cbd0609955c19b57&#45;&gt;dir_932fe8ce124fd491e58b86c0a19867e4</title>
<path fill="none" stroke="#63b8ff" d="M65.19,-142.02C68.35,-140.22 71.74,-138.45 75,-137 110.12,-121.45 152.36,-108.87 181.39,-101.11"/>
<polygon fill="#63b8ff" stroke="#63b8ff" points="181.96,-104.58 190.75,-98.66 180.19,-97.81 181.96,-104.58"/>
<g id="a_edge7&#45;headlabel"><a xlink:href="dir_000012_000007.xhtml" target="_top" xlink:title="4">
<text text-anchor="middle" x="180.67" y="-105.35" font-family="Helvetica,sans-Serif" font-size="10.00" fill="#63b8ff">4</text>
</a>
</g>
</g>
<!-- dir_7f49939d24979e82cbd0609955c19b57&#45;&gt;dir_6f5baad296e1747fe62cc418affea6db -->
<g id="edge6" class="edge">
<title>dir_7f49939d24979e82cbd0609955c19b57&#45;&gt;dir_6f5baad296e1747fe62cc418affea6db</title>
<path fill="none" stroke="#63b8ff" d="M52.33,-142.37C53.54,-134.5 55.37,-122.6 56.94,-112.39"/>
<polygon fill="#63b8ff" stroke="#63b8ff" points="60.38,-113.08 58.44,-102.66 53.46,-112.01 60.38,-113.08"/>
<g id="a_edge6&#45;headlabel"><a xlink:href="dir_000012_000008.xhtml" target="_top" xlink:title="2">
<text text-anchor="middle" x="62.86" y="-113.07" font-family="Helvetica,sans-Serif" font-size="10.00" fill="#63b8ff">2</text>
</a>
</g>
</g>
<!-- dir_39f7659512e965af922d437530a62078 -->
<g id="node11" class="node">
<title>dir_39f7659512e965af922d437530a62078</title>
<g id="a_node11"><a xlink:href="dir_39f7659512e965af922d437530a62078.xhtml" target="_top" xlink:title="tasks">
<polygon fill="#c8d2e7" stroke="#404040" points="57.5,-222 16.5,-222 16.5,-203 57.5,-203 57.5,-222"/>
<text text-anchor="middle" x="37" y="-210" font-family="Helvetica,sans-Serif" font-size="10.00">tasks</text>
</a>
</g>
</g>
</g>
</svg>
