<?xml version="1.0" encoding="UTF-8" standalone="no"?>
<!DOCTYPE svg PUBLIC "-//W3C//DTD SVG 1.1//EN"
 "http://www.w3.org/Graphics/SVG/1.1/DTD/svg11.dtd">
<!-- Generated by graphviz version 7.0.5 (20221223.1930)
 -->
<!-- Title: lib Pages: 1 -->
<svg width="526pt" height="202pt"
 viewBox="0.00 0.00 526.00 201.50" xmlns="http://www.w3.org/2000/svg" xmlns:xlink="http://www.w3.org/1999/xlink">
<g id="graph0" class="graph" transform="scale(1 1) rotate(0) translate(4 197.5)">
<title>lib</title>
<g id="clust1" class="cluster">
<title>clusterdir_97aefd0d527b934f1d99a682da8fe6a9</title>
<g id="a_clust1"><a xlink:href="dir_97aefd0d527b934f1d99a682da8fe6a9.xhtml" target="_top">
<polygon fill="#edf0f7" stroke="#404040" stroke-width="2" points="8,-8 8,-185.5 510,-185.5 510,-8 8,-8"/>
</a>
</g>
</g>
<g id="clust4" class="cluster">
<title>clusterdir_b49365647f74dff1c8dd1e88d29293e4</title>
<g id="a_clust4"><a xlink:href="dir_b49365647f74dff1c8dd1e88d29293e4.xhtml" target="_top" xlink:title="Package Board Adapters.">
<polygon fill="#c8d2e7" stroke="#404040" points="342,-16 342,-117 490,-117 490,-16 342,-16"/>
</a>
</g>
</g>
<g id="clust2" class="cluster">
<title>clusterdir_e75212beacfa7863df067e044f07f232</title>
<g id="a_clust2"><a xlink:href="dir_e75212beacfa7863df067e044f07f232.xhtml" target="_top" xlink:title="Package 3rd Party Adapters.">
<polygon fill="#c8d2e7" stroke="#404040" points="238,-142.5 238,-177.5 402,-177.5 402,-142.5 238,-142.5"/>
</a>
</g>
</g>
<g id="clust3" class="cluster">
<title>clusterdir_6dbb42d2342d9d7292a192bc1d024acc</title>
<g id="a_clust3"><a xlink:href="dir_6dbb42d2342d9d7292a192bc1d024acc.xhtml" target="_top" xlink:title="Package Application Business Rules.">
<polygon fill="#c8d2e7" stroke="#404040" points="128,-16 128,-122.5 300,-122.5 300,-16 128,-16"/>
</a>
</g>
</g>
<!-- dir_97aefd0d527b934f1d99a682da8fe6a9 -->
<g id="node1" class="node">
<title>dir_97aefd0d527b934f1d99a682da8fe6a9</title>
<text text-anchor="middle" x="187" y="-157.5" font-family="Helvetica,sans-Serif" font-size="10.00">lib</text>
</g>
<!-- dir_e75212beacfa7863df067e044f07f232 -->
<g id="node2" class="node">
<title>dir_e75212beacfa7863df067e044f07f232</title>
<text text-anchor="middle" x="296" y="-157.5" font-family="Helvetica,sans-Serif" font-size="10.00">3rd_party_adapters</text>
</g>
<!-- dir_932fe8ce124fd491e58b86c0a19867e4 -->
<g id="node5" class="node">
<title>dir_932fe8ce124fd491e58b86c0a19867e4</title>
<g id="a_node5"><a xlink:href="dir_932fe8ce124fd491e58b86c0a19867e4.xhtml" target="_top" xlink:title="include">
<polygon fill="#a2b4d6" stroke="#404040" points="291.5,-43 244.5,-43 244.5,-24 291.5,-24 291.5,-43"/>
<text text-anchor="middle" x="268" y="-31" font-family="Helvetica,sans-Serif" font-size="10.00">include</text>
</a>
</g>
</g>
<!-- dir_e75212beacfa7863df067e044f07f232&#45;&gt;dir_932fe8ce124fd491e58b86c0a19867e4 -->
<g id="edge1" class="edge">
<title>dir_e75212beacfa7863df067e044f07f232&#45;&gt;dir_932fe8ce124fd491e58b86c0a19867e4</title>
<path fill="none" stroke="#63b8ff" d="M298.47,-150.52C302.15,-136.46 307.93,-107.59 301,-84.5 297.44,-72.65 290.06,-61.01 283.18,-51.95"/>
<polygon fill="#63b8ff" stroke="#63b8ff" points="286.09,-49.98 277.07,-44.42 280.66,-54.39 286.09,-49.98"/>
<g id="a_edge1&#45;headlabel"><a xlink:href="dir_000000_000007.xhtml" target="_top" xlink:title="4">
<text text-anchor="middle" x="289.61" y="-47.31" font-family="Helvetica,sans-Serif" font-size="10.00" fill="#63b8ff">4</text>
</a>
</g>
</g>
<!-- dir_b5cb1ba11efb8a917f62f701cc18c3ad -->
<g id="node3" class="node">
<title>dir_b5cb1ba11efb8a917f62f701cc18c3ad</title>
<g id="a_node3"><a xlink:href="dir_b5cb1ba11efb8a917f62f701cc18c3ad.xhtml" target="_top" xlink:title="src">
<polygon fill="#a2b4d6" stroke="#404040" points="394,-169.5 364,-169.5 364,-150.5 394,-150.5 394,-169.5"/>
<text text-anchor="middle" x="379" y="-157.5" font-family="Helvetica,sans-Serif" font-size="10.00">src</text>
</a>
</g>
</g>
<!-- dir_b5cb1ba11efb8a917f62f701cc18c3ad&#45;&gt;dir_932fe8ce124fd491e58b86c0a19867e4 -->
<g id="edge4" class="edge">
<title>dir_b5cb1ba11efb8a917f62f701cc18c3ad&#45;&gt;dir_932fe8ce124fd491e58b86c0a19867e4</title>
<path fill="none" stroke="#63b8ff" d="M368.09,-150.17C359.55,-143.06 347.56,-132.61 338,-122.5 332.02,-116.17 300.37,-75.92 281.74,-52.1"/>
<polygon fill="#63b8ff" stroke="#63b8ff" points="284.73,-50.25 275.82,-44.52 279.21,-54.56 284.73,-50.25"/>
<g id="a_edge4&#45;headlabel"><a xlink:href="dir_000010_000007.xhtml" target="_top" xlink:title="2">
<text text-anchor="middle" x="288.25" y="-47.64" font-family="Helvetica,sans-Serif" font-size="10.00" fill="#63b8ff">2</text>
</a>
</g>
</g>
<!-- dir_6f5baad296e1747fe62cc418affea6db -->
<g id="node8" class="node">
<title>dir_6f5baad296e1747fe62cc418affea6db</title>
<g id="a_node8"><a xlink:href="dir_6f5baad296e1747fe62cc418affea6db.xhtml" target="_top" xlink:title="include">
<polygon fill="#a2b4d6" stroke="#404040" points="439.5,-43 392.5,-43 392.5,-24 439.5,-24 439.5,-43"/>
<text text-anchor="middle" x="416" y="-31" font-family="Helvetica,sans-Serif" font-size="10.00">include</text>
</a>
</g>
</g>
<!-- dir_b5cb1ba11efb8a917f62f701cc18c3ad&#45;&gt;dir_6f5baad296e1747fe62cc418affea6db -->
<g id="edge2" class="edge">
<title>dir_b5cb1ba11efb8a917f62f701cc18c3ad&#45;&gt;dir_6f5baad296e1747fe62cc418affea6db</title>
<path fill="none" stroke="#63b8ff" d="M394.13,-159.22C419.13,-158.66 468.53,-153.45 491,-122.5 500.92,-108.83 498.97,-99.39 491,-84.5 482.16,-67.98 465.17,-55.97 449.6,-47.87"/>
<polygon fill="#63b8ff" stroke="#63b8ff" points="451.56,-44.93 441.04,-43.76 448.54,-51.24 451.56,-44.93"/>
<g id="a_edge2&#45;headlabel"><a xlink:href="dir_000010_000008.xhtml" target="_top" xlink:title="1">
<text text-anchor="middle" x="454.67" y="-40.77" font-family="Helvetica,sans-Serif" font-size="10.00" fill="#63b8ff">1</text>
</a>
</g>
</g>
<!-- dir_7f49939d24979e82cbd0609955c19b57 -->
<g id="node9" class="node">
<title>dir_7f49939d24979e82cbd0609955c19b57</title>
<g id="a_node9"><a xlink:href="dir_7f49939d24979e82cbd0609955c19b57.xhtml" target="_top" xlink:title="src">
<polygon fill="#a2b4d6" stroke="#404040" points="380,-109 350,-109 350,-90 380,-90 380,-109"/>
<text text-anchor="middle" x="365" y="-97" font-family="Helvetica,sans-Serif" font-size="10.00">src</text>
</a>
</g>
</g>
<!-- dir_b5cb1ba11efb8a917f62f701cc18c3ad&#45;&gt;dir_7f49939d24979e82cbd0609955c19b57 -->
<g id="edge3" class="edge">
<title>dir_b5cb1ba11efb8a917f62f701cc18c3ad&#45;&gt;dir_7f49939d24979e82cbd0609955c19b57</title>
<path fill="none" stroke="#63b8ff" d="M376.93,-150.37C375.03,-142.42 372.14,-130.33 369.68,-120.05"/>
<polygon fill="#63b8ff" stroke="#63b8ff" points="373.16,-119.55 367.43,-110.64 366.35,-121.18 373.16,-119.55"/>
<g id="a_edge3&#45;headlabel"><a xlink:href="dir_000010_000012.xhtml" target="_top" xlink:title="1">
<text text-anchor="middle" x="376.4" y="-118.41" font-family="Helvetica,sans-Serif" font-size="10.00" fill="#63b8ff">1</text>
</a>
</g>
</g>
<!-- dir_6dbb42d2342d9d7292a192bc1d024acc -->
<g id="node4" class="node">
<title>dir_6dbb42d2342d9d7292a192bc1d024acc</title>
<text text-anchor="start" x="144.5" y="-102.5" font-family="Helvetica,sans-Serif" font-size="10.00">application_business</text>
<text text-anchor="middle" x="190" y="-91.5" font-family="Helvetica,sans-Serif" font-size="10.00">_rules</text>
</g>
<!-- dir_6dbb42d2342d9d7292a192bc1d024acc&#45;&gt;dir_932fe8ce124fd491e58b86c0a19867e4 -->
<g id="edge6" class="edge">
<title>dir_6dbb42d2342d9d7292a192bc1d024acc&#45;&gt;dir_932fe8ce124fd491e58b86c0a19867e4</title>
<path fill="none" stroke="#63b8ff" d="M206.92,-84.61C219.18,-74.55 235.78,-60.94 248.58,-50.44"/>
<polygon fill="#63b8ff" stroke="#63b8ff" points="250.43,-53.44 255.94,-44.39 245.99,-48.03 250.43,-53.44"/>
<g id="a_edge6&#45;headlabel"><a xlink:href="dir_000001_000007.xhtml" target="_top" xlink:title="17">
<text text-anchor="middle" x="250.62" y="-54.46" font-family="Helvetica,sans-Serif" font-size="10.00" fill="#63b8ff">17</text>
</a>
</g>
</g>
<!-- dir_71046b38222792489c3876836d4fbdbc -->
<g id="node10" class="node">
<title>dir_71046b38222792489c3876836d4fbdbc</title>
<g id="a_node10"><a xlink:href="dir_71046b38222792489c3876836d4fbdbc.xhtml" target="_top" xlink:title="Package Enterprise Business Rules.">
<polygon fill="#c8d2e7" stroke="#404040" points="120,-48.5 16,-48.5 16,-18.5 120,-18.5 120,-48.5"/>
<text text-anchor="start" x="24" y="-36.5" font-family="Helvetica,sans-Serif" font-size="10.00">enterprise_business</text>
<text text-anchor="middle" x="68" y="-25.5" font-family="Helvetica,sans-Serif" font-size="10.00">_rules</text>
</a>
</g>
</g>
<!-- dir_6dbb42d2342d9d7292a192bc1d024acc&#45;&gt;dir_71046b38222792489c3876836d4fbdbc -->
<g id="edge5" class="edge">
<title>dir_6dbb42d2342d9d7292a192bc1d024acc&#45;&gt;dir_71046b38222792489c3876836d4fbdbc</title>
<path fill="none" stroke="#63b8ff" d="M163.53,-84.61C146.5,-75.68 124.12,-63.94 105.3,-54.07"/>
<polygon fill="#63b8ff" stroke="#63b8ff" points="107.09,-51.05 96.61,-49.51 103.84,-57.25 107.09,-51.05"/>
<g id="a_edge5&#45;headlabel"><a xlink:href="dir_000001_000005.xhtml" target="_top" xlink:title="1">
<text text-anchor="middle" x="110.25" y="-47" font-family="Helvetica,sans-Serif" font-size="10.00" fill="#63b8ff">1</text>
</a>
</g>
</g>
<!-- dir_0464404e99892fac2d89b16bbf2dbee3 -->
<g id="node6" class="node">
<title>dir_0464404e99892fac2d89b16bbf2dbee3</title>
<g id="a_node6"><a xlink:href="dir_0464404e99892fac2d89b16bbf2dbee3.xhtml" target="_top" xlink:title="src">
<polygon fill="#a2b4d6" stroke="#404040" points="292,-109 262,-109 262,-90 292,-90 292,-109"/>
<text text-anchor="middle" x="277" y="-97" font-family="Helvetica,sans-Serif" font-size="10.00">src</text>
</a>
</g>
</g>
<!-- dir_0464404e99892fac2d89b16bbf2dbee3&#45;&gt;dir_932fe8ce124fd491e58b86c0a19867e4 -->
<g id="edge7" class="edge">
<title>dir_0464404e99892fac2d89b16bbf2dbee3&#45;&gt;dir_932fe8ce124fd491e58b86c0a19867e4</title>
<path fill="none" stroke="#63b8ff" d="M275.75,-89.6C274.49,-80.62 272.49,-66.45 270.84,-54.72"/>
<polygon fill="#63b8ff" stroke="#63b8ff" points="274.31,-54.24 269.45,-44.82 267.38,-55.21 274.31,-54.24"/>
<g id="a_edge7&#45;headlabel"><a xlink:href="dir_000011_000007.xhtml" target="_top" xlink:title="15">
<text text-anchor="middle" x="277.41" y="-53.4" font-family="Helvetica,sans-Serif" font-size="10.00" fill="#63b8ff">15</text>
</a>
</g>
</g>
<!-- dir_b49365647f74dff1c8dd1e88d29293e4 -->
<g id="node7" class="node">
<title>dir_b49365647f74dff1c8dd1e88d29293e4</title>
<text text-anchor="middle" x="440" y="-97" font-family="Helvetica,sans-Serif" font-size="10.00">board_adapters</text>
</g>
<!-- dir_7f49939d24979e82cbd0609955c19b57&#45;&gt;dir_932fe8ce124fd491e58b86c0a19867e4 -->
<g id="edge9" class="edge">
<title>dir_7f49939d24979e82cbd0609955c19b57&#45;&gt;dir_932fe8ce124fd491e58b86c0a19867e4</title>
<path fill="none" stroke="#63b8ff" d="M351.51,-89.6C335.8,-79.24 309.6,-61.95 290.73,-49.5"/>
<polygon fill="#63b8ff" stroke="#63b8ff" points="292.91,-46.74 282.64,-44.16 289.06,-52.59 292.91,-46.74"/>
<g id="a_edge9&#45;headlabel"><a xlink:href="dir_000012_000007.xhtml" target="_top" xlink:title="4">
<text text-anchor="middle" x="296.21" y="-43.02" font-family="Helvetica,sans-Serif" font-size="10.00" fill="#63b8ff">4</text>
</a>
</g>
</g>
<!-- dir_7f49939d24979e82cbd0609955c19b57&#45;&gt;dir_6f5baad296e1747fe62cc418affea6db -->
<g id="edge8" class="edge">
<title>dir_7f49939d24979e82cbd0609955c19b57&#45;&gt;dir_6f5baad296e1747fe62cc418affea6db</title>
<path fill="none" stroke="#63b8ff" d="M372.09,-89.6C379.78,-79.95 392.25,-64.31 401.94,-52.15"/>
<polygon fill="#63b8ff" stroke="#63b8ff" points="404.53,-54.51 408.03,-44.51 399.06,-50.15 404.53,-54.51"/>
<g id="a_edge8&#45;headlabel"><a xlink:href="dir_000012_000008.xhtml" target="_top" xlink:title="2">
<text text-anchor="middle" x="405.45" y="-55.41" font-family="Helvetica,sans-Serif" font-size="10.00" fill="#63b8ff">2</text>
</a>
</g>
</g>
<!-- dir_39f7659512e965af922d437530a62078 -->
<g id="node11" class="node">
<title>dir_39f7659512e965af922d437530a62078</title>
<g id="a_node11"><a xlink:href="dir_39f7659512e965af922d437530a62078.xhtml" target="_top" xlink:title="tasks">
<polygon fill="#c8d2e7" stroke="#404040" points="99.5,-169.5 58.5,-169.5 58.5,-150.5 99.5,-150.5 99.5,-169.5"/>
<text text-anchor="middle" x="79" y="-157.5" font-family="Helvetica,sans-Serif" font-size="10.00">tasks</text>
</a>
</g>
</g>
</g>
</svg>
