<?xml version="1.0" encoding="UTF-8" standalone="no"?>
<!DOCTYPE svg PUBLIC "-//W3C//DTD SVG 1.1//EN"
 "http://www.w3.org/Graphics/SVG/1.1/DTD/svg11.dtd">
<!-- Generated by graphviz version 9.0.0 (20230911.1827)
 -->
<!-- Title: lib Pages: 1 -->
<svg width="520pt" height="252pt"
 viewBox="0.00 0.00 520.00 252.25" xmlns="http://www.w3.org/2000/svg" xmlns:xlink="http://www.w3.org/1999/xlink">
<g id="graph0" class="graph" transform="scale(1 1) rotate(0) translate(4 248.25)">
<title>lib</title>
<g id="clust1" class="cluster">
<title>clusterdir_97aefd0d527b934f1d99a682da8fe6a9</title>
<g id="a_clust1"><a xlink:href="dir_97aefd0d527b934f1d99a682da8fe6a9.xhtml" target="_top">
<polygon fill="#edf0f7" stroke="#404040" stroke-width="2" points="8,-8 8,-236.25 504,-236.25 504,-8 8,-8"/>
</a>
</g>
</g>
<g id="clust5" class="cluster">
<title>clusterdir_f26425450d9dd9fa37833a7aaddd2ab4</title>
<g id="a_clust5"><a xlink:href="dir_f26425450d9dd9fa37833a7aaddd2ab4.xhtml" target="_top">
<polygon fill="#c8d2e7" stroke="#404040" points="317,-181.75 317,-228.25 496,-228.25 496,-181.75 317,-181.75"/>
</a>
</g>
</g>
<g id="clust3" class="cluster">
<title>clusterdir_a647c64d7ac458a08d86dd39ddd46fd3</title>
<g id="a_clust3"><a xlink:href="dir_a647c64d7ac458a08d86dd39ddd46fd3.xhtml" target="_top">
<polygon fill="#c8d2e7" stroke="#404040" points="182,-71.25 182,-161.75 308,-161.75 308,-71.25 182,-71.25"/>
</a>
</g>
</g>
<g id="clust4" class="cluster">
<title>clusterdir_5c46fa0267ad0d15fb3a57afaaf550a7</title>
<g id="a_clust4"><a xlink:href="dir_5c46fa0267ad0d15fb3a57afaaf550a7.xhtml" target="_top" xlink:title="board abstraction layer">
<polygon fill="#c8d2e7" stroke="#404040" points="330,-71.25 330,-161.75 464,-161.75 464,-71.25 330,-71.25"/>
</a>
</g>
</g>
<g id="clust2" class="cluster">
<title>clusterdir_bc8d9efccb68c9442e5dc466270ac2ea</title>
<g id="a_clust2"><a xlink:href="dir_bc8d9efccb68c9442e5dc466270ac2ea.xhtml" target="_top">
<polygon fill="#c8d2e7" stroke="#404040" points="16,-16 16,-106.5 174,-106.5 174,-16 16,-16"/>
</a>
</g>
</g>
<!-- dir_97aefd0d527b934f1d99a682da8fe6a9 -->
<g id="node1" class="node">
<title>dir_97aefd0d527b934f1d99a682da8fe6a9</title>
<text text-anchor="middle" x="162" y="-201.12" font-family="Helvetica,sans-Serif" font-size="10.00">lib</text>
</g>
<!-- dir_bc8d9efccb68c9442e5dc466270ac2ea -->
<g id="node2" class="node">
<title>dir_bc8d9efccb68c9442e5dc466270ac2ea</title>
<text text-anchor="middle" x="119" y="-85" font-family="Helvetica,sans-Serif" font-size="10.00">layer1_use_cases</text>
</g>
<!-- dir_e00cb76f2f7b7cac5e74a789c47d6ea8 -->
<g id="node3" class="node">
<title>dir_e00cb76f2f7b7cac5e74a789c47d6ea8</title>
<g id="a_node3"><a xlink:href="dir_e00cb76f2f7b7cac5e74a789c47d6ea8.xhtml" target="_top" xlink:title="include">
<polygon fill="#a2b4d6" stroke="#404040" points="166.38,-43.25 119.62,-43.25 119.62,-24 166.38,-24 166.38,-43.25"/>
<text text-anchor="middle" x="143" y="-29.75" font-family="Helvetica,sans-Serif" font-size="10.00">include</text>
</a>
</g>
</g>
<!-- dir_2cf2900545e40fdaff2bf17f1fd3d63c -->
<g id="node4" class="node">
<title>dir_2cf2900545e40fdaff2bf17f1fd3d63c</title>
<g id="a_node4"><a xlink:href="dir_2cf2900545e40fdaff2bf17f1fd3d63c.xhtml" target="_top" xlink:title="src">
<polygon fill="#a2b4d6" stroke="#404040" points="53.75,-98.5 24.25,-98.5 24.25,-79.25 53.75,-79.25 53.75,-98.5"/>
<text text-anchor="middle" x="39" y="-85" font-family="Helvetica,sans-Serif" font-size="10.00">src</text>
</a>
</g>
</g>
<!-- dir_2cf2900545e40fdaff2bf17f1fd3d63c&#45;&gt;dir_e00cb76f2f7b7cac5e74a789c47d6ea8 -->
<g id="edge1" class="edge">
<title>dir_2cf2900545e40fdaff2bf17f1fd3d63c&#45;&gt;dir_e00cb76f2f7b7cac5e74a789c47d6ea8</title>
<g id="a_edge1"><a xlink:href="dir_000009_000001.xhtml" target="_top">
<path fill="none" stroke="#63b8ff" d="M50.94,-78.99C54.71,-76.35 58.95,-73.56 63,-71.25 78.06,-62.67 95.49,-54.51 110.22,-48.07"/>
<polygon fill="#63b8ff" stroke="#63b8ff" points="111.2,-51.46 119.01,-44.3 108.44,-45.02 111.2,-51.46"/>
</a>
</g>
<g id="a_edge1&#45;headlabel"><a xlink:href="dir_000009_000001.xhtml" target="_top" xlink:title="3">
<text text-anchor="middle" x="110.4" y="-51.01" font-family="Helvetica,sans-Serif" font-size="10.00" fill="#63b8ff">3</text>
</a>
</g>
</g>
<!-- dir_a647c64d7ac458a08d86dd39ddd46fd3 -->
<g id="node5" class="node">
<title>dir_a647c64d7ac458a08d86dd39ddd46fd3</title>
<text text-anchor="middle" x="269" y="-140.25" font-family="Helvetica,sans-Serif" font-size="10.00">layer2_hmi</text>
</g>
<!-- dir_5cc884592035fcf1f8f92921114afb76 -->
<g id="node6" class="node">
<title>dir_5cc884592035fcf1f8f92921114afb76</title>
<g id="a_node6"><a xlink:href="dir_5cc884592035fcf1f8f92921114afb76.xhtml" target="_top" xlink:title="include">
<polygon fill="#a2b4d6" stroke="#404040" points="280.38,-98.5 233.62,-98.5 233.62,-79.25 280.38,-79.25 280.38,-98.5"/>
<text text-anchor="middle" x="257" y="-85" font-family="Helvetica,sans-Serif" font-size="10.00">include</text>
</a>
</g>
</g>
<!-- dir_5cc884592035fcf1f8f92921114afb76&#45;&gt;dir_e00cb76f2f7b7cac5e74a789c47d6ea8 -->
<g id="edge2" class="edge">
<title>dir_5cc884592035fcf1f8f92921114afb76&#45;&gt;dir_e00cb76f2f7b7cac5e74a789c47d6ea8</title>
<g id="a_edge2"><a xlink:href="dir_000002_000001.xhtml" target="_top">
<path fill="none" stroke="#63b8ff" d="M237.66,-78.84C219.89,-70.54 193.28,-58.11 172.8,-48.54"/>
<polygon fill="#63b8ff" stroke="#63b8ff" points="174.35,-45.4 163.8,-44.34 171.38,-51.75 174.35,-45.4"/>
</a>
</g>
<g id="a_edge2&#45;headlabel"><a xlink:href="dir_000002_000001.xhtml" target="_top" xlink:title="1">
<text text-anchor="middle" x="177.43" y="-39.84" font-family="Helvetica,sans-Serif" font-size="10.00" fill="#63b8ff">1</text>
</a>
</g>
</g>
<!-- dir_9bd86a7a38936839c6e136efba5b5507 -->
<g id="node7" class="node">
<title>dir_9bd86a7a38936839c6e136efba5b5507</title>
<g id="a_node7"><a xlink:href="dir_9bd86a7a38936839c6e136efba5b5507.xhtml" target="_top" xlink:title="src">
<polygon fill="#a2b4d6" stroke="#404040" points="219.75,-153.75 190.25,-153.75 190.25,-134.5 219.75,-134.5 219.75,-153.75"/>
<text text-anchor="middle" x="205" y="-140.25" font-family="Helvetica,sans-Serif" font-size="10.00">src</text>
</a>
</g>
</g>
<!-- dir_9bd86a7a38936839c6e136efba5b5507&#45;&gt;dir_e00cb76f2f7b7cac5e74a789c47d6ea8 -->
<g id="edge4" class="edge">
<title>dir_9bd86a7a38936839c6e136efba5b5507&#45;&gt;dir_e00cb76f2f7b7cac5e74a789c47d6ea8</title>
<g id="a_edge4"><a xlink:href="dir_000010_000001.xhtml" target="_top">
<path fill="none" stroke="#63b8ff" d="M202.34,-134.28C197.89,-120.26 188.15,-92.37 175,-71.25 170.78,-64.48 165.32,-57.71 160.1,-51.87"/>
<polygon fill="#63b8ff" stroke="#63b8ff" points="162.76,-49.59 153.36,-44.7 157.66,-54.38 162.76,-49.59"/>
</a>
</g>
<g id="a_edge4&#45;headlabel"><a xlink:href="dir_000010_000001.xhtml" target="_top" xlink:title="5">
<text text-anchor="middle" x="166.25" y="-45.29" font-family="Helvetica,sans-Serif" font-size="10.00" fill="#63b8ff">5</text>
</a>
</g>
</g>
<!-- dir_9bd86a7a38936839c6e136efba5b5507&#45;&gt;dir_5cc884592035fcf1f8f92921114afb76 -->
<g id="edge3" class="edge">
<title>dir_9bd86a7a38936839c6e136efba5b5507&#45;&gt;dir_5cc884592035fcf1f8f92921114afb76</title>
<g id="a_edge3"><a xlink:href="dir_000010_000002.xhtml" target="_top">
<path fill="none" stroke="#63b8ff" d="M213.59,-134.33C220.84,-126.9 231.45,-116.04 240.37,-106.91"/>
<polygon fill="#63b8ff" stroke="#63b8ff" points="242.69,-109.54 247.17,-99.94 237.68,-104.65 242.69,-109.54"/>
</a>
</g>
<g id="a_edge3&#45;headlabel"><a xlink:href="dir_000010_000002.xhtml" target="_top" xlink:title="7">
<text text-anchor="middle" x="243.26" y="-109.14" font-family="Helvetica,sans-Serif" font-size="10.00" fill="#63b8ff">7</text>
</a>
</g>
</g>
<!-- dir_5c46fa0267ad0d15fb3a57afaaf550a7 -->
<g id="node8" class="node">
<title>dir_5c46fa0267ad0d15fb3a57afaaf550a7</title>
<text text-anchor="middle" x="421" y="-140.25" font-family="Helvetica,sans-Serif" font-size="10.00">layer3_board</text>
</g>
<!-- dir_4a59ee2936cd97636e3d6a1e10ecaf53 -->
<g id="node9" class="node">
<title>dir_4a59ee2936cd97636e3d6a1e10ecaf53</title>
<g id="a_node9"><a xlink:href="dir_4a59ee2936cd97636e3d6a1e10ecaf53.xhtml" target="_top" xlink:title="include">
<polygon fill="#a2b4d6" stroke="#404040" points="420.38,-98.5 373.62,-98.5 373.62,-79.25 420.38,-79.25 420.38,-98.5"/>
<text text-anchor="middle" x="397" y="-85" font-family="Helvetica,sans-Serif" font-size="10.00">include</text>
</a>
</g>
</g>
<!-- dir_3759a663fc5d3666c52d85a4ce32d8d5 -->
<g id="node10" class="node">
<title>dir_3759a663fc5d3666c52d85a4ce32d8d5</title>
<g id="a_node10"><a xlink:href="dir_3759a663fc5d3666c52d85a4ce32d8d5.xhtml" target="_top" xlink:title="src">
<polygon fill="#a2b4d6" stroke="#404040" points="367.75,-153.75 338.25,-153.75 338.25,-134.5 367.75,-134.5 367.75,-153.75"/>
<text text-anchor="middle" x="353" y="-140.25" font-family="Helvetica,sans-Serif" font-size="10.00">src</text>
</a>
</g>
</g>
<!-- dir_3759a663fc5d3666c52d85a4ce32d8d5&#45;&gt;dir_5cc884592035fcf1f8f92921114afb76 -->
<g id="edge6" class="edge">
<title>dir_3759a663fc5d3666c52d85a4ce32d8d5&#45;&gt;dir_5cc884592035fcf1f8f92921114afb76</title>
<g id="a_edge6"><a xlink:href="dir_000011_000002.xhtml" target="_top">
<path fill="none" stroke="#63b8ff" d="M338,-134.8C323.28,-126.64 300.52,-114.02 282.88,-104.23"/>
<polygon fill="#63b8ff" stroke="#63b8ff" points="284.94,-101.37 274.5,-99.58 281.55,-107.49 284.94,-101.37"/>
</a>
</g>
<g id="a_edge6&#45;headlabel"><a xlink:href="dir_000011_000002.xhtml" target="_top" xlink:title="5">
<text text-anchor="middle" x="288.14" y="-96.02" font-family="Helvetica,sans-Serif" font-size="10.00" fill="#63b8ff">5</text>
</a>
</g>
</g>
<!-- dir_3759a663fc5d3666c52d85a4ce32d8d5&#45;&gt;dir_4a59ee2936cd97636e3d6a1e10ecaf53 -->
<g id="edge5" class="edge">
<title>dir_3759a663fc5d3666c52d85a4ce32d8d5&#45;&gt;dir_4a59ee2936cd97636e3d6a1e10ecaf53</title>
<g id="a_edge5"><a xlink:href="dir_000011_000003.xhtml" target="_top">
<path fill="none" stroke="#63b8ff" d="M360.27,-134.33C366.28,-127.05 375.01,-116.48 382.46,-107.48"/>
<polygon fill="#63b8ff" stroke="#63b8ff" points="384.94,-109.96 388.61,-100.03 379.54,-105.51 384.94,-109.96"/>
</a>
</g>
<g id="a_edge5&#45;headlabel"><a xlink:href="dir_000011_000003.xhtml" target="_top" xlink:title="4">
<text text-anchor="middle" x="385.8" y="-109.5" font-family="Helvetica,sans-Serif" font-size="10.00" fill="#63b8ff">4</text>
</a>
</g>
</g>
<!-- dir_f26425450d9dd9fa37833a7aaddd2ab4 -->
<g id="node11" class="node">
<title>dir_f26425450d9dd9fa37833a7aaddd2ab4</title>
<text text-anchor="start" x="380.5" y="-206.75" font-family="Helvetica,sans-Serif" font-size="10.00">layer4_drivers_libraries</text>
<text text-anchor="middle" x="430" y="-195.5" font-family="Helvetica,sans-Serif" font-size="10.00">_adapters</text>
</g>
<!-- dir_d8c8a4aa26881fe254ca2200cac73413 -->
<g id="node12" class="node">
<title>dir_d8c8a4aa26881fe254ca2200cac73413</title>
<g id="a_node12"><a xlink:href="dir_d8c8a4aa26881fe254ca2200cac73413.xhtml" target="_top" xlink:title="src">
<polygon fill="#a2b4d6" stroke="#404040" points="354.75,-214.62 325.25,-214.62 325.25,-195.38 354.75,-195.38 354.75,-214.62"/>
<text text-anchor="middle" x="340" y="-201.12" font-family="Helvetica,sans-Serif" font-size="10.00">src</text>
</a>
</g>
</g>
<!-- dir_d8c8a4aa26881fe254ca2200cac73413&#45;&gt;dir_e00cb76f2f7b7cac5e74a789c47d6ea8 -->
<g id="edge10" class="edge">
<title>dir_d8c8a4aa26881fe254ca2200cac73413&#45;&gt;dir_e00cb76f2f7b7cac5e74a789c47d6ea8</title>
<g id="a_edge10"><a xlink:href="dir_000012_000001.xhtml" target="_top">
<path fill="none" stroke="#63b8ff" d="M346.76,-195.31C350.92,-190.56 356.67,-185 363,-181.75 407.2,-159.05 441.16,-199.9 473,-161.75 484.88,-147.52 488.03,-91.96 468,-71.25 448.1,-50.68 257.9,-39.79 178.04,-36.09"/>
<polygon fill="#63b8ff" stroke="#63b8ff" points="178.31,-32.6 168.16,-35.65 177.99,-39.6 178.31,-32.6"/>
</a>
</g>
<g id="a_edge10&#45;headlabel"><a xlink:href="dir_000012_000001.xhtml" target="_top" xlink:title="1">
<text text-anchor="middle" x="180.51" y="-25.99" font-family="Helvetica,sans-Serif" font-size="10.00" fill="#63b8ff">1</text>
</a>
</g>
</g>
<!-- dir_d8c8a4aa26881fe254ca2200cac73413&#45;&gt;dir_5cc884592035fcf1f8f92921114afb76 -->
<g id="edge9" class="edge">
<title>dir_d8c8a4aa26881fe254ca2200cac73413&#45;&gt;dir_5cc884592035fcf1f8f92921114afb76</title>
<g id="a_edge9"><a xlink:href="dir_000012_000002.xhtml" target="_top">
<path fill="none" stroke="#63b8ff" d="M337.47,-195.22C333.19,-181.37 323.53,-153.99 309,-134.5 300.81,-123.51 289.46,-113.38 279.46,-105.55"/>
<polygon fill="#63b8ff" stroke="#63b8ff" points="281.74,-102.89 271.64,-99.71 277.55,-108.5 281.74,-102.89"/>
</a>
</g>
<g id="a_edge9&#45;headlabel"><a xlink:href="dir_000012_000002.xhtml" target="_top" xlink:title="2">
<text text-anchor="middle" x="285.11" y="-97.99" font-family="Helvetica,sans-Serif" font-size="10.00" fill="#63b8ff">2</text>
</a>
</g>
</g>
<!-- dir_d8c8a4aa26881fe254ca2200cac73413&#45;&gt;dir_4a59ee2936cd97636e3d6a1e10ecaf53 -->
<g id="edge8" class="edge">
<title>dir_d8c8a4aa26881fe254ca2200cac73413&#45;&gt;dir_4a59ee2936cd97636e3d6a1e10ecaf53</title>
<g id="a_edge8"><a xlink:href="dir_000012_000003.xhtml" target="_top">
<path fill="none" stroke="#63b8ff" d="M347.17,-194.9C351.31,-190.26 356.89,-184.94 363,-181.75 403.95,-160.37 435.64,-197.42 465,-161.75 482.27,-140.77 452.22,-118.27 426.75,-104.14"/>
<polygon fill="#63b8ff" stroke="#63b8ff" points="428.43,-101.07 417.96,-99.51 425.17,-107.27 428.43,-101.07"/>
</a>
</g>
<g id="a_edge8&#45;headlabel"><a xlink:href="dir_000012_000003.xhtml" target="_top" xlink:title="5">
<text text-anchor="middle" x="431.6" y="-95.66" font-family="Helvetica,sans-Serif" font-size="10.00" fill="#63b8ff">5</text>
</a>
</g>
</g>
<!-- dir_d8c8a4aa26881fe254ca2200cac73413&#45;&gt;dir_3759a663fc5d3666c52d85a4ce32d8d5 -->
<g id="edge7" class="edge">
<title>dir_d8c8a4aa26881fe254ca2200cac73413&#45;&gt;dir_3759a663fc5d3666c52d85a4ce32d8d5</title>
<g id="a_edge7"><a xlink:href="dir_000012_000011.xhtml" target="_top">
<path fill="none" stroke="#63b8ff" d="M341.97,-195.06C343.71,-187.19 346.3,-175.45 348.54,-165.32"/>
<polygon fill="#63b8ff" stroke="#63b8ff" points="351.94,-166.15 350.68,-155.63 345.11,-164.64 351.94,-166.15"/>
</a>
</g>
<g id="a_edge7&#45;headlabel"><a xlink:href="dir_000012_000011.xhtml" target="_top" xlink:title="1">
<text text-anchor="middle" x="354.27" y="-164.92" font-family="Helvetica,sans-Serif" font-size="10.00" fill="#63b8ff">1</text>
</a>
</g>
</g>
</g>
</svg>
