<?xml version="1.0" encoding="UTF-8" standalone="no"?>
<!DOCTYPE svg PUBLIC "-//W3C//DTD SVG 1.1//EN"
 "http://www.w3.org/Graphics/SVG/1.1/DTD/svg11.dtd">
<!-- Generated by graphviz version 7.0.5 (20221223.1930)
 -->
<!-- Title: lib Pages: 1 -->
<svg width="506pt" height="202pt"
 viewBox="0.00 0.00 506.00 201.50" xmlns="http://www.w3.org/2000/svg" xmlns:xlink="http://www.w3.org/1999/xlink">
<g id="graph0" class="graph" transform="scale(1 1) rotate(0) translate(4 197.5)">
<title>lib</title>
<g id="clust1" class="cluster">
<title>clusterdir_97aefd0d527b934f1d99a682da8fe6a9</title>
<g id="a_clust1"><a xlink:href="dir_97aefd0d527b934f1d99a682da8fe6a9.xhtml" target="_top">
<polygon fill="#edf0f7" stroke="#404040" stroke-width="2" points="8,-8 8,-185.5 490,-185.5 490,-8 8,-8"/>
</a>
</g>
</g>
<g id="clust4" class="cluster">
<title>clusterdir_b49365647f74dff1c8dd1e88d29293e4</title>
<g id="a_clust4"><a xlink:href="dir_b49365647f74dff1c8dd1e88d29293e4.xhtml" target="_top" xlink:title="Package Board Adapters.">
<polygon fill="#c8d2e7" stroke="#404040" points="322,-16 322,-117 470,-117 470,-16 322,-16"/>
</a>
</g>
</g>
<g id="clust2" class="cluster">
<title>clusterdir_e75212beacfa7863df067e044f07f232</title>
<g id="a_clust2"><a xlink:href="dir_e75212beacfa7863df067e044f07f232.xhtml" target="_top" xlink:title="Package 3rd Party Adapters.">
<polygon fill="#c8d2e7" stroke="#404040" points="187,-142.5 187,-177.5 351,-177.5 351,-142.5 187,-142.5"/>
</a>
</g>
</g>
<g id="clust3" class="cluster">
<title>clusterdir_6dbb42d2342d9d7292a192bc1d024acc</title>
<g id="a_clust3"><a xlink:href="dir_6dbb42d2342d9d7292a192bc1d024acc.xhtml" target="_top" xlink:title="Package Application Business Rules.">
<polygon fill="#c8d2e7" stroke="#404040" points="128,-16 128,-122.5 300,-122.5 300,-16 128,-16"/>
</a>
</g>
</g>
<!-- dir_97aefd0d527b934f1d99a682da8fe6a9 -->
<g id="node1" class="node">
<title>dir_97aefd0d527b934f1d99a682da8fe6a9</title>
<text text-anchor="middle" x="149" y="-157.5" font-family="Helvetica,sans-Serif" font-size="10.00">lib</text>
</g>
<!-- dir_e75212beacfa7863df067e044f07f232 -->
<g id="node2" class="node">
<title>dir_e75212beacfa7863df067e044f07f232</title>
<text text-anchor="middle" x="245" y="-157.5" font-family="Helvetica,sans-Serif" font-size="10.00">3rd_party_adapters</text>
</g>
<!-- dir_6dbb42d2342d9d7292a192bc1d024acc -->
<g id="node4" class="node">
<title>dir_6dbb42d2342d9d7292a192bc1d024acc</title>
<text text-anchor="start" x="144.5" y="-102.5" font-family="Helvetica,sans-Serif" font-size="10.00">application_business</text>
<text text-anchor="middle" x="190" y="-91.5" font-family="Helvetica,sans-Serif" font-size="10.00">_rules</text>
</g>
<!-- dir_e75212beacfa7863df067e044f07f232&#45;&gt;dir_6dbb42d2342d9d7292a192bc1d024acc -->
<g id="edge1" class="edge">
<title>dir_e75212beacfa7863df067e044f07f232&#45;&gt;dir_6dbb42d2342d9d7292a192bc1d024acc</title>
<path fill="none" stroke="#63b8ff" d="M237.35,-150.87C230.5,-143.58 220.14,-132.56 210.85,-122.67"/>
<polygon fill="#63b8ff" stroke="#63b8ff" points="213.51,-120.4 204.11,-115.51 208.41,-125.2 213.51,-120.4"/>
<g id="a_edge1&#45;headlabel"><a xlink:href="dir_000000_000001.xhtml" target="_top" xlink:title="4">
<text text-anchor="middle" x="217.01" y="-117.47" font-family="Helvetica,sans-Serif" font-size="10.00" fill="#63b8ff">4</text>
</a>
</g>
</g>
<!-- dir_b5cb1ba11efb8a917f62f701cc18c3ad -->
<g id="node3" class="node">
<title>dir_b5cb1ba11efb8a917f62f701cc18c3ad</title>
<g id="a_node3"><a xlink:href="dir_b5cb1ba11efb8a917f62f701cc18c3ad.xhtml" target="_top" xlink:title="src">
<polygon fill="#a2b4d6" stroke="#404040" points="343,-169.5 313,-169.5 313,-150.5 343,-150.5 343,-169.5"/>
<text text-anchor="middle" x="328" y="-157.5" font-family="Helvetica,sans-Serif" font-size="10.00">src</text>
</a>
</g>
</g>
<!-- dir_932fe8ce124fd491e58b86c0a19867e4 -->
<g id="node5" class="node">
<title>dir_932fe8ce124fd491e58b86c0a19867e4</title>
<g id="a_node5"><a xlink:href="dir_932fe8ce124fd491e58b86c0a19867e4.xhtml" target="_top" xlink:title="include">
<polygon fill="#a2b4d6" stroke="#404040" points="291.5,-43 244.5,-43 244.5,-24 291.5,-24 291.5,-43"/>
<text text-anchor="middle" x="268" y="-31" font-family="Helvetica,sans-Serif" font-size="10.00">include</text>
</a>
</g>
</g>
<!-- dir_b5cb1ba11efb8a917f62f701cc18c3ad&#45;&gt;dir_932fe8ce124fd491e58b86c0a19867e4 -->
<g id="edge4" class="edge">
<title>dir_b5cb1ba11efb8a917f62f701cc18c3ad&#45;&gt;dir_932fe8ce124fd491e58b86c0a19867e4</title>
<path fill="none" stroke="#63b8ff" d="M325.49,-150C321.34,-135.71 312.36,-107.12 301,-84.5 295.44,-73.43 287.9,-61.83 281.44,-52.59"/>
<polygon fill="#63b8ff" stroke="#63b8ff" points="284.33,-50.62 275.64,-44.55 278.65,-54.71 284.33,-50.62"/>
<g id="a_edge4&#45;headlabel"><a xlink:href="dir_000010_000007.xhtml" target="_top" xlink:title="2">
<text text-anchor="middle" x="287.85" y="-48.15" font-family="Helvetica,sans-Serif" font-size="10.00" fill="#63b8ff">2</text>
</a>
</g>
</g>
<!-- dir_6f5baad296e1747fe62cc418affea6db -->
<g id="node8" class="node">
<title>dir_6f5baad296e1747fe62cc418affea6db</title>
<g id="a_node8"><a xlink:href="dir_6f5baad296e1747fe62cc418affea6db.xhtml" target="_top" xlink:title="include">
<polygon fill="#a2b4d6" stroke="#404040" points="419.5,-43 372.5,-43 372.5,-24 419.5,-24 419.5,-43"/>
<text text-anchor="middle" x="396" y="-31" font-family="Helvetica,sans-Serif" font-size="10.00">include</text>
</a>
</g>
</g>
<!-- dir_b5cb1ba11efb8a917f62f701cc18c3ad&#45;&gt;dir_6f5baad296e1747fe62cc418affea6db -->
<g id="edge2" class="edge">
<title>dir_b5cb1ba11efb8a917f62f701cc18c3ad&#45;&gt;dir_6f5baad296e1747fe62cc418affea6db</title>
<path fill="none" stroke="#63b8ff" d="M343.28,-157.43C376.84,-153.63 455.28,-142.73 471,-122.5 481.36,-109.16 478.97,-99.39 471,-84.5 462.16,-67.98 445.17,-55.97 429.6,-47.87"/>
<polygon fill="#63b8ff" stroke="#63b8ff" points="431.56,-44.93 421.04,-43.76 428.54,-51.24 431.56,-44.93"/>
<g id="a_edge2&#45;headlabel"><a xlink:href="dir_000010_000008.xhtml" target="_top" xlink:title="1">
<text text-anchor="middle" x="434.67" y="-40.77" font-family="Helvetica,sans-Serif" font-size="10.00" fill="#63b8ff">1</text>
</a>
</g>
</g>
<!-- dir_7f49939d24979e82cbd0609955c19b57 -->
<g id="node9" class="node">
<title>dir_7f49939d24979e82cbd0609955c19b57</title>
<g id="a_node9"><a xlink:href="dir_7f49939d24979e82cbd0609955c19b57.xhtml" target="_top" xlink:title="src">
<polygon fill="#a2b4d6" stroke="#404040" points="360,-109 330,-109 330,-90 360,-90 360,-109"/>
<text text-anchor="middle" x="345" y="-97" font-family="Helvetica,sans-Serif" font-size="10.00">src</text>
</a>
</g>
</g>
<!-- dir_b5cb1ba11efb8a917f62f701cc18c3ad&#45;&gt;dir_7f49939d24979e82cbd0609955c19b57 -->
<g id="edge3" class="edge">
<title>dir_b5cb1ba11efb8a917f62f701cc18c3ad&#45;&gt;dir_7f49939d24979e82cbd0609955c19b57</title>
<path fill="none" stroke="#63b8ff" d="M330.51,-150.37C332.82,-142.42 336.33,-130.33 339.32,-120.05"/>
<polygon fill="#63b8ff" stroke="#63b8ff" points="342.63,-121.2 342.06,-110.62 335.91,-119.25 342.63,-121.2"/>
<g id="a_edge3&#45;headlabel"><a xlink:href="dir_000010_000012.xhtml" target="_top" xlink:title="1">
<text text-anchor="middle" x="344.78" y="-121.49" font-family="Helvetica,sans-Serif" font-size="10.00" fill="#63b8ff">1</text>
</a>
</g>
</g>
<!-- dir_71046b38222792489c3876836d4fbdbc -->
<g id="node10" class="node">
<title>dir_71046b38222792489c3876836d4fbdbc</title>
<g id="a_node10"><a xlink:href="dir_71046b38222792489c3876836d4fbdbc.xhtml" target="_top" xlink:title="Package Enterprise Business Rules.">
<polygon fill="#c8d2e7" stroke="#404040" points="120,-48.5 16,-48.5 16,-18.5 120,-18.5 120,-48.5"/>
<text text-anchor="start" x="24" y="-36.5" font-family="Helvetica,sans-Serif" font-size="10.00">enterprise_business</text>
<text text-anchor="middle" x="68" y="-25.5" font-family="Helvetica,sans-Serif" font-size="10.00">_rules</text>
</a>
</g>
</g>
<!-- dir_6dbb42d2342d9d7292a192bc1d024acc&#45;&gt;dir_71046b38222792489c3876836d4fbdbc -->
<g id="edge5" class="edge">
<title>dir_6dbb42d2342d9d7292a192bc1d024acc&#45;&gt;dir_71046b38222792489c3876836d4fbdbc</title>
<path fill="none" stroke="#63b8ff" d="M163.53,-84.61C146.5,-75.68 124.12,-63.94 105.3,-54.07"/>
<polygon fill="#63b8ff" stroke="#63b8ff" points="107.09,-51.05 96.61,-49.51 103.84,-57.25 107.09,-51.05"/>
<g id="a_edge5&#45;headlabel"><a xlink:href="dir_000001_000005.xhtml" target="_top" xlink:title="1">
<text text-anchor="middle" x="110.25" y="-47" font-family="Helvetica,sans-Serif" font-size="10.00" fill="#63b8ff">1</text>
</a>
</g>
</g>
<!-- dir_0464404e99892fac2d89b16bbf2dbee3 -->
<g id="node6" class="node">
<title>dir_0464404e99892fac2d89b16bbf2dbee3</title>
<g id="a_node6"><a xlink:href="dir_0464404e99892fac2d89b16bbf2dbee3.xhtml" target="_top" xlink:title="src">
<polygon fill="#a2b4d6" stroke="#404040" points="292,-109 262,-109 262,-90 292,-90 292,-109"/>
<text text-anchor="middle" x="277" y="-97" font-family="Helvetica,sans-Serif" font-size="10.00">src</text>
</a>
</g>
</g>
<!-- dir_0464404e99892fac2d89b16bbf2dbee3&#45;&gt;dir_932fe8ce124fd491e58b86c0a19867e4 -->
<g id="edge6" class="edge">
<title>dir_0464404e99892fac2d89b16bbf2dbee3&#45;&gt;dir_932fe8ce124fd491e58b86c0a19867e4</title>
<path fill="none" stroke="#63b8ff" d="M275.75,-89.6C274.49,-80.62 272.49,-66.45 270.84,-54.72"/>
<polygon fill="#63b8ff" stroke="#63b8ff" points="274.31,-54.24 269.45,-44.82 267.38,-55.21 274.31,-54.24"/>
<g id="a_edge6&#45;headlabel"><a xlink:href="dir_000011_000007.xhtml" target="_top" xlink:title="14">
<text text-anchor="middle" x="277.41" y="-53.4" font-family="Helvetica,sans-Serif" font-size="10.00" fill="#63b8ff">14</text>
</a>
</g>
</g>
<!-- dir_b49365647f74dff1c8dd1e88d29293e4 -->
<g id="node7" class="node">
<title>dir_b49365647f74dff1c8dd1e88d29293e4</title>
<text text-anchor="middle" x="420" y="-97" font-family="Helvetica,sans-Serif" font-size="10.00">board_adapters</text>
</g>
<!-- dir_7f49939d24979e82cbd0609955c19b57&#45;&gt;dir_932fe8ce124fd491e58b86c0a19867e4 -->
<g id="edge8" class="edge">
<title>dir_7f49939d24979e82cbd0609955c19b57&#45;&gt;dir_932fe8ce124fd491e58b86c0a19867e4</title>
<path fill="none" stroke="#63b8ff" d="M334.29,-89.6C322.11,-79.48 301.98,-62.74 287.09,-50.37"/>
<polygon fill="#63b8ff" stroke="#63b8ff" points="289.71,-47.99 279.78,-44.29 285.23,-53.37 289.71,-47.99"/>
<g id="a_edge8&#45;headlabel"><a xlink:href="dir_000012_000007.xhtml" target="_top" xlink:title="4">
<text text-anchor="middle" x="293.12" y="-44.64" font-family="Helvetica,sans-Serif" font-size="10.00" fill="#63b8ff">4</text>
</a>
</g>
</g>
<!-- dir_7f49939d24979e82cbd0609955c19b57&#45;&gt;dir_6f5baad296e1747fe62cc418affea6db -->
<g id="edge7" class="edge">
<title>dir_7f49939d24979e82cbd0609955c19b57&#45;&gt;dir_6f5baad296e1747fe62cc418affea6db</title>
<path fill="none" stroke="#63b8ff" d="M352.09,-89.6C359.78,-79.95 372.25,-64.31 381.94,-52.15"/>
<polygon fill="#63b8ff" stroke="#63b8ff" points="384.53,-54.51 388.03,-44.51 379.06,-50.15 384.53,-54.51"/>
<g id="a_edge7&#45;headlabel"><a xlink:href="dir_000012_000008.xhtml" target="_top" xlink:title="2">
<text text-anchor="middle" x="385.45" y="-55.41" font-family="Helvetica,sans-Serif" font-size="10.00" fill="#63b8ff">2</text>
</a>
</g>
</g>
<!-- dir_39f7659512e965af922d437530a62078 -->
<g id="node11" class="node">
<title>dir_39f7659512e965af922d437530a62078</title>
<g id="a_node11"><a xlink:href="dir_39f7659512e965af922d437530a62078.xhtml" target="_top" xlink:title="tasks">
<polygon fill="#c8d2e7" stroke="#404040" points="88.5,-169.5 47.5,-169.5 47.5,-150.5 88.5,-150.5 88.5,-169.5"/>
<text text-anchor="middle" x="68" y="-157.5" font-family="Helvetica,sans-Serif" font-size="10.00">tasks</text>
</a>
</g>
</g>
</g>
</svg>
