<?xml version="1.0" encoding="UTF-8" standalone="no"?>
<!DOCTYPE svg PUBLIC "-//W3C//DTD SVG 1.1//EN"
 "http://www.w3.org/Graphics/SVG/1.1/DTD/svg11.dtd">
<!-- Generated by graphviz version 7.0.5 (20221223.1930)
 -->
<!-- Title: lib Pages: 1 -->
<svg width="639pt" height="199pt"
 viewBox="0.00 0.00 639.00 199.00" xmlns="http://www.w3.org/2000/svg" xmlns:xlink="http://www.w3.org/1999/xlink">
<g id="graph0" class="graph" transform="scale(1 1) rotate(0) translate(4 195)">
<title>lib</title>
<g id="clust1" class="cluster">
<title>clusterdir_97aefd0d527b934f1d99a682da8fe6a9</title>
<g id="a_clust1"><a xlink:href="dir_97aefd0d527b934f1d99a682da8fe6a9.xhtml" target="_top">
<polygon fill="#edf0f7" stroke="#404040" stroke-width="2" points="8,-8 8,-183 623,-183 623,-8 8,-8"/>
</a>
</g>
</g>
<g id="clust4" class="cluster">
<title>clusterdir_b49365647f74dff1c8dd1e88d29293e4</title>
<g id="a_clust4"><a xlink:href="dir_b49365647f74dff1c8dd1e88d29293e4.xhtml" target="_top" xlink:title="Package Board Adapters.">
<polygon fill="#c8d2e7" stroke="#404040" points="467,-74 467,-169.5 615,-169.5 615,-74 467,-74"/>
</a>
</g>
</g>
<g id="clust2" class="cluster">
<title>clusterdir_e75212beacfa7863df067e044f07f232</title>
<g id="a_clust2"><a xlink:href="dir_e75212beacfa7863df067e044f07f232.xhtml" target="_top" xlink:title="Package 3rd Party Adapters.">
<polygon fill="#c8d2e7" stroke="#404040" points="295,-134.5 295,-169.5 459,-169.5 459,-134.5 295,-134.5"/>
</a>
</g>
</g>
<g id="clust3" class="cluster">
<title>clusterdir_6dbb42d2342d9d7292a192bc1d024acc</title>
<g id="a_clust3"><a xlink:href="dir_6dbb42d2342d9d7292a192bc1d024acc.xhtml" target="_top" xlink:title="Package Application Business Rules.">
<polygon fill="#c8d2e7" stroke="#404040" points="115,-74 115,-175 287,-175 287,-74 115,-74"/>
</a>
</g>
</g>
<!-- dir_97aefd0d527b934f1d99a682da8fe6a9 -->
<g id="node1" class="node">
<title>dir_97aefd0d527b934f1d99a682da8fe6a9</title>
<text text-anchor="middle" x="90" y="-149.5" font-family="Helvetica,sans-Serif" font-size="10.00">lib</text>
</g>
<!-- dir_e75212beacfa7863df067e044f07f232 -->
<g id="node2" class="node">
<title>dir_e75212beacfa7863df067e044f07f232</title>
<text text-anchor="middle" x="401" y="-149.5" font-family="Helvetica,sans-Serif" font-size="10.00">3rd_party_adapters</text>
</g>
<!-- dir_b5cb1ba11efb8a917f62f701cc18c3ad -->
<g id="node3" class="node">
<title>dir_b5cb1ba11efb8a917f62f701cc18c3ad</title>
<g id="a_node3"><a xlink:href="dir_b5cb1ba11efb8a917f62f701cc18c3ad.xhtml" target="_top" xlink:title="src">
<polygon fill="#a2b4d6" stroke="#404040" points="333,-161.5 303,-161.5 303,-142.5 333,-142.5 333,-161.5"/>
<text text-anchor="middle" x="318" y="-149.5" font-family="Helvetica,sans-Serif" font-size="10.00">src</text>
</a>
</g>
</g>
<!-- dir_932fe8ce124fd491e58b86c0a19867e4 -->
<g id="node5" class="node">
<title>dir_932fe8ce124fd491e58b86c0a19867e4</title>
<g id="a_node5"><a xlink:href="dir_932fe8ce124fd491e58b86c0a19867e4.xhtml" target="_top" xlink:title="include">
<polygon fill="#a2b4d6" stroke="#404040" points="278.5,-101 231.5,-101 231.5,-82 278.5,-82 278.5,-101"/>
<text text-anchor="middle" x="255" y="-89" font-family="Helvetica,sans-Serif" font-size="10.00">include</text>
</a>
</g>
</g>
<!-- dir_b5cb1ba11efb8a917f62f701cc18c3ad&#45;&gt;dir_932fe8ce124fd491e58b86c0a19867e4 -->
<g id="edge2" class="edge">
<title>dir_b5cb1ba11efb8a917f62f701cc18c3ad&#45;&gt;dir_932fe8ce124fd491e58b86c0a19867e4</title>
<path fill="none" stroke="#63b8ff" d="M308.43,-142.12C299,-133.35 284.35,-119.75 272.77,-109"/>
<polygon fill="#63b8ff" stroke="#63b8ff" points="275.48,-106.74 265.77,-102.5 270.71,-111.87 275.48,-106.74"/>
<g id="a_edge2&#45;headlabel"><a xlink:href="dir_000010_000007.xhtml" target="_top" xlink:title="4">
<text text-anchor="middle" x="278.93" y="-103.57" font-family="Helvetica,sans-Serif" font-size="10.00" fill="#63b8ff">4</text>
</a>
</g>
</g>
<!-- dir_6f5baad296e1747fe62cc418affea6db -->
<g id="node8" class="node">
<title>dir_6f5baad296e1747fe62cc418affea6db</title>
<g id="a_node8"><a xlink:href="dir_6f5baad296e1747fe62cc418affea6db.xhtml" target="_top" xlink:title="include">
<polygon fill="#a2b4d6" stroke="#404040" points="522.5,-101 475.5,-101 475.5,-82 522.5,-82 522.5,-101"/>
<text text-anchor="middle" x="499" y="-89" font-family="Helvetica,sans-Serif" font-size="10.00">include</text>
</a>
</g>
</g>
<!-- dir_b5cb1ba11efb8a917f62f701cc18c3ad&#45;&gt;dir_6f5baad296e1747fe62cc418affea6db -->
<g id="edge1" class="edge">
<title>dir_b5cb1ba11efb8a917f62f701cc18c3ad&#45;&gt;dir_6f5baad296e1747fe62cc418affea6db</title>
<path fill="none" stroke="#63b8ff" d="M329.76,-142.12C333.79,-139.38 338.45,-136.55 343,-134.5 382.74,-116.6 431.73,-104.95 464.08,-98.57"/>
<polygon fill="#63b8ff" stroke="#63b8ff" points="464.55,-102.04 473.72,-96.73 463.24,-95.16 464.55,-102.04"/>
<g id="a_edge1&#45;headlabel"><a xlink:href="dir_000010_000008.xhtml" target="_top" xlink:title="2">
<text text-anchor="middle" x="463.03" y="-102.72" font-family="Helvetica,sans-Serif" font-size="10.00" fill="#63b8ff">2</text>
</a>
</g>
</g>
<!-- dir_6dbb42d2342d9d7292a192bc1d024acc -->
<g id="node4" class="node">
<title>dir_6dbb42d2342d9d7292a192bc1d024acc</title>
<text text-anchor="start" x="179.5" y="-155" font-family="Helvetica,sans-Serif" font-size="10.00">application_business</text>
<text text-anchor="middle" x="225" y="-144" font-family="Helvetica,sans-Serif" font-size="10.00">_rules</text>
</g>
<!-- dir_71046b38222792489c3876836d4fbdbc -->
<g id="node10" class="node">
<title>dir_71046b38222792489c3876836d4fbdbc</title>
<g id="a_node10"><a xlink:href="dir_71046b38222792489c3876836d4fbdbc.xhtml" target="_top" xlink:title="Package Enterprise Business Rules.">
<polygon fill="#c8d2e7" stroke="#404040" points="307,-46 203,-46 203,-16 307,-16 307,-46"/>
<text text-anchor="start" x="211" y="-34" font-family="Helvetica,sans-Serif" font-size="10.00">enterprise_business</text>
<text text-anchor="middle" x="255" y="-23" font-family="Helvetica,sans-Serif" font-size="10.00">_rules</text>
</a>
</g>
</g>
<!-- dir_932fe8ce124fd491e58b86c0a19867e4&#45;&gt;dir_71046b38222792489c3876836d4fbdbc -->
<g id="edge3" class="edge">
<title>dir_932fe8ce124fd491e58b86c0a19867e4&#45;&gt;dir_71046b38222792489c3876836d4fbdbc</title>
<path fill="none" stroke="#63b8ff" d="M255,-81.87C255,-75.4 255,-66.2 255,-57.45"/>
<polygon fill="#63b8ff" stroke="#63b8ff" points="258.5,-57.63 255,-47.63 251.5,-57.63 258.5,-57.63"/>
<g id="a_edge3&#45;headlabel"><a xlink:href="dir_000007_000005.xhtml" target="_top" xlink:title="1">
<text text-anchor="middle" x="261.34" y="-57.21" font-family="Helvetica,sans-Serif" font-size="10.00" fill="#63b8ff">1</text>
</a>
</g>
</g>
<!-- dir_0464404e99892fac2d89b16bbf2dbee3 -->
<g id="node6" class="node">
<title>dir_0464404e99892fac2d89b16bbf2dbee3</title>
<g id="a_node6"><a xlink:href="dir_0464404e99892fac2d89b16bbf2dbee3.xhtml" target="_top" xlink:title="src">
<polygon fill="#a2b4d6" stroke="#404040" points="153,-161.5 123,-161.5 123,-142.5 153,-142.5 153,-161.5"/>
<text text-anchor="middle" x="138" y="-149.5" font-family="Helvetica,sans-Serif" font-size="10.00">src</text>
</a>
</g>
</g>
<!-- dir_0464404e99892fac2d89b16bbf2dbee3&#45;&gt;dir_932fe8ce124fd491e58b86c0a19867e4 -->
<g id="edge4" class="edge">
<title>dir_0464404e99892fac2d89b16bbf2dbee3&#45;&gt;dir_932fe8ce124fd491e58b86c0a19867e4</title>
<path fill="none" stroke="#63b8ff" d="M150.74,-142.04C154.6,-139.48 158.91,-136.77 163,-134.5 182.21,-123.86 204.6,-113.6 222.49,-105.88"/>
<polygon fill="#63b8ff" stroke="#63b8ff" points="223.74,-109.14 231.58,-102.01 221,-102.7 223.74,-109.14"/>
<g id="a_edge4&#45;headlabel"><a xlink:href="dir_000011_000007.xhtml" target="_top" xlink:title="9">
<text text-anchor="middle" x="222.94" y="-110.07" font-family="Helvetica,sans-Serif" font-size="10.00" fill="#63b8ff">9</text>
</a>
</g>
</g>
<!-- dir_b49365647f74dff1c8dd1e88d29293e4 -->
<g id="node7" class="node">
<title>dir_b49365647f74dff1c8dd1e88d29293e4</title>
<text text-anchor="middle" x="565" y="-149.5" font-family="Helvetica,sans-Serif" font-size="10.00">board_adapters</text>
</g>
<!-- dir_7f49939d24979e82cbd0609955c19b57 -->
<g id="node9" class="node">
<title>dir_7f49939d24979e82cbd0609955c19b57</title>
<g id="a_node9"><a xlink:href="dir_7f49939d24979e82cbd0609955c19b57.xhtml" target="_top" xlink:title="src">
<polygon fill="#a2b4d6" stroke="#404040" points="505,-161.5 475,-161.5 475,-142.5 505,-142.5 505,-161.5"/>
<text text-anchor="middle" x="490" y="-149.5" font-family="Helvetica,sans-Serif" font-size="10.00">src</text>
</a>
</g>
</g>
<!-- dir_7f49939d24979e82cbd0609955c19b57&#45;&gt;dir_932fe8ce124fd491e58b86c0a19867e4 -->
<g id="edge6" class="edge">
<title>dir_7f49939d24979e82cbd0609955c19b57&#45;&gt;dir_932fe8ce124fd491e58b86c0a19867e4</title>
<path fill="none" stroke="#63b8ff" d="M477.57,-142.15C473.14,-139.35 468.01,-136.47 463,-134.5 404.82,-111.67 332.4,-100.66 290.17,-95.82"/>
<polygon fill="#63b8ff" stroke="#63b8ff" points="290.67,-92.35 280.35,-94.75 289.91,-99.31 290.67,-92.35"/>
<g id="a_edge6&#45;headlabel"><a xlink:href="dir_000012_000007.xhtml" target="_top" xlink:title="4">
<text text-anchor="middle" x="293.04" y="-87.26" font-family="Helvetica,sans-Serif" font-size="10.00" fill="#63b8ff">4</text>
</a>
</g>
</g>
<!-- dir_7f49939d24979e82cbd0609955c19b57&#45;&gt;dir_6f5baad296e1747fe62cc418affea6db -->
<g id="edge5" class="edge">
<title>dir_7f49939d24979e82cbd0609955c19b57&#45;&gt;dir_6f5baad296e1747fe62cc418affea6db</title>
<path fill="none" stroke="#63b8ff" d="M491.33,-142.37C492.54,-134.5 494.37,-122.6 495.94,-112.39"/>
<polygon fill="#63b8ff" stroke="#63b8ff" points="499.38,-113.08 497.44,-102.66 492.46,-112.01 499.38,-113.08"/>
<g id="a_edge5&#45;headlabel"><a xlink:href="dir_000012_000008.xhtml" target="_top" xlink:title="4">
<text text-anchor="middle" x="501.86" y="-113.07" font-family="Helvetica,sans-Serif" font-size="10.00" fill="#63b8ff">4</text>
</a>
</g>
</g>
<!-- dir_39f7659512e965af922d437530a62078 -->
<g id="node11" class="node">
<title>dir_39f7659512e965af922d437530a62078</title>
<g id="a_node11"><a xlink:href="dir_39f7659512e965af922d437530a62078.xhtml" target="_top" xlink:title="tasks">
<polygon fill="#c8d2e7" stroke="#404040" points="57.5,-161.5 16.5,-161.5 16.5,-142.5 57.5,-142.5 57.5,-161.5"/>
<text text-anchor="middle" x="37" y="-149.5" font-family="Helvetica,sans-Serif" font-size="10.00">tasks</text>
</a>
</g>
</g>
</g>
</svg>
