<?xml version="1.0" encoding="UTF-8" standalone="no"?>
<!DOCTYPE svg PUBLIC "-//W3C//DTD SVG 1.1//EN"
 "http://www.w3.org/Graphics/SVG/1.1/DTD/svg11.dtd">
<!-- Generated by graphviz version 9.0.0 (20230911.1827)
 -->
<!-- Title: lib/layer2_hmi Pages: 1 -->
<svg width="276pt" height="197pt"
 viewBox="0.00 0.00 275.75 197.00" xmlns="http://www.w3.org/2000/svg" xmlns:xlink="http://www.w3.org/1999/xlink">
<g id="graph0" class="graph" transform="scale(1 1) rotate(0) translate(4 193)">
<title>lib/layer2_hmi</title>
<g id="clust1" class="cluster">
<title>clusterdir_97aefd0d527b934f1d99a682da8fe6a9</title>
<g id="a_clust1"><a xlink:href="dir_97aefd0d527b934f1d99a682da8fe6a9.xhtml" target="_top" xlink:title="lib">
<polygon fill="#edf0f7" stroke="#404040" stroke-dasharray="5,2" points="8,-8 8,-181 228,-181 228,-8 8,-8"/>
<text text-anchor="middle" x="118" y="-167.5" font-family="Helvetica,sans-Serif" font-size="10.00">lib</text>
</a>
</g>
</g>
<g id="clust2" class="cluster">
<title>clusterdir_a647c64d7ac458a08d86dd39ddd46fd3</title>
<g id="a_clust2"><a xlink:href="dir_a647c64d7ac458a08d86dd39ddd46fd3.xhtml" target="_top">
<polygon fill="#edf0f7" stroke="#404040" stroke-width="2" points="16,-63.25 16,-153.75 142,-153.75 142,-63.25 16,-63.25"/>
</a>
</g>
</g>
<!-- dir_bc8d9efccb68c9442e5dc466270ac2ea -->
<g id="node1" class="node">
<title>dir_bc8d9efccb68c9442e5dc466270ac2ea</title>
<g id="a_node1"><a xlink:href="dir_bc8d9efccb68c9442e5dc466270ac2ea.xhtml" target="_top" xlink:title="layer1_use_cases">
<polygon fill="#c8d2e7" stroke="red" points="123,-35.25 29,-35.25 29,-16 123,-16 123,-35.25"/>
<text text-anchor="middle" x="76" y="-21.75" font-family="Helvetica,sans-Serif" font-size="10.00">layer1_use_cases</text>
</a>
</g>
</g>
<!-- dir_5c46fa0267ad0d15fb3a57afaaf550a7 -->
<g id="node2" class="node">
<title>dir_5c46fa0267ad0d15fb3a57afaaf550a7</title>
<g id="a_node2"><a xlink:href="dir_5c46fa0267ad0d15fb3a57afaaf550a7.xhtml" target="_top" xlink:title="board abstraction layer">
<polygon fill="#c8d2e7" stroke="red" points="220.38,-90.5 149.62,-90.5 149.62,-71.25 220.38,-71.25 220.38,-90.5"/>
<text text-anchor="middle" x="185" y="-77" font-family="Helvetica,sans-Serif" font-size="10.00">layer3_board</text>
</a>
</g>
</g>
<!-- dir_a647c64d7ac458a08d86dd39ddd46fd3 -->
<g id="node3" class="node">
<title>dir_a647c64d7ac458a08d86dd39ddd46fd3</title>
<text text-anchor="middle" x="103" y="-132.25" font-family="Helvetica,sans-Serif" font-size="10.00">layer2_hmi</text>
</g>
<!-- dir_5cc884592035fcf1f8f92921114afb76 -->
<g id="node4" class="node">
<title>dir_5cc884592035fcf1f8f92921114afb76</title>
<g id="a_node4"><a xlink:href="dir_5cc884592035fcf1f8f92921114afb76.xhtml" target="_top" xlink:title="include">
<polygon fill="#c8d2e7" stroke="#404040" points="70.38,-90.5 23.62,-90.5 23.62,-71.25 70.38,-71.25 70.38,-90.5"/>
<text text-anchor="middle" x="47" y="-77" font-family="Helvetica,sans-Serif" font-size="10.00">include</text>
</a>
</g>
</g>
<!-- dir_5cc884592035fcf1f8f92921114afb76&#45;&gt;dir_bc8d9efccb68c9442e5dc466270ac2ea -->
<g id="edge1" class="edge">
<title>dir_5cc884592035fcf1f8f92921114afb76&#45;&gt;dir_bc8d9efccb68c9442e5dc466270ac2ea</title>
<g id="a_edge1"><a xlink:href="dir_000002_000004.xhtml" target="_top">
<path fill="none" stroke="#63b8ff" d="M51.79,-71.08C55.54,-64.19 60.91,-54.34 65.63,-45.66"/>
<polygon fill="#63b8ff" stroke="#63b8ff" points="68.67,-47.39 70.38,-36.94 62.53,-44.05 68.67,-47.39"/>
</a>
</g>
<g id="a_edge1&#45;headlabel"><a xlink:href="dir_000002_000004.xhtml" target="_top" xlink:title="1">
<text text-anchor="middle" x="70.17" y="-46.71" font-family="Helvetica,sans-Serif" font-size="10.00" fill="#63b8ff">1</text>
</a>
</g>
</g>
<!-- dir_9bd86a7a38936839c6e136efba5b5507 -->
<g id="node5" class="node">
<title>dir_9bd86a7a38936839c6e136efba5b5507</title>
<g id="a_node5"><a xlink:href="dir_9bd86a7a38936839c6e136efba5b5507.xhtml" target="_top" xlink:title="src">
<polygon fill="#c8d2e7" stroke="#404040" points="53.75,-145.75 24.25,-145.75 24.25,-126.5 53.75,-126.5 53.75,-145.75"/>
<text text-anchor="middle" x="39" y="-132.25" font-family="Helvetica,sans-Serif" font-size="10.00">src</text>
</a>
</g>
</g>
<!-- dir_9bd86a7a38936839c6e136efba5b5507&#45;&gt;dir_bc8d9efccb68c9442e5dc466270ac2ea -->
<g id="edge5" class="edge">
<title>dir_9bd86a7a38936839c6e136efba5b5507&#45;&gt;dir_bc8d9efccb68c9442e5dc466270ac2ea</title>
<g id="a_edge5"><a xlink:href="dir_000010_000004.xhtml" target="_top">
<path fill="none" stroke="#63b8ff" d="M51.03,-126.01C60.65,-117.89 73.42,-105.08 79,-90.5 84.35,-76.51 83.23,-59.53 80.97,-46.6"/>
<polygon fill="#63b8ff" stroke="#63b8ff" points="84.46,-46.19 78.95,-37.14 77.62,-47.65 84.46,-46.19"/>
</a>
</g>
<g id="a_edge5&#45;headlabel"><a xlink:href="dir_000010_000004.xhtml" target="_top" xlink:title="5">
<text text-anchor="middle" x="87.68" y="-43.75" font-family="Helvetica,sans-Serif" font-size="10.00" fill="#63b8ff">5</text>
</a>
</g>
</g>
<!-- dir_9bd86a7a38936839c6e136efba5b5507&#45;&gt;dir_5c46fa0267ad0d15fb3a57afaaf550a7 -->
<g id="edge2" class="edge">
<title>dir_9bd86a7a38936839c6e136efba5b5507&#45;&gt;dir_5c46fa0267ad0d15fb3a57afaaf550a7</title>
<g id="a_edge2"><a xlink:href="dir_000010_000006.xhtml" target="_top">
<path fill="none" stroke="#63b8ff" d="M54.07,-129.63C76.4,-121.49 118.88,-105.99 149.41,-94.86"/>
<polygon fill="#63b8ff" stroke="#63b8ff" points="150.44,-98.21 158.64,-91.49 148.04,-91.63 150.44,-98.21"/>
</a>
</g>
<g id="a_edge2&#45;headlabel"><a xlink:href="dir_000010_000006.xhtml" target="_top" xlink:title="1">
<text text-anchor="middle" x="149.46" y="-97.71" font-family="Helvetica,sans-Serif" font-size="10.00" fill="#63b8ff">1</text>
</a>
</g>
</g>
<!-- dir_9bd86a7a38936839c6e136efba5b5507&#45;&gt;dir_5cc884592035fcf1f8f92921114afb76 -->
<g id="edge3" class="edge">
<title>dir_9bd86a7a38936839c6e136efba5b5507&#45;&gt;dir_5cc884592035fcf1f8f92921114afb76</title>
<g id="a_edge3"><a xlink:href="dir_000010_000002.xhtml" target="_top">
<path fill="none" stroke="#63b8ff" d="M40.32,-126.33C41.31,-119.74 42.71,-110.46 43.97,-102.07"/>
<polygon fill="#63b8ff" stroke="#63b8ff" points="47.4,-102.76 45.43,-92.36 40.48,-101.72 47.4,-102.76"/>
</a>
</g>
<g id="a_edge3&#45;headlabel"><a xlink:href="dir_000010_000002.xhtml" target="_top" xlink:title="7">
<text text-anchor="middle" x="49.9" y="-101.37" font-family="Helvetica,sans-Serif" font-size="10.00" fill="#63b8ff">7</text>
</a>
</g>
</g>
<!-- dir_68267d1309a1af8e8297ef4c3efbcdba -->
<g id="node6" class="node">
<title>dir_68267d1309a1af8e8297ef4c3efbcdba</title>
<g id="a_node6"><a xlink:href="dir_68267d1309a1af8e8297ef4c3efbcdba.xhtml" target="_top" xlink:title="src">
<polygon fill="#edf0f7" stroke="#404040" points="267.75,-90.5 238.25,-90.5 238.25,-71.25 267.75,-71.25 267.75,-90.5"/>
<text text-anchor="middle" x="253" y="-77" font-family="Helvetica,sans-Serif" font-size="10.00">src</text>
</a>
</g>
</g>
<!-- dir_9bd86a7a38936839c6e136efba5b5507&#45;&gt;dir_68267d1309a1af8e8297ef4c3efbcdba -->
<g id="edge4" class="edge">
<title>dir_9bd86a7a38936839c6e136efba5b5507&#45;&gt;dir_68267d1309a1af8e8297ef4c3efbcdba</title>
<g id="a_edge4"><a xlink:href="dir_000010_000013.xhtml" target="_top">
<path fill="none" stroke="#63b8ff" d="M54.13,-129.34C57.05,-128.32 60.1,-127.32 63,-126.5 133.4,-106.45 156.47,-112.52 227.19,-91.7"/>
<polygon fill="#63b8ff" stroke="#63b8ff" points="227.98,-95.12 236.53,-88.86 225.94,-88.42 227.98,-95.12"/>
</a>
</g>
<g id="a_edge4&#45;headlabel"><a xlink:href="dir_000010_000013.xhtml" target="_top" xlink:title="1">
<text text-anchor="middle" x="226.81" y="-94.56" font-family="Helvetica,sans-Serif" font-size="10.00" fill="#63b8ff">1</text>
</a>
</g>
</g>
</g>
</svg>
