<?xml version="1.0" encoding="UTF-8" standalone="no"?>
<!DOCTYPE svg PUBLIC "-//W3C//DTD SVG 1.1//EN"
 "http://www.w3.org/Graphics/SVG/1.1/DTD/svg11.dtd">
<!-- Generated by graphviz version 7.0.5 (20221223.1930)
 -->
<!-- Title: test Pages: 1 -->
<svg width="591pt" height="98pt"
 viewBox="0.00 0.00 591.00 98.00" xmlns="http://www.w3.org/2000/svg" xmlns:xlink="http://www.w3.org/1999/xlink">
<g id="graph0" class="graph" transform="scale(1 1) rotate(0) translate(4 94)">
<title>test</title>
<g id="clust1" class="cluster">
<title>clusterdir_13e138d54eb8818da29c3992edef070a</title>
<g id="a_clust1"><a xlink:href="dir_13e138d54eb8818da29c3992edef070a.xhtml" target="_top">
<polygon fill="#edf0f7" stroke="#404040" stroke-width="2" points="8,-47 8,-82 575,-82 575,-47 8,-47"/>
</a>
</g>
</g>
<!-- dir_13e138d54eb8818da29c3992edef070a -->
<g id="node1" class="node">
<title>dir_13e138d54eb8818da29c3992edef070a</title>
<text text-anchor="middle" x="550" y="-62" font-family="Helvetica,sans-Serif" font-size="10.00">test</text>
</g>
<!-- dir_9eaf3eebb2504d78d41a844432b64d15 -->
<g id="node2" class="node">
<title>dir_9eaf3eebb2504d78d41a844432b64d15</title>
<g id="a_node2"><a xlink:href="dir_9eaf3eebb2504d78d41a844432b64d15.xhtml" target="_top" xlink:title="test_board">
<polygon fill="#c8d2e7" stroke="#404040" points="515,-74 453,-74 453,-55 515,-55 515,-74"/>
<text text-anchor="middle" x="484" y="-62" font-family="Helvetica,sans-Serif" font-size="10.00">test_board</text>
</a>
</g>
</g>
<!-- dir_97aefd0d527b934f1d99a682da8fe6a9 -->
<g id="node8" class="node">
<title>dir_97aefd0d527b934f1d99a682da8fe6a9</title>
<g id="a_node8"><a xlink:href="dir_97aefd0d527b934f1d99a682da8fe6a9.xhtml" target="_top" xlink:title="lib">
<polygon fill="#edf0f7" stroke="red" points="312.5,-19 283.5,-19 283.5,0 312.5,0 312.5,-19"/>
<text text-anchor="middle" x="298" y="-7" font-family="Helvetica,sans-Serif" font-size="10.00">lib</text>
</a>
</g>
</g>
<!-- dir_9eaf3eebb2504d78d41a844432b64d15&#45;&gt;dir_97aefd0d527b934f1d99a682da8fe6a9 -->
<g id="edge1" class="edge">
<title>dir_9eaf3eebb2504d78d41a844432b64d15&#45;&gt;dir_97aefd0d527b934f1d99a682da8fe6a9</title>
<path fill="none" stroke="#63b8ff" d="M463.87,-54.52C457.58,-51.9 450.56,-49.16 444,-47 402.56,-33.35 353.06,-21.98 323.65,-15.72"/>
<polygon fill="#63b8ff" stroke="#63b8ff" points="324.69,-12.36 314.19,-13.74 323.26,-19.21 324.69,-12.36"/>
<g id="a_edge1&#45;headlabel"><a xlink:href="dir_000016_000009.xhtml" target="_top" xlink:title="1">
<text text-anchor="middle" x="327.31" y="-7.51" font-family="Helvetica,sans-Serif" font-size="10.00" fill="#63b8ff">1</text>
</a>
</g>
</g>
<!-- dir_96ee98e0a3ed0ab7302e1b0ef25efdfe -->
<g id="node3" class="node">
<title>dir_96ee98e0a3ed0ab7302e1b0ef25efdfe</title>
<g id="a_node3"><a xlink:href="dir_96ee98e0a3ed0ab7302e1b0ef25efdfe.xhtml" target="_top" xlink:title="test_cli">
<polygon fill="#c8d2e7" stroke="#404040" points="435,-74 387,-74 387,-55 435,-55 435,-74"/>
<text text-anchor="middle" x="411" y="-62" font-family="Helvetica,sans-Serif" font-size="10.00">test_cli</text>
</a>
</g>
</g>
<!-- dir_96ee98e0a3ed0ab7302e1b0ef25efdfe&#45;&gt;dir_97aefd0d527b934f1d99a682da8fe6a9 -->
<g id="edge2" class="edge">
<title>dir_96ee98e0a3ed0ab7302e1b0ef25efdfe&#45;&gt;dir_97aefd0d527b934f1d99a682da8fe6a9</title>
<path fill="none" stroke="#63b8ff" d="M393.59,-54.65C388.57,-52.14 383.09,-49.43 378,-47 359.65,-38.23 338.72,-28.7 322.88,-21.58"/>
<polygon fill="#63b8ff" stroke="#63b8ff" points="324.76,-18.58 314.2,-17.69 321.9,-24.97 324.76,-18.58"/>
<g id="a_edge2&#45;headlabel"><a xlink:href="dir_000017_000009.xhtml" target="_top" xlink:title="1">
<text text-anchor="middle" x="327.82" y="-14.34" font-family="Helvetica,sans-Serif" font-size="10.00" fill="#63b8ff">1</text>
</a>
</g>
</g>
<!-- dir_d4007516cc9bfff50cad23dd85f3b823 -->
<g id="node4" class="node">
<title>dir_d4007516cc9bfff50cad23dd85f3b823</title>
<g id="a_node4"><a xlink:href="dir_d4007516cc9bfff50cad23dd85f3b823.xhtml" target="_top" xlink:title="test_hmi">
<polygon fill="#c8d2e7" stroke="#404040" points="369,-74 315,-74 315,-55 369,-55 369,-74"/>
<text text-anchor="middle" x="342" y="-62" font-family="Helvetica,sans-Serif" font-size="10.00">test_hmi</text>
</a>
</g>
</g>
<!-- dir_d4007516cc9bfff50cad23dd85f3b823&#45;&gt;dir_97aefd0d527b934f1d99a682da8fe6a9 -->
<g id="edge3" class="edge">
<title>dir_d4007516cc9bfff50cad23dd85f3b823&#45;&gt;dir_97aefd0d527b934f1d99a682da8fe6a9</title>
<path fill="none" stroke="#63b8ff" d="M334.73,-54.75C328.72,-47.5 319.99,-36.98 312.54,-28.02"/>
<polygon fill="#63b8ff" stroke="#63b8ff" points="315.47,-26.07 306.39,-20.61 310.08,-30.54 315.47,-26.07"/>
<g id="a_edge3&#45;headlabel"><a xlink:href="dir_000018_000009.xhtml" target="_top" xlink:title="1">
<text text-anchor="middle" x="318.98" y="-23.35" font-family="Helvetica,sans-Serif" font-size="10.00" fill="#63b8ff">1</text>
</a>
</g>
</g>
<!-- dir_a68ba28a5c4e4d243007bbf41b8fa72f -->
<g id="node5" class="node">
<title>dir_a68ba28a5c4e4d243007bbf41b8fa72f</title>
<g id="a_node5"><a xlink:href="dir_a68ba28a5c4e4d243007bbf41b8fa72f.xhtml" target="_top" xlink:title="test_serial_port">
<polygon fill="#c8d2e7" stroke="#404040" points="296.5,-74 213.5,-74 213.5,-55 296.5,-55 296.5,-74"/>
<text text-anchor="middle" x="255" y="-62" font-family="Helvetica,sans-Serif" font-size="10.00">test_serial_port</text>
</a>
</g>
</g>
<!-- dir_a68ba28a5c4e4d243007bbf41b8fa72f&#45;&gt;dir_97aefd0d527b934f1d99a682da8fe6a9 -->
<g id="edge4" class="edge">
<title>dir_a68ba28a5c4e4d243007bbf41b8fa72f&#45;&gt;dir_97aefd0d527b934f1d99a682da8fe6a9</title>
<path fill="none" stroke="#63b8ff" d="M262.1,-54.75C267.92,-47.58 276.33,-37.2 283.56,-28.3"/>
<polygon fill="#63b8ff" stroke="#63b8ff" points="286.21,-30.59 289.79,-20.62 280.77,-26.18 286.21,-30.59"/>
<g id="a_edge4&#45;headlabel"><a xlink:href="dir_000019_000009.xhtml" target="_top" xlink:title="1">
<text text-anchor="middle" x="287.1" y="-31.49" font-family="Helvetica,sans-Serif" font-size="10.00" fill="#63b8ff">1</text>
</a>
</g>
</g>
<!-- dir_4fd65a4ec3cd24baa43ea60e9bd570e2 -->
<g id="node6" class="node">
<title>dir_4fd65a4ec3cd24baa43ea60e9bd570e2</title>
<g id="a_node6"><a xlink:href="dir_4fd65a4ec3cd24baa43ea60e9bd570e2.xhtml" target="_top" xlink:title="test_string_helpers">
<polygon fill="#c8d2e7" stroke="#404040" points="195.5,-74 96.5,-74 96.5,-55 195.5,-55 195.5,-74"/>
<text text-anchor="middle" x="146" y="-62" font-family="Helvetica,sans-Serif" font-size="10.00">test_string_helpers</text>
</a>
</g>
</g>
<!-- dir_4fd65a4ec3cd24baa43ea60e9bd570e2&#45;&gt;dir_97aefd0d527b934f1d99a682da8fe6a9 -->
<g id="edge5" class="edge">
<title>dir_4fd65a4ec3cd24baa43ea60e9bd570e2&#45;&gt;dir_97aefd0d527b934f1d99a682da8fe6a9</title>
<path fill="none" stroke="#63b8ff" d="M171.78,-54.51C199.92,-44.7 244.69,-29.09 272.65,-19.34"/>
<polygon fill="#63b8ff" stroke="#63b8ff" points="273.45,-22.77 281.74,-16.17 271.14,-16.16 273.45,-22.77"/>
<g id="a_edge5&#45;headlabel"><a xlink:href="dir_000020_000009.xhtml" target="_top" xlink:title="1">
<text text-anchor="middle" x="272.42" y="-23.63" font-family="Helvetica,sans-Serif" font-size="10.00" fill="#63b8ff">1</text>
</a>
</g>
</g>
<!-- dir_24d5ee9663ee4cc920cf8960a9137137 -->
<g id="node7" class="node">
<title>dir_24d5ee9663ee4cc920cf8960a9137137</title>
<g id="a_node7"><a xlink:href="dir_24d5ee9663ee4cc920cf8960a9137137.xhtml" target="_top" xlink:title="test_tasks">
<polygon fill="#c8d2e7" stroke="#404040" points="78,-74 16,-74 16,-55 78,-55 78,-74"/>
<text text-anchor="middle" x="47" y="-62" font-family="Helvetica,sans-Serif" font-size="10.00">test_tasks</text>
</a>
</g>
</g>
<!-- dir_24d5ee9663ee4cc920cf8960a9137137&#45;&gt;dir_97aefd0d527b934f1d99a682da8fe6a9 -->
<g id="edge6" class="edge">
<title>dir_24d5ee9663ee4cc920cf8960a9137137&#45;&gt;dir_97aefd0d527b934f1d99a682da8fe6a9</title>
<path fill="none" stroke="#63b8ff" d="M66.73,-54.58C73.38,-51.84 80.92,-49.02 88,-47 152.85,-28.54 231.78,-17.87 271.88,-13.25"/>
<polygon fill="#63b8ff" stroke="#63b8ff" points="272.19,-16.73 281.75,-12.15 271.42,-9.78 272.19,-16.73"/>
<g id="a_edge6&#45;headlabel"><a xlink:href="dir_000021_000009.xhtml" target="_top" xlink:title="1">
<text text-anchor="middle" x="270.44" y="-17.29" font-family="Helvetica,sans-Serif" font-size="10.00" fill="#63b8ff">1</text>
</a>
</g>
</g>
</g>
</svg>
