<?xml version="1.0" encoding="UTF-8" standalone="no"?>
<!DOCTYPE svg PUBLIC "-//W3C//DTD SVG 1.1//EN"
 "http://www.w3.org/Graphics/SVG/1.1/DTD/svg11.dtd">
<!-- Generated by graphviz version 7.0.5 (20221223.1930)
 -->
<!-- Title: lib/3rd_party_adapters/src/display_factory_interface.cpp Pages: 1 -->
<svg width="380pt" height="203pt"
 viewBox="0.00 0.00 379.50 203.00" xmlns="http://www.w3.org/2000/svg" xmlns:xlink="http://www.w3.org/1999/xlink">
<g id="graph0" class="graph" transform="scale(1 1) rotate(0) translate(4 199)">
<title>lib/3rd_party_adapters/src/display_factory_interface.cpp</title>
<!-- Node1 -->
<g id="node1" class="node">
<title>Node1</title>
<g id="a_node1"><a xlink:title=" ">
<polygon fill="#999999" stroke="#666666" points="273.5,-195 112.5,-195 112.5,-165 273.5,-165 273.5,-195"/>
<text text-anchor="start" x="120.5" y="-183" font-family="Helvetica,sans-Serif" font-size="10.00">lib/3rd_party_adapters</text>
<text text-anchor="middle" x="193" y="-172" font-family="Helvetica,sans-Serif" font-size="10.00">/src/display_factory_interface.cpp</text>
</a>
</g>
</g>
<!-- Node2 -->
<g id="node2" class="node">
<title>Node2</title>
<g id="a_node2"><a xlink:href="display__factory__interface_8hpp.xhtml" target="_top" xlink:title=" ">
<polygon fill="white" stroke="#666666" points="142,-129 0,-129 0,-110 142,-110 142,-129"/>
<text text-anchor="middle" x="71" y="-117" font-family="Helvetica,sans-Serif" font-size="10.00">display_factory_interface.hpp</text>
</a>
</g>
</g>
<!-- Node1&#45;&gt;Node2 -->
<g id="edge1" class="edge">
<title>Node1&#45;&gt;Node2</title>
<path fill="none" stroke="#63b8ff" d="M162.84,-164.54C143.52,-155.28 118.6,-143.33 99.6,-134.21"/>
<polygon fill="#63b8ff" stroke="#63b8ff" points="101.34,-131.17 90.81,-130 98.32,-137.48 101.34,-131.17"/>
</g>
<!-- Node4 -->
<g id="node4" class="node">
<title>Node4</title>
<g id="a_node4"><a xlink:href="Display_8hpp.xhtml" target="_top" xlink:title=" ">
<polygon fill="white" stroke="#666666" points="226,-129 160,-129 160,-110 226,-110 226,-129"/>
<text text-anchor="middle" x="193" y="-117" font-family="Helvetica,sans-Serif" font-size="10.00">Display.hpp</text>
</a>
</g>
</g>
<!-- Node1&#45;&gt;Node4 -->
<g id="edge3" class="edge">
<title>Node1&#45;&gt;Node4</title>
<path fill="none" stroke="#63b8ff" d="M193,-164.54C193,-157.34 193,-148.53 193,-140.68"/>
<polygon fill="#63b8ff" stroke="#63b8ff" points="196.5,-140.69 193,-130.69 189.5,-140.69 196.5,-140.69"/>
</g>
<!-- Node7 -->
<g id="node7" class="node">
<title>Node7</title>
<g id="a_node7"><a xlink:href="board__config_8hpp.xhtml" target="_top" xlink:title="Provides named objects for the pins provided by the board.">
<polygon fill="white" stroke="#666666" points="352.5,-129 263.5,-129 263.5,-110 352.5,-110 352.5,-129"/>
<text text-anchor="middle" x="308" y="-117" font-family="Helvetica,sans-Serif" font-size="10.00">board_config.hpp</text>
</a>
</g>
</g>
<!-- Node1&#45;&gt;Node7 -->
<g id="edge7" class="edge">
<title>Node1&#45;&gt;Node7</title>
<path fill="none" stroke="#63b8ff" d="M221.43,-164.54C239.47,-155.36 262.69,-143.55 280.54,-134.47"/>
<polygon fill="#63b8ff" stroke="#63b8ff" points="281.93,-137.69 289.26,-130.03 278.76,-131.45 281.93,-137.69"/>
</g>
<!-- Node3 -->
<g id="node3" class="node">
<title>Node3</title>
<g id="a_node3"><a xlink:href="IDisplay_8hpp.xhtml" target="_top" xlink:title=" ">
<polygon fill="white" stroke="#666666" points="105.5,-74 36.5,-74 36.5,-55 105.5,-55 105.5,-74"/>
<text text-anchor="middle" x="71" y="-62" font-family="Helvetica,sans-Serif" font-size="10.00">IDisplay.hpp</text>
</a>
</g>
</g>
<!-- Node2&#45;&gt;Node3 -->
<g id="edge2" class="edge">
<title>Node2&#45;&gt;Node3</title>
<path fill="none" stroke="#63b8ff" d="M71,-109.75C71,-103.27 71,-94.16 71,-85.9"/>
<polygon fill="#63b8ff" stroke="#63b8ff" points="74.5,-85.96 71,-75.96 67.5,-85.96 74.5,-85.96"/>
</g>
<!-- Node4&#45;&gt;Node3 -->
<g id="edge4" class="edge">
<title>Node4&#45;&gt;Node3</title>
<path fill="none" stroke="#63b8ff" d="M172.3,-109.51C153,-101.12 123.94,-88.5 101.89,-78.92"/>
<polygon fill="#63b8ff" stroke="#63b8ff" points="103.34,-75.74 92.78,-74.96 100.56,-82.16 103.34,-75.74"/>
</g>
<!-- Node5 -->
<g id="node5" class="node">
<title>Node5</title>
<g id="a_node5"><a xlink:title=" ">
<polygon fill="#e0e0e0" stroke="#999999" points="228,-74 124,-74 124,-55 228,-55 228,-74"/>
<text text-anchor="middle" x="176" y="-62" font-family="Helvetica,sans-Serif" font-size="10.00">Adafruit_SSD1306.h</text>
</a>
</g>
</g>
<!-- Node4&#45;&gt;Node5 -->
<g id="edge5" class="edge">
<title>Node4&#45;&gt;Node5</title>
<path fill="none" stroke="#63b8ff" d="M190.19,-109.75C188.06,-103.11 185.06,-93.73 182.36,-85.31"/>
<polygon fill="#63b8ff" stroke="#63b8ff" points="185.72,-84.34 179.33,-75.88 179.05,-86.47 185.72,-84.34"/>
</g>
<!-- Node6 -->
<g id="node6" class="node">
<title>Node6</title>
<g id="a_node6"><a xlink:title=" ">
<polygon fill="#e0e0e0" stroke="#999999" points="315,-19 269,-19 269,0 315,0 315,-19"/>
<text text-anchor="middle" x="292" y="-7" font-family="Helvetica,sans-Serif" font-size="10.00">cstdint</text>
</a>
</g>
</g>
<!-- Node4&#45;&gt;Node6 -->
<g id="edge6" class="edge">
<title>Node4&#45;&gt;Node6</title>
<path fill="none" stroke="#63b8ff" d="M201.94,-109.8C210.96,-100.95 225.19,-86.76 237,-74 251.05,-58.82 266.42,-40.97 277.33,-28.06"/>
<polygon fill="#63b8ff" stroke="#63b8ff" points="279.97,-30.35 283.73,-20.45 274.62,-25.85 279.97,-30.35"/>
</g>
<!-- Node8 -->
<g id="node8" class="node">
<title>Node8</title>
<g id="a_node8"><a xlink:href="board__types_8hpp.xhtml" target="_top" xlink:title=" ">
<polygon fill="white" stroke="#666666" points="371.5,-74 284.5,-74 284.5,-55 371.5,-55 371.5,-74"/>
<text text-anchor="middle" x="328" y="-62" font-family="Helvetica,sans-Serif" font-size="10.00">board_types.hpp</text>
</a>
</g>
</g>
<!-- Node7&#45;&gt;Node8 -->
<g id="edge8" class="edge">
<title>Node7&#45;&gt;Node8</title>
<path fill="none" stroke="#63b8ff" d="M311.3,-109.75C313.83,-103.04 317.43,-93.52 320.63,-85.02"/>
<polygon fill="#63b8ff" stroke="#63b8ff" points="323.84,-86.45 324.09,-75.86 317.29,-83.98 323.84,-86.45"/>
</g>
<!-- Node8&#45;&gt;Node6 -->
<g id="edge9" class="edge">
<title>Node8&#45;&gt;Node6</title>
<path fill="none" stroke="#63b8ff" d="M322.06,-54.75C317.29,-47.73 310.44,-37.64 304.48,-28.87"/>
<polygon fill="#63b8ff" stroke="#63b8ff" points="307.44,-27 298.92,-20.69 301.65,-30.93 307.44,-27"/>
</g>
</g>
</svg>
