<?xml version="1.0" encoding="UTF-8" standalone="no"?>
<!DOCTYPE svg PUBLIC "-//W3C//DTD SVG 1.1//EN"
 "http://www.w3.org/Graphics/SVG/1.1/DTD/svg11.dtd">
<!-- Generated by graphviz version 7.0.5 (20221223.1930)
 -->
<!-- Title: lib/application_business_rules/include/display_factory_interface.hpp Pages: 1 -->
<svg width="260pt" height="115pt"
 viewBox="0.00 0.00 259.50 115.00" xmlns="http://www.w3.org/2000/svg" xmlns:xlink="http://www.w3.org/1999/xlink">
<g id="graph0" class="graph" transform="scale(1 1) rotate(0) translate(4 111)">
<title>lib/application_business_rules/include/display_factory_interface.hpp</title>
<!-- Node1 -->
<g id="node1" class="node">
<title>Node1</title>
<g id="a_node1"><a xlink:title=" ">
<polygon fill="#999999" stroke="#666666" points="207.5,-107 87.5,-107 87.5,-66 207.5,-66 207.5,-107"/>
<text text-anchor="start" x="95.5" y="-95" font-family="Helvetica,sans-Serif" font-size="10.00">lib/application_business</text>
<text text-anchor="start" x="95.5" y="-84" font-family="Helvetica,sans-Serif" font-size="10.00">_rules/include/display</text>
<text text-anchor="middle" x="147.5" y="-73" font-family="Helvetica,sans-Serif" font-size="10.00">_factory_interface.hpp</text>
</a>
</g>
</g>
<!-- Node2 -->
<g id="node2" class="node">
<title>Node2</title>
<g id="a_node2"><a xlink:href="display__factory__interface_8cpp.xhtml" target="_top" xlink:title=" ">
<polygon fill="white" stroke="#666666" points="161,-30 0,-30 0,0 161,0 161,-30"/>
<text text-anchor="start" x="8" y="-18" font-family="Helvetica,sans-Serif" font-size="10.00">lib/3rd_party_adapters</text>
<text text-anchor="middle" x="80.5" y="-7" font-family="Helvetica,sans-Serif" font-size="10.00">/src/display_factory_interface.cpp</text>
</a>
</g>
</g>
<!-- Node1&#45;&gt;Node2 -->
<g id="edge1" class="edge">
<title>Node1&#45;&gt;Node2</title>
<path fill="none" stroke="#63b8ff" d="M120.53,-57.52C111.59,-48.25 102,-38.3 94.45,-30.47"/>
<polygon fill="#63b8ff" stroke="#63b8ff" points="117.97,-59.91 127.43,-64.68 123.01,-55.05 117.97,-59.91"/>
</g>
<!-- Node3 -->
<g id="node3" class="node">
<title>Node3</title>
<g id="a_node3"><a xlink:href="main_8cpp.xhtml" target="_top" xlink:title=" ">
<polygon fill="white" stroke="#666666" points="251.5,-24.5 179.5,-24.5 179.5,-5.5 251.5,-5.5 251.5,-24.5"/>
<text text-anchor="middle" x="215.5" y="-12.5" font-family="Helvetica,sans-Serif" font-size="10.00">src/main.cpp</text>
</a>
</g>
</g>
<!-- Node1&#45;&gt;Node3 -->
<g id="edge2" class="edge">
<title>Node1&#45;&gt;Node3</title>
<path fill="none" stroke="#63b8ff" d="M174.54,-57.86C186.08,-46.07 198.73,-33.14 206.87,-24.82"/>
<polygon fill="#63b8ff" stroke="#63b8ff" points="172.35,-55.09 167.86,-64.69 177.36,-59.99 172.35,-55.09"/>
</g>
</g>
</svg>
