<?xml version="1.0" encoding="UTF-8" standalone="no"?>
<!DOCTYPE svg PUBLIC "-//W3C//DTD SVG 1.1//EN"
 "http://www.w3.org/Graphics/SVG/1.1/DTD/svg11.dtd">
<!-- Generated by graphviz version 7.0.5 (20221223.1930)
 -->
<!-- Title: lib/3rd_party_adapters/src/display_factory_interface.cpp Pages: 1 -->
<svg width="474pt" height="203pt"
 viewBox="0.00 0.00 473.50 203.00" xmlns="http://www.w3.org/2000/svg" xmlns:xlink="http://www.w3.org/1999/xlink">
<g id="graph0" class="graph" transform="scale(1 1) rotate(0) translate(4 199)">
<title>lib/3rd_party_adapters/src/display_factory_interface.cpp</title>
<!-- Node1 -->
<g id="node1" class="node">
<title>Node1</title>
<g id="a_node1"><a xlink:title=" ">
<polygon fill="#999999" stroke="#666666" points="304.5,-195 143.5,-195 143.5,-165 304.5,-165 304.5,-195"/>
<text text-anchor="start" x="151.5" y="-183" font-family="Helvetica,sans-Serif" font-size="10.00">lib/3rd_party_adapters</text>
<text text-anchor="middle" x="224" y="-172" font-family="Helvetica,sans-Serif" font-size="10.00">/src/display_factory_interface.cpp</text>
</a>
</g>
</g>
<!-- Node2 -->
<g id="node2" class="node">
<title>Node2</title>
<g id="a_node2"><a xlink:href="display__factory__interface_8hpp.xhtml" target="_top" xlink:title=" ">
<polygon fill="white" stroke="#666666" points="142,-129 0,-129 0,-110 142,-110 142,-129"/>
<text text-anchor="middle" x="71" y="-117" font-family="Helvetica,sans-Serif" font-size="10.00">display_factory_interface.hpp</text>
</a>
</g>
</g>
<!-- Node1&#45;&gt;Node2 -->
<g id="edge1" class="edge">
<title>Node1&#45;&gt;Node2</title>
<path fill="none" stroke="#63b8ff" d="M186.18,-164.54C161.28,-155.02 128.95,-142.66 104.89,-133.46"/>
<polygon fill="#63b8ff" stroke="#63b8ff" points="106.14,-130.19 95.55,-129.89 103.64,-136.73 106.14,-130.19"/>
</g>
<!-- Node4 -->
<g id="node4" class="node">
<title>Node4</title>
<g id="a_node4"><a xlink:href="Display_8hpp.xhtml" target="_top" xlink:title=" ">
<polygon fill="white" stroke="#666666" points="257,-129 191,-129 191,-110 257,-110 257,-129"/>
<text text-anchor="middle" x="224" y="-117" font-family="Helvetica,sans-Serif" font-size="10.00">Display.hpp</text>
</a>
</g>
</g>
<!-- Node1&#45;&gt;Node4 -->
<g id="edge3" class="edge">
<title>Node1&#45;&gt;Node4</title>
<path fill="none" stroke="#63b8ff" d="M224,-164.54C224,-157.34 224,-148.53 224,-140.68"/>
<polygon fill="#63b8ff" stroke="#63b8ff" points="227.5,-140.69 224,-130.69 220.5,-140.69 227.5,-140.69"/>
</g>
<!-- Node9 -->
<g id="node9" class="node">
<title>Node9</title>
<g id="a_node9"><a xlink:href="board__config_8hpp.xhtml" target="_top" xlink:title="Provides named objects for the pins provided by the board.">
<polygon fill="white" stroke="#666666" points="415.5,-129 326.5,-129 326.5,-110 415.5,-110 415.5,-129"/>
<text text-anchor="middle" x="371" y="-117" font-family="Helvetica,sans-Serif" font-size="10.00">board_config.hpp</text>
</a>
</g>
</g>
<!-- Node1&#45;&gt;Node9 -->
<g id="edge9" class="edge">
<title>Node1&#45;&gt;Node9</title>
<path fill="none" stroke="#63b8ff" d="M260.34,-164.54C284.16,-155.06 315.04,-142.77 338.13,-133.58"/>
<polygon fill="#63b8ff" stroke="#63b8ff" points="339.37,-136.86 347.36,-129.91 336.78,-130.35 339.37,-136.86"/>
</g>
<!-- Node3 -->
<g id="node3" class="node">
<title>Node3</title>
<g id="a_node3"><a xlink:href="IDisplay_8hpp.xhtml" target="_top" xlink:title=" ">
<polygon fill="white" stroke="#666666" points="73.5,-74 4.5,-74 4.5,-55 73.5,-55 73.5,-74"/>
<text text-anchor="middle" x="39" y="-62" font-family="Helvetica,sans-Serif" font-size="10.00">IDisplay.hpp</text>
</a>
</g>
</g>
<!-- Node2&#45;&gt;Node3 -->
<g id="edge2" class="edge">
<title>Node2&#45;&gt;Node3</title>
<path fill="none" stroke="#63b8ff" d="M65.72,-109.75C61.53,-102.81 55.52,-92.86 50.27,-84.16"/>
<polygon fill="#63b8ff" stroke="#63b8ff" points="53.35,-82.49 45.18,-75.74 47.35,-86.11 53.35,-82.49"/>
</g>
<!-- Node4&#45;&gt;Node3 -->
<g id="edge4" class="edge">
<title>Node4&#45;&gt;Node3</title>
<path fill="none" stroke="#63b8ff" d="M192.62,-109.51C161.96,-100.73 115.09,-87.3 81.19,-77.59"/>
<polygon fill="#63b8ff" stroke="#63b8ff" points="82.26,-74.25 71.68,-74.86 80.33,-80.98 82.26,-74.25"/>
</g>
<!-- Node5 -->
<g id="node5" class="node">
<title>Node5</title>
<g id="a_node5"><a xlink:title=" ">
<polygon fill="#e0e0e0" stroke="#999999" points="196,-74 92,-74 92,-55 196,-55 196,-74"/>
<text text-anchor="middle" x="144" y="-62" font-family="Helvetica,sans-Serif" font-size="10.00">Adafruit_SSD1306.h</text>
</a>
</g>
</g>
<!-- Node4&#45;&gt;Node5 -->
<g id="edge5" class="edge">
<title>Node4&#45;&gt;Node5</title>
<path fill="none" stroke="#63b8ff" d="M210.43,-109.51C198.52,-101.62 180.95,-89.98 166.87,-80.65"/>
<polygon fill="#63b8ff" stroke="#63b8ff" points="168.9,-77.8 158.63,-75.19 165.04,-83.63 168.9,-77.8"/>
</g>
<!-- Node6 -->
<g id="node6" class="node">
<title>Node6</title>
<g id="a_node6"><a xlink:title=" ">
<polygon fill="#e0e0e0" stroke="#999999" points="346,-19 300,-19 300,0 346,0 346,-19"/>
<text text-anchor="middle" x="323" y="-7" font-family="Helvetica,sans-Serif" font-size="10.00">cstdint</text>
</a>
</g>
</g>
<!-- Node4&#45;&gt;Node6 -->
<g id="edge6" class="edge">
<title>Node4&#45;&gt;Node6</title>
<path fill="none" stroke="#63b8ff" d="M224.56,-109.74C225.81,-96.53 229.88,-71.32 243,-55 255.01,-40.06 273.45,-29.32 289.61,-22.14"/>
<polygon fill="#63b8ff" stroke="#63b8ff" points="290.5,-25.56 298.4,-18.51 287.82,-19.09 290.5,-25.56"/>
</g>
<!-- Node7 -->
<g id="node7" class="node">
<title>Node7</title>
<g id="a_node7"><a xlink:title=" ">
<polygon fill="#e0e0e0" stroke="#999999" points="291.5,-74 252.5,-74 252.5,-55 291.5,-55 291.5,-74"/>
<text text-anchor="middle" x="272" y="-62" font-family="Helvetica,sans-Serif" font-size="10.00">lvgl.h</text>
</a>
</g>
</g>
<!-- Node4&#45;&gt;Node7 -->
<g id="edge7" class="edge">
<title>Node4&#45;&gt;Node7</title>
<path fill="none" stroke="#63b8ff" d="M231.93,-109.75C238.56,-102.43 248.22,-91.76 256.39,-82.74"/>
<polygon fill="#63b8ff" stroke="#63b8ff" points="258.77,-85.33 262.89,-75.56 253.58,-80.63 258.77,-85.33"/>
</g>
<!-- Node8 -->
<g id="node8" class="node">
<title>Node8</title>
<g id="a_node8"><a xlink:title=" ">
<polygon fill="#e0e0e0" stroke="#999999" points="360.5,-74 309.5,-74 309.5,-55 360.5,-55 360.5,-74"/>
<text text-anchor="middle" x="335" y="-62" font-family="Helvetica,sans-Serif" font-size="10.00">memory</text>
</a>
</g>
</g>
<!-- Node4&#45;&gt;Node8 -->
<g id="edge8" class="edge">
<title>Node4&#45;&gt;Node8</title>
<path fill="none" stroke="#63b8ff" d="M242.83,-109.51C260.16,-101.24 286.11,-88.84 306.07,-79.31"/>
<polygon fill="#63b8ff" stroke="#63b8ff" points="307.57,-82.48 315.08,-75.01 304.55,-76.16 307.57,-82.48"/>
</g>
<!-- Node10 -->
<g id="node10" class="node">
<title>Node10</title>
<g id="a_node10"><a xlink:href="board__types_8hpp.xhtml" target="_top" xlink:title=" ">
<polygon fill="white" stroke="#666666" points="465.5,-74 378.5,-74 378.5,-55 465.5,-55 465.5,-74"/>
<text text-anchor="middle" x="422" y="-62" font-family="Helvetica,sans-Serif" font-size="10.00">board_types.hpp</text>
</a>
</g>
</g>
<!-- Node9&#45;&gt;Node10 -->
<g id="edge10" class="edge">
<title>Node9&#45;&gt;Node10</title>
<path fill="none" stroke="#63b8ff" d="M379.42,-109.75C386.47,-102.43 396.73,-91.76 405.41,-82.74"/>
<polygon fill="#63b8ff" stroke="#63b8ff" points="407.93,-85.17 412.35,-75.53 402.89,-80.31 407.93,-85.17"/>
</g>
<!-- Node10&#45;&gt;Node6 -->
<g id="edge11" class="edge">
<title>Node10&#45;&gt;Node6</title>
<path fill="none" stroke="#63b8ff" d="M405.21,-54.51C389.9,-46.31 367.03,-34.07 349.3,-24.58"/>
<polygon fill="#63b8ff" stroke="#63b8ff" points="351.35,-21.71 340.88,-20.07 348.04,-27.88 351.35,-21.71"/>
</g>
</g>
</svg>
