<?xml version="1.0" encoding="UTF-8" standalone="no"?>
<!DOCTYPE svg PUBLIC "-//W3C//DTD SVG 1.1//EN"
 "http://www.w3.org/Graphics/SVG/1.1/DTD/svg11.dtd">
<!-- Generated by graphviz version 7.0.5 (20221223.1930)
 -->
<!-- Title: lib/application_business_rules/include/display_factory_interface.hpp Pages: 1 -->
<svg width="324pt" height="126pt"
 viewBox="0.00 0.00 324.00 126.00" xmlns="http://www.w3.org/2000/svg" xmlns:xlink="http://www.w3.org/1999/xlink">
<g id="graph0" class="graph" transform="scale(1 1) rotate(0) translate(4 122)">
<title>lib/application_business_rules/include/display_factory_interface.hpp</title>
<!-- Node1 -->
<g id="node1" class="node">
<title>Node1</title>
<g id="a_node1"><a xlink:title=" ">
<polygon fill="#999999" stroke="#666666" points="223.5,-118 103.5,-118 103.5,-77 223.5,-77 223.5,-118"/>
<text text-anchor="start" x="111.5" y="-106" font-family="Helvetica,sans-Serif" font-size="10.00">lib/application_business</text>
<text text-anchor="start" x="111.5" y="-95" font-family="Helvetica,sans-Serif" font-size="10.00">_rules/include/display</text>
<text text-anchor="middle" x="163.5" y="-84" font-family="Helvetica,sans-Serif" font-size="10.00">_factory_interface.hpp</text>
</a>
</g>
</g>
<!-- Node2 -->
<g id="node2" class="node">
<title>Node2</title>
<g id="a_node2"><a xlink:href="display__factory__interface_8cpp.xhtml" target="_top" xlink:title=" ">
<polygon fill="white" stroke="#666666" points="161,-35.5 0,-35.5 0,-5.5 161,-5.5 161,-35.5"/>
<text text-anchor="start" x="8" y="-23.5" font-family="Helvetica,sans-Serif" font-size="10.00">lib/3rd_party_adapters</text>
<text text-anchor="middle" x="80.5" y="-12.5" font-family="Helvetica,sans-Serif" font-size="10.00">/src/display_factory_interface.cpp</text>
</a>
</g>
</g>
<!-- Node1&#45;&gt;Node2 -->
<g id="edge1" class="edge">
<title>Node1&#45;&gt;Node2</title>
<path fill="none" stroke="#63b8ff" d="M133.33,-69.24C120.83,-57.94 106.84,-45.3 96.39,-35.86"/>
<polygon fill="#63b8ff" stroke="#63b8ff" points="130.8,-71.67 140.57,-75.78 135.5,-66.48 130.8,-71.67"/>
</g>
<!-- Node3 -->
<g id="node3" class="node">
<title>Node3</title>
<g id="a_node3"><a xlink:href="presenter__factory__interface_8cpp.xhtml" target="_top" xlink:title=" ">
<polygon fill="white" stroke="#666666" points="316,-41 179,-41 179,0 316,0 316,-41"/>
<text text-anchor="start" x="187" y="-29" font-family="Helvetica,sans-Serif" font-size="10.00">lib/application_business</text>
<text text-anchor="start" x="187" y="-18" font-family="Helvetica,sans-Serif" font-size="10.00">_rules/src/presenter_factory</text>
<text text-anchor="middle" x="247.5" y="-7" font-family="Helvetica,sans-Serif" font-size="10.00">_interface.cpp</text>
</a>
</g>
</g>
<!-- Node1&#45;&gt;Node3 -->
<g id="edge2" class="edge">
<title>Node1&#45;&gt;Node3</title>
<path fill="none" stroke="#63b8ff" d="M193.97,-69.29C204.33,-60.05 215.7,-49.89 225.29,-41.33"/>
<polygon fill="#63b8ff" stroke="#63b8ff" points="191.83,-66.52 186.7,-75.79 196.49,-71.74 191.83,-66.52"/>
</g>
</g>
</svg>
