<?xml version="1.0" encoding="UTF-8" standalone="no"?>
<!DOCTYPE svg PUBLIC "-//W3C//DTD SVG 1.1//EN"
 "http://www.w3.org/Graphics/SVG/1.1/DTD/svg11.dtd">
<!-- Generated by graphviz version 7.0.5 (20221223.1930)
 -->
<!-- Title: lib/3rd_party_adapters/src/Display.cpp Pages: 1 -->
<svg width="391pt" height="148pt"
 viewBox="0.00 0.00 390.50 148.00" xmlns="http://www.w3.org/2000/svg" xmlns:xlink="http://www.w3.org/1999/xlink">
<g id="graph0" class="graph" transform="scale(1 1) rotate(0) translate(4 144)">
<title>lib/3rd_party_adapters/src/Display.cpp</title>
<!-- Node1 -->
<g id="node1" class="node">
<title>Node1</title>
<g id="a_node1"><a xlink:title=" ">
<polygon fill="#999999" stroke="#666666" points="251,-140 139,-140 139,-110 251,-110 251,-140"/>
<text text-anchor="start" x="147" y="-128" font-family="Helvetica,sans-Serif" font-size="10.00">lib/3rd_party_adapters</text>
<text text-anchor="middle" x="195" y="-117" font-family="Helvetica,sans-Serif" font-size="10.00">/src/Display.cpp</text>
</a>
</g>
</g>
<!-- Node2 -->
<g id="node2" class="node">
<title>Node2</title>
<g id="a_node2"><a xlink:href="Display_8hpp.xhtml" target="_top" xlink:title=" ">
<polygon fill="white" stroke="#666666" points="228,-74 162,-74 162,-55 228,-55 228,-74"/>
<text text-anchor="middle" x="195" y="-62" font-family="Helvetica,sans-Serif" font-size="10.00">Display.hpp</text>
</a>
</g>
</g>
<!-- Node1&#45;&gt;Node2 -->
<g id="edge1" class="edge">
<title>Node1&#45;&gt;Node2</title>
<path fill="none" stroke="#63b8ff" d="M195,-109.54C195,-102.34 195,-93.53 195,-85.68"/>
<polygon fill="#63b8ff" stroke="#63b8ff" points="198.5,-85.69 195,-75.69 191.5,-85.69 198.5,-85.69"/>
</g>
<!-- Node4 -->
<g id="node4" class="node">
<title>Node4</title>
<g id="a_node4"><a xlink:title=" ">
<polygon fill="#e0e0e0" stroke="#999999" points="104,-19 0,-19 0,0 104,0 104,-19"/>
<text text-anchor="middle" x="52" y="-7" font-family="Helvetica,sans-Serif" font-size="10.00">Adafruit_SSD1306.h</text>
</a>
</g>
</g>
<!-- Node1&#45;&gt;Node4 -->
<g id="edge7" class="edge">
<title>Node1&#45;&gt;Node4</title>
<path fill="none" stroke="#63b8ff" d="M176.89,-109.63C150,-88.28 99.7,-48.36 71.84,-26.25"/>
<polygon fill="#63b8ff" stroke="#63b8ff" points="74.19,-23.65 64.18,-20.17 69.84,-29.13 74.19,-23.65"/>
</g>
<!-- Node8 -->
<g id="node8" class="node">
<title>Node8</title>
<g id="a_node8"><a xlink:title=" ">
<polygon fill="#e0e0e0" stroke="#999999" points="295.5,-74 246.5,-74 246.5,-55 295.5,-55 295.5,-74"/>
<text text-anchor="middle" x="271" y="-62" font-family="Helvetica,sans-Serif" font-size="10.00">cassert</text>
</a>
</g>
</g>
<!-- Node1&#45;&gt;Node8 -->
<g id="edge8" class="edge">
<title>Node1&#45;&gt;Node8</title>
<path fill="none" stroke="#63b8ff" d="M213.79,-109.54C225.05,-100.87 239.37,-89.85 250.87,-81"/>
<polygon fill="#63b8ff" stroke="#63b8ff" points="252.74,-83.97 258.53,-75.1 248.47,-78.42 252.74,-83.97"/>
</g>
<!-- Node3 -->
<g id="node3" class="node">
<title>Node3</title>
<g id="a_node3"><a xlink:href="IDisplay_8hpp.xhtml" target="_top" xlink:title=" ">
<polygon fill="white" stroke="#666666" points="191.5,-19 122.5,-19 122.5,0 191.5,0 191.5,-19"/>
<text text-anchor="middle" x="157" y="-7" font-family="Helvetica,sans-Serif" font-size="10.00">IDisplay.hpp</text>
</a>
</g>
</g>
<!-- Node2&#45;&gt;Node3 -->
<g id="edge2" class="edge">
<title>Node2&#45;&gt;Node3</title>
<path fill="none" stroke="#63b8ff" d="M188.73,-54.75C183.64,-47.66 176.3,-37.42 169.97,-28.59"/>
<polygon fill="#63b8ff" stroke="#63b8ff" points="172.96,-26.76 164.29,-20.67 167.28,-30.84 172.96,-26.76"/>
</g>
<!-- Node2&#45;&gt;Node4 -->
<g id="edge3" class="edge">
<title>Node2&#45;&gt;Node4</title>
<path fill="none" stroke="#63b8ff" d="M170.74,-54.51C147.59,-45.93 112.49,-32.92 86.44,-23.27"/>
<polygon fill="#63b8ff" stroke="#63b8ff" points="87.91,-20.08 77.32,-19.88 85.48,-26.64 87.91,-20.08"/>
</g>
<!-- Node5 -->
<g id="node5" class="node">
<title>Node5</title>
<g id="a_node5"><a xlink:title=" ">
<polygon fill="#e0e0e0" stroke="#999999" points="256,-19 210,-19 210,0 256,0 256,-19"/>
<text text-anchor="middle" x="233" y="-7" font-family="Helvetica,sans-Serif" font-size="10.00">cstdint</text>
</a>
</g>
</g>
<!-- Node2&#45;&gt;Node5 -->
<g id="edge4" class="edge">
<title>Node2&#45;&gt;Node5</title>
<path fill="none" stroke="#63b8ff" d="M201.27,-54.75C206.36,-47.66 213.7,-37.42 220.03,-28.59"/>
<polygon fill="#63b8ff" stroke="#63b8ff" points="222.72,-30.84 225.71,-20.67 217.04,-26.76 222.72,-30.84"/>
</g>
<!-- Node6 -->
<g id="node6" class="node">
<title>Node6</title>
<g id="a_node6"><a xlink:title=" ">
<polygon fill="#e0e0e0" stroke="#999999" points="313.5,-19 274.5,-19 274.5,0 313.5,0 313.5,-19"/>
<text text-anchor="middle" x="294" y="-7" font-family="Helvetica,sans-Serif" font-size="10.00">lvgl.h</text>
</a>
</g>
</g>
<!-- Node2&#45;&gt;Node6 -->
<g id="edge5" class="edge">
<title>Node2&#45;&gt;Node6</title>
<path fill="none" stroke="#63b8ff" d="M211.79,-54.51C227.1,-46.31 249.97,-34.07 267.7,-24.58"/>
<polygon fill="#63b8ff" stroke="#63b8ff" points="268.96,-27.88 276.12,-20.07 265.65,-21.71 268.96,-27.88"/>
</g>
<!-- Node7 -->
<g id="node7" class="node">
<title>Node7</title>
<g id="a_node7"><a xlink:title=" ">
<polygon fill="#e0e0e0" stroke="#999999" points="382.5,-19 331.5,-19 331.5,0 382.5,0 382.5,-19"/>
<text text-anchor="middle" x="357" y="-7" font-family="Helvetica,sans-Serif" font-size="10.00">memory</text>
</a>
</g>
</g>
<!-- Node2&#45;&gt;Node7 -->
<g id="edge6" class="edge">
<title>Node2&#45;&gt;Node7</title>
<path fill="none" stroke="#63b8ff" d="M222.48,-54.51C249.46,-45.68 290.77,-32.17 320.49,-22.44"/>
<polygon fill="#63b8ff" stroke="#63b8ff" points="321.4,-25.83 329.82,-19.39 319.23,-19.17 321.4,-25.83"/>
</g>
</g>
</svg>
