<?xml version="1.0" encoding="UTF-8" standalone="no"?>
<!DOCTYPE svg PUBLIC "-//W3C//DTD SVG 1.1//EN"
 "http://www.w3.org/Graphics/SVG/1.1/DTD/svg11.dtd">
<!-- Generated by graphviz version 7.0.5 (20221223.1930)
 -->
<!-- Title: lib/application_business_rules/include/hmi_configuration.hpp Pages: 1 -->
<svg width="416pt" height="192pt"
 viewBox="0.00 0.00 416.00 192.00" xmlns="http://www.w3.org/2000/svg" xmlns:xlink="http://www.w3.org/1999/xlink">
<g id="graph0" class="graph" transform="scale(1 1) rotate(0) translate(4 188)">
<title>lib/application_business_rules/include/hmi_configuration.hpp</title>
<!-- Node1 -->
<g id="node1" class="node">
<title>Node1</title>
<g id="a_node1"><a xlink:title=" ">
<polygon fill="#999999" stroke="#666666" points="287.5,-184 114.5,-184 114.5,-154 287.5,-154 287.5,-184"/>
<text text-anchor="start" x="122.5" y="-172" font-family="Helvetica,sans-Serif" font-size="10.00">lib/application_business</text>
<text text-anchor="middle" x="201" y="-161" font-family="Helvetica,sans-Serif" font-size="10.00">_rules/include/hmi_configuration.hpp</text>
</a>
</g>
</g>
<!-- Node2 -->
<g id="node2" class="node">
<title>Node2</title>
<g id="a_node2"><a xlink:href="statusindicators__factory__interface_8hpp.xhtml" target="_top" xlink:title=" ">
<polygon fill="white" stroke="#666666" points="198.5,-118 49.5,-118 49.5,-77 198.5,-77 198.5,-118"/>
<text text-anchor="start" x="57.5" y="-106" font-family="Helvetica,sans-Serif" font-size="10.00">lib/application_business</text>
<text text-anchor="start" x="57.5" y="-95" font-family="Helvetica,sans-Serif" font-size="10.00">_rules/include/statusindicators</text>
<text text-anchor="middle" x="124" y="-84" font-family="Helvetica,sans-Serif" font-size="10.00">_factory_interface.hpp</text>
</a>
</g>
</g>
<!-- Node1&#45;&gt;Node2 -->
<g id="edge1" class="edge">
<title>Node1&#45;&gt;Node2</title>
<path fill="none" stroke="#63b8ff" d="M176.55,-145.93C166.77,-137.1 155.59,-127.01 146.07,-118.42"/>
<polygon fill="#63b8ff" stroke="#63b8ff" points="174.15,-148.48 183.92,-152.59 178.84,-143.29 174.15,-148.48"/>
</g>
<!-- Node5 -->
<g id="node5" class="node">
<title>Node5</title>
<g id="a_node5"><a xlink:href="Presenter_8hpp.xhtml" target="_top" xlink:title=" ">
<polygon fill="white" stroke="#666666" points="339,-112.5 217,-112.5 217,-82.5 339,-82.5 339,-112.5"/>
<text text-anchor="start" x="225" y="-100.5" font-family="Helvetica,sans-Serif" font-size="10.00">lib/application_business</text>
<text text-anchor="middle" x="278" y="-89.5" font-family="Helvetica,sans-Serif" font-size="10.00">_rules/src/Presenter.hpp</text>
</a>
</g>
</g>
<!-- Node1&#45;&gt;Node5 -->
<g id="edge4" class="edge">
<title>Node1&#45;&gt;Node5</title>
<path fill="none" stroke="#63b8ff" d="M225.24,-146.12C237.26,-135.27 251.44,-122.48 262.07,-112.88"/>
<polygon fill="#63b8ff" stroke="#63b8ff" points="223.16,-143.29 218.08,-152.59 227.85,-148.48 223.16,-143.29"/>
</g>
<!-- Node3 -->
<g id="node3" class="node">
<title>Node3</title>
<g id="a_node3"><a xlink:href="presenter__factory__interface_8cpp.xhtml" target="_top" xlink:title=" ">
<polygon fill="white" stroke="#666666" points="267.5,-41 130.5,-41 130.5,0 267.5,0 267.5,-41"/>
<text text-anchor="start" x="138.5" y="-29" font-family="Helvetica,sans-Serif" font-size="10.00">lib/application_business</text>
<text text-anchor="start" x="138.5" y="-18" font-family="Helvetica,sans-Serif" font-size="10.00">_rules/src/presenter_factory</text>
<text text-anchor="middle" x="199" y="-7" font-family="Helvetica,sans-Serif" font-size="10.00">_interface.cpp</text>
</a>
</g>
</g>
<!-- Node2&#45;&gt;Node3 -->
<g id="edge2" class="edge">
<title>Node2&#45;&gt;Node3</title>
<path fill="none" stroke="#63b8ff" d="M151.76,-68.74C160.86,-59.64 170.78,-49.72 179.17,-41.33"/>
<polygon fill="#63b8ff" stroke="#63b8ff" points="149.37,-66.18 144.78,-75.72 154.32,-71.13 149.37,-66.18"/>
</g>
<!-- Node4 -->
<g id="node4" class="node">
<title>Node4</title>
<g id="a_node4"><a xlink:href="statusindicators__factory__interface_8cpp.xhtml" target="_top" xlink:title=" ">
<polygon fill="white" stroke="#666666" points="112,-41 0,-41 0,0 112,0 112,-41"/>
<text text-anchor="start" x="8" y="-29" font-family="Helvetica,sans-Serif" font-size="10.00">lib/board_adapters</text>
<text text-anchor="start" x="8" y="-18" font-family="Helvetica,sans-Serif" font-size="10.00">/src/statusindicators</text>
<text text-anchor="middle" x="56" y="-7" font-family="Helvetica,sans-Serif" font-size="10.00">_factory_interface.cpp</text>
</a>
</g>
</g>
<!-- Node2&#45;&gt;Node4 -->
<g id="edge3" class="edge">
<title>Node2&#45;&gt;Node4</title>
<path fill="none" stroke="#63b8ff" d="M98.58,-68.46C90.4,-59.44 81.51,-49.64 73.98,-41.33"/>
<polygon fill="#63b8ff" stroke="#63b8ff" points="95.81,-70.62 105.12,-75.67 100.99,-65.91 95.81,-70.62"/>
</g>
<!-- Node5&#45;&gt;Node3 -->
<g id="edge6" class="edge">
<title>Node5&#45;&gt;Node3</title>
<path fill="none" stroke="#63b8ff" d="M254.46,-74.15C243.47,-63.72 230.49,-51.4 219.86,-41.3"/>
<polygon fill="#63b8ff" stroke="#63b8ff" points="252.01,-76.65 261.67,-81 256.83,-71.57 252.01,-76.65"/>
</g>
<!-- Node6 -->
<g id="node6" class="node">
<title>Node6</title>
<g id="a_node6"><a xlink:href="Presenter_8cpp.xhtml" target="_top" xlink:title=" ">
<polygon fill="white" stroke="#666666" points="408,-35.5 286,-35.5 286,-5.5 408,-5.5 408,-35.5"/>
<text text-anchor="start" x="294" y="-23.5" font-family="Helvetica,sans-Serif" font-size="10.00">lib/application_business</text>
<text text-anchor="middle" x="347" y="-12.5" font-family="Helvetica,sans-Serif" font-size="10.00">_rules/src/Presenter.cpp</text>
</a>
</g>
</g>
<!-- Node5&#45;&gt;Node6 -->
<g id="edge5" class="edge">
<title>Node5&#45;&gt;Node6</title>
<path fill="none" stroke="#63b8ff" d="M299.04,-73.63C310.34,-61.35 323.92,-46.59 333.74,-35.92"/>
<polygon fill="#63b8ff" stroke="#63b8ff" points="296.52,-71.2 292.33,-80.93 301.68,-75.94 296.52,-71.2"/>
</g>
</g>
</svg>
