<?xml version="1.0" encoding="UTF-8" standalone="no"?>
<!DOCTYPE svg PUBLIC "-//W3C//DTD SVG 1.1//EN"
 "http://www.w3.org/Graphics/SVG/1.1/DTD/svg11.dtd">
<!-- Generated by graphviz version 7.0.5 (20221223.1930)
 -->
<!-- Title: lib/application_business_rules/include/hmi_configuration.hpp Pages: 1 -->
<svg width="534pt" height="258pt"
 viewBox="0.00 0.00 533.50 258.00" xmlns="http://www.w3.org/2000/svg" xmlns:xlink="http://www.w3.org/1999/xlink">
<g id="graph0" class="graph" transform="scale(1 1) rotate(0) translate(4 254)">
<title>lib/application_business_rules/include/hmi_configuration.hpp</title>
<!-- Node1 -->
<g id="node1" class="node">
<title>Node1</title>
<g id="a_node1"><a xlink:title=" ">
<polygon fill="#999999" stroke="#666666" points="383,-250 210,-250 210,-220 383,-220 383,-250"/>
<text text-anchor="start" x="218" y="-238" font-family="Helvetica,sans-Serif" font-size="10.00">lib/application_business</text>
<text text-anchor="middle" x="296.5" y="-227" font-family="Helvetica,sans-Serif" font-size="10.00">_rules/include/hmi_configuration.hpp</text>
</a>
</g>
</g>
<!-- Node2 -->
<g id="node2" class="node">
<title>Node2</title>
<g id="a_node2"><a xlink:href="Presenter_8hpp.xhtml" target="_top" xlink:title=" ">
<polygon fill="white" stroke="#666666" points="285.5,-178.5 145.5,-178.5 145.5,-148.5 285.5,-148.5 285.5,-178.5"/>
<text text-anchor="start" x="153.5" y="-166.5" font-family="Helvetica,sans-Serif" font-size="10.00">lib/application_business</text>
<text text-anchor="middle" x="215.5" y="-155.5" font-family="Helvetica,sans-Serif" font-size="10.00">_rules/include/Presenter.hpp</text>
</a>
</g>
</g>
<!-- Node1&#45;&gt;Node2 -->
<g id="edge1" class="edge">
<title>Node1&#45;&gt;Node2</title>
<path fill="none" stroke="#63b8ff" d="M271,-212.12C258.36,-201.27 243.44,-188.48 232.26,-178.88"/>
<polygon fill="#63b8ff" stroke="#63b8ff" points="268.7,-214.76 278.57,-218.61 273.26,-209.45 268.7,-214.76"/>
</g>
<!-- Node7 -->
<g id="node7" class="node">
<title>Node7</title>
<g id="a_node7"><a xlink:href="statusindicators__factory__interface_8hpp.xhtml" target="_top" xlink:title=" ">
<polygon fill="white" stroke="#666666" points="460,-184 311,-184 311,-143 460,-143 460,-184"/>
<text text-anchor="start" x="319" y="-172" font-family="Helvetica,sans-Serif" font-size="10.00">lib/application_business</text>
<text text-anchor="start" x="319" y="-161" font-family="Helvetica,sans-Serif" font-size="10.00">_rules/include/statusindicators</text>
<text text-anchor="middle" x="385.5" y="-150" font-family="Helvetica,sans-Serif" font-size="10.00">_factory_interface.hpp</text>
</a>
</g>
</g>
<!-- Node1&#45;&gt;Node7 -->
<g id="edge7" class="edge">
<title>Node1&#45;&gt;Node7</title>
<path fill="none" stroke="#63b8ff" d="M323.73,-212.74C335.27,-203.72 348.65,-193.28 360,-184.42"/>
<polygon fill="#63b8ff" stroke="#63b8ff" points="321.86,-209.75 316.13,-218.67 326.17,-215.27 321.86,-209.75"/>
</g>
<!-- Node3 -->
<g id="node3" class="node">
<title>Node3</title>
<g id="a_node3"><a xlink:href="ProcessHmiInputs_8hpp.xhtml" target="_top" xlink:title=" ">
<polygon fill="white" stroke="#666666" points="179,-101.5 0,-101.5 0,-71.5 179,-71.5 179,-101.5"/>
<text text-anchor="start" x="8" y="-89.5" font-family="Helvetica,sans-Serif" font-size="10.00">lib/application_business</text>
<text text-anchor="middle" x="89.5" y="-78.5" font-family="Helvetica,sans-Serif" font-size="10.00">_rules/include/ProcessHmiInputs.hpp</text>
</a>
</g>
</g>
<!-- Node2&#45;&gt;Node3 -->
<g id="edge2" class="edge">
<title>Node2&#45;&gt;Node3</title>
<path fill="none" stroke="#63b8ff" d="M181.52,-142.27C160.1,-129.52 132.96,-113.37 113.72,-101.92"/>
<polygon fill="#63b8ff" stroke="#63b8ff" points="179.52,-145.16 189.91,-147.27 183.1,-139.14 179.52,-145.16"/>
</g>
<!-- Node5 -->
<g id="node5" class="node">
<title>Node5</title>
<g id="a_node5"><a xlink:href="main_8cpp.xhtml" target="_top" xlink:title=" ">
<polygon fill="white" stroke="#666666" points="252.5,-24.5 180.5,-24.5 180.5,-5.5 252.5,-5.5 252.5,-24.5"/>
<text text-anchor="middle" x="216.5" y="-12.5" font-family="Helvetica,sans-Serif" font-size="10.00">src/main.cpp</text>
</a>
</g>
</g>
<!-- Node2&#45;&gt;Node5 -->
<g id="edge6" class="edge">
<title>Node2&#45;&gt;Node5</title>
<path fill="none" stroke="#63b8ff" d="M215.67,-137.02C215.9,-103.52 216.29,-46.37 216.44,-24.69"/>
<polygon fill="#63b8ff" stroke="#63b8ff" points="212.18,-136.65 215.61,-146.67 219.18,-136.7 212.18,-136.65"/>
</g>
<!-- Node6 -->
<g id="node6" class="node">
<title>Node6</title>
<g id="a_node6"><a xlink:href="Presenter_8cpp.xhtml" target="_top" xlink:title=" ">
<polygon fill="white" stroke="#666666" points="357.5,-101.5 235.5,-101.5 235.5,-71.5 357.5,-71.5 357.5,-101.5"/>
<text text-anchor="start" x="243.5" y="-89.5" font-family="Helvetica,sans-Serif" font-size="10.00">lib/application_business</text>
<text text-anchor="middle" x="296.5" y="-78.5" font-family="Helvetica,sans-Serif" font-size="10.00">_rules/src/Presenter.cpp</text>
</a>
</g>
</g>
<!-- Node2&#45;&gt;Node6 -->
<g id="edge5" class="edge">
<title>Node2&#45;&gt;Node6</title>
<path fill="none" stroke="#63b8ff" d="M239.43,-140.34C252.84,-127.93 269.18,-112.8 280.93,-101.92"/>
<polygon fill="#63b8ff" stroke="#63b8ff" points="237.19,-137.65 232.23,-147.01 241.94,-142.78 237.19,-137.65"/>
</g>
<!-- Node4 -->
<g id="node4" class="node">
<title>Node4</title>
<g id="a_node4"><a xlink:href="ProcessHmiInputs_8cpp.xhtml" target="_top" xlink:title=" ">
<polygon fill="white" stroke="#666666" points="162,-30 1,-30 1,0 162,0 162,-30"/>
<text text-anchor="start" x="9" y="-18" font-family="Helvetica,sans-Serif" font-size="10.00">lib/application_business</text>
<text text-anchor="middle" x="81.5" y="-7" font-family="Helvetica,sans-Serif" font-size="10.00">_rules/src/ProcessHmiInputs.cpp</text>
</a>
</g>
</g>
<!-- Node3&#45;&gt;Node4 -->
<g id="edge3" class="edge">
<title>Node3&#45;&gt;Node4</title>
<path fill="none" stroke="#63b8ff" d="M86.54,-59.76C85.39,-49.83 84.13,-38.86 83.16,-30.38"/>
<polygon fill="#63b8ff" stroke="#63b8ff" points="83.05,-60.06 87.67,-69.6 90,-59.26 83.05,-60.06"/>
</g>
<!-- Node3&#45;&gt;Node5 -->
<g id="edge4" class="edge">
<title>Node3&#45;&gt;Node5</title>
<path fill="none" stroke="#63b8ff" d="M125.87,-65.6C150.42,-52.16 181.62,-35.09 200.28,-24.88"/>
<polygon fill="#63b8ff" stroke="#63b8ff" points="124.23,-62.5 117.14,-70.37 127.59,-68.64 124.23,-62.5"/>
</g>
<!-- Node7&#45;&gt;Node5 -->
<g id="edge9" class="edge">
<title>Node7&#45;&gt;Node5</title>
<path fill="none" stroke="#63b8ff" d="M387.03,-131.14C386.37,-110.32 382.06,-83.68 366.5,-66 337.75,-33.34 287.1,-21.96 252.69,-18.02"/>
<polygon fill="#63b8ff" stroke="#63b8ff" points="383.53,-131.1 387.06,-141.09 390.53,-131.08 383.53,-131.1"/>
</g>
<!-- Node8 -->
<g id="node8" class="node">
<title>Node8</title>
<g id="a_node8"><a xlink:href="statusindicators__factory__interface_8cpp.xhtml" target="_top" xlink:title=" ">
<polygon fill="white" stroke="#666666" points="525.5,-107 413.5,-107 413.5,-66 525.5,-66 525.5,-107"/>
<text text-anchor="start" x="421.5" y="-95" font-family="Helvetica,sans-Serif" font-size="10.00">lib/board_adapters</text>
<text text-anchor="start" x="421.5" y="-84" font-family="Helvetica,sans-Serif" font-size="10.00">/src/statusindicators</text>
<text text-anchor="middle" x="469.5" y="-73" font-family="Helvetica,sans-Serif" font-size="10.00">_factory_interface.cpp</text>
</a>
</g>
</g>
<!-- Node7&#45;&gt;Node8 -->
<g id="edge8" class="edge">
<title>Node7&#45;&gt;Node8</title>
<path fill="none" stroke="#63b8ff" d="M415.97,-135.29C426.33,-126.05 437.7,-115.89 447.29,-107.33"/>
<polygon fill="#63b8ff" stroke="#63b8ff" points="413.83,-132.52 408.7,-141.79 418.49,-137.74 413.83,-132.52"/>
</g>
</g>
</svg>
