<?xml version="1.0" encoding="UTF-8" standalone="no"?>
<!DOCTYPE svg PUBLIC "-//W3C//DTD SVG 1.1//EN"
 "http://www.w3.org/Graphics/SVG/1.1/DTD/svg11.dtd">
<!-- Generated by graphviz version 7.0.5 (20221223.1930)
 -->
<!-- Title: lib/application_business_rules/include/hmi_configuration.hpp Pages: 1 -->
<svg width="534pt" height="258pt"
 viewBox="0.00 0.00 534.00 258.00" xmlns="http://www.w3.org/2000/svg" xmlns:xlink="http://www.w3.org/1999/xlink">
<g id="graph0" class="graph" transform="scale(1 1) rotate(0) translate(4 254)">
<title>lib/application_business_rules/include/hmi_configuration.hpp</title>
<!-- Node1 -->
<g id="node1" class="node">
<title>Node1</title>
<g id="a_node1"><a xlink:title=" ">
<polygon fill="#999999" stroke="#666666" points="303.5,-250 130.5,-250 130.5,-220 303.5,-220 303.5,-250"/>
<text text-anchor="start" x="138.5" y="-238" font-family="Helvetica,sans-Serif" font-size="10.00">lib/application_business</text>
<text text-anchor="middle" x="217" y="-227" font-family="Helvetica,sans-Serif" font-size="10.00">_rules/include/hmi_configuration.hpp</text>
</a>
</g>
</g>
<!-- Node2 -->
<g id="node2" class="node">
<title>Node2</title>
<g id="a_node2"><a xlink:href="statusindicators__factory__interface_8hpp.xhtml" target="_top" xlink:title=" ">
<polygon fill="white" stroke="#666666" points="214.5,-184 65.5,-184 65.5,-143 214.5,-143 214.5,-184"/>
<text text-anchor="start" x="73.5" y="-172" font-family="Helvetica,sans-Serif" font-size="10.00">lib/application_business</text>
<text text-anchor="start" x="73.5" y="-161" font-family="Helvetica,sans-Serif" font-size="10.00">_rules/include/statusindicators</text>
<text text-anchor="middle" x="140" y="-150" font-family="Helvetica,sans-Serif" font-size="10.00">_factory_interface.hpp</text>
</a>
</g>
</g>
<!-- Node1&#45;&gt;Node2 -->
<g id="edge1" class="edge">
<title>Node1&#45;&gt;Node2</title>
<path fill="none" stroke="#63b8ff" d="M192.55,-211.93C182.77,-203.1 171.59,-193.01 162.07,-184.42"/>
<polygon fill="#63b8ff" stroke="#63b8ff" points="190.15,-214.48 199.92,-218.59 194.84,-209.29 190.15,-214.48"/>
</g>
<!-- Node5 -->
<g id="node5" class="node">
<title>Node5</title>
<g id="a_node5"><a xlink:href="Presenter_8hpp.xhtml" target="_top" xlink:title=" ">
<polygon fill="white" stroke="#666666" points="356,-178.5 234,-178.5 234,-148.5 356,-148.5 356,-178.5"/>
<text text-anchor="start" x="242" y="-166.5" font-family="Helvetica,sans-Serif" font-size="10.00">lib/application_business</text>
<text text-anchor="middle" x="295" y="-155.5" font-family="Helvetica,sans-Serif" font-size="10.00">_rules/src/Presenter.hpp</text>
</a>
</g>
</g>
<!-- Node1&#45;&gt;Node5 -->
<g id="edge4" class="edge">
<title>Node1&#45;&gt;Node5</title>
<path fill="none" stroke="#63b8ff" d="M241.56,-212.12C253.73,-201.27 268.09,-188.48 278.86,-178.88"/>
<polygon fill="#63b8ff" stroke="#63b8ff" points="239.43,-209.33 234.29,-218.59 244.09,-214.55 239.43,-209.33"/>
</g>
<!-- Node3 -->
<g id="node3" class="node">
<title>Node3</title>
<g id="a_node3"><a xlink:href="statusindicators__factory__interface_8cpp.xhtml" target="_top" xlink:title=" ">
<polygon fill="white" stroke="#666666" points="112,-107 0,-107 0,-66 112,-66 112,-107"/>
<text text-anchor="start" x="8" y="-95" font-family="Helvetica,sans-Serif" font-size="10.00">lib/board_adapters</text>
<text text-anchor="start" x="8" y="-84" font-family="Helvetica,sans-Serif" font-size="10.00">/src/statusindicators</text>
<text text-anchor="middle" x="56" y="-73" font-family="Helvetica,sans-Serif" font-size="10.00">_factory_interface.cpp</text>
</a>
</g>
</g>
<!-- Node2&#45;&gt;Node3 -->
<g id="edge2" class="edge">
<title>Node2&#45;&gt;Node3</title>
<path fill="none" stroke="#63b8ff" d="M109.53,-135.29C99.17,-126.05 87.8,-115.89 78.21,-107.33"/>
<polygon fill="#63b8ff" stroke="#63b8ff" points="107.01,-137.74 116.8,-141.79 111.67,-132.52 107.01,-137.74"/>
</g>
<!-- Node4 -->
<g id="node4" class="node">
<title>Node4</title>
<g id="a_node4"><a xlink:href="main_8cpp.xhtml" target="_top" xlink:title=" ">
<polygon fill="white" stroke="#666666" points="205,-24.5 133,-24.5 133,-5.5 205,-5.5 205,-24.5"/>
<text text-anchor="middle" x="169" y="-12.5" font-family="Helvetica,sans-Serif" font-size="10.00">src/main.cpp</text>
</a>
</g>
</g>
<!-- Node2&#45;&gt;Node4 -->
<g id="edge3" class="edge">
<title>Node2&#45;&gt;Node4</title>
<path fill="none" stroke="#63b8ff" d="M146.11,-131.63C152.8,-97.83 163.13,-45.66 167.23,-24.93"/>
<polygon fill="#63b8ff" stroke="#63b8ff" points="142.71,-130.77 144.2,-141.26 149.58,-132.13 142.71,-130.77"/>
</g>
<!-- Node5&#45;&gt;Node4 -->
<g id="edge9" class="edge">
<title>Node5&#45;&gt;Node4</title>
<path fill="none" stroke="#63b8ff" d="M245.84,-143.33C228.66,-134.52 210.54,-122.51 198,-107 177.67,-81.85 171.49,-42.22 169.69,-24.75"/>
<polygon fill="#63b8ff" stroke="#63b8ff" points="243.92,-146.29 254.45,-147.49 246.97,-139.99 243.92,-146.29"/>
</g>
<!-- Node6 -->
<g id="node6" class="node">
<title>Node6</title>
<g id="a_node6"><a xlink:href="ProcessHmiInputs_8hpp.xhtml" target="_top" xlink:title=" ">
<polygon fill="white" stroke="#666666" points="385.5,-101.5 206.5,-101.5 206.5,-71.5 385.5,-71.5 385.5,-101.5"/>
<text text-anchor="start" x="214.5" y="-89.5" font-family="Helvetica,sans-Serif" font-size="10.00">lib/application_business</text>
<text text-anchor="middle" x="296" y="-78.5" font-family="Helvetica,sans-Serif" font-size="10.00">_rules/include/ProcessHmiInputs.hpp</text>
</a>
</g>
</g>
<!-- Node5&#45;&gt;Node6 -->
<g id="edge5" class="edge">
<title>Node5&#45;&gt;Node6</title>
<path fill="none" stroke="#63b8ff" d="M295.34,-136.73C295.5,-125.08 295.68,-111.76 295.81,-101.92"/>
<polygon fill="#63b8ff" stroke="#63b8ff" points="291.85,-136.48 295.21,-146.53 298.85,-136.57 291.85,-136.48"/>
</g>
<!-- Node8 -->
<g id="node8" class="node">
<title>Node8</title>
<g id="a_node8"><a xlink:href="Presenter_8cpp.xhtml" target="_top" xlink:title=" ">
<polygon fill="white" stroke="#666666" points="526,-101.5 404,-101.5 404,-71.5 526,-71.5 526,-101.5"/>
<text text-anchor="start" x="412" y="-89.5" font-family="Helvetica,sans-Serif" font-size="10.00">lib/application_business</text>
<text text-anchor="middle" x="465" y="-78.5" font-family="Helvetica,sans-Serif" font-size="10.00">_rules/src/Presenter.cpp</text>
</a>
</g>
</g>
<!-- Node5&#45;&gt;Node8 -->
<g id="edge8" class="edge">
<title>Node5&#45;&gt;Node8</title>
<path fill="none" stroke="#63b8ff" d="M338.13,-143.47C367.42,-130.55 405.54,-113.73 432.32,-101.92"/>
<polygon fill="#63b8ff" stroke="#63b8ff" points="336.9,-140.19 329.16,-147.43 339.72,-146.59 336.9,-140.19"/>
</g>
<!-- Node6&#45;&gt;Node4 -->
<g id="edge7" class="edge">
<title>Node6&#45;&gt;Node4</title>
<path fill="none" stroke="#63b8ff" d="M259.63,-65.6C235.08,-52.16 203.88,-35.09 185.22,-24.88"/>
<polygon fill="#63b8ff" stroke="#63b8ff" points="257.91,-68.64 268.36,-70.37 261.27,-62.5 257.91,-68.64"/>
</g>
<!-- Node7 -->
<g id="node7" class="node">
<title>Node7</title>
<g id="a_node7"><a xlink:href="ProcessHmiInputs_8cpp.xhtml" target="_top" xlink:title=" ">
<polygon fill="white" stroke="#666666" points="384.5,-30 223.5,-30 223.5,0 384.5,0 384.5,-30"/>
<text text-anchor="start" x="231.5" y="-18" font-family="Helvetica,sans-Serif" font-size="10.00">lib/application_business</text>
<text text-anchor="middle" x="304" y="-7" font-family="Helvetica,sans-Serif" font-size="10.00">_rules/src/ProcessHmiInputs.cpp</text>
</a>
</g>
</g>
<!-- Node6&#45;&gt;Node7 -->
<g id="edge6" class="edge">
<title>Node6&#45;&gt;Node7</title>
<path fill="none" stroke="#63b8ff" d="M298.96,-59.76C300.11,-49.83 301.37,-38.86 302.34,-30.38"/>
<polygon fill="#63b8ff" stroke="#63b8ff" points="295.5,-59.26 297.83,-69.6 302.45,-60.06 295.5,-59.26"/>
</g>
</g>
</svg>
