<?xml version="1.0" encoding="UTF-8" standalone="no"?>
<!DOCTYPE svg PUBLIC "-//W3C//DTD SVG 1.1//EN"
 "http://www.w3.org/Graphics/SVG/1.1/DTD/svg11.dtd">
<!-- Generated by graphviz version 7.0.5 (20221223.1930)
 -->
<!-- Title: lib/application_business_rules/include/IController.hpp Pages: 1 -->
<svg width="150pt" height="148pt"
 viewBox="0.00 0.00 150.00 148.00" xmlns="http://www.w3.org/2000/svg" xmlns:xlink="http://www.w3.org/1999/xlink">
<g id="graph0" class="graph" transform="scale(1 1) rotate(0) translate(4 144)">
<title>lib/application_business_rules/include/IController.hpp</title>
<!-- Node1 -->
<g id="node1" class="node">
<title>Node1</title>
<g id="a_node1"><a xlink:title=" ">
<polygon fill="#999999" stroke="#666666" points="142,-140 0,-140 0,-110 142,-110 142,-140"/>
<text text-anchor="start" x="8" y="-128" font-family="Helvetica,sans-Serif" font-size="10.00">lib/application_business</text>
<text text-anchor="middle" x="71" y="-117" font-family="Helvetica,sans-Serif" font-size="10.00">_rules/include/IController.hpp</text>
</a>
</g>
</g>
<!-- Node2 -->
<g id="node2" class="node">
<title>Node2</title>
<g id="a_node2"><a xlink:href="KeyIds_8hpp.xhtml" target="_top" xlink:title=" ">
<polygon fill="white" stroke="#666666" points="65.5,-74 0.5,-74 0.5,-55 65.5,-55 65.5,-74"/>
<text text-anchor="middle" x="33" y="-62" font-family="Helvetica,sans-Serif" font-size="10.00">KeyIds.hpp</text>
</a>
</g>
</g>
<!-- Node1&#45;&gt;Node2 -->
<g id="edge1" class="edge">
<title>Node1&#45;&gt;Node2</title>
<path fill="none" stroke="#63b8ff" d="M61.61,-109.54C56.54,-101.74 50.23,-92.03 44.83,-83.71"/>
<polygon fill="#63b8ff" stroke="#63b8ff" points="47.84,-81.92 39.46,-75.44 41.97,-85.74 47.84,-81.92"/>
</g>
<!-- Node4 -->
<g id="node4" class="node">
<title>Node4</title>
<g id="a_node4"><a xlink:title=" ">
<polygon fill="#e0e0e0" stroke="#999999" points="134,-74 84,-74 84,-55 134,-55 134,-74"/>
<text text-anchor="middle" x="109" y="-62" font-family="Helvetica,sans-Serif" font-size="10.00">optional</text>
</a>
</g>
</g>
<!-- Node1&#45;&gt;Node4 -->
<g id="edge3" class="edge">
<title>Node1&#45;&gt;Node4</title>
<path fill="none" stroke="#63b8ff" d="M80.39,-109.54C85.46,-101.74 91.77,-92.03 97.17,-83.71"/>
<polygon fill="#63b8ff" stroke="#63b8ff" points="100.03,-85.74 102.54,-75.44 94.16,-81.92 100.03,-85.74"/>
</g>
<!-- Node3 -->
<g id="node3" class="node">
<title>Node3</title>
<g id="a_node3"><a xlink:title=" ">
<polygon fill="#e0e0e0" stroke="#999999" points="59,-19 7,-19 7,0 59,0 59,-19"/>
<text text-anchor="middle" x="33" y="-7" font-family="Helvetica,sans-Serif" font-size="10.00">ostream</text>
</a>
</g>
</g>
<!-- Node2&#45;&gt;Node3 -->
<g id="edge2" class="edge">
<title>Node2&#45;&gt;Node3</title>
<path fill="none" stroke="#63b8ff" d="M33,-54.75C33,-48.27 33,-39.16 33,-30.9"/>
<polygon fill="#63b8ff" stroke="#63b8ff" points="36.5,-30.96 33,-20.96 29.5,-30.96 36.5,-30.96"/>
</g>
</g>
</svg>
