<?xml version="1.0" encoding="UTF-8" standalone="no"?>
<!DOCTYPE svg PUBLIC "-//W3C//DTD SVG 1.1//EN"
 "http://www.w3.org/Graphics/SVG/1.1/DTD/svg11.dtd">
<!-- Generated by graphviz version 7.0.5 (20221223.1930)
 -->
<!-- Title: lib/application_business_rules/include/IController.hpp Pages: 1 -->
<svg width="667pt" height="192pt"
 viewBox="0.00 0.00 667.00 192.00" xmlns="http://www.w3.org/2000/svg" xmlns:xlink="http://www.w3.org/1999/xlink">
<g id="graph0" class="graph" transform="scale(1 1) rotate(0) translate(4 188)">
<title>lib/application_business_rules/include/IController.hpp</title>
<!-- Node1 -->
<g id="node1" class="node">
<title>Node1</title>
<g id="a_node1"><a xlink:title=" ">
<polygon fill="#999999" stroke="#666666" points="409.5,-184 267.5,-184 267.5,-154 409.5,-154 409.5,-184"/>
<text text-anchor="start" x="275.5" y="-172" font-family="Helvetica,sans-Serif" font-size="10.00">lib/application_business</text>
<text text-anchor="middle" x="338.5" y="-161" font-family="Helvetica,sans-Serif" font-size="10.00">_rules/include/IController.hpp</text>
</a>
</g>
</g>
<!-- Node2 -->
<g id="node2" class="node">
<title>Node2</title>
<g id="a_node2"><a xlink:href="ProcessHmiInputs_8hpp.xhtml" target="_top" xlink:title=" ">
<polygon fill="white" stroke="#666666" points="260,-112.5 81,-112.5 81,-82.5 260,-82.5 260,-112.5"/>
<text text-anchor="start" x="89" y="-100.5" font-family="Helvetica,sans-Serif" font-size="10.00">lib/application_business</text>
<text text-anchor="middle" x="170.5" y="-89.5" font-family="Helvetica,sans-Serif" font-size="10.00">_rules/include/ProcessHmiInputs.hpp</text>
</a>
</g>
</g>
<!-- Node1&#45;&gt;Node2 -->
<g id="edge1" class="edge">
<title>Node1&#45;&gt;Node2</title>
<path fill="none" stroke="#63b8ff" d="M293.1,-149.22C265.47,-137.79 230.71,-123.41 205.27,-112.88"/>
<polygon fill="#63b8ff" stroke="#63b8ff" points="291.71,-152.43 302.29,-153.02 294.39,-145.96 291.71,-152.43"/>
</g>
<!-- Node5 -->
<g id="node5" class="node">
<title>Node5</title>
<g id="a_node5"><a xlink:href="controller__factory__interface_8hpp.xhtml" target="_top" xlink:title=" ">
<polygon fill="white" stroke="#666666" points="398.5,-118 278.5,-118 278.5,-77 398.5,-77 398.5,-118"/>
<text text-anchor="start" x="286.5" y="-106" font-family="Helvetica,sans-Serif" font-size="10.00">lib/application_business</text>
<text text-anchor="start" x="286.5" y="-95" font-family="Helvetica,sans-Serif" font-size="10.00">_rules/include/controller</text>
<text text-anchor="middle" x="338.5" y="-84" font-family="Helvetica,sans-Serif" font-size="10.00">_factory_interface.hpp</text>
</a>
</g>
</g>
<!-- Node1&#45;&gt;Node5 -->
<g id="edge4" class="edge">
<title>Node1&#45;&gt;Node5</title>
<path fill="none" stroke="#63b8ff" d="M338.5,-142.36C338.5,-134.45 338.5,-125.87 338.5,-118.42"/>
<polygon fill="#63b8ff" stroke="#63b8ff" points="335,-142.09 338.5,-152.09 342,-142.09 335,-142.09"/>
</g>
<!-- Node7 -->
<g id="node7" class="node">
<title>Node7</title>
<g id="a_node7"><a xlink:href="Controller_8hpp.xhtml" target="_top" xlink:title=" ">
<polygon fill="white" stroke="#666666" points="542.5,-112.5 420.5,-112.5 420.5,-82.5 542.5,-82.5 542.5,-112.5"/>
<text text-anchor="start" x="428.5" y="-100.5" font-family="Helvetica,sans-Serif" font-size="10.00">lib/application_business</text>
<text text-anchor="middle" x="481.5" y="-89.5" font-family="Helvetica,sans-Serif" font-size="10.00">_rules/src/Controller.hpp</text>
</a>
</g>
</g>
<!-- Node1&#45;&gt;Node7 -->
<g id="edge7" class="edge">
<title>Node1&#45;&gt;Node7</title>
<path fill="none" stroke="#63b8ff" d="M378.4,-148.61C401.71,-137.28 430.63,-123.22 451.91,-112.88"/>
<polygon fill="#63b8ff" stroke="#63b8ff" points="376.96,-145.42 369.49,-152.94 380.01,-151.71 376.96,-145.42"/>
</g>
<!-- Node3 -->
<g id="node3" class="node">
<title>Node3</title>
<g id="a_node3"><a xlink:href="ProcessHmiInputs_8cpp.xhtml" target="_top" xlink:title=" ">
<polygon fill="white" stroke="#666666" points="161,-35.5 0,-35.5 0,-5.5 161,-5.5 161,-35.5"/>
<text text-anchor="start" x="8" y="-23.5" font-family="Helvetica,sans-Serif" font-size="10.00">lib/application_business</text>
<text text-anchor="middle" x="80.5" y="-12.5" font-family="Helvetica,sans-Serif" font-size="10.00">_rules/src/ProcessHmiInputs.cpp</text>
</a>
</g>
</g>
<!-- Node2&#45;&gt;Node3 -->
<g id="edge2" class="edge">
<title>Node2&#45;&gt;Node3</title>
<path fill="none" stroke="#63b8ff" d="M144.34,-74.7C129.36,-62.22 110.98,-46.9 97.8,-35.92"/>
<polygon fill="#63b8ff" stroke="#63b8ff" points="142.06,-77.36 151.98,-81.07 146.54,-71.98 142.06,-77.36"/>
</g>
<!-- Node4 -->
<g id="node4" class="node">
<title>Node4</title>
<g id="a_node4"><a xlink:href="main_8cpp.xhtml" target="_top" xlink:title=" ">
<polygon fill="white" stroke="#666666" points="251.5,-30 179.5,-30 179.5,-11 251.5,-11 251.5,-30"/>
<text text-anchor="middle" x="215.5" y="-18" font-family="Helvetica,sans-Serif" font-size="10.00">src/main.cpp</text>
</a>
</g>
</g>
<!-- Node2&#45;&gt;Node4 -->
<g id="edge3" class="edge">
<title>Node2&#45;&gt;Node4</title>
<path fill="none" stroke="#63b8ff" d="M185.05,-72.25C193.68,-57.87 204.08,-40.53 210.23,-30.29"/>
<polygon fill="#63b8ff" stroke="#63b8ff" points="182.1,-70.37 179.96,-80.74 188.1,-73.97 182.1,-70.37"/>
</g>
<!-- Node5&#45;&gt;Node4 -->
<g id="edge6" class="edge">
<title>Node5&#45;&gt;Node4</title>
<path fill="none" stroke="#63b8ff" d="M296.3,-70.77C273.3,-56.75 246.31,-40.29 230.07,-30.38"/>
<polygon fill="#63b8ff" stroke="#63b8ff" points="294.21,-73.59 304.57,-75.81 297.85,-67.62 294.21,-73.59"/>
</g>
<!-- Node6 -->
<g id="node6" class="node">
<title>Node6</title>
<g id="a_node6"><a xlink:href="controller__factory__interface_8cpp.xhtml" target="_top" xlink:title=" ">
<polygon fill="white" stroke="#666666" points="407,-41 270,-41 270,0 407,0 407,-41"/>
<text text-anchor="start" x="278" y="-29" font-family="Helvetica,sans-Serif" font-size="10.00">lib/application_business</text>
<text text-anchor="start" x="278" y="-18" font-family="Helvetica,sans-Serif" font-size="10.00">_rules/src/controller_factory</text>
<text text-anchor="middle" x="338.5" y="-7" font-family="Helvetica,sans-Serif" font-size="10.00">_interface.cpp</text>
</a>
</g>
</g>
<!-- Node5&#45;&gt;Node6 -->
<g id="edge5" class="edge">
<title>Node5&#45;&gt;Node6</title>
<path fill="none" stroke="#63b8ff" d="M338.5,-65.36C338.5,-57.24 338.5,-48.7 338.5,-41.33"/>
<polygon fill="#63b8ff" stroke="#63b8ff" points="335,-65.28 338.5,-75.28 342,-65.28 335,-65.28"/>
</g>
<!-- Node7&#45;&gt;Node6 -->
<g id="edge9" class="edge">
<title>Node7&#45;&gt;Node6</title>
<path fill="none" stroke="#63b8ff" d="M443.87,-76.76C423.1,-65.87 397.36,-52.37 376.53,-41.44"/>
<polygon fill="#63b8ff" stroke="#63b8ff" points="442.11,-79.79 452.59,-81.34 445.36,-73.59 442.11,-79.79"/>
</g>
<!-- Node8 -->
<g id="node8" class="node">
<title>Node8</title>
<g id="a_node8"><a xlink:href="Controller_8cpp.xhtml" target="_top" xlink:title=" ">
<polygon fill="white" stroke="#666666" points="547.5,-35.5 425.5,-35.5 425.5,-5.5 547.5,-5.5 547.5,-35.5"/>
<text text-anchor="start" x="433.5" y="-23.5" font-family="Helvetica,sans-Serif" font-size="10.00">lib/application_business</text>
<text text-anchor="middle" x="486.5" y="-12.5" font-family="Helvetica,sans-Serif" font-size="10.00">_rules/src/Controller.cpp</text>
</a>
</g>
</g>
<!-- Node7&#45;&gt;Node8 -->
<g id="edge8" class="edge">
<title>Node7&#45;&gt;Node8</title>
<path fill="none" stroke="#63b8ff" d="M483.22,-70.73C483.99,-59.08 484.88,-45.76 485.54,-35.92"/>
<polygon fill="#63b8ff" stroke="#63b8ff" points="479.74,-70.32 482.56,-80.53 486.72,-70.78 479.74,-70.32"/>
</g>
<!-- Node9 -->
<g id="node9" class="node">
<title>Node9</title>
<g id="a_node9"><a xlink:href="test__hmi_8cpp.xhtml" target="_top" xlink:title=" ">
<polygon fill="white" stroke="#666666" points="659,-35.5 566,-35.5 566,-5.5 659,-5.5 659,-35.5"/>
<text text-anchor="start" x="574" y="-23.5" font-family="Helvetica,sans-Serif" font-size="10.00">test/test_hmi/test</text>
<text text-anchor="middle" x="612.5" y="-12.5" font-family="Helvetica,sans-Serif" font-size="10.00">_hmi.cpp</text>
</a>
</g>
</g>
<!-- Node7&#45;&gt;Node9 -->
<g id="edge10" class="edge">
<title>Node7&#45;&gt;Node9</title>
<path fill="none" stroke="#63b8ff" d="M516.53,-76.44C538.84,-63.67 567.22,-47.42 587.32,-35.92"/>
<polygon fill="#63b8ff" stroke="#63b8ff" points="515.01,-73.28 508.07,-81.29 518.49,-79.36 515.01,-73.28"/>
</g>
</g>
</svg>
