<?xml version="1.0" encoding="UTF-8" standalone="no"?>
<!DOCTYPE svg PUBLIC "-//W3C//DTD SVG 1.1//EN"
 "http://www.w3.org/Graphics/SVG/1.1/DTD/svg11.dtd">
<!-- Generated by graphviz version 7.0.5 (20221223.1930)
 -->
<!-- Title: lib/application_business_rules/include/IDisplay.hpp Pages: 1 -->
<svg width="905pt" height="313pt"
 viewBox="0.00 0.00 905.01 313.00" xmlns="http://www.w3.org/2000/svg" xmlns:xlink="http://www.w3.org/1999/xlink">
<g id="graph0" class="graph" transform="scale(1 1) rotate(0) translate(4 309)">
<title>lib/application_business_rules/include/IDisplay.hpp</title>
<!-- Node1 -->
<g id="node1" class="node">
<title>Node1</title>
<g id="a_node1"><a xlink:title=" ">
<polygon fill="#999999" stroke="#666666" points="321.51,-305 189.51,-305 189.51,-275 321.51,-275 321.51,-305"/>
<text text-anchor="start" x="197.51" y="-293" font-family="Helvetica,sans-Serif" font-size="10.00">lib/application_business</text>
<text text-anchor="middle" x="255.51" y="-282" font-family="Helvetica,sans-Serif" font-size="10.00">_rules/include/IDisplay.hpp</text>
</a>
</g>
</g>
<!-- Node2 -->
<g id="node2" class="node">
<title>Node2</title>
<g id="a_node2"><a xlink:href="Display_8hpp.xhtml" target="_top" xlink:title=" ">
<polygon fill="white" stroke="#666666" points="167.51,-233.5 55.51,-233.5 55.51,-203.5 167.51,-203.5 167.51,-233.5"/>
<text text-anchor="start" x="63.51" y="-221.5" font-family="Helvetica,sans-Serif" font-size="10.00">lib/3rd_party_adapters</text>
<text text-anchor="middle" x="111.51" y="-210.5" font-family="Helvetica,sans-Serif" font-size="10.00">/src/Display.hpp</text>
</a>
</g>
</g>
<!-- Node1&#45;&gt;Node2 -->
<g id="edge1" class="edge">
<title>Node1&#45;&gt;Node2</title>
<path fill="none" stroke="#63b8ff" d="M215.34,-269.61C191.86,-258.28 162.73,-244.22 141.31,-233.88"/>
<polygon fill="#63b8ff" stroke="#63b8ff" points="213.79,-272.75 224.31,-273.94 216.83,-266.44 213.79,-272.75"/>
</g>
<!-- Node6 -->
<g id="node6" class="node">
<title>Node6</title>
<g id="a_node6"><a xlink:href="Menu_8hpp.xhtml" target="_top" xlink:title=" ">
<polygon fill="white" stroke="#666666" points="528.51,-233.5 406.51,-233.5 406.51,-203.5 528.51,-203.5 528.51,-233.5"/>
<text text-anchor="start" x="414.51" y="-221.5" font-family="Helvetica,sans-Serif" font-size="10.00">lib/application_business</text>
<text text-anchor="middle" x="467.51" y="-210.5" font-family="Helvetica,sans-Serif" font-size="10.00">_rules/include/Menu.hpp</text>
</a>
</g>
</g>
<!-- Node1&#45;&gt;Node6 -->
<g id="edge5" class="edge">
<title>Node1&#45;&gt;Node6</title>
<path fill="none" stroke="#63b8ff" d="M310.27,-271.05C345.44,-259.52 390.52,-244.74 423.39,-233.97"/>
<polygon fill="#63b8ff" stroke="#63b8ff" points="309.55,-267.6 301.14,-274.04 311.73,-274.25 309.55,-267.6"/>
</g>
<!-- Node12 -->
<g id="node12" class="node">
<title>Node12</title>
<g id="a_node12"><a xlink:href="display__factory__interface_8hpp.xhtml" target="_top" xlink:title=" ">
<polygon fill="white" stroke="#666666" points="315.51,-239 195.51,-239 195.51,-198 315.51,-198 315.51,-239"/>
<text text-anchor="start" x="203.51" y="-227" font-family="Helvetica,sans-Serif" font-size="10.00">lib/application_business</text>
<text text-anchor="start" x="203.51" y="-216" font-family="Helvetica,sans-Serif" font-size="10.00">_rules/include/display</text>
<text text-anchor="middle" x="255.51" y="-205" font-family="Helvetica,sans-Serif" font-size="10.00">_factory_interface.hpp</text>
</a>
</g>
</g>
<!-- Node1&#45;&gt;Node12 -->
<g id="edge14" class="edge">
<title>Node1&#45;&gt;Node12</title>
<path fill="none" stroke="#63b8ff" d="M255.51,-263.36C255.51,-255.45 255.51,-246.87 255.51,-239.42"/>
<polygon fill="#63b8ff" stroke="#63b8ff" points="252.01,-263.09 255.51,-273.09 259.01,-263.09 252.01,-263.09"/>
</g>
<!-- Node3 -->
<g id="node3" class="node">
<title>Node3</title>
<g id="a_node3"><a xlink:href="Display_8cpp.xhtml" target="_top" xlink:title=" ">
<polygon fill="white" stroke="#666666" points="127.51,-162 15.51,-162 15.51,-132 127.51,-132 127.51,-162"/>
<text text-anchor="start" x="23.51" y="-150" font-family="Helvetica,sans-Serif" font-size="10.00">lib/3rd_party_adapters</text>
<text text-anchor="middle" x="71.51" y="-139" font-family="Helvetica,sans-Serif" font-size="10.00">/src/Display.cpp</text>
</a>
</g>
</g>
<!-- Node2&#45;&gt;Node3 -->
<g id="edge2" class="edge">
<title>Node2&#45;&gt;Node3</title>
<path fill="none" stroke="#63b8ff" d="M97.63,-193.38C91.68,-183.05 84.94,-171.32 79.79,-162.38"/>
<polygon fill="#63b8ff" stroke="#63b8ff" points="94.45,-194.87 102.47,-201.79 100.52,-191.37 94.45,-194.87"/>
</g>
<!-- Node4 -->
<g id="node4" class="node">
<title>Node4</title>
<g id="a_node4"><a xlink:href="display__factory__interface_8cpp.xhtml" target="_top" xlink:title=" ">
<polygon fill="white" stroke="#666666" points="307.01,-162 146.01,-162 146.01,-132 307.01,-132 307.01,-162"/>
<text text-anchor="start" x="154.01" y="-150" font-family="Helvetica,sans-Serif" font-size="10.00">lib/3rd_party_adapters</text>
<text text-anchor="middle" x="226.51" y="-139" font-family="Helvetica,sans-Serif" font-size="10.00">/src/display_factory_interface.cpp</text>
</a>
</g>
</g>
<!-- Node2&#45;&gt;Node4 -->
<g id="edge3" class="edge">
<title>Node2&#45;&gt;Node4</title>
<path fill="none" stroke="#63b8ff" d="M145.13,-197.18C163.6,-186.02 186.07,-172.44 202.72,-162.38"/>
<polygon fill="#63b8ff" stroke="#63b8ff" points="143.38,-194.15 136.64,-202.32 147.01,-200.14 143.38,-194.15"/>
</g>
<!-- Node5 -->
<g id="node5" class="node">
<title>Node5</title>
<g id="a_node5"><a xlink:href="main_8cpp.xhtml" target="_top" xlink:title=" ">
<polygon fill="white" stroke="#666666" points="547.51,-24.5 475.51,-24.5 475.51,-5.5 547.51,-5.5 547.51,-24.5"/>
<text text-anchor="middle" x="511.51" y="-12.5" font-family="Helvetica,sans-Serif" font-size="10.00">src/main.cpp</text>
</a>
</g>
</g>
<!-- Node2&#45;&gt;Node5 -->
<g id="edge4" class="edge">
<title>Node2&#45;&gt;Node5</title>
<path fill="none" stroke="#63b8ff" d="M58.23,-198.61C22.33,-182.91 -14.88,-158.86 6.51,-132 65.56,-57.85 369.64,-27.17 475.29,-18.64"/>
<polygon fill="#63b8ff" stroke="#63b8ff" points="56.79,-201.8 67.37,-202.42 59.49,-195.34 56.79,-201.8"/>
</g>
<!-- Node6&#45;&gt;Node5 -->
<g id="edge13" class="edge">
<title>Node6&#45;&gt;Node5</title>
<path fill="none" stroke="#63b8ff" d="M480.38,-193.08C484.87,-183.61 489.53,-172.52 492.51,-162 506.88,-111.34 510.43,-47.67 511.27,-24.74"/>
<polygon fill="#63b8ff" stroke="#63b8ff" points="477.28,-191.46 475.97,-201.98 483.55,-194.57 477.28,-191.46"/>
</g>
<!-- Node7 -->
<g id="node7" class="node">
<title>Node7</title>
<g id="a_node7"><a xlink:href="Presenter_8hpp.xhtml" target="_top" xlink:title=" ">
<polygon fill="white" stroke="#666666" points="694.51,-162 554.51,-162 554.51,-132 694.51,-132 694.51,-162"/>
<text text-anchor="start" x="562.51" y="-150" font-family="Helvetica,sans-Serif" font-size="10.00">lib/application_business</text>
<text text-anchor="middle" x="624.51" y="-139" font-family="Helvetica,sans-Serif" font-size="10.00">_rules/include/Presenter.hpp</text>
</a>
</g>
</g>
<!-- Node6&#45;&gt;Node7 -->
<g id="edge6" class="edge">
<title>Node6&#45;&gt;Node7</title>
<path fill="none" stroke="#63b8ff" d="M510.28,-198.57C536.05,-187.16 568.35,-172.86 592.02,-162.38"/>
<polygon fill="#63b8ff" stroke="#63b8ff" points="509.15,-195.24 501.43,-202.49 511.99,-201.64 509.15,-195.24"/>
</g>
<!-- Node11 -->
<g id="node11" class="node">
<title>Node11</title>
<g id="a_node11"><a xlink:href="Menu_8cpp.xhtml" target="_top" xlink:title=" ">
<polygon fill="white" stroke="#666666" points="483.51,-162 363.51,-162 363.51,-132 483.51,-132 483.51,-162"/>
<text text-anchor="start" x="371.51" y="-150" font-family="Helvetica,sans-Serif" font-size="10.00">lib/application_business</text>
<text text-anchor="middle" x="423.51" y="-139" font-family="Helvetica,sans-Serif" font-size="10.00">_rules/src/Menu.cpp</text>
</a>
</g>
</g>
<!-- Node6&#45;&gt;Node11 -->
<g id="edge12" class="edge">
<title>Node6&#45;&gt;Node11</title>
<path fill="none" stroke="#63b8ff" d="M452.24,-193.38C445.7,-183.05 438.28,-171.32 432.62,-162.38"/>
<polygon fill="#63b8ff" stroke="#63b8ff" points="449.28,-195.24 457.59,-201.82 455.19,-191.5 449.28,-195.24"/>
</g>
<!-- Node7&#45;&gt;Node5 -->
<g id="edge11" class="edge">
<title>Node7&#45;&gt;Node5</title>
<path fill="none" stroke="#63b8ff" d="M597.9,-124.38C588.2,-115.97 577.44,-105.96 568.51,-96 547.12,-72.12 526.41,-40.17 516.91,-24.88"/>
<polygon fill="#63b8ff" stroke="#63b8ff" points="595.38,-126.84 605.27,-130.64 599.91,-121.5 595.38,-126.84"/>
</g>
<!-- Node8 -->
<g id="node8" class="node">
<title>Node8</title>
<g id="a_node8"><a xlink:href="ProcessHmiInputs_8hpp.xhtml" target="_top" xlink:title=" ">
<polygon fill="white" stroke="#666666" points="897.01,-96 718.01,-96 718.01,-66 897.01,-66 897.01,-96"/>
<text text-anchor="start" x="726.01" y="-84" font-family="Helvetica,sans-Serif" font-size="10.00">lib/application_business</text>
<text text-anchor="middle" x="807.51" y="-73" font-family="Helvetica,sans-Serif" font-size="10.00">_rules/include/ProcessHmiInputs.hpp</text>
</a>
</g>
</g>
<!-- Node7&#45;&gt;Node8 -->
<g id="edge7" class="edge">
<title>Node7&#45;&gt;Node8</title>
<path fill="none" stroke="#63b8ff" d="M676.16,-127.94C704.67,-117.97 739.6,-105.75 766.27,-96.43"/>
<polygon fill="#63b8ff" stroke="#63b8ff" points="675.29,-124.53 667.01,-131.14 677.61,-131.14 675.29,-124.53"/>
</g>
<!-- Node10 -->
<g id="node10" class="node">
<title>Node10</title>
<g id="a_node10"><a xlink:href="Presenter_8cpp.xhtml" target="_top" xlink:title=" ">
<polygon fill="white" stroke="#666666" points="699.51,-96 577.51,-96 577.51,-66 699.51,-66 699.51,-96"/>
<text text-anchor="start" x="585.51" y="-84" font-family="Helvetica,sans-Serif" font-size="10.00">lib/application_business</text>
<text text-anchor="middle" x="638.51" y="-73" font-family="Helvetica,sans-Serif" font-size="10.00">_rules/src/Presenter.cpp</text>
</a>
</g>
</g>
<!-- Node7&#45;&gt;Node10 -->
<g id="edge10" class="edge">
<title>Node7&#45;&gt;Node10</title>
<path fill="none" stroke="#63b8ff" d="M630.05,-120.68C631.88,-112.34 633.84,-103.37 635.41,-96.16"/>
<polygon fill="#63b8ff" stroke="#63b8ff" points="626.66,-119.8 627.94,-130.32 633.5,-121.3 626.66,-119.8"/>
</g>
<!-- Node8&#45;&gt;Node5 -->
<g id="edge9" class="edge">
<title>Node8&#45;&gt;Node5</title>
<path fill="none" stroke="#63b8ff" d="M729.61,-63.16C670.86,-50.45 592.94,-33.61 547.91,-23.87"/>
<polygon fill="#63b8ff" stroke="#63b8ff" points="728.72,-66.55 739.24,-65.24 730.2,-59.7 728.72,-66.55"/>
</g>
<!-- Node9 -->
<g id="node9" class="node">
<title>Node9</title>
<g id="a_node9"><a xlink:href="ProcessHmiInputs_8cpp.xhtml" target="_top" xlink:title=" ">
<polygon fill="white" stroke="#666666" points="888.01,-30 727.01,-30 727.01,0 888.01,0 888.01,-30"/>
<text text-anchor="start" x="735.01" y="-18" font-family="Helvetica,sans-Serif" font-size="10.00">lib/application_business</text>
<text text-anchor="middle" x="807.51" y="-7" font-family="Helvetica,sans-Serif" font-size="10.00">_rules/src/ProcessHmiInputs.cpp</text>
</a>
</g>
</g>
<!-- Node8&#45;&gt;Node9 -->
<g id="edge8" class="edge">
<title>Node8&#45;&gt;Node9</title>
<path fill="none" stroke="#63b8ff" d="M807.51,-54.39C807.51,-46.13 807.51,-37.28 807.51,-30.16"/>
<polygon fill="#63b8ff" stroke="#63b8ff" points="804.01,-54.28 807.51,-64.28 811.01,-54.28 804.01,-54.28"/>
</g>
<!-- Node12&#45;&gt;Node4 -->
<g id="edge15" class="edge">
<title>Node12&#45;&gt;Node4</title>
<path fill="none" stroke="#63b8ff" d="M242.89,-187.24C239.3,-178.64 235.55,-169.67 232.55,-162.47"/>
<polygon fill="#63b8ff" stroke="#63b8ff" points="239.62,-188.49 246.7,-196.37 246.08,-185.8 239.62,-188.49"/>
</g>
<!-- Node12&#45;&gt;Node5 -->
<g id="edge16" class="edge">
<title>Node12&#45;&gt;Node5</title>
<path fill="none" stroke="#63b8ff" d="M285.91,-190.19C305.24,-173.09 330.98,-150.81 354.51,-132 406.93,-90.1 472.18,-43.62 499.06,-24.71"/>
<polygon fill="#63b8ff" stroke="#63b8ff" points="283.8,-187.39 278.65,-196.65 288.45,-192.62 283.8,-187.39"/>
</g>
</g>
</svg>
