<?xml version="1.0" encoding="UTF-8" standalone="no"?>
<!DOCTYPE svg PUBLIC "-//W3C//DTD SVG 1.1//EN"
 "http://www.w3.org/Graphics/SVG/1.1/DTD/svg11.dtd">
<!-- Generated by graphviz version 7.0.5 (20221223.1930)
 -->
<!-- Title: lib/application_business_rules/include/IDisplay.hpp Pages: 1 -->
<svg width="654pt" height="258pt"
 viewBox="0.00 0.00 654.00 258.00" xmlns="http://www.w3.org/2000/svg" xmlns:xlink="http://www.w3.org/1999/xlink">
<g id="graph0" class="graph" transform="scale(1 1) rotate(0) translate(4 254)">
<title>lib/application_business_rules/include/IDisplay.hpp</title>
<!-- Node1 -->
<g id="node1" class="node">
<title>Node1</title>
<g id="a_node1"><a xlink:title=" ">
<polygon fill="#999999" stroke="#666666" points="374,-250 242,-250 242,-220 374,-220 374,-250"/>
<text text-anchor="start" x="250" y="-238" font-family="Helvetica,sans-Serif" font-size="10.00">lib/application_business</text>
<text text-anchor="middle" x="308" y="-227" font-family="Helvetica,sans-Serif" font-size="10.00">_rules/include/IDisplay.hpp</text>
</a>
</g>
</g>
<!-- Node2 -->
<g id="node2" class="node">
<title>Node2</title>
<g id="a_node2"><a xlink:href="Display_8hpp.xhtml" target="_top" xlink:title=" ">
<polygon fill="white" stroke="#666666" points="230,-178.5 118,-178.5 118,-148.5 230,-148.5 230,-178.5"/>
<text text-anchor="start" x="126" y="-166.5" font-family="Helvetica,sans-Serif" font-size="10.00">lib/3rd_party_adapters</text>
<text text-anchor="middle" x="174" y="-155.5" font-family="Helvetica,sans-Serif" font-size="10.00">/src/Display.hpp</text>
</a>
</g>
</g>
<!-- Node1&#45;&gt;Node2 -->
<g id="edge1" class="edge">
<title>Node1&#45;&gt;Node2</title>
<path fill="none" stroke="#63b8ff" d="M270.02,-214.3C248.28,-203.03 221.48,-189.13 201.73,-178.88"/>
<polygon fill="#63b8ff" stroke="#63b8ff" points="268.4,-217.41 278.89,-218.9 271.63,-211.19 268.4,-217.41"/>
</g>
<!-- Node5 -->
<g id="node5" class="node">
<title>Node5</title>
<g id="a_node5"><a xlink:href="display__factory__interface_8hpp.xhtml" target="_top" xlink:title=" ">
<polygon fill="white" stroke="#666666" points="368,-184 248,-184 248,-143 368,-143 368,-184"/>
<text text-anchor="start" x="256" y="-172" font-family="Helvetica,sans-Serif" font-size="10.00">lib/application_business</text>
<text text-anchor="start" x="256" y="-161" font-family="Helvetica,sans-Serif" font-size="10.00">_rules/include/display</text>
<text text-anchor="middle" x="308" y="-150" font-family="Helvetica,sans-Serif" font-size="10.00">_factory_interface.hpp</text>
</a>
</g>
</g>
<!-- Node1&#45;&gt;Node5 -->
<g id="edge4" class="edge">
<title>Node1&#45;&gt;Node5</title>
<path fill="none" stroke="#63b8ff" d="M308,-208.36C308,-200.45 308,-191.87 308,-184.42"/>
<polygon fill="#63b8ff" stroke="#63b8ff" points="304.5,-208.09 308,-218.09 311.5,-208.09 304.5,-208.09"/>
</g>
<!-- Node7 -->
<g id="node7" class="node">
<title>Node7</title>
<g id="a_node7"><a xlink:href="Menu_8hpp.xhtml" target="_top" xlink:title=" ">
<polygon fill="white" stroke="#666666" points="506,-178.5 386,-178.5 386,-148.5 506,-148.5 506,-178.5"/>
<text text-anchor="start" x="394" y="-166.5" font-family="Helvetica,sans-Serif" font-size="10.00">lib/application_business</text>
<text text-anchor="middle" x="446" y="-155.5" font-family="Helvetica,sans-Serif" font-size="10.00">_rules/src/Menu.hpp</text>
</a>
</g>
</g>
<!-- Node1&#45;&gt;Node7 -->
<g id="edge7" class="edge">
<title>Node1&#45;&gt;Node7</title>
<path fill="none" stroke="#63b8ff" d="M346.81,-214.46C369.25,-203.15 397.01,-189.17 417.44,-178.88"/>
<polygon fill="#63b8ff" stroke="#63b8ff" points="345.3,-211.29 337.95,-218.92 348.45,-217.55 345.3,-211.29"/>
</g>
<!-- Node3 -->
<g id="node3" class="node">
<title>Node3</title>
<g id="a_node3"><a xlink:href="Display_8cpp.xhtml" target="_top" xlink:title=" ">
<polygon fill="white" stroke="#666666" points="112,-107 0,-107 0,-77 112,-77 112,-107"/>
<text text-anchor="start" x="8" y="-95" font-family="Helvetica,sans-Serif" font-size="10.00">lib/3rd_party_adapters</text>
<text text-anchor="middle" x="56" y="-84" font-family="Helvetica,sans-Serif" font-size="10.00">/src/Display.cpp</text>
</a>
</g>
</g>
<!-- Node2&#45;&gt;Node3 -->
<g id="edge2" class="edge">
<title>Node2&#45;&gt;Node3</title>
<path fill="none" stroke="#63b8ff" d="M139.77,-142.34C120.77,-131.15 97.58,-117.49 80.42,-107.38"/>
<polygon fill="#63b8ff" stroke="#63b8ff" points="137.85,-145.27 148.25,-147.33 141.41,-139.24 137.85,-145.27"/>
</g>
<!-- Node4 -->
<g id="node4" class="node">
<title>Node4</title>
<g id="a_node4"><a xlink:href="display__factory__interface_8cpp.xhtml" target="_top" xlink:title=" ">
<polygon fill="white" stroke="#666666" points="291.5,-107 130.5,-107 130.5,-77 291.5,-77 291.5,-107"/>
<text text-anchor="start" x="138.5" y="-95" font-family="Helvetica,sans-Serif" font-size="10.00">lib/3rd_party_adapters</text>
<text text-anchor="middle" x="211" y="-84" font-family="Helvetica,sans-Serif" font-size="10.00">/src/display_factory_interface.cpp</text>
</a>
</g>
</g>
<!-- Node2&#45;&gt;Node4 -->
<g id="edge3" class="edge">
<title>Node2&#45;&gt;Node4</title>
<path fill="none" stroke="#63b8ff" d="M187.01,-138.06C192.47,-127.8 198.63,-116.23 203.34,-107.38"/>
<polygon fill="#63b8ff" stroke="#63b8ff" points="183.99,-136.29 182.38,-146.76 190.17,-139.58 183.99,-136.29"/>
</g>
<!-- Node5&#45;&gt;Node4 -->
<g id="edge5" class="edge">
<title>Node5&#45;&gt;Node4</title>
<path fill="none" stroke="#63b8ff" d="M271.07,-136.04C257.49,-126.31 242.64,-115.67 231.09,-107.4"/>
<polygon fill="#63b8ff" stroke="#63b8ff" points="268.81,-138.72 278.97,-141.7 272.88,-133.03 268.81,-138.72"/>
</g>
<!-- Node6 -->
<g id="node6" class="node">
<title>Node6</title>
<g id="a_node6"><a xlink:href="presenter__factory__interface_8cpp.xhtml" target="_top" xlink:title=" ">
<polygon fill="white" stroke="#666666" points="426.5,-41 289.5,-41 289.5,0 426.5,0 426.5,-41"/>
<text text-anchor="start" x="297.5" y="-29" font-family="Helvetica,sans-Serif" font-size="10.00">lib/application_business</text>
<text text-anchor="start" x="297.5" y="-18" font-family="Helvetica,sans-Serif" font-size="10.00">_rules/src/presenter_factory</text>
<text text-anchor="middle" x="358" y="-7" font-family="Helvetica,sans-Serif" font-size="10.00">_interface.cpp</text>
</a>
</g>
</g>
<!-- Node5&#45;&gt;Node6 -->
<g id="edge6" class="edge">
<title>Node5&#45;&gt;Node6</title>
<path fill="none" stroke="#63b8ff" d="M318.82,-132C328.57,-104.5 342.62,-64.87 350.98,-41.3"/>
<polygon fill="#63b8ff" stroke="#63b8ff" points="315.61,-130.58 315.56,-141.17 322.2,-132.92 315.61,-130.58"/>
</g>
<!-- Node7&#45;&gt;Node6 -->
<g id="edge12" class="edge">
<title>Node7&#45;&gt;Node6</title>
<path fill="none" stroke="#63b8ff" d="M411.26,-141.71C398.71,-132.55 385.54,-120.73 377,-107 364.48,-86.85 360.16,-59.51 358.7,-41.22"/>
<polygon fill="#63b8ff" stroke="#63b8ff" points="409.19,-144.53 419.41,-147.32 413.16,-138.77 409.19,-144.53"/>
</g>
<!-- Node8 -->
<g id="node8" class="node">
<title>Node8</title>
<g id="a_node8"><a xlink:href="Menu_8cpp.xhtml" target="_top" xlink:title=" ">
<polygon fill="white" stroke="#666666" points="506,-107 386,-107 386,-77 506,-77 506,-107"/>
<text text-anchor="start" x="394" y="-95" font-family="Helvetica,sans-Serif" font-size="10.00">lib/application_business</text>
<text text-anchor="middle" x="446" y="-84" font-family="Helvetica,sans-Serif" font-size="10.00">_rules/src/Menu.cpp</text>
</a>
</g>
</g>
<!-- Node7&#45;&gt;Node8 -->
<g id="edge8" class="edge">
<title>Node7&#45;&gt;Node8</title>
<path fill="none" stroke="#63b8ff" d="M446,-136.76C446,-126.83 446,-115.86 446,-107.38"/>
<polygon fill="#63b8ff" stroke="#63b8ff" points="442.5,-136.59 446,-146.59 449.5,-136.59 442.5,-136.59"/>
</g>
<!-- Node9 -->
<g id="node9" class="node">
<title>Node9</title>
<g id="a_node9"><a xlink:href="Presenter_8hpp.xhtml" target="_top" xlink:title=" ">
<polygon fill="white" stroke="#666666" points="646,-107 524,-107 524,-77 646,-77 646,-107"/>
<text text-anchor="start" x="532" y="-95" font-family="Helvetica,sans-Serif" font-size="10.00">lib/application_business</text>
<text text-anchor="middle" x="585" y="-84" font-family="Helvetica,sans-Serif" font-size="10.00">_rules/src/Presenter.hpp</text>
</a>
</g>
</g>
<!-- Node7&#45;&gt;Node9 -->
<g id="edge9" class="edge">
<title>Node7&#45;&gt;Node9</title>
<path fill="none" stroke="#63b8ff" d="M485.09,-142.96C507.7,-131.65 535.65,-117.67 556.24,-107.38"/>
<polygon fill="#63b8ff" stroke="#63b8ff" points="483.53,-139.82 476.15,-147.42 486.66,-146.08 483.53,-139.82"/>
</g>
<!-- Node9&#45;&gt;Node6 -->
<g id="edge11" class="edge">
<title>Node9&#45;&gt;Node6</title>
<path fill="none" stroke="#63b8ff" d="M526.8,-73.18C495.04,-63.46 455.64,-51.4 422.9,-41.37"/>
<polygon fill="#63b8ff" stroke="#63b8ff" points="525.66,-76.49 536.24,-76.07 527.71,-69.8 525.66,-76.49"/>
</g>
<!-- Node10 -->
<g id="node10" class="node">
<title>Node10</title>
<g id="a_node10"><a xlink:href="Presenter_8cpp.xhtml" target="_top" xlink:title=" ">
<polygon fill="white" stroke="#666666" points="646,-35.5 524,-35.5 524,-5.5 646,-5.5 646,-35.5"/>
<text text-anchor="start" x="532" y="-23.5" font-family="Helvetica,sans-Serif" font-size="10.00">lib/application_business</text>
<text text-anchor="middle" x="585" y="-12.5" font-family="Helvetica,sans-Serif" font-size="10.00">_rules/src/Presenter.cpp</text>
</a>
</g>
</g>
<!-- Node9&#45;&gt;Node10 -->
<g id="edge10" class="edge">
<title>Node9&#45;&gt;Node10</title>
<path fill="none" stroke="#63b8ff" d="M585,-65.26C585,-55.33 585,-44.36 585,-35.88"/>
<polygon fill="#63b8ff" stroke="#63b8ff" points="581.5,-65.09 585,-75.09 588.5,-65.09 581.5,-65.09"/>
</g>
</g>
</svg>
