<?xml version="1.0" encoding="UTF-8" standalone="no"?>
<!DOCTYPE svg PUBLIC "-//W3C//DTD SVG 1.1//EN"
 "http://www.w3.org/Graphics/SVG/1.1/DTD/svg11.dtd">
<!-- Generated by graphviz version 7.0.5 (20221223.1930)
 -->
<!-- Title: lib/application_business_rules/include/IDisplay.hpp Pages: 1 -->
<svg width="790pt" height="313pt"
 viewBox="0.00 0.00 790.00 313.00" xmlns="http://www.w3.org/2000/svg" xmlns:xlink="http://www.w3.org/1999/xlink">
<g id="graph0" class="graph" transform="scale(1 1) rotate(0) translate(4 309)">
<title>lib/application_business_rules/include/IDisplay.hpp</title>
<!-- Node1 -->
<g id="node1" class="node">
<title>Node1</title>
<g id="a_node1"><a xlink:title=" ">
<polygon fill="#999999" stroke="#666666" points="401,-305 269,-305 269,-275 401,-275 401,-305"/>
<text text-anchor="start" x="277" y="-293" font-family="Helvetica,sans-Serif" font-size="10.00">lib/application_business</text>
<text text-anchor="middle" x="335" y="-282" font-family="Helvetica,sans-Serif" font-size="10.00">_rules/include/IDisplay.hpp</text>
</a>
</g>
</g>
<!-- Node2 -->
<g id="node2" class="node">
<title>Node2</title>
<g id="a_node2"><a xlink:href="Display_8hpp.xhtml" target="_top" xlink:title=" ">
<polygon fill="white" stroke="#666666" points="237,-233.5 125,-233.5 125,-203.5 237,-203.5 237,-233.5"/>
<text text-anchor="start" x="133" y="-221.5" font-family="Helvetica,sans-Serif" font-size="10.00">lib/3rd_party_adapters</text>
<text text-anchor="middle" x="181" y="-210.5" font-family="Helvetica,sans-Serif" font-size="10.00">/src/Display.hpp</text>
</a>
</g>
</g>
<!-- Node1&#45;&gt;Node2 -->
<g id="edge1" class="edge">
<title>Node1&#45;&gt;Node2</title>
<path fill="none" stroke="#63b8ff" d="M292.71,-269.91C267.49,-258.53 235.98,-244.31 212.87,-233.88"/>
<polygon fill="#63b8ff" stroke="#63b8ff" points="291.16,-273.05 301.71,-273.98 294.04,-266.67 291.16,-273.05"/>
</g>
<!-- Node6 -->
<g id="node6" class="node">
<title>Node6</title>
<g id="a_node6"><a xlink:href="display__factory__interface_8hpp.xhtml" target="_top" xlink:title=" ">
<polygon fill="white" stroke="#666666" points="395,-239 275,-239 275,-198 395,-198 395,-239"/>
<text text-anchor="start" x="283" y="-227" font-family="Helvetica,sans-Serif" font-size="10.00">lib/application_business</text>
<text text-anchor="start" x="283" y="-216" font-family="Helvetica,sans-Serif" font-size="10.00">_rules/include/display</text>
<text text-anchor="middle" x="335" y="-205" font-family="Helvetica,sans-Serif" font-size="10.00">_factory_interface.hpp</text>
</a>
</g>
</g>
<!-- Node1&#45;&gt;Node6 -->
<g id="edge5" class="edge">
<title>Node1&#45;&gt;Node6</title>
<path fill="none" stroke="#63b8ff" d="M335,-263.36C335,-255.45 335,-246.87 335,-239.42"/>
<polygon fill="#63b8ff" stroke="#63b8ff" points="331.5,-263.09 335,-273.09 338.5,-263.09 331.5,-263.09"/>
</g>
<!-- Node7 -->
<g id="node7" class="node">
<title>Node7</title>
<g id="a_node7"><a xlink:href="Menu_8hpp.xhtml" target="_top" xlink:title=" ">
<polygon fill="white" stroke="#666666" points="543,-233.5 423,-233.5 423,-203.5 543,-203.5 543,-233.5"/>
<text text-anchor="start" x="431" y="-221.5" font-family="Helvetica,sans-Serif" font-size="10.00">lib/application_business</text>
<text text-anchor="middle" x="483" y="-210.5" font-family="Helvetica,sans-Serif" font-size="10.00">_rules/src/Menu.hpp</text>
</a>
</g>
</g>
<!-- Node1&#45;&gt;Node7 -->
<g id="edge8" class="edge">
<title>Node1&#45;&gt;Node7</title>
<path fill="none" stroke="#63b8ff" d="M375.97,-269.76C400.15,-258.41 430.26,-244.27 452.37,-233.88"/>
<polygon fill="#63b8ff" stroke="#63b8ff" points="374.6,-266.54 367.04,-273.96 377.58,-272.87 374.6,-266.54"/>
</g>
<!-- Node3 -->
<g id="node3" class="node">
<title>Node3</title>
<g id="a_node3"><a xlink:href="Display_8cpp.xhtml" target="_top" xlink:title=" ">
<polygon fill="white" stroke="#666666" points="112,-162 0,-162 0,-132 112,-132 112,-162"/>
<text text-anchor="start" x="8" y="-150" font-family="Helvetica,sans-Serif" font-size="10.00">lib/3rd_party_adapters</text>
<text text-anchor="middle" x="56" y="-139" font-family="Helvetica,sans-Serif" font-size="10.00">/src/Display.cpp</text>
</a>
</g>
</g>
<!-- Node2&#45;&gt;Node3 -->
<g id="edge2" class="edge">
<title>Node2&#45;&gt;Node3</title>
<path fill="none" stroke="#63b8ff" d="M145.29,-197.65C125.06,-186.4 100.21,-172.58 81.87,-162.38"/>
<polygon fill="#63b8ff" stroke="#63b8ff" points="143.34,-200.56 153.78,-202.36 146.74,-194.45 143.34,-200.56"/>
</g>
<!-- Node4 -->
<g id="node4" class="node">
<title>Node4</title>
<g id="a_node4"><a xlink:href="display__factory__interface_8cpp.xhtml" target="_top" xlink:title=" ">
<polygon fill="white" stroke="#666666" points="329.5,-162 168.5,-162 168.5,-132 329.5,-132 329.5,-162"/>
<text text-anchor="start" x="176.5" y="-150" font-family="Helvetica,sans-Serif" font-size="10.00">lib/3rd_party_adapters</text>
<text text-anchor="middle" x="249" y="-139" font-family="Helvetica,sans-Serif" font-size="10.00">/src/display_factory_interface.cpp</text>
</a>
</g>
</g>
<!-- Node2&#45;&gt;Node4 -->
<g id="edge3" class="edge">
<title>Node2&#45;&gt;Node4</title>
<path fill="none" stroke="#63b8ff" d="M203.03,-194.98C213.51,-184.28 225.72,-171.79 234.93,-162.38"/>
<polygon fill="#63b8ff" stroke="#63b8ff" points="200.64,-192.42 196.15,-202.02 205.64,-197.32 200.64,-192.42"/>
</g>
<!-- Node5 -->
<g id="node5" class="node">
<title>Node5</title>
<g id="a_node5"><a xlink:href="main_8cpp.xhtml" target="_top" xlink:title=" ">
<polygon fill="white" stroke="#666666" points="432,-24.5 360,-24.5 360,-5.5 432,-5.5 432,-24.5"/>
<text text-anchor="middle" x="396" y="-12.5" font-family="Helvetica,sans-Serif" font-size="10.00">src/main.cpp</text>
</a>
</g>
</g>
<!-- Node2&#45;&gt;Node5 -->
<g id="edge4" class="edge">
<title>Node2&#45;&gt;Node5</title>
<path fill="none" stroke="#63b8ff" d="M165.3,-193.39C155.71,-175.36 147.33,-150.7 159,-132 203.25,-61.07 304.86,-32.32 359.55,-21.65"/>
<polygon fill="#63b8ff" stroke="#63b8ff" points="162.15,-194.93 170.18,-201.84 168.21,-191.43 162.15,-194.93"/>
</g>
<!-- Node6&#45;&gt;Node4 -->
<g id="edge6" class="edge">
<title>Node6&#45;&gt;Node4</title>
<path fill="none" stroke="#63b8ff" d="M301.78,-190.65C289.91,-181.06 277,-170.62 266.91,-162.47"/>
<polygon fill="#63b8ff" stroke="#63b8ff" points="299.43,-193.26 309.41,-196.82 303.83,-187.81 299.43,-193.26"/>
</g>
<!-- Node6&#45;&gt;Node5 -->
<g id="edge7" class="edge">
<title>Node6&#45;&gt;Node5</title>
<path fill="none" stroke="#63b8ff" d="M344.29,-186.8C358.51,-139.83 384.91,-52.65 393.34,-24.8"/>
<polygon fill="#63b8ff" stroke="#63b8ff" points="340.95,-185.78 341.4,-196.36 347.65,-187.81 340.95,-185.78"/>
</g>
<!-- Node7&#45;&gt;Node5 -->
<g id="edge16" class="edge">
<title>Node7&#45;&gt;Node5</title>
<path fill="none" stroke="#63b8ff" d="M447.84,-196.78C435.47,-187.69 422.74,-175.9 415,-162 389.27,-115.77 392.73,-48.84 394.99,-24.92"/>
<polygon fill="#63b8ff" stroke="#63b8ff" points="445.67,-199.54 455.89,-202.34 449.65,-193.78 445.67,-199.54"/>
</g>
<!-- Node8 -->
<g id="node8" class="node">
<title>Node8</title>
<g id="a_node8"><a xlink:href="Presenter_8hpp.xhtml" target="_top" xlink:title=" ">
<polygon fill="white" stroke="#666666" points="564,-162 424,-162 424,-132 564,-132 564,-162"/>
<text text-anchor="start" x="432" y="-150" font-family="Helvetica,sans-Serif" font-size="10.00">lib/application_business</text>
<text text-anchor="middle" x="494" y="-139" font-family="Helvetica,sans-Serif" font-size="10.00">_rules/include/Presenter.hpp</text>
</a>
</g>
</g>
<!-- Node7&#45;&gt;Node8 -->
<g id="edge9" class="edge">
<title>Node7&#45;&gt;Node8</title>
<path fill="none" stroke="#63b8ff" d="M487.07,-191.76C488.65,-181.83 490.38,-170.86 491.72,-162.38"/>
<polygon fill="#63b8ff" stroke="#63b8ff" points="483.62,-191.18 485.52,-201.6 490.54,-192.27 483.62,-191.18"/>
</g>
<!-- Node12 -->
<g id="node12" class="node">
<title>Node12</title>
<g id="a_node12"><a xlink:href="Menu_8cpp.xhtml" target="_top" xlink:title=" ">
<polygon fill="white" stroke="#666666" points="702,-162 582,-162 582,-132 702,-132 702,-162"/>
<text text-anchor="start" x="590" y="-150" font-family="Helvetica,sans-Serif" font-size="10.00">lib/application_business</text>
<text text-anchor="middle" x="642" y="-139" font-family="Helvetica,sans-Serif" font-size="10.00">_rules/src/Menu.cpp</text>
</a>
</g>
</g>
<!-- Node7&#45;&gt;Node12 -->
<g id="edge15" class="edge">
<title>Node7&#45;&gt;Node12</title>
<path fill="none" stroke="#63b8ff" d="M526.32,-198.57C552.41,-187.16 585.12,-172.86 609.1,-162.38"/>
<polygon fill="#63b8ff" stroke="#63b8ff" points="525.09,-195.28 517.33,-202.49 527.9,-201.7 525.09,-195.28"/>
</g>
<!-- Node8&#45;&gt;Node5 -->
<g id="edge14" class="edge">
<title>Node8&#45;&gt;Node5</title>
<path fill="none" stroke="#63b8ff" d="M475.1,-122.85C468.35,-114.46 460.75,-104.87 454,-96 434.66,-70.62 412.81,-39.89 402.3,-24.98"/>
<polygon fill="#63b8ff" stroke="#63b8ff" points="472.3,-124.95 481.31,-130.53 477.74,-120.55 472.3,-124.95"/>
</g>
<!-- Node9 -->
<g id="node9" class="node">
<title>Node9</title>
<g id="a_node9"><a xlink:href="ProcessHmiInputs_8hpp.xhtml" target="_top" xlink:title=" ">
<polygon fill="white" stroke="#666666" points="641.5,-96 462.5,-96 462.5,-66 641.5,-66 641.5,-96"/>
<text text-anchor="start" x="470.5" y="-84" font-family="Helvetica,sans-Serif" font-size="10.00">lib/application_business</text>
<text text-anchor="middle" x="552" y="-73" font-family="Helvetica,sans-Serif" font-size="10.00">_rules/include/ProcessHmiInputs.hpp</text>
</a>
</g>
</g>
<!-- Node8&#45;&gt;Node9 -->
<g id="edge10" class="edge">
<title>Node8&#45;&gt;Node9</title>
<path fill="none" stroke="#63b8ff" d="M514.37,-123.53C522.61,-114.43 531.89,-104.19 539.16,-96.16"/>
<polygon fill="#63b8ff" stroke="#63b8ff" points="512.01,-120.91 507.89,-130.67 517.2,-125.62 512.01,-120.91"/>
</g>
<!-- Node11 -->
<g id="node11" class="node">
<title>Node11</title>
<g id="a_node11"><a xlink:href="Presenter_8cpp.xhtml" target="_top" xlink:title=" ">
<polygon fill="white" stroke="#666666" points="782,-96 660,-96 660,-66 782,-66 782,-96"/>
<text text-anchor="start" x="668" y="-84" font-family="Helvetica,sans-Serif" font-size="10.00">lib/application_business</text>
<text text-anchor="middle" x="721" y="-73" font-family="Helvetica,sans-Serif" font-size="10.00">_rules/src/Presenter.cpp</text>
</a>
</g>
</g>
<!-- Node8&#45;&gt;Node11 -->
<g id="edge13" class="edge">
<title>Node8&#45;&gt;Node11</title>
<path fill="none" stroke="#63b8ff" d="M556.03,-128.51C591.8,-118.43 636.23,-105.9 669.96,-96.39"/>
<polygon fill="#63b8ff" stroke="#63b8ff" points="555.36,-125.06 546.68,-131.15 557.26,-131.8 555.36,-125.06"/>
</g>
<!-- Node9&#45;&gt;Node5 -->
<g id="edge12" class="edge">
<title>Node9&#45;&gt;Node5</title>
<path fill="none" stroke="#63b8ff" d="M506.61,-61.38C477.43,-49.41 440.81,-34.38 417.9,-24.99"/>
<polygon fill="#63b8ff" stroke="#63b8ff" points="505.01,-64.51 515.59,-65.06 507.67,-58.03 505.01,-64.51"/>
</g>
<!-- Node10 -->
<g id="node10" class="node">
<title>Node10</title>
<g id="a_node10"><a xlink:href="ProcessHmiInputs_8cpp.xhtml" target="_top" xlink:title=" ">
<polygon fill="white" stroke="#666666" points="632.5,-30 471.5,-30 471.5,0 632.5,0 632.5,-30"/>
<text text-anchor="start" x="479.5" y="-18" font-family="Helvetica,sans-Serif" font-size="10.00">lib/application_business</text>
<text text-anchor="middle" x="552" y="-7" font-family="Helvetica,sans-Serif" font-size="10.00">_rules/src/ProcessHmiInputs.cpp</text>
</a>
</g>
</g>
<!-- Node9&#45;&gt;Node10 -->
<g id="edge11" class="edge">
<title>Node9&#45;&gt;Node10</title>
<path fill="none" stroke="#63b8ff" d="M552,-54.39C552,-46.13 552,-37.28 552,-30.16"/>
<polygon fill="#63b8ff" stroke="#63b8ff" points="548.5,-54.28 552,-64.28 555.5,-54.28 548.5,-54.28"/>
</g>
</g>
</svg>
