<?xml version="1.0" encoding="UTF-8" standalone="no"?>
<!DOCTYPE svg PUBLIC "-//W3C//DTD SVG 1.1//EN"
 "http://www.w3.org/Graphics/SVG/1.1/DTD/svg11.dtd">
<!-- Generated by graphviz version 7.0.5 (20221223.1930)
 -->
<!-- Title: lib/application_business_rules/include/IDisplay.hpp Pages: 1 -->
<svg width="744pt" height="258pt"
 viewBox="0.00 0.00 744.00 258.00" xmlns="http://www.w3.org/2000/svg" xmlns:xlink="http://www.w3.org/1999/xlink">
<g id="graph0" class="graph" transform="scale(1 1) rotate(0) translate(4 254)">
<title>lib/application_business_rules/include/IDisplay.hpp</title>
<!-- Node1 -->
<g id="node1" class="node">
<title>Node1</title>
<g id="a_node1"><a xlink:title=" ">
<polygon fill="#999999" stroke="#666666" points="371,-250 239,-250 239,-220 371,-220 371,-250"/>
<text text-anchor="start" x="247" y="-238" font-family="Helvetica,sans-Serif" font-size="10.00">lib/application_business</text>
<text text-anchor="middle" x="305" y="-227" font-family="Helvetica,sans-Serif" font-size="10.00">_rules/include/IDisplay.hpp</text>
</a>
</g>
</g>
<!-- Node2 -->
<g id="node2" class="node">
<title>Node2</title>
<g id="a_node2"><a xlink:href="Display_8hpp.xhtml" target="_top" xlink:title=" ">
<polygon fill="white" stroke="#666666" points="227,-178.5 115,-178.5 115,-148.5 227,-148.5 227,-178.5"/>
<text text-anchor="start" x="123" y="-166.5" font-family="Helvetica,sans-Serif" font-size="10.00">lib/3rd_party_adapters</text>
<text text-anchor="middle" x="171" y="-155.5" font-family="Helvetica,sans-Serif" font-size="10.00">/src/Display.hpp</text>
</a>
</g>
</g>
<!-- Node1&#45;&gt;Node2 -->
<g id="edge1" class="edge">
<title>Node1&#45;&gt;Node2</title>
<path fill="none" stroke="#63b8ff" d="M267.02,-214.3C245.28,-203.03 218.48,-189.13 198.73,-178.88"/>
<polygon fill="#63b8ff" stroke="#63b8ff" points="265.4,-217.41 275.89,-218.9 268.63,-211.19 265.4,-217.41"/>
</g>
<!-- Node6 -->
<g id="node6" class="node">
<title>Node6</title>
<g id="a_node6"><a xlink:href="display__factory__interface_8hpp.xhtml" target="_top" xlink:title=" ">
<polygon fill="white" stroke="#666666" points="365,-184 245,-184 245,-143 365,-143 365,-184"/>
<text text-anchor="start" x="253" y="-172" font-family="Helvetica,sans-Serif" font-size="10.00">lib/application_business</text>
<text text-anchor="start" x="253" y="-161" font-family="Helvetica,sans-Serif" font-size="10.00">_rules/include/display</text>
<text text-anchor="middle" x="305" y="-150" font-family="Helvetica,sans-Serif" font-size="10.00">_factory_interface.hpp</text>
</a>
</g>
</g>
<!-- Node1&#45;&gt;Node6 -->
<g id="edge5" class="edge">
<title>Node1&#45;&gt;Node6</title>
<path fill="none" stroke="#63b8ff" d="M305,-208.36C305,-200.45 305,-191.87 305,-184.42"/>
<polygon fill="#63b8ff" stroke="#63b8ff" points="301.5,-208.09 305,-218.09 308.5,-208.09 301.5,-208.09"/>
</g>
<!-- Node8 -->
<g id="node8" class="node">
<title>Node8</title>
<g id="a_node8"><a xlink:href="Menu_8hpp.xhtml" target="_top" xlink:title=" ">
<polygon fill="white" stroke="#666666" points="552,-178.5 432,-178.5 432,-148.5 552,-148.5 552,-178.5"/>
<text text-anchor="start" x="440" y="-166.5" font-family="Helvetica,sans-Serif" font-size="10.00">lib/application_business</text>
<text text-anchor="middle" x="492" y="-155.5" font-family="Helvetica,sans-Serif" font-size="10.00">_rules/src/Menu.hpp</text>
</a>
</g>
</g>
<!-- Node1&#45;&gt;Node8 -->
<g id="edge8" class="edge">
<title>Node1&#45;&gt;Node8</title>
<path fill="none" stroke="#63b8ff" d="M354.31,-215.67C385.27,-204.17 424.61,-189.55 453.3,-178.88"/>
<polygon fill="#63b8ff" stroke="#63b8ff" points="353.32,-212.31 345.17,-219.07 355.76,-218.87 353.32,-212.31"/>
</g>
<!-- Node3 -->
<g id="node3" class="node">
<title>Node3</title>
<g id="a_node3"><a xlink:href="Display_8cpp.xhtml" target="_top" xlink:title=" ">
<polygon fill="white" stroke="#666666" points="112,-107 0,-107 0,-77 112,-77 112,-107"/>
<text text-anchor="start" x="8" y="-95" font-family="Helvetica,sans-Serif" font-size="10.00">lib/3rd_party_adapters</text>
<text text-anchor="middle" x="56" y="-84" font-family="Helvetica,sans-Serif" font-size="10.00">/src/Display.cpp</text>
</a>
</g>
</g>
<!-- Node2&#45;&gt;Node3 -->
<g id="edge2" class="edge">
<title>Node2&#45;&gt;Node3</title>
<path fill="none" stroke="#63b8ff" d="M137.38,-142.18C118.91,-131.02 96.44,-117.44 79.8,-107.38"/>
<polygon fill="#63b8ff" stroke="#63b8ff" points="135.51,-145.14 145.88,-147.32 139.13,-139.15 135.51,-145.14"/>
</g>
<!-- Node4 -->
<g id="node4" class="node">
<title>Node4</title>
<g id="a_node4"><a xlink:href="display__factory__interface_8cpp.xhtml" target="_top" xlink:title=" ">
<polygon fill="white" stroke="#666666" points="381.5,-107 220.5,-107 220.5,-77 381.5,-77 381.5,-107"/>
<text text-anchor="start" x="228.5" y="-95" font-family="Helvetica,sans-Serif" font-size="10.00">lib/3rd_party_adapters</text>
<text text-anchor="middle" x="301" y="-84" font-family="Helvetica,sans-Serif" font-size="10.00">/src/display_factory_interface.cpp</text>
</a>
</g>
</g>
<!-- Node2&#45;&gt;Node4 -->
<g id="edge3" class="edge">
<title>Node2&#45;&gt;Node4</title>
<path fill="none" stroke="#63b8ff" d="M207.85,-142.8C228.94,-131.53 254.93,-117.63 274.1,-107.38"/>
<polygon fill="#63b8ff" stroke="#63b8ff" points="206.44,-139.58 199.27,-147.39 209.74,-145.76 206.44,-139.58"/>
</g>
<!-- Node5 -->
<g id="node5" class="node">
<title>Node5</title>
<g id="a_node5"><a xlink:href="main_8cpp.xhtml" target="_top" xlink:title=" ">
<polygon fill="white" stroke="#666666" points="202,-101.5 130,-101.5 130,-82.5 202,-82.5 202,-101.5"/>
<text text-anchor="middle" x="166" y="-89.5" font-family="Helvetica,sans-Serif" font-size="10.00">src/main.cpp</text>
</a>
</g>
</g>
<!-- Node2&#45;&gt;Node5 -->
<g id="edge4" class="edge">
<title>Node2&#45;&gt;Node5</title>
<path fill="none" stroke="#63b8ff" d="M169.16,-136.96C168.27,-124.57 167.26,-110.49 166.62,-101.68"/>
<polygon fill="#63b8ff" stroke="#63b8ff" points="165.65,-136.87 169.86,-146.59 172.63,-136.36 165.65,-136.87"/>
</g>
<!-- Node6&#45;&gt;Node4 -->
<g id="edge6" class="edge">
<title>Node6&#45;&gt;Node4</title>
<path fill="none" stroke="#63b8ff" d="M303.21,-131.38C302.73,-123.04 302.23,-114.43 301.83,-107.47"/>
<polygon fill="#63b8ff" stroke="#63b8ff" points="299.71,-131.48 303.78,-141.26 306.7,-131.07 299.71,-131.48"/>
</g>
<!-- Node7 -->
<g id="node7" class="node">
<title>Node7</title>
<g id="a_node7"><a xlink:href="presenter__factory__interface_8cpp.xhtml" target="_top" xlink:title=" ">
<polygon fill="white" stroke="#666666" points="516.5,-41 379.5,-41 379.5,0 516.5,0 516.5,-41"/>
<text text-anchor="start" x="387.5" y="-29" font-family="Helvetica,sans-Serif" font-size="10.00">lib/application_business</text>
<text text-anchor="start" x="387.5" y="-18" font-family="Helvetica,sans-Serif" font-size="10.00">_rules/src/presenter_factory</text>
<text text-anchor="middle" x="448" y="-7" font-family="Helvetica,sans-Serif" font-size="10.00">_interface.cpp</text>
</a>
</g>
</g>
<!-- Node6&#45;&gt;Node7 -->
<g id="edge7" class="edge">
<title>Node6&#45;&gt;Node7</title>
<path fill="none" stroke="#63b8ff" d="M351.54,-136.81C364.78,-128.3 378.67,-118.13 390,-107 409.96,-87.39 427.13,-59.93 437.5,-41.47"/>
<polygon fill="#63b8ff" stroke="#63b8ff" points="349.99,-133.66 343.35,-141.91 353.69,-139.6 349.99,-133.66"/>
</g>
<!-- Node8&#45;&gt;Node7 -->
<g id="edge13" class="edge">
<title>Node8&#45;&gt;Node7</title>
<path fill="none" stroke="#63b8ff" d="M479.63,-137.93C475.2,-128.44 470.45,-117.38 467,-107 459.66,-84.92 454.31,-58.69 451.19,-41.16"/>
<polygon fill="#63b8ff" stroke="#63b8ff" points="476.44,-139.37 483.93,-146.85 482.74,-136.33 476.44,-139.37"/>
</g>
<!-- Node9 -->
<g id="node9" class="node">
<title>Node9</title>
<g id="a_node9"><a xlink:href="Menu_8cpp.xhtml" target="_top" xlink:title=" ">
<polygon fill="white" stroke="#666666" points="596,-107 476,-107 476,-77 596,-77 596,-107"/>
<text text-anchor="start" x="484" y="-95" font-family="Helvetica,sans-Serif" font-size="10.00">lib/application_business</text>
<text text-anchor="middle" x="536" y="-84" font-family="Helvetica,sans-Serif" font-size="10.00">_rules/src/Menu.cpp</text>
</a>
</g>
</g>
<!-- Node8&#45;&gt;Node9 -->
<g id="edge9" class="edge">
<title>Node8&#45;&gt;Node9</title>
<path fill="none" stroke="#63b8ff" d="M507.27,-138.38C513.81,-128.05 521.23,-116.32 526.89,-107.38"/>
<polygon fill="#63b8ff" stroke="#63b8ff" points="504.32,-136.5 501.93,-146.82 510.23,-140.24 504.32,-136.5"/>
</g>
<!-- Node10 -->
<g id="node10" class="node">
<title>Node10</title>
<g id="a_node10"><a xlink:href="Presenter_8hpp.xhtml" target="_top" xlink:title=" ">
<polygon fill="white" stroke="#666666" points="736,-107 614,-107 614,-77 736,-77 736,-107"/>
<text text-anchor="start" x="622" y="-95" font-family="Helvetica,sans-Serif" font-size="10.00">lib/application_business</text>
<text text-anchor="middle" x="675" y="-84" font-family="Helvetica,sans-Serif" font-size="10.00">_rules/src/Presenter.hpp</text>
</a>
</g>
</g>
<!-- Node8&#45;&gt;Node10 -->
<g id="edge10" class="edge">
<title>Node8&#45;&gt;Node10</title>
<path fill="none" stroke="#63b8ff" d="M540.66,-144.02C570.88,-132.54 609.17,-118 637.13,-107.38"/>
<polygon fill="#63b8ff" stroke="#63b8ff" points="539.44,-140.74 531.33,-147.56 541.92,-147.28 539.44,-140.74"/>
</g>
<!-- Node10&#45;&gt;Node7 -->
<g id="edge12" class="edge">
<title>Node10&#45;&gt;Node7</title>
<path fill="none" stroke="#63b8ff" d="M616.8,-73.18C585.04,-63.46 545.64,-51.4 512.9,-41.37"/>
<polygon fill="#63b8ff" stroke="#63b8ff" points="615.66,-76.49 626.24,-76.07 617.71,-69.8 615.66,-76.49"/>
</g>
<!-- Node11 -->
<g id="node11" class="node">
<title>Node11</title>
<g id="a_node11"><a xlink:href="Presenter_8cpp.xhtml" target="_top" xlink:title=" ">
<polygon fill="white" stroke="#666666" points="736,-35.5 614,-35.5 614,-5.5 736,-5.5 736,-35.5"/>
<text text-anchor="start" x="622" y="-23.5" font-family="Helvetica,sans-Serif" font-size="10.00">lib/application_business</text>
<text text-anchor="middle" x="675" y="-12.5" font-family="Helvetica,sans-Serif" font-size="10.00">_rules/src/Presenter.cpp</text>
</a>
</g>
</g>
<!-- Node10&#45;&gt;Node11 -->
<g id="edge11" class="edge">
<title>Node10&#45;&gt;Node11</title>
<path fill="none" stroke="#63b8ff" d="M675,-65.26C675,-55.33 675,-44.36 675,-35.88"/>
<polygon fill="#63b8ff" stroke="#63b8ff" points="671.5,-65.09 675,-75.09 678.5,-65.09 671.5,-65.09"/>
</g>
</g>
</svg>
