<?xml version="1.0" encoding="UTF-8" standalone="no"?>
<!DOCTYPE svg PUBLIC "-//W3C//DTD SVG 1.1//EN"
 "http://www.w3.org/Graphics/SVG/1.1/DTD/svg11.dtd">
<!-- Generated by graphviz version 7.0.5 (20221223.1930)
 -->
<!-- Title: lib/application_business_rules/include/IDisplay.hpp Pages: 1 -->
<svg width="790pt" height="313pt"
 viewBox="0.00 0.00 790.00 313.00" xmlns="http://www.w3.org/2000/svg" xmlns:xlink="http://www.w3.org/1999/xlink">
<g id="graph0" class="graph" transform="scale(1 1) rotate(0) translate(4 309)">
<title>lib/application_business_rules/include/IDisplay.hpp</title>
<!-- Node1 -->
<g id="node1" class="node">
<title>Node1</title>
<g id="a_node1"><a xlink:title=" ">
<polygon fill="#999999" stroke="#666666" points="394,-305 262,-305 262,-275 394,-275 394,-305"/>
<text text-anchor="start" x="270" y="-293" font-family="Helvetica,sans-Serif" font-size="10.00">lib/application_business</text>
<text text-anchor="middle" x="328" y="-282" font-family="Helvetica,sans-Serif" font-size="10.00">_rules/include/IDisplay.hpp</text>
</a>
</g>
</g>
<!-- Node2 -->
<g id="node2" class="node">
<title>Node2</title>
<g id="a_node2"><a xlink:href="Display_8hpp.xhtml" target="_top" xlink:title=" ">
<polygon fill="white" stroke="#666666" points="232,-233.5 120,-233.5 120,-203.5 232,-203.5 232,-233.5"/>
<text text-anchor="start" x="128" y="-221.5" font-family="Helvetica,sans-Serif" font-size="10.00">lib/3rd_party_adapters</text>
<text text-anchor="middle" x="176" y="-210.5" font-family="Helvetica,sans-Serif" font-size="10.00">/src/Display.hpp</text>
</a>
</g>
</g>
<!-- Node1&#45;&gt;Node2 -->
<g id="edge1" class="edge">
<title>Node1&#45;&gt;Node2</title>
<path fill="none" stroke="#63b8ff" d="M286.26,-269.91C261.37,-258.53 230.27,-244.31 207.45,-233.88"/>
<polygon fill="#63b8ff" stroke="#63b8ff" points="284.58,-272.99 295.13,-273.97 287.49,-266.63 284.58,-272.99"/>
</g>
<!-- Node6 -->
<g id="node6" class="node">
<title>Node6</title>
<g id="a_node6"><a xlink:href="display__factory__interface_8hpp.xhtml" target="_top" xlink:title=" ">
<polygon fill="white" stroke="#666666" points="388,-239 268,-239 268,-198 388,-198 388,-239"/>
<text text-anchor="start" x="276" y="-227" font-family="Helvetica,sans-Serif" font-size="10.00">lib/application_business</text>
<text text-anchor="start" x="276" y="-216" font-family="Helvetica,sans-Serif" font-size="10.00">_rules/include/display</text>
<text text-anchor="middle" x="328" y="-205" font-family="Helvetica,sans-Serif" font-size="10.00">_factory_interface.hpp</text>
</a>
</g>
</g>
<!-- Node1&#45;&gt;Node6 -->
<g id="edge5" class="edge">
<title>Node1&#45;&gt;Node6</title>
<path fill="none" stroke="#63b8ff" d="M328,-263.36C328,-255.45 328,-246.87 328,-239.42"/>
<polygon fill="#63b8ff" stroke="#63b8ff" points="324.5,-263.09 328,-273.09 331.5,-263.09 324.5,-263.09"/>
</g>
<!-- Node7 -->
<g id="node7" class="node">
<title>Node7</title>
<g id="a_node7"><a xlink:href="Menu_8hpp.xhtml" target="_top" xlink:title=" ">
<polygon fill="white" stroke="#666666" points="535,-233.5 415,-233.5 415,-203.5 535,-203.5 535,-233.5"/>
<text text-anchor="start" x="423" y="-221.5" font-family="Helvetica,sans-Serif" font-size="10.00">lib/application_business</text>
<text text-anchor="middle" x="475" y="-210.5" font-family="Helvetica,sans-Serif" font-size="10.00">_rules/src/Menu.hpp</text>
</a>
</g>
</g>
<!-- Node1&#45;&gt;Node7 -->
<g id="edge8" class="edge">
<title>Node1&#45;&gt;Node7</title>
<path fill="none" stroke="#63b8ff" d="M368.69,-269.76C392.71,-258.41 422.61,-244.27 444.58,-233.88"/>
<polygon fill="#63b8ff" stroke="#63b8ff" points="367.37,-266.51 359.83,-273.95 370.36,-272.84 367.37,-266.51"/>
</g>
<!-- Node3 -->
<g id="node3" class="node">
<title>Node3</title>
<g id="a_node3"><a xlink:href="Display_8cpp.xhtml" target="_top" xlink:title=" ">
<polygon fill="white" stroke="#666666" points="112,-162 0,-162 0,-132 112,-132 112,-162"/>
<text text-anchor="start" x="8" y="-150" font-family="Helvetica,sans-Serif" font-size="10.00">lib/3rd_party_adapters</text>
<text text-anchor="middle" x="56" y="-139" font-family="Helvetica,sans-Serif" font-size="10.00">/src/Display.cpp</text>
</a>
</g>
</g>
<!-- Node2&#45;&gt;Node3 -->
<g id="edge2" class="edge">
<title>Node2&#45;&gt;Node3</title>
<path fill="none" stroke="#63b8ff" d="M141.19,-197.34C121.87,-186.15 98.28,-172.49 80.83,-162.38"/>
<polygon fill="#63b8ff" stroke="#63b8ff" points="139.42,-200.36 149.83,-202.34 142.93,-194.3 139.42,-200.36"/>
</g>
<!-- Node4 -->
<g id="node4" class="node">
<title>Node4</title>
<g id="a_node4"><a xlink:href="display__factory__interface_8cpp.xhtml" target="_top" xlink:title=" ">
<polygon fill="white" stroke="#666666" points="329.5,-162 168.5,-162 168.5,-132 329.5,-132 329.5,-162"/>
<text text-anchor="start" x="176.5" y="-150" font-family="Helvetica,sans-Serif" font-size="10.00">lib/3rd_party_adapters</text>
<text text-anchor="middle" x="249" y="-139" font-family="Helvetica,sans-Serif" font-size="10.00">/src/display_factory_interface.cpp</text>
</a>
</g>
</g>
<!-- Node2&#45;&gt;Node4 -->
<g id="edge3" class="edge">
<title>Node2&#45;&gt;Node4</title>
<path fill="none" stroke="#63b8ff" d="M199.32,-195.3C210.64,-184.52 223.91,-171.88 233.89,-162.38"/>
<polygon fill="#63b8ff" stroke="#63b8ff" points="197.05,-192.63 192.22,-202.06 201.88,-197.7 197.05,-192.63"/>
</g>
<!-- Node5 -->
<g id="node5" class="node">
<title>Node5</title>
<g id="a_node5"><a xlink:href="main_8cpp.xhtml" target="_top" xlink:title=" ">
<polygon fill="white" stroke="#666666" points="432,-24.5 360,-24.5 360,-5.5 432,-5.5 432,-24.5"/>
<text text-anchor="middle" x="396" y="-12.5" font-family="Helvetica,sans-Serif" font-size="10.00">src/main.cpp</text>
</a>
</g>
</g>
<!-- Node2&#45;&gt;Node5 -->
<g id="edge4" class="edge">
<title>Node2&#45;&gt;Node5</title>
<path fill="none" stroke="#63b8ff" d="M162.2,-192.75C154.14,-174.7 147.59,-150.29 159,-132 203.25,-61.07 304.86,-32.32 359.55,-21.65"/>
<polygon fill="#63b8ff" stroke="#63b8ff" points="159.04,-194.27 166.59,-201.7 165.32,-191.18 159.04,-194.27"/>
</g>
<!-- Node6&#45;&gt;Node4 -->
<g id="edge6" class="edge">
<title>Node6&#45;&gt;Node4</title>
<path fill="none" stroke="#63b8ff" d="M297.16,-190.37C286.35,-180.86 274.63,-170.54 265.45,-162.47"/>
<polygon fill="#63b8ff" stroke="#63b8ff" points="294.62,-192.79 304.44,-196.77 299.24,-187.54 294.62,-192.79"/>
</g>
<!-- Node6&#45;&gt;Node5 -->
<g id="edge7" class="edge">
<title>Node6&#45;&gt;Node5</title>
<path fill="none" stroke="#63b8ff" d="M338.26,-187.1C354.09,-140.2 383.61,-52.71 393.03,-24.8"/>
<polygon fill="#63b8ff" stroke="#63b8ff" points="335.01,-185.78 335.13,-196.38 341.64,-188.02 335.01,-185.78"/>
</g>
<!-- Node7&#45;&gt;Node5 -->
<g id="edge16" class="edge">
<title>Node7&#45;&gt;Node5</title>
<path fill="none" stroke="#63b8ff" d="M444.04,-196.08C433.09,-186.88 421.82,-175.2 415,-162 390.71,-114.99 393.28,-48.55 395.15,-24.83"/>
<polygon fill="#63b8ff" stroke="#63b8ff" points="441.85,-198.82 451.87,-202.27 446.19,-193.32 441.85,-198.82"/>
</g>
<!-- Node8 -->
<g id="node8" class="node">
<title>Node8</title>
<g id="a_node8"><a xlink:href="Menu_8cpp.xhtml" target="_top" xlink:title=" ">
<polygon fill="white" stroke="#666666" points="544,-162 424,-162 424,-132 544,-132 544,-162"/>
<text text-anchor="start" x="432" y="-150" font-family="Helvetica,sans-Serif" font-size="10.00">lib/application_business</text>
<text text-anchor="middle" x="484" y="-139" font-family="Helvetica,sans-Serif" font-size="10.00">_rules/src/Menu.cpp</text>
</a>
</g>
</g>
<!-- Node7&#45;&gt;Node8 -->
<g id="edge9" class="edge">
<title>Node7&#45;&gt;Node8</title>
<path fill="none" stroke="#63b8ff" d="M478.33,-191.76C479.62,-181.83 481.04,-170.86 482.14,-162.38"/>
<polygon fill="#63b8ff" stroke="#63b8ff" points="474.87,-191.23 477.06,-201.6 481.81,-192.13 474.87,-191.23"/>
</g>
<!-- Node9 -->
<g id="node9" class="node">
<title>Node9</title>
<g id="a_node9"><a xlink:href="Presenter_8hpp.xhtml" target="_top" xlink:title=" ">
<polygon fill="white" stroke="#666666" points="684,-162 562,-162 562,-132 684,-132 684,-162"/>
<text text-anchor="start" x="570" y="-150" font-family="Helvetica,sans-Serif" font-size="10.00">lib/application_business</text>
<text text-anchor="middle" x="623" y="-139" font-family="Helvetica,sans-Serif" font-size="10.00">_rules/src/Presenter.hpp</text>
</a>
</g>
</g>
<!-- Node7&#45;&gt;Node9 -->
<g id="edge10" class="edge">
<title>Node7&#45;&gt;Node9</title>
<path fill="none" stroke="#63b8ff" d="M515.97,-198.26C540.15,-186.91 570.26,-172.77 592.37,-162.38"/>
<polygon fill="#63b8ff" stroke="#63b8ff" points="514.6,-195.04 507.04,-202.46 517.58,-201.37 514.6,-195.04"/>
</g>
<!-- Node9&#45;&gt;Node5 -->
<g id="edge15" class="edge">
<title>Node9&#45;&gt;Node5</title>
<path fill="none" stroke="#63b8ff" d="M550.87,-129.58C512.52,-119.89 470.04,-107.34 454,-96 427.11,-76.98 407.93,-41.49 400.02,-24.93"/>
<polygon fill="#63b8ff" stroke="#63b8ff" points="549.54,-132.85 560.09,-131.87 551.22,-126.06 549.54,-132.85"/>
</g>
<!-- Node10 -->
<g id="node10" class="node">
<title>Node10</title>
<g id="a_node10"><a xlink:href="ProcessHmiInputs_8hpp.xhtml" target="_top" xlink:title=" ">
<polygon fill="white" stroke="#666666" points="641.5,-96 462.5,-96 462.5,-66 641.5,-66 641.5,-96"/>
<text text-anchor="start" x="470.5" y="-84" font-family="Helvetica,sans-Serif" font-size="10.00">lib/application_business</text>
<text text-anchor="middle" x="552" y="-73" font-family="Helvetica,sans-Serif" font-size="10.00">_rules/include/ProcessHmiInputs.hpp</text>
</a>
</g>
</g>
<!-- Node9&#45;&gt;Node10 -->
<g id="edge11" class="edge">
<title>Node9&#45;&gt;Node10</title>
<path fill="none" stroke="#63b8ff" d="M598.69,-124.09C588.44,-114.85 576.81,-104.36 567.71,-96.16"/>
<polygon fill="#63b8ff" stroke="#63b8ff" points="596.35,-126.69 606.12,-130.78 601.03,-121.49 596.35,-126.69"/>
</g>
<!-- Node12 -->
<g id="node12" class="node">
<title>Node12</title>
<g id="a_node12"><a xlink:href="Presenter_8cpp.xhtml" target="_top" xlink:title=" ">
<polygon fill="white" stroke="#666666" points="782,-96 660,-96 660,-66 782,-66 782,-96"/>
<text text-anchor="start" x="668" y="-84" font-family="Helvetica,sans-Serif" font-size="10.00">lib/application_business</text>
<text text-anchor="middle" x="721" y="-73" font-family="Helvetica,sans-Serif" font-size="10.00">_rules/src/Presenter.cpp</text>
</a>
</g>
</g>
<!-- Node9&#45;&gt;Node12 -->
<g id="edge14" class="edge">
<title>Node9&#45;&gt;Node12</title>
<path fill="none" stroke="#63b8ff" d="M654.35,-125.52C668.89,-116.03 685.82,-104.98 698.97,-96.39"/>
<polygon fill="#63b8ff" stroke="#63b8ff" points="652.48,-122.57 646.02,-130.97 656.3,-128.43 652.48,-122.57"/>
</g>
<!-- Node10&#45;&gt;Node5 -->
<g id="edge13" class="edge">
<title>Node10&#45;&gt;Node5</title>
<path fill="none" stroke="#63b8ff" d="M506.61,-61.38C477.43,-49.41 440.81,-34.38 417.9,-24.99"/>
<polygon fill="#63b8ff" stroke="#63b8ff" points="505.01,-64.51 515.59,-65.06 507.67,-58.03 505.01,-64.51"/>
</g>
<!-- Node11 -->
<g id="node11" class="node">
<title>Node11</title>
<g id="a_node11"><a xlink:href="ProcessHmiInputs_8cpp.xhtml" target="_top" xlink:title=" ">
<polygon fill="white" stroke="#666666" points="632.5,-30 471.5,-30 471.5,0 632.5,0 632.5,-30"/>
<text text-anchor="start" x="479.5" y="-18" font-family="Helvetica,sans-Serif" font-size="10.00">lib/application_business</text>
<text text-anchor="middle" x="552" y="-7" font-family="Helvetica,sans-Serif" font-size="10.00">_rules/src/ProcessHmiInputs.cpp</text>
</a>
</g>
</g>
<!-- Node10&#45;&gt;Node11 -->
<g id="edge12" class="edge">
<title>Node10&#45;&gt;Node11</title>
<path fill="none" stroke="#63b8ff" d="M552,-54.39C552,-46.13 552,-37.28 552,-30.16"/>
<polygon fill="#63b8ff" stroke="#63b8ff" points="548.5,-54.28 552,-64.28 555.5,-54.28 548.5,-54.28"/>
</g>
</g>
</svg>
