<?xml version="1.0" encoding="UTF-8" standalone="no"?>
<!DOCTYPE svg PUBLIC "-//W3C//DTD SVG 1.1//EN"
 "http://www.w3.org/Graphics/SVG/1.1/DTD/svg11.dtd">
<!-- Generated by graphviz version 7.0.5 (20221223.1930)
 -->
<!-- Title: lib/application_business_rules/include/IDisplay.hpp Pages: 1 -->
<svg width="752pt" height="313pt"
 viewBox="0.00 0.00 751.50 313.00" xmlns="http://www.w3.org/2000/svg" xmlns:xlink="http://www.w3.org/1999/xlink">
<g id="graph0" class="graph" transform="scale(1 1) rotate(0) translate(4 309)">
<title>lib/application_business_rules/include/IDisplay.hpp</title>
<!-- Node1 -->
<g id="node1" class="node">
<title>Node1</title>
<g id="a_node1"><a xlink:title=" ">
<polygon fill="#999999" stroke="#666666" points="384,-305 252,-305 252,-275 384,-275 384,-305"/>
<text text-anchor="start" x="260" y="-293" font-family="Helvetica,sans-Serif" font-size="10.00">lib/application_business</text>
<text text-anchor="middle" x="318" y="-282" font-family="Helvetica,sans-Serif" font-size="10.00">_rules/include/IDisplay.hpp</text>
</a>
</g>
</g>
<!-- Node2 -->
<g id="node2" class="node">
<title>Node2</title>
<g id="a_node2"><a xlink:href="Display_8hpp.xhtml" target="_top" xlink:title=" ">
<polygon fill="white" stroke="#666666" points="240,-233.5 128,-233.5 128,-203.5 240,-203.5 240,-233.5"/>
<text text-anchor="start" x="136" y="-221.5" font-family="Helvetica,sans-Serif" font-size="10.00">lib/3rd_party_adapters</text>
<text text-anchor="middle" x="184" y="-210.5" font-family="Helvetica,sans-Serif" font-size="10.00">/src/Display.hpp</text>
</a>
</g>
</g>
<!-- Node1&#45;&gt;Node2 -->
<g id="edge1" class="edge">
<title>Node1&#45;&gt;Node2</title>
<path fill="none" stroke="#63b8ff" d="M280.02,-269.3C258.28,-258.03 231.48,-244.13 211.73,-233.88"/>
<polygon fill="#63b8ff" stroke="#63b8ff" points="278.4,-272.41 288.89,-273.9 281.63,-266.19 278.4,-272.41"/>
</g>
<!-- Node5 -->
<g id="node5" class="node">
<title>Node5</title>
<g id="a_node5"><a xlink:href="Menu_8hpp.xhtml" target="_top" xlink:title=" ">
<polygon fill="white" stroke="#666666" points="518,-233.5 396,-233.5 396,-203.5 518,-203.5 518,-233.5"/>
<text text-anchor="start" x="404" y="-221.5" font-family="Helvetica,sans-Serif" font-size="10.00">lib/application_business</text>
<text text-anchor="middle" x="457" y="-210.5" font-family="Helvetica,sans-Serif" font-size="10.00">_rules/include/Menu.hpp</text>
</a>
</g>
</g>
<!-- Node1&#45;&gt;Node5 -->
<g id="edge4" class="edge">
<title>Node1&#45;&gt;Node5</title>
<path fill="none" stroke="#63b8ff" d="M357.09,-269.46C379.7,-258.15 407.65,-244.17 428.24,-233.88"/>
<polygon fill="#63b8ff" stroke="#63b8ff" points="355.53,-266.32 348.15,-273.92 358.66,-272.58 355.53,-266.32"/>
</g>
<!-- Node12 -->
<g id="node12" class="node">
<title>Node12</title>
<g id="a_node12"><a xlink:href="display__factory__interface_8hpp.xhtml" target="_top" xlink:title=" ">
<polygon fill="white" stroke="#666666" points="378,-239 258,-239 258,-198 378,-198 378,-239"/>
<text text-anchor="start" x="266" y="-227" font-family="Helvetica,sans-Serif" font-size="10.00">lib/application_business</text>
<text text-anchor="start" x="266" y="-216" font-family="Helvetica,sans-Serif" font-size="10.00">_rules/include/display</text>
<text text-anchor="middle" x="318" y="-205" font-family="Helvetica,sans-Serif" font-size="10.00">_factory_interface.hpp</text>
</a>
</g>
</g>
<!-- Node1&#45;&gt;Node12 -->
<g id="edge13" class="edge">
<title>Node1&#45;&gt;Node12</title>
<path fill="none" stroke="#63b8ff" d="M318,-263.36C318,-255.45 318,-246.87 318,-239.42"/>
<polygon fill="#63b8ff" stroke="#63b8ff" points="314.5,-263.09 318,-273.09 321.5,-263.09 314.5,-263.09"/>
</g>
<!-- Node3 -->
<g id="node3" class="node">
<title>Node3</title>
<g id="a_node3"><a xlink:href="Display_8cpp.xhtml" target="_top" xlink:title=" ">
<polygon fill="white" stroke="#666666" points="112,-162 0,-162 0,-132 112,-132 112,-162"/>
<text text-anchor="start" x="8" y="-150" font-family="Helvetica,sans-Serif" font-size="10.00">lib/3rd_party_adapters</text>
<text text-anchor="middle" x="56" y="-139" font-family="Helvetica,sans-Serif" font-size="10.00">/src/Display.cpp</text>
</a>
</g>
</g>
<!-- Node2&#45;&gt;Node3 -->
<g id="edge2" class="edge">
<title>Node2&#45;&gt;Node3</title>
<path fill="none" stroke="#63b8ff" d="M147.44,-197.65C126.72,-186.4 101.27,-172.58 82.49,-162.38"/>
<polygon fill="#63b8ff" stroke="#63b8ff" points="145.69,-200.68 156.15,-202.38 149.03,-194.53 145.69,-200.68"/>
</g>
<!-- Node4 -->
<g id="node4" class="node">
<title>Node4</title>
<g id="a_node4"><a xlink:href="display__factory__interface_8cpp.xhtml" target="_top" xlink:title=" ">
<polygon fill="white" stroke="#666666" points="291.5,-162 130.5,-162 130.5,-132 291.5,-132 291.5,-162"/>
<text text-anchor="start" x="138.5" y="-150" font-family="Helvetica,sans-Serif" font-size="10.00">lib/3rd_party_adapters</text>
<text text-anchor="middle" x="211" y="-139" font-family="Helvetica,sans-Serif" font-size="10.00">/src/display_factory_interface.cpp</text>
</a>
</g>
</g>
<!-- Node2&#45;&gt;Node4 -->
<g id="edge3" class="edge">
<title>Node2&#45;&gt;Node4</title>
<path fill="none" stroke="#63b8ff" d="M193.75,-192.41C197.67,-182.32 202.05,-171.04 205.41,-162.38"/>
<polygon fill="#63b8ff" stroke="#63b8ff" points="190.5,-191.1 190.14,-201.69 197.03,-193.63 190.5,-191.1"/>
</g>
<!-- Node6 -->
<g id="node6" class="node">
<title>Node6</title>
<g id="a_node6"><a xlink:href="Presenter_8hpp.xhtml" target="_top" xlink:title=" ">
<polygon fill="white" stroke="#666666" points="527,-162 387,-162 387,-132 527,-132 527,-162"/>
<text text-anchor="start" x="395" y="-150" font-family="Helvetica,sans-Serif" font-size="10.00">lib/application_business</text>
<text text-anchor="middle" x="457" y="-139" font-family="Helvetica,sans-Serif" font-size="10.00">_rules/include/Presenter.hpp</text>
</a>
</g>
</g>
<!-- Node5&#45;&gt;Node6 -->
<g id="edge5" class="edge">
<title>Node5&#45;&gt;Node6</title>
<path fill="none" stroke="#63b8ff" d="M457,-191.76C457,-181.83 457,-170.86 457,-162.38"/>
<polygon fill="#63b8ff" stroke="#63b8ff" points="453.5,-191.59 457,-201.59 460.5,-191.59 453.5,-191.59"/>
</g>
<!-- Node9 -->
<g id="node9" class="node">
<title>Node9</title>
<g id="a_node9"><a xlink:href="main_8cpp.xhtml" target="_top" xlink:title=" ">
<polygon fill="white" stroke="#666666" points="475,-24.5 403,-24.5 403,-5.5 475,-5.5 475,-24.5"/>
<text text-anchor="middle" x="439" y="-12.5" font-family="Helvetica,sans-Serif" font-size="10.00">src/main.cpp</text>
</a>
</g>
</g>
<!-- Node5&#45;&gt;Node9 -->
<g id="edge12" class="edge">
<title>Node5&#45;&gt;Node9</title>
<path fill="none" stroke="#63b8ff" d="M413.79,-197.49C399.82,-188.7 385.9,-176.93 378,-162 358.04,-124.29 358.59,-104.49 377,-66 385.95,-47.29 405.7,-33.34 420.52,-24.99"/>
<polygon fill="#63b8ff" stroke="#63b8ff" points="411.7,-200.32 422.1,-202.34 415.23,-194.27 411.7,-200.32"/>
</g>
<!-- Node11 -->
<g id="node11" class="node">
<title>Node11</title>
<g id="a_node11"><a xlink:href="Menu_8cpp.xhtml" target="_top" xlink:title=" ">
<polygon fill="white" stroke="#666666" points="665,-162 545,-162 545,-132 665,-132 665,-162"/>
<text text-anchor="start" x="553" y="-150" font-family="Helvetica,sans-Serif" font-size="10.00">lib/application_business</text>
<text text-anchor="middle" x="605" y="-139" font-family="Helvetica,sans-Serif" font-size="10.00">_rules/src/Menu.cpp</text>
</a>
</g>
</g>
<!-- Node5&#45;&gt;Node11 -->
<g id="edge11" class="edge">
<title>Node5&#45;&gt;Node11</title>
<path fill="none" stroke="#63b8ff" d="M497.97,-198.26C522.15,-186.91 552.26,-172.77 574.37,-162.38"/>
<polygon fill="#63b8ff" stroke="#63b8ff" points="496.6,-195.04 489.04,-202.46 499.58,-201.37 496.6,-195.04"/>
</g>
<!-- Node7 -->
<g id="node7" class="node">
<title>Node7</title>
<g id="a_node7"><a xlink:href="ProcessHmiInputs_8hpp.xhtml" target="_top" xlink:title=" ">
<polygon fill="white" stroke="#666666" points="743.5,-96 564.5,-96 564.5,-66 743.5,-66 743.5,-96"/>
<text text-anchor="start" x="572.5" y="-84" font-family="Helvetica,sans-Serif" font-size="10.00">lib/application_business</text>
<text text-anchor="middle" x="654" y="-73" font-family="Helvetica,sans-Serif" font-size="10.00">_rules/include/ProcessHmiInputs.hpp</text>
</a>
</g>
</g>
<!-- Node6&#45;&gt;Node7 -->
<g id="edge6" class="edge">
<title>Node6&#45;&gt;Node7</title>
<path fill="none" stroke="#63b8ff" d="M511.79,-128.2C542.63,-118.18 580.64,-105.83 609.6,-96.43"/>
<polygon fill="#63b8ff" stroke="#63b8ff" points="511.08,-124.75 502.65,-131.17 513.24,-131.41 511.08,-124.75"/>
</g>
<!-- Node6&#45;&gt;Node9 -->
<g id="edge10" class="edge">
<title>Node6&#45;&gt;Node9</title>
<path fill="none" stroke="#63b8ff" d="M492.36,-124.99C502.19,-117.23 511.63,-107.47 517,-96 522.66,-83.93 523.4,-77.7 517,-66 506.04,-45.96 483.24,-32.77 465.11,-24.99"/>
<polygon fill="#63b8ff" stroke="#63b8ff" points="490.59,-121.95 484.56,-130.67 494.71,-127.61 490.59,-121.95"/>
</g>
<!-- Node10 -->
<g id="node10" class="node">
<title>Node10</title>
<g id="a_node10"><a xlink:href="Presenter_8cpp.xhtml" target="_top" xlink:title=" ">
<polygon fill="white" stroke="#666666" points="508,-96 386,-96 386,-66 508,-66 508,-96"/>
<text text-anchor="start" x="394" y="-84" font-family="Helvetica,sans-Serif" font-size="10.00">lib/application_business</text>
<text text-anchor="middle" x="447" y="-73" font-family="Helvetica,sans-Serif" font-size="10.00">_rules/src/Presenter.cpp</text>
</a>
</g>
</g>
<!-- Node6&#45;&gt;Node10 -->
<g id="edge9" class="edge">
<title>Node6&#45;&gt;Node10</title>
<path fill="none" stroke="#63b8ff" d="M453.04,-120.68C451.74,-112.34 450.34,-103.37 449.21,-96.16"/>
<polygon fill="#63b8ff" stroke="#63b8ff" points="449.55,-120.96 454.55,-130.3 456.46,-119.88 449.55,-120.96"/>
</g>
<!-- Node8 -->
<g id="node8" class="node">
<title>Node8</title>
<g id="a_node8"><a xlink:href="ProcessHmiInputs_8cpp.xhtml" target="_top" xlink:title=" ">
<polygon fill="white" stroke="#666666" points="734.5,-30 573.5,-30 573.5,0 734.5,0 734.5,-30"/>
<text text-anchor="start" x="581.5" y="-18" font-family="Helvetica,sans-Serif" font-size="10.00">lib/application_business</text>
<text text-anchor="middle" x="654" y="-7" font-family="Helvetica,sans-Serif" font-size="10.00">_rules/src/ProcessHmiInputs.cpp</text>
</a>
</g>
</g>
<!-- Node7&#45;&gt;Node8 -->
<g id="edge7" class="edge">
<title>Node7&#45;&gt;Node8</title>
<path fill="none" stroke="#63b8ff" d="M654,-54.39C654,-46.13 654,-37.28 654,-30.16"/>
<polygon fill="#63b8ff" stroke="#63b8ff" points="650.5,-54.28 654,-64.28 657.5,-54.28 650.5,-54.28"/>
</g>
<!-- Node7&#45;&gt;Node9 -->
<g id="edge8" class="edge">
<title>Node7&#45;&gt;Node9</title>
<path fill="none" stroke="#63b8ff" d="M594.59,-62.32C553.85,-50.19 501.5,-34.61 469.11,-24.96"/>
<polygon fill="#63b8ff" stroke="#63b8ff" points="593.45,-65.63 604.03,-65.13 595.45,-58.92 593.45,-65.63"/>
</g>
<!-- Node12&#45;&gt;Node4 -->
<g id="edge14" class="edge">
<title>Node12&#45;&gt;Node4</title>
<path fill="none" stroke="#63b8ff" d="M277.69,-191.32C262.6,-181.52 246.02,-170.75 233.17,-162.4"/>
<polygon fill="#63b8ff" stroke="#63b8ff" points="275.78,-194.25 286.07,-196.76 279.59,-188.38 275.78,-194.25"/>
</g>
<!-- Node12&#45;&gt;Node9 -->
<g id="edge15" class="edge">
<title>Node12&#45;&gt;Node9</title>
<path fill="none" stroke="#63b8ff" d="M320.63,-186.49C324.77,-153.73 335.31,-101.94 362,-66 376.16,-46.93 399.92,-33.12 417.31,-24.91"/>
<polygon fill="#63b8ff" stroke="#63b8ff" points="317.19,-185.81 319.55,-196.13 324.14,-186.59 317.19,-185.81"/>
</g>
</g>
</svg>
