<?xml version="1.0" encoding="UTF-8" standalone="no"?>
<!DOCTYPE svg PUBLIC "-//W3C//DTD SVG 1.1//EN"
 "http://www.w3.org/Graphics/SVG/1.1/DTD/svg11.dtd">
<!-- Generated by graphviz version 9.0.0 (20230911.1827)
 -->
<!-- Title: lib/layer3_board/include/IInputShiftRegister.hpp Pages: 1 -->
<svg width="312pt" height="194pt"
 viewBox="0.00 0.00 312.12 194.00" xmlns="http://www.w3.org/2000/svg" xmlns:xlink="http://www.w3.org/1999/xlink">
<g id="graph0" class="graph" transform="scale(1 1) rotate(0) translate(4 190)">
<title>lib/layer3_board/include/IInputShiftRegister.hpp</title>
<!-- Node1 -->
<g id="Node000001" class="node">
<title>Node1</title>
<g id="a_Node000001"><a xlink:title=" ">
<polygon fill="#999999" stroke="#666666" points="219.5,-186 101.5,-186 101.5,-155.5 219.5,-155.5 219.5,-186"/>
<text text-anchor="start" x="109.5" y="-172.5" font-family="Helvetica,sans-Serif" font-size="10.00">lib/layer3_board/include</text>
<text text-anchor="middle" x="160.5" y="-161.25" font-family="Helvetica,sans-Serif" font-size="10.00">/IInputShiftRegister.hpp</text>
</a>
</g>
</g>
<!-- Node2 -->
<g id="Node000002" class="node">
<title>Node2</title>
<g id="a_Node000002"><a xlink:href="isr__factory__interface_8hpp.xhtml" target="_top" xlink:title=" ">
<polygon fill="white" stroke="#666666" points="149.88,-113.88 25.13,-113.88 25.13,-83.38 149.88,-83.38 149.88,-113.88"/>
<text text-anchor="start" x="33.12" y="-100.38" font-family="Helvetica,sans-Serif" font-size="10.00">lib/layer3_board/include</text>
<text text-anchor="middle" x="87.5" y="-89.12" font-family="Helvetica,sans-Serif" font-size="10.00">/isr_factory_interface.hpp</text>
</a>
</g>
</g>
<!-- Node1&#45;&gt;Node2 -->
<g id="edge1_Node000001_Node000002" class="edge">
<title>Node1&#45;&gt;Node2</title>
<g id="a_edge1_Node000001_Node000002"><a xlink:title=" ">
<path fill="none" stroke="#63b8ff" d="M137.18,-147.35C125.86,-136.48 112.59,-123.72 102.61,-114.14"/>
<polygon fill="#63b8ff" stroke="#63b8ff" points="134.65,-149.77 144.28,-154.17 139.5,-144.72 134.65,-149.77"/>
</a>
</g>
</g>
<!-- Node5 -->
<g id="Node000005" class="node">
<title>Node5</title>
<g id="a_Node000005"><a xlink:href="InputShiftRegister_8hpp.xhtml" target="_top" xlink:title=" ">
<polygon fill="white" stroke="#666666" points="299.25,-119.5 167.75,-119.5 167.75,-77.75 299.25,-77.75 299.25,-119.5"/>
<text text-anchor="start" x="175.75" y="-106" font-family="Helvetica,sans-Serif" font-size="10.00">lib/layer4_drivers</text>
<text text-anchor="start" x="175.75" y="-94.75" font-family="Helvetica,sans-Serif" font-size="10.00">_libraries_adapters</text>
<text text-anchor="middle" x="233.5" y="-83.5" font-family="Helvetica,sans-Serif" font-size="10.00">/src/InputShiftRegister.hpp</text>
</a>
</g>
</g>
<!-- Node1&#45;&gt;Node5 -->
<g id="edge4_Node000001_Node000005" class="edge">
<title>Node1&#45;&gt;Node5</title>
<g id="a_edge4_Node000001_Node000005"><a xlink:title=" ">
<path fill="none" stroke="#63b8ff" d="M183.9,-147.27C193.02,-138.51 203.4,-128.54 212.3,-119.99"/>
<polygon fill="#63b8ff" stroke="#63b8ff" points="181.5,-144.72 176.72,-154.17 186.35,-149.77 181.5,-144.72"/>
</a>
</g>
</g>
<!-- Node3 -->
<g id="Node000003" class="node">
<title>Node3</title>
<g id="a_Node000003"><a xlink:href="keypad__factory__interface_8cpp.xhtml" target="_top" xlink:title=" ">
<polygon fill="white" stroke="#666666" points="145,-36.12 0,-36.12 0,-5.62 145,-5.62 145,-36.12"/>
<text text-anchor="start" x="8" y="-22.62" font-family="Helvetica,sans-Serif" font-size="10.00">lib/layer3_board/src</text>
<text text-anchor="middle" x="72.5" y="-11.38" font-family="Helvetica,sans-Serif" font-size="10.00">/keypad_factory_interface.cpp</text>
</a>
</g>
</g>
<!-- Node2&#45;&gt;Node3 -->
<g id="edge2_Node000002_Node000003" class="edge">
<title>Node2&#45;&gt;Node3</title>
<g id="a_edge2_Node000002_Node000003"><a xlink:title=" ">
<path fill="none" stroke="#63b8ff" d="M82.42,-71.97C80.07,-60.12 77.37,-46.49 75.38,-36.44"/>
<polygon fill="#63b8ff" stroke="#63b8ff" points="78.94,-72.41 84.31,-81.53 85.8,-71.05 78.94,-72.41"/>
</a>
</g>
</g>
<!-- Node4 -->
<g id="Node000004" class="node">
<title>Node4</title>
<g id="a_Node000004"><a xlink:href="isr__factory__interface_8cpp.xhtml" target="_top" xlink:title=" ">
<polygon fill="white" stroke="#666666" points="304.12,-41.75 162.88,-41.75 162.88,0 304.12,0 304.12,-41.75"/>
<text text-anchor="start" x="170.88" y="-28.25" font-family="Helvetica,sans-Serif" font-size="10.00">lib/layer4_drivers</text>
<text text-anchor="start" x="170.88" y="-17" font-family="Helvetica,sans-Serif" font-size="10.00">_libraries_adapters</text>
<text text-anchor="middle" x="233.5" y="-5.75" font-family="Helvetica,sans-Serif" font-size="10.00">/src/isr_factory_interface.cpp</text>
</a>
</g>
</g>
<!-- Node2&#45;&gt;Node4 -->
<g id="edge3_Node000002_Node000004" class="edge">
<title>Node2&#45;&gt;Node4</title>
<g id="a_edge3_Node000002_Node000004"><a xlink:title=" ">
<path fill="none" stroke="#63b8ff" d="M125.59,-77.86C146.76,-66.88 173.06,-53.23 194.4,-42.16"/>
<polygon fill="#63b8ff" stroke="#63b8ff" points="124.26,-74.61 116.99,-82.32 127.48,-80.82 124.26,-74.61"/>
</a>
</g>
</g>
<!-- Node5&#45;&gt;Node4 -->
<g id="edge5_Node000005_Node000004" class="edge">
<title>Node5&#45;&gt;Node4</title>
<g id="a_edge5_Node000005_Node000004"><a xlink:title=" ">
<path fill="none" stroke="#63b8ff" d="M233.5,-66C233.5,-57.96 233.5,-49.54 233.5,-42.23"/>
<polygon fill="#63b8ff" stroke="#63b8ff" points="230,-65.81 233.5,-75.81 237,-65.81 230,-65.81"/>
</a>
</g>
</g>
</g>
</svg>
