<?xml version="1.0" encoding="UTF-8" standalone="no"?>
<!DOCTYPE svg PUBLIC "-//W3C//DTD SVG 1.1//EN"
 "http://www.w3.org/Graphics/SVG/1.1/DTD/svg11.dtd">
<!-- Generated by graphviz version 7.0.5 (20221223.1930)
 -->
<!-- Title: lib/application_business_rules/include/IKeypad.hpp Pages: 1 -->
<svg width="869pt" height="258pt"
 viewBox="0.00 0.00 869.00 258.00" xmlns="http://www.w3.org/2000/svg" xmlns:xlink="http://www.w3.org/1999/xlink">
<g id="graph0" class="graph" transform="scale(1 1) rotate(0) translate(4 254)">
<title>lib/application_business_rules/include/IKeypad.hpp</title>
<!-- Node1 -->
<g id="node1" class="node">
<title>Node1</title>
<g id="a_node1"><a xlink:title=" ">
<polygon fill="#999999" stroke="#666666" points="578,-250 445,-250 445,-220 578,-220 578,-250"/>
<text text-anchor="start" x="453" y="-238" font-family="Helvetica,sans-Serif" font-size="10.00">lib/application_business</text>
<text text-anchor="middle" x="511.5" y="-227" font-family="Helvetica,sans-Serif" font-size="10.00">_rules/include/IKeypad.hpp</text>
</a>
</g>
</g>
<!-- Node2 -->
<g id="node2" class="node">
<title>Node2</title>
<g id="a_node2"><a xlink:href="Controller_8hpp.xhtml" target="_top" xlink:title=" ">
<polygon fill="white" stroke="#666666" points="366,-178.5 227,-178.5 227,-148.5 366,-148.5 366,-178.5"/>
<text text-anchor="start" x="235" y="-166.5" font-family="Helvetica,sans-Serif" font-size="10.00">lib/application_business</text>
<text text-anchor="middle" x="296.5" y="-155.5" font-family="Helvetica,sans-Serif" font-size="10.00">_rules/include/Controller.hpp</text>
</a>
</g>
</g>
<!-- Node1&#45;&gt;Node2 -->
<g id="edge1" class="edge">
<title>Node1&#45;&gt;Node2</title>
<path fill="none" stroke="#63b8ff" d="M455.97,-216.05C420.3,-204.52 374.58,-189.74 341.25,-178.97"/>
<polygon fill="#63b8ff" stroke="#63b8ff" points="454.66,-219.3 465.25,-219.05 456.81,-212.64 454.66,-219.3"/>
</g>
<!-- Node8 -->
<g id="node8" class="node">
<title>Node8</title>
<g id="a_node8"><a xlink:href="keypad__factory__interface_8hpp.xhtml" target="_top" xlink:title=" ">
<polygon fill="white" stroke="#666666" points="584,-184 439,-184 439,-143 584,-143 584,-184"/>
<text text-anchor="start" x="447" y="-172" font-family="Helvetica,sans-Serif" font-size="10.00">lib/application_business</text>
<text text-anchor="start" x="447" y="-161" font-family="Helvetica,sans-Serif" font-size="10.00">_rules/include/keypad_factory</text>
<text text-anchor="middle" x="511.5" y="-150" font-family="Helvetica,sans-Serif" font-size="10.00">_interface.hpp</text>
</a>
</g>
</g>
<!-- Node1&#45;&gt;Node8 -->
<g id="edge8" class="edge">
<title>Node1&#45;&gt;Node8</title>
<path fill="none" stroke="#63b8ff" d="M511.5,-208.36C511.5,-200.45 511.5,-191.87 511.5,-184.42"/>
<polygon fill="#63b8ff" stroke="#63b8ff" points="508,-208.09 511.5,-218.09 515,-208.09 508,-208.09"/>
</g>
<!-- Node10 -->
<g id="node10" class="node">
<title>Node10</title>
<g id="a_node10"><a xlink:href="Keypad_8hpp.xhtml" target="_top" xlink:title=" ">
<polygon fill="white" stroke="#666666" points="726.5,-178.5 630.5,-178.5 630.5,-148.5 726.5,-148.5 726.5,-178.5"/>
<text text-anchor="start" x="638.5" y="-166.5" font-family="Helvetica,sans-Serif" font-size="10.00">lib/board_adapters</text>
<text text-anchor="middle" x="678.5" y="-155.5" font-family="Helvetica,sans-Serif" font-size="10.00">/src/Keypad.hpp</text>
</a>
</g>
</g>
<!-- Node1&#45;&gt;Node10 -->
<g id="edge11" class="edge">
<title>Node1&#45;&gt;Node10</title>
<path fill="none" stroke="#63b8ff" d="M556.63,-215.22C584.1,-203.79 618.65,-189.41 643.94,-178.88"/>
<polygon fill="#63b8ff" stroke="#63b8ff" points="555.39,-211.94 547.5,-219.02 558.08,-218.41 555.39,-211.94"/>
</g>
<!-- Node3 -->
<g id="node3" class="node">
<title>Node3</title>
<g id="a_node3"><a xlink:href="ProcessHmiInputs_8hpp.xhtml" target="_top" xlink:title=" ">
<polygon fill="white" stroke="#666666" points="179,-101.5 0,-101.5 0,-71.5 179,-71.5 179,-101.5"/>
<text text-anchor="start" x="8" y="-89.5" font-family="Helvetica,sans-Serif" font-size="10.00">lib/application_business</text>
<text text-anchor="middle" x="89.5" y="-78.5" font-family="Helvetica,sans-Serif" font-size="10.00">_rules/include/ProcessHmiInputs.hpp</text>
</a>
</g>
</g>
<!-- Node2&#45;&gt;Node3 -->
<g id="edge2" class="edge">
<title>Node2&#45;&gt;Node3</title>
<path fill="none" stroke="#63b8ff" d="M245.85,-144.15C209.96,-131.14 162.47,-113.94 129.29,-101.92"/>
<polygon fill="#63b8ff" stroke="#63b8ff" points="244.57,-147.41 255.17,-147.52 246.96,-140.83 244.57,-147.41"/>
</g>
<!-- Node5 -->
<g id="node5" class="node">
<title>Node5</title>
<g id="a_node5"><a xlink:href="main_8cpp.xhtml" target="_top" xlink:title=" ">
<polygon fill="white" stroke="#666666" points="252.5,-24.5 180.5,-24.5 180.5,-5.5 252.5,-5.5 252.5,-24.5"/>
<text text-anchor="middle" x="216.5" y="-12.5" font-family="Helvetica,sans-Serif" font-size="10.00">src/main.cpp</text>
</a>
</g>
</g>
<!-- Node2&#45;&gt;Node5 -->
<g id="edge6" class="edge">
<title>Node2&#45;&gt;Node5</title>
<path fill="none" stroke="#63b8ff" d="M259.58,-141.65C247.02,-132.65 234.21,-120.95 226.5,-107 211.66,-80.15 213.51,-42.06 215.32,-24.94"/>
<polygon fill="#63b8ff" stroke="#63b8ff" points="257.54,-144.5 267.8,-147.16 261.44,-138.68 257.54,-144.5"/>
</g>
<!-- Node6 -->
<g id="node6" class="node">
<title>Node6</title>
<g id="a_node6"><a xlink:href="Controller_8cpp.xhtml" target="_top" xlink:title=" ">
<polygon fill="white" stroke="#666666" points="357.5,-101.5 235.5,-101.5 235.5,-71.5 357.5,-71.5 357.5,-101.5"/>
<text text-anchor="start" x="243.5" y="-89.5" font-family="Helvetica,sans-Serif" font-size="10.00">lib/application_business</text>
<text text-anchor="middle" x="296.5" y="-78.5" font-family="Helvetica,sans-Serif" font-size="10.00">_rules/src/Controller.cpp</text>
</a>
</g>
</g>
<!-- Node2&#45;&gt;Node6 -->
<g id="edge5" class="edge">
<title>Node2&#45;&gt;Node6</title>
<path fill="none" stroke="#63b8ff" d="M296.5,-136.73C296.5,-125.08 296.5,-111.76 296.5,-101.92"/>
<polygon fill="#63b8ff" stroke="#63b8ff" points="293,-136.53 296.5,-146.53 300,-136.53 293,-136.53"/>
</g>
<!-- Node7 -->
<g id="node7" class="node">
<title>Node7</title>
<g id="a_node7"><a xlink:href="test__hmi_8cpp.xhtml" target="_top" xlink:title=" ">
<polygon fill="white" stroke="#666666" points="469,-101.5 376,-101.5 376,-71.5 469,-71.5 469,-101.5"/>
<text text-anchor="start" x="384" y="-89.5" font-family="Helvetica,sans-Serif" font-size="10.00">test/test_hmi/test</text>
<text text-anchor="middle" x="422.5" y="-78.5" font-family="Helvetica,sans-Serif" font-size="10.00">_hmi.cpp</text>
</a>
</g>
</g>
<!-- Node2&#45;&gt;Node7 -->
<g id="edge7" class="edge">
<title>Node2&#45;&gt;Node7</title>
<path fill="none" stroke="#63b8ff" d="M330.48,-142.27C351.9,-129.52 379.04,-113.37 398.28,-101.92"/>
<polygon fill="#63b8ff" stroke="#63b8ff" points="328.9,-139.14 322.09,-147.27 332.48,-145.16 328.9,-139.14"/>
</g>
<!-- Node4 -->
<g id="node4" class="node">
<title>Node4</title>
<g id="a_node4"><a xlink:href="ProcessHmiInputs_8cpp.xhtml" target="_top" xlink:title=" ">
<polygon fill="white" stroke="#666666" points="162,-30 1,-30 1,0 162,0 162,-30"/>
<text text-anchor="start" x="9" y="-18" font-family="Helvetica,sans-Serif" font-size="10.00">lib/application_business</text>
<text text-anchor="middle" x="81.5" y="-7" font-family="Helvetica,sans-Serif" font-size="10.00">_rules/src/ProcessHmiInputs.cpp</text>
</a>
</g>
</g>
<!-- Node3&#45;&gt;Node4 -->
<g id="edge3" class="edge">
<title>Node3&#45;&gt;Node4</title>
<path fill="none" stroke="#63b8ff" d="M86.54,-59.76C85.39,-49.83 84.13,-38.86 83.16,-30.38"/>
<polygon fill="#63b8ff" stroke="#63b8ff" points="83.05,-60.06 87.67,-69.6 90,-59.26 83.05,-60.06"/>
</g>
<!-- Node3&#45;&gt;Node5 -->
<g id="edge4" class="edge">
<title>Node3&#45;&gt;Node5</title>
<path fill="none" stroke="#63b8ff" d="M125.87,-65.6C150.42,-52.16 181.62,-35.09 200.28,-24.88"/>
<polygon fill="#63b8ff" stroke="#63b8ff" points="124.23,-62.5 117.14,-70.37 127.59,-68.64 124.23,-62.5"/>
</g>
<!-- Node8&#45;&gt;Node5 -->
<g id="edge10" class="edge">
<title>Node8&#45;&gt;Node5</title>
<path fill="none" stroke="#63b8ff" d="M508.57,-131.42C504.86,-109.92 496.47,-82.33 477.5,-66 444.28,-37.41 316.6,-23.72 252.97,-18.56"/>
<polygon fill="#63b8ff" stroke="#63b8ff" points="505.07,-131.74 509.97,-141.14 512,-130.74 505.07,-131.74"/>
</g>
<!-- Node9 -->
<g id="node9" class="node">
<title>Node9</title>
<g id="a_node9"><a xlink:href="keypad__factory__interface_8cpp.xhtml" target="_top" xlink:title=" ">
<polygon fill="white" stroke="#666666" points="627,-107 526,-107 526,-66 627,-66 627,-107"/>
<text text-anchor="start" x="534" y="-95" font-family="Helvetica,sans-Serif" font-size="10.00">lib/board_adapters</text>
<text text-anchor="start" x="534" y="-84" font-family="Helvetica,sans-Serif" font-size="10.00">/src/keypad_factory</text>
<text text-anchor="middle" x="576.5" y="-73" font-family="Helvetica,sans-Serif" font-size="10.00">_interface.cpp</text>
</a>
</g>
</g>
<!-- Node8&#45;&gt;Node9 -->
<g id="edge9" class="edge">
<title>Node8&#45;&gt;Node9</title>
<path fill="none" stroke="#63b8ff" d="M536.04,-134.18C543.79,-125.24 552.19,-115.55 559.31,-107.33"/>
<polygon fill="#63b8ff" stroke="#63b8ff" points="533.47,-131.8 529.57,-141.65 538.76,-136.39 533.47,-131.8"/>
</g>
<!-- Node10&#45;&gt;Node9 -->
<g id="edge13" class="edge">
<title>Node10&#45;&gt;Node9</title>
<path fill="none" stroke="#63b8ff" d="M649.78,-141.38C635.25,-130.7 617.71,-117.8 603.43,-107.3"/>
<polygon fill="#63b8ff" stroke="#63b8ff" points="647.48,-144.04 657.61,-147.14 651.63,-138.4 647.48,-144.04"/>
</g>
<!-- Node11 -->
<g id="node11" class="node">
<title>Node11</title>
<g id="a_node11"><a xlink:href="Keypad_8cpp.xhtml" target="_top" xlink:title=" ">
<polygon fill="white" stroke="#666666" points="741.5,-101.5 645.5,-101.5 645.5,-71.5 741.5,-71.5 741.5,-101.5"/>
<text text-anchor="start" x="653.5" y="-89.5" font-family="Helvetica,sans-Serif" font-size="10.00">lib/board_adapters</text>
<text text-anchor="middle" x="693.5" y="-78.5" font-family="Helvetica,sans-Serif" font-size="10.00">/src/Keypad.cpp</text>
</a>
</g>
</g>
<!-- Node10&#45;&gt;Node11 -->
<g id="edge12" class="edge">
<title>Node10&#45;&gt;Node11</title>
<path fill="none" stroke="#63b8ff" d="M683.58,-137.1C685.93,-125.37 688.63,-111.87 690.62,-101.92"/>
<polygon fill="#63b8ff" stroke="#63b8ff" points="680.22,-136.06 681.69,-146.56 687.08,-137.44 680.22,-136.06"/>
</g>
<!-- Node12 -->
<g id="node12" class="node">
<title>Node12</title>
<g id="a_node12"><a xlink:href="test__board_8cpp.xhtml" target="_top" xlink:title=" ">
<polygon fill="white" stroke="#666666" points="861,-101.5 760,-101.5 760,-71.5 861,-71.5 861,-101.5"/>
<text text-anchor="start" x="768" y="-89.5" font-family="Helvetica,sans-Serif" font-size="10.00">test/test_board/test</text>
<text text-anchor="middle" x="810.5" y="-78.5" font-family="Helvetica,sans-Serif" font-size="10.00">_board.cpp</text>
</a>
</g>
</g>
<!-- Node10&#45;&gt;Node12 -->
<g id="edge14" class="edge">
<title>Node10&#45;&gt;Node12</title>
<path fill="none" stroke="#63b8ff" d="M713.8,-142.44C736.28,-129.67 764.88,-113.42 785.13,-101.92"/>
<polygon fill="#63b8ff" stroke="#63b8ff" points="712.23,-139.31 705.27,-147.29 715.69,-145.39 712.23,-139.31"/>
</g>
</g>
</svg>
