<?xml version="1.0" encoding="UTF-8" standalone="no"?>
<!DOCTYPE svg PUBLIC "-//W3C//DTD SVG 1.1//EN"
 "http://www.w3.org/Graphics/SVG/1.1/DTD/svg11.dtd">
<!-- Generated by graphviz version 9.0.0 (20230911.1827)
 -->
<!-- Title: lib/layer2_hmi/include/IKeypad.hpp Pages: 1 -->
<svg width="721pt" height="183pt"
 viewBox="0.00 0.00 721.25 182.75" xmlns="http://www.w3.org/2000/svg" xmlns:xlink="http://www.w3.org/1999/xlink">
<g id="graph0" class="graph" transform="scale(1 1) rotate(0) translate(4 178.75)">
<title>lib/layer2_hmi/include/IKeypad.hpp</title>
<!-- Node1 -->
<g id="Node000001" class="node">
<title>Node1</title>
<g id="a_Node000001"><a xlink:title=" ">
<polygon fill="#999999" stroke="#666666" points="429.38,-174.75 320.38,-174.75 320.38,-144.25 429.38,-144.25 429.38,-174.75"/>
<text text-anchor="start" x="328.38" y="-161.25" font-family="Helvetica,sans-Serif" font-size="10.00">lib/layer2_hmi/include</text>
<text text-anchor="middle" x="374.88" y="-150" font-family="Helvetica,sans-Serif" font-size="10.00">/IKeypad.hpp</text>
</a>
</g>
</g>
<!-- Node2 -->
<g id="Node000002" class="node">
<title>Node2</title>
<g id="a_Node000002"><a xlink:href="keypad__factory__interface_8hpp.xhtml" target="_top" xlink:title=" ">
<polygon fill="white" stroke="#666666" points="447.38,-108.25 302.38,-108.25 302.38,-77.75 447.38,-77.75 447.38,-108.25"/>
<text text-anchor="start" x="310.38" y="-94.75" font-family="Helvetica,sans-Serif" font-size="10.00">lib/layer2_hmi/include</text>
<text text-anchor="middle" x="374.88" y="-83.5" font-family="Helvetica,sans-Serif" font-size="10.00">/keypad_factory_interface.hpp</text>
</a>
</g>
</g>
<!-- Node1&#45;&gt;Node2 -->
<g id="edge1_Node000001_Node000002" class="edge">
<title>Node1&#45;&gt;Node2</title>
<g id="a_edge1_Node000001_Node000002"><a xlink:title=" ">
<path fill="none" stroke="#63b8ff" d="M374.88,-132.56C374.88,-124.39 374.88,-115.66 374.88,-108.58"/>
<polygon fill="#63b8ff" stroke="#63b8ff" points="371.38,-132.35 374.88,-142.35 378.38,-132.35 371.38,-132.35"/>
</a>
</g>
</g>
<!-- Node5 -->
<g id="Node000005" class="node">
<title>Node5</title>
<g id="a_Node000005"><a xlink:href="Controller_8hpp.xhtml" target="_top" xlink:title=" ">
<polygon fill="white" stroke="#666666" points="256.75,-108.25 165,-108.25 165,-77.75 256.75,-77.75 256.75,-108.25"/>
<text text-anchor="start" x="173" y="-94.75" font-family="Helvetica,sans-Serif" font-size="10.00">lib/layer2_hmi/src</text>
<text text-anchor="middle" x="210.88" y="-83.5" font-family="Helvetica,sans-Serif" font-size="10.00">/Controller.hpp</text>
</a>
</g>
</g>
<!-- Node1&#45;&gt;Node5 -->
<g id="edge4_Node000001_Node000005" class="edge">
<title>Node1&#45;&gt;Node5</title>
<g id="a_edge4_Node000001_Node000005"><a xlink:title=" ">
<path fill="none" stroke="#63b8ff" d="M327.24,-139.76C302.08,-129.87 271.65,-117.9 248.23,-108.69"/>
<polygon fill="#63b8ff" stroke="#63b8ff" points="325.67,-142.91 336.25,-143.31 328.23,-136.39 325.67,-142.91"/>
</a>
</g>
</g>
<!-- Node8 -->
<g id="Node000008" class="node">
<title>Node8</title>
<g id="a_Node000008"><a xlink:href="Keypad_8hpp.xhtml" target="_top" xlink:title=" ">
<polygon fill="white" stroke="#666666" points="579.88,-108.25 479.88,-108.25 479.88,-77.75 579.88,-77.75 579.88,-108.25"/>
<text text-anchor="start" x="487.88" y="-94.75" font-family="Helvetica,sans-Serif" font-size="10.00">lib/layer3_board/src</text>
<text text-anchor="middle" x="529.88" y="-83.5" font-family="Helvetica,sans-Serif" font-size="10.00">/Keypad.hpp</text>
</a>
</g>
</g>
<!-- Node1&#45;&gt;Node8 -->
<g id="edge8_Node000001_Node000008" class="edge">
<title>Node1&#45;&gt;Node8</title>
<g id="a_edge8_Node000001_Node000008"><a xlink:title=" ">
<path fill="none" stroke="#63b8ff" d="M420.54,-139.5C444.19,-129.66 472.63,-117.82 494.57,-108.69"/>
<polygon fill="#63b8ff" stroke="#63b8ff" points="419.33,-136.21 411.44,-143.28 422.02,-142.67 419.33,-136.21"/>
</a>
</g>
</g>
<!-- Node3 -->
<g id="Node000003" class="node">
<title>Node3</title>
<g id="a_Node000003"><a xlink:href="controller__factory__interface_8cpp.xhtml" target="_top" xlink:title=" ">
<polygon fill="white" stroke="#666666" points="313.5,-41.75 220.25,-41.75 220.25,0 313.5,0 313.5,-41.75"/>
<text text-anchor="start" x="228.25" y="-28.25" font-family="Helvetica,sans-Serif" font-size="10.00">lib/layer2_hmi/src</text>
<text text-anchor="start" x="228.25" y="-17" font-family="Helvetica,sans-Serif" font-size="10.00">/controller_factory</text>
<text text-anchor="middle" x="266.88" y="-5.75" font-family="Helvetica,sans-Serif" font-size="10.00">_interface.cpp</text>
</a>
</g>
</g>
<!-- Node2&#45;&gt;Node3 -->
<g id="edge2_Node000002_Node000003" class="edge">
<title>Node2&#45;&gt;Node3</title>
<g id="a_edge2_Node000002_Node000003"><a xlink:title=" ">
<path fill="none" stroke="#63b8ff" d="M342.89,-71.23C328.73,-62.04 312.15,-51.27 298.09,-42.14"/>
<polygon fill="#63b8ff" stroke="#63b8ff" points="340.67,-73.96 350.97,-76.48 344.48,-68.09 340.67,-73.96"/>
</a>
</g>
</g>
<!-- Node4 -->
<g id="Node000004" class="node">
<title>Node4</title>
<g id="a_Node000004"><a xlink:href="keypad__factory__interface_8cpp.xhtml" target="_top" xlink:title=" ">
<polygon fill="white" stroke="#666666" points="476.38,-36.12 331.38,-36.12 331.38,-5.62 476.38,-5.62 476.38,-36.12"/>
<text text-anchor="start" x="339.38" y="-22.62" font-family="Helvetica,sans-Serif" font-size="10.00">lib/layer3_board/src</text>
<text text-anchor="middle" x="403.88" y="-11.38" font-family="Helvetica,sans-Serif" font-size="10.00">/keypad_factory_interface.cpp</text>
</a>
</g>
</g>
<!-- Node2&#45;&gt;Node4 -->
<g id="edge3_Node000002_Node000004" class="edge">
<title>Node2&#45;&gt;Node4</title>
<g id="a_edge3_Node000002_Node000004"><a xlink:title=" ">
<path fill="none" stroke="#63b8ff" d="M385.21,-67.01C389.45,-56.75 394.22,-45.22 397.87,-36.39"/>
<polygon fill="#63b8ff" stroke="#63b8ff" points="382.05,-65.49 381.46,-76.07 388.52,-68.17 382.05,-65.49"/>
</a>
</g>
</g>
<!-- Node5&#45;&gt;Node3 -->
<g id="edge6_Node000005_Node000003" class="edge">
<title>Node5&#45;&gt;Node3</title>
<g id="a_edge6_Node000005_Node000003"><a xlink:title=" ">
<path fill="none" stroke="#63b8ff" d="M229.48,-68.71C236.31,-60.14 244,-50.52 250.62,-42.24"/>
<polygon fill="#63b8ff" stroke="#63b8ff" points="226.93,-66.29 223.42,-76.29 232.4,-70.66 226.93,-66.29"/>
</a>
</g>
</g>
<!-- Node6 -->
<g id="Node000006" class="node">
<title>Node6</title>
<g id="a_Node000006"><a xlink:href="Controller_8cpp.xhtml" target="_top" xlink:title=" ">
<polygon fill="white" stroke="#666666" points="91.75,-36.12 0,-36.12 0,-5.62 91.75,-5.62 91.75,-36.12"/>
<text text-anchor="start" x="8" y="-22.62" font-family="Helvetica,sans-Serif" font-size="10.00">lib/layer2_hmi/src</text>
<text text-anchor="middle" x="45.88" y="-11.38" font-family="Helvetica,sans-Serif" font-size="10.00">/Controller.cpp</text>
</a>
</g>
</g>
<!-- Node5&#45;&gt;Node6 -->
<g id="edge5_Node000005_Node000006" class="edge">
<title>Node5&#45;&gt;Node6</title>
<g id="a_edge5_Node000005_Node000006"><a xlink:title=" ">
<path fill="none" stroke="#63b8ff" d="M165.95,-72.91C139.01,-61.46 105.27,-47.12 80.42,-36.56"/>
<polygon fill="#63b8ff" stroke="#63b8ff" points="164.32,-76.02 174.89,-76.71 167.06,-69.57 164.32,-76.02"/>
</a>
</g>
</g>
<!-- Node7 -->
<g id="Node000007" class="node">
<title>Node7</title>
<g id="a_Node000007"><a xlink:href="test__hmi_8cpp.xhtml" target="_top" xlink:title=" ">
<polygon fill="white" stroke="#666666" points="202.12,-36.12 109.62,-36.12 109.62,-5.62 202.12,-5.62 202.12,-36.12"/>
<text text-anchor="start" x="117.62" y="-22.62" font-family="Helvetica,sans-Serif" font-size="10.00">test/test_hmi/test</text>
<text text-anchor="middle" x="155.88" y="-11.38" font-family="Helvetica,sans-Serif" font-size="10.00">_hmi.cpp</text>
</a>
</g>
</g>
<!-- Node5&#45;&gt;Node7 -->
<g id="edge7_Node000005_Node000007" class="edge">
<title>Node5&#45;&gt;Node7</title>
<g id="a_edge7_Node000005_Node000007"><a xlink:title=" ">
<path fill="none" stroke="#63b8ff" d="M192.55,-68.64C184.19,-57.98 174.55,-45.69 167.26,-36.39"/>
<polygon fill="#63b8ff" stroke="#63b8ff" points="189.62,-70.57 198.54,-76.28 195.13,-66.25 189.62,-70.57"/>
</a>
</g>
</g>
<!-- Node8&#45;&gt;Node4 -->
<g id="edge10_Node000008_Node000004" class="edge">
<title>Node8&#45;&gt;Node4</title>
<g id="a_edge10_Node000008_Node000004"><a xlink:title=" ">
<path fill="none" stroke="#63b8ff" d="M493.64,-71.84C473.41,-60.57 448.64,-46.79 430.25,-36.56"/>
<polygon fill="#63b8ff" stroke="#63b8ff" points="491.7,-74.76 502.14,-76.56 495.1,-68.64 491.7,-74.76"/>
</a>
</g>
</g>
<!-- Node9 -->
<g id="Node000009" class="node">
<title>Node9</title>
<g id="a_Node000009"><a xlink:href="Keypad_8cpp.xhtml" target="_top" xlink:title=" ">
<polygon fill="white" stroke="#666666" points="594.88,-36.12 494.88,-36.12 494.88,-5.62 594.88,-5.62 594.88,-36.12"/>
<text text-anchor="start" x="502.88" y="-22.62" font-family="Helvetica,sans-Serif" font-size="10.00">lib/layer3_board/src</text>
<text text-anchor="middle" x="544.88" y="-11.38" font-family="Helvetica,sans-Serif" font-size="10.00">/Keypad.cpp</text>
</a>
</g>
</g>
<!-- Node8&#45;&gt;Node9 -->
<g id="edge9_Node000008_Node000009" class="edge">
<title>Node8&#45;&gt;Node9</title>
<g id="a_edge9_Node000008_Node000009"><a xlink:title=" ">
<path fill="none" stroke="#63b8ff" d="M535.36,-66.35C537.52,-56.26 539.92,-45.03 541.77,-36.39"/>
<polygon fill="#63b8ff" stroke="#63b8ff" points="531.97,-65.48 533.3,-75.99 538.81,-66.94 531.97,-65.48"/>
</a>
</g>
</g>
<!-- Node10 -->
<g id="Node000010" class="node">
<title>Node10</title>
<g id="a_Node000010"><a xlink:href="test__board_8cpp.xhtml" target="_top" xlink:title=" ">
<polygon fill="white" stroke="#666666" points="713.25,-36.12 612.5,-36.12 612.5,-5.62 713.25,-5.62 713.25,-36.12"/>
<text text-anchor="start" x="620.5" y="-22.62" font-family="Helvetica,sans-Serif" font-size="10.00">test/test_board/test</text>
<text text-anchor="middle" x="662.88" y="-11.38" font-family="Helvetica,sans-Serif" font-size="10.00">_board.cpp</text>
</a>
</g>
</g>
<!-- Node8&#45;&gt;Node10 -->
<g id="edge11_Node000008_Node000010" class="edge">
<title>Node8&#45;&gt;Node10</title>
<g id="a_edge11_Node000008_Node000010"><a xlink:title=" ">
<path fill="none" stroke="#63b8ff" d="M567.83,-71.99C589.24,-60.7 615.53,-46.84 635.03,-36.56"/>
<polygon fill="#63b8ff" stroke="#63b8ff" points="566.31,-68.83 559.09,-76.59 569.57,-75.03 566.31,-68.83"/>
</a>
</g>
</g>
</g>
</svg>
