<?xml version="1.0" encoding="UTF-8" standalone="no"?>
<!DOCTYPE svg PUBLIC "-//W3C//DTD SVG 1.1//EN"
 "http://www.w3.org/Graphics/SVG/1.1/DTD/svg11.dtd">
<!-- Generated by graphviz version 7.0.5 (20221223.1930)
 -->
<!-- Title: lib/application_business_rules/include/IKeypad.hpp Pages: 1 -->
<svg width="869pt" height="258pt"
 viewBox="0.00 0.00 868.50 258.00" xmlns="http://www.w3.org/2000/svg" xmlns:xlink="http://www.w3.org/1999/xlink">
<g id="graph0" class="graph" transform="scale(1 1) rotate(0) translate(4 254)">
<title>lib/application_business_rules/include/IKeypad.hpp</title>
<!-- Node1 -->
<g id="node1" class="node">
<title>Node1</title>
<g id="a_node1"><a xlink:title=" ">
<polygon fill="#999999" stroke="#666666" points="400.5,-250 267.5,-250 267.5,-220 400.5,-220 400.5,-250"/>
<text text-anchor="start" x="275.5" y="-238" font-family="Helvetica,sans-Serif" font-size="10.00">lib/application_business</text>
<text text-anchor="middle" x="334" y="-227" font-family="Helvetica,sans-Serif" font-size="10.00">_rules/include/IKeypad.hpp</text>
</a>
</g>
</g>
<!-- Node2 -->
<g id="node2" class="node">
<title>Node2</title>
<g id="a_node2"><a xlink:href="keypad__factory__interface_8hpp.xhtml" target="_top" xlink:title=" ">
<polygon fill="white" stroke="#666666" points="406.5,-184 261.5,-184 261.5,-143 406.5,-143 406.5,-184"/>
<text text-anchor="start" x="269.5" y="-172" font-family="Helvetica,sans-Serif" font-size="10.00">lib/application_business</text>
<text text-anchor="start" x="269.5" y="-161" font-family="Helvetica,sans-Serif" font-size="10.00">_rules/include/keypad_factory</text>
<text text-anchor="middle" x="334" y="-150" font-family="Helvetica,sans-Serif" font-size="10.00">_interface.hpp</text>
</a>
</g>
</g>
<!-- Node1&#45;&gt;Node2 -->
<g id="edge1" class="edge">
<title>Node1&#45;&gt;Node2</title>
<path fill="none" stroke="#63b8ff" d="M334,-208.36C334,-200.45 334,-191.87 334,-184.42"/>
<polygon fill="#63b8ff" stroke="#63b8ff" points="330.5,-208.09 334,-218.09 337.5,-208.09 330.5,-208.09"/>
</g>
<!-- Node5 -->
<g id="node5" class="node">
<title>Node5</title>
<g id="a_node5"><a xlink:href="Controller_8hpp.xhtml" target="_top" xlink:title=" ">
<polygon fill="white" stroke="#666666" points="580,-178.5 458,-178.5 458,-148.5 580,-148.5 580,-178.5"/>
<text text-anchor="start" x="466" y="-166.5" font-family="Helvetica,sans-Serif" font-size="10.00">lib/application_business</text>
<text text-anchor="middle" x="519" y="-155.5" font-family="Helvetica,sans-Serif" font-size="10.00">_rules/src/Controller.hpp</text>
</a>
</g>
</g>
<!-- Node1&#45;&gt;Node5 -->
<g id="edge4" class="edge">
<title>Node1&#45;&gt;Node5</title>
<path fill="none" stroke="#63b8ff" d="M382.79,-215.67C413.41,-204.17 452.33,-189.55 480.72,-178.88"/>
<polygon fill="#63b8ff" stroke="#63b8ff" points="381.88,-212.27 373.75,-219.07 384.34,-218.83 381.88,-212.27"/>
</g>
<!-- Node10 -->
<g id="node10" class="node">
<title>Node10</title>
<g id="a_node10"><a xlink:href="Keypad_8hpp.xhtml" target="_top" xlink:title=" ">
<polygon fill="white" stroke="#666666" points="228,-178.5 132,-178.5 132,-148.5 228,-148.5 228,-178.5"/>
<text text-anchor="start" x="140" y="-166.5" font-family="Helvetica,sans-Serif" font-size="10.00">lib/board_adapters</text>
<text text-anchor="middle" x="180" y="-155.5" font-family="Helvetica,sans-Serif" font-size="10.00">/src/Keypad.hpp</text>
</a>
</g>
</g>
<!-- Node1&#45;&gt;Node10 -->
<g id="edge11" class="edge">
<title>Node1&#45;&gt;Node10</title>
<path fill="none" stroke="#63b8ff" d="M291.71,-214.91C266.49,-203.53 234.98,-189.31 211.87,-178.88"/>
<polygon fill="#63b8ff" stroke="#63b8ff" points="290.16,-218.05 300.71,-218.98 293.04,-211.67 290.16,-218.05"/>
</g>
<!-- Node3 -->
<g id="node3" class="node">
<title>Node3</title>
<g id="a_node3"><a xlink:href="keypad__factory__interface_8cpp.xhtml" target="_top" xlink:title=" ">
<polygon fill="white" stroke="#666666" points="334.5,-107 233.5,-107 233.5,-66 334.5,-66 334.5,-107"/>
<text text-anchor="start" x="241.5" y="-95" font-family="Helvetica,sans-Serif" font-size="10.00">lib/board_adapters</text>
<text text-anchor="start" x="241.5" y="-84" font-family="Helvetica,sans-Serif" font-size="10.00">/src/keypad_factory</text>
<text text-anchor="middle" x="284" y="-73" font-family="Helvetica,sans-Serif" font-size="10.00">_interface.cpp</text>
</a>
</g>
</g>
<!-- Node2&#45;&gt;Node3 -->
<g id="edge2" class="edge">
<title>Node2&#45;&gt;Node3</title>
<path fill="none" stroke="#63b8ff" d="M314.56,-133.34C308.76,-124.63 302.53,-115.3 297.22,-107.33"/>
<polygon fill="#63b8ff" stroke="#63b8ff" points="311.56,-135.16 320.02,-141.54 317.39,-131.27 311.56,-135.16"/>
</g>
<!-- Node4 -->
<g id="node4" class="node">
<title>Node4</title>
<g id="a_node4"><a xlink:href="main_8cpp.xhtml" target="_top" xlink:title=" ">
<polygon fill="white" stroke="#666666" points="428,-24.5 356,-24.5 356,-5.5 428,-5.5 428,-24.5"/>
<text text-anchor="middle" x="392" y="-12.5" font-family="Helvetica,sans-Serif" font-size="10.00">src/main.cpp</text>
</a>
</g>
</g>
<!-- Node2&#45;&gt;Node4 -->
<g id="edge3" class="edge">
<title>Node2&#45;&gt;Node4</title>
<path fill="none" stroke="#63b8ff" d="M346.05,-132.07C359.42,-98.28 380.22,-45.75 388.46,-24.93"/>
<polygon fill="#63b8ff" stroke="#63b8ff" points="342.81,-130.75 342.38,-141.34 349.31,-133.33 342.81,-130.75"/>
</g>
<!-- Node5&#45;&gt;Node4 -->
<g id="edge9" class="edge">
<title>Node5&#45;&gt;Node4</title>
<path fill="none" stroke="#63b8ff" d="M468.92,-143.22C451.68,-134.43 433.57,-122.48 421,-107 400.62,-81.9 394.46,-42.24 392.68,-24.76"/>
<polygon fill="#63b8ff" stroke="#63b8ff" points="467.02,-146.19 477.55,-147.37 470.06,-139.88 467.02,-146.19"/>
</g>
<!-- Node6 -->
<g id="node6" class="node">
<title>Node6</title>
<g id="a_node6"><a xlink:href="ProcessHmiInputs_8hpp.xhtml" target="_top" xlink:title=" ">
<polygon fill="white" stroke="#666666" points="608.5,-101.5 429.5,-101.5 429.5,-71.5 608.5,-71.5 608.5,-101.5"/>
<text text-anchor="start" x="437.5" y="-89.5" font-family="Helvetica,sans-Serif" font-size="10.00">lib/application_business</text>
<text text-anchor="middle" x="519" y="-78.5" font-family="Helvetica,sans-Serif" font-size="10.00">_rules/include/ProcessHmiInputs.hpp</text>
</a>
</g>
</g>
<!-- Node5&#45;&gt;Node6 -->
<g id="edge5" class="edge">
<title>Node5&#45;&gt;Node6</title>
<path fill="none" stroke="#63b8ff" d="M519,-136.73C519,-125.08 519,-111.76 519,-101.92"/>
<polygon fill="#63b8ff" stroke="#63b8ff" points="515.5,-136.53 519,-146.53 522.5,-136.53 515.5,-136.53"/>
</g>
<!-- Node8 -->
<g id="node8" class="node">
<title>Node8</title>
<g id="a_node8"><a xlink:href="Controller_8cpp.xhtml" target="_top" xlink:title=" ">
<polygon fill="white" stroke="#666666" points="749,-101.5 627,-101.5 627,-71.5 749,-71.5 749,-101.5"/>
<text text-anchor="start" x="635" y="-89.5" font-family="Helvetica,sans-Serif" font-size="10.00">lib/application_business</text>
<text text-anchor="middle" x="688" y="-78.5" font-family="Helvetica,sans-Serif" font-size="10.00">_rules/src/Controller.cpp</text>
</a>
</g>
</g>
<!-- Node5&#45;&gt;Node8 -->
<g id="edge8" class="edge">
<title>Node5&#45;&gt;Node8</title>
<path fill="none" stroke="#63b8ff" d="M561.88,-143.47C590.99,-130.55 628.89,-113.73 655.52,-101.92"/>
<polygon fill="#63b8ff" stroke="#63b8ff" points="560.69,-140.17 552.97,-147.43 563.53,-146.57 560.69,-140.17"/>
</g>
<!-- Node9 -->
<g id="node9" class="node">
<title>Node9</title>
<g id="a_node9"><a xlink:href="test__hmi_8cpp.xhtml" target="_top" xlink:title=" ">
<polygon fill="white" stroke="#666666" points="860.5,-101.5 767.5,-101.5 767.5,-71.5 860.5,-71.5 860.5,-101.5"/>
<text text-anchor="start" x="775.5" y="-89.5" font-family="Helvetica,sans-Serif" font-size="10.00">test/test_hmi/test</text>
<text text-anchor="middle" x="814" y="-78.5" font-family="Helvetica,sans-Serif" font-size="10.00">_hmi.cpp</text>
</a>
</g>
</g>
<!-- Node5&#45;&gt;Node9 -->
<g id="edge10" class="edge">
<title>Node5&#45;&gt;Node9</title>
<path fill="none" stroke="#63b8ff" d="M591.51,-147.77C639.16,-137.58 702.69,-123 758,-107 763.24,-105.48 768.71,-103.76 774.09,-101.98"/>
<polygon fill="#63b8ff" stroke="#63b8ff" points="590.9,-144.32 581.85,-149.82 592.36,-151.17 590.9,-144.32"/>
</g>
<!-- Node6&#45;&gt;Node4 -->
<g id="edge7" class="edge">
<title>Node6&#45;&gt;Node4</title>
<path fill="none" stroke="#63b8ff" d="M482.63,-65.6C458.08,-52.16 426.88,-35.09 408.22,-24.88"/>
<polygon fill="#63b8ff" stroke="#63b8ff" points="480.91,-68.64 491.36,-70.37 484.27,-62.5 480.91,-68.64"/>
</g>
<!-- Node7 -->
<g id="node7" class="node">
<title>Node7</title>
<g id="a_node7"><a xlink:href="ProcessHmiInputs_8cpp.xhtml" target="_top" xlink:title=" ">
<polygon fill="white" stroke="#666666" points="607.5,-30 446.5,-30 446.5,0 607.5,0 607.5,-30"/>
<text text-anchor="start" x="454.5" y="-18" font-family="Helvetica,sans-Serif" font-size="10.00">lib/application_business</text>
<text text-anchor="middle" x="527" y="-7" font-family="Helvetica,sans-Serif" font-size="10.00">_rules/src/ProcessHmiInputs.cpp</text>
</a>
</g>
</g>
<!-- Node6&#45;&gt;Node7 -->
<g id="edge6" class="edge">
<title>Node6&#45;&gt;Node7</title>
<path fill="none" stroke="#63b8ff" d="M521.96,-59.76C523.11,-49.83 524.37,-38.86 525.34,-30.38"/>
<polygon fill="#63b8ff" stroke="#63b8ff" points="518.5,-59.26 520.83,-69.6 525.45,-60.06 518.5,-59.26"/>
</g>
<!-- Node10&#45;&gt;Node3 -->
<g id="edge13" class="edge">
<title>Node10&#45;&gt;Node3</title>
<path fill="none" stroke="#63b8ff" d="M209.28,-141.38C224.1,-130.7 241.98,-117.8 256.54,-107.3"/>
<polygon fill="#63b8ff" stroke="#63b8ff" points="207.34,-138.47 201.28,-147.15 211.44,-144.14 207.34,-138.47"/>
</g>
<!-- Node11 -->
<g id="node11" class="node">
<title>Node11</title>
<g id="a_node11"><a xlink:href="Keypad_8cpp.xhtml" target="_top" xlink:title=" ">
<polygon fill="white" stroke="#666666" points="96,-101.5 0,-101.5 0,-71.5 96,-71.5 96,-101.5"/>
<text text-anchor="start" x="8" y="-89.5" font-family="Helvetica,sans-Serif" font-size="10.00">lib/board_adapters</text>
<text text-anchor="middle" x="48" y="-78.5" font-family="Helvetica,sans-Serif" font-size="10.00">/src/Keypad.cpp</text>
</a>
</g>
</g>
<!-- Node10&#45;&gt;Node11 -->
<g id="edge12" class="edge">
<title>Node10&#45;&gt;Node11</title>
<path fill="none" stroke="#63b8ff" d="M144.7,-142.44C122.22,-129.67 93.62,-113.42 73.37,-101.92"/>
<polygon fill="#63b8ff" stroke="#63b8ff" points="142.81,-145.39 153.23,-147.29 146.27,-139.31 142.81,-145.39"/>
</g>
<!-- Node12 -->
<g id="node12" class="node">
<title>Node12</title>
<g id="a_node12"><a xlink:href="test__board_8cpp.xhtml" target="_top" xlink:title=" ">
<polygon fill="white" stroke="#666666" points="215.5,-101.5 114.5,-101.5 114.5,-71.5 215.5,-71.5 215.5,-101.5"/>
<text text-anchor="start" x="122.5" y="-89.5" font-family="Helvetica,sans-Serif" font-size="10.00">test/test_board/test</text>
<text text-anchor="middle" x="165" y="-78.5" font-family="Helvetica,sans-Serif" font-size="10.00">_board.cpp</text>
</a>
</g>
</g>
<!-- Node10&#45;&gt;Node12 -->
<g id="edge14" class="edge">
<title>Node10&#45;&gt;Node12</title>
<path fill="none" stroke="#63b8ff" d="M174.92,-137.1C172.57,-125.37 169.87,-111.87 167.88,-101.92"/>
<polygon fill="#63b8ff" stroke="#63b8ff" points="171.42,-137.44 176.81,-146.56 178.28,-136.06 171.42,-137.44"/>
</g>
</g>
</svg>
