<?xml version="1.0" encoding="UTF-8" standalone="no"?>
<!DOCTYPE svg PUBLIC "-//W3C//DTD SVG 1.1//EN"
 "http://www.w3.org/Graphics/SVG/1.1/DTD/svg11.dtd">
<!-- Generated by graphviz version 7.0.5 (20221223.1930)
 -->
<!-- Title: lib/application_business_rules/include/IKeypad.hpp Pages: 1 -->
<svg width="750pt" height="192pt"
 viewBox="0.00 0.00 749.50 192.00" xmlns="http://www.w3.org/2000/svg" xmlns:xlink="http://www.w3.org/1999/xlink">
<g id="graph0" class="graph" transform="scale(1 1) rotate(0) translate(4 188)">
<title>lib/application_business_rules/include/IKeypad.hpp</title>
<!-- Node1 -->
<g id="node1" class="node">
<title>Node1</title>
<g id="a_node1"><a xlink:title=" ">
<polygon fill="#999999" stroke="#666666" points="477.5,-184 344.5,-184 344.5,-154 477.5,-154 477.5,-184"/>
<text text-anchor="start" x="352.5" y="-172" font-family="Helvetica,sans-Serif" font-size="10.00">lib/application_business</text>
<text text-anchor="middle" x="411" y="-161" font-family="Helvetica,sans-Serif" font-size="10.00">_rules/include/IKeypad.hpp</text>
</a>
</g>
</g>
<!-- Node2 -->
<g id="node2" class="node">
<title>Node2</title>
<g id="a_node2"><a xlink:href="keypad__factory__interface_8hpp.xhtml" target="_top" xlink:title=" ">
<polygon fill="white" stroke="#666666" points="483.5,-118 338.5,-118 338.5,-77 483.5,-77 483.5,-118"/>
<text text-anchor="start" x="346.5" y="-106" font-family="Helvetica,sans-Serif" font-size="10.00">lib/application_business</text>
<text text-anchor="start" x="346.5" y="-95" font-family="Helvetica,sans-Serif" font-size="10.00">_rules/include/keypad_factory</text>
<text text-anchor="middle" x="411" y="-84" font-family="Helvetica,sans-Serif" font-size="10.00">_interface.hpp</text>
</a>
</g>
</g>
<!-- Node1&#45;&gt;Node2 -->
<g id="edge1" class="edge">
<title>Node1&#45;&gt;Node2</title>
<path fill="none" stroke="#63b8ff" d="M411,-142.36C411,-134.45 411,-125.87 411,-118.42"/>
<polygon fill="#63b8ff" stroke="#63b8ff" points="407.5,-142.09 411,-152.09 414.5,-142.09 407.5,-142.09"/>
</g>
<!-- Node5 -->
<g id="node5" class="node">
<title>Node5</title>
<g id="a_node5"><a xlink:href="Controller_8hpp.xhtml" target="_top" xlink:title=" ">
<polygon fill="white" stroke="#666666" points="296,-112.5 174,-112.5 174,-82.5 296,-82.5 296,-112.5"/>
<text text-anchor="start" x="182" y="-100.5" font-family="Helvetica,sans-Serif" font-size="10.00">lib/application_business</text>
<text text-anchor="middle" x="235" y="-89.5" font-family="Helvetica,sans-Serif" font-size="10.00">_rules/src/Controller.hpp</text>
</a>
</g>
</g>
<!-- Node1&#45;&gt;Node5 -->
<g id="edge4" class="edge">
<title>Node1&#45;&gt;Node5</title>
<path fill="none" stroke="#63b8ff" d="M364.21,-149.52C335.13,-138.04 298.31,-123.5 271.42,-112.88"/>
<polygon fill="#63b8ff" stroke="#63b8ff" points="362.54,-152.63 373.12,-153.04 365.11,-146.12 362.54,-152.63"/>
</g>
<!-- Node8 -->
<g id="node8" class="node">
<title>Node8</title>
<g id="a_node8"><a xlink:href="Keypad_8hpp.xhtml" target="_top" xlink:title=" ">
<polygon fill="white" stroke="#666666" points="610,-112.5 514,-112.5 514,-82.5 610,-82.5 610,-112.5"/>
<text text-anchor="start" x="522" y="-100.5" font-family="Helvetica,sans-Serif" font-size="10.00">lib/board_adapters</text>
<text text-anchor="middle" x="562" y="-89.5" font-family="Helvetica,sans-Serif" font-size="10.00">/src/Keypad.hpp</text>
</a>
</g>
</g>
<!-- Node1&#45;&gt;Node8 -->
<g id="edge8" class="edge">
<title>Node1&#45;&gt;Node8</title>
<path fill="none" stroke="#63b8ff" d="M452.47,-148.91C477.2,-137.53 508.09,-123.31 530.75,-112.88"/>
<polygon fill="#63b8ff" stroke="#63b8ff" points="451.28,-145.61 443.66,-152.97 454.21,-151.97 451.28,-145.61"/>
</g>
<!-- Node3 -->
<g id="node3" class="node">
<title>Node3</title>
<g id="a_node3"><a xlink:href="controller__factory__interface_8cpp.xhtml" target="_top" xlink:title=" ">
<polygon fill="white" stroke="#666666" points="388.5,-41 251.5,-41 251.5,0 388.5,0 388.5,-41"/>
<text text-anchor="start" x="259.5" y="-29" font-family="Helvetica,sans-Serif" font-size="10.00">lib/application_business</text>
<text text-anchor="start" x="259.5" y="-18" font-family="Helvetica,sans-Serif" font-size="10.00">_rules/src/controller_factory</text>
<text text-anchor="middle" x="320" y="-7" font-family="Helvetica,sans-Serif" font-size="10.00">_interface.cpp</text>
</a>
</g>
</g>
<!-- Node2&#45;&gt;Node3 -->
<g id="edge2" class="edge">
<title>Node2&#45;&gt;Node3</title>
<path fill="none" stroke="#63b8ff" d="M378.33,-69.57C367.02,-60.25 354.56,-49.98 344.07,-41.33"/>
<polygon fill="#63b8ff" stroke="#63b8ff" points="375.98,-72.17 385.92,-75.83 380.43,-66.77 375.98,-72.17"/>
</g>
<!-- Node4 -->
<g id="node4" class="node">
<title>Node4</title>
<g id="a_node4"><a xlink:href="keypad__factory__interface_8cpp.xhtml" target="_top" xlink:title=" ">
<polygon fill="white" stroke="#666666" points="507.5,-41 406.5,-41 406.5,0 507.5,0 507.5,-41"/>
<text text-anchor="start" x="414.5" y="-29" font-family="Helvetica,sans-Serif" font-size="10.00">lib/board_adapters</text>
<text text-anchor="start" x="414.5" y="-18" font-family="Helvetica,sans-Serif" font-size="10.00">/src/keypad_factory</text>
<text text-anchor="middle" x="457" y="-7" font-family="Helvetica,sans-Serif" font-size="10.00">_interface.cpp</text>
</a>
</g>
</g>
<!-- Node2&#45;&gt;Node4 -->
<g id="edge3" class="edge">
<title>Node2&#45;&gt;Node4</title>
<path fill="none" stroke="#63b8ff" d="M429.06,-67.06C434.35,-58.43 440,-49.21 444.84,-41.33"/>
<polygon fill="#63b8ff" stroke="#63b8ff" points="426.12,-65.15 423.88,-75.5 432.09,-68.81 426.12,-65.15"/>
</g>
<!-- Node5&#45;&gt;Node3 -->
<g id="edge6" class="edge">
<title>Node5&#45;&gt;Node3</title>
<path fill="none" stroke="#63b8ff" d="M259.98,-74.46C271.88,-63.96 286,-51.5 297.56,-41.3"/>
<polygon fill="#63b8ff" stroke="#63b8ff" points="257.71,-71.8 252.52,-81.04 262.34,-77.05 257.71,-71.8"/>
</g>
<!-- Node6 -->
<g id="node6" class="node">
<title>Node6</title>
<g id="a_node6"><a xlink:href="Controller_8cpp.xhtml" target="_top" xlink:title=" ">
<polygon fill="white" stroke="#666666" points="122,-35.5 0,-35.5 0,-5.5 122,-5.5 122,-35.5"/>
<text text-anchor="start" x="8" y="-23.5" font-family="Helvetica,sans-Serif" font-size="10.00">lib/application_business</text>
<text text-anchor="middle" x="61" y="-12.5" font-family="Helvetica,sans-Serif" font-size="10.00">_rules/src/Controller.cpp</text>
</a>
</g>
</g>
<!-- Node5&#45;&gt;Node6 -->
<g id="edge5" class="edge">
<title>Node5&#45;&gt;Node6</title>
<path fill="none" stroke="#63b8ff" d="M191.25,-77.64C161.22,-64.7 121.98,-47.78 94.45,-35.92"/>
<polygon fill="#63b8ff" stroke="#63b8ff" points="189.49,-80.7 200.06,-81.44 192.26,-74.27 189.49,-80.7"/>
</g>
<!-- Node7 -->
<g id="node7" class="node">
<title>Node7</title>
<g id="a_node7"><a xlink:href="test__hmi_8cpp.xhtml" target="_top" xlink:title=" ">
<polygon fill="white" stroke="#666666" points="233.5,-35.5 140.5,-35.5 140.5,-5.5 233.5,-5.5 233.5,-35.5"/>
<text text-anchor="start" x="148.5" y="-23.5" font-family="Helvetica,sans-Serif" font-size="10.00">test/test_hmi/test</text>
<text text-anchor="middle" x="187" y="-12.5" font-family="Helvetica,sans-Serif" font-size="10.00">_hmi.cpp</text>
</a>
</g>
</g>
<!-- Node5&#45;&gt;Node7 -->
<g id="edge7" class="edge">
<title>Node5&#45;&gt;Node7</title>
<path fill="none" stroke="#63b8ff" d="M219.67,-72.55C211.96,-60.5 202.86,-46.28 196.23,-35.92"/>
<polygon fill="#63b8ff" stroke="#63b8ff" points="216.59,-74.23 224.93,-80.76 222.49,-70.46 216.59,-74.23"/>
</g>
<!-- Node8&#45;&gt;Node4 -->
<g id="edge10" class="edge">
<title>Node8&#45;&gt;Node4</title>
<path fill="none" stroke="#63b8ff" d="M532.44,-75.38C517.47,-64.7 499.42,-51.8 484.72,-41.3"/>
<polygon fill="#63b8ff" stroke="#63b8ff" points="530.35,-78.2 540.52,-81.16 534.42,-72.5 530.35,-78.2"/>
</g>
<!-- Node9 -->
<g id="node9" class="node">
<title>Node9</title>
<g id="a_node9"><a xlink:href="Keypad_8cpp.xhtml" target="_top" xlink:title=" ">
<polygon fill="white" stroke="#666666" points="622,-35.5 526,-35.5 526,-5.5 622,-5.5 622,-35.5"/>
<text text-anchor="start" x="534" y="-23.5" font-family="Helvetica,sans-Serif" font-size="10.00">lib/board_adapters</text>
<text text-anchor="middle" x="574" y="-12.5" font-family="Helvetica,sans-Serif" font-size="10.00">/src/Keypad.cpp</text>
</a>
</g>
</g>
<!-- Node8&#45;&gt;Node9 -->
<g id="edge9" class="edge">
<title>Node8&#45;&gt;Node9</title>
<path fill="none" stroke="#63b8ff" d="M566.12,-70.73C567.99,-59.08 570.12,-45.76 571.69,-35.92"/>
<polygon fill="#63b8ff" stroke="#63b8ff" points="562.68,-70.12 564.55,-80.54 569.59,-71.22 562.68,-70.12"/>
</g>
<!-- Node10 -->
<g id="node10" class="node">
<title>Node10</title>
<g id="a_node10"><a xlink:href="test__board_8cpp.xhtml" target="_top" xlink:title=" ">
<polygon fill="white" stroke="#666666" points="741.5,-35.5 640.5,-35.5 640.5,-5.5 741.5,-5.5 741.5,-35.5"/>
<text text-anchor="start" x="648.5" y="-23.5" font-family="Helvetica,sans-Serif" font-size="10.00">test/test_board/test</text>
<text text-anchor="middle" x="691" y="-12.5" font-family="Helvetica,sans-Serif" font-size="10.00">_board.cpp</text>
</a>
</g>
</g>
<!-- Node8&#45;&gt;Node10 -->
<g id="edge11" class="edge">
<title>Node8&#45;&gt;Node10</title>
<path fill="none" stroke="#63b8ff" d="M596.79,-76.27C618.72,-63.52 646.5,-47.37 666.2,-35.92"/>
<polygon fill="#63b8ff" stroke="#63b8ff" points="595.07,-73.23 588.18,-81.28 598.59,-79.28 595.07,-73.23"/>
</g>
</g>
</svg>
