<?xml version="1.0" encoding="UTF-8" standalone="no"?>
<!DOCTYPE svg PUBLIC "-//W3C//DTD SVG 1.1//EN"
 "http://www.w3.org/Graphics/SVG/1.1/DTD/svg11.dtd">
<!-- Generated by graphviz version 9.0.0 (20230911.1827)
 -->
<!-- Title: lib/layer3_board/include/IOutputShiftRegister.hpp Pages: 1 -->
<svg width="478pt" height="205pt"
 viewBox="0.00 0.00 478.12 205.25" xmlns="http://www.w3.org/2000/svg" xmlns:xlink="http://www.w3.org/1999/xlink">
<g id="graph0" class="graph" transform="scale(1 1) rotate(0) translate(4 201.25)">
<title>lib/layer3_board/include/IOutputShiftRegister.hpp</title>
<!-- Node1 -->
<g id="Node000001" class="node">
<title>Node1</title>
<g id="a_Node000001"><a xlink:title=" ">
<polygon fill="#999999" stroke="#666666" points="312.38,-197.25 186.88,-197.25 186.88,-166.75 312.38,-166.75 312.38,-197.25"/>
<text text-anchor="start" x="194.88" y="-183.75" font-family="Helvetica,sans-Serif" font-size="10.00">lib/layer3_board/include</text>
<text text-anchor="middle" x="249.62" y="-172.5" font-family="Helvetica,sans-Serif" font-size="10.00">/IOutputShiftRegister.hpp</text>
</a>
</g>
</g>
<!-- Node2 -->
<g id="Node000002" class="node">
<title>Node2</title>
<g id="a_Node000002"><a xlink:href="osr__factory__interface_8hpp.xhtml" target="_top" xlink:title=" ">
<polygon fill="white" stroke="#666666" points="313.5,-125.12 185.75,-125.12 185.75,-94.62 313.5,-94.62 313.5,-125.12"/>
<text text-anchor="start" x="193.75" y="-111.62" font-family="Helvetica,sans-Serif" font-size="10.00">lib/layer3_board/include</text>
<text text-anchor="middle" x="249.62" y="-100.38" font-family="Helvetica,sans-Serif" font-size="10.00">/osr_factory_interface.hpp</text>
</a>
</g>
</g>
<!-- Node1&#45;&gt;Node2 -->
<g id="edge1_Node000001_Node000002" class="edge">
<title>Node1&#45;&gt;Node2</title>
<g id="a_edge1_Node000001_Node000002"><a xlink:title=" ">
<path fill="none" stroke="#63b8ff" d="M249.62,-155.02C249.62,-145.01 249.62,-133.94 249.62,-125.39"/>
<polygon fill="#63b8ff" stroke="#63b8ff" points="246.13,-154.96 249.63,-164.96 253.13,-154.96 246.13,-154.96"/>
</a>
</g>
</g>
<!-- Node4 -->
<g id="Node000004" class="node">
<title>Node4</title>
<g id="a_Node000004"><a xlink:href="ShiftRegisterStatusIndicator_8hpp.xhtml" target="_top" xlink:title=" ">
<polygon fill="white" stroke="#666666" points="163.25,-125.12 4,-125.12 4,-94.62 163.25,-94.62 163.25,-125.12"/>
<text text-anchor="start" x="12" y="-111.62" font-family="Helvetica,sans-Serif" font-size="10.00">lib/layer3_board/src</text>
<text text-anchor="middle" x="83.62" y="-100.38" font-family="Helvetica,sans-Serif" font-size="10.00">/ShiftRegisterStatusIndicator.hpp</text>
</a>
</g>
</g>
<!-- Node1&#45;&gt;Node4 -->
<g id="edge3_Node000001_Node000004" class="edge">
<title>Node1&#45;&gt;Node4</title>
<g id="a_edge3_Node000001_Node000004"><a xlink:title=" ">
<path fill="none" stroke="#63b8ff" d="M204.43,-161.91C177.32,-150.46 143.38,-136.12 118.38,-125.56"/>
<polygon fill="#63b8ff" stroke="#63b8ff" points="202.86,-165.04 213.43,-165.71 205.58,-158.59 202.86,-165.04"/>
</a>
</g>
</g>
<!-- Node6 -->
<g id="Node000006" class="node">
<title>Node6</title>
<g id="a_Node000006"><a xlink:href="OutputShiftRegister_8hpp.xhtml" target="_top" xlink:title=" ">
<polygon fill="white" stroke="#666666" points="470.12,-130.75 331.12,-130.75 331.12,-89 470.12,-89 470.12,-130.75"/>
<text text-anchor="start" x="339.12" y="-117.25" font-family="Helvetica,sans-Serif" font-size="10.00">lib/layer4_drivers</text>
<text text-anchor="start" x="339.12" y="-106" font-family="Helvetica,sans-Serif" font-size="10.00">_libraries_adapters</text>
<text text-anchor="middle" x="400.62" y="-94.75" font-family="Helvetica,sans-Serif" font-size="10.00">/src/OutputShiftRegister.hpp</text>
</a>
</g>
</g>
<!-- Node1&#45;&gt;Node6 -->
<g id="edge5_Node000001_Node000006" class="edge">
<title>Node1&#45;&gt;Node6</title>
<g id="a_edge5_Node000001_Node000006"><a xlink:title=" ">
<path fill="none" stroke="#63b8ff" d="M291.52,-161.54C311.9,-152.08 336.38,-140.71 356.99,-131.14"/>
<polygon fill="#63b8ff" stroke="#63b8ff" points="290.25,-158.28 282.65,-165.66 293.2,-164.62 290.25,-158.28"/>
</a>
</g>
</g>
<!-- Node3 -->
<g id="Node000003" class="node">
<title>Node3</title>
<g id="a_Node000003"><a xlink:href="osr__factory__interface_8cpp.xhtml" target="_top" xlink:title=" ">
<polygon fill="white" stroke="#666666" points="321.75,-47.38 177.5,-47.38 177.5,-5.62 321.75,-5.62 321.75,-47.38"/>
<text text-anchor="start" x="185.5" y="-33.88" font-family="Helvetica,sans-Serif" font-size="10.00">lib/layer4_drivers</text>
<text text-anchor="start" x="185.5" y="-22.62" font-family="Helvetica,sans-Serif" font-size="10.00">_libraries_adapters</text>
<text text-anchor="middle" x="249.62" y="-11.38" font-family="Helvetica,sans-Serif" font-size="10.00">/src/osr_factory_interface.cpp</text>
</a>
</g>
</g>
<!-- Node2&#45;&gt;Node3 -->
<g id="edge2_Node000002_Node000003" class="edge">
<title>Node2&#45;&gt;Node3</title>
<g id="a_edge2_Node000002_Node000003"><a xlink:title=" ">
<path fill="none" stroke="#63b8ff" d="M249.62,-82.88C249.62,-71.5 249.62,-58.36 249.62,-47.73"/>
<polygon fill="#63b8ff" stroke="#63b8ff" points="246.13,-82.81 249.63,-92.81 253.13,-82.81 246.13,-82.81"/>
</a>
</g>
</g>
<!-- Node5 -->
<g id="Node000005" class="node">
<title>Node5</title>
<g id="a_Node000005"><a xlink:href="ShiftRegisterStatusIndicator_8cpp.xhtml" target="_top" xlink:title=" ">
<polygon fill="white" stroke="#666666" points="159.25,-41.75 0,-41.75 0,-11.25 159.25,-11.25 159.25,-41.75"/>
<text text-anchor="start" x="8" y="-28.25" font-family="Helvetica,sans-Serif" font-size="10.00">lib/layer3_board/src</text>
<text text-anchor="middle" x="79.62" y="-17" font-family="Helvetica,sans-Serif" font-size="10.00">/ShiftRegisterStatusIndicator.cpp</text>
</a>
</g>
</g>
<!-- Node4&#45;&gt;Node5 -->
<g id="edge4_Node000004_Node000005" class="edge">
<title>Node4&#45;&gt;Node5</title>
<g id="a_edge4_Node000004_Node000005"><a xlink:title=" ">
<path fill="none" stroke="#63b8ff" d="M82.35,-82.88C81.69,-69.43 80.9,-53.51 80.35,-42.2"/>
<polygon fill="#63b8ff" stroke="#63b8ff" points="78.85,-83 82.84,-92.82 85.84,-82.66 78.85,-83"/>
</a>
</g>
</g>
<!-- Node6&#45;&gt;Node3 -->
<g id="edge8_Node000006_Node000003" class="edge">
<title>Node6&#45;&gt;Node3</title>
<g id="a_edge8_Node000006_Node000003"><a xlink:title=" ">
<path fill="none" stroke="#63b8ff" d="M352.84,-83.12C331.71,-71.73 307.21,-58.53 287.38,-47.85"/>
<polygon fill="#63b8ff" stroke="#63b8ff" points="351.11,-86.17 361.58,-87.83 354.44,-80.01 351.11,-86.17"/>
</a>
</g>
</g>
<!-- Node7 -->
<g id="Node000007" class="node">
<title>Node7</title>
<g id="a_Node000007"><a xlink:href="OutputShiftRegister__implementation_8hpp.xhtml" target="_top" xlink:title=" ">
<polygon fill="white" stroke="#666666" points="461.12,-53 340.12,-53 340.12,0 461.12,0 461.12,-53"/>
<text text-anchor="start" x="348.12" y="-39.5" font-family="Helvetica,sans-Serif" font-size="10.00">lib/layer4_drivers</text>
<text text-anchor="start" x="348.12" y="-28.25" font-family="Helvetica,sans-Serif" font-size="10.00">_libraries_adapters</text>
<text text-anchor="start" x="348.12" y="-17" font-family="Helvetica,sans-Serif" font-size="10.00">/src/OutputShiftRegister</text>
<text text-anchor="middle" x="400.62" y="-5.75" font-family="Helvetica,sans-Serif" font-size="10.00">_implementation.hpp</text>
</a>
</g>
</g>
<!-- Node6&#45;&gt;Node7 -->
<g id="edge6_Node000006_Node000007" class="edge">
<title>Node6&#45;&gt;Node7</title>
<g id="a_edge6_Node000006_Node000007"><a xlink:title=" ">
<path fill="none" stroke="#63b8ff" d="M394.04,-77.52C393.75,-69.49 393.84,-60.94 394.3,-53.23"/>
<polygon fill="#63b8ff" stroke="#63b8ff" points="390.53,-77.48 394.62,-87.25 397.51,-77.06 390.53,-77.48"/>
</a>
</g>
</g>
<!-- Node7&#45;&gt;Node6 -->
<g id="edge7_Node000007_Node000006" class="edge">
<title>Node7&#45;&gt;Node6</title>
<g id="a_edge7_Node000007_Node000006"><a xlink:title=" ">
<path fill="none" stroke="#63b8ff" d="M407.35,-64.68C407.46,-72.98 407.19,-81.47 406.54,-88.76"/>
<polygon fill="#63b8ff" stroke="#63b8ff" points="410.85,-64.61 407.01,-54.74 403.86,-64.86 410.85,-64.61"/>
</a>
</g>
</g>
</g>
</svg>
