<?xml version="1.0" encoding="UTF-8" standalone="no"?>
<!DOCTYPE svg PUBLIC "-//W3C//DTD SVG 1.1//EN"
 "http://www.w3.org/Graphics/SVG/1.1/DTD/svg11.dtd">
<!-- Generated by graphviz version 7.0.5 (20221223.1930)
 -->
<!-- Title: lib/application_business_rules/include/IPresenter.hpp Pages: 1 -->
<svg width="556pt" height="192pt"
 viewBox="0.00 0.00 555.50 192.00" xmlns="http://www.w3.org/2000/svg" xmlns:xlink="http://www.w3.org/1999/xlink">
<g id="graph0" class="graph" transform="scale(1 1) rotate(0) translate(4 188)">
<title>lib/application_business_rules/include/IPresenter.hpp</title>
<!-- Node1 -->
<g id="node1" class="node">
<title>Node1</title>
<g id="a_node1"><a xlink:title=" ">
<polygon fill="#999999" stroke="#666666" points="365,-184 222,-184 222,-154 365,-154 365,-184"/>
<text text-anchor="start" x="230" y="-172" font-family="Helvetica,sans-Serif" font-size="10.00">lib/application_business</text>
<text text-anchor="middle" x="293.5" y="-161" font-family="Helvetica,sans-Serif" font-size="10.00">_rules/include/IPresenter.hpp</text>
</a>
</g>
</g>
<!-- Node2 -->
<g id="node2" class="node">
<title>Node2</title>
<g id="a_node2"><a xlink:href="ProcessHmiInputs_8hpp.xhtml" target="_top" xlink:title=" ">
<polygon fill="white" stroke="#666666" points="215,-112.5 36,-112.5 36,-82.5 215,-82.5 215,-112.5"/>
<text text-anchor="start" x="44" y="-100.5" font-family="Helvetica,sans-Serif" font-size="10.00">lib/application_business</text>
<text text-anchor="middle" x="125.5" y="-89.5" font-family="Helvetica,sans-Serif" font-size="10.00">_rules/include/ProcessHmiInputs.hpp</text>
</a>
</g>
</g>
<!-- Node1&#45;&gt;Node2 -->
<g id="edge1" class="edge">
<title>Node1&#45;&gt;Node2</title>
<path fill="none" stroke="#63b8ff" d="M248.1,-149.22C220.47,-137.79 185.71,-123.41 160.27,-112.88"/>
<polygon fill="#63b8ff" stroke="#63b8ff" points="246.71,-152.43 257.29,-153.02 249.39,-145.96 246.71,-152.43"/>
</g>
<!-- Node5 -->
<g id="node5" class="node">
<title>Node5</title>
<g id="a_node5"><a xlink:href="presenter__factory__interface_8hpp.xhtml" target="_top" xlink:title=" ">
<polygon fill="white" stroke="#666666" points="353.5,-118 233.5,-118 233.5,-77 353.5,-77 353.5,-118"/>
<text text-anchor="start" x="241.5" y="-106" font-family="Helvetica,sans-Serif" font-size="10.00">lib/application_business</text>
<text text-anchor="start" x="241.5" y="-95" font-family="Helvetica,sans-Serif" font-size="10.00">_rules/include/presenter</text>
<text text-anchor="middle" x="293.5" y="-84" font-family="Helvetica,sans-Serif" font-size="10.00">_factory_interface.hpp</text>
</a>
</g>
</g>
<!-- Node1&#45;&gt;Node5 -->
<g id="edge4" class="edge">
<title>Node1&#45;&gt;Node5</title>
<path fill="none" stroke="#63b8ff" d="M293.5,-142.36C293.5,-134.45 293.5,-125.87 293.5,-118.42"/>
<polygon fill="#63b8ff" stroke="#63b8ff" points="290,-142.09 293.5,-152.09 297,-142.09 290,-142.09"/>
</g>
<!-- Node7 -->
<g id="node7" class="node">
<title>Node7</title>
<g id="a_node7"><a xlink:href="Presenter_8hpp.xhtml" target="_top" xlink:title=" ">
<polygon fill="white" stroke="#666666" points="493.5,-112.5 371.5,-112.5 371.5,-82.5 493.5,-82.5 493.5,-112.5"/>
<text text-anchor="start" x="379.5" y="-100.5" font-family="Helvetica,sans-Serif" font-size="10.00">lib/application_business</text>
<text text-anchor="middle" x="432.5" y="-89.5" font-family="Helvetica,sans-Serif" font-size="10.00">_rules/src/Presenter.hpp</text>
</a>
</g>
</g>
<!-- Node1&#45;&gt;Node7 -->
<g id="edge7" class="edge">
<title>Node1&#45;&gt;Node7</title>
<path fill="none" stroke="#63b8ff" d="M332.59,-148.46C355.2,-137.15 383.15,-123.17 403.74,-112.88"/>
<polygon fill="#63b8ff" stroke="#63b8ff" points="331.03,-145.32 323.65,-152.92 334.16,-151.58 331.03,-145.32"/>
</g>
<!-- Node3 -->
<g id="node3" class="node">
<title>Node3</title>
<g id="a_node3"><a xlink:href="ProcessHmiInputs_8cpp.xhtml" target="_top" xlink:title=" ">
<polygon fill="white" stroke="#666666" points="161,-35.5 0,-35.5 0,-5.5 161,-5.5 161,-35.5"/>
<text text-anchor="start" x="8" y="-23.5" font-family="Helvetica,sans-Serif" font-size="10.00">lib/application_business</text>
<text text-anchor="middle" x="80.5" y="-12.5" font-family="Helvetica,sans-Serif" font-size="10.00">_rules/src/ProcessHmiInputs.cpp</text>
</a>
</g>
</g>
<!-- Node2&#45;&gt;Node3 -->
<g id="edge2" class="edge">
<title>Node2&#45;&gt;Node3</title>
<path fill="none" stroke="#63b8ff" d="M110.91,-72.19C103.73,-60.21 95.31,-46.18 89.15,-35.92"/>
<polygon fill="#63b8ff" stroke="#63b8ff" points="107.9,-73.97 116.04,-80.74 113.9,-70.37 107.9,-73.97"/>
</g>
<!-- Node4 -->
<g id="node4" class="node">
<title>Node4</title>
<g id="a_node4"><a xlink:href="main_8cpp.xhtml" target="_top" xlink:title=" ">
<polygon fill="white" stroke="#666666" points="251.5,-30 179.5,-30 179.5,-11 251.5,-11 251.5,-30"/>
<text text-anchor="middle" x="215.5" y="-18" font-family="Helvetica,sans-Serif" font-size="10.00">src/main.cpp</text>
</a>
</g>
</g>
<!-- Node2&#45;&gt;Node4 -->
<g id="edge3" class="edge">
<title>Node2&#45;&gt;Node4</title>
<path fill="none" stroke="#63b8ff" d="M151.63,-74.72C169.4,-59.92 191.95,-41.12 204.96,-30.29"/>
<polygon fill="#63b8ff" stroke="#63b8ff" points="149.46,-71.98 144.02,-81.07 153.94,-77.36 149.46,-71.98"/>
</g>
<!-- Node5&#45;&gt;Node4 -->
<g id="edge6" class="edge">
<title>Node5&#45;&gt;Node4</title>
<path fill="none" stroke="#63b8ff" d="M264.92,-69.02C250.68,-55.33 234.44,-39.71 224.59,-30.24"/>
<polygon fill="#63b8ff" stroke="#63b8ff" points="262.28,-71.34 271.92,-75.75 267.13,-66.29 262.28,-71.34"/>
</g>
<!-- Node6 -->
<g id="node6" class="node">
<title>Node6</title>
<g id="a_node6"><a xlink:href="presenter__factory__interface_8cpp.xhtml" target="_top" xlink:title=" ">
<polygon fill="white" stroke="#666666" points="407,-41 270,-41 270,0 407,0 407,-41"/>
<text text-anchor="start" x="278" y="-29" font-family="Helvetica,sans-Serif" font-size="10.00">lib/application_business</text>
<text text-anchor="start" x="278" y="-18" font-family="Helvetica,sans-Serif" font-size="10.00">_rules/src/presenter_factory</text>
<text text-anchor="middle" x="338.5" y="-7" font-family="Helvetica,sans-Serif" font-size="10.00">_interface.cpp</text>
</a>
</g>
</g>
<!-- Node5&#45;&gt;Node6 -->
<g id="edge5" class="edge">
<title>Node5&#45;&gt;Node6</title>
<path fill="none" stroke="#63b8ff" d="M311.16,-67.06C316.34,-58.43 321.87,-49.21 326.6,-41.33"/>
<polygon fill="#63b8ff" stroke="#63b8ff" points="308.25,-65.12 306.1,-75.5 314.25,-68.72 308.25,-65.12"/>
</g>
<!-- Node7&#45;&gt;Node6 -->
<g id="edge9" class="edge">
<title>Node7&#45;&gt;Node6</title>
<path fill="none" stroke="#63b8ff" d="M405.65,-75.08C392.33,-64.45 376.35,-51.7 363.32,-41.3"/>
<polygon fill="#63b8ff" stroke="#63b8ff" points="403.19,-77.59 413.19,-81.1 407.56,-72.12 403.19,-77.59"/>
</g>
<!-- Node8 -->
<g id="node8" class="node">
<title>Node8</title>
<g id="a_node8"><a xlink:href="Presenter_8cpp.xhtml" target="_top" xlink:title=" ">
<polygon fill="white" stroke="#666666" points="547.5,-35.5 425.5,-35.5 425.5,-5.5 547.5,-5.5 547.5,-35.5"/>
<text text-anchor="start" x="433.5" y="-23.5" font-family="Helvetica,sans-Serif" font-size="10.00">lib/application_business</text>
<text text-anchor="middle" x="486.5" y="-12.5" font-family="Helvetica,sans-Serif" font-size="10.00">_rules/src/Presenter.cpp</text>
</a>
</g>
</g>
<!-- Node7&#45;&gt;Node8 -->
<g id="edge8" class="edge">
<title>Node7&#45;&gt;Node8</title>
<path fill="none" stroke="#63b8ff" d="M449.48,-72.91C458.22,-60.78 468.58,-46.38 476.12,-35.92"/>
<polygon fill="#63b8ff" stroke="#63b8ff" points="446.8,-70.65 443.8,-80.81 452.48,-74.74 446.8,-70.65"/>
</g>
</g>
</svg>
