<?xml version="1.0" encoding="UTF-8" standalone="no"?>
<!DOCTYPE svg PUBLIC "-//W3C//DTD SVG 1.1//EN"
 "http://www.w3.org/Graphics/SVG/1.1/DTD/svg11.dtd">
<!-- Generated by graphviz version 9.0.0 (20230911.1827)
 -->
<!-- Title: lib/layer4_drivers_libraries_adapters/src/isr_factory_interface.cpp Pages: 1 -->
<svg width="362pt" height="216pt"
 viewBox="0.00 0.00 362.12 215.50" xmlns="http://www.w3.org/2000/svg" xmlns:xlink="http://www.w3.org/1999/xlink">
<g id="graph0" class="graph" transform="scale(1 1) rotate(0) translate(4 211.5)">
<title>lib/layer4_drivers_libraries_adapters/src/isr_factory_interface.cpp</title>
<!-- Node1 -->
<g id="Node000001" class="node">
<title>Node1</title>
<g id="a_Node000001"><a xlink:title=" ">
<polygon fill="#999999" stroke="#666666" points="233.25,-207.5 92,-207.5 92,-165.75 233.25,-165.75 233.25,-207.5"/>
<text text-anchor="start" x="100" y="-194" font-family="Helvetica,sans-Serif" font-size="10.00">lib/layer4_drivers</text>
<text text-anchor="start" x="100" y="-182.75" font-family="Helvetica,sans-Serif" font-size="10.00">_libraries_adapters</text>
<text text-anchor="middle" x="162.62" y="-171.5" font-family="Helvetica,sans-Serif" font-size="10.00">/src/isr_factory_interface.cpp</text>
</a>
</g>
</g>
<!-- Node2 -->
<g id="Node000002" class="node">
<title>Node2</title>
<g id="a_Node000002"><a xlink:href="isr__factory__interface_8hpp.xhtml" target="_top" xlink:title=" ">
<polygon fill="white" stroke="#666666" points="156.5,-129.75 34.75,-129.75 34.75,-110.5 156.5,-110.5 156.5,-129.75"/>
<text text-anchor="middle" x="95.62" y="-116.25" font-family="Helvetica,sans-Serif" font-size="10.00">isr_factory_interface.hpp</text>
</a>
</g>
</g>
<!-- Node1&#45;&gt;Node2 -->
<g id="edge1_Node000001_Node000002" class="edge">
<title>Node1&#45;&gt;Node2</title>
<g id="a_edge1_Node000001_Node000002"><a xlink:title=" ">
<path fill="none" stroke="#63b8ff" d="M141.79,-165.57C132.67,-156.79 122.08,-146.59 113.34,-138.18"/>
<polygon fill="#63b8ff" stroke="#63b8ff" points="115.77,-135.66 106.14,-131.25 110.91,-140.7 115.77,-135.66"/>
</a>
</g>
</g>
<!-- Node7 -->
<g id="Node000007" class="node">
<title>Node7</title>
<g id="a_Node000007"><a xlink:href="InputShiftRegister_8hpp.xhtml" target="_top" xlink:title=" ">
<polygon fill="white" stroke="#666666" points="286.62,-129.75 174.62,-129.75 174.62,-110.5 286.62,-110.5 286.62,-129.75"/>
<text text-anchor="middle" x="230.62" y="-116.25" font-family="Helvetica,sans-Serif" font-size="10.00">InputShiftRegister.hpp</text>
</a>
</g>
</g>
<!-- Node1&#45;&gt;Node7 -->
<g id="edge6_Node000001_Node000007" class="edge">
<title>Node1&#45;&gt;Node7</title>
<g id="a_edge6_Node000001_Node000007"><a xlink:title=" ">
<path fill="none" stroke="#63b8ff" d="M183.77,-165.57C193.12,-156.69 204.01,-146.37 212.93,-137.91"/>
<polygon fill="#63b8ff" stroke="#63b8ff" points="215.12,-140.66 219.96,-131.24 210.3,-135.58 215.12,-140.66"/>
</a>
</g>
</g>
<!-- Node3 -->
<g id="Node000003" class="node">
<title>Node3</title>
<g id="a_Node000003"><a xlink:href="IInputShiftRegister_8hpp.xhtml" target="_top" xlink:title=" ">
<polygon fill="white" stroke="#666666" points="178.12,-74.5 63.12,-74.5 63.12,-55.25 178.12,-55.25 178.12,-74.5"/>
<text text-anchor="middle" x="120.62" y="-61" font-family="Helvetica,sans-Serif" font-size="10.00">IInputShiftRegister.hpp</text>
</a>
</g>
</g>
<!-- Node2&#45;&gt;Node3 -->
<g id="edge2_Node000002_Node000003" class="edge">
<title>Node2&#45;&gt;Node3</title>
<g id="a_edge2_Node000002_Node000003"><a xlink:title=" ">
<path fill="none" stroke="#63b8ff" d="M99.75,-110.33C102.95,-103.51 107.51,-93.81 111.55,-85.2"/>
<polygon fill="#63b8ff" stroke="#63b8ff" points="114.68,-86.77 115.76,-76.23 108.35,-83.79 114.68,-86.77"/>
</a>
</g>
</g>
<!-- Node6 -->
<g id="Node000006" class="node">
<title>Node6</title>
<g id="a_Node000006"><a xlink:title=" ">
<polygon fill="#e0e0e0" stroke="#999999" points="45.25,-74.5 0,-74.5 0,-55.25 45.25,-55.25 45.25,-74.5"/>
<text text-anchor="middle" x="22.62" y="-61" font-family="Helvetica,sans-Serif" font-size="10.00">cstdint</text>
</a>
</g>
</g>
<!-- Node2&#45;&gt;Node6 -->
<g id="edge5_Node000002_Node000006" class="edge">
<title>Node2&#45;&gt;Node6</title>
<g id="a_edge5_Node000002_Node000006"><a xlink:title=" ">
<path fill="none" stroke="#63b8ff" d="M83.24,-110.09C72.48,-102.24 56.65,-90.7 43.87,-81.37"/>
<polygon fill="#63b8ff" stroke="#63b8ff" points="46.19,-78.73 36.05,-75.67 42.06,-84.39 46.19,-78.73"/>
</a>
</g>
</g>
<!-- Node4 -->
<g id="Node000004" class="node">
<title>Node4</title>
<g id="a_Node000004"><a xlink:title=" ">
<polygon fill="#e0e0e0" stroke="#999999" points="139.12,-19.25 102.12,-19.25 102.12,0 139.12,0 139.12,-19.25"/>
<text text-anchor="middle" x="120.62" y="-5.75" font-family="Helvetica,sans-Serif" font-size="10.00">array</text>
</a>
</g>
</g>
<!-- Node3&#45;&gt;Node4 -->
<g id="edge3_Node000003_Node000004" class="edge">
<title>Node3&#45;&gt;Node4</title>
<g id="a_edge3_Node000003_Node000004"><a xlink:title=" ">
<path fill="none" stroke="#63b8ff" d="M120.62,-55.08C120.62,-48.57 120.62,-39.42 120.62,-31.12"/>
<polygon fill="#63b8ff" stroke="#63b8ff" points="124.13,-31.12 120.63,-21.12 117.13,-31.12 124.13,-31.12"/>
</a>
</g>
</g>
<!-- Node5 -->
<g id="Node000005" class="node">
<title>Node5</title>
<g id="a_Node000005"><a xlink:title=" ">
<polygon fill="#e0e0e0" stroke="#999999" points="217.75,-19.25 169.5,-19.25 169.5,0 217.75,0 217.75,-19.25"/>
<text text-anchor="middle" x="193.62" y="-5.75" font-family="Helvetica,sans-Serif" font-size="10.00">cstddef</text>
</a>
</g>
</g>
<!-- Node3&#45;&gt;Node5 -->
<g id="edge4_Node000003_Node000005" class="edge">
<title>Node3&#45;&gt;Node5</title>
<g id="a_edge4_Node000003_Node000005"><a xlink:title=" ">
<path fill="none" stroke="#63b8ff" d="M133.01,-54.84C143.77,-46.99 159.6,-35.45 172.38,-26.12"/>
<polygon fill="#63b8ff" stroke="#63b8ff" points="174.19,-29.14 180.2,-20.42 170.06,-23.48 174.19,-29.14"/>
</a>
</g>
</g>
<!-- Node7&#45;&gt;Node3 -->
<g id="edge7_Node000007_Node000003" class="edge">
<title>Node7&#45;&gt;Node3</title>
<g id="a_edge7_Node000007_Node000003"><a xlink:title=" ">
<path fill="none" stroke="#63b8ff" d="M211.96,-110.09C194.9,-101.83 169.38,-89.48 149.65,-79.93"/>
<polygon fill="#63b8ff" stroke="#63b8ff" points="151.26,-76.82 140.74,-75.61 148.21,-83.12 151.26,-76.82"/>
</a>
</g>
</g>
<!-- Node7&#45;&gt;Node5 -->
<g id="edge10_Node000007_Node000005" class="edge">
<title>Node7&#45;&gt;Node5</title>
<g id="a_edge10_Node000007_Node000005"><a xlink:title=" ">
<path fill="none" stroke="#63b8ff" d="M227.6,-110.25C221.69,-92.92 208.49,-54.23 200.4,-30.49"/>
<polygon fill="#63b8ff" stroke="#63b8ff" points="203.72,-29.39 197.18,-21.06 197.1,-31.65 203.72,-29.39"/>
</a>
</g>
</g>
<!-- Node8 -->
<g id="Node000008" class="node">
<title>Node8</title>
<g id="a_Node000008"><a xlink:title=" ">
<polygon fill="#e0e0e0" stroke="#999999" points="292.62,-74.5 234.62,-74.5 234.62,-55.25 292.62,-55.25 292.62,-74.5"/>
<text text-anchor="middle" x="263.62" y="-61" font-family="Helvetica,sans-Serif" font-size="10.00">RoxMux.h</text>
</a>
</g>
</g>
<!-- Node7&#45;&gt;Node8 -->
<g id="edge8_Node000007_Node000008" class="edge">
<title>Node7&#45;&gt;Node8</title>
<g id="a_edge8_Node000007_Node000008"><a xlink:title=" ">
<path fill="none" stroke="#63b8ff" d="M236.07,-110.33C240.4,-103.36 246.59,-93.37 252.01,-84.62"/>
<polygon fill="#63b8ff" stroke="#63b8ff" points="254.97,-86.49 257.26,-76.15 249.02,-82.8 254.97,-86.49"/>
</a>
</g>
</g>
<!-- Node9 -->
<g id="Node000009" class="node">
<title>Node9</title>
<g id="a_Node000009"><a xlink:title=" ">
<polygon fill="#e0e0e0" stroke="#999999" points="354.12,-74.5 311.12,-74.5 311.12,-55.25 354.12,-55.25 354.12,-74.5"/>
<text text-anchor="middle" x="332.62" y="-61" font-family="Helvetica,sans-Serif" font-size="10.00">Wire.h</text>
</a>
</g>
</g>
<!-- Node7&#45;&gt;Node9 -->
<g id="edge9_Node000007_Node000009" class="edge">
<title>Node7&#45;&gt;Node9</title>
<g id="a_edge9_Node000007_Node000009"><a xlink:title=" ">
<path fill="none" stroke="#63b8ff" d="M247.93,-110.09C263.61,-101.91 286.98,-89.71 305.2,-80.19"/>
<polygon fill="#63b8ff" stroke="#63b8ff" points="306.65,-83.38 313.9,-75.65 303.41,-77.18 306.65,-83.38"/>
</a>
</g>
</g>
</g>
</svg>
