<?xml version="1.0" encoding="UTF-8" standalone="no"?>
<!DOCTYPE svg PUBLIC "-//W3C//DTD SVG 1.1//EN"
 "http://www.w3.org/Graphics/SVG/1.1/DTD/svg11.dtd">
<!-- Generated by graphviz version 7.0.5 (20221223.1930)
 -->
<!-- Title: lib/application_business_rules/include/IStatusIndicator.hpp Pages: 1 -->
<svg width="572pt" height="192pt"
 viewBox="0.00 0.00 571.50 192.00" xmlns="http://www.w3.org/2000/svg" xmlns:xlink="http://www.w3.org/1999/xlink">
<g id="graph0" class="graph" transform="scale(1 1) rotate(0) translate(4 188)">
<title>lib/application_business_rules/include/IStatusIndicator.hpp</title>
<!-- Node1 -->
<g id="node1" class="node">
<title>Node1</title>
<g id="a_node1"><a xlink:title=" ">
<polygon fill="#999999" stroke="#666666" points="357.5,-184 190.5,-184 190.5,-154 357.5,-154 357.5,-184"/>
<text text-anchor="start" x="198.5" y="-172" font-family="Helvetica,sans-Serif" font-size="10.00">lib/application_business</text>
<text text-anchor="middle" x="274" y="-161" font-family="Helvetica,sans-Serif" font-size="10.00">_rules/include/IStatusIndicator.hpp</text>
</a>
</g>
</g>
<!-- Node2 -->
<g id="node2" class="node">
<title>Node2</title>
<g id="a_node2"><a xlink:href="statusindicators__factory__interface_8hpp.xhtml" target="_top" xlink:title=" ">
<polygon fill="white" stroke="#666666" points="348.5,-118 199.5,-118 199.5,-77 348.5,-77 348.5,-118"/>
<text text-anchor="start" x="207.5" y="-106" font-family="Helvetica,sans-Serif" font-size="10.00">lib/application_business</text>
<text text-anchor="start" x="207.5" y="-95" font-family="Helvetica,sans-Serif" font-size="10.00">_rules/include/statusindicators</text>
<text text-anchor="middle" x="274" y="-84" font-family="Helvetica,sans-Serif" font-size="10.00">_factory_interface.hpp</text>
</a>
</g>
</g>
<!-- Node1&#45;&gt;Node2 -->
<g id="edge1" class="edge">
<title>Node1&#45;&gt;Node2</title>
<path fill="none" stroke="#63b8ff" d="M274,-142.36C274,-134.45 274,-125.87 274,-118.42"/>
<polygon fill="#63b8ff" stroke="#63b8ff" points="270.5,-142.09 274,-152.09 277.5,-142.09 270.5,-142.09"/>
</g>
<!-- Node5 -->
<g id="node5" class="node">
<title>Node5</title>
<g id="a_node5"><a xlink:href="Presenter_8hpp.xhtml" target="_top" xlink:title=" ">
<polygon fill="white" stroke="#666666" points="181,-112.5 59,-112.5 59,-82.5 181,-82.5 181,-112.5"/>
<text text-anchor="start" x="67" y="-100.5" font-family="Helvetica,sans-Serif" font-size="10.00">lib/application_business</text>
<text text-anchor="middle" x="120" y="-89.5" font-family="Helvetica,sans-Serif" font-size="10.00">_rules/src/Presenter.hpp</text>
</a>
</g>
</g>
<!-- Node1&#45;&gt;Node5 -->
<g id="edge4" class="edge">
<title>Node1&#45;&gt;Node5</title>
<path fill="none" stroke="#63b8ff" d="M231.71,-148.91C206.49,-137.53 174.98,-123.31 151.87,-112.88"/>
<polygon fill="#63b8ff" stroke="#63b8ff" points="230.16,-152.05 240.71,-152.98 233.04,-145.67 230.16,-152.05"/>
</g>
<!-- Node7 -->
<g id="node7" class="node">
<title>Node7</title>
<g id="a_node7"><a xlink:href="LedStatusIndicator_8hpp.xhtml" target="_top" xlink:title=" ">
<polygon fill="white" stroke="#666666" points="503.5,-112.5 366.5,-112.5 366.5,-82.5 503.5,-82.5 503.5,-112.5"/>
<text text-anchor="start" x="374.5" y="-100.5" font-family="Helvetica,sans-Serif" font-size="10.00">lib/board_adapters</text>
<text text-anchor="middle" x="435" y="-89.5" font-family="Helvetica,sans-Serif" font-size="10.00">/src/LedStatusIndicator.hpp</text>
</a>
</g>
</g>
<!-- Node1&#45;&gt;Node7 -->
<g id="edge7" class="edge">
<title>Node1&#45;&gt;Node7</title>
<path fill="none" stroke="#63b8ff" d="M317.86,-149.07C344.29,-137.66 377.41,-123.36 401.68,-112.88"/>
<polygon fill="#63b8ff" stroke="#63b8ff" points="316.54,-145.82 308.75,-153 319.32,-152.25 316.54,-145.82"/>
</g>
<!-- Node3 -->
<g id="node3" class="node">
<title>Node3</title>
<g id="a_node3"><a xlink:href="presenter__factory__interface_8cpp.xhtml" target="_top" xlink:title=" ">
<polygon fill="white" stroke="#666666" points="277.5,-41 140.5,-41 140.5,0 277.5,0 277.5,-41"/>
<text text-anchor="start" x="148.5" y="-29" font-family="Helvetica,sans-Serif" font-size="10.00">lib/application_business</text>
<text text-anchor="start" x="148.5" y="-18" font-family="Helvetica,sans-Serif" font-size="10.00">_rules/src/presenter_factory</text>
<text text-anchor="middle" x="209" y="-7" font-family="Helvetica,sans-Serif" font-size="10.00">_interface.cpp</text>
</a>
</g>
</g>
<!-- Node2&#45;&gt;Node3 -->
<g id="edge2" class="edge">
<title>Node2&#45;&gt;Node3</title>
<path fill="none" stroke="#63b8ff" d="M249.46,-68.18C241.71,-59.24 233.31,-49.55 226.19,-41.33"/>
<polygon fill="#63b8ff" stroke="#63b8ff" points="246.74,-70.39 255.93,-75.65 252.03,-65.8 246.74,-70.39"/>
</g>
<!-- Node4 -->
<g id="node4" class="node">
<title>Node4</title>
<g id="a_node4"><a xlink:href="statusindicators__factory__interface_8cpp.xhtml" target="_top" xlink:title=" ">
<polygon fill="white" stroke="#666666" points="408,-41 296,-41 296,0 408,0 408,-41"/>
<text text-anchor="start" x="304" y="-29" font-family="Helvetica,sans-Serif" font-size="10.00">lib/board_adapters</text>
<text text-anchor="start" x="304" y="-18" font-family="Helvetica,sans-Serif" font-size="10.00">/src/statusindicators</text>
<text text-anchor="middle" x="352" y="-7" font-family="Helvetica,sans-Serif" font-size="10.00">_factory_interface.cpp</text>
</a>
</g>
</g>
<!-- Node2&#45;&gt;Node4 -->
<g id="edge3" class="edge">
<title>Node2&#45;&gt;Node4</title>
<path fill="none" stroke="#63b8ff" d="M302.58,-69.02C312.12,-59.84 322.56,-49.81 331.37,-41.33"/>
<polygon fill="#63b8ff" stroke="#63b8ff" points="300.37,-66.29 295.58,-75.75 305.22,-71.34 300.37,-66.29"/>
</g>
<!-- Node5&#45;&gt;Node3 -->
<g id="edge6" class="edge">
<title>Node5&#45;&gt;Node3</title>
<path fill="none" stroke="#63b8ff" d="M145.79,-74.77C158.32,-64.21 173.28,-51.6 185.5,-41.3"/>
<polygon fill="#63b8ff" stroke="#63b8ff" points="143.71,-71.94 138.32,-81.06 148.22,-77.3 143.71,-71.94"/>
</g>
<!-- Node6 -->
<g id="node6" class="node">
<title>Node6</title>
<g id="a_node6"><a xlink:href="Presenter_8cpp.xhtml" target="_top" xlink:title=" ">
<polygon fill="white" stroke="#666666" points="122,-35.5 0,-35.5 0,-5.5 122,-5.5 122,-35.5"/>
<text text-anchor="start" x="8" y="-23.5" font-family="Helvetica,sans-Serif" font-size="10.00">lib/application_business</text>
<text text-anchor="middle" x="61" y="-12.5" font-family="Helvetica,sans-Serif" font-size="10.00">_rules/src/Presenter.cpp</text>
</a>
</g>
</g>
<!-- Node5&#45;&gt;Node6 -->
<g id="edge5" class="edge">
<title>Node5&#45;&gt;Node6</title>
<path fill="none" stroke="#63b8ff" d="M101.73,-73.27C92.13,-61.07 80.66,-46.49 72.34,-35.92"/>
<polygon fill="#63b8ff" stroke="#63b8ff" points="98.75,-75.15 107.69,-80.85 104.26,-70.83 98.75,-75.15"/>
</g>
<!-- Node7&#45;&gt;Node4 -->
<g id="edge9" class="edge">
<title>Node7&#45;&gt;Node4</title>
<path fill="none" stroke="#63b8ff" d="M410.61,-74.46C398.99,-63.96 385.2,-51.5 373.92,-41.3"/>
<polygon fill="#63b8ff" stroke="#63b8ff" points="408.11,-76.92 417.87,-81.02 412.8,-71.72 408.11,-76.92"/>
</g>
<!-- Node8 -->
<g id="node8" class="node">
<title>Node8</title>
<g id="a_node8"><a xlink:href="LedStatusIndicator_8cpp.xhtml" target="_top" xlink:title=" ">
<polygon fill="white" stroke="#666666" points="563.5,-35.5 426.5,-35.5 426.5,-5.5 563.5,-5.5 563.5,-35.5"/>
<text text-anchor="start" x="434.5" y="-23.5" font-family="Helvetica,sans-Serif" font-size="10.00">lib/board_adapters</text>
<text text-anchor="middle" x="495" y="-12.5" font-family="Helvetica,sans-Serif" font-size="10.00">/src/LedStatusIndicator.cpp</text>
</a>
</g>
</g>
<!-- Node7&#45;&gt;Node8 -->
<g id="edge8" class="edge">
<title>Node7&#45;&gt;Node8</title>
<path fill="none" stroke="#63b8ff" d="M453.58,-73.27C463.35,-61.07 475.01,-46.49 483.47,-35.92"/>
<polygon fill="#63b8ff" stroke="#63b8ff" points="451.03,-70.86 447.51,-80.86 456.49,-75.24 451.03,-70.86"/>
</g>
</g>
</svg>
