<?xml version="1.0" encoding="UTF-8" standalone="no"?>
<!DOCTYPE svg PUBLIC "-//W3C//DTD SVG 1.1//EN"
 "http://www.w3.org/Graphics/SVG/1.1/DTD/svg11.dtd">
<!-- Generated by graphviz version 7.0.5 (20221223.1930)
 -->
<!-- Title: lib/application_business_rules/include/IStatusIndicator.hpp Pages: 1 -->
<svg width="690pt" height="258pt"
 viewBox="0.00 0.00 689.50 258.00" xmlns="http://www.w3.org/2000/svg" xmlns:xlink="http://www.w3.org/1999/xlink">
<g id="graph0" class="graph" transform="scale(1 1) rotate(0) translate(4 254)">
<title>lib/application_business_rules/include/IStatusIndicator.hpp</title>
<!-- Node1 -->
<g id="node1" class="node">
<title>Node1</title>
<g id="a_node1"><a xlink:title=" ">
<polygon fill="#999999" stroke="#666666" points="379,-250 212,-250 212,-220 379,-220 379,-250"/>
<text text-anchor="start" x="220" y="-238" font-family="Helvetica,sans-Serif" font-size="10.00">lib/application_business</text>
<text text-anchor="middle" x="295.5" y="-227" font-family="Helvetica,sans-Serif" font-size="10.00">_rules/include/IStatusIndicator.hpp</text>
</a>
</g>
</g>
<!-- Node2 -->
<g id="node2" class="node">
<title>Node2</title>
<g id="a_node2"><a xlink:href="statusindicators__factory__interface_8hpp.xhtml" target="_top" xlink:title=" ">
<polygon fill="white" stroke="#666666" points="370,-184 221,-184 221,-143 370,-143 370,-184"/>
<text text-anchor="start" x="229" y="-172" font-family="Helvetica,sans-Serif" font-size="10.00">lib/application_business</text>
<text text-anchor="start" x="229" y="-161" font-family="Helvetica,sans-Serif" font-size="10.00">_rules/include/statusindicators</text>
<text text-anchor="middle" x="295.5" y="-150" font-family="Helvetica,sans-Serif" font-size="10.00">_factory_interface.hpp</text>
</a>
</g>
</g>
<!-- Node1&#45;&gt;Node2 -->
<g id="edge1" class="edge">
<title>Node1&#45;&gt;Node2</title>
<path fill="none" stroke="#63b8ff" d="M295.5,-208.36C295.5,-200.45 295.5,-191.87 295.5,-184.42"/>
<polygon fill="#63b8ff" stroke="#63b8ff" points="292,-208.09 295.5,-218.09 299,-208.09 292,-208.09"/>
</g>
<!-- Node5 -->
<g id="node5" class="node">
<title>Node5</title>
<g id="a_node5"><a xlink:href="Presenter_8hpp.xhtml" target="_top" xlink:title=" ">
<polygon fill="white" stroke="#666666" points="511.5,-178.5 389.5,-178.5 389.5,-148.5 511.5,-148.5 511.5,-178.5"/>
<text text-anchor="start" x="397.5" y="-166.5" font-family="Helvetica,sans-Serif" font-size="10.00">lib/application_business</text>
<text text-anchor="middle" x="450.5" y="-155.5" font-family="Helvetica,sans-Serif" font-size="10.00">_rules/src/Presenter.hpp</text>
</a>
</g>
</g>
<!-- Node1&#45;&gt;Node5 -->
<g id="edge4" class="edge">
<title>Node1&#45;&gt;Node5</title>
<path fill="none" stroke="#63b8ff" d="M338.07,-214.91C363.45,-203.53 395.16,-189.31 418.43,-178.88"/>
<polygon fill="#63b8ff" stroke="#63b8ff" points="336.69,-211.7 329,-218.98 339.55,-218.08 336.69,-211.7"/>
</g>
<!-- Node9 -->
<g id="node9" class="node">
<title>Node9</title>
<g id="a_node9"><a xlink:href="LedStatusIndicator_8hpp.xhtml" target="_top" xlink:title=" ">
<polygon fill="white" stroke="#666666" points="203,-178.5 66,-178.5 66,-148.5 203,-148.5 203,-178.5"/>
<text text-anchor="start" x="74" y="-166.5" font-family="Helvetica,sans-Serif" font-size="10.00">lib/board_adapters</text>
<text text-anchor="middle" x="134.5" y="-155.5" font-family="Helvetica,sans-Serif" font-size="10.00">/src/LedStatusIndicator.hpp</text>
</a>
</g>
</g>
<!-- Node1&#45;&gt;Node9 -->
<g id="edge10" class="edge">
<title>Node1&#45;&gt;Node9</title>
<path fill="none" stroke="#63b8ff" d="M251.64,-215.07C225.21,-203.66 192.09,-189.36 167.82,-178.88"/>
<polygon fill="#63b8ff" stroke="#63b8ff" points="250.18,-218.25 260.75,-219 252.96,-211.82 250.18,-218.25"/>
</g>
<!-- Node3 -->
<g id="node3" class="node">
<title>Node3</title>
<g id="a_node3"><a xlink:href="statusindicators__factory__interface_8cpp.xhtml" target="_top" xlink:title=" ">
<polygon fill="white" stroke="#666666" points="267.5,-107 155.5,-107 155.5,-66 267.5,-66 267.5,-107"/>
<text text-anchor="start" x="163.5" y="-95" font-family="Helvetica,sans-Serif" font-size="10.00">lib/board_adapters</text>
<text text-anchor="start" x="163.5" y="-84" font-family="Helvetica,sans-Serif" font-size="10.00">/src/statusindicators</text>
<text text-anchor="middle" x="211.5" y="-73" font-family="Helvetica,sans-Serif" font-size="10.00">_factory_interface.cpp</text>
</a>
</g>
</g>
<!-- Node2&#45;&gt;Node3 -->
<g id="edge2" class="edge">
<title>Node2&#45;&gt;Node3</title>
<path fill="none" stroke="#63b8ff" d="M265.03,-135.29C254.67,-126.05 243.3,-115.89 233.71,-107.33"/>
<polygon fill="#63b8ff" stroke="#63b8ff" points="262.51,-137.74 272.3,-141.79 267.17,-132.52 262.51,-137.74"/>
</g>
<!-- Node4 -->
<g id="node4" class="node">
<title>Node4</title>
<g id="a_node4"><a xlink:href="main_8cpp.xhtml" target="_top" xlink:title=" ">
<polygon fill="white" stroke="#666666" points="360.5,-24.5 288.5,-24.5 288.5,-5.5 360.5,-5.5 360.5,-24.5"/>
<text text-anchor="middle" x="324.5" y="-12.5" font-family="Helvetica,sans-Serif" font-size="10.00">src/main.cpp</text>
</a>
</g>
</g>
<!-- Node2&#45;&gt;Node4 -->
<g id="edge3" class="edge">
<title>Node2&#45;&gt;Node4</title>
<path fill="none" stroke="#63b8ff" d="M301.61,-131.63C308.3,-97.83 318.63,-45.66 322.73,-24.93"/>
<polygon fill="#63b8ff" stroke="#63b8ff" points="298.21,-130.77 299.7,-141.26 305.08,-132.13 298.21,-130.77"/>
</g>
<!-- Node5&#45;&gt;Node4 -->
<g id="edge9" class="edge">
<title>Node5&#45;&gt;Node4</title>
<path fill="none" stroke="#63b8ff" d="M401.34,-143.33C384.16,-134.52 366.04,-122.51 353.5,-107 333.17,-81.85 326.99,-42.22 325.19,-24.75"/>
<polygon fill="#63b8ff" stroke="#63b8ff" points="399.42,-146.29 409.95,-147.49 402.47,-139.99 399.42,-146.29"/>
</g>
<!-- Node6 -->
<g id="node6" class="node">
<title>Node6</title>
<g id="a_node6"><a xlink:href="ProcessHmiInputs_8hpp.xhtml" target="_top" xlink:title=" ">
<polygon fill="white" stroke="#666666" points="541,-101.5 362,-101.5 362,-71.5 541,-71.5 541,-101.5"/>
<text text-anchor="start" x="370" y="-89.5" font-family="Helvetica,sans-Serif" font-size="10.00">lib/application_business</text>
<text text-anchor="middle" x="451.5" y="-78.5" font-family="Helvetica,sans-Serif" font-size="10.00">_rules/include/ProcessHmiInputs.hpp</text>
</a>
</g>
</g>
<!-- Node5&#45;&gt;Node6 -->
<g id="edge5" class="edge">
<title>Node5&#45;&gt;Node6</title>
<path fill="none" stroke="#63b8ff" d="M450.84,-136.73C451,-125.08 451.18,-111.76 451.31,-101.92"/>
<polygon fill="#63b8ff" stroke="#63b8ff" points="447.35,-136.48 450.71,-146.53 454.35,-136.57 447.35,-136.48"/>
</g>
<!-- Node8 -->
<g id="node8" class="node">
<title>Node8</title>
<g id="a_node8"><a xlink:href="Presenter_8cpp.xhtml" target="_top" xlink:title=" ">
<polygon fill="white" stroke="#666666" points="681.5,-101.5 559.5,-101.5 559.5,-71.5 681.5,-71.5 681.5,-101.5"/>
<text text-anchor="start" x="567.5" y="-89.5" font-family="Helvetica,sans-Serif" font-size="10.00">lib/application_business</text>
<text text-anchor="middle" x="620.5" y="-78.5" font-family="Helvetica,sans-Serif" font-size="10.00">_rules/src/Presenter.cpp</text>
</a>
</g>
</g>
<!-- Node5&#45;&gt;Node8 -->
<g id="edge8" class="edge">
<title>Node5&#45;&gt;Node8</title>
<path fill="none" stroke="#63b8ff" d="M493.63,-143.47C522.92,-130.55 561.04,-113.73 587.82,-101.92"/>
<polygon fill="#63b8ff" stroke="#63b8ff" points="492.4,-140.19 484.66,-147.43 495.22,-146.59 492.4,-140.19"/>
</g>
<!-- Node6&#45;&gt;Node4 -->
<g id="edge7" class="edge">
<title>Node6&#45;&gt;Node4</title>
<path fill="none" stroke="#63b8ff" d="M415.13,-65.6C390.58,-52.16 359.38,-35.09 340.72,-24.88"/>
<polygon fill="#63b8ff" stroke="#63b8ff" points="413.41,-68.64 423.86,-70.37 416.77,-62.5 413.41,-68.64"/>
</g>
<!-- Node7 -->
<g id="node7" class="node">
<title>Node7</title>
<g id="a_node7"><a xlink:href="ProcessHmiInputs_8cpp.xhtml" target="_top" xlink:title=" ">
<polygon fill="white" stroke="#666666" points="540,-30 379,-30 379,0 540,0 540,-30"/>
<text text-anchor="start" x="387" y="-18" font-family="Helvetica,sans-Serif" font-size="10.00">lib/application_business</text>
<text text-anchor="middle" x="459.5" y="-7" font-family="Helvetica,sans-Serif" font-size="10.00">_rules/src/ProcessHmiInputs.cpp</text>
</a>
</g>
</g>
<!-- Node6&#45;&gt;Node7 -->
<g id="edge6" class="edge">
<title>Node6&#45;&gt;Node7</title>
<path fill="none" stroke="#63b8ff" d="M454.46,-59.76C455.61,-49.83 456.87,-38.86 457.84,-30.38"/>
<polygon fill="#63b8ff" stroke="#63b8ff" points="451,-59.26 453.33,-69.6 457.95,-60.06 451,-59.26"/>
</g>
<!-- Node9&#45;&gt;Node3 -->
<g id="edge12" class="edge">
<title>Node9&#45;&gt;Node3</title>
<path fill="none" stroke="#63b8ff" d="M157.44,-140.15C168.16,-129.72 180.8,-117.4 191.17,-107.3"/>
<polygon fill="#63b8ff" stroke="#63b8ff" points="155.15,-137.5 150.43,-146.98 160.04,-142.51 155.15,-137.5"/>
</g>
<!-- Node10 -->
<g id="node10" class="node">
<title>Node10</title>
<g id="a_node10"><a xlink:href="LedStatusIndicator_8cpp.xhtml" target="_top" xlink:title=" ">
<polygon fill="white" stroke="#666666" points="137,-101.5 0,-101.5 0,-71.5 137,-71.5 137,-101.5"/>
<text text-anchor="start" x="8" y="-89.5" font-family="Helvetica,sans-Serif" font-size="10.00">lib/board_adapters</text>
<text text-anchor="middle" x="68.5" y="-78.5" font-family="Helvetica,sans-Serif" font-size="10.00">/src/LedStatusIndicator.cpp</text>
</a>
</g>
</g>
<!-- Node9&#45;&gt;Node10 -->
<g id="edge11" class="edge">
<title>Node9&#45;&gt;Node10</title>
<path fill="none" stroke="#63b8ff" d="M114.38,-139.63C103.57,-127.35 90.58,-112.59 81.19,-101.92"/>
<polygon fill="#63b8ff" stroke="#63b8ff" points="111.54,-141.71 120.77,-146.9 116.8,-137.08 111.54,-141.71"/>
</g>
</g>
</svg>
