<?xml version="1.0" encoding="UTF-8" standalone="no"?>
<!DOCTYPE svg PUBLIC "-//W3C//DTD SVG 1.1//EN"
 "http://www.w3.org/Graphics/SVG/1.1/DTD/svg11.dtd">
<!-- Generated by graphviz version 9.0.0 (20230911.1827)
 -->
<!-- Title: lib/layer2_hmi/include/IStatusIndicator.hpp Pages: 1 -->
<svg width="728pt" height="194pt"
 viewBox="0.00 0.00 727.50 194.00" xmlns="http://www.w3.org/2000/svg" xmlns:xlink="http://www.w3.org/1999/xlink">
<g id="graph0" class="graph" transform="scale(1 1) rotate(0) translate(4 190)">
<title>lib/layer2_hmi/include/IStatusIndicator.hpp</title>
<!-- Node1 -->
<g id="Node000001" class="node">
<title>Node1</title>
<g id="a_Node000001"><a xlink:title=" ">
<polygon fill="#999999" stroke="#666666" points="451.38,-186 342.38,-186 342.38,-155.5 451.38,-155.5 451.38,-186"/>
<text text-anchor="start" x="350.38" y="-172.5" font-family="Helvetica,sans-Serif" font-size="10.00">lib/layer2_hmi/include</text>
<text text-anchor="middle" x="396.88" y="-161.25" font-family="Helvetica,sans-Serif" font-size="10.00">/IStatusIndicator.hpp</text>
</a>
</g>
</g>
<!-- Node2 -->
<g id="Node000002" class="node">
<title>Node2</title>
<g id="a_Node000002"><a xlink:href="statusindicators__factory__interface_8hpp.xhtml" target="_top" xlink:title=" ">
<polygon fill="white" stroke="#666666" points="389.12,-119.5 266.62,-119.5 266.62,-77.75 389.12,-77.75 389.12,-119.5"/>
<text text-anchor="start" x="274.62" y="-106" font-family="Helvetica,sans-Serif" font-size="10.00">lib/layer2_hmi/include</text>
<text text-anchor="start" x="274.62" y="-94.75" font-family="Helvetica,sans-Serif" font-size="10.00">/statusindicators_factory</text>
<text text-anchor="middle" x="327.88" y="-83.5" font-family="Helvetica,sans-Serif" font-size="10.00">_interface.hpp</text>
</a>
</g>
</g>
<!-- Node1&#45;&gt;Node2 -->
<g id="edge1_Node000001_Node000002" class="edge">
<title>Node1&#45;&gt;Node2</title>
<g id="a_edge1_Node000001_Node000002"><a xlink:title=" ">
<path fill="none" stroke="#63b8ff" d="M374.76,-147.27C366.14,-138.51 356.32,-128.54 347.91,-119.99"/>
<polygon fill="#63b8ff" stroke="#63b8ff" points="372.01,-149.47 381.52,-154.14 377,-144.56 372.01,-149.47"/>
</a>
</g>
</g>
<!-- Node5 -->
<g id="Node000005" class="node">
<title>Node5</title>
<g id="a_Node000005"><a xlink:href="Presenter_8hpp.xhtml" target="_top" xlink:title=" ">
<polygon fill="white" stroke="#666666" points="232.75,-113.88 141,-113.88 141,-83.38 232.75,-83.38 232.75,-113.88"/>
<text text-anchor="start" x="149" y="-100.38" font-family="Helvetica,sans-Serif" font-size="10.00">lib/layer2_hmi/src</text>
<text text-anchor="middle" x="186.88" y="-89.12" font-family="Helvetica,sans-Serif" font-size="10.00">/Presenter.hpp</text>
</a>
</g>
</g>
<!-- Node1&#45;&gt;Node5 -->
<g id="edge4_Node000001_Node000005" class="edge">
<title>Node1&#45;&gt;Node5</title>
<g id="a_edge4_Node000001_Node000005"><a xlink:title=" ">
<path fill="none" stroke="#63b8ff" d="M341.96,-151.41C307.32,-139.84 263.17,-125.1 230.84,-114.31"/>
<polygon fill="#63b8ff" stroke="#63b8ff" points="340.82,-154.72 351.42,-154.57 343.04,-148.08 340.82,-154.72"/>
</a>
</g>
</g>
<!-- Node7 -->
<g id="Node000007" class="node">
<title>Node7</title>
<g id="a_Node000007"><a xlink:href="LedStatusIndicator_8hpp.xhtml" target="_top" xlink:title=" ">
<polygon fill="white" stroke="#666666" points="526.62,-113.88 407.12,-113.88 407.12,-83.38 526.62,-83.38 526.62,-113.88"/>
<text text-anchor="start" x="415.12" y="-100.38" font-family="Helvetica,sans-Serif" font-size="10.00">lib/layer3_board/src</text>
<text text-anchor="middle" x="466.88" y="-89.12" font-family="Helvetica,sans-Serif" font-size="10.00">/LedStatusIndicator.hpp</text>
</a>
</g>
</g>
<!-- Node1&#45;&gt;Node7 -->
<g id="edge7_Node000001_Node000007" class="edge">
<title>Node1&#45;&gt;Node7</title>
<g id="a_edge7_Node000001_Node000007"><a xlink:title=" ">
<path fill="none" stroke="#63b8ff" d="M419.23,-147.35C430.09,-136.48 442.82,-123.72 452.39,-114.14"/>
<polygon fill="#63b8ff" stroke="#63b8ff" points="417.04,-144.6 412.45,-154.15 421.99,-149.54 417.04,-144.6"/>
</a>
</g>
</g>
<!-- Node9 -->
<g id="Node000009" class="node">
<title>Node9</title>
<g id="a_Node000009"><a xlink:href="ShiftRegisterStatusIndicator_8hpp.xhtml" target="_top" xlink:title=" ">
<polygon fill="white" stroke="#666666" points="711.5,-113.88 552.25,-113.88 552.25,-83.38 711.5,-83.38 711.5,-113.88"/>
<text text-anchor="start" x="560.25" y="-100.38" font-family="Helvetica,sans-Serif" font-size="10.00">lib/layer3_board/src</text>
<text text-anchor="middle" x="631.88" y="-89.12" font-family="Helvetica,sans-Serif" font-size="10.00">/ShiftRegisterStatusIndicator.hpp</text>
</a>
</g>
</g>
<!-- Node1&#45;&gt;Node9 -->
<g id="edge10_Node000001_Node000009" class="edge">
<title>Node1&#45;&gt;Node9</title>
<g id="a_edge10_Node000001_Node000009"><a xlink:title=" ">
<path fill="none" stroke="#63b8ff" d="M457.07,-151.79C496.02,-140.16 546.11,-125.22 582.68,-114.31"/>
<polygon fill="#63b8ff" stroke="#63b8ff" points="456.17,-148.4 447.59,-154.62 458.17,-155.11 456.17,-148.4"/>
</a>
</g>
</g>
<!-- Node3 -->
<g id="Node000003" class="node">
<title>Node3</title>
<g id="a_Node000003"><a xlink:href="presenter__factory__interface_8cpp.xhtml" target="_top" xlink:title=" ">
<polygon fill="white" stroke="#666666" points="264.25,-36.12 109.5,-36.12 109.5,-5.62 264.25,-5.62 264.25,-36.12"/>
<text text-anchor="start" x="117.5" y="-22.62" font-family="Helvetica,sans-Serif" font-size="10.00">lib/layer2_hmi/src</text>
<text text-anchor="middle" x="186.88" y="-11.38" font-family="Helvetica,sans-Serif" font-size="10.00">/presenter_factory_interface.cpp</text>
</a>
</g>
</g>
<!-- Node2&#45;&gt;Node3 -->
<g id="edge2_Node000002_Node000003" class="edge">
<title>Node2&#45;&gt;Node3</title>
<g id="a_edge2_Node000002_Node000003"><a xlink:title=" ">
<path fill="none" stroke="#63b8ff" d="M280.23,-72.03C258.17,-60.18 232.77,-46.53 214.03,-36.46"/>
<polygon fill="#63b8ff" stroke="#63b8ff" points="278.29,-74.96 288.76,-76.61 281.6,-68.79 278.29,-74.96"/>
</a>
</g>
</g>
<!-- Node4 -->
<g id="Node000004" class="node">
<title>Node4</title>
<g id="a_Node000004"><a xlink:href="statusindicators__factory__interface_8cpp.xhtml" target="_top" xlink:title=" ">
<polygon fill="white" stroke="#666666" points="405.12,-41.75 282.62,-41.75 282.62,0 405.12,0 405.12,-41.75"/>
<text text-anchor="start" x="290.62" y="-28.25" font-family="Helvetica,sans-Serif" font-size="10.00">lib/layer3_board/src</text>
<text text-anchor="start" x="290.62" y="-17" font-family="Helvetica,sans-Serif" font-size="10.00">/statusindicators_factory</text>
<text text-anchor="middle" x="343.88" y="-5.75" font-family="Helvetica,sans-Serif" font-size="10.00">_interface.cpp</text>
</a>
</g>
</g>
<!-- Node2&#45;&gt;Node4 -->
<g id="edge3_Node000002_Node000004" class="edge">
<title>Node2&#45;&gt;Node4</title>
<g id="a_edge3_Node000002_Node000004"><a xlink:title=" ">
<path fill="none" stroke="#63b8ff" d="M334.5,-66.28C336.21,-58.16 338.01,-49.62 339.58,-42.23"/>
<polygon fill="#63b8ff" stroke="#63b8ff" points="331.12,-65.34 332.48,-75.84 337.97,-66.78 331.12,-65.34"/>
</a>
</g>
</g>
<!-- Node5&#45;&gt;Node3 -->
<g id="edge6_Node000005_Node000003" class="edge">
<title>Node5&#45;&gt;Node3</title>
<g id="a_edge6_Node000005_Node000003"><a xlink:title=" ">
<path fill="none" stroke="#63b8ff" d="M186.88,-71.6C186.88,-59.84 186.88,-46.38 186.88,-36.44"/>
<polygon fill="#63b8ff" stroke="#63b8ff" points="183.38,-71.51 186.88,-81.51 190.38,-71.51 183.38,-71.51"/>
</a>
</g>
</g>
<!-- Node6 -->
<g id="Node000006" class="node">
<title>Node6</title>
<g id="a_Node000006"><a xlink:href="Presenter_8cpp.xhtml" target="_top" xlink:title=" ">
<polygon fill="white" stroke="#666666" points="91.75,-36.12 0,-36.12 0,-5.62 91.75,-5.62 91.75,-36.12"/>
<text text-anchor="start" x="8" y="-22.62" font-family="Helvetica,sans-Serif" font-size="10.00">lib/layer2_hmi/src</text>
<text text-anchor="middle" x="45.88" y="-11.38" font-family="Helvetica,sans-Serif" font-size="10.00">/Presenter.cpp</text>
</a>
</g>
</g>
<!-- Node5&#45;&gt;Node6 -->
<g id="edge5_Node000005_Node000006" class="edge">
<title>Node5&#45;&gt;Node6</title>
<g id="a_edge5_Node000005_Node000006"><a xlink:title=" ">
<path fill="none" stroke="#63b8ff" d="M149.82,-77.72C125.71,-64.76 94.8,-48.16 72.98,-36.44"/>
<polygon fill="#63b8ff" stroke="#63b8ff" points="147.89,-80.65 158.36,-82.3 151.2,-74.49 147.89,-80.65"/>
</a>
</g>
</g>
<!-- Node7&#45;&gt;Node4 -->
<g id="edge9_Node000007_Node000004" class="edge">
<title>Node7&#45;&gt;Node4</title>
<g id="a_edge9_Node000007_Node000004"><a xlink:title=" ">
<path fill="none" stroke="#63b8ff" d="M433.81,-77.26C416.14,-66.38 394.46,-53.03 376.82,-42.16"/>
<polygon fill="#63b8ff" stroke="#63b8ff" points="431.52,-79.96 441.87,-82.23 435.19,-74 431.52,-79.96"/>
</a>
</g>
</g>
<!-- Node8 -->
<g id="Node000008" class="node">
<title>Node8</title>
<g id="a_Node000008"><a xlink:href="LedStatusIndicator_8cpp.xhtml" target="_top" xlink:title=" ">
<polygon fill="white" stroke="#666666" points="542.62,-36.12 423.12,-36.12 423.12,-5.62 542.62,-5.62 542.62,-36.12"/>
<text text-anchor="start" x="431.12" y="-22.62" font-family="Helvetica,sans-Serif" font-size="10.00">lib/layer3_board/src</text>
<text text-anchor="middle" x="482.88" y="-11.38" font-family="Helvetica,sans-Serif" font-size="10.00">/LedStatusIndicator.cpp</text>
</a>
</g>
</g>
<!-- Node7&#45;&gt;Node8 -->
<g id="edge8_Node000007_Node000008" class="edge">
<title>Node7&#45;&gt;Node8</title>
<g id="a_edge8_Node000007_Node000008"><a xlink:title=" ">
<path fill="none" stroke="#63b8ff" d="M472.29,-71.97C474.8,-60.12 477.68,-46.49 479.8,-36.44"/>
<polygon fill="#63b8ff" stroke="#63b8ff" points="468.92,-71.03 470.27,-81.54 475.76,-72.48 468.92,-71.03"/>
</a>
</g>
</g>
<!-- Node10 -->
<g id="Node000010" class="node">
<title>Node10</title>
<g id="a_Node000010"><a xlink:href="ShiftRegisterStatusIndicator_8cpp.xhtml" target="_top" xlink:title=" ">
<polygon fill="white" stroke="#666666" points="719.5,-36.12 560.25,-36.12 560.25,-5.62 719.5,-5.62 719.5,-36.12"/>
<text text-anchor="start" x="568.25" y="-22.62" font-family="Helvetica,sans-Serif" font-size="10.00">lib/layer3_board/src</text>
<text text-anchor="middle" x="639.88" y="-11.38" font-family="Helvetica,sans-Serif" font-size="10.00">/ShiftRegisterStatusIndicator.cpp</text>
</a>
</g>
</g>
<!-- Node9&#45;&gt;Node10 -->
<g id="edge11_Node000009_Node000010" class="edge">
<title>Node9&#45;&gt;Node10</title>
<g id="a_edge11_Node000009_Node000010"><a xlink:title=" ">
<path fill="none" stroke="#63b8ff" d="M634.62,-71.6C635.87,-59.84 637.29,-46.38 638.34,-36.44"/>
<polygon fill="#63b8ff" stroke="#63b8ff" points="631.15,-71.2 633.58,-81.51 638.11,-71.94 631.15,-71.2"/>
</a>
</g>
</g>
</g>
</svg>
