<?xml version="1.0" encoding="UTF-8" standalone="no"?>
<!DOCTYPE svg PUBLIC "-//W3C//DTD SVG 1.1//EN"
 "http://www.w3.org/Graphics/SVG/1.1/DTD/svg11.dtd">
<!-- Generated by graphviz version 7.0.5 (20221223.1930)
 -->
<!-- Title: lib/application_business_rules/include/KeyIds.hpp Pages: 1 -->
<svg width="1020pt" height="258pt"
 viewBox="0.00 0.00 1019.50 258.00" xmlns="http://www.w3.org/2000/svg" xmlns:xlink="http://www.w3.org/1999/xlink">
<g id="graph0" class="graph" transform="scale(1 1) rotate(0) translate(4 254)">
<title>lib/application_business_rules/include/KeyIds.hpp</title>
<!-- Node1 -->
<g id="node1" class="node">
<title>Node1</title>
<g id="a_node1"><a xlink:title=" ">
<polygon fill="#999999" stroke="#666666" points="594.5,-250 466.5,-250 466.5,-220 594.5,-220 594.5,-250"/>
<text text-anchor="start" x="474.5" y="-238" font-family="Helvetica,sans-Serif" font-size="10.00">lib/application_business</text>
<text text-anchor="middle" x="530.5" y="-227" font-family="Helvetica,sans-Serif" font-size="10.00">_rules/include/KeyIds.hpp</text>
</a>
</g>
</g>
<!-- Node2 -->
<g id="node2" class="node">
<title>Node2</title>
<g id="a_node2"><a xlink:href="IController_8hpp.xhtml" target="_top" xlink:title=" ">
<polygon fill="white" stroke="#666666" points="435.5,-184 293.5,-184 293.5,-154 435.5,-154 435.5,-184"/>
<text text-anchor="start" x="301.5" y="-172" font-family="Helvetica,sans-Serif" font-size="10.00">lib/application_business</text>
<text text-anchor="middle" x="364.5" y="-161" font-family="Helvetica,sans-Serif" font-size="10.00">_rules/include/IController.hpp</text>
</a>
</g>
</g>
<!-- Node1&#45;&gt;Node2 -->
<g id="edge1" class="edge">
<title>Node1&#45;&gt;Node2</title>
<path fill="none" stroke="#63b8ff" d="M482.62,-215.54C456.95,-205.64 425.79,-193.63 401.92,-184.43"/>
<polygon fill="#63b8ff" stroke="#63b8ff" points="481.24,-218.76 491.83,-219.09 483.76,-212.23 481.24,-218.76"/>
</g>
<!-- Node8 -->
<g id="node8" class="node">
<title>Node8</title>
<g id="a_node8"><a xlink:href="Controller_8hpp.xhtml" target="_top" xlink:title=" ">
<polygon fill="white" stroke="#666666" points="544.5,-112.5 422.5,-112.5 422.5,-82.5 544.5,-82.5 544.5,-112.5"/>
<text text-anchor="start" x="430.5" y="-100.5" font-family="Helvetica,sans-Serif" font-size="10.00">lib/application_business</text>
<text text-anchor="middle" x="483.5" y="-89.5" font-family="Helvetica,sans-Serif" font-size="10.00">_rules/src/Controller.hpp</text>
</a>
</g>
</g>
<!-- Node1&#45;&gt;Node8 -->
<g id="edge21" class="edge">
<title>Node1&#45;&gt;Node8</title>
<path fill="none" stroke="#63b8ff" d="M515.14,-209.91C510.55,-201.91 505.85,-192.79 502.5,-184 493.28,-159.85 487.93,-130.07 485.37,-112.79"/>
<polygon fill="#63b8ff" stroke="#63b8ff" points="512.07,-211.6 520.21,-218.38 518.07,-208 512.07,-211.6"/>
</g>
<!-- Node11 -->
<g id="node11" class="node">
<title>Node11</title>
<g id="a_node11"><a xlink:href="IKeypad_8hpp.xhtml" target="_top" xlink:title=" ">
<polygon fill="white" stroke="#666666" points="645,-184 512,-184 512,-154 645,-154 645,-184"/>
<text text-anchor="start" x="520" y="-172" font-family="Helvetica,sans-Serif" font-size="10.00">lib/application_business</text>
<text text-anchor="middle" x="578.5" y="-161" font-family="Helvetica,sans-Serif" font-size="10.00">_rules/include/IKeypad.hpp</text>
</a>
</g>
</g>
<!-- Node1&#45;&gt;Node11 -->
<g id="edge12" class="edge">
<title>Node1&#45;&gt;Node11</title>
<path fill="none" stroke="#63b8ff" d="M547.99,-210.68C554.65,-201.79 562.04,-191.95 567.88,-184.16"/>
<polygon fill="#63b8ff" stroke="#63b8ff" points="545.26,-208.49 542.06,-218.59 550.86,-212.69 545.26,-208.49"/>
</g>
<!-- Node17 -->
<g id="node17" class="node">
<title>Node17</title>
<g id="a_node17"><a xlink:href="KeyIds_8cpp.xhtml" target="_top" xlink:title=" ">
<polygon fill="white" stroke="#666666" points="783.5,-184 663.5,-184 663.5,-154 783.5,-154 783.5,-184"/>
<text text-anchor="start" x="671.5" y="-172" font-family="Helvetica,sans-Serif" font-size="10.00">lib/application_business</text>
<text text-anchor="middle" x="723.5" y="-161" font-family="Helvetica,sans-Serif" font-size="10.00">_rules/src/KeyIds.cpp</text>
</a>
</g>
</g>
<!-- Node1&#45;&gt;Node17 -->
<g id="edge22" class="edge">
<title>Node1&#45;&gt;Node17</title>
<path fill="none" stroke="#63b8ff" d="M584.58,-216.07C614.72,-206.07 651.75,-193.79 680,-184.43"/>
<polygon fill="#63b8ff" stroke="#63b8ff" points="583.64,-212.69 575.25,-219.16 585.84,-219.34 583.64,-212.69"/>
</g>
<!-- Node3 -->
<g id="node3" class="node">
<title>Node3</title>
<g id="a_node3"><a xlink:href="ProcessHmiInputs_8hpp.xhtml" target="_top" xlink:title=" ">
<polygon fill="white" stroke="#666666" points="262,-112.5 83,-112.5 83,-82.5 262,-82.5 262,-112.5"/>
<text text-anchor="start" x="91" y="-100.5" font-family="Helvetica,sans-Serif" font-size="10.00">lib/application_business</text>
<text text-anchor="middle" x="172.5" y="-89.5" font-family="Helvetica,sans-Serif" font-size="10.00">_rules/include/ProcessHmiInputs.hpp</text>
</a>
</g>
</g>
<!-- Node2&#45;&gt;Node3 -->
<g id="edge2" class="edge">
<title>Node2&#45;&gt;Node3</title>
<path fill="none" stroke="#63b8ff" d="M314.28,-149.82C282.44,-138.3 241.82,-123.59 212.23,-112.88"/>
<polygon fill="#63b8ff" stroke="#63b8ff" points="312.7,-152.97 323.29,-153.08 315.08,-146.39 312.7,-152.97"/>
</g>
<!-- Node6 -->
<g id="node6" class="node">
<title>Node6</title>
<g id="a_node6"><a xlink:href="controller__factory__interface_8hpp.xhtml" target="_top" xlink:title=" ">
<polygon fill="white" stroke="#666666" points="400.5,-118 280.5,-118 280.5,-77 400.5,-77 400.5,-118"/>
<text text-anchor="start" x="288.5" y="-106" font-family="Helvetica,sans-Serif" font-size="10.00">lib/application_business</text>
<text text-anchor="start" x="288.5" y="-95" font-family="Helvetica,sans-Serif" font-size="10.00">_rules/include/controller</text>
<text text-anchor="middle" x="340.5" y="-84" font-family="Helvetica,sans-Serif" font-size="10.00">_factory_interface.hpp</text>
</a>
</g>
</g>
<!-- Node2&#45;&gt;Node6 -->
<g id="edge5" class="edge">
<title>Node2&#45;&gt;Node6</title>
<path fill="none" stroke="#63b8ff" d="M355.84,-142.91C353.06,-134.86 350.01,-126.05 347.38,-118.42"/>
<polygon fill="#63b8ff" stroke="#63b8ff" points="352.46,-143.86 359.03,-152.17 359.08,-141.57 352.46,-143.86"/>
</g>
<!-- Node2&#45;&gt;Node8 -->
<g id="edge8" class="edge">
<title>Node2&#45;&gt;Node8</title>
<path fill="none" stroke="#63b8ff" d="M399.02,-147.84C418.18,-136.65 441.57,-122.99 458.87,-112.88"/>
<polygon fill="#63b8ff" stroke="#63b8ff" points="397.33,-144.77 390.46,-152.84 400.86,-150.82 397.33,-144.77"/>
</g>
<!-- Node4 -->
<g id="node4" class="node">
<title>Node4</title>
<g id="a_node4"><a xlink:href="ProcessHmiInputs_8cpp.xhtml" target="_top" xlink:title=" ">
<polygon fill="white" stroke="#666666" points="161,-35.5 0,-35.5 0,-5.5 161,-5.5 161,-35.5"/>
<text text-anchor="start" x="8" y="-23.5" font-family="Helvetica,sans-Serif" font-size="10.00">lib/application_business</text>
<text text-anchor="middle" x="80.5" y="-12.5" font-family="Helvetica,sans-Serif" font-size="10.00">_rules/src/ProcessHmiInputs.cpp</text>
</a>
</g>
</g>
<!-- Node3&#45;&gt;Node4 -->
<g id="edge3" class="edge">
<title>Node3&#45;&gt;Node4</title>
<path fill="none" stroke="#63b8ff" d="M146.19,-75.05C130.8,-62.51 111.79,-47.01 98.18,-35.92"/>
<polygon fill="#63b8ff" stroke="#63b8ff" points="143.63,-77.48 153.59,-81.08 148.05,-72.05 143.63,-77.48"/>
</g>
<!-- Node5 -->
<g id="node5" class="node">
<title>Node5</title>
<g id="a_node5"><a xlink:href="main_8cpp.xhtml" target="_top" xlink:title=" ">
<polygon fill="white" stroke="#666666" points="251.5,-30 179.5,-30 179.5,-11 251.5,-11 251.5,-30"/>
<text text-anchor="middle" x="215.5" y="-18" font-family="Helvetica,sans-Serif" font-size="10.00">src/main.cpp</text>
</a>
</g>
</g>
<!-- Node3&#45;&gt;Node5 -->
<g id="edge4" class="edge">
<title>Node3&#45;&gt;Node5</title>
<path fill="none" stroke="#63b8ff" d="M186.41,-72.25C194.65,-57.87 204.59,-40.53 210.46,-30.29"/>
<polygon fill="#63b8ff" stroke="#63b8ff" points="183.48,-70.31 181.54,-80.73 189.55,-73.79 183.48,-70.31"/>
</g>
<!-- Node6&#45;&gt;Node5 -->
<g id="edge7" class="edge">
<title>Node6&#45;&gt;Node5</title>
<path fill="none" stroke="#63b8ff" d="M297.61,-70.77C274.24,-56.75 246.81,-40.29 230.31,-30.38"/>
<polygon fill="#63b8ff" stroke="#63b8ff" points="295.66,-73.68 306.03,-75.82 299.26,-67.67 295.66,-73.68"/>
</g>
<!-- Node7 -->
<g id="node7" class="node">
<title>Node7</title>
<g id="a_node7"><a xlink:href="controller__factory__interface_8cpp.xhtml" target="_top" xlink:title=" ">
<polygon fill="white" stroke="#666666" points="407,-41 270,-41 270,0 407,0 407,-41"/>
<text text-anchor="start" x="278" y="-29" font-family="Helvetica,sans-Serif" font-size="10.00">lib/application_business</text>
<text text-anchor="start" x="278" y="-18" font-family="Helvetica,sans-Serif" font-size="10.00">_rules/src/controller_factory</text>
<text text-anchor="middle" x="338.5" y="-7" font-family="Helvetica,sans-Serif" font-size="10.00">_interface.cpp</text>
</a>
</g>
</g>
<!-- Node6&#45;&gt;Node7 -->
<g id="edge6" class="edge">
<title>Node6&#45;&gt;Node7</title>
<path fill="none" stroke="#63b8ff" d="M339.67,-65.36C339.45,-57.24 339.23,-48.7 339.03,-41.33"/>
<polygon fill="#63b8ff" stroke="#63b8ff" points="336.17,-65.38 339.93,-75.28 343.17,-65.19 336.17,-65.38"/>
</g>
<!-- Node8&#45;&gt;Node7 -->
<g id="edge10" class="edge">
<title>Node8&#45;&gt;Node7</title>
<path fill="none" stroke="#63b8ff" d="M445.35,-76.76C424.28,-65.87 398.19,-52.37 377.06,-41.44"/>
<polygon fill="#63b8ff" stroke="#63b8ff" points="443.71,-79.86 454.2,-81.34 446.92,-73.64 443.71,-79.86"/>
</g>
<!-- Node9 -->
<g id="node9" class="node">
<title>Node9</title>
<g id="a_node9"><a xlink:href="Controller_8cpp.xhtml" target="_top" xlink:title=" ">
<polygon fill="white" stroke="#666666" points="547.5,-35.5 425.5,-35.5 425.5,-5.5 547.5,-5.5 547.5,-35.5"/>
<text text-anchor="start" x="433.5" y="-23.5" font-family="Helvetica,sans-Serif" font-size="10.00">lib/application_business</text>
<text text-anchor="middle" x="486.5" y="-12.5" font-family="Helvetica,sans-Serif" font-size="10.00">_rules/src/Controller.cpp</text>
</a>
</g>
</g>
<!-- Node8&#45;&gt;Node9 -->
<g id="edge9" class="edge">
<title>Node8&#45;&gt;Node9</title>
<path fill="none" stroke="#63b8ff" d="M484.53,-70.73C485,-59.08 485.53,-45.76 485.92,-35.92"/>
<polygon fill="#63b8ff" stroke="#63b8ff" points="481.04,-70.39 484.14,-80.53 488.04,-70.67 481.04,-70.39"/>
</g>
<!-- Node10 -->
<g id="node10" class="node">
<title>Node10</title>
<g id="a_node10"><a xlink:href="test__hmi_8cpp.xhtml" target="_top" xlink:title=" ">
<polygon fill="white" stroke="#666666" points="659,-35.5 566,-35.5 566,-5.5 659,-5.5 659,-35.5"/>
<text text-anchor="start" x="574" y="-23.5" font-family="Helvetica,sans-Serif" font-size="10.00">test/test_hmi/test</text>
<text text-anchor="middle" x="612.5" y="-12.5" font-family="Helvetica,sans-Serif" font-size="10.00">_hmi.cpp</text>
</a>
</g>
</g>
<!-- Node8&#45;&gt;Node10 -->
<g id="edge11" class="edge">
<title>Node8&#45;&gt;Node10</title>
<path fill="none" stroke="#63b8ff" d="M518.29,-76.27C540.22,-63.52 568,-47.37 587.7,-35.92"/>
<polygon fill="#63b8ff" stroke="#63b8ff" points="516.57,-73.23 509.68,-81.28 520.09,-79.28 516.57,-73.23"/>
</g>
<!-- Node11&#45;&gt;Node8 -->
<g id="edge16" class="edge">
<title>Node11&#45;&gt;Node8</title>
<path fill="none" stroke="#63b8ff" d="M549.88,-147.06C534.79,-136.02 516.66,-122.76 503.16,-112.88"/>
<polygon fill="#63b8ff" stroke="#63b8ff" points="547.46,-149.63 557.59,-152.71 551.59,-143.98 547.46,-149.63"/>
</g>
<!-- Node12 -->
<g id="node12" class="node">
<title>Node12</title>
<g id="a_node12"><a xlink:href="keypad__factory__interface_8hpp.xhtml" target="_top" xlink:title=" ">
<polygon fill="white" stroke="#666666" points="708,-118 563,-118 563,-77 708,-77 708,-118"/>
<text text-anchor="start" x="571" y="-106" font-family="Helvetica,sans-Serif" font-size="10.00">lib/application_business</text>
<text text-anchor="start" x="571" y="-95" font-family="Helvetica,sans-Serif" font-size="10.00">_rules/include/keypad_factory</text>
<text text-anchor="middle" x="635.5" y="-84" font-family="Helvetica,sans-Serif" font-size="10.00">_interface.hpp</text>
</a>
</g>
</g>
<!-- Node11&#45;&gt;Node12 -->
<g id="edge13" class="edge">
<title>Node11&#45;&gt;Node12</title>
<path fill="none" stroke="#63b8ff" d="M597.49,-144.84C604.51,-136.28 612.4,-126.66 619.17,-118.42"/>
<polygon fill="#63b8ff" stroke="#63b8ff" points="594.91,-142.48 591.27,-152.43 600.32,-146.92 594.91,-142.48"/>
</g>
<!-- Node14 -->
<g id="node14" class="node">
<title>Node14</title>
<g id="a_node14"><a xlink:href="Keypad_8hpp.xhtml" target="_top" xlink:title=" ">
<polygon fill="white" stroke="#666666" points="859.5,-112.5 763.5,-112.5 763.5,-82.5 859.5,-82.5 859.5,-112.5"/>
<text text-anchor="start" x="771.5" y="-100.5" font-family="Helvetica,sans-Serif" font-size="10.00">lib/board_adapters</text>
<text text-anchor="middle" x="811.5" y="-89.5" font-family="Helvetica,sans-Serif" font-size="10.00">/src/Keypad.hpp</text>
</a>
</g>
</g>
<!-- Node11&#45;&gt;Node14 -->
<g id="edge17" class="edge">
<title>Node11&#45;&gt;Node14</title>
<path fill="none" stroke="#63b8ff" d="M637.68,-150.35C676.48,-138.77 726.57,-123.83 763,-112.97"/>
<polygon fill="#63b8ff" stroke="#63b8ff" points="637.09,-146.87 628.51,-153.08 639.09,-153.58 637.09,-146.87"/>
</g>
<!-- Node12&#45;&gt;Node7 -->
<g id="edge14" class="edge">
<title>Node12&#45;&gt;Node7</title>
<path fill="none" stroke="#63b8ff" d="M551.78,-75.36C506.17,-63.84 450.41,-49.76 407.34,-38.88"/>
<polygon fill="#63b8ff" stroke="#63b8ff" points="550.83,-78.73 561.38,-77.78 552.54,-71.94 550.83,-78.73"/>
</g>
<!-- Node13 -->
<g id="node13" class="node">
<title>Node13</title>
<g id="a_node13"><a xlink:href="keypad__factory__interface_8cpp.xhtml" target="_top" xlink:title=" ">
<polygon fill="white" stroke="#666666" points="778,-41 677,-41 677,0 778,0 778,-41"/>
<text text-anchor="start" x="685" y="-29" font-family="Helvetica,sans-Serif" font-size="10.00">lib/board_adapters</text>
<text text-anchor="start" x="685" y="-18" font-family="Helvetica,sans-Serif" font-size="10.00">/src/keypad_factory</text>
<text text-anchor="middle" x="727.5" y="-7" font-family="Helvetica,sans-Serif" font-size="10.00">_interface.cpp</text>
</a>
</g>
</g>
<!-- Node12&#45;&gt;Node13 -->
<g id="edge15" class="edge">
<title>Node12&#45;&gt;Node13</title>
<path fill="none" stroke="#63b8ff" d="M668.53,-69.57C679.97,-60.25 692.56,-49.98 703.17,-41.33"/>
<polygon fill="#63b8ff" stroke="#63b8ff" points="666.38,-66.81 660.85,-75.84 670.81,-72.23 666.38,-66.81"/>
</g>
<!-- Node14&#45;&gt;Node13 -->
<g id="edge19" class="edge">
<title>Node14&#45;&gt;Node13</title>
<path fill="none" stroke="#63b8ff" d="M786.82,-74.46C775.06,-63.96 761.1,-51.5 749.68,-41.3"/>
<polygon fill="#63b8ff" stroke="#63b8ff" points="784.38,-76.98 794.17,-81.03 789.05,-71.76 784.38,-76.98"/>
</g>
<!-- Node15 -->
<g id="node15" class="node">
<title>Node15</title>
<g id="a_node15"><a xlink:href="Keypad_8cpp.xhtml" target="_top" xlink:title=" ">
<polygon fill="white" stroke="#666666" points="1011.5,-35.5 915.5,-35.5 915.5,-5.5 1011.5,-5.5 1011.5,-35.5"/>
<text text-anchor="start" x="923.5" y="-23.5" font-family="Helvetica,sans-Serif" font-size="10.00">lib/board_adapters</text>
<text text-anchor="middle" x="963.5" y="-12.5" font-family="Helvetica,sans-Serif" font-size="10.00">/src/Keypad.cpp</text>
</a>
</g>
</g>
<!-- Node14&#45;&gt;Node15 -->
<g id="edge18" class="edge">
<title>Node14&#45;&gt;Node15</title>
<path fill="none" stroke="#63b8ff" d="M851.1,-76.96C877.14,-64.11 910.65,-47.58 934.28,-35.92"/>
<polygon fill="#63b8ff" stroke="#63b8ff" points="849.58,-73.81 842.16,-81.37 852.68,-80.08 849.58,-73.81"/>
</g>
<!-- Node16 -->
<g id="node16" class="node">
<title>Node16</title>
<g id="a_node16"><a xlink:href="test__board_8cpp.xhtml" target="_top" xlink:title=" ">
<polygon fill="white" stroke="#666666" points="897,-35.5 796,-35.5 796,-5.5 897,-5.5 897,-35.5"/>
<text text-anchor="start" x="804" y="-23.5" font-family="Helvetica,sans-Serif" font-size="10.00">test/test_board/test</text>
<text text-anchor="middle" x="846.5" y="-12.5" font-family="Helvetica,sans-Serif" font-size="10.00">_board.cpp</text>
</a>
</g>
</g>
<!-- Node14&#45;&gt;Node16 -->
<g id="edge20" class="edge">
<title>Node14&#45;&gt;Node16</title>
<path fill="none" stroke="#63b8ff" d="M823.01,-71.83C828.57,-59.93 835.03,-46.07 839.77,-35.92"/>
<polygon fill="#63b8ff" stroke="#63b8ff" points="819.95,-70.13 818.89,-80.67 826.29,-73.09 819.95,-70.13"/>
</g>
</g>
</svg>
