<?xml version="1.0" encoding="UTF-8" standalone="no"?>
<!DOCTYPE svg PUBLIC "-//W3C//DTD SVG 1.1//EN"
 "http://www.w3.org/Graphics/SVG/1.1/DTD/svg11.dtd">
<!-- Generated by graphviz version 7.0.5 (20221223.1930)
 -->
<!-- Title: lib/application_business_rules/include/KeyIds.hpp Pages: 1 -->
<svg width="869pt" height="324pt"
 viewBox="0.00 0.00 869.00 324.00" xmlns="http://www.w3.org/2000/svg" xmlns:xlink="http://www.w3.org/1999/xlink">
<g id="graph0" class="graph" transform="scale(1 1) rotate(0) translate(4 320)">
<title>lib/application_business_rules/include/KeyIds.hpp</title>
<!-- Node1 -->
<g id="node1" class="node">
<title>Node1</title>
<g id="a_node1"><a xlink:title=" ">
<polygon fill="#999999" stroke="#666666" points="524.5,-316 396.5,-316 396.5,-286 524.5,-286 524.5,-316"/>
<text text-anchor="start" x="404.5" y="-304" font-family="Helvetica,sans-Serif" font-size="10.00">lib/application_business</text>
<text text-anchor="middle" x="460.5" y="-293" font-family="Helvetica,sans-Serif" font-size="10.00">_rules/include/KeyIds.hpp</text>
</a>
</g>
</g>
<!-- Node2 -->
<g id="node2" class="node">
<title>Node2</title>
<g id="a_node2"><a xlink:href="Controller_8hpp.xhtml" target="_top" xlink:title=" ">
<polygon fill="white" stroke="#666666" points="387,-178.5 248,-178.5 248,-148.5 387,-148.5 387,-178.5"/>
<text text-anchor="start" x="256" y="-166.5" font-family="Helvetica,sans-Serif" font-size="10.00">lib/application_business</text>
<text text-anchor="middle" x="317.5" y="-155.5" font-family="Helvetica,sans-Serif" font-size="10.00">_rules/include/Controller.hpp</text>
</a>
</g>
</g>
<!-- Node1&#45;&gt;Node2 -->
<g id="edge1" class="edge">
<title>Node1&#45;&gt;Node2</title>
<path fill="none" stroke="#63b8ff" d="M424.56,-279.72C411.28,-271.38 396.54,-261.08 384.5,-250 360.63,-228.03 338.59,-196.99 326.7,-178.98"/>
<polygon fill="#63b8ff" stroke="#63b8ff" points="422.72,-282.69 433.08,-284.9 426.36,-276.71 422.72,-282.69"/>
</g>
<!-- Node8 -->
<g id="node8" class="node">
<title>Node8</title>
<g id="a_node8"><a xlink:href="IKeypad_8hpp.xhtml" target="_top" xlink:title=" ">
<polygon fill="white" stroke="#666666" points="527,-250 394,-250 394,-220 527,-220 527,-250"/>
<text text-anchor="start" x="402" y="-238" font-family="Helvetica,sans-Serif" font-size="10.00">lib/application_business</text>
<text text-anchor="middle" x="460.5" y="-227" font-family="Helvetica,sans-Serif" font-size="10.00">_rules/include/IKeypad.hpp</text>
</a>
</g>
</g>
<!-- Node1&#45;&gt;Node8 -->
<g id="edge8" class="edge">
<title>Node1&#45;&gt;Node8</title>
<path fill="none" stroke="#63b8ff" d="M460.5,-274.39C460.5,-266.13 460.5,-257.28 460.5,-250.16"/>
<polygon fill="#63b8ff" stroke="#63b8ff" points="457,-274.28 460.5,-284.28 464,-274.28 457,-274.28"/>
</g>
<!-- Node14 -->
<g id="node14" class="node">
<title>Node14</title>
<g id="a_node14"><a xlink:href="KeyIds_8cpp.xhtml" target="_top" xlink:title=" ">
<polygon fill="white" stroke="#666666" points="665.5,-250 545.5,-250 545.5,-220 665.5,-220 665.5,-250"/>
<text text-anchor="start" x="553.5" y="-238" font-family="Helvetica,sans-Serif" font-size="10.00">lib/application_business</text>
<text text-anchor="middle" x="605.5" y="-227" font-family="Helvetica,sans-Serif" font-size="10.00">_rules/src/KeyIds.cpp</text>
</a>
</g>
</g>
<!-- Node1&#45;&gt;Node14 -->
<g id="edge17" class="edge">
<title>Node1&#45;&gt;Node14</title>
<path fill="none" stroke="#63b8ff" d="M503.53,-281.01C525.72,-271.22 552.34,-259.46 572.82,-250.43"/>
<polygon fill="#63b8ff" stroke="#63b8ff" points="502.16,-277.79 494.43,-285.03 504.99,-284.19 502.16,-277.79"/>
</g>
<!-- Node3 -->
<g id="node3" class="node">
<title>Node3</title>
<g id="a_node3"><a xlink:href="ProcessHmiInputs_8hpp.xhtml" target="_top" xlink:title=" ">
<polygon fill="white" stroke="#666666" points="179,-101.5 0,-101.5 0,-71.5 179,-71.5 179,-101.5"/>
<text text-anchor="start" x="8" y="-89.5" font-family="Helvetica,sans-Serif" font-size="10.00">lib/application_business</text>
<text text-anchor="middle" x="89.5" y="-78.5" font-family="Helvetica,sans-Serif" font-size="10.00">_rules/include/ProcessHmiInputs.hpp</text>
</a>
</g>
</g>
<!-- Node2&#45;&gt;Node3 -->
<g id="edge2" class="edge">
<title>Node2&#45;&gt;Node3</title>
<path fill="none" stroke="#63b8ff" d="M262.73,-144.48C223.08,-131.44 170.19,-114.04 133.33,-101.92"/>
<polygon fill="#63b8ff" stroke="#63b8ff" points="261.51,-147.77 272.1,-147.57 263.7,-141.12 261.51,-147.77"/>
</g>
<!-- Node5 -->
<g id="node5" class="node">
<title>Node5</title>
<g id="a_node5"><a xlink:href="main_8cpp.xhtml" target="_top" xlink:title=" ">
<polygon fill="white" stroke="#666666" points="252.5,-24.5 180.5,-24.5 180.5,-5.5 252.5,-5.5 252.5,-24.5"/>
<text text-anchor="middle" x="216.5" y="-12.5" font-family="Helvetica,sans-Serif" font-size="10.00">src/main.cpp</text>
</a>
</g>
</g>
<!-- Node2&#45;&gt;Node5 -->
<g id="edge6" class="edge">
<title>Node2&#45;&gt;Node5</title>
<path fill="none" stroke="#63b8ff" d="M267.62,-142.78C251.99,-134.13 236.27,-122.37 226.5,-107 209.96,-80.98 212.74,-42.14 215.06,-24.85"/>
<polygon fill="#63b8ff" stroke="#63b8ff" points="265.99,-145.87 276.48,-147.33 269.18,-139.64 265.99,-145.87"/>
</g>
<!-- Node6 -->
<g id="node6" class="node">
<title>Node6</title>
<g id="a_node6"><a xlink:href="Controller_8cpp.xhtml" target="_top" xlink:title=" ">
<polygon fill="white" stroke="#666666" points="357.5,-101.5 235.5,-101.5 235.5,-71.5 357.5,-71.5 357.5,-101.5"/>
<text text-anchor="start" x="243.5" y="-89.5" font-family="Helvetica,sans-Serif" font-size="10.00">lib/application_business</text>
<text text-anchor="middle" x="296.5" y="-78.5" font-family="Helvetica,sans-Serif" font-size="10.00">_rules/src/Controller.cpp</text>
</a>
</g>
</g>
<!-- Node2&#45;&gt;Node6 -->
<g id="edge5" class="edge">
<title>Node2&#45;&gt;Node6</title>
<path fill="none" stroke="#63b8ff" d="M310.39,-137.1C307.1,-125.37 303.32,-111.87 300.54,-101.92"/>
<polygon fill="#63b8ff" stroke="#63b8ff" points="306.98,-137.9 313.04,-146.58 313.72,-136.01 306.98,-137.9"/>
</g>
<!-- Node7 -->
<g id="node7" class="node">
<title>Node7</title>
<g id="a_node7"><a xlink:href="test__hmi_8cpp.xhtml" target="_top" xlink:title=" ">
<polygon fill="white" stroke="#666666" points="469,-101.5 376,-101.5 376,-71.5 469,-71.5 469,-101.5"/>
<text text-anchor="start" x="384" y="-89.5" font-family="Helvetica,sans-Serif" font-size="10.00">test/test_hmi/test</text>
<text text-anchor="middle" x="422.5" y="-78.5" font-family="Helvetica,sans-Serif" font-size="10.00">_hmi.cpp</text>
</a>
</g>
</g>
<!-- Node2&#45;&gt;Node7 -->
<g id="edge7" class="edge">
<title>Node2&#45;&gt;Node7</title>
<path fill="none" stroke="#63b8ff" d="M347.04,-141.4C364.69,-128.8 386.65,-113.11 402.32,-101.92"/>
<polygon fill="#63b8ff" stroke="#63b8ff" points="345.08,-138.5 338.98,-147.16 349.15,-144.2 345.08,-138.5"/>
</g>
<!-- Node4 -->
<g id="node4" class="node">
<title>Node4</title>
<g id="a_node4"><a xlink:href="ProcessHmiInputs_8cpp.xhtml" target="_top" xlink:title=" ">
<polygon fill="white" stroke="#666666" points="162,-30 1,-30 1,0 162,0 162,-30"/>
<text text-anchor="start" x="9" y="-18" font-family="Helvetica,sans-Serif" font-size="10.00">lib/application_business</text>
<text text-anchor="middle" x="81.5" y="-7" font-family="Helvetica,sans-Serif" font-size="10.00">_rules/src/ProcessHmiInputs.cpp</text>
</a>
</g>
</g>
<!-- Node3&#45;&gt;Node4 -->
<g id="edge3" class="edge">
<title>Node3&#45;&gt;Node4</title>
<path fill="none" stroke="#63b8ff" d="M86.54,-59.76C85.39,-49.83 84.13,-38.86 83.16,-30.38"/>
<polygon fill="#63b8ff" stroke="#63b8ff" points="83.05,-60.06 87.67,-69.6 90,-59.26 83.05,-60.06"/>
</g>
<!-- Node3&#45;&gt;Node5 -->
<g id="edge4" class="edge">
<title>Node3&#45;&gt;Node5</title>
<path fill="none" stroke="#63b8ff" d="M125.87,-65.6C150.42,-52.16 181.62,-35.09 200.28,-24.88"/>
<polygon fill="#63b8ff" stroke="#63b8ff" points="124.23,-62.5 117.14,-70.37 127.59,-68.64 124.23,-62.5"/>
</g>
<!-- Node8&#45;&gt;Node2 -->
<g id="edge9" class="edge">
<title>Node8&#45;&gt;Node2</title>
<path fill="none" stroke="#63b8ff" d="M420.6,-214.61C397.29,-203.28 368.37,-189.22 347.09,-178.88"/>
<polygon fill="#63b8ff" stroke="#63b8ff" points="418.99,-217.71 429.51,-218.94 422.04,-211.42 418.99,-217.71"/>
</g>
<!-- Node9 -->
<g id="node9" class="node">
<title>Node9</title>
<g id="a_node9"><a xlink:href="keypad__factory__interface_8hpp.xhtml" target="_top" xlink:title=" ">
<polygon fill="white" stroke="#666666" points="570,-184 425,-184 425,-143 570,-143 570,-184"/>
<text text-anchor="start" x="433" y="-172" font-family="Helvetica,sans-Serif" font-size="10.00">lib/application_business</text>
<text text-anchor="start" x="433" y="-161" font-family="Helvetica,sans-Serif" font-size="10.00">_rules/include/keypad_factory</text>
<text text-anchor="middle" x="497.5" y="-150" font-family="Helvetica,sans-Serif" font-size="10.00">_interface.hpp</text>
</a>
</g>
</g>
<!-- Node8&#45;&gt;Node9 -->
<g id="edge10" class="edge">
<title>Node8&#45;&gt;Node9</title>
<path fill="none" stroke="#63b8ff" d="M473.56,-209.47C477.93,-201.26 482.74,-192.22 486.9,-184.42"/>
<polygon fill="#63b8ff" stroke="#63b8ff" points="470.49,-207.79 468.88,-218.26 476.67,-211.08 470.49,-207.79"/>
</g>
<!-- Node11 -->
<g id="node11" class="node">
<title>Node11</title>
<g id="a_node11"><a xlink:href="Keypad_8hpp.xhtml" target="_top" xlink:title=" ">
<polygon fill="white" stroke="#666666" points="712.5,-178.5 616.5,-178.5 616.5,-148.5 712.5,-148.5 712.5,-178.5"/>
<text text-anchor="start" x="624.5" y="-166.5" font-family="Helvetica,sans-Serif" font-size="10.00">lib/board_adapters</text>
<text text-anchor="middle" x="664.5" y="-155.5" font-family="Helvetica,sans-Serif" font-size="10.00">/src/Keypad.hpp</text>
</a>
</g>
</g>
<!-- Node8&#45;&gt;Node11 -->
<g id="edge13" class="edge">
<title>Node8&#45;&gt;Node11</title>
<path fill="none" stroke="#63b8ff" d="M513.41,-215.97C547.31,-204.42 590.71,-189.64 622.29,-178.88"/>
<polygon fill="#63b8ff" stroke="#63b8ff" points="512.54,-212.57 504.2,-219.11 514.8,-219.2 512.54,-212.57"/>
</g>
<!-- Node9&#45;&gt;Node5 -->
<g id="edge12" class="edge">
<title>Node9&#45;&gt;Node5</title>
<path fill="none" stroke="#63b8ff" d="M499.77,-131.13C499.51,-109.91 495.38,-82.78 478.5,-66 447.18,-34.86 317.07,-22.37 252.78,-18.02"/>
<polygon fill="#63b8ff" stroke="#63b8ff" points="496.27,-130.94 499.59,-141 503.27,-131.07 496.27,-130.94"/>
</g>
<!-- Node10 -->
<g id="node10" class="node">
<title>Node10</title>
<g id="a_node10"><a xlink:href="keypad__factory__interface_8cpp.xhtml" target="_top" xlink:title=" ">
<polygon fill="white" stroke="#666666" points="627,-107 526,-107 526,-66 627,-66 627,-107"/>
<text text-anchor="start" x="534" y="-95" font-family="Helvetica,sans-Serif" font-size="10.00">lib/board_adapters</text>
<text text-anchor="start" x="534" y="-84" font-family="Helvetica,sans-Serif" font-size="10.00">/src/keypad_factory</text>
<text text-anchor="middle" x="576.5" y="-73" font-family="Helvetica,sans-Serif" font-size="10.00">_interface.cpp</text>
</a>
</g>
</g>
<!-- Node9&#45;&gt;Node10 -->
<g id="edge11" class="edge">
<title>Node9&#45;&gt;Node10</title>
<path fill="none" stroke="#63b8ff" d="M526.45,-135.02C536.11,-125.84 546.68,-115.81 555.61,-107.33"/>
<polygon fill="#63b8ff" stroke="#63b8ff" points="524.2,-132.33 519.35,-141.75 529.02,-137.41 524.2,-132.33"/>
</g>
<!-- Node11&#45;&gt;Node10 -->
<g id="edge15" class="edge">
<title>Node11&#45;&gt;Node10</title>
<path fill="none" stroke="#63b8ff" d="M639,-140.77C626.61,-130.21 611.82,-117.6 599.74,-107.3"/>
<polygon fill="#63b8ff" stroke="#63b8ff" points="636.5,-143.23 646.38,-147.06 641.04,-137.91 636.5,-143.23"/>
</g>
<!-- Node12 -->
<g id="node12" class="node">
<title>Node12</title>
<g id="a_node12"><a xlink:href="Keypad_8cpp.xhtml" target="_top" xlink:title=" ">
<polygon fill="white" stroke="#666666" points="741.5,-101.5 645.5,-101.5 645.5,-71.5 741.5,-71.5 741.5,-101.5"/>
<text text-anchor="start" x="653.5" y="-89.5" font-family="Helvetica,sans-Serif" font-size="10.00">lib/board_adapters</text>
<text text-anchor="middle" x="693.5" y="-78.5" font-family="Helvetica,sans-Serif" font-size="10.00">/src/Keypad.cpp</text>
</a>
</g>
</g>
<!-- Node11&#45;&gt;Node12 -->
<g id="edge14" class="edge">
<title>Node11&#45;&gt;Node12</title>
<path fill="none" stroke="#63b8ff" d="M674.18,-137.46C678.75,-125.65 684.04,-111.97 687.93,-101.92"/>
<polygon fill="#63b8ff" stroke="#63b8ff" points="670.98,-136.04 670.64,-146.63 677.51,-138.56 670.98,-136.04"/>
</g>
<!-- Node13 -->
<g id="node13" class="node">
<title>Node13</title>
<g id="a_node13"><a xlink:href="test__board_8cpp.xhtml" target="_top" xlink:title=" ">
<polygon fill="white" stroke="#666666" points="861,-101.5 760,-101.5 760,-71.5 861,-71.5 861,-101.5"/>
<text text-anchor="start" x="768" y="-89.5" font-family="Helvetica,sans-Serif" font-size="10.00">test/test_board/test</text>
<text text-anchor="middle" x="810.5" y="-78.5" font-family="Helvetica,sans-Serif" font-size="10.00">_board.cpp</text>
</a>
</g>
</g>
<!-- Node11&#45;&gt;Node13 -->
<g id="edge16" class="edge">
<title>Node11&#45;&gt;Node13</title>
<path fill="none" stroke="#63b8ff" d="M702.87,-142.79C727.84,-129.96 759.84,-113.52 782.44,-101.92"/>
<polygon fill="#63b8ff" stroke="#63b8ff" points="701.29,-139.66 694,-147.35 704.49,-145.89 701.29,-139.66"/>
</g>
</g>
</svg>
