<?xml version="1.0" encoding="UTF-8" standalone="no"?>
<!DOCTYPE svg PUBLIC "-//W3C//DTD SVG 1.1//EN"
 "http://www.w3.org/Graphics/SVG/1.1/DTD/svg11.dtd">
<!-- Generated by graphviz version 7.0.5 (20221223.1930)
 -->
<!-- Title: lib/application_business_rules/include/KeyIds.hpp Pages: 1 -->
<svg width="853pt" height="324pt"
 viewBox="0.00 0.00 853.00 324.00" xmlns="http://www.w3.org/2000/svg" xmlns:xlink="http://www.w3.org/1999/xlink">
<g id="graph0" class="graph" transform="scale(1 1) rotate(0) translate(4 320)">
<title>lib/application_business_rules/include/KeyIds.hpp</title>
<!-- Node1 -->
<g id="node1" class="node">
<title>Node1</title>
<g id="a_node1"><a xlink:title=" ">
<polygon fill="#999999" stroke="#666666" points="453.5,-316 325.5,-316 325.5,-286 453.5,-286 453.5,-316"/>
<text text-anchor="start" x="333.5" y="-304" font-family="Helvetica,sans-Serif" font-size="10.00">lib/application_business</text>
<text text-anchor="middle" x="389.5" y="-293" font-family="Helvetica,sans-Serif" font-size="10.00">_rules/include/KeyIds.hpp</text>
</a>
</g>
</g>
<!-- Node2 -->
<g id="node2" class="node">
<title>Node2</title>
<g id="a_node2"><a xlink:href="IKeypad_8hpp.xhtml" target="_top" xlink:title=" ">
<polygon fill="white" stroke="#666666" points="353,-250 220,-250 220,-220 353,-220 353,-250"/>
<text text-anchor="start" x="228" y="-238" font-family="Helvetica,sans-Serif" font-size="10.00">lib/application_business</text>
<text text-anchor="middle" x="286.5" y="-227" font-family="Helvetica,sans-Serif" font-size="10.00">_rules/include/IKeypad.hpp</text>
</a>
</g>
</g>
<!-- Node1&#45;&gt;Node2 -->
<g id="edge1" class="edge">
<title>Node1&#45;&gt;Node2</title>
<path fill="none" stroke="#63b8ff" d="M356.73,-279.64C341.37,-270.09 323.44,-258.95 309.54,-250.31"/>
<polygon fill="#63b8ff" stroke="#63b8ff" points="354.76,-282.53 365.1,-284.84 358.45,-276.59 354.76,-282.53"/>
</g>
<!-- Node6 -->
<g id="node6" class="node">
<title>Node6</title>
<g id="a_node6"><a xlink:href="Controller_8hpp.xhtml" target="_top" xlink:title=" ">
<polygon fill="white" stroke="#666666" points="481.5,-178.5 359.5,-178.5 359.5,-148.5 481.5,-148.5 481.5,-178.5"/>
<text text-anchor="start" x="367.5" y="-166.5" font-family="Helvetica,sans-Serif" font-size="10.00">lib/application_business</text>
<text text-anchor="middle" x="420.5" y="-155.5" font-family="Helvetica,sans-Serif" font-size="10.00">_rules/src/Controller.hpp</text>
</a>
</g>
</g>
<!-- Node1&#45;&gt;Node6 -->
<g id="edge16" class="edge">
<title>Node1&#45;&gt;Node6</title>
<path fill="none" stroke="#63b8ff" d="M395.27,-274.79C401.72,-246.57 411.96,-201.81 417.19,-178.96"/>
<polygon fill="#63b8ff" stroke="#63b8ff" points="391.91,-273.75 393.1,-284.28 398.74,-275.31 391.91,-273.75"/>
</g>
<!-- Node14 -->
<g id="node14" class="node">
<title>Node14</title>
<g id="a_node14"><a xlink:href="KeyIds_8cpp.xhtml" target="_top" xlink:title=" ">
<polygon fill="white" stroke="#666666" points="537.5,-250 417.5,-250 417.5,-220 537.5,-220 537.5,-250"/>
<text text-anchor="start" x="425.5" y="-238" font-family="Helvetica,sans-Serif" font-size="10.00">lib/application_business</text>
<text text-anchor="middle" x="477.5" y="-227" font-family="Helvetica,sans-Serif" font-size="10.00">_rules/src/KeyIds.cpp</text>
</a>
</g>
</g>
<!-- Node1&#45;&gt;Node14 -->
<g id="edge17" class="edge">
<title>Node1&#45;&gt;Node14</title>
<path fill="none" stroke="#63b8ff" d="M418.03,-279.25C431,-269.82 446.02,-258.9 457.72,-250.39"/>
<polygon fill="#63b8ff" stroke="#63b8ff" points="416.28,-276.19 410.25,-284.91 420.4,-281.85 416.28,-276.19"/>
</g>
<!-- Node3 -->
<g id="node3" class="node">
<title>Node3</title>
<g id="a_node3"><a xlink:href="keypad__factory__interface_8hpp.xhtml" target="_top" xlink:title=" ">
<polygon fill="white" stroke="#666666" points="145,-184 0,-184 0,-143 145,-143 145,-184"/>
<text text-anchor="start" x="8" y="-172" font-family="Helvetica,sans-Serif" font-size="10.00">lib/application_business</text>
<text text-anchor="start" x="8" y="-161" font-family="Helvetica,sans-Serif" font-size="10.00">_rules/include/keypad_factory</text>
<text text-anchor="middle" x="72.5" y="-150" font-family="Helvetica,sans-Serif" font-size="10.00">_interface.hpp</text>
</a>
</g>
</g>
<!-- Node2&#45;&gt;Node3 -->
<g id="edge2" class="edge">
<title>Node2&#45;&gt;Node3</title>
<path fill="none" stroke="#63b8ff" d="M231.24,-216.05C201.37,-206.35 164.42,-194.35 133.68,-184.37"/>
<polygon fill="#63b8ff" stroke="#63b8ff" points="229.87,-219.29 240.46,-219.05 232.03,-212.63 229.87,-219.29"/>
</g>
<!-- Node2&#45;&gt;Node6 -->
<g id="edge5" class="edge">
<title>Node2&#45;&gt;Node6</title>
<path fill="none" stroke="#63b8ff" d="M324.48,-214.3C346.22,-203.03 373.02,-189.13 392.77,-178.88"/>
<polygon fill="#63b8ff" stroke="#63b8ff" points="322.87,-211.19 315.61,-218.9 326.1,-217.41 322.87,-211.19"/>
</g>
<!-- Node11 -->
<g id="node11" class="node">
<title>Node11</title>
<g id="a_node11"><a xlink:href="Keypad_8hpp.xhtml" target="_top" xlink:title=" ">
<polygon fill="white" stroke="#666666" points="318.5,-178.5 222.5,-178.5 222.5,-148.5 318.5,-148.5 318.5,-178.5"/>
<text text-anchor="start" x="230.5" y="-166.5" font-family="Helvetica,sans-Serif" font-size="10.00">lib/board_adapters</text>
<text text-anchor="middle" x="270.5" y="-155.5" font-family="Helvetica,sans-Serif" font-size="10.00">/src/Keypad.hpp</text>
</a>
</g>
</g>
<!-- Node2&#45;&gt;Node11 -->
<g id="edge12" class="edge">
<title>Node2&#45;&gt;Node11</title>
<path fill="none" stroke="#63b8ff" d="M280.65,-208.58C278.34,-198.58 275.78,-187.45 273.81,-178.88"/>
<polygon fill="#63b8ff" stroke="#63b8ff" points="277.19,-209.16 282.85,-218.12 284.01,-207.59 277.19,-209.16"/>
</g>
<!-- Node4 -->
<g id="node4" class="node">
<title>Node4</title>
<g id="a_node4"><a xlink:href="keypad__factory__interface_8cpp.xhtml" target="_top" xlink:title=" ">
<polygon fill="white" stroke="#666666" points="123,-107 22,-107 22,-66 123,-66 123,-107"/>
<text text-anchor="start" x="30" y="-95" font-family="Helvetica,sans-Serif" font-size="10.00">lib/board_adapters</text>
<text text-anchor="start" x="30" y="-84" font-family="Helvetica,sans-Serif" font-size="10.00">/src/keypad_factory</text>
<text text-anchor="middle" x="72.5" y="-73" font-family="Helvetica,sans-Serif" font-size="10.00">_interface.cpp</text>
</a>
</g>
</g>
<!-- Node3&#45;&gt;Node4 -->
<g id="edge3" class="edge">
<title>Node3&#45;&gt;Node4</title>
<path fill="none" stroke="#63b8ff" d="M72.5,-131.36C72.5,-123.24 72.5,-114.7 72.5,-107.33"/>
<polygon fill="#63b8ff" stroke="#63b8ff" points="69,-131.28 72.5,-141.28 76,-131.28 69,-131.28"/>
</g>
<!-- Node5 -->
<g id="node5" class="node">
<title>Node5</title>
<g id="a_node5"><a xlink:href="main_8cpp.xhtml" target="_top" xlink:title=" ">
<polygon fill="white" stroke="#666666" points="412.5,-24.5 340.5,-24.5 340.5,-5.5 412.5,-5.5 412.5,-24.5"/>
<text text-anchor="middle" x="376.5" y="-12.5" font-family="Helvetica,sans-Serif" font-size="10.00">src/main.cpp</text>
</a>
</g>
</g>
<!-- Node3&#45;&gt;Node5 -->
<g id="edge4" class="edge">
<title>Node3&#45;&gt;Node5</title>
<path fill="none" stroke="#63b8ff" d="M33.41,-135.14C24.94,-127.13 17.15,-117.63 12.5,-107 5.2,-90.3 0.52,-79.73 12.5,-66 54.79,-17.5 256.5,-14.39 340.09,-15.25"/>
<polygon fill="#63b8ff" stroke="#63b8ff" points="31.02,-137.7 40.86,-141.64 35.62,-132.43 31.02,-137.7"/>
</g>
<!-- Node6&#45;&gt;Node5 -->
<g id="edge10" class="edge">
<title>Node6&#45;&gt;Node5</title>
<path fill="none" stroke="#63b8ff" d="M412.98,-137.46C402.94,-104.02 385.65,-46.46 379.11,-24.69"/>
<polygon fill="#63b8ff" stroke="#63b8ff" points="409.54,-138.17 415.77,-146.74 416.24,-136.15 409.54,-138.17"/>
</g>
<!-- Node7 -->
<g id="node7" class="node">
<title>Node7</title>
<g id="a_node7"><a xlink:href="ProcessHmiInputs_8hpp.xhtml" target="_top" xlink:title=" ">
<polygon fill="white" stroke="#666666" points="593,-101.5 414,-101.5 414,-71.5 593,-71.5 593,-101.5"/>
<text text-anchor="start" x="422" y="-89.5" font-family="Helvetica,sans-Serif" font-size="10.00">lib/application_business</text>
<text text-anchor="middle" x="503.5" y="-78.5" font-family="Helvetica,sans-Serif" font-size="10.00">_rules/include/ProcessHmiInputs.hpp</text>
</a>
</g>
</g>
<!-- Node6&#45;&gt;Node7 -->
<g id="edge6" class="edge">
<title>Node6&#45;&gt;Node7</title>
<path fill="none" stroke="#63b8ff" d="M445.02,-140.34C458.76,-127.93 475.5,-112.8 487.55,-101.92"/>
<polygon fill="#63b8ff" stroke="#63b8ff" points="442.7,-137.72 437.63,-147.02 447.39,-142.92 442.7,-137.72"/>
</g>
<!-- Node9 -->
<g id="node9" class="node">
<title>Node9</title>
<g id="a_node9"><a xlink:href="Controller_8cpp.xhtml" target="_top" xlink:title=" ">
<polygon fill="white" stroke="#666666" points="733.5,-101.5 611.5,-101.5 611.5,-71.5 733.5,-71.5 733.5,-101.5"/>
<text text-anchor="start" x="619.5" y="-89.5" font-family="Helvetica,sans-Serif" font-size="10.00">lib/application_business</text>
<text text-anchor="middle" x="672.5" y="-78.5" font-family="Helvetica,sans-Serif" font-size="10.00">_rules/src/Controller.cpp</text>
</a>
</g>
</g>
<!-- Node6&#45;&gt;Node9 -->
<g id="edge9" class="edge">
<title>Node6&#45;&gt;Node9</title>
<path fill="none" stroke="#63b8ff" d="M479.91,-144.82C523.86,-131.74 582.97,-114.15 624.06,-101.92"/>
<polygon fill="#63b8ff" stroke="#63b8ff" points="479.12,-141.4 470.54,-147.61 481.12,-148.11 479.12,-141.4"/>
</g>
<!-- Node10 -->
<g id="node10" class="node">
<title>Node10</title>
<g id="a_node10"><a xlink:href="test__hmi_8cpp.xhtml" target="_top" xlink:title=" ">
<polygon fill="white" stroke="#666666" points="845,-101.5 752,-101.5 752,-71.5 845,-71.5 845,-101.5"/>
<text text-anchor="start" x="760" y="-89.5" font-family="Helvetica,sans-Serif" font-size="10.00">test/test_hmi/test</text>
<text text-anchor="middle" x="798.5" y="-78.5" font-family="Helvetica,sans-Serif" font-size="10.00">_hmi.cpp</text>
</a>
</g>
</g>
<!-- Node6&#45;&gt;Node10 -->
<g id="edge11" class="edge">
<title>Node6&#45;&gt;Node10</title>
<path fill="none" stroke="#63b8ff" d="M493.03,-153.47C558.77,-144.47 658,-128.84 742.5,-107 748.08,-105.56 753.9,-103.81 759.59,-101.97"/>
<polygon fill="#63b8ff" stroke="#63b8ff" points="492.91,-149.96 483.47,-154.76 493.85,-156.89 492.91,-149.96"/>
</g>
<!-- Node7&#45;&gt;Node5 -->
<g id="edge8" class="edge">
<title>Node7&#45;&gt;Node5</title>
<path fill="none" stroke="#63b8ff" d="M467.13,-65.6C442.58,-52.16 411.38,-35.09 392.72,-24.88"/>
<polygon fill="#63b8ff" stroke="#63b8ff" points="465.41,-68.64 475.86,-70.37 468.77,-62.5 465.41,-68.64"/>
</g>
<!-- Node8 -->
<g id="node8" class="node">
<title>Node8</title>
<g id="a_node8"><a xlink:href="ProcessHmiInputs_8cpp.xhtml" target="_top" xlink:title=" ">
<polygon fill="white" stroke="#666666" points="592,-30 431,-30 431,0 592,0 592,-30"/>
<text text-anchor="start" x="439" y="-18" font-family="Helvetica,sans-Serif" font-size="10.00">lib/application_business</text>
<text text-anchor="middle" x="511.5" y="-7" font-family="Helvetica,sans-Serif" font-size="10.00">_rules/src/ProcessHmiInputs.cpp</text>
</a>
</g>
</g>
<!-- Node7&#45;&gt;Node8 -->
<g id="edge7" class="edge">
<title>Node7&#45;&gt;Node8</title>
<path fill="none" stroke="#63b8ff" d="M506.46,-59.76C507.61,-49.83 508.87,-38.86 509.84,-30.38"/>
<polygon fill="#63b8ff" stroke="#63b8ff" points="503,-59.26 505.33,-69.6 509.95,-60.06 503,-59.26"/>
</g>
<!-- Node11&#45;&gt;Node4 -->
<g id="edge14" class="edge">
<title>Node11&#45;&gt;Node4</title>
<path fill="none" stroke="#63b8ff" d="M221.71,-144.02C191.8,-132.69 153.57,-118.21 123.3,-106.74"/>
<polygon fill="#63b8ff" stroke="#63b8ff" points="220.32,-147.23 230.91,-147.5 222.8,-140.69 220.32,-147.23"/>
</g>
<!-- Node12 -->
<g id="node12" class="node">
<title>Node12</title>
<g id="a_node12"><a xlink:href="Keypad_8cpp.xhtml" target="_top" xlink:title=" ">
<polygon fill="white" stroke="#666666" points="237.5,-101.5 141.5,-101.5 141.5,-71.5 237.5,-71.5 237.5,-101.5"/>
<text text-anchor="start" x="149.5" y="-89.5" font-family="Helvetica,sans-Serif" font-size="10.00">lib/board_adapters</text>
<text text-anchor="middle" x="189.5" y="-78.5" font-family="Helvetica,sans-Serif" font-size="10.00">/src/Keypad.cpp</text>
</a>
</g>
</g>
<!-- Node11&#45;&gt;Node12 -->
<g id="edge13" class="edge">
<title>Node11&#45;&gt;Node12</title>
<path fill="none" stroke="#63b8ff" d="M246.57,-140.34C233.16,-127.93 216.82,-112.8 205.07,-101.92"/>
<polygon fill="#63b8ff" stroke="#63b8ff" points="244.06,-142.78 253.77,-147.01 248.81,-137.65 244.06,-142.78"/>
</g>
<!-- Node13 -->
<g id="node13" class="node">
<title>Node13</title>
<g id="a_node13"><a xlink:href="test__board_8cpp.xhtml" target="_top" xlink:title=" ">
<polygon fill="white" stroke="#666666" points="357,-101.5 256,-101.5 256,-71.5 357,-71.5 357,-101.5"/>
<text text-anchor="start" x="264" y="-89.5" font-family="Helvetica,sans-Serif" font-size="10.00">test/test_board/test</text>
<text text-anchor="middle" x="306.5" y="-78.5" font-family="Helvetica,sans-Serif" font-size="10.00">_board.cpp</text>
</a>
</g>
</g>
<!-- Node11&#45;&gt;Node13 -->
<g id="edge15" class="edge">
<title>Node11&#45;&gt;Node13</title>
<path fill="none" stroke="#63b8ff" d="M282.34,-137.83C288.05,-125.93 294.7,-112.07 299.58,-101.92"/>
<polygon fill="#63b8ff" stroke="#63b8ff" points="279.27,-136.14 278.1,-146.67 285.58,-139.17 279.27,-136.14"/>
</g>
</g>
</svg>
