<?xml version="1.0" encoding="UTF-8" standalone="no"?>
<!DOCTYPE svg PUBLIC "-//W3C//DTD SVG 1.1//EN"
 "http://www.w3.org/Graphics/SVG/1.1/DTD/svg11.dtd">
<!-- Generated by graphviz version 7.0.5 (20221223.1930)
 -->
<!-- Title: lib/application_business_rules/include/keypad_factory_interface.hpp Pages: 1 -->
<svg width="200pt" height="126pt"
 viewBox="0.00 0.00 199.50 126.00" xmlns="http://www.w3.org/2000/svg" xmlns:xlink="http://www.w3.org/1999/xlink">
<g id="graph0" class="graph" transform="scale(1 1) rotate(0) translate(4 122)">
<title>lib/application_business_rules/include/keypad_factory_interface.hpp</title>
<!-- Node1 -->
<g id="node1" class="node">
<title>Node1</title>
<g id="a_node1"><a xlink:title=" ">
<polygon fill="#999999" stroke="#666666" points="175,-118 30,-118 30,-77 175,-77 175,-118"/>
<text text-anchor="start" x="38" y="-106" font-family="Helvetica,sans-Serif" font-size="10.00">lib/application_business</text>
<text text-anchor="start" x="38" y="-95" font-family="Helvetica,sans-Serif" font-size="10.00">_rules/include/keypad_factory</text>
<text text-anchor="middle" x="102.5" y="-84" font-family="Helvetica,sans-Serif" font-size="10.00">_interface.hpp</text>
</a>
</g>
</g>
<!-- Node2 -->
<g id="node2" class="node">
<title>Node2</title>
<g id="a_node2"><a xlink:href="keypad__factory__interface_8cpp.xhtml" target="_top" xlink:title=" ">
<polygon fill="white" stroke="#666666" points="101,-41 0,-41 0,0 101,0 101,-41"/>
<text text-anchor="start" x="8" y="-29" font-family="Helvetica,sans-Serif" font-size="10.00">lib/board_adapters</text>
<text text-anchor="start" x="8" y="-18" font-family="Helvetica,sans-Serif" font-size="10.00">/src/keypad_factory</text>
<text text-anchor="middle" x="50.5" y="-7" font-family="Helvetica,sans-Serif" font-size="10.00">_interface.cpp</text>
</a>
</g>
</g>
<!-- Node1&#45;&gt;Node2 -->
<g id="edge1" class="edge">
<title>Node1&#45;&gt;Node2</title>
<path fill="none" stroke="#63b8ff" d="M82.28,-67.34C76.25,-58.63 69.77,-49.3 64.25,-41.33"/>
<polygon fill="#63b8ff" stroke="#63b8ff" points="79.4,-69.33 87.98,-75.55 85.15,-65.34 79.4,-69.33"/>
</g>
<!-- Node3 -->
<g id="node3" class="node">
<title>Node3</title>
<g id="a_node3"><a xlink:href="main_8cpp.xhtml" target="_top" xlink:title=" ">
<polygon fill="white" stroke="#666666" points="191.5,-30 119.5,-30 119.5,-11 191.5,-11 191.5,-30"/>
<text text-anchor="middle" x="155.5" y="-18" font-family="Helvetica,sans-Serif" font-size="10.00">src/main.cpp</text>
</a>
</g>
</g>
<!-- Node1&#45;&gt;Node3 -->
<g id="edge2" class="edge">
<title>Node1&#45;&gt;Node3</title>
<path fill="none" stroke="#63b8ff" d="M123.01,-67.47C132.41,-54.17 142.88,-39.36 149.33,-30.24"/>
<polygon fill="#63b8ff" stroke="#63b8ff" points="120.21,-65.37 117.3,-75.56 125.93,-69.41 120.21,-65.37"/>
</g>
</g>
</svg>
