<?xml version="1.0" encoding="UTF-8" standalone="no"?>
<!DOCTYPE svg PUBLIC "-//W3C//DTD SVG 1.1//EN"
 "http://www.w3.org/Graphics/SVG/1.1/DTD/svg11.dtd">
<!-- Generated by graphviz version 7.0.5 (20221223.1930)
 -->
<!-- Title: lib/board_adapters/src/keypad_factory_interface.cpp Pages: 1 -->
<svg width="423pt" height="269pt"
 viewBox="0.00 0.00 422.50 269.00" xmlns="http://www.w3.org/2000/svg" xmlns:xlink="http://www.w3.org/1999/xlink">
<g id="graph0" class="graph" transform="scale(1 1) rotate(0) translate(4 265)">
<title>lib/board_adapters/src/keypad_factory_interface.cpp</title>
<!-- Node1 -->
<g id="node1" class="node">
<title>Node1</title>
<g id="a_node1"><a xlink:title=" ">
<polygon fill="#999999" stroke="#666666" points="222,-261 121,-261 121,-220 222,-220 222,-261"/>
<text text-anchor="start" x="129" y="-249" font-family="Helvetica,sans-Serif" font-size="10.00">lib/board_adapters</text>
<text text-anchor="start" x="129" y="-238" font-family="Helvetica,sans-Serif" font-size="10.00">/src/keypad_factory</text>
<text text-anchor="middle" x="171.5" y="-227" font-family="Helvetica,sans-Serif" font-size="10.00">_interface.cpp</text>
</a>
</g>
</g>
<!-- Node2 -->
<g id="node2" class="node">
<title>Node2</title>
<g id="a_node2"><a xlink:href="keypad__factory__interface_8hpp.xhtml" target="_top" xlink:title=" ">
<polygon fill="white" stroke="#666666" points="143,-184 0,-184 0,-165 143,-165 143,-184"/>
<text text-anchor="middle" x="71.5" y="-172" font-family="Helvetica,sans-Serif" font-size="10.00">keypad_factory_interface.hpp</text>
</a>
</g>
</g>
<!-- Node1&#45;&gt;Node2 -->
<g id="edge1" class="edge">
<title>Node1&#45;&gt;Node2</title>
<path fill="none" stroke="#63b8ff" d="M140.41,-219.6C125.7,-210.19 108.42,-199.13 94.85,-190.44"/>
<polygon fill="#63b8ff" stroke="#63b8ff" points="96.88,-187.59 86.57,-185.15 93.11,-193.49 96.88,-187.59"/>
</g>
<!-- Node6 -->
<g id="node6" class="node">
<title>Node6</title>
<g id="a_node6"><a xlink:href="Keypad_8hpp.xhtml" target="_top" xlink:title=" ">
<polygon fill="white" stroke="#666666" points="278,-184 211,-184 211,-165 278,-165 278,-184"/>
<text text-anchor="middle" x="244.5" y="-172" font-family="Helvetica,sans-Serif" font-size="10.00">Keypad.hpp</text>
</a>
</g>
</g>
<!-- Node1&#45;&gt;Node6 -->
<g id="edge5" class="edge">
<title>Node1&#45;&gt;Node6</title>
<path fill="none" stroke="#63b8ff" d="M194.2,-219.6C204.47,-210.59 216.46,-200.08 226.16,-191.58"/>
<polygon fill="#63b8ff" stroke="#63b8ff" points="228.27,-194.38 233.48,-185.16 223.65,-189.12 228.27,-194.38"/>
</g>
<!-- Node7 -->
<g id="node7" class="node">
<title>Node7</title>
<g id="a_node7"><a xlink:href="board__config_8hpp.xhtml" target="_top" xlink:title="Provides named objects for the pins provided by the board.">
<polygon fill="white" stroke="#666666" points="214,-129 125,-129 125,-110 214,-110 214,-129"/>
<text text-anchor="middle" x="169.5" y="-117" font-family="Helvetica,sans-Serif" font-size="10.00">board_config.hpp</text>
</a>
</g>
</g>
<!-- Node1&#45;&gt;Node7 -->
<g id="edge13" class="edge">
<title>Node1&#45;&gt;Node7</title>
<path fill="none" stroke="#63b8ff" d="M171.17,-219.58C170.8,-197.68 170.21,-162.68 169.84,-140.68"/>
<polygon fill="#63b8ff" stroke="#63b8ff" points="173.34,-140.87 169.68,-130.93 166.34,-140.99 173.34,-140.87"/>
</g>
<!-- Node3 -->
<g id="node3" class="node">
<title>Node3</title>
<g id="a_node3"><a xlink:href="IKeypad_8hpp.xhtml" target="_top" xlink:title=" ">
<polygon fill="white" stroke="#666666" points="106.5,-129 36.5,-129 36.5,-110 106.5,-110 106.5,-129"/>
<text text-anchor="middle" x="71.5" y="-117" font-family="Helvetica,sans-Serif" font-size="10.00">IKeypad.hpp</text>
</a>
</g>
</g>
<!-- Node2&#45;&gt;Node3 -->
<g id="edge2" class="edge">
<title>Node2&#45;&gt;Node3</title>
<path fill="none" stroke="#63b8ff" d="M71.5,-164.75C71.5,-158.27 71.5,-149.16 71.5,-140.9"/>
<polygon fill="#63b8ff" stroke="#63b8ff" points="75,-140.96 71.5,-130.96 68,-140.96 75,-140.96"/>
</g>
<!-- Node4 -->
<g id="node4" class="node">
<title>Node4</title>
<g id="a_node4"><a xlink:href="KeyIds_8hpp.xhtml" target="_top" xlink:title=" ">
<polygon fill="white" stroke="#666666" points="104,-74 39,-74 39,-55 104,-55 104,-74"/>
<text text-anchor="middle" x="71.5" y="-62" font-family="Helvetica,sans-Serif" font-size="10.00">KeyIds.hpp</text>
</a>
</g>
</g>
<!-- Node3&#45;&gt;Node4 -->
<g id="edge3" class="edge">
<title>Node3&#45;&gt;Node4</title>
<path fill="none" stroke="#63b8ff" d="M71.5,-109.75C71.5,-103.27 71.5,-94.16 71.5,-85.9"/>
<polygon fill="#63b8ff" stroke="#63b8ff" points="75,-85.96 71.5,-75.96 68,-85.96 75,-85.96"/>
</g>
<!-- Node5 -->
<g id="node5" class="node">
<title>Node5</title>
<g id="a_node5"><a xlink:title=" ">
<polygon fill="#e0e0e0" stroke="#999999" points="97.5,-19 45.5,-19 45.5,0 97.5,0 97.5,-19"/>
<text text-anchor="middle" x="71.5" y="-7" font-family="Helvetica,sans-Serif" font-size="10.00">ostream</text>
</a>
</g>
</g>
<!-- Node4&#45;&gt;Node5 -->
<g id="edge4" class="edge">
<title>Node4&#45;&gt;Node5</title>
<path fill="none" stroke="#63b8ff" d="M71.5,-54.75C71.5,-48.27 71.5,-39.16 71.5,-30.9"/>
<polygon fill="#63b8ff" stroke="#63b8ff" points="75,-30.96 71.5,-20.96 68,-30.96 75,-30.96"/>
</g>
<!-- Node6&#45;&gt;Node3 -->
<g id="edge6" class="edge">
<title>Node6&#45;&gt;Node3</title>
<path fill="none" stroke="#63b8ff" d="M215.15,-164.51C186.61,-155.76 143.04,-142.42 111.36,-132.71"/>
<polygon fill="#63b8ff" stroke="#63b8ff" points="112.74,-129.47 102.15,-129.89 110.69,-136.17 112.74,-129.47"/>
</g>
<!-- Node6&#45;&gt;Node7 -->
<g id="edge7" class="edge">
<title>Node6&#45;&gt;Node7</title>
<path fill="none" stroke="#63b8ff" d="M231.78,-164.51C220.72,-156.7 204.46,-145.21 191.33,-135.93"/>
<polygon fill="#63b8ff" stroke="#63b8ff" points="193.46,-133.14 183.27,-130.23 189.42,-138.86 193.46,-133.14"/>
</g>
<!-- Node10 -->
<g id="node10" class="node">
<title>Node10</title>
<g id="a_node10"><a xlink:title=" ">
<polygon fill="#e0e0e0" stroke="#999999" points="281,-129 232,-129 232,-110 281,-110 281,-129"/>
<text text-anchor="middle" x="256.5" y="-117" font-family="Helvetica,sans-Serif" font-size="10.00">cstddef</text>
</a>
</g>
</g>
<!-- Node6&#45;&gt;Node10 -->
<g id="edge10" class="edge">
<title>Node6&#45;&gt;Node10</title>
<path fill="none" stroke="#63b8ff" d="M246.48,-164.75C247.97,-158.19 250.06,-148.95 251.95,-140.6"/>
<polygon fill="#63b8ff" stroke="#63b8ff" points="255.35,-141.44 254.14,-130.92 248.52,-139.9 255.35,-141.44"/>
</g>
<!-- Node11 -->
<g id="node11" class="node">
<title>Node11</title>
<g id="a_node11"><a xlink:title=" ">
<polygon fill="#e0e0e0" stroke="#999999" points="346,-129 299,-129 299,-110 346,-110 346,-129"/>
<text text-anchor="middle" x="322.5" y="-117" font-family="Helvetica,sans-Serif" font-size="10.00">iterator</text>
</a>
</g>
</g>
<!-- Node6&#45;&gt;Node11 -->
<g id="edge11" class="edge">
<title>Node6&#45;&gt;Node11</title>
<path fill="none" stroke="#63b8ff" d="M257.73,-164.51C269.34,-156.62 286.47,-144.98 300.2,-135.65"/>
<polygon fill="#63b8ff" stroke="#63b8ff" points="301.91,-138.72 308.21,-130.21 297.97,-132.93 301.91,-138.72"/>
</g>
<!-- Node12 -->
<g id="node12" class="node">
<title>Node12</title>
<g id="a_node12"><a xlink:title=" ">
<polygon fill="#e0e0e0" stroke="#999999" points="414.5,-129 364.5,-129 364.5,-110 414.5,-110 414.5,-129"/>
<text text-anchor="middle" x="389.5" y="-117" font-family="Helvetica,sans-Serif" font-size="10.00">optional</text>
</a>
</g>
</g>
<!-- Node6&#45;&gt;Node12 -->
<g id="edge12" class="edge">
<title>Node6&#45;&gt;Node12</title>
<path fill="none" stroke="#63b8ff" d="M269.1,-164.51C292.57,-155.93 328.17,-142.92 354.57,-133.27"/>
<polygon fill="#63b8ff" stroke="#63b8ff" points="355.65,-136.6 363.84,-129.88 353.25,-130.02 355.65,-136.6"/>
</g>
<!-- Node8 -->
<g id="node8" class="node">
<title>Node8</title>
<g id="a_node8"><a xlink:href="board__types_8hpp.xhtml" target="_top" xlink:title=" ">
<polygon fill="white" stroke="#666666" points="213,-74 126,-74 126,-55 213,-55 213,-74"/>
<text text-anchor="middle" x="169.5" y="-62" font-family="Helvetica,sans-Serif" font-size="10.00">board_types.hpp</text>
</a>
</g>
</g>
<!-- Node7&#45;&gt;Node8 -->
<g id="edge8" class="edge">
<title>Node7&#45;&gt;Node8</title>
<path fill="none" stroke="#63b8ff" d="M169.5,-109.75C169.5,-103.27 169.5,-94.16 169.5,-85.9"/>
<polygon fill="#63b8ff" stroke="#63b8ff" points="173,-85.96 169.5,-75.96 166,-85.96 173,-85.96"/>
</g>
<!-- Node9 -->
<g id="node9" class="node">
<title>Node9</title>
<g id="a_node9"><a xlink:title=" ">
<polygon fill="#e0e0e0" stroke="#999999" points="192.5,-19 146.5,-19 146.5,0 192.5,0 192.5,-19"/>
<text text-anchor="middle" x="169.5" y="-7" font-family="Helvetica,sans-Serif" font-size="10.00">cstdint</text>
</a>
</g>
</g>
<!-- Node8&#45;&gt;Node9 -->
<g id="edge9" class="edge">
<title>Node8&#45;&gt;Node9</title>
<path fill="none" stroke="#63b8ff" d="M169.5,-54.75C169.5,-48.27 169.5,-39.16 169.5,-30.9"/>
<polygon fill="#63b8ff" stroke="#63b8ff" points="173,-30.96 169.5,-20.96 166,-30.96 173,-30.96"/>
</g>
</g>
</svg>
