<?xml version="1.0" encoding="UTF-8" standalone="no"?>
<!DOCTYPE svg PUBLIC "-//W3C//DTD SVG 1.1//EN"
 "http://www.w3.org/Graphics/SVG/1.1/DTD/svg11.dtd">
<!-- Generated by graphviz version 9.0.0 (20230911.1827)
 -->
<!-- Title: lib/layer3_board/src/Keypad.cpp Pages: 1 -->
<svg width="383pt" height="260pt"
 viewBox="0.00 0.00 382.50 259.50" xmlns="http://www.w3.org/2000/svg" xmlns:xlink="http://www.w3.org/1999/xlink">
<g id="graph0" class="graph" transform="scale(1 1) rotate(0) translate(4 255.5)">
<title>lib/layer3_board/src/Keypad.cpp</title>
<!-- Node1 -->
<g id="Node000001" class="node">
<title>Node1</title>
<g id="a_Node000001"><a xlink:title=" ">
<polygon fill="#999999" stroke="#666666" points="307.62,-251.5 207.62,-251.5 207.62,-221 307.62,-221 307.62,-251.5"/>
<text text-anchor="start" x="215.62" y="-238" font-family="Helvetica,sans-Serif" font-size="10.00">lib/layer3_board/src</text>
<text text-anchor="middle" x="257.62" y="-226.75" font-family="Helvetica,sans-Serif" font-size="10.00">/Keypad.cpp</text>
</a>
</g>
</g>
<!-- Node2 -->
<g id="Node000002" class="node">
<title>Node2</title>
<g id="a_Node000002"><a xlink:href="Keypad_8hpp.xhtml" target="_top" xlink:title=" ">
<polygon fill="white" stroke="#666666" points="251.75,-185 185.5,-185 185.5,-165.75 251.75,-165.75 251.75,-185"/>
<text text-anchor="middle" x="218.62" y="-171.5" font-family="Helvetica,sans-Serif" font-size="10.00">Keypad.hpp</text>
</a>
</g>
</g>
<!-- Node1&#45;&gt;Node2 -->
<g id="edge1_Node000001_Node000002" class="edge">
<title>Node1&#45;&gt;Node2</title>
<g id="a_edge1_Node000001_Node000002"><a xlink:title=" ">
<path fill="none" stroke="#63b8ff" d="M247.98,-220.7C242.85,-212.94 236.47,-203.31 230.97,-195.01"/>
<polygon fill="#63b8ff" stroke="#63b8ff" points="233.91,-193.12 225.47,-186.71 228.08,-196.98 233.91,-193.12"/>
</a>
</g>
</g>
<!-- Node12 -->
<g id="Node000012" class="node">
<title>Node12</title>
<g id="a_Node000012"><a xlink:title=" ">
<polygon fill="#e0e0e0" stroke="#999999" points="325.88,-185 269.38,-185 269.38,-165.75 325.88,-165.75 325.88,-185"/>
<text text-anchor="middle" x="297.62" y="-171.5" font-family="Helvetica,sans-Serif" font-size="10.00">Arduino.h</text>
</a>
</g>
</g>
<!-- Node1&#45;&gt;Node12 -->
<g id="edge11_Node000001_Node000012" class="edge">
<title>Node1&#45;&gt;Node12</title>
<g id="a_edge11_Node000001_Node000012"><a xlink:title=" ">
<path fill="none" stroke="#63b8ff" d="M267.51,-220.7C272.84,-212.85 279.47,-203.1 285.15,-194.74"/>
<polygon fill="#63b8ff" stroke="#63b8ff" points="287.88,-196.94 290.61,-186.7 282.09,-193.01 287.88,-196.94"/>
</a>
</g>
</g>
<!-- Node3 -->
<g id="Node000003" class="node">
<title>Node3</title>
<g id="a_Node000003"><a xlink:href="IKeypad_8hpp.xhtml" target="_top" xlink:title=" ">
<polygon fill="white" stroke="#666666" points="69.25,-129.75 0,-129.75 0,-110.5 69.25,-110.5 69.25,-129.75"/>
<text text-anchor="middle" x="34.62" y="-116.25" font-family="Helvetica,sans-Serif" font-size="10.00">IKeypad.hpp</text>
</a>
</g>
</g>
<!-- Node2&#45;&gt;Node3 -->
<g id="edge2_Node000002_Node000003" class="edge">
<title>Node2&#45;&gt;Node3</title>
<g id="a_edge2_Node000002_Node000003"><a xlink:title=" ">
<path fill="none" stroke="#63b8ff" d="M187.41,-165.34C157.01,-156.54 110.59,-143.11 76.89,-133.36"/>
<polygon fill="#63b8ff" stroke="#63b8ff" points="78.02,-130.04 67.45,-130.62 76.08,-136.77 78.02,-130.04"/>
</a>
</g>
</g>
<!-- Node6 -->
<g id="Node000006" class="node">
<title>Node6</title>
<g id="a_Node000006"><a xlink:href="board__config_8hpp.xhtml" target="_top" xlink:title="Provides named objects for the pins provided by the board.">
<polygon fill="white" stroke="#666666" points="176,-129.75 87.25,-129.75 87.25,-110.5 176,-110.5 176,-129.75"/>
<text text-anchor="middle" x="131.62" y="-116.25" font-family="Helvetica,sans-Serif" font-size="10.00">board_config.hpp</text>
</a>
</g>
</g>
<!-- Node2&#45;&gt;Node6 -->
<g id="edge5_Node000002_Node000006" class="edge">
<title>Node2&#45;&gt;Node6</title>
<g id="a_edge5_Node000002_Node000006"><a xlink:title=" ">
<path fill="none" stroke="#63b8ff" d="M203.87,-165.34C190.74,-157.31 171.3,-145.41 155.89,-135.98"/>
<polygon fill="#63b8ff" stroke="#63b8ff" points="158.1,-133.23 147.75,-130.99 154.45,-139.2 158.1,-133.23"/>
</a>
</g>
</g>
<!-- Node9 -->
<g id="Node000009" class="node">
<title>Node9</title>
<g id="a_Node000009"><a xlink:title=" ">
<polygon fill="#e0e0e0" stroke="#999999" points="242.75,-129.75 194.5,-129.75 194.5,-110.5 242.75,-110.5 242.75,-129.75"/>
<text text-anchor="middle" x="218.62" y="-116.25" font-family="Helvetica,sans-Serif" font-size="10.00">cstddef</text>
</a>
</g>
</g>
<!-- Node2&#45;&gt;Node9 -->
<g id="edge8_Node000002_Node000009" class="edge">
<title>Node2&#45;&gt;Node9</title>
<g id="a_edge8_Node000002_Node000009"><a xlink:title=" ">
<path fill="none" stroke="#63b8ff" d="M218.62,-165.58C218.62,-159.07 218.62,-149.92 218.62,-141.62"/>
<polygon fill="#63b8ff" stroke="#63b8ff" points="222.13,-141.62 218.63,-131.62 215.13,-141.62 222.13,-141.62"/>
</a>
</g>
</g>
<!-- Node10 -->
<g id="Node000010" class="node">
<title>Node10</title>
<g id="a_Node000010"><a xlink:title=" ">
<polygon fill="#e0e0e0" stroke="#999999" points="306.62,-129.75 260.62,-129.75 260.62,-110.5 306.62,-110.5 306.62,-129.75"/>
<text text-anchor="middle" x="283.62" y="-116.25" font-family="Helvetica,sans-Serif" font-size="10.00">iterator</text>
</a>
</g>
</g>
<!-- Node2&#45;&gt;Node10 -->
<g id="edge9_Node000002_Node000010" class="edge">
<title>Node2&#45;&gt;Node10</title>
<g id="a_edge9_Node000002_Node000010"><a xlink:title=" ">
<path fill="none" stroke="#63b8ff" d="M229.65,-165.34C239.05,-157.65 252.77,-146.4 264.03,-137.18"/>
<polygon fill="#63b8ff" stroke="#63b8ff" points="266.07,-140.03 271.59,-130.98 261.64,-134.61 266.07,-140.03"/>
</a>
</g>
</g>
<!-- Node11 -->
<g id="Node000011" class="node">
<title>Node11</title>
<g id="a_Node000011"><a xlink:title=" ">
<polygon fill="#e0e0e0" stroke="#999999" points="374.5,-129.75 324.75,-129.75 324.75,-110.5 374.5,-110.5 374.5,-129.75"/>
<text text-anchor="middle" x="349.62" y="-116.25" font-family="Helvetica,sans-Serif" font-size="10.00">optional</text>
</a>
</g>
</g>
<!-- Node2&#45;&gt;Node11 -->
<g id="edge10_Node000002_Node000011" class="edge">
<title>Node2&#45;&gt;Node11</title>
<g id="a_edge10_Node000002_Node000011"><a xlink:title=" ">
<path fill="none" stroke="#63b8ff" d="M240.85,-165.34C261.64,-156.89 292.97,-144.15 316.68,-134.52"/>
<polygon fill="#63b8ff" stroke="#63b8ff" points="317.95,-137.78 325.89,-130.77 315.31,-131.3 317.95,-137.78"/>
</a>
</g>
</g>
<!-- Node4 -->
<g id="Node000004" class="node">
<title>Node4</title>
<g id="a_Node000004"><a xlink:href="KeyIds_8hpp.xhtml" target="_top" xlink:title=" ">
<polygon fill="white" stroke="#666666" points="66.62,-74.5 2.62,-74.5 2.62,-55.25 66.62,-55.25 66.62,-74.5"/>
<text text-anchor="middle" x="34.62" y="-61" font-family="Helvetica,sans-Serif" font-size="10.00">KeyIds.hpp</text>
</a>
</g>
</g>
<!-- Node3&#45;&gt;Node4 -->
<g id="edge3_Node000003_Node000004" class="edge">
<title>Node3&#45;&gt;Node4</title>
<g id="a_edge3_Node000003_Node000004"><a xlink:title=" ">
<path fill="none" stroke="#63b8ff" d="M34.62,-110.33C34.62,-103.82 34.62,-94.67 34.62,-86.37"/>
<polygon fill="#63b8ff" stroke="#63b8ff" points="38.13,-86.37 34.63,-76.37 31.13,-86.37 38.13,-86.37"/>
</a>
</g>
</g>
<!-- Node5 -->
<g id="Node000005" class="node">
<title>Node5</title>
<g id="a_Node000005"><a xlink:title=" ">
<polygon fill="#e0e0e0" stroke="#999999" points="60.25,-19.25 9,-19.25 9,0 60.25,0 60.25,-19.25"/>
<text text-anchor="middle" x="34.62" y="-5.75" font-family="Helvetica,sans-Serif" font-size="10.00">ostream</text>
</a>
</g>
</g>
<!-- Node4&#45;&gt;Node5 -->
<g id="edge4_Node000004_Node000005" class="edge">
<title>Node4&#45;&gt;Node5</title>
<g id="a_edge4_Node000004_Node000005"><a xlink:title=" ">
<path fill="none" stroke="#63b8ff" d="M34.62,-55.08C34.62,-48.57 34.62,-39.42 34.62,-31.12"/>
<polygon fill="#63b8ff" stroke="#63b8ff" points="38.13,-31.12 34.63,-21.12 31.13,-31.12 38.13,-31.12"/>
</a>
</g>
</g>
<!-- Node7 -->
<g id="Node000007" class="node">
<title>Node7</title>
<g id="a_Node000007"><a xlink:href="board__types_8hpp.xhtml" target="_top" xlink:title=" ">
<polygon fill="white" stroke="#666666" points="174.88,-74.5 88.38,-74.5 88.38,-55.25 174.88,-55.25 174.88,-74.5"/>
<text text-anchor="middle" x="131.62" y="-61" font-family="Helvetica,sans-Serif" font-size="10.00">board_types.hpp</text>
</a>
</g>
</g>
<!-- Node6&#45;&gt;Node7 -->
<g id="edge6_Node000006_Node000007" class="edge">
<title>Node6&#45;&gt;Node7</title>
<g id="a_edge6_Node000006_Node000007"><a xlink:title=" ">
<path fill="none" stroke="#63b8ff" d="M131.62,-110.33C131.62,-103.82 131.62,-94.67 131.62,-86.37"/>
<polygon fill="#63b8ff" stroke="#63b8ff" points="135.13,-86.37 131.63,-76.37 128.13,-86.37 135.13,-86.37"/>
</a>
</g>
</g>
<!-- Node8 -->
<g id="Node000008" class="node">
<title>Node8</title>
<g id="a_Node000008"><a xlink:title=" ">
<polygon fill="#e0e0e0" stroke="#999999" points="154.25,-19.25 109,-19.25 109,0 154.25,0 154.25,-19.25"/>
<text text-anchor="middle" x="131.62" y="-5.75" font-family="Helvetica,sans-Serif" font-size="10.00">cstdint</text>
</a>
</g>
</g>
<!-- Node7&#45;&gt;Node8 -->
<g id="edge7_Node000007_Node000008" class="edge">
<title>Node7&#45;&gt;Node8</title>
<g id="a_edge7_Node000007_Node000008"><a xlink:title=" ">
<path fill="none" stroke="#63b8ff" d="M131.62,-55.08C131.62,-48.57 131.62,-39.42 131.62,-31.12"/>
<polygon fill="#63b8ff" stroke="#63b8ff" points="135.13,-31.12 131.63,-21.12 128.13,-31.12 135.13,-31.12"/>
</a>
</g>
</g>
</g>
</svg>
