<?xml version="1.0" encoding="UTF-8" standalone="no"?>
<!DOCTYPE svg PUBLIC "-//W3C//DTD SVG 1.1//EN"
 "http://www.w3.org/Graphics/SVG/1.1/DTD/svg11.dtd">
<!-- Generated by graphviz version 7.0.5 (20221223.1930)
 -->
<!-- Title: lib/board_adapters/src/Keypad.hpp Pages: 1 -->
<svg width="343pt" height="115pt"
 viewBox="0.00 0.00 342.50 115.00" xmlns="http://www.w3.org/2000/svg" xmlns:xlink="http://www.w3.org/1999/xlink">
<g id="graph0" class="graph" transform="scale(1 1) rotate(0) translate(4 111)">
<title>lib/board_adapters/src/Keypad.hpp</title>
<!-- Node1 -->
<g id="node1" class="node">
<title>Node1</title>
<g id="a_node1"><a xlink:title=" ">
<polygon fill="#999999" stroke="#666666" points="213,-107 117,-107 117,-77 213,-77 213,-107"/>
<text text-anchor="start" x="125" y="-95" font-family="Helvetica,sans-Serif" font-size="10.00">lib/board_adapters</text>
<text text-anchor="middle" x="165" y="-84" font-family="Helvetica,sans-Serif" font-size="10.00">/src/Keypad.hpp</text>
</a>
</g>
</g>
<!-- Node2 -->
<g id="node2" class="node">
<title>Node2</title>
<g id="a_node2"><a xlink:href="Keypad_8cpp.xhtml" target="_top" xlink:title=" ">
<polygon fill="white" stroke="#666666" points="96,-35.5 0,-35.5 0,-5.5 96,-5.5 96,-35.5"/>
<text text-anchor="start" x="8" y="-23.5" font-family="Helvetica,sans-Serif" font-size="10.00">lib/board_adapters</text>
<text text-anchor="middle" x="48" y="-12.5" font-family="Helvetica,sans-Serif" font-size="10.00">/src/Keypad.cpp</text>
</a>
</g>
</g>
<!-- Node1&#45;&gt;Node2 -->
<g id="edge1" class="edge">
<title>Node1&#45;&gt;Node2</title>
<path fill="none" stroke="#63b8ff" d="M131.06,-70.84C112.22,-59.65 89.23,-45.99 72.21,-35.88"/>
<polygon fill="#63b8ff" stroke="#63b8ff" points="129.07,-73.73 139.46,-75.83 132.65,-67.71 129.07,-73.73"/>
</g>
<!-- Node3 -->
<g id="node3" class="node">
<title>Node3</title>
<g id="a_node3"><a xlink:href="keypad__factory__interface_8cpp.xhtml" target="_top" xlink:title=" ">
<polygon fill="white" stroke="#666666" points="215.5,-41 114.5,-41 114.5,0 215.5,0 215.5,-41"/>
<text text-anchor="start" x="122.5" y="-29" font-family="Helvetica,sans-Serif" font-size="10.00">lib/board_adapters</text>
<text text-anchor="start" x="122.5" y="-18" font-family="Helvetica,sans-Serif" font-size="10.00">/src/keypad_factory</text>
<text text-anchor="middle" x="165" y="-7" font-family="Helvetica,sans-Serif" font-size="10.00">_interface.cpp</text>
</a>
</g>
</g>
<!-- Node1&#45;&gt;Node3 -->
<g id="edge2" class="edge">
<title>Node1&#45;&gt;Node3</title>
<path fill="none" stroke="#63b8ff" d="M165,-65.36C165,-57.45 165,-48.87 165,-41.42"/>
<polygon fill="#63b8ff" stroke="#63b8ff" points="161.5,-65.09 165,-75.09 168.5,-65.09 161.5,-65.09"/>
</g>
<!-- Node4 -->
<g id="node4" class="node">
<title>Node4</title>
<g id="a_node4"><a xlink:href="test__board_8cpp.xhtml" target="_top" xlink:title=" ">
<polygon fill="white" stroke="#666666" points="334.5,-35.5 233.5,-35.5 233.5,-5.5 334.5,-5.5 334.5,-35.5"/>
<text text-anchor="start" x="241.5" y="-23.5" font-family="Helvetica,sans-Serif" font-size="10.00">test/test_board/test</text>
<text text-anchor="middle" x="284" y="-12.5" font-family="Helvetica,sans-Serif" font-size="10.00">_board.cpp</text>
</a>
</g>
</g>
<!-- Node1&#45;&gt;Node4 -->
<g id="edge3" class="edge">
<title>Node1&#45;&gt;Node4</title>
<path fill="none" stroke="#63b8ff" d="M199.52,-70.84C218.68,-59.65 242.07,-45.99 259.37,-35.88"/>
<polygon fill="#63b8ff" stroke="#63b8ff" points="197.83,-67.77 190.96,-75.84 201.36,-73.82 197.83,-67.77"/>
</g>
</g>
</svg>
