<?xml version="1.0" encoding="UTF-8" standalone="no"?>
<!DOCTYPE svg PUBLIC "-//W3C//DTD SVG 1.1//EN"
 "http://www.w3.org/Graphics/SVG/1.1/DTD/svg11.dtd">
<!-- Generated by graphviz version 9.0.0 (20230911.1827)
 -->
<!-- Title: lib/layer2_hmi/include/keypad_factory_interface.hpp Pages: 1 -->
<svg width="264pt" height="116pt"
 viewBox="0.00 0.00 264.12 116.25" xmlns="http://www.w3.org/2000/svg" xmlns:xlink="http://www.w3.org/1999/xlink">
<g id="graph0" class="graph" transform="scale(1 1) rotate(0) translate(4 112.25)">
<title>lib/layer2_hmi/include/keypad_factory_interface.hpp</title>
<!-- Node1 -->
<g id="Node000001" class="node">
<title>Node1</title>
<g id="a_Node000001"><a xlink:title=" ">
<polygon fill="#999999" stroke="#666666" points="187.12,-108.25 42.12,-108.25 42.12,-77.75 187.12,-77.75 187.12,-108.25"/>
<text text-anchor="start" x="50.12" y="-94.75" font-family="Helvetica,sans-Serif" font-size="10.00">lib/layer2_hmi/include</text>
<text text-anchor="middle" x="114.62" y="-83.5" font-family="Helvetica,sans-Serif" font-size="10.00">/keypad_factory_interface.hpp</text>
</a>
</g>
</g>
<!-- Node2 -->
<g id="Node000002" class="node">
<title>Node2</title>
<g id="a_Node000002"><a xlink:href="controller__factory__interface_8cpp.xhtml" target="_top" xlink:title=" ">
<polygon fill="white" stroke="#666666" points="93.25,-41.75 0,-41.75 0,0 93.25,0 93.25,-41.75"/>
<text text-anchor="start" x="8" y="-28.25" font-family="Helvetica,sans-Serif" font-size="10.00">lib/layer2_hmi/src</text>
<text text-anchor="start" x="8" y="-17" font-family="Helvetica,sans-Serif" font-size="10.00">/controller_factory</text>
<text text-anchor="middle" x="46.62" y="-5.75" font-family="Helvetica,sans-Serif" font-size="10.00">_interface.cpp</text>
</a>
</g>
</g>
<!-- Node1&#45;&gt;Node2 -->
<g id="edge1_Node000001_Node000002" class="edge">
<title>Node1&#45;&gt;Node2</title>
<g id="a_edge1_Node000001_Node000002"><a xlink:title=" ">
<path fill="none" stroke="#63b8ff" d="M92.57,-69.25C84.13,-60.55 74.57,-50.7 66.37,-42.24"/>
<polygon fill="#63b8ff" stroke="#63b8ff" points="90.01,-71.64 99.48,-76.38 95.03,-66.77 90.01,-71.64"/>
</a>
</g>
</g>
<!-- Node3 -->
<g id="Node000003" class="node">
<title>Node3</title>
<g id="a_Node000003"><a xlink:href="keypad__factory__interface_8cpp.xhtml" target="_top" xlink:title=" ">
<polygon fill="white" stroke="#666666" points="256.12,-36.12 111.12,-36.12 111.12,-5.62 256.12,-5.62 256.12,-36.12"/>
<text text-anchor="start" x="119.12" y="-22.62" font-family="Helvetica,sans-Serif" font-size="10.00">lib/layer3_board/src</text>
<text text-anchor="middle" x="183.62" y="-11.38" font-family="Helvetica,sans-Serif" font-size="10.00">/keypad_factory_interface.cpp</text>
</a>
</g>
</g>
<!-- Node1&#45;&gt;Node3 -->
<g id="edge2_Node000001_Node000003" class="edge">
<title>Node1&#45;&gt;Node3</title>
<g id="a_edge2_Node000001_Node000003"><a xlink:title=" ">
<path fill="none" stroke="#63b8ff" d="M136.98,-69.28C147.61,-58.48 160.01,-45.88 169.35,-36.39"/>
<polygon fill="#63b8ff" stroke="#63b8ff" points="134.5,-66.81 129.98,-76.39 139.49,-71.72 134.5,-66.81"/>
</a>
</g>
</g>
</g>
</svg>
