<?xml version="1.0" encoding="UTF-8" standalone="no"?>
<!DOCTYPE svg PUBLIC "-//W3C//DTD SVG 1.1//EN"
 "http://www.w3.org/Graphics/SVG/1.1/DTD/svg11.dtd">
<!-- Generated by graphviz version 7.0.5 (20221223.1930)
 -->
<!-- Title: lib/board_adapters/src/Keypad.hpp Pages: 1 -->
<svg width="386pt" height="203pt"
 viewBox="0.00 0.00 386.00 203.00" xmlns="http://www.w3.org/2000/svg" xmlns:xlink="http://www.w3.org/1999/xlink">
<g id="graph0" class="graph" transform="scale(1 1) rotate(0) translate(4 199)">
<title>lib/board_adapters/src/Keypad.hpp</title>
<!-- Node1 -->
<g id="node1" class="node">
<title>Node1</title>
<g id="a_node1"><a xlink:title=" ">
<polygon fill="#999999" stroke="#666666" points="268,-195 172,-195 172,-165 268,-165 268,-195"/>
<text text-anchor="start" x="180" y="-183" font-family="Helvetica,sans-Serif" font-size="10.00">lib/board_adapters</text>
<text text-anchor="middle" x="220" y="-172" font-family="Helvetica,sans-Serif" font-size="10.00">/src/Keypad.hpp</text>
</a>
</g>
</g>
<!-- Node2 -->
<g id="node2" class="node">
<title>Node2</title>
<g id="a_node2"><a xlink:href="IKeypad_8hpp.xhtml" target="_top" xlink:title=" ">
<polygon fill="white" stroke="#666666" points="70,-129 0,-129 0,-110 70,-110 70,-129"/>
<text text-anchor="middle" x="35" y="-117" font-family="Helvetica,sans-Serif" font-size="10.00">IKeypad.hpp</text>
</a>
</g>
</g>
<!-- Node1&#45;&gt;Node2 -->
<g id="edge1" class="edge">
<title>Node1&#45;&gt;Node2</title>
<path fill="none" stroke="#63b8ff" d="M174.27,-164.54C143.43,-154.79 103.19,-142.06 73.9,-132.8"/>
<polygon fill="#63b8ff" stroke="#63b8ff" points="75.28,-129.57 64.69,-129.89 73.17,-136.24 75.28,-129.57"/>
</g>
<!-- Node5 -->
<g id="node5" class="node">
<title>Node5</title>
<g id="a_node5"><a xlink:href="board__config_8hpp.xhtml" target="_top" xlink:title="Provides named objects for the pins provided by the board.">
<polygon fill="white" stroke="#666666" points="177.5,-129 88.5,-129 88.5,-110 177.5,-110 177.5,-129"/>
<text text-anchor="middle" x="133" y="-117" font-family="Helvetica,sans-Serif" font-size="10.00">board_config.hpp</text>
</a>
</g>
</g>
<!-- Node1&#45;&gt;Node5 -->
<g id="edge4" class="edge">
<title>Node1&#45;&gt;Node5</title>
<path fill="none" stroke="#63b8ff" d="M198.49,-164.54C185.42,-155.75 168.75,-144.54 155.51,-135.63"/>
<polygon fill="#63b8ff" stroke="#63b8ff" points="157.66,-132.87 147.41,-130.19 153.76,-138.68 157.66,-132.87"/>
</g>
<!-- Node8 -->
<g id="node8" class="node">
<title>Node8</title>
<g id="a_node8"><a xlink:title=" ">
<polygon fill="#e0e0e0" stroke="#999999" points="244.5,-129 195.5,-129 195.5,-110 244.5,-110 244.5,-129"/>
<text text-anchor="middle" x="220" y="-117" font-family="Helvetica,sans-Serif" font-size="10.00">cstddef</text>
</a>
</g>
</g>
<!-- Node1&#45;&gt;Node8 -->
<g id="edge7" class="edge">
<title>Node1&#45;&gt;Node8</title>
<path fill="none" stroke="#63b8ff" d="M220,-164.54C220,-157.34 220,-148.53 220,-140.68"/>
<polygon fill="#63b8ff" stroke="#63b8ff" points="223.5,-140.69 220,-130.69 216.5,-140.69 223.5,-140.69"/>
</g>
<!-- Node9 -->
<g id="node9" class="node">
<title>Node9</title>
<g id="a_node9"><a xlink:title=" ">
<polygon fill="#e0e0e0" stroke="#999999" points="309.5,-129 262.5,-129 262.5,-110 309.5,-110 309.5,-129"/>
<text text-anchor="middle" x="286" y="-117" font-family="Helvetica,sans-Serif" font-size="10.00">iterator</text>
</a>
</g>
</g>
<!-- Node1&#45;&gt;Node9 -->
<g id="edge8" class="edge">
<title>Node1&#45;&gt;Node9</title>
<path fill="none" stroke="#63b8ff" d="M236.31,-164.54C245.8,-156.13 257.79,-145.51 267.61,-136.8"/>
<polygon fill="#63b8ff" stroke="#63b8ff" points="269.92,-139.43 275.08,-130.18 265.27,-134.19 269.92,-139.43"/>
</g>
<!-- Node10 -->
<g id="node10" class="node">
<title>Node10</title>
<g id="a_node10"><a xlink:title=" ">
<polygon fill="#e0e0e0" stroke="#999999" points="378,-129 328,-129 328,-110 378,-110 378,-129"/>
<text text-anchor="middle" x="353" y="-117" font-family="Helvetica,sans-Serif" font-size="10.00">optional</text>
</a>
</g>
</g>
<!-- Node1&#45;&gt;Node10 -->
<g id="edge9" class="edge">
<title>Node1&#45;&gt;Node10</title>
<path fill="none" stroke="#63b8ff" d="M252.88,-164.54C274.13,-155.19 301.61,-143.1 322.4,-133.96"/>
<polygon fill="#63b8ff" stroke="#63b8ff" points="323.76,-137.19 331.5,-129.96 320.94,-130.78 323.76,-137.19"/>
</g>
<!-- Node3 -->
<g id="node3" class="node">
<title>Node3</title>
<g id="a_node3"><a xlink:href="KeyIds_8hpp.xhtml" target="_top" xlink:title=" ">
<polygon fill="white" stroke="#666666" points="67.5,-74 2.5,-74 2.5,-55 67.5,-55 67.5,-74"/>
<text text-anchor="middle" x="35" y="-62" font-family="Helvetica,sans-Serif" font-size="10.00">KeyIds.hpp</text>
</a>
</g>
</g>
<!-- Node2&#45;&gt;Node3 -->
<g id="edge2" class="edge">
<title>Node2&#45;&gt;Node3</title>
<path fill="none" stroke="#63b8ff" d="M35,-109.75C35,-103.27 35,-94.16 35,-85.9"/>
<polygon fill="#63b8ff" stroke="#63b8ff" points="38.5,-85.96 35,-75.96 31.5,-85.96 38.5,-85.96"/>
</g>
<!-- Node4 -->
<g id="node4" class="node">
<title>Node4</title>
<g id="a_node4"><a xlink:title=" ">
<polygon fill="#e0e0e0" stroke="#999999" points="61,-19 9,-19 9,0 61,0 61,-19"/>
<text text-anchor="middle" x="35" y="-7" font-family="Helvetica,sans-Serif" font-size="10.00">ostream</text>
</a>
</g>
</g>
<!-- Node3&#45;&gt;Node4 -->
<g id="edge3" class="edge">
<title>Node3&#45;&gt;Node4</title>
<path fill="none" stroke="#63b8ff" d="M35,-54.75C35,-48.27 35,-39.16 35,-30.9"/>
<polygon fill="#63b8ff" stroke="#63b8ff" points="38.5,-30.96 35,-20.96 31.5,-30.96 38.5,-30.96"/>
</g>
<!-- Node6 -->
<g id="node6" class="node">
<title>Node6</title>
<g id="a_node6"><a xlink:href="board__types_8hpp.xhtml" target="_top" xlink:title=" ">
<polygon fill="white" stroke="#666666" points="176.5,-74 89.5,-74 89.5,-55 176.5,-55 176.5,-74"/>
<text text-anchor="middle" x="133" y="-62" font-family="Helvetica,sans-Serif" font-size="10.00">board_types.hpp</text>
</a>
</g>
</g>
<!-- Node5&#45;&gt;Node6 -->
<g id="edge5" class="edge">
<title>Node5&#45;&gt;Node6</title>
<path fill="none" stroke="#63b8ff" d="M133,-109.75C133,-103.27 133,-94.16 133,-85.9"/>
<polygon fill="#63b8ff" stroke="#63b8ff" points="136.5,-85.96 133,-75.96 129.5,-85.96 136.5,-85.96"/>
</g>
<!-- Node7 -->
<g id="node7" class="node">
<title>Node7</title>
<g id="a_node7"><a xlink:title=" ">
<polygon fill="#e0e0e0" stroke="#999999" points="156,-19 110,-19 110,0 156,0 156,-19"/>
<text text-anchor="middle" x="133" y="-7" font-family="Helvetica,sans-Serif" font-size="10.00">cstdint</text>
</a>
</g>
</g>
<!-- Node6&#45;&gt;Node7 -->
<g id="edge6" class="edge">
<title>Node6&#45;&gt;Node7</title>
<path fill="none" stroke="#63b8ff" d="M133,-54.75C133,-48.27 133,-39.16 133,-30.9"/>
<polygon fill="#63b8ff" stroke="#63b8ff" points="136.5,-30.96 133,-20.96 129.5,-30.96 136.5,-30.96"/>
</g>
</g>
</svg>
