<?xml version="1.0" encoding="UTF-8" standalone="no"?>
<!DOCTYPE svg PUBLIC "-//W3C//DTD SVG 1.1//EN"
 "http://www.w3.org/Graphics/SVG/1.1/DTD/svg11.dtd">
<!-- Generated by graphviz version 9.0.0 (20230911.1827)
 -->
<!-- Title: lib/layer3_board/src/LedStatusIndicator.cpp Pages: 1 -->
<svg width="249pt" height="204pt"
 viewBox="0.00 0.00 248.75 204.25" xmlns="http://www.w3.org/2000/svg" xmlns:xlink="http://www.w3.org/1999/xlink">
<g id="graph0" class="graph" transform="scale(1 1) rotate(0) translate(4 200.25)">
<title>lib/layer3_board/src/LedStatusIndicator.cpp</title>
<!-- Node1 -->
<g id="Node000001" class="node">
<title>Node1</title>
<g id="a_Node000001"><a xlink:title=" ">
<polygon fill="#999999" stroke="#666666" points="219.25,-196.25 99.75,-196.25 99.75,-165.75 219.25,-165.75 219.25,-196.25"/>
<text text-anchor="start" x="107.75" y="-182.75" font-family="Helvetica,sans-Serif" font-size="10.00">lib/layer3_board/src</text>
<text text-anchor="middle" x="159.5" y="-171.5" font-family="Helvetica,sans-Serif" font-size="10.00">/LedStatusIndicator.cpp</text>
</a>
</g>
</g>
<!-- Node2 -->
<g id="Node000002" class="node">
<title>Node2</title>
<g id="a_Node000002"><a xlink:href="LedStatusIndicator_8hpp.xhtml" target="_top" xlink:title=" ">
<polygon fill="white" stroke="#666666" points="165.75,-129.75 49.25,-129.75 49.25,-110.5 165.75,-110.5 165.75,-129.75"/>
<text text-anchor="middle" x="107.5" y="-116.25" font-family="Helvetica,sans-Serif" font-size="10.00">LedStatusIndicator.hpp</text>
</a>
</g>
</g>
<!-- Node1&#45;&gt;Node2 -->
<g id="edge1_Node000001_Node000002" class="edge">
<title>Node1&#45;&gt;Node2</title>
<g id="a_edge1_Node000001_Node000002"><a xlink:title=" ">
<path fill="none" stroke="#63b8ff" d="M146.65,-165.45C139.49,-157.34 130.53,-147.2 122.99,-138.66"/>
<polygon fill="#63b8ff" stroke="#63b8ff" points="125.76,-136.51 116.52,-131.34 120.51,-141.15 125.76,-136.51"/>
</a>
</g>
</g>
<!-- Node6 -->
<g id="Node000006" class="node">
<title>Node6</title>
<g id="a_Node000006"><a xlink:title=" ">
<polygon fill="#e0e0e0" stroke="#999999" points="240.75,-129.75 184.25,-129.75 184.25,-110.5 240.75,-110.5 240.75,-129.75"/>
<text text-anchor="middle" x="212.5" y="-116.25" font-family="Helvetica,sans-Serif" font-size="10.00">Arduino.h</text>
</a>
</g>
</g>
<!-- Node1&#45;&gt;Node6 -->
<g id="edge5_Node000001_Node000006" class="edge">
<title>Node1&#45;&gt;Node6</title>
<g id="a_edge5_Node000001_Node000006"><a xlink:title=" ">
<path fill="none" stroke="#63b8ff" d="M172.6,-165.45C179.89,-157.34 189.03,-147.2 196.71,-138.66"/>
<polygon fill="#63b8ff" stroke="#63b8ff" points="199.23,-141.1 203.32,-131.33 194.03,-136.42 199.23,-141.1"/>
</a>
</g>
</g>
<!-- Node3 -->
<g id="Node000003" class="node">
<title>Node3</title>
<g id="a_Node000003"><a xlink:href="IStatusIndicator_8hpp.xhtml" target="_top" xlink:title=" ">
<polygon fill="white" stroke="#666666" points="103,-74.5 0,-74.5 0,-55.25 103,-55.25 103,-74.5"/>
<text text-anchor="middle" x="51.5" y="-61" font-family="Helvetica,sans-Serif" font-size="10.00">IStatusIndicator.hpp</text>
</a>
</g>
</g>
<!-- Node2&#45;&gt;Node3 -->
<g id="edge2_Node000002_Node000003" class="edge">
<title>Node2&#45;&gt;Node3</title>
<g id="a_edge2_Node000002_Node000003"><a xlink:title=" ">
<path fill="none" stroke="#63b8ff" d="M98,-110.09C90.07,-102.55 78.55,-91.6 68.96,-82.48"/>
<polygon fill="#63b8ff" stroke="#63b8ff" points="71.61,-80.17 61.96,-75.82 66.79,-85.24 71.61,-80.17"/>
</a>
</g>
</g>
<!-- Node4 -->
<g id="Node000004" class="node">
<title>Node4</title>
<g id="a_Node000004"><a xlink:href="board__types_8hpp.xhtml" target="_top" xlink:title=" ">
<polygon fill="white" stroke="#666666" points="207.75,-74.5 121.25,-74.5 121.25,-55.25 207.75,-55.25 207.75,-74.5"/>
<text text-anchor="middle" x="164.5" y="-61" font-family="Helvetica,sans-Serif" font-size="10.00">board_types.hpp</text>
</a>
</g>
</g>
<!-- Node2&#45;&gt;Node4 -->
<g id="edge3_Node000002_Node000004" class="edge">
<title>Node2&#45;&gt;Node4</title>
<g id="a_edge3_Node000002_Node000004"><a xlink:title=" ">
<path fill="none" stroke="#63b8ff" d="M117.17,-110.09C125.24,-102.55 136.97,-91.6 146.72,-82.48"/>
<polygon fill="#63b8ff" stroke="#63b8ff" points="148.95,-85.19 153.87,-75.81 144.17,-80.08 148.95,-85.19"/>
</a>
</g>
</g>
<!-- Node5 -->
<g id="Node000005" class="node">
<title>Node5</title>
<g id="a_Node000005"><a xlink:title=" ">
<polygon fill="#e0e0e0" stroke="#999999" points="187.12,-19.25 141.88,-19.25 141.88,0 187.12,0 187.12,-19.25"/>
<text text-anchor="middle" x="164.5" y="-5.75" font-family="Helvetica,sans-Serif" font-size="10.00">cstdint</text>
</a>
</g>
</g>
<!-- Node4&#45;&gt;Node5 -->
<g id="edge4_Node000004_Node000005" class="edge">
<title>Node4&#45;&gt;Node5</title>
<g id="a_edge4_Node000004_Node000005"><a xlink:title=" ">
<path fill="none" stroke="#63b8ff" d="M164.5,-55.08C164.5,-48.57 164.5,-39.42 164.5,-31.12"/>
<polygon fill="#63b8ff" stroke="#63b8ff" points="168,-31.12 164.5,-21.12 161,-31.12 168,-31.12"/>
</a>
</g>
</g>
</g>
</svg>
