<?xml version="1.0" encoding="UTF-8" standalone="no"?>
<!DOCTYPE svg PUBLIC "-//W3C//DTD SVG 1.1//EN"
 "http://www.w3.org/Graphics/SVG/1.1/DTD/svg11.dtd">
<!-- Generated by graphviz version 9.0.0 (20230911.1827)
 -->
<!-- Title: lib/layer4_drivers_libraries_adapters/src/logging.cpp Pages: 1 -->
<svg width="319pt" height="160pt"
 viewBox="0.00 0.00 318.50 160.25" xmlns="http://www.w3.org/2000/svg" xmlns:xlink="http://www.w3.org/1999/xlink">
<g id="graph0" class="graph" transform="scale(1 1) rotate(0) translate(4 156.25)">
<title>lib/layer4_drivers_libraries_adapters/src/logging.cpp</title>
<!-- Node1 -->
<g id="Node000001" class="node">
<title>Node1</title>
<g id="a_Node000001"><a xlink:title=" ">
<polygon fill="#999999" stroke="#666666" points="164.38,-152.25 66.62,-152.25 66.62,-110.5 164.38,-110.5 164.38,-152.25"/>
<text text-anchor="start" x="74.62" y="-138.75" font-family="Helvetica,sans-Serif" font-size="10.00">lib/layer4_drivers</text>
<text text-anchor="start" x="74.62" y="-127.5" font-family="Helvetica,sans-Serif" font-size="10.00">_libraries_adapters</text>
<text text-anchor="middle" x="115.5" y="-116.25" font-family="Helvetica,sans-Serif" font-size="10.00">/src/logging.cpp</text>
</a>
</g>
</g>
<!-- Node2 -->
<g id="Node000002" class="node">
<title>Node2</title>
<g id="a_Node000002"><a xlink:href="logging_8hpp.xhtml" target="_top" xlink:title=" ">
<polygon fill="white" stroke="#666666" points="86.88,-74.5 22.12,-74.5 22.12,-55.25 86.88,-55.25 86.88,-74.5"/>
<text text-anchor="middle" x="54.5" y="-61" font-family="Helvetica,sans-Serif" font-size="10.00">logging.hpp</text>
</a>
</g>
</g>
<!-- Node1&#45;&gt;Node2 -->
<g id="edge1_Node000001_Node000002" class="edge">
<title>Node1&#45;&gt;Node2</title>
<g id="a_edge1_Node000001_Node000002"><a xlink:title=" ">
<path fill="none" stroke="#63b8ff" d="M96.53,-110.32C88.31,-101.63 78.79,-91.55 70.88,-83.19"/>
<polygon fill="#63b8ff" stroke="#63b8ff" points="73.53,-80.91 64.12,-76.05 68.45,-85.72 73.53,-80.91"/>
</a>
</g>
</g>
<!-- Node5 -->
<g id="Node000005" class="node">
<title>Node5</title>
<g id="a_Node000005"><a xlink:href="SerialOutputStreamBuffer_8hpp.xhtml" target="_top" xlink:title=" ">
<polygon fill="white" stroke="#666666" points="250,-74.5 105,-74.5 105,-55.25 250,-55.25 250,-74.5"/>
<text text-anchor="middle" x="177.5" y="-61" font-family="Helvetica,sans-Serif" font-size="10.00">SerialOutputStreamBuffer.hpp</text>
</a>
</g>
</g>
<!-- Node1&#45;&gt;Node5 -->
<g id="edge4_Node000001_Node000005" class="edge">
<title>Node1&#45;&gt;Node5</title>
<g id="a_edge4_Node000001_Node000005"><a xlink:title=" ">
<path fill="none" stroke="#63b8ff" d="M134.78,-110.32C143.13,-101.63 152.82,-91.55 160.85,-83.19"/>
<polygon fill="#63b8ff" stroke="#63b8ff" points="163.33,-85.67 167.73,-76.04 158.28,-80.82 163.33,-85.67"/>
</a>
</g>
</g>
<!-- Node3 -->
<g id="Node000003" class="node">
<title>Node3</title>
<g id="a_Node000003"><a xlink:title=" ">
<polygon fill="#e0e0e0" stroke="#999999" points="37,-19.25 0,-19.25 0,0 37,0 37,-19.25"/>
<text text-anchor="middle" x="18.5" y="-5.75" font-family="Helvetica,sans-Serif" font-size="10.00">array</text>
</a>
</g>
</g>
<!-- Node2&#45;&gt;Node3 -->
<g id="edge2_Node000002_Node000003" class="edge">
<title>Node2&#45;&gt;Node3</title>
<g id="a_edge2_Node000002_Node000003"><a xlink:title=" ">
<path fill="none" stroke="#63b8ff" d="M48.56,-55.08C43.79,-48.03 36.94,-37.9 30.98,-29.08"/>
<polygon fill="#63b8ff" stroke="#63b8ff" points="33.92,-27.19 25.42,-20.86 28.12,-31.11 33.92,-27.19"/>
</a>
</g>
</g>
<!-- Node4 -->
<g id="Node000004" class="node">
<title>Node4</title>
<g id="a_Node000004"><a xlink:title=" ">
<polygon fill="#e0e0e0" stroke="#999999" points="106.12,-19.25 54.88,-19.25 54.88,0 106.12,0 106.12,-19.25"/>
<text text-anchor="middle" x="80.5" y="-5.75" font-family="Helvetica,sans-Serif" font-size="10.00">ostream</text>
</a>
</g>
</g>
<!-- Node2&#45;&gt;Node4 -->
<g id="edge3_Node000002_Node000004" class="edge">
<title>Node2&#45;&gt;Node4</title>
<g id="a_edge3_Node000002_Node000004"><a xlink:title=" ">
<path fill="none" stroke="#63b8ff" d="M58.79,-55.08C62.12,-48.26 66.86,-38.56 71.06,-29.95"/>
<polygon fill="#63b8ff" stroke="#63b8ff" points="74.21,-31.49 75.45,-20.97 67.92,-28.42 74.21,-31.49"/>
</a>
</g>
</g>
<!-- Node5&#45;&gt;Node4 -->
<g id="edge8_Node000005_Node000004" class="edge">
<title>Node5&#45;&gt;Node4</title>
<g id="a_edge8_Node000005_Node000004"><a xlink:title=" ">
<path fill="none" stroke="#63b8ff" d="M161.05,-54.84C146.27,-46.73 124.32,-34.68 107.07,-25.21"/>
<polygon fill="#63b8ff" stroke="#63b8ff" points="108.81,-22.18 98.36,-20.43 105.44,-28.31 108.81,-22.18"/>
</a>
</g>
</g>
<!-- Node6 -->
<g id="Node000006" class="node">
<title>Node6</title>
<g id="a_Node000006"><a xlink:title=" ">
<polygon fill="#e0e0e0" stroke="#999999" points="180.75,-19.25 124.25,-19.25 124.25,0 180.75,0 180.75,-19.25"/>
<text text-anchor="middle" x="152.5" y="-5.75" font-family="Helvetica,sans-Serif" font-size="10.00">Arduino.h</text>
</a>
</g>
</g>
<!-- Node5&#45;&gt;Node6 -->
<g id="edge5_Node000005_Node000006" class="edge">
<title>Node5&#45;&gt;Node6</title>
<g id="a_edge5_Node000005_Node000006"><a xlink:title=" ">
<path fill="none" stroke="#63b8ff" d="M173.37,-55.08C170.17,-48.26 165.61,-38.56 161.57,-29.95"/>
<polygon fill="#63b8ff" stroke="#63b8ff" points="164.78,-28.54 157.36,-20.98 158.44,-31.52 164.78,-28.54"/>
</a>
</g>
</g>
<!-- Node7 -->
<g id="Node000007" class="node">
<title>Node7</title>
<g id="a_Node000007"><a xlink:title=" ">
<polygon fill="#e0e0e0" stroke="#999999" points="246.62,-19.25 198.38,-19.25 198.38,0 246.62,0 246.62,-19.25"/>
<text text-anchor="middle" x="222.5" y="-5.75" font-family="Helvetica,sans-Serif" font-size="10.00">cstddef</text>
</a>
</g>
</g>
<!-- Node5&#45;&gt;Node7 -->
<g id="edge6_Node000005_Node000007" class="edge">
<title>Node5&#45;&gt;Node7</title>
<g id="a_edge6_Node000005_Node000007"><a xlink:title=" ">
<path fill="none" stroke="#63b8ff" d="M184.93,-55.08C191.08,-47.8 200.01,-37.23 207.63,-28.23"/>
<polygon fill="#63b8ff" stroke="#63b8ff" points="210.15,-30.66 213.93,-20.77 204.8,-26.14 210.15,-30.66"/>
</a>
</g>
</g>
<!-- Node8 -->
<g id="Node000008" class="node">
<title>Node8</title>
<g id="a_Node000008"><a xlink:title=" ">
<polygon fill="#e0e0e0" stroke="#999999" points="310.5,-19.25 264.5,-19.25 264.5,0 310.5,0 310.5,-19.25"/>
<text text-anchor="middle" x="287.5" y="-5.75" font-family="Helvetica,sans-Serif" font-size="10.00">iterator</text>
</a>
</g>
</g>
<!-- Node5&#45;&gt;Node8 -->
<g id="edge7_Node000005_Node000008" class="edge">
<title>Node5&#45;&gt;Node8</title>
<g id="a_edge7_Node000005_Node000008"><a xlink:title=" ">
<path fill="none" stroke="#63b8ff" d="M196.16,-54.84C213.23,-46.58 238.74,-34.23 258.47,-24.68"/>
<polygon fill="#63b8ff" stroke="#63b8ff" points="259.91,-27.87 267.39,-20.36 256.86,-21.57 259.91,-27.87"/>
</a>
</g>
</g>
</g>
</svg>
