<?xml version="1.0" encoding="UTF-8" standalone="no"?>
<!DOCTYPE svg PUBLIC "-//W3C//DTD SVG 1.1//EN"
 "http://www.w3.org/Graphics/SVG/1.1/DTD/svg11.dtd">
<!-- Generated by graphviz version 7.0.5 (20221223.1930)
 -->
<!-- Title: src/main.cpp Pages: 1 -->
<svg width="823pt" height="258pt"
 viewBox="0.00 0.00 822.50 258.00" xmlns="http://www.w3.org/2000/svg" xmlns:xlink="http://www.w3.org/1999/xlink">
<g id="graph0" class="graph" transform="scale(1 1) rotate(0) translate(4 254)">
<title>src/main.cpp</title>
<!-- Node1 -->
<g id="node1" class="node">
<title>Node1</title>
<g id="a_node1"><a xlink:title=" ">
<polygon fill="#999999" stroke="#666666" points="462,-250 390,-250 390,-231 462,-231 462,-250"/>
<text text-anchor="middle" x="426" y="-238" font-family="Helvetica,sans-Serif" font-size="10.00">src/main.cpp</text>
</a>
</g>
</g>
<!-- Node2 -->
<g id="node2" class="node">
<title>Node2</title>
<g id="a_node2"><a xlink:href="main_8hpp.xhtml" target="_top" xlink:title=" ">
<polygon fill="white" stroke="#666666" points="126,-189.5 70,-189.5 70,-170.5 126,-170.5 126,-189.5"/>
<text text-anchor="middle" x="98" y="-177.5" font-family="Helvetica,sans-Serif" font-size="10.00">main.hpp</text>
</a>
</g>
</g>
<!-- Node1&#45;&gt;Node2 -->
<g id="edge1" class="edge">
<title>Node1&#45;&gt;Node2</title>
<path fill="none" stroke="#63b8ff" d="M389.95,-235.85C335.35,-229.89 228.63,-216.51 140,-195 137.87,-194.48 135.7,-193.91 133.51,-193.29"/>
<polygon fill="#63b8ff" stroke="#63b8ff" points="134.71,-190 124.12,-190.43 132.66,-196.7 134.71,-190"/>
</g>
<!-- Node3 -->
<g id="node3" class="node">
<title>Node3</title>
<g id="a_node3"><a xlink:href="ProcessHmiInputs_8hpp.xhtml" target="_top" xlink:title=" ">
<polygon fill="white" stroke="#666666" points="408,-189.5 292,-189.5 292,-170.5 408,-170.5 408,-189.5"/>
<text text-anchor="middle" x="350" y="-177.5" font-family="Helvetica,sans-Serif" font-size="10.00">ProcessHmiInputs.hpp</text>
</a>
</g>
</g>
<!-- Node1&#45;&gt;Node3 -->
<g id="edge2" class="edge">
<title>Node1&#45;&gt;Node3</title>
<path fill="none" stroke="#63b8ff" d="M414.46,-230.62C402.85,-221.68 384.71,-207.72 370.62,-196.87"/>
<polygon fill="#63b8ff" stroke="#63b8ff" points="372.91,-194.22 362.85,-190.89 368.64,-199.76 372.91,-194.22"/>
</g>
<!-- Node10 -->
<g id="node10" class="node">
<title>Node10</title>
<g id="a_node10"><a xlink:href="controller__factory__interface_8hpp.xhtml" target="_top" xlink:title=" ">
<polygon fill="white" stroke="#666666" points="273.5,-195 182.5,-195 182.5,-165 273.5,-165 273.5,-195"/>
<text text-anchor="start" x="190.5" y="-183" font-family="Helvetica,sans-Serif" font-size="10.00">controller_factory</text>
<text text-anchor="middle" x="228" y="-172" font-family="Helvetica,sans-Serif" font-size="10.00">_interface.hpp</text>
</a>
</g>
</g>
<!-- Node1&#45;&gt;Node10 -->
<g id="edge9" class="edge">
<title>Node1&#45;&gt;Node10</title>
<path fill="none" stroke="#63b8ff" d="M395.93,-230.62C366.52,-221.93 320.99,-208.47 284.76,-197.77"/>
<polygon fill="#63b8ff" stroke="#63b8ff" points="285.87,-194.45 275.29,-194.97 283.89,-201.16 285.87,-194.45"/>
</g>
<!-- Node11 -->
<g id="node11" class="node">
<title>Node11</title>
<g id="a_node11"><a xlink:title=" ">
<polygon fill="#e0e0e0" stroke="#999999" points="650,-189.5 596,-189.5 596,-170.5 650,-170.5 650,-189.5"/>
<text text-anchor="middle" x="623" y="-177.5" font-family="Helvetica,sans-Serif" font-size="10.00">display.h</text>
</a>
</g>
</g>
<!-- Node1&#45;&gt;Node11 -->
<g id="edge11" class="edge">
<title>Node1&#45;&gt;Node11</title>
<path fill="none" stroke="#63b8ff" d="M462.44,-230.55C495.28,-222.22 544.75,-209.01 587,-195 588.15,-194.62 589.31,-194.22 590.48,-193.82"/>
<polygon fill="#63b8ff" stroke="#63b8ff" points="591.44,-197.19 599.62,-190.47 589.03,-190.62 591.44,-197.19"/>
</g>
<!-- Node12 -->
<g id="node12" class="node">
<title>Node12</title>
<g id="a_node12"><a xlink:href="presenter__factory__interface_8hpp.xhtml" target="_top" xlink:title=" ">
<polygon fill="white" stroke="#666666" points="578,-189.5 426,-189.5 426,-170.5 578,-170.5 578,-189.5"/>
<text text-anchor="middle" x="502" y="-177.5" font-family="Helvetica,sans-Serif" font-size="10.00">presenter_factory_interface.hpp</text>
</a>
</g>
</g>
<!-- Node1&#45;&gt;Node12 -->
<g id="edge12" class="edge">
<title>Node1&#45;&gt;Node12</title>
<path fill="none" stroke="#63b8ff" d="M437.54,-230.62C449.15,-221.68 467.29,-207.72 481.38,-196.87"/>
<polygon fill="#63b8ff" stroke="#63b8ff" points="483.36,-199.76 489.15,-190.89 479.09,-194.22 483.36,-199.76"/>
</g>
<!-- Node13 -->
<g id="node13" class="node">
<title>Node13</title>
<g id="a_node13"><a xlink:href="serial__port_8hpp.xhtml" target="_top" xlink:title=" ">
<polygon fill="white" stroke="#666666" points="194,-129 114,-129 114,-110 194,-110 194,-129"/>
<text text-anchor="middle" x="154" y="-117" font-family="Helvetica,sans-Serif" font-size="10.00">serial_port.hpp</text>
</a>
</g>
</g>
<!-- Node1&#45;&gt;Node13 -->
<g id="edge14" class="edge">
<title>Node1&#45;&gt;Node13</title>
<path fill="none" stroke="#63b8ff" d="M389.93,-237.87C327.73,-234.31 203.99,-223.73 173,-195 158.18,-181.26 154.24,-157.71 153.5,-140.77"/>
<polygon fill="#63b8ff" stroke="#63b8ff" points="157,-140.85 153.44,-130.88 150,-140.9 157,-140.85"/>
</g>
<!-- Node17 -->
<g id="node17" class="node">
<title>Node17</title>
<g id="a_node17"><a xlink:title=" ">
<polygon fill="#e0e0e0" stroke="#999999" points="725.5,-189.5 668.5,-189.5 668.5,-170.5 725.5,-170.5 725.5,-189.5"/>
<text text-anchor="middle" x="697" y="-177.5" font-family="Helvetica,sans-Serif" font-size="10.00">Arduino.h</text>
</a>
</g>
</g>
<!-- Node1&#45;&gt;Node17 -->
<g id="edge20" class="edge">
<title>Node1&#45;&gt;Node17</title>
<path fill="none" stroke="#63b8ff" d="M462.35,-234.45C508.55,-227.6 590.55,-214.01 659,-195 660.61,-194.55 662.25,-194.07 663.89,-193.56"/>
<polygon fill="#63b8ff" stroke="#63b8ff" points="664.91,-196.91 673.26,-190.39 662.67,-190.28 664.91,-196.91"/>
</g>
<!-- Node18 -->
<g id="node18" class="node">
<title>Node18</title>
<g id="a_node18"><a xlink:href="Protocol_8hpp.xhtml" target="_top" xlink:title=" ">
<polygon fill="white" stroke="#666666" points="814.5,-189.5 743.5,-189.5 743.5,-170.5 814.5,-170.5 814.5,-189.5"/>
<text text-anchor="middle" x="779" y="-177.5" font-family="Helvetica,sans-Serif" font-size="10.00">Protocol.hpp</text>
</a>
</g>
</g>
<!-- Node1&#45;&gt;Node18 -->
<g id="edge21" class="edge">
<title>Node1&#45;&gt;Node18</title>
<path fill="none" stroke="#63b8ff" d="M462.04,-236.26C520.06,-230.61 637.53,-217.36 735,-195 737.48,-194.43 740.01,-193.79 742.56,-193.1"/>
<polygon fill="#63b8ff" stroke="#63b8ff" points="743.54,-196.46 752.15,-190.29 741.57,-189.74 743.54,-196.46"/>
</g>
<!-- Node4 -->
<g id="node4" class="node">
<title>Node4</title>
<g id="a_node4"><a xlink:href="IController_8hpp.xhtml" target="_top" xlink:title=" ">
<polygon fill="white" stroke="#666666" points="333.5,-129 254.5,-129 254.5,-110 333.5,-110 333.5,-129"/>
<text text-anchor="middle" x="294" y="-117" font-family="Helvetica,sans-Serif" font-size="10.00">IController.hpp</text>
</a>
</g>
</g>
<!-- Node3&#45;&gt;Node4 -->
<g id="edge3" class="edge">
<title>Node3&#45;&gt;Node4</title>
<path fill="none" stroke="#63b8ff" d="M341.74,-170.37C333.47,-161.73 320.52,-148.2 310.19,-137.42"/>
<polygon fill="#63b8ff" stroke="#63b8ff" points="312.79,-135.06 303.34,-130.26 307.73,-139.9 312.79,-135.06"/>
</g>
<!-- Node8 -->
<g id="node8" class="node">
<title>Node8</title>
<g id="a_node8"><a xlink:href="IPresenter_8hpp.xhtml" target="_top" xlink:title=" ">
<polygon fill="white" stroke="#666666" points="494,-129 414,-129 414,-110 494,-110 494,-129"/>
<text text-anchor="middle" x="454" y="-117" font-family="Helvetica,sans-Serif" font-size="10.00">IPresenter.hpp</text>
</a>
</g>
</g>
<!-- Node3&#45;&gt;Node8 -->
<g id="edge7" class="edge">
<title>Node3&#45;&gt;Node8</title>
<path fill="none" stroke="#63b8ff" d="M365.8,-170.12C382.36,-160.79 408.67,-146 428.25,-134.99"/>
<polygon fill="#63b8ff" stroke="#63b8ff" points="429.74,-138.16 436.74,-130.21 426.31,-132.06 429.74,-138.16"/>
</g>
<!-- Node5 -->
<g id="node5" class="node">
<title>Node5</title>
<g id="a_node5"><a xlink:href="KeyIds_8hpp.xhtml" target="_top" xlink:title=" ">
<polygon fill="white" stroke="#666666" points="364.5,-74 299.5,-74 299.5,-55 364.5,-55 364.5,-74"/>
<text text-anchor="middle" x="332" y="-62" font-family="Helvetica,sans-Serif" font-size="10.00">KeyIds.hpp</text>
</a>
</g>
</g>
<!-- Node4&#45;&gt;Node5 -->
<g id="edge4" class="edge">
<title>Node4&#45;&gt;Node5</title>
<path fill="none" stroke="#63b8ff" d="M300.27,-109.75C305.36,-102.66 312.7,-92.42 319.03,-83.59"/>
<polygon fill="#63b8ff" stroke="#63b8ff" points="321.72,-85.84 324.71,-75.67 316.04,-81.76 321.72,-85.84"/>
</g>
<!-- Node7 -->
<g id="node7" class="node">
<title>Node7</title>
<g id="a_node7"><a xlink:title=" ">
<polygon fill="#e0e0e0" stroke="#999999" points="281,-74 231,-74 231,-55 281,-55 281,-74"/>
<text text-anchor="middle" x="256" y="-62" font-family="Helvetica,sans-Serif" font-size="10.00">optional</text>
</a>
</g>
</g>
<!-- Node4&#45;&gt;Node7 -->
<g id="edge6" class="edge">
<title>Node4&#45;&gt;Node7</title>
<path fill="none" stroke="#63b8ff" d="M287.73,-109.75C282.64,-102.66 275.3,-92.42 268.97,-83.59"/>
<polygon fill="#63b8ff" stroke="#63b8ff" points="271.96,-81.76 263.29,-75.67 266.28,-85.84 271.96,-81.76"/>
</g>
<!-- Node6 -->
<g id="node6" class="node">
<title>Node6</title>
<g id="a_node6"><a xlink:title=" ">
<polygon fill="#e0e0e0" stroke="#999999" points="293,-19 241,-19 241,0 293,0 293,-19"/>
<text text-anchor="middle" x="267" y="-7" font-family="Helvetica,sans-Serif" font-size="10.00">ostream</text>
</a>
</g>
</g>
<!-- Node5&#45;&gt;Node6 -->
<g id="edge5" class="edge">
<title>Node5&#45;&gt;Node6</title>
<path fill="none" stroke="#63b8ff" d="M320.97,-54.51C311.58,-46.85 297.85,-35.66 286.59,-26.47"/>
<polygon fill="#63b8ff" stroke="#63b8ff" points="289,-23.92 279.04,-20.31 284.57,-29.35 289,-23.92"/>
</g>
<!-- Node9 -->
<g id="node9" class="node">
<title>Node9</title>
<g id="a_node9"><a xlink:title=" ">
<polygon fill="#e0e0e0" stroke="#999999" points="478.5,-74 429.5,-74 429.5,-55 478.5,-55 478.5,-74"/>
<text text-anchor="middle" x="454" y="-62" font-family="Helvetica,sans-Serif" font-size="10.00">cstddef</text>
</a>
</g>
</g>
<!-- Node8&#45;&gt;Node9 -->
<g id="edge8" class="edge">
<title>Node8&#45;&gt;Node9</title>
<path fill="none" stroke="#63b8ff" d="M454,-109.75C454,-103.27 454,-94.16 454,-85.9"/>
<polygon fill="#63b8ff" stroke="#63b8ff" points="457.5,-85.96 454,-75.96 450.5,-85.96 457.5,-85.96"/>
</g>
<!-- Node10&#45;&gt;Node4 -->
<g id="edge10" class="edge">
<title>Node10&#45;&gt;Node4</title>
<path fill="none" stroke="#63b8ff" d="M244.31,-164.54C253.8,-156.13 265.79,-145.51 275.61,-136.8"/>
<polygon fill="#63b8ff" stroke="#63b8ff" points="277.92,-139.43 283.08,-130.18 273.27,-134.19 277.92,-139.43"/>
</g>
<!-- Node12&#45;&gt;Node8 -->
<g id="edge13" class="edge">
<title>Node12&#45;&gt;Node8</title>
<path fill="none" stroke="#63b8ff" d="M494.92,-170.37C487.97,-161.9 477.17,-148.74 468.41,-138.07"/>
<polygon fill="#63b8ff" stroke="#63b8ff" points="471.12,-135.85 462.07,-130.34 465.71,-140.29 471.12,-135.85"/>
</g>
<!-- Node13&#45;&gt;Node6 -->
<g id="edge18" class="edge">
<title>Node13&#45;&gt;Node6</title>
<path fill="none" stroke="#63b8ff" d="M163.25,-109.66C182.12,-91.62 225.33,-50.32 249.62,-27.12"/>
<polygon fill="#63b8ff" stroke="#63b8ff" points="251.72,-29.95 256.53,-20.51 246.88,-24.89 251.72,-29.95"/>
</g>
<!-- Node13&#45;&gt;Node7 -->
<g id="edge17" class="edge">
<title>Node13&#45;&gt;Node7</title>
<path fill="none" stroke="#63b8ff" d="M171.3,-109.51C187.08,-101.31 210.64,-89.07 228.91,-79.58"/>
<polygon fill="#63b8ff" stroke="#63b8ff" points="230.35,-82.77 237.61,-75.06 227.12,-76.56 230.35,-82.77"/>
</g>
<!-- Node14 -->
<g id="node14" class="node">
<title>Node14</title>
<g id="a_node14"><a xlink:title=" ">
<polygon fill="#e0e0e0" stroke="#999999" points="38,-74 0,-74 0,-55 38,-55 38,-74"/>
<text text-anchor="middle" x="19" y="-62" font-family="Helvetica,sans-Serif" font-size="10.00">array</text>
</a>
</g>
</g>
<!-- Node13&#45;&gt;Node14 -->
<g id="edge15" class="edge">
<title>Node13&#45;&gt;Node14</title>
<path fill="none" stroke="#63b8ff" d="M131.1,-109.51C108.4,-100.6 73.51,-86.9 48.69,-77.16"/>
<polygon fill="#63b8ff" stroke="#63b8ff" points="50.07,-73.94 39.49,-73.54 47.52,-80.46 50.07,-73.94"/>
</g>
<!-- Node15 -->
<g id="node15" class="node">
<title>Node15</title>
<g id="a_node15"><a xlink:title=" ">
<polygon fill="#e0e0e0" stroke="#999999" points="115.5,-74 56.5,-74 56.5,-55 115.5,-55 115.5,-74"/>
<text text-anchor="middle" x="86" y="-62" font-family="Helvetica,sans-Serif" font-size="10.00">functional</text>
</a>
</g>
</g>
<!-- Node13&#45;&gt;Node15 -->
<g id="edge16" class="edge">
<title>Node13&#45;&gt;Node15</title>
<path fill="none" stroke="#63b8ff" d="M142.46,-109.51C132.54,-101.77 117.99,-90.43 106.14,-81.2"/>
<polygon fill="#63b8ff" stroke="#63b8ff" points="108.6,-78.68 98.56,-75.29 104.29,-84.2 108.6,-78.68"/>
</g>
<!-- Node16 -->
<g id="node16" class="node">
<title>Node16</title>
<g id="a_node16"><a xlink:title=" ">
<polygon fill="#e0e0e0" stroke="#999999" points="174.5,-74 133.5,-74 133.5,-55 174.5,-55 174.5,-74"/>
<text text-anchor="middle" x="154" y="-62" font-family="Helvetica,sans-Serif" font-size="10.00">string</text>
</a>
</g>
</g>
<!-- Node13&#45;&gt;Node16 -->
<g id="edge19" class="edge">
<title>Node13&#45;&gt;Node16</title>
<path fill="none" stroke="#63b8ff" d="M154,-109.75C154,-103.27 154,-94.16 154,-85.9"/>
<polygon fill="#63b8ff" stroke="#63b8ff" points="157.5,-85.96 154,-75.96 150.5,-85.96 157.5,-85.96"/>
</g>
</g>
</svg>
