<?xml version="1.0" encoding="UTF-8" standalone="no"?>
<!DOCTYPE svg PUBLIC "-//W3C//DTD SVG 1.1//EN"
 "http://www.w3.org/Graphics/SVG/1.1/DTD/svg11.dtd">
<!-- Generated by graphviz version 9.0.0 (20230911.1827)
 -->
<!-- Title: src/main.cpp Pages: 1 -->
<svg width="632pt" height="260pt"
 viewBox="0.00 0.00 631.75 259.50" xmlns="http://www.w3.org/2000/svg" xmlns:xlink="http://www.w3.org/1999/xlink">
<g id="graph0" class="graph" transform="scale(1 1) rotate(0) translate(4 255.5)">
<title>src/main.cpp</title>
<!-- Node1 -->
<g id="Node000001" class="node">
<title>Node1</title>
<g id="a_Node000001"><a xlink:title=" ">
<polygon fill="#999999" stroke="#666666" points="350.25,-251.5 278.75,-251.5 278.75,-232.25 350.25,-232.25 350.25,-251.5"/>
<text text-anchor="middle" x="314.5" y="-238" font-family="Helvetica,sans-Serif" font-size="10.00">src/main.cpp</text>
</a>
</g>
</g>
<!-- Node2 -->
<g id="Node000002" class="node">
<title>Node2</title>
<g id="a_Node000002"><a xlink:href="main_8hpp.xhtml" target="_top" xlink:title=" ">
<polygon fill="white" stroke="#666666" points="55,-190.62 0,-190.62 0,-171.38 55,-171.38 55,-190.62"/>
<text text-anchor="middle" x="27.5" y="-177.12" font-family="Helvetica,sans-Serif" font-size="10.00">main.hpp</text>
</a>
</g>
</g>
<!-- Node1&#45;&gt;Node2 -->
<g id="edge1_Node000001_Node000002" class="edge">
<title>Node1&#45;&gt;Node2</title>
<g id="a_edge1_Node000001_Node000002"><a xlink:title=" ">
<path fill="none" stroke="#63b8ff" d="M278.41,-236.64C229.38,-230.38 139.24,-217.11 64.5,-196.25 62.88,-195.8 61.24,-195.3 59.59,-194.78"/>
<polygon fill="#63b8ff" stroke="#63b8ff" points="60.81,-191.5 50.22,-191.49 58.5,-198.11 60.81,-191.5"/>
</a>
</g>
</g>
<!-- Node3 -->
<g id="Node000003" class="node">
<title>Node3</title>
<g id="a_Node000003"><a xlink:href="ProcessHmiInputs_8hpp.xhtml" target="_top" xlink:title=" ">
<polygon fill="white" stroke="#666666" points="297,-190.62 182,-190.62 182,-171.38 297,-171.38 297,-190.62"/>
<text text-anchor="middle" x="239.5" y="-177.12" font-family="Helvetica,sans-Serif" font-size="10.00">ProcessHmiInputs.hpp</text>
</a>
</g>
</g>
<!-- Node1&#45;&gt;Node3 -->
<g id="edge2_Node000001_Node000003" class="edge">
<title>Node1&#45;&gt;Node3</title>
<g id="a_edge2_Node000001_Node000003"><a xlink:title=" ">
<path fill="none" stroke="#63b8ff" d="M303.11,-231.93C291.66,-222.94 273.75,-208.89 259.85,-197.98"/>
<polygon fill="#63b8ff" stroke="#63b8ff" points="262.22,-195.38 252.19,-191.96 257.89,-200.89 262.22,-195.38"/>
</a>
</g>
</g>
<!-- Node10 -->
<g id="Node000010" class="node">
<title>Node10</title>
<g id="a_Node000010"><a xlink:href="controller__factory__interface_8hpp.xhtml" target="_top" xlink:title=" ">
<polygon fill="white" stroke="#666666" points="163.62,-196.25 73.38,-196.25 73.38,-165.75 163.62,-165.75 163.62,-196.25"/>
<text text-anchor="start" x="81.38" y="-182.75" font-family="Helvetica,sans-Serif" font-size="10.00">controller_factory</text>
<text text-anchor="middle" x="118.5" y="-171.5" font-family="Helvetica,sans-Serif" font-size="10.00">_interface.hpp</text>
</a>
</g>
</g>
<!-- Node1&#45;&gt;Node10 -->
<g id="edge9_Node000001_Node000010" class="edge">
<title>Node1&#45;&gt;Node10</title>
<g id="a_edge9_Node000001_Node000010"><a xlink:title=" ">
<path fill="none" stroke="#63b8ff" d="M284.3,-231.8C255.21,-223.06 210.47,-209.63 174.79,-198.91"/>
<polygon fill="#63b8ff" stroke="#63b8ff" points="176.07,-195.64 165.49,-196.12 174.06,-202.34 176.07,-195.64"/>
</a>
</g>
</g>
<!-- Node11 -->
<g id="Node000011" class="node">
<title>Node11</title>
<g id="a_Node000011"><a xlink:href="logging_8hpp.xhtml" target="_top" xlink:title=" ">
<polygon fill="white" stroke="#666666" points="548.88,-190.62 484.12,-190.62 484.12,-171.38 548.88,-171.38 548.88,-190.62"/>
<text text-anchor="middle" x="516.5" y="-177.12" font-family="Helvetica,sans-Serif" font-size="10.00">logging.hpp</text>
</a>
</g>
</g>
<!-- Node1&#45;&gt;Node11 -->
<g id="edge11_Node000001_Node000011" class="edge">
<title>Node1&#45;&gt;Node11</title>
<g id="a_edge11_Node000001_Node000011"><a xlink:title=" ">
<path fill="none" stroke="#63b8ff" d="M349.87,-231.77C382.61,-223.18 432.58,-209.64 475.5,-196.25 477.28,-195.69 479.1,-195.11 480.93,-194.52"/>
<polygon fill="#63b8ff" stroke="#63b8ff" points="481.63,-197.98 490,-191.48 479.4,-191.34 481.63,-197.98"/>
</a>
</g>
</g>
<!-- Node13 -->
<g id="Node000013" class="node">
<title>Node13</title>
<g id="a_Node000013"><a xlink:href="presenter__factory__interface_8hpp.xhtml" target="_top" xlink:title=" ">
<polygon fill="white" stroke="#666666" points="466.38,-190.62 314.62,-190.62 314.62,-171.38 466.38,-171.38 466.38,-190.62"/>
<text text-anchor="middle" x="390.5" y="-177.12" font-family="Helvetica,sans-Serif" font-size="10.00">presenter_factory_interface.hpp</text>
</a>
</g>
</g>
<!-- Node1&#45;&gt;Node13 -->
<g id="edge14_Node000001_Node000013" class="edge">
<title>Node1&#45;&gt;Node13</title>
<g id="a_edge14_Node000001_Node000013"><a xlink:title=" ">
<path fill="none" stroke="#63b8ff" d="M326.04,-231.93C337.65,-222.94 355.79,-208.89 369.88,-197.98"/>
<polygon fill="#63b8ff" stroke="#63b8ff" points="371.89,-200.84 377.65,-191.95 367.6,-195.31 371.89,-200.84"/>
</a>
</g>
</g>
<!-- Node14 -->
<g id="Node000014" class="node">
<title>Node14</title>
<g id="a_Node000014"><a xlink:title=" ">
<polygon fill="#e0e0e0" stroke="#999999" points="623.75,-190.62 567.25,-190.62 567.25,-171.38 623.75,-171.38 623.75,-190.62"/>
<text text-anchor="middle" x="595.5" y="-177.12" font-family="Helvetica,sans-Serif" font-size="10.00">Arduino.h</text>
</a>
</g>
</g>
<!-- Node1&#45;&gt;Node14 -->
<g id="edge16_Node000001_Node000014" class="edge">
<title>Node1&#45;&gt;Node14</title>
<g id="a_edge16_Node000001_Node000014"><a xlink:title=" ">
<path fill="none" stroke="#63b8ff" d="M350.36,-236.32C398.17,-229.78 485.16,-216.29 557.5,-196.25 559.11,-195.8 560.75,-195.32 562.4,-194.8"/>
<polygon fill="#63b8ff" stroke="#63b8ff" points="563.45,-198.14 571.78,-191.6 561.19,-191.52 563.45,-198.14"/>
</a>
</g>
</g>
<!-- Node4 -->
<g id="Node000004" class="node">
<title>Node4</title>
<g id="a_Node000004"><a xlink:href="IController_8hpp.xhtml" target="_top" xlink:title=" ">
<polygon fill="white" stroke="#666666" points="278.62,-129.75 200.38,-129.75 200.38,-110.5 278.62,-110.5 278.62,-129.75"/>
<text text-anchor="middle" x="239.5" y="-116.25" font-family="Helvetica,sans-Serif" font-size="10.00">IController.hpp</text>
</a>
</g>
</g>
<!-- Node3&#45;&gt;Node4 -->
<g id="edge3_Node000003_Node000004" class="edge">
<title>Node3&#45;&gt;Node4</title>
<g id="a_edge3_Node000003_Node000004"><a xlink:title=" ">
<path fill="none" stroke="#63b8ff" d="M239.5,-171.06C239.5,-163.28 239.5,-151.7 239.5,-141.66"/>
<polygon fill="#63b8ff" stroke="#63b8ff" points="243,-141.66 239.5,-131.66 236,-141.66 243,-141.66"/>
</a>
</g>
</g>
<!-- Node8 -->
<g id="Node000008" class="node">
<title>Node8</title>
<g id="a_Node000008"><a xlink:href="IPresenter_8hpp.xhtml" target="_top" xlink:title=" ">
<polygon fill="white" stroke="#666666" points="426,-129.75 347,-129.75 347,-110.5 426,-110.5 426,-129.75"/>
<text text-anchor="middle" x="386.5" y="-116.25" font-family="Helvetica,sans-Serif" font-size="10.00">IPresenter.hpp</text>
</a>
</g>
</g>
<!-- Node3&#45;&gt;Node8 -->
<g id="edge7_Node000003_Node000008" class="edge">
<title>Node3&#45;&gt;Node8</title>
<g id="a_edge7_Node000003_Node000008"><a xlink:title=" ">
<path fill="none" stroke="#63b8ff" d="M262.15,-170.93C286.6,-161.13 325.8,-145.44 353.64,-134.29"/>
<polygon fill="#63b8ff" stroke="#63b8ff" points="354.68,-137.64 362.66,-130.67 352.08,-131.14 354.68,-137.64"/>
</a>
</g>
</g>
<!-- Node5 -->
<g id="Node000005" class="node">
<title>Node5</title>
<g id="a_Node000005"><a xlink:href="KeyIds_8hpp.xhtml" target="_top" xlink:title=" ">
<polygon fill="white" stroke="#666666" points="271.5,-74.5 207.5,-74.5 207.5,-55.25 271.5,-55.25 271.5,-74.5"/>
<text text-anchor="middle" x="239.5" y="-61" font-family="Helvetica,sans-Serif" font-size="10.00">KeyIds.hpp</text>
</a>
</g>
</g>
<!-- Node4&#45;&gt;Node5 -->
<g id="edge4_Node000004_Node000005" class="edge">
<title>Node4&#45;&gt;Node5</title>
<g id="a_edge4_Node000004_Node000005"><a xlink:title=" ">
<path fill="none" stroke="#63b8ff" d="M239.5,-110.33C239.5,-103.82 239.5,-94.67 239.5,-86.37"/>
<polygon fill="#63b8ff" stroke="#63b8ff" points="243,-86.37 239.5,-76.37 236,-86.37 243,-86.37"/>
</a>
</g>
</g>
<!-- Node7 -->
<g id="Node000007" class="node">
<title>Node7</title>
<g id="a_Node000007"><a xlink:title=" ">
<polygon fill="#e0e0e0" stroke="#999999" points="339.38,-74.5 289.62,-74.5 289.62,-55.25 339.38,-55.25 339.38,-74.5"/>
<text text-anchor="middle" x="314.5" y="-61" font-family="Helvetica,sans-Serif" font-size="10.00">optional</text>
</a>
</g>
</g>
<!-- Node4&#45;&gt;Node7 -->
<g id="edge6_Node000004_Node000007" class="edge">
<title>Node4&#45;&gt;Node7</title>
<g id="a_edge6_Node000004_Node000007"><a xlink:title=" ">
<path fill="none" stroke="#63b8ff" d="M252.22,-110.09C263.21,-102.29 279.34,-90.84 292.43,-81.54"/>
<polygon fill="#63b8ff" stroke="#63b8ff" points="294.35,-84.47 300.48,-75.83 290.3,-78.76 294.35,-84.47"/>
</a>
</g>
</g>
<!-- Node6 -->
<g id="Node000006" class="node">
<title>Node6</title>
<g id="a_Node000006"><a xlink:title=" ">
<polygon fill="#e0e0e0" stroke="#999999" points="380.12,-19.25 328.88,-19.25 328.88,0 380.12,0 380.12,-19.25"/>
<text text-anchor="middle" x="354.5" y="-5.75" font-family="Helvetica,sans-Serif" font-size="10.00">ostream</text>
</a>
</g>
</g>
<!-- Node5&#45;&gt;Node6 -->
<g id="edge5_Node000005_Node000006" class="edge">
<title>Node5&#45;&gt;Node6</title>
<g id="a_edge5_Node000005_Node000006"><a xlink:title=" ">
<path fill="none" stroke="#63b8ff" d="M259.01,-54.84C277.02,-46.5 304.02,-34 324.73,-24.41"/>
<polygon fill="#63b8ff" stroke="#63b8ff" points="325.92,-27.72 333.52,-20.34 322.98,-21.36 325.92,-27.72"/>
</a>
</g>
</g>
<!-- Node9 -->
<g id="Node000009" class="node">
<title>Node9</title>
<g id="a_Node000009"><a xlink:title=" ">
<polygon fill="#e0e0e0" stroke="#999999" points="410.62,-74.5 362.38,-74.5 362.38,-55.25 410.62,-55.25 410.62,-74.5"/>
<text text-anchor="middle" x="386.5" y="-61" font-family="Helvetica,sans-Serif" font-size="10.00">cstddef</text>
</a>
</g>
</g>
<!-- Node8&#45;&gt;Node9 -->
<g id="edge8_Node000008_Node000009" class="edge">
<title>Node8&#45;&gt;Node9</title>
<g id="a_edge8_Node000008_Node000009"><a xlink:title=" ">
<path fill="none" stroke="#63b8ff" d="M386.5,-110.33C386.5,-103.82 386.5,-94.67 386.5,-86.37"/>
<polygon fill="#63b8ff" stroke="#63b8ff" points="390,-86.37 386.5,-76.37 383,-86.37 390,-86.37"/>
</a>
</g>
</g>
<!-- Node10&#45;&gt;Node4 -->
<g id="edge10_Node000010_Node000004" class="edge">
<title>Node10&#45;&gt;Node4</title>
<g id="a_edge10_Node000010_Node000004"><a xlink:title=" ">
<path fill="none" stroke="#63b8ff" d="M148.72,-165.3C167.68,-156.07 191.98,-144.25 210.67,-135.15"/>
<polygon fill="#63b8ff" stroke="#63b8ff" points="212.12,-138.34 219.58,-130.82 209.06,-132.04 212.12,-138.34"/>
</a>
</g>
</g>
<!-- Node11&#45;&gt;Node6 -->
<g id="edge13_Node000011_Node000006" class="edge">
<title>Node11&#45;&gt;Node6</title>
<g id="a_edge13_Node000011_Node000006"><a xlink:title=" ">
<path fill="none" stroke="#63b8ff" d="M510.96,-171.08C497.28,-149.51 460.03,-93.45 419.5,-55.25 407.55,-43.99 392.53,-33.49 379.94,-25.5"/>
<polygon fill="#63b8ff" stroke="#63b8ff" points="382.11,-22.73 371.76,-20.46 378.44,-28.69 382.11,-22.73"/>
</a>
</g>
</g>
<!-- Node12 -->
<g id="Node000012" class="node">
<title>Node12</title>
<g id="a_Node000012"><a xlink:title=" ">
<polygon fill="#e0e0e0" stroke="#999999" points="535,-129.75 498,-129.75 498,-110.5 535,-110.5 535,-129.75"/>
<text text-anchor="middle" x="516.5" y="-116.25" font-family="Helvetica,sans-Serif" font-size="10.00">array</text>
</a>
</g>
</g>
<!-- Node11&#45;&gt;Node12 -->
<g id="edge12_Node000011_Node000012" class="edge">
<title>Node11&#45;&gt;Node12</title>
<g id="a_edge12_Node000011_Node000012"><a xlink:title=" ">
<path fill="none" stroke="#63b8ff" d="M516.5,-171.06C516.5,-163.28 516.5,-151.7 516.5,-141.66"/>
<polygon fill="#63b8ff" stroke="#63b8ff" points="520,-141.66 516.5,-131.66 513,-141.66 520,-141.66"/>
</a>
</g>
</g>
<!-- Node13&#45;&gt;Node8 -->
<g id="edge15_Node000013_Node000008" class="edge">
<title>Node13&#45;&gt;Node8</title>
<g id="a_edge15_Node000013_Node000008"><a xlink:title=" ">
<path fill="none" stroke="#63b8ff" d="M389.89,-171.06C389.36,-163.19 388.56,-151.45 387.87,-141.32"/>
<polygon fill="#63b8ff" stroke="#63b8ff" points="391.39,-141.4 387.22,-131.66 384.4,-141.88 391.39,-141.4"/>
</a>
</g>
</g>
</g>
</svg>
