<?xml version="1.0" encoding="UTF-8" standalone="no"?>
<!DOCTYPE svg PUBLIC "-//W3C//DTD SVG 1.1//EN"
 "http://www.w3.org/Graphics/SVG/1.1/DTD/svg11.dtd">
<!-- Generated by graphviz version 7.0.5 (20221223.1930)
 -->
<!-- Title: src/main.cpp Pages: 1 -->
<svg width="1198pt" height="313pt"
 viewBox="0.00 0.00 1197.50 313.00" xmlns="http://www.w3.org/2000/svg" xmlns:xlink="http://www.w3.org/1999/xlink">
<g id="graph0" class="graph" transform="scale(1 1) rotate(0) translate(4 309)">
<title>src/main.cpp</title>
<!-- Node1 -->
<g id="node1" class="node">
<title>Node1</title>
<g id="a_node1"><a xlink:title=" ">
<polygon fill="#999999" stroke="#666666" points="647.5,-305 575.5,-305 575.5,-286 647.5,-286 647.5,-305"/>
<text text-anchor="middle" x="611.5" y="-293" font-family="Helvetica,sans-Serif" font-size="10.00">src/main.cpp</text>
</a>
</g>
</g>
<!-- Node2 -->
<g id="node2" class="node">
<title>Node2</title>
<g id="a_node2"><a xlink:href="main_8hpp.xhtml" target="_top" xlink:title=" ">
<polygon fill="white" stroke="#666666" points="101.5,-250 45.5,-250 45.5,-231 101.5,-231 101.5,-250"/>
<text text-anchor="middle" x="73.5" y="-238" font-family="Helvetica,sans-Serif" font-size="10.00">main.hpp</text>
</a>
</g>
</g>
<!-- Node1&#45;&gt;Node2 -->
<g id="edge1" class="edge">
<title>Node1&#45;&gt;Node2</title>
<path fill="none" stroke="#63b8ff" d="M575.24,-292.62C493.09,-288.06 286.61,-274.91 115.5,-250 114.67,-249.88 113.84,-249.75 112.99,-249.62"/>
<polygon fill="#63b8ff" stroke="#63b8ff" points="113.84,-246.22 103.38,-247.95 112.63,-253.11 113.84,-246.22"/>
</g>
<!-- Node3 -->
<g id="node3" class="node">
<title>Node3</title>
<g id="a_node3"><a xlink:href="Controller_8hpp.xhtml" target="_top" xlink:title=" ">
<polygon fill="white" stroke="#666666" points="372.5,-189.5 296.5,-189.5 296.5,-170.5 372.5,-170.5 372.5,-189.5"/>
<text text-anchor="middle" x="334.5" y="-177.5" font-family="Helvetica,sans-Serif" font-size="10.00">Controller.hpp</text>
</a>
</g>
</g>
<!-- Node1&#45;&gt;Node3 -->
<g id="edge2" class="edge">
<title>Node1&#45;&gt;Node3</title>
<path fill="none" stroke="#63b8ff" d="M575.14,-293.29C510.69,-290.37 380.24,-280.72 348.5,-250 335.6,-237.51 332.89,-216.64 332.93,-201.12"/>
<polygon fill="#63b8ff" stroke="#63b8ff" points="336.43,-201.29 333.38,-191.15 329.43,-200.98 336.43,-201.29"/>
</g>
<!-- Node8 -->
<g id="node8" class="node">
<title>Node8</title>
<g id="a_node8"><a xlink:href="Display_8hpp.xhtml" target="_top" xlink:title=" ">
<polygon fill="white" stroke="#666666" points="804.5,-250 738.5,-250 738.5,-231 804.5,-231 804.5,-250"/>
<text text-anchor="middle" x="771.5" y="-238" font-family="Helvetica,sans-Serif" font-size="10.00">Display.hpp</text>
</a>
</g>
</g>
<!-- Node1&#45;&gt;Node8 -->
<g id="edge8" class="edge">
<title>Node1&#45;&gt;Node8</title>
<path fill="none" stroke="#63b8ff" d="M638.64,-285.51C664.81,-276.84 704.64,-263.65 733.86,-253.97"/>
<polygon fill="#63b8ff" stroke="#63b8ff" points="734.66,-257.39 743.06,-250.92 732.46,-250.74 734.66,-257.39"/>
</g>
<!-- Node14 -->
<g id="node14" class="node">
<title>Node14</title>
<g id="a_node14"><a xlink:href="Menu_8hpp.xhtml" target="_top" xlink:title=" ">
<polygon fill="white" stroke="#666666" points="604,-129 545,-129 545,-110 604,-110 604,-129"/>
<text text-anchor="middle" x="574.5" y="-117" font-family="Helvetica,sans-Serif" font-size="10.00">Menu.hpp</text>
</a>
</g>
</g>
<!-- Node1&#45;&gt;Node14 -->
<g id="edge14" class="edge">
<title>Node1&#45;&gt;Node14</title>
<path fill="none" stroke="#63b8ff" d="M620.52,-285.83C631.76,-273.93 648.76,-251.67 642.5,-231 636.93,-212.6 628.73,-211.28 618.5,-195 606.67,-176.16 593.81,-154.2 585.06,-139.02"/>
<polygon fill="#63b8ff" stroke="#63b8ff" points="588.26,-137.56 580.25,-130.62 582.19,-141.04 588.26,-137.56"/>
</g>
<!-- Node15 -->
<g id="node15" class="node">
<title>Node15</title>
<g id="a_node15"><a xlink:href="Presenter_8hpp.xhtml" target="_top" xlink:title=" ">
<polygon fill="white" stroke="#666666" points="738,-189.5 661,-189.5 661,-170.5 738,-170.5 738,-189.5"/>
<text text-anchor="middle" x="699.5" y="-177.5" font-family="Helvetica,sans-Serif" font-size="10.00">Presenter.hpp</text>
</a>
</g>
</g>
<!-- Node1&#45;&gt;Node15 -->
<g id="edge16" class="edge">
<title>Node1&#45;&gt;Node15</title>
<path fill="none" stroke="#63b8ff" d="M630.18,-285.63C644.42,-278 663.56,-265.74 675.5,-250 686.52,-235.47 692.73,-215.51 696.06,-200.79"/>
<polygon fill="#63b8ff" stroke="#63b8ff" points="699.41,-201.87 697.93,-191.38 692.55,-200.5 699.41,-201.87"/>
</g>
<!-- Node19 -->
<g id="node19" class="node">
<title>Node19</title>
<g id="a_node19"><a xlink:href="ProcessHmiInputs_8hpp.xhtml" target="_top" xlink:title=" ">
<polygon fill="white" stroke="#666666" points="473.5,-250 357.5,-250 357.5,-231 473.5,-231 473.5,-250"/>
<text text-anchor="middle" x="415.5" y="-238" font-family="Helvetica,sans-Serif" font-size="10.00">ProcessHmiInputs.hpp</text>
</a>
</g>
</g>
<!-- Node1&#45;&gt;Node19 -->
<g id="edge22" class="edge">
<title>Node1&#45;&gt;Node19</title>
<path fill="none" stroke="#63b8ff" d="M578.25,-285.51C545.49,-276.65 495.25,-263.07 459.26,-253.33"/>
<polygon fill="#63b8ff" stroke="#63b8ff" points="460.61,-250.07 450.05,-250.84 458.78,-256.83 460.61,-250.07"/>
</g>
<!-- Node20 -->
<g id="node20" class="node">
<title>Node20</title>
<g id="a_node20"><a xlink:href="display__factory__interface_8hpp.xhtml" target="_top" xlink:title=" ">
<polygon fill="white" stroke="#666666" points="633.5,-250 491.5,-250 491.5,-231 633.5,-231 633.5,-250"/>
<text text-anchor="middle" x="562.5" y="-238" font-family="Helvetica,sans-Serif" font-size="10.00">display_factory_interface.hpp</text>
</a>
</g>
</g>
<!-- Node1&#45;&gt;Node20 -->
<g id="edge25" class="edge">
<title>Node1&#45;&gt;Node20</title>
<path fill="none" stroke="#63b8ff" d="M603.41,-285.75C596.64,-278.43 586.78,-267.76 578.44,-258.74"/>
<polygon fill="#63b8ff" stroke="#63b8ff" points="581.15,-256.52 571.79,-251.55 576.01,-261.27 581.15,-256.52"/>
</g>
<!-- Node21 -->
<g id="node21" class="node">
<title>Node21</title>
<g id="a_node21"><a xlink:href="keypad__factory__interface_8hpp.xhtml" target="_top" xlink:title=" ">
<polygon fill="white" stroke="#666666" points="301,-250 158,-250 158,-231 301,-231 301,-250"/>
<text text-anchor="middle" x="229.5" y="-238" font-family="Helvetica,sans-Serif" font-size="10.00">keypad_factory_interface.hpp</text>
</a>
</g>
</g>
<!-- Node1&#45;&gt;Node21 -->
<g id="edge27" class="edge">
<title>Node1&#45;&gt;Node21</title>
<path fill="none" stroke="#63b8ff" d="M575.22,-289.47C513.59,-280.92 387.19,-263.38 305.51,-252.05"/>
<polygon fill="#63b8ff" stroke="#63b8ff" points="306.17,-248.6 295.79,-250.7 305.21,-255.54 306.17,-248.6"/>
</g>
<!-- Node22 -->
<g id="node22" class="node">
<title>Node22</title>
<g id="a_node22"><a xlink:href="serial__port_8hpp.xhtml" target="_top" xlink:title=" ">
<polygon fill="white" stroke="#666666" points="165.5,-189.5 85.5,-189.5 85.5,-170.5 165.5,-170.5 165.5,-189.5"/>
<text text-anchor="middle" x="125.5" y="-177.5" font-family="Helvetica,sans-Serif" font-size="10.00">serial_port.hpp</text>
</a>
</g>
</g>
<!-- Node1&#45;&gt;Node22 -->
<g id="edge29" class="edge">
<title>Node1&#45;&gt;Node22</title>
<path fill="none" stroke="#63b8ff" d="M575.24,-293.26C471.98,-289.43 181.67,-276.41 148.5,-250 133.85,-238.33 128.45,-217.02 126.51,-201.15"/>
<polygon fill="#63b8ff" stroke="#63b8ff" points="130.01,-201.07 125.7,-191.4 123.04,-201.65 130.01,-201.07"/>
</g>
<!-- Node26 -->
<g id="node26" class="node">
<title>Node26</title>
<g id="a_node26"><a xlink:href="statusindicators__factory__interface_8hpp.xhtml" target="_top" xlink:title=" ">
<polygon fill="white" stroke="#666666" points="1189.5,-195 1069.5,-195 1069.5,-165 1189.5,-165 1189.5,-195"/>
<text text-anchor="start" x="1077.5" y="-183" font-family="Helvetica,sans-Serif" font-size="10.00">statusindicators_factory</text>
<text text-anchor="middle" x="1129.5" y="-172" font-family="Helvetica,sans-Serif" font-size="10.00">_interface.hpp</text>
</a>
</g>
</g>
<!-- Node1&#45;&gt;Node26 -->
<g id="edge35" class="edge">
<title>Node1&#45;&gt;Node26</title>
<path fill="none" stroke="#63b8ff" d="M647.64,-289.3C688.64,-282.78 757.14,-269.95 813.5,-250 831.3,-243.7 833.56,-236.89 851.5,-231 937.65,-202.73 965.73,-211.61 1058.04,-195.37"/>
<polygon fill="#63b8ff" stroke="#63b8ff" points="1058.61,-198.83 1067.82,-193.59 1057.36,-191.94 1058.61,-198.83"/>
</g>
<!-- Node27 -->
<g id="node27" class="node">
<title>Node27</title>
<g id="a_node27"><a xlink:title=" ">
<polygon fill="#e0e0e0" stroke="#999999" points="918,-250 861,-250 861,-231 918,-231 918,-250"/>
<text text-anchor="middle" x="889.5" y="-238" font-family="Helvetica,sans-Serif" font-size="10.00">Arduino.h</text>
</a>
</g>
</g>
<!-- Node1&#45;&gt;Node27 -->
<g id="edge38" class="edge">
<title>Node1&#45;&gt;Node27</title>
<path fill="none" stroke="#63b8ff" d="M647.75,-287.73C693.92,-279.08 776.18,-263.61 846.5,-250 847.51,-249.8 848.54,-249.6 849.58,-249.4"/>
<polygon fill="#63b8ff" stroke="#63b8ff" points="850.2,-252.85 859.34,-247.49 848.85,-245.98 850.2,-252.85"/>
</g>
<!-- Node28 -->
<g id="node28" class="node">
<title>Node28</title>
<g id="a_node28"><a xlink:href="Protocol_8hpp.xhtml" target="_top" xlink:title=" ">
<polygon fill="white" stroke="#666666" points="1007,-250 936,-250 936,-231 1007,-231 1007,-250"/>
<text text-anchor="middle" x="971.5" y="-238" font-family="Helvetica,sans-Serif" font-size="10.00">Protocol.hpp</text>
</a>
</g>
</g>
<!-- Node1&#45;&gt;Node28 -->
<g id="edge39" class="edge">
<title>Node1&#45;&gt;Node28</title>
<path fill="none" stroke="#63b8ff" d="M647.96,-289.91C704.71,-282.64 817.88,-267.66 924.39,-250.28"/>
<polygon fill="#63b8ff" stroke="#63b8ff" points="924.87,-253.74 934.17,-248.67 923.74,-246.84 924.87,-253.74"/>
</g>
<!-- Node4 -->
<g id="node4" class="node">
<title>Node4</title>
<g id="a_node4"><a xlink:href="IKeypad_8hpp.xhtml" target="_top" xlink:title=" ">
<polygon fill="white" stroke="#666666" points="369.5,-129 299.5,-129 299.5,-110 369.5,-110 369.5,-129"/>
<text text-anchor="middle" x="334.5" y="-117" font-family="Helvetica,sans-Serif" font-size="10.00">IKeypad.hpp</text>
</a>
</g>
</g>
<!-- Node3&#45;&gt;Node4 -->
<g id="edge3" class="edge">
<title>Node3&#45;&gt;Node4</title>
<path fill="none" stroke="#63b8ff" d="M334.5,-170.37C334.5,-162.5 334.5,-150.6 334.5,-140.39"/>
<polygon fill="#63b8ff" stroke="#63b8ff" points="338,-140.68 334.5,-130.68 331,-140.68 338,-140.68"/>
</g>
<!-- Node5 -->
<g id="node5" class="node">
<title>Node5</title>
<g id="a_node5"><a xlink:href="KeyIds_8hpp.xhtml" target="_top" xlink:title=" ">
<polygon fill="white" stroke="#666666" points="367,-74 302,-74 302,-55 367,-55 367,-74"/>
<text text-anchor="middle" x="334.5" y="-62" font-family="Helvetica,sans-Serif" font-size="10.00">KeyIds.hpp</text>
</a>
</g>
</g>
<!-- Node3&#45;&gt;Node5 -->
<g id="edge6" class="edge">
<title>Node3&#45;&gt;Node5</title>
<path fill="none" stroke="#63b8ff" d="M346.07,-170.14C356.8,-161.13 372.05,-146.09 378.5,-129 385.22,-111.19 370.97,-93.61 356.93,-81.48"/>
<polygon fill="#63b8ff" stroke="#63b8ff" points="359.15,-78.78 349.14,-75.29 354.79,-84.26 359.15,-78.78"/>
</g>
<!-- Node7 -->
<g id="node7" class="node">
<title>Node7</title>
<g id="a_node7"><a xlink:title=" ">
<polygon fill="#e0e0e0" stroke="#999999" points="281.5,-129 231.5,-129 231.5,-110 281.5,-110 281.5,-129"/>
<text text-anchor="middle" x="256.5" y="-117" font-family="Helvetica,sans-Serif" font-size="10.00">optional</text>
</a>
</g>
</g>
<!-- Node3&#45;&gt;Node7 -->
<g id="edge7" class="edge">
<title>Node3&#45;&gt;Node7</title>
<path fill="none" stroke="#63b8ff" d="M322.65,-170.12C310.74,-161.18 292.12,-147.22 277.67,-136.37"/>
<polygon fill="#63b8ff" stroke="#63b8ff" points="279.77,-133.58 269.67,-130.38 275.57,-139.18 279.77,-133.58"/>
</g>
<!-- Node4&#45;&gt;Node5 -->
<g id="edge4" class="edge">
<title>Node4&#45;&gt;Node5</title>
<path fill="none" stroke="#63b8ff" d="M334.5,-109.75C334.5,-103.27 334.5,-94.16 334.5,-85.9"/>
<polygon fill="#63b8ff" stroke="#63b8ff" points="338,-85.96 334.5,-75.96 331,-85.96 338,-85.96"/>
</g>
<!-- Node6 -->
<g id="node6" class="node">
<title>Node6</title>
<g id="a_node6"><a xlink:title=" ">
<polygon fill="#e0e0e0" stroke="#999999" points="227.5,-19 175.5,-19 175.5,0 227.5,0 227.5,-19"/>
<text text-anchor="middle" x="201.5" y="-7" font-family="Helvetica,sans-Serif" font-size="10.00">ostream</text>
</a>
</g>
</g>
<!-- Node5&#45;&gt;Node6 -->
<g id="edge5" class="edge">
<title>Node5&#45;&gt;Node6</title>
<path fill="none" stroke="#63b8ff" d="M311.94,-54.51C290.6,-46.01 258.34,-33.15 234.19,-23.53"/>
<polygon fill="#63b8ff" stroke="#63b8ff" points="235.72,-20.37 225.13,-19.92 233.13,-26.87 235.72,-20.37"/>
</g>
<!-- Node9 -->
<g id="node9" class="node">
<title>Node9</title>
<g id="a_node9"><a xlink:href="IDisplay_8hpp.xhtml" target="_top" xlink:title=" ">
<polygon fill="white" stroke="#666666" points="609,-74 540,-74 540,-55 609,-55 609,-74"/>
<text text-anchor="middle" x="574.5" y="-62" font-family="Helvetica,sans-Serif" font-size="10.00">IDisplay.hpp</text>
</a>
</g>
</g>
<!-- Node8&#45;&gt;Node9 -->
<g id="edge9" class="edge">
<title>Node8&#45;&gt;Node9</title>
<path fill="none" stroke="#63b8ff" d="M738.05,-234.31C711.7,-228.67 675.53,-217.29 651.5,-195 621.03,-166.73 634.88,-145.03 612.5,-110 606.37,-100.4 598.32,-90.67 591.21,-82.77"/>
<polygon fill="#63b8ff" stroke="#63b8ff" points="593.87,-80.49 584.49,-75.56 588.74,-85.26 593.87,-80.49"/>
</g>
<!-- Node10 -->
<g id="node10" class="node">
<title>Node10</title>
<g id="a_node10"><a xlink:title=" ">
<polygon fill="#e0e0e0" stroke="#999999" points="929.5,-189.5 825.5,-189.5 825.5,-170.5 929.5,-170.5 929.5,-189.5"/>
<text text-anchor="middle" x="877.5" y="-177.5" font-family="Helvetica,sans-Serif" font-size="10.00">Adafruit_SSD1306.h</text>
</a>
</g>
</g>
<!-- Node8&#45;&gt;Node10 -->
<g id="edge10" class="edge">
<title>Node8&#45;&gt;Node10</title>
<path fill="none" stroke="#63b8ff" d="M787.6,-230.62C804.49,-221.29 831.3,-206.5 851.25,-195.49"/>
<polygon fill="#63b8ff" stroke="#63b8ff" points="852.86,-198.6 859.92,-190.7 849.48,-192.47 852.86,-198.6"/>
</g>
<!-- Node11 -->
<g id="node11" class="node">
<title>Node11</title>
<g id="a_node11"><a xlink:title=" ">
<polygon fill="#e0e0e0" stroke="#999999" points="993.5,-189.5 947.5,-189.5 947.5,-170.5 993.5,-170.5 993.5,-189.5"/>
<text text-anchor="middle" x="970.5" y="-177.5" font-family="Helvetica,sans-Serif" font-size="10.00">cstdint</text>
</a>
</g>
</g>
<!-- Node8&#45;&gt;Node11 -->
<g id="edge11" class="edge">
<title>Node8&#45;&gt;Node11</title>
<path fill="none" stroke="#63b8ff" d="M804.9,-232.18C838.94,-224.35 893.04,-210.9 938.5,-195 939.29,-194.72 940.1,-194.43 940.9,-194.14"/>
<polygon fill="#63b8ff" stroke="#63b8ff" points="942.02,-197.46 949.99,-190.48 939.41,-190.96 942.02,-197.46"/>
</g>
<!-- Node12 -->
<g id="node12" class="node">
<title>Node12</title>
<g id="a_node12"><a xlink:title=" ">
<polygon fill="#e0e0e0" stroke="#999999" points="1051,-189.5 1012,-189.5 1012,-170.5 1051,-170.5 1051,-189.5"/>
<text text-anchor="middle" x="1031.5" y="-177.5" font-family="Helvetica,sans-Serif" font-size="10.00">lvgl.h</text>
</a>
</g>
</g>
<!-- Node8&#45;&gt;Node12 -->
<g id="edge12" class="edge">
<title>Node8&#45;&gt;Node12</title>
<path fill="none" stroke="#63b8ff" d="M804.88,-233.3C866.6,-221.82 993.15,-198.1 1002.5,-195 1003.15,-194.79 1003.8,-194.56 1004.45,-194.32"/>
<polygon fill="#63b8ff" stroke="#63b8ff" points="1005.69,-197.6 1013.54,-190.49 1002.97,-191.15 1005.69,-197.6"/>
</g>
<!-- Node13 -->
<g id="node13" class="node">
<title>Node13</title>
<g id="a_node13"><a xlink:title=" ">
<polygon fill="#e0e0e0" stroke="#999999" points="807,-189.5 756,-189.5 756,-170.5 807,-170.5 807,-189.5"/>
<text text-anchor="middle" x="781.5" y="-177.5" font-family="Helvetica,sans-Serif" font-size="10.00">memory</text>
</a>
</g>
</g>
<!-- Node8&#45;&gt;Node13 -->
<g id="edge13" class="edge">
<title>Node8&#45;&gt;Node13</title>
<path fill="none" stroke="#63b8ff" d="M772.98,-230.87C774.32,-223 776.36,-211.1 778.1,-200.89"/>
<polygon fill="#63b8ff" stroke="#63b8ff" points="781.53,-201.61 779.76,-191.16 774.63,-200.43 781.53,-201.61"/>
</g>
<!-- Node14&#45;&gt;Node9 -->
<g id="edge15" class="edge">
<title>Node14&#45;&gt;Node9</title>
<path fill="none" stroke="#63b8ff" d="M574.5,-109.75C574.5,-103.27 574.5,-94.16 574.5,-85.9"/>
<polygon fill="#63b8ff" stroke="#63b8ff" points="578,-85.96 574.5,-75.96 571,-85.96 578,-85.96"/>
</g>
<!-- Node15&#45;&gt;Node14 -->
<g id="edge18" class="edge">
<title>Node15&#45;&gt;Node14</title>
<path fill="none" stroke="#63b8ff" d="M680.52,-170.12C660.14,-160.58 627.52,-145.31 603.84,-134.23"/>
<polygon fill="#63b8ff" stroke="#63b8ff" points="605.58,-131.18 595.03,-130.11 602.61,-137.52 605.58,-131.18"/>
</g>
<!-- Node16 -->
<g id="node16" class="node">
<title>Node16</title>
<g id="a_node16"><a xlink:href="IStatusIndicator_8hpp.xhtml" target="_top" xlink:title=" ">
<polygon fill="white" stroke="#666666" points="831.5,-129 727.5,-129 727.5,-110 831.5,-110 831.5,-129"/>
<text text-anchor="middle" x="779.5" y="-117" font-family="Helvetica,sans-Serif" font-size="10.00">IStatusIndicator.hpp</text>
</a>
</g>
</g>
<!-- Node15&#45;&gt;Node16 -->
<g id="edge17" class="edge">
<title>Node15&#45;&gt;Node16</title>
<path fill="none" stroke="#63b8ff" d="M711.65,-170.12C723.98,-161.1 743.33,-146.95 758.22,-136.06"/>
<polygon fill="#63b8ff" stroke="#63b8ff" points="760.01,-139.09 766.01,-130.36 755.88,-133.44 760.01,-139.09"/>
</g>
<!-- Node17 -->
<g id="node17" class="node">
<title>Node17</title>
<g id="a_node17"><a xlink:href="hmi__configuration_8hpp.xhtml" target="_top" xlink:title=" ">
<polygon fill="white" stroke="#666666" points="959.5,-129 849.5,-129 849.5,-110 959.5,-110 959.5,-129"/>
<text text-anchor="middle" x="904.5" y="-117" font-family="Helvetica,sans-Serif" font-size="10.00">hmi_configuration.hpp</text>
</a>
</g>
</g>
<!-- Node15&#45;&gt;Node17 -->
<g id="edge19" class="edge">
<title>Node15&#45;&gt;Node17</title>
<path fill="none" stroke="#63b8ff" d="M729.32,-170.05C735.02,-168.35 740.94,-166.61 746.5,-165 785.31,-153.76 829.59,-141.32 861.39,-132.46"/>
<polygon fill="#63b8ff" stroke="#63b8ff" points="861.93,-135.94 870.62,-129.88 860.05,-129.19 861.93,-135.94"/>
</g>
<!-- Node18 -->
<g id="node18" class="node">
<title>Node18</title>
<g id="a_node18"><a xlink:title=" ">
<polygon fill="#e0e0e0" stroke="#999999" points="826,-74 777,-74 777,-55 826,-55 826,-74"/>
<text text-anchor="middle" x="801.5" y="-62" font-family="Helvetica,sans-Serif" font-size="10.00">cstddef</text>
</a>
</g>
</g>
<!-- Node15&#45;&gt;Node18 -->
<g id="edge21" class="edge">
<title>Node15&#45;&gt;Node18</title>
<path fill="none" stroke="#63b8ff" d="M699.75,-170.4C700.59,-156.3 704.08,-128.06 718.5,-110 730.63,-94.8 749.41,-84.12 766.04,-77.04"/>
<polygon fill="#63b8ff" stroke="#63b8ff" points="767.13,-80.37 775.15,-73.45 764.57,-73.86 767.13,-80.37"/>
</g>
<!-- Node17&#45;&gt;Node18 -->
<g id="edge20" class="edge">
<title>Node17&#45;&gt;Node18</title>
<path fill="none" stroke="#63b8ff" d="M887.03,-109.51C871.1,-101.31 847.31,-89.07 828.86,-79.58"/>
<polygon fill="#63b8ff" stroke="#63b8ff" points="830.55,-76.51 820.06,-75.05 827.35,-82.74 830.55,-76.51"/>
</g>
<!-- Node19&#45;&gt;Node3 -->
<g id="edge23" class="edge">
<title>Node19&#45;&gt;Node3</title>
<path fill="none" stroke="#63b8ff" d="M403.2,-230.62C390.71,-221.6 371.12,-207.45 356.05,-196.56"/>
<polygon fill="#63b8ff" stroke="#63b8ff" points="358.3,-193.87 348.14,-190.85 354.2,-199.55 358.3,-193.87"/>
</g>
<!-- Node19&#45;&gt;Node15 -->
<g id="edge24" class="edge">
<title>Node19&#45;&gt;Node15</title>
<path fill="none" stroke="#63b8ff" d="M458.94,-230.55C510.3,-219.97 595.58,-202.41 649.6,-191.28"/>
<polygon fill="#63b8ff" stroke="#63b8ff" points="650.06,-194.76 659.15,-189.31 648.65,-187.9 650.06,-194.76"/>
</g>
<!-- Node20&#45;&gt;Node9 -->
<g id="edge26" class="edge">
<title>Node20&#45;&gt;Node9</title>
<path fill="none" stroke="#63b8ff" d="M557.4,-230.76C545.68,-209.5 519.08,-153.64 535.5,-110 539.54,-99.27 547.47,-89.43 555.13,-81.76"/>
<polygon fill="#63b8ff" stroke="#63b8ff" points="557.08,-84.72 562.03,-75.36 552.32,-79.59 557.08,-84.72"/>
</g>
<!-- Node21&#45;&gt;Node4 -->
<g id="edge28" class="edge">
<title>Node21&#45;&gt;Node4</title>
<path fill="none" stroke="#63b8ff" d="M235.54,-230.9C245.68,-216.67 267.01,-187.57 287.5,-165 296.36,-155.24 306.96,-145.09 315.85,-136.95"/>
<polygon fill="#63b8ff" stroke="#63b8ff" points="318.14,-139.6 323.23,-130.3 313.46,-134.39 318.14,-139.6"/>
</g>
<!-- Node22&#45;&gt;Node6 -->
<g id="edge33" class="edge">
<title>Node22&#45;&gt;Node6</title>
<path fill="none" stroke="#63b8ff" d="M114.99,-170.26C100.81,-157.35 78.42,-132.3 88.5,-110 106.06,-71.14 147.14,-41.39 174.62,-24.93"/>
<polygon fill="#63b8ff" stroke="#63b8ff" points="176.19,-28.07 183.1,-20.04 172.69,-22.01 176.19,-28.07"/>
</g>
<!-- Node22&#45;&gt;Node7 -->
<g id="edge32" class="edge">
<title>Node22&#45;&gt;Node7</title>
<path fill="none" stroke="#63b8ff" d="M145.4,-170.12C166.84,-160.54 201.24,-145.18 226.09,-134.08"/>
<polygon fill="#63b8ff" stroke="#63b8ff" points="227.33,-137.36 235.03,-130.09 224.48,-130.97 227.33,-137.36"/>
</g>
<!-- Node23 -->
<g id="node23" class="node">
<title>Node23</title>
<g id="a_node23"><a xlink:title=" ">
<polygon fill="#e0e0e0" stroke="#999999" points="135.5,-129 97.5,-129 97.5,-110 135.5,-110 135.5,-129"/>
<text text-anchor="middle" x="116.5" y="-117" font-family="Helvetica,sans-Serif" font-size="10.00">array</text>
</a>
</g>
</g>
<!-- Node22&#45;&gt;Node23 -->
<g id="edge30" class="edge">
<title>Node22&#45;&gt;Node23</title>
<path fill="none" stroke="#63b8ff" d="M124.17,-170.37C122.96,-162.5 121.13,-150.6 119.56,-140.39"/>
<polygon fill="#63b8ff" stroke="#63b8ff" points="123.04,-140.01 118.06,-130.66 116.12,-141.08 123.04,-140.01"/>
</g>
<!-- Node24 -->
<g id="node24" class="node">
<title>Node24</title>
<g id="a_node24"><a xlink:title=" ">
<polygon fill="#e0e0e0" stroke="#999999" points="213,-129 154,-129 154,-110 213,-110 213,-129"/>
<text text-anchor="middle" x="183.5" y="-117" font-family="Helvetica,sans-Serif" font-size="10.00">functional</text>
</a>
</g>
</g>
<!-- Node22&#45;&gt;Node24 -->
<g id="edge31" class="edge">
<title>Node22&#45;&gt;Node24</title>
<path fill="none" stroke="#63b8ff" d="M134.06,-170.37C142.71,-161.64 156.3,-147.93 167.05,-137.09"/>
<polygon fill="#63b8ff" stroke="#63b8ff" points="169.29,-139.81 173.84,-130.24 164.31,-134.88 169.29,-139.81"/>
</g>
<!-- Node25 -->
<g id="node25" class="node">
<title>Node25</title>
<g id="a_node25"><a xlink:title=" ">
<polygon fill="#e0e0e0" stroke="#999999" points="41,-129 0,-129 0,-110 41,-110 41,-129"/>
<text text-anchor="middle" x="20.5" y="-117" font-family="Helvetica,sans-Serif" font-size="10.00">string</text>
</a>
</g>
</g>
<!-- Node22&#45;&gt;Node25 -->
<g id="edge34" class="edge">
<title>Node22&#45;&gt;Node25</title>
<path fill="none" stroke="#63b8ff" d="M109.55,-170.12C92.82,-160.79 66.27,-146 46.5,-134.99"/>
<polygon fill="#63b8ff" stroke="#63b8ff" points="48.36,-132.01 37.92,-130.21 44.95,-138.13 48.36,-132.01"/>
</g>
<!-- Node26&#45;&gt;Node16 -->
<g id="edge36" class="edge">
<title>Node26&#45;&gt;Node16</title>
<path fill="none" stroke="#63b8ff" d="M1069.32,-166.63C1066.34,-166.07 1063.39,-165.52 1060.5,-165 986.15,-151.58 900.33,-138.31 843.29,-129.8"/>
<polygon fill="#63b8ff" stroke="#63b8ff" points="843.82,-126.34 833.42,-128.33 842.8,-133.27 843.82,-126.34"/>
</g>
<!-- Node26&#45;&gt;Node17 -->
<g id="edge37" class="edge">
<title>Node26&#45;&gt;Node17</title>
<path fill="none" stroke="#63b8ff" d="M1073.88,-164.54C1035.72,-154.62 985.7,-141.61 949.93,-132.31"/>
<polygon fill="#63b8ff" stroke="#63b8ff" points="950.88,-128.94 940.32,-129.81 949.12,-135.72 950.88,-128.94"/>
</g>
</g>
</svg>
