<?xml version="1.0" encoding="UTF-8" standalone="no"?>
<!DOCTYPE svg PUBLIC "-//W3C//DTD SVG 1.1//EN"
 "http://www.w3.org/Graphics/SVG/1.1/DTD/svg11.dtd">
<!-- Generated by graphviz version 7.0.5 (20221223.1930)
 -->
<!-- Title: src/main.cpp Pages: 1 -->
<svg width="1019pt" height="313pt"
 viewBox="0.00 0.00 1018.88 313.00" xmlns="http://www.w3.org/2000/svg" xmlns:xlink="http://www.w3.org/1999/xlink">
<g id="graph0" class="graph" transform="scale(1 1) rotate(0) translate(4 309)">
<title>src/main.cpp</title>
<!-- Node1 -->
<g id="node1" class="node">
<title>Node1</title>
<g id="a_node1"><a xlink:title=" ">
<polygon fill="#999999" stroke="#666666" points="630.38,-305 558.38,-305 558.38,-286 630.38,-286 630.38,-305"/>
<text text-anchor="middle" x="594.38" y="-293" font-family="Helvetica,sans-Serif" font-size="10.00">src/main.cpp</text>
</a>
</g>
</g>
<!-- Node2 -->
<g id="node2" class="node">
<title>Node2</title>
<g id="a_node2"><a xlink:href="main_8hpp.xhtml" target="_top" xlink:title=" ">
<polygon fill="white" stroke="#666666" points="318.38,-250 262.38,-250 262.38,-231 318.38,-231 318.38,-250"/>
<text text-anchor="middle" x="290.38" y="-238" font-family="Helvetica,sans-Serif" font-size="10.00">main.hpp</text>
</a>
</g>
</g>
<!-- Node1&#45;&gt;Node2 -->
<g id="edge1" class="edge">
<title>Node1&#45;&gt;Node2</title>
<path fill="none" stroke="#63b8ff" d="M558.3,-288.74C507.72,-280.58 412.9,-264.98 332.38,-250 331.56,-249.85 330.73,-249.69 329.89,-249.53"/>
<polygon fill="#63b8ff" stroke="#63b8ff" points="330.8,-246.14 320.31,-247.67 329.46,-253.01 330.8,-246.14"/>
</g>
<!-- Node3 -->
<g id="node3" class="node">
<title>Node3</title>
<g id="a_node3"><a xlink:href="Controller_8hpp.xhtml" target="_top" xlink:title=" ">
<polygon fill="white" stroke="#666666" points="275.38,-189.5 199.38,-189.5 199.38,-170.5 275.38,-170.5 275.38,-189.5"/>
<text text-anchor="middle" x="237.38" y="-177.5" font-family="Helvetica,sans-Serif" font-size="10.00">Controller.hpp</text>
</a>
</g>
</g>
<!-- Node1&#45;&gt;Node3 -->
<g id="edge2" class="edge">
<title>Node1&#45;&gt;Node3</title>
<path fill="none" stroke="#63b8ff" d="M557.92,-288.11C519.06,-280.82 456.02,-267.59 403.38,-250 383.57,-243.38 379.62,-239.16 360.38,-231 330.02,-218.12 295.17,-204.02 270.34,-194.09"/>
<polygon fill="#63b8ff" stroke="#63b8ff" points="271.68,-190.85 261.09,-190.39 269.08,-197.35 271.68,-190.85"/>
</g>
<!-- Node8 -->
<g id="node8" class="node">
<title>Node8</title>
<g id="a_node8"><a xlink:href="Menu_8hpp.xhtml" target="_top" xlink:title=" ">
<polygon fill="white" stroke="#666666" points="746.88,-129 687.88,-129 687.88,-110 746.88,-110 746.88,-129"/>
<text text-anchor="middle" x="717.38" y="-117" font-family="Helvetica,sans-Serif" font-size="10.00">Menu.hpp</text>
</a>
</g>
</g>
<!-- Node1&#45;&gt;Node8 -->
<g id="edge8" class="edge">
<title>Node1&#45;&gt;Node8</title>
<path fill="none" stroke="#63b8ff" d="M603.53,-285.54C620.25,-268.83 656.23,-231.31 680.38,-195 692.24,-177.18 702.77,-155.02 709.53,-139.52"/>
<polygon fill="#63b8ff" stroke="#63b8ff" points="712.66,-141.11 713.34,-130.54 706.21,-138.38 712.66,-141.11"/>
</g>
<!-- Node10 -->
<g id="node10" class="node">
<title>Node10</title>
<g id="a_node10"><a xlink:href="Presenter_8hpp.xhtml" target="_top" xlink:title=" ">
<polygon fill="white" stroke="#666666" points="670.88,-189.5 593.88,-189.5 593.88,-170.5 670.88,-170.5 670.88,-189.5"/>
<text text-anchor="middle" x="632.38" y="-177.5" font-family="Helvetica,sans-Serif" font-size="10.00">Presenter.hpp</text>
</a>
</g>
</g>
<!-- Node1&#45;&gt;Node10 -->
<g id="edge10" class="edge">
<title>Node1&#45;&gt;Node10</title>
<path fill="none" stroke="#63b8ff" d="M597.36,-285.59C603.47,-267.36 617.52,-225.41 625.85,-200.53"/>
<polygon fill="#63b8ff" stroke="#63b8ff" points="629.08,-201.89 628.93,-191.3 622.44,-199.67 629.08,-201.89"/>
</g>
<!-- Node14 -->
<g id="node14" class="node">
<title>Node14</title>
<g id="a_node14"><a xlink:href="ProcessHmiInputs_8hpp.xhtml" target="_top" xlink:title=" ">
<polygon fill="white" stroke="#666666" points="528.38,-250 412.38,-250 412.38,-231 528.38,-231 528.38,-250"/>
<text text-anchor="middle" x="470.38" y="-238" font-family="Helvetica,sans-Serif" font-size="10.00">ProcessHmiInputs.hpp</text>
</a>
</g>
</g>
<!-- Node1&#45;&gt;Node14 -->
<g id="edge16" class="edge">
<title>Node1&#45;&gt;Node14</title>
<path fill="none" stroke="#63b8ff" d="M573.35,-285.51C553.63,-277.08 523.92,-264.38 501.47,-254.79"/>
<polygon fill="#63b8ff" stroke="#63b8ff" points="503.07,-251.66 492.5,-250.95 500.32,-258.1 503.07,-251.66"/>
</g>
<!-- Node15 -->
<g id="node15" class="node">
<title>Node15</title>
<g id="a_node15"><a xlink:href="display__factory__interface_8hpp.xhtml" target="_top" xlink:title=" ">
<polygon fill="white" stroke="#666666" points="846.38,-250 704.38,-250 704.38,-231 846.38,-231 846.38,-250"/>
<text text-anchor="middle" x="775.38" y="-238" font-family="Helvetica,sans-Serif" font-size="10.00">display_factory_interface.hpp</text>
</a>
</g>
</g>
<!-- Node1&#45;&gt;Node15 -->
<g id="edge19" class="edge">
<title>Node1&#45;&gt;Node15</title>
<path fill="none" stroke="#63b8ff" d="M625.09,-285.51C655.08,-276.73 700.94,-263.3 734.11,-253.59"/>
<polygon fill="#63b8ff" stroke="#63b8ff" points="734.76,-257.04 743.38,-250.87 732.8,-250.32 734.76,-257.04"/>
</g>
<!-- Node16 -->
<g id="node16" class="node">
<title>Node16</title>
<g id="a_node16"><a xlink:href="keypad__factory__interface_8hpp.xhtml" target="_top" xlink:title=" ">
<polygon fill="white" stroke="#666666" points="436.88,-189.5 293.88,-189.5 293.88,-170.5 436.88,-170.5 436.88,-189.5"/>
<text text-anchor="middle" x="365.38" y="-177.5" font-family="Helvetica,sans-Serif" font-size="10.00">keypad_factory_interface.hpp</text>
</a>
</g>
</g>
<!-- Node1&#45;&gt;Node16 -->
<g id="edge21" class="edge">
<title>Node1&#45;&gt;Node16</title>
<path fill="none" stroke="#63b8ff" d="M588.87,-285.7C579.81,-271.96 560.46,-245.5 537.38,-231 517.2,-218.32 459.51,-202.89 416.47,-192.56"/>
<polygon fill="#63b8ff" stroke="#63b8ff" points="417.33,-189.17 406.8,-190.27 415.72,-195.98 417.33,-189.17"/>
</g>
<!-- Node17 -->
<g id="node17" class="node">
<title>Node17</title>
<g id="a_node17"><a xlink:href="serial__port_8hpp.xhtml" target="_top" xlink:title=" ">
<polygon fill="white" stroke="#666666" points="157.38,-189.5 77.38,-189.5 77.38,-170.5 157.38,-170.5 157.38,-189.5"/>
<text text-anchor="middle" x="117.38" y="-177.5" font-family="Helvetica,sans-Serif" font-size="10.00">serial_port.hpp</text>
</a>
</g>
</g>
<!-- Node1&#45;&gt;Node17 -->
<g id="edge23" class="edge">
<title>Node1&#45;&gt;Node17</title>
<path fill="none" stroke="#63b8ff" d="M558.1,-291.39C511.22,-286.52 427.65,-274.95 360.38,-250 344.52,-244.11 343.11,-237.25 327.38,-231 298.91,-219.69 221.14,-202.43 168.67,-191.44"/>
<polygon fill="#63b8ff" stroke="#63b8ff" points="169.54,-188.04 159.03,-189.43 168.11,-194.9 169.54,-188.04"/>
</g>
<!-- Node21 -->
<g id="node21" class="node">
<title>Node21</title>
<g id="a_node21"><a xlink:href="statusindicators__factory__interface_8hpp.xhtml" target="_top" xlink:title=" ">
<polygon fill="white" stroke="#666666" points="575.38,-195 455.38,-195 455.38,-165 575.38,-165 575.38,-195"/>
<text text-anchor="start" x="463.38" y="-183" font-family="Helvetica,sans-Serif" font-size="10.00">statusindicators_factory</text>
<text text-anchor="middle" x="515.38" y="-172" font-family="Helvetica,sans-Serif" font-size="10.00">_interface.hpp</text>
</a>
</g>
</g>
<!-- Node1&#45;&gt;Node21 -->
<g id="edge29" class="edge">
<title>Node1&#45;&gt;Node21</title>
<path fill="none" stroke="#63b8ff" d="M592.45,-285.67C589.33,-272.81 582.31,-248.54 570.38,-231 563.23,-220.49 553.44,-210.66 544.1,-202.55"/>
<polygon fill="#63b8ff" stroke="#63b8ff" points="546.48,-199.98 536.55,-196.3 542.02,-205.37 546.48,-199.98"/>
</g>
<!-- Node22 -->
<g id="node22" class="node">
<title>Node22</title>
<g id="a_node22"><a xlink:title=" ">
<polygon fill="#e0e0e0" stroke="#999999" points="921.88,-250 864.88,-250 864.88,-231 921.88,-231 921.88,-250"/>
<text text-anchor="middle" x="893.38" y="-238" font-family="Helvetica,sans-Serif" font-size="10.00">Arduino.h</text>
</a>
</g>
</g>
<!-- Node1&#45;&gt;Node22 -->
<g id="edge32" class="edge">
<title>Node1&#45;&gt;Node22</title>
<path fill="none" stroke="#63b8ff" d="M630.8,-288.89C679.22,-281.31 767.72,-266.99 853.52,-250.27"/>
<polygon fill="#63b8ff" stroke="#63b8ff" points="854.16,-253.72 863.3,-248.35 852.81,-246.85 854.16,-253.72"/>
</g>
<!-- Node23 -->
<g id="node23" class="node">
<title>Node23</title>
<g id="a_node23"><a xlink:href="Protocol_8hpp.xhtml" target="_top" xlink:title=" ">
<polygon fill="white" stroke="#666666" points="1010.88,-250 939.88,-250 939.88,-231 1010.88,-231 1010.88,-250"/>
<text text-anchor="middle" x="975.38" y="-238" font-family="Helvetica,sans-Serif" font-size="10.00">Protocol.hpp</text>
</a>
</g>
</g>
<!-- Node1&#45;&gt;Node23 -->
<g id="edge33" class="edge">
<title>Node1&#45;&gt;Node23</title>
<path fill="none" stroke="#63b8ff" d="M630.4,-290.46C690.22,-283.59 814.1,-268.71 928.37,-250.41"/>
<polygon fill="#63b8ff" stroke="#63b8ff" points="928.59,-253.92 937.9,-248.87 927.47,-247.01 928.59,-253.92"/>
</g>
<!-- Node4 -->
<g id="node4" class="node">
<title>Node4</title>
<g id="a_node4"><a xlink:href="IKeypad_8hpp.xhtml" target="_top" xlink:title=" ">
<polygon fill="white" stroke="#666666" points="381.38,-129 311.38,-129 311.38,-110 381.38,-110 381.38,-129"/>
<text text-anchor="middle" x="346.38" y="-117" font-family="Helvetica,sans-Serif" font-size="10.00">IKeypad.hpp</text>
</a>
</g>
</g>
<!-- Node3&#45;&gt;Node4 -->
<g id="edge3" class="edge">
<title>Node3&#45;&gt;Node4</title>
<path fill="none" stroke="#63b8ff" d="M253.94,-170.12C271.38,-160.75 299.13,-145.86 319.68,-134.83"/>
<polygon fill="#63b8ff" stroke="#63b8ff" points="321.18,-138 328.34,-130.18 317.87,-131.83 321.18,-138"/>
</g>
<!-- Node5 -->
<g id="node5" class="node">
<title>Node5</title>
<g id="a_node5"><a xlink:href="KeyIds_8hpp.xhtml" target="_top" xlink:title=" ">
<polygon fill="white" stroke="#666666" points="315.88,-74 250.88,-74 250.88,-55 315.88,-55 315.88,-74"/>
<text text-anchor="middle" x="283.38" y="-62" font-family="Helvetica,sans-Serif" font-size="10.00">KeyIds.hpp</text>
</a>
</g>
</g>
<!-- Node3&#45;&gt;Node5 -->
<g id="edge6" class="edge">
<title>Node3&#45;&gt;Node5</title>
<path fill="none" stroke="#63b8ff" d="M242.94,-170.06C248.85,-160.26 258.19,-143.95 264.38,-129 270.27,-114.81 275.18,-98.15 278.54,-85.46"/>
<polygon fill="#63b8ff" stroke="#63b8ff" points="281.92,-86.34 280.98,-75.79 275.13,-84.63 281.92,-86.34"/>
</g>
<!-- Node7 -->
<g id="node7" class="node">
<title>Node7</title>
<g id="a_node7"><a xlink:title=" ">
<polygon fill="#e0e0e0" stroke="#999999" points="255.38,-129 205.38,-129 205.38,-110 255.38,-110 255.38,-129"/>
<text text-anchor="middle" x="230.38" y="-117" font-family="Helvetica,sans-Serif" font-size="10.00">optional</text>
</a>
</g>
</g>
<!-- Node3&#45;&gt;Node7 -->
<g id="edge7" class="edge">
<title>Node3&#45;&gt;Node7</title>
<path fill="none" stroke="#63b8ff" d="M236.35,-170.37C235.41,-162.5 233.98,-150.6 232.76,-140.39"/>
<polygon fill="#63b8ff" stroke="#63b8ff" points="236.26,-140.18 231.6,-130.67 229.31,-141.02 236.26,-140.18"/>
</g>
<!-- Node4&#45;&gt;Node5 -->
<g id="edge4" class="edge">
<title>Node4&#45;&gt;Node5</title>
<path fill="none" stroke="#63b8ff" d="M335.7,-109.51C326.68,-101.93 313.55,-90.88 302.7,-81.75"/>
<polygon fill="#63b8ff" stroke="#63b8ff" points="304.98,-79.09 295.07,-75.33 300.47,-84.45 304.98,-79.09"/>
</g>
<!-- Node6 -->
<g id="node6" class="node">
<title>Node6</title>
<g id="a_node6"><a xlink:title=" ">
<polygon fill="#e0e0e0" stroke="#999999" points="159.38,-19 107.38,-19 107.38,0 159.38,0 159.38,-19"/>
<text text-anchor="middle" x="133.38" y="-7" font-family="Helvetica,sans-Serif" font-size="10.00">ostream</text>
</a>
</g>
</g>
<!-- Node5&#45;&gt;Node6 -->
<g id="edge5" class="edge">
<title>Node5&#45;&gt;Node6</title>
<path fill="none" stroke="#63b8ff" d="M257.94,-54.51C233.62,-45.92 196.73,-32.88 169.4,-23.22"/>
<polygon fill="#63b8ff" stroke="#63b8ff" points="170.72,-19.98 160.13,-19.95 168.39,-26.58 170.72,-19.98"/>
</g>
<!-- Node9 -->
<g id="node9" class="node">
<title>Node9</title>
<g id="a_node9"><a xlink:href="IDisplay_8hpp.xhtml" target="_top" xlink:title=" ">
<polygon fill="white" stroke="#666666" points="780.88,-74 711.88,-74 711.88,-55 780.88,-55 780.88,-74"/>
<text text-anchor="middle" x="746.38" y="-62" font-family="Helvetica,sans-Serif" font-size="10.00">IDisplay.hpp</text>
</a>
</g>
</g>
<!-- Node8&#45;&gt;Node9 -->
<g id="edge9" class="edge">
<title>Node8&#45;&gt;Node9</title>
<path fill="none" stroke="#63b8ff" d="M722.17,-109.75C725.93,-102.88 731.29,-93.08 736.02,-84.45"/>
<polygon fill="#63b8ff" stroke="#63b8ff" points="739.03,-86.22 740.76,-75.77 732.89,-82.86 739.03,-86.22"/>
</g>
<!-- Node10&#45;&gt;Node8 -->
<g id="edge12" class="edge">
<title>Node10&#45;&gt;Node8</title>
<path fill="none" stroke="#63b8ff" d="M645.29,-170.12C658.52,-161.01 679.35,-146.68 695.22,-135.75"/>
<polygon fill="#63b8ff" stroke="#63b8ff" points="696.85,-138.88 703.1,-130.33 692.88,-133.11 696.85,-138.88"/>
</g>
<!-- Node11 -->
<g id="node11" class="node">
<title>Node11</title>
<g id="a_node11"><a xlink:href="IStatusIndicator_8hpp.xhtml" target="_top" xlink:title=" ">
<polygon fill="white" stroke="#666666" points="503.38,-129 399.38,-129 399.38,-110 503.38,-110 503.38,-129"/>
<text text-anchor="middle" x="451.38" y="-117" font-family="Helvetica,sans-Serif" font-size="10.00">IStatusIndicator.hpp</text>
</a>
</g>
</g>
<!-- Node10&#45;&gt;Node11 -->
<g id="edge11" class="edge">
<title>Node10&#45;&gt;Node11</title>
<path fill="none" stroke="#63b8ff" d="M604.89,-170.12C574.2,-160.19 524.3,-144.07 489.76,-132.9"/>
<polygon fill="#63b8ff" stroke="#63b8ff" points="491.16,-129.68 480.57,-129.93 489.01,-136.34 491.16,-129.68"/>
</g>
<!-- Node12 -->
<g id="node12" class="node">
<title>Node12</title>
<g id="a_node12"><a xlink:href="hmi__configuration_8hpp.xhtml" target="_top" xlink:title=" ">
<polygon fill="white" stroke="#666666" points="631.38,-129 521.38,-129 521.38,-110 631.38,-110 631.38,-129"/>
<text text-anchor="middle" x="576.38" y="-117" font-family="Helvetica,sans-Serif" font-size="10.00">hmi_configuration.hpp</text>
</a>
</g>
</g>
<!-- Node10&#45;&gt;Node12 -->
<g id="edge13" class="edge">
<title>Node10&#45;&gt;Node12</title>
<path fill="none" stroke="#63b8ff" d="M624.12,-170.37C615.85,-161.73 602.9,-148.2 592.58,-137.42"/>
<polygon fill="#63b8ff" stroke="#63b8ff" points="595.17,-135.06 585.73,-130.26 590.11,-139.9 595.17,-135.06"/>
</g>
<!-- Node13 -->
<g id="node13" class="node">
<title>Node13</title>
<g id="a_node13"><a xlink:title=" ">
<polygon fill="#e0e0e0" stroke="#999999" points="632.88,-74 583.88,-74 583.88,-55 632.88,-55 632.88,-74"/>
<text text-anchor="middle" x="608.38" y="-62" font-family="Helvetica,sans-Serif" font-size="10.00">cstddef</text>
</a>
</g>
</g>
<!-- Node10&#45;&gt;Node13 -->
<g id="edge15" class="edge">
<title>Node10&#45;&gt;Node13</title>
<path fill="none" stroke="#63b8ff" d="M635.69,-170.27C640.23,-156.95 647.11,-130.89 640.38,-110 637.22,-100.19 631.01,-90.72 624.89,-83.05"/>
<polygon fill="#63b8ff" stroke="#63b8ff" points="627.61,-80.84 618.42,-75.57 622.31,-85.42 627.61,-80.84"/>
</g>
<!-- Node12&#45;&gt;Node13 -->
<g id="edge14" class="edge">
<title>Node12&#45;&gt;Node13</title>
<path fill="none" stroke="#63b8ff" d="M581.67,-109.75C585.86,-102.81 591.86,-92.86 597.12,-84.16"/>
<polygon fill="#63b8ff" stroke="#63b8ff" points="600.03,-86.11 602.2,-75.74 594.04,-82.49 600.03,-86.11"/>
</g>
<!-- Node14&#45;&gt;Node3 -->
<g id="edge17" class="edge">
<title>Node14&#45;&gt;Node3</title>
<path fill="none" stroke="#63b8ff" d="M430.31,-230.58C392.54,-222.01 334.41,-208.42 284.38,-195 282.13,-194.4 279.83,-193.76 277.51,-193.11"/>
<polygon fill="#63b8ff" stroke="#63b8ff" points="278.68,-189.81 268.1,-190.4 276.74,-196.53 278.68,-189.81"/>
</g>
<!-- Node14&#45;&gt;Node10 -->
<g id="edge18" class="edge">
<title>Node14&#45;&gt;Node10</title>
<path fill="none" stroke="#63b8ff" d="M494.99,-230.62C522.11,-220.82 565.97,-204.98 596.82,-193.84"/>
<polygon fill="#63b8ff" stroke="#63b8ff" points="597.91,-197.17 606.12,-190.48 595.53,-190.59 597.91,-197.17"/>
</g>
<!-- Node15&#45;&gt;Node9 -->
<g id="edge20" class="edge">
<title>Node15&#45;&gt;Node9</title>
<path fill="none" stroke="#63b8ff" d="M774.32,-230.67C771.74,-209.67 764.75,-155.13 756.38,-110 754.88,-101.92 752.96,-93.08 751.2,-85.43"/>
<polygon fill="#63b8ff" stroke="#63b8ff" points="754.63,-84.72 748.92,-75.8 747.82,-86.33 754.63,-84.72"/>
</g>
<!-- Node16&#45;&gt;Node4 -->
<g id="edge22" class="edge">
<title>Node16&#45;&gt;Node4</title>
<path fill="none" stroke="#63b8ff" d="M362.58,-170.37C360,-162.42 356.07,-150.33 352.73,-140.05"/>
<polygon fill="#63b8ff" stroke="#63b8ff" points="356.08,-139.04 349.67,-130.61 349.43,-141.2 356.08,-139.04"/>
</g>
<!-- Node17&#45;&gt;Node6 -->
<g id="edge27" class="edge">
<title>Node17&#45;&gt;Node6</title>
<path fill="none" stroke="#63b8ff" d="M76.93,-171.77C37.78,-162.65 -13.37,-143.91 3.38,-110 23.74,-68.79 70.25,-39.94 101.76,-24.28"/>
<polygon fill="#63b8ff" stroke="#63b8ff" points="102.93,-27.6 110.44,-20.13 99.91,-21.28 102.93,-27.6"/>
</g>
<!-- Node17&#45;&gt;Node7 -->
<g id="edge26" class="edge">
<title>Node17&#45;&gt;Node7</title>
<path fill="none" stroke="#63b8ff" d="M134.55,-170.12C152.71,-160.71 181.66,-145.72 202.99,-134.68"/>
<polygon fill="#63b8ff" stroke="#63b8ff" points="204.44,-137.87 211.71,-130.16 201.23,-131.65 204.44,-137.87"/>
</g>
<!-- Node18 -->
<g id="node18" class="node">
<title>Node18</title>
<g id="a_node18"><a xlink:title=" ">
<polygon fill="#e0e0e0" stroke="#999999" points="50.38,-129 12.38,-129 12.38,-110 50.38,-110 50.38,-129"/>
<text text-anchor="middle" x="31.38" y="-117" font-family="Helvetica,sans-Serif" font-size="10.00">array</text>
</a>
</g>
</g>
<!-- Node17&#45;&gt;Node18 -->
<g id="edge24" class="edge">
<title>Node17&#45;&gt;Node18</title>
<path fill="none" stroke="#63b8ff" d="M104.32,-170.12C90.94,-161.01 69.87,-146.68 53.81,-135.75"/>
<polygon fill="#63b8ff" stroke="#63b8ff" points="56.06,-133.05 45.82,-130.32 52.12,-138.84 56.06,-133.05"/>
</g>
<!-- Node19 -->
<g id="node19" class="node">
<title>Node19</title>
<g id="a_node19"><a xlink:title=" ">
<polygon fill="#e0e0e0" stroke="#999999" points="127.88,-129 68.88,-129 68.88,-110 127.88,-110 127.88,-129"/>
<text text-anchor="middle" x="98.38" y="-117" font-family="Helvetica,sans-Serif" font-size="10.00">functional</text>
</a>
</g>
</g>
<!-- Node17&#45;&gt;Node19 -->
<g id="edge25" class="edge">
<title>Node17&#45;&gt;Node19</title>
<path fill="none" stroke="#63b8ff" d="M114.58,-170.37C112,-162.42 108.07,-150.33 104.73,-140.05"/>
<polygon fill="#63b8ff" stroke="#63b8ff" points="108.08,-139.04 101.67,-130.61 101.43,-141.2 108.08,-139.04"/>
</g>
<!-- Node20 -->
<g id="node20" class="node">
<title>Node20</title>
<g id="a_node20"><a xlink:title=" ">
<polygon fill="#e0e0e0" stroke="#999999" points="186.88,-129 145.88,-129 145.88,-110 186.88,-110 186.88,-129"/>
<text text-anchor="middle" x="166.38" y="-117" font-family="Helvetica,sans-Serif" font-size="10.00">string</text>
</a>
</g>
</g>
<!-- Node17&#45;&gt;Node20 -->
<g id="edge28" class="edge">
<title>Node17&#45;&gt;Node20</title>
<path fill="none" stroke="#63b8ff" d="M124.61,-170.37C131.78,-161.81 142.95,-148.47 151.94,-137.74"/>
<polygon fill="#63b8ff" stroke="#63b8ff" points="154.41,-140.24 158.15,-130.33 149.05,-135.75 154.41,-140.24"/>
</g>
<!-- Node21&#45;&gt;Node11 -->
<g id="edge30" class="edge">
<title>Node21&#45;&gt;Node11</title>
<path fill="none" stroke="#63b8ff" d="M499.56,-164.54C490.36,-156.13 478.74,-145.51 469.21,-136.8"/>
<polygon fill="#63b8ff" stroke="#63b8ff" points="471.73,-134.36 461.99,-130.2 467.01,-139.53 471.73,-134.36"/>
</g>
<!-- Node21&#45;&gt;Node12 -->
<g id="edge31" class="edge">
<title>Node21&#45;&gt;Node12</title>
<path fill="none" stroke="#63b8ff" d="M530.46,-164.54C539.14,-156.22 550.08,-145.72 559.11,-137.07"/>
<polygon fill="#63b8ff" stroke="#63b8ff" points="561.45,-139.67 566.24,-130.22 556.6,-134.62 561.45,-139.67"/>
</g>
</g>
</svg>
