<?xml version="1.0" encoding="UTF-8" standalone="no"?>
<!DOCTYPE svg PUBLIC "-//W3C//DTD SVG 1.1//EN"
 "http://www.w3.org/Graphics/SVG/1.1/DTD/svg11.dtd">
<!-- Generated by graphviz version 7.0.5 (20221223.1930)
 -->
<!-- Title: src/main.cpp Pages: 1 -->
<svg width="903pt" height="302pt"
 viewBox="0.00 0.00 903.00 302.00" xmlns="http://www.w3.org/2000/svg" xmlns:xlink="http://www.w3.org/1999/xlink">
<g id="graph0" class="graph" transform="scale(1 1) rotate(0) translate(4 298)">
<title>src/main.cpp</title>
<!-- Node1 -->
<g id="node1" class="node">
<title>Node1</title>
<g id="a_node1"><a xlink:title=" ">
<polygon fill="#999999" stroke="#666666" points="520,-294 448,-294 448,-275 520,-275 520,-294"/>
<text text-anchor="middle" x="484" y="-282" font-family="Helvetica,sans-Serif" font-size="10.00">src/main.cpp</text>
</a>
</g>
</g>
<!-- Node2 -->
<g id="node2" class="node">
<title>Node2</title>
<g id="a_node2"><a xlink:href="main_8hpp.xhtml" target="_top" xlink:title=" ">
<polygon fill="white" stroke="#666666" points="56,-239 0,-239 0,-220 56,-220 56,-239"/>
<text text-anchor="middle" x="28" y="-227" font-family="Helvetica,sans-Serif" font-size="10.00">main.hpp</text>
</a>
</g>
</g>
<!-- Node1&#45;&gt;Node2 -->
<g id="edge1" class="edge">
<title>Node1&#45;&gt;Node2</title>
<path fill="none" stroke="#63b8ff" d="M447.65,-281.11C376.5,-276.13 213.71,-263.17 67.18,-239.17"/>
<polygon fill="#63b8ff" stroke="#63b8ff" points="68.14,-235.78 57.71,-237.6 67,-242.69 68.14,-235.78"/>
</g>
<!-- Node3 -->
<g id="node3" class="node">
<title>Node3</title>
<g id="a_node3"><a xlink:href="Controller_8hpp.xhtml" target="_top" xlink:title=" ">
<polygon fill="white" stroke="#666666" points="284,-184 208,-184 208,-165 284,-165 284,-184"/>
<text text-anchor="middle" x="246" y="-172" font-family="Helvetica,sans-Serif" font-size="10.00">Controller.hpp</text>
</a>
</g>
</g>
<!-- Node1&#45;&gt;Node3 -->
<g id="edge2" class="edge">
<title>Node1&#45;&gt;Node3</title>
<path fill="none" stroke="#63b8ff" d="M447.58,-280.59C392.41,-275.46 291.28,-263.01 265,-239 252.91,-227.95 248.39,-209.57 246.76,-195.41"/>
<polygon fill="#63b8ff" stroke="#63b8ff" points="250.28,-195.58 246.06,-185.86 243.3,-196.09 250.28,-195.58"/>
</g>
<!-- Node8 -->
<g id="node8" class="node">
<title>Node8</title>
<g id="a_node8"><a xlink:href="Display_8hpp.xhtml" target="_top" xlink:title=" ">
<polygon fill="white" stroke="#666666" points="682,-239 616,-239 616,-220 682,-220 682,-239"/>
<text text-anchor="middle" x="649" y="-227" font-family="Helvetica,sans-Serif" font-size="10.00">Display.hpp</text>
</a>
</g>
</g>
<!-- Node1&#45;&gt;Node8 -->
<g id="edge8" class="edge">
<title>Node1&#45;&gt;Node8</title>
<path fill="none" stroke="#63b8ff" d="M511.99,-274.51C539.09,-265.8 580.41,-252.53 610.58,-242.84"/>
<polygon fill="#63b8ff" stroke="#63b8ff" points="611.26,-246.3 619.71,-239.91 609.12,-239.64 611.26,-246.3"/>
</g>
<!-- Node14 -->
<g id="node14" class="node">
<title>Node14</title>
<g id="a_node14"><a xlink:href="ProcessHmiInputs_8hpp.xhtml" target="_top" xlink:title=" ">
<polygon fill="white" stroke="#666666" points="390,-239 274,-239 274,-220 390,-220 390,-239"/>
<text text-anchor="middle" x="332" y="-227" font-family="Helvetica,sans-Serif" font-size="10.00">ProcessHmiInputs.hpp</text>
</a>
</g>
</g>
<!-- Node1&#45;&gt;Node14 -->
<g id="edge14" class="edge">
<title>Node1&#45;&gt;Node14</title>
<path fill="none" stroke="#63b8ff" d="M458.22,-274.51C433.57,-265.92 396.19,-252.88 368.49,-243.22"/>
<polygon fill="#63b8ff" stroke="#63b8ff" points="369.68,-239.93 359.09,-239.94 367.38,-246.54 369.68,-239.93"/>
</g>
<!-- Node17 -->
<g id="node17" class="node">
<title>Node17</title>
<g id="a_node17"><a xlink:href="keypad__factory__interface_8hpp.xhtml" target="_top" xlink:title=" ">
<polygon fill="white" stroke="#666666" points="217.5,-239 74.5,-239 74.5,-220 217.5,-220 217.5,-239"/>
<text text-anchor="middle" x="146" y="-227" font-family="Helvetica,sans-Serif" font-size="10.00">keypad_factory_interface.hpp</text>
</a>
</g>
</g>
<!-- Node1&#45;&gt;Node17 -->
<g id="edge18" class="edge">
<title>Node1&#45;&gt;Node17</title>
<path fill="none" stroke="#63b8ff" d="M447.51,-277.78C391.77,-269.04 284.49,-252.22 214.09,-241.18"/>
<polygon fill="#63b8ff" stroke="#63b8ff" points="215.03,-237.78 204.61,-239.69 213.95,-244.7 215.03,-237.78"/>
</g>
<!-- Node18 -->
<g id="node18" class="node">
<title>Node18</title>
<g id="a_node18"><a xlink:href="presenter__factory__interface_8hpp.xhtml" target="_top" xlink:title=" ">
<polygon fill="white" stroke="#666666" points="560,-239 408,-239 408,-220 560,-220 560,-239"/>
<text text-anchor="middle" x="484" y="-227" font-family="Helvetica,sans-Serif" font-size="10.00">presenter_factory_interface.hpp</text>
</a>
</g>
</g>
<!-- Node1&#45;&gt;Node18 -->
<g id="edge20" class="edge">
<title>Node1&#45;&gt;Node18</title>
<path fill="none" stroke="#63b8ff" d="M484,-274.75C484,-268.27 484,-259.16 484,-250.9"/>
<polygon fill="#63b8ff" stroke="#63b8ff" points="487.5,-250.96 484,-240.96 480.5,-250.96 487.5,-250.96"/>
</g>
<!-- Node19 -->
<g id="node19" class="node">
<title>Node19</title>
<g id="a_node19"><a xlink:href="serial__port_8hpp.xhtml" target="_top" xlink:title=" ">
<polygon fill="white" stroke="#666666" points="495,-184 415,-184 415,-165 495,-165 495,-184"/>
<text text-anchor="middle" x="455" y="-172" font-family="Helvetica,sans-Serif" font-size="10.00">serial_port.hpp</text>
</a>
</g>
</g>
<!-- Node1&#45;&gt;Node19 -->
<g id="edge22" class="edge">
<title>Node1&#45;&gt;Node19</title>
<path fill="none" stroke="#63b8ff" d="M515.36,-274.55C546.12,-264.11 586.09,-245.02 569,-220 560.8,-208 528.8,-196.11 500.78,-187.65"/>
<polygon fill="#63b8ff" stroke="#63b8ff" points="501.93,-184.34 491.35,-184.89 499.96,-191.06 501.93,-184.34"/>
</g>
<!-- Node23 -->
<g id="node23" class="node">
<title>Node23</title>
<g id="a_node23"><a xlink:title=" ">
<polygon fill="#e0e0e0" stroke="#999999" points="757.5,-239 700.5,-239 700.5,-220 757.5,-220 757.5,-239"/>
<text text-anchor="middle" x="729" y="-227" font-family="Helvetica,sans-Serif" font-size="10.00">Arduino.h</text>
</a>
</g>
</g>
<!-- Node1&#45;&gt;Node23 -->
<g id="edge28" class="edge">
<title>Node1&#45;&gt;Node23</title>
<path fill="none" stroke="#63b8ff" d="M520.29,-275.79C559.46,-267.46 623.96,-253.66 689.43,-239.33"/>
<polygon fill="#63b8ff" stroke="#63b8ff" points="689.87,-242.81 698.89,-237.25 688.38,-235.98 689.87,-242.81"/>
</g>
<!-- Node24 -->
<g id="node24" class="node">
<title>Node24</title>
<g id="a_node24"><a xlink:href="Protocol_8hpp.xhtml" target="_top" xlink:title=" ">
<polygon fill="white" stroke="#666666" points="846.5,-239 775.5,-239 775.5,-220 846.5,-220 846.5,-239"/>
<text text-anchor="middle" x="811" y="-227" font-family="Helvetica,sans-Serif" font-size="10.00">Protocol.hpp</text>
</a>
</g>
</g>
<!-- Node1&#45;&gt;Node24 -->
<g id="edge29" class="edge">
<title>Node1&#45;&gt;Node24</title>
<path fill="none" stroke="#63b8ff" d="M520.25,-278.21C572.05,-270.57 670.49,-255.71 763.67,-239.54"/>
<polygon fill="#63b8ff" stroke="#63b8ff" points="764.26,-242.99 773.51,-237.82 763.06,-236.09 764.26,-242.99"/>
</g>
<!-- Node4 -->
<g id="node4" class="node">
<title>Node4</title>
<g id="a_node4"><a xlink:href="IKeypad_8hpp.xhtml" target="_top" xlink:title=" ">
<polygon fill="white" stroke="#666666" points="206,-129 136,-129 136,-110 206,-110 206,-129"/>
<text text-anchor="middle" x="171" y="-117" font-family="Helvetica,sans-Serif" font-size="10.00">IKeypad.hpp</text>
</a>
</g>
</g>
<!-- Node3&#45;&gt;Node4 -->
<g id="edge3" class="edge">
<title>Node3&#45;&gt;Node4</title>
<path fill="none" stroke="#63b8ff" d="M233.28,-164.51C222.22,-156.7 205.96,-145.21 192.83,-135.93"/>
<polygon fill="#63b8ff" stroke="#63b8ff" points="194.96,-133.14 184.77,-130.23 190.92,-138.86 194.96,-133.14"/>
</g>
<!-- Node5 -->
<g id="node5" class="node">
<title>Node5</title>
<g id="a_node5"><a xlink:href="KeyIds_8hpp.xhtml" target="_top" xlink:title=" ">
<polygon fill="white" stroke="#666666" points="266.5,-74 201.5,-74 201.5,-55 266.5,-55 266.5,-74"/>
<text text-anchor="middle" x="234" y="-62" font-family="Helvetica,sans-Serif" font-size="10.00">KeyIds.hpp</text>
</a>
</g>
</g>
<!-- Node3&#45;&gt;Node5 -->
<g id="edge6" class="edge">
<title>Node3&#45;&gt;Node5</title>
<path fill="none" stroke="#63b8ff" d="M245.02,-164.66C243.11,-147.5 238.86,-109.26 236.23,-85.6"/>
<polygon fill="#63b8ff" stroke="#63b8ff" points="239.75,-85.52 235.16,-75.96 232.79,-86.29 239.75,-85.52"/>
</g>
<!-- Node7 -->
<g id="node7" class="node">
<title>Node7</title>
<g id="a_node7"><a xlink:title=" ">
<polygon fill="#e0e0e0" stroke="#999999" points="312,-129 262,-129 262,-110 312,-110 312,-129"/>
<text text-anchor="middle" x="287" y="-117" font-family="Helvetica,sans-Serif" font-size="10.00">optional</text>
</a>
</g>
</g>
<!-- Node3&#45;&gt;Node7 -->
<g id="edge7" class="edge">
<title>Node3&#45;&gt;Node7</title>
<path fill="none" stroke="#63b8ff" d="M252.77,-164.75C258.32,-157.58 266.34,-147.2 273.23,-138.3"/>
<polygon fill="#63b8ff" stroke="#63b8ff" points="275.81,-140.69 279.16,-130.64 270.27,-136.41 275.81,-140.69"/>
</g>
<!-- Node4&#45;&gt;Node5 -->
<g id="edge4" class="edge">
<title>Node4&#45;&gt;Node5</title>
<path fill="none" stroke="#63b8ff" d="M181.69,-109.51C190.7,-101.93 203.83,-90.88 214.68,-81.75"/>
<polygon fill="#63b8ff" stroke="#63b8ff" points="216.91,-84.45 222.31,-75.33 212.41,-79.09 216.91,-84.45"/>
</g>
<!-- Node6 -->
<g id="node6" class="node">
<title>Node6</title>
<g id="a_node6"><a xlink:title=" ">
<polygon fill="#e0e0e0" stroke="#999999" points="347,-19 295,-19 295,0 347,0 347,-19"/>
<text text-anchor="middle" x="321" y="-7" font-family="Helvetica,sans-Serif" font-size="10.00">ostream</text>
</a>
</g>
</g>
<!-- Node5&#45;&gt;Node6 -->
<g id="edge5" class="edge">
<title>Node5&#45;&gt;Node6</title>
<path fill="none" stroke="#63b8ff" d="M248.76,-54.51C261.96,-46.47 281.56,-34.53 297.01,-25.11"/>
<polygon fill="#63b8ff" stroke="#63b8ff" points="298.45,-28.34 305.17,-20.15 294.81,-22.36 298.45,-28.34"/>
</g>
<!-- Node9 -->
<g id="node9" class="node">
<title>Node9</title>
<g id="a_node9"><a xlink:href="IDisplay_8hpp.xhtml" target="_top" xlink:title=" ">
<polygon fill="white" stroke="#666666" points="772.5,-184 703.5,-184 703.5,-165 772.5,-165 772.5,-184"/>
<text text-anchor="middle" x="738" y="-172" font-family="Helvetica,sans-Serif" font-size="10.00">IDisplay.hpp</text>
</a>
</g>
</g>
<!-- Node8&#45;&gt;Node9 -->
<g id="edge9" class="edge">
<title>Node8&#45;&gt;Node9</title>
<path fill="none" stroke="#63b8ff" d="M664.1,-219.51C677.6,-211.47 697.65,-199.53 713.46,-190.11"/>
<polygon fill="#63b8ff" stroke="#63b8ff" points="715.02,-193.26 721.82,-185.13 711.44,-187.24 715.02,-193.26"/>
</g>
<!-- Node10 -->
<g id="node10" class="node">
<title>Node10</title>
<g id="a_node10"><a xlink:title=" ">
<polygon fill="#e0e0e0" stroke="#999999" points="895,-184 791,-184 791,-165 895,-165 895,-184"/>
<text text-anchor="middle" x="843" y="-172" font-family="Helvetica,sans-Serif" font-size="10.00">Adafruit_SSD1306.h</text>
</a>
</g>
</g>
<!-- Node8&#45;&gt;Node10 -->
<g id="edge10" class="edge">
<title>Node8&#45;&gt;Node10</title>
<path fill="none" stroke="#63b8ff" d="M681.91,-219.51C714.2,-210.69 763.63,-197.18 799.22,-187.46"/>
<polygon fill="#63b8ff" stroke="#63b8ff" points="800.07,-190.86 808.79,-184.85 798.22,-184.1 800.07,-190.86"/>
</g>
<!-- Node11 -->
<g id="node11" class="node">
<title>Node11</title>
<g id="a_node11"><a xlink:title=" ">
<polygon fill="#e0e0e0" stroke="#999999" points="559,-184 513,-184 513,-165 559,-165 559,-184"/>
<text text-anchor="middle" x="536" y="-172" font-family="Helvetica,sans-Serif" font-size="10.00">cstdint</text>
</a>
</g>
</g>
<!-- Node8&#45;&gt;Node11 -->
<g id="edge11" class="edge">
<title>Node8&#45;&gt;Node11</title>
<path fill="none" stroke="#63b8ff" d="M629.83,-219.51C612.11,-211.2 585.52,-198.73 565.17,-189.18"/>
<polygon fill="#63b8ff" stroke="#63b8ff" points="566.8,-186.08 556.26,-185 563.82,-192.42 566.8,-186.08"/>
</g>
<!-- Node12 -->
<g id="node12" class="node">
<title>Node12</title>
<g id="a_node12"><a xlink:title=" ">
<polygon fill="#e0e0e0" stroke="#999999" points="616.5,-184 577.5,-184 577.5,-165 616.5,-165 616.5,-184"/>
<text text-anchor="middle" x="597" y="-172" font-family="Helvetica,sans-Serif" font-size="10.00">lvgl.h</text>
</a>
</g>
</g>
<!-- Node8&#45;&gt;Node12 -->
<g id="edge12" class="edge">
<title>Node8&#45;&gt;Node12</title>
<path fill="none" stroke="#63b8ff" d="M640.41,-219.75C633.16,-212.35 622.55,-201.54 613.63,-192.45"/>
<polygon fill="#63b8ff" stroke="#63b8ff" points="616.34,-190.21 606.83,-185.52 611.34,-195.11 616.34,-190.21"/>
</g>
<!-- Node13 -->
<g id="node13" class="node">
<title>Node13</title>
<g id="a_node13"><a xlink:title=" ">
<polygon fill="#e0e0e0" stroke="#999999" points="685.5,-184 634.5,-184 634.5,-165 685.5,-165 685.5,-184"/>
<text text-anchor="middle" x="660" y="-172" font-family="Helvetica,sans-Serif" font-size="10.00">memory</text>
</a>
</g>
</g>
<!-- Node8&#45;&gt;Node13 -->
<g id="edge13" class="edge">
<title>Node8&#45;&gt;Node13</title>
<path fill="none" stroke="#63b8ff" d="M650.82,-219.75C652.18,-213.19 654.1,-203.95 655.83,-195.6"/>
<polygon fill="#63b8ff" stroke="#63b8ff" points="659.23,-196.43 657.84,-185.92 652.38,-195 659.23,-196.43"/>
</g>
<!-- Node14&#45;&gt;Node3 -->
<g id="edge15" class="edge">
<title>Node14&#45;&gt;Node3</title>
<path fill="none" stroke="#63b8ff" d="M317.41,-219.51C304.48,-211.54 285.36,-199.75 270.15,-190.38"/>
<polygon fill="#63b8ff" stroke="#63b8ff" points="272.01,-187.42 261.66,-185.15 268.34,-193.38 272.01,-187.42"/>
</g>
<!-- Node15 -->
<g id="node15" class="node">
<title>Node15</title>
<g id="a_node15"><a xlink:href="IPresenter_8hpp.xhtml" target="_top" xlink:title=" ">
<polygon fill="white" stroke="#666666" points="395,-184 315,-184 315,-165 395,-165 395,-184"/>
<text text-anchor="middle" x="355" y="-172" font-family="Helvetica,sans-Serif" font-size="10.00">IPresenter.hpp</text>
</a>
</g>
</g>
<!-- Node14&#45;&gt;Node15 -->
<g id="edge16" class="edge">
<title>Node14&#45;&gt;Node15</title>
<path fill="none" stroke="#63b8ff" d="M335.8,-219.75C338.74,-212.96 342.94,-203.3 346.65,-194.73"/>
<polygon fill="#63b8ff" stroke="#63b8ff" points="349.75,-196.4 350.52,-185.83 343.33,-193.61 349.75,-196.4"/>
</g>
<!-- Node16 -->
<g id="node16" class="node">
<title>Node16</title>
<g id="a_node16"><a xlink:title=" ">
<polygon fill="#e0e0e0" stroke="#999999" points="379.5,-129 330.5,-129 330.5,-110 379.5,-110 379.5,-129"/>
<text text-anchor="middle" x="355" y="-117" font-family="Helvetica,sans-Serif" font-size="10.00">cstddef</text>
</a>
</g>
</g>
<!-- Node15&#45;&gt;Node16 -->
<g id="edge17" class="edge">
<title>Node15&#45;&gt;Node16</title>
<path fill="none" stroke="#63b8ff" d="M355,-164.75C355,-158.27 355,-149.16 355,-140.9"/>
<polygon fill="#63b8ff" stroke="#63b8ff" points="358.5,-140.96 355,-130.96 351.5,-140.96 358.5,-140.96"/>
</g>
<!-- Node17&#45;&gt;Node4 -->
<g id="edge19" class="edge">
<title>Node17&#45;&gt;Node4</title>
<path fill="none" stroke="#63b8ff" d="M148.05,-219.66C152.02,-202.5 160.87,-164.26 166.35,-140.6"/>
<polygon fill="#63b8ff" stroke="#63b8ff" points="169.74,-141.47 168.58,-130.93 162.92,-139.89 169.74,-141.47"/>
</g>
<!-- Node18&#45;&gt;Node15 -->
<g id="edge21" class="edge">
<title>Node18&#45;&gt;Node15</title>
<path fill="none" stroke="#63b8ff" d="M462.12,-219.51C441.51,-211.04 410.41,-198.27 387.02,-188.66"/>
<polygon fill="#63b8ff" stroke="#63b8ff" points="388.54,-185.5 377.96,-184.93 385.88,-191.97 388.54,-185.5"/>
</g>
<!-- Node19&#45;&gt;Node6 -->
<g id="edge26" class="edge">
<title>Node19&#45;&gt;Node6</title>
<path fill="none" stroke="#63b8ff" d="M447.8,-164.74C426.53,-138.87 363.73,-62.48 335.29,-27.88"/>
<polygon fill="#63b8ff" stroke="#63b8ff" points="338.26,-25.98 329.2,-20.48 332.85,-30.42 338.26,-25.98"/>
</g>
<!-- Node19&#45;&gt;Node7 -->
<g id="edge25" class="edge">
<title>Node19&#45;&gt;Node7</title>
<path fill="none" stroke="#63b8ff" d="M426.5,-164.51C397.99,-155.51 354.03,-141.65 323.09,-131.89"/>
<polygon fill="#63b8ff" stroke="#63b8ff" points="324.37,-128.62 313.78,-128.95 322.26,-135.29 324.37,-128.62"/>
</g>
<!-- Node20 -->
<g id="node20" class="node">
<title>Node20</title>
<g id="a_node20"><a xlink:title=" ">
<polygon fill="#e0e0e0" stroke="#999999" points="474,-129 436,-129 436,-110 474,-110 474,-129"/>
<text text-anchor="middle" x="455" y="-117" font-family="Helvetica,sans-Serif" font-size="10.00">array</text>
</a>
</g>
</g>
<!-- Node19&#45;&gt;Node20 -->
<g id="edge23" class="edge">
<title>Node19&#45;&gt;Node20</title>
<path fill="none" stroke="#63b8ff" d="M455,-164.75C455,-158.27 455,-149.16 455,-140.9"/>
<polygon fill="#63b8ff" stroke="#63b8ff" points="458.5,-140.96 455,-130.96 451.5,-140.96 458.5,-140.96"/>
</g>
<!-- Node21 -->
<g id="node21" class="node">
<title>Node21</title>
<g id="a_node21"><a xlink:title=" ">
<polygon fill="#e0e0e0" stroke="#999999" points="551.5,-129 492.5,-129 492.5,-110 551.5,-110 551.5,-129"/>
<text text-anchor="middle" x="522" y="-117" font-family="Helvetica,sans-Serif" font-size="10.00">functional</text>
</a>
</g>
</g>
<!-- Node19&#45;&gt;Node21 -->
<g id="edge24" class="edge">
<title>Node19&#45;&gt;Node21</title>
<path fill="none" stroke="#63b8ff" d="M466.37,-164.51C476.05,-156.85 490.2,-145.66 501.81,-136.47"/>
<polygon fill="#63b8ff" stroke="#63b8ff" points="503.94,-139.25 509.62,-130.3 499.6,-133.76 503.94,-139.25"/>
</g>
<!-- Node22 -->
<g id="node22" class="node">
<title>Node22</title>
<g id="a_node22"><a xlink:title=" ">
<polygon fill="#e0e0e0" stroke="#999999" points="610.5,-129 569.5,-129 569.5,-110 610.5,-110 610.5,-129"/>
<text text-anchor="middle" x="590" y="-117" font-family="Helvetica,sans-Serif" font-size="10.00">string</text>
</a>
</g>
</g>
<!-- Node19&#45;&gt;Node22 -->
<g id="edge27" class="edge">
<title>Node19&#45;&gt;Node22</title>
<path fill="none" stroke="#63b8ff" d="M477.9,-164.51C500.08,-155.8 533.89,-142.53 558.58,-132.84"/>
<polygon fill="#63b8ff" stroke="#63b8ff" points="559.77,-136.13 567.8,-129.22 557.21,-129.61 559.77,-136.13"/>
</g>
</g>
</svg>
