<?xml version="1.0" encoding="UTF-8" standalone="no"?>
<!DOCTYPE svg PUBLIC "-//W3C//DTD SVG 1.1//EN"
 "http://www.w3.org/Graphics/SVG/1.1/DTD/svg11.dtd">
<!-- Generated by graphviz version 7.0.5 (20221223.1930)
 -->
<!-- Title: src/main.cpp Pages: 1 -->
<svg width="844pt" height="258pt"
 viewBox="0.00 0.00 844.00 258.00" xmlns="http://www.w3.org/2000/svg" xmlns:xlink="http://www.w3.org/1999/xlink">
<g id="graph0" class="graph" transform="scale(1 1) rotate(0) translate(4 254)">
<title>src/main.cpp</title>
<!-- Node1 -->
<g id="node1" class="node">
<title>Node1</title>
<g id="a_node1"><a xlink:title=" ">
<polygon fill="#999999" stroke="#666666" points="556.5,-250 484.5,-250 484.5,-231 556.5,-231 556.5,-250"/>
<text text-anchor="middle" x="520.5" y="-238" font-family="Helvetica,sans-Serif" font-size="10.00">src/main.cpp</text>
</a>
</g>
</g>
<!-- Node2 -->
<g id="node2" class="node">
<title>Node2</title>
<g id="a_node2"><a xlink:href="main_8hpp.xhtml" target="_top" xlink:title=" ">
<polygon fill="white" stroke="#666666" points="129.5,-189.5 73.5,-189.5 73.5,-170.5 129.5,-170.5 129.5,-189.5"/>
<text text-anchor="middle" x="101.5" y="-177.5" font-family="Helvetica,sans-Serif" font-size="10.00">main.hpp</text>
</a>
</g>
</g>
<!-- Node1&#45;&gt;Node2 -->
<g id="edge1" class="edge">
<title>Node1&#45;&gt;Node2</title>
<path fill="none" stroke="#63b8ff" d="M484.17,-238.23C415.65,-235.2 263.06,-225.33 138.5,-195 136.75,-194.57 134.97,-194.09 133.18,-193.56"/>
<polygon fill="#63b8ff" stroke="#63b8ff" points="134.38,-190.27 123.78,-190.39 132.14,-196.9 134.38,-190.27"/>
</g>
<!-- Node3 -->
<g id="node3" class="node">
<title>Node3</title>
<g id="a_node3"><a xlink:href="Display_8hpp.xhtml" target="_top" xlink:title=" ">
<polygon fill="white" stroke="#666666" points="213.5,-189.5 147.5,-189.5 147.5,-170.5 213.5,-170.5 213.5,-189.5"/>
<text text-anchor="middle" x="180.5" y="-177.5" font-family="Helvetica,sans-Serif" font-size="10.00">Display.hpp</text>
</a>
</g>
</g>
<!-- Node1&#45;&gt;Node3 -->
<g id="edge2" class="edge">
<title>Node1&#45;&gt;Node3</title>
<path fill="none" stroke="#63b8ff" d="M484.33,-236.15C427.87,-230.45 315.6,-217.29 222.5,-195 220.22,-194.45 217.89,-193.84 215.55,-193.18"/>
<polygon fill="#63b8ff" stroke="#63b8ff" points="216.76,-189.89 206.17,-190.31 214.71,-196.58 216.76,-189.89"/>
</g>
<!-- Node9 -->
<g id="node9" class="node">
<title>Node9</title>
<g id="a_node9"><a xlink:href="ProcessHmiInputs_8hpp.xhtml" target="_top" xlink:title=" ">
<polygon fill="white" stroke="#666666" points="517.5,-189.5 401.5,-189.5 401.5,-170.5 517.5,-170.5 517.5,-189.5"/>
<text text-anchor="middle" x="459.5" y="-177.5" font-family="Helvetica,sans-Serif" font-size="10.00">ProcessHmiInputs.hpp</text>
</a>
</g>
</g>
<!-- Node1&#45;&gt;Node9 -->
<g id="edge8" class="edge">
<title>Node1&#45;&gt;Node9</title>
<path fill="none" stroke="#63b8ff" d="M511.24,-230.62C502.19,-221.94 488.19,-208.52 477.04,-197.82"/>
<polygon fill="#63b8ff" stroke="#63b8ff" points="479.58,-195.41 469.94,-191.02 474.74,-200.46 479.58,-195.41"/>
</g>
<!-- Node16 -->
<g id="node16" class="node">
<title>Node16</title>
<g id="a_node16"><a xlink:href="controller__factory__interface_8hpp.xhtml" target="_top" xlink:title=" ">
<polygon fill="white" stroke="#666666" points="627,-195 536,-195 536,-165 627,-165 627,-195"/>
<text text-anchor="start" x="544" y="-183" font-family="Helvetica,sans-Serif" font-size="10.00">controller_factory</text>
<text text-anchor="middle" x="581.5" y="-172" font-family="Helvetica,sans-Serif" font-size="10.00">_interface.hpp</text>
</a>
</g>
</g>
<!-- Node1&#45;&gt;Node16 -->
<g id="edge15" class="edge">
<title>Node1&#45;&gt;Node16</title>
<path fill="none" stroke="#63b8ff" d="M529.76,-230.62C537.29,-223.4 548.24,-212.89 558.14,-203.41"/>
<polygon fill="#63b8ff" stroke="#63b8ff" points="560.56,-205.93 565.35,-196.49 555.71,-200.88 560.56,-205.93"/>
</g>
<!-- Node17 -->
<g id="node17" class="node">
<title>Node17</title>
<g id="a_node17"><a xlink:href="presenter__factory__interface_8hpp.xhtml" target="_top" xlink:title=" ">
<polygon fill="white" stroke="#666666" points="383.5,-189.5 231.5,-189.5 231.5,-170.5 383.5,-170.5 383.5,-189.5"/>
<text text-anchor="middle" x="307.5" y="-177.5" font-family="Helvetica,sans-Serif" font-size="10.00">presenter_factory_interface.hpp</text>
</a>
</g>
</g>
<!-- Node1&#45;&gt;Node17 -->
<g id="edge17" class="edge">
<title>Node1&#45;&gt;Node17</title>
<path fill="none" stroke="#63b8ff" d="M488.15,-230.62C451.56,-220.56 391.77,-204.15 351.09,-192.97"/>
<polygon fill="#63b8ff" stroke="#63b8ff" points="352.18,-189.64 341.61,-190.37 350.33,-196.39 352.18,-189.64"/>
</g>
<!-- Node18 -->
<g id="node18" class="node">
<title>Node18</title>
<g id="a_node18"><a xlink:href="serial__port_8hpp.xhtml" target="_top" xlink:title=" ">
<polygon fill="white" stroke="#666666" points="714.5,-129 634.5,-129 634.5,-110 714.5,-110 714.5,-129"/>
<text text-anchor="middle" x="674.5" y="-117" font-family="Helvetica,sans-Serif" font-size="10.00">serial_port.hpp</text>
</a>
</g>
</g>
<!-- Node1&#45;&gt;Node18 -->
<g id="edge19" class="edge">
<title>Node1&#45;&gt;Node18</title>
<path fill="none" stroke="#63b8ff" d="M556.81,-232.75C581.7,-226.53 614.13,-215.13 636.5,-195 653,-180.15 663.35,-156.47 669,-139.8"/>
<polygon fill="#63b8ff" stroke="#63b8ff" points="672.25,-141.16 671.87,-130.57 665.56,-139.08 672.25,-141.16"/>
</g>
<!-- Node22 -->
<g id="node22" class="node">
<title>Node22</title>
<g id="a_node22"><a xlink:title=" ">
<polygon fill="#e0e0e0" stroke="#999999" points="741,-189.5 684,-189.5 684,-170.5 741,-170.5 741,-189.5"/>
<text text-anchor="middle" x="712.5" y="-177.5" font-family="Helvetica,sans-Serif" font-size="10.00">Arduino.h</text>
</a>
</g>
</g>
<!-- Node1&#45;&gt;Node22 -->
<g id="edge25" class="edge">
<title>Node1&#45;&gt;Node22</title>
<path fill="none" stroke="#63b8ff" d="M551.39,-230.52C581.57,-221.68 628.78,-207.71 669.5,-195 671.09,-194.5 672.72,-193.99 674.36,-193.47"/>
<polygon fill="#63b8ff" stroke="#63b8ff" points="675.34,-196.83 683.79,-190.45 673.2,-190.17 675.34,-196.83"/>
</g>
<!-- Node23 -->
<g id="node23" class="node">
<title>Node23</title>
<g id="a_node23"><a xlink:href="Protocol_8hpp.xhtml" target="_top" xlink:title=" ">
<polygon fill="white" stroke="#666666" points="830,-189.5 759,-189.5 759,-170.5 830,-170.5 830,-189.5"/>
<text text-anchor="middle" x="794.5" y="-177.5" font-family="Helvetica,sans-Serif" font-size="10.00">Protocol.hpp</text>
</a>
</g>
</g>
<!-- Node1&#45;&gt;Node23 -->
<g id="edge26" class="edge">
<title>Node1&#45;&gt;Node23</title>
<path fill="none" stroke="#63b8ff" d="M556.64,-233.85C602.19,-226.43 682.71,-212.28 750.5,-195 752.75,-194.43 755.04,-193.81 757.36,-193.15"/>
<polygon fill="#63b8ff" stroke="#63b8ff" points="758.09,-196.59 766.67,-190.38 756.09,-189.88 758.09,-196.59"/>
</g>
<!-- Node4 -->
<g id="node4" class="node">
<title>Node4</title>
<g id="a_node4"><a xlink:href="IDisplay_8hpp.xhtml" target="_top" xlink:title=" ">
<polygon fill="white" stroke="#666666" points="195,-129 126,-129 126,-110 195,-110 195,-129"/>
<text text-anchor="middle" x="160.5" y="-117" font-family="Helvetica,sans-Serif" font-size="10.00">IDisplay.hpp</text>
</a>
</g>
</g>
<!-- Node3&#45;&gt;Node4 -->
<g id="edge3" class="edge">
<title>Node3&#45;&gt;Node4</title>
<path fill="none" stroke="#63b8ff" d="M177.55,-170.37C174.83,-162.42 170.7,-150.33 167.18,-140.05"/>
<polygon fill="#63b8ff" stroke="#63b8ff" points="170.5,-138.93 163.95,-130.6 163.88,-141.19 170.5,-138.93"/>
</g>
<!-- Node5 -->
<g id="node5" class="node">
<title>Node5</title>
<g id="a_node5"><a xlink:title=" ">
<polygon fill="#e0e0e0" stroke="#999999" points="317.5,-129 213.5,-129 213.5,-110 317.5,-110 317.5,-129"/>
<text text-anchor="middle" x="265.5" y="-117" font-family="Helvetica,sans-Serif" font-size="10.00">Adafruit_SSD1306.h</text>
</a>
</g>
</g>
<!-- Node3&#45;&gt;Node5 -->
<g id="edge4" class="edge">
<title>Node3&#45;&gt;Node5</title>
<path fill="none" stroke="#63b8ff" d="M193.41,-170.12C206.64,-161.01 227.47,-146.68 243.34,-135.75"/>
<polygon fill="#63b8ff" stroke="#63b8ff" points="244.97,-138.88 251.22,-130.33 241,-133.11 244.97,-138.88"/>
</g>
<!-- Node6 -->
<g id="node6" class="node">
<title>Node6</title>
<g id="a_node6"><a xlink:title=" ">
<polygon fill="#e0e0e0" stroke="#999999" points="381.5,-129 335.5,-129 335.5,-110 381.5,-110 381.5,-129"/>
<text text-anchor="middle" x="358.5" y="-117" font-family="Helvetica,sans-Serif" font-size="10.00">cstdint</text>
</a>
</g>
</g>
<!-- Node3&#45;&gt;Node6 -->
<g id="edge5" class="edge">
<title>Node3&#45;&gt;Node6</title>
<path fill="none" stroke="#63b8ff" d="M207.15,-170.09C212.25,-168.4 217.54,-166.64 222.5,-165 257.33,-153.5 297.23,-140.46 324.76,-131.48"/>
<polygon fill="#63b8ff" stroke="#63b8ff" points="325.52,-134.92 333.95,-128.49 323.35,-128.26 325.52,-134.92"/>
</g>
<!-- Node7 -->
<g id="node7" class="node">
<title>Node7</title>
<g id="a_node7"><a xlink:title=" ">
<polygon fill="#e0e0e0" stroke="#999999" points="39,-129 0,-129 0,-110 39,-110 39,-129"/>
<text text-anchor="middle" x="19.5" y="-117" font-family="Helvetica,sans-Serif" font-size="10.00">lvgl.h</text>
</a>
</g>
</g>
<!-- Node3&#45;&gt;Node7 -->
<g id="edge6" class="edge">
<title>Node3&#45;&gt;Node7</title>
<path fill="none" stroke="#63b8ff" d="M156.05,-170.12C127.53,-159.75 80.38,-142.62 49.63,-131.45"/>
<polygon fill="#63b8ff" stroke="#63b8ff" points="51.12,-128.27 40.53,-128.14 48.73,-134.85 51.12,-128.27"/>
</g>
<!-- Node8 -->
<g id="node8" class="node">
<title>Node8</title>
<g id="a_node8"><a xlink:title=" ">
<polygon fill="#e0e0e0" stroke="#999999" points="108,-129 57,-129 57,-110 108,-110 108,-129"/>
<text text-anchor="middle" x="82.5" y="-117" font-family="Helvetica,sans-Serif" font-size="10.00">memory</text>
</a>
</g>
</g>
<!-- Node3&#45;&gt;Node8 -->
<g id="edge7" class="edge">
<title>Node3&#45;&gt;Node8</title>
<path fill="none" stroke="#63b8ff" d="M165.62,-170.12C150.15,-160.88 125.67,-146.27 107.28,-135.29"/>
<polygon fill="#63b8ff" stroke="#63b8ff" points="109.2,-132.36 98.82,-130.24 105.62,-138.38 109.2,-132.36"/>
</g>
<!-- Node10 -->
<g id="node10" class="node">
<title>Node10</title>
<g id="a_node10"><a xlink:href="IController_8hpp.xhtml" target="_top" xlink:title=" ">
<polygon fill="white" stroke="#666666" points="609,-129 530,-129 530,-110 609,-110 609,-129"/>
<text text-anchor="middle" x="569.5" y="-117" font-family="Helvetica,sans-Serif" font-size="10.00">IController.hpp</text>
</a>
</g>
</g>
<!-- Node9&#45;&gt;Node10 -->
<g id="edge9" class="edge">
<title>Node9&#45;&gt;Node10</title>
<path fill="none" stroke="#63b8ff" d="M476.21,-170.12C493.81,-160.75 521.81,-145.86 542.55,-134.83"/>
<polygon fill="#63b8ff" stroke="#63b8ff" points="544.11,-137.96 551.3,-130.18 540.83,-131.78 544.11,-137.96"/>
</g>
<!-- Node14 -->
<g id="node14" class="node">
<title>Node14</title>
<g id="a_node14"><a xlink:href="IPresenter_8hpp.xhtml" target="_top" xlink:title=" ">
<polygon fill="white" stroke="#666666" points="479.5,-129 399.5,-129 399.5,-110 479.5,-110 479.5,-129"/>
<text text-anchor="middle" x="439.5" y="-117" font-family="Helvetica,sans-Serif" font-size="10.00">IPresenter.hpp</text>
</a>
</g>
</g>
<!-- Node9&#45;&gt;Node14 -->
<g id="edge13" class="edge">
<title>Node9&#45;&gt;Node14</title>
<path fill="none" stroke="#63b8ff" d="M456.55,-170.37C453.83,-162.42 449.7,-150.33 446.18,-140.05"/>
<polygon fill="#63b8ff" stroke="#63b8ff" points="449.5,-138.93 442.95,-130.6 442.88,-141.19 449.5,-138.93"/>
</g>
<!-- Node11 -->
<g id="node11" class="node">
<title>Node11</title>
<g id="a_node11"><a xlink:href="KeyIds_8hpp.xhtml" target="_top" xlink:title=" ">
<polygon fill="white" stroke="#666666" points="536,-74 471,-74 471,-55 536,-55 536,-74"/>
<text text-anchor="middle" x="503.5" y="-62" font-family="Helvetica,sans-Serif" font-size="10.00">KeyIds.hpp</text>
</a>
</g>
</g>
<!-- Node10&#45;&gt;Node11 -->
<g id="edge10" class="edge">
<title>Node10&#45;&gt;Node11</title>
<path fill="none" stroke="#63b8ff" d="M558.3,-109.51C548.76,-101.85 534.83,-90.66 523.39,-81.47"/>
<polygon fill="#63b8ff" stroke="#63b8ff" points="525.7,-78.84 515.71,-75.31 521.32,-84.3 525.7,-78.84"/>
</g>
<!-- Node13 -->
<g id="node13" class="node">
<title>Node13</title>
<g id="a_node13"><a xlink:title=" ">
<polygon fill="#e0e0e0" stroke="#999999" points="604.5,-74 554.5,-74 554.5,-55 604.5,-55 604.5,-74"/>
<text text-anchor="middle" x="579.5" y="-62" font-family="Helvetica,sans-Serif" font-size="10.00">optional</text>
</a>
</g>
</g>
<!-- Node10&#45;&gt;Node13 -->
<g id="edge12" class="edge">
<title>Node10&#45;&gt;Node13</title>
<path fill="none" stroke="#63b8ff" d="M571.15,-109.75C572.39,-103.19 574.13,-93.95 575.71,-85.6"/>
<polygon fill="#63b8ff" stroke="#63b8ff" points="579.12,-86.4 577.53,-75.93 572.24,-85.11 579.12,-86.4"/>
</g>
<!-- Node12 -->
<g id="node12" class="node">
<title>Node12</title>
<g id="a_node12"><a xlink:title=" ">
<polygon fill="#e0e0e0" stroke="#999999" points="593.5,-19 541.5,-19 541.5,0 593.5,0 593.5,-19"/>
<text text-anchor="middle" x="567.5" y="-7" font-family="Helvetica,sans-Serif" font-size="10.00">ostream</text>
</a>
</g>
</g>
<!-- Node11&#45;&gt;Node12 -->
<g id="edge11" class="edge">
<title>Node11&#45;&gt;Node12</title>
<path fill="none" stroke="#63b8ff" d="M514.36,-54.51C523.61,-46.85 537.12,-35.66 548.21,-26.47"/>
<polygon fill="#63b8ff" stroke="#63b8ff" points="550.17,-29.4 555.64,-20.32 545.7,-24.01 550.17,-29.4"/>
</g>
<!-- Node15 -->
<g id="node15" class="node">
<title>Node15</title>
<g id="a_node15"><a xlink:title=" ">
<polygon fill="#e0e0e0" stroke="#999999" points="453,-74 404,-74 404,-55 453,-55 453,-74"/>
<text text-anchor="middle" x="428.5" y="-62" font-family="Helvetica,sans-Serif" font-size="10.00">cstddef</text>
</a>
</g>
</g>
<!-- Node14&#45;&gt;Node15 -->
<g id="edge14" class="edge">
<title>Node14&#45;&gt;Node15</title>
<path fill="none" stroke="#63b8ff" d="M437.68,-109.75C436.32,-103.19 434.4,-93.95 432.67,-85.6"/>
<polygon fill="#63b8ff" stroke="#63b8ff" points="436.12,-85 430.66,-75.92 429.27,-86.43 436.12,-85"/>
</g>
<!-- Node16&#45;&gt;Node10 -->
<g id="edge16" class="edge">
<title>Node16&#45;&gt;Node10</title>
<path fill="none" stroke="#63b8ff" d="M578.53,-164.54C577.04,-157.26 575.21,-148.31 573.58,-140.39"/>
<polygon fill="#63b8ff" stroke="#63b8ff" points="577.02,-139.75 571.58,-130.66 570.16,-141.16 577.02,-139.75"/>
</g>
<!-- Node17&#45;&gt;Node14 -->
<g id="edge18" class="edge">
<title>Node17&#45;&gt;Node14</title>
<path fill="none" stroke="#63b8ff" d="M327.55,-170.12C349.16,-160.54 383.82,-145.18 408.86,-134.08"/>
<polygon fill="#63b8ff" stroke="#63b8ff" points="410.16,-137.33 417.88,-130.08 407.32,-130.93 410.16,-137.33"/>
</g>
<!-- Node18&#45;&gt;Node12 -->
<g id="edge23" class="edge">
<title>Node18&#45;&gt;Node12</title>
<path fill="none" stroke="#63b8ff" d="M666.31,-109.78C654.7,-97.45 632.71,-74.27 613.5,-55 604.19,-45.65 593.62,-35.4 584.96,-27.1"/>
<polygon fill="#63b8ff" stroke="#63b8ff" points="587.5,-24.69 577.85,-20.31 582.67,-29.75 587.5,-24.69"/>
</g>
<!-- Node18&#45;&gt;Node13 -->
<g id="edge22" class="edge">
<title>Node18&#45;&gt;Node13</title>
<path fill="none" stroke="#63b8ff" d="M658.38,-109.51C643.83,-101.39 622.16,-89.3 605.21,-79.85"/>
<polygon fill="#63b8ff" stroke="#63b8ff" points="607.14,-76.91 596.7,-75.1 603.73,-83.02 607.14,-76.91"/>
</g>
<!-- Node19 -->
<g id="node19" class="node">
<title>Node19</title>
<g id="a_node19"><a xlink:title=" ">
<polygon fill="#e0e0e0" stroke="#999999" points="758.5,-74 720.5,-74 720.5,-55 758.5,-55 758.5,-74"/>
<text text-anchor="middle" x="739.5" y="-62" font-family="Helvetica,sans-Serif" font-size="10.00">array</text>
</a>
</g>
</g>
<!-- Node18&#45;&gt;Node19 -->
<g id="edge20" class="edge">
<title>Node18&#45;&gt;Node19</title>
<path fill="none" stroke="#63b8ff" d="M685.53,-109.51C694.92,-101.85 708.65,-90.66 719.91,-81.47"/>
<polygon fill="#63b8ff" stroke="#63b8ff" points="721.93,-84.35 727.46,-75.31 717.5,-78.92 721.93,-84.35"/>
</g>
<!-- Node20 -->
<g id="node20" class="node">
<title>Node20</title>
<g id="a_node20"><a xlink:title=" ">
<polygon fill="#e0e0e0" stroke="#999999" points="836,-74 777,-74 777,-55 836,-55 836,-74"/>
<text text-anchor="middle" x="806.5" y="-62" font-family="Helvetica,sans-Serif" font-size="10.00">functional</text>
</a>
</g>
</g>
<!-- Node18&#45;&gt;Node20 -->
<g id="edge21" class="edge">
<title>Node18&#45;&gt;Node20</title>
<path fill="none" stroke="#63b8ff" d="M696.89,-109.51C718.07,-101.01 750.09,-88.15 774.06,-78.53"/>
<polygon fill="#63b8ff" stroke="#63b8ff" points="775.06,-81.9 783.03,-74.92 772.45,-75.4 775.06,-81.9"/>
</g>
<!-- Node21 -->
<g id="node21" class="node">
<title>Node21</title>
<g id="a_node21"><a xlink:title=" ">
<polygon fill="#e0e0e0" stroke="#999999" points="702,-74 661,-74 661,-55 702,-55 702,-74"/>
<text text-anchor="middle" x="681.5" y="-62" font-family="Helvetica,sans-Serif" font-size="10.00">string</text>
</a>
</g>
</g>
<!-- Node18&#45;&gt;Node21 -->
<g id="edge24" class="edge">
<title>Node18&#45;&gt;Node21</title>
<path fill="none" stroke="#63b8ff" d="M675.66,-109.75C676.52,-103.19 677.74,-93.95 678.84,-85.6"/>
<polygon fill="#63b8ff" stroke="#63b8ff" points="682.28,-86.31 680.12,-75.94 675.34,-85.4 682.28,-86.31"/>
</g>
</g>
</svg>
