<?xml version="1.0" encoding="UTF-8" standalone="no"?>
<!DOCTYPE svg PUBLIC "-//W3C//DTD SVG 1.1//EN"
 "http://www.w3.org/Graphics/SVG/1.1/DTD/svg11.dtd">
<!-- Generated by graphviz version 7.0.5 (20221223.1930)
 -->
<!-- Title: lib/application_business_rules/include/Menu.hpp Pages: 1 -->
<svg width="542pt" height="236pt"
 viewBox="0.00 0.00 541.50 236.00" xmlns="http://www.w3.org/2000/svg" xmlns:xlink="http://www.w3.org/1999/xlink">
<g id="graph0" class="graph" transform="scale(1 1) rotate(0) translate(4 232)">
<title>lib/application_business_rules/include/Menu.hpp</title>
<!-- Node1 -->
<g id="node1" class="node">
<title>Node1</title>
<g id="a_node1"><a xlink:title=" ">
<polygon fill="#999999" stroke="#666666" points="446.5,-228 324.5,-228 324.5,-198 446.5,-198 446.5,-228"/>
<text text-anchor="start" x="332.5" y="-216" font-family="Helvetica,sans-Serif" font-size="10.00">lib/application_business</text>
<text text-anchor="middle" x="385.5" y="-205" font-family="Helvetica,sans-Serif" font-size="10.00">_rules/include/Menu.hpp</text>
</a>
</g>
</g>
<!-- Node2 -->
<g id="node2" class="node">
<title>Node2</title>
<g id="a_node2"><a xlink:href="Presenter_8hpp.xhtml" target="_top" xlink:title=" ">
<polygon fill="white" stroke="#666666" points="317.5,-162 177.5,-162 177.5,-132 317.5,-132 317.5,-162"/>
<text text-anchor="start" x="185.5" y="-150" font-family="Helvetica,sans-Serif" font-size="10.00">lib/application_business</text>
<text text-anchor="middle" x="247.5" y="-139" font-family="Helvetica,sans-Serif" font-size="10.00">_rules/include/Presenter.hpp</text>
</a>
</g>
</g>
<!-- Node1&#45;&gt;Node2 -->
<g id="edge1" class="edge">
<title>Node1&#45;&gt;Node2</title>
<path fill="none" stroke="#63b8ff" d="M344.22,-192.86C323.09,-183.05 297.79,-171.32 278.37,-162.31"/>
<polygon fill="#63b8ff" stroke="#63b8ff" points="342.61,-195.97 353.16,-197 345.56,-189.62 342.61,-195.97"/>
</g>
<!-- Node5 -->
<g id="node5" class="node">
<title>Node5</title>
<g id="a_node5"><a xlink:href="main_8cpp.xhtml" target="_top" xlink:title=" ">
<polygon fill="white" stroke="#666666" points="252.5,-24.5 180.5,-24.5 180.5,-5.5 252.5,-5.5 252.5,-24.5"/>
<text text-anchor="middle" x="216.5" y="-12.5" font-family="Helvetica,sans-Serif" font-size="10.00">src/main.cpp</text>
</a>
</g>
</g>
<!-- Node1&#45;&gt;Node5 -->
<g id="edge8" class="edge">
<title>Node1&#45;&gt;Node5</title>
<path fill="none" stroke="#63b8ff" d="M389.68,-186.62C393.41,-154.75 394.61,-100.11 366.5,-66 338.74,-32.32 287.6,-21.19 252.83,-17.59"/>
<polygon fill="#63b8ff" stroke="#63b8ff" points="386.26,-185.75 388.38,-196.13 393.2,-186.7 386.26,-185.75"/>
</g>
<!-- Node7 -->
<g id="node7" class="node">
<title>Node7</title>
<g id="a_node7"><a xlink:href="Menu_8cpp.xhtml" target="_top" xlink:title=" ">
<polygon fill="white" stroke="#666666" points="533.5,-162 413.5,-162 413.5,-132 533.5,-132 533.5,-162"/>
<text text-anchor="start" x="421.5" y="-150" font-family="Helvetica,sans-Serif" font-size="10.00">lib/application_business</text>
<text text-anchor="middle" x="473.5" y="-139" font-family="Helvetica,sans-Serif" font-size="10.00">_rules/src/Menu.cpp</text>
</a>
</g>
</g>
<!-- Node1&#45;&gt;Node7 -->
<g id="edge7" class="edge">
<title>Node1&#45;&gt;Node7</title>
<path fill="none" stroke="#63b8ff" d="M414.03,-191.25C427,-181.82 442.02,-170.9 453.72,-162.39"/>
<polygon fill="#63b8ff" stroke="#63b8ff" points="412.28,-188.19 406.25,-196.91 416.4,-193.85 412.28,-188.19"/>
</g>
<!-- Node3 -->
<g id="node3" class="node">
<title>Node3</title>
<g id="a_node3"><a xlink:href="ProcessHmiInputs_8hpp.xhtml" target="_top" xlink:title=" ">
<polygon fill="white" stroke="#666666" points="179,-96 0,-96 0,-66 179,-66 179,-96"/>
<text text-anchor="start" x="8" y="-84" font-family="Helvetica,sans-Serif" font-size="10.00">lib/application_business</text>
<text text-anchor="middle" x="89.5" y="-73" font-family="Helvetica,sans-Serif" font-size="10.00">_rules/include/ProcessHmiInputs.hpp</text>
</a>
</g>
</g>
<!-- Node2&#45;&gt;Node3 -->
<g id="edge2" class="edge">
<title>Node2&#45;&gt;Node3</title>
<path fill="none" stroke="#63b8ff" d="M201.6,-127.41C177.23,-117.54 147.73,-105.59 125.11,-96.43"/>
<polygon fill="#63b8ff" stroke="#63b8ff" points="200.06,-130.56 210.64,-131.07 202.68,-124.07 200.06,-130.56"/>
</g>
<!-- Node2&#45;&gt;Node5 -->
<g id="edge6" class="edge">
<title>Node2&#45;&gt;Node5</title>
<path fill="none" stroke="#63b8ff" d="M235.64,-121.49C232.21,-113.52 228.78,-104.53 226.5,-96 219.71,-70.58 217.5,-39.35 216.8,-24.55"/>
<polygon fill="#63b8ff" stroke="#63b8ff" points="232.42,-122.88 239.74,-130.55 238.8,-119.99 232.42,-122.88"/>
</g>
<!-- Node6 -->
<g id="node6" class="node">
<title>Node6</title>
<g id="a_node6"><a xlink:href="Presenter_8cpp.xhtml" target="_top" xlink:title=" ">
<polygon fill="white" stroke="#666666" points="357.5,-96 235.5,-96 235.5,-66 357.5,-66 357.5,-96"/>
<text text-anchor="start" x="243.5" y="-84" font-family="Helvetica,sans-Serif" font-size="10.00">lib/application_business</text>
<text text-anchor="middle" x="296.5" y="-73" font-family="Helvetica,sans-Serif" font-size="10.00">_rules/src/Presenter.cpp</text>
</a>
</g>
</g>
<!-- Node2&#45;&gt;Node6 -->
<g id="edge5" class="edge">
<title>Node2&#45;&gt;Node6</title>
<path fill="none" stroke="#63b8ff" d="M265.36,-122.68C272.16,-113.79 279.7,-103.95 285.66,-96.16"/>
<polygon fill="#63b8ff" stroke="#63b8ff" points="262.59,-120.53 259.29,-130.59 268.15,-124.78 262.59,-120.53"/>
</g>
<!-- Node4 -->
<g id="node4" class="node">
<title>Node4</title>
<g id="a_node4"><a xlink:href="ProcessHmiInputs_8cpp.xhtml" target="_top" xlink:title=" ">
<polygon fill="white" stroke="#666666" points="162,-30 1,-30 1,0 162,0 162,-30"/>
<text text-anchor="start" x="9" y="-18" font-family="Helvetica,sans-Serif" font-size="10.00">lib/application_business</text>
<text text-anchor="middle" x="81.5" y="-7" font-family="Helvetica,sans-Serif" font-size="10.00">_rules/src/ProcessHmiInputs.cpp</text>
</a>
</g>
</g>
<!-- Node3&#45;&gt;Node4 -->
<g id="edge3" class="edge">
<title>Node3&#45;&gt;Node4</title>
<path fill="none" stroke="#63b8ff" d="M86.3,-54.39C85.27,-46.13 84.16,-37.28 83.27,-30.16"/>
<polygon fill="#63b8ff" stroke="#63b8ff" points="82.82,-54.81 87.54,-64.29 89.77,-53.94 82.82,-54.81"/>
</g>
<!-- Node3&#45;&gt;Node5 -->
<g id="edge4" class="edge">
<title>Node3&#45;&gt;Node5</title>
<path fill="none" stroke="#63b8ff" d="M128.02,-60.59C151.51,-48.75 180.43,-34.18 198.67,-24.99"/>
<polygon fill="#63b8ff" stroke="#63b8ff" points="126.71,-57.33 119.35,-64.96 129.86,-63.58 126.71,-57.33"/>
</g>
</g>
</svg>
