<?xml version="1.0" encoding="UTF-8" standalone="no"?>
<!DOCTYPE svg PUBLIC "-//W3C//DTD SVG 1.1//EN"
 "http://www.w3.org/Graphics/SVG/1.1/DTD/svg11.dtd">
<!-- Generated by graphviz version 7.0.5 (20221223.1930)
 -->
<!-- Title: lib/application_business_rules/src/Menu.hpp Pages: 1 -->
<svg width="365pt" height="181pt"
 viewBox="0.00 0.00 364.50 181.00" xmlns="http://www.w3.org/2000/svg" xmlns:xlink="http://www.w3.org/1999/xlink">
<g id="graph0" class="graph" transform="scale(1 1) rotate(0) translate(4 177)">
<title>lib/application_business_rules/src/Menu.hpp</title>
<!-- Node1 -->
<g id="node1" class="node">
<title>Node1</title>
<g id="a_node1"><a xlink:title=" ">
<polygon fill="#999999" stroke="#666666" points="259,-173 139,-173 139,-143 259,-143 259,-173"/>
<text text-anchor="start" x="147" y="-161" font-family="Helvetica,sans-Serif" font-size="10.00">lib/application_business</text>
<text text-anchor="middle" x="199" y="-150" font-family="Helvetica,sans-Serif" font-size="10.00">_rules/src/Menu.hpp</text>
</a>
</g>
</g>
<!-- Node2 -->
<g id="node2" class="node">
<title>Node2</title>
<g id="a_node2"><a xlink:href="Menu_8cpp.xhtml" target="_top" xlink:title=" ">
<polygon fill="white" stroke="#666666" points="120,-107 0,-107 0,-77 120,-77 120,-107"/>
<text text-anchor="start" x="8" y="-95" font-family="Helvetica,sans-Serif" font-size="10.00">lib/application_business</text>
<text text-anchor="middle" x="60" y="-84" font-family="Helvetica,sans-Serif" font-size="10.00">_rules/src/Menu.cpp</text>
</a>
</g>
</g>
<!-- Node1&#45;&gt;Node2 -->
<g id="edge1" class="edge">
<title>Node1&#45;&gt;Node2</title>
<path fill="none" stroke="#63b8ff" d="M157.42,-137.86C136.13,-128.05 110.65,-116.32 91.09,-107.31"/>
<polygon fill="#63b8ff" stroke="#63b8ff" points="155.88,-141 166.43,-142 158.81,-134.64 155.88,-141"/>
</g>
<!-- Node3 -->
<g id="node3" class="node">
<title>Node3</title>
<g id="a_node3"><a xlink:href="Presenter_8hpp.xhtml" target="_top" xlink:title=" ">
<polygon fill="white" stroke="#666666" points="260,-107 138,-107 138,-77 260,-77 260,-107"/>
<text text-anchor="start" x="146" y="-95" font-family="Helvetica,sans-Serif" font-size="10.00">lib/application_business</text>
<text text-anchor="middle" x="199" y="-84" font-family="Helvetica,sans-Serif" font-size="10.00">_rules/src/Presenter.hpp</text>
</a>
</g>
</g>
<!-- Node1&#45;&gt;Node3 -->
<g id="edge2" class="edge">
<title>Node1&#45;&gt;Node3</title>
<path fill="none" stroke="#63b8ff" d="M199,-131.39C199,-123.13 199,-114.28 199,-107.16"/>
<polygon fill="#63b8ff" stroke="#63b8ff" points="195.5,-131.28 199,-141.28 202.5,-131.28 195.5,-131.28"/>
</g>
<!-- Node5 -->
<g id="node5" class="node">
<title>Node5</title>
<g id="a_node5"><a xlink:href="presenter__factory__interface_8cpp.xhtml" target="_top" xlink:title=" ">
<polygon fill="white" stroke="#666666" points="356.5,-41 219.5,-41 219.5,0 356.5,0 356.5,-41"/>
<text text-anchor="start" x="227.5" y="-29" font-family="Helvetica,sans-Serif" font-size="10.00">lib/application_business</text>
<text text-anchor="start" x="227.5" y="-18" font-family="Helvetica,sans-Serif" font-size="10.00">_rules/src/presenter_factory</text>
<text text-anchor="middle" x="288" y="-7" font-family="Helvetica,sans-Serif" font-size="10.00">_interface.cpp</text>
</a>
</g>
</g>
<!-- Node1&#45;&gt;Node5 -->
<g id="edge5" class="edge">
<title>Node1&#45;&gt;Node5</title>
<path fill="none" stroke="#63b8ff" d="M238.12,-136.47C249.63,-128.67 261.21,-118.77 269,-107 282.09,-87.22 286.28,-59.8 287.56,-41.39"/>
<polygon fill="#63b8ff" stroke="#63b8ff" points="236.41,-133.41 229.83,-141.71 240.15,-139.32 236.41,-133.41"/>
</g>
<!-- Node4 -->
<g id="node4" class="node">
<title>Node4</title>
<g id="a_node4"><a xlink:href="Presenter_8cpp.xhtml" target="_top" xlink:title=" ">
<polygon fill="white" stroke="#666666" points="201,-35.5 79,-35.5 79,-5.5 201,-5.5 201,-35.5"/>
<text text-anchor="start" x="87" y="-23.5" font-family="Helvetica,sans-Serif" font-size="10.00">lib/application_business</text>
<text text-anchor="middle" x="140" y="-12.5" font-family="Helvetica,sans-Serif" font-size="10.00">_rules/src/Presenter.cpp</text>
</a>
</g>
</g>
<!-- Node3&#45;&gt;Node4 -->
<g id="edge3" class="edge">
<title>Node3&#45;&gt;Node4</title>
<path fill="none" stroke="#63b8ff" d="M179.34,-67.85C170.38,-57.28 160.04,-45.1 152.21,-35.88"/>
<polygon fill="#63b8ff" stroke="#63b8ff" points="176.66,-70.09 185.8,-75.45 181.99,-65.56 176.66,-70.09"/>
</g>
<!-- Node3&#45;&gt;Node5 -->
<g id="edge4" class="edge">
<title>Node3&#45;&gt;Node5</title>
<path fill="none" stroke="#63b8ff" d="M226.23,-69.74C237.77,-60.72 251.15,-50.28 262.5,-41.42"/>
<polygon fill="#63b8ff" stroke="#63b8ff" points="224.36,-66.75 218.63,-75.67 228.67,-72.27 224.36,-66.75"/>
</g>
</g>
</svg>
