<?xml version="1.0" encoding="UTF-8" standalone="no"?>
<!DOCTYPE svg PUBLIC "-//W3C//DTD SVG 1.1//EN"
 "http://www.w3.org/Graphics/SVG/1.1/DTD/svg11.dtd">
<!-- Generated by graphviz version 7.0.5 (20221223.1930)
 -->
<!-- Title: lib/application_business_rules/src/Menu.hpp Pages: 1 -->
<svg width="384pt" height="236pt"
 viewBox="0.00 0.00 383.77 236.00" xmlns="http://www.w3.org/2000/svg" xmlns:xlink="http://www.w3.org/1999/xlink">
<g id="graph0" class="graph" transform="scale(1 1) rotate(0) translate(4 232)">
<title>lib/application_business_rules/src/Menu.hpp</title>
<!-- Node1 -->
<g id="node1" class="node">
<title>Node1</title>
<g id="a_node1"><a xlink:title=" ">
<polygon fill="#999999" stroke="#666666" points="311.5,-228 191.5,-228 191.5,-198 311.5,-198 311.5,-228"/>
<text text-anchor="start" x="199.5" y="-216" font-family="Helvetica,sans-Serif" font-size="10.00">lib/application_business</text>
<text text-anchor="middle" x="251.5" y="-205" font-family="Helvetica,sans-Serif" font-size="10.00">_rules/src/Menu.hpp</text>
</a>
</g>
</g>
<!-- Node2 -->
<g id="node2" class="node">
<title>Node2</title>
<g id="a_node2"><a xlink:href="Menu_8cpp.xhtml" target="_top" xlink:title=" ">
<polygon fill="white" stroke="#666666" points="172.5,-162 52.5,-162 52.5,-132 172.5,-132 172.5,-162"/>
<text text-anchor="start" x="60.5" y="-150" font-family="Helvetica,sans-Serif" font-size="10.00">lib/application_business</text>
<text text-anchor="middle" x="112.5" y="-139" font-family="Helvetica,sans-Serif" font-size="10.00">_rules/src/Menu.cpp</text>
</a>
</g>
</g>
<!-- Node1&#45;&gt;Node2 -->
<g id="edge1" class="edge">
<title>Node1&#45;&gt;Node2</title>
<path fill="none" stroke="#63b8ff" d="M209.92,-192.86C188.63,-183.05 163.15,-171.32 143.59,-162.31"/>
<polygon fill="#63b8ff" stroke="#63b8ff" points="208.38,-196 218.93,-197 211.31,-189.64 208.38,-196"/>
</g>
<!-- Node3 -->
<g id="node3" class="node">
<title>Node3</title>
<g id="a_node3"><a xlink:href="Presenter_8hpp.xhtml" target="_top" xlink:title=" ">
<polygon fill="white" stroke="#666666" points="312.5,-162 190.5,-162 190.5,-132 312.5,-132 312.5,-162"/>
<text text-anchor="start" x="198.5" y="-150" font-family="Helvetica,sans-Serif" font-size="10.00">lib/application_business</text>
<text text-anchor="middle" x="251.5" y="-139" font-family="Helvetica,sans-Serif" font-size="10.00">_rules/src/Presenter.hpp</text>
</a>
</g>
</g>
<!-- Node1&#45;&gt;Node3 -->
<g id="edge2" class="edge">
<title>Node1&#45;&gt;Node3</title>
<path fill="none" stroke="#63b8ff" d="M251.5,-186.39C251.5,-178.13 251.5,-169.28 251.5,-162.16"/>
<polygon fill="#63b8ff" stroke="#63b8ff" points="248,-186.28 251.5,-196.28 255,-186.28 248,-186.28"/>
</g>
<!-- Node6 -->
<g id="node6" class="node">
<title>Node6</title>
<g id="a_node6"><a xlink:href="main_8cpp.xhtml" target="_top" xlink:title=" ">
<polygon fill="white" stroke="#666666" points="252.5,-24.5 180.5,-24.5 180.5,-5.5 252.5,-5.5 252.5,-24.5"/>
<text text-anchor="middle" x="216.5" y="-12.5" font-family="Helvetica,sans-Serif" font-size="10.00">src/main.cpp</text>
</a>
</g>
</g>
<!-- Node1&#45;&gt;Node6 -->
<g id="edge8" class="edge">
<title>Node1&#45;&gt;Node6</title>
<path fill="none" stroke="#63b8ff" d="M287.77,-191.72C332.76,-163.9 399.74,-112.11 366.5,-66 340.74,-30.26 288.32,-19.68 252.79,-16.76"/>
<polygon fill="#63b8ff" stroke="#63b8ff" points="286.05,-188.67 279.28,-196.82 289.66,-194.67 286.05,-188.67"/>
</g>
<!-- Node4 -->
<g id="node4" class="node">
<title>Node4</title>
<g id="a_node4"><a xlink:href="ProcessHmiInputs_8hpp.xhtml" target="_top" xlink:title=" ">
<polygon fill="white" stroke="#666666" points="179,-96 0,-96 0,-66 179,-66 179,-96"/>
<text text-anchor="start" x="8" y="-84" font-family="Helvetica,sans-Serif" font-size="10.00">lib/application_business</text>
<text text-anchor="middle" x="89.5" y="-73" font-family="Helvetica,sans-Serif" font-size="10.00">_rules/include/ProcessHmiInputs.hpp</text>
</a>
</g>
</g>
<!-- Node3&#45;&gt;Node4 -->
<g id="edge3" class="edge">
<title>Node3&#45;&gt;Node4</title>
<path fill="none" stroke="#63b8ff" d="M204.44,-127.41C179.45,-117.54 149.21,-105.59 126.01,-96.43"/>
<polygon fill="#63b8ff" stroke="#63b8ff" points="203.15,-130.66 213.74,-131.08 205.72,-124.15 203.15,-130.66"/>
</g>
<!-- Node3&#45;&gt;Node6 -->
<g id="edge7" class="edge">
<title>Node3&#45;&gt;Node6</title>
<path fill="none" stroke="#63b8ff" d="M237.25,-121.64C233.17,-113.7 229.13,-104.68 226.5,-96 218.87,-70.81 217.06,-39.48 216.63,-24.6"/>
<polygon fill="#63b8ff" stroke="#63b8ff" points="234.12,-123.22 241.97,-130.34 240.28,-119.88 234.12,-123.22"/>
</g>
<!-- Node7 -->
<g id="node7" class="node">
<title>Node7</title>
<g id="a_node7"><a xlink:href="Presenter_8cpp.xhtml" target="_top" xlink:title=" ">
<polygon fill="white" stroke="#666666" points="357.5,-96 235.5,-96 235.5,-66 357.5,-66 357.5,-96"/>
<text text-anchor="start" x="243.5" y="-84" font-family="Helvetica,sans-Serif" font-size="10.00">lib/application_business</text>
<text text-anchor="middle" x="296.5" y="-73" font-family="Helvetica,sans-Serif" font-size="10.00">_rules/src/Presenter.cpp</text>
</a>
</g>
</g>
<!-- Node3&#45;&gt;Node7 -->
<g id="edge6" class="edge">
<title>Node3&#45;&gt;Node7</title>
<path fill="none" stroke="#63b8ff" d="M268.1,-122.39C274.29,-113.59 281.13,-103.86 286.54,-96.16"/>
<polygon fill="#63b8ff" stroke="#63b8ff" points="265.25,-120.36 262.36,-130.56 270.97,-124.39 265.25,-120.36"/>
</g>
<!-- Node5 -->
<g id="node5" class="node">
<title>Node5</title>
<g id="a_node5"><a xlink:href="ProcessHmiInputs_8cpp.xhtml" target="_top" xlink:title=" ">
<polygon fill="white" stroke="#666666" points="162,-30 1,-30 1,0 162,0 162,-30"/>
<text text-anchor="start" x="9" y="-18" font-family="Helvetica,sans-Serif" font-size="10.00">lib/application_business</text>
<text text-anchor="middle" x="81.5" y="-7" font-family="Helvetica,sans-Serif" font-size="10.00">_rules/src/ProcessHmiInputs.cpp</text>
</a>
</g>
</g>
<!-- Node4&#45;&gt;Node5 -->
<g id="edge4" class="edge">
<title>Node4&#45;&gt;Node5</title>
<path fill="none" stroke="#63b8ff" d="M86.3,-54.39C85.27,-46.13 84.16,-37.28 83.27,-30.16"/>
<polygon fill="#63b8ff" stroke="#63b8ff" points="82.82,-54.81 87.54,-64.29 89.77,-53.94 82.82,-54.81"/>
</g>
<!-- Node4&#45;&gt;Node6 -->
<g id="edge5" class="edge">
<title>Node4&#45;&gt;Node6</title>
<path fill="none" stroke="#63b8ff" d="M128.02,-60.59C151.51,-48.75 180.43,-34.18 198.67,-24.99"/>
<polygon fill="#63b8ff" stroke="#63b8ff" points="126.71,-57.33 119.35,-64.96 129.86,-63.58 126.71,-57.33"/>
</g>
</g>
</svg>
