<?xml version="1.0" encoding="UTF-8" standalone="no"?>
<!DOCTYPE svg PUBLIC "-//W3C//DTD SVG 1.1//EN"
 "http://www.w3.org/Graphics/SVG/1.1/DTD/svg11.dtd">
<!-- Generated by graphviz version 9.0.0 (20230911.1827)
 -->
<!-- Title: lib/layer4_drivers_libraries_adapters/src/osr_factory_interface.cpp Pages: 1 -->
<svg width="496pt" height="282pt"
 viewBox="0.00 0.00 495.88 282.00" xmlns="http://www.w3.org/2000/svg" xmlns:xlink="http://www.w3.org/1999/xlink">
<g id="graph0" class="graph" transform="scale(1 1) rotate(0) translate(4 278)">
<title>lib/layer4_drivers_libraries_adapters/src/osr_factory_interface.cpp</title>
<!-- Node1 -->
<g id="Node000001" class="node">
<title>Node1</title>
<g id="a_Node000001"><a xlink:title=" ">
<polygon fill="#999999" stroke="#666666" points="266.75,-274 122.5,-274 122.5,-232.25 266.75,-232.25 266.75,-274"/>
<text text-anchor="start" x="130.5" y="-260.5" font-family="Helvetica,sans-Serif" font-size="10.00">lib/layer4_drivers</text>
<text text-anchor="start" x="130.5" y="-249.25" font-family="Helvetica,sans-Serif" font-size="10.00">_libraries_adapters</text>
<text text-anchor="middle" x="194.62" y="-238" font-family="Helvetica,sans-Serif" font-size="10.00">/src/osr_factory_interface.cpp</text>
</a>
</g>
</g>
<!-- Node2 -->
<g id="Node000002" class="node">
<title>Node2</title>
<g id="a_Node000002"><a xlink:href="osr__factory__interface_8hpp.xhtml" target="_top" xlink:title=" ">
<polygon fill="white" stroke="#666666" points="187,-196.25 62.25,-196.25 62.25,-177 187,-177 187,-196.25"/>
<text text-anchor="middle" x="124.62" y="-182.75" font-family="Helvetica,sans-Serif" font-size="10.00">osr_factory_interface.hpp</text>
</a>
</g>
</g>
<!-- Node1&#45;&gt;Node2 -->
<g id="edge1_Node000001_Node000002" class="edge">
<title>Node1&#45;&gt;Node2</title>
<g id="a_edge1_Node000001_Node000002"><a xlink:title=" ">
<path fill="none" stroke="#63b8ff" d="M172.86,-232.07C163.23,-223.19 152.03,-212.87 142.85,-204.41"/>
<polygon fill="#63b8ff" stroke="#63b8ff" points="145.31,-201.92 135.58,-197.72 140.56,-207.07 145.31,-201.92"/>
</a>
</g>
</g>
<!-- Node6 -->
<g id="Node000006" class="node">
<title>Node6</title>
<g id="a_Node000006"><a xlink:href="OutputShiftRegister_8hpp.xhtml" target="_top" xlink:title=" ">
<polygon fill="white" stroke="#666666" points="342.38,-196.25 222.88,-196.25 222.88,-177 342.38,-177 342.38,-196.25"/>
<text text-anchor="middle" x="282.62" y="-182.75" font-family="Helvetica,sans-Serif" font-size="10.00">OutputShiftRegister.hpp</text>
</a>
</g>
</g>
<!-- Node1&#45;&gt;Node6 -->
<g id="edge5_Node000001_Node000006" class="edge">
<title>Node1&#45;&gt;Node6</title>
<g id="a_edge5_Node000001_Node000006"><a xlink:title=" ">
<path fill="none" stroke="#63b8ff" d="M221.99,-232.07C234.6,-222.83 249.35,-212.01 261.15,-203.37"/>
<polygon fill="#63b8ff" stroke="#63b8ff" points="263.03,-206.32 269.03,-197.59 258.89,-200.68 263.03,-206.32"/>
</a>
</g>
</g>
<!-- Node3 -->
<g id="Node000003" class="node">
<title>Node3</title>
<g id="a_Node000003"><a xlink:href="IOutputShiftRegister_8hpp.xhtml" target="_top" xlink:title=" ">
<polygon fill="white" stroke="#666666" points="185.88,-135.38 63.38,-135.38 63.38,-116.12 185.88,-116.12 185.88,-135.38"/>
<text text-anchor="middle" x="124.62" y="-121.88" font-family="Helvetica,sans-Serif" font-size="10.00">IOutputShiftRegister.hpp</text>
</a>
</g>
</g>
<!-- Node2&#45;&gt;Node3 -->
<g id="edge2_Node000002_Node000003" class="edge">
<title>Node2&#45;&gt;Node3</title>
<g id="a_edge2_Node000002_Node000003"><a xlink:title=" ">
<path fill="none" stroke="#63b8ff" d="M124.62,-176.68C124.62,-168.9 124.62,-157.33 124.62,-147.28"/>
<polygon fill="#63b8ff" stroke="#63b8ff" points="128.13,-147.29 124.63,-137.29 121.13,-147.29 128.13,-147.29"/>
</a>
</g>
</g>
<!-- Node5 -->
<g id="Node000005" class="node">
<title>Node5</title>
<g id="a_Node000005"><a xlink:title=" ">
<polygon fill="#e0e0e0" stroke="#999999" points="45.25,-135.38 0,-135.38 0,-116.12 45.25,-116.12 45.25,-135.38"/>
<text text-anchor="middle" x="22.62" y="-121.88" font-family="Helvetica,sans-Serif" font-size="10.00">cstdint</text>
</a>
</g>
</g>
<!-- Node2&#45;&gt;Node5 -->
<g id="edge4_Node000002_Node000005" class="edge">
<title>Node2&#45;&gt;Node5</title>
<g id="a_edge4_Node000002_Node000005"><a xlink:title=" ">
<path fill="none" stroke="#63b8ff" d="M109.13,-176.68C92.96,-167.35 67.32,-152.55 48.15,-141.48"/>
<polygon fill="#63b8ff" stroke="#63b8ff" points="49.98,-138.5 39.57,-136.53 46.48,-144.56 49.98,-138.5"/>
</a>
</g>
</g>
<!-- Node4 -->
<g id="Node000004" class="node">
<title>Node4</title>
<g id="a_Node000004"><a xlink:title=" ">
<polygon fill="#e0e0e0" stroke="#999999" points="193.75,-74.5 145.5,-74.5 145.5,-55.25 193.75,-55.25 193.75,-74.5"/>
<text text-anchor="middle" x="169.62" y="-61" font-family="Helvetica,sans-Serif" font-size="10.00">cstddef</text>
</a>
</g>
</g>
<!-- Node3&#45;&gt;Node4 -->
<g id="edge3_Node000003_Node000004" class="edge">
<title>Node3&#45;&gt;Node4</title>
<g id="a_edge3_Node000003_Node000004"><a xlink:title=" ">
<path fill="none" stroke="#63b8ff" d="M131.46,-115.81C137.94,-107.34 147.85,-94.37 155.95,-83.77"/>
<polygon fill="#63b8ff" stroke="#63b8ff" points="158.52,-86.17 161.81,-76.1 152.95,-81.92 158.52,-86.17"/>
</a>
</g>
</g>
<!-- Node6&#45;&gt;Node3 -->
<g id="edge6_Node000006_Node000003" class="edge">
<title>Node6&#45;&gt;Node3</title>
<g id="a_edge6_Node000006_Node000003"><a xlink:title=" ">
<path fill="none" stroke="#63b8ff" d="M258.28,-176.55C231.84,-166.7 189.37,-150.88 159.41,-139.71"/>
<polygon fill="#63b8ff" stroke="#63b8ff" points="161,-136.57 150.41,-136.36 158.56,-143.13 161,-136.57"/>
</a>
</g>
</g>
<!-- Node6&#45;&gt;Node4 -->
<g id="edge8_Node000006_Node000004" class="edge">
<title>Node6&#45;&gt;Node4</title>
<g id="a_edge8_Node000006_Node000004"><a xlink:title=" ">
<path fill="none" stroke="#63b8ff" d="M271.88,-176.82C261.47,-168.1 245.42,-154.2 232.62,-141 214.55,-122.35 195.64,-99.25 183.31,-83.62"/>
<polygon fill="#63b8ff" stroke="#63b8ff" points="186.08,-81.48 177.17,-75.75 180.56,-85.79 186.08,-81.48"/>
</a>
</g>
</g>
<!-- Node7 -->
<g id="Node000007" class="node">
<title>Node7</title>
<g id="a_Node000007"><a xlink:title=" ">
<polygon fill="#e0e0e0" stroke="#999999" points="361.75,-135.38 241.5,-135.38 241.5,-116.12 361.75,-116.12 361.75,-135.38"/>
<text text-anchor="middle" x="301.62" y="-121.88" font-family="Helvetica,sans-Serif" font-size="10.00">ShiftRegister74HC595.h</text>
</a>
</g>
</g>
<!-- Node6&#45;&gt;Node7 -->
<g id="edge7_Node000006_Node000007" class="edge">
<title>Node6&#45;&gt;Node7</title>
<g id="a_edge7_Node000006_Node000007"><a xlink:title=" ">
<path fill="none" stroke="#63b8ff" d="M285.51,-176.68C288.08,-168.73 291.92,-156.81 295.21,-146.62"/>
<polygon fill="#63b8ff" stroke="#63b8ff" points="298.51,-147.81 298.25,-137.22 291.85,-145.66 298.51,-147.81"/>
</a>
</g>
</g>
<!-- Node8 -->
<g id="Node000008" class="node">
<title>Node8</title>
<g id="a_Node000008"><a xlink:href="OutputShiftRegister__implementation_8hpp.xhtml" target="_top" xlink:title=" ">
<polygon fill="white" stroke="#666666" points="485.25,-141 380,-141 380,-110.5 485.25,-110.5 485.25,-141"/>
<text text-anchor="start" x="388" y="-127.5" font-family="Helvetica,sans-Serif" font-size="10.00">OutputShiftRegister</text>
<text text-anchor="middle" x="432.62" y="-116.25" font-family="Helvetica,sans-Serif" font-size="10.00">_implementation.hpp</text>
</a>
</g>
</g>
<!-- Node6&#45;&gt;Node8 -->
<g id="edge9_Node000006_Node000008" class="edge">
<title>Node6&#45;&gt;Node8</title>
<g id="a_edge9_Node000006_Node000008"><a xlink:title=" ">
<path fill="none" stroke="#63b8ff" d="M300.7,-176.55C320.03,-168.3 351.32,-155.84 378.63,-145.46"/>
<polygon fill="#63b8ff" stroke="#63b8ff" points="379.72,-148.79 387.84,-141.98 377.25,-142.24 379.72,-148.79"/>
</a>
</g>
</g>
<!-- Node8&#45;&gt;Node6 -->
<g id="edge10_Node000008_Node000006" class="edge">
<title>Node8&#45;&gt;Node6</title>
<g id="a_edge10_Node000008_Node000006"><a xlink:title=" ">
<path fill="none" stroke="#63b8ff" d="M401.12,-141.44C377.82,-151.04 346.11,-163.46 321.29,-172.69"/>
<polygon fill="#63b8ff" stroke="#63b8ff" points="320.37,-169.3 312.19,-176.03 322.78,-175.87 320.37,-169.3"/>
</a>
</g>
</g>
<!-- Node9 -->
<g id="Node000009" class="node">
<title>Node9</title>
<g id="a_Node000009"><a xlink:href="framework__config_8hpp.xhtml" target="_top" xlink:title="Framework adapters.">
<polygon fill="white" stroke="#666666" points="487.88,-74.5 377.38,-74.5 377.38,-55.25 487.88,-55.25 487.88,-74.5"/>
<text text-anchor="middle" x="432.62" y="-61" font-family="Helvetica,sans-Serif" font-size="10.00">framework_config.hpp</text>
</a>
</g>
</g>
<!-- Node8&#45;&gt;Node9 -->
<g id="edge11_Node000008_Node000009" class="edge">
<title>Node8&#45;&gt;Node9</title>
<g id="a_edge11_Node000008_Node000009"><a xlink:title=" ">
<path fill="none" stroke="#63b8ff" d="M432.62,-110.2C432.62,-102.96 432.62,-94.09 432.62,-86.19"/>
<polygon fill="#63b8ff" stroke="#63b8ff" points="436.13,-86.46 432.63,-76.46 429.13,-86.46 436.13,-86.46"/>
</a>
</g>
</g>
<!-- Node10 -->
<g id="Node000010" class="node">
<title>Node10</title>
<g id="a_Node000010"><a xlink:title=" ">
<polygon fill="#e0e0e0" stroke="#999999" points="460.88,-19.25 404.38,-19.25 404.38,0 460.88,0 460.88,-19.25"/>
<text text-anchor="middle" x="432.62" y="-5.75" font-family="Helvetica,sans-Serif" font-size="10.00">Arduino.h</text>
</a>
</g>
</g>
<!-- Node9&#45;&gt;Node10 -->
<g id="edge12_Node000009_Node000010" class="edge">
<title>Node9&#45;&gt;Node10</title>
<g id="a_edge12_Node000009_Node000010"><a xlink:title=" ">
<path fill="none" stroke="#63b8ff" d="M432.62,-55.08C432.62,-48.57 432.62,-39.42 432.62,-31.12"/>
<polygon fill="#63b8ff" stroke="#63b8ff" points="436.13,-31.12 432.63,-21.12 429.13,-31.12 436.13,-31.12"/>
</a>
</g>
</g>
</g>
</svg>
