<?xml version="1.0" encoding="UTF-8" standalone="no"?>
<!DOCTYPE svg PUBLIC "-//W3C//DTD SVG 1.1//EN"
 "http://www.w3.org/Graphics/SVG/1.1/DTD/svg11.dtd">
<!-- Generated by graphviz version 9.0.0 (20230911.1827)
 -->
<!-- Title: lib/layer4_drivers_libraries_adapters/src/OutputShiftRegister_implementation.hpp Pages: 1 -->
<svg width="392pt" height="227pt"
 viewBox="0.00 0.00 391.50 226.75" xmlns="http://www.w3.org/2000/svg" xmlns:xlink="http://www.w3.org/1999/xlink">
<g id="graph0" class="graph" transform="scale(1 1) rotate(0) translate(4 222.75)">
<title>lib/layer4_drivers_libraries_adapters/src/OutputShiftRegister_implementation.hpp</title>
<!-- Node1 -->
<g id="Node000001" class="node">
<title>Node1</title>
<g id="a_Node000001"><a xlink:title=" ">
<polygon fill="#999999" stroke="#666666" points="225.75,-218.75 104.75,-218.75 104.75,-165.75 225.75,-165.75 225.75,-218.75"/>
<text text-anchor="start" x="112.75" y="-205.25" font-family="Helvetica,sans-Serif" font-size="10.00">lib/layer4_drivers</text>
<text text-anchor="start" x="112.75" y="-194" font-family="Helvetica,sans-Serif" font-size="10.00">_libraries_adapters</text>
<text text-anchor="start" x="112.75" y="-182.75" font-family="Helvetica,sans-Serif" font-size="10.00">/src/OutputShiftRegister</text>
<text text-anchor="middle" x="165.25" y="-171.5" font-family="Helvetica,sans-Serif" font-size="10.00">_implementation.hpp</text>
</a>
</g>
</g>
<!-- Node2 -->
<g id="Node000002" class="node">
<title>Node2</title>
<g id="a_Node000002"><a xlink:href="OutputShiftRegister_8hpp.xhtml" target="_top" xlink:title=" ">
<polygon fill="white" stroke="#666666" points="225,-129.75 105.5,-129.75 105.5,-110.5 225,-110.5 225,-129.75"/>
<text text-anchor="middle" x="165.25" y="-116.25" font-family="Helvetica,sans-Serif" font-size="10.00">OutputShiftRegister.hpp</text>
</a>
</g>
</g>
<!-- Node1&#45;&gt;Node2 -->
<g id="edge1_Node000001_Node000002" class="edge">
<title>Node1&#45;&gt;Node2</title>
<g id="a_edge1_Node000001_Node000002"><a xlink:title=" ">
<path fill="none" stroke="#63b8ff" d="M158.72,-165.54C158.34,-157.62 158.45,-149.02 159.05,-141.52"/>
<polygon fill="#63b8ff" stroke="#63b8ff" points="162.51,-142.11 160.33,-131.74 155.57,-141.2 162.51,-142.11"/>
</a>
</g>
</g>
<!-- Node6 -->
<g id="Node000006" class="node">
<title>Node6</title>
<g id="a_Node000006"><a xlink:href="framework__config_8hpp.xhtml" target="_top" xlink:title="Framework adapters.">
<polygon fill="white" stroke="#666666" points="383.5,-129.75 273,-129.75 273,-110.5 383.5,-110.5 383.5,-129.75"/>
<text text-anchor="middle" x="328.25" y="-116.25" font-family="Helvetica,sans-Serif" font-size="10.00">framework_config.hpp</text>
</a>
</g>
</g>
<!-- Node1&#45;&gt;Node6 -->
<g id="edge7_Node000001_Node000006" class="edge">
<title>Node1&#45;&gt;Node6</title>
<g id="a_edge7_Node000001_Node000006"><a xlink:title=" ">
<path fill="none" stroke="#63b8ff" d="M225.48,-165.34C249.66,-154.93 276.53,-143.38 296.72,-134.69"/>
<polygon fill="#63b8ff" stroke="#63b8ff" points="298.01,-137.95 305.81,-130.78 295.24,-131.52 298.01,-137.95"/>
</a>
</g>
</g>
<!-- Node2&#45;&gt;Node1 -->
<g id="edge6_Node000002_Node000001" class="edge">
<title>Node2&#45;&gt;Node1</title>
<g id="a_edge6_Node000002_Node000001"><a xlink:title=" ">
<path fill="none" stroke="#63b8ff" d="M169.97,-130.24C171.23,-136.51 171.91,-145.31 171.99,-154.27"/>
<polygon fill="#63b8ff" stroke="#63b8ff" points="168.5,-153.96 171.81,-164.02 175.5,-154.09 168.5,-153.96"/>
</a>
</g>
</g>
<!-- Node3 -->
<g id="Node000003" class="node">
<title>Node3</title>
<g id="a_Node000003"><a xlink:href="IOutputShiftRegister_8hpp.xhtml" target="_top" xlink:title=" ">
<polygon fill="white" stroke="#666666" points="122.5,-74.5 0,-74.5 0,-55.25 122.5,-55.25 122.5,-74.5"/>
<text text-anchor="middle" x="61.25" y="-61" font-family="Helvetica,sans-Serif" font-size="10.00">IOutputShiftRegister.hpp</text>
</a>
</g>
</g>
<!-- Node2&#45;&gt;Node3 -->
<g id="edge2_Node000002_Node000003" class="edge">
<title>Node2&#45;&gt;Node3</title>
<g id="a_edge2_Node000002_Node000003"><a xlink:title=" ">
<path fill="none" stroke="#63b8ff" d="M147.61,-110.09C131.62,-101.91 107.79,-89.71 89.21,-80.19"/>
<polygon fill="#63b8ff" stroke="#63b8ff" points="90.82,-77.08 80.33,-75.64 87.63,-83.32 90.82,-77.08"/>
</a>
</g>
</g>
<!-- Node4 -->
<g id="Node000004" class="node">
<title>Node4</title>
<g id="a_Node000004"><a xlink:title=" ">
<polygon fill="#e0e0e0" stroke="#999999" points="129.38,-19.25 81.12,-19.25 81.12,0 129.38,0 129.38,-19.25"/>
<text text-anchor="middle" x="105.25" y="-5.75" font-family="Helvetica,sans-Serif" font-size="10.00">cstddef</text>
</a>
</g>
</g>
<!-- Node2&#45;&gt;Node4 -->
<g id="edge5_Node000002_Node000004" class="edge">
<title>Node2&#45;&gt;Node4</title>
<g id="a_edge5_Node000002_Node000004"><a xlink:title=" ">
<path fill="none" stroke="#63b8ff" d="M160.74,-110.39C154.32,-98.03 142.13,-74.78 131.25,-55.25 126.45,-46.63 120.97,-37.18 116.29,-29.21"/>
<polygon fill="#63b8ff" stroke="#63b8ff" points="119.4,-27.59 111.3,-20.76 113.37,-31.15 119.4,-27.59"/>
</a>
</g>
</g>
<!-- Node5 -->
<g id="Node000005" class="node">
<title>Node5</title>
<g id="a_Node000005"><a xlink:title=" ">
<polygon fill="#e0e0e0" stroke="#999999" points="298.38,-74.5 178.12,-74.5 178.12,-55.25 298.38,-55.25 298.38,-74.5"/>
<text text-anchor="middle" x="238.25" y="-61" font-family="Helvetica,sans-Serif" font-size="10.00">ShiftRegister74HC595.h</text>
</a>
</g>
</g>
<!-- Node2&#45;&gt;Node5 -->
<g id="edge4_Node000002_Node000005" class="edge">
<title>Node2&#45;&gt;Node5</title>
<g id="a_edge4_Node000002_Node000005"><a xlink:title=" ">
<path fill="none" stroke="#63b8ff" d="M177.63,-110.09C188.4,-102.24 204.22,-90.7 217,-81.37"/>
<polygon fill="#63b8ff" stroke="#63b8ff" points="218.81,-84.39 224.83,-75.67 214.69,-78.73 218.81,-84.39"/>
</a>
</g>
</g>
<!-- Node3&#45;&gt;Node4 -->
<g id="edge3_Node000003_Node000004" class="edge">
<title>Node3&#45;&gt;Node4</title>
<g id="a_edge3_Node000003_Node000004"><a xlink:title=" ">
<path fill="none" stroke="#63b8ff" d="M68.52,-55.08C74.53,-47.8 83.26,-37.23 90.71,-28.23"/>
<polygon fill="#63b8ff" stroke="#63b8ff" points="93.19,-30.71 96.86,-20.78 87.79,-26.26 93.19,-30.71"/>
</a>
</g>
</g>
<!-- Node7 -->
<g id="Node000007" class="node">
<title>Node7</title>
<g id="a_Node000007"><a xlink:title=" ">
<polygon fill="#e0e0e0" stroke="#999999" points="372.5,-74.5 316,-74.5 316,-55.25 372.5,-55.25 372.5,-74.5"/>
<text text-anchor="middle" x="344.25" y="-61" font-family="Helvetica,sans-Serif" font-size="10.00">Arduino.h</text>
</a>
</g>
</g>
<!-- Node6&#45;&gt;Node7 -->
<g id="edge8_Node000006_Node000007" class="edge">
<title>Node6&#45;&gt;Node7</title>
<g id="a_edge8_Node000006_Node000007"><a xlink:title=" ">
<path fill="none" stroke="#63b8ff" d="M330.89,-110.33C332.89,-103.67 335.73,-94.24 338.27,-85.78"/>
<polygon fill="#63b8ff" stroke="#63b8ff" points="341.59,-86.89 341.11,-76.31 334.89,-84.88 341.59,-86.89"/>
</a>
</g>
</g>
</g>
</svg>
