<?xml version="1.0" encoding="UTF-8" standalone="no"?>
<!DOCTYPE svg PUBLIC "-//W3C//DTD SVG 1.1//EN"
 "http://www.w3.org/Graphics/SVG/1.1/DTD/svg11.dtd">
<!-- Generated by graphviz version 9.0.0 (20230911.1827)
 -->
<!-- Title: lib/layer4_drivers_libraries_adapters/src/OutputShiftRegister.hpp Pages: 1 -->
<svg width="301pt" height="139pt"
 viewBox="0.00 0.00 300.62 138.75" xmlns="http://www.w3.org/2000/svg" xmlns:xlink="http://www.w3.org/1999/xlink">
<g id="graph0" class="graph" transform="scale(1 1) rotate(0) translate(4 134.75)">
<title>lib/layer4_drivers_libraries_adapters/src/OutputShiftRegister.hpp</title>
<!-- Node1 -->
<g id="Node000001" class="node">
<title>Node1</title>
<g id="a_Node000001"><a xlink:title=" ">
<polygon fill="#999999" stroke="#666666" points="139,-130.75 0,-130.75 0,-89 139,-89 139,-130.75"/>
<text text-anchor="start" x="8" y="-117.25" font-family="Helvetica,sans-Serif" font-size="10.00">lib/layer4_drivers</text>
<text text-anchor="start" x="8" y="-106" font-family="Helvetica,sans-Serif" font-size="10.00">_libraries_adapters</text>
<text text-anchor="middle" x="69.5" y="-94.75" font-family="Helvetica,sans-Serif" font-size="10.00">/src/OutputShiftRegister.hpp</text>
</a>
</g>
</g>
<!-- Node2 -->
<g id="Node000002" class="node">
<title>Node2</title>
<g id="a_Node000002"><a xlink:href="OutputShiftRegister__implementation_8hpp.xhtml" target="_top" xlink:title=" ">
<polygon fill="white" stroke="#666666" points="130,-53 9,-53 9,0 130,0 130,-53"/>
<text text-anchor="start" x="17" y="-39.5" font-family="Helvetica,sans-Serif" font-size="10.00">lib/layer4_drivers</text>
<text text-anchor="start" x="17" y="-28.25" font-family="Helvetica,sans-Serif" font-size="10.00">_libraries_adapters</text>
<text text-anchor="start" x="17" y="-17" font-family="Helvetica,sans-Serif" font-size="10.00">/src/OutputShiftRegister</text>
<text text-anchor="middle" x="69.5" y="-5.75" font-family="Helvetica,sans-Serif" font-size="10.00">_implementation.hpp</text>
</a>
</g>
</g>
<!-- Node1&#45;&gt;Node2 -->
<g id="edge1_Node000001_Node000002" class="edge">
<title>Node1&#45;&gt;Node2</title>
<g id="a_edge1_Node000001_Node000002"><a xlink:title=" ">
<path fill="none" stroke="#63b8ff" d="M62.91,-77.52C62.63,-69.49 62.72,-60.94 63.17,-53.23"/>
<polygon fill="#63b8ff" stroke="#63b8ff" points="59.4,-77.48 63.49,-87.25 66.39,-77.06 59.4,-77.48"/>
</a>
</g>
</g>
<!-- Node3 -->
<g id="Node000003" class="node">
<title>Node3</title>
<g id="a_Node000003"><a xlink:href="osr__factory__interface_8cpp.xhtml" target="_top" xlink:title=" ">
<polygon fill="white" stroke="#666666" points="292.62,-47.38 148.38,-47.38 148.38,-5.62 292.62,-5.62 292.62,-47.38"/>
<text text-anchor="start" x="156.38" y="-33.88" font-family="Helvetica,sans-Serif" font-size="10.00">lib/layer4_drivers</text>
<text text-anchor="start" x="156.38" y="-22.62" font-family="Helvetica,sans-Serif" font-size="10.00">_libraries_adapters</text>
<text text-anchor="middle" x="220.5" y="-11.38" font-family="Helvetica,sans-Serif" font-size="10.00">/src/osr_factory_interface.cpp</text>
</a>
</g>
</g>
<!-- Node1&#45;&gt;Node3 -->
<g id="edge3_Node000001_Node000003" class="edge">
<title>Node1&#45;&gt;Node3</title>
<g id="a_edge3_Node000001_Node000003"><a xlink:title=" ">
<path fill="none" stroke="#63b8ff" d="M117.28,-83.12C138.42,-71.73 162.92,-58.53 182.74,-47.85"/>
<polygon fill="#63b8ff" stroke="#63b8ff" points="115.69,-80.01 108.55,-87.83 119.01,-86.17 115.69,-80.01"/>
</a>
</g>
</g>
<!-- Node2&#45;&gt;Node1 -->
<g id="edge2_Node000002_Node000001" class="edge">
<title>Node2&#45;&gt;Node1</title>
<g id="a_edge2_Node000002_Node000001"><a xlink:title=" ">
<path fill="none" stroke="#63b8ff" d="M76.23,-64.68C76.33,-72.98 76.06,-81.47 75.42,-88.76"/>
<polygon fill="#63b8ff" stroke="#63b8ff" points="79.73,-64.61 75.88,-54.74 72.73,-64.86 79.73,-64.61"/>
</a>
</g>
</g>
</g>
</svg>
