<?xml version="1.0" encoding="UTF-8" standalone="no"?>
<!DOCTYPE svg PUBLIC "-//W3C//DTD SVG 1.1//EN"
 "http://www.w3.org/Graphics/SVG/1.1/DTD/svg11.dtd">
<!-- Generated by graphviz version 9.0.0 (20230911.1827)
 -->
<!-- Title: lib/layer4_drivers_libraries_adapters/src/OutputShiftRegister.hpp Pages: 1 -->
<svg width="433pt" height="227pt"
 viewBox="0.00 0.00 432.50 226.75" xmlns="http://www.w3.org/2000/svg" xmlns:xlink="http://www.w3.org/1999/xlink">
<g id="graph0" class="graph" transform="scale(1 1) rotate(0) translate(4 222.75)">
<title>lib/layer4_drivers_libraries_adapters/src/OutputShiftRegister.hpp</title>
<!-- Node1 -->
<g id="Node000001" class="node">
<title>Node1</title>
<g id="a_Node000001"><a xlink:title=" ">
<polygon fill="#999999" stroke="#666666" points="307.75,-218.75 168.75,-218.75 168.75,-177 307.75,-177 307.75,-218.75"/>
<text text-anchor="start" x="176.75" y="-205.25" font-family="Helvetica,sans-Serif" font-size="10.00">lib/layer4_drivers</text>
<text text-anchor="start" x="176.75" y="-194" font-family="Helvetica,sans-Serif" font-size="10.00">_libraries_adapters</text>
<text text-anchor="middle" x="238.25" y="-182.75" font-family="Helvetica,sans-Serif" font-size="10.00">/src/OutputShiftRegister.hpp</text>
</a>
</g>
</g>
<!-- Node2 -->
<g id="Node000002" class="node">
<title>Node2</title>
<g id="a_Node000002"><a xlink:href="IOutputShiftRegister_8hpp.xhtml" target="_top" xlink:title=" ">
<polygon fill="white" stroke="#666666" points="122.5,-135.38 0,-135.38 0,-116.12 122.5,-116.12 122.5,-135.38"/>
<text text-anchor="middle" x="61.25" y="-121.88" font-family="Helvetica,sans-Serif" font-size="10.00">IOutputShiftRegister.hpp</text>
</a>
</g>
</g>
<!-- Node1&#45;&gt;Node2 -->
<g id="edge1_Node000001_Node000002" class="edge">
<title>Node1&#45;&gt;Node2</title>
<g id="a_edge1_Node000001_Node000002"><a xlink:title=" ">
<path fill="none" stroke="#63b8ff" d="M187.05,-176.59C157.22,-164.77 120.45,-150.21 94.39,-139.88"/>
<polygon fill="#63b8ff" stroke="#63b8ff" points="95.92,-136.72 85.34,-136.29 93.34,-143.23 95.92,-136.72"/>
</a>
</g>
</g>
<!-- Node3 -->
<g id="Node000003" class="node">
<title>Node3</title>
<g id="a_Node000003"><a xlink:title=" ">
<polygon fill="#e0e0e0" stroke="#999999" points="130.38,-74.5 82.12,-74.5 82.12,-55.25 130.38,-55.25 130.38,-74.5"/>
<text text-anchor="middle" x="106.25" y="-61" font-family="Helvetica,sans-Serif" font-size="10.00">cstddef</text>
</a>
</g>
</g>
<!-- Node1&#45;&gt;Node3 -->
<g id="edge4_Node000001_Node000003" class="edge">
<title>Node1&#45;&gt;Node3</title>
<g id="a_edge4_Node000001_Node000003"><a xlink:title=" ">
<path fill="none" stroke="#63b8ff" d="M210.69,-176.53C197.63,-166.4 182.11,-153.64 169.25,-141 150.55,-122.62 131.55,-99.16 119.37,-83.39"/>
<polygon fill="#63b8ff" stroke="#63b8ff" points="122.5,-81.72 113.66,-75.88 116.93,-85.96 122.5,-81.72"/>
</a>
</g>
</g>
<!-- Node4 -->
<g id="Node000004" class="node">
<title>Node4</title>
<g id="a_Node000004"><a xlink:title=" ">
<polygon fill="#e0e0e0" stroke="#999999" points="298.38,-135.38 178.12,-135.38 178.12,-116.12 298.38,-116.12 298.38,-135.38"/>
<text text-anchor="middle" x="238.25" y="-121.88" font-family="Helvetica,sans-Serif" font-size="10.00">ShiftRegister74HC595.h</text>
</a>
</g>
</g>
<!-- Node1&#45;&gt;Node4 -->
<g id="edge3_Node000001_Node000004" class="edge">
<title>Node1&#45;&gt;Node4</title>
<g id="a_edge3_Node000001_Node000004"><a xlink:title=" ">
<path fill="none" stroke="#63b8ff" d="M238.25,-176.59C238.25,-167.25 238.25,-156.19 238.25,-146.87"/>
<polygon fill="#63b8ff" stroke="#63b8ff" points="241.75,-147.07 238.25,-137.07 234.75,-147.07 241.75,-147.07"/>
</a>
</g>
</g>
<!-- Node5 -->
<g id="Node000005" class="node">
<title>Node5</title>
<g id="a_Node000005"><a xlink:href="OutputShiftRegister__implementation_8hpp.xhtml" target="_top" xlink:title=" ">
<polygon fill="white" stroke="#666666" points="421.88,-141 316.62,-141 316.62,-110.5 421.88,-110.5 421.88,-141"/>
<text text-anchor="start" x="324.62" y="-127.5" font-family="Helvetica,sans-Serif" font-size="10.00">OutputShiftRegister</text>
<text text-anchor="middle" x="369.25" y="-116.25" font-family="Helvetica,sans-Serif" font-size="10.00">_implementation.hpp</text>
</a>
</g>
</g>
<!-- Node1&#45;&gt;Node5 -->
<g id="edge5_Node000001_Node000005" class="edge">
<title>Node1&#45;&gt;Node5</title>
<g id="a_edge5_Node000001_Node000005"><a xlink:title=" ">
<path fill="none" stroke="#63b8ff" d="M269.95,-176.59C286.83,-167.15 307.76,-155.95 326.08,-146.57"/>
<polygon fill="#63b8ff" stroke="#63b8ff" points="327.55,-149.75 334.88,-142.1 324.38,-143.5 327.55,-149.75"/>
</a>
</g>
</g>
<!-- Node2&#45;&gt;Node3 -->
<g id="edge2_Node000002_Node000003" class="edge">
<title>Node2&#45;&gt;Node3</title>
<g id="a_edge2_Node000002_Node000003"><a xlink:title=" ">
<path fill="none" stroke="#63b8ff" d="M68.08,-115.81C74.56,-107.34 84.47,-94.37 92.57,-83.77"/>
<polygon fill="#63b8ff" stroke="#63b8ff" points="95.14,-86.17 98.43,-76.1 89.58,-81.92 95.14,-86.17"/>
</a>
</g>
</g>
<!-- Node5&#45;&gt;Node1 -->
<g id="edge6_Node000005_Node000001" class="edge">
<title>Node5&#45;&gt;Node1</title>
<g id="a_edge6_Node000005_Node000001"><a xlink:title=" ">
<path fill="none" stroke="#63b8ff" d="M347.46,-141.42C332.4,-150.07 311.82,-161.25 292.55,-171.3"/>
<polygon fill="#63b8ff" stroke="#63b8ff" points="290.94,-168.19 283.67,-175.9 294.16,-174.41 290.94,-168.19"/>
</a>
</g>
</g>
<!-- Node6 -->
<g id="Node000006" class="node">
<title>Node6</title>
<g id="a_Node000006"><a xlink:href="framework__config_8hpp.xhtml" target="_top" xlink:title="Framework adapters.">
<polygon fill="white" stroke="#666666" points="424.5,-74.5 314,-74.5 314,-55.25 424.5,-55.25 424.5,-74.5"/>
<text text-anchor="middle" x="369.25" y="-61" font-family="Helvetica,sans-Serif" font-size="10.00">framework_config.hpp</text>
</a>
</g>
</g>
<!-- Node5&#45;&gt;Node6 -->
<g id="edge7_Node000005_Node000006" class="edge">
<title>Node5&#45;&gt;Node6</title>
<g id="a_edge7_Node000005_Node000006"><a xlink:title=" ">
<path fill="none" stroke="#63b8ff" d="M369.25,-110.2C369.25,-102.96 369.25,-94.09 369.25,-86.19"/>
<polygon fill="#63b8ff" stroke="#63b8ff" points="372.75,-86.46 369.25,-76.46 365.75,-86.46 372.75,-86.46"/>
</a>
</g>
</g>
<!-- Node7 -->
<g id="Node000007" class="node">
<title>Node7</title>
<g id="a_Node000007"><a xlink:title=" ">
<polygon fill="#e0e0e0" stroke="#999999" points="397.5,-19.25 341,-19.25 341,0 397.5,0 397.5,-19.25"/>
<text text-anchor="middle" x="369.25" y="-5.75" font-family="Helvetica,sans-Serif" font-size="10.00">Arduino.h</text>
</a>
</g>
</g>
<!-- Node6&#45;&gt;Node7 -->
<g id="edge8_Node000006_Node000007" class="edge">
<title>Node6&#45;&gt;Node7</title>
<g id="a_edge8_Node000006_Node000007"><a xlink:title=" ">
<path fill="none" stroke="#63b8ff" d="M369.25,-55.08C369.25,-48.57 369.25,-39.42 369.25,-31.12"/>
<polygon fill="#63b8ff" stroke="#63b8ff" points="372.75,-31.12 369.25,-21.12 365.75,-31.12 372.75,-31.12"/>
</a>
</g>
</g>
</g>
</svg>
