<?xml version="1.0" encoding="UTF-8" standalone="no"?>
<!DOCTYPE svg PUBLIC "-//W3C//DTD SVG 1.1//EN"
 "http://www.w3.org/Graphics/SVG/1.1/DTD/svg11.dtd">
<!-- Generated by graphviz version 7.0.5 (20221223.1930)
 -->
<!-- Title: lib/application_business_rules/include/Presenter.hpp Pages: 1 -->
<svg width="331pt" height="148pt"
 viewBox="0.00 0.00 331.28 148.00" xmlns="http://www.w3.org/2000/svg" xmlns:xlink="http://www.w3.org/1999/xlink">
<g id="graph0" class="graph" transform="scale(1 1) rotate(0) translate(4 144)">
<title>lib/application_business_rules/include/Presenter.hpp</title>
<!-- Node1 -->
<g id="node1" class="node">
<title>Node1</title>
<g id="a_node1"><a xlink:title=" ">
<polygon fill="#999999" stroke="#666666" points="273,-140 133,-140 133,-110 273,-110 273,-140"/>
<text text-anchor="start" x="141" y="-128" font-family="Helvetica,sans-Serif" font-size="10.00">lib/application_business</text>
<text text-anchor="middle" x="203" y="-117" font-family="Helvetica,sans-Serif" font-size="10.00">_rules/include/Presenter.hpp</text>
</a>
</g>
</g>
<!-- Node2 -->
<g id="node2" class="node">
<title>Node2</title>
<g id="a_node2"><a xlink:href="IStatusIndicator_8hpp.xhtml" target="_top" xlink:title=" ">
<polygon fill="white" stroke="#666666" points="104,-74 0,-74 0,-55 104,-55 104,-74"/>
<text text-anchor="middle" x="52" y="-62" font-family="Helvetica,sans-Serif" font-size="10.00">IStatusIndicator.hpp</text>
</a>
</g>
</g>
<!-- Node1&#45;&gt;Node2 -->
<g id="edge1" class="edge">
<title>Node1&#45;&gt;Node2</title>
<path fill="none" stroke="#63b8ff" d="M165.67,-109.54C141.1,-100.02 109.19,-87.66 85.44,-78.46"/>
<polygon fill="#63b8ff" stroke="#63b8ff" points="86.83,-75.24 76.25,-74.89 84.31,-81.77 86.83,-75.24"/>
</g>
<!-- Node3 -->
<g id="node3" class="node">
<title>Node3</title>
<g id="a_node3"><a xlink:href="Menu_8hpp.xhtml" target="_top" xlink:title=" ">
<polygon fill="white" stroke="#666666" points="181.5,-74 122.5,-74 122.5,-55 181.5,-55 181.5,-74"/>
<text text-anchor="middle" x="152" y="-62" font-family="Helvetica,sans-Serif" font-size="10.00">Menu.hpp</text>
</a>
</g>
</g>
<!-- Node1&#45;&gt;Node3 -->
<g id="edge2" class="edge">
<title>Node1&#45;&gt;Node3</title>
<path fill="none" stroke="#63b8ff" d="M190.39,-109.54C183.29,-101.39 174.37,-91.16 166.92,-82.61"/>
<polygon fill="#63b8ff" stroke="#63b8ff" points="169.77,-80.55 160.56,-75.32 164.49,-85.15 169.77,-80.55"/>
</g>
<!-- Node5 -->
<g id="node5" class="node">
<title>Node5</title>
<g id="a_node5"><a xlink:href="hmi__configuration_8hpp.xhtml" target="_top" xlink:title=" ">
<polygon fill="white" stroke="#666666" points="310,-74 200,-74 200,-55 310,-55 310,-74"/>
<text text-anchor="middle" x="255" y="-62" font-family="Helvetica,sans-Serif" font-size="10.00">hmi_configuration.hpp</text>
</a>
</g>
</g>
<!-- Node1&#45;&gt;Node5 -->
<g id="edge4" class="edge">
<title>Node1&#45;&gt;Node5</title>
<path fill="none" stroke="#63b8ff" d="M215.85,-109.54C223.1,-101.39 232.19,-91.16 239.79,-82.61"/>
<polygon fill="#63b8ff" stroke="#63b8ff" points="242.26,-85.11 246.28,-75.31 237.02,-80.46 242.26,-85.11"/>
</g>
<!-- Node6 -->
<g id="node6" class="node">
<title>Node6</title>
<g id="a_node6"><a xlink:title=" ">
<polygon fill="#e0e0e0" stroke="#999999" points="320.5,-19 271.5,-19 271.5,0 320.5,0 320.5,-19"/>
<text text-anchor="middle" x="296" y="-7" font-family="Helvetica,sans-Serif" font-size="10.00">cstddef</text>
</a>
</g>
</g>
<!-- Node1&#45;&gt;Node6 -->
<g id="edge6" class="edge">
<title>Node1&#45;&gt;Node6</title>
<path fill="none" stroke="#63b8ff" d="M270.87,-109.6C289.61,-102.17 307.85,-90.95 319,-74 328.24,-59.95 319.91,-41.71 310.79,-28.38"/>
<polygon fill="#63b8ff" stroke="#63b8ff" points="313.67,-26.39 304.86,-20.51 308.08,-30.61 313.67,-26.39"/>
</g>
<!-- Node4 -->
<g id="node4" class="node">
<title>Node4</title>
<g id="a_node4"><a xlink:href="IDisplay_8hpp.xhtml" target="_top" xlink:title=" ">
<polygon fill="white" stroke="#666666" points="186.5,-19 117.5,-19 117.5,0 186.5,0 186.5,-19"/>
<text text-anchor="middle" x="152" y="-7" font-family="Helvetica,sans-Serif" font-size="10.00">IDisplay.hpp</text>
</a>
</g>
</g>
<!-- Node3&#45;&gt;Node4 -->
<g id="edge3" class="edge">
<title>Node3&#45;&gt;Node4</title>
<path fill="none" stroke="#63b8ff" d="M152,-54.75C152,-48.27 152,-39.16 152,-30.9"/>
<polygon fill="#63b8ff" stroke="#63b8ff" points="155.5,-30.96 152,-20.96 148.5,-30.96 155.5,-30.96"/>
</g>
<!-- Node5&#45;&gt;Node6 -->
<g id="edge5" class="edge">
<title>Node5&#45;&gt;Node6</title>
<path fill="none" stroke="#63b8ff" d="M261.77,-54.75C267.32,-47.58 275.34,-37.2 282.23,-28.3"/>
<polygon fill="#63b8ff" stroke="#63b8ff" points="284.81,-30.69 288.16,-20.64 279.27,-26.41 284.81,-30.69"/>
</g>
</g>
</svg>
