<?xml version="1.0" encoding="UTF-8" standalone="no"?>
<!DOCTYPE svg PUBLIC "-//W3C//DTD SVG 1.1//EN"
 "http://www.w3.org/Graphics/SVG/1.1/DTD/svg11.dtd">
<!-- Generated by graphviz version 9.0.0 (20230911.1827)
 -->
<!-- Title: lib/layer2_hmi/src/presenter_factory_interface.cpp Pages: 1 -->
<svg width="589pt" height="216pt"
 viewBox="0.00 0.00 589.38 215.50" xmlns="http://www.w3.org/2000/svg" xmlns:xlink="http://www.w3.org/1999/xlink">
<g id="graph0" class="graph" transform="scale(1 1) rotate(0) translate(4 211.5)">
<title>lib/layer2_hmi/src/presenter_factory_interface.cpp</title>
<!-- Node1 -->
<g id="Node000001" class="node">
<title>Node1</title>
<g id="a_Node000001"><a xlink:title=" ">
<polygon fill="#999999" stroke="#666666" points="385.12,-207.5 230.38,-207.5 230.38,-177 385.12,-177 385.12,-207.5"/>
<text text-anchor="start" x="238.38" y="-194" font-family="Helvetica,sans-Serif" font-size="10.00">lib/layer2_hmi/src</text>
<text text-anchor="middle" x="307.75" y="-182.75" font-family="Helvetica,sans-Serif" font-size="10.00">/presenter_factory_interface.cpp</text>
</a>
</g>
</g>
<!-- Node2 -->
<g id="Node000002" class="node">
<title>Node2</title>
<g id="a_Node000002"><a xlink:href="presenter__factory__interface_8hpp.xhtml" target="_top" xlink:title=" ">
<polygon fill="white" stroke="#666666" points="383.62,-135.38 231.88,-135.38 231.88,-116.12 383.62,-116.12 383.62,-135.38"/>
<text text-anchor="middle" x="307.75" y="-121.88" font-family="Helvetica,sans-Serif" font-size="10.00">presenter_factory_interface.hpp</text>
</a>
</g>
</g>
<!-- Node1&#45;&gt;Node2 -->
<g id="edge1_Node000001_Node000002" class="edge">
<title>Node1&#45;&gt;Node2</title>
<g id="a_edge1_Node000001_Node000002"><a xlink:title=" ">
<path fill="none" stroke="#63b8ff" d="M307.75,-176.61C307.75,-167.83 307.75,-156.52 307.75,-146.9"/>
<polygon fill="#63b8ff" stroke="#63b8ff" points="311.25,-147.09 307.75,-137.09 304.25,-147.09 311.25,-147.09"/>
</a>
</g>
</g>
<!-- Node5 -->
<g id="Node000005" class="node">
<title>Node5</title>
<g id="a_Node000005"><a xlink:href="Menu_8hpp.xhtml" target="_top" xlink:title=" ">
<polygon fill="white" stroke="#666666" points="440.75,-74.5 382.75,-74.5 382.75,-55.25 440.75,-55.25 440.75,-74.5"/>
<text text-anchor="middle" x="411.75" y="-61" font-family="Helvetica,sans-Serif" font-size="10.00">Menu.hpp</text>
</a>
</g>
</g>
<!-- Node1&#45;&gt;Node5 -->
<g id="edge4_Node000001_Node000005" class="edge">
<title>Node1&#45;&gt;Node5</title>
<g id="a_edge4_Node000001_Node000005"><a xlink:title=" ">
<path fill="none" stroke="#63b8ff" d="M345.95,-176.68C362.59,-168.53 380.94,-156.79 392.75,-141 404.71,-125.02 409.18,-102.33 410.84,-86.08"/>
<polygon fill="#63b8ff" stroke="#63b8ff" points="414.32,-86.41 411.54,-76.18 407.34,-85.91 414.32,-86.41"/>
</a>
</g>
</g>
<!-- Node7 -->
<g id="Node000007" class="node">
<title>Node7</title>
<g id="a_Node000007"><a xlink:href="Presenter_8hpp.xhtml" target="_top" xlink:title=" ">
<polygon fill="white" stroke="#666666" points="213.75,-135.38 137.75,-135.38 137.75,-116.12 213.75,-116.12 213.75,-135.38"/>
<text text-anchor="middle" x="175.75" y="-121.88" font-family="Helvetica,sans-Serif" font-size="10.00">Presenter.hpp</text>
</a>
</g>
</g>
<!-- Node1&#45;&gt;Node7 -->
<g id="edge6_Node000001_Node000007" class="edge">
<title>Node1&#45;&gt;Node7</title>
<g id="a_edge6_Node000001_Node000007"><a xlink:title=" ">
<path fill="none" stroke="#63b8ff" d="M277.8,-176.61C255.8,-165.87 226.1,-151.36 204.42,-140.76"/>
<polygon fill="#63b8ff" stroke="#63b8ff" points="206.07,-137.67 195.55,-136.42 203,-143.96 206.07,-137.67"/>
</a>
</g>
</g>
<!-- Node10 -->
<g id="Node000010" class="node">
<title>Node10</title>
<g id="a_Node000010"><a xlink:href="display__factory__interface_8hpp.xhtml" target="_top" xlink:title=" ">
<polygon fill="white" stroke="#666666" points="581.38,-135.38 440.12,-135.38 440.12,-116.12 581.38,-116.12 581.38,-135.38"/>
<text text-anchor="middle" x="510.75" y="-121.88" font-family="Helvetica,sans-Serif" font-size="10.00">display_factory_interface.hpp</text>
</a>
</g>
</g>
<!-- Node1&#45;&gt;Node10 -->
<g id="edge12_Node000001_Node000010" class="edge">
<title>Node1&#45;&gt;Node10</title>
<g id="a_edge12_Node000001_Node000010"><a xlink:title=" ">
<path fill="none" stroke="#63b8ff" d="M354.07,-176.53C389.5,-165.28 437.82,-149.92 471.39,-139.26"/>
<polygon fill="#63b8ff" stroke="#63b8ff" points="472.26,-142.65 480.73,-136.29 470.14,-135.98 472.26,-142.65"/>
</a>
</g>
</g>
<!-- Node11 -->
<g id="Node000011" class="node">
<title>Node11</title>
<g id="a_Node000011"><a xlink:href="statusindicators__factory__interface_8hpp.xhtml" target="_top" xlink:title=" ">
<polygon fill="white" stroke="#666666" points="119.5,-141 0,-141 0,-110.5 119.5,-110.5 119.5,-141"/>
<text text-anchor="start" x="8" y="-127.5" font-family="Helvetica,sans-Serif" font-size="10.00">statusindicators_factory</text>
<text text-anchor="middle" x="59.75" y="-116.25" font-family="Helvetica,sans-Serif" font-size="10.00">_interface.hpp</text>
</a>
</g>
</g>
<!-- Node1&#45;&gt;Node11 -->
<g id="edge14_Node000001_Node000011" class="edge">
<title>Node1&#45;&gt;Node11</title>
<g id="a_edge14_Node000001_Node000011"><a xlink:title=" ">
<path fill="none" stroke="#63b8ff" d="M251.16,-176.53C214.18,-166.92 165.71,-154.31 126.8,-144.19"/>
<polygon fill="#63b8ff" stroke="#63b8ff" points="128.12,-140.91 117.56,-141.78 126.35,-147.69 128.12,-140.91"/>
</a>
</g>
</g>
<!-- Node3 -->
<g id="Node000003" class="node">
<title>Node3</title>
<g id="a_Node000003"><a xlink:href="IPresenter_8hpp.xhtml" target="_top" xlink:title=" ">
<polygon fill="white" stroke="#666666" points="331.25,-74.5 252.25,-74.5 252.25,-55.25 331.25,-55.25 331.25,-74.5"/>
<text text-anchor="middle" x="291.75" y="-61" font-family="Helvetica,sans-Serif" font-size="10.00">IPresenter.hpp</text>
</a>
</g>
</g>
<!-- Node2&#45;&gt;Node3 -->
<g id="edge2_Node000002_Node000003" class="edge">
<title>Node2&#45;&gt;Node3</title>
<g id="a_edge2_Node000002_Node000003"><a xlink:title=" ">
<path fill="none" stroke="#63b8ff" d="M305.32,-115.81C303.16,-107.85 299.92,-95.94 297.15,-85.74"/>
<polygon fill="#63b8ff" stroke="#63b8ff" points="300.6,-85.09 294.6,-76.36 293.84,-86.93 300.6,-85.09"/>
</a>
</g>
</g>
<!-- Node4 -->
<g id="Node000004" class="node">
<title>Node4</title>
<g id="a_Node000004"><a xlink:title=" ">
<polygon fill="#e0e0e0" stroke="#999999" points="259.88,-19.25 211.62,-19.25 211.62,0 259.88,0 259.88,-19.25"/>
<text text-anchor="middle" x="235.75" y="-5.75" font-family="Helvetica,sans-Serif" font-size="10.00">cstddef</text>
</a>
</g>
</g>
<!-- Node3&#45;&gt;Node4 -->
<g id="edge3_Node000003_Node000004" class="edge">
<title>Node3&#45;&gt;Node4</title>
<g id="a_edge3_Node000003_Node000004"><a xlink:title=" ">
<path fill="none" stroke="#63b8ff" d="M282.25,-54.84C274.32,-47.3 262.8,-36.35 253.21,-27.23"/>
<polygon fill="#63b8ff" stroke="#63b8ff" points="255.86,-24.92 246.21,-20.57 251.04,-29.99 255.86,-24.92"/>
</a>
</g>
</g>
<!-- Node6 -->
<g id="Node000006" class="node">
<title>Node6</title>
<g id="a_Node000006"><a xlink:href="IDisplay_8hpp.xhtml" target="_top" xlink:title=" ">
<polygon fill="white" stroke="#666666" points="485,-19.25 416.5,-19.25 416.5,0 485,0 485,-19.25"/>
<text text-anchor="middle" x="450.75" y="-5.75" font-family="Helvetica,sans-Serif" font-size="10.00">IDisplay.hpp</text>
</a>
</g>
</g>
<!-- Node5&#45;&gt;Node6 -->
<g id="edge5_Node000005_Node000006" class="edge">
<title>Node5&#45;&gt;Node6</title>
<g id="a_edge5_Node000005_Node000006"><a xlink:title=" ">
<path fill="none" stroke="#63b8ff" d="M418.19,-55.08C423.41,-47.96 430.94,-37.68 437.44,-28.8"/>
<polygon fill="#63b8ff" stroke="#63b8ff" points="440.19,-30.97 443.28,-20.83 434.54,-26.83 440.19,-30.97"/>
</a>
</g>
</g>
<!-- Node7&#45;&gt;Node3 -->
<g id="edge7_Node000007_Node000003" class="edge">
<title>Node7&#45;&gt;Node3</title>
<g id="a_edge7_Node000007_Node000003"><a xlink:title=" ">
<path fill="none" stroke="#63b8ff" d="M193.62,-115.68C212.41,-106.14 242.21,-91.02 264.05,-79.93"/>
<polygon fill="#63b8ff" stroke="#63b8ff" points="265.37,-83.19 272.7,-75.54 262.2,-76.95 265.37,-83.19"/>
</a>
</g>
</g>
<!-- Node7&#45;&gt;Node5 -->
<g id="edge9_Node000007_Node000005" class="edge">
<title>Node7&#45;&gt;Node5</title>
<g id="a_edge9_Node000007_Node000005"><a xlink:title=" ">
<path fill="none" stroke="#63b8ff" d="M204.75,-115.65C210.69,-113.87 216.9,-112.07 222.75,-110.5 273.64,-96.79 332.86,-83.18 371.25,-74.67"/>
<polygon fill="#63b8ff" stroke="#63b8ff" points="371.98,-78.09 380.99,-72.52 370.47,-71.26 371.98,-78.09"/>
</a>
</g>
</g>
<!-- Node8 -->
<g id="Node000008" class="node">
<title>Node8</title>
<g id="a_Node000008"><a xlink:href="IStatusIndicator_8hpp.xhtml" target="_top" xlink:title=" ">
<polygon fill="white" stroke="#666666" points="107.25,-74.5 4.25,-74.5 4.25,-55.25 107.25,-55.25 107.25,-74.5"/>
<text text-anchor="middle" x="55.75" y="-61" font-family="Helvetica,sans-Serif" font-size="10.00">IStatusIndicator.hpp</text>
</a>
</g>
</g>
<!-- Node7&#45;&gt;Node8 -->
<g id="edge8_Node000007_Node000008" class="edge">
<title>Node7&#45;&gt;Node8</title>
<g id="a_edge8_Node000007_Node000008"><a xlink:title=" ">
<path fill="none" stroke="#63b8ff" d="M157.26,-115.68C137.74,-106.1 106.71,-90.88 84.1,-79.78"/>
<polygon fill="#63b8ff" stroke="#63b8ff" points="85.94,-76.79 75.42,-75.53 82.86,-83.07 85.94,-76.79"/>
</a>
</g>
</g>
<!-- Node9 -->
<g id="Node000009" class="node">
<title>Node9</title>
<g id="a_Node000009"><a xlink:href="hmi__configuration_8hpp.xhtml" target="_top" xlink:title=" ">
<polygon fill="white" stroke="#666666" points="234.62,-74.5 124.88,-74.5 124.88,-55.25 234.62,-55.25 234.62,-74.5"/>
<text text-anchor="middle" x="179.75" y="-61" font-family="Helvetica,sans-Serif" font-size="10.00">hmi_configuration.hpp</text>
</a>
</g>
</g>
<!-- Node7&#45;&gt;Node9 -->
<g id="edge10_Node000007_Node000009" class="edge">
<title>Node7&#45;&gt;Node9</title>
<g id="a_edge10_Node000007_Node000009"><a xlink:title=" ">
<path fill="none" stroke="#63b8ff" d="M176.36,-115.81C176.89,-107.94 177.69,-96.2 178.38,-86.07"/>
<polygon fill="#63b8ff" stroke="#63b8ff" points="181.85,-86.63 179.03,-76.41 174.86,-86.15 181.85,-86.63"/>
</a>
</g>
</g>
<!-- Node9&#45;&gt;Node4 -->
<g id="edge11_Node000009_Node000004" class="edge">
<title>Node9&#45;&gt;Node4</title>
<g id="a_edge11_Node000009_Node000004"><a xlink:title=" ">
<path fill="none" stroke="#63b8ff" d="M189.25,-54.84C197.18,-47.3 208.7,-36.35 218.29,-27.23"/>
<polygon fill="#63b8ff" stroke="#63b8ff" points="220.46,-29.99 225.29,-20.57 215.64,-24.92 220.46,-29.99"/>
</a>
</g>
</g>
<!-- Node10&#45;&gt;Node6 -->
<g id="edge13_Node000010_Node000006" class="edge">
<title>Node10&#45;&gt;Node6</title>
<g id="a_edge13_Node000010_Node000006"><a xlink:title=" ">
<path fill="none" stroke="#63b8ff" d="M506.04,-115.79C496.32,-97.29 473.82,-54.51 460.72,-29.58"/>
<polygon fill="#63b8ff" stroke="#63b8ff" points="463.89,-28.1 456.14,-20.88 457.7,-31.36 463.89,-28.1"/>
</a>
</g>
</g>
<!-- Node11&#45;&gt;Node8 -->
<g id="edge15_Node000011_Node000008" class="edge">
<title>Node11&#45;&gt;Node8</title>
<g id="a_edge15_Node000011_Node000008"><a xlink:title=" ">
<path fill="none" stroke="#63b8ff" d="M58.76,-110.2C58.27,-102.96 57.67,-94.09 57.13,-86.19"/>
<polygon fill="#63b8ff" stroke="#63b8ff" points="60.64,-86.2 56.47,-76.46 53.66,-86.68 60.64,-86.2"/>
</a>
</g>
</g>
<!-- Node11&#45;&gt;Node9 -->
<g id="edge16_Node000011_Node000009" class="edge">
<title>Node11&#45;&gt;Node9</title>
<g id="a_edge16_Node000011_Node000009"><a xlink:title=" ">
<path fill="none" stroke="#63b8ff" d="M89.72,-110.05C108.52,-100.82 132.63,-89 151.16,-79.9"/>
<polygon fill="#63b8ff" stroke="#63b8ff" points="152.55,-83.12 159.99,-75.57 149.47,-76.83 152.55,-83.12"/>
</a>
</g>
</g>
</g>
</svg>
