<?xml version="1.0" encoding="UTF-8" standalone="no"?>
<!DOCTYPE svg PUBLIC "-//W3C//DTD SVG 1.1//EN"
 "http://www.w3.org/Graphics/SVG/1.1/DTD/svg11.dtd">
<!-- Generated by graphviz version 7.0.5 (20221223.1930)
 -->
<!-- Title: lib/application_business_rules/src/Presenter.cpp Pages: 1 -->
<svg width="392pt" height="203pt"
 viewBox="0.00 0.00 391.50 203.00" xmlns="http://www.w3.org/2000/svg" xmlns:xlink="http://www.w3.org/1999/xlink">
<g id="graph0" class="graph" transform="scale(1 1) rotate(0) translate(4 199)">
<title>lib/application_business_rules/src/Presenter.cpp</title>
<!-- Node1 -->
<g id="node1" class="node">
<title>Node1</title>
<g id="a_node1"><a xlink:title=" ">
<polygon fill="#999999" stroke="#666666" points="349,-195 227,-195 227,-165 349,-165 349,-195"/>
<text text-anchor="start" x="235" y="-183" font-family="Helvetica,sans-Serif" font-size="10.00">lib/application_business</text>
<text text-anchor="middle" x="288" y="-172" font-family="Helvetica,sans-Serif" font-size="10.00">_rules/src/Presenter.cpp</text>
</a>
</g>
</g>
<!-- Node2 -->
<g id="node2" class="node">
<title>Node2</title>
<g id="a_node2"><a xlink:href="Presenter_8hpp.xhtml" target="_top" xlink:title=" ">
<polygon fill="white" stroke="#666666" points="241.5,-129 164.5,-129 164.5,-110 241.5,-110 241.5,-129"/>
<text text-anchor="middle" x="203" y="-117" font-family="Helvetica,sans-Serif" font-size="10.00">Presenter.hpp</text>
</a>
</g>
</g>
<!-- Node1&#45;&gt;Node2 -->
<g id="edge1" class="edge">
<title>Node1&#45;&gt;Node2</title>
<path fill="none" stroke="#63b8ff" d="M266.99,-164.54C254.14,-155.7 237.73,-144.4 224.75,-135.47"/>
<polygon fill="#63b8ff" stroke="#63b8ff" points="227.07,-132.82 216.85,-130.03 223.11,-138.59 227.07,-132.82"/>
</g>
<!-- Node8 -->
<g id="node8" class="node">
<title>Node8</title>
<g id="a_node8"><a xlink:title=" ">
<polygon fill="#e0e0e0" stroke="#999999" points="316.5,-129 259.5,-129 259.5,-110 316.5,-110 316.5,-129"/>
<text text-anchor="middle" x="288" y="-117" font-family="Helvetica,sans-Serif" font-size="10.00">Arduino.h</text>
</a>
</g>
</g>
<!-- Node1&#45;&gt;Node8 -->
<g id="edge8" class="edge">
<title>Node1&#45;&gt;Node8</title>
<path fill="none" stroke="#63b8ff" d="M288,-164.54C288,-157.34 288,-148.53 288,-140.68"/>
<polygon fill="#63b8ff" stroke="#63b8ff" points="291.5,-140.69 288,-130.69 284.5,-140.69 291.5,-140.69"/>
</g>
<!-- Node9 -->
<g id="node9" class="node">
<title>Node9</title>
<g id="a_node9"><a xlink:title=" ">
<polygon fill="#e0e0e0" stroke="#999999" points="383.5,-129 334.5,-129 334.5,-110 383.5,-110 383.5,-129"/>
<text text-anchor="middle" x="359" y="-117" font-family="Helvetica,sans-Serif" font-size="10.00">cassert</text>
</a>
</g>
</g>
<!-- Node1&#45;&gt;Node9 -->
<g id="edge9" class="edge">
<title>Node1&#45;&gt;Node9</title>
<path fill="none" stroke="#63b8ff" d="M305.55,-164.54C315.97,-155.96 329.18,-145.07 339.87,-136.26"/>
<polygon fill="#63b8ff" stroke="#63b8ff" points="341.81,-139.2 347.3,-130.14 337.36,-133.8 341.81,-139.2"/>
</g>
<!-- Node3 -->
<g id="node3" class="node">
<title>Node3</title>
<g id="a_node3"><a xlink:href="IStatusIndicator_8hpp.xhtml" target="_top" xlink:title=" ">
<polygon fill="white" stroke="#666666" points="104,-74 0,-74 0,-55 104,-55 104,-74"/>
<text text-anchor="middle" x="52" y="-62" font-family="Helvetica,sans-Serif" font-size="10.00">IStatusIndicator.hpp</text>
</a>
</g>
</g>
<!-- Node2&#45;&gt;Node3 -->
<g id="edge2" class="edge">
<title>Node2&#45;&gt;Node3</title>
<path fill="none" stroke="#63b8ff" d="M177.38,-109.51C152.91,-100.92 115.76,-87.88 88.25,-78.22"/>
<polygon fill="#63b8ff" stroke="#63b8ff" points="89.51,-74.96 78.92,-74.95 87.19,-81.56 89.51,-74.96"/>
</g>
<!-- Node4 -->
<g id="node4" class="node">
<title>Node4</title>
<g id="a_node4"><a xlink:href="Menu_8hpp.xhtml" target="_top" xlink:title=" ">
<polygon fill="white" stroke="#666666" points="181.5,-74 122.5,-74 122.5,-55 181.5,-55 181.5,-74"/>
<text text-anchor="middle" x="152" y="-62" font-family="Helvetica,sans-Serif" font-size="10.00">Menu.hpp</text>
</a>
</g>
</g>
<!-- Node2&#45;&gt;Node4 -->
<g id="edge3" class="edge">
<title>Node2&#45;&gt;Node4</title>
<path fill="none" stroke="#63b8ff" d="M194.58,-109.75C187.53,-102.43 177.27,-91.76 168.59,-82.74"/>
<polygon fill="#63b8ff" stroke="#63b8ff" points="171.11,-80.31 161.65,-75.53 166.07,-85.17 171.11,-80.31"/>
</g>
<!-- Node6 -->
<g id="node6" class="node">
<title>Node6</title>
<g id="a_node6"><a xlink:href="hmi__configuration_8hpp.xhtml" target="_top" xlink:title=" ">
<polygon fill="white" stroke="#666666" points="310,-74 200,-74 200,-55 310,-55 310,-74"/>
<text text-anchor="middle" x="255" y="-62" font-family="Helvetica,sans-Serif" font-size="10.00">hmi_configuration.hpp</text>
</a>
</g>
</g>
<!-- Node2&#45;&gt;Node6 -->
<g id="edge5" class="edge">
<title>Node2&#45;&gt;Node6</title>
<path fill="none" stroke="#63b8ff" d="M211.59,-109.75C218.84,-102.35 229.45,-91.54 238.37,-82.45"/>
<polygon fill="#63b8ff" stroke="#63b8ff" points="240.66,-85.11 245.17,-75.52 235.66,-80.21 240.66,-85.11"/>
</g>
<!-- Node7 -->
<g id="node7" class="node">
<title>Node7</title>
<g id="a_node7"><a xlink:title=" ">
<polygon fill="#e0e0e0" stroke="#999999" points="320.5,-19 271.5,-19 271.5,0 320.5,0 320.5,-19"/>
<text text-anchor="middle" x="296" y="-7" font-family="Helvetica,sans-Serif" font-size="10.00">cstddef</text>
</a>
</g>
</g>
<!-- Node2&#45;&gt;Node7 -->
<g id="edge7" class="edge">
<title>Node2&#45;&gt;Node7</title>
<path fill="none" stroke="#63b8ff" d="M238.79,-109.54C269.26,-101.1 309.56,-87.73 319,-74 328.53,-60.14 320.16,-41.88 310.96,-28.5"/>
<polygon fill="#63b8ff" stroke="#63b8ff" points="313.78,-26.43 304.95,-20.57 308.2,-30.66 313.78,-26.43"/>
</g>
<!-- Node5 -->
<g id="node5" class="node">
<title>Node5</title>
<g id="a_node5"><a xlink:href="IDisplay_8hpp.xhtml" target="_top" xlink:title=" ">
<polygon fill="white" stroke="#666666" points="186.5,-19 117.5,-19 117.5,0 186.5,0 186.5,-19"/>
<text text-anchor="middle" x="152" y="-7" font-family="Helvetica,sans-Serif" font-size="10.00">IDisplay.hpp</text>
</a>
</g>
</g>
<!-- Node4&#45;&gt;Node5 -->
<g id="edge4" class="edge">
<title>Node4&#45;&gt;Node5</title>
<path fill="none" stroke="#63b8ff" d="M152,-54.75C152,-48.27 152,-39.16 152,-30.9"/>
<polygon fill="#63b8ff" stroke="#63b8ff" points="155.5,-30.96 152,-20.96 148.5,-30.96 155.5,-30.96"/>
</g>
<!-- Node6&#45;&gt;Node7 -->
<g id="edge6" class="edge">
<title>Node6&#45;&gt;Node7</title>
<path fill="none" stroke="#63b8ff" d="M261.77,-54.75C267.32,-47.58 275.34,-37.2 282.23,-28.3"/>
<polygon fill="#63b8ff" stroke="#63b8ff" points="284.81,-30.69 288.16,-20.64 279.27,-26.41 284.81,-30.69"/>
</g>
</g>
</svg>
