<?xml version="1.0" encoding="UTF-8" standalone="no"?>
<!DOCTYPE svg PUBLIC "-//W3C//DTD SVG 1.1//EN"
 "http://www.w3.org/Graphics/SVG/1.1/DTD/svg11.dtd">
<!-- Generated by graphviz version 7.0.5 (20221223.1930)
 -->
<!-- Title: lib/application_business_rules/src/presenter_factory_interface.cpp Pages: 1 -->
<svg width="592pt" height="225pt"
 viewBox="0.00 0.00 592.00 225.00" xmlns="http://www.w3.org/2000/svg" xmlns:xlink="http://www.w3.org/1999/xlink">
<g id="graph0" class="graph" transform="scale(1 1) rotate(0) translate(4 221)">
<title>lib/application_business_rules/src/presenter_factory_interface.cpp</title>
<!-- Node1 -->
<g id="node1" class="node">
<title>Node1</title>
<g id="a_node1"><a xlink:title=" ">
<polygon fill="#999999" stroke="#666666" points="378.5,-217 241.5,-217 241.5,-176 378.5,-176 378.5,-217"/>
<text text-anchor="start" x="249.5" y="-205" font-family="Helvetica,sans-Serif" font-size="10.00">lib/application_business</text>
<text text-anchor="start" x="249.5" y="-194" font-family="Helvetica,sans-Serif" font-size="10.00">_rules/src/presenter_factory</text>
<text text-anchor="middle" x="310" y="-183" font-family="Helvetica,sans-Serif" font-size="10.00">_interface.cpp</text>
</a>
</g>
</g>
<!-- Node2 -->
<g id="node2" class="node">
<title>Node2</title>
<g id="a_node2"><a xlink:href="presenter__factory__interface_8hpp.xhtml" target="_top" xlink:title=" ">
<polygon fill="white" stroke="#666666" points="386,-134.5 234,-134.5 234,-115.5 386,-115.5 386,-134.5"/>
<text text-anchor="middle" x="310" y="-122.5" font-family="Helvetica,sans-Serif" font-size="10.00">presenter_factory_interface.hpp</text>
</a>
</g>
</g>
<!-- Node1&#45;&gt;Node2 -->
<g id="edge1" class="edge">
<title>Node1&#45;&gt;Node2</title>
<path fill="none" stroke="#63b8ff" d="M310,-175.77C310,-166.5 310,-155.46 310,-146.14"/>
<polygon fill="#63b8ff" stroke="#63b8ff" points="313.5,-146.33 310,-136.33 306.5,-146.33 313.5,-146.33"/>
</g>
<!-- Node5 -->
<g id="node5" class="node">
<title>Node5</title>
<g id="a_node5"><a xlink:href="Menu_8hpp.xhtml" target="_top" xlink:title=" ">
<polygon fill="white" stroke="#666666" points="443.5,-74 384.5,-74 384.5,-55 443.5,-55 443.5,-74"/>
<text text-anchor="middle" x="414" y="-62" font-family="Helvetica,sans-Serif" font-size="10.00">Menu.hpp</text>
</a>
</g>
</g>
<!-- Node1&#45;&gt;Node5 -->
<g id="edge4" class="edge">
<title>Node1&#45;&gt;Node5</title>
<path fill="none" stroke="#63b8ff" d="M353.47,-175.54C368.61,-166.63 384.44,-154.76 395,-140 406.52,-123.9 411.07,-101.44 412.86,-85.4"/>
<polygon fill="#63b8ff" stroke="#63b8ff" points="416.33,-85.92 413.66,-75.67 409.35,-85.35 416.33,-85.92"/>
</g>
<!-- Node7 -->
<g id="node7" class="node">
<title>Node7</title>
<g id="a_node7"><a xlink:href="Presenter_8hpp.xhtml" target="_top" xlink:title=" ">
<polygon fill="white" stroke="#666666" points="215.5,-134.5 138.5,-134.5 138.5,-115.5 215.5,-115.5 215.5,-134.5"/>
<text text-anchor="middle" x="177" y="-122.5" font-family="Helvetica,sans-Serif" font-size="10.00">Presenter.hpp</text>
</a>
</g>
</g>
<!-- Node1&#45;&gt;Node7 -->
<g id="edge6" class="edge">
<title>Node1&#45;&gt;Node7</title>
<path fill="none" stroke="#63b8ff" d="M271.89,-175.58C250.26,-164.28 223.69,-150.4 204.18,-140.2"/>
<polygon fill="#63b8ff" stroke="#63b8ff" points="205.96,-137.18 195.48,-135.66 202.72,-143.39 205.96,-137.18"/>
</g>
<!-- Node10 -->
<g id="node10" class="node">
<title>Node10</title>
<g id="a_node10"><a xlink:href="display__factory__interface_8hpp.xhtml" target="_top" xlink:title=" ">
<polygon fill="white" stroke="#666666" points="584,-134.5 442,-134.5 442,-115.5 584,-115.5 584,-134.5"/>
<text text-anchor="middle" x="513" y="-122.5" font-family="Helvetica,sans-Serif" font-size="10.00">display_factory_interface.hpp</text>
</a>
</g>
</g>
<!-- Node1&#45;&gt;Node10 -->
<g id="edge12" class="edge">
<title>Node1&#45;&gt;Node10</title>
<path fill="none" stroke="#63b8ff" d="M368.17,-175.58C402.87,-163.7 445.89,-148.98 475.99,-138.67"/>
<polygon fill="#63b8ff" stroke="#63b8ff" points="477.09,-141.99 485.41,-135.44 474.82,-135.37 477.09,-141.99"/>
</g>
<!-- Node11 -->
<g id="node11" class="node">
<title>Node11</title>
<g id="a_node11"><a xlink:href="statusindicators__factory__interface_8hpp.xhtml" target="_top" xlink:title=" ">
<polygon fill="white" stroke="#666666" points="120,-140 0,-140 0,-110 120,-110 120,-140"/>
<text text-anchor="start" x="8" y="-128" font-family="Helvetica,sans-Serif" font-size="10.00">statusindicators_factory</text>
<text text-anchor="middle" x="60" y="-117" font-family="Helvetica,sans-Serif" font-size="10.00">_interface.hpp</text>
</a>
</g>
</g>
<!-- Node1&#45;&gt;Node11 -->
<g id="edge14" class="edge">
<title>Node1&#45;&gt;Node11</title>
<path fill="none" stroke="#63b8ff" d="M241.02,-176.32C204.09,-166.06 158.92,-153.5 122.95,-143.5"/>
<polygon fill="#63b8ff" stroke="#63b8ff" points="124.13,-140.19 113.55,-140.89 122.25,-146.94 124.13,-140.19"/>
</g>
<!-- Node3 -->
<g id="node3" class="node">
<title>Node3</title>
<g id="a_node3"><a xlink:href="IPresenter_8hpp.xhtml" target="_top" xlink:title=" ">
<polygon fill="white" stroke="#666666" points="334,-74 254,-74 254,-55 334,-55 334,-74"/>
<text text-anchor="middle" x="294" y="-62" font-family="Helvetica,sans-Serif" font-size="10.00">IPresenter.hpp</text>
</a>
</g>
</g>
<!-- Node2&#45;&gt;Node3 -->
<g id="edge2" class="edge">
<title>Node2&#45;&gt;Node3</title>
<path fill="none" stroke="#63b8ff" d="M307.64,-115.37C305.46,-107.42 302.16,-95.33 299.35,-85.05"/>
<polygon fill="#63b8ff" stroke="#63b8ff" points="302.78,-84.35 296.77,-75.63 296.03,-86.2 302.78,-84.35"/>
</g>
<!-- Node4 -->
<g id="node4" class="node">
<title>Node4</title>
<g id="a_node4"><a xlink:title=" ">
<polygon fill="#e0e0e0" stroke="#999999" points="262.5,-19 213.5,-19 213.5,0 262.5,0 262.5,-19"/>
<text text-anchor="middle" x="238" y="-7" font-family="Helvetica,sans-Serif" font-size="10.00">cstddef</text>
</a>
</g>
</g>
<!-- Node3&#45;&gt;Node4 -->
<g id="edge3" class="edge">
<title>Node3&#45;&gt;Node4</title>
<path fill="none" stroke="#63b8ff" d="M284.5,-54.51C276.57,-47 265.05,-36.1 255.46,-27.03"/>
<polygon fill="#63b8ff" stroke="#63b8ff" points="258.13,-24.73 248.46,-20.4 253.32,-29.81 258.13,-24.73"/>
</g>
<!-- Node6 -->
<g id="node6" class="node">
<title>Node6</title>
<g id="a_node6"><a xlink:href="IDisplay_8hpp.xhtml" target="_top" xlink:title=" ">
<polygon fill="white" stroke="#666666" points="487.5,-19 418.5,-19 418.5,0 487.5,0 487.5,-19"/>
<text text-anchor="middle" x="453" y="-7" font-family="Helvetica,sans-Serif" font-size="10.00">IDisplay.hpp</text>
</a>
</g>
</g>
<!-- Node5&#45;&gt;Node6 -->
<g id="edge5" class="edge">
<title>Node5&#45;&gt;Node6</title>
<path fill="none" stroke="#63b8ff" d="M420.44,-54.75C425.66,-47.66 433.19,-37.42 439.69,-28.59"/>
<polygon fill="#63b8ff" stroke="#63b8ff" points="442.42,-30.79 445.52,-20.66 436.78,-26.64 442.42,-30.79"/>
</g>
<!-- Node7&#45;&gt;Node3 -->
<g id="edge7" class="edge">
<title>Node7&#45;&gt;Node3</title>
<path fill="none" stroke="#63b8ff" d="M194.77,-115.12C213.67,-105.67 243.82,-90.59 265.94,-79.53"/>
<polygon fill="#63b8ff" stroke="#63b8ff" points="267.33,-82.75 274.71,-75.15 264.2,-76.49 267.33,-82.75"/>
</g>
<!-- Node7&#45;&gt;Node5 -->
<g id="edge9" class="edge">
<title>Node7&#45;&gt;Node5</title>
<path fill="none" stroke="#63b8ff" d="M206.89,-115.02C212.87,-113.3 219.12,-111.55 225,-110 275.66,-96.66 334.47,-83.11 372.86,-74.53"/>
<polygon fill="#63b8ff" stroke="#63b8ff" points="373.61,-77.95 382.61,-72.36 372.09,-71.12 373.61,-77.95"/>
</g>
<!-- Node8 -->
<g id="node8" class="node">
<title>Node8</title>
<g id="a_node8"><a xlink:href="IStatusIndicator_8hpp.xhtml" target="_top" xlink:title=" ">
<polygon fill="white" stroke="#666666" points="108,-74 4,-74 4,-55 108,-55 108,-74"/>
<text text-anchor="middle" x="56" y="-62" font-family="Helvetica,sans-Serif" font-size="10.00">IStatusIndicator.hpp</text>
</a>
</g>
</g>
<!-- Node7&#45;&gt;Node8 -->
<g id="edge8" class="edge">
<title>Node7&#45;&gt;Node8</title>
<path fill="none" stroke="#63b8ff" d="M158.62,-115.12C138.99,-105.62 107.61,-90.45 84.71,-79.38"/>
<polygon fill="#63b8ff" stroke="#63b8ff" points="86.44,-76.33 75.91,-75.13 83.39,-82.63 86.44,-76.33"/>
</g>
<!-- Node9 -->
<g id="node9" class="node">
<title>Node9</title>
<g id="a_node9"><a xlink:href="hmi__configuration_8hpp.xhtml" target="_top" xlink:title=" ">
<polygon fill="white" stroke="#666666" points="236,-74 126,-74 126,-55 236,-55 236,-74"/>
<text text-anchor="middle" x="181" y="-62" font-family="Helvetica,sans-Serif" font-size="10.00">hmi_configuration.hpp</text>
</a>
</g>
</g>
<!-- Node7&#45;&gt;Node9 -->
<g id="edge10" class="edge">
<title>Node7&#45;&gt;Node9</title>
<path fill="none" stroke="#63b8ff" d="M177.59,-115.37C178.13,-107.5 178.94,-95.6 179.64,-85.39"/>
<polygon fill="#63b8ff" stroke="#63b8ff" points="183.11,-85.89 180.3,-75.68 176.13,-85.42 183.11,-85.89"/>
</g>
<!-- Node9&#45;&gt;Node4 -->
<g id="edge11" class="edge">
<title>Node9&#45;&gt;Node4</title>
<path fill="none" stroke="#63b8ff" d="M190.67,-54.51C198.74,-47 210.47,-36.1 220.22,-27.03"/>
<polygon fill="#63b8ff" stroke="#63b8ff" points="222.43,-29.76 227.37,-20.39 217.66,-24.63 222.43,-29.76"/>
</g>
<!-- Node10&#45;&gt;Node6 -->
<g id="edge13" class="edge">
<title>Node10&#45;&gt;Node6</title>
<path fill="none" stroke="#63b8ff" d="M508.29,-115.09C498.57,-96.69 476.07,-54.14 462.97,-29.35"/>
<polygon fill="#63b8ff" stroke="#63b8ff" points="466.16,-27.91 458.39,-20.7 459.97,-31.18 466.16,-27.91"/>
</g>
<!-- Node11&#45;&gt;Node8 -->
<g id="edge15" class="edge">
<title>Node11&#45;&gt;Node8</title>
<path fill="none" stroke="#63b8ff" d="M59.01,-109.54C58.51,-102.26 57.9,-93.31 57.36,-85.39"/>
<polygon fill="#63b8ff" stroke="#63b8ff" points="60.87,-85.42 56.7,-75.69 53.89,-85.9 60.87,-85.42"/>
</g>
<!-- Node11&#45;&gt;Node9 -->
<g id="edge16" class="edge">
<title>Node11&#45;&gt;Node9</title>
<path fill="none" stroke="#63b8ff" d="M89.91,-109.54C108.98,-100.32 133.56,-88.44 152.37,-79.34"/>
<polygon fill="#63b8ff" stroke="#63b8ff" points="153.86,-82.51 161.34,-75 150.81,-76.21 153.86,-82.51"/>
</g>
</g>
</svg>
