<?xml version="1.0" encoding="UTF-8" standalone="no"?>
<!DOCTYPE svg PUBLIC "-//W3C//DTD SVG 1.1//EN"
 "http://www.w3.org/Graphics/SVG/1.1/DTD/svg11.dtd">
<!-- Generated by graphviz version 7.0.5 (20221223.1930)
 -->
<!-- Title: lib/application_business_rules/src/Presenter.hpp Pages: 1 -->
<svg width="421pt" height="148pt"
 viewBox="0.00 0.00 420.50 148.00" xmlns="http://www.w3.org/2000/svg" xmlns:xlink="http://www.w3.org/1999/xlink">
<g id="graph0" class="graph" transform="scale(1 1) rotate(0) translate(4 144)">
<title>lib/application_business_rules/src/Presenter.hpp</title>
<!-- Node1 -->
<g id="node1" class="node">
<title>Node1</title>
<g id="a_node1"><a xlink:title=" ">
<polygon fill="#999999" stroke="#666666" points="273,-140 151,-140 151,-110 273,-110 273,-140"/>
<text text-anchor="start" x="159" y="-128" font-family="Helvetica,sans-Serif" font-size="10.00">lib/application_business</text>
<text text-anchor="middle" x="212" y="-117" font-family="Helvetica,sans-Serif" font-size="10.00">_rules/src/Presenter.hpp</text>
</a>
</g>
</g>
<!-- Node2 -->
<g id="node2" class="node">
<title>Node2</title>
<g id="a_node2"><a xlink:href="IPresenter_8hpp.xhtml" target="_top" xlink:title=" ">
<polygon fill="white" stroke="#666666" points="80,-74 0,-74 0,-55 80,-55 80,-74"/>
<text text-anchor="middle" x="40" y="-62" font-family="Helvetica,sans-Serif" font-size="10.00">IPresenter.hpp</text>
</a>
</g>
</g>
<!-- Node1&#45;&gt;Node2 -->
<g id="edge1" class="edge">
<title>Node1&#45;&gt;Node2</title>
<path fill="none" stroke="#63b8ff" d="M169.48,-109.54C141.07,-99.87 104.06,-87.29 76.88,-78.04"/>
<polygon fill="#63b8ff" stroke="#63b8ff" points="78.29,-74.83 67.69,-74.92 76.04,-81.45 78.29,-74.83"/>
</g>
<!-- Node4 -->
<g id="node4" class="node">
<title>Node4</title>
<g id="a_node4"><a xlink:href="IStatusIndicator_8hpp.xhtml" target="_top" xlink:title=" ">
<polygon fill="white" stroke="#666666" points="202,-74 98,-74 98,-55 202,-55 202,-74"/>
<text text-anchor="middle" x="150" y="-62" font-family="Helvetica,sans-Serif" font-size="10.00">IStatusIndicator.hpp</text>
</a>
</g>
</g>
<!-- Node1&#45;&gt;Node4 -->
<g id="edge3" class="edge">
<title>Node1&#45;&gt;Node4</title>
<path fill="none" stroke="#63b8ff" d="M196.67,-109.54C187.85,-101.22 176.73,-90.72 167.56,-82.07"/>
<polygon fill="#63b8ff" stroke="#63b8ff" points="169.97,-79.53 160.3,-75.21 165.17,-84.62 169.97,-79.53"/>
</g>
<!-- Node5 -->
<g id="node5" class="node">
<title>Node5</title>
<g id="a_node5"><a xlink:href="Menu_8hpp.xhtml" target="_top" xlink:title=" ">
<polygon fill="white" stroke="#666666" points="407.5,-74 348.5,-74 348.5,-55 407.5,-55 407.5,-74"/>
<text text-anchor="middle" x="378" y="-62" font-family="Helvetica,sans-Serif" font-size="10.00">Menu.hpp</text>
</a>
</g>
</g>
<!-- Node1&#45;&gt;Node5 -->
<g id="edge4" class="edge">
<title>Node1&#45;&gt;Node5</title>
<path fill="none" stroke="#63b8ff" d="M253.03,-109.54C280.42,-99.89 316.08,-87.32 342.29,-78.08"/>
<polygon fill="#63b8ff" stroke="#63b8ff" points="343.2,-81.47 351.47,-74.85 340.88,-74.87 343.2,-81.47"/>
</g>
<!-- Node7 -->
<g id="node7" class="node">
<title>Node7</title>
<g id="a_node7"><a xlink:href="hmi__configuration_8hpp.xhtml" target="_top" xlink:title=" ">
<polygon fill="white" stroke="#666666" points="330,-74 220,-74 220,-55 330,-55 330,-74"/>
<text text-anchor="middle" x="275" y="-62" font-family="Helvetica,sans-Serif" font-size="10.00">hmi_configuration.hpp</text>
</a>
</g>
</g>
<!-- Node1&#45;&gt;Node7 -->
<g id="edge6" class="edge">
<title>Node1&#45;&gt;Node7</title>
<path fill="none" stroke="#63b8ff" d="M227.57,-109.54C236.63,-101.13 248.07,-90.51 257.45,-81.8"/>
<polygon fill="#63b8ff" stroke="#63b8ff" points="259.6,-84.57 264.55,-75.21 254.84,-79.44 259.6,-84.57"/>
</g>
<!-- Node3 -->
<g id="node3" class="node">
<title>Node3</title>
<g id="a_node3"><a xlink:title=" ">
<polygon fill="#e0e0e0" stroke="#999999" points="182.5,-19 133.5,-19 133.5,0 182.5,0 182.5,-19"/>
<text text-anchor="middle" x="158" y="-7" font-family="Helvetica,sans-Serif" font-size="10.00">cstddef</text>
</a>
</g>
</g>
<!-- Node2&#45;&gt;Node3 -->
<g id="edge2" class="edge">
<title>Node2&#45;&gt;Node3</title>
<path fill="none" stroke="#63b8ff" d="M60.02,-54.51C78.61,-46.16 106.54,-33.61 127.83,-24.05"/>
<polygon fill="#63b8ff" stroke="#63b8ff" points="129.21,-27.27 136.9,-19.98 126.34,-20.88 129.21,-27.27"/>
</g>
<!-- Node6 -->
<g id="node6" class="node">
<title>Node6</title>
<g id="a_node6"><a xlink:href="IDisplay_8hpp.xhtml" target="_top" xlink:title=" ">
<polygon fill="white" stroke="#666666" points="412.5,-19 343.5,-19 343.5,0 412.5,0 412.5,-19"/>
<text text-anchor="middle" x="378" y="-7" font-family="Helvetica,sans-Serif" font-size="10.00">IDisplay.hpp</text>
</a>
</g>
</g>
<!-- Node5&#45;&gt;Node6 -->
<g id="edge5" class="edge">
<title>Node5&#45;&gt;Node6</title>
<path fill="none" stroke="#63b8ff" d="M378,-54.75C378,-48.27 378,-39.16 378,-30.9"/>
<polygon fill="#63b8ff" stroke="#63b8ff" points="381.5,-30.96 378,-20.96 374.5,-30.96 381.5,-30.96"/>
</g>
<!-- Node7&#45;&gt;Node3 -->
<g id="edge7" class="edge">
<title>Node7&#45;&gt;Node3</title>
<path fill="none" stroke="#63b8ff" d="M255.15,-54.51C236.72,-46.16 209.02,-33.61 187.91,-24.05"/>
<polygon fill="#63b8ff" stroke="#63b8ff" points="189.49,-20.92 178.93,-19.98 186.6,-27.3 189.49,-20.92"/>
</g>
</g>
</svg>
