<?xml version="1.0" encoding="UTF-8" standalone="no"?>
<!DOCTYPE svg PUBLIC "-//W3C//DTD SVG 1.1//EN"
 "http://www.w3.org/Graphics/SVG/1.1/DTD/svg11.dtd">
<!-- Generated by graphviz version 7.0.5 (20221223.1930)
 -->
<!-- Title: lib/application_business_rules/src/Presenter.cpp Pages: 1 -->
<svg width="421pt" height="203pt"
 viewBox="0.00 0.00 420.50 203.00" xmlns="http://www.w3.org/2000/svg" xmlns:xlink="http://www.w3.org/1999/xlink">
<g id="graph0" class="graph" transform="scale(1 1) rotate(0) translate(4 199)">
<title>lib/application_business_rules/src/Presenter.cpp</title>
<!-- Node1 -->
<g id="node1" class="node">
<title>Node1</title>
<g id="a_node1"><a xlink:title=" ">
<polygon fill="#999999" stroke="#666666" points="358,-195 236,-195 236,-165 358,-165 358,-195"/>
<text text-anchor="start" x="244" y="-183" font-family="Helvetica,sans-Serif" font-size="10.00">lib/application_business</text>
<text text-anchor="middle" x="297" y="-172" font-family="Helvetica,sans-Serif" font-size="10.00">_rules/src/Presenter.cpp</text>
</a>
</g>
</g>
<!-- Node2 -->
<g id="node2" class="node">
<title>Node2</title>
<g id="a_node2"><a xlink:href="Presenter_8hpp.xhtml" target="_top" xlink:title=" ">
<polygon fill="white" stroke="#666666" points="250.5,-129 173.5,-129 173.5,-110 250.5,-110 250.5,-129"/>
<text text-anchor="middle" x="212" y="-117" font-family="Helvetica,sans-Serif" font-size="10.00">Presenter.hpp</text>
</a>
</g>
</g>
<!-- Node1&#45;&gt;Node2 -->
<g id="edge1" class="edge">
<title>Node1&#45;&gt;Node2</title>
<path fill="none" stroke="#63b8ff" d="M275.99,-164.54C263.14,-155.7 246.73,-144.4 233.75,-135.47"/>
<polygon fill="#63b8ff" stroke="#63b8ff" points="236.07,-132.82 225.85,-130.03 232.11,-138.59 236.07,-132.82"/>
</g>
<!-- Node9 -->
<g id="node9" class="node">
<title>Node9</title>
<g id="a_node9"><a xlink:title=" ">
<polygon fill="#e0e0e0" stroke="#999999" points="325.5,-129 268.5,-129 268.5,-110 325.5,-110 325.5,-129"/>
<text text-anchor="middle" x="297" y="-117" font-family="Helvetica,sans-Serif" font-size="10.00">Arduino.h</text>
</a>
</g>
</g>
<!-- Node1&#45;&gt;Node9 -->
<g id="edge9" class="edge">
<title>Node1&#45;&gt;Node9</title>
<path fill="none" stroke="#63b8ff" d="M297,-164.54C297,-157.34 297,-148.53 297,-140.68"/>
<polygon fill="#63b8ff" stroke="#63b8ff" points="300.5,-140.69 297,-130.69 293.5,-140.69 300.5,-140.69"/>
</g>
<!-- Node10 -->
<g id="node10" class="node">
<title>Node10</title>
<g id="a_node10"><a xlink:title=" ">
<polygon fill="#e0e0e0" stroke="#999999" points="392.5,-129 343.5,-129 343.5,-110 392.5,-110 392.5,-129"/>
<text text-anchor="middle" x="368" y="-117" font-family="Helvetica,sans-Serif" font-size="10.00">cassert</text>
</a>
</g>
</g>
<!-- Node1&#45;&gt;Node10 -->
<g id="edge10" class="edge">
<title>Node1&#45;&gt;Node10</title>
<path fill="none" stroke="#63b8ff" d="M314.55,-164.54C324.97,-155.96 338.18,-145.07 348.87,-136.26"/>
<polygon fill="#63b8ff" stroke="#63b8ff" points="350.81,-139.2 356.3,-130.14 346.36,-133.8 350.81,-139.2"/>
</g>
<!-- Node3 -->
<g id="node3" class="node">
<title>Node3</title>
<g id="a_node3"><a xlink:href="IPresenter_8hpp.xhtml" target="_top" xlink:title=" ">
<polygon fill="white" stroke="#666666" points="80,-74 0,-74 0,-55 80,-55 80,-74"/>
<text text-anchor="middle" x="40" y="-62" font-family="Helvetica,sans-Serif" font-size="10.00">IPresenter.hpp</text>
</a>
</g>
</g>
<!-- Node2&#45;&gt;Node3 -->
<g id="edge2" class="edge">
<title>Node2&#45;&gt;Node3</title>
<path fill="none" stroke="#63b8ff" d="M182.82,-109.51C154.44,-100.76 111.12,-87.42 79.63,-77.71"/>
<polygon fill="#63b8ff" stroke="#63b8ff" points="81.07,-74.49 70.48,-74.89 79.01,-81.18 81.07,-74.49"/>
</g>
<!-- Node5 -->
<g id="node5" class="node">
<title>Node5</title>
<g id="a_node5"><a xlink:href="IStatusIndicator_8hpp.xhtml" target="_top" xlink:title=" ">
<polygon fill="white" stroke="#666666" points="202,-74 98,-74 98,-55 202,-55 202,-74"/>
<text text-anchor="middle" x="150" y="-62" font-family="Helvetica,sans-Serif" font-size="10.00">IStatusIndicator.hpp</text>
</a>
</g>
</g>
<!-- Node2&#45;&gt;Node5 -->
<g id="edge4" class="edge">
<title>Node2&#45;&gt;Node5</title>
<path fill="none" stroke="#63b8ff" d="M201.48,-109.51C192.61,-101.93 179.69,-90.88 169.01,-81.75"/>
<polygon fill="#63b8ff" stroke="#63b8ff" points="171.39,-79.18 161.51,-75.34 166.84,-84.5 171.39,-79.18"/>
</g>
<!-- Node6 -->
<g id="node6" class="node">
<title>Node6</title>
<g id="a_node6"><a xlink:href="Menu_8hpp.xhtml" target="_top" xlink:title=" ">
<polygon fill="white" stroke="#666666" points="407.5,-74 348.5,-74 348.5,-55 407.5,-55 407.5,-74"/>
<text text-anchor="middle" x="378" y="-62" font-family="Helvetica,sans-Serif" font-size="10.00">Menu.hpp</text>
</a>
</g>
</g>
<!-- Node2&#45;&gt;Node6 -->
<g id="edge5" class="edge">
<title>Node2&#45;&gt;Node6</title>
<path fill="none" stroke="#63b8ff" d="M240.16,-109.51C267.43,-100.8 308.99,-87.53 339.35,-77.84"/>
<polygon fill="#63b8ff" stroke="#63b8ff" points="340.08,-81.28 348.54,-74.91 337.95,-74.61 340.08,-81.28"/>
</g>
<!-- Node8 -->
<g id="node8" class="node">
<title>Node8</title>
<g id="a_node8"><a xlink:href="hmi__configuration_8hpp.xhtml" target="_top" xlink:title=" ">
<polygon fill="white" stroke="#666666" points="330,-74 220,-74 220,-55 330,-55 330,-74"/>
<text text-anchor="middle" x="275" y="-62" font-family="Helvetica,sans-Serif" font-size="10.00">hmi_configuration.hpp</text>
</a>
</g>
</g>
<!-- Node2&#45;&gt;Node8 -->
<g id="edge7" class="edge">
<title>Node2&#45;&gt;Node8</title>
<path fill="none" stroke="#63b8ff" d="M222.69,-109.51C231.7,-101.93 244.83,-90.88 255.68,-81.75"/>
<polygon fill="#63b8ff" stroke="#63b8ff" points="257.91,-84.45 263.31,-75.33 253.41,-79.09 257.91,-84.45"/>
</g>
<!-- Node4 -->
<g id="node4" class="node">
<title>Node4</title>
<g id="a_node4"><a xlink:title=" ">
<polygon fill="#e0e0e0" stroke="#999999" points="182.5,-19 133.5,-19 133.5,0 182.5,0 182.5,-19"/>
<text text-anchor="middle" x="158" y="-7" font-family="Helvetica,sans-Serif" font-size="10.00">cstddef</text>
</a>
</g>
</g>
<!-- Node3&#45;&gt;Node4 -->
<g id="edge3" class="edge">
<title>Node3&#45;&gt;Node4</title>
<path fill="none" stroke="#63b8ff" d="M60.02,-54.51C78.61,-46.16 106.54,-33.61 127.83,-24.05"/>
<polygon fill="#63b8ff" stroke="#63b8ff" points="129.21,-27.27 136.9,-19.98 126.34,-20.88 129.21,-27.27"/>
</g>
<!-- Node7 -->
<g id="node7" class="node">
<title>Node7</title>
<g id="a_node7"><a xlink:href="IDisplay_8hpp.xhtml" target="_top" xlink:title=" ">
<polygon fill="white" stroke="#666666" points="412.5,-19 343.5,-19 343.5,0 412.5,0 412.5,-19"/>
<text text-anchor="middle" x="378" y="-7" font-family="Helvetica,sans-Serif" font-size="10.00">IDisplay.hpp</text>
</a>
</g>
</g>
<!-- Node6&#45;&gt;Node7 -->
<g id="edge6" class="edge">
<title>Node6&#45;&gt;Node7</title>
<path fill="none" stroke="#63b8ff" d="M378,-54.75C378,-48.27 378,-39.16 378,-30.9"/>
<polygon fill="#63b8ff" stroke="#63b8ff" points="381.5,-30.96 378,-20.96 374.5,-30.96 381.5,-30.96"/>
</g>
<!-- Node8&#45;&gt;Node4 -->
<g id="edge8" class="edge">
<title>Node8&#45;&gt;Node4</title>
<path fill="none" stroke="#63b8ff" d="M255.15,-54.51C236.72,-46.16 209.02,-33.61 187.91,-24.05"/>
<polygon fill="#63b8ff" stroke="#63b8ff" points="189.49,-20.92 178.93,-19.98 186.6,-27.3 189.49,-20.92"/>
</g>
</g>
</svg>
