<?xml version="1.0" encoding="UTF-8" standalone="no"?>
<!DOCTYPE svg PUBLIC "-//W3C//DTD SVG 1.1//EN"
 "http://www.w3.org/Graphics/SVG/1.1/DTD/svg11.dtd">
<!-- Generated by graphviz version 9.0.0 (20230911.1827)
 -->
<!-- Title: lib/layer2_hmi/src/Presenter.cpp Pages: 1 -->
<svg width="717pt" height="204pt"
 viewBox="0.00 0.00 716.62 204.25" xmlns="http://www.w3.org/2000/svg" xmlns:xlink="http://www.w3.org/1999/xlink">
<g id="graph0" class="graph" transform="scale(1 1) rotate(0) translate(4 200.25)">
<title>lib/layer2_hmi/src/Presenter.cpp</title>
<!-- Node1 -->
<g id="Node000001" class="node">
<title>Node1</title>
<g id="a_Node000001"><a xlink:title=" ">
<polygon fill="#999999" stroke="#666666" points="581.38,-196.25 489.62,-196.25 489.62,-165.75 581.38,-165.75 581.38,-196.25"/>
<text text-anchor="start" x="497.62" y="-182.75" font-family="Helvetica,sans-Serif" font-size="10.00">lib/layer2_hmi/src</text>
<text text-anchor="middle" x="535.5" y="-171.5" font-family="Helvetica,sans-Serif" font-size="10.00">/Presenter.cpp</text>
</a>
</g>
</g>
<!-- Node2 -->
<g id="Node000002" class="node">
<title>Node2</title>
<g id="a_Node000002"><a xlink:href="Presenter_8hpp.xhtml" target="_top" xlink:title=" ">
<polygon fill="white" stroke="#666666" points="310.5,-129.75 234.5,-129.75 234.5,-110.5 310.5,-110.5 310.5,-129.75"/>
<text text-anchor="middle" x="272.5" y="-116.25" font-family="Helvetica,sans-Serif" font-size="10.00">Presenter.hpp</text>
</a>
</g>
</g>
<!-- Node1&#45;&gt;Node2 -->
<g id="edge1_Node000001_Node000002" class="edge">
<title>Node1&#45;&gt;Node2</title>
<g id="a_edge1_Node000001_Node000002"><a xlink:title=" ">
<path fill="none" stroke="#63b8ff" d="M489.39,-169.68C442.47,-159.17 370.01,-142.95 321.93,-132.19"/>
<polygon fill="#63b8ff" stroke="#63b8ff" points="322.86,-128.81 312.34,-130.04 321.33,-135.64 322.86,-128.81"/>
</a>
</g>
</g>
<!-- Node9 -->
<g id="Node000009" class="node">
<title>Node9</title>
<g id="a_Node000009"><a xlink:href="board__config_8hpp.xhtml" target="_top" xlink:title="Provides named objects for the pins provided by the board.">
<polygon fill="white" stroke="#666666" points="484.88,-129.75 396.12,-129.75 396.12,-110.5 484.88,-110.5 484.88,-129.75"/>
<text text-anchor="middle" x="440.5" y="-116.25" font-family="Helvetica,sans-Serif" font-size="10.00">board_config.hpp</text>
</a>
</g>
</g>
<!-- Node1&#45;&gt;Node9 -->
<g id="edge9_Node000001_Node000009" class="edge">
<title>Node1&#45;&gt;Node9</title>
<g id="a_edge9_Node000001_Node000009"><a xlink:title=" ">
<path fill="none" stroke="#63b8ff" d="M512.02,-165.45C497.69,-156.57 479.41,-145.24 464.92,-136.26"/>
<polygon fill="#63b8ff" stroke="#63b8ff" points="466.78,-133.29 456.43,-131 463.09,-139.24 466.78,-133.29"/>
</a>
</g>
</g>
<!-- Node12 -->
<g id="Node000012" class="node">
<title>Node12</title>
<g id="a_Node000012"><a xlink:href="pitches_8hpp.xhtml" target="_top" xlink:title=" ">
<polygon fill="white" stroke="#666666" points="568.25,-129.75 502.75,-129.75 502.75,-110.5 568.25,-110.5 568.25,-129.75"/>
<text text-anchor="middle" x="535.5" y="-116.25" font-family="Helvetica,sans-Serif" font-size="10.00">pitches.hpp</text>
</a>
</g>
</g>
<!-- Node1&#45;&gt;Node12 -->
<g id="edge12_Node000001_Node000012" class="edge">
<title>Node1&#45;&gt;Node12</title>
<g id="a_edge12_Node000001_Node000012"><a xlink:title=" ">
<path fill="none" stroke="#63b8ff" d="M535.5,-165.45C535.5,-158.21 535.5,-149.34 535.5,-141.44"/>
<polygon fill="#63b8ff" stroke="#63b8ff" points="539,-141.71 535.5,-131.71 532,-141.71 539,-141.71"/>
</a>
</g>
</g>
<!-- Node13 -->
<g id="Node000013" class="node">
<title>Node13</title>
<g id="a_Node000013"><a xlink:title=" ">
<polygon fill="#e0e0e0" stroke="#999999" points="642.75,-129.75 586.25,-129.75 586.25,-110.5 642.75,-110.5 642.75,-129.75"/>
<text text-anchor="middle" x="614.5" y="-116.25" font-family="Helvetica,sans-Serif" font-size="10.00">Arduino.h</text>
</a>
</g>
</g>
<!-- Node1&#45;&gt;Node13 -->
<g id="edge14_Node000001_Node000013" class="edge">
<title>Node1&#45;&gt;Node13</title>
<g id="a_edge14_Node000001_Node000013"><a xlink:title=" ">
<path fill="none" stroke="#63b8ff" d="M555.03,-165.45C566.59,-156.83 581.26,-145.9 593.13,-137.05"/>
<polygon fill="#63b8ff" stroke="#63b8ff" points="595.18,-139.89 601.11,-131.11 591,-134.27 595.18,-139.89"/>
</a>
</g>
</g>
<!-- Node14 -->
<g id="Node000014" class="node">
<title>Node14</title>
<g id="a_Node000014"><a xlink:title=" ">
<polygon fill="#e0e0e0" stroke="#999999" points="708.62,-129.75 660.38,-129.75 660.38,-110.5 708.62,-110.5 708.62,-129.75"/>
<text text-anchor="middle" x="684.5" y="-116.25" font-family="Helvetica,sans-Serif" font-size="10.00">cassert</text>
</a>
</g>
</g>
<!-- Node1&#45;&gt;Node14 -->
<g id="edge15_Node000001_Node000014" class="edge">
<title>Node1&#45;&gt;Node14</title>
<g id="a_edge15_Node000001_Node000014"><a xlink:title=" ">
<path fill="none" stroke="#63b8ff" d="M572.71,-165.3C596.82,-155.77 627.95,-143.47 651.24,-134.27"/>
<polygon fill="#63b8ff" stroke="#63b8ff" points="652.23,-137.64 660.24,-130.71 649.66,-131.13 652.23,-137.64"/>
</a>
</g>
</g>
<!-- Node3 -->
<g id="Node000003" class="node">
<title>Node3</title>
<g id="a_Node000003"><a xlink:href="IPresenter_8hpp.xhtml" target="_top" xlink:title=" ">
<polygon fill="white" stroke="#666666" points="79,-74.5 0,-74.5 0,-55.25 79,-55.25 79,-74.5"/>
<text text-anchor="middle" x="39.5" y="-61" font-family="Helvetica,sans-Serif" font-size="10.00">IPresenter.hpp</text>
</a>
</g>
</g>
<!-- Node2&#45;&gt;Node3 -->
<g id="edge2_Node000002_Node000003" class="edge">
<title>Node2&#45;&gt;Node3</title>
<g id="a_edge2_Node000002_Node000003"><a xlink:title=" ">
<path fill="none" stroke="#63b8ff" d="M234.02,-110.33C194.75,-101.36 133.58,-87.38 90.34,-77.49"/>
<polygon fill="#63b8ff" stroke="#63b8ff" points="91.21,-74.1 80.68,-75.29 89.65,-80.93 91.21,-74.1"/>
</a>
</g>
</g>
<!-- Node5 -->
<g id="Node000005" class="node">
<title>Node5</title>
<g id="a_Node000005"><a xlink:href="IStatusIndicator_8hpp.xhtml" target="_top" xlink:title=" ">
<polygon fill="white" stroke="#666666" points="200,-74.5 97,-74.5 97,-55.25 200,-55.25 200,-74.5"/>
<text text-anchor="middle" x="148.5" y="-61" font-family="Helvetica,sans-Serif" font-size="10.00">IStatusIndicator.hpp</text>
</a>
</g>
</g>
<!-- Node2&#45;&gt;Node5 -->
<g id="edge4_Node000002_Node000005" class="edge">
<title>Node2&#45;&gt;Node5</title>
<g id="a_edge4_Node000002_Node000005"><a xlink:title=" ">
<path fill="none" stroke="#63b8ff" d="M251.47,-110.09C231.87,-101.68 202.39,-89.02 179.99,-79.4"/>
<polygon fill="#63b8ff" stroke="#63b8ff" points="181.6,-76.28 171.03,-75.55 178.84,-82.71 181.6,-76.28"/>
</a>
</g>
</g>
<!-- Node6 -->
<g id="Node000006" class="node">
<title>Node6</title>
<g id="a_Node000006"><a xlink:href="Menu_8hpp.xhtml" target="_top" xlink:title=" ">
<polygon fill="white" stroke="#666666" points="403.5,-74.5 345.5,-74.5 345.5,-55.25 403.5,-55.25 403.5,-74.5"/>
<text text-anchor="middle" x="374.5" y="-61" font-family="Helvetica,sans-Serif" font-size="10.00">Menu.hpp</text>
</a>
</g>
</g>
<!-- Node2&#45;&gt;Node6 -->
<g id="edge5_Node000002_Node000006" class="edge">
<title>Node2&#45;&gt;Node6</title>
<g id="a_edge5_Node000002_Node000006"><a xlink:title=" ">
<path fill="none" stroke="#63b8ff" d="M289.8,-110.09C305.48,-101.91 328.85,-89.71 347.08,-80.19"/>
<polygon fill="#63b8ff" stroke="#63b8ff" points="348.53,-83.38 355.77,-75.65 345.29,-77.18 348.53,-83.38"/>
</a>
</g>
</g>
<!-- Node8 -->
<g id="Node000008" class="node">
<title>Node8</title>
<g id="a_Node000008"><a xlink:href="hmi__configuration_8hpp.xhtml" target="_top" xlink:title=" ">
<polygon fill="white" stroke="#666666" points="327.38,-74.5 217.62,-74.5 217.62,-55.25 327.38,-55.25 327.38,-74.5"/>
<text text-anchor="middle" x="272.5" y="-61" font-family="Helvetica,sans-Serif" font-size="10.00">hmi_configuration.hpp</text>
</a>
</g>
</g>
<!-- Node2&#45;&gt;Node8 -->
<g id="edge7_Node000002_Node000008" class="edge">
<title>Node2&#45;&gt;Node8</title>
<g id="a_edge7_Node000002_Node000008"><a xlink:title=" ">
<path fill="none" stroke="#63b8ff" d="M272.5,-110.33C272.5,-103.82 272.5,-94.67 272.5,-86.37"/>
<polygon fill="#63b8ff" stroke="#63b8ff" points="276,-86.37 272.5,-76.37 269,-86.37 276,-86.37"/>
</a>
</g>
</g>
<!-- Node4 -->
<g id="Node000004" class="node">
<title>Node4</title>
<g id="a_Node000004"><a xlink:title=" ">
<polygon fill="#e0e0e0" stroke="#999999" points="180.62,-19.25 132.38,-19.25 132.38,0 180.62,0 180.62,-19.25"/>
<text text-anchor="middle" x="156.5" y="-5.75" font-family="Helvetica,sans-Serif" font-size="10.00">cstddef</text>
</a>
</g>
</g>
<!-- Node3&#45;&gt;Node4 -->
<g id="edge3_Node000003_Node000004" class="edge">
<title>Node3&#45;&gt;Node4</title>
<g id="a_edge3_Node000003_Node000004"><a xlink:title=" ">
<path fill="none" stroke="#63b8ff" d="M59.35,-54.84C77.67,-46.5 105.15,-34 126.21,-24.41"/>
<polygon fill="#63b8ff" stroke="#63b8ff" points="127.53,-27.66 135.18,-20.33 124.63,-21.29 127.53,-27.66"/>
</a>
</g>
</g>
<!-- Node7 -->
<g id="Node000007" class="node">
<title>Node7</title>
<g id="a_Node000007"><a xlink:href="IDisplay_8hpp.xhtml" target="_top" xlink:title=" ">
<polygon fill="white" stroke="#666666" points="408.75,-19.25 340.25,-19.25 340.25,0 408.75,0 408.75,-19.25"/>
<text text-anchor="middle" x="374.5" y="-5.75" font-family="Helvetica,sans-Serif" font-size="10.00">IDisplay.hpp</text>
</a>
</g>
</g>
<!-- Node6&#45;&gt;Node7 -->
<g id="edge6_Node000006_Node000007" class="edge">
<title>Node6&#45;&gt;Node7</title>
<g id="a_edge6_Node000006_Node000007"><a xlink:title=" ">
<path fill="none" stroke="#63b8ff" d="M374.5,-55.08C374.5,-48.57 374.5,-39.42 374.5,-31.12"/>
<polygon fill="#63b8ff" stroke="#63b8ff" points="378,-31.12 374.5,-21.12 371,-31.12 378,-31.12"/>
</a>
</g>
</g>
<!-- Node8&#45;&gt;Node4 -->
<g id="edge8_Node000008_Node000004" class="edge">
<title>Node8&#45;&gt;Node4</title>
<g id="a_edge8_Node000008_Node000004"><a xlink:title=" ">
<path fill="none" stroke="#63b8ff" d="M252.82,-54.84C234.66,-46.5 207.42,-34 186.53,-24.41"/>
<polygon fill="#63b8ff" stroke="#63b8ff" points="188.2,-21.33 177.65,-20.33 185.28,-27.69 188.2,-21.33"/>
</a>
</g>
</g>
<!-- Node10 -->
<g id="Node000010" class="node">
<title>Node10</title>
<g id="a_Node000010"><a xlink:href="board__types_8hpp.xhtml" target="_top" xlink:title=" ">
<polygon fill="white" stroke="#666666" points="507.75,-74.5 421.25,-74.5 421.25,-55.25 507.75,-55.25 507.75,-74.5"/>
<text text-anchor="middle" x="464.5" y="-61" font-family="Helvetica,sans-Serif" font-size="10.00">board_types.hpp</text>
</a>
</g>
</g>
<!-- Node9&#45;&gt;Node10 -->
<g id="edge10_Node000009_Node000010" class="edge">
<title>Node9&#45;&gt;Node10</title>
<g id="a_edge10_Node000009_Node000010"><a xlink:title=" ">
<path fill="none" stroke="#63b8ff" d="M444.46,-110.33C447.54,-103.51 451.91,-93.81 455.79,-85.2"/>
<polygon fill="#63b8ff" stroke="#63b8ff" points="458.91,-86.79 459.83,-76.24 452.53,-83.92 458.91,-86.79"/>
</a>
</g>
</g>
<!-- Node11 -->
<g id="Node000011" class="node">
<title>Node11</title>
<g id="a_Node000011"><a xlink:title=" ">
<polygon fill="#e0e0e0" stroke="#999999" points="522.12,-19.25 476.88,-19.25 476.88,0 522.12,0 522.12,-19.25"/>
<text text-anchor="middle" x="499.5" y="-5.75" font-family="Helvetica,sans-Serif" font-size="10.00">cstdint</text>
</a>
</g>
</g>
<!-- Node10&#45;&gt;Node11 -->
<g id="edge11_Node000010_Node000011" class="edge">
<title>Node10&#45;&gt;Node11</title>
<g id="a_edge11_Node000010_Node000011"><a xlink:title=" ">
<path fill="none" stroke="#63b8ff" d="M470.28,-55.08C474.91,-48.03 481.57,-37.9 487.37,-29.08"/>
<polygon fill="#63b8ff" stroke="#63b8ff" points="490.2,-31.15 492.76,-20.87 484.35,-27.31 490.2,-31.15"/>
</a>
</g>
</g>
<!-- Node12&#45;&gt;Node11 -->
<g id="edge13_Node000012_Node000011" class="edge">
<title>Node12&#45;&gt;Node11</title>
<g id="a_edge13_Node000012_Node000011"><a xlink:title=" ">
<path fill="none" stroke="#63b8ff" d="M533.12,-110.38C529.71,-98.02 523.11,-74.76 516.5,-55.25 513.67,-46.91 510.27,-37.8 507.25,-30.01"/>
<polygon fill="#63b8ff" stroke="#63b8ff" points="510.56,-28.87 503.64,-20.85 504.05,-31.44 510.56,-28.87"/>
</a>
</g>
</g>
</g>
</svg>
