<?xml version="1.0" encoding="UTF-8" standalone="no"?>
<!DOCTYPE svg PUBLIC "-//W3C//DTD SVG 1.1//EN"
 "http://www.w3.org/Graphics/SVG/1.1/DTD/svg11.dtd">
<!-- Generated by graphviz version 9.0.0 (20230911.1827)
 -->
<!-- Title: lib/layer1_use_cases/include/presenter_factory_interface.hpp Pages: 1 -->
<svg width="252pt" height="116pt"
 viewBox="0.00 0.00 252.12 116.25" xmlns="http://www.w3.org/2000/svg" xmlns:xlink="http://www.w3.org/1999/xlink">
<g id="graph0" class="graph" transform="scale(1 1) rotate(0) translate(4 112.25)">
<title>lib/layer1_use_cases/include/presenter_factory_interface.hpp</title>
<!-- Node1 -->
<g id="Node000001" class="node">
<title>Node1</title>
<g id="a_Node000001"><a xlink:title=" ">
<polygon fill="#999999" stroke="#666666" points="206.25,-108.25 78.5,-108.25 78.5,-66.5 206.25,-66.5 206.25,-108.25"/>
<text text-anchor="start" x="86.5" y="-94.75" font-family="Helvetica,sans-Serif" font-size="10.00">lib/layer1_use_cases</text>
<text text-anchor="start" x="86.5" y="-83.5" font-family="Helvetica,sans-Serif" font-size="10.00">/include/presenter_factory</text>
<text text-anchor="middle" x="142.38" y="-72.25" font-family="Helvetica,sans-Serif" font-size="10.00">_interface.hpp</text>
</a>
</g>
</g>
<!-- Node2 -->
<g id="Node000002" class="node">
<title>Node2</title>
<g id="a_Node000002"><a xlink:href="presenter__factory__interface_8cpp.xhtml" target="_top" xlink:title=" ">
<polygon fill="white" stroke="#666666" points="154.75,-30.5 0,-30.5 0,0 154.75,0 154.75,-30.5"/>
<text text-anchor="start" x="8" y="-17" font-family="Helvetica,sans-Serif" font-size="10.00">lib/layer2_hmi/src</text>
<text text-anchor="middle" x="77.38" y="-5.75" font-family="Helvetica,sans-Serif" font-size="10.00">/presenter_factory_interface.cpp</text>
</a>
</g>
</g>
<!-- Node1&#45;&gt;Node2 -->
<g id="edge1_Node000001_Node000002" class="edge">
<title>Node1&#45;&gt;Node2</title>
<g id="a_edge1_Node000001_Node000002"><a xlink:title=" ">
<path fill="none" stroke="#63b8ff" d="M115.88,-57.79C107.25,-48.48 98.02,-38.53 90.77,-30.7"/>
<polygon fill="#63b8ff" stroke="#63b8ff" points="113.18,-60.03 122.55,-64.98 118.31,-55.27 113.18,-60.03"/>
</a>
</g>
</g>
<!-- Node3 -->
<g id="Node000003" class="node">
<title>Node3</title>
<g id="a_Node000003"><a xlink:href="main_8cpp.xhtml" target="_top" xlink:title=" ">
<polygon fill="white" stroke="#666666" points="244.12,-24.88 172.62,-24.88 172.62,-5.63 244.12,-5.63 244.12,-24.88"/>
<text text-anchor="middle" x="208.38" y="-11.38" font-family="Helvetica,sans-Serif" font-size="10.00">src/main.cpp</text>
</a>
</g>
</g>
<!-- Node1&#45;&gt;Node3 -->
<g id="edge2_Node000001_Node000003" class="edge">
<title>Node1&#45;&gt;Node3</title>
<g id="a_edge2_Node000001_Node000003"><a xlink:title=" ">
<path fill="none" stroke="#63b8ff" d="M169.28,-57.79C180.34,-46.04 192.34,-33.28 200.09,-25.05"/>
<polygon fill="#63b8ff" stroke="#63b8ff" points="166.81,-55.31 162.5,-64.99 171.9,-60.11 166.81,-55.31"/>
</a>
</g>
</g>
</g>
</svg>
