<?xml version="1.0" encoding="UTF-8" standalone="no"?>
<!DOCTYPE svg PUBLIC "-//W3C//DTD SVG 1.1//EN"
 "http://www.w3.org/Graphics/SVG/1.1/DTD/svg11.dtd">
<!-- Generated by graphviz version 7.0.5 (20221223.1930)
 -->
<!-- Title: lib/application_business_rules/include/ProcessHmiInputs.hpp Pages: 1 -->
<svg width="240pt" height="203pt"
 viewBox="0.00 0.00 240.00 203.00" xmlns="http://www.w3.org/2000/svg" xmlns:xlink="http://www.w3.org/1999/xlink">
<g id="graph0" class="graph" transform="scale(1 1) rotate(0) translate(4 199)">
<title>lib/application_business_rules/include/ProcessHmiInputs.hpp</title>
<!-- Node1 -->
<g id="node1" class="node">
<title>Node1</title>
<g id="a_node1"><a xlink:title=" ">
<polygon fill="#999999" stroke="#666666" points="232,-195 53,-195 53,-165 232,-165 232,-195"/>
<text text-anchor="start" x="61" y="-183" font-family="Helvetica,sans-Serif" font-size="10.00">lib/application_business</text>
<text text-anchor="middle" x="142.5" y="-172" font-family="Helvetica,sans-Serif" font-size="10.00">_rules/include/ProcessHmiInputs.hpp</text>
</a>
</g>
</g>
<!-- Node2 -->
<g id="node2" class="node">
<title>Node2</title>
<g id="a_node2"><a xlink:href="IController_8hpp.xhtml" target="_top" xlink:title=" ">
<polygon fill="white" stroke="#666666" points="133,-129 54,-129 54,-110 133,-110 133,-129"/>
<text text-anchor="middle" x="93.5" y="-117" font-family="Helvetica,sans-Serif" font-size="10.00">IController.hpp</text>
</a>
</g>
</g>
<!-- Node1&#45;&gt;Node2 -->
<g id="edge1" class="edge">
<title>Node1&#45;&gt;Node2</title>
<path fill="none" stroke="#63b8ff" d="M130.39,-164.54C123.63,-156.48 115.18,-146.38 108.06,-137.89"/>
<polygon fill="#63b8ff" stroke="#63b8ff" points="110.84,-135.75 101.74,-130.34 105.48,-140.25 110.84,-135.75"/>
</g>
<!-- Node6 -->
<g id="node6" class="node">
<title>Node6</title>
<g id="a_node6"><a xlink:href="IPresenter_8hpp.xhtml" target="_top" xlink:title=" ">
<polygon fill="white" stroke="#666666" points="231.5,-129 151.5,-129 151.5,-110 231.5,-110 231.5,-129"/>
<text text-anchor="middle" x="191.5" y="-117" font-family="Helvetica,sans-Serif" font-size="10.00">IPresenter.hpp</text>
</a>
</g>
</g>
<!-- Node1&#45;&gt;Node6 -->
<g id="edge5" class="edge">
<title>Node1&#45;&gt;Node6</title>
<path fill="none" stroke="#63b8ff" d="M154.61,-164.54C161.37,-156.48 169.82,-146.38 176.94,-137.89"/>
<polygon fill="#63b8ff" stroke="#63b8ff" points="179.52,-140.25 183.26,-130.34 174.16,-135.75 179.52,-140.25"/>
</g>
<!-- Node3 -->
<g id="node3" class="node">
<title>Node3</title>
<g id="a_node3"><a xlink:href="KeyIds_8hpp.xhtml" target="_top" xlink:title=" ">
<polygon fill="white" stroke="#666666" points="65,-74 0,-74 0,-55 65,-55 65,-74"/>
<text text-anchor="middle" x="32.5" y="-62" font-family="Helvetica,sans-Serif" font-size="10.00">KeyIds.hpp</text>
</a>
</g>
</g>
<!-- Node2&#45;&gt;Node3 -->
<g id="edge2" class="edge">
<title>Node2&#45;&gt;Node3</title>
<path fill="none" stroke="#63b8ff" d="M83.15,-109.51C74.42,-101.93 61.71,-90.88 51.2,-81.75"/>
<polygon fill="#63b8ff" stroke="#63b8ff" points="53.68,-79.27 43.84,-75.35 49.09,-84.55 53.68,-79.27"/>
</g>
<!-- Node5 -->
<g id="node5" class="node">
<title>Node5</title>
<g id="a_node5"><a xlink:title=" ">
<polygon fill="#e0e0e0" stroke="#999999" points="133.5,-74 83.5,-74 83.5,-55 133.5,-55 133.5,-74"/>
<text text-anchor="middle" x="108.5" y="-62" font-family="Helvetica,sans-Serif" font-size="10.00">optional</text>
</a>
</g>
</g>
<!-- Node2&#45;&gt;Node5 -->
<g id="edge4" class="edge">
<title>Node2&#45;&gt;Node5</title>
<path fill="none" stroke="#63b8ff" d="M95.98,-109.75C97.85,-103.11 100.51,-93.73 102.89,-85.31"/>
<polygon fill="#63b8ff" stroke="#63b8ff" points="106.2,-86.47 105.56,-75.9 99.47,-84.57 106.2,-86.47"/>
</g>
<!-- Node4 -->
<g id="node4" class="node">
<title>Node4</title>
<g id="a_node4"><a xlink:title=" ">
<polygon fill="#e0e0e0" stroke="#999999" points="58.5,-19 6.5,-19 6.5,0 58.5,0 58.5,-19"/>
<text text-anchor="middle" x="32.5" y="-7" font-family="Helvetica,sans-Serif" font-size="10.00">ostream</text>
</a>
</g>
</g>
<!-- Node3&#45;&gt;Node4 -->
<g id="edge3" class="edge">
<title>Node3&#45;&gt;Node4</title>
<path fill="none" stroke="#63b8ff" d="M32.5,-54.75C32.5,-48.27 32.5,-39.16 32.5,-30.9"/>
<polygon fill="#63b8ff" stroke="#63b8ff" points="36,-30.96 32.5,-20.96 29,-30.96 36,-30.96"/>
</g>
<!-- Node7 -->
<g id="node7" class="node">
<title>Node7</title>
<g id="a_node7"><a xlink:title=" ">
<polygon fill="#e0e0e0" stroke="#999999" points="216,-74 167,-74 167,-55 216,-55 216,-74"/>
<text text-anchor="middle" x="191.5" y="-62" font-family="Helvetica,sans-Serif" font-size="10.00">cstddef</text>
</a>
</g>
</g>
<!-- Node6&#45;&gt;Node7 -->
<g id="edge6" class="edge">
<title>Node6&#45;&gt;Node7</title>
<path fill="none" stroke="#63b8ff" d="M191.5,-109.75C191.5,-103.27 191.5,-94.16 191.5,-85.9"/>
<polygon fill="#63b8ff" stroke="#63b8ff" points="195,-85.96 191.5,-75.96 188,-85.96 195,-85.96"/>
</g>
</g>
</svg>
