<?xml version="1.0" encoding="UTF-8" standalone="no"?>
<!DOCTYPE svg PUBLIC "-//W3C//DTD SVG 1.1//EN"
 "http://www.w3.org/Graphics/SVG/1.1/DTD/svg11.dtd">
<!-- Generated by graphviz version 7.0.5 (20221223.1930)
 -->
<!-- Title: lib/application_business_rules/src/ProcessHmiInputs.cpp Pages: 1 -->
<svg width="782pt" height="313pt"
 viewBox="0.00 0.00 781.50 313.00" xmlns="http://www.w3.org/2000/svg" xmlns:xlink="http://www.w3.org/1999/xlink">
<g id="graph0" class="graph" transform="scale(1 1) rotate(0) translate(4 309)">
<title>lib/application_business_rules/src/ProcessHmiInputs.cpp</title>
<!-- Node1 -->
<g id="node1" class="node">
<title>Node1</title>
<g id="a_node1"><a xlink:title=" ">
<polygon fill="#999999" stroke="#666666" points="659.5,-305 498.5,-305 498.5,-275 659.5,-275 659.5,-305"/>
<text text-anchor="start" x="506.5" y="-293" font-family="Helvetica,sans-Serif" font-size="10.00">lib/application_business</text>
<text text-anchor="middle" x="579" y="-282" font-family="Helvetica,sans-Serif" font-size="10.00">_rules/src/ProcessHmiInputs.cpp</text>
</a>
</g>
</g>
<!-- Node2 -->
<g id="node2" class="node">
<title>Node2</title>
<g id="a_node2"><a xlink:href="ProcessHmiInputs_8hpp.xhtml" target="_top" xlink:title=" ">
<polygon fill="white" stroke="#666666" points="497,-239 381,-239 381,-220 497,-220 497,-239"/>
<text text-anchor="middle" x="439" y="-227" font-family="Helvetica,sans-Serif" font-size="10.00">ProcessHmiInputs.hpp</text>
</a>
</g>
</g>
<!-- Node1&#45;&gt;Node2 -->
<g id="edge1" class="edge">
<title>Node1&#45;&gt;Node2</title>
<path fill="none" stroke="#63b8ff" d="M544.39,-274.54C521.81,-265.1 492.56,-252.88 470.61,-243.71"/>
<polygon fill="#63b8ff" stroke="#63b8ff" points="472.14,-240.56 461.57,-239.93 469.44,-247.01 472.14,-240.56"/>
</g>
<!-- Node14 -->
<g id="node14" class="node">
<title>Node14</title>
<g id="a_node14"><a xlink:href="serial__port_8hpp.xhtml" target="_top" xlink:title=" ">
<polygon fill="white" stroke="#666666" points="645,-184 565,-184 565,-165 645,-165 645,-184"/>
<text text-anchor="middle" x="605" y="-172" font-family="Helvetica,sans-Serif" font-size="10.00">serial_port.hpp</text>
</a>
</g>
</g>
<!-- Node1&#45;&gt;Node14 -->
<g id="edge15" class="edge">
<title>Node1&#45;&gt;Node14</title>
<path fill="none" stroke="#63b8ff" d="M574.54,-274.63C570.87,-260.41 567.14,-238.2 573,-220 576.16,-210.19 582.37,-200.72 588.49,-193.05"/>
<polygon fill="#63b8ff" stroke="#63b8ff" points="591.07,-195.42 594.96,-185.57 585.77,-190.84 591.07,-195.42"/>
</g>
<!-- Node18 -->
<g id="node18" class="node">
<title>Node18</title>
<g id="a_node18"><a xlink:title=" ">
<polygon fill="#e0e0e0" stroke="#999999" points="630.5,-239 581.5,-239 581.5,-220 630.5,-220 630.5,-239"/>
<text text-anchor="middle" x="606" y="-227" font-family="Helvetica,sans-Serif" font-size="10.00">cassert</text>
</a>
</g>
</g>
<!-- Node1&#45;&gt;Node18 -->
<g id="edge21" class="edge">
<title>Node1&#45;&gt;Node18</title>
<path fill="none" stroke="#63b8ff" d="M585.67,-274.54C589.16,-267 593.46,-257.67 597.21,-249.55"/>
<polygon fill="#63b8ff" stroke="#63b8ff" points="600.35,-251.1 601.36,-240.55 593.99,-248.16 600.35,-251.1"/>
</g>
<!-- Node19 -->
<g id="node19" class="node">
<title>Node19</title>
<g id="a_node19"><a xlink:title=" ">
<polygon fill="#e0e0e0" stroke="#999999" points="711,-239 649,-239 649,-220 711,-220 711,-239"/>
<text text-anchor="middle" x="680" y="-227" font-family="Helvetica,sans-Serif" font-size="10.00">type_traits</text>
</a>
</g>
</g>
<!-- Node1&#45;&gt;Node19 -->
<g id="edge22" class="edge">
<title>Node1&#45;&gt;Node19</title>
<path fill="none" stroke="#63b8ff" d="M603.97,-274.54C619.44,-265.58 639.25,-254.1 654.77,-245.11"/>
<polygon fill="#63b8ff" stroke="#63b8ff" points="656.52,-248.15 663.42,-240.1 653.01,-242.09 656.52,-248.15"/>
</g>
<!-- Node3 -->
<g id="node3" class="node">
<title>Node3</title>
<g id="a_node3"><a xlink:href="Controller_8hpp.xhtml" target="_top" xlink:title=" ">
<polygon fill="white" stroke="#666666" points="477,-184 401,-184 401,-165 477,-165 477,-184"/>
<text text-anchor="middle" x="439" y="-172" font-family="Helvetica,sans-Serif" font-size="10.00">Controller.hpp</text>
</a>
</g>
</g>
<!-- Node2&#45;&gt;Node3 -->
<g id="edge2" class="edge">
<title>Node2&#45;&gt;Node3</title>
<path fill="none" stroke="#63b8ff" d="M439,-219.75C439,-213.27 439,-204.16 439,-195.9"/>
<polygon fill="#63b8ff" stroke="#63b8ff" points="442.5,-195.96 439,-185.96 435.5,-195.96 442.5,-195.96"/>
</g>
<!-- Node8 -->
<g id="node8" class="node">
<title>Node8</title>
<g id="a_node8"><a xlink:href="Presenter_8hpp.xhtml" target="_top" xlink:title=" ">
<polygon fill="white" stroke="#666666" points="293.5,-184 216.5,-184 216.5,-165 293.5,-165 293.5,-184"/>
<text text-anchor="middle" x="255" y="-172" font-family="Helvetica,sans-Serif" font-size="10.00">Presenter.hpp</text>
</a>
</g>
</g>
<!-- Node2&#45;&gt;Node8 -->
<g id="edge8" class="edge">
<title>Node2&#45;&gt;Node8</title>
<path fill="none" stroke="#63b8ff" d="M407.79,-219.51C377.3,-210.73 330.68,-197.3 296.96,-187.59"/>
<polygon fill="#63b8ff" stroke="#63b8ff" points="298.09,-184.27 287.51,-184.87 296.15,-191 298.09,-184.27"/>
</g>
<!-- Node4 -->
<g id="node4" class="node">
<title>Node4</title>
<g id="a_node4"><a xlink:href="IKeypad_8hpp.xhtml" target="_top" xlink:title=" ">
<polygon fill="white" stroke="#666666" points="474,-129 404,-129 404,-110 474,-110 474,-129"/>
<text text-anchor="middle" x="439" y="-117" font-family="Helvetica,sans-Serif" font-size="10.00">IKeypad.hpp</text>
</a>
</g>
</g>
<!-- Node3&#45;&gt;Node4 -->
<g id="edge3" class="edge">
<title>Node3&#45;&gt;Node4</title>
<path fill="none" stroke="#63b8ff" d="M439,-164.75C439,-158.27 439,-149.16 439,-140.9"/>
<polygon fill="#63b8ff" stroke="#63b8ff" points="442.5,-140.96 439,-130.96 435.5,-140.96 442.5,-140.96"/>
</g>
<!-- Node5 -->
<g id="node5" class="node">
<title>Node5</title>
<g id="a_node5"><a xlink:href="KeyIds_8hpp.xhtml" target="_top" xlink:title=" ">
<polygon fill="white" stroke="#666666" points="471.5,-74 406.5,-74 406.5,-55 471.5,-55 471.5,-74"/>
<text text-anchor="middle" x="439" y="-62" font-family="Helvetica,sans-Serif" font-size="10.00">KeyIds.hpp</text>
</a>
</g>
</g>
<!-- Node3&#45;&gt;Node5 -->
<g id="edge6" class="edge">
<title>Node3&#45;&gt;Node5</title>
<path fill="none" stroke="#63b8ff" d="M425.8,-164.68C415.24,-156.76 401.19,-144.07 395,-129 387.7,-111.23 402.35,-93.46 416.67,-81.26"/>
<polygon fill="#63b8ff" stroke="#63b8ff" points="418.46,-84.3 424.15,-75.36 414.13,-78.8 418.46,-84.3"/>
</g>
<!-- Node7 -->
<g id="node7" class="node">
<title>Node7</title>
<g id="a_node7"><a xlink:title=" ">
<polygon fill="#e0e0e0" stroke="#999999" points="542,-129 492,-129 492,-110 542,-110 542,-129"/>
<text text-anchor="middle" x="517" y="-117" font-family="Helvetica,sans-Serif" font-size="10.00">optional</text>
</a>
</g>
</g>
<!-- Node3&#45;&gt;Node7 -->
<g id="edge7" class="edge">
<title>Node3&#45;&gt;Node7</title>
<path fill="none" stroke="#63b8ff" d="M452.23,-164.51C463.84,-156.62 480.97,-144.98 494.7,-135.65"/>
<polygon fill="#63b8ff" stroke="#63b8ff" points="496.41,-138.72 502.71,-130.21 492.47,-132.93 496.41,-138.72"/>
</g>
<!-- Node4&#45;&gt;Node5 -->
<g id="edge4" class="edge">
<title>Node4&#45;&gt;Node5</title>
<path fill="none" stroke="#63b8ff" d="M439,-109.75C439,-103.27 439,-94.16 439,-85.9"/>
<polygon fill="#63b8ff" stroke="#63b8ff" points="442.5,-85.96 439,-75.96 435.5,-85.96 442.5,-85.96"/>
</g>
<!-- Node6 -->
<g id="node6" class="node">
<title>Node6</title>
<g id="a_node6"><a xlink:title=" ">
<polygon fill="#e0e0e0" stroke="#999999" points="560,-19 508,-19 508,0 560,0 560,-19"/>
<text text-anchor="middle" x="534" y="-7" font-family="Helvetica,sans-Serif" font-size="10.00">ostream</text>
</a>
</g>
</g>
<!-- Node5&#45;&gt;Node6 -->
<g id="edge5" class="edge">
<title>Node5&#45;&gt;Node6</title>
<path fill="none" stroke="#63b8ff" d="M455.12,-54.51C469.67,-46.39 491.34,-34.3 508.29,-24.85"/>
<polygon fill="#63b8ff" stroke="#63b8ff" points="509.77,-28.02 516.8,-20.1 506.36,-21.91 509.77,-28.02"/>
</g>
<!-- Node9 -->
<g id="node9" class="node">
<title>Node9</title>
<g id="a_node9"><a xlink:href="IStatusIndicator_8hpp.xhtml" target="_top" xlink:title=" ">
<polygon fill="white" stroke="#666666" points="104,-129 0,-129 0,-110 104,-110 104,-129"/>
<text text-anchor="middle" x="52" y="-117" font-family="Helvetica,sans-Serif" font-size="10.00">IStatusIndicator.hpp</text>
</a>
</g>
</g>
<!-- Node8&#45;&gt;Node9 -->
<g id="edge9" class="edge">
<title>Node8&#45;&gt;Node9</title>
<path fill="none" stroke="#63b8ff" d="M220.56,-164.51C186.63,-155.65 134.6,-142.07 97.32,-132.33"/>
<polygon fill="#63b8ff" stroke="#63b8ff" points="98.29,-128.97 87.73,-129.83 96.52,-135.74 98.29,-128.97"/>
</g>
<!-- Node10 -->
<g id="node10" class="node">
<title>Node10</title>
<g id="a_node10"><a xlink:href="Menu_8hpp.xhtml" target="_top" xlink:title=" ">
<polygon fill="white" stroke="#666666" points="181.5,-129 122.5,-129 122.5,-110 181.5,-110 181.5,-129"/>
<text text-anchor="middle" x="152" y="-117" font-family="Helvetica,sans-Serif" font-size="10.00">Menu.hpp</text>
</a>
</g>
</g>
<!-- Node8&#45;&gt;Node10 -->
<g id="edge10" class="edge">
<title>Node8&#45;&gt;Node10</title>
<path fill="none" stroke="#63b8ff" d="M237.53,-164.51C221.6,-156.31 197.81,-144.07 179.36,-134.58"/>
<polygon fill="#63b8ff" stroke="#63b8ff" points="181.05,-131.51 170.56,-130.05 177.85,-137.74 181.05,-131.51"/>
</g>
<!-- Node12 -->
<g id="node12" class="node">
<title>Node12</title>
<g id="a_node12"><a xlink:href="hmi__configuration_8hpp.xhtml" target="_top" xlink:title=" ">
<polygon fill="white" stroke="#666666" points="310,-129 200,-129 200,-110 310,-110 310,-129"/>
<text text-anchor="middle" x="255" y="-117" font-family="Helvetica,sans-Serif" font-size="10.00">hmi_configuration.hpp</text>
</a>
</g>
</g>
<!-- Node8&#45;&gt;Node12 -->
<g id="edge12" class="edge">
<title>Node8&#45;&gt;Node12</title>
<path fill="none" stroke="#63b8ff" d="M255,-164.75C255,-158.27 255,-149.16 255,-140.9"/>
<polygon fill="#63b8ff" stroke="#63b8ff" points="258.5,-140.96 255,-130.96 251.5,-140.96 258.5,-140.96"/>
</g>
<!-- Node13 -->
<g id="node13" class="node">
<title>Node13</title>
<g id="a_node13"><a xlink:title=" ">
<polygon fill="#e0e0e0" stroke="#999999" points="320.5,-74 271.5,-74 271.5,-55 320.5,-55 320.5,-74"/>
<text text-anchor="middle" x="296" y="-62" font-family="Helvetica,sans-Serif" font-size="10.00">cstddef</text>
</a>
</g>
</g>
<!-- Node8&#45;&gt;Node13 -->
<g id="edge14" class="edge">
<title>Node8&#45;&gt;Node13</title>
<path fill="none" stroke="#63b8ff" d="M277.43,-164.56C292.17,-157.36 310.29,-145.67 319,-129 326.63,-114.4 318.96,-96.71 310.49,-83.71"/>
<polygon fill="#63b8ff" stroke="#63b8ff" points="313.37,-81.73 304.68,-75.67 307.7,-85.83 313.37,-81.73"/>
</g>
<!-- Node11 -->
<g id="node11" class="node">
<title>Node11</title>
<g id="a_node11"><a xlink:href="IDisplay_8hpp.xhtml" target="_top" xlink:title=" ">
<polygon fill="white" stroke="#666666" points="186.5,-74 117.5,-74 117.5,-55 186.5,-55 186.5,-74"/>
<text text-anchor="middle" x="152" y="-62" font-family="Helvetica,sans-Serif" font-size="10.00">IDisplay.hpp</text>
</a>
</g>
</g>
<!-- Node10&#45;&gt;Node11 -->
<g id="edge11" class="edge">
<title>Node10&#45;&gt;Node11</title>
<path fill="none" stroke="#63b8ff" d="M152,-109.75C152,-103.27 152,-94.16 152,-85.9"/>
<polygon fill="#63b8ff" stroke="#63b8ff" points="155.5,-85.96 152,-75.96 148.5,-85.96 155.5,-85.96"/>
</g>
<!-- Node12&#45;&gt;Node13 -->
<g id="edge13" class="edge">
<title>Node12&#45;&gt;Node13</title>
<path fill="none" stroke="#63b8ff" d="M261.77,-109.75C267.32,-102.58 275.34,-92.2 282.23,-83.3"/>
<polygon fill="#63b8ff" stroke="#63b8ff" points="284.81,-85.69 288.16,-75.64 279.27,-81.41 284.81,-85.69"/>
</g>
<!-- Node14&#45;&gt;Node6 -->
<g id="edge19" class="edge">
<title>Node14&#45;&gt;Node6</title>
<path fill="none" stroke="#63b8ff" d="M608.11,-164.6C611.98,-152.07 617.37,-128.65 611,-110 599.48,-76.28 571.36,-45.12 552.49,-26.96"/>
<polygon fill="#63b8ff" stroke="#63b8ff" points="555.13,-24.64 545.43,-20.38 550.36,-29.76 555.13,-24.64"/>
</g>
<!-- Node14&#45;&gt;Node7 -->
<g id="edge18" class="edge">
<title>Node14&#45;&gt;Node7</title>
<path fill="none" stroke="#63b8ff" d="M590.07,-164.51C576.72,-156.47 556.89,-144.53 541.26,-135.11"/>
<polygon fill="#63b8ff" stroke="#63b8ff" points="543.38,-132.3 533,-130.14 539.76,-138.3 543.38,-132.3"/>
</g>
<!-- Node15 -->
<g id="node15" class="node">
<title>Node15</title>
<g id="a_node15"><a xlink:title=" ">
<polygon fill="#e0e0e0" stroke="#999999" points="696,-129 658,-129 658,-110 696,-110 696,-129"/>
<text text-anchor="middle" x="677" y="-117" font-family="Helvetica,sans-Serif" font-size="10.00">array</text>
</a>
</g>
</g>
<!-- Node14&#45;&gt;Node15 -->
<g id="edge16" class="edge">
<title>Node14&#45;&gt;Node15</title>
<path fill="none" stroke="#63b8ff" d="M617.21,-164.51C627.83,-156.7 643.44,-145.21 656.04,-135.93"/>
<polygon fill="#63b8ff" stroke="#63b8ff" points="657.77,-139 663.75,-130.26 653.62,-133.36 657.77,-139"/>
</g>
<!-- Node16 -->
<g id="node16" class="node">
<title>Node16</title>
<g id="a_node16"><a xlink:title=" ">
<polygon fill="#e0e0e0" stroke="#999999" points="773.5,-129 714.5,-129 714.5,-110 773.5,-110 773.5,-129"/>
<text text-anchor="middle" x="744" y="-117" font-family="Helvetica,sans-Serif" font-size="10.00">functional</text>
</a>
</g>
</g>
<!-- Node14&#45;&gt;Node16 -->
<g id="edge17" class="edge">
<title>Node14&#45;&gt;Node16</title>
<path fill="none" stroke="#63b8ff" d="M628.58,-164.51C650.98,-155.97 684.9,-143.03 710.18,-133.4"/>
<polygon fill="#63b8ff" stroke="#63b8ff" points="711.26,-136.73 719.35,-129.9 708.76,-130.19 711.26,-136.73"/>
</g>
<!-- Node17 -->
<g id="node17" class="node">
<title>Node17</title>
<g id="a_node17"><a xlink:title=" ">
<polygon fill="#e0e0e0" stroke="#999999" points="601.5,-129 560.5,-129 560.5,-110 601.5,-110 601.5,-129"/>
<text text-anchor="middle" x="581" y="-117" font-family="Helvetica,sans-Serif" font-size="10.00">string</text>
</a>
</g>
</g>
<!-- Node14&#45;&gt;Node17 -->
<g id="edge20" class="edge">
<title>Node14&#45;&gt;Node17</title>
<path fill="none" stroke="#63b8ff" d="M601.04,-164.75C597.96,-157.96 593.59,-148.3 589.71,-139.73"/>
<polygon fill="#63b8ff" stroke="#63b8ff" points="592.99,-138.49 585.67,-130.82 586.61,-141.37 592.99,-138.49"/>
</g>
</g>
</svg>
