<?xml version="1.0" encoding="UTF-8" standalone="no"?>
<!DOCTYPE svg PUBLIC "-//W3C//DTD SVG 1.1//EN"
 "http://www.w3.org/Graphics/SVG/1.1/DTD/svg11.dtd">
<!-- Generated by graphviz version 7.0.5 (20221223.1930)
 -->
<!-- Title: lib/application_business_rules/src/ProcessHmiInputs.cpp Pages: 1 -->
<svg width="482pt" height="313pt"
 viewBox="0.00 0.00 482.00 313.00" xmlns="http://www.w3.org/2000/svg" xmlns:xlink="http://www.w3.org/1999/xlink">
<g id="graph0" class="graph" transform="scale(1 1) rotate(0) translate(4 309)">
<title>lib/application_business_rules/src/ProcessHmiInputs.cpp</title>
<!-- Node1 -->
<g id="node1" class="node">
<title>Node1</title>
<g id="a_node1"><a xlink:title=" ">
<polygon fill="#999999" stroke="#666666" points="368,-305 207,-305 207,-275 368,-275 368,-305"/>
<text text-anchor="start" x="215" y="-293" font-family="Helvetica,sans-Serif" font-size="10.00">lib/application_business</text>
<text text-anchor="middle" x="287.5" y="-282" font-family="Helvetica,sans-Serif" font-size="10.00">_rules/src/ProcessHmiInputs.cpp</text>
</a>
</g>
</g>
<!-- Node2 -->
<g id="node2" class="node">
<title>Node2</title>
<g id="a_node2"><a xlink:href="ProcessHmiInputs_8hpp.xhtml" target="_top" xlink:title=" ">
<polygon fill="white" stroke="#666666" points="223.5,-239 107.5,-239 107.5,-220 223.5,-220 223.5,-239"/>
<text text-anchor="middle" x="165.5" y="-227" font-family="Helvetica,sans-Serif" font-size="10.00">ProcessHmiInputs.hpp</text>
</a>
</g>
</g>
<!-- Node1&#45;&gt;Node2 -->
<g id="edge1" class="edge">
<title>Node1&#45;&gt;Node2</title>
<path fill="none" stroke="#63b8ff" d="M257.34,-274.54C238.02,-265.28 213.1,-253.33 194.1,-244.21"/>
<polygon fill="#63b8ff" stroke="#63b8ff" points="195.84,-241.17 185.31,-240 192.82,-247.48 195.84,-241.17"/>
</g>
<!-- Node10 -->
<g id="node10" class="node">
<title>Node10</title>
<g id="a_node10"><a xlink:href="serial__port_8hpp.xhtml" target="_top" xlink:title=" ">
<polygon fill="white" stroke="#666666" points="334.5,-184 254.5,-184 254.5,-165 334.5,-165 334.5,-184"/>
<text text-anchor="middle" x="294.5" y="-172" font-family="Helvetica,sans-Serif" font-size="10.00">serial_port.hpp</text>
</a>
</g>
</g>
<!-- Node1&#45;&gt;Node10 -->
<g id="edge10" class="edge">
<title>Node1&#45;&gt;Node10</title>
<path fill="none" stroke="#63b8ff" d="M284.35,-274.68C281.73,-260.68 278.81,-238.81 281.5,-220 282.7,-211.63 285.1,-202.64 287.52,-194.95"/>
<polygon fill="#63b8ff" stroke="#63b8ff" points="290.78,-196.23 290.67,-185.64 284.15,-193.98 290.78,-196.23"/>
</g>
<!-- Node14 -->
<g id="node14" class="node">
<title>Node14</title>
<g id="a_node14"><a xlink:title=" ">
<polygon fill="#e0e0e0" stroke="#999999" points="339,-239 290,-239 290,-220 339,-220 339,-239"/>
<text text-anchor="middle" x="314.5" y="-227" font-family="Helvetica,sans-Serif" font-size="10.00">cassert</text>
</a>
</g>
</g>
<!-- Node1&#45;&gt;Node14 -->
<g id="edge16" class="edge">
<title>Node1&#45;&gt;Node14</title>
<path fill="none" stroke="#63b8ff" d="M294.17,-274.54C297.66,-267 301.96,-257.67 305.71,-249.55"/>
<polygon fill="#63b8ff" stroke="#63b8ff" points="308.85,-251.1 309.86,-240.55 302.49,-248.16 308.85,-251.1"/>
</g>
<!-- Node15 -->
<g id="node15" class="node">
<title>Node15</title>
<g id="a_node15"><a xlink:title=" ">
<polygon fill="#e0e0e0" stroke="#999999" points="419.5,-239 357.5,-239 357.5,-220 419.5,-220 419.5,-239"/>
<text text-anchor="middle" x="388.5" y="-227" font-family="Helvetica,sans-Serif" font-size="10.00">type_traits</text>
</a>
</g>
</g>
<!-- Node1&#45;&gt;Node15 -->
<g id="edge17" class="edge">
<title>Node1&#45;&gt;Node15</title>
<path fill="none" stroke="#63b8ff" d="M312.47,-274.54C327.94,-265.58 347.75,-254.1 363.27,-245.11"/>
<polygon fill="#63b8ff" stroke="#63b8ff" points="365.02,-248.15 371.92,-240.1 361.51,-242.09 365.02,-248.15"/>
</g>
<!-- Node3 -->
<g id="node3" class="node">
<title>Node3</title>
<g id="a_node3"><a xlink:href="Controller_8hpp.xhtml" target="_top" xlink:title=" ">
<polygon fill="white" stroke="#666666" points="203.5,-184 127.5,-184 127.5,-165 203.5,-165 203.5,-184"/>
<text text-anchor="middle" x="165.5" y="-172" font-family="Helvetica,sans-Serif" font-size="10.00">Controller.hpp</text>
</a>
</g>
</g>
<!-- Node2&#45;&gt;Node3 -->
<g id="edge2" class="edge">
<title>Node2&#45;&gt;Node3</title>
<path fill="none" stroke="#63b8ff" d="M165.5,-219.75C165.5,-213.27 165.5,-204.16 165.5,-195.9"/>
<polygon fill="#63b8ff" stroke="#63b8ff" points="169,-195.96 165.5,-185.96 162,-195.96 169,-195.96"/>
</g>
<!-- Node8 -->
<g id="node8" class="node">
<title>Node8</title>
<g id="a_node8"><a xlink:href="IPresenter_8hpp.xhtml" target="_top" xlink:title=" ">
<polygon fill="white" stroke="#666666" points="87.5,-184 7.5,-184 7.5,-165 87.5,-165 87.5,-184"/>
<text text-anchor="middle" x="47.5" y="-172" font-family="Helvetica,sans-Serif" font-size="10.00">IPresenter.hpp</text>
</a>
</g>
</g>
<!-- Node2&#45;&gt;Node8 -->
<g id="edge8" class="edge">
<title>Node2&#45;&gt;Node8</title>
<path fill="none" stroke="#63b8ff" d="M145.48,-219.51C126.89,-211.16 98.96,-198.61 77.67,-189.05"/>
<polygon fill="#63b8ff" stroke="#63b8ff" points="79.16,-185.88 68.6,-184.98 76.29,-192.27 79.16,-185.88"/>
</g>
<!-- Node4 -->
<g id="node4" class="node">
<title>Node4</title>
<g id="a_node4"><a xlink:href="IKeypad_8hpp.xhtml" target="_top" xlink:title=" ">
<polygon fill="white" stroke="#666666" points="137.5,-129 67.5,-129 67.5,-110 137.5,-110 137.5,-129"/>
<text text-anchor="middle" x="102.5" y="-117" font-family="Helvetica,sans-Serif" font-size="10.00">IKeypad.hpp</text>
</a>
</g>
</g>
<!-- Node3&#45;&gt;Node4 -->
<g id="edge3" class="edge">
<title>Node3&#45;&gt;Node4</title>
<path fill="none" stroke="#63b8ff" d="M154.81,-164.51C145.8,-156.93 132.67,-145.88 121.82,-136.75"/>
<polygon fill="#63b8ff" stroke="#63b8ff" points="124.09,-134.09 114.19,-130.33 119.59,-139.45 124.09,-134.09"/>
</g>
<!-- Node5 -->
<g id="node5" class="node">
<title>Node5</title>
<g id="a_node5"><a xlink:href="KeyIds_8hpp.xhtml" target="_top" xlink:title=" ">
<polygon fill="white" stroke="#666666" points="198,-74 133,-74 133,-55 198,-55 198,-74"/>
<text text-anchor="middle" x="165.5" y="-62" font-family="Helvetica,sans-Serif" font-size="10.00">KeyIds.hpp</text>
</a>
</g>
</g>
<!-- Node3&#45;&gt;Node5 -->
<g id="edge6" class="edge">
<title>Node3&#45;&gt;Node5</title>
<path fill="none" stroke="#63b8ff" d="M165.5,-164.66C165.5,-147.57 165.5,-109.61 165.5,-85.92"/>
<polygon fill="#63b8ff" stroke="#63b8ff" points="169,-85.97 165.5,-75.97 162,-85.97 169,-85.97"/>
</g>
<!-- Node7 -->
<g id="node7" class="node">
<title>Node7</title>
<g id="a_node7"><a xlink:title=" ">
<polygon fill="#e0e0e0" stroke="#999999" points="243.5,-129 193.5,-129 193.5,-110 243.5,-110 243.5,-129"/>
<text text-anchor="middle" x="218.5" y="-117" font-family="Helvetica,sans-Serif" font-size="10.00">optional</text>
</a>
</g>
</g>
<!-- Node3&#45;&gt;Node7 -->
<g id="edge7" class="edge">
<title>Node3&#45;&gt;Node7</title>
<path fill="none" stroke="#63b8ff" d="M174.25,-164.75C181.65,-157.35 192.46,-146.54 201.55,-137.45"/>
<polygon fill="#63b8ff" stroke="#63b8ff" points="203.89,-140.06 208.49,-130.51 198.94,-135.11 203.89,-140.06"/>
</g>
<!-- Node4&#45;&gt;Node5 -->
<g id="edge4" class="edge">
<title>Node4&#45;&gt;Node5</title>
<path fill="none" stroke="#63b8ff" d="M113.19,-109.51C122.2,-101.93 135.33,-90.88 146.18,-81.75"/>
<polygon fill="#63b8ff" stroke="#63b8ff" points="148.41,-84.45 153.81,-75.33 143.91,-79.09 148.41,-84.45"/>
</g>
<!-- Node6 -->
<g id="node6" class="node">
<title>Node6</title>
<g id="a_node6"><a xlink:title=" ">
<polygon fill="#e0e0e0" stroke="#999999" points="244.5,-19 192.5,-19 192.5,0 244.5,0 244.5,-19"/>
<text text-anchor="middle" x="218.5" y="-7" font-family="Helvetica,sans-Serif" font-size="10.00">ostream</text>
</a>
</g>
</g>
<!-- Node5&#45;&gt;Node6 -->
<g id="edge5" class="edge">
<title>Node5&#45;&gt;Node6</title>
<path fill="none" stroke="#63b8ff" d="M174.25,-54.75C181.65,-47.35 192.46,-36.54 201.55,-27.45"/>
<polygon fill="#63b8ff" stroke="#63b8ff" points="203.89,-30.06 208.49,-20.51 198.94,-25.11 203.89,-30.06"/>
</g>
<!-- Node9 -->
<g id="node9" class="node">
<title>Node9</title>
<g id="a_node9"><a xlink:title=" ">
<polygon fill="#e0e0e0" stroke="#999999" points="49,-129 0,-129 0,-110 49,-110 49,-129"/>
<text text-anchor="middle" x="24.5" y="-117" font-family="Helvetica,sans-Serif" font-size="10.00">cstddef</text>
</a>
</g>
</g>
<!-- Node8&#45;&gt;Node9 -->
<g id="edge9" class="edge">
<title>Node8&#45;&gt;Node9</title>
<path fill="none" stroke="#63b8ff" d="M43.7,-164.75C40.76,-157.96 36.56,-148.3 32.85,-139.73"/>
<polygon fill="#63b8ff" stroke="#63b8ff" points="36.17,-138.61 28.98,-130.83 29.75,-141.4 36.17,-138.61"/>
</g>
<!-- Node10&#45;&gt;Node6 -->
<g id="edge14" class="edge">
<title>Node10&#45;&gt;Node6</title>
<path fill="none" stroke="#63b8ff" d="M290.41,-164.74C278.56,-139.31 243.95,-65.08 227.45,-29.69"/>
<polygon fill="#63b8ff" stroke="#63b8ff" points="230.64,-28.26 223.25,-20.68 224.3,-31.22 230.64,-28.26"/>
</g>
<!-- Node10&#45;&gt;Node7 -->
<g id="edge13" class="edge">
<title>Node10&#45;&gt;Node7</title>
<path fill="none" stroke="#63b8ff" d="M281.61,-164.51C270.4,-156.7 253.93,-145.21 240.62,-135.93"/>
<polygon fill="#63b8ff" stroke="#63b8ff" points="242.65,-133.07 232.44,-130.22 238.64,-138.81 242.65,-133.07"/>
</g>
<!-- Node11 -->
<g id="node11" class="node">
<title>Node11</title>
<g id="a_node11"><a xlink:title=" ">
<polygon fill="#e0e0e0" stroke="#999999" points="337.5,-129 299.5,-129 299.5,-110 337.5,-110 337.5,-129"/>
<text text-anchor="middle" x="318.5" y="-117" font-family="Helvetica,sans-Serif" font-size="10.00">array</text>
</a>
</g>
</g>
<!-- Node10&#45;&gt;Node11 -->
<g id="edge11" class="edge">
<title>Node10&#45;&gt;Node11</title>
<path fill="none" stroke="#63b8ff" d="M298.46,-164.75C301.54,-157.96 305.91,-148.3 309.79,-139.73"/>
<polygon fill="#63b8ff" stroke="#63b8ff" points="312.89,-141.37 313.83,-130.82 306.51,-138.49 312.89,-141.37"/>
</g>
<!-- Node12 -->
<g id="node12" class="node">
<title>Node12</title>
<g id="a_node12"><a xlink:title=" ">
<polygon fill="#e0e0e0" stroke="#999999" points="415,-129 356,-129 356,-110 415,-110 415,-129"/>
<text text-anchor="middle" x="385.5" y="-117" font-family="Helvetica,sans-Serif" font-size="10.00">functional</text>
</a>
</g>
</g>
<!-- Node10&#45;&gt;Node12 -->
<g id="edge12" class="edge">
<title>Node10&#45;&gt;Node12</title>
<path fill="none" stroke="#63b8ff" d="M309.94,-164.51C323.75,-156.47 344.25,-144.53 360.41,-135.11"/>
<polygon fill="#63b8ff" stroke="#63b8ff" points="362.1,-138.18 368.98,-130.12 358.58,-132.13 362.1,-138.18"/>
</g>
<!-- Node13 -->
<g id="node13" class="node">
<title>Node13</title>
<g id="a_node13"><a xlink:title=" ">
<polygon fill="#e0e0e0" stroke="#999999" points="474,-129 433,-129 433,-110 474,-110 474,-129"/>
<text text-anchor="middle" x="453.5" y="-117" font-family="Helvetica,sans-Serif" font-size="10.00">string</text>
</a>
</g>
</g>
<!-- Node10&#45;&gt;Node13 -->
<g id="edge15" class="edge">
<title>Node10&#45;&gt;Node13</title>
<path fill="none" stroke="#63b8ff" d="M321.47,-164.51C349.16,-155.28 392.24,-140.92 421.6,-131.13"/>
<polygon fill="#63b8ff" stroke="#63b8ff" points="422.69,-134.46 431.07,-127.98 420.47,-127.82 422.69,-134.46"/>
</g>
</g>
</svg>
