<?xml version="1.0" encoding="UTF-8" standalone="no"?>
<!DOCTYPE svg PUBLIC "-//W3C//DTD SVG 1.1//EN"
 "http://www.w3.org/Graphics/SVG/1.1/DTD/svg11.dtd">
<!-- Generated by graphviz version 7.0.5 (20221223.1930)
 -->
<!-- Title: lib/application_business_rules/include/ProcessHmiInputs.hpp Pages: 1 -->
<svg width="526pt" height="258pt"
 viewBox="0.00 0.00 525.96 258.00" xmlns="http://www.w3.org/2000/svg" xmlns:xlink="http://www.w3.org/1999/xlink">
<g id="graph0" class="graph" transform="scale(1 1) rotate(0) translate(4 254)">
<title>lib/application_business_rules/include/ProcessHmiInputs.hpp</title>
<!-- Node1 -->
<g id="node1" class="node">
<title>Node1</title>
<g id="a_node1"><a xlink:title=" ">
<polygon fill="#999999" stroke="#666666" points="311.5,-250 132.5,-250 132.5,-220 311.5,-220 311.5,-250"/>
<text text-anchor="start" x="140.5" y="-238" font-family="Helvetica,sans-Serif" font-size="10.00">lib/application_business</text>
<text text-anchor="middle" x="222" y="-227" font-family="Helvetica,sans-Serif" font-size="10.00">_rules/include/ProcessHmiInputs.hpp</text>
</a>
</g>
</g>
<!-- Node2 -->
<g id="node2" class="node">
<title>Node2</title>
<g id="a_node2"><a xlink:href="Controller_8hpp.xhtml" target="_top" xlink:title=" ">
<polygon fill="white" stroke="#666666" points="163,-184 87,-184 87,-165 163,-165 163,-184"/>
<text text-anchor="middle" x="125" y="-172" font-family="Helvetica,sans-Serif" font-size="10.00">Controller.hpp</text>
</a>
</g>
</g>
<!-- Node1&#45;&gt;Node2 -->
<g id="edge1" class="edge">
<title>Node1&#45;&gt;Node2</title>
<path fill="none" stroke="#63b8ff" d="M198.02,-219.54C183.16,-210.58 164.13,-199.1 149.23,-190.11"/>
<polygon fill="#63b8ff" stroke="#63b8ff" points="151.33,-187.3 140.96,-185.13 147.72,-193.29 151.33,-187.3"/>
</g>
<!-- Node7 -->
<g id="node7" class="node">
<title>Node7</title>
<g id="a_node7"><a xlink:href="Presenter_8hpp.xhtml" target="_top" xlink:title=" ">
<polygon fill="white" stroke="#666666" points="384.5,-184 307.5,-184 307.5,-165 384.5,-165 384.5,-184"/>
<text text-anchor="middle" x="346" y="-172" font-family="Helvetica,sans-Serif" font-size="10.00">Presenter.hpp</text>
</a>
</g>
</g>
<!-- Node1&#45;&gt;Node7 -->
<g id="edge7" class="edge">
<title>Node1&#45;&gt;Node7</title>
<path fill="none" stroke="#63b8ff" d="M252.65,-219.54C272.29,-210.28 297.62,-198.33 316.93,-189.21"/>
<polygon fill="#63b8ff" stroke="#63b8ff" points="318.33,-192.42 325.88,-184.99 315.34,-186.09 318.33,-192.42"/>
</g>
<!-- Node3 -->
<g id="node3" class="node">
<title>Node3</title>
<g id="a_node3"><a xlink:href="IKeypad_8hpp.xhtml" target="_top" xlink:title=" ">
<polygon fill="white" stroke="#666666" points="70,-129 0,-129 0,-110 70,-110 70,-129"/>
<text text-anchor="middle" x="35" y="-117" font-family="Helvetica,sans-Serif" font-size="10.00">IKeypad.hpp</text>
</a>
</g>
</g>
<!-- Node2&#45;&gt;Node3 -->
<g id="edge2" class="edge">
<title>Node2&#45;&gt;Node3</title>
<path fill="none" stroke="#63b8ff" d="M109.73,-164.51C96.07,-156.47 75.8,-144.53 59.82,-135.11"/>
<polygon fill="#63b8ff" stroke="#63b8ff" points="61.74,-132.18 51.35,-130.13 58.19,-138.22 61.74,-132.18"/>
</g>
<!-- Node4 -->
<g id="node4" class="node">
<title>Node4</title>
<g id="a_node4"><a xlink:href="KeyIds_8hpp.xhtml" target="_top" xlink:title=" ">
<polygon fill="white" stroke="#666666" points="99.5,-74 34.5,-74 34.5,-55 99.5,-55 99.5,-74"/>
<text text-anchor="middle" x="67" y="-62" font-family="Helvetica,sans-Serif" font-size="10.00">KeyIds.hpp</text>
</a>
</g>
</g>
<!-- Node2&#45;&gt;Node4 -->
<g id="edge5" class="edge">
<title>Node2&#45;&gt;Node4</title>
<path fill="none" stroke="#63b8ff" d="M120.25,-164.66C110.86,-147.18 89.74,-107.84 77.1,-84.3"/>
<polygon fill="#63b8ff" stroke="#63b8ff" points="80.34,-82.95 72.53,-75.79 74.18,-86.26 80.34,-82.95"/>
</g>
<!-- Node6 -->
<g id="node6" class="node">
<title>Node6</title>
<g id="a_node6"><a xlink:title=" ">
<polygon fill="#e0e0e0" stroke="#999999" points="176,-129 126,-129 126,-110 176,-110 176,-129"/>
<text text-anchor="middle" x="151" y="-117" font-family="Helvetica,sans-Serif" font-size="10.00">optional</text>
</a>
</g>
</g>
<!-- Node2&#45;&gt;Node6 -->
<g id="edge6" class="edge">
<title>Node2&#45;&gt;Node6</title>
<path fill="none" stroke="#63b8ff" d="M129.29,-164.75C132.62,-157.96 137.36,-148.3 141.56,-139.73"/>
<polygon fill="#63b8ff" stroke="#63b8ff" points="144.68,-141.32 145.95,-130.8 138.4,-138.24 144.68,-141.32"/>
</g>
<!-- Node3&#45;&gt;Node4 -->
<g id="edge3" class="edge">
<title>Node3&#45;&gt;Node4</title>
<path fill="none" stroke="#63b8ff" d="M40.28,-109.75C44.47,-102.81 50.48,-92.86 55.73,-84.16"/>
<polygon fill="#63b8ff" stroke="#63b8ff" points="58.65,-86.11 60.82,-75.74 52.65,-82.49 58.65,-86.11"/>
</g>
<!-- Node5 -->
<g id="node5" class="node">
<title>Node5</title>
<g id="a_node5"><a xlink:title=" ">
<polygon fill="#e0e0e0" stroke="#999999" points="93,-19 41,-19 41,0 93,0 93,-19"/>
<text text-anchor="middle" x="67" y="-7" font-family="Helvetica,sans-Serif" font-size="10.00">ostream</text>
</a>
</g>
</g>
<!-- Node4&#45;&gt;Node5 -->
<g id="edge4" class="edge">
<title>Node4&#45;&gt;Node5</title>
<path fill="none" stroke="#63b8ff" d="M67,-54.75C67,-48.27 67,-39.16 67,-30.9"/>
<polygon fill="#63b8ff" stroke="#63b8ff" points="70.5,-30.96 67,-20.96 63.5,-30.96 70.5,-30.96"/>
</g>
<!-- Node8 -->
<g id="node8" class="node">
<title>Node8</title>
<g id="a_node8"><a xlink:href="IStatusIndicator_8hpp.xhtml" target="_top" xlink:title=" ">
<polygon fill="white" stroke="#666666" points="298,-129 194,-129 194,-110 298,-110 298,-129"/>
<text text-anchor="middle" x="246" y="-117" font-family="Helvetica,sans-Serif" font-size="10.00">IStatusIndicator.hpp</text>
</a>
</g>
</g>
<!-- Node7&#45;&gt;Node8 -->
<g id="edge8" class="edge">
<title>Node7&#45;&gt;Node8</title>
<path fill="none" stroke="#63b8ff" d="M329.04,-164.51C313.64,-156.35 290.69,-144.19 272.81,-134.71"/>
<polygon fill="#63b8ff" stroke="#63b8ff" points="274.53,-131.66 264.05,-130.07 271.25,-137.84 274.53,-131.66"/>
</g>
<!-- Node9 -->
<g id="node9" class="node">
<title>Node9</title>
<g id="a_node9"><a xlink:href="Menu_8hpp.xhtml" target="_top" xlink:title=" ">
<polygon fill="white" stroke="#666666" points="375.5,-129 316.5,-129 316.5,-110 375.5,-110 375.5,-129"/>
<text text-anchor="middle" x="346" y="-117" font-family="Helvetica,sans-Serif" font-size="10.00">Menu.hpp</text>
</a>
</g>
</g>
<!-- Node7&#45;&gt;Node9 -->
<g id="edge9" class="edge">
<title>Node7&#45;&gt;Node9</title>
<path fill="none" stroke="#63b8ff" d="M346,-164.75C346,-158.27 346,-149.16 346,-140.9"/>
<polygon fill="#63b8ff" stroke="#63b8ff" points="349.5,-140.96 346,-130.96 342.5,-140.96 349.5,-140.96"/>
</g>
<!-- Node11 -->
<g id="node11" class="node">
<title>Node11</title>
<g id="a_node11"><a xlink:href="hmi__configuration_8hpp.xhtml" target="_top" xlink:title=" ">
<polygon fill="white" stroke="#666666" points="504,-129 394,-129 394,-110 504,-110 504,-129"/>
<text text-anchor="middle" x="449" y="-117" font-family="Helvetica,sans-Serif" font-size="10.00">hmi_configuration.hpp</text>
</a>
</g>
</g>
<!-- Node7&#45;&gt;Node11 -->
<g id="edge11" class="edge">
<title>Node7&#45;&gt;Node11</title>
<path fill="none" stroke="#63b8ff" d="M363.47,-164.51C379.4,-156.31 403.19,-144.07 421.64,-134.58"/>
<polygon fill="#63b8ff" stroke="#63b8ff" points="423.15,-137.74 430.44,-130.05 419.95,-131.51 423.15,-137.74"/>
</g>
<!-- Node12 -->
<g id="node12" class="node">
<title>Node12</title>
<g id="a_node12"><a xlink:title=" ">
<polygon fill="#e0e0e0" stroke="#999999" points="514.5,-74 465.5,-74 465.5,-55 514.5,-55 514.5,-74"/>
<text text-anchor="middle" x="490" y="-62" font-family="Helvetica,sans-Serif" font-size="10.00">cstddef</text>
</a>
</g>
</g>
<!-- Node7&#45;&gt;Node12 -->
<g id="edge13" class="edge">
<title>Node7&#45;&gt;Node12</title>
<path fill="none" stroke="#63b8ff" d="M384.62,-168.65C428.92,-162.21 497.46,-149.22 513,-129 523.46,-115.38 514.43,-96.56 504.78,-82.95"/>
<polygon fill="#63b8ff" stroke="#63b8ff" points="507.74,-81.06 498.84,-75.3 502.21,-85.35 507.74,-81.06"/>
</g>
<!-- Node10 -->
<g id="node10" class="node">
<title>Node10</title>
<g id="a_node10"><a xlink:href="IDisplay_8hpp.xhtml" target="_top" xlink:title=" ">
<polygon fill="white" stroke="#666666" points="380.5,-74 311.5,-74 311.5,-55 380.5,-55 380.5,-74"/>
<text text-anchor="middle" x="346" y="-62" font-family="Helvetica,sans-Serif" font-size="10.00">IDisplay.hpp</text>
</a>
</g>
</g>
<!-- Node9&#45;&gt;Node10 -->
<g id="edge10" class="edge">
<title>Node9&#45;&gt;Node10</title>
<path fill="none" stroke="#63b8ff" d="M346,-109.75C346,-103.27 346,-94.16 346,-85.9"/>
<polygon fill="#63b8ff" stroke="#63b8ff" points="349.5,-85.96 346,-75.96 342.5,-85.96 349.5,-85.96"/>
</g>
<!-- Node11&#45;&gt;Node12 -->
<g id="edge12" class="edge">
<title>Node11&#45;&gt;Node12</title>
<path fill="none" stroke="#63b8ff" d="M455.77,-109.75C461.32,-102.58 469.34,-92.2 476.23,-83.3"/>
<polygon fill="#63b8ff" stroke="#63b8ff" points="478.81,-85.69 482.16,-75.64 473.27,-81.41 478.81,-85.69"/>
</g>
</g>
</svg>
