<?xml version="1.0" encoding="UTF-8" standalone="no"?>
<!DOCTYPE svg PUBLIC "-//W3C//DTD SVG 1.1//EN"
 "http://www.w3.org/Graphics/SVG/1.1/DTD/svg11.dtd">
<!-- Generated by graphviz version 9.0.0 (20230911.1827)
 -->
<!-- Title: lib/layer1_use_cases/src/ProcessHmiInputs.cpp Pages: 1 -->
<svg width="441pt" height="260pt"
 viewBox="0.00 0.00 440.50 259.50" xmlns="http://www.w3.org/2000/svg" xmlns:xlink="http://www.w3.org/1999/xlink">
<g id="graph0" class="graph" transform="scale(1 1) rotate(0) translate(4 255.5)">
<title>lib/layer1_use_cases/src/ProcessHmiInputs.cpp</title>
<!-- Node1 -->
<g id="Node000001" class="node">
<title>Node1</title>
<g id="a_Node000001"><a xlink:title=" ">
<polygon fill="#999999" stroke="#666666" points="358.25,-251.5 223.75,-251.5 223.75,-221 358.25,-221 358.25,-251.5"/>
<text text-anchor="start" x="231.75" y="-238" font-family="Helvetica,sans-Serif" font-size="10.00">lib/layer1_use_cases</text>
<text text-anchor="middle" x="291" y="-226.75" font-family="Helvetica,sans-Serif" font-size="10.00">/src/ProcessHmiInputs.cpp</text>
</a>
</g>
</g>
<!-- Node2 -->
<g id="Node000002" class="node">
<title>Node2</title>
<g id="a_Node000002"><a xlink:href="ProcessHmiInputs_8hpp.xhtml" target="_top" xlink:title=" ">
<polygon fill="white" stroke="#666666" points="203.5,-185 88.5,-185 88.5,-165.75 203.5,-165.75 203.5,-185"/>
<text text-anchor="middle" x="146" y="-171.5" font-family="Helvetica,sans-Serif" font-size="10.00">ProcessHmiInputs.hpp</text>
</a>
</g>
</g>
<!-- Node1&#45;&gt;Node2 -->
<g id="edge1_Node000001_Node000002" class="edge">
<title>Node1&#45;&gt;Node2</title>
<g id="a_edge1_Node000001_Node000002"><a xlink:title=" ">
<path fill="none" stroke="#63b8ff" d="M254.78,-220.55C231.43,-211.06 201.3,-198.83 178.68,-189.64"/>
<polygon fill="#63b8ff" stroke="#63b8ff" points="180.22,-186.49 169.64,-185.97 177.59,-192.98 180.22,-186.49"/>
</a>
</g>
</g>
<!-- Node9 -->
<g id="Node000009" class="node">
<title>Node9</title>
<g id="a_Node000009"><a xlink:href="logging_8hpp.xhtml" target="_top" xlink:title=" ">
<polygon fill="white" stroke="#666666" points="286.38,-185 221.62,-185 221.62,-165.75 286.38,-165.75 286.38,-185"/>
<text text-anchor="middle" x="254" y="-171.5" font-family="Helvetica,sans-Serif" font-size="10.00">logging.hpp</text>
</a>
</g>
</g>
<!-- Node1&#45;&gt;Node9 -->
<g id="edge8_Node000001_Node000009" class="edge">
<title>Node1&#45;&gt;Node9</title>
<g id="a_edge8_Node000001_Node000009"><a xlink:title=" ">
<path fill="none" stroke="#63b8ff" d="M281.85,-220.7C276.98,-212.94 270.93,-203.31 265.71,-195.01"/>
<polygon fill="#63b8ff" stroke="#63b8ff" points="268.79,-193.34 260.51,-186.73 262.87,-197.06 268.79,-193.34"/>
</a>
</g>
</g>
<!-- Node11 -->
<g id="Node000011" class="node">
<title>Node11</title>
<g id="a_Node000011"><a xlink:title=" ">
<polygon fill="#e0e0e0" stroke="#999999" points="353.12,-185 304.88,-185 304.88,-165.75 353.12,-165.75 353.12,-185"/>
<text text-anchor="middle" x="329" y="-171.5" font-family="Helvetica,sans-Serif" font-size="10.00">cassert</text>
</a>
</g>
</g>
<!-- Node1&#45;&gt;Node11 -->
<g id="edge11_Node000001_Node000011" class="edge">
<title>Node1&#45;&gt;Node11</title>
<g id="a_edge11_Node000001_Node000011"><a xlink:title=" ">
<path fill="none" stroke="#63b8ff" d="M300.39,-220.7C305.4,-212.94 311.61,-203.31 316.97,-195.01"/>
<polygon fill="#63b8ff" stroke="#63b8ff" points="319.84,-197.02 322.32,-186.72 313.96,-193.23 319.84,-197.02"/>
</a>
</g>
</g>
<!-- Node12 -->
<g id="Node000012" class="node">
<title>Node12</title>
<g id="a_Node000012"><a xlink:title=" ">
<polygon fill="#e0e0e0" stroke="#999999" points="432.5,-185 371.5,-185 371.5,-165.75 432.5,-165.75 432.5,-185"/>
<text text-anchor="middle" x="402" y="-171.5" font-family="Helvetica,sans-Serif" font-size="10.00">type_traits</text>
</a>
</g>
</g>
<!-- Node1&#45;&gt;Node12 -->
<g id="edge12_Node000001_Node000012" class="edge">
<title>Node1&#45;&gt;Node12</title>
<g id="a_edge12_Node000001_Node000012"><a xlink:title=" ">
<path fill="none" stroke="#63b8ff" d="M318.72,-220.55C335.95,-211.41 357.99,-199.72 375.07,-190.66"/>
<polygon fill="#63b8ff" stroke="#63b8ff" points="376.45,-193.89 383.64,-186.11 373.17,-187.71 376.45,-193.89"/>
</a>
</g>
</g>
<!-- Node3 -->
<g id="Node000003" class="node">
<title>Node3</title>
<g id="a_Node000003"><a xlink:href="IController_8hpp.xhtml" target="_top" xlink:title=" ">
<polygon fill="white" stroke="#666666" points="108.12,-129.75 29.88,-129.75 29.88,-110.5 108.12,-110.5 108.12,-129.75"/>
<text text-anchor="middle" x="69" y="-116.25" font-family="Helvetica,sans-Serif" font-size="10.00">IController.hpp</text>
</a>
</g>
</g>
<!-- Node2&#45;&gt;Node3 -->
<g id="edge2_Node000002_Node000003" class="edge">
<title>Node2&#45;&gt;Node3</title>
<g id="a_edge2_Node000002_Node000003"><a xlink:title=" ">
<path fill="none" stroke="#63b8ff" d="M132.94,-165.34C121.54,-157.46 104.77,-145.86 91.26,-136.52"/>
<polygon fill="#63b8ff" stroke="#63b8ff" points="93.59,-133.87 83.37,-131.06 89.6,-139.63 93.59,-133.87"/>
</a>
</g>
</g>
<!-- Node7 -->
<g id="Node000007" class="node">
<title>Node7</title>
<g id="a_Node000007"><a xlink:href="IPresenter_8hpp.xhtml" target="_top" xlink:title=" ">
<polygon fill="white" stroke="#666666" points="205.5,-129.75 126.5,-129.75 126.5,-110.5 205.5,-110.5 205.5,-129.75"/>
<text text-anchor="middle" x="166" y="-116.25" font-family="Helvetica,sans-Serif" font-size="10.00">IPresenter.hpp</text>
</a>
</g>
</g>
<!-- Node2&#45;&gt;Node7 -->
<g id="edge6_Node000002_Node000007" class="edge">
<title>Node2&#45;&gt;Node7</title>
<g id="a_edge6_Node000002_Node000007"><a xlink:title=" ">
<path fill="none" stroke="#63b8ff" d="M149.3,-165.58C151.83,-158.84 155.43,-149.27 158.63,-140.74"/>
<polygon fill="#63b8ff" stroke="#63b8ff" points="161.85,-142.12 162.09,-131.53 155.3,-139.66 161.85,-142.12"/>
</a>
</g>
</g>
<!-- Node4 -->
<g id="Node000004" class="node">
<title>Node4</title>
<g id="a_Node000004"><a xlink:href="KeyIds_8hpp.xhtml" target="_top" xlink:title=" ">
<polygon fill="white" stroke="#666666" points="64,-74.5 0,-74.5 0,-55.25 64,-55.25 64,-74.5"/>
<text text-anchor="middle" x="32" y="-61" font-family="Helvetica,sans-Serif" font-size="10.00">KeyIds.hpp</text>
</a>
</g>
</g>
<!-- Node3&#45;&gt;Node4 -->
<g id="edge3_Node000003_Node000004" class="edge">
<title>Node3&#45;&gt;Node4</title>
<g id="a_edge3_Node000003_Node000004"><a xlink:title=" ">
<path fill="none" stroke="#63b8ff" d="M62.89,-110.33C57.94,-103.21 50.8,-92.93 44.63,-84.05"/>
<polygon fill="#63b8ff" stroke="#63b8ff" points="47.69,-82.32 39.11,-76.1 41.94,-86.31 47.69,-82.32"/>
</a>
</g>
</g>
<!-- Node6 -->
<g id="Node000006" class="node">
<title>Node6</title>
<g id="a_Node000006"><a xlink:title=" ">
<polygon fill="#e0e0e0" stroke="#999999" points="131.88,-74.5 82.12,-74.5 82.12,-55.25 131.88,-55.25 131.88,-74.5"/>
<text text-anchor="middle" x="107" y="-61" font-family="Helvetica,sans-Serif" font-size="10.00">optional</text>
</a>
</g>
</g>
<!-- Node3&#45;&gt;Node6 -->
<g id="edge5_Node000003_Node000006" class="edge">
<title>Node3&#45;&gt;Node6</title>
<g id="a_edge5_Node000003_Node000006"><a xlink:title=" ">
<path fill="none" stroke="#63b8ff" d="M75.27,-110.33C80.36,-103.21 87.7,-92.93 94.03,-84.05"/>
<polygon fill="#63b8ff" stroke="#63b8ff" points="96.75,-86.26 99.71,-76.09 91.05,-82.2 96.75,-86.26"/>
</a>
</g>
</g>
<!-- Node5 -->
<g id="Node000005" class="node">
<title>Node5</title>
<g id="a_Node000005"><a xlink:title=" ">
<polygon fill="#e0e0e0" stroke="#999999" points="154.62,-19.25 103.38,-19.25 103.38,0 154.62,0 154.62,-19.25"/>
<text text-anchor="middle" x="129" y="-5.75" font-family="Helvetica,sans-Serif" font-size="10.00">ostream</text>
</a>
</g>
</g>
<!-- Node4&#45;&gt;Node5 -->
<g id="edge4_Node000004_Node000005" class="edge">
<title>Node4&#45;&gt;Node5</title>
<g id="a_edge4_Node000004_Node000005"><a xlink:title=" ">
<path fill="none" stroke="#63b8ff" d="M48.45,-54.84C63.23,-46.73 85.18,-34.68 102.43,-25.21"/>
<polygon fill="#63b8ff" stroke="#63b8ff" points="104.06,-28.31 111.14,-20.43 100.69,-22.18 104.06,-28.31"/>
</a>
</g>
</g>
<!-- Node8 -->
<g id="Node000008" class="node">
<title>Node8</title>
<g id="a_Node000008"><a xlink:title=" ">
<polygon fill="#e0e0e0" stroke="#999999" points="198.12,-74.5 149.88,-74.5 149.88,-55.25 198.12,-55.25 198.12,-74.5"/>
<text text-anchor="middle" x="174" y="-61" font-family="Helvetica,sans-Serif" font-size="10.00">cstddef</text>
</a>
</g>
</g>
<!-- Node7&#45;&gt;Node8 -->
<g id="edge7_Node000007_Node000008" class="edge">
<title>Node7&#45;&gt;Node8</title>
<g id="a_edge7_Node000007_Node000008"><a xlink:title=" ">
<path fill="none" stroke="#63b8ff" d="M167.32,-110.33C168.31,-103.74 169.71,-94.46 170.97,-86.07"/>
<polygon fill="#63b8ff" stroke="#63b8ff" points="174.4,-86.76 172.43,-76.36 167.48,-85.72 174.4,-86.76"/>
</a>
</g>
</g>
<!-- Node9&#45;&gt;Node5 -->
<g id="edge10_Node000009_Node000005" class="edge">
<title>Node9&#45;&gt;Node5</title>
<g id="a_edge10_Node000009_Node000005"><a xlink:title=" ">
<path fill="none" stroke="#63b8ff" d="M252.59,-165.56C248.78,-144.29 236.54,-89.37 207,-55.25 195.5,-41.96 179.01,-31.73 164.16,-24.43"/>
<polygon fill="#63b8ff" stroke="#63b8ff" points="165.65,-21.26 155.1,-20.27 162.73,-27.62 165.65,-21.26"/>
</a>
</g>
</g>
<!-- Node10 -->
<g id="Node000010" class="node">
<title>Node10</title>
<g id="a_Node000010"><a xlink:title=" ">
<polygon fill="#e0e0e0" stroke="#999999" points="299.5,-129.75 262.5,-129.75 262.5,-110.5 299.5,-110.5 299.5,-129.75"/>
<text text-anchor="middle" x="281" y="-116.25" font-family="Helvetica,sans-Serif" font-size="10.00">array</text>
</a>
</g>
</g>
<!-- Node9&#45;&gt;Node10 -->
<g id="edge9_Node000009_Node000010" class="edge">
<title>Node9&#45;&gt;Node10</title>
<g id="a_edge9_Node000009_Node000010"><a xlink:title=" ">
<path fill="none" stroke="#63b8ff" d="M258.46,-165.58C261.95,-158.69 266.95,-148.84 271.35,-140.16"/>
<polygon fill="#63b8ff" stroke="#63b8ff" points="274.36,-141.96 275.76,-131.46 268.12,-138.8 274.36,-141.96"/>
</a>
</g>
</g>
</g>
</svg>
