<?xml version="1.0" encoding="UTF-8" standalone="no"?>
<!DOCTYPE svg PUBLIC "-//W3C//DTD SVG 1.1//EN"
 "http://www.w3.org/Graphics/SVG/1.1/DTD/svg11.dtd">
<!-- Generated by graphviz version 7.0.5 (20221223.1930)
 -->
<!-- Title: lib/application_business_rules/include/ProcessHmiInputs.hpp Pages: 1 -->
<svg width="260pt" height="258pt"
 viewBox="0.00 0.00 260.00 258.00" xmlns="http://www.w3.org/2000/svg" xmlns:xlink="http://www.w3.org/1999/xlink">
<g id="graph0" class="graph" transform="scale(1 1) rotate(0) translate(4 254)">
<title>lib/application_business_rules/include/ProcessHmiInputs.hpp</title>
<!-- Node1 -->
<g id="node1" class="node">
<title>Node1</title>
<g id="a_node1"><a xlink:title=" ">
<polygon fill="#999999" stroke="#666666" points="247.5,-250 68.5,-250 68.5,-220 247.5,-220 247.5,-250"/>
<text text-anchor="start" x="76.5" y="-238" font-family="Helvetica,sans-Serif" font-size="10.00">lib/application_business</text>
<text text-anchor="middle" x="158" y="-227" font-family="Helvetica,sans-Serif" font-size="10.00">_rules/include/ProcessHmiInputs.hpp</text>
</a>
</g>
</g>
<!-- Node2 -->
<g id="node2" class="node">
<title>Node2</title>
<g id="a_node2"><a xlink:href="Controller_8hpp.xhtml" target="_top" xlink:title=" ">
<polygon fill="white" stroke="#666666" points="148,-184 72,-184 72,-165 148,-165 148,-184"/>
<text text-anchor="middle" x="110" y="-172" font-family="Helvetica,sans-Serif" font-size="10.00">Controller.hpp</text>
</a>
</g>
</g>
<!-- Node1&#45;&gt;Node2 -->
<g id="edge1" class="edge">
<title>Node1&#45;&gt;Node2</title>
<path fill="none" stroke="#63b8ff" d="M146.13,-219.54C139.52,-211.48 131.23,-201.38 124.27,-192.89"/>
<polygon fill="#63b8ff" stroke="#63b8ff" points="127.13,-190.86 118.08,-185.35 121.72,-195.3 127.13,-190.86"/>
</g>
<!-- Node7 -->
<g id="node7" class="node">
<title>Node7</title>
<g id="a_node7"><a xlink:href="IPresenter_8hpp.xhtml" target="_top" xlink:title=" ">
<polygon fill="white" stroke="#666666" points="252,-184 172,-184 172,-165 252,-165 252,-184"/>
<text text-anchor="middle" x="212" y="-172" font-family="Helvetica,sans-Serif" font-size="10.00">IPresenter.hpp</text>
</a>
</g>
</g>
<!-- Node1&#45;&gt;Node7 -->
<g id="edge7" class="edge">
<title>Node1&#45;&gt;Node7</title>
<path fill="none" stroke="#63b8ff" d="M171.35,-219.54C178.87,-211.39 188.31,-201.16 196.2,-192.61"/>
<polygon fill="#63b8ff" stroke="#63b8ff" points="198.75,-195.01 202.97,-185.29 193.61,-190.26 198.75,-195.01"/>
</g>
<!-- Node3 -->
<g id="node3" class="node">
<title>Node3</title>
<g id="a_node3"><a xlink:href="IKeypad_8hpp.xhtml" target="_top" xlink:title=" ">
<polygon fill="white" stroke="#666666" points="70,-129 0,-129 0,-110 70,-110 70,-129"/>
<text text-anchor="middle" x="35" y="-117" font-family="Helvetica,sans-Serif" font-size="10.00">IKeypad.hpp</text>
</a>
</g>
</g>
<!-- Node2&#45;&gt;Node3 -->
<g id="edge2" class="edge">
<title>Node2&#45;&gt;Node3</title>
<path fill="none" stroke="#63b8ff" d="M97.28,-164.51C86.22,-156.7 69.96,-145.21 56.83,-135.93"/>
<polygon fill="#63b8ff" stroke="#63b8ff" points="58.96,-133.14 48.77,-130.23 54.92,-138.86 58.96,-133.14"/>
</g>
<!-- Node4 -->
<g id="node4" class="node">
<title>Node4</title>
<g id="a_node4"><a xlink:href="KeyIds_8hpp.xhtml" target="_top" xlink:title=" ">
<polygon fill="white" stroke="#666666" points="98.5,-74 33.5,-74 33.5,-55 98.5,-55 98.5,-74"/>
<text text-anchor="middle" x="66" y="-62" font-family="Helvetica,sans-Serif" font-size="10.00">KeyIds.hpp</text>
</a>
</g>
</g>
<!-- Node2&#45;&gt;Node4 -->
<g id="edge5" class="edge">
<title>Node2&#45;&gt;Node4</title>
<path fill="none" stroke="#63b8ff" d="M106.4,-164.66C99.34,-147.34 83.54,-108.55 73.92,-84.95"/>
<polygon fill="#63b8ff" stroke="#63b8ff" points="77.24,-83.8 70.22,-75.86 70.75,-86.44 77.24,-83.8"/>
</g>
<!-- Node6 -->
<g id="node6" class="node">
<title>Node6</title>
<g id="a_node6"><a xlink:title=" ">
<polygon fill="#e0e0e0" stroke="#999999" points="176,-129 126,-129 126,-110 176,-110 176,-129"/>
<text text-anchor="middle" x="151" y="-117" font-family="Helvetica,sans-Serif" font-size="10.00">optional</text>
</a>
</g>
</g>
<!-- Node2&#45;&gt;Node6 -->
<g id="edge6" class="edge">
<title>Node2&#45;&gt;Node6</title>
<path fill="none" stroke="#63b8ff" d="M116.77,-164.75C122.32,-157.58 130.34,-147.2 137.23,-138.3"/>
<polygon fill="#63b8ff" stroke="#63b8ff" points="139.81,-140.69 143.16,-130.64 134.27,-136.41 139.81,-140.69"/>
</g>
<!-- Node3&#45;&gt;Node4 -->
<g id="edge3" class="edge">
<title>Node3&#45;&gt;Node4</title>
<path fill="none" stroke="#63b8ff" d="M40.12,-109.75C44.18,-102.81 49.99,-92.86 55.09,-84.16"/>
<polygon fill="#63b8ff" stroke="#63b8ff" points="57.98,-86.15 60.01,-75.75 51.94,-82.61 57.98,-86.15"/>
</g>
<!-- Node5 -->
<g id="node5" class="node">
<title>Node5</title>
<g id="a_node5"><a xlink:title=" ">
<polygon fill="#e0e0e0" stroke="#999999" points="92,-19 40,-19 40,0 92,0 92,-19"/>
<text text-anchor="middle" x="66" y="-7" font-family="Helvetica,sans-Serif" font-size="10.00">ostream</text>
</a>
</g>
</g>
<!-- Node4&#45;&gt;Node5 -->
<g id="edge4" class="edge">
<title>Node4&#45;&gt;Node5</title>
<path fill="none" stroke="#63b8ff" d="M66,-54.75C66,-48.27 66,-39.16 66,-30.9"/>
<polygon fill="#63b8ff" stroke="#63b8ff" points="69.5,-30.96 66,-20.96 62.5,-30.96 69.5,-30.96"/>
</g>
<!-- Node8 -->
<g id="node8" class="node">
<title>Node8</title>
<g id="a_node8"><a xlink:title=" ">
<polygon fill="#e0e0e0" stroke="#999999" points="243.5,-129 194.5,-129 194.5,-110 243.5,-110 243.5,-129"/>
<text text-anchor="middle" x="219" y="-117" font-family="Helvetica,sans-Serif" font-size="10.00">cstddef</text>
</a>
</g>
</g>
<!-- Node7&#45;&gt;Node8 -->
<g id="edge8" class="edge">
<title>Node7&#45;&gt;Node8</title>
<path fill="none" stroke="#63b8ff" d="M213.16,-164.75C214.02,-158.19 215.24,-148.95 216.34,-140.6"/>
<polygon fill="#63b8ff" stroke="#63b8ff" points="219.78,-141.31 217.62,-130.94 212.84,-140.4 219.78,-141.31"/>
</g>
</g>
</svg>
