<?xml version="1.0" encoding="UTF-8" standalone="no"?>
<!DOCTYPE svg PUBLIC "-//W3C//DTD SVG 1.1//EN"
 "http://www.w3.org/Graphics/SVG/1.1/DTD/svg11.dtd">
<!-- Generated by graphviz version 7.0.5 (20221223.1930)
 -->
<!-- Title: lib/application_business_rules/src/ProcessHmiInputs.cpp Pages: 1 -->
<svg width="440pt" height="258pt"
 viewBox="0.00 0.00 440.00 258.00" xmlns="http://www.w3.org/2000/svg" xmlns:xlink="http://www.w3.org/1999/xlink">
<g id="graph0" class="graph" transform="scale(1 1) rotate(0) translate(4 254)">
<title>lib/application_business_rules/src/ProcessHmiInputs.cpp</title>
<!-- Node1 -->
<g id="node1" class="node">
<title>Node1</title>
<g id="a_node1"><a xlink:title=" ">
<polygon fill="#999999" stroke="#666666" points="354,-250 193,-250 193,-220 354,-220 354,-250"/>
<text text-anchor="start" x="201" y="-238" font-family="Helvetica,sans-Serif" font-size="10.00">lib/application_business</text>
<text text-anchor="middle" x="273.5" y="-227" font-family="Helvetica,sans-Serif" font-size="10.00">_rules/src/ProcessHmiInputs.cpp</text>
</a>
</g>
</g>
<!-- Node2 -->
<g id="node2" class="node">
<title>Node2</title>
<g id="a_node2"><a xlink:href="ProcessHmiInputs_8hpp.xhtml" target="_top" xlink:title=" ">
<polygon fill="white" stroke="#666666" points="213.5,-184 97.5,-184 97.5,-165 213.5,-165 213.5,-184"/>
<text text-anchor="middle" x="155.5" y="-172" font-family="Helvetica,sans-Serif" font-size="10.00">ProcessHmiInputs.hpp</text>
</a>
</g>
</g>
<!-- Node1&#45;&gt;Node2 -->
<g id="edge1" class="edge">
<title>Node1&#45;&gt;Node2</title>
<path fill="none" stroke="#63b8ff" d="M244.33,-219.54C225.73,-210.32 201.77,-198.44 183.42,-189.34"/>
<polygon fill="#63b8ff" stroke="#63b8ff" points="185.21,-186.32 174.7,-185.02 182.1,-192.6 185.21,-186.32"/>
</g>
<!-- Node9 -->
<g id="node9" class="node">
<title>Node9</title>
<g id="a_node9"><a xlink:href="serial__port_8hpp.xhtml" target="_top" xlink:title=" ">
<polygon fill="white" stroke="#666666" points="298.5,-129 218.5,-129 218.5,-110 298.5,-110 298.5,-129"/>
<text text-anchor="middle" x="258.5" y="-117" font-family="Helvetica,sans-Serif" font-size="10.00">serial_port.hpp</text>
</a>
</g>
</g>
<!-- Node1&#45;&gt;Node9 -->
<g id="edge8" class="edge">
<title>Node1&#45;&gt;Node9</title>
<path fill="none" stroke="#63b8ff" d="M271.6,-219.63C268.95,-199.59 264.14,-163.17 261.14,-140.49"/>
<polygon fill="#63b8ff" stroke="#63b8ff" points="264.63,-140.19 259.85,-130.73 257.69,-141.1 264.63,-140.19"/>
</g>
<!-- Node13 -->
<g id="node13" class="node">
<title>Node13</title>
<g id="a_node13"><a xlink:title=" ">
<polygon fill="#e0e0e0" stroke="#999999" points="325,-184 276,-184 276,-165 325,-165 325,-184"/>
<text text-anchor="middle" x="300.5" y="-172" font-family="Helvetica,sans-Serif" font-size="10.00">cassert</text>
</a>
</g>
</g>
<!-- Node1&#45;&gt;Node13 -->
<g id="edge14" class="edge">
<title>Node1&#45;&gt;Node13</title>
<path fill="none" stroke="#63b8ff" d="M280.17,-219.54C283.66,-212 287.96,-202.67 291.71,-194.55"/>
<polygon fill="#63b8ff" stroke="#63b8ff" points="294.85,-196.1 295.86,-185.55 288.49,-193.16 294.85,-196.1"/>
</g>
<!-- Node14 -->
<g id="node14" class="node">
<title>Node14</title>
<g id="a_node14"><a xlink:title=" ">
<polygon fill="#e0e0e0" stroke="#999999" points="405.5,-184 343.5,-184 343.5,-165 405.5,-165 405.5,-184"/>
<text text-anchor="middle" x="374.5" y="-172" font-family="Helvetica,sans-Serif" font-size="10.00">type_traits</text>
</a>
</g>
</g>
<!-- Node1&#45;&gt;Node14 -->
<g id="edge15" class="edge">
<title>Node1&#45;&gt;Node14</title>
<path fill="none" stroke="#63b8ff" d="M298.47,-219.54C313.94,-210.58 333.75,-199.1 349.27,-190.11"/>
<polygon fill="#63b8ff" stroke="#63b8ff" points="351.02,-193.15 357.92,-185.1 347.51,-187.09 351.02,-193.15"/>
</g>
<!-- Node3 -->
<g id="node3" class="node">
<title>Node3</title>
<g id="a_node3"><a xlink:href="IController_8hpp.xhtml" target="_top" xlink:title=" ">
<polygon fill="white" stroke="#666666" points="195,-129 116,-129 116,-110 195,-110 195,-129"/>
<text text-anchor="middle" x="155.5" y="-117" font-family="Helvetica,sans-Serif" font-size="10.00">IController.hpp</text>
</a>
</g>
</g>
<!-- Node2&#45;&gt;Node3 -->
<g id="edge2" class="edge">
<title>Node2&#45;&gt;Node3</title>
<path fill="none" stroke="#63b8ff" d="M155.5,-164.75C155.5,-158.27 155.5,-149.16 155.5,-140.9"/>
<polygon fill="#63b8ff" stroke="#63b8ff" points="159,-140.96 155.5,-130.96 152,-140.96 159,-140.96"/>
</g>
<!-- Node7 -->
<g id="node7" class="node">
<title>Node7</title>
<g id="a_node7"><a xlink:href="IPresenter_8hpp.xhtml" target="_top" xlink:title=" ">
<polygon fill="white" stroke="#666666" points="88.5,-129 8.5,-129 8.5,-110 88.5,-110 88.5,-129"/>
<text text-anchor="middle" x="48.5" y="-117" font-family="Helvetica,sans-Serif" font-size="10.00">IPresenter.hpp</text>
</a>
</g>
</g>
<!-- Node2&#45;&gt;Node7 -->
<g id="edge6" class="edge">
<title>Node2&#45;&gt;Node7</title>
<path fill="none" stroke="#63b8ff" d="M137.35,-164.51C120.72,-156.27 95.86,-143.96 76.65,-134.45"/>
<polygon fill="#63b8ff" stroke="#63b8ff" points="78.25,-131.33 67.74,-130.03 75.15,-137.6 78.25,-131.33"/>
</g>
<!-- Node4 -->
<g id="node4" class="node">
<title>Node4</title>
<g id="a_node4"><a xlink:href="KeyIds_8hpp.xhtml" target="_top" xlink:title=" ">
<polygon fill="white" stroke="#666666" points="132,-74 67,-74 67,-55 132,-55 132,-74"/>
<text text-anchor="middle" x="99.5" y="-62" font-family="Helvetica,sans-Serif" font-size="10.00">KeyIds.hpp</text>
</a>
</g>
</g>
<!-- Node3&#45;&gt;Node4 -->
<g id="edge3" class="edge">
<title>Node3&#45;&gt;Node4</title>
<path fill="none" stroke="#63b8ff" d="M146,-109.51C138.07,-102 126.55,-91.1 116.96,-82.03"/>
<polygon fill="#63b8ff" stroke="#63b8ff" points="119.63,-79.73 109.96,-75.4 114.82,-84.81 119.63,-79.73"/>
</g>
<!-- Node6 -->
<g id="node6" class="node">
<title>Node6</title>
<g id="a_node6"><a xlink:title=" ">
<polygon fill="#e0e0e0" stroke="#999999" points="200.5,-74 150.5,-74 150.5,-55 200.5,-55 200.5,-74"/>
<text text-anchor="middle" x="175.5" y="-62" font-family="Helvetica,sans-Serif" font-size="10.00">optional</text>
</a>
</g>
</g>
<!-- Node3&#45;&gt;Node6 -->
<g id="edge5" class="edge">
<title>Node3&#45;&gt;Node6</title>
<path fill="none" stroke="#63b8ff" d="M158.8,-109.75C161.33,-103.04 164.93,-93.52 168.13,-85.02"/>
<polygon fill="#63b8ff" stroke="#63b8ff" points="171.34,-86.45 171.59,-75.86 164.79,-83.98 171.34,-86.45"/>
</g>
<!-- Node5 -->
<g id="node5" class="node">
<title>Node5</title>
<g id="a_node5"><a xlink:title=" ">
<polygon fill="#e0e0e0" stroke="#999999" points="219.5,-19 167.5,-19 167.5,0 219.5,0 219.5,-19"/>
<text text-anchor="middle" x="193.5" y="-7" font-family="Helvetica,sans-Serif" font-size="10.00">ostream</text>
</a>
</g>
</g>
<!-- Node4&#45;&gt;Node5 -->
<g id="edge4" class="edge">
<title>Node4&#45;&gt;Node5</title>
<path fill="none" stroke="#63b8ff" d="M115.45,-54.51C129.85,-46.39 151.29,-34.3 168.06,-24.85"/>
<polygon fill="#63b8ff" stroke="#63b8ff" points="169.48,-28.06 176.47,-20.1 166.04,-21.96 169.48,-28.06"/>
</g>
<!-- Node8 -->
<g id="node8" class="node">
<title>Node8</title>
<g id="a_node8"><a xlink:title=" ">
<polygon fill="#e0e0e0" stroke="#999999" points="49,-74 0,-74 0,-55 49,-55 49,-74"/>
<text text-anchor="middle" x="24.5" y="-62" font-family="Helvetica,sans-Serif" font-size="10.00">cstddef</text>
</a>
</g>
</g>
<!-- Node7&#45;&gt;Node8 -->
<g id="edge7" class="edge">
<title>Node7&#45;&gt;Node8</title>
<path fill="none" stroke="#63b8ff" d="M44.54,-109.75C41.46,-102.96 37.09,-93.3 33.21,-84.73"/>
<polygon fill="#63b8ff" stroke="#63b8ff" points="36.49,-83.49 29.17,-75.82 30.11,-86.37 36.49,-83.49"/>
</g>
<!-- Node9&#45;&gt;Node5 -->
<g id="edge12" class="edge">
<title>Node9&#45;&gt;Node5</title>
<path fill="none" stroke="#63b8ff" d="M263.48,-109.65C270.01,-96.77 279.52,-72.47 269.5,-55 260.99,-40.16 245.41,-29.8 230.56,-22.83"/>
<polygon fill="#63b8ff" stroke="#63b8ff" points="231.96,-19.61 221.38,-18.93 229.22,-26.06 231.96,-19.61"/>
</g>
<!-- Node9&#45;&gt;Node6 -->
<g id="edge11" class="edge">
<title>Node9&#45;&gt;Node6</title>
<path fill="none" stroke="#63b8ff" d="M244.42,-109.51C231.94,-101.54 213.48,-89.75 198.81,-80.38"/>
<polygon fill="#63b8ff" stroke="#63b8ff" points="200.96,-77.6 190.65,-75.17 197.19,-83.5 200.96,-77.6"/>
</g>
<!-- Node10 -->
<g id="node10" class="node">
<title>Node10</title>
<g id="a_node10"><a xlink:title=" ">
<polygon fill="#e0e0e0" stroke="#999999" points="354.5,-74 316.5,-74 316.5,-55 354.5,-55 354.5,-74"/>
<text text-anchor="middle" x="335.5" y="-62" font-family="Helvetica,sans-Serif" font-size="10.00">array</text>
</a>
</g>
</g>
<!-- Node9&#45;&gt;Node10 -->
<g id="edge9" class="edge">
<title>Node9&#45;&gt;Node10</title>
<path fill="none" stroke="#63b8ff" d="M271.56,-109.51C283.02,-101.62 299.93,-89.98 313.48,-80.65"/>
<polygon fill="#63b8ff" stroke="#63b8ff" points="315.13,-83.77 321.38,-75.22 311.16,-78 315.13,-83.77"/>
</g>
<!-- Node11 -->
<g id="node11" class="node">
<title>Node11</title>
<g id="a_node11"><a xlink:title=" ">
<polygon fill="#e0e0e0" stroke="#999999" points="432,-74 373,-74 373,-55 432,-55 432,-74"/>
<text text-anchor="middle" x="402.5" y="-62" font-family="Helvetica,sans-Serif" font-size="10.00">functional</text>
</a>
</g>
</g>
<!-- Node9&#45;&gt;Node11 -->
<g id="edge10" class="edge">
<title>Node9&#45;&gt;Node11</title>
<path fill="none" stroke="#63b8ff" d="M282.93,-109.51C306.24,-100.93 341.59,-87.92 367.81,-78.27"/>
<polygon fill="#63b8ff" stroke="#63b8ff" points="368.84,-81.62 377.01,-74.88 366.42,-75.05 368.84,-81.62"/>
</g>
<!-- Node12 -->
<g id="node12" class="node">
<title>Node12</title>
<g id="a_node12"><a xlink:title=" ">
<polygon fill="#e0e0e0" stroke="#999999" points="260,-74 219,-74 219,-55 260,-55 260,-74"/>
<text text-anchor="middle" x="239.5" y="-62" font-family="Helvetica,sans-Serif" font-size="10.00">string</text>
</a>
</g>
</g>
<!-- Node9&#45;&gt;Node12 -->
<g id="edge13" class="edge">
<title>Node9&#45;&gt;Node12</title>
<path fill="none" stroke="#63b8ff" d="M255.36,-109.75C252.96,-103.04 249.54,-93.52 246.5,-85.02"/>
<polygon fill="#63b8ff" stroke="#63b8ff" points="249.89,-84.1 243.22,-75.87 243.3,-86.46 249.89,-84.1"/>
</g>
</g>
</svg>
