<?xml version="1.0" encoding="UTF-8" standalone="no"?>
<!DOCTYPE svg PUBLIC "-//W3C//DTD SVG 1.1//EN"
 "http://www.w3.org/Graphics/SVG/1.1/DTD/svg11.dtd">
<!-- Generated by graphviz version 7.0.5 (20221223.1930)
 -->
<!-- Title: lib/application_business_rules/include/ProcessHmiInputs.hpp Pages: 1 -->
<svg width="260pt" height="104pt"
 viewBox="0.00 0.00 259.50 104.00" xmlns="http://www.w3.org/2000/svg" xmlns:xlink="http://www.w3.org/1999/xlink">
<g id="graph0" class="graph" transform="scale(1 1) rotate(0) translate(4 100)">
<title>lib/application_business_rules/include/ProcessHmiInputs.hpp</title>
<!-- Node1 -->
<g id="node1" class="node">
<title>Node1</title>
<g id="a_node1"><a xlink:title=" ">
<polygon fill="#999999" stroke="#666666" points="237,-96 58,-96 58,-66 237,-66 237,-96"/>
<text text-anchor="start" x="66" y="-84" font-family="Helvetica,sans-Serif" font-size="10.00">lib/application_business</text>
<text text-anchor="middle" x="147.5" y="-73" font-family="Helvetica,sans-Serif" font-size="10.00">_rules/include/ProcessHmiInputs.hpp</text>
</a>
</g>
</g>
<!-- Node2 -->
<g id="node2" class="node">
<title>Node2</title>
<g id="a_node2"><a xlink:href="ProcessHmiInputs_8cpp.xhtml" target="_top" xlink:title=" ">
<polygon fill="white" stroke="#666666" points="161,-30 0,-30 0,0 161,0 161,-30"/>
<text text-anchor="start" x="8" y="-18" font-family="Helvetica,sans-Serif" font-size="10.00">lib/application_business</text>
<text text-anchor="middle" x="80.5" y="-7" font-family="Helvetica,sans-Serif" font-size="10.00">_rules/src/ProcessHmiInputs.cpp</text>
</a>
</g>
</g>
<!-- Node1&#45;&gt;Node2 -->
<g id="edge1" class="edge">
<title>Node1&#45;&gt;Node2</title>
<path fill="none" stroke="#63b8ff" d="M124.56,-58.09C114.89,-48.85 103.91,-38.36 95.33,-30.16"/>
<polygon fill="#63b8ff" stroke="#63b8ff" points="121.89,-60.37 131.54,-64.75 126.72,-55.31 121.89,-60.37"/>
</g>
<!-- Node3 -->
<g id="node3" class="node">
<title>Node3</title>
<g id="a_node3"><a xlink:href="main_8cpp.xhtml" target="_top" xlink:title=" ">
<polygon fill="white" stroke="#666666" points="251.5,-24.5 179.5,-24.5 179.5,-5.5 251.5,-5.5 251.5,-24.5"/>
<text text-anchor="middle" x="215.5" y="-12.5" font-family="Helvetica,sans-Serif" font-size="10.00">src/main.cpp</text>
</a>
</g>
</g>
<!-- Node1&#45;&gt;Node3 -->
<g id="edge2" class="edge">
<title>Node1&#45;&gt;Node3</title>
<path fill="none" stroke="#63b8ff" d="M170.93,-57.94C183.01,-46.58 197.06,-33.36 206.1,-24.84"/>
<polygon fill="#63b8ff" stroke="#63b8ff" points="168.58,-55.36 163.69,-64.76 173.37,-60.45 168.58,-55.36"/>
</g>
</g>
</svg>
