<?xml version="1.0" encoding="UTF-8" standalone="no"?>
<!DOCTYPE svg PUBLIC "-//W3C//DTD SVG 1.1//EN"
 "http://www.w3.org/Graphics/SVG/1.1/DTD/svg11.dtd">
<!-- Generated by graphviz version 7.0.5 (20221223.1930)
 -->
<!-- Title: lib/application_business_rules/include/serial_port.hpp Pages: 1 -->
<svg width="788pt" height="170pt"
 viewBox="0.00 0.00 787.50 170.00" xmlns="http://www.w3.org/2000/svg" xmlns:xlink="http://www.w3.org/1999/xlink">
<g id="graph0" class="graph" transform="scale(1 1) rotate(0) translate(4 166)">
<title>lib/application_business_rules/include/serial_port.hpp</title>
<!-- Node1 -->
<g id="node1" class="node">
<title>Node1</title>
<g id="a_node1"><a xlink:title=" ">
<polygon fill="#999999" stroke="#666666" points="499,-162 356,-162 356,-132 499,-132 499,-162"/>
<text text-anchor="start" x="364" y="-150" font-family="Helvetica,sans-Serif" font-size="10.00">lib/application_business</text>
<text text-anchor="middle" x="427.5" y="-139" font-family="Helvetica,sans-Serif" font-size="10.00">_rules/include/serial_port.hpp</text>
</a>
</g>
</g>
<!-- Node2 -->
<g id="node2" class="node">
<title>Node2</title>
<g id="a_node2"><a xlink:href="SerialOutputStreamBuffer_8hpp.xhtml" target="_top" xlink:title=" ">
<polygon fill="white" stroke="#666666" points="211,-96 46,-96 46,-66 211,-66 211,-96"/>
<text text-anchor="start" x="54" y="-84" font-family="Helvetica,sans-Serif" font-size="10.00">lib/3rd_party_adapters</text>
<text text-anchor="middle" x="128.5" y="-73" font-family="Helvetica,sans-Serif" font-size="10.00">/src/SerialOutputStreamBuffer.hpp</text>
</a>
</g>
</g>
<!-- Node1&#45;&gt;Node2 -->
<g id="edge1" class="edge">
<title>Node1&#45;&gt;Node2</title>
<path fill="none" stroke="#63b8ff" d="M348.85,-129.16C301.32,-118.99 241.36,-106.16 195.99,-96.45"/>
<polygon fill="#63b8ff" stroke="#63b8ff" points="348.03,-132.57 358.55,-131.24 349.5,-125.72 348.03,-132.57"/>
</g>
<!-- Node4 -->
<g id="node4" class="node">
<title>Node4</title>
<g id="a_node4"><a xlink:href="serial__port_8cpp.xhtml" target="_top" xlink:title=" ">
<polygon fill="white" stroke="#666666" points="295.5,-30 183.5,-30 183.5,0 295.5,0 295.5,-30"/>
<text text-anchor="start" x="191.5" y="-18" font-family="Helvetica,sans-Serif" font-size="10.00">lib/3rd_party_adapters</text>
<text text-anchor="middle" x="239.5" y="-7" font-family="Helvetica,sans-Serif" font-size="10.00">/src/serial_port.cpp</text>
</a>
</g>
</g>
<!-- Node1&#45;&gt;Node4 -->
<g id="edge4" class="edge">
<title>Node1&#45;&gt;Node4</title>
<path fill="none" stroke="#63b8ff" d="M344.62,-138.54C314.15,-131.78 281.7,-119.21 259.5,-96 242.48,-78.21 239.3,-48.21 239.05,-30.44"/>
<polygon fill="#63b8ff" stroke="#63b8ff" points="343.76,-141.93 354.26,-140.47 345.14,-135.07 343.76,-141.93"/>
</g>
<!-- Node5 -->
<g id="node5" class="node">
<title>Node5</title>
<g id="a_node5"><a xlink:href="ProcessHmiInputs_8cpp.xhtml" target="_top" xlink:title=" ">
<polygon fill="white" stroke="#666666" points="429,-96 268,-96 268,-66 429,-66 429,-96"/>
<text text-anchor="start" x="276" y="-84" font-family="Helvetica,sans-Serif" font-size="10.00">lib/application_business</text>
<text text-anchor="middle" x="348.5" y="-73" font-family="Helvetica,sans-Serif" font-size="10.00">_rules/src/ProcessHmiInputs.cpp</text>
</a>
</g>
</g>
<!-- Node1&#45;&gt;Node5 -->
<g id="edge5" class="edge">
<title>Node1&#45;&gt;Node5</title>
<path fill="none" stroke="#63b8ff" d="M401.21,-124.7C389.72,-115.4 376.56,-104.73 366.26,-96.39"/>
<polygon fill="#63b8ff" stroke="#63b8ff" points="398.82,-127.27 408.79,-130.84 403.22,-121.83 398.82,-127.27"/>
</g>
<!-- Node6 -->
<g id="node6" class="node">
<title>Node6</title>
<g id="a_node6"><a xlink:href="Protocol_8cpp.xhtml" target="_top" xlink:title=" ">
<polygon fill="white" stroke="#666666" points="567.5,-96 447.5,-96 447.5,-66 567.5,-66 567.5,-96"/>
<text text-anchor="start" x="455.5" y="-84" font-family="Helvetica,sans-Serif" font-size="10.00">lib/application_business</text>
<text text-anchor="middle" x="507.5" y="-73" font-family="Helvetica,sans-Serif" font-size="10.00">_rules/src/Protocol.cpp</text>
</a>
</g>
</g>
<!-- Node1&#45;&gt;Node6 -->
<g id="edge6" class="edge">
<title>Node1&#45;&gt;Node6</title>
<path fill="none" stroke="#63b8ff" d="M454.13,-124.7C465.76,-115.4 479.09,-104.73 489.52,-96.39"/>
<polygon fill="#63b8ff" stroke="#63b8ff" points="452.06,-121.87 446.44,-130.85 456.43,-127.34 452.06,-121.87"/>
</g>
<!-- Node7 -->
<g id="node7" class="node">
<title>Node7</title>
<g id="a_node7"><a xlink:href="main_8cpp.xhtml" target="_top" xlink:title=" ">
<polygon fill="white" stroke="#666666" points="657.5,-90.5 585.5,-90.5 585.5,-71.5 657.5,-71.5 657.5,-90.5"/>
<text text-anchor="middle" x="621.5" y="-78.5" font-family="Helvetica,sans-Serif" font-size="10.00">src/main.cpp</text>
</a>
</g>
</g>
<!-- Node1&#45;&gt;Node7 -->
<g id="edge7" class="edge">
<title>Node1&#45;&gt;Node7</title>
<path fill="none" stroke="#63b8ff" d="M481.57,-128.16C518.23,-116.07 565.15,-100.59 594.26,-90.99"/>
<polygon fill="#63b8ff" stroke="#63b8ff" points="480.87,-124.71 472.47,-131.16 483.07,-131.35 480.87,-124.71"/>
</g>
<!-- Node8 -->
<g id="node8" class="node">
<title>Node8</title>
<g id="a_node8"><a xlink:href="test__serial__port_8cpp.xhtml" target="_top" xlink:title=" ">
<polygon fill="white" stroke="#666666" points="779.5,-96 675.5,-96 675.5,-66 779.5,-66 779.5,-96"/>
<text text-anchor="start" x="683.5" y="-84" font-family="Helvetica,sans-Serif" font-size="10.00">test/test_serial_port</text>
<text text-anchor="middle" x="727.5" y="-73" font-family="Helvetica,sans-Serif" font-size="10.00">/test_serial_port.cpp</text>
</a>
</g>
</g>
<!-- Node1&#45;&gt;Node8 -->
<g id="edge8" class="edge">
<title>Node1&#45;&gt;Node8</title>
<path fill="none" stroke="#63b8ff" d="M509.58,-129.24C555.73,-119.71 614.38,-107.43 666.5,-96 669.37,-95.37 672.31,-94.72 675.27,-94.06"/>
<polygon fill="#63b8ff" stroke="#63b8ff" points="509,-125.78 499.91,-131.23 510.41,-132.64 509,-125.78"/>
</g>
<!-- Node3 -->
<g id="node3" class="node">
<title>Node3</title>
<g id="a_node3"><a xlink:href="SerialOutputStreamBuffer_8cpp.xhtml" target="_top" xlink:title=" ">
<polygon fill="white" stroke="#666666" points="165,-30 0,-30 0,0 165,0 165,-30"/>
<text text-anchor="start" x="8" y="-18" font-family="Helvetica,sans-Serif" font-size="10.00">lib/3rd_party_adapters</text>
<text text-anchor="middle" x="82.5" y="-7" font-family="Helvetica,sans-Serif" font-size="10.00">/src/SerialOutputStreamBuffer.cpp</text>
</a>
</g>
</g>
<!-- Node2&#45;&gt;Node3 -->
<g id="edge2" class="edge">
<title>Node2&#45;&gt;Node3</title>
<path fill="none" stroke="#63b8ff" d="M111.74,-56.68C105.35,-47.79 98.27,-37.95 92.68,-30.16"/>
<polygon fill="#63b8ff" stroke="#63b8ff" points="108.73,-58.49 117.41,-64.57 114.41,-54.4 108.73,-58.49"/>
</g>
<!-- Node2&#45;&gt;Node4 -->
<g id="edge3" class="edge">
<title>Node2&#45;&gt;Node4</title>
<path fill="none" stroke="#63b8ff" d="M163.34,-59.91C180,-50.31 199.55,-39.03 214.67,-30.31"/>
<polygon fill="#63b8ff" stroke="#63b8ff" points="161.64,-56.85 154.72,-64.88 165.13,-62.92 161.64,-56.85"/>
</g>
</g>
</svg>
