<?xml version="1.0" encoding="UTF-8" standalone="no"?>
<!DOCTYPE svg PUBLIC "-//W3C//DTD SVG 1.1//EN"
 "http://www.w3.org/Graphics/SVG/1.1/DTD/svg11.dtd">
<!-- Generated by graphviz version 7.0.5 (20221223.1930)
 -->
<!-- Title: lib/3rd_party_adapters/src/SerialOutputStreamBuffer.hpp Pages: 1 -->
<svg width="304pt" height="104pt"
 viewBox="0.00 0.00 303.50 104.00" xmlns="http://www.w3.org/2000/svg" xmlns:xlink="http://www.w3.org/1999/xlink">
<g id="graph0" class="graph" transform="scale(1 1) rotate(0) translate(4 100)">
<title>lib/3rd_party_adapters/src/SerialOutputStreamBuffer.hpp</title>
<!-- Node1 -->
<g id="node1" class="node">
<title>Node1</title>
<g id="a_node1"><a xlink:title=" ">
<polygon fill="#999999" stroke="#666666" points="243,-96 78,-96 78,-66 243,-66 243,-96"/>
<text text-anchor="start" x="86" y="-84" font-family="Helvetica,sans-Serif" font-size="10.00">lib/3rd_party_adapters</text>
<text text-anchor="middle" x="160.5" y="-73" font-family="Helvetica,sans-Serif" font-size="10.00">/src/SerialOutputStreamBuffer.hpp</text>
</a>
</g>
</g>
<!-- Node2 -->
<g id="node2" class="node">
<title>Node2</title>
<g id="a_node2"><a xlink:href="SerialOutputStreamBuffer_8cpp.xhtml" target="_top" xlink:title=" ">
<polygon fill="white" stroke="#666666" points="165,-30 0,-30 0,0 165,0 165,-30"/>
<text text-anchor="start" x="8" y="-18" font-family="Helvetica,sans-Serif" font-size="10.00">lib/3rd_party_adapters</text>
<text text-anchor="middle" x="82.5" y="-7" font-family="Helvetica,sans-Serif" font-size="10.00">/src/SerialOutputStreamBuffer.cpp</text>
</a>
</g>
</g>
<!-- Node1&#45;&gt;Node2 -->
<g id="edge1" class="edge">
<title>Node1&#45;&gt;Node2</title>
<path fill="none" stroke="#63b8ff" d="M134.54,-58.7C123.2,-49.4 110.2,-38.73 100.03,-30.39"/>
<polygon fill="#63b8ff" stroke="#63b8ff" points="132.07,-61.2 142.02,-64.84 136.51,-55.79 132.07,-61.2"/>
</g>
<!-- Node3 -->
<g id="node3" class="node">
<title>Node3</title>
<g id="a_node3"><a xlink:href="serial__port_8cpp.xhtml" target="_top" xlink:title=" ">
<polygon fill="white" stroke="#666666" points="295.5,-30 183.5,-30 183.5,0 295.5,0 295.5,-30"/>
<text text-anchor="start" x="191.5" y="-18" font-family="Helvetica,sans-Serif" font-size="10.00">lib/3rd_party_adapters</text>
<text text-anchor="middle" x="239.5" y="-7" font-family="Helvetica,sans-Serif" font-size="10.00">/src/serial_port.cpp</text>
</a>
</g>
</g>
<!-- Node1&#45;&gt;Node3 -->
<g id="edge2" class="edge">
<title>Node1&#45;&gt;Node3</title>
<path fill="none" stroke="#63b8ff" d="M186.79,-58.7C198.28,-49.4 211.44,-38.73 221.74,-30.39"/>
<polygon fill="#63b8ff" stroke="#63b8ff" points="184.78,-55.83 179.21,-64.84 189.18,-61.27 184.78,-55.83"/>
</g>
</g>
</svg>
