<?xml version="1.0" encoding="UTF-8" standalone="no"?>
<!DOCTYPE svg PUBLIC "-//W3C//DTD SVG 1.1//EN"
 "http://www.w3.org/Graphics/SVG/1.1/DTD/svg11.dtd">
<!-- Generated by graphviz version 7.0.5 (20221223.1930)
 -->
<!-- Title: lib/application_business_rules/include/serial_port.hpp Pages: 1 -->
<svg width="772pt" height="170pt"
 viewBox="0.00 0.00 771.50 170.00" xmlns="http://www.w3.org/2000/svg" xmlns:xlink="http://www.w3.org/1999/xlink">
<g id="graph0" class="graph" transform="scale(1 1) rotate(0) translate(4 166)">
<title>lib/application_business_rules/include/serial_port.hpp</title>
<!-- Node1 -->
<g id="node1" class="node">
<title>Node1</title>
<g id="a_node1"><a xlink:title=" ">
<polygon fill="#999999" stroke="#666666" points="462,-162 319,-162 319,-132 462,-132 462,-162"/>
<text text-anchor="start" x="327" y="-150" font-family="Helvetica,sans-Serif" font-size="10.00">lib/application_business</text>
<text text-anchor="middle" x="390.5" y="-139" font-family="Helvetica,sans-Serif" font-size="10.00">_rules/include/serial_port.hpp</text>
</a>
</g>
</g>
<!-- Node2 -->
<g id="node2" class="node">
<title>Node2</title>
<g id="a_node2"><a xlink:href="SerialOutputStreamBuffer_8hpp.xhtml" target="_top" xlink:title=" ">
<polygon fill="white" stroke="#666666" points="195,-96 46,-96 46,-66 195,-66 195,-96"/>
<text text-anchor="start" x="54" y="-84" font-family="Helvetica,sans-Serif" font-size="10.00">lib/3rd_party_adapters</text>
<text text-anchor="middle" x="120.5" y="-73" font-family="Helvetica,sans-Serif" font-size="10.00">/SerialOutputStreamBuffer.hpp</text>
</a>
</g>
</g>
<!-- Node1&#45;&gt;Node2 -->
<g id="edge1" class="edge">
<title>Node1&#45;&gt;Node2</title>
<path fill="none" stroke="#63b8ff" d="M318.64,-128.97C275.77,-118.81 221.94,-106.04 181.21,-96.39"/>
<polygon fill="#63b8ff" stroke="#63b8ff" points="317.56,-132.31 328.1,-131.21 319.17,-125.5 317.56,-132.31"/>
</g>
<!-- Node4 -->
<g id="node4" class="node">
<title>Node4</title>
<g id="a_node4"><a xlink:href="serial__port_8cpp.xhtml" target="_top" xlink:title=" ">
<polygon fill="white" stroke="#666666" points="279.5,-30 167.5,-30 167.5,0 279.5,0 279.5,-30"/>
<text text-anchor="start" x="175.5" y="-18" font-family="Helvetica,sans-Serif" font-size="10.00">lib/3rd_party_adapters</text>
<text text-anchor="middle" x="223.5" y="-7" font-family="Helvetica,sans-Serif" font-size="10.00">/serial_port.cpp</text>
</a>
</g>
</g>
<!-- Node1&#45;&gt;Node4 -->
<g id="edge4" class="edge">
<title>Node1&#45;&gt;Node4</title>
<path fill="none" stroke="#63b8ff" d="M307.74,-133.73C283.78,-126.39 259.53,-114.69 242.5,-96 225.96,-77.85 223.07,-47.98 222.95,-30.33"/>
<polygon fill="#63b8ff" stroke="#63b8ff" points="306.67,-137.06 317.24,-136.39 308.56,-130.32 306.67,-137.06"/>
</g>
<!-- Node5 -->
<g id="node5" class="node">
<title>Node5</title>
<g id="a_node5"><a xlink:href="Protocol_8cpp.xhtml" target="_top" xlink:title=" ">
<polygon fill="white" stroke="#666666" points="371.5,-96 251.5,-96 251.5,-66 371.5,-66 371.5,-96"/>
<text text-anchor="start" x="259.5" y="-84" font-family="Helvetica,sans-Serif" font-size="10.00">lib/application_business</text>
<text text-anchor="middle" x="311.5" y="-73" font-family="Helvetica,sans-Serif" font-size="10.00">_rules/Protocol.cpp</text>
</a>
</g>
</g>
<!-- Node1&#45;&gt;Node5 -->
<g id="edge5" class="edge">
<title>Node1&#45;&gt;Node5</title>
<path fill="none" stroke="#63b8ff" d="M364.21,-124.7C352.72,-115.4 339.56,-104.73 329.26,-96.39"/>
<polygon fill="#63b8ff" stroke="#63b8ff" points="361.82,-127.27 371.79,-130.84 366.22,-121.83 361.82,-127.27"/>
</g>
<!-- Node6 -->
<g id="node6" class="node">
<title>Node6</title>
<g id="a_node6"><a xlink:href="ProcessHmiInputs_8cpp.xhtml" target="_top" xlink:title=" ">
<polygon fill="white" stroke="#666666" points="551,-96 390,-96 390,-66 551,-66 551,-96"/>
<text text-anchor="start" x="398" y="-84" font-family="Helvetica,sans-Serif" font-size="10.00">lib/application_business</text>
<text text-anchor="middle" x="470.5" y="-73" font-family="Helvetica,sans-Serif" font-size="10.00">_rules/src/ProcessHmiInputs.cpp</text>
</a>
</g>
</g>
<!-- Node1&#45;&gt;Node6 -->
<g id="edge6" class="edge">
<title>Node1&#45;&gt;Node6</title>
<path fill="none" stroke="#63b8ff" d="M417.13,-124.7C428.76,-115.4 442.09,-104.73 452.52,-96.39"/>
<polygon fill="#63b8ff" stroke="#63b8ff" points="415.06,-121.87 409.44,-130.85 419.43,-127.34 415.06,-121.87"/>
</g>
<!-- Node7 -->
<g id="node7" class="node">
<title>Node7</title>
<g id="a_node7"><a xlink:href="main_8cpp.xhtml" target="_top" xlink:title=" ">
<polygon fill="white" stroke="#666666" points="641.5,-90.5 569.5,-90.5 569.5,-71.5 641.5,-71.5 641.5,-90.5"/>
<text text-anchor="middle" x="605.5" y="-78.5" font-family="Helvetica,sans-Serif" font-size="10.00">src/main.cpp</text>
</a>
</g>
</g>
<!-- Node1&#45;&gt;Node7 -->
<g id="edge7" class="edge">
<title>Node1&#45;&gt;Node7</title>
<path fill="none" stroke="#63b8ff" d="M451.08,-128.43C483.57,-118.95 524.26,-106.97 560.5,-96 565.83,-94.39 571.5,-92.65 576.95,-90.95"/>
<polygon fill="#63b8ff" stroke="#63b8ff" points="450.47,-124.96 441.85,-131.12 452.43,-131.68 450.47,-124.96"/>
</g>
<!-- Node8 -->
<g id="node8" class="node">
<title>Node8</title>
<g id="a_node8"><a xlink:href="test__serial__port_8cpp.xhtml" target="_top" xlink:title=" ">
<polygon fill="white" stroke="#666666" points="763.5,-96 659.5,-96 659.5,-66 763.5,-66 763.5,-96"/>
<text text-anchor="start" x="667.5" y="-84" font-family="Helvetica,sans-Serif" font-size="10.00">test/test_serial_port</text>
<text text-anchor="middle" x="711.5" y="-73" font-family="Helvetica,sans-Serif" font-size="10.00">/test_serial_port.cpp</text>
</a>
</g>
</g>
<!-- Node1&#45;&gt;Node8 -->
<g id="edge8" class="edge">
<title>Node1&#45;&gt;Node8</title>
<path fill="none" stroke="#63b8ff" d="M473.69,-130.78C524.79,-121.24 591.54,-108.43 650.5,-96 653.37,-95.39 656.31,-94.76 659.28,-94.11"/>
<polygon fill="#63b8ff" stroke="#63b8ff" points="473.05,-127.34 463.86,-132.61 474.33,-134.22 473.05,-127.34"/>
</g>
<!-- Node3 -->
<g id="node3" class="node">
<title>Node3</title>
<g id="a_node3"><a xlink:href="SerialOutputStreamBuffer_8cpp.xhtml" target="_top" xlink:title=" ">
<polygon fill="white" stroke="#666666" points="149,-30 0,-30 0,0 149,0 149,-30"/>
<text text-anchor="start" x="8" y="-18" font-family="Helvetica,sans-Serif" font-size="10.00">lib/3rd_party_adapters</text>
<text text-anchor="middle" x="74.5" y="-7" font-family="Helvetica,sans-Serif" font-size="10.00">/SerialOutputStreamBuffer.cpp</text>
</a>
</g>
</g>
<!-- Node2&#45;&gt;Node3 -->
<g id="edge2" class="edge">
<title>Node2&#45;&gt;Node3</title>
<path fill="none" stroke="#63b8ff" d="M103.74,-56.68C97.35,-47.79 90.27,-37.95 84.68,-30.16"/>
<polygon fill="#63b8ff" stroke="#63b8ff" points="100.73,-58.49 109.41,-64.57 106.41,-54.4 100.73,-58.49"/>
</g>
<!-- Node2&#45;&gt;Node4 -->
<g id="edge3" class="edge">
<title>Node2&#45;&gt;Node4</title>
<path fill="none" stroke="#63b8ff" d="M153.27,-59.64C168.63,-50.09 186.56,-38.95 200.46,-30.31"/>
<polygon fill="#63b8ff" stroke="#63b8ff" points="151.55,-56.59 144.9,-64.84 155.24,-62.53 151.55,-56.59"/>
</g>
</g>
</svg>
