<?xml version="1.0" encoding="UTF-8" standalone="no"?>
<!DOCTYPE svg PUBLIC "-//W3C//DTD SVG 1.1//EN"
 "http://www.w3.org/Graphics/SVG/1.1/DTD/svg11.dtd">
<!-- Generated by graphviz version 9.0.0 (20230911.1827)
 -->
<!-- Title: lib/layer3_board/src/ShiftRegisterStatusIndicator.hpp Pages: 1 -->
<svg width="290pt" height="149pt"
 viewBox="0.00 0.00 289.75 149.00" xmlns="http://www.w3.org/2000/svg" xmlns:xlink="http://www.w3.org/1999/xlink">
<g id="graph0" class="graph" transform="scale(1 1) rotate(0) translate(4 145)">
<title>lib/layer3_board/src/ShiftRegisterStatusIndicator.hpp</title>
<!-- Node1 -->
<g id="Node000001" class="node">
<title>Node1</title>
<g id="a_Node000001"><a xlink:title=" ">
<polygon fill="#999999" stroke="#666666" points="229.88,-141 70.62,-141 70.62,-110.5 229.88,-110.5 229.88,-141"/>
<text text-anchor="start" x="78.62" y="-127.5" font-family="Helvetica,sans-Serif" font-size="10.00">lib/layer3_board/src</text>
<text text-anchor="middle" x="150.25" y="-116.25" font-family="Helvetica,sans-Serif" font-size="10.00">/ShiftRegisterStatusIndicator.hpp</text>
</a>
</g>
</g>
<!-- Node2 -->
<g id="Node000002" class="node">
<title>Node2</title>
<g id="a_Node000002"><a xlink:href="IOutputShiftRegister_8hpp.xhtml" target="_top" xlink:title=" ">
<polygon fill="white" stroke="#666666" points="122.5,-74.5 0,-74.5 0,-55.25 122.5,-55.25 122.5,-74.5"/>
<text text-anchor="middle" x="61.25" y="-61" font-family="Helvetica,sans-Serif" font-size="10.00">IOutputShiftRegister.hpp</text>
</a>
</g>
</g>
<!-- Node1&#45;&gt;Node2 -->
<g id="edge1_Node000001_Node000002" class="edge">
<title>Node1&#45;&gt;Node2</title>
<g id="a_edge1_Node000001_Node000002"><a xlink:title=" ">
<path fill="none" stroke="#63b8ff" d="M128.25,-110.2C114.96,-101.4 98.04,-90.21 84.52,-81.27"/>
<polygon fill="#63b8ff" stroke="#63b8ff" points="86.5,-78.38 76.23,-75.79 82.64,-84.22 86.5,-78.38"/>
</a>
</g>
</g>
<!-- Node3 -->
<g id="Node000003" class="node">
<title>Node3</title>
<g id="a_Node000003"><a xlink:title=" ">
<polygon fill="#e0e0e0" stroke="#999999" points="129.38,-19.25 81.12,-19.25 81.12,0 129.38,0 129.38,-19.25"/>
<text text-anchor="middle" x="105.25" y="-5.75" font-family="Helvetica,sans-Serif" font-size="10.00">cstddef</text>
</a>
</g>
</g>
<!-- Node1&#45;&gt;Node3 -->
<g id="edge4_Node000001_Node000003" class="edge">
<title>Node1&#45;&gt;Node3</title>
<g id="a_edge4_Node000001_Node000003"><a xlink:title=" ">
<path fill="none" stroke="#63b8ff" d="M147.39,-110.01C144.34,-95.68 138.9,-73.48 131.25,-55.25 127.48,-46.27 122.23,-36.87 117.43,-29.04"/>
<polygon fill="#63b8ff" stroke="#63b8ff" points="120.49,-27.32 112.17,-20.77 114.59,-31.08 120.49,-27.32"/>
</a>
</g>
</g>
<!-- Node4 -->
<g id="Node000004" class="node">
<title>Node4</title>
<g id="a_Node000004"><a xlink:href="IStatusIndicator_8hpp.xhtml" target="_top" xlink:title=" ">
<polygon fill="white" stroke="#666666" points="281.75,-74.5 178.75,-74.5 178.75,-55.25 281.75,-55.25 281.75,-74.5"/>
<text text-anchor="middle" x="230.25" y="-61" font-family="Helvetica,sans-Serif" font-size="10.00">IStatusIndicator.hpp</text>
</a>
</g>
</g>
<!-- Node1&#45;&gt;Node4 -->
<g id="edge3_Node000001_Node000004" class="edge">
<title>Node1&#45;&gt;Node4</title>
<g id="a_edge3_Node000001_Node000004"><a xlink:title=" ">
<path fill="none" stroke="#63b8ff" d="M170.03,-110.2C181.85,-101.49 196.89,-90.43 208.97,-81.53"/>
<polygon fill="#63b8ff" stroke="#63b8ff" points="210.72,-84.59 216.7,-75.85 206.57,-78.96 210.72,-84.59"/>
</a>
</g>
</g>
<!-- Node2&#45;&gt;Node3 -->
<g id="edge2_Node000002_Node000003" class="edge">
<title>Node2&#45;&gt;Node3</title>
<g id="a_edge2_Node000002_Node000003"><a xlink:title=" ">
<path fill="none" stroke="#63b8ff" d="M68.52,-55.08C74.53,-47.8 83.26,-37.23 90.71,-28.23"/>
<polygon fill="#63b8ff" stroke="#63b8ff" points="93.19,-30.71 96.86,-20.78 87.79,-26.26 93.19,-30.71"/>
</a>
</g>
</g>
</g>
</svg>
