<?xml version="1.0" encoding="UTF-8" standalone="no"?>
<!DOCTYPE svg PUBLIC "-//W3C//DTD SVG 1.1//EN"
 "http://www.w3.org/Graphics/SVG/1.1/DTD/svg11.dtd">
<!-- Generated by graphviz version 7.0.5 (20221223.1930)
 -->
<!-- Title: lib/application_business_rules/include/statusindicators_factory_interface.hpp Pages: 1 -->
<svg width="210pt" height="126pt"
 viewBox="0.00 0.00 210.00 126.00" xmlns="http://www.w3.org/2000/svg" xmlns:xlink="http://www.w3.org/1999/xlink">
<g id="graph0" class="graph" transform="scale(1 1) rotate(0) translate(4 122)">
<title>lib/application_business_rules/include/statusindicators_factory_interface.hpp</title>
<!-- Node1 -->
<g id="node1" class="node">
<title>Node1</title>
<g id="a_node1"><a xlink:title=" ">
<polygon fill="#999999" stroke="#666666" points="185.5,-118 36.5,-118 36.5,-77 185.5,-77 185.5,-118"/>
<text text-anchor="start" x="44.5" y="-106" font-family="Helvetica,sans-Serif" font-size="10.00">lib/application_business</text>
<text text-anchor="start" x="44.5" y="-95" font-family="Helvetica,sans-Serif" font-size="10.00">_rules/include/statusindicators</text>
<text text-anchor="middle" x="111" y="-84" font-family="Helvetica,sans-Serif" font-size="10.00">_factory_interface.hpp</text>
</a>
</g>
</g>
<!-- Node2 -->
<g id="node2" class="node">
<title>Node2</title>
<g id="a_node2"><a xlink:href="statusindicators__factory__interface_8cpp.xhtml" target="_top" xlink:title=" ">
<polygon fill="white" stroke="#666666" points="112,-41 0,-41 0,0 112,0 112,-41"/>
<text text-anchor="start" x="8" y="-29" font-family="Helvetica,sans-Serif" font-size="10.00">lib/board_adapters</text>
<text text-anchor="start" x="8" y="-18" font-family="Helvetica,sans-Serif" font-size="10.00">/src/statusindicators</text>
<text text-anchor="middle" x="56" y="-7" font-family="Helvetica,sans-Serif" font-size="10.00">_factory_interface.cpp</text>
</a>
</g>
</g>
<!-- Node1&#45;&gt;Node2 -->
<g id="edge1" class="edge">
<title>Node1&#45;&gt;Node2</title>
<path fill="none" stroke="#63b8ff" d="M89.82,-67.62C83.38,-58.83 76.45,-49.38 70.55,-41.33"/>
<polygon fill="#63b8ff" stroke="#63b8ff" points="86.92,-69.58 95.65,-75.57 92.56,-65.44 86.92,-69.58"/>
</g>
<!-- Node3 -->
<g id="node3" class="node">
<title>Node3</title>
<g id="a_node3"><a xlink:href="main_8cpp.xhtml" target="_top" xlink:title=" ">
<polygon fill="white" stroke="#666666" points="202,-30 130,-30 130,-11 202,-11 202,-30"/>
<text text-anchor="middle" x="166" y="-18" font-family="Helvetica,sans-Serif" font-size="10.00">src/main.cpp</text>
</a>
</g>
</g>
<!-- Node1&#45;&gt;Node3 -->
<g id="edge2" class="edge">
<title>Node1&#45;&gt;Node3</title>
<path fill="none" stroke="#63b8ff" d="M132,-67.86C141.83,-54.46 152.84,-39.45 159.59,-30.24"/>
<polygon fill="#63b8ff" stroke="#63b8ff" points="129.44,-65.44 126.35,-75.57 135.08,-69.58 129.44,-65.44"/>
</g>
</g>
</svg>
