<?xml version="1.0" encoding="UTF-8" standalone="no"?>
<!DOCTYPE svg PUBLIC "-//W3C//DTD SVG 1.1//EN"
 "http://www.w3.org/Graphics/SVG/1.1/DTD/svg11.dtd">
<!-- Generated by graphviz version 7.0.5 (20221223.1930)
 -->
<!-- Title: lib/board_adapters/src/statusindicators_factory_interface.cpp Pages: 1 -->
<svg width="371pt" height="225pt"
 viewBox="0.00 0.00 370.50 225.00" xmlns="http://www.w3.org/2000/svg" xmlns:xlink="http://www.w3.org/1999/xlink">
<g id="graph0" class="graph" transform="scale(1 1) rotate(0) translate(4 221)">
<title>lib/board_adapters/src/statusindicators_factory_interface.cpp</title>
<!-- Node1 -->
<g id="node1" class="node">
<title>Node1</title>
<g id="a_node1"><a xlink:title=" ">
<polygon fill="#999999" stroke="#666666" points="253,-217 141,-217 141,-176 253,-176 253,-217"/>
<text text-anchor="start" x="149" y="-205" font-family="Helvetica,sans-Serif" font-size="10.00">lib/board_adapters</text>
<text text-anchor="start" x="149" y="-194" font-family="Helvetica,sans-Serif" font-size="10.00">/src/statusindicators</text>
<text text-anchor="middle" x="197" y="-183" font-family="Helvetica,sans-Serif" font-size="10.00">_factory_interface.cpp</text>
</a>
</g>
</g>
<!-- Node2 -->
<g id="node2" class="node">
<title>Node2</title>
<g id="a_node2"><a xlink:href="statusindicators__factory__interface_8hpp.xhtml" target="_top" xlink:title=" ">
<polygon fill="white" stroke="#666666" points="120,-140 0,-140 0,-110 120,-110 120,-140"/>
<text text-anchor="start" x="8" y="-128" font-family="Helvetica,sans-Serif" font-size="10.00">statusindicators_factory</text>
<text text-anchor="middle" x="60" y="-117" font-family="Helvetica,sans-Serif" font-size="10.00">_interface.hpp</text>
</a>
</g>
</g>
<!-- Node1&#45;&gt;Node2 -->
<g id="edge1" class="edge">
<title>Node1&#45;&gt;Node2</title>
<path fill="none" stroke="#63b8ff" d="M157.74,-175.58C139.15,-166.15 117.02,-154.92 98.52,-145.54"/>
<polygon fill="#63b8ff" stroke="#63b8ff" points="100.23,-142.49 89.73,-141.08 97.07,-148.73 100.23,-142.49"/>
</g>
<!-- Node6 -->
<g id="node6" class="node">
<title>Node6</title>
<g id="a_node6"><a xlink:href="LedStatusIndicator_8hpp.xhtml" target="_top" xlink:title=" ">
<polygon fill="white" stroke="#666666" points="255.5,-134.5 138.5,-134.5 138.5,-115.5 255.5,-115.5 255.5,-134.5"/>
<text text-anchor="middle" x="197" y="-122.5" font-family="Helvetica,sans-Serif" font-size="10.00">LedStatusIndicator.hpp</text>
</a>
</g>
</g>
<!-- Node1&#45;&gt;Node6 -->
<g id="edge5" class="edge">
<title>Node1&#45;&gt;Node6</title>
<path fill="none" stroke="#63b8ff" d="M197,-175.77C197,-166.5 197,-155.46 197,-146.14"/>
<polygon fill="#63b8ff" stroke="#63b8ff" points="200.5,-146.33 197,-136.33 193.5,-146.33 200.5,-146.33"/>
</g>
<!-- Node9 -->
<g id="node9" class="node">
<title>Node9</title>
<g id="a_node9"><a xlink:href="board__config_8hpp.xhtml" target="_top" xlink:title="Provides named objects for the pins provided by the board.">
<polygon fill="white" stroke="#666666" points="362.5,-134.5 273.5,-134.5 273.5,-115.5 362.5,-115.5 362.5,-134.5"/>
<text text-anchor="middle" x="318" y="-122.5" font-family="Helvetica,sans-Serif" font-size="10.00">board_config.hpp</text>
</a>
</g>
</g>
<!-- Node1&#45;&gt;Node9 -->
<g id="edge9" class="edge">
<title>Node1&#45;&gt;Node9</title>
<path fill="none" stroke="#63b8ff" d="M231.67,-175.58C251.17,-164.38 275.08,-150.65 292.78,-140.48"/>
<polygon fill="#63b8ff" stroke="#63b8ff" points="294.17,-143.72 301.1,-135.71 290.68,-137.65 294.17,-143.72"/>
</g>
<!-- Node3 -->
<g id="node3" class="node">
<title>Node3</title>
<g id="a_node3"><a xlink:href="IStatusIndicator_8hpp.xhtml" target="_top" xlink:title=" ">
<polygon fill="white" stroke="#666666" points="243,-74 139,-74 139,-55 243,-55 243,-74"/>
<text text-anchor="middle" x="191" y="-62" font-family="Helvetica,sans-Serif" font-size="10.00">IStatusIndicator.hpp</text>
</a>
</g>
</g>
<!-- Node2&#45;&gt;Node3 -->
<g id="edge2" class="edge">
<title>Node2&#45;&gt;Node3</title>
<path fill="none" stroke="#63b8ff" d="M92.38,-109.54C113.32,-100.19 140.38,-88.1 160.86,-78.96"/>
<polygon fill="#63b8ff" stroke="#63b8ff" points="162.1,-82.24 169.81,-74.96 159.25,-75.85 162.1,-82.24"/>
</g>
<!-- Node4 -->
<g id="node4" class="node">
<title>Node4</title>
<g id="a_node4"><a xlink:href="hmi__configuration_8hpp.xhtml" target="_top" xlink:title=" ">
<polygon fill="white" stroke="#666666" points="115,-74 5,-74 5,-55 115,-55 115,-74"/>
<text text-anchor="middle" x="60" y="-62" font-family="Helvetica,sans-Serif" font-size="10.00">hmi_configuration.hpp</text>
</a>
</g>
</g>
<!-- Node2&#45;&gt;Node4 -->
<g id="edge3" class="edge">
<title>Node2&#45;&gt;Node4</title>
<path fill="none" stroke="#63b8ff" d="M60,-109.54C60,-102.34 60,-93.53 60,-85.68"/>
<polygon fill="#63b8ff" stroke="#63b8ff" points="63.5,-85.69 60,-75.69 56.5,-85.69 63.5,-85.69"/>
</g>
<!-- Node5 -->
<g id="node5" class="node">
<title>Node5</title>
<g id="a_node5"><a xlink:title=" ">
<polygon fill="#e0e0e0" stroke="#999999" points="84.5,-19 35.5,-19 35.5,0 84.5,0 84.5,-19"/>
<text text-anchor="middle" x="60" y="-7" font-family="Helvetica,sans-Serif" font-size="10.00">cstddef</text>
</a>
</g>
</g>
<!-- Node4&#45;&gt;Node5 -->
<g id="edge4" class="edge">
<title>Node4&#45;&gt;Node5</title>
<path fill="none" stroke="#63b8ff" d="M60,-54.75C60,-48.27 60,-39.16 60,-30.9"/>
<polygon fill="#63b8ff" stroke="#63b8ff" points="63.5,-30.96 60,-20.96 56.5,-30.96 63.5,-30.96"/>
</g>
<!-- Node6&#45;&gt;Node3 -->
<g id="edge6" class="edge">
<title>Node6&#45;&gt;Node3</title>
<path fill="none" stroke="#63b8ff" d="M196.11,-115.37C195.31,-107.5 194.09,-95.6 193.04,-85.39"/>
<polygon fill="#63b8ff" stroke="#63b8ff" points="196.55,-85.26 192.04,-75.67 189.58,-85.98 196.55,-85.26"/>
</g>
<!-- Node7 -->
<g id="node7" class="node">
<title>Node7</title>
<g id="a_node7"><a xlink:href="board__types_8hpp.xhtml" target="_top" xlink:title=" ">
<polygon fill="white" stroke="#666666" points="354.5,-74 267.5,-74 267.5,-55 354.5,-55 354.5,-74"/>
<text text-anchor="middle" x="311" y="-62" font-family="Helvetica,sans-Serif" font-size="10.00">board_types.hpp</text>
</a>
</g>
</g>
<!-- Node6&#45;&gt;Node7 -->
<g id="edge7" class="edge">
<title>Node6&#45;&gt;Node7</title>
<path fill="none" stroke="#63b8ff" d="M214.31,-115.12C232.64,-105.71 261.84,-90.72 283.36,-79.68"/>
<polygon fill="#63b8ff" stroke="#63b8ff" points="284.88,-82.84 292.18,-75.16 281.68,-76.61 284.88,-82.84"/>
</g>
<!-- Node8 -->
<g id="node8" class="node">
<title>Node8</title>
<g id="a_node8"><a xlink:title=" ">
<polygon fill="#e0e0e0" stroke="#999999" points="334,-19 288,-19 288,0 334,0 334,-19"/>
<text text-anchor="middle" x="311" y="-7" font-family="Helvetica,sans-Serif" font-size="10.00">cstdint</text>
</a>
</g>
</g>
<!-- Node7&#45;&gt;Node8 -->
<g id="edge8" class="edge">
<title>Node7&#45;&gt;Node8</title>
<path fill="none" stroke="#63b8ff" d="M311,-54.75C311,-48.27 311,-39.16 311,-30.9"/>
<polygon fill="#63b8ff" stroke="#63b8ff" points="314.5,-30.96 311,-20.96 307.5,-30.96 314.5,-30.96"/>
</g>
<!-- Node9&#45;&gt;Node7 -->
<g id="edge10" class="edge">
<title>Node9&#45;&gt;Node7</title>
<path fill="none" stroke="#63b8ff" d="M316.97,-115.37C316.03,-107.5 314.6,-95.6 313.38,-85.39"/>
<polygon fill="#63b8ff" stroke="#63b8ff" points="316.88,-85.18 312.22,-75.67 309.93,-86.02 316.88,-85.18"/>
</g>
</g>
</svg>
