<?xml version="1.0" encoding="UTF-8" standalone="no"?>
<!DOCTYPE svg PUBLIC "-//W3C//DTD SVG 1.1//EN"
 "http://www.w3.org/Graphics/SVG/1.1/DTD/svg11.dtd">
<!-- Generated by graphviz version 9.0.0 (20230911.1827)
 -->
<!-- Title: lib/layer2_hmi/include/statusindicators_factory_interface.hpp Pages: 1 -->
<svg width="238pt" height="160pt"
 viewBox="0.00 0.00 238.38 160.25" xmlns="http://www.w3.org/2000/svg" xmlns:xlink="http://www.w3.org/1999/xlink">
<g id="graph0" class="graph" transform="scale(1 1) rotate(0) translate(4 156.25)">
<title>lib/layer2_hmi/include/statusindicators_factory_interface.hpp</title>
<!-- Node1 -->
<g id="Node000001" class="node">
<title>Node1</title>
<g id="a_Node000001"><a xlink:title=" ">
<polygon fill="#999999" stroke="#666666" points="174.75,-152.25 52.25,-152.25 52.25,-110.5 174.75,-110.5 174.75,-152.25"/>
<text text-anchor="start" x="60.25" y="-138.75" font-family="Helvetica,sans-Serif" font-size="10.00">lib/layer2_hmi/include</text>
<text text-anchor="start" x="60.25" y="-127.5" font-family="Helvetica,sans-Serif" font-size="10.00">/statusindicators_factory</text>
<text text-anchor="middle" x="113.5" y="-116.25" font-family="Helvetica,sans-Serif" font-size="10.00">_interface.hpp</text>
</a>
</g>
</g>
<!-- Node2 -->
<g id="Node000002" class="node">
<title>Node2</title>
<g id="a_Node000002"><a xlink:href="IStatusIndicator_8hpp.xhtml" target="_top" xlink:title=" ">
<polygon fill="white" stroke="#666666" points="103,-74.5 0,-74.5 0,-55.25 103,-55.25 103,-74.5"/>
<text text-anchor="middle" x="51.5" y="-61" font-family="Helvetica,sans-Serif" font-size="10.00">IStatusIndicator.hpp</text>
</a>
</g>
</g>
<!-- Node1&#45;&gt;Node2 -->
<g id="edge1_Node000001_Node000002" class="edge">
<title>Node1&#45;&gt;Node2</title>
<g id="a_edge1_Node000001_Node000002"><a xlink:title=" ">
<path fill="none" stroke="#63b8ff" d="M94.22,-110.32C85.87,-101.63 76.18,-91.55 68.15,-83.19"/>
<polygon fill="#63b8ff" stroke="#63b8ff" points="70.72,-80.82 61.27,-76.04 65.67,-85.67 70.72,-80.82"/>
</a>
</g>
</g>
<!-- Node3 -->
<g id="Node000003" class="node">
<title>Node3</title>
<g id="a_Node000003"><a xlink:href="hmi__configuration_8hpp.xhtml" target="_top" xlink:title=" ">
<polygon fill="white" stroke="#666666" points="230.38,-74.5 120.62,-74.5 120.62,-55.25 230.38,-55.25 230.38,-74.5"/>
<text text-anchor="middle" x="175.5" y="-61" font-family="Helvetica,sans-Serif" font-size="10.00">hmi_configuration.hpp</text>
</a>
</g>
</g>
<!-- Node1&#45;&gt;Node3 -->
<g id="edge2_Node000001_Node000003" class="edge">
<title>Node1&#45;&gt;Node3</title>
<g id="a_edge2_Node000001_Node000003"><a xlink:title=" ">
<path fill="none" stroke="#63b8ff" d="M132.78,-110.32C141.13,-101.63 150.82,-91.55 158.85,-83.19"/>
<polygon fill="#63b8ff" stroke="#63b8ff" points="161.33,-85.67 165.73,-76.04 156.28,-80.82 161.33,-85.67"/>
</a>
</g>
</g>
<!-- Node4 -->
<g id="Node000004" class="node">
<title>Node4</title>
<g id="a_Node000004"><a xlink:title=" ">
<polygon fill="#e0e0e0" stroke="#999999" points="199.62,-19.25 151.38,-19.25 151.38,0 199.62,0 199.62,-19.25"/>
<text text-anchor="middle" x="175.5" y="-5.75" font-family="Helvetica,sans-Serif" font-size="10.00">cstddef</text>
</a>
</g>
</g>
<!-- Node3&#45;&gt;Node4 -->
<g id="edge3_Node000003_Node000004" class="edge">
<title>Node3&#45;&gt;Node4</title>
<g id="a_edge3_Node000003_Node000004"><a xlink:title=" ">
<path fill="none" stroke="#63b8ff" d="M175.5,-55.08C175.5,-48.57 175.5,-39.42 175.5,-31.12"/>
<polygon fill="#63b8ff" stroke="#63b8ff" points="179,-31.12 175.5,-21.12 172,-31.12 179,-31.12"/>
</a>
</g>
</g>
</g>
</svg>
