<?xml version="1.0" encoding="UTF-8" standalone="no"?>
<!DOCTYPE svg PUBLIC "-//W3C//DTD SVG 1.1//EN"
 "http://www.w3.org/Graphics/SVG/1.1/DTD/svg11.dtd">
<!-- Generated by graphviz version 7.0.5 (20221223.1930)
 -->
<!-- Title: lib/enterprise_business_rules/string_helpers.hpp Pages: 1 -->
<svg width="472pt" height="181pt"
 viewBox="0.00 0.00 472.00 181.00" xmlns="http://www.w3.org/2000/svg" xmlns:xlink="http://www.w3.org/1999/xlink">
<g id="graph0" class="graph" transform="scale(1 1) rotate(0) translate(4 177)">
<title>lib/enterprise_business_rules/string_helpers.hpp</title>
<!-- Node1 -->
<g id="node1" class="node">
<title>Node1</title>
<g id="a_node1"><a xlink:title=" ">
<polygon fill="#999999" stroke="#666666" points="325.5,-173 200.5,-173 200.5,-143 325.5,-143 325.5,-173"/>
<text text-anchor="start" x="208.5" y="-161" font-family="Helvetica,sans-Serif" font-size="10.00">lib/enterprise_business</text>
<text text-anchor="middle" x="263" y="-150" font-family="Helvetica,sans-Serif" font-size="10.00">_rules/string_helpers.hpp</text>
</a>
</g>
</g>
<!-- Node2 -->
<g id="node2" class="node">
<title>Node2</title>
<g id="a_node2"><a xlink:href="command__line__interpreter_8hpp.xhtml" target="_top" xlink:title=" ">
<polygon fill="white" stroke="#666666" points="182,-107 60,-107 60,-66 182,-66 182,-107"/>
<text text-anchor="start" x="68" y="-95" font-family="Helvetica,sans-Serif" font-size="10.00">lib/application_business</text>
<text text-anchor="start" x="68" y="-84" font-family="Helvetica,sans-Serif" font-size="10.00">_rules/include/command</text>
<text text-anchor="middle" x="121" y="-73" font-family="Helvetica,sans-Serif" font-size="10.00">_line_interpreter.hpp</text>
</a>
</g>
</g>
<!-- Node1&#45;&gt;Node2 -->
<g id="edge1" class="edge">
<title>Node1&#45;&gt;Node2</title>
<path fill="none" stroke="#63b8ff" d="M223.34,-137.59C204.11,-128.18 181.05,-116.89 161.69,-107.42"/>
<polygon fill="#63b8ff" stroke="#63b8ff" points="221.7,-140.68 232.22,-141.93 224.77,-134.39 221.7,-140.68"/>
</g>
<!-- Node5 -->
<g id="node5" class="node">
<title>Node5</title>
<g id="a_node5"><a xlink:href="string__helpers_8cpp.xhtml" target="_top" xlink:title=" ">
<polygon fill="white" stroke="#666666" points="325.5,-101.5 200.5,-101.5 200.5,-71.5 325.5,-71.5 325.5,-101.5"/>
<text text-anchor="start" x="208.5" y="-89.5" font-family="Helvetica,sans-Serif" font-size="10.00">lib/enterprise_business</text>
<text text-anchor="middle" x="263" y="-78.5" font-family="Helvetica,sans-Serif" font-size="10.00">_rules/string_helpers.cpp</text>
</a>
</g>
</g>
<!-- Node1&#45;&gt;Node5 -->
<g id="edge4" class="edge">
<title>Node1&#45;&gt;Node5</title>
<path fill="none" stroke="#63b8ff" d="M263,-131.26C263,-121.33 263,-110.36 263,-101.88"/>
<polygon fill="#63b8ff" stroke="#63b8ff" points="259.5,-131.09 263,-141.09 266.5,-131.09 259.5,-131.09"/>
</g>
<!-- Node6 -->
<g id="node6" class="node">
<title>Node6</title>
<g id="a_node6"><a xlink:href="test__string__helpers_8cpp.xhtml" target="_top" xlink:title=" ">
<polygon fill="white" stroke="#666666" points="464,-101.5 344,-101.5 344,-71.5 464,-71.5 464,-101.5"/>
<text text-anchor="start" x="352" y="-89.5" font-family="Helvetica,sans-Serif" font-size="10.00">test/test_string_helpers</text>
<text text-anchor="middle" x="404" y="-78.5" font-family="Helvetica,sans-Serif" font-size="10.00">/test_string_helpers.cpp</text>
</a>
</g>
</g>
<!-- Node1&#45;&gt;Node6 -->
<g id="edge5" class="edge">
<title>Node1&#45;&gt;Node6</title>
<path fill="none" stroke="#63b8ff" d="M302.34,-137.61C325.33,-126.28 353.85,-112.22 374.82,-101.88"/>
<polygon fill="#63b8ff" stroke="#63b8ff" points="301,-134.37 293.57,-141.93 304.09,-140.65 301,-134.37"/>
</g>
<!-- Node3 -->
<g id="node3" class="node">
<title>Node3</title>
<g id="a_node3"><a xlink:href="Protocol_8cpp.xhtml" target="_top" xlink:title=" ">
<polygon fill="white" stroke="#666666" points="120,-30 0,-30 0,0 120,0 120,-30"/>
<text text-anchor="start" x="8" y="-18" font-family="Helvetica,sans-Serif" font-size="10.00">lib/application_business</text>
<text text-anchor="middle" x="60" y="-7" font-family="Helvetica,sans-Serif" font-size="10.00">_rules/src/Protocol.cpp</text>
</a>
</g>
</g>
<!-- Node2&#45;&gt;Node3 -->
<g id="edge2" class="edge">
<title>Node2&#45;&gt;Node3</title>
<path fill="none" stroke="#63b8ff" d="M96.19,-57.24C88.13,-48.05 79.51,-38.22 72.7,-30.47"/>
<polygon fill="#63b8ff" stroke="#63b8ff" points="93.46,-59.43 102.68,-64.63 98.72,-54.81 93.46,-59.43"/>
</g>
<!-- Node4 -->
<g id="node4" class="node">
<title>Node4</title>
<g id="a_node4"><a xlink:href="test__cli_8cpp.xhtml" target="_top" xlink:title=" ">
<polygon fill="white" stroke="#666666" points="225.5,-30 138.5,-30 138.5,0 225.5,0 225.5,-30"/>
<text text-anchor="start" x="146.5" y="-18" font-family="Helvetica,sans-Serif" font-size="10.00">test/test_cli/test</text>
<text text-anchor="middle" x="182" y="-7" font-family="Helvetica,sans-Serif" font-size="10.00">_cli.cpp</text>
</a>
</g>
</g>
<!-- Node2&#45;&gt;Node4 -->
<g id="edge3" class="edge">
<title>Node2&#45;&gt;Node4</title>
<path fill="none" stroke="#63b8ff" d="M145.81,-57.24C153.87,-48.05 162.49,-38.22 169.3,-30.47"/>
<polygon fill="#63b8ff" stroke="#63b8ff" points="143.28,-54.81 139.32,-64.63 148.54,-59.43 143.28,-54.81"/>
</g>
</g>
</svg>
