<?xml version="1.0" encoding="UTF-8" standalone="no"?>
<!DOCTYPE svg PUBLIC "-//W3C//DTD SVG 1.1//EN"
 "http://www.w3.org/Graphics/SVG/1.1/DTD/svg11.dtd">
<!-- Generated by graphviz version 7.0.5 (20221223.1930)
 -->
<!-- Title: Display::Configuration Pages: 1 -->
<svg width="295pt" height="137pt"
 viewBox="0.00 0.00 294.50 137.00" xmlns="http://www.w3.org/2000/svg" xmlns:xlink="http://www.w3.org/1999/xlink">
<g id="graph0" class="graph" transform="scale(1 1) rotate(0) translate(4 133)">
<title>Display::Configuration</title>
<!-- Node1 -->
<g id="node1" class="node">
<title>Node1</title>
<g id="a_node1"><a xlink:title=" ">
<polygon fill="#999999" stroke="#666666" points="140.5,-30 28.5,-30 28.5,0 140.5,0 140.5,-30"/>
<text text-anchor="middle" x="84.5" y="-18" font-family="Helvetica,sans-Serif" font-size="10.00">{Display::Configuration</text>
<text text-anchor="middle" x="84.5" y="-7" font-family="Helvetica,sans-Serif" font-size="10.00">||}</text>
</a>
</g>
</g>
<!-- Node2 -->
<g id="node2" class="node">
<title>Node2</title>
<g id="a_node2"><a xlink:title=" ">
<polygon fill="white" stroke="#666666" points="49,-129 0,-129 0,-99 49,-99 49,-129"/>
<text text-anchor="middle" x="24.5" y="-117" font-family="Helvetica,sans-Serif" font-size="10.00">{uint8_t</text>
<text text-anchor="middle" x="24.5" y="-106" font-family="Helvetica,sans-Serif" font-size="10.00">||}</text>
</a>
</g>
</g>
<!-- Node2&#45;&gt;Node1 -->
<g id="edge1" class="edge">
<title>Node2&#45;&gt;Node1</title>
<path fill="none" stroke="#404040" d="M20.82,-98.69C18.07,-84.71 16.2,-63.35 25.5,-48 27.73,-44.31 30.55,-41.02 33.75,-38.09"/>
<polygon fill="none" stroke="#404040" points="33.84,-38.02 36.29,-31.23 43.49,-30.88 41.05,-37.66 33.84,-38.02"/>
<text text-anchor="middle" x="74" y="-73" font-family="Helvetica,sans-Serif" font-size="10.00"> +display_i2c_address</text>
<text text-anchor="middle" x="74" y="-62" font-family="Helvetica,sans-Serif" font-size="10.00">+screen_height</text>
<text text-anchor="middle" x="74" y="-51" font-family="Helvetica,sans-Serif" font-size="10.00">+screen_width</text>
</g>
<!-- Node3 -->
<g id="node3" class="node">
<title>Node3</title>
<g id="a_node3"><a xlink:title=" ">
<polygon fill="white" stroke="#666666" points="163.5,-129 125.5,-129 125.5,-99 163.5,-99 163.5,-129"/>
<text text-anchor="middle" x="144.5" y="-117" font-family="Helvetica,sans-Serif" font-size="10.00">{bool</text>
<text text-anchor="middle" x="144.5" y="-106" font-family="Helvetica,sans-Serif" font-size="10.00">||}</text>
</a>
</g>
</g>
<!-- Node3&#45;&gt;Node1 -->
<g id="edge2" class="edge">
<title>Node3&#45;&gt;Node1</title>
<path fill="none" stroke="#404040" d="M141.96,-98.55C139,-84.67 133.11,-63.55 122.5,-48 120.29,-44.76 117.66,-41.65 114.83,-38.75"/>
<polygon fill="none" stroke="#404040" points="114.95,-38.85 107.82,-37.78 106.07,-30.79 113.2,-31.86 114.95,-38.85"/>
<text text-anchor="middle" x="211.5" y="-62" font-family="Helvetica,sans-Serif" font-size="10.00"> +generateDisplayVoltageInternally</text>
</g>
</g>
</svg>
