<?xml version="1.0" encoding="UTF-8" standalone="no"?>
<!DOCTYPE svg PUBLIC "-//W3C//DTD SVG 1.1//EN"
 "http://www.w3.org/Graphics/SVG/1.1/DTD/svg11.dtd">
<!-- Generated by graphviz version 7.0.5 (20221223.1930)
 -->
<!-- Title: lib/utilities/Arduino&#45;wrapper.h Pages: 1 -->
<svg width="375pt" height="115pt"
 viewBox="0.00 0.00 375.00 115.00" xmlns="http://www.w3.org/2000/svg" xmlns:xlink="http://www.w3.org/1999/xlink">
<g id="graph0" class="graph" transform="scale(1 1) rotate(0) translate(4 111)">
<title>lib/utilities/Arduino&#45;wrapper.h</title>
<!-- Node1 -->
<g id="node1" class="node">
<title>Node1</title>
<g id="a_node1"><a xlink:title="Circumvents problematic processor macros defined by Arduino framework.">
<polygon fill="#999999" stroke="#666666" points="243.5,-107 147.5,-107 147.5,-77 243.5,-77 243.5,-107"/>
<text text-anchor="start" x="155.5" y="-95" font-family="Helvetica,sans-Serif" font-size="10.00">lib/utilities/Arduino</text>
<text text-anchor="middle" x="195.5" y="-84" font-family="Helvetica,sans-Serif" font-size="10.00">&#45;wrapper.h</text>
</a>
</g>
</g>
<!-- Node2 -->
<g id="node2" class="node">
<title>Node2</title>
<g id="a_node2"><a xlink:href="Keypad_8cpp.xhtml" target="_top" xlink:title=" ">
<polygon fill="white" stroke="#666666" points="117,-41 0,-41 0,0 117,0 117,-41"/>
<text text-anchor="start" x="8" y="-29" font-family="Helvetica,sans-Serif" font-size="10.00">lib/board_adapters</text>
<text text-anchor="start" x="8" y="-18" font-family="Helvetica,sans-Serif" font-size="10.00">/input_device_interface</text>
<text text-anchor="middle" x="58.5" y="-7" font-family="Helvetica,sans-Serif" font-size="10.00">/Keypad.cpp</text>
</a>
</g>
</g>
<!-- Node1&#45;&gt;Node2 -->
<g id="edge1" class="edge">
<title>Node1&#45;&gt;Node2</title>
<path fill="none" stroke="#63b8ff" d="M156.98,-71.46C138.48,-62.07 116.35,-50.85 97.76,-41.42"/>
<polygon fill="#63b8ff" stroke="#63b8ff" points="155.26,-74.51 165.76,-75.91 158.43,-68.27 155.26,-74.51"/>
</g>
<!-- Node3 -->
<g id="node3" class="node">
<title>Node3</title>
<g id="a_node3"><a xlink:href="sound__output_8cpp.xhtml" target="_top" xlink:title=" ">
<polygon fill="white" stroke="#666666" points="256,-41 135,-41 135,0 256,0 256,-41"/>
<text text-anchor="start" x="143" y="-29" font-family="Helvetica,sans-Serif" font-size="10.00">lib/board_adapters</text>
<text text-anchor="start" x="143" y="-18" font-family="Helvetica,sans-Serif" font-size="10.00">/sound_output_interface</text>
<text text-anchor="middle" x="195.5" y="-7" font-family="Helvetica,sans-Serif" font-size="10.00">/sound_output.cpp</text>
</a>
</g>
</g>
<!-- Node1&#45;&gt;Node3 -->
<g id="edge2" class="edge">
<title>Node1&#45;&gt;Node3</title>
<path fill="none" stroke="#63b8ff" d="M195.5,-65.36C195.5,-57.45 195.5,-48.87 195.5,-41.42"/>
<polygon fill="#63b8ff" stroke="#63b8ff" points="192,-65.09 195.5,-75.09 199,-65.09 192,-65.09"/>
</g>
<!-- Node4 -->
<g id="node4" class="node">
<title>Node4</title>
<g id="a_node4"><a xlink:href="test__hmi_8cpp.xhtml" target="_top" xlink:title=" ">
<polygon fill="white" stroke="#666666" points="367,-35.5 274,-35.5 274,-5.5 367,-5.5 367,-35.5"/>
<text text-anchor="start" x="282" y="-23.5" font-family="Helvetica,sans-Serif" font-size="10.00">test/test_hmi/test</text>
<text text-anchor="middle" x="320.5" y="-12.5" font-family="Helvetica,sans-Serif" font-size="10.00">_hmi.cpp</text>
</a>
</g>
</g>
<!-- Node1&#45;&gt;Node4 -->
<g id="edge3" class="edge">
<title>Node1&#45;&gt;Node4</title>
<path fill="none" stroke="#63b8ff" d="M231.21,-71.15C251.44,-59.9 276.29,-46.08 294.63,-35.88"/>
<polygon fill="#63b8ff" stroke="#63b8ff" points="229.76,-67.95 222.72,-75.86 233.16,-74.06 229.76,-67.95"/>
</g>
</g>
</svg>
