<?xml version="1.0" encoding="UTF-8" standalone="no"?>
<!DOCTYPE svg PUBLIC "-//W3C//DTD SVG 1.1//EN"
 "http://www.w3.org/Graphics/SVG/1.1/DTD/svg11.dtd">
<!-- Generated by graphviz version 7.0.5 (20221223.1930)
 -->
<!-- Title: lib/utilities/Arduino&#45;wrapper.h Pages: 1 -->
<svg width="264pt" height="115pt"
 viewBox="0.00 0.00 264.00 115.00" xmlns="http://www.w3.org/2000/svg" xmlns:xlink="http://www.w3.org/1999/xlink">
<g id="graph0" class="graph" transform="scale(1 1) rotate(0) translate(4 111)">
<title>lib/utilities/Arduino&#45;wrapper.h</title>
<!-- Node1 -->
<g id="node1" class="node">
<title>Node1</title>
<g id="a_node1"><a xlink:title=" ">
<polygon fill="#999999" stroke="#666666" points="174.5,-107 78.5,-107 78.5,-77 174.5,-77 174.5,-107"/>
<text text-anchor="start" x="86.5" y="-95" font-family="Helvetica,sans-Serif" font-size="10.00">lib/utilities/Arduino</text>
<text text-anchor="middle" x="126.5" y="-84" font-family="Helvetica,sans-Serif" font-size="10.00">&#45;wrapper.h</text>
</a>
</g>
</g>
<!-- Node2 -->
<g id="node2" class="node">
<title>Node2</title>
<g id="a_node2"><a xlink:href="Keypad_8cpp.xhtml" target="_top" xlink:title=" ">
<polygon fill="white" stroke="#666666" points="117,-41 0,-41 0,0 117,0 117,-41"/>
<text text-anchor="start" x="8" y="-29" font-family="Helvetica,sans-Serif" font-size="10.00">lib/board_adapters</text>
<text text-anchor="start" x="8" y="-18" font-family="Helvetica,sans-Serif" font-size="10.00">/input_device_interface</text>
<text text-anchor="middle" x="58.5" y="-7" font-family="Helvetica,sans-Serif" font-size="10.00">/Keypad.cpp</text>
</a>
</g>
</g>
<!-- Node1&#45;&gt;Node2 -->
<g id="edge1" class="edge">
<title>Node1&#45;&gt;Node2</title>
<path fill="none" stroke="#63b8ff" d="M104.38,-68.39C95.87,-59.69 86.23,-49.84 77.99,-41.42"/>
<polygon fill="#63b8ff" stroke="#63b8ff" points="101.86,-70.82 111.35,-75.52 106.86,-65.92 101.86,-70.82"/>
</g>
<!-- Node3 -->
<g id="node3" class="node">
<title>Node3</title>
<g id="a_node3"><a xlink:href="sound__output_8cpp.xhtml" target="_top" xlink:title=" ">
<polygon fill="white" stroke="#666666" points="256,-41 135,-41 135,0 256,0 256,-41"/>
<text text-anchor="start" x="143" y="-29" font-family="Helvetica,sans-Serif" font-size="10.00">lib/board_adapters</text>
<text text-anchor="start" x="143" y="-18" font-family="Helvetica,sans-Serif" font-size="10.00">/sound_output_interface</text>
<text text-anchor="middle" x="195.5" y="-7" font-family="Helvetica,sans-Serif" font-size="10.00">/sound_output.cpp</text>
</a>
</g>
</g>
<!-- Node1&#45;&gt;Node3 -->
<g id="edge2" class="edge">
<title>Node1&#45;&gt;Node3</title>
<path fill="none" stroke="#63b8ff" d="M148.68,-68.66C157.38,-59.9 167.28,-49.93 175.73,-41.42"/>
<polygon fill="#63b8ff" stroke="#63b8ff" points="146.42,-65.96 141.86,-75.53 151.39,-70.89 146.42,-65.96"/>
</g>
</g>
</svg>
