<?xml version="1.0" encoding="UTF-8" standalone="no"?>
<!DOCTYPE svg PUBLIC "-//W3C//DTD SVG 1.1//EN"
 "http://www.w3.org/Graphics/SVG/1.1/DTD/svg11.dtd">
<!-- Generated by graphviz version 9.0.0 (20230911.1827)
 -->
<!-- Title: lib/layer3_board/include/board_types.hpp Pages: 1 -->
<svg width="542pt" height="272pt"
 viewBox="0.00 0.00 541.75 271.75" xmlns="http://www.w3.org/2000/svg" xmlns:xlink="http://www.w3.org/1999/xlink">
<g id="graph0" class="graph" transform="scale(1 1) rotate(0) translate(4 267.75)">
<title>lib/layer3_board/include/board_types.hpp</title>
<!-- Node1 -->
<g id="Node000001" class="node">
<title>Node1</title>
<g id="a_Node000001"><a xlink:title=" ">
<polygon fill="#999999" stroke="#666666" points="386.38,-263.75 269.12,-263.75 269.12,-233.25 386.38,-233.25 386.38,-263.75"/>
<text text-anchor="start" x="277.12" y="-250.25" font-family="Helvetica,sans-Serif" font-size="10.00">lib/layer3_board/include</text>
<text text-anchor="middle" x="327.75" y="-239" font-family="Helvetica,sans-Serif" font-size="10.00">/board_types.hpp</text>
</a>
</g>
</g>
<!-- Node2 -->
<g id="Node000002" class="node">
<title>Node2</title>
<g id="a_Node000002"><a xlink:href="LedStatusIndicator_8hpp.xhtml" target="_top" xlink:title=" ">
<polygon fill="white" stroke="#666666" points="258.5,-191.62 139,-191.62 139,-161.12 258.5,-161.12 258.5,-191.62"/>
<text text-anchor="start" x="147" y="-178.12" font-family="Helvetica,sans-Serif" font-size="10.00">lib/layer3_board/src</text>
<text text-anchor="middle" x="198.75" y="-166.88" font-family="Helvetica,sans-Serif" font-size="10.00">/LedStatusIndicator.hpp</text>
</a>
</g>
</g>
<!-- Node1&#45;&gt;Node2 -->
<g id="edge1_Node000001_Node000002" class="edge">
<title>Node1&#45;&gt;Node2</title>
<g id="a_edge1_Node000001_Node000002"><a xlink:title=" ">
<path fill="none" stroke="#63b8ff" d="M290.66,-227.34C269.94,-216.07 244.58,-202.29 225.76,-192.06"/>
<polygon fill="#63b8ff" stroke="#63b8ff" points="288.92,-230.38 299.38,-232.08 292.26,-224.23 288.92,-230.38"/>
</a>
</g>
</g>
<!-- Node5 -->
<g id="Node000005" class="node">
<title>Node5</title>
<g id="a_Node000005"><a xlink:href="board__config_8hpp.xhtml" target="_top" xlink:title="Provides named objects for the pins provided by the board.">
<polygon fill="white" stroke="#666666" points="377.75,-191.62 277.75,-191.62 277.75,-161.12 377.75,-161.12 377.75,-191.62"/>
<text text-anchor="start" x="285.75" y="-178.12" font-family="Helvetica,sans-Serif" font-size="10.00">lib/layer3_board/src</text>
<text text-anchor="middle" x="327.75" y="-166.88" font-family="Helvetica,sans-Serif" font-size="10.00">/board_config.hpp</text>
</a>
</g>
</g>
<!-- Node1&#45;&gt;Node5 -->
<g id="edge4_Node000001_Node000005" class="edge">
<title>Node1&#45;&gt;Node5</title>
<g id="a_edge4_Node000001_Node000005"><a xlink:title=" ">
<path fill="none" stroke="#63b8ff" d="M327.75,-221.52C327.75,-211.51 327.75,-200.44 327.75,-191.89"/>
<polygon fill="#63b8ff" stroke="#63b8ff" points="324.25,-221.46 327.75,-231.46 331.25,-221.46 324.25,-221.46"/>
</a>
</g>
</g>
<!-- Node11 -->
<g id="Node000011" class="node">
<title>Node11</title>
<g id="a_Node000011"><a xlink:href="framework__config_8cpp.xhtml" target="_top" xlink:title=" ">
<polygon fill="white" stroke="#666666" points="525.75,-197.25 395.75,-197.25 395.75,-155.5 525.75,-155.5 525.75,-197.25"/>
<text text-anchor="start" x="403.75" y="-183.75" font-family="Helvetica,sans-Serif" font-size="10.00">lib/layer4_drivers</text>
<text text-anchor="start" x="403.75" y="-172.5" font-family="Helvetica,sans-Serif" font-size="10.00">_libraries_adapters</text>
<text text-anchor="middle" x="460.75" y="-161.25" font-family="Helvetica,sans-Serif" font-size="10.00">/src/framework_config.cpp</text>
</a>
</g>
</g>
<!-- Node1&#45;&gt;Node11 -->
<g id="edge12_Node000001_Node000011" class="edge">
<title>Node1&#45;&gt;Node11</title>
<g id="a_edge12_Node000001_Node000011"><a xlink:title=" ">
<path fill="none" stroke="#63b8ff" d="M365.64,-227.52C383.39,-218.16 404.5,-207.03 422.31,-197.64"/>
<polygon fill="#63b8ff" stroke="#63b8ff" points="364.18,-224.33 356.97,-232.09 367.45,-230.53 364.18,-224.33"/>
</a>
</g>
</g>
<!-- Node3 -->
<g id="Node000003" class="node">
<title>Node3</title>
<g id="a_Node000003"><a xlink:href="LedStatusIndicator_8cpp.xhtml" target="_top" xlink:title=" ">
<polygon fill="white" stroke="#666666" points="119.5,-108.25 0,-108.25 0,-77.75 119.5,-77.75 119.5,-108.25"/>
<text text-anchor="start" x="8" y="-94.75" font-family="Helvetica,sans-Serif" font-size="10.00">lib/layer3_board/src</text>
<text text-anchor="middle" x="59.75" y="-83.5" font-family="Helvetica,sans-Serif" font-size="10.00">/LedStatusIndicator.cpp</text>
</a>
</g>
</g>
<!-- Node2&#45;&gt;Node3 -->
<g id="edge2_Node000002_Node000003" class="edge">
<title>Node2&#45;&gt;Node3</title>
<g id="a_edge2_Node000002_Node000003"><a xlink:title=" ">
<path fill="none" stroke="#63b8ff" d="M163.89,-154.97C139.25,-140.54 106.82,-121.55 84.73,-108.63"/>
<polygon fill="#63b8ff" stroke="#63b8ff" points="161.87,-157.84 172.27,-159.87 165.41,-151.8 161.87,-157.84"/>
</a>
</g>
</g>
<!-- Node4 -->
<g id="Node000004" class="node">
<title>Node4</title>
<g id="a_Node000004"><a xlink:href="statusindicators__factory__interface_8cpp.xhtml" target="_top" xlink:title=" ">
<polygon fill="white" stroke="#666666" points="260,-113.88 137.5,-113.88 137.5,-72.12 260,-72.12 260,-113.88"/>
<text text-anchor="start" x="145.5" y="-100.38" font-family="Helvetica,sans-Serif" font-size="10.00">lib/layer3_board/src</text>
<text text-anchor="start" x="145.5" y="-89.12" font-family="Helvetica,sans-Serif" font-size="10.00">/statusindicators_factory</text>
<text text-anchor="middle" x="198.75" y="-77.88" font-family="Helvetica,sans-Serif" font-size="10.00">_interface.cpp</text>
</a>
</g>
</g>
<!-- Node2&#45;&gt;Node4 -->
<g id="edge3_Node000002_Node000004" class="edge">
<title>Node2&#45;&gt;Node4</title>
<g id="a_edge3_Node000002_Node000004"><a xlink:title=" ">
<path fill="none" stroke="#63b8ff" d="M198.75,-149.38C198.75,-138 198.75,-124.86 198.75,-114.23"/>
<polygon fill="#63b8ff" stroke="#63b8ff" points="195.25,-149.31 198.75,-159.31 202.25,-149.31 195.25,-149.31"/>
</a>
</g>
</g>
<!-- Node5&#45;&gt;Node4 -->
<g id="edge10_Node000005_Node000004" class="edge">
<title>Node5&#45;&gt;Node4</title>
<g id="a_edge10_Node000005_Node000004"><a xlink:title=" ">
<path fill="none" stroke="#63b8ff" d="M294.9,-154.65C275.18,-142.21 250.22,-126.47 230.67,-114.14"/>
<polygon fill="#63b8ff" stroke="#63b8ff" points="292.78,-157.46 303.11,-159.83 296.52,-151.54 292.78,-157.46"/>
</a>
</g>
</g>
<!-- Node6 -->
<g id="Node000006" class="node">
<title>Node6</title>
<g id="a_Node000006"><a xlink:href="Keypad_8hpp.xhtml" target="_top" xlink:title=" ">
<polygon fill="white" stroke="#666666" points="377.75,-108.25 277.75,-108.25 277.75,-77.75 377.75,-77.75 377.75,-108.25"/>
<text text-anchor="start" x="285.75" y="-94.75" font-family="Helvetica,sans-Serif" font-size="10.00">lib/layer3_board/src</text>
<text text-anchor="middle" x="327.75" y="-83.5" font-family="Helvetica,sans-Serif" font-size="10.00">/Keypad.hpp</text>
</a>
</g>
</g>
<!-- Node5&#45;&gt;Node6 -->
<g id="edge5_Node000005_Node000006" class="edge">
<title>Node5&#45;&gt;Node6</title>
<g id="a_edge5_Node000005_Node000006"><a xlink:title=" ">
<path fill="none" stroke="#63b8ff" d="M327.75,-149.38C327.75,-135.93 327.75,-120.01 327.75,-108.7"/>
<polygon fill="#63b8ff" stroke="#63b8ff" points="324.25,-149.31 327.75,-159.31 331.25,-149.31 324.25,-149.31"/>
</a>
</g>
</g>
<!-- Node8 -->
<g id="Node000008" class="node">
<title>Node8</title>
<g id="a_Node000008"><a xlink:href="keypad__factory__interface_8cpp.xhtml" target="_top" xlink:title=" ">
<polygon fill="white" stroke="#666666" points="509.25,-30.5 364.25,-30.5 364.25,0 509.25,0 509.25,-30.5"/>
<text text-anchor="start" x="372.25" y="-17" font-family="Helvetica,sans-Serif" font-size="10.00">lib/layer3_board/src</text>
<text text-anchor="middle" x="436.75" y="-5.75" font-family="Helvetica,sans-Serif" font-size="10.00">/keypad_factory_interface.cpp</text>
</a>
</g>
</g>
<!-- Node5&#45;&gt;Node8 -->
<g id="edge9_Node000005_Node000008" class="edge">
<title>Node5&#45;&gt;Node8</title>
<g id="a_edge9_Node000005_Node000008"><a xlink:title=" ">
<path fill="none" stroke="#63b8ff" d="M355.14,-153.22C365.89,-143.62 377.77,-131.77 386.75,-119.5 407.8,-90.73 423.86,-51.71 431.62,-30.85"/>
<polygon fill="#63b8ff" stroke="#63b8ff" points="352.89,-150.54 347.62,-159.73 357.47,-155.83 352.89,-150.54"/>
</a>
</g>
</g>
<!-- Node10 -->
<g id="Node000010" class="node">
<title>Node10</title>
<g id="a_Node000010"><a xlink:href="display__factory__interface_8cpp.xhtml" target="_top" xlink:title=" ">
<polygon fill="white" stroke="#666666" points="533.75,-119.5 433.75,-119.5 433.75,-66.5 533.75,-66.5 533.75,-119.5"/>
<text text-anchor="start" x="441.75" y="-106" font-family="Helvetica,sans-Serif" font-size="10.00">lib/layer4_drivers</text>
<text text-anchor="start" x="441.75" y="-94.75" font-family="Helvetica,sans-Serif" font-size="10.00">_libraries_adapters</text>
<text text-anchor="start" x="441.75" y="-83.5" font-family="Helvetica,sans-Serif" font-size="10.00">/src/display_factory</text>
<text text-anchor="middle" x="483.75" y="-72.25" font-family="Helvetica,sans-Serif" font-size="10.00">_interface.cpp</text>
</a>
</g>
</g>
<!-- Node5&#45;&gt;Node10 -->
<g id="edge11_Node000005_Node000010" class="edge">
<title>Node5&#45;&gt;Node10</title>
<g id="a_edge11_Node000005_Node000010"><a xlink:title=" ">
<path fill="none" stroke="#63b8ff" d="M366.2,-155.32C386.64,-144.66 412,-131.42 433.94,-119.98"/>
<polygon fill="#63b8ff" stroke="#63b8ff" points="364.59,-152.21 357.34,-159.94 367.83,-158.42 364.59,-152.21"/>
</a>
</g>
</g>
<!-- Node7 -->
<g id="Node000007" class="node">
<title>Node7</title>
<g id="a_Node000007"><a xlink:href="Keypad_8cpp.xhtml" target="_top" xlink:title=" ">
<polygon fill="white" stroke="#666666" points="227.75,-30.5 127.75,-30.5 127.75,0 227.75,0 227.75,-30.5"/>
<text text-anchor="start" x="135.75" y="-17" font-family="Helvetica,sans-Serif" font-size="10.00">lib/layer3_board/src</text>
<text text-anchor="middle" x="177.75" y="-5.75" font-family="Helvetica,sans-Serif" font-size="10.00">/Keypad.cpp</text>
</a>
</g>
</g>
<!-- Node6&#45;&gt;Node7 -->
<g id="edge6_Node000006_Node000007" class="edge">
<title>Node6&#45;&gt;Node7</title>
<g id="a_edge6_Node000006_Node000007"><a xlink:title=" ">
<path fill="none" stroke="#63b8ff" d="M288.7,-72.28C263.09,-59.35 230.15,-42.71 206.84,-30.94"/>
<polygon fill="#63b8ff" stroke="#63b8ff" points="286.97,-75.33 297.48,-76.71 290.13,-69.08 286.97,-75.33"/>
</a>
</g>
</g>
<!-- Node6&#45;&gt;Node8 -->
<g id="edge7_Node000006_Node000008" class="edge">
<title>Node6&#45;&gt;Node8</title>
<g id="a_edge7_Node000006_Node000008"><a xlink:title=" ">
<path fill="none" stroke="#63b8ff" d="M358.16,-70.87C376.52,-58.1 399.45,-42.17 415.8,-30.81"/>
<polygon fill="#63b8ff" stroke="#63b8ff" points="356.22,-67.95 350.01,-76.53 360.22,-73.7 356.22,-67.95"/>
</a>
</g>
</g>
<!-- Node9 -->
<g id="Node000009" class="node">
<title>Node9</title>
<g id="a_Node000009"><a xlink:href="test__board_8cpp.xhtml" target="_top" xlink:title=" ">
<polygon fill="white" stroke="#666666" points="346.12,-30.5 245.38,-30.5 245.38,0 346.12,0 346.12,-30.5"/>
<text text-anchor="start" x="253.38" y="-17" font-family="Helvetica,sans-Serif" font-size="10.00">test/test_board/test</text>
<text text-anchor="middle" x="295.75" y="-5.75" font-family="Helvetica,sans-Serif" font-size="10.00">_board.cpp</text>
</a>
</g>
</g>
<!-- Node6&#45;&gt;Node9 -->
<g id="edge8_Node000006_Node000009" class="edge">
<title>Node6&#45;&gt;Node9</title>
<g id="a_edge8_Node000006_Node000009"><a xlink:title=" ">
<path fill="none" stroke="#63b8ff" d="M317.22,-67.08C312.15,-55.06 306.23,-41.07 301.9,-30.81"/>
<polygon fill="#63b8ff" stroke="#63b8ff" points="313.88,-68.15 320.99,-76 320.32,-65.43 313.88,-68.15"/>
</a>
</g>
</g>
</g>
</svg>
