<?xml version="1.0" encoding="UTF-8" standalone="no"?>
<!DOCTYPE svg PUBLIC "-//W3C//DTD SVG 1.1//EN"
 "http://www.w3.org/Graphics/SVG/1.1/DTD/svg11.dtd">
<!-- Generated by graphviz version 7.0.5 (20221223.1930)
 -->
<!-- Title: lib/application_business_rules/board_interface.hpp Pages: 1 -->
<svg width="595pt" height="192pt"
 viewBox="0.00 0.00 594.50 192.00" xmlns="http://www.w3.org/2000/svg" xmlns:xlink="http://www.w3.org/1999/xlink">
<g id="graph0" class="graph" transform="scale(1 1) rotate(0) translate(4 188)">
<title>lib/application_business_rules/board_interface.hpp</title>
<!-- Node1 -->
<g id="node1" class="node">
<title>Node1</title>
<g id="a_node1"><a xlink:title=" ">
<polygon fill="#999999" stroke="#666666" points="312,-184 181,-184 181,-154 312,-154 312,-184"/>
<text text-anchor="start" x="189" y="-172" font-family="Helvetica,sans-Serif" font-size="10.00">lib/application_business</text>
<text text-anchor="middle" x="246.5" y="-161" font-family="Helvetica,sans-Serif" font-size="10.00">_rules/board_interface.hpp</text>
</a>
</g>
</g>
<!-- Node2 -->
<g id="node2" class="node">
<title>Node2</title>
<g id="a_node2"><a xlink:href="HmiCoordinator_8cpp.xhtml" target="_top" xlink:title=" ">
<polygon fill="white" stroke="#666666" points="131,-112.5 0,-112.5 0,-82.5 131,-82.5 131,-112.5"/>
<text text-anchor="start" x="8" y="-100.5" font-family="Helvetica,sans-Serif" font-size="10.00">lib/application_business</text>
<text text-anchor="middle" x="65.5" y="-89.5" font-family="Helvetica,sans-Serif" font-size="10.00">_rules/HmiCoordinator.cpp</text>
</a>
</g>
</g>
<!-- Node1&#45;&gt;Node2 -->
<g id="edge1" class="edge">
<title>Node1&#45;&gt;Node2</title>
<path fill="none" stroke="#63b8ff" d="M198.38,-149.52C168.48,-138.04 130.61,-123.5 102.96,-112.88"/>
<polygon fill="#63b8ff" stroke="#63b8ff" points="196.99,-152.74 207.58,-153.06 199.5,-146.2 196.99,-152.74"/>
</g>
<!-- Node3 -->
<g id="node3" class="node">
<title>Node3</title>
<g id="a_node3"><a xlink:href="board_8cpp.xhtml" target="_top" xlink:title=" ">
<polygon fill="white" stroke="#666666" points="207.5,-35.5 111.5,-35.5 111.5,-5.5 207.5,-5.5 207.5,-35.5"/>
<text text-anchor="start" x="119.5" y="-23.5" font-family="Helvetica,sans-Serif" font-size="10.00">lib/board_adapters</text>
<text text-anchor="middle" x="159.5" y="-12.5" font-family="Helvetica,sans-Serif" font-size="10.00">/board.cpp</text>
</a>
</g>
</g>
<!-- Node1&#45;&gt;Node3 -->
<g id="edge2" class="edge">
<title>Node1&#45;&gt;Node3</title>
<path fill="none" stroke="#63b8ff" d="M208.9,-147.19C197.89,-139.38 186.86,-129.55 179.5,-118 163.14,-92.31 159.86,-55.69 159.38,-35.76"/>
<polygon fill="#63b8ff" stroke="#63b8ff" points="206.93,-150.08 217.2,-152.68 210.79,-144.25 206.93,-150.08"/>
</g>
<!-- Node4 -->
<g id="node4" class="node">
<title>Node4</title>
<g id="a_node4"><a xlink:href="input__devices_8hpp.xhtml" target="_top" xlink:title=" ">
<polygon fill="white" stroke="#666666" points="305,-118 188,-118 188,-77 305,-77 305,-118"/>
<text text-anchor="start" x="196" y="-106" font-family="Helvetica,sans-Serif" font-size="10.00">lib/board_adapters</text>
<text text-anchor="start" x="196" y="-95" font-family="Helvetica,sans-Serif" font-size="10.00">/input_device_interface</text>
<text text-anchor="middle" x="246.5" y="-84" font-family="Helvetica,sans-Serif" font-size="10.00">/input_devices.hpp</text>
</a>
</g>
</g>
<!-- Node1&#45;&gt;Node4 -->
<g id="edge3" class="edge">
<title>Node1&#45;&gt;Node4</title>
<path fill="none" stroke="#63b8ff" d="M246.5,-142.36C246.5,-134.45 246.5,-125.87 246.5,-118.42"/>
<polygon fill="#63b8ff" stroke="#63b8ff" points="243,-142.09 246.5,-152.09 250,-142.09 243,-142.09"/>
</g>
<!-- Node6 -->
<g id="node6" class="node">
<title>Node6</title>
<g id="a_node6"><a xlink:href="sound__output_8cpp.xhtml" target="_top" xlink:title=" ">
<polygon fill="white" stroke="#666666" points="444,-118 323,-118 323,-77 444,-77 444,-118"/>
<text text-anchor="start" x="331" y="-106" font-family="Helvetica,sans-Serif" font-size="10.00">lib/board_adapters</text>
<text text-anchor="start" x="331" y="-95" font-family="Helvetica,sans-Serif" font-size="10.00">/sound_output_interface</text>
<text text-anchor="middle" x="383.5" y="-84" font-family="Helvetica,sans-Serif" font-size="10.00">/sound_output.cpp</text>
</a>
</g>
</g>
<!-- Node1&#45;&gt;Node6 -->
<g id="edge6" class="edge">
<title>Node1&#45;&gt;Node6</title>
<path fill="none" stroke="#63b8ff" d="M285.02,-148.46C303.52,-139.07 325.65,-127.85 344.24,-118.42"/>
<polygon fill="#63b8ff" stroke="#63b8ff" points="283.57,-145.27 276.24,-152.91 286.74,-151.51 283.57,-145.27"/>
</g>
<!-- Node7 -->
<g id="node7" class="node">
<title>Node7</title>
<g id="a_node7"><a xlink:href="status__indicators_8cpp.xhtml" target="_top" xlink:title=" ">
<polygon fill="white" stroke="#666666" points="586.5,-118 462.5,-118 462.5,-77 586.5,-77 586.5,-118"/>
<text text-anchor="start" x="470.5" y="-106" font-family="Helvetica,sans-Serif" font-size="10.00">lib/board_adapters</text>
<text text-anchor="start" x="470.5" y="-95" font-family="Helvetica,sans-Serif" font-size="10.00">/status_indicators/status</text>
<text text-anchor="middle" x="524.5" y="-84" font-family="Helvetica,sans-Serif" font-size="10.00">_indicators.cpp</text>
</a>
</g>
</g>
<!-- Node1&#45;&gt;Node7 -->
<g id="edge7" class="edge">
<title>Node1&#45;&gt;Node7</title>
<path fill="none" stroke="#63b8ff" d="M319.84,-150.87C359.49,-141.46 409.26,-129.42 453.5,-118 456.35,-117.27 459.26,-116.51 462.19,-115.73"/>
<polygon fill="#63b8ff" stroke="#63b8ff" points="319.07,-147.46 310.14,-153.17 320.68,-154.27 319.07,-147.46"/>
</g>
<!-- Node4&#45;&gt;Node3 -->
<g id="edge4" class="edge">
<title>Node4&#45;&gt;Node3</title>
<path fill="none" stroke="#63b8ff" d="M215.26,-69.57C202.05,-58.18 187.21,-45.39 176.16,-35.86"/>
<polygon fill="#63b8ff" stroke="#63b8ff" points="212.64,-71.93 222.5,-75.81 217.21,-66.63 212.64,-71.93"/>
</g>
<!-- Node5 -->
<g id="node5" class="node">
<title>Node5</title>
<g id="a_node5"><a xlink:href="input__devices_8cpp.xhtml" target="_top" xlink:title=" ">
<polygon fill="white" stroke="#666666" points="343,-41 226,-41 226,0 343,0 343,-41"/>
<text text-anchor="start" x="234" y="-29" font-family="Helvetica,sans-Serif" font-size="10.00">lib/board_adapters</text>
<text text-anchor="start" x="234" y="-18" font-family="Helvetica,sans-Serif" font-size="10.00">/input_device_interface</text>
<text text-anchor="middle" x="284.5" y="-7" font-family="Helvetica,sans-Serif" font-size="10.00">/input_devices.cpp</text>
</a>
</g>
</g>
<!-- Node4&#45;&gt;Node5 -->
<g id="edge5" class="edge">
<title>Node4&#45;&gt;Node5</title>
<path fill="none" stroke="#63b8ff" d="M261.56,-66.78C265.89,-58.23 270.5,-49.12 274.45,-41.33"/>
<polygon fill="#63b8ff" stroke="#63b8ff" points="258.57,-64.94 257.17,-75.44 264.81,-68.11 258.57,-64.94"/>
</g>
</g>
</svg>
