<?xml version="1.0" encoding="UTF-8" standalone="no"?>
<!DOCTYPE svg PUBLIC "-//W3C//DTD SVG 1.1//EN"
 "http://www.w3.org/Graphics/SVG/1.1/DTD/svg11.dtd">
<!-- Generated by graphviz version 7.0.5 (20221223.1930)
 -->
<!-- Title: lib/board_adapters/board.cpp Pages: 1 -->
<svg width="579pt" height="203pt"
 viewBox="0.00 0.00 579.00 203.00" xmlns="http://www.w3.org/2000/svg" xmlns:xlink="http://www.w3.org/1999/xlink">
<g id="graph0" class="graph" transform="scale(1 1) rotate(0) translate(4 199)">
<title>lib/board_adapters/board.cpp</title>
<!-- Node1 -->
<g id="node1" class="node">
<title>Node1</title>
<g id="a_node1"><a xlink:title=" ">
<polygon fill="#999999" stroke="#666666" points="367.5,-195 271.5,-195 271.5,-165 367.5,-165 367.5,-195"/>
<text text-anchor="start" x="279.5" y="-183" font-family="Helvetica,sans-Serif" font-size="10.00">lib/board_adapters</text>
<text text-anchor="middle" x="319.5" y="-172" font-family="Helvetica,sans-Serif" font-size="10.00">/board.cpp</text>
</a>
</g>
</g>
<!-- Node2 -->
<g id="node2" class="node">
<title>Node2</title>
<g id="a_node2"><a xlink:href="board_8hpp.xhtml" target="_top" xlink:title="This is a Proxy header.">
<polygon fill="white" stroke="#666666" points="91,-129 32,-129 32,-110 91,-110 91,-129"/>
<text text-anchor="middle" x="61.5" y="-117" font-family="Helvetica,sans-Serif" font-size="10.00">board.hpp</text>
</a>
</g>
</g>
<!-- Node1&#45;&gt;Node2 -->
<g id="edge1" class="edge">
<title>Node1&#45;&gt;Node2</title>
<path fill="none" stroke="#63b8ff" d="M271.27,-168.07C222.6,-157.03 148.26,-140.17 102.39,-129.77"/>
<polygon fill="#63b8ff" stroke="#63b8ff" points="103.37,-126.41 92.85,-127.61 101.83,-133.23 103.37,-126.41"/>
</g>
<!-- Node5 -->
<g id="node5" class="node">
<title>Node5</title>
<g id="a_node5"><a xlink:title=" ">
<polygon fill="#e0e0e0" stroke="#999999" points="155,-19 96,-19 96,0 155,0 155,-19"/>
<text text-anchor="middle" x="125.5" y="-7" font-family="Helvetica,sans-Serif" font-size="10.00">functional</text>
</a>
</g>
</g>
<!-- Node1&#45;&gt;Node5 -->
<g id="edge9" class="edge">
<title>Node1&#45;&gt;Node5</title>
<path fill="none" stroke="#63b8ff" d="M271.12,-177.95C232.38,-174.41 179.54,-163.06 148.5,-129 123.87,-101.97 122.13,-56.72 123.52,-30.66"/>
<polygon fill="#63b8ff" stroke="#63b8ff" points="127,-31.02 124.28,-20.78 120.02,-30.48 127,-31.02"/>
</g>
<!-- Node6 -->
<g id="node6" class="node">
<title>Node6</title>
<g id="a_node6"><a xlink:href="board__pins_8hpp.xhtml" target="_top" xlink:title="Provides named objects for the pins provided by the board.">
<polygon fill="white" stroke="#666666" points="239.5,-129 157.5,-129 157.5,-110 239.5,-110 239.5,-129"/>
<text text-anchor="middle" x="198.5" y="-117" font-family="Helvetica,sans-Serif" font-size="10.00">board_pins.hpp</text>
</a>
</g>
</g>
<!-- Node1&#45;&gt;Node6 -->
<g id="edge5" class="edge">
<title>Node1&#45;&gt;Node6</title>
<path fill="none" stroke="#63b8ff" d="M289.59,-164.54C270.52,-155.32 245.94,-143.44 227.13,-134.34"/>
<polygon fill="#63b8ff" stroke="#63b8ff" points="228.69,-131.21 218.16,-130 225.64,-137.51 228.69,-131.21"/>
</g>
<!-- Node8 -->
<g id="node8" class="node">
<title>Node8</title>
<g id="a_node8"><a xlink:title=" ">
<polygon fill="#e0e0e0" stroke="#999999" points="315,-129 258,-129 258,-110 315,-110 315,-129"/>
<text text-anchor="middle" x="286.5" y="-117" font-family="Helvetica,sans-Serif" font-size="10.00">Arduino.h</text>
</a>
</g>
</g>
<!-- Node1&#45;&gt;Node8 -->
<g id="edge7" class="edge">
<title>Node1&#45;&gt;Node8</title>
<path fill="none" stroke="#63b8ff" d="M311.34,-164.54C306.99,-156.82 301.59,-147.24 296.93,-138.99"/>
<polygon fill="#63b8ff" stroke="#63b8ff" points="300.1,-137.48 292.14,-130.49 294,-140.92 300.1,-137.48"/>
</g>
<!-- Node9 -->
<g id="node9" class="node">
<title>Node9</title>
<g id="a_node9"><a xlink:title=" ">
<polygon fill="#e0e0e0" stroke="#999999" points="371.5,-129 333.5,-129 333.5,-110 371.5,-110 371.5,-129"/>
<text text-anchor="middle" x="352.5" y="-117" font-family="Helvetica,sans-Serif" font-size="10.00">array</text>
</a>
</g>
</g>
<!-- Node1&#45;&gt;Node9 -->
<g id="edge8" class="edge">
<title>Node1&#45;&gt;Node9</title>
<path fill="none" stroke="#63b8ff" d="M327.66,-164.54C332.01,-156.82 337.41,-147.24 342.07,-138.99"/>
<polygon fill="#63b8ff" stroke="#63b8ff" points="345,-140.92 346.86,-130.49 338.9,-137.48 345,-140.92"/>
</g>
<!-- Node10 -->
<g id="node10" class="node">
<title>Node10</title>
<g id="a_node10"><a xlink:title=" ">
<polygon fill="#e0e0e0" stroke="#999999" points="437,-129 390,-129 390,-110 437,-110 437,-129"/>
<text text-anchor="middle" x="413.5" y="-117" font-family="Helvetica,sans-Serif" font-size="10.00">iterator</text>
</a>
</g>
</g>
<!-- Node1&#45;&gt;Node10 -->
<g id="edge10" class="edge">
<title>Node1&#45;&gt;Node10</title>
<path fill="none" stroke="#63b8ff" d="M342.74,-164.54C357,-155.66 375.22,-144.32 389.6,-135.37"/>
<polygon fill="#63b8ff" stroke="#63b8ff" points="391.36,-138.4 398,-130.15 387.66,-132.46 391.36,-138.4"/>
</g>
<!-- Node11 -->
<g id="node11" class="node">
<title>Node11</title>
<g id="a_node11"><a xlink:title=" ">
<polygon fill="#e0e0e0" stroke="#999999" points="514,-129 455,-129 455,-110 514,-110 514,-129"/>
<text text-anchor="middle" x="484.5" y="-117" font-family="Helvetica,sans-Serif" font-size="10.00">stdexcept</text>
</a>
</g>
</g>
<!-- Node1&#45;&gt;Node11 -->
<g id="edge11" class="edge">
<title>Node1&#45;&gt;Node11</title>
<path fill="none" stroke="#63b8ff" d="M360.29,-164.54C387.51,-154.89 422.95,-142.32 449.01,-133.08"/>
<polygon fill="#63b8ff" stroke="#63b8ff" points="449.87,-136.49 458.12,-129.85 447.53,-129.89 449.87,-136.49"/>
</g>
<!-- Node12 -->
<g id="node12" class="node">
<title>Node12</title>
<g id="a_node12"><a xlink:title=" ">
<polygon fill="#e0e0e0" stroke="#999999" points="571,-129 532,-129 532,-110 571,-110 571,-129"/>
<text text-anchor="middle" x="551.5" y="-117" font-family="Helvetica,sans-Serif" font-size="10.00">utility</text>
</a>
</g>
</g>
<!-- Node1&#45;&gt;Node12 -->
<g id="edge12" class="edge">
<title>Node1&#45;&gt;Node12</title>
<path fill="none" stroke="#63b8ff" d="M367.92,-167.92C406.86,-158.82 463.23,-145.27 520.56,-129.7"/>
<polygon fill="#63b8ff" stroke="#63b8ff" points="521.47,-133.08 530.19,-127.07 519.62,-126.33 521.47,-133.08"/>
</g>
<!-- Node3 -->
<g id="node3" class="node">
<title>Node3</title>
<g id="a_node3"><a xlink:href="board__interface_8hpp.xhtml" target="_top" xlink:title=" ">
<polygon fill="white" stroke="#666666" points="101,-74 0,-74 0,-55 101,-55 101,-74"/>
<text text-anchor="middle" x="50.5" y="-62" font-family="Helvetica,sans-Serif" font-size="10.00">board_interface.hpp</text>
</a>
</g>
</g>
<!-- Node2&#45;&gt;Node3 -->
<g id="edge2" class="edge">
<title>Node2&#45;&gt;Node3</title>
<path fill="none" stroke="#63b8ff" d="M59.68,-109.75C58.32,-103.19 56.4,-93.95 54.67,-85.6"/>
<polygon fill="#63b8ff" stroke="#63b8ff" points="58.12,-85 52.66,-75.92 51.27,-86.43 58.12,-85"/>
</g>
<!-- Node4 -->
<g id="node4" class="node">
<title>Node4</title>
<g id="a_node4"><a xlink:title=" ">
<polygon fill="#e0e0e0" stroke="#999999" points="73.5,-19 27.5,-19 27.5,0 73.5,0 73.5,-19"/>
<text text-anchor="middle" x="50.5" y="-7" font-family="Helvetica,sans-Serif" font-size="10.00">chrono</text>
</a>
</g>
</g>
<!-- Node3&#45;&gt;Node4 -->
<g id="edge3" class="edge">
<title>Node3&#45;&gt;Node4</title>
<path fill="none" stroke="#63b8ff" d="M50.5,-54.75C50.5,-48.27 50.5,-39.16 50.5,-30.9"/>
<polygon fill="#63b8ff" stroke="#63b8ff" points="54,-30.96 50.5,-20.96 47,-30.96 54,-30.96"/>
</g>
<!-- Node3&#45;&gt;Node5 -->
<g id="edge4" class="edge">
<title>Node3&#45;&gt;Node5</title>
<path fill="none" stroke="#63b8ff" d="M63.22,-54.51C74.28,-46.7 90.54,-35.21 103.67,-25.93"/>
<polygon fill="#63b8ff" stroke="#63b8ff" points="105.58,-28.86 111.73,-20.23 101.54,-23.14 105.58,-28.86"/>
</g>
<!-- Node7 -->
<g id="node7" class="node">
<title>Node7</title>
<g id="a_node7"><a xlink:title=" ">
<polygon fill="#e0e0e0" stroke="#999999" points="221.5,-74 175.5,-74 175.5,-55 221.5,-55 221.5,-74"/>
<text text-anchor="middle" x="198.5" y="-62" font-family="Helvetica,sans-Serif" font-size="10.00">cstdint</text>
</a>
</g>
</g>
<!-- Node6&#45;&gt;Node7 -->
<g id="edge6" class="edge">
<title>Node6&#45;&gt;Node7</title>
<path fill="none" stroke="#63b8ff" d="M198.5,-109.75C198.5,-103.27 198.5,-94.16 198.5,-85.9"/>
<polygon fill="#63b8ff" stroke="#63b8ff" points="202,-85.96 198.5,-75.96 195,-85.96 202,-85.96"/>
</g>
</g>
</svg>
