<?xml version="1.0" encoding="UTF-8" standalone="no"?>
<!DOCTYPE svg PUBLIC "-//W3C//DTD SVG 1.1//EN"
 "http://www.w3.org/Graphics/SVG/1.1/DTD/svg11.dtd">
<!-- Generated by graphviz version 9.0.0 (20230911.1827)
 -->
<!-- Title: lib/layer3_board/src/board_config.hpp Pages: 1 -->
<svg width="569pt" height="194pt"
 viewBox="0.00 0.00 569.00 194.00" xmlns="http://www.w3.org/2000/svg" xmlns:xlink="http://www.w3.org/1999/xlink">
<g id="graph0" class="graph" transform="scale(1 1) rotate(0) translate(4 190)">
<title>lib/layer3_board/src/board_config.hpp</title>
<!-- Node1 -->
<g id="Node000001" class="node">
<title>Node1</title>
<g id="a_Node000001"><a xlink:title="Provides named objects for the pins provided by the board.">
<polygon fill="#999999" stroke="#666666" points="387,-186 287,-186 287,-155.5 387,-155.5 387,-186"/>
<text text-anchor="start" x="295" y="-172.5" font-family="Helvetica,sans-Serif" font-size="10.00">lib/layer3_board/src</text>
<text text-anchor="middle" x="337" y="-161.25" font-family="Helvetica,sans-Serif" font-size="10.00">/board_config.hpp</text>
</a>
</g>
</g>
<!-- Node2 -->
<g id="Node000002" class="node">
<title>Node2</title>
<g id="a_Node000002"><a xlink:href="Keypad_8hpp.xhtml" target="_top" xlink:title=" ">
<polygon fill="white" stroke="#666666" points="249,-108.25 149,-108.25 149,-77.75 249,-77.75 249,-108.25"/>
<text text-anchor="start" x="157" y="-94.75" font-family="Helvetica,sans-Serif" font-size="10.00">lib/layer3_board/src</text>
<text text-anchor="middle" x="199" y="-83.5" font-family="Helvetica,sans-Serif" font-size="10.00">/Keypad.hpp</text>
</a>
</g>
</g>
<!-- Node1&#45;&gt;Node2 -->
<g id="edge1_Node000001_Node000002" class="edge">
<title>Node1&#45;&gt;Node2</title>
<g id="a_edge1_Node000001_Node000002"><a xlink:title=" ">
<path fill="none" stroke="#63b8ff" d="M300.41,-149.67C276.86,-136.74 246.79,-120.23 225.53,-108.56"/>
<polygon fill="#63b8ff" stroke="#63b8ff" points="298.62,-152.67 309.07,-154.42 301.98,-146.54 298.62,-152.67"/>
</a>
</g>
</g>
<!-- Node4 -->
<g id="Node000004" class="node">
<title>Node4</title>
<g id="a_Node000004"><a xlink:href="keypad__factory__interface_8cpp.xhtml" target="_top" xlink:title=" ">
<polygon fill="white" stroke="#666666" points="381.5,-30.5 236.5,-30.5 236.5,0 381.5,0 381.5,-30.5"/>
<text text-anchor="start" x="244.5" y="-17" font-family="Helvetica,sans-Serif" font-size="10.00">lib/layer3_board/src</text>
<text text-anchor="middle" x="309" y="-5.75" font-family="Helvetica,sans-Serif" font-size="10.00">/keypad_factory_interface.cpp</text>
</a>
</g>
</g>
<!-- Node1&#45;&gt;Node4 -->
<g id="edge5_Node000001_Node000004" class="edge">
<title>Node1&#45;&gt;Node4</title>
<g id="a_edge5_Node000001_Node000004"><a xlink:title=" ">
<path fill="none" stroke="#63b8ff" d="M322.06,-145.04C318.03,-137.16 314.18,-128.21 312,-119.5 304.29,-88.71 305.81,-51.14 307.48,-30.88"/>
<polygon fill="#63b8ff" stroke="#63b8ff" points="318.93,-146.61 326.81,-153.69 325.07,-143.24 318.93,-146.61"/>
</a>
</g>
</g>
<!-- Node6 -->
<g id="Node000006" class="node">
<title>Node6</title>
<g id="a_Node000006"><a xlink:href="statusindicators__factory__interface_8cpp.xhtml" target="_top" xlink:title=" ">
<polygon fill="white" stroke="#666666" points="443.25,-113.88 320.75,-113.88 320.75,-72.12 443.25,-72.12 443.25,-113.88"/>
<text text-anchor="start" x="328.75" y="-100.38" font-family="Helvetica,sans-Serif" font-size="10.00">lib/layer3_board/src</text>
<text text-anchor="start" x="328.75" y="-89.12" font-family="Helvetica,sans-Serif" font-size="10.00">/statusindicators_factory</text>
<text text-anchor="middle" x="382" y="-77.88" font-family="Helvetica,sans-Serif" font-size="10.00">_interface.cpp</text>
</a>
</g>
</g>
<!-- Node1&#45;&gt;Node6 -->
<g id="edge6_Node000001_Node000006" class="edge">
<title>Node1&#45;&gt;Node6</title>
<g id="a_edge6_Node000001_Node000006"><a xlink:title=" ">
<path fill="none" stroke="#63b8ff" d="M351.49,-145.36C357.45,-135.33 364.27,-123.85 369.95,-114.29"/>
<polygon fill="#63b8ff" stroke="#63b8ff" points="348.55,-143.46 346.45,-153.84 354.57,-147.03 348.55,-143.46"/>
</a>
</g>
</g>
<!-- Node7 -->
<g id="Node000007" class="node">
<title>Node7</title>
<g id="a_Node000007"><a xlink:href="display__factory__interface_8cpp.xhtml" target="_top" xlink:title=" ">
<polygon fill="white" stroke="#666666" points="561,-119.5 461,-119.5 461,-66.5 561,-66.5 561,-119.5"/>
<text text-anchor="start" x="469" y="-106" font-family="Helvetica,sans-Serif" font-size="10.00">lib/layer4_drivers</text>
<text text-anchor="start" x="469" y="-94.75" font-family="Helvetica,sans-Serif" font-size="10.00">_libraries_adapters</text>
<text text-anchor="start" x="469" y="-83.5" font-family="Helvetica,sans-Serif" font-size="10.00">/src/display_factory</text>
<text text-anchor="middle" x="511" y="-72.25" font-family="Helvetica,sans-Serif" font-size="10.00">_interface.cpp</text>
</a>
</g>
</g>
<!-- Node1&#45;&gt;Node7 -->
<g id="edge7_Node000001_Node000007" class="edge">
<title>Node1&#45;&gt;Node7</title>
<g id="a_edge7_Node000001_Node000007"><a xlink:title=" ">
<path fill="none" stroke="#63b8ff" d="M380.91,-150.64C405.2,-140.06 435.5,-126.87 460.74,-115.88"/>
<polygon fill="#63b8ff" stroke="#63b8ff" points="379.71,-147.34 371.94,-154.54 382.5,-153.76 379.71,-147.34"/>
</a>
</g>
</g>
<!-- Node3 -->
<g id="Node000003" class="node">
<title>Node3</title>
<g id="a_Node000003"><a xlink:href="Keypad_8cpp.xhtml" target="_top" xlink:title=" ">
<polygon fill="white" stroke="#666666" points="100,-30.5 0,-30.5 0,0 100,0 100,-30.5"/>
<text text-anchor="start" x="8" y="-17" font-family="Helvetica,sans-Serif" font-size="10.00">lib/layer3_board/src</text>
<text text-anchor="middle" x="50" y="-5.75" font-family="Helvetica,sans-Serif" font-size="10.00">/Keypad.cpp</text>
</a>
</g>
</g>
<!-- Node2&#45;&gt;Node3 -->
<g id="edge2_Node000002_Node000003" class="edge">
<title>Node2&#45;&gt;Node3</title>
<g id="a_edge2_Node000002_Node000003"><a xlink:title=" ">
<path fill="none" stroke="#63b8ff" d="M160.21,-72.28C134.77,-59.35 102.06,-42.71 78.89,-30.94"/>
<polygon fill="#63b8ff" stroke="#63b8ff" points="158.42,-75.3 168.92,-76.71 161.59,-69.06 158.42,-75.3"/>
</a>
</g>
</g>
<!-- Node2&#45;&gt;Node4 -->
<g id="edge3_Node000002_Node000004" class="edge">
<title>Node2&#45;&gt;Node4</title>
<g id="a_edge3_Node000002_Node000004"><a xlink:title=" ">
<path fill="none" stroke="#63b8ff" d="M229.69,-70.87C248.22,-58.1 271.36,-42.17 287.86,-30.81"/>
<polygon fill="#63b8ff" stroke="#63b8ff" points="227.71,-67.98 221.46,-76.54 231.68,-73.75 227.71,-67.98"/>
</a>
</g>
</g>
<!-- Node5 -->
<g id="Node000005" class="node">
<title>Node5</title>
<g id="a_Node000005"><a xlink:href="test__board_8cpp.xhtml" target="_top" xlink:title=" ">
<polygon fill="white" stroke="#666666" points="218.38,-30.5 117.62,-30.5 117.62,0 218.38,0 218.38,-30.5"/>
<text text-anchor="start" x="125.62" y="-17" font-family="Helvetica,sans-Serif" font-size="10.00">test/test_board/test</text>
<text text-anchor="middle" x="168" y="-5.75" font-family="Helvetica,sans-Serif" font-size="10.00">_board.cpp</text>
</a>
</g>
</g>
<!-- Node2&#45;&gt;Node5 -->
<g id="edge4_Node000002_Node000005" class="edge">
<title>Node2&#45;&gt;Node5</title>
<g id="a_edge4_Node000002_Node000005"><a xlink:title=" ">
<path fill="none" stroke="#63b8ff" d="M188.8,-67.08C183.88,-55.06 178.16,-41.07 173.96,-30.81"/>
<polygon fill="#63b8ff" stroke="#63b8ff" points="185.42,-68.06 192.45,-75.99 191.9,-65.41 185.42,-68.06"/>
</a>
</g>
</g>
</g>
</svg>
