<?xml version="1.0" encoding="UTF-8" standalone="no"?>
<!DOCTYPE svg PUBLIC "-//W3C//DTD SVG 1.1//EN"
 "http://www.w3.org/Graphics/SVG/1.1/DTD/svg11.dtd">
<!-- Generated by graphviz version 7.0.5 (20221223.1930)
 -->
<!-- Title: lib/board_adapters/board.cpp Pages: 1 -->
<svg width="436pt" height="225pt"
 viewBox="0.00 0.00 435.50 225.00" xmlns="http://www.w3.org/2000/svg" xmlns:xlink="http://www.w3.org/1999/xlink">
<g id="graph0" class="graph" transform="scale(1 1) rotate(0) translate(4 221)">
<title>lib/board_adapters/board.cpp</title>
<!-- Node1 -->
<g id="node1" class="node">
<title>Node1</title>
<g id="a_node1"><a xlink:title=" ">
<polygon fill="#999999" stroke="#666666" points="233,-217 137,-217 137,-187 233,-187 233,-217"/>
<text text-anchor="start" x="145" y="-205" font-family="Helvetica,sans-Serif" font-size="10.00">lib/board_adapters</text>
<text text-anchor="middle" x="185" y="-194" font-family="Helvetica,sans-Serif" font-size="10.00">/board.cpp</text>
</a>
</g>
</g>
<!-- Node2 -->
<g id="node2" class="node">
<title>Node2</title>
<g id="a_node2"><a xlink:href="input__devices_8hpp.xhtml" target="_top" xlink:title=" ">
<polygon fill="white" stroke="#666666" points="114,-151 0,-151 0,-121 114,-121 114,-151"/>
<text text-anchor="start" x="8" y="-139" font-family="Helvetica,sans-Serif" font-size="10.00">input_device_interface</text>
<text text-anchor="middle" x="57" y="-128" font-family="Helvetica,sans-Serif" font-size="10.00">/input_devices.hpp</text>
</a>
</g>
</g>
<!-- Node1&#45;&gt;Node2 -->
<g id="edge1" class="edge">
<title>Node1&#45;&gt;Node2</title>
<path fill="none" stroke="#63b8ff" d="M156.27,-186.64C138.41,-177.7 115.2,-166.1 95.72,-156.36"/>
<polygon fill="#63b8ff" stroke="#63b8ff" points="97.49,-153.33 86.98,-151.99 94.36,-159.59 97.49,-153.33"/>
</g>
<!-- Node3 -->
<g id="node3" class="node">
<title>Node3</title>
<g id="a_node3"><a xlink:href="board__interface_8hpp.xhtml" target="_top" xlink:title=" ">
<polygon fill="white" stroke="#666666" points="155.5,-85 42.5,-85 42.5,-55 155.5,-55 155.5,-85"/>
<text text-anchor="start" x="50.5" y="-73" font-family="Helvetica,sans-Serif" font-size="10.00">user_interaction/board</text>
<text text-anchor="middle" x="99" y="-62" font-family="Helvetica,sans-Serif" font-size="10.00">_interface.hpp</text>
</a>
</g>
</g>
<!-- Node1&#45;&gt;Node3 -->
<g id="edge7" class="edge">
<title>Node1&#45;&gt;Node3</title>
<path fill="none" stroke="#63b8ff" d="M175.47,-186.59C160.81,-164.43 132.57,-121.75 114.82,-94.91"/>
<polygon fill="#63b8ff" stroke="#63b8ff" points="117.85,-93.14 109.41,-86.74 112.01,-97.01 117.85,-93.14"/>
</g>
<!-- Node6 -->
<g id="node6" class="node">
<title>Node6</title>
<g id="a_node6"><a xlink:href="sound__output_8hpp.xhtml" target="_top" xlink:title=" ">
<polygon fill="white" stroke="#666666" points="288,-151 170,-151 170,-121 288,-121 288,-151"/>
<text text-anchor="start" x="178" y="-139" font-family="Helvetica,sans-Serif" font-size="10.00">sound_output_interface</text>
<text text-anchor="middle" x="229" y="-128" font-family="Helvetica,sans-Serif" font-size="10.00">/sound_output.hpp</text>
</a>
</g>
</g>
<!-- Node1&#45;&gt;Node6 -->
<g id="edge5" class="edge">
<title>Node1&#45;&gt;Node6</title>
<path fill="none" stroke="#63b8ff" d="M194.77,-186.8C200.06,-179.09 206.75,-169.37 212.8,-160.56"/>
<polygon fill="#63b8ff" stroke="#63b8ff" points="215.62,-162.63 218.4,-152.41 209.86,-158.67 215.62,-162.63"/>
</g>
<!-- Node7 -->
<g id="node7" class="node">
<title>Node7</title>
<g id="a_node7"><a xlink:href="status__indicators_8hpp.xhtml" target="_top" xlink:title=" ">
<polygon fill="white" stroke="#666666" points="427.5,-151 306.5,-151 306.5,-121 427.5,-121 427.5,-151"/>
<text text-anchor="start" x="314.5" y="-139" font-family="Helvetica,sans-Serif" font-size="10.00">status_indicators/status</text>
<text text-anchor="middle" x="367" y="-128" font-family="Helvetica,sans-Serif" font-size="10.00">_indicators.hpp</text>
</a>
</g>
</g>
<!-- Node1&#45;&gt;Node7 -->
<g id="edge6" class="edge">
<title>Node1&#45;&gt;Node7</title>
<path fill="none" stroke="#63b8ff" d="M225.84,-186.64C252.33,-177.32 287.06,-165.11 315.44,-155.13"/>
<polygon fill="#63b8ff" stroke="#63b8ff" points="316.28,-158.55 324.55,-151.93 313.95,-151.94 316.28,-158.55"/>
</g>
<!-- Node2&#45;&gt;Node3 -->
<g id="edge2" class="edge">
<title>Node2&#45;&gt;Node3</title>
<path fill="none" stroke="#63b8ff" d="M66.32,-120.8C71.38,-113.09 77.76,-103.37 83.54,-94.56"/>
<polygon fill="#63b8ff" stroke="#63b8ff" points="86.31,-96.71 88.87,-86.43 80.46,-92.87 86.31,-96.71"/>
</g>
<!-- Node4 -->
<g id="node4" class="node">
<title>Node4</title>
<g id="a_node4"><a xlink:title=" ">
<polygon fill="#e0e0e0" stroke="#999999" points="87,-19 41,-19 41,0 87,0 87,-19"/>
<text text-anchor="middle" x="64" y="-7" font-family="Helvetica,sans-Serif" font-size="10.00">chrono</text>
</a>
</g>
</g>
<!-- Node3&#45;&gt;Node4 -->
<g id="edge3" class="edge">
<title>Node3&#45;&gt;Node4</title>
<path fill="none" stroke="#63b8ff" d="M90.35,-54.54C85.73,-46.82 80,-37.24 75.06,-28.99"/>
<polygon fill="#63b8ff" stroke="#63b8ff" points="78.11,-27.26 69.97,-20.47 72.1,-30.85 78.11,-27.26"/>
</g>
<!-- Node5 -->
<g id="node5" class="node">
<title>Node5</title>
<g id="a_node5"><a xlink:title=" ">
<polygon fill="#e0e0e0" stroke="#999999" points="164.5,-19 105.5,-19 105.5,0 164.5,0 164.5,-19"/>
<text text-anchor="middle" x="135" y="-7" font-family="Helvetica,sans-Serif" font-size="10.00">functional</text>
</a>
</g>
</g>
<!-- Node3&#45;&gt;Node5 -->
<g id="edge4" class="edge">
<title>Node3&#45;&gt;Node5</title>
<path fill="none" stroke="#63b8ff" d="M107.9,-54.54C112.7,-46.74 118.68,-37.03 123.79,-28.71"/>
<polygon fill="#63b8ff" stroke="#63b8ff" points="126.61,-30.82 128.87,-20.46 120.65,-27.15 126.61,-30.82"/>
</g>
</g>
</svg>
