<?xml version="1.0" encoding="UTF-8" standalone="no"?>
<!DOCTYPE svg PUBLIC "-//W3C//DTD SVG 1.1//EN"
 "http://www.w3.org/Graphics/SVG/1.1/DTD/svg11.dtd">
<!-- Generated by graphviz version 7.0.5 (20221223.1930)
 -->
<!-- Title: lib/board_adapters/board.cpp Pages: 1 -->
<svg width="672pt" height="203pt"
 viewBox="0.00 0.00 672.43 203.00" xmlns="http://www.w3.org/2000/svg" xmlns:xlink="http://www.w3.org/1999/xlink">
<g id="graph0" class="graph" transform="scale(1 1) rotate(0) translate(4 199)">
<title>lib/board_adapters/board.cpp</title>
<!-- Node1 -->
<g id="node1" class="node">
<title>Node1</title>
<g id="a_node1"><a xlink:title=" ">
<polygon fill="#999999" stroke="#666666" points="379.93,-195 283.93,-195 283.93,-165 379.93,-165 379.93,-195"/>
<text text-anchor="start" x="291.93" y="-183" font-family="Helvetica,sans-Serif" font-size="10.00">lib/board_adapters</text>
<text text-anchor="middle" x="331.93" y="-172" font-family="Helvetica,sans-Serif" font-size="10.00">/board.cpp</text>
</a>
</g>
</g>
<!-- Node2 -->
<g id="node2" class="node">
<title>Node2</title>
<g id="a_node2"><a xlink:href="board_8hpp.xhtml" target="_top" xlink:title="This is a Proxy header.">
<polygon fill="white" stroke="#666666" points="102.43,-129 43.43,-129 43.43,-110 102.43,-110 102.43,-129"/>
<text text-anchor="middle" x="72.93" y="-117" font-family="Helvetica,sans-Serif" font-size="10.00">board.hpp</text>
</a>
</g>
</g>
<!-- Node1&#45;&gt;Node2 -->
<g id="edge1" class="edge">
<title>Node1&#45;&gt;Node2</title>
<path fill="none" stroke="#63b8ff" d="M283.52,-168.07C234.66,-157.03 160.02,-140.17 113.97,-129.77"/>
<polygon fill="#63b8ff" stroke="#63b8ff" points="114.92,-126.4 104.39,-127.61 113.38,-133.22 114.92,-126.4"/>
</g>
<!-- Node4 -->
<g id="node4" class="node">
<title>Node4</title>
<g id="a_node4"><a xlink:title=" ">
<polygon fill="#e0e0e0" stroke="#999999" points="47.93,-19 1.93,-19 1.93,0 47.93,0 47.93,-19"/>
<text text-anchor="middle" x="24.93" y="-7" font-family="Helvetica,sans-Serif" font-size="10.00">chrono</text>
</a>
</g>
</g>
<!-- Node1&#45;&gt;Node4 -->
<g id="edge9" class="edge">
<title>Node1&#45;&gt;Node4</title>
<path fill="none" stroke="#63b8ff" d="M283.55,-175.92C209.73,-170.39 73.38,-156.69 33.93,-129 4.74,-108.52 -5.18,-89.72 2.93,-55 5.04,-45.99 9.25,-36.71 13.43,-28.97"/>
<polygon fill="#63b8ff" stroke="#63b8ff" points="16.32,-30.95 18.33,-20.55 10.27,-27.43 16.32,-30.95"/>
</g>
<!-- Node5 -->
<g id="node5" class="node">
<title>Node5</title>
<g id="a_node5"><a xlink:title=" ">
<polygon fill="#e0e0e0" stroke="#999999" points="129.43,-19 70.43,-19 70.43,0 129.43,0 129.43,-19"/>
<text text-anchor="middle" x="99.93" y="-7" font-family="Helvetica,sans-Serif" font-size="10.00">functional</text>
</a>
</g>
</g>
<!-- Node1&#45;&gt;Node5 -->
<g id="edge10" class="edge">
<title>Node1&#45;&gt;Node5</title>
<path fill="none" stroke="#63b8ff" d="M283.64,-175.16C246.48,-169.96 195.76,-157.74 160.93,-129 158.8,-127.25 126.05,-62.46 109.44,-29.44"/>
<polygon fill="#63b8ff" stroke="#63b8ff" points="112.61,-27.96 104.99,-20.59 106.36,-31.1 112.61,-27.96"/>
</g>
<!-- Node6 -->
<g id="node6" class="node">
<title>Node6</title>
<g id="a_node6"><a xlink:href="board__pins_8hpp.xhtml" target="_top" xlink:title="Provides named objects for the pins provided by the board.">
<polygon fill="white" stroke="#666666" points="251.93,-129 169.93,-129 169.93,-110 251.93,-110 251.93,-129"/>
<text text-anchor="middle" x="210.93" y="-117" font-family="Helvetica,sans-Serif" font-size="10.00">board_pins.hpp</text>
</a>
</g>
</g>
<!-- Node1&#45;&gt;Node6 -->
<g id="edge5" class="edge">
<title>Node1&#45;&gt;Node6</title>
<path fill="none" stroke="#63b8ff" d="M302.02,-164.54C282.95,-155.32 258.37,-143.44 239.56,-134.34"/>
<polygon fill="#63b8ff" stroke="#63b8ff" points="241.12,-131.21 230.59,-130 238.07,-137.51 241.12,-131.21"/>
</g>
<!-- Node8 -->
<g id="node8" class="node">
<title>Node8</title>
<g id="a_node8"><a xlink:title=" ">
<polygon fill="#e0e0e0" stroke="#999999" points="327.43,-129 270.43,-129 270.43,-110 327.43,-110 327.43,-129"/>
<text text-anchor="middle" x="298.93" y="-117" font-family="Helvetica,sans-Serif" font-size="10.00">Arduino.h</text>
</a>
</g>
</g>
<!-- Node1&#45;&gt;Node8 -->
<g id="edge7" class="edge">
<title>Node1&#45;&gt;Node8</title>
<path fill="none" stroke="#63b8ff" d="M323.77,-164.54C319.42,-156.82 314.02,-147.24 309.36,-138.99"/>
<polygon fill="#63b8ff" stroke="#63b8ff" points="312.53,-137.48 304.57,-130.49 306.43,-140.92 312.53,-137.48"/>
</g>
<!-- Node9 -->
<g id="node9" class="node">
<title>Node9</title>
<g id="a_node9"><a xlink:title=" ">
<polygon fill="#e0e0e0" stroke="#999999" points="383.93,-129 345.93,-129 345.93,-110 383.93,-110 383.93,-129"/>
<text text-anchor="middle" x="364.93" y="-117" font-family="Helvetica,sans-Serif" font-size="10.00">array</text>
</a>
</g>
</g>
<!-- Node1&#45;&gt;Node9 -->
<g id="edge8" class="edge">
<title>Node1&#45;&gt;Node9</title>
<path fill="none" stroke="#63b8ff" d="M340.09,-164.54C344.44,-156.82 349.84,-147.24 354.5,-138.99"/>
<polygon fill="#63b8ff" stroke="#63b8ff" points="357.43,-140.92 359.29,-130.49 351.33,-137.48 357.43,-140.92"/>
</g>
<!-- Node10 -->
<g id="node10" class="node">
<title>Node10</title>
<g id="a_node10"><a xlink:title=" ">
<polygon fill="#e0e0e0" stroke="#999999" points="449.43,-129 402.43,-129 402.43,-110 449.43,-110 449.43,-129"/>
<text text-anchor="middle" x="425.93" y="-117" font-family="Helvetica,sans-Serif" font-size="10.00">iterator</text>
</a>
</g>
</g>
<!-- Node1&#45;&gt;Node10 -->
<g id="edge11" class="edge">
<title>Node1&#45;&gt;Node10</title>
<path fill="none" stroke="#63b8ff" d="M355.17,-164.54C369.43,-155.66 387.65,-144.32 402.03,-135.37"/>
<polygon fill="#63b8ff" stroke="#63b8ff" points="403.79,-138.4 410.43,-130.15 400.09,-132.46 403.79,-138.4"/>
</g>
<!-- Node11 -->
<g id="node11" class="node">
<title>Node11</title>
<g id="a_node11"><a xlink:title=" ">
<polygon fill="#e0e0e0" stroke="#999999" points="526.43,-129 467.43,-129 467.43,-110 526.43,-110 526.43,-129"/>
<text text-anchor="middle" x="496.93" y="-117" font-family="Helvetica,sans-Serif" font-size="10.00">stdexcept</text>
</a>
</g>
</g>
<!-- Node1&#45;&gt;Node11 -->
<g id="edge12" class="edge">
<title>Node1&#45;&gt;Node11</title>
<path fill="none" stroke="#63b8ff" d="M372.72,-164.54C399.94,-154.89 435.38,-142.32 461.44,-133.08"/>
<polygon fill="#63b8ff" stroke="#63b8ff" points="462.3,-136.49 470.55,-129.85 459.96,-129.89 462.3,-136.49"/>
</g>
<!-- Node12 -->
<g id="node12" class="node">
<title>Node12</title>
<g id="a_node12"><a xlink:title=" ">
<polygon fill="#e0e0e0" stroke="#999999" points="606.93,-129 544.93,-129 544.93,-110 606.93,-110 606.93,-129"/>
<text text-anchor="middle" x="575.93" y="-117" font-family="Helvetica,sans-Serif" font-size="10.00">type_traits</text>
</a>
</g>
</g>
<!-- Node1&#45;&gt;Node12 -->
<g id="edge13" class="edge">
<title>Node1&#45;&gt;Node12</title>
<path fill="none" stroke="#63b8ff" d="M380.43,-167.37C425.11,-156.66 490.77,-140.92 533.44,-130.69"/>
<polygon fill="#63b8ff" stroke="#63b8ff" points="534.18,-134.11 543.09,-128.37 532.55,-127.3 534.18,-134.11"/>
</g>
<!-- Node13 -->
<g id="node13" class="node">
<title>Node13</title>
<g id="a_node13"><a xlink:title=" ">
<polygon fill="#e0e0e0" stroke="#999999" points="664.43,-129 625.43,-129 625.43,-110 664.43,-110 664.43,-129"/>
<text text-anchor="middle" x="644.93" y="-117" font-family="Helvetica,sans-Serif" font-size="10.00">utility</text>
</a>
</g>
</g>
<!-- Node1&#45;&gt;Node13 -->
<g id="edge14" class="edge">
<title>Node1&#45;&gt;Node13</title>
<path fill="none" stroke="#63b8ff" d="M380.25,-172.16C434.75,-164.08 526.22,-149.41 614.07,-129.2"/>
<polygon fill="#63b8ff" stroke="#63b8ff" points="614.62,-132.67 623.56,-126.99 613.03,-125.85 614.62,-132.67"/>
</g>
<!-- Node3 -->
<g id="node3" class="node">
<title>Node3</title>
<g id="a_node3"><a xlink:href="board__interface_8hpp.xhtml" target="_top" xlink:title=" ">
<polygon fill="white" stroke="#666666" points="113.43,-74 12.43,-74 12.43,-55 113.43,-55 113.43,-74"/>
<text text-anchor="middle" x="62.93" y="-62" font-family="Helvetica,sans-Serif" font-size="10.00">board_interface.hpp</text>
</a>
</g>
</g>
<!-- Node2&#45;&gt;Node3 -->
<g id="edge2" class="edge">
<title>Node2&#45;&gt;Node3</title>
<path fill="none" stroke="#63b8ff" d="M71.28,-109.75C70.04,-103.19 68.3,-93.95 66.72,-85.6"/>
<polygon fill="#63b8ff" stroke="#63b8ff" points="70.19,-85.11 64.9,-75.93 63.31,-86.4 70.19,-85.11"/>
</g>
<!-- Node3&#45;&gt;Node4 -->
<g id="edge3" class="edge">
<title>Node3&#45;&gt;Node4</title>
<path fill="none" stroke="#63b8ff" d="M56.65,-54.75C51.57,-47.66 44.23,-37.42 37.9,-28.59"/>
<polygon fill="#63b8ff" stroke="#63b8ff" points="40.89,-26.76 32.22,-20.67 35.21,-30.84 40.89,-26.76"/>
</g>
<!-- Node3&#45;&gt;Node5 -->
<g id="edge4" class="edge">
<title>Node3&#45;&gt;Node5</title>
<path fill="none" stroke="#63b8ff" d="M69.04,-54.75C73.94,-47.73 80.98,-37.64 87.1,-28.87"/>
<polygon fill="#63b8ff" stroke="#63b8ff" points="89.97,-30.89 92.82,-20.68 84.23,-26.88 89.97,-30.89"/>
</g>
<!-- Node7 -->
<g id="node7" class="node">
<title>Node7</title>
<g id="a_node7"><a xlink:title=" ">
<polygon fill="#e0e0e0" stroke="#999999" points="233.93,-74 187.93,-74 187.93,-55 233.93,-55 233.93,-74"/>
<text text-anchor="middle" x="210.93" y="-62" font-family="Helvetica,sans-Serif" font-size="10.00">cstdint</text>
</a>
</g>
</g>
<!-- Node6&#45;&gt;Node7 -->
<g id="edge6" class="edge">
<title>Node6&#45;&gt;Node7</title>
<path fill="none" stroke="#63b8ff" d="M210.93,-109.75C210.93,-103.27 210.93,-94.16 210.93,-85.9"/>
<polygon fill="#63b8ff" stroke="#63b8ff" points="214.43,-85.96 210.93,-75.96 207.43,-85.96 214.43,-85.96"/>
</g>
</g>
</svg>
