<?xml version="1.0" encoding="UTF-8" standalone="no"?>
<!DOCTYPE svg PUBLIC "-//W3C//DTD SVG 1.1//EN"
 "http://www.w3.org/Graphics/SVG/1.1/DTD/svg11.dtd">
<!-- Generated by graphviz version 7.0.5 (20221223.1930)
 -->
<!-- Title: lib/board_adapters/board.cpp Pages: 1 -->
<svg width="660pt" height="203pt"
 viewBox="0.00 0.00 660.00 203.00" xmlns="http://www.w3.org/2000/svg" xmlns:xlink="http://www.w3.org/1999/xlink">
<g id="graph0" class="graph" transform="scale(1 1) rotate(0) translate(4 199)">
<title>lib/board_adapters/board.cpp</title>
<!-- Node1 -->
<g id="node1" class="node">
<title>Node1</title>
<g id="a_node1"><a xlink:title=" ">
<polygon fill="#999999" stroke="#666666" points="400.5,-195 304.5,-195 304.5,-165 400.5,-165 400.5,-195"/>
<text text-anchor="start" x="312.5" y="-183" font-family="Helvetica,sans-Serif" font-size="10.00">lib/board_adapters</text>
<text text-anchor="middle" x="352.5" y="-172" font-family="Helvetica,sans-Serif" font-size="10.00">/board.cpp</text>
</a>
</g>
</g>
<!-- Node2 -->
<g id="node2" class="node">
<title>Node2</title>
<g id="a_node2"><a xlink:href="board_8hpp.xhtml" target="_top" xlink:title="This is a Proxy header.">
<polygon fill="white" stroke="#666666" points="91,-129 32,-129 32,-110 91,-110 91,-129"/>
<text text-anchor="middle" x="61.5" y="-117" font-family="Helvetica,sans-Serif" font-size="10.00">board.hpp</text>
</a>
</g>
</g>
<!-- Node1&#45;&gt;Node2 -->
<g id="edge1" class="edge">
<title>Node1&#45;&gt;Node2</title>
<path fill="none" stroke="#63b8ff" d="M304.12,-169.27C247.66,-157.92 155.28,-139.35 102.3,-128.7"/>
<polygon fill="#63b8ff" stroke="#63b8ff" points="103.28,-125.33 92.78,-126.79 101.9,-132.19 103.28,-125.33"/>
</g>
<!-- Node5 -->
<g id="node5" class="node">
<title>Node5</title>
<g id="a_node5"><a xlink:title=" ">
<polygon fill="#e0e0e0" stroke="#999999" points="155,-19 96,-19 96,0 155,0 155,-19"/>
<text text-anchor="middle" x="125.5" y="-7" font-family="Helvetica,sans-Serif" font-size="10.00">functional</text>
</a>
</g>
</g>
<!-- Node1&#45;&gt;Node5 -->
<g id="edge9" class="edge">
<title>Node1&#45;&gt;Node5</title>
<path fill="none" stroke="#63b8ff" d="M304.25,-173.2C250.88,-165.78 169.63,-151.18 148.5,-129 123.16,-102.4 121.74,-56.66 123.36,-30.47"/>
<polygon fill="#63b8ff" stroke="#63b8ff" points="126.82,-31.12 124.18,-20.86 119.84,-30.52 126.82,-31.12"/>
</g>
<!-- Node6 -->
<g id="node6" class="node">
<title>Node6</title>
<g id="a_node6"><a xlink:href="board__pins_8hpp.xhtml" target="_top" xlink:title="Provides named objects for the pins provided by the board.">
<polygon fill="white" stroke="#666666" points="239.5,-129 157.5,-129 157.5,-110 239.5,-110 239.5,-129"/>
<text text-anchor="middle" x="198.5" y="-117" font-family="Helvetica,sans-Serif" font-size="10.00">board_pins.hpp</text>
</a>
</g>
</g>
<!-- Node1&#45;&gt;Node6 -->
<g id="edge5" class="edge">
<title>Node1&#45;&gt;Node6</title>
<path fill="none" stroke="#63b8ff" d="M314.43,-164.54C289.25,-154.97 256.53,-142.55 232.28,-133.33"/>
<polygon fill="#63b8ff" stroke="#63b8ff" points="233.79,-130.16 223.2,-129.88 231.31,-136.71 233.79,-130.16"/>
</g>
<!-- Node8 -->
<g id="node8" class="node">
<title>Node8</title>
<g id="a_node8"><a xlink:title=" ">
<polygon fill="#e0e0e0" stroke="#999999" points="315,-129 258,-129 258,-110 315,-110 315,-129"/>
<text text-anchor="middle" x="286.5" y="-117" font-family="Helvetica,sans-Serif" font-size="10.00">Arduino.h</text>
</a>
</g>
</g>
<!-- Node1&#45;&gt;Node8 -->
<g id="edge7" class="edge">
<title>Node1&#45;&gt;Node8</title>
<path fill="none" stroke="#63b8ff" d="M336.19,-164.54C326.7,-156.13 314.71,-145.51 304.89,-136.8"/>
<polygon fill="#63b8ff" stroke="#63b8ff" points="307.23,-134.19 297.42,-130.18 302.58,-139.43 307.23,-134.19"/>
</g>
<!-- Node9 -->
<g id="node9" class="node">
<title>Node9</title>
<g id="a_node9"><a xlink:title=" ">
<polygon fill="#e0e0e0" stroke="#999999" points="371.5,-129 333.5,-129 333.5,-110 371.5,-110 371.5,-129"/>
<text text-anchor="middle" x="352.5" y="-117" font-family="Helvetica,sans-Serif" font-size="10.00">array</text>
</a>
</g>
</g>
<!-- Node1&#45;&gt;Node9 -->
<g id="edge8" class="edge">
<title>Node1&#45;&gt;Node9</title>
<path fill="none" stroke="#63b8ff" d="M352.5,-164.54C352.5,-157.34 352.5,-148.53 352.5,-140.68"/>
<polygon fill="#63b8ff" stroke="#63b8ff" points="356,-140.69 352.5,-130.69 349,-140.69 356,-140.69"/>
</g>
<!-- Node10 -->
<g id="node10" class="node">
<title>Node10</title>
<g id="a_node10"><a xlink:title=" ">
<polygon fill="#e0e0e0" stroke="#999999" points="437,-129 390,-129 390,-110 437,-110 437,-129"/>
<text text-anchor="middle" x="413.5" y="-117" font-family="Helvetica,sans-Serif" font-size="10.00">iterator</text>
</a>
</g>
</g>
<!-- Node1&#45;&gt;Node10 -->
<g id="edge10" class="edge">
<title>Node1&#45;&gt;Node10</title>
<path fill="none" stroke="#63b8ff" d="M367.58,-164.54C376.26,-156.22 387.2,-145.72 396.22,-137.07"/>
<polygon fill="#63b8ff" stroke="#63b8ff" points="398.57,-139.67 403.36,-130.22 393.72,-134.62 398.57,-139.67"/>
</g>
<!-- Node11 -->
<g id="node11" class="node">
<title>Node11</title>
<g id="a_node11"><a xlink:title=" ">
<polygon fill="#e0e0e0" stroke="#999999" points="514,-129 455,-129 455,-110 514,-110 514,-129"/>
<text text-anchor="middle" x="484.5" y="-117" font-family="Helvetica,sans-Serif" font-size="10.00">stdexcept</text>
</a>
</g>
</g>
<!-- Node1&#45;&gt;Node11 -->
<g id="edge11" class="edge">
<title>Node1&#45;&gt;Node11</title>
<path fill="none" stroke="#63b8ff" d="M385.13,-164.54C406.23,-155.19 433.5,-143.1 454.13,-133.96"/>
<polygon fill="#63b8ff" stroke="#63b8ff" points="455.43,-137.21 463.16,-129.96 452.6,-130.81 455.43,-137.21"/>
</g>
<!-- Node12 -->
<g id="node12" class="node">
<title>Node12</title>
<g id="a_node12"><a xlink:title=" ">
<polygon fill="#e0e0e0" stroke="#999999" points="594.5,-129 532.5,-129 532.5,-110 594.5,-110 594.5,-129"/>
<text text-anchor="middle" x="563.5" y="-117" font-family="Helvetica,sans-Serif" font-size="10.00">type_traits</text>
</a>
</g>
</g>
<!-- Node1&#45;&gt;Node12 -->
<g id="edge12" class="edge">
<title>Node1&#45;&gt;Node12</title>
<path fill="none" stroke="#63b8ff" d="M400.91,-165.58C437.25,-155.5 486.52,-141.84 521.27,-132.21"/>
<polygon fill="#63b8ff" stroke="#63b8ff" points="521.85,-135.68 530.55,-129.64 519.98,-128.94 521.85,-135.68"/>
</g>
<!-- Node13 -->
<g id="node13" class="node">
<title>Node13</title>
<g id="a_node13"><a xlink:title=" ">
<polygon fill="#e0e0e0" stroke="#999999" points="652,-129 613,-129 613,-110 652,-110 652,-129"/>
<text text-anchor="middle" x="632.5" y="-117" font-family="Helvetica,sans-Serif" font-size="10.00">utility</text>
</a>
</g>
</g>
<!-- Node1&#45;&gt;Node13 -->
<g id="edge13" class="edge">
<title>Node1&#45;&gt;Node13</title>
<path fill="none" stroke="#63b8ff" d="M400.9,-170.67C449.27,-162.06 525.98,-147.61 601.47,-129.31"/>
<polygon fill="#63b8ff" stroke="#63b8ff" points="602.25,-132.73 611.12,-126.95 600.58,-125.93 602.25,-132.73"/>
</g>
<!-- Node3 -->
<g id="node3" class="node">
<title>Node3</title>
<g id="a_node3"><a xlink:href="board__interface_8hpp.xhtml" target="_top" xlink:title=" ">
<polygon fill="white" stroke="#666666" points="101,-74 0,-74 0,-55 101,-55 101,-74"/>
<text text-anchor="middle" x="50.5" y="-62" font-family="Helvetica,sans-Serif" font-size="10.00">board_interface.hpp</text>
</a>
</g>
</g>
<!-- Node2&#45;&gt;Node3 -->
<g id="edge2" class="edge">
<title>Node2&#45;&gt;Node3</title>
<path fill="none" stroke="#63b8ff" d="M59.68,-109.75C58.32,-103.19 56.4,-93.95 54.67,-85.6"/>
<polygon fill="#63b8ff" stroke="#63b8ff" points="58.12,-85 52.66,-75.92 51.27,-86.43 58.12,-85"/>
</g>
<!-- Node4 -->
<g id="node4" class="node">
<title>Node4</title>
<g id="a_node4"><a xlink:title=" ">
<polygon fill="#e0e0e0" stroke="#999999" points="73.5,-19 27.5,-19 27.5,0 73.5,0 73.5,-19"/>
<text text-anchor="middle" x="50.5" y="-7" font-family="Helvetica,sans-Serif" font-size="10.00">chrono</text>
</a>
</g>
</g>
<!-- Node3&#45;&gt;Node4 -->
<g id="edge3" class="edge">
<title>Node3&#45;&gt;Node4</title>
<path fill="none" stroke="#63b8ff" d="M50.5,-54.75C50.5,-48.27 50.5,-39.16 50.5,-30.9"/>
<polygon fill="#63b8ff" stroke="#63b8ff" points="54,-30.96 50.5,-20.96 47,-30.96 54,-30.96"/>
</g>
<!-- Node3&#45;&gt;Node5 -->
<g id="edge4" class="edge">
<title>Node3&#45;&gt;Node5</title>
<path fill="none" stroke="#63b8ff" d="M63.22,-54.51C74.28,-46.7 90.54,-35.21 103.67,-25.93"/>
<polygon fill="#63b8ff" stroke="#63b8ff" points="105.58,-28.86 111.73,-20.23 101.54,-23.14 105.58,-28.86"/>
</g>
<!-- Node7 -->
<g id="node7" class="node">
<title>Node7</title>
<g id="a_node7"><a xlink:title=" ">
<polygon fill="#e0e0e0" stroke="#999999" points="221.5,-74 175.5,-74 175.5,-55 221.5,-55 221.5,-74"/>
<text text-anchor="middle" x="198.5" y="-62" font-family="Helvetica,sans-Serif" font-size="10.00">cstdint</text>
</a>
</g>
</g>
<!-- Node6&#45;&gt;Node7 -->
<g id="edge6" class="edge">
<title>Node6&#45;&gt;Node7</title>
<path fill="none" stroke="#63b8ff" d="M198.5,-109.75C198.5,-103.27 198.5,-94.16 198.5,-85.9"/>
<polygon fill="#63b8ff" stroke="#63b8ff" points="202,-85.96 198.5,-75.96 195,-85.96 202,-85.96"/>
</g>
</g>
</svg>
