<?xml version="1.0" encoding="UTF-8" standalone="no"?>
<!DOCTYPE svg PUBLIC "-//W3C//DTD SVG 1.1//EN"
 "http://www.w3.org/Graphics/SVG/1.1/DTD/svg11.dtd">
<!-- Generated by graphviz version 7.0.5 (20221223.1930)
 -->
<!-- Title: lib/application_business_rules/user_interaction/board_interface.hpp Pages: 1 -->
<svg width="583pt" height="203pt"
 viewBox="0.00 0.00 583.00 203.00" xmlns="http://www.w3.org/2000/svg" xmlns:xlink="http://www.w3.org/1999/xlink">
<g id="graph0" class="graph" transform="scale(1 1) rotate(0) translate(4 199)">
<title>lib/application_business_rules/user_interaction/board_interface.hpp</title>
<!-- Node1 -->
<g id="node1" class="node">
<title>Node1</title>
<g id="a_node1"><a xlink:title=" ">
<polygon fill="#999999" stroke="#666666" points="295,-195 175,-195 175,-154 295,-154 295,-195"/>
<text text-anchor="start" x="183" y="-183" font-family="Helvetica,sans-Serif" font-size="10.00">lib/application_business</text>
<text text-anchor="start" x="183" y="-172" font-family="Helvetica,sans-Serif" font-size="10.00">_rules/user_interaction</text>
<text text-anchor="middle" x="235" y="-161" font-family="Helvetica,sans-Serif" font-size="10.00">/board_interface.hpp</text>
</a>
</g>
</g>
<!-- Node2 -->
<g id="node2" class="node">
<title>Node2</title>
<g id="a_node2"><a xlink:href="HmiCoordinator_8cpp.xhtml" target="_top" xlink:title=" ">
<polygon fill="white" stroke="#666666" points="120,-118 0,-118 0,-77 120,-77 120,-118"/>
<text text-anchor="start" x="8" y="-106" font-family="Helvetica,sans-Serif" font-size="10.00">lib/application_business</text>
<text text-anchor="start" x="8" y="-95" font-family="Helvetica,sans-Serif" font-size="10.00">_rules/user_interaction</text>
<text text-anchor="middle" x="60" y="-84" font-family="Helvetica,sans-Serif" font-size="10.00">/HmiCoordinator.cpp</text>
</a>
</g>
</g>
<!-- Node1&#45;&gt;Node2 -->
<g id="edge1" class="edge">
<title>Node1&#45;&gt;Node2</title>
<path fill="none" stroke="#63b8ff" d="M178.19,-149.15C155.05,-139.24 128.64,-127.92 106.65,-118.49"/>
<polygon fill="#63b8ff" stroke="#63b8ff" points="176.6,-152.28 187.17,-153 179.36,-145.85 176.6,-152.28"/>
</g>
<!-- Node3 -->
<g id="node3" class="node">
<title>Node3</title>
<g id="a_node3"><a xlink:href="board_8cpp.xhtml" target="_top" xlink:title=" ">
<polygon fill="white" stroke="#666666" points="196,-35.5 100,-35.5 100,-5.5 196,-5.5 196,-35.5"/>
<text text-anchor="start" x="108" y="-23.5" font-family="Helvetica,sans-Serif" font-size="10.00">lib/board_adapters</text>
<text text-anchor="middle" x="148" y="-12.5" font-family="Helvetica,sans-Serif" font-size="10.00">/board.cpp</text>
</a>
</g>
</g>
<!-- Node1&#45;&gt;Node3 -->
<g id="edge2" class="edge">
<title>Node1&#45;&gt;Node3</title>
<path fill="none" stroke="#63b8ff" d="M193.58,-146.57C183.88,-138.46 174.5,-128.8 168,-118 152.39,-92.05 148.8,-55.85 148.08,-35.98"/>
<polygon fill="#63b8ff" stroke="#63b8ff" points="191.28,-149.21 201.3,-152.64 195.6,-143.71 191.28,-149.21"/>
</g>
<!-- Node4 -->
<g id="node4" class="node">
<title>Node4</title>
<g id="a_node4"><a xlink:href="input__devices_8hpp.xhtml" target="_top" xlink:title=" ">
<polygon fill="white" stroke="#666666" points="293.5,-118 176.5,-118 176.5,-77 293.5,-77 293.5,-118"/>
<text text-anchor="start" x="184.5" y="-106" font-family="Helvetica,sans-Serif" font-size="10.00">lib/board_adapters</text>
<text text-anchor="start" x="184.5" y="-95" font-family="Helvetica,sans-Serif" font-size="10.00">/input_device_interface</text>
<text text-anchor="middle" x="235" y="-84" font-family="Helvetica,sans-Serif" font-size="10.00">/input_devices.hpp</text>
</a>
</g>
</g>
<!-- Node1&#45;&gt;Node4 -->
<g id="edge3" class="edge">
<title>Node1&#45;&gt;Node4</title>
<path fill="none" stroke="#63b8ff" d="M235,-142.36C235,-134.24 235,-125.7 235,-118.33"/>
<polygon fill="#63b8ff" stroke="#63b8ff" points="231.5,-142.28 235,-152.28 238.5,-142.28 231.5,-142.28"/>
</g>
<!-- Node6 -->
<g id="node6" class="node">
<title>Node6</title>
<g id="a_node6"><a xlink:href="sound__output_8cpp.xhtml" target="_top" xlink:title=" ">
<polygon fill="white" stroke="#666666" points="432.5,-118 311.5,-118 311.5,-77 432.5,-77 432.5,-118"/>
<text text-anchor="start" x="319.5" y="-106" font-family="Helvetica,sans-Serif" font-size="10.00">lib/board_adapters</text>
<text text-anchor="start" x="319.5" y="-95" font-family="Helvetica,sans-Serif" font-size="10.00">/sound_output_interface</text>
<text text-anchor="middle" x="372" y="-84" font-family="Helvetica,sans-Serif" font-size="10.00">/sound_output.cpp</text>
</a>
</g>
</g>
<!-- Node1&#45;&gt;Node6 -->
<g id="edge6" class="edge">
<title>Node1&#45;&gt;Node6</title>
<path fill="none" stroke="#63b8ff" d="M281.44,-148.08C299.07,-138.42 318.89,-127.58 335.48,-118.49"/>
<polygon fill="#63b8ff" stroke="#63b8ff" points="279.77,-145 272.68,-152.87 283.13,-151.14 279.77,-145"/>
</g>
<!-- Node7 -->
<g id="node7" class="node">
<title>Node7</title>
<g id="a_node7"><a xlink:href="status__indicators_8cpp.xhtml" target="_top" xlink:title=" ">
<polygon fill="white" stroke="#666666" points="575,-118 451,-118 451,-77 575,-77 575,-118"/>
<text text-anchor="start" x="459" y="-106" font-family="Helvetica,sans-Serif" font-size="10.00">lib/board_adapters</text>
<text text-anchor="start" x="459" y="-95" font-family="Helvetica,sans-Serif" font-size="10.00">/status_indicators/status</text>
<text text-anchor="middle" x="513" y="-84" font-family="Helvetica,sans-Serif" font-size="10.00">_indicators.cpp</text>
</a>
</g>
</g>
<!-- Node1&#45;&gt;Node7 -->
<g id="edge7" class="edge">
<title>Node1&#45;&gt;Node7</title>
<path fill="none" stroke="#63b8ff" d="M306.23,-154.52C346.16,-143.85 396.87,-130.25 442,-118 444.84,-117.23 447.74,-116.44 450.67,-115.64"/>
<polygon fill="#63b8ff" stroke="#63b8ff" points="305.48,-151.09 296.72,-157.06 307.29,-157.86 305.48,-151.09"/>
</g>
<!-- Node4&#45;&gt;Node3 -->
<g id="edge4" class="edge">
<title>Node4&#45;&gt;Node3</title>
<path fill="none" stroke="#63b8ff" d="M203.76,-69.57C190.55,-58.18 175.71,-45.39 164.66,-35.86"/>
<polygon fill="#63b8ff" stroke="#63b8ff" points="201.14,-71.93 211,-75.81 205.71,-66.63 201.14,-71.93"/>
</g>
<!-- Node5 -->
<g id="node5" class="node">
<title>Node5</title>
<g id="a_node5"><a xlink:href="input__devices_8cpp.xhtml" target="_top" xlink:title=" ">
<polygon fill="white" stroke="#666666" points="331.5,-41 214.5,-41 214.5,0 331.5,0 331.5,-41"/>
<text text-anchor="start" x="222.5" y="-29" font-family="Helvetica,sans-Serif" font-size="10.00">lib/board_adapters</text>
<text text-anchor="start" x="222.5" y="-18" font-family="Helvetica,sans-Serif" font-size="10.00">/input_device_interface</text>
<text text-anchor="middle" x="273" y="-7" font-family="Helvetica,sans-Serif" font-size="10.00">/input_devices.cpp</text>
</a>
</g>
</g>
<!-- Node4&#45;&gt;Node5 -->
<g id="edge5" class="edge">
<title>Node4&#45;&gt;Node5</title>
<path fill="none" stroke="#63b8ff" d="M250.06,-66.78C254.39,-58.23 259,-49.12 262.95,-41.33"/>
<polygon fill="#63b8ff" stroke="#63b8ff" points="247.07,-64.94 245.67,-75.44 253.31,-68.11 247.07,-64.94"/>
</g>
</g>
</svg>
