<?xml version="1.0" encoding="UTF-8" standalone="no"?>
<!DOCTYPE svg PUBLIC "-//W3C//DTD SVG 1.1//EN"
 "http://www.w3.org/Graphics/SVG/1.1/DTD/svg11.dtd">
<!-- Generated by graphviz version 7.0.5 (20221223.1930)
 -->
<!-- Title: lib/board_adapters/board.cpp Pages: 1 -->
<svg width="436pt" height="214pt"
 viewBox="0.00 0.00 435.50 214.00" xmlns="http://www.w3.org/2000/svg" xmlns:xlink="http://www.w3.org/1999/xlink">
<g id="graph0" class="graph" transform="scale(1 1) rotate(0) translate(4 210)">
<title>lib/board_adapters/board.cpp</title>
<!-- Node1 -->
<g id="node1" class="node">
<title>Node1</title>
<g id="a_node1"><a xlink:title=" ">
<polygon fill="#999999" stroke="#666666" points="233,-206 137,-206 137,-176 233,-176 233,-206"/>
<text text-anchor="start" x="145" y="-194" font-family="Helvetica,sans-Serif" font-size="10.00">lib/board_adapters</text>
<text text-anchor="middle" x="185" y="-183" font-family="Helvetica,sans-Serif" font-size="10.00">/board.cpp</text>
</a>
</g>
</g>
<!-- Node2 -->
<g id="node2" class="node">
<title>Node2</title>
<g id="a_node2"><a xlink:href="input__devices_8hpp.xhtml" target="_top" xlink:title=" ">
<polygon fill="white" stroke="#666666" points="114,-140 0,-140 0,-110 114,-110 114,-140"/>
<text text-anchor="start" x="8" y="-128" font-family="Helvetica,sans-Serif" font-size="10.00">input_device_interface</text>
<text text-anchor="middle" x="57" y="-117" font-family="Helvetica,sans-Serif" font-size="10.00">/input_devices.hpp</text>
</a>
</g>
</g>
<!-- Node1&#45;&gt;Node2 -->
<g id="edge1" class="edge">
<title>Node1&#45;&gt;Node2</title>
<path fill="none" stroke="#63b8ff" d="M156.27,-175.64C138.41,-166.7 115.2,-155.1 95.72,-145.36"/>
<polygon fill="#63b8ff" stroke="#63b8ff" points="97.49,-142.33 86.98,-140.99 94.36,-148.59 97.49,-142.33"/>
</g>
<!-- Node3 -->
<g id="node3" class="node">
<title>Node3</title>
<g id="a_node3"><a xlink:href="board__interface_8hpp.xhtml" target="_top" xlink:title=" ">
<polygon fill="white" stroke="#666666" points="149.5,-74 48.5,-74 48.5,-55 149.5,-55 149.5,-74"/>
<text text-anchor="middle" x="99" y="-62" font-family="Helvetica,sans-Serif" font-size="10.00">board_interface.hpp</text>
</a>
</g>
</g>
<!-- Node1&#45;&gt;Node3 -->
<g id="edge7" class="edge">
<title>Node1&#45;&gt;Node3</title>
<path fill="none" stroke="#63b8ff" d="M175.13,-175.72C159.46,-153.03 128.88,-108.76 111.63,-83.79"/>
<polygon fill="#63b8ff" stroke="#63b8ff" points="114.56,-81.87 106,-75.63 108.8,-85.84 114.56,-81.87"/>
</g>
<!-- Node6 -->
<g id="node6" class="node">
<title>Node6</title>
<g id="a_node6"><a xlink:href="sound__output_8hpp.xhtml" target="_top" xlink:title=" ">
<polygon fill="white" stroke="#666666" points="288,-140 170,-140 170,-110 288,-110 288,-140"/>
<text text-anchor="start" x="178" y="-128" font-family="Helvetica,sans-Serif" font-size="10.00">sound_output_interface</text>
<text text-anchor="middle" x="229" y="-117" font-family="Helvetica,sans-Serif" font-size="10.00">/sound_output.hpp</text>
</a>
</g>
</g>
<!-- Node1&#45;&gt;Node6 -->
<g id="edge5" class="edge">
<title>Node1&#45;&gt;Node6</title>
<path fill="none" stroke="#63b8ff" d="M194.77,-175.8C200.06,-168.09 206.75,-158.37 212.8,-149.56"/>
<polygon fill="#63b8ff" stroke="#63b8ff" points="215.62,-151.63 218.4,-141.41 209.86,-147.67 215.62,-151.63"/>
</g>
<!-- Node7 -->
<g id="node7" class="node">
<title>Node7</title>
<g id="a_node7"><a xlink:href="status__indicators_8hpp.xhtml" target="_top" xlink:title=" ">
<polygon fill="white" stroke="#666666" points="427.5,-140 306.5,-140 306.5,-110 427.5,-110 427.5,-140"/>
<text text-anchor="start" x="314.5" y="-128" font-family="Helvetica,sans-Serif" font-size="10.00">status_indicators/status</text>
<text text-anchor="middle" x="367" y="-117" font-family="Helvetica,sans-Serif" font-size="10.00">_indicators.hpp</text>
</a>
</g>
</g>
<!-- Node1&#45;&gt;Node7 -->
<g id="edge6" class="edge">
<title>Node1&#45;&gt;Node7</title>
<path fill="none" stroke="#63b8ff" d="M225.84,-175.64C252.33,-166.32 287.06,-154.11 315.44,-144.13"/>
<polygon fill="#63b8ff" stroke="#63b8ff" points="316.28,-147.55 324.55,-140.93 313.95,-140.94 316.28,-147.55"/>
</g>
<!-- Node2&#45;&gt;Node3 -->
<g id="edge2" class="edge">
<title>Node2&#45;&gt;Node3</title>
<path fill="none" stroke="#63b8ff" d="M67.38,-109.54C73.05,-101.65 80.11,-91.81 86.12,-83.44"/>
<polygon fill="#63b8ff" stroke="#63b8ff" points="88.9,-85.57 91.89,-75.4 83.21,-81.49 88.9,-85.57"/>
</g>
<!-- Node4 -->
<g id="node4" class="node">
<title>Node4</title>
<g id="a_node4"><a xlink:title=" ">
<polygon fill="#e0e0e0" stroke="#999999" points="87,-19 41,-19 41,0 87,0 87,-19"/>
<text text-anchor="middle" x="64" y="-7" font-family="Helvetica,sans-Serif" font-size="10.00">chrono</text>
</a>
</g>
</g>
<!-- Node3&#45;&gt;Node4 -->
<g id="edge3" class="edge">
<title>Node3&#45;&gt;Node4</title>
<path fill="none" stroke="#63b8ff" d="M93.22,-54.75C88.59,-47.73 81.93,-37.64 76.13,-28.87"/>
<polygon fill="#63b8ff" stroke="#63b8ff" points="79.17,-27.12 70.74,-20.71 73.33,-30.98 79.17,-27.12"/>
</g>
<!-- Node5 -->
<g id="node5" class="node">
<title>Node5</title>
<g id="a_node5"><a xlink:title=" ">
<polygon fill="#e0e0e0" stroke="#999999" points="164.5,-19 105.5,-19 105.5,0 164.5,0 164.5,-19"/>
<text text-anchor="middle" x="135" y="-7" font-family="Helvetica,sans-Serif" font-size="10.00">functional</text>
</a>
</g>
</g>
<!-- Node3&#45;&gt;Node5 -->
<g id="edge4" class="edge">
<title>Node3&#45;&gt;Node5</title>
<path fill="none" stroke="#63b8ff" d="M104.94,-54.75C109.71,-47.73 116.56,-37.64 122.52,-28.87"/>
<polygon fill="#63b8ff" stroke="#63b8ff" points="125.35,-30.93 128.08,-20.69 119.56,-27 125.35,-30.93"/>
</g>
</g>
</svg>
