<?xml version="1.0" encoding="UTF-8" standalone="no"?>
<!DOCTYPE svg PUBLIC "-//W3C//DTD SVG 1.1//EN"
 "http://www.w3.org/Graphics/SVG/1.1/DTD/svg11.dtd">
<!-- Generated by graphviz version 7.0.5 (20221223.1930)
 -->
<!-- Title: lib/board_adapters/board.cpp Pages: 1 -->
<svg width="722pt" height="203pt"
 viewBox="0.00 0.00 722.00 203.00" xmlns="http://www.w3.org/2000/svg" xmlns:xlink="http://www.w3.org/1999/xlink">
<g id="graph0" class="graph" transform="scale(1 1) rotate(0) translate(4 199)">
<title>lib/board_adapters/board.cpp</title>
<!-- Node1 -->
<g id="node1" class="node">
<title>Node1</title>
<g id="a_node1"><a xlink:title=" ">
<polygon fill="#999999" stroke="#666666" points="430.5,-195 334.5,-195 334.5,-165 430.5,-165 430.5,-195"/>
<text text-anchor="start" x="342.5" y="-183" font-family="Helvetica,sans-Serif" font-size="10.00">lib/board_adapters</text>
<text text-anchor="middle" x="382.5" y="-172" font-family="Helvetica,sans-Serif" font-size="10.00">/board.cpp</text>
</a>
</g>
</g>
<!-- Node2 -->
<g id="node2" class="node">
<title>Node2</title>
<g id="a_node2"><a xlink:href="board_8hpp.xhtml" target="_top" xlink:title="This is a Proxy header.">
<polygon fill="white" stroke="#666666" points="91,-129 32,-129 32,-110 91,-110 91,-129"/>
<text text-anchor="middle" x="61.5" y="-117" font-family="Helvetica,sans-Serif" font-size="10.00">board.hpp</text>
</a>
</g>
</g>
<!-- Node1&#45;&gt;Node2 -->
<g id="edge1" class="edge">
<title>Node1&#45;&gt;Node2</title>
<path fill="none" stroke="#63b8ff" d="M334.1,-170.18C271.04,-158.69 161.89,-138.8 102.64,-128"/>
<polygon fill="#63b8ff" stroke="#63b8ff" points="103.44,-124.59 92.97,-126.24 102.18,-131.47 103.44,-124.59"/>
</g>
<!-- Node5 -->
<g id="node5" class="node">
<title>Node5</title>
<g id="a_node5"><a xlink:title=" ">
<polygon fill="#e0e0e0" stroke="#999999" points="155,-19 96,-19 96,0 155,0 155,-19"/>
<text text-anchor="middle" x="125.5" y="-7" font-family="Helvetica,sans-Serif" font-size="10.00">functional</text>
</a>
</g>
</g>
<!-- Node1&#45;&gt;Node5 -->
<g id="edge9" class="edge">
<title>Node1&#45;&gt;Node5</title>
<path fill="none" stroke="#63b8ff" d="M334.17,-174.89C273.39,-168.7 173.89,-154.87 148.5,-129 122.77,-102.78 121.49,-56.9 123.24,-30.58"/>
<polygon fill="#63b8ff" stroke="#63b8ff" points="126.7,-31.19 124.12,-20.91 119.73,-30.56 126.7,-31.19"/>
</g>
<!-- Node6 -->
<g id="node6" class="node">
<title>Node6</title>
<g id="a_node6"><a xlink:href="board__pins_8hpp.xhtml" target="_top" xlink:title="Provides named objects for the pins provided by the board.">
<polygon fill="white" stroke="#666666" points="239.5,-129 157.5,-129 157.5,-110 239.5,-110 239.5,-129"/>
<text text-anchor="middle" x="198.5" y="-117" font-family="Helvetica,sans-Serif" font-size="10.00">board_pins.hpp</text>
</a>
</g>
</g>
<!-- Node1&#45;&gt;Node6 -->
<g id="edge5" class="edge">
<title>Node1&#45;&gt;Node6</title>
<path fill="none" stroke="#63b8ff" d="M337.02,-164.54C306.35,-154.79 266.32,-142.06 237.18,-132.8"/>
<polygon fill="#63b8ff" stroke="#63b8ff" points="238.63,-129.59 228.04,-129.89 236.51,-136.26 238.63,-129.59"/>
</g>
<!-- Node8 -->
<g id="node8" class="node">
<title>Node8</title>
<g id="a_node8"><a xlink:title=" ">
<polygon fill="#e0e0e0" stroke="#999999" points="315,-129 258,-129 258,-110 315,-110 315,-129"/>
<text text-anchor="middle" x="286.5" y="-117" font-family="Helvetica,sans-Serif" font-size="10.00">Arduino.h</text>
</a>
</g>
</g>
<!-- Node1&#45;&gt;Node8 -->
<g id="edge7" class="edge">
<title>Node1&#45;&gt;Node8</title>
<path fill="none" stroke="#63b8ff" d="M358.77,-164.54C344.06,-155.58 325.23,-144.1 310.48,-135.11"/>
<polygon fill="#63b8ff" stroke="#63b8ff" points="312.67,-132.35 302.31,-130.13 309.03,-138.33 312.67,-132.35"/>
</g>
<!-- Node9 -->
<g id="node9" class="node">
<title>Node9</title>
<g id="a_node9"><a xlink:title=" ">
<polygon fill="#e0e0e0" stroke="#999999" points="371.5,-129 333.5,-129 333.5,-110 371.5,-110 371.5,-129"/>
<text text-anchor="middle" x="352.5" y="-117" font-family="Helvetica,sans-Serif" font-size="10.00">array</text>
</a>
</g>
</g>
<!-- Node1&#45;&gt;Node9 -->
<g id="edge8" class="edge">
<title>Node1&#45;&gt;Node9</title>
<path fill="none" stroke="#63b8ff" d="M375.08,-164.54C371.17,-156.91 366.32,-147.46 362.13,-139.27"/>
<polygon fill="#63b8ff" stroke="#63b8ff" points="365.32,-137.82 357.64,-130.52 359.09,-141.02 365.32,-137.82"/>
</g>
<!-- Node10 -->
<g id="node10" class="node">
<title>Node10</title>
<g id="a_node10"><a xlink:title=" ">
<polygon fill="#e0e0e0" stroke="#999999" points="437,-129 390,-129 390,-110 437,-110 437,-129"/>
<text text-anchor="middle" x="413.5" y="-117" font-family="Helvetica,sans-Serif" font-size="10.00">iterator</text>
</a>
</g>
</g>
<!-- Node1&#45;&gt;Node10 -->
<g id="edge10" class="edge">
<title>Node1&#45;&gt;Node10</title>
<path fill="none" stroke="#63b8ff" d="M390.16,-164.54C394.21,-156.91 399.21,-147.46 403.55,-139.27"/>
<polygon fill="#63b8ff" stroke="#63b8ff" points="406.6,-140.99 408.19,-130.51 400.42,-137.71 406.6,-140.99"/>
</g>
<!-- Node11 -->
<g id="node11" class="node">
<title>Node11</title>
<g id="a_node11"><a xlink:title=" ">
<polygon fill="#e0e0e0" stroke="#999999" points="514,-129 455,-129 455,-110 514,-110 514,-129"/>
<text text-anchor="middle" x="484.5" y="-117" font-family="Helvetica,sans-Serif" font-size="10.00">stdexcept</text>
</a>
</g>
</g>
<!-- Node1&#45;&gt;Node11 -->
<g id="edge11" class="edge">
<title>Node1&#45;&gt;Node11</title>
<path fill="none" stroke="#63b8ff" d="M407.71,-164.54C423.49,-155.49 443.73,-143.88 459.47,-134.85"/>
<polygon fill="#63b8ff" stroke="#63b8ff" points="460.83,-138.11 467.76,-130.1 457.35,-132.04 460.83,-138.11"/>
</g>
<!-- Node12 -->
<g id="node12" class="node">
<title>Node12</title>
<g id="a_node12"><a xlink:title=" ">
<polygon fill="#e0e0e0" stroke="#999999" points="576.5,-129 532.5,-129 532.5,-110 576.5,-110 576.5,-129"/>
<text text-anchor="middle" x="554.5" y="-117" font-family="Helvetica,sans-Serif" font-size="10.00">thread</text>
</a>
</g>
</g>
<!-- Node1&#45;&gt;Node12 -->
<g id="edge12" class="edge">
<title>Node1&#45;&gt;Node12</title>
<path fill="none" stroke="#63b8ff" d="M425.02,-164.54C454.92,-154.37 494.34,-140.96 521.8,-131.62"/>
<polygon fill="#63b8ff" stroke="#63b8ff" points="522.63,-135.04 530.97,-128.5 520.38,-128.41 522.63,-135.04"/>
</g>
<!-- Node13 -->
<g id="node13" class="node">
<title>Node13</title>
<g id="a_node13"><a xlink:title=" ">
<polygon fill="#e0e0e0" stroke="#999999" points="656.5,-129 594.5,-129 594.5,-110 656.5,-110 656.5,-129"/>
<text text-anchor="middle" x="625.5" y="-117" font-family="Helvetica,sans-Serif" font-size="10.00">type_traits</text>
</a>
</g>
</g>
<!-- Node1&#45;&gt;Node13 -->
<g id="edge13" class="edge">
<title>Node1&#45;&gt;Node13</title>
<path fill="none" stroke="#63b8ff" d="M430.8,-167.37C475.3,-156.66 540.69,-140.92 583.19,-130.69"/>
<polygon fill="#63b8ff" stroke="#63b8ff" points="583.89,-134.12 592.79,-128.37 582.25,-127.31 583.89,-134.12"/>
</g>
<!-- Node14 -->
<g id="node14" class="node">
<title>Node14</title>
<g id="a_node14"><a xlink:title=" ">
<polygon fill="#e0e0e0" stroke="#999999" points="714,-129 675,-129 675,-110 714,-110 714,-129"/>
<text text-anchor="middle" x="694.5" y="-117" font-family="Helvetica,sans-Serif" font-size="10.00">utility</text>
</a>
</g>
</g>
<!-- Node1&#45;&gt;Node14 -->
<g id="edge14" class="edge">
<title>Node1&#45;&gt;Node14</title>
<path fill="none" stroke="#63b8ff" d="M430.9,-172.11C485.19,-164.02 576.05,-149.37 663.42,-129.26"/>
<polygon fill="#63b8ff" stroke="#63b8ff" points="664.19,-132.67 673.13,-126.99 662.6,-125.85 664.19,-132.67"/>
</g>
<!-- Node3 -->
<g id="node3" class="node">
<title>Node3</title>
<g id="a_node3"><a xlink:href="board__interface_8hpp.xhtml" target="_top" xlink:title=" ">
<polygon fill="white" stroke="#666666" points="101,-74 0,-74 0,-55 101,-55 101,-74"/>
<text text-anchor="middle" x="50.5" y="-62" font-family="Helvetica,sans-Serif" font-size="10.00">board_interface.hpp</text>
</a>
</g>
</g>
<!-- Node2&#45;&gt;Node3 -->
<g id="edge2" class="edge">
<title>Node2&#45;&gt;Node3</title>
<path fill="none" stroke="#63b8ff" d="M59.68,-109.75C58.32,-103.19 56.4,-93.95 54.67,-85.6"/>
<polygon fill="#63b8ff" stroke="#63b8ff" points="58.12,-85 52.66,-75.92 51.27,-86.43 58.12,-85"/>
</g>
<!-- Node4 -->
<g id="node4" class="node">
<title>Node4</title>
<g id="a_node4"><a xlink:title=" ">
<polygon fill="#e0e0e0" stroke="#999999" points="73.5,-19 27.5,-19 27.5,0 73.5,0 73.5,-19"/>
<text text-anchor="middle" x="50.5" y="-7" font-family="Helvetica,sans-Serif" font-size="10.00">chrono</text>
</a>
</g>
</g>
<!-- Node3&#45;&gt;Node4 -->
<g id="edge3" class="edge">
<title>Node3&#45;&gt;Node4</title>
<path fill="none" stroke="#63b8ff" d="M50.5,-54.75C50.5,-48.27 50.5,-39.16 50.5,-30.9"/>
<polygon fill="#63b8ff" stroke="#63b8ff" points="54,-30.96 50.5,-20.96 47,-30.96 54,-30.96"/>
</g>
<!-- Node3&#45;&gt;Node5 -->
<g id="edge4" class="edge">
<title>Node3&#45;&gt;Node5</title>
<path fill="none" stroke="#63b8ff" d="M63.22,-54.51C74.28,-46.7 90.54,-35.21 103.67,-25.93"/>
<polygon fill="#63b8ff" stroke="#63b8ff" points="105.58,-28.86 111.73,-20.23 101.54,-23.14 105.58,-28.86"/>
</g>
<!-- Node7 -->
<g id="node7" class="node">
<title>Node7</title>
<g id="a_node7"><a xlink:title=" ">
<polygon fill="#e0e0e0" stroke="#999999" points="221.5,-74 175.5,-74 175.5,-55 221.5,-55 221.5,-74"/>
<text text-anchor="middle" x="198.5" y="-62" font-family="Helvetica,sans-Serif" font-size="10.00">cstdint</text>
</a>
</g>
</g>
<!-- Node6&#45;&gt;Node7 -->
<g id="edge6" class="edge">
<title>Node6&#45;&gt;Node7</title>
<path fill="none" stroke="#63b8ff" d="M198.5,-109.75C198.5,-103.27 198.5,-94.16 198.5,-85.9"/>
<polygon fill="#63b8ff" stroke="#63b8ff" points="202,-85.96 198.5,-75.96 195,-85.96 202,-85.96"/>
</g>
</g>
</svg>
