<?xml version="1.0" encoding="UTF-8" standalone="no"?>
<!DOCTYPE svg PUBLIC "-//W3C//DTD SVG 1.1//EN"
 "http://www.w3.org/Graphics/SVG/1.1/DTD/svg11.dtd">
<!-- Generated by graphviz version 9.0.0 (20230911.1827)
 -->
<!-- Title: IStatusIndicator Pages: 1 -->
<svg width="278pt" height="217pt"
 viewBox="0.00 0.00 278.00 217.00" xmlns="http://www.w3.org/2000/svg" xmlns:xlink="http://www.w3.org/1999/xlink">
<g id="graph0" class="graph" transform="scale(1 1) rotate(0) translate(4 213)">
<title>IStatusIndicator</title>
<!-- Node1 -->
<g id="Node000001" class="node">
<title>Node1</title>
<g id="a_Node000001"><a xlink:title=" ">
<polygon fill="#999999" stroke="none" points="174,-209 76,-209 76,-130 174,-130 174,-209"/>
<text text-anchor="start" x="90.5" y="-195.5" font-family="Helvetica,sans-Serif" font-size="10.00">IStatusIndicator</text>
<text text-anchor="start" x="123.5" y="-180.5" font-family="Helvetica,sans-Serif" font-size="10.00"> </text>
<text text-anchor="start" x="80" y="-165.5" font-family="Helvetica,sans-Serif" font-size="10.00">+</text>
<text text-anchor="start" x="90" y="-165.5" font-family="Helvetica,sans-Serif" font-size="10.00">on()</text>
<text text-anchor="start" x="80" y="-150.5" font-family="Helvetica,sans-Serif" font-size="10.00">+</text>
<text text-anchor="start" x="90" y="-150.5" font-family="Helvetica,sans-Serif" font-size="10.00">off()</text>
<text text-anchor="start" x="80" y="-135.5" font-family="Helvetica,sans-Serif" font-size="10.00">+</text>
<text text-anchor="start" x="90" y="-135.5" font-family="Helvetica,sans-Serif" font-size="10.00">~IStatusIndicator()</text>
<polygon fill="#666666" stroke="#666666" points="76,-192 76,-192 174,-192 174,-192 76,-192"/>
<polygon fill="#666666" stroke="#666666" points="76,-177 76,-177 174,-177 174,-177 76,-177"/>
<polygon fill="none" stroke="#666666" points="76,-130 76,-209 174,-209 174,-130 76,-130"/>
</a>
</g>
</g>
<!-- Node2 -->
<g id="Node000002" class="node">
<title>Node2</title>
<g id="a_Node000002"><a xlink:href="classLedStatusIndicator.xhtml" target="_top" xlink:title=" ">
<polygon fill="white" stroke="none" points="106,-86.5 0,-86.5 0,-7.5 106,-7.5 106,-86.5"/>
<text text-anchor="start" x="11.75" y="-73" font-family="Helvetica,sans-Serif" font-size="10.00">LedStatusIndicator</text>
<text text-anchor="start" x="5.5" y="-58" font-family="Helvetica,sans-Serif" font-size="10.00">&#45;</text>
<text text-anchor="start" x="14" y="-58" font-family="Helvetica,sans-Serif" font-size="10.00">pin</text>
<text text-anchor="start" x="4" y="-43" font-family="Helvetica,sans-Serif" font-size="10.00">+</text>
<text text-anchor="start" x="14" y="-43" font-family="Helvetica,sans-Serif" font-size="10.00">LedStatusIndicator()</text>
<text text-anchor="start" x="4" y="-28" font-family="Helvetica,sans-Serif" font-size="10.00">+</text>
<text text-anchor="start" x="14" y="-28" font-family="Helvetica,sans-Serif" font-size="10.00">off()</text>
<text text-anchor="start" x="4" y="-13" font-family="Helvetica,sans-Serif" font-size="10.00">+</text>
<text text-anchor="start" x="14" y="-13" font-family="Helvetica,sans-Serif" font-size="10.00">on()</text>
<polygon fill="#666666" stroke="#666666" points="0,-69.5 0,-69.5 106,-69.5 106,-69.5 0,-69.5"/>
<polygon fill="#666666" stroke="#666666" points="0,-54.5 0,-54.5 12,-54.5 12,-54.5 0,-54.5"/>
<polygon fill="#666666" stroke="#666666" points="12,-54.5 12,-54.5 106,-54.5 106,-54.5 12,-54.5"/>
<polygon fill="none" stroke="#666666" points="0,-7.5 0,-86.5 106,-86.5 106,-7.5 0,-7.5"/>
</a>
</g>
</g>
<!-- Node1&#45;&gt;Node2 -->
<g id="edge1_Node000001_Node000002" class="edge">
<title>Node1&#45;&gt;Node2</title>
<g id="a_edge1_Node000001_Node000002"><a xlink:title=" ">
<path fill="none" stroke="#63b8ff" d="M96.17,-120.25C89.38,-108.89 82.24,-96.94 75.76,-86.09"/>
<polygon fill="none" stroke="#63b8ff" points="93.11,-121.95 101.24,-128.74 99.12,-118.36 93.11,-121.95"/>
</a>
</g>
</g>
<!-- Node3 -->
<g id="Node000003" class="node">
<title>Node3</title>
<g id="a_Node000003"><a xlink:href="classShiftRegisterStatusIndicator.xhtml" target="_top" xlink:title=" ">
<polygon fill="white" stroke="none" points="270,-94 124,-94 124,0 270,0 270,-94"/>
<text text-anchor="start" x="135.88" y="-80.5" font-family="Helvetica,sans-Serif" font-size="10.00">ShiftRegisterStatusIndicator</text>
<text text-anchor="start" x="129.5" y="-65.5" font-family="Helvetica,sans-Serif" font-size="10.00">&#45;</text>
<text text-anchor="start" x="138" y="-65.5" font-family="Helvetica,sans-Serif" font-size="10.00">shiftRegister</text>
<text text-anchor="start" x="129.5" y="-50.5" font-family="Helvetica,sans-Serif" font-size="10.00">&#45;</text>
<text text-anchor="start" x="138" y="-50.5" font-family="Helvetica,sans-Serif" font-size="10.00">bit</text>
<text text-anchor="start" x="128" y="-35.5" font-family="Helvetica,sans-Serif" font-size="10.00">+</text>
<text text-anchor="start" x="138" y="-35.5" font-family="Helvetica,sans-Serif" font-size="10.00">ShiftRegisterStatusIndicator()</text>
<text text-anchor="start" x="128" y="-20.5" font-family="Helvetica,sans-Serif" font-size="10.00">+</text>
<text text-anchor="start" x="138" y="-20.5" font-family="Helvetica,sans-Serif" font-size="10.00">off()</text>
<text text-anchor="start" x="128" y="-5.5" font-family="Helvetica,sans-Serif" font-size="10.00">+</text>
<text text-anchor="start" x="138" y="-5.5" font-family="Helvetica,sans-Serif" font-size="10.00">on()</text>
<polygon fill="#666666" stroke="#666666" points="124,-77 124,-77 270,-77 270,-77 124,-77"/>
<polygon fill="#666666" stroke="#666666" points="124,-47 124,-47 136,-47 136,-47 124,-47"/>
<polygon fill="#666666" stroke="#666666" points="136,-47 136,-47 270,-47 270,-47 136,-47"/>
<polygon fill="none" stroke="#666666" points="124,0 124,-94 270,-94 270,0 124,0"/>
</a>
</g>
</g>
<!-- Node1&#45;&gt;Node3 -->
<g id="edge2_Node000001_Node000003" class="edge">
<title>Node1&#45;&gt;Node3</title>
<g id="a_edge2_Node000001_Node000003"><a xlink:title=" ">
<path fill="none" stroke="#63b8ff" d="M153.79,-120.31C159.04,-111.53 164.51,-102.38 169.71,-93.67"/>
<polygon fill="none" stroke="#63b8ff" points="150.88,-118.36 148.76,-128.74 156.89,-121.95 150.88,-118.36"/>
</a>
</g>
</g>
</g>
</svg>
