<?xml version="1.0" encoding="UTF-8" standalone="no"?>
<!DOCTYPE svg PUBLIC "-//W3C//DTD SVG 1.1//EN"
 "http://www.w3.org/Graphics/SVG/1.1/DTD/svg11.dtd">
<!-- Generated by graphviz version 9.0.0 (20230911.1827)
 -->
<!-- Title: IController Pages: 1 -->
<svg width="98pt" height="172pt"
 viewBox="0.00 0.00 98.00 172.00" xmlns="http://www.w3.org/2000/svg" xmlns:xlink="http://www.w3.org/1999/xlink">
<g id="graph0" class="graph" transform="scale(1 1) rotate(0) translate(4 168)">
<title>IController</title>
<!-- Node1 -->
<g id="Node000001" class="node">
<title>Node1</title>
<g id="a_Node000001"><a xlink:title=" ">
<polygon fill="#999999" stroke="none" points="90,-164 0,-164 0,-115 90,-115 90,-164"/>
<text text-anchor="start" x="22.88" y="-150.5" font-family="Helvetica,sans-Serif" font-size="10.00">IController</text>
<text text-anchor="start" x="43.5" y="-135.5" font-family="Helvetica,sans-Serif" font-size="10.00"> </text>
<text text-anchor="start" x="4" y="-120.5" font-family="Helvetica,sans-Serif" font-size="10.00">+</text>
<text text-anchor="start" x="14" y="-120.5" font-family="Helvetica,sans-Serif" font-size="10.00">checkHmiInput()</text>
<polygon fill="#666666" stroke="#666666" points="0,-147 0,-147 90,-147 90,-147 0,-147"/>
<polygon fill="#666666" stroke="#666666" points="0,-132 0,-132 90,-132 90,-132 0,-132"/>
<polygon fill="none" stroke="#666666" points="0,-115 0,-164 90,-164 90,-115 0,-115"/>
</a>
</g>
</g>
<!-- Node2 -->
<g id="Node000002" class="node">
<title>Node2</title>
<g id="a_Node000002"><a xlink:href="classController.xhtml" target="_top" xlink:title=" ">
<polygon fill="white" stroke="none" points="90,-79 0,-79 0,0 90,0 90,-79"/>
<text text-anchor="start" x="24.38" y="-65.5" font-family="Helvetica,sans-Serif" font-size="10.00">Controller</text>
<text text-anchor="start" x="5.5" y="-50.5" font-family="Helvetica,sans-Serif" font-size="10.00">&#45;</text>
<text text-anchor="start" x="14" y="-50.5" font-family="Helvetica,sans-Serif" font-size="10.00">keypad</text>
<text text-anchor="start" x="4" y="-35.5" font-family="Helvetica,sans-Serif" font-size="10.00">+</text>
<text text-anchor="start" x="14" y="-35.5" font-family="Helvetica,sans-Serif" font-size="10.00">Controller()</text>
<text text-anchor="start" x="4" y="-20.5" font-family="Helvetica,sans-Serif" font-size="10.00">+</text>
<text text-anchor="start" x="14" y="-20.5" font-family="Helvetica,sans-Serif" font-size="10.00">checkHmiInput()</text>
<text text-anchor="start" x="4" y="-5.5" font-family="Helvetica,sans-Serif" font-size="10.00">+</text>
<text text-anchor="start" x="14" y="-5.5" font-family="Helvetica,sans-Serif" font-size="10.00">~Controller()</text>
<polygon fill="#666666" stroke="#666666" points="0,-62 0,-62 90,-62 90,-62 0,-62"/>
<polygon fill="#666666" stroke="#666666" points="0,-47 0,-47 12,-47 12,-47 0,-47"/>
<polygon fill="#666666" stroke="#666666" points="12,-47 12,-47 90,-47 90,-47 12,-47"/>
<polygon fill="none" stroke="#666666" points="0,0 0,-79 90,-79 90,0 0,0"/>
</a>
</g>
</g>
<!-- Node1&#45;&gt;Node2 -->
<g id="edge1_Node000001_Node000002" class="edge">
<title>Node1&#45;&gt;Node2</title>
<g id="a_edge1_Node000001_Node000002"><a xlink:title=" ">
<path fill="none" stroke="#63b8ff" d="M45,-103.93C45,-95.83 45,-87.14 45,-78.88"/>
<polygon fill="none" stroke="#63b8ff" points="41.5,-103.76 45,-113.76 48.5,-103.76 41.5,-103.76"/>
</a>
</g>
</g>
</g>
</svg>
