<?xml version="1.0" encoding="UTF-8" standalone="no"?>
<!DOCTYPE svg PUBLIC "-//W3C//DTD SVG 1.1//EN"
 "http://www.w3.org/Graphics/SVG/1.1/DTD/svg11.dtd">
<!-- Generated by graphviz version 9.0.0 (20230911.1827)
 -->
<!-- Title: LedStatusIndicator Pages: 1 -->
<svg width="170pt" height="213pt"
 viewBox="0.00 0.00 169.50 213.25" xmlns="http://www.w3.org/2000/svg" xmlns:xlink="http://www.w3.org/1999/xlink">
<g id="graph0" class="graph" transform="scale(1 1) rotate(0) translate(4 209.25)">
<title>LedStatusIndicator</title>
<!-- Node1 -->
<g id="Node000001" class="node">
<title>Node1</title>
<g id="a_Node000001"><a xlink:title=" ">
<polygon fill="#999999" stroke="none" points="147,-79 41,-79 41,0 147,0 147,-79"/>
<text text-anchor="start" x="52.75" y="-65.5" font-family="Helvetica,sans-Serif" font-size="10.00">LedStatusIndicator</text>
<text text-anchor="start" x="92.5" y="-50.5" font-family="Helvetica,sans-Serif" font-size="10.00"> </text>
<text text-anchor="start" x="45" y="-35.5" font-family="Helvetica,sans-Serif" font-size="10.00">+</text>
<text text-anchor="start" x="55" y="-35.5" font-family="Helvetica,sans-Serif" font-size="10.00">LedStatusIndicator()</text>
<text text-anchor="start" x="45" y="-20.5" font-family="Helvetica,sans-Serif" font-size="10.00">+</text>
<text text-anchor="start" x="55" y="-20.5" font-family="Helvetica,sans-Serif" font-size="10.00">off()</text>
<text text-anchor="start" x="45" y="-5.5" font-family="Helvetica,sans-Serif" font-size="10.00">+</text>
<text text-anchor="start" x="55" y="-5.5" font-family="Helvetica,sans-Serif" font-size="10.00">on()</text>
<polygon fill="#666666" stroke="#666666" points="41,-62 41,-62 147,-62 147,-62 41,-62"/>
<polygon fill="#666666" stroke="#666666" points="41,-47 41,-47 147,-47 147,-47 41,-47"/>
<polygon fill="none" stroke="#666666" points="41,0 41,-79 147,-79 147,0 41,0"/>
</a>
</g>
</g>
<!-- Node2 -->
<g id="Node000002" class="node">
<title>Node2</title>
<g id="a_Node000002"><a xlink:href="classIStatusIndicator.xhtml" target="_top" xlink:title=" ">
<polygon fill="white" stroke="none" points="98,-205.25 0,-205.25 0,-126.25 98,-126.25 98,-205.25"/>
<text text-anchor="start" x="14.5" y="-191.75" font-family="Helvetica,sans-Serif" font-size="10.00">IStatusIndicator</text>
<text text-anchor="start" x="47.5" y="-176.75" font-family="Helvetica,sans-Serif" font-size="10.00"> </text>
<text text-anchor="start" x="4" y="-161.75" font-family="Helvetica,sans-Serif" font-size="10.00">+</text>
<text text-anchor="start" x="14" y="-161.75" font-family="Helvetica,sans-Serif" font-size="10.00">on()</text>
<text text-anchor="start" x="4" y="-146.75" font-family="Helvetica,sans-Serif" font-size="10.00">+</text>
<text text-anchor="start" x="14" y="-146.75" font-family="Helvetica,sans-Serif" font-size="10.00">off()</text>
<text text-anchor="start" x="4" y="-131.75" font-family="Helvetica,sans-Serif" font-size="10.00">+</text>
<text text-anchor="start" x="14" y="-131.75" font-family="Helvetica,sans-Serif" font-size="10.00">~IStatusIndicator()</text>
<polygon fill="#666666" stroke="#666666" points="0,-188.25 0,-188.25 98,-188.25 98,-188.25 0,-188.25"/>
<polygon fill="#666666" stroke="#666666" points="0,-173.25 0,-173.25 98,-173.25 98,-173.25 0,-173.25"/>
<polygon fill="none" stroke="#666666" points="0,-126.25 0,-205.25 98,-205.25 98,-126.25 0,-126.25"/>
</a>
</g>
</g>
<!-- Node2&#45;&gt;Node1 -->
<g id="edge1_Node000001_Node000002" class="edge">
<title>Node2&#45;&gt;Node1</title>
<g id="a_edge1_Node000001_Node000002"><a xlink:title=" ">
<path fill="none" stroke="#63b8ff" d="M66.69,-115.89C71.15,-103.6 75.86,-90.58 80.1,-78.88"/>
<polygon fill="none" stroke="#63b8ff" points="63.5,-114.44 63.38,-125.03 70.08,-116.82 63.5,-114.44"/>
</a>
</g>
</g>
<!-- Node3 -->
<g id="Node000003" class="node">
<title>Node3</title>
<g id="a_Node000003"><a xlink:title=" ">
<polygon fill="white" stroke="none" points="161.5,-190.25 116.5,-190.25 116.5,-141.25 161.5,-141.25 161.5,-190.25"/>
<text text-anchor="start" x="121.38" y="-176.75" font-family="Helvetica,sans-Serif" font-size="10.00">PinType</text>
<text text-anchor="start" x="137.5" y="-161.75" font-family="Helvetica,sans-Serif" font-size="10.00"> </text>
<text text-anchor="start" x="137.5" y="-146.75" font-family="Helvetica,sans-Serif" font-size="10.00"> </text>
<polygon fill="#666666" stroke="#666666" points="116.5,-173.25 116.5,-173.25 161.5,-173.25 161.5,-173.25 116.5,-173.25"/>
<polygon fill="#666666" stroke="#666666" points="116.5,-158.25 116.5,-158.25 161.5,-158.25 161.5,-158.25 116.5,-158.25"/>
<polygon fill="none" stroke="#666666" points="116.5,-141.25 116.5,-190.25 161.5,-190.25 161.5,-141.25 116.5,-141.25"/>
</a>
</g>
</g>
<!-- Node3&#45;&gt;Node1 -->
<g id="edge2_Node000001_Node000003" class="edge">
<title>Node3&#45;&gt;Node1</title>
<g id="a_edge2_Node000001_Node000003"><a xlink:title=" ">
<path fill="none" stroke="#63b8ff" d="M130.54,-141.38C125.39,-127.17 118.61,-108.45 112.29,-91.01"/>
<polygon fill="none" stroke="#63b8ff" points="112.3,-91.04 106.5,-86.76 108.22,-79.75 114.02,-84.03 112.3,-91.04"/>
</a>
</g>
<text text-anchor="middle" x="126" y="-98.75" font-family="Helvetica,sans-Serif" font-size="10.00" fill="grey"> &#45;pin</text>
</g>
</g>
</svg>
