<?xml version="1.0" encoding="UTF-8" standalone="no"?>
<!DOCTYPE svg PUBLIC "-//W3C//DTD SVG 1.1//EN"
 "http://www.w3.org/Graphics/SVG/1.1/DTD/svg11.dtd">
<!-- Generated by graphviz version 9.0.0 (20230911.1827)
 -->
<!-- Title: IInputShiftRegister&lt; NumberOfBits &gt; Pages: 1 -->
<svg width="161pt" height="317pt"
 viewBox="0.00 0.00 160.50 317.25" xmlns="http://www.w3.org/2000/svg" xmlns:xlink="http://www.w3.org/1999/xlink">
<g id="graph0" class="graph" transform="scale(1 1) rotate(0) translate(4 313.25)">
<title>IInputShiftRegister&lt; NumberOfBits &gt;</title>
<!-- Node1 -->
<g id="Node000001" class="node">
<title>Node1</title>
<g id="a_Node000001"><a xlink:title=" ">
<polygon fill="#999999" stroke="none" points="110,-309.25 0,-309.25 0,-234.25 110,-234.25 110,-309.25"/>
<text text-anchor="start" x="14.5" y="-295.75" font-family="Helvetica,sans-Serif" font-size="10.00">IInputShiftRegister</text>
<text text-anchor="start" x="15.62" y="-284.5" font-family="Helvetica,sans-Serif" font-size="10.00">&lt; NumberOfBits &gt;</text>
<text text-anchor="start" x="4" y="-269.75" font-family="Helvetica,sans-Serif" font-size="10.00">+</text>
<text text-anchor="start" x="14" y="-269.75" font-family="Helvetica,sans-Serif" font-size="10.00">numberOfBits</text>
<text text-anchor="start" x="4" y="-254.75" font-family="Helvetica,sans-Serif" font-size="10.00">+</text>
<text text-anchor="start" x="14" y="-254.75" font-family="Helvetica,sans-Serif" font-size="10.00">readRegister()</text>
<text text-anchor="start" x="4" y="-239.75" font-family="Helvetica,sans-Serif" font-size="10.00">+</text>
<text text-anchor="start" x="14" y="-239.75" font-family="Helvetica,sans-Serif" font-size="10.00">~IInputShiftRegister()</text>
<polygon fill="#666666" stroke="#666666" points="0,-281.25 0,-281.25 110,-281.25 110,-281.25 0,-281.25"/>
<polygon fill="#666666" stroke="#666666" points="0,-266.25 0,-266.25 12,-266.25 12,-266.25 0,-266.25"/>
<polygon fill="#666666" stroke="#666666" points="12,-266.25 12,-266.25 110,-266.25 110,-266.25 12,-266.25"/>
<polygon fill="none" stroke="#666666" points="0,-234.25 0,-309.25 110,-309.25 110,-234.25 0,-234.25"/>
</a>
</g>
</g>
<!-- Node2 -->
<g id="Node000002" class="node">
<title>Node2</title>
<g id="a_Node000002"><a xlink:href="classIInputShiftRegister.xhtml" target="_top" xlink:title=" ">
<polygon fill="white" stroke="none" points="110,-187 0,-187 0,-112 110,-112 110,-187"/>
<text text-anchor="start" x="7.38" y="-173.5" font-family="Helvetica,sans-Serif" font-size="10.00">IInputShiftRegister</text>
<text text-anchor="start" x="7.38" y="-162.25" font-family="Helvetica,sans-Serif" font-size="10.00">&lt; numberOfBytes *8 &gt;</text>
<text text-anchor="start" x="4" y="-147.5" font-family="Helvetica,sans-Serif" font-size="10.00">+</text>
<text text-anchor="start" x="14" y="-147.5" font-family="Helvetica,sans-Serif" font-size="10.00">numberOfBits</text>
<text text-anchor="start" x="4" y="-132.5" font-family="Helvetica,sans-Serif" font-size="10.00">+</text>
<text text-anchor="start" x="14" y="-132.5" font-family="Helvetica,sans-Serif" font-size="10.00">readRegister()</text>
<text text-anchor="start" x="4" y="-117.5" font-family="Helvetica,sans-Serif" font-size="10.00">+</text>
<text text-anchor="start" x="14" y="-117.5" font-family="Helvetica,sans-Serif" font-size="10.00">~IInputShiftRegister()</text>
<polygon fill="#666666" stroke="#666666" points="0,-159 0,-159 110,-159 110,-159 0,-159"/>
<polygon fill="#666666" stroke="#666666" points="0,-144 0,-144 12,-144 12,-144 0,-144"/>
<polygon fill="#666666" stroke="#666666" points="12,-144 12,-144 110,-144 110,-144 12,-144"/>
<polygon fill="none" stroke="#666666" points="0,-112 0,-187 110,-187 110,-112 0,-112"/>
</a>
</g>
</g>
<!-- Node1&#45;&gt;Node2 -->
<g id="edge1_Node000001_Node000002" class="edge">
<title>Node1&#45;&gt;Node2</title>
<g id="a_edge1_Node000001_Node000002"><a xlink:title=" ">
<path fill="none" stroke="orange" d="M55,-223.05C55,-210.97 55,-198.19 55,-186.78"/>
<polygon fill="orange" stroke="orange" points="51.5,-222.83 55,-232.83 58.5,-222.83 51.5,-222.83"/>
</a>
</g>
<text text-anchor="middle" x="103.75" y="-206.75" font-family="Helvetica,sans-Serif" font-size="10.00" fill="grey"> &lt; numberOfBytes *8 &gt;</text>
</g>
<!-- Node3 -->
<g id="Node000003" class="node">
<title>Node3</title>
<g id="a_Node000003"><a xlink:href="classInputShiftRegister.xhtml" target="_top" xlink:title=" ">
<polygon fill="white" stroke="none" points="106,-75 4,-75 4,0 106,0 106,-75"/>
<text text-anchor="start" x="13" y="-61.5" font-family="Helvetica,sans-Serif" font-size="10.00">InputShiftRegister</text>
<text text-anchor="start" x="13" y="-50.25" font-family="Helvetica,sans-Serif" font-size="10.00">&lt; numberOfBytes &gt;</text>
<text text-anchor="start" x="9.5" y="-35.5" font-family="Helvetica,sans-Serif" font-size="10.00">&#45;</text>
<text text-anchor="start" x="18" y="-35.5" font-family="Helvetica,sans-Serif" font-size="10.00">isrBackend</text>
<text text-anchor="start" x="8" y="-20.5" font-family="Helvetica,sans-Serif" font-size="10.00">+</text>
<text text-anchor="start" x="18" y="-20.5" font-family="Helvetica,sans-Serif" font-size="10.00">InputShiftRegister()</text>
<text text-anchor="start" x="8" y="-5.5" font-family="Helvetica,sans-Serif" font-size="10.00">+</text>
<text text-anchor="start" x="18" y="-5.5" font-family="Helvetica,sans-Serif" font-size="10.00">readRegister()</text>
<polygon fill="#666666" stroke="#666666" points="4,-47 4,-47 106,-47 106,-47 4,-47"/>
<polygon fill="#666666" stroke="#666666" points="4,-32 4,-32 16,-32 16,-32 4,-32"/>
<polygon fill="#666666" stroke="#666666" points="16,-32 16,-32 106,-32 106,-32 16,-32"/>
<polygon fill="none" stroke="#666666" points="4,0 4,-75 106,-75 106,0 4,0"/>
</a>
</g>
</g>
<!-- Node2&#45;&gt;Node3 -->
<g id="edge2_Node000002_Node000003" class="edge">
<title>Node2&#45;&gt;Node3</title>
<g id="a_edge2_Node000002_Node000003"><a xlink:title=" ">
<path fill="none" stroke="#63b8ff" d="M55,-100.89C55,-92.14 55,-83.14 55,-74.78"/>
<polygon fill="none" stroke="#63b8ff" points="51.5,-100.66 55,-110.66 58.5,-100.66 51.5,-100.66"/>
</a>
</g>
</g>
</g>
</svg>
