<?xml version="1.0" encoding="UTF-8" standalone="no"?>
<!DOCTYPE svg PUBLIC "-//W3C//DTD SVG 1.1//EN"
 "http://www.w3.org/Graphics/SVG/1.1/DTD/svg11.dtd">
<!-- Generated by graphviz version 9.0.0 (20230911.1827)
 -->
<!-- Title: Keypad Pages: 1 -->
<svg width="140pt" height="217pt"
 viewBox="0.00 0.00 140.00 217.00" xmlns="http://www.w3.org/2000/svg" xmlns:xlink="http://www.w3.org/1999/xlink">
<g id="graph0" class="graph" transform="scale(1 1) rotate(0) translate(4 213)">
<title>Keypad</title>
<!-- Node1 -->
<g id="Node000001" class="node">
<title>Node1</title>
<g id="a_Node000001"><a xlink:title=" ">
<polygon fill="#999999" stroke="none" points="132,-109 0,-109 0,0 132,0 132,-109"/>
<text text-anchor="start" x="49.88" y="-95.5" font-family="Helvetica,sans-Serif" font-size="10.00">Keypad</text>
<text text-anchor="start" x="4" y="-80.5" font-family="Helvetica,sans-Serif" font-size="10.00">+</text>
<text text-anchor="start" x="14" y="-80.5" font-family="Helvetica,sans-Serif" font-size="10.00">numberOfPins</text>
<text text-anchor="start" x="5.5" y="-65.5" font-family="Helvetica,sans-Serif" font-size="10.00">&#45;</text>
<text text-anchor="start" x="14" y="-65.5" font-family="Helvetica,sans-Serif" font-size="10.00">inputMapping</text>
<text text-anchor="start" x="5.5" y="-50.5" font-family="Helvetica,sans-Serif" font-size="10.00">&#45;</text>
<text text-anchor="start" x="14" y="-50.5" font-family="Helvetica,sans-Serif" font-size="10.00">inputPins</text>
<text text-anchor="start" x="4" y="-35.5" font-family="Helvetica,sans-Serif" font-size="10.00">+</text>
<text text-anchor="start" x="14" y="-35.5" font-family="Helvetica,sans-Serif" font-size="10.00">getCurrentlyPressedKey()</text>
<text text-anchor="start" x="4" y="-20.5" font-family="Helvetica,sans-Serif" font-size="10.00">+</text>
<text text-anchor="start" x="14" y="-20.5" font-family="Helvetica,sans-Serif" font-size="10.00">Keypad()</text>
<text text-anchor="start" x="5.5" y="-5.5" font-family="Helvetica,sans-Serif" font-size="10.00">&#45;</text>
<text text-anchor="start" x="14" y="-5.5" font-family="Helvetica,sans-Serif" font-size="10.00">getFirstPressedKeyIndex()</text>
<polygon fill="#666666" stroke="#666666" points="0,-92 0,-92 132,-92 132,-92 0,-92"/>
<polygon fill="#666666" stroke="#666666" points="0,-47 0,-47 12,-47 12,-47 0,-47"/>
<polygon fill="#666666" stroke="#666666" points="12,-47 12,-47 132,-47 132,-47 12,-47"/>
<polygon fill="none" stroke="#666666" points="0,0 0,-109 132,-109 132,0 0,0"/>
</a>
</g>
</g>
<!-- Node2 -->
<g id="Node000002" class="node">
<title>Node2</title>
<g id="a_Node000002"><a xlink:href="classIKeypad.xhtml" target="_top" xlink:title=" ">
<polygon fill="white" stroke="none" points="130,-209 2,-209 2,-145 130,-145 130,-209"/>
<text text-anchor="start" x="48.38" y="-195.5" font-family="Helvetica,sans-Serif" font-size="10.00">IKeypad</text>
<text text-anchor="start" x="64.5" y="-180.5" font-family="Helvetica,sans-Serif" font-size="10.00"> </text>
<text text-anchor="start" x="6" y="-165.5" font-family="Helvetica,sans-Serif" font-size="10.00">+</text>
<text text-anchor="start" x="16" y="-165.5" font-family="Helvetica,sans-Serif" font-size="10.00">getCurrentlyPressedKey()</text>
<text text-anchor="start" x="6" y="-150.5" font-family="Helvetica,sans-Serif" font-size="10.00">+</text>
<text text-anchor="start" x="16" y="-150.5" font-family="Helvetica,sans-Serif" font-size="10.00">~IKeypad()</text>
<polygon fill="#666666" stroke="#666666" points="2,-192 2,-192 130,-192 130,-192 2,-192"/>
<polygon fill="#666666" stroke="#666666" points="2,-177 2,-177 130,-177 130,-177 2,-177"/>
<polygon fill="none" stroke="#666666" points="2,-145 2,-209 130,-209 130,-145 2,-145"/>
</a>
</g>
</g>
<!-- Node2&#45;&gt;Node1 -->
<g id="edge1_Node000001_Node000002" class="edge">
<title>Node2&#45;&gt;Node1</title>
<g id="a_edge1_Node000001_Node000002"><a xlink:title=" ">
<path fill="none" stroke="#63b8ff" d="M66,-133.8C66,-125.67 66,-117.06 66,-108.64"/>
<polygon fill="none" stroke="#63b8ff" points="62.5,-133.77 66,-143.77 69.5,-133.77 62.5,-133.77"/>
</a>
</g>
</g>
</g>
</svg>
