<?xml version="1.0" encoding="UTF-8" standalone="no"?>
<!DOCTYPE svg PUBLIC "-//W3C//DTD SVG 1.1//EN"
 "http://www.w3.org/Graphics/SVG/1.1/DTD/svg11.dtd">
<!-- Generated by graphviz version 9.0.0 (20230911.1827)
 -->
<!-- Title: IInputShiftRegister&lt; NumberOfBits &gt; Pages: 1 -->
<svg width="131pt" height="179pt"
 viewBox="0.00 0.00 131.25 179.25" xmlns="http://www.w3.org/2000/svg" xmlns:xlink="http://www.w3.org/1999/xlink">
<g id="graph0" class="graph" transform="scale(1 1) rotate(0) translate(4 175.25)">
<title>IInputShiftRegister&lt; NumberOfBits &gt;</title>
<!-- Node1 -->
<g id="Node000001" class="node">
<title>Node1</title>
<g id="a_Node000001"><a xlink:title=" ">
<polygon fill="#999999" stroke="none" points="110,-75 0,-75 0,0 110,0 110,-75"/>
<text text-anchor="start" x="14.5" y="-61.5" font-family="Helvetica,sans-Serif" font-size="10.00">IInputShiftRegister</text>
<text text-anchor="start" x="15.62" y="-50.25" font-family="Helvetica,sans-Serif" font-size="10.00">&lt; NumberOfBits &gt;</text>
<text text-anchor="start" x="53.5" y="-35.5" font-family="Helvetica,sans-Serif" font-size="10.00"> </text>
<text text-anchor="start" x="4" y="-20.5" font-family="Helvetica,sans-Serif" font-size="10.00">+</text>
<text text-anchor="start" x="14" y="-20.5" font-family="Helvetica,sans-Serif" font-size="10.00">readRegister()</text>
<text text-anchor="start" x="4" y="-5.5" font-family="Helvetica,sans-Serif" font-size="10.00">+</text>
<text text-anchor="start" x="14" y="-5.5" font-family="Helvetica,sans-Serif" font-size="10.00">~IInputShiftRegister()</text>
<polygon fill="#666666" stroke="#666666" points="0,-47 0,-47 110,-47 110,-47 0,-47"/>
<polygon fill="#666666" stroke="#666666" points="0,-32 0,-32 110,-32 110,-32 0,-32"/>
<polygon fill="none" stroke="#666666" points="0,0 0,-75 110,-75 110,0 0,0"/>
</a>
</g>
</g>
<!-- Node2 -->
<g id="Node000002" class="node">
<title>Node2</title>
<g id="a_Node000002"><a xlink:title=" ">
<polygon fill="white" stroke="none" points="72.5,-171.25 37.5,-171.25 37.5,-122.25 72.5,-122.25 72.5,-171.25"/>
<text text-anchor="start" x="42.25" y="-157.75" font-family="Helvetica,sans-Serif" font-size="10.00">size_t</text>
<text text-anchor="start" x="53.5" y="-142.75" font-family="Helvetica,sans-Serif" font-size="10.00"> </text>
<text text-anchor="start" x="53.5" y="-127.75" font-family="Helvetica,sans-Serif" font-size="10.00"> </text>
<polygon fill="#666666" stroke="#666666" points="37.5,-154.25 37.5,-154.25 72.5,-154.25 72.5,-154.25 37.5,-154.25"/>
<polygon fill="#666666" stroke="#666666" points="37.5,-139.25 37.5,-139.25 72.5,-139.25 72.5,-139.25 37.5,-139.25"/>
<polygon fill="none" stroke="#666666" points="37.5,-122.25 37.5,-171.25 72.5,-171.25 72.5,-122.25 37.5,-122.25"/>
</a>
</g>
</g>
<!-- Node2&#45;&gt;Node1 -->
<g id="edge1_Node000001_Node000002" class="edge">
<title>Node2&#45;&gt;Node1</title>
<g id="a_edge1_Node000001_Node000002"><a xlink:title=" ">
<path fill="none" stroke="#63b8ff" d="M55,-122.48C55,-112.25 55,-99.83 55,-87.72"/>
<polygon fill="none" stroke="#63b8ff" points="55,-87.7 51,-81.7 55,-75.7 59,-81.7 55,-87.7"/>
</a>
</g>
<text text-anchor="middle" x="89.12" y="-94.75" font-family="Helvetica,sans-Serif" font-size="10.00" fill="grey"> +numberOfBits</text>
</g>
</g>
</svg>
