<?xml version="1.0" encoding="UTF-8" standalone="no"?>
<!DOCTYPE svg PUBLIC "-//W3C//DTD SVG 1.1//EN"
 "http://www.w3.org/Graphics/SVG/1.1/DTD/svg11.dtd">
<!-- Generated by graphviz version 9.0.0 (20230911.1827)
 -->
<!-- Title: ShiftRegisterStatusIndicator Pages: 1 -->
<svg width="316pt" height="213pt"
 viewBox="0.00 0.00 316.00 213.25" xmlns="http://www.w3.org/2000/svg" xmlns:xlink="http://www.w3.org/1999/xlink">
<g id="graph0" class="graph" transform="scale(1 1) rotate(0) translate(4 209.25)">
<title>ShiftRegisterStatusIndicator</title>
<!-- Node1 -->
<g id="Node000001" class="node">
<title>Node1</title>
<g id="a_Node000001"><a xlink:title=" ">
<polygon fill="#999999" stroke="none" points="248,-79 102,-79 102,0 248,0 248,-79"/>
<text text-anchor="start" x="113.88" y="-65.5" font-family="Helvetica,sans-Serif" font-size="10.00">ShiftRegisterStatusIndicator</text>
<text text-anchor="start" x="173.5" y="-50.5" font-family="Helvetica,sans-Serif" font-size="10.00"> </text>
<text text-anchor="start" x="106" y="-35.5" font-family="Helvetica,sans-Serif" font-size="10.00">+</text>
<text text-anchor="start" x="116" y="-35.5" font-family="Helvetica,sans-Serif" font-size="10.00">ShiftRegisterStatusIndicator()</text>
<text text-anchor="start" x="106" y="-20.5" font-family="Helvetica,sans-Serif" font-size="10.00">+</text>
<text text-anchor="start" x="116" y="-20.5" font-family="Helvetica,sans-Serif" font-size="10.00">off()</text>
<text text-anchor="start" x="106" y="-5.5" font-family="Helvetica,sans-Serif" font-size="10.00">+</text>
<text text-anchor="start" x="116" y="-5.5" font-family="Helvetica,sans-Serif" font-size="10.00">on()</text>
<polygon fill="#666666" stroke="#666666" points="102,-62 102,-62 248,-62 248,-62 102,-62"/>
<polygon fill="#666666" stroke="#666666" points="102,-47 102,-47 248,-47 248,-47 102,-47"/>
<polygon fill="none" stroke="#666666" points="102,0 102,-79 248,-79 248,0 102,0"/>
</a>
</g>
</g>
<!-- Node2 -->
<g id="Node000002" class="node">
<title>Node2</title>
<g id="a_Node000002"><a xlink:href="classIStatusIndicator.xhtml" target="_top" xlink:title=" ">
<polygon fill="white" stroke="none" points="98,-205.25 0,-205.25 0,-126.25 98,-126.25 98,-205.25"/>
<text text-anchor="start" x="14.5" y="-191.75" font-family="Helvetica,sans-Serif" font-size="10.00">IStatusIndicator</text>
<text text-anchor="start" x="47.5" y="-176.75" font-family="Helvetica,sans-Serif" font-size="10.00"> </text>
<text text-anchor="start" x="4" y="-161.75" font-family="Helvetica,sans-Serif" font-size="10.00">+</text>
<text text-anchor="start" x="14" y="-161.75" font-family="Helvetica,sans-Serif" font-size="10.00">on()</text>
<text text-anchor="start" x="4" y="-146.75" font-family="Helvetica,sans-Serif" font-size="10.00">+</text>
<text text-anchor="start" x="14" y="-146.75" font-family="Helvetica,sans-Serif" font-size="10.00">off()</text>
<text text-anchor="start" x="4" y="-131.75" font-family="Helvetica,sans-Serif" font-size="10.00">+</text>
<text text-anchor="start" x="14" y="-131.75" font-family="Helvetica,sans-Serif" font-size="10.00">~IStatusIndicator()</text>
<polygon fill="#666666" stroke="#666666" points="0,-188.25 0,-188.25 98,-188.25 98,-188.25 0,-188.25"/>
<polygon fill="#666666" stroke="#666666" points="0,-173.25 0,-173.25 98,-173.25 98,-173.25 0,-173.25"/>
<polygon fill="none" stroke="#666666" points="0,-126.25 0,-205.25 98,-205.25 98,-126.25 0,-126.25"/>
</a>
</g>
</g>
<!-- Node2&#45;&gt;Node1 -->
<g id="edge1_Node000001_Node000002" class="edge">
<title>Node2&#45;&gt;Node1</title>
<g id="a_edge1_Node000001_Node000002"><a xlink:title=" ">
<path fill="none" stroke="#63b8ff" d="M95.91,-118.49C109.14,-105.45 123.38,-91.41 136.08,-78.88"/>
<polygon fill="none" stroke="#63b8ff" points="93.57,-115.88 88.91,-125.39 98.49,-120.86 93.57,-115.88"/>
</a>
</g>
</g>
<!-- Node3 -->
<g id="Node000003" class="node">
<title>Node3</title>
<g id="a_Node000003"><a xlink:href="classIOutputShiftRegister.xhtml" target="_top" xlink:title=" ">
<polygon fill="white" stroke="none" points="233.5,-197.75 116.5,-197.75 116.5,-133.75 233.5,-133.75 233.5,-197.75"/>
<text text-anchor="start" x="130.75" y="-184.25" font-family="Helvetica,sans-Serif" font-size="10.00">IOutputShiftRegister</text>
<text text-anchor="start" x="173.5" y="-169.25" font-family="Helvetica,sans-Serif" font-size="10.00"> </text>
<text text-anchor="start" x="120.5" y="-154.25" font-family="Helvetica,sans-Serif" font-size="10.00">+</text>
<text text-anchor="start" x="130.5" y="-154.25" font-family="Helvetica,sans-Serif" font-size="10.00">writePin()</text>
<text text-anchor="start" x="120.5" y="-139.25" font-family="Helvetica,sans-Serif" font-size="10.00">+</text>
<text text-anchor="start" x="130.5" y="-139.25" font-family="Helvetica,sans-Serif" font-size="10.00">~IOutputShiftRegister()</text>
<polygon fill="#666666" stroke="#666666" points="116.5,-180.75 116.5,-180.75 233.5,-180.75 233.5,-180.75 116.5,-180.75"/>
<polygon fill="#666666" stroke="#666666" points="116.5,-165.75 116.5,-165.75 233.5,-165.75 233.5,-165.75 116.5,-165.75"/>
<polygon fill="none" stroke="#666666" points="116.5,-133.75 116.5,-197.75 233.5,-197.75 233.5,-133.75 116.5,-133.75"/>
</a>
</g>
</g>
<!-- Node3&#45;&gt;Node1 -->
<g id="edge2_Node000001_Node000003" class="edge">
<title>Node3&#45;&gt;Node1</title>
<g id="a_edge2_Node000001_Node000003"><a xlink:title=" ">
<path fill="none" stroke="#63b8ff" d="M175,-134.04C175,-121.27 175,-106.11 175,-91.74"/>
<polygon fill="none" stroke="#63b8ff" points="175,-91.77 171,-85.77 175,-79.77 179,-85.77 175,-91.77"/>
</a>
</g>
<text text-anchor="middle" x="205" y="-98.75" font-family="Helvetica,sans-Serif" font-size="10.00" fill="grey"> &#45;shiftRegister</text>
</g>
<!-- Node4 -->
<g id="Node000004" class="node">
<title>Node4</title>
<g id="a_Node000004"><a xlink:title=" ">
<polygon fill="white" stroke="none" points="308,-190.25 252,-190.25 252,-141.25 308,-141.25 308,-190.25"/>
<text text-anchor="start" x="256.75" y="-176.75" font-family="Helvetica,sans-Serif" font-size="10.00">BitNumber</text>
<text text-anchor="start" x="278.5" y="-161.75" font-family="Helvetica,sans-Serif" font-size="10.00"> </text>
<text text-anchor="start" x="278.5" y="-146.75" font-family="Helvetica,sans-Serif" font-size="10.00"> </text>
<polygon fill="#666666" stroke="#666666" points="252,-173.25 252,-173.25 308,-173.25 308,-173.25 252,-173.25"/>
<polygon fill="#666666" stroke="#666666" points="252,-158.25 252,-158.25 308,-158.25 308,-158.25 252,-158.25"/>
<polygon fill="none" stroke="#666666" points="252,-141.25 252,-190.25 308,-190.25 308,-141.25 252,-141.25"/>
</a>
</g>
</g>
<!-- Node4&#45;&gt;Node1 -->
<g id="edge3_Node000001_Node000004" class="edge">
<title>Node4&#45;&gt;Node1</title>
<g id="a_edge3_Node000001_Node000004"><a xlink:title=" ">
<path fill="none" stroke="#63b8ff" d="M268.13,-141.32C260.69,-127.71 250.37,-110.61 239,-97 236.39,-93.87 233.6,-90.76 230.7,-87.71"/>
<polygon fill="none" stroke="#63b8ff" points="230.85,-87.86 223.78,-86.44 222.38,-79.36 229.45,-80.79 230.85,-87.86"/>
</a>
</g>
<text text-anchor="middle" x="253.88" y="-98.75" font-family="Helvetica,sans-Serif" font-size="10.00" fill="grey"> &#45;bit</text>
</g>
</g>
</svg>
