<?xml version="1.0" encoding="UTF-8" standalone="no"?>
<!DOCTYPE svg PUBLIC "-//W3C//DTD SVG 1.1//EN"
 "http://www.w3.org/Graphics/SVG/1.1/DTD/svg11.dtd">
<!-- Generated by graphviz version 7.0.5 (20221223.1930)
 -->
<!-- Title: Display Pages: 1 -->
<svg width="192pt" height="148pt"
 viewBox="0.00 0.00 191.50 148.00" xmlns="http://www.w3.org/2000/svg" xmlns:xlink="http://www.w3.org/1999/xlink">
<g id="graph0" class="graph" transform="scale(1 1) rotate(0) translate(4 144)">
<title>Display</title>
<!-- Node1 -->
<g id="node1" class="node">
<title>Node1</title>
<g id="a_node1"><a xlink:title=" ">
<polygon fill="#999999" stroke="#666666" points="116,-52 49,-52 49,0 116,0 116,-52"/>
<text text-anchor="middle" x="82.5" y="-40" font-family="Helvetica,sans-Serif" font-size="10.00">{Display</text>
<text text-anchor="start" x="57" y="-29" font-family="Helvetica,sans-Serif" font-size="10.00">||+ Display()</text>
<text text-anchor="start" x="57" y="-18" font-family="Helvetica,sans-Serif" font-size="10.00">+ refresh()</text>
<text text-anchor="middle" x="82.5" y="-7" font-family="Helvetica,sans-Serif" font-size="10.00">}</text>
</a>
</g>
</g>
<!-- Node2 -->
<g id="node2" class="node">
<title>Node2</title>
<g id="a_node2"><a xlink:href="classIDisplay.xhtml" target="_top" xlink:title="Interface to a display capable of displaying various information to a human.">
<polygon fill="white" stroke="#666666" points="65,-140 0,-140 0,-99 65,-99 65,-140"/>
<text text-anchor="middle" x="32.5" y="-128" font-family="Helvetica,sans-Serif" font-size="10.00">{IDisplay</text>
<text text-anchor="start" x="8" y="-117" font-family="Helvetica,sans-Serif" font-size="10.00">||+ refresh()</text>
<text text-anchor="middle" x="32.5" y="-106" font-family="Helvetica,sans-Serif" font-size="10.00">}</text>
</a>
</g>
</g>
<!-- Node2&#45;&gt;Node1 -->
<g id="edge1" class="edge">
<title>Node2&#45;&gt;Node1</title>
<path fill="none" stroke="#63b8ff" d="M48.72,-88.83C55.14,-77.07 62.45,-63.69 68.63,-52.39"/>
<polygon fill="none" stroke="#63b8ff" points="45.8,-86.86 44.08,-97.32 51.94,-90.22 45.8,-86.86"/>
</g>
<!-- Node3 -->
<g id="node3" class="node">
<title>Node3</title>
<g id="a_node3"><a xlink:title=" ">
<polygon fill="white" stroke="#666666" points="183.5,-134.5 83.5,-134.5 83.5,-104.5 183.5,-104.5 183.5,-134.5"/>
<text text-anchor="middle" x="133.5" y="-122.5" font-family="Helvetica,sans-Serif" font-size="10.00">{Adafruit_SSD1306</text>
<text text-anchor="middle" x="133.5" y="-111.5" font-family="Helvetica,sans-Serif" font-size="10.00">||}</text>
</a>
</g>
</g>
<!-- Node3&#45;&gt;Node1 -->
<g id="edge2" class="edge">
<title>Node3&#45;&gt;Node1</title>
<path fill="none" stroke="#404040" d="M125.53,-104.2C119.43,-93.26 110.73,-77.65 102.75,-63.34"/>
<polygon fill="none" stroke="#404040" points="102.85,-63.51 96.44,-60.22 97.01,-53.03 103.42,-56.33 102.85,-63.51"/>
<text text-anchor="middle" x="132" y="-73" font-family="Helvetica,sans-Serif" font-size="10.00"> +display</text>
</g>
</g>
</svg>
