<?xml version="1.0" encoding="UTF-8" standalone="no"?>
<!DOCTYPE svg PUBLIC "-//W3C//DTD SVG 1.1//EN"
 "http://www.w3.org/Graphics/SVG/1.1/DTD/svg11.dtd">
<!-- Generated by graphviz version 9.0.0 (20230911.1827)
 -->
<!-- Title: Controller Pages: 1 -->
<svg width="244pt" height="198pt"
 viewBox="0.00 0.00 244.00 198.25" xmlns="http://www.w3.org/2000/svg" xmlns:xlink="http://www.w3.org/1999/xlink">
<g id="graph0" class="graph" transform="scale(1 1) rotate(0) translate(4 194.25)">
<title>Controller</title>
<!-- Node1 -->
<g id="Node000001" class="node">
<title>Node1</title>
<g id="a_Node000001"><a xlink:title=" ">
<polygon fill="#999999" stroke="none" points="153,-79 63,-79 63,0 153,0 153,-79"/>
<text text-anchor="start" x="87.38" y="-65.5" font-family="Helvetica,sans-Serif" font-size="10.00">Controller</text>
<text text-anchor="start" x="106.5" y="-50.5" font-family="Helvetica,sans-Serif" font-size="10.00"> </text>
<text text-anchor="start" x="67" y="-35.5" font-family="Helvetica,sans-Serif" font-size="10.00">+</text>
<text text-anchor="start" x="77" y="-35.5" font-family="Helvetica,sans-Serif" font-size="10.00">Controller()</text>
<text text-anchor="start" x="67" y="-20.5" font-family="Helvetica,sans-Serif" font-size="10.00">+</text>
<text text-anchor="start" x="77" y="-20.5" font-family="Helvetica,sans-Serif" font-size="10.00">checkHmiInput()</text>
<text text-anchor="start" x="67" y="-5.5" font-family="Helvetica,sans-Serif" font-size="10.00">+</text>
<text text-anchor="start" x="77" y="-5.5" font-family="Helvetica,sans-Serif" font-size="10.00">~Controller()</text>
<polygon fill="#666666" stroke="#666666" points="63,-62 63,-62 153,-62 153,-62 63,-62"/>
<polygon fill="#666666" stroke="#666666" points="63,-47 63,-47 153,-47 153,-47 63,-47"/>
<polygon fill="none" stroke="#666666" points="63,0 63,-79 153,-79 153,0 63,0"/>
</a>
</g>
</g>
<!-- Node2 -->
<g id="Node000002" class="node">
<title>Node2</title>
<g id="a_Node000002"><a xlink:href="classIController.xhtml" target="_top" xlink:title=" ">
<polygon fill="white" stroke="none" points="90,-182.75 0,-182.75 0,-133.75 90,-133.75 90,-182.75"/>
<text text-anchor="start" x="22.88" y="-169.25" font-family="Helvetica,sans-Serif" font-size="10.00">IController</text>
<text text-anchor="start" x="43.5" y="-154.25" font-family="Helvetica,sans-Serif" font-size="10.00"> </text>
<text text-anchor="start" x="4" y="-139.25" font-family="Helvetica,sans-Serif" font-size="10.00">+</text>
<text text-anchor="start" x="14" y="-139.25" font-family="Helvetica,sans-Serif" font-size="10.00">checkHmiInput()</text>
<polygon fill="#666666" stroke="#666666" points="0,-165.75 0,-165.75 90,-165.75 90,-165.75 0,-165.75"/>
<polygon fill="#666666" stroke="#666666" points="0,-150.75 0,-150.75 90,-150.75 90,-150.75 0,-150.75"/>
<polygon fill="none" stroke="#666666" points="0,-133.75 0,-182.75 90,-182.75 90,-133.75 0,-133.75"/>
</a>
</g>
</g>
<!-- Node2&#45;&gt;Node1 -->
<g id="edge1_Node000001_Node000002" class="edge">
<title>Node2&#45;&gt;Node1</title>
<g id="a_edge1_Node000001_Node000002"><a xlink:title=" ">
<path fill="none" stroke="#63b8ff" d="M62.86,-124.15C70.45,-110.08 79.36,-93.58 87.24,-78.97"/>
<polygon fill="none" stroke="#63b8ff" points="59.99,-122.11 58.32,-132.57 66.15,-125.43 59.99,-122.11"/>
</a>
</g>
</g>
<!-- Node3 -->
<g id="Node000003" class="node">
<title>Node3</title>
<g id="a_Node000003"><a xlink:href="classIKeypad.xhtml" target="_top" xlink:title=" ">
<polygon fill="white" stroke="none" points="236,-190.25 108,-190.25 108,-126.25 236,-126.25 236,-190.25"/>
<text text-anchor="start" x="154.38" y="-176.75" font-family="Helvetica,sans-Serif" font-size="10.00">IKeypad</text>
<text text-anchor="start" x="170.5" y="-161.75" font-family="Helvetica,sans-Serif" font-size="10.00"> </text>
<text text-anchor="start" x="112" y="-146.75" font-family="Helvetica,sans-Serif" font-size="10.00">+</text>
<text text-anchor="start" x="122" y="-146.75" font-family="Helvetica,sans-Serif" font-size="10.00">getCurrentlyPressedKey()</text>
<text text-anchor="start" x="112" y="-131.75" font-family="Helvetica,sans-Serif" font-size="10.00">+</text>
<text text-anchor="start" x="122" y="-131.75" font-family="Helvetica,sans-Serif" font-size="10.00">~IKeypad()</text>
<polygon fill="#666666" stroke="#666666" points="108,-173.25 108,-173.25 236,-173.25 236,-173.25 108,-173.25"/>
<polygon fill="#666666" stroke="#666666" points="108,-158.25 108,-158.25 236,-158.25 236,-158.25 108,-158.25"/>
<polygon fill="none" stroke="#666666" points="108,-126.25 108,-190.25 236,-190.25 236,-126.25 108,-126.25"/>
</a>
</g>
</g>
<!-- Node3&#45;&gt;Node1 -->
<g id="edge2_Node000001_Node000003" class="edge">
<title>Node3&#45;&gt;Node1</title>
<g id="a_edge2_Node000001_Node000003"><a xlink:title=" ">
<path fill="none" stroke="#63b8ff" d="M155.02,-126.27C148.89,-115.1 141.82,-102.19 135.05,-89.84"/>
<polygon fill="none" stroke="#63b8ff" points="135.15,-90.04 128.76,-86.7 129.39,-79.51 135.78,-82.85 135.15,-90.04"/>
</a>
</g>
<text text-anchor="middle" x="161" y="-98.75" font-family="Helvetica,sans-Serif" font-size="10.00" fill="grey"> &#45;keypad</text>
</g>
</g>
</svg>
