<?xml version="1.0" encoding="UTF-8" standalone="no"?>
<!DOCTYPE svg PUBLIC "-//W3C//DTD SVG 1.1//EN"
 "http://www.w3.org/Graphics/SVG/1.1/DTD/svg11.dtd">
<!-- Generated by graphviz version 9.0.0 (20230911.1827)
 -->
<!-- Title: ProcessHmiInputs Pages: 1 -->
<svg width="242pt" height="213pt"
 viewBox="0.00 0.00 241.50 213.25" xmlns="http://www.w3.org/2000/svg" xmlns:xlink="http://www.w3.org/1999/xlink">
<g id="graph0" class="graph" transform="scale(1 1) rotate(0) translate(4 209.25)">
<title>ProcessHmiInputs</title>
<!-- Node1 -->
<g id="Node000001" class="node">
<title>Node1</title>
<g id="a_Node000001"><a xlink:title=" ">
<polygon fill="#999999" stroke="none" points="160.5,-94 55.5,-94 55.5,0 160.5,0 160.5,-94"/>
<text text-anchor="start" x="67.5" y="-80.5" font-family="Helvetica,sans-Serif" font-size="10.00">ProcessHmiInputs</text>
<text text-anchor="start" x="106.5" y="-65.5" font-family="Helvetica,sans-Serif" font-size="10.00"> </text>
<text text-anchor="start" x="59.5" y="-50.5" font-family="Helvetica,sans-Serif" font-size="10.00">+</text>
<text text-anchor="start" x="69.5" y="-50.5" font-family="Helvetica,sans-Serif" font-size="10.00">ProcessHmiInputs()</text>
<text text-anchor="start" x="59.5" y="-35.5" font-family="Helvetica,sans-Serif" font-size="10.00">+</text>
<text text-anchor="start" x="69.5" y="-35.5" font-family="Helvetica,sans-Serif" font-size="10.00">loop()</text>
<text text-anchor="start" x="61" y="-20.5" font-family="Helvetica,sans-Serif" font-size="10.00">&#45;</text>
<text text-anchor="start" x="69.5" y="-20.5" font-family="Helvetica,sans-Serif" font-size="10.00">isEventTask()</text>
<text text-anchor="start" x="61" y="-5.5" font-family="Helvetica,sans-Serif" font-size="10.00">&#45;</text>
<text text-anchor="start" x="69.5" y="-5.5" font-family="Helvetica,sans-Serif" font-size="10.00">event2TaskEvent()</text>
<polygon fill="#666666" stroke="#666666" points="55.5,-77 55.5,-77 160.5,-77 160.5,-77 55.5,-77"/>
<polygon fill="#666666" stroke="#666666" points="55.5,-62 55.5,-62 160.5,-62 160.5,-62 55.5,-62"/>
<polygon fill="none" stroke="#666666" points="55.5,0 55.5,-94 160.5,-94 160.5,0 55.5,0"/>
</a>
</g>
</g>
<!-- Node2 -->
<g id="Node000002" class="node">
<title>Node2</title>
<g id="a_Node000002"><a xlink:href="classIController.xhtml" target="_top" xlink:title=" ">
<polygon fill="white" stroke="none" points="90,-197.75 0,-197.75 0,-148.75 90,-148.75 90,-197.75"/>
<text text-anchor="start" x="22.88" y="-184.25" font-family="Helvetica,sans-Serif" font-size="10.00">IController</text>
<text text-anchor="start" x="43.5" y="-169.25" font-family="Helvetica,sans-Serif" font-size="10.00"> </text>
<text text-anchor="start" x="4" y="-154.25" font-family="Helvetica,sans-Serif" font-size="10.00">+</text>
<text text-anchor="start" x="14" y="-154.25" font-family="Helvetica,sans-Serif" font-size="10.00">checkHmiInput()</text>
<polygon fill="#666666" stroke="#666666" points="0,-180.75 0,-180.75 90,-180.75 90,-180.75 0,-180.75"/>
<polygon fill="#666666" stroke="#666666" points="0,-165.75 0,-165.75 90,-165.75 90,-165.75 0,-165.75"/>
<polygon fill="none" stroke="#666666" points="0,-148.75 0,-197.75 90,-197.75 90,-148.75 0,-148.75"/>
</a>
</g>
</g>
<!-- Node2&#45;&gt;Node1 -->
<g id="edge1_Node000001_Node000002" class="edge">
<title>Node2&#45;&gt;Node1</title>
<g id="a_edge1_Node000001_Node000002"><a xlink:title=" ">
<path fill="none" stroke="#63b8ff" d="M52.33,-148.88C56.22,-137.51 61.4,-123.79 67.25,-112 68.42,-109.65 69.65,-107.28 70.93,-104.9"/>
<polygon fill="none" stroke="#63b8ff" points="70.85,-105.04 70.32,-97.85 76.76,-94.6 77.28,-101.79 70.85,-105.04"/>
</a>
</g>
<text text-anchor="middle" x="107.88" y="-113.75" font-family="Helvetica,sans-Serif" font-size="10.00" fill="grey"> &#45;userInputProvider</text>
</g>
<!-- Node3 -->
<g id="Node000003" class="node">
<title>Node3</title>
<g id="a_Node000003"><a xlink:href="classIPresenter.xhtml" target="_top" xlink:title=" ">
<polygon fill="white" stroke="none" points="233.5,-205.25 108.5,-205.25 108.5,-141.25 233.5,-141.25 233.5,-205.25"/>
<text text-anchor="start" x="148.5" y="-191.75" font-family="Helvetica,sans-Serif" font-size="10.00">IPresenter</text>
<text text-anchor="start" x="169.5" y="-176.75" font-family="Helvetica,sans-Serif" font-size="10.00"> </text>
<text text-anchor="start" x="112.5" y="-161.75" font-family="Helvetica,sans-Serif" font-size="10.00">+</text>
<text text-anchor="start" x="122.5" y="-161.75" font-family="Helvetica,sans-Serif" font-size="10.00">setTaskStatusIndicator()</text>
<text text-anchor="start" x="112.5" y="-146.75" font-family="Helvetica,sans-Serif" font-size="10.00">+</text>
<text text-anchor="start" x="122.5" y="-146.75" font-family="Helvetica,sans-Serif" font-size="10.00">~IPresenter()</text>
<polygon fill="#666666" stroke="#666666" points="108.5,-188.25 108.5,-188.25 233.5,-188.25 233.5,-188.25 108.5,-188.25"/>
<polygon fill="#666666" stroke="#666666" points="108.5,-173.25 108.5,-173.25 233.5,-173.25 233.5,-173.25 108.5,-173.25"/>
<polygon fill="none" stroke="#666666" points="108.5,-141.25 108.5,-205.25 233.5,-205.25 233.5,-141.25 108.5,-141.25"/>
</a>
</g>
</g>
<!-- Node3&#45;&gt;Node1 -->
<g id="edge2_Node000001_Node000003" class="edge">
<title>Node3&#45;&gt;Node1</title>
<g id="a_edge2_Node000001_Node000003"><a xlink:title=" ">
<path fill="none" stroke="#63b8ff" d="M161.19,-141.36C157.76,-131.77 153.6,-121.28 149,-112 147.83,-109.64 146.6,-107.27 145.32,-104.89"/>
<polygon fill="none" stroke="#63b8ff" points="145.39,-105.01 138.95,-101.77 139.46,-94.57 145.9,-97.82 145.39,-105.01"/>
</a>
</g>
<text text-anchor="middle" x="188.5" y="-113.75" font-family="Helvetica,sans-Serif" font-size="10.00" fill="grey"> &#45;stateVisualizer</text>
</g>
</g>
</svg>
