<?xml version="1.0" encoding="UTF-8" standalone="no"?>
<!DOCTYPE svg PUBLIC "-//W3C//DTD SVG 1.1//EN"
 "http://www.w3.org/Graphics/SVG/1.1/DTD/svg11.dtd">
<!-- Generated by graphviz version 7.0.5 (20221223.1930)
 -->
<!-- Title: lib/application_business_rules/serial_interface/command_line_interpreter.hpp Pages: 1 -->
<svg width="529pt" height="159pt"
 viewBox="0.00 0.00 528.50 159.00" xmlns="http://www.w3.org/2000/svg" xmlns:xlink="http://www.w3.org/1999/xlink">
<g id="graph0" class="graph" transform="scale(1 1) rotate(0) translate(4 155)">
<title>lib/application_business_rules/serial_interface/command_line_interpreter.hpp</title>
<!-- Node1 -->
<g id="node1" class="node">
<title>Node1</title>
<g id="a_node1"><a xlink:title=" ">
<polygon fill="#999999" stroke="#666666" points="300,-151 151,-151 151,-110 300,-110 300,-151"/>
<text text-anchor="start" x="159" y="-139" font-family="Helvetica,sans-Serif" font-size="10.00">lib/application_business</text>
<text text-anchor="start" x="159" y="-128" font-family="Helvetica,sans-Serif" font-size="10.00">_rules/serial_interface</text>
<text text-anchor="middle" x="225.5" y="-117" font-family="Helvetica,sans-Serif" font-size="10.00">/command_line_interpreter.hpp</text>
</a>
</g>
</g>
<!-- Node2 -->
<g id="node2" class="node">
<title>Node2</title>
<g id="a_node2"><a xlink:title=" ">
<polygon fill="#e0e0e0" stroke="#999999" points="59,-74 0,-74 0,-55 59,-55 59,-74"/>
<text text-anchor="middle" x="29.5" y="-62" font-family="Helvetica,sans-Serif" font-size="10.00">functional</text>
</a>
</g>
</g>
<!-- Node1&#45;&gt;Node2 -->
<g id="edge1" class="edge">
<title>Node1&#45;&gt;Node2</title>
<path fill="none" stroke="#63b8ff" d="M164.29,-109.51C132.7,-99.2 95.14,-86.93 67.71,-77.98"/>
<polygon fill="#63b8ff" stroke="#63b8ff" points="69.02,-74.72 58.42,-74.94 66.84,-81.38 69.02,-74.72"/>
</g>
<!-- Node3 -->
<g id="node3" class="node">
<title>Node3</title>
<g id="a_node3"><a xlink:title=" ">
<polygon fill="#e0e0e0" stroke="#999999" points="131.5,-74 77.5,-74 77.5,-55 131.5,-55 131.5,-74"/>
<text text-anchor="middle" x="104.5" y="-62" font-family="Helvetica,sans-Serif" font-size="10.00">iostream</text>
</a>
</g>
</g>
<!-- Node1&#45;&gt;Node3 -->
<g id="edge2" class="edge">
<title>Node1&#45;&gt;Node3</title>
<path fill="none" stroke="#63b8ff" d="M187.88,-109.6C169.55,-99.91 147.94,-88.48 131.32,-79.68"/>
<polygon fill="#63b8ff" stroke="#63b8ff" points="133.01,-76.62 122.53,-75.04 129.74,-82.81 133.01,-76.62"/>
</g>
<!-- Node4 -->
<g id="node4" class="node">
<title>Node4</title>
<g id="a_node4"><a xlink:title=" ">
<polygon fill="#e0e0e0" stroke="#999999" points="197,-74 150,-74 150,-55 197,-55 197,-74"/>
<text text-anchor="middle" x="173.5" y="-62" font-family="Helvetica,sans-Serif" font-size="10.00">iterator</text>
</a>
</g>
</g>
<!-- Node1&#45;&gt;Node4 -->
<g id="edge3" class="edge">
<title>Node1&#45;&gt;Node4</title>
<path fill="none" stroke="#63b8ff" d="M209.33,-109.6C202.39,-101.06 194.35,-91.16 187.65,-82.91"/>
<polygon fill="#63b8ff" stroke="#63b8ff" points="190.52,-80.89 181.49,-75.34 185.08,-85.31 190.52,-80.89"/>
</g>
<!-- Node5 -->
<g id="node5" class="node">
<title>Node5</title>
<g id="a_node5"><a xlink:title=" ">
<polygon fill="#e0e0e0" stroke="#999999" points="258,-19 199,-19 199,0 258,0 258,-19"/>
<text text-anchor="middle" x="228.5" y="-7" font-family="Helvetica,sans-Serif" font-size="10.00">stdexcept</text>
</a>
</g>
</g>
<!-- Node1&#45;&gt;Node5 -->
<g id="edge4" class="edge">
<title>Node1&#45;&gt;Node5</title>
<path fill="none" stroke="#63b8ff" d="M226,-109.58C226.55,-87.68 227.44,-52.68 227.99,-30.68"/>
<polygon fill="#63b8ff" stroke="#63b8ff" points="231.48,-31.02 228.24,-20.93 224.49,-30.84 231.48,-31.02"/>
</g>
<!-- Node6 -->
<g id="node6" class="node">
<title>Node6</title>
<g id="a_node6"><a xlink:title=" ">
<polygon fill="#e0e0e0" stroke="#999999" points="291.5,-74 253.5,-74 253.5,-55 291.5,-55 291.5,-74"/>
<text text-anchor="middle" x="272.5" y="-62" font-family="Helvetica,sans-Serif" font-size="10.00">tuple</text>
</a>
</g>
</g>
<!-- Node1&#45;&gt;Node6 -->
<g id="edge5" class="edge">
<title>Node1&#45;&gt;Node6</title>
<path fill="none" stroke="#63b8ff" d="M240.11,-109.6C246.32,-101.15 253.5,-91.38 259.52,-83.18"/>
<polygon fill="#63b8ff" stroke="#63b8ff" points="262.14,-85.51 265.24,-75.38 256.5,-81.37 262.14,-85.51"/>
</g>
<!-- Node7 -->
<g id="node7" class="node">
<title>Node7</title>
<g id="a_node7"><a xlink:href="string__helpers_8hpp.xhtml" target="_top" xlink:title=" ">
<polygon fill="white" stroke="#666666" points="439,-74 310,-74 310,-55 439,-55 439,-74"/>
<text text-anchor="middle" x="374.5" y="-62" font-family="Helvetica,sans-Serif" font-size="10.00">utilities/string_helpers.hpp</text>
</a>
</g>
</g>
<!-- Node1&#45;&gt;Node7 -->
<g id="edge6" class="edge">
<title>Node1&#45;&gt;Node7</title>
<path fill="none" stroke="#63b8ff" d="M271.83,-109.6C295.15,-99.59 322.78,-87.72 343.5,-78.81"/>
<polygon fill="#63b8ff" stroke="#63b8ff" points="344.74,-82.09 352.55,-74.93 341.98,-75.66 344.74,-82.09"/>
</g>
<!-- Node12 -->
<g id="node12" class="node">
<title>Node12</title>
<g id="a_node12"><a xlink:title=" ">
<polygon fill="#e0e0e0" stroke="#999999" points="496,-74 457,-74 457,-55 496,-55 496,-74"/>
<text text-anchor="middle" x="476.5" y="-62" font-family="Helvetica,sans-Serif" font-size="10.00">utility</text>
</a>
</g>
</g>
<!-- Node1&#45;&gt;Node12 -->
<g id="edge12" class="edge">
<title>Node1&#45;&gt;Node12</title>
<path fill="none" stroke="#63b8ff" d="M300.33,-111.88C340.94,-102.08 392.25,-89.33 445.6,-74.71"/>
<polygon fill="#63b8ff" stroke="#63b8ff" points="446.48,-78.1 455.19,-72.06 444.62,-71.35 446.48,-78.1"/>
</g>
<!-- Node7&#45;&gt;Node5 -->
<g id="edge9" class="edge">
<title>Node7&#45;&gt;Node5</title>
<path fill="none" stroke="#63b8ff" d="M349.73,-54.51C326.1,-45.93 290.26,-32.92 263.67,-23.27"/>
<polygon fill="#63b8ff" stroke="#63b8ff" points="264.92,-20 254.32,-19.87 262.53,-26.58 264.92,-20"/>
</g>
<!-- Node8 -->
<g id="node8" class="node">
<title>Node8</title>
<g id="a_node8"><a xlink:title=" ">
<polygon fill="#e0e0e0" stroke="#999999" points="328.5,-19 278.5,-19 278.5,0 328.5,0 328.5,-19"/>
<text text-anchor="middle" x="303.5" y="-7" font-family="Helvetica,sans-Serif" font-size="10.00">iomanip</text>
</a>
</g>
</g>
<!-- Node7&#45;&gt;Node8 -->
<g id="edge7" class="edge">
<title>Node7&#45;&gt;Node8</title>
<path fill="none" stroke="#63b8ff" d="M362.46,-54.51C352.09,-46.77 336.9,-35.43 324.53,-26.2"/>
<polygon fill="#63b8ff" stroke="#63b8ff" points="326.69,-23.44 316.58,-20.26 322.5,-29.05 326.69,-23.44"/>
</g>
<!-- Node9 -->
<g id="node9" class="node">
<title>Node9</title>
<g id="a_node9"><a xlink:title=" ">
<polygon fill="#e0e0e0" stroke="#999999" points="398.5,-19 346.5,-19 346.5,0 398.5,0 398.5,-19"/>
<text text-anchor="middle" x="372.5" y="-7" font-family="Helvetica,sans-Serif" font-size="10.00">sstream</text>
</a>
</g>
</g>
<!-- Node7&#45;&gt;Node9 -->
<g id="edge8" class="edge">
<title>Node7&#45;&gt;Node9</title>
<path fill="none" stroke="#63b8ff" d="M374.17,-54.75C373.93,-48.27 373.58,-39.16 373.27,-30.9"/>
<polygon fill="#63b8ff" stroke="#63b8ff" points="376.77,-30.82 372.89,-20.95 369.77,-31.08 376.77,-30.82"/>
</g>
<!-- Node10 -->
<g id="node10" class="node">
<title>Node10</title>
<g id="a_node10"><a xlink:title=" ">
<polygon fill="#e0e0e0" stroke="#999999" points="458,-19 417,-19 417,0 458,0 458,-19"/>
<text text-anchor="middle" x="437.5" y="-7" font-family="Helvetica,sans-Serif" font-size="10.00">string</text>
</a>
</g>
</g>
<!-- Node7&#45;&gt;Node10 -->
<g id="edge10" class="edge">
<title>Node7&#45;&gt;Node10</title>
<path fill="none" stroke="#63b8ff" d="M385.19,-54.51C394.2,-46.93 407.33,-35.88 418.18,-26.75"/>
<polygon fill="#63b8ff" stroke="#63b8ff" points="420.41,-29.45 425.81,-20.33 415.91,-24.09 420.41,-29.45"/>
</g>
<!-- Node11 -->
<g id="node11" class="node">
<title>Node11</title>
<g id="a_node11"><a xlink:title=" ">
<polygon fill="#e0e0e0" stroke="#999999" points="520.5,-19 476.5,-19 476.5,0 520.5,0 520.5,-19"/>
<text text-anchor="middle" x="498.5" y="-7" font-family="Helvetica,sans-Serif" font-size="10.00">vector</text>
</a>
</g>
</g>
<!-- Node7&#45;&gt;Node11 -->
<g id="edge11" class="edge">
<title>Node7&#45;&gt;Node11</title>
<path fill="none" stroke="#63b8ff" d="M395.53,-54.51C415.25,-46.08 444.97,-33.38 467.41,-23.79"/>
<polygon fill="#63b8ff" stroke="#63b8ff" points="468.56,-27.1 476.38,-19.95 465.81,-20.66 468.56,-27.1"/>
</g>
</g>
</svg>
