<?xml version="1.0" encoding="UTF-8" standalone="no"?>
<!DOCTYPE svg PUBLIC "-//W3C//DTD SVG 1.1//EN"
 "http://www.w3.org/Graphics/SVG/1.1/DTD/svg11.dtd">
<!-- Generated by graphviz version 7.0.5 (20221223.1930)
 -->
<!-- Title: lib/application_business_rules/serial_interface/command_line_interpreter.hpp Pages: 1 -->
<svg width="491pt" height="159pt"
 viewBox="0.00 0.00 490.50 159.00" xmlns="http://www.w3.org/2000/svg" xmlns:xlink="http://www.w3.org/1999/xlink">
<g id="graph0" class="graph" transform="scale(1 1) rotate(0) translate(4 155)">
<title>lib/application_business_rules/serial_interface/command_line_interpreter.hpp</title>
<!-- Node1 -->
<g id="node1" class="node">
<title>Node1</title>
<g id="a_node1"><a xlink:title=" ">
<polygon fill="#999999" stroke="#666666" points="300,-151 151,-151 151,-110 300,-110 300,-151"/>
<text text-anchor="start" x="159" y="-139" font-family="Helvetica,sans-Serif" font-size="10.00">lib/application_business</text>
<text text-anchor="start" x="159" y="-128" font-family="Helvetica,sans-Serif" font-size="10.00">_rules/serial_interface</text>
<text text-anchor="middle" x="225.5" y="-117" font-family="Helvetica,sans-Serif" font-size="10.00">/command_line_interpreter.hpp</text>
</a>
</g>
</g>
<!-- Node2 -->
<g id="node2" class="node">
<title>Node2</title>
<g id="a_node2"><a xlink:title=" ">
<polygon fill="#e0e0e0" stroke="#999999" points="59,-74 0,-74 0,-55 59,-55 59,-74"/>
<text text-anchor="middle" x="29.5" y="-62" font-family="Helvetica,sans-Serif" font-size="10.00">functional</text>
</a>
</g>
</g>
<!-- Node1&#45;&gt;Node2 -->
<g id="edge1" class="edge">
<title>Node1&#45;&gt;Node2</title>
<path fill="none" stroke="#63b8ff" d="M164.29,-109.51C132.7,-99.2 95.14,-86.93 67.71,-77.98"/>
<polygon fill="#63b8ff" stroke="#63b8ff" points="69.02,-74.72 58.42,-74.94 66.84,-81.38 69.02,-74.72"/>
</g>
<!-- Node3 -->
<g id="node3" class="node">
<title>Node3</title>
<g id="a_node3"><a xlink:title=" ">
<polygon fill="#e0e0e0" stroke="#999999" points="131.5,-74 77.5,-74 77.5,-55 131.5,-55 131.5,-74"/>
<text text-anchor="middle" x="104.5" y="-62" font-family="Helvetica,sans-Serif" font-size="10.00">iostream</text>
</a>
</g>
</g>
<!-- Node1&#45;&gt;Node3 -->
<g id="edge2" class="edge">
<title>Node1&#45;&gt;Node3</title>
<path fill="none" stroke="#63b8ff" d="M187.88,-109.6C169.55,-99.91 147.94,-88.48 131.32,-79.68"/>
<polygon fill="#63b8ff" stroke="#63b8ff" points="133.01,-76.62 122.53,-75.04 129.74,-82.81 133.01,-76.62"/>
</g>
<!-- Node4 -->
<g id="node4" class="node">
<title>Node4</title>
<g id="a_node4"><a xlink:title=" ">
<polygon fill="#e0e0e0" stroke="#999999" points="197,-74 150,-74 150,-55 197,-55 197,-74"/>
<text text-anchor="middle" x="173.5" y="-62" font-family="Helvetica,sans-Serif" font-size="10.00">iterator</text>
</a>
</g>
</g>
<!-- Node1&#45;&gt;Node4 -->
<g id="edge3" class="edge">
<title>Node1&#45;&gt;Node4</title>
<path fill="none" stroke="#63b8ff" d="M209.33,-109.6C202.39,-101.06 194.35,-91.16 187.65,-82.91"/>
<polygon fill="#63b8ff" stroke="#63b8ff" points="190.52,-80.89 181.49,-75.34 185.08,-85.31 190.52,-80.89"/>
</g>
<!-- Node5 -->
<g id="node5" class="node">
<title>Node5</title>
<g id="a_node5"><a xlink:title=" ">
<polygon fill="#e0e0e0" stroke="#999999" points="222,-19 163,-19 163,0 222,0 222,-19"/>
<text text-anchor="middle" x="192.5" y="-7" font-family="Helvetica,sans-Serif" font-size="10.00">stdexcept</text>
</a>
</g>
</g>
<!-- Node1&#45;&gt;Node5 -->
<g id="edge4" class="edge">
<title>Node1&#45;&gt;Node5</title>
<path fill="none" stroke="#63b8ff" d="M220.27,-109.55C216.3,-94.53 210.67,-73.44 205.5,-55 203.22,-46.86 200.62,-37.91 198.35,-30.19"/>
<polygon fill="#63b8ff" stroke="#63b8ff" points="201.77,-29.4 195.58,-20.8 195.06,-31.38 201.77,-29.4"/>
</g>
<!-- Node6 -->
<g id="node6" class="node">
<title>Node6</title>
<g id="a_node6"><a xlink:href="string__helpers_8hpp.xhtml" target="_top" xlink:title=" ">
<polygon fill="white" stroke="#666666" points="349,-74 254,-74 254,-55 349,-55 349,-74"/>
<text text-anchor="middle" x="301.5" y="-62" font-family="Helvetica,sans-Serif" font-size="10.00">string_helpers.hpp</text>
</a>
</g>
</g>
<!-- Node1&#45;&gt;Node6 -->
<g id="edge5" class="edge">
<title>Node1&#45;&gt;Node6</title>
<path fill="none" stroke="#63b8ff" d="M249.13,-109.6C259.94,-100.5 272.57,-89.86 282.72,-81.32"/>
<polygon fill="#63b8ff" stroke="#63b8ff" points="284.66,-84.26 290.06,-75.14 280.15,-78.9 284.66,-84.26"/>
</g>
<!-- Node11 -->
<g id="node11" class="node">
<title>Node11</title>
<g id="a_node11"><a xlink:title=" ">
<polygon fill="#e0e0e0" stroke="#999999" points="405.5,-74 367.5,-74 367.5,-55 405.5,-55 405.5,-74"/>
<text text-anchor="middle" x="386.5" y="-62" font-family="Helvetica,sans-Serif" font-size="10.00">tuple</text>
</a>
</g>
</g>
<!-- Node1&#45;&gt;Node11 -->
<g id="edge11" class="edge">
<title>Node1&#45;&gt;Node11</title>
<path fill="none" stroke="#63b8ff" d="M275.56,-109.6C302.09,-99.05 333.8,-86.45 356.51,-77.42"/>
<polygon fill="#63b8ff" stroke="#63b8ff" points="357.77,-80.69 365.77,-73.74 355.19,-74.18 357.77,-80.69"/>
</g>
<!-- Node12 -->
<g id="node12" class="node">
<title>Node12</title>
<g id="a_node12"><a xlink:title=" ">
<polygon fill="#e0e0e0" stroke="#999999" points="463,-74 424,-74 424,-55 463,-55 463,-74"/>
<text text-anchor="middle" x="443.5" y="-62" font-family="Helvetica,sans-Serif" font-size="10.00">utility</text>
</a>
</g>
</g>
<!-- Node1&#45;&gt;Node12 -->
<g id="edge12" class="edge">
<title>Node1&#45;&gt;Node12</title>
<path fill="none" stroke="#63b8ff" d="M293.58,-109.51C333.46,-97.81 381.89,-83.59 412.7,-74.54"/>
<polygon fill="#63b8ff" stroke="#63b8ff" points="413.54,-77.94 422.14,-71.77 411.56,-71.23 413.54,-77.94"/>
</g>
<!-- Node6&#45;&gt;Node5 -->
<g id="edge8" class="edge">
<title>Node6&#45;&gt;Node5</title>
<path fill="none" stroke="#63b8ff" d="M283.01,-54.51C266,-46.24 240.51,-33.84 220.91,-24.31"/>
<polygon fill="#63b8ff" stroke="#63b8ff" points="222.6,-21.25 212.08,-20.02 219.54,-27.54 222.6,-21.25"/>
</g>
<!-- Node7 -->
<g id="node7" class="node">
<title>Node7</title>
<g id="a_node7"><a xlink:title=" ">
<polygon fill="#e0e0e0" stroke="#999999" points="290.5,-19 240.5,-19 240.5,0 290.5,0 290.5,-19"/>
<text text-anchor="middle" x="265.5" y="-7" font-family="Helvetica,sans-Serif" font-size="10.00">iomanip</text>
</a>
</g>
</g>
<!-- Node6&#45;&gt;Node7 -->
<g id="edge6" class="edge">
<title>Node6&#45;&gt;Node7</title>
<path fill="none" stroke="#63b8ff" d="M295.56,-54.75C290.79,-47.73 283.94,-37.64 277.98,-28.87"/>
<polygon fill="#63b8ff" stroke="#63b8ff" points="280.94,-27 272.42,-20.69 275.15,-30.93 280.94,-27"/>
</g>
<!-- Node8 -->
<g id="node8" class="node">
<title>Node8</title>
<g id="a_node8"><a xlink:title=" ">
<polygon fill="#e0e0e0" stroke="#999999" points="360.5,-19 308.5,-19 308.5,0 360.5,0 360.5,-19"/>
<text text-anchor="middle" x="334.5" y="-7" font-family="Helvetica,sans-Serif" font-size="10.00">sstream</text>
</a>
</g>
</g>
<!-- Node6&#45;&gt;Node8 -->
<g id="edge7" class="edge">
<title>Node6&#45;&gt;Node8</title>
<path fill="none" stroke="#63b8ff" d="M306.95,-54.75C311.27,-47.81 317.46,-37.86 322.88,-29.16"/>
<polygon fill="#63b8ff" stroke="#63b8ff" points="325.82,-31.07 328.13,-20.73 319.88,-27.37 325.82,-31.07"/>
</g>
<!-- Node9 -->
<g id="node9" class="node">
<title>Node9</title>
<g id="a_node9"><a xlink:title=" ">
<polygon fill="#e0e0e0" stroke="#999999" points="420,-19 379,-19 379,0 420,0 420,-19"/>
<text text-anchor="middle" x="399.5" y="-7" font-family="Helvetica,sans-Serif" font-size="10.00">string</text>
</a>
</g>
</g>
<!-- Node6&#45;&gt;Node9 -->
<g id="edge9" class="edge">
<title>Node6&#45;&gt;Node9</title>
<path fill="none" stroke="#63b8ff" d="M318.12,-54.51C333.28,-46.31 355.92,-34.07 373.47,-24.58"/>
<polygon fill="#63b8ff" stroke="#63b8ff" points="374.66,-27.91 381.79,-20.08 371.33,-21.76 374.66,-27.91"/>
</g>
<!-- Node10 -->
<g id="node10" class="node">
<title>Node10</title>
<g id="a_node10"><a xlink:title=" ">
<polygon fill="#e0e0e0" stroke="#999999" points="482.5,-19 438.5,-19 438.5,0 482.5,0 482.5,-19"/>
<text text-anchor="middle" x="460.5" y="-7" font-family="Helvetica,sans-Serif" font-size="10.00">vector</text>
</a>
</g>
</g>
<!-- Node6&#45;&gt;Node10 -->
<g id="edge10" class="edge">
<title>Node6&#45;&gt;Node10</title>
<path fill="none" stroke="#63b8ff" d="M328.47,-54.51C355.81,-45.4 398.15,-31.28 427.48,-21.51"/>
<polygon fill="#63b8ff" stroke="#63b8ff" points="428.21,-24.95 436.59,-18.47 426,-18.31 428.21,-24.95"/>
</g>
</g>
</svg>
