<?xml version="1.0" encoding="UTF-8" standalone="no"?>
<!DOCTYPE svg PUBLIC "-//W3C//DTD SVG 1.1//EN"
 "http://www.w3.org/Graphics/SVG/1.1/DTD/svg11.dtd">
<!-- Generated by graphviz version 9.0.0 (20230911.1827)
 -->
<!-- Title: lib/layer1_use_cases/include/controller_factory_interface.hpp Pages: 1 -->
<svg width="190pt" height="128pt"
 viewBox="0.00 0.00 190.38 127.50" xmlns="http://www.w3.org/2000/svg" xmlns:xlink="http://www.w3.org/1999/xlink">
<g id="graph0" class="graph" transform="scale(1 1) rotate(0) translate(4 123.5)">
<title>lib/layer1_use_cases/include/controller_factory_interface.hpp</title>
<!-- Node1 -->
<g id="Node000001" class="node">
<title>Node1</title>
<g id="a_Node000001"><a xlink:title=" ">
<polygon fill="#999999" stroke="#666666" points="160.12,-119.5 33.12,-119.5 33.12,-77.75 160.12,-77.75 160.12,-119.5"/>
<text text-anchor="start" x="41.12" y="-106" font-family="Helvetica,sans-Serif" font-size="10.00">lib/layer1_use_cases</text>
<text text-anchor="start" x="41.12" y="-94.75" font-family="Helvetica,sans-Serif" font-size="10.00">/include/controller_factory</text>
<text text-anchor="middle" x="96.62" y="-83.5" font-family="Helvetica,sans-Serif" font-size="10.00">_interface.hpp</text>
</a>
</g>
</g>
<!-- Node2 -->
<g id="Node000002" class="node">
<title>Node2</title>
<g id="a_Node000002"><a xlink:href="controller__factory__interface_8cpp.xhtml" target="_top" xlink:title=" ">
<polygon fill="white" stroke="#666666" points="93.25,-41.75 0,-41.75 0,0 93.25,0 93.25,-41.75"/>
<text text-anchor="start" x="8" y="-28.25" font-family="Helvetica,sans-Serif" font-size="10.00">lib/layer2_hmi/src</text>
<text text-anchor="start" x="8" y="-17" font-family="Helvetica,sans-Serif" font-size="10.00">/controller_factory</text>
<text text-anchor="middle" x="46.62" y="-5.75" font-family="Helvetica,sans-Serif" font-size="10.00">_interface.cpp</text>
</a>
</g>
</g>
<!-- Node1&#45;&gt;Node2 -->
<g id="edge1_Node000001_Node000002" class="edge">
<title>Node1&#45;&gt;Node2</title>
<g id="a_edge1_Node000001_Node000002"><a xlink:title=" ">
<path fill="none" stroke="#63b8ff" d="M77.04,-67.95C71.36,-59.34 65.28,-50.13 60.06,-42.23"/>
<polygon fill="#63b8ff" stroke="#63b8ff" points="73.96,-69.64 82.39,-76.06 79.8,-65.79 73.96,-69.64"/>
</a>
</g>
</g>
<!-- Node3 -->
<g id="Node000003" class="node">
<title>Node3</title>
<g id="a_Node000003"><a xlink:href="main_8cpp.xhtml" target="_top" xlink:title=" ">
<polygon fill="white" stroke="#666666" points="182.38,-30.5 110.88,-30.5 110.88,-11.25 182.38,-11.25 182.38,-30.5"/>
<text text-anchor="middle" x="146.62" y="-17" font-family="Helvetica,sans-Serif" font-size="10.00">src/main.cpp</text>
</a>
</g>
</g>
<!-- Node1&#45;&gt;Node3 -->
<g id="edge2_Node000001_Node000003" class="edge">
<title>Node1&#45;&gt;Node3</title>
<g id="a_edge2_Node000001_Node000003"><a xlink:title=" ">
<path fill="none" stroke="#63b8ff" d="M116.15,-68.04C124.88,-54.82 134.55,-40.17 140.6,-31"/>
<polygon fill="#63b8ff" stroke="#63b8ff" points="113.45,-65.79 110.86,-76.06 119.29,-69.64 113.45,-65.79"/>
</a>
</g>
</g>
</g>
</svg>
