<?xml version="1.0" encoding="UTF-8" standalone="no"?>
<!DOCTYPE svg PUBLIC "-//W3C//DTD SVG 1.1//EN"
 "http://www.w3.org/Graphics/SVG/1.1/DTD/svg11.dtd">
<!-- Generated by graphviz version 9.0.0 (20230911.1827)
 -->
<!-- Title: lib/layer2_hmi/src/Controller.cpp Pages: 1 -->
<svg width="205pt" height="260pt"
 viewBox="0.00 0.00 205.43 259.50" xmlns="http://www.w3.org/2000/svg" xmlns:xlink="http://www.w3.org/1999/xlink">
<g id="graph0" class="graph" transform="scale(1 1) rotate(0) translate(4 255.5)">
<title>lib/layer2_hmi/src/Controller.cpp</title>
<!-- Node1 -->
<g id="Node000001" class="node">
<title>Node1</title>
<g id="a_Node000001"><a xlink:title=" ">
<polygon fill="#999999" stroke="#666666" points="139.43,-251.5 47.68,-251.5 47.68,-221 139.43,-221 139.43,-251.5"/>
<text text-anchor="start" x="55.68" y="-238" font-family="Helvetica,sans-Serif" font-size="10.00">lib/layer2_hmi/src</text>
<text text-anchor="middle" x="93.55" y="-226.75" font-family="Helvetica,sans-Serif" font-size="10.00">/Controller.cpp</text>
</a>
</g>
</g>
<!-- Node2 -->
<g id="Node000002" class="node">
<title>Node2</title>
<g id="a_Node000002"><a xlink:href="Controller_8hpp.xhtml" target="_top" xlink:title=" ">
<polygon fill="white" stroke="#666666" points="131.18,-185 55.93,-185 55.93,-165.75 131.18,-165.75 131.18,-185"/>
<text text-anchor="middle" x="93.55" y="-171.5" font-family="Helvetica,sans-Serif" font-size="10.00">Controller.hpp</text>
</a>
</g>
</g>
<!-- Node1&#45;&gt;Node2 -->
<g id="edge1_Node000001_Node000002" class="edge">
<title>Node1&#45;&gt;Node2</title>
<g id="a_edge1_Node000001_Node000002"><a xlink:title=" ">
<path fill="none" stroke="#63b8ff" d="M93.55,-220.7C93.55,-213.46 93.55,-204.59 93.55,-196.69"/>
<polygon fill="#63b8ff" stroke="#63b8ff" points="97.05,-196.96 93.55,-186.96 90.05,-196.96 97.05,-196.96"/>
</a>
</g>
</g>
<!-- Node3 -->
<g id="Node000003" class="node">
<title>Node3</title>
<g id="a_Node000003"><a xlink:href="IController_8hpp.xhtml" target="_top" xlink:title=" ">
<polygon fill="white" stroke="#666666" points="178.68,-129.75 100.43,-129.75 100.43,-110.5 178.68,-110.5 178.68,-129.75"/>
<text text-anchor="middle" x="139.55" y="-116.25" font-family="Helvetica,sans-Serif" font-size="10.00">IController.hpp</text>
</a>
</g>
</g>
<!-- Node2&#45;&gt;Node3 -->
<g id="edge2_Node000002_Node000003" class="edge">
<title>Node2&#45;&gt;Node3</title>
<g id="a_edge2_Node000002_Node000003"><a xlink:title=" ">
<path fill="none" stroke="#63b8ff" d="M101.15,-165.58C107.44,-158.3 116.57,-147.73 124.35,-138.73"/>
<polygon fill="#63b8ff" stroke="#63b8ff" points="126.91,-141.11 130.8,-131.25 121.62,-136.53 126.91,-141.11"/>
</a>
</g>
</g>
<!-- Node4 -->
<g id="Node000004" class="node">
<title>Node4</title>
<g id="a_Node000004"><a xlink:href="KeyIds_8hpp.xhtml" target="_top" xlink:title=" ">
<polygon fill="white" stroke="#666666" points="79.55,-74.5 15.55,-74.5 15.55,-55.25 79.55,-55.25 79.55,-74.5"/>
<text text-anchor="middle" x="47.55" y="-61" font-family="Helvetica,sans-Serif" font-size="10.00">KeyIds.hpp</text>
</a>
</g>
</g>
<!-- Node2&#45;&gt;Node4 -->
<g id="edge8_Node000002_Node000004" class="edge">
<title>Node2&#45;&gt;Node4</title>
<g id="a_edge8_Node000002_Node000004"><a xlink:title=" ">
<path fill="none" stroke="#63b8ff" d="M55.54,-165.67C36.42,-159.17 14.95,-148.13 3.55,-129.75 -6.83,-113.01 9.02,-94.54 24.51,-81.79"/>
<polygon fill="#63b8ff" stroke="#63b8ff" points="26.38,-84.77 32.19,-75.92 22.12,-79.21 26.38,-84.77"/>
</a>
</g>
</g>
<!-- Node6 -->
<g id="Node000006" class="node">
<title>Node6</title>
<g id="a_Node000006"><a xlink:title=" ">
<polygon fill="#e0e0e0" stroke="#999999" points="197.43,-74.5 147.68,-74.5 147.68,-55.25 197.43,-55.25 197.43,-74.5"/>
<text text-anchor="middle" x="172.55" y="-61" font-family="Helvetica,sans-Serif" font-size="10.00">optional</text>
</a>
</g>
</g>
<!-- Node2&#45;&gt;Node6 -->
<g id="edge9_Node000002_Node000006" class="edge">
<title>Node2&#45;&gt;Node6</title>
<g id="a_edge9_Node000002_Node000006"><a xlink:title=" ">
<path fill="none" stroke="#63b8ff" d="M131.28,-166.72C151.7,-160.45 175.2,-149.29 187.55,-129.75 196.11,-116.21 190.74,-98.27 184.16,-84.85"/>
<polygon fill="#63b8ff" stroke="#63b8ff" points="187.26,-83.22 179.36,-76.16 181.13,-86.61 187.26,-83.22"/>
</a>
</g>
</g>
<!-- Node7 -->
<g id="Node000007" class="node">
<title>Node7</title>
<g id="a_Node000007"><a xlink:href="IKeypad_8hpp.xhtml" target="_top" xlink:title=" ">
<polygon fill="white" stroke="#666666" points="82.18,-129.75 12.93,-129.75 12.93,-110.5 82.18,-110.5 82.18,-129.75"/>
<text text-anchor="middle" x="47.55" y="-116.25" font-family="Helvetica,sans-Serif" font-size="10.00">IKeypad.hpp</text>
</a>
</g>
</g>
<!-- Node2&#45;&gt;Node7 -->
<g id="edge6_Node000002_Node000007" class="edge">
<title>Node2&#45;&gt;Node7</title>
<g id="a_edge6_Node000002_Node000007"><a xlink:title=" ">
<path fill="none" stroke="#63b8ff" d="M85.96,-165.58C79.67,-158.3 70.54,-147.73 62.76,-138.73"/>
<polygon fill="#63b8ff" stroke="#63b8ff" points="65.49,-136.53 56.3,-131.25 60.19,-141.11 65.49,-136.53"/>
</a>
</g>
</g>
<!-- Node3&#45;&gt;Node4 -->
<g id="edge3_Node000003_Node000004" class="edge">
<title>Node3&#45;&gt;Node4</title>
<g id="a_edge3_Node000003_Node000004"><a xlink:title=" ">
<path fill="none" stroke="#63b8ff" d="M123.95,-110.09C109.94,-101.98 89.12,-89.93 72.75,-80.46"/>
<polygon fill="#63b8ff" stroke="#63b8ff" points="74.95,-77.69 64.55,-75.71 71.45,-83.75 74.95,-77.69"/>
</a>
</g>
</g>
<!-- Node3&#45;&gt;Node6 -->
<g id="edge5_Node000003_Node000006" class="edge">
<title>Node3&#45;&gt;Node6</title>
<g id="a_edge5_Node000003_Node000006"><a xlink:title=" ">
<path fill="none" stroke="#63b8ff" d="M145,-110.33C149.32,-103.36 155.51,-93.37 160.93,-84.62"/>
<polygon fill="#63b8ff" stroke="#63b8ff" points="163.89,-86.49 166.19,-76.15 157.94,-82.8 163.89,-86.49"/>
</a>
</g>
</g>
<!-- Node5 -->
<g id="Node000005" class="node">
<title>Node5</title>
<g id="a_Node000005"><a xlink:title=" ">
<polygon fill="#e0e0e0" stroke="#999999" points="73.18,-19.25 21.93,-19.25 21.93,0 73.18,0 73.18,-19.25"/>
<text text-anchor="middle" x="47.55" y="-5.75" font-family="Helvetica,sans-Serif" font-size="10.00">ostream</text>
</a>
</g>
</g>
<!-- Node4&#45;&gt;Node5 -->
<g id="edge4_Node000004_Node000005" class="edge">
<title>Node4&#45;&gt;Node5</title>
<g id="a_edge4_Node000004_Node000005"><a xlink:title=" ">
<path fill="none" stroke="#63b8ff" d="M47.55,-55.08C47.55,-48.57 47.55,-39.42 47.55,-31.12"/>
<polygon fill="#63b8ff" stroke="#63b8ff" points="51.05,-31.12 47.55,-21.12 44.05,-31.12 51.05,-31.12"/>
</a>
</g>
</g>
<!-- Node7&#45;&gt;Node4 -->
<g id="edge7_Node000007_Node000004" class="edge">
<title>Node7&#45;&gt;Node4</title>
<g id="a_edge7_Node000007_Node000004"><a xlink:title=" ">
<path fill="none" stroke="#63b8ff" d="M47.55,-110.33C47.55,-103.82 47.55,-94.67 47.55,-86.37"/>
<polygon fill="#63b8ff" stroke="#63b8ff" points="51.05,-86.37 47.55,-76.37 44.05,-86.37 51.05,-86.37"/>
</a>
</g>
</g>
</g>
</svg>
