<?xml version="1.0" encoding="UTF-8" standalone="no"?>
<!DOCTYPE svg PUBLIC "-//W3C//DTD SVG 1.1//EN"
 "http://www.w3.org/Graphics/SVG/1.1/DTD/svg11.dtd">
<!-- Generated by graphviz version 7.0.5 (20221223.1930)
 -->
<!-- Title: lib/board_adapters Pages: 1 -->
<svg width="382pt" height="207pt"
 viewBox="0.00 0.00 382.00 207.00" xmlns="http://www.w3.org/2000/svg" xmlns:xlink="http://www.w3.org/1999/xlink">
<g id="graph0" class="graph" transform="scale(1 1) rotate(0) translate(4 203)">
<title>lib/board_adapters</title>
<g id="clust1" class="cluster">
<title>clusterdir_97aefd0d527b934f1d99a682da8fe6a9</title>
<g id="a_clust1"><a xlink:href="dir_97aefd0d527b934f1d99a682da8fe6a9.xhtml" target="_top" xlink:title="lib">
<polygon fill="#edf0f7" stroke="#404040" stroke-dasharray="5,2" points="8,-8 8,-191 366,-191 366,-8 8,-8"/>
<text text-anchor="middle" x="187" y="-179" font-family="Helvetica,sans-Serif" font-size="10.00">lib</text>
</a>
</g>
</g>
<g id="clust2" class="cluster">
<title>clusterdir_b49365647f74dff1c8dd1e88d29293e4</title>
<g id="a_clust2"><a xlink:href="dir_b49365647f74dff1c8dd1e88d29293e4.xhtml" target="_top" xlink:title="Package Board Adapters.">
<polygon fill="#edf0f7" stroke="#404040" stroke-width="2" points="16,-74 16,-164 358,-164 358,-74 16,-74"/>
</a>
</g>
</g>
<!-- dir_6dbb42d2342d9d7292a192bc1d024acc -->
<g id="node1" class="node">
<title>dir_6dbb42d2342d9d7292a192bc1d024acc</title>
<g id="a_node1"><a xlink:href="dir_6dbb42d2342d9d7292a192bc1d024acc.xhtml" target="_top" xlink:title="Package Application Business Rules.">
<polygon fill="#c8d2e7" stroke="red" points="225.5,-46 118.5,-46 118.5,-16 225.5,-16 225.5,-46"/>
<text text-anchor="start" x="126.5" y="-34" font-family="Helvetica,sans-Serif" font-size="10.00">application_business</text>
<text text-anchor="middle" x="172" y="-23" font-family="Helvetica,sans-Serif" font-size="10.00">_rules</text>
</a>
</g>
</g>
<!-- dir_b49365647f74dff1c8dd1e88d29293e4 -->
<g id="node2" class="node">
<title>dir_b49365647f74dff1c8dd1e88d29293e4</title>
<text text-anchor="middle" x="66" y="-144" font-family="Helvetica,sans-Serif" font-size="10.00">board_adapters</text>
</g>
<!-- dir_b49365647f74dff1c8dd1e88d29293e4&#45;&gt;dir_6dbb42d2342d9d7292a192bc1d024acc -->
<g id="edge2" class="edge">
<title>dir_b49365647f74dff1c8dd1e88d29293e4&#45;&gt;dir_6dbb42d2342d9d7292a192bc1d024acc</title>
<path fill="none" stroke="#63b8ff" d="M95,-137.13C113.78,-130.29 137.38,-118.8 152,-101 162.08,-88.73 167.08,-71.59 169.56,-57.47"/>
<polygon fill="#63b8ff" stroke="#63b8ff" points="172.97,-58.37 170.9,-47.98 166.04,-57.4 172.97,-58.37"/>
<g id="a_edge2&#45;headlabel"><a xlink:href="dir_000003_000001.xhtml" target="_top" xlink:title="6">
<text text-anchor="middle" x="175.49" y="-58.33" font-family="Helvetica,sans-Serif" font-size="10.00" fill="#63b8ff">6</text>
</a>
</g>
</g>
<!-- dir_5d3f509552af106634de565dc9d6f33a -->
<g id="node4" class="node">
<title>dir_5d3f509552af106634de565dc9d6f33a</title>
<g id="a_node4"><a xlink:href="dir_5d3f509552af106634de565dc9d6f33a.xhtml" target="_top" xlink:title="sound_output_interface">
<polygon fill="#c8d2e7" stroke="#404040" points="143,-101 25,-101 25,-82 143,-82 143,-101"/>
<text text-anchor="middle" x="84" y="-89" font-family="Helvetica,sans-Serif" font-size="10.00">sound_output_interface</text>
</a>
</g>
</g>
<!-- dir_b49365647f74dff1c8dd1e88d29293e4&#45;&gt;dir_5d3f509552af106634de565dc9d6f33a -->
<g id="edge1" class="edge">
<title>dir_b49365647f74dff1c8dd1e88d29293e4&#45;&gt;dir_5d3f509552af106634de565dc9d6f33a</title>
<path fill="none" stroke="#63b8ff" d="M68.81,-137.22C71.1,-130.49 74.41,-120.73 77.36,-112.05"/>
<polygon fill="#63b8ff" stroke="#63b8ff" points="80.64,-113.28 80.54,-102.69 74.01,-111.03 80.64,-113.28"/>
<g id="a_edge1&#45;headlabel"><a xlink:href="dir_000003_000012.xhtml" target="_top" xlink:title="1">
<text text-anchor="middle" x="82.66" y="-113.66" font-family="Helvetica,sans-Serif" font-size="10.00" fill="#63b8ff">1</text>
</a>
</g>
</g>
<!-- dir_8d1ee3be5d3bd43266cde43195651fe0 -->
<g id="node3" class="node">
<title>dir_8d1ee3be5d3bd43266cde43195651fe0</title>
<g id="a_node3"><a xlink:href="dir_8d1ee3be5d3bd43266cde43195651fe0.xhtml" target="_top" xlink:title="input_device_interface">
<polygon fill="#c8d2e7" stroke="#404040" points="240,-156 126,-156 126,-137 240,-137 240,-156"/>
<text text-anchor="middle" x="183" y="-144" font-family="Helvetica,sans-Serif" font-size="10.00">input_device_interface</text>
</a>
</g>
</g>
<!-- dir_8d1ee3be5d3bd43266cde43195651fe0&#45;&gt;dir_6dbb42d2342d9d7292a192bc1d024acc -->
<g id="edge3" class="edge">
<title>dir_8d1ee3be5d3bd43266cde43195651fe0&#45;&gt;dir_6dbb42d2342d9d7292a192bc1d024acc</title>
<path fill="none" stroke="#63b8ff" d="M182.14,-136.59C180.51,-119.8 176.93,-82.87 174.49,-57.71"/>
<polygon fill="#63b8ff" stroke="#63b8ff" points="177.99,-57.56 173.55,-47.95 171.03,-58.24 177.99,-57.56"/>
<g id="a_edge3&#45;headlabel"><a xlink:href="dir_000008_000001.xhtml" target="_top" xlink:title="2">
<text text-anchor="middle" x="181.02" y="-56.86" font-family="Helvetica,sans-Serif" font-size="10.00" fill="#63b8ff">2</text>
</a>
</g>
</g>
<!-- dir_5d3f509552af106634de565dc9d6f33a&#45;&gt;dir_6dbb42d2342d9d7292a192bc1d024acc -->
<g id="edge4" class="edge">
<title>dir_5d3f509552af106634de565dc9d6f33a&#45;&gt;dir_6dbb42d2342d9d7292a192bc1d024acc</title>
<path fill="none" stroke="#63b8ff" d="M97.37,-81.62C108.88,-73.96 125.96,-62.61 140.87,-52.69"/>
<polygon fill="#63b8ff" stroke="#63b8ff" points="142.63,-55.73 149.02,-47.28 138.75,-49.9 142.63,-55.73"/>
<g id="a_edge4&#45;headlabel"><a xlink:href="dir_000012_000001.xhtml" target="_top" xlink:title="1">
<text text-anchor="middle" x="142.47" y="-56.74" font-family="Helvetica,sans-Serif" font-size="10.00" fill="#63b8ff">1</text>
</a>
</g>
</g>
<!-- dir_dd038f7b9d5ffa107a6117feec92b6ac -->
<g id="node5" class="node">
<title>dir_dd038f7b9d5ffa107a6117feec92b6ac</title>
<g id="a_node5"><a xlink:href="dir_dd038f7b9d5ffa107a6117feec92b6ac.xhtml" target="_top" xlink:title="status_indicators">
<polygon fill="#c8d2e7" stroke="#404040" points="349.5,-156 258.5,-156 258.5,-137 349.5,-137 349.5,-156"/>
<text text-anchor="middle" x="304" y="-144" font-family="Helvetica,sans-Serif" font-size="10.00">status_indicators</text>
</a>
</g>
</g>
<!-- dir_dd038f7b9d5ffa107a6117feec92b6ac&#45;&gt;dir_6dbb42d2342d9d7292a192bc1d024acc -->
<g id="edge5" class="edge">
<title>dir_dd038f7b9d5ffa107a6117feec92b6ac&#45;&gt;dir_6dbb42d2342d9d7292a192bc1d024acc</title>
<path fill="none" stroke="#63b8ff" d="M293.64,-136.59C273.04,-118.88 226.41,-78.78 197.24,-53.7"/>
<polygon fill="#63b8ff" stroke="#63b8ff" points="199.81,-51.29 189.94,-47.43 195.24,-56.6 199.81,-51.29"/>
<g id="a_edge5&#45;headlabel"><a xlink:href="dir_000014_000001.xhtml" target="_top" xlink:title="2">
<text text-anchor="middle" x="203.23" y="-48" font-family="Helvetica,sans-Serif" font-size="10.00" fill="#63b8ff">2</text>
</a>
</g>
</g>
</g>
</svg>
