<?xml version="1.0" encoding="UTF-8" standalone="no"?>
<!DOCTYPE svg PUBLIC "-//W3C//DTD SVG 1.1//EN"
 "http://www.w3.org/Graphics/SVG/1.1/DTD/svg11.dtd">
<!-- Generated by graphviz version 7.0.5 (20221223.1930)
 -->
<!-- Title: lib Pages: 1 -->
<svg width="468pt" height="312pt"
 viewBox="0.00 0.00 468.00 311.50" xmlns="http://www.w3.org/2000/svg" xmlns:xlink="http://www.w3.org/1999/xlink">
<g id="graph0" class="graph" transform="scale(1 1) rotate(0) translate(4 307.5)">
<title>lib</title>
<g id="clust1" class="cluster">
<title>clusterdir_97aefd0d527b934f1d99a682da8fe6a9</title>
<g id="a_clust1"><a xlink:href="dir_97aefd0d527b934f1d99a682da8fe6a9.xhtml" target="_top">
<polygon fill="#edf0f7" stroke="#404040" stroke-width="2" points="8,-8 8,-295.5 452,-295.5 452,-8 8,-8"/>
</a>
</g>
</g>
<g id="clust3" class="cluster">
<title>clusterdir_6dbb42d2342d9d7292a192bc1d024acc</title>
<g id="a_clust3"><a xlink:href="dir_6dbb42d2342d9d7292a192bc1d024acc.xhtml" target="_top" xlink:title="Package Application Business Rules.">
<polygon fill="#c8d2e7" stroke="#404040" points="43,-16 43,-122.5 167,-122.5 167,-16 43,-16"/>
</a>
</g>
</g>
<g id="clust4" class="cluster">
<title>clusterdir_b49365647f74dff1c8dd1e88d29293e4</title>
<g id="a_clust4"><a xlink:href="dir_b49365647f74dff1c8dd1e88d29293e4.xhtml" target="_top" xlink:title="Package Board Adapters.">
<polygon fill="#c8d2e7" stroke="#404040" points="68,-142.5 68,-232.5 444,-232.5 444,-142.5 68,-142.5"/>
</a>
</g>
</g>
<g id="clust2" class="cluster">
<title>clusterdir_e75212beacfa7863df067e044f07f232</title>
<g id="a_clust2"><a xlink:href="dir_e75212beacfa7863df067e044f07f232.xhtml" target="_top" xlink:title="Package 3rd Party Adapters.">
<polygon fill="#c8d2e7" stroke="#404040" points="111,-252.5 111,-287.5 357,-287.5 357,-252.5 111,-252.5"/>
</a>
</g>
</g>
<!-- dir_97aefd0d527b934f1d99a682da8fe6a9 -->
<g id="node1" class="node">
<title>dir_97aefd0d527b934f1d99a682da8fe6a9</title>
<text text-anchor="middle" x="68" y="-267.5" font-family="Helvetica,sans-Serif" font-size="10.00">lib</text>
</g>
<!-- dir_e75212beacfa7863df067e044f07f232 -->
<g id="node2" class="node">
<title>dir_e75212beacfa7863df067e044f07f232</title>
<text text-anchor="middle" x="299" y="-267.5" font-family="Helvetica,sans-Serif" font-size="10.00">3rd_party_adapters</text>
</g>
<!-- dir_e5c908e09902ac05aca8138811a01df8 -->
<g id="node3" class="node">
<title>dir_e5c908e09902ac05aca8138811a01df8</title>
<g id="a_node3"><a xlink:href="dir_e5c908e09902ac05aca8138811a01df8.xhtml" target="_top" xlink:title="Arduino">
<polygon fill="#a2b4d6" stroke="#404040" points="231,-279.5 181,-279.5 181,-260.5 231,-260.5 231,-279.5"/>
<text text-anchor="middle" x="206" y="-267.5" font-family="Helvetica,sans-Serif" font-size="10.00">Arduino</text>
</a>
</g>
</g>
<!-- dir_6dbb42d2342d9d7292a192bc1d024acc -->
<g id="node5" class="node">
<title>dir_6dbb42d2342d9d7292a192bc1d024acc</title>
<text text-anchor="start" x="59.5" y="-102.5" font-family="Helvetica,sans-Serif" font-size="10.00">application_business</text>
<text text-anchor="middle" x="105" y="-91.5" font-family="Helvetica,sans-Serif" font-size="10.00">_rules</text>
</g>
<!-- dir_e5c908e09902ac05aca8138811a01df8&#45;&gt;dir_6dbb42d2342d9d7292a192bc1d024acc -->
<g id="edge1" class="edge">
<title>dir_e5c908e09902ac05aca8138811a01df8&#45;&gt;dir_6dbb42d2342d9d7292a192bc1d024acc</title>
<path fill="none" stroke="#63b8ff" d="M189.77,-260.02C184.26,-257.28 177.98,-254.47 172,-252.5 125.62,-237.26 100.83,-264.54 64,-232.5 33.01,-205.54 23.75,-178.79 43,-142.5 47.69,-133.65 55.17,-126.33 63.34,-120.41"/>
<polygon fill="#63b8ff" stroke="#63b8ff" points="64.98,-123.52 71.47,-115.14 61.17,-117.64 64.98,-123.52"/>
<g id="a_edge1&#45;headlabel"><a xlink:href="dir_000002_000001.xhtml" target="_top" xlink:title="1">
<text text-anchor="middle" x="64.78" y="-124.53" font-family="Helvetica,sans-Serif" font-size="10.00" fill="#63b8ff">1</text>
</a>
</g>
</g>
<!-- dir_b49365647f74dff1c8dd1e88d29293e4 -->
<g id="node7" class="node">
<title>dir_b49365647f74dff1c8dd1e88d29293e4</title>
<text text-anchor="middle" x="225" y="-212.5" font-family="Helvetica,sans-Serif" font-size="10.00">board_adapters</text>
</g>
<!-- dir_e5c908e09902ac05aca8138811a01df8&#45;&gt;dir_b49365647f74dff1c8dd1e88d29293e4 -->
<g id="edge2" class="edge">
<title>dir_e5c908e09902ac05aca8138811a01df8&#45;&gt;dir_b49365647f74dff1c8dd1e88d29293e4</title>
<path fill="none" stroke="#63b8ff" d="M209.14,-260.25C211.6,-253.38 215.12,-243.56 218.22,-234.91"/>
<polygon fill="#63b8ff" stroke="#63b8ff" points="221.45,-236.26 221.53,-225.67 214.87,-233.9 221.45,-236.26"/>
<g id="a_edge2&#45;headlabel"><a xlink:href="dir_000002_000003.xhtml" target="_top" xlink:title="1">
<text text-anchor="middle" x="223.43" y="-236.68" font-family="Helvetica,sans-Serif" font-size="10.00" fill="#63b8ff">1</text>
</a>
</g>
</g>
<!-- dir_673789fe363c8cf83b6beac9ec7c58fa -->
<g id="node4" class="node">
<title>dir_673789fe363c8cf83b6beac9ec7c58fa</title>
<g id="a_node4"><a xlink:href="dir_673789fe363c8cf83b6beac9ec7c58fa.xhtml" target="_top" xlink:title="LVGL">
<polygon fill="#a2b4d6" stroke="#404040" points="162.5,-279.5 119.5,-279.5 119.5,-260.5 162.5,-260.5 162.5,-279.5"/>
<text text-anchor="middle" x="141" y="-267.5" font-family="Helvetica,sans-Serif" font-size="10.00">LVGL</text>
</a>
</g>
</g>
<!-- dir_dab382b21b73aae3d74d7668eeeacf78 -->
<g id="node6" class="node">
<title>dir_dab382b21b73aae3d74d7668eeeacf78</title>
<g id="a_node6"><a xlink:href="dir_dab382b21b73aae3d74d7668eeeacf78.xhtml" target="_top" xlink:title="tasks">
<polygon fill="#a2b4d6" stroke="#404040" points="125.5,-43 84.5,-43 84.5,-24 125.5,-24 125.5,-43"/>
<text text-anchor="middle" x="105" y="-31" font-family="Helvetica,sans-Serif" font-size="10.00">tasks</text>
</a>
</g>
</g>
<!-- dir_6dbb42d2342d9d7292a192bc1d024acc&#45;&gt;dir_dab382b21b73aae3d74d7668eeeacf78 -->
<g id="edge4" class="edge">
<title>dir_6dbb42d2342d9d7292a192bc1d024acc&#45;&gt;dir_dab382b21b73aae3d74d7668eeeacf78</title>
<path fill="none" stroke="#63b8ff" d="M105,-84.61C105,-75.92 105,-64.57 105,-54.87"/>
<polygon fill="#63b8ff" stroke="#63b8ff" points="108.5,-54.95 105,-44.95 101.5,-54.95 108.5,-54.95"/>
<g id="a_edge4&#45;headlabel"><a xlink:href="dir_000001_000015.xhtml" target="_top" xlink:title="1">
<text text-anchor="middle" x="111.34" y="-54.53" font-family="Helvetica,sans-Serif" font-size="10.00" fill="#63b8ff">1</text>
</a>
</g>
</g>
<!-- dir_71046b38222792489c3876836d4fbdbc -->
<g id="node12" class="node">
<title>dir_71046b38222792489c3876836d4fbdbc</title>
<g id="a_node12"><a xlink:href="dir_71046b38222792489c3876836d4fbdbc.xhtml" target="_top" xlink:title="Package Enterprise Business Rules.">
<polygon fill="#c8d2e7" stroke="#404040" points="279,-48.5 175,-48.5 175,-18.5 279,-18.5 279,-48.5"/>
<text text-anchor="start" x="183" y="-36.5" font-family="Helvetica,sans-Serif" font-size="10.00">enterprise_business</text>
<text text-anchor="middle" x="227" y="-25.5" font-family="Helvetica,sans-Serif" font-size="10.00">_rules</text>
</a>
</g>
</g>
<!-- dir_6dbb42d2342d9d7292a192bc1d024acc&#45;&gt;dir_71046b38222792489c3876836d4fbdbc -->
<g id="edge3" class="edge">
<title>dir_6dbb42d2342d9d7292a192bc1d024acc&#45;&gt;dir_71046b38222792489c3876836d4fbdbc</title>
<path fill="none" stroke="#63b8ff" d="M131.47,-84.61C148.5,-75.68 170.88,-63.94 189.7,-54.07"/>
<polygon fill="#63b8ff" stroke="#63b8ff" points="191.16,-57.25 198.39,-49.51 187.91,-51.05 191.16,-57.25"/>
<g id="a_edge3&#45;headlabel"><a xlink:href="dir_000001_000007.xhtml" target="_top" xlink:title="2">
<text text-anchor="middle" x="190.64" y="-58.23" font-family="Helvetica,sans-Serif" font-size="10.00" fill="#63b8ff">2</text>
</a>
</g>
</g>
<!-- dir_b49365647f74dff1c8dd1e88d29293e4&#45;&gt;dir_6dbb42d2342d9d7292a192bc1d024acc -->
<g id="edge6" class="edge">
<title>dir_b49365647f74dff1c8dd1e88d29293e4&#45;&gt;dir_6dbb42d2342d9d7292a192bc1d024acc</title>
<path fill="none" stroke="#63b8ff" d="M185.96,-205.58C141.59,-195.61 74.31,-179.16 67,-169.5 55.92,-154.87 66.89,-136.63 79.84,-122.57"/>
<polygon fill="#63b8ff" stroke="#63b8ff" points="82.32,-125.05 86.91,-115.5 77.37,-120.1 82.32,-125.05"/>
<g id="a_edge6&#45;headlabel"><a xlink:href="dir_000003_000001.xhtml" target="_top" xlink:title="5">
<text text-anchor="middle" x="82.85" y="-126.03" font-family="Helvetica,sans-Serif" font-size="10.00" fill="#63b8ff">5</text>
</a>
</g>
</g>
<!-- dir_8d1ee3be5d3bd43266cde43195651fe0 -->
<g id="node9" class="node">
<title>dir_8d1ee3be5d3bd43266cde43195651fe0</title>
<g id="a_node9"><a xlink:href="dir_8d1ee3be5d3bd43266cde43195651fe0.xhtml" target="_top" xlink:title="input_device_interface">
<polygon fill="#a2b4d6" stroke="#404040" points="190,-169.5 76,-169.5 76,-150.5 190,-150.5 190,-169.5"/>
<text text-anchor="middle" x="133" y="-157.5" font-family="Helvetica,sans-Serif" font-size="10.00">input_device_interface</text>
</a>
</g>
</g>
<!-- dir_b49365647f74dff1c8dd1e88d29293e4&#45;&gt;dir_8d1ee3be5d3bd43266cde43195651fe0 -->
<g id="edge7" class="edge">
<title>dir_b49365647f74dff1c8dd1e88d29293e4&#45;&gt;dir_8d1ee3be5d3bd43266cde43195651fe0</title>
<path fill="none" stroke="#63b8ff" d="M210.62,-205.72C196.65,-197.67 175.12,-185.26 158.27,-175.56"/>
<polygon fill="#63b8ff" stroke="#63b8ff" points="160.23,-172.65 149.81,-170.69 156.73,-178.71 160.23,-172.65"/>
<g id="a_edge7&#45;headlabel"><a xlink:href="dir_000003_000009.xhtml" target="_top" xlink:title="1">
<text text-anchor="middle" x="163.45" y="-168.72" font-family="Helvetica,sans-Serif" font-size="10.00" fill="#63b8ff">1</text>
</a>
</g>
</g>
<!-- dir_5d3f509552af106634de565dc9d6f33a -->
<g id="node10" class="node">
<title>dir_5d3f509552af106634de565dc9d6f33a</title>
<g id="a_node10"><a xlink:href="dir_5d3f509552af106634de565dc9d6f33a.xhtml" target="_top" xlink:title="sound_output_interface">
<polygon fill="#a2b4d6" stroke="#404040" points="326,-169.5 208,-169.5 208,-150.5 326,-150.5 326,-169.5"/>
<text text-anchor="middle" x="267" y="-157.5" font-family="Helvetica,sans-Serif" font-size="10.00">sound_output_interface</text>
</a>
</g>
</g>
<!-- dir_b49365647f74dff1c8dd1e88d29293e4&#45;&gt;dir_5d3f509552af106634de565dc9d6f33a -->
<g id="edge5" class="edge">
<title>dir_b49365647f74dff1c8dd1e88d29293e4&#45;&gt;dir_5d3f509552af106634de565dc9d6f33a</title>
<path fill="none" stroke="#63b8ff" d="M231.56,-205.72C237.32,-198.46 245.87,-187.66 253.13,-178.5"/>
<polygon fill="#63b8ff" stroke="#63b8ff" points="255.66,-180.95 259.12,-170.94 250.17,-176.6 255.66,-180.95"/>
<g id="a_edge5&#45;headlabel"><a xlink:href="dir_000003_000012.xhtml" target="_top" xlink:title="1">
<text text-anchor="middle" x="256.59" y="-181.84" font-family="Helvetica,sans-Serif" font-size="10.00" fill="#63b8ff">1</text>
</a>
</g>
</g>
<!-- dir_dd038f7b9d5ffa107a6117feec92b6ac -->
<g id="node11" class="node">
<title>dir_dd038f7b9d5ffa107a6117feec92b6ac</title>
<g id="a_node11"><a xlink:href="dir_dd038f7b9d5ffa107a6117feec92b6ac.xhtml" target="_top" xlink:title="status_indicators">
<polygon fill="#a2b4d6" stroke="#404040" points="435.5,-169.5 344.5,-169.5 344.5,-150.5 435.5,-150.5 435.5,-169.5"/>
<text text-anchor="middle" x="390" y="-157.5" font-family="Helvetica,sans-Serif" font-size="10.00">status_indicators</text>
</a>
</g>
</g>
<!-- dir_b49365647f74dff1c8dd1e88d29293e4&#45;&gt;dir_dd038f7b9d5ffa107a6117feec92b6ac -->
<g id="edge8" class="edge">
<title>dir_b49365647f74dff1c8dd1e88d29293e4&#45;&gt;dir_dd038f7b9d5ffa107a6117feec92b6ac</title>
<path fill="none" stroke="#63b8ff" d="M251.14,-205.6C278.09,-196.95 320.41,-183.35 351.25,-173.45"/>
<polygon fill="#63b8ff" stroke="#63b8ff" points="352.16,-176.83 360.61,-170.44 350.01,-170.17 352.16,-176.83"/>
<g id="a_edge8&#45;headlabel"><a xlink:href="dir_000003_000014.xhtml" target="_top" xlink:title="1">
<text text-anchor="middle" x="351.04" y="-177.67" font-family="Helvetica,sans-Serif" font-size="10.00" fill="#63b8ff">1</text>
</a>
</g>
</g>
<!-- dir_2cab4a4851285b5f16a60faeb6fea8d2 -->
<g id="node8" class="node">
<title>dir_2cab4a4851285b5f16a60faeb6fea8d2</title>
<g id="a_node8"><a xlink:href="dir_2cab4a4851285b5f16a60faeb6fea8d2.xhtml" target="_top" xlink:title="display_interface">
<polygon fill="#a2b4d6" stroke="#404040" points="165.5,-224.5 76.5,-224.5 76.5,-205.5 165.5,-205.5 165.5,-224.5"/>
<text text-anchor="middle" x="121" y="-212.5" font-family="Helvetica,sans-Serif" font-size="10.00">display_interface</text>
</a>
</g>
</g>
<!-- dir_2cab4a4851285b5f16a60faeb6fea8d2&#45;&gt;dir_6dbb42d2342d9d7292a192bc1d024acc -->
<g id="edge9" class="edge">
<title>dir_2cab4a4851285b5f16a60faeb6fea8d2&#45;&gt;dir_6dbb42d2342d9d7292a192bc1d024acc</title>
<path fill="none" stroke="#63b8ff" d="M95.85,-205.05C80.17,-198.02 61.28,-186.52 52,-169.5 46.26,-158.96 46.78,-153.3 52,-142.5 55.99,-134.25 62.47,-127.13 69.56,-121.21"/>
<polygon fill="#63b8ff" stroke="#63b8ff" points="71.58,-124.06 77.5,-115.27 67.39,-118.46 71.58,-124.06"/>
<g id="a_edge9&#45;headlabel"><a xlink:href="dir_000005_000001.xhtml" target="_top" xlink:title="1">
<text text-anchor="middle" x="71.62" y="-125.08" font-family="Helvetica,sans-Serif" font-size="10.00" fill="#63b8ff">1</text>
</a>
</g>
</g>
<!-- dir_8d1ee3be5d3bd43266cde43195651fe0&#45;&gt;dir_6dbb42d2342d9d7292a192bc1d024acc -->
<g id="edge10" class="edge">
<title>dir_8d1ee3be5d3bd43266cde43195651fe0&#45;&gt;dir_6dbb42d2342d9d7292a192bc1d024acc</title>
<path fill="none" stroke="#63b8ff" d="M128.87,-150.37C125.59,-143.51 120.84,-133.59 116.44,-124.39"/>
<polygon fill="#63b8ff" stroke="#63b8ff" points="119.67,-123.04 112.19,-115.53 113.35,-126.06 119.67,-123.04"/>
<g id="a_edge10&#45;headlabel"><a xlink:href="dir_000009_000001.xhtml" target="_top" xlink:title="1">
<text text-anchor="middle" x="123.13" y="-121.19" font-family="Helvetica,sans-Serif" font-size="10.00" fill="#63b8ff">1</text>
</a>
</g>
</g>
<!-- dir_5d3f509552af106634de565dc9d6f33a&#45;&gt;dir_6dbb42d2342d9d7292a192bc1d024acc -->
<g id="edge11" class="edge">
<title>dir_5d3f509552af106634de565dc9d6f33a&#45;&gt;dir_6dbb42d2342d9d7292a192bc1d024acc</title>
<path fill="none" stroke="#63b8ff" d="M242.4,-150.12C219.16,-141.73 183.64,-128.9 154.54,-118.39"/>
<polygon fill="#63b8ff" stroke="#63b8ff" points="155.76,-115.11 145.16,-115 153.38,-121.69 155.76,-115.11"/>
<g id="a_edge11&#45;headlabel"><a xlink:href="dir_000012_000001.xhtml" target="_top" xlink:title="1">
<text text-anchor="middle" x="158.68" y="-110.64" font-family="Helvetica,sans-Serif" font-size="10.00" fill="#63b8ff">1</text>
</a>
</g>
</g>
<!-- dir_dd038f7b9d5ffa107a6117feec92b6ac&#45;&gt;dir_6dbb42d2342d9d7292a192bc1d024acc -->
<g id="edge12" class="edge">
<title>dir_dd038f7b9d5ffa107a6117feec92b6ac&#45;&gt;dir_6dbb42d2342d9d7292a192bc1d024acc</title>
<path fill="none" stroke="#63b8ff" d="M362.18,-150C353.53,-147.38 343.92,-144.64 335,-142.5 279.58,-129.17 215.76,-117.83 169.42,-110.3"/>
<polygon fill="#63b8ff" stroke="#63b8ff" points="170.26,-106.89 159.83,-108.76 169.15,-113.8 170.26,-106.89"/>
<g id="a_edge12&#45;headlabel"><a xlink:href="dir_000014_000001.xhtml" target="_top" xlink:title="1">
<text text-anchor="middle" x="172.76" y="-101.92" font-family="Helvetica,sans-Serif" font-size="10.00" fill="#63b8ff">1</text>
</a>
</g>
</g>
</g>
</svg>
