<?xml version="1.0" encoding="UTF-8" standalone="no"?>
<!DOCTYPE svg PUBLIC "-//W3C//DTD SVG 1.1//EN"
 "http://www.w3.org/Graphics/SVG/1.1/DTD/svg11.dtd">
<!-- Generated by graphviz version 7.0.5 (20221223.1930)
 -->
<!-- Title: test Pages: 1 -->
<svg width="439pt" height="98pt"
 viewBox="0.00 0.00 439.00 98.00" xmlns="http://www.w3.org/2000/svg" xmlns:xlink="http://www.w3.org/1999/xlink">
<g id="graph0" class="graph" transform="scale(1 1) rotate(0) translate(4 94)">
<title>test</title>
<g id="clust1" class="cluster">
<title>clusterdir_13e138d54eb8818da29c3992edef070a</title>
<g id="a_clust1"><a xlink:href="dir_13e138d54eb8818da29c3992edef070a.xhtml" target="_top">
<polygon fill="#edf0f7" stroke="#404040" stroke-width="2" points="8,-47 8,-82 423,-82 423,-47 8,-47"/>
</a>
</g>
</g>
<!-- dir_13e138d54eb8818da29c3992edef070a -->
<g id="node1" class="node">
<title>dir_13e138d54eb8818da29c3992edef070a</title>
<text text-anchor="middle" x="398" y="-62" font-family="Helvetica,sans-Serif" font-size="10.00">test</text>
</g>
<!-- dir_96ee98e0a3ed0ab7302e1b0ef25efdfe -->
<g id="node2" class="node">
<title>dir_96ee98e0a3ed0ab7302e1b0ef25efdfe</title>
<g id="a_node2"><a xlink:href="dir_96ee98e0a3ed0ab7302e1b0ef25efdfe.xhtml" target="_top" xlink:title="test_cli">
<polygon fill="#c8d2e7" stroke="#404040" points="363,-74 315,-74 315,-55 363,-55 363,-74"/>
<text text-anchor="middle" x="339" y="-62" font-family="Helvetica,sans-Serif" font-size="10.00">test_cli</text>
</a>
</g>
</g>
<!-- dir_97aefd0d527b934f1d99a682da8fe6a9 -->
<g id="node6" class="node">
<title>dir_97aefd0d527b934f1d99a682da8fe6a9</title>
<g id="a_node6"><a xlink:href="dir_97aefd0d527b934f1d99a682da8fe6a9.xhtml" target="_top" xlink:title="lib">
<polygon fill="#edf0f7" stroke="red" points="214.5,-19 185.5,-19 185.5,0 214.5,0 214.5,-19"/>
<text text-anchor="middle" x="200" y="-7" font-family="Helvetica,sans-Serif" font-size="10.00">lib</text>
</a>
</g>
</g>
<!-- dir_96ee98e0a3ed0ab7302e1b0ef25efdfe&#45;&gt;dir_97aefd0d527b934f1d99a682da8fe6a9 -->
<g id="edge1" class="edge">
<title>dir_96ee98e0a3ed0ab7302e1b0ef25efdfe&#45;&gt;dir_97aefd0d527b934f1d99a682da8fe6a9</title>
<path fill="none" stroke="#63b8ff" d="M322.07,-54.5C316.97,-51.93 311.32,-49.23 306,-47 279.2,-35.74 247.59,-25.2 225.91,-18.37"/>
<polygon fill="#63b8ff" stroke="#63b8ff" points="227.01,-15.04 216.42,-15.42 224.94,-21.73 227.01,-15.04"/>
<g id="a_edge1&#45;headlabel"><a xlink:href="dir_000017_000010.xhtml" target="_top" xlink:title="1">
<text text-anchor="middle" x="229.84" y="-10.45" font-family="Helvetica,sans-Serif" font-size="10.00" fill="#63b8ff">1</text>
</a>
</g>
</g>
<!-- dir_a68ba28a5c4e4d243007bbf41b8fa72f -->
<g id="node3" class="node">
<title>dir_a68ba28a5c4e4d243007bbf41b8fa72f</title>
<g id="a_node3"><a xlink:href="dir_a68ba28a5c4e4d243007bbf41b8fa72f.xhtml" target="_top" xlink:title="test_serial_port">
<polygon fill="#c8d2e7" stroke="#404040" points="296.5,-74 213.5,-74 213.5,-55 296.5,-55 296.5,-74"/>
<text text-anchor="middle" x="255" y="-62" font-family="Helvetica,sans-Serif" font-size="10.00">test_serial_port</text>
</a>
</g>
</g>
<!-- dir_a68ba28a5c4e4d243007bbf41b8fa72f&#45;&gt;dir_97aefd0d527b934f1d99a682da8fe6a9 -->
<g id="edge2" class="edge">
<title>dir_a68ba28a5c4e4d243007bbf41b8fa72f&#45;&gt;dir_97aefd0d527b934f1d99a682da8fe6a9</title>
<path fill="none" stroke="#63b8ff" d="M245.92,-54.75C238.16,-47.27 226.79,-36.32 217.3,-27.17"/>
<polygon fill="#63b8ff" stroke="#63b8ff" points="220,-24.91 210.37,-20.49 215.14,-29.95 220,-24.91"/>
<g id="a_edge2&#45;headlabel"><a xlink:href="dir_000018_000010.xhtml" target="_top" xlink:title="1">
<text text-anchor="middle" x="223.47" y="-21.81" font-family="Helvetica,sans-Serif" font-size="10.00" fill="#63b8ff">1</text>
</a>
</g>
</g>
<!-- dir_4fd65a4ec3cd24baa43ea60e9bd570e2 -->
<g id="node4" class="node">
<title>dir_4fd65a4ec3cd24baa43ea60e9bd570e2</title>
<g id="a_node4"><a xlink:href="dir_4fd65a4ec3cd24baa43ea60e9bd570e2.xhtml" target="_top" xlink:title="test_string_helpers">
<polygon fill="#c8d2e7" stroke="#404040" points="195.5,-74 96.5,-74 96.5,-55 195.5,-55 195.5,-74"/>
<text text-anchor="middle" x="146" y="-62" font-family="Helvetica,sans-Serif" font-size="10.00">test_string_helpers</text>
</a>
</g>
</g>
<!-- dir_4fd65a4ec3cd24baa43ea60e9bd570e2&#45;&gt;dir_97aefd0d527b934f1d99a682da8fe6a9 -->
<g id="edge3" class="edge">
<title>dir_4fd65a4ec3cd24baa43ea60e9bd570e2&#45;&gt;dir_97aefd0d527b934f1d99a682da8fe6a9</title>
<path fill="none" stroke="#63b8ff" d="M154.92,-54.75C162.45,-47.35 173.47,-36.54 182.73,-27.45"/>
<polygon fill="#63b8ff" stroke="#63b8ff" points="185.12,-30 189.81,-20.5 180.22,-25.01 185.12,-30"/>
<g id="a_edge3&#45;headlabel"><a xlink:href="dir_000019_000010.xhtml" target="_top" xlink:title="1">
<text text-anchor="middle" x="185.63" y="-30.99" font-family="Helvetica,sans-Serif" font-size="10.00" fill="#63b8ff">1</text>
</a>
</g>
</g>
<!-- dir_24d5ee9663ee4cc920cf8960a9137137 -->
<g id="node5" class="node">
<title>dir_24d5ee9663ee4cc920cf8960a9137137</title>
<g id="a_node5"><a xlink:href="dir_24d5ee9663ee4cc920cf8960a9137137.xhtml" target="_top" xlink:title="test_tasks">
<polygon fill="#c8d2e7" stroke="#404040" points="78,-74 16,-74 16,-55 78,-55 78,-74"/>
<text text-anchor="middle" x="47" y="-62" font-family="Helvetica,sans-Serif" font-size="10.00">test_tasks</text>
</a>
</g>
</g>
<!-- dir_24d5ee9663ee4cc920cf8960a9137137&#45;&gt;dir_97aefd0d527b934f1d99a682da8fe6a9 -->
<g id="edge4" class="edge">
<title>dir_24d5ee9663ee4cc920cf8960a9137137&#45;&gt;dir_97aefd0d527b934f1d99a682da8fe6a9</title>
<path fill="none" stroke="#63b8ff" d="M68.17,-54.66C74.52,-52.1 81.51,-49.36 88,-47 117.3,-36.35 151.41,-25.44 174.22,-18.36"/>
<polygon fill="#63b8ff" stroke="#63b8ff" points="175.06,-21.76 183.59,-15.47 173,-15.07 175.06,-21.76"/>
<g id="a_edge4&#45;headlabel"><a xlink:href="dir_000020_000010.xhtml" target="_top" xlink:title="1">
<text text-anchor="middle" x="173.91" y="-22.59" font-family="Helvetica,sans-Serif" font-size="10.00" fill="#63b8ff">1</text>
</a>
</g>
</g>
</g>
</svg>
