<?xml version="1.0" encoding="UTF-8" standalone="no"?>
<!DOCTYPE svg PUBLIC "-//W3C//DTD SVG 1.1//EN"
 "http://www.w3.org/Graphics/SVG/1.1/DTD/svg11.dtd">
<!-- Generated by graphviz version 7.0.5 (20221223.1930)
 -->
<!-- Title: lib/board_adapters Pages: 1 -->
<svg width="448pt" height="207pt"
 viewBox="0.00 0.00 448.00 207.00" xmlns="http://www.w3.org/2000/svg" xmlns:xlink="http://www.w3.org/1999/xlink">
<g id="graph0" class="graph" transform="scale(1 1) rotate(0) translate(4 203)">
<title>lib/board_adapters</title>
<g id="clust1" class="cluster">
<title>clusterdir_97aefd0d527b934f1d99a682da8fe6a9</title>
<g id="a_clust1"><a xlink:href="dir_97aefd0d527b934f1d99a682da8fe6a9.xhtml" target="_top" xlink:title="lib">
<polygon fill="#edf0f7" stroke="#404040" stroke-dasharray="5,2" points="8,-8 8,-191 432,-191 432,-8 8,-8"/>
<text text-anchor="middle" x="220" y="-179" font-family="Helvetica,sans-Serif" font-size="10.00">lib</text>
</a>
</g>
</g>
<g id="clust2" class="cluster">
<title>clusterdir_b49365647f74dff1c8dd1e88d29293e4</title>
<g id="a_clust2"><a xlink:href="dir_b49365647f74dff1c8dd1e88d29293e4.xhtml" target="_top" xlink:title="Package Board Adapters.">
<polygon fill="#edf0f7" stroke="#404040" stroke-width="2" points="16,-74 16,-164 392,-164 392,-74 16,-74"/>
</a>
</g>
</g>
<!-- dir_6dbb42d2342d9d7292a192bc1d024acc -->
<g id="node1" class="node">
<title>dir_6dbb42d2342d9d7292a192bc1d024acc</title>
<g id="a_node1"><a xlink:href="dir_6dbb42d2342d9d7292a192bc1d024acc.xhtml" target="_top" xlink:title="Package Application Business Rules.">
<polygon fill="#c8d2e7" stroke="red" points="391.5,-46 284.5,-46 284.5,-16 391.5,-16 391.5,-46"/>
<text text-anchor="start" x="292.5" y="-34" font-family="Helvetica,sans-Serif" font-size="10.00">application_business</text>
<text text-anchor="middle" x="338" y="-23" font-family="Helvetica,sans-Serif" font-size="10.00">_rules</text>
</a>
</g>
</g>
<!-- dir_b49365647f74dff1c8dd1e88d29293e4 -->
<g id="node2" class="node">
<title>dir_b49365647f74dff1c8dd1e88d29293e4</title>
<text text-anchor="middle" x="225" y="-144" font-family="Helvetica,sans-Serif" font-size="10.00">board_adapters</text>
</g>
<!-- dir_b49365647f74dff1c8dd1e88d29293e4&#45;&gt;dir_6dbb42d2342d9d7292a192bc1d024acc -->
<g id="edge2" class="edge">
<title>dir_b49365647f74dff1c8dd1e88d29293e4&#45;&gt;dir_6dbb42d2342d9d7292a192bc1d024acc</title>
<path fill="none" stroke="#63b8ff" d="M266.49,-137.25C313.66,-127.45 385.18,-111.16 393,-101 400.32,-91.49 398.32,-84.76 393,-74 388.99,-65.9 382.59,-58.93 375.55,-53.13"/>
<polygon fill="#63b8ff" stroke="#63b8ff" points="377.76,-50.42 367.63,-47.31 373.61,-56.05 377.76,-50.42"/>
<g id="a_edge2&#45;headlabel"><a xlink:href="dir_000003_000001.xhtml" target="_top" xlink:title="5">
<text text-anchor="middle" x="381.12" y="-46.86" font-family="Helvetica,sans-Serif" font-size="10.00" fill="#63b8ff">5</text>
</a>
</g>
</g>
<!-- dir_8d1ee3be5d3bd43266cde43195651fe0 -->
<g id="node4" class="node">
<title>dir_8d1ee3be5d3bd43266cde43195651fe0</title>
<g id="a_node4"><a xlink:href="dir_8d1ee3be5d3bd43266cde43195651fe0.xhtml" target="_top" xlink:title="input_device_interface">
<polygon fill="#c8d2e7" stroke="#404040" points="138,-101 24,-101 24,-82 138,-82 138,-101"/>
<text text-anchor="middle" x="81" y="-89" font-family="Helvetica,sans-Serif" font-size="10.00">input_device_interface</text>
</a>
</g>
</g>
<!-- dir_b49365647f74dff1c8dd1e88d29293e4&#45;&gt;dir_8d1ee3be5d3bd43266cde43195651fe0 -->
<g id="edge3" class="edge">
<title>dir_b49365647f74dff1c8dd1e88d29293e4&#45;&gt;dir_8d1ee3be5d3bd43266cde43195651fe0</title>
<path fill="none" stroke="#63b8ff" d="M202.18,-137.1C178.9,-128.53 142.48,-115.13 115.64,-105.25"/>
<polygon fill="#63b8ff" stroke="#63b8ff" points="117.17,-102.08 106.57,-101.91 114.75,-108.65 117.17,-102.08"/>
<g id="a_edge3&#45;headlabel"><a xlink:href="dir_000003_000009.xhtml" target="_top" xlink:title="1">
<text text-anchor="middle" x="120.1" y="-97.64" font-family="Helvetica,sans-Serif" font-size="10.00" fill="#63b8ff">1</text>
</a>
</g>
</g>
<!-- dir_5d3f509552af106634de565dc9d6f33a -->
<g id="node5" class="node">
<title>dir_5d3f509552af106634de565dc9d6f33a</title>
<g id="a_node5"><a xlink:href="dir_5d3f509552af106634de565dc9d6f33a.xhtml" target="_top" xlink:title="sound_output_interface">
<polygon fill="#c8d2e7" stroke="#404040" points="274,-101 156,-101 156,-82 274,-82 274,-101"/>
<text text-anchor="middle" x="215" y="-89" font-family="Helvetica,sans-Serif" font-size="10.00">sound_output_interface</text>
</a>
</g>
</g>
<!-- dir_b49365647f74dff1c8dd1e88d29293e4&#45;&gt;dir_5d3f509552af106634de565dc9d6f33a -->
<g id="edge1" class="edge">
<title>dir_b49365647f74dff1c8dd1e88d29293e4&#45;&gt;dir_5d3f509552af106634de565dc9d6f33a</title>
<path fill="none" stroke="#63b8ff" d="M223.44,-137.22C222.18,-130.57 220.37,-120.96 218.74,-112.34"/>
<polygon fill="#63b8ff" stroke="#63b8ff" points="222.23,-111.92 216.93,-102.74 215.35,-113.21 222.23,-111.92"/>
<g id="a_edge1&#45;headlabel"><a xlink:href="dir_000003_000012.xhtml" target="_top" xlink:title="1">
<text text-anchor="middle" x="225.4" y="-110.94" font-family="Helvetica,sans-Serif" font-size="10.00" fill="#63b8ff">1</text>
</a>
</g>
</g>
<!-- dir_dd038f7b9d5ffa107a6117feec92b6ac -->
<g id="node6" class="node">
<title>dir_dd038f7b9d5ffa107a6117feec92b6ac</title>
<g id="a_node6"><a xlink:href="dir_dd038f7b9d5ffa107a6117feec92b6ac.xhtml" target="_top" xlink:title="status_indicators">
<polygon fill="#c8d2e7" stroke="#404040" points="383.5,-101 292.5,-101 292.5,-82 383.5,-82 383.5,-101"/>
<text text-anchor="middle" x="338" y="-89" font-family="Helvetica,sans-Serif" font-size="10.00">status_indicators</text>
</a>
</g>
</g>
<!-- dir_b49365647f74dff1c8dd1e88d29293e4&#45;&gt;dir_dd038f7b9d5ffa107a6117feec92b6ac -->
<g id="edge4" class="edge">
<title>dir_b49365647f74dff1c8dd1e88d29293e4&#45;&gt;dir_dd038f7b9d5ffa107a6117feec92b6ac</title>
<path fill="none" stroke="#63b8ff" d="M242.91,-137.1C260.61,-128.8 287.99,-115.96 308.83,-106.18"/>
<polygon fill="#63b8ff" stroke="#63b8ff" points="310.11,-109.45 317.68,-102.03 307.14,-103.11 310.11,-109.45"/>
<g id="a_edge4&#45;headlabel"><a xlink:href="dir_000003_000014.xhtml" target="_top" xlink:title="1">
<text text-anchor="middle" x="309.43" y="-110.4" font-family="Helvetica,sans-Serif" font-size="10.00" fill="#63b8ff">1</text>
</a>
</g>
</g>
<!-- dir_2cab4a4851285b5f16a60faeb6fea8d2 -->
<g id="node3" class="node">
<title>dir_2cab4a4851285b5f16a60faeb6fea8d2</title>
<g id="a_node3"><a xlink:href="dir_2cab4a4851285b5f16a60faeb6fea8d2.xhtml" target="_top" xlink:title="display_interface">
<polygon fill="#c8d2e7" stroke="#404040" points="383.5,-156 294.5,-156 294.5,-137 383.5,-137 383.5,-156"/>
<text text-anchor="middle" x="339" y="-144" font-family="Helvetica,sans-Serif" font-size="10.00">display_interface</text>
</a>
</g>
</g>
<!-- dir_2cab4a4851285b5f16a60faeb6fea8d2&#45;&gt;dir_6dbb42d2342d9d7292a192bc1d024acc -->
<g id="edge5" class="edge">
<title>dir_2cab4a4851285b5f16a60faeb6fea8d2&#45;&gt;dir_6dbb42d2342d9d7292a192bc1d024acc</title>
<path fill="none" stroke="#63b8ff" d="M364.15,-136.55C379.83,-129.52 398.72,-118.02 408,-101 413.74,-90.46 413.91,-84.44 408,-74 403.03,-65.22 395.41,-58.07 386.99,-52.33"/>
<polygon fill="#63b8ff" stroke="#63b8ff" points="388.92,-49.41 378.55,-47.22 385.29,-55.39 388.92,-49.41"/>
<g id="a_edge5&#45;headlabel"><a xlink:href="dir_000005_000001.xhtml" target="_top" xlink:title="1">
<text text-anchor="middle" x="392.17" y="-45.56" font-family="Helvetica,sans-Serif" font-size="10.00" fill="#63b8ff">1</text>
</a>
</g>
</g>
<!-- dir_8d1ee3be5d3bd43266cde43195651fe0&#45;&gt;dir_6dbb42d2342d9d7292a192bc1d024acc -->
<g id="edge6" class="edge">
<title>dir_8d1ee3be5d3bd43266cde43195651fe0&#45;&gt;dir_6dbb42d2342d9d7292a192bc1d024acc</title>
<path fill="none" stroke="#63b8ff" d="M115.89,-81.58C125.92,-79.07 136.88,-76.38 147,-74 188.94,-64.15 236.22,-53.75 273.25,-45.76"/>
<polygon fill="#63b8ff" stroke="#63b8ff" points="273.87,-49.2 282.91,-43.68 272.4,-42.36 273.87,-49.2"/>
<g id="a_edge6&#45;headlabel"><a xlink:href="dir_000009_000001.xhtml" target="_top" xlink:title="1">
<text text-anchor="middle" x="272.44" y="-49.92" font-family="Helvetica,sans-Serif" font-size="10.00" fill="#63b8ff">1</text>
</a>
</g>
</g>
<!-- dir_5d3f509552af106634de565dc9d6f33a&#45;&gt;dir_6dbb42d2342d9d7292a192bc1d024acc -->
<g id="edge7" class="edge">
<title>dir_5d3f509552af106634de565dc9d6f33a&#45;&gt;dir_6dbb42d2342d9d7292a192bc1d024acc</title>
<path fill="none" stroke="#63b8ff" d="M233.68,-81.62C250.55,-73.59 275.94,-61.52 297.45,-51.29"/>
<polygon fill="#63b8ff" stroke="#63b8ff" points="298.75,-54.55 306.27,-47.09 295.74,-48.22 298.75,-54.55"/>
<g id="a_edge7&#45;headlabel"><a xlink:href="dir_000012_000001.xhtml" target="_top" xlink:title="1">
<text text-anchor="middle" x="298.09" y="-55.5" font-family="Helvetica,sans-Serif" font-size="10.00" fill="#63b8ff">1</text>
</a>
</g>
</g>
<!-- dir_dd038f7b9d5ffa107a6117feec92b6ac&#45;&gt;dir_6dbb42d2342d9d7292a192bc1d024acc -->
<g id="edge8" class="edge">
<title>dir_dd038f7b9d5ffa107a6117feec92b6ac&#45;&gt;dir_6dbb42d2342d9d7292a192bc1d024acc</title>
<path fill="none" stroke="#63b8ff" d="M338,-81.87C338,-75.4 338,-66.2 338,-57.45"/>
<polygon fill="#63b8ff" stroke="#63b8ff" points="341.5,-57.63 338,-47.63 334.5,-57.63 341.5,-57.63"/>
<g id="a_edge8&#45;headlabel"><a xlink:href="dir_000014_000001.xhtml" target="_top" xlink:title="1">
<text text-anchor="middle" x="344.34" y="-57.21" font-family="Helvetica,sans-Serif" font-size="10.00" fill="#63b8ff">1</text>
</a>
</g>
</g>
</g>
</svg>
