<?xml version="1.0" encoding="UTF-8" standalone="no"?>
<!DOCTYPE svg PUBLIC "-//W3C//DTD SVG 1.1//EN"
 "http://www.w3.org/Graphics/SVG/1.1/DTD/svg11.dtd">
<!-- Generated by graphviz version 7.0.5 (20221223.1930)
 -->
<!-- Title: test Pages: 1 -->
<svg width="591pt" height="98pt"
 viewBox="0.00 0.00 591.00 98.00" xmlns="http://www.w3.org/2000/svg" xmlns:xlink="http://www.w3.org/1999/xlink">
<g id="graph0" class="graph" transform="scale(1 1) rotate(0) translate(4 94)">
<title>test</title>
<g id="clust1" class="cluster">
<title>clusterdir_13e138d54eb8818da29c3992edef070a</title>
<g id="a_clust1"><a xlink:href="dir_13e138d54eb8818da29c3992edef070a.xhtml" target="_top">
<polygon fill="#edf0f7" stroke="#404040" stroke-width="2" points="8,-47 8,-82 575,-82 575,-47 8,-47"/>
</a>
</g>
</g>
<!-- dir_13e138d54eb8818da29c3992edef070a -->
<g id="node1" class="node">
<title>dir_13e138d54eb8818da29c3992edef070a</title>
<text text-anchor="middle" x="550" y="-62" font-family="Helvetica,sans-Serif" font-size="10.00">test</text>
</g>
<!-- dir_9eaf3eebb2504d78d41a844432b64d15 -->
<g id="node2" class="node">
<title>dir_9eaf3eebb2504d78d41a844432b64d15</title>
<g id="a_node2"><a xlink:href="dir_9eaf3eebb2504d78d41a844432b64d15.xhtml" target="_top" xlink:title="test_board">
<polygon fill="#c8d2e7" stroke="#404040" points="515,-74 453,-74 453,-55 515,-55 515,-74"/>
<text text-anchor="middle" x="484" y="-62" font-family="Helvetica,sans-Serif" font-size="10.00">test_board</text>
</a>
</g>
</g>
<!-- dir_97aefd0d527b934f1d99a682da8fe6a9 -->
<g id="node8" class="node">
<title>dir_97aefd0d527b934f1d99a682da8fe6a9</title>
<g id="a_node8"><a xlink:href="dir_97aefd0d527b934f1d99a682da8fe6a9.xhtml" target="_top" xlink:title="lib">
<polygon fill="#edf0f7" stroke="red" points="269.5,-19 240.5,-19 240.5,0 269.5,0 269.5,-19"/>
<text text-anchor="middle" x="255" y="-7" font-family="Helvetica,sans-Serif" font-size="10.00">lib</text>
</a>
</g>
</g>
<!-- dir_9eaf3eebb2504d78d41a844432b64d15&#45;&gt;dir_97aefd0d527b934f1d99a682da8fe6a9 -->
<g id="edge1" class="edge">
<title>dir_9eaf3eebb2504d78d41a844432b64d15&#45;&gt;dir_97aefd0d527b934f1d99a682da8fe6a9</title>
<path fill="none" stroke="#63b8ff" d="M464.75,-54.65C458.26,-51.91 450.91,-49.07 444,-47 387.05,-29.94 317.99,-18.97 281.14,-13.86"/>
<polygon fill="#63b8ff" stroke="#63b8ff" points="281.83,-10.42 271.45,-12.55 280.89,-17.35 281.83,-10.42"/>
<g id="a_edge1&#45;headlabel"><a xlink:href="dir_000017_000009.xhtml" target="_top" xlink:title="1">
<text text-anchor="middle" x="284.27" y="-5.38" font-family="Helvetica,sans-Serif" font-size="10.00" fill="#63b8ff">1</text>
</a>
</g>
</g>
<!-- dir_96ee98e0a3ed0ab7302e1b0ef25efdfe -->
<g id="node3" class="node">
<title>dir_96ee98e0a3ed0ab7302e1b0ef25efdfe</title>
<g id="a_node3"><a xlink:href="dir_96ee98e0a3ed0ab7302e1b0ef25efdfe.xhtml" target="_top" xlink:title="test_cli">
<polygon fill="#c8d2e7" stroke="#404040" points="435,-74 387,-74 387,-55 435,-55 435,-74"/>
<text text-anchor="middle" x="411" y="-62" font-family="Helvetica,sans-Serif" font-size="10.00">test_cli</text>
</a>
</g>
</g>
<!-- dir_96ee98e0a3ed0ab7302e1b0ef25efdfe&#45;&gt;dir_97aefd0d527b934f1d99a682da8fe6a9 -->
<g id="edge2" class="edge">
<title>dir_96ee98e0a3ed0ab7302e1b0ef25efdfe&#45;&gt;dir_97aefd0d527b934f1d99a682da8fe6a9</title>
<path fill="none" stroke="#63b8ff" d="M394.47,-54.53C389.28,-51.9 383.48,-49.16 378,-47 345.24,-34.06 306.02,-23.18 280.82,-16.75"/>
<polygon fill="#63b8ff" stroke="#63b8ff" points="281.69,-13.36 271.14,-14.33 279.99,-20.15 281.69,-13.36"/>
<g id="a_edge2&#45;headlabel"><a xlink:href="dir_000018_000009.xhtml" target="_top" xlink:title="1">
<text text-anchor="middle" x="284.4" y="-8.61" font-family="Helvetica,sans-Serif" font-size="10.00" fill="#63b8ff">1</text>
</a>
</g>
</g>
<!-- dir_d4007516cc9bfff50cad23dd85f3b823 -->
<g id="node4" class="node">
<title>dir_d4007516cc9bfff50cad23dd85f3b823</title>
<g id="a_node4"><a xlink:href="dir_d4007516cc9bfff50cad23dd85f3b823.xhtml" target="_top" xlink:title="test_hmi">
<polygon fill="#c8d2e7" stroke="#404040" points="369,-74 315,-74 315,-55 369,-55 369,-74"/>
<text text-anchor="middle" x="342" y="-62" font-family="Helvetica,sans-Serif" font-size="10.00">test_hmi</text>
</a>
</g>
</g>
<!-- dir_a68ba28a5c4e4d243007bbf41b8fa72f -->
<g id="node5" class="node">
<title>dir_a68ba28a5c4e4d243007bbf41b8fa72f</title>
<g id="a_node5"><a xlink:href="dir_a68ba28a5c4e4d243007bbf41b8fa72f.xhtml" target="_top" xlink:title="test_serial_port">
<polygon fill="#c8d2e7" stroke="#404040" points="296.5,-74 213.5,-74 213.5,-55 296.5,-55 296.5,-74"/>
<text text-anchor="middle" x="255" y="-62" font-family="Helvetica,sans-Serif" font-size="10.00">test_serial_port</text>
</a>
</g>
</g>
<!-- dir_a68ba28a5c4e4d243007bbf41b8fa72f&#45;&gt;dir_97aefd0d527b934f1d99a682da8fe6a9 -->
<g id="edge3" class="edge">
<title>dir_a68ba28a5c4e4d243007bbf41b8fa72f&#45;&gt;dir_97aefd0d527b934f1d99a682da8fe6a9</title>
<path fill="none" stroke="#63b8ff" d="M255,-54.75C255,-48.27 255,-39.16 255,-30.9"/>
<polygon fill="#63b8ff" stroke="#63b8ff" points="258.5,-30.96 255,-20.96 251.5,-30.96 258.5,-30.96"/>
<g id="a_edge3&#45;headlabel"><a xlink:href="dir_000020_000009.xhtml" target="_top" xlink:title="1">
<text text-anchor="middle" x="261.34" y="-30.54" font-family="Helvetica,sans-Serif" font-size="10.00" fill="#63b8ff">1</text>
</a>
</g>
</g>
<!-- dir_4fd65a4ec3cd24baa43ea60e9bd570e2 -->
<g id="node6" class="node">
<title>dir_4fd65a4ec3cd24baa43ea60e9bd570e2</title>
<g id="a_node6"><a xlink:href="dir_4fd65a4ec3cd24baa43ea60e9bd570e2.xhtml" target="_top" xlink:title="test_string_helpers">
<polygon fill="#c8d2e7" stroke="#404040" points="195.5,-74 96.5,-74 96.5,-55 195.5,-55 195.5,-74"/>
<text text-anchor="middle" x="146" y="-62" font-family="Helvetica,sans-Serif" font-size="10.00">test_string_helpers</text>
</a>
</g>
</g>
<!-- dir_4fd65a4ec3cd24baa43ea60e9bd570e2&#45;&gt;dir_97aefd0d527b934f1d99a682da8fe6a9 -->
<g id="edge4" class="edge">
<title>dir_4fd65a4ec3cd24baa43ea60e9bd570e2&#45;&gt;dir_97aefd0d527b934f1d99a682da8fe6a9</title>
<path fill="none" stroke="#63b8ff" d="M164.49,-54.51C182.53,-45.74 210.1,-32.33 230.07,-22.62"/>
<polygon fill="#63b8ff" stroke="#63b8ff" points="231.45,-25.84 238.91,-18.32 228.39,-19.55 231.45,-25.84"/>
<g id="a_edge4&#45;headlabel"><a xlink:href="dir_000021_000009.xhtml" target="_top" xlink:title="1">
<text text-anchor="middle" x="230.82" y="-26.81" font-family="Helvetica,sans-Serif" font-size="10.00" fill="#63b8ff">1</text>
</a>
</g>
</g>
<!-- dir_24d5ee9663ee4cc920cf8960a9137137 -->
<g id="node7" class="node">
<title>dir_24d5ee9663ee4cc920cf8960a9137137</title>
<g id="a_node7"><a xlink:href="dir_24d5ee9663ee4cc920cf8960a9137137.xhtml" target="_top" xlink:title="test_tasks">
<polygon fill="#c8d2e7" stroke="#404040" points="78,-74 16,-74 16,-55 78,-55 78,-74"/>
<text text-anchor="middle" x="47" y="-62" font-family="Helvetica,sans-Serif" font-size="10.00">test_tasks</text>
</a>
</g>
</g>
<!-- dir_24d5ee9663ee4cc920cf8960a9137137&#45;&gt;dir_97aefd0d527b934f1d99a682da8fe6a9 -->
<g id="edge5" class="edge">
<title>dir_24d5ee9663ee4cc920cf8960a9137137&#45;&gt;dir_97aefd0d527b934f1d99a682da8fe6a9</title>
<path fill="none" stroke="#63b8ff" d="M67.2,-54.59C73.75,-51.91 81.11,-49.12 88,-47 137,-31.9 195.93,-20.56 229.07,-14.78"/>
<polygon fill="#63b8ff" stroke="#63b8ff" points="229.28,-18.29 238.55,-13.16 228.1,-11.39 229.28,-18.29"/>
<g id="a_edge5&#45;headlabel"><a xlink:href="dir_000022_000009.xhtml" target="_top" xlink:title="1">
<text text-anchor="middle" x="227.71" y="-18.94" font-family="Helvetica,sans-Serif" font-size="10.00" fill="#63b8ff">1</text>
</a>
</g>
</g>
</g>
</svg>
