<?xml version="1.0" encoding="UTF-8" standalone="no"?>
<!DOCTYPE svg PUBLIC "-//W3C//DTD SVG 1.1//EN"
 "http://www.w3.org/Graphics/SVG/1.1/DTD/svg11.dtd">
<!-- Generated by graphviz version 7.0.5 (20221223.1930)
 -->
<!-- Title: lib Pages: 1 -->
<svg width="468pt" height="364pt"
 viewBox="0.00 0.00 468.00 364.00" xmlns="http://www.w3.org/2000/svg" xmlns:xlink="http://www.w3.org/1999/xlink">
<g id="graph0" class="graph" transform="scale(1 1) rotate(0) translate(4 360)">
<title>lib</title>
<g id="clust1" class="cluster">
<title>clusterdir_97aefd0d527b934f1d99a682da8fe6a9</title>
<g id="a_clust1"><a xlink:href="dir_97aefd0d527b934f1d99a682da8fe6a9.xhtml" target="_top">
<polygon fill="#edf0f7" stroke="#404040" stroke-width="2" points="8,-8 8,-348 452,-348 452,-8 8,-8"/>
</a>
</g>
</g>
<g id="clust4" class="cluster">
<title>clusterdir_b49365647f74dff1c8dd1e88d29293e4</title>
<g id="a_clust4"><a xlink:href="dir_b49365647f74dff1c8dd1e88d29293e4.xhtml" target="_top" xlink:title="Package Board Adapters.">
<polygon fill="#c8d2e7" stroke="#404040" points="68,-195 68,-285 444,-285 444,-195 68,-195"/>
</a>
</g>
</g>
<g id="clust3" class="cluster">
<title>clusterdir_6dbb42d2342d9d7292a192bc1d024acc</title>
<g id="a_clust3"><a xlink:href="dir_6dbb42d2342d9d7292a192bc1d024acc.xhtml" target="_top" xlink:title="Package Application Business Rules.">
<polygon fill="#c8d2e7" stroke="#404040" points="55,-74 55,-175 283,-175 283,-74 55,-74"/>
</a>
</g>
</g>
<g id="clust2" class="cluster">
<title>clusterdir_e75212beacfa7863df067e044f07f232</title>
<g id="a_clust2"><a xlink:href="dir_e75212beacfa7863df067e044f07f232.xhtml" target="_top" xlink:title="Package 3rd Party Adapters.">
<polygon fill="#c8d2e7" stroke="#404040" points="111,-305 111,-340 357,-340 357,-305 111,-305"/>
</a>
</g>
</g>
<!-- dir_97aefd0d527b934f1d99a682da8fe6a9 -->
<g id="node1" class="node">
<title>dir_97aefd0d527b934f1d99a682da8fe6a9</title>
<text text-anchor="middle" x="68" y="-320" font-family="Helvetica,sans-Serif" font-size="10.00">lib</text>
</g>
<!-- dir_e75212beacfa7863df067e044f07f232 -->
<g id="node2" class="node">
<title>dir_e75212beacfa7863df067e044f07f232</title>
<text text-anchor="middle" x="299" y="-320" font-family="Helvetica,sans-Serif" font-size="10.00">3rd_party_adapters</text>
</g>
<!-- dir_e5c908e09902ac05aca8138811a01df8 -->
<g id="node3" class="node">
<title>dir_e5c908e09902ac05aca8138811a01df8</title>
<g id="a_node3"><a xlink:href="dir_e5c908e09902ac05aca8138811a01df8.xhtml" target="_top" xlink:title="Arduino">
<polygon fill="#a2b4d6" stroke="#404040" points="231,-332 181,-332 181,-313 231,-313 231,-332"/>
<text text-anchor="middle" x="206" y="-320" font-family="Helvetica,sans-Serif" font-size="10.00">Arduino</text>
</a>
</g>
</g>
<!-- dir_17a6007a5c84c34f300c622be50c188b -->
<g id="node6" class="node">
<title>dir_17a6007a5c84c34f300c622be50c188b</title>
<g id="a_node6"><a xlink:href="dir_17a6007a5c84c34f300c622be50c188b.xhtml" target="_top" xlink:title="serial_interface">
<polygon fill="#a2b4d6" stroke="#404040" points="146.5,-101 63.5,-101 63.5,-82 146.5,-82 146.5,-101"/>
<text text-anchor="middle" x="105" y="-89" font-family="Helvetica,sans-Serif" font-size="10.00">serial_interface</text>
</a>
</g>
</g>
<!-- dir_e5c908e09902ac05aca8138811a01df8&#45;&gt;dir_17a6007a5c84c34f300c622be50c188b -->
<g id="edge1" class="edge">
<title>dir_e5c908e09902ac05aca8138811a01df8&#45;&gt;dir_17a6007a5c84c34f300c622be50c188b</title>
<path fill="none" stroke="#63b8ff" d="M189.77,-312.52C184.26,-309.78 177.98,-306.97 172,-305 125.62,-289.76 100.83,-317.04 64,-285 14.27,-241.72 21.22,-194.2 54,-137 60.64,-125.41 71.44,-115.34 81.4,-107.72"/>
<polygon fill="#63b8ff" stroke="#63b8ff" points="83.18,-110.75 89.29,-102.08 79.11,-105.05 83.18,-110.75"/>
<g id="a_edge1&#45;headlabel"><a xlink:href="dir_000002_000012.xhtml" target="_top" xlink:title="1">
<text text-anchor="middle" x="83.14" y="-111.77" font-family="Helvetica,sans-Serif" font-size="10.00" fill="#63b8ff">1</text>
</a>
</g>
</g>
<!-- dir_b49365647f74dff1c8dd1e88d29293e4 -->
<g id="node9" class="node">
<title>dir_b49365647f74dff1c8dd1e88d29293e4</title>
<text text-anchor="middle" x="225" y="-265" font-family="Helvetica,sans-Serif" font-size="10.00">board_adapters</text>
</g>
<!-- dir_e5c908e09902ac05aca8138811a01df8&#45;&gt;dir_b49365647f74dff1c8dd1e88d29293e4 -->
<g id="edge2" class="edge">
<title>dir_e5c908e09902ac05aca8138811a01df8&#45;&gt;dir_b49365647f74dff1c8dd1e88d29293e4</title>
<path fill="none" stroke="#63b8ff" d="M209.14,-312.75C211.6,-305.88 215.12,-296.06 218.22,-287.41"/>
<polygon fill="#63b8ff" stroke="#63b8ff" points="221.45,-288.76 221.53,-278.17 214.87,-286.4 221.45,-288.76"/>
<g id="a_edge2&#45;headlabel"><a xlink:href="dir_000002_000003.xhtml" target="_top" xlink:title="1">
<text text-anchor="middle" x="223.43" y="-289.18" font-family="Helvetica,sans-Serif" font-size="10.00" fill="#63b8ff">1</text>
</a>
</g>
</g>
<!-- dir_673789fe363c8cf83b6beac9ec7c58fa -->
<g id="node4" class="node">
<title>dir_673789fe363c8cf83b6beac9ec7c58fa</title>
<g id="a_node4"><a xlink:href="dir_673789fe363c8cf83b6beac9ec7c58fa.xhtml" target="_top" xlink:title="LVGL">
<polygon fill="#a2b4d6" stroke="#404040" points="162.5,-332 119.5,-332 119.5,-313 162.5,-313 162.5,-332"/>
<text text-anchor="middle" x="141" y="-320" font-family="Helvetica,sans-Serif" font-size="10.00">LVGL</text>
</a>
</g>
</g>
<!-- dir_6dbb42d2342d9d7292a192bc1d024acc -->
<g id="node5" class="node">
<title>dir_6dbb42d2342d9d7292a192bc1d024acc</title>
<text text-anchor="start" x="175.5" y="-155" font-family="Helvetica,sans-Serif" font-size="10.00">application_business</text>
<text text-anchor="middle" x="221" y="-144" font-family="Helvetica,sans-Serif" font-size="10.00">_rules</text>
</g>
<!-- dir_71046b38222792489c3876836d4fbdbc -->
<g id="node14" class="node">
<title>dir_71046b38222792489c3876836d4fbdbc</title>
<g id="a_node14"><a xlink:href="dir_71046b38222792489c3876836d4fbdbc.xhtml" target="_top" xlink:title="Package Enterprise Business Rules.">
<polygon fill="#c8d2e7" stroke="#404040" points="217,-46 113,-46 113,-16 217,-16 217,-46"/>
<text text-anchor="start" x="121" y="-34" font-family="Helvetica,sans-Serif" font-size="10.00">enterprise_business</text>
<text text-anchor="middle" x="165" y="-23" font-family="Helvetica,sans-Serif" font-size="10.00">_rules</text>
</a>
</g>
</g>
<!-- dir_17a6007a5c84c34f300c622be50c188b&#45;&gt;dir_71046b38222792489c3876836d4fbdbc -->
<g id="edge3" class="edge">
<title>dir_17a6007a5c84c34f300c622be50c188b&#45;&gt;dir_71046b38222792489c3876836d4fbdbc</title>
<path fill="none" stroke="#63b8ff" d="M114.11,-81.62C121.52,-74.4 132.29,-63.89 142.02,-54.41"/>
<polygon fill="#63b8ff" stroke="#63b8ff" points="144.39,-56.98 149.11,-47.5 139.5,-51.97 144.39,-56.98"/>
<g id="a_edge3&#45;headlabel"><a xlink:href="dir_000012_000007.xhtml" target="_top" xlink:title="1">
<text text-anchor="middle" x="144.88" y="-57.97" font-family="Helvetica,sans-Serif" font-size="10.00" fill="#63b8ff">1</text>
</a>
</g>
</g>
<!-- dir_dab382b21b73aae3d74d7668eeeacf78 -->
<g id="node7" class="node">
<title>dir_dab382b21b73aae3d74d7668eeeacf78</title>
<g id="a_node7"><a xlink:href="dir_dab382b21b73aae3d74d7668eeeacf78.xhtml" target="_top" xlink:title="tasks">
<polygon fill="#a2b4d6" stroke="#404040" points="205.5,-101 164.5,-101 164.5,-82 205.5,-82 205.5,-101"/>
<text text-anchor="middle" x="185" y="-89" font-family="Helvetica,sans-Serif" font-size="10.00">tasks</text>
</a>
</g>
</g>
<!-- dir_6c970bd3e9ed525c032ca1b33f237f5b -->
<g id="node8" class="node">
<title>dir_6c970bd3e9ed525c032ca1b33f237f5b</title>
<g id="a_node8"><a xlink:href="dir_6c970bd3e9ed525c032ca1b33f237f5b.xhtml" target="_top" xlink:title="user_interaction">
<polygon fill="#a2b4d6" stroke="#404040" points="149,-161.5 63,-161.5 63,-142.5 149,-142.5 149,-161.5"/>
<text text-anchor="middle" x="106" y="-149.5" font-family="Helvetica,sans-Serif" font-size="10.00">user_interaction</text>
</a>
</g>
</g>
<!-- dir_6c970bd3e9ed525c032ca1b33f237f5b&#45;&gt;dir_17a6007a5c84c34f300c622be50c188b -->
<g id="edge4" class="edge">
<title>dir_6c970bd3e9ed525c032ca1b33f237f5b&#45;&gt;dir_17a6007a5c84c34f300c622be50c188b</title>
<path fill="none" stroke="#63b8ff" d="M105.85,-142.37C105.72,-134.5 105.51,-122.6 105.34,-112.39"/>
<polygon fill="#63b8ff" stroke="#63b8ff" points="108.84,-112.62 105.17,-102.68 101.85,-112.74 108.84,-112.62"/>
<g id="a_edge4&#45;headlabel"><a xlink:href="dir_000022_000012.xhtml" target="_top" xlink:title="1">
<text text-anchor="middle" x="111.72" y="-112.15" font-family="Helvetica,sans-Serif" font-size="10.00" fill="#63b8ff">1</text>
</a>
</g>
</g>
<!-- dir_6c970bd3e9ed525c032ca1b33f237f5b&#45;&gt;dir_dab382b21b73aae3d74d7668eeeacf78 -->
<g id="edge6" class="edge">
<title>dir_6c970bd3e9ed525c032ca1b33f237f5b&#45;&gt;dir_dab382b21b73aae3d74d7668eeeacf78</title>
<path fill="none" stroke="#63b8ff" d="M118,-142.12C130.18,-133.1 149.29,-118.95 163.98,-108.06"/>
<polygon fill="#63b8ff" stroke="#63b8ff" points="165.72,-111.13 171.67,-102.37 161.55,-105.51 165.72,-111.13"/>
<g id="a_edge6&#45;headlabel"><a xlink:href="dir_000022_000016.xhtml" target="_top" xlink:title="1">
<text text-anchor="middle" x="165.74" y="-112.15" font-family="Helvetica,sans-Serif" font-size="10.00" fill="#63b8ff">1</text>
</a>
</g>
</g>
<!-- dir_6c970bd3e9ed525c032ca1b33f237f5b&#45;&gt;dir_71046b38222792489c3876836d4fbdbc -->
<g id="edge5" class="edge">
<title>dir_6c970bd3e9ed525c032ca1b33f237f5b&#45;&gt;dir_71046b38222792489c3876836d4fbdbc</title>
<path fill="none" stroke="#63b8ff" d="M134.01,-142.02C163.13,-132.05 205.73,-115.46 215,-101 221.48,-90.9 220.07,-84.88 215,-74 211.3,-66.05 205.27,-59.07 198.65,-53.2"/>
<polygon fill="#63b8ff" stroke="#63b8ff" points="201.28,-50.82 191.28,-47.32 196.91,-56.29 201.28,-50.82"/>
<g id="a_edge5&#45;headlabel"><a xlink:href="dir_000022_000007.xhtml" target="_top" xlink:title="1">
<text text-anchor="middle" x="204.68" y="-47.4" font-family="Helvetica,sans-Serif" font-size="10.00" fill="#63b8ff">1</text>
</a>
</g>
</g>
<!-- dir_b49365647f74dff1c8dd1e88d29293e4&#45;&gt;dir_6c970bd3e9ed525c032ca1b33f237f5b -->
<g id="edge8" class="edge">
<title>dir_b49365647f74dff1c8dd1e88d29293e4&#45;&gt;dir_6c970bd3e9ed525c032ca1b33f237f5b</title>
<path fill="none" stroke="#63b8ff" d="M185.96,-258.08C141.59,-248.11 74.31,-231.66 67,-222 54.24,-205.15 70.82,-183.69 86.14,-169.21"/>
<polygon fill="#63b8ff" stroke="#63b8ff" points="88.02,-172.21 93.19,-162.96 83.38,-166.98 88.02,-172.21"/>
<g id="a_edge8&#45;headlabel"><a xlink:href="dir_000003_000022.xhtml" target="_top" xlink:title="5">
<text text-anchor="middle" x="88.35" y="-173.22" font-family="Helvetica,sans-Serif" font-size="10.00" fill="#63b8ff">5</text>
</a>
</g>
</g>
<!-- dir_8d1ee3be5d3bd43266cde43195651fe0 -->
<g id="node11" class="node">
<title>dir_8d1ee3be5d3bd43266cde43195651fe0</title>
<g id="a_node11"><a xlink:href="dir_8d1ee3be5d3bd43266cde43195651fe0.xhtml" target="_top" xlink:title="input_device_interface">
<polygon fill="#a2b4d6" stroke="#404040" points="190,-222 76,-222 76,-203 190,-203 190,-222"/>
<text text-anchor="middle" x="133" y="-210" font-family="Helvetica,sans-Serif" font-size="10.00">input_device_interface</text>
</a>
</g>
</g>
<!-- dir_b49365647f74dff1c8dd1e88d29293e4&#45;&gt;dir_8d1ee3be5d3bd43266cde43195651fe0 -->
<g id="edge9" class="edge">
<title>dir_b49365647f74dff1c8dd1e88d29293e4&#45;&gt;dir_8d1ee3be5d3bd43266cde43195651fe0</title>
<path fill="none" stroke="#63b8ff" d="M210.62,-258.22C196.65,-250.17 175.12,-237.76 158.27,-228.06"/>
<polygon fill="#63b8ff" stroke="#63b8ff" points="160.23,-225.15 149.81,-223.19 156.73,-231.21 160.23,-225.15"/>
<g id="a_edge9&#45;headlabel"><a xlink:href="dir_000003_000009.xhtml" target="_top" xlink:title="1">
<text text-anchor="middle" x="163.45" y="-221.22" font-family="Helvetica,sans-Serif" font-size="10.00" fill="#63b8ff">1</text>
</a>
</g>
</g>
<!-- dir_5d3f509552af106634de565dc9d6f33a -->
<g id="node12" class="node">
<title>dir_5d3f509552af106634de565dc9d6f33a</title>
<g id="a_node12"><a xlink:href="dir_5d3f509552af106634de565dc9d6f33a.xhtml" target="_top" xlink:title="sound_output_interface">
<polygon fill="#a2b4d6" stroke="#404040" points="326,-222 208,-222 208,-203 326,-203 326,-222"/>
<text text-anchor="middle" x="267" y="-210" font-family="Helvetica,sans-Serif" font-size="10.00">sound_output_interface</text>
</a>
</g>
</g>
<!-- dir_b49365647f74dff1c8dd1e88d29293e4&#45;&gt;dir_5d3f509552af106634de565dc9d6f33a -->
<g id="edge7" class="edge">
<title>dir_b49365647f74dff1c8dd1e88d29293e4&#45;&gt;dir_5d3f509552af106634de565dc9d6f33a</title>
<path fill="none" stroke="#63b8ff" d="M231.56,-258.22C237.32,-250.96 245.87,-240.16 253.13,-231"/>
<polygon fill="#63b8ff" stroke="#63b8ff" points="255.66,-233.45 259.12,-223.44 250.17,-229.1 255.66,-233.45"/>
<g id="a_edge7&#45;headlabel"><a xlink:href="dir_000003_000013.xhtml" target="_top" xlink:title="1">
<text text-anchor="middle" x="256.59" y="-234.34" font-family="Helvetica,sans-Serif" font-size="10.00" fill="#63b8ff">1</text>
</a>
</g>
</g>
<!-- dir_dd038f7b9d5ffa107a6117feec92b6ac -->
<g id="node13" class="node">
<title>dir_dd038f7b9d5ffa107a6117feec92b6ac</title>
<g id="a_node13"><a xlink:href="dir_dd038f7b9d5ffa107a6117feec92b6ac.xhtml" target="_top" xlink:title="status_indicators">
<polygon fill="#a2b4d6" stroke="#404040" points="435.5,-222 344.5,-222 344.5,-203 435.5,-203 435.5,-222"/>
<text text-anchor="middle" x="390" y="-210" font-family="Helvetica,sans-Serif" font-size="10.00">status_indicators</text>
</a>
</g>
</g>
<!-- dir_b49365647f74dff1c8dd1e88d29293e4&#45;&gt;dir_dd038f7b9d5ffa107a6117feec92b6ac -->
<g id="edge10" class="edge">
<title>dir_b49365647f74dff1c8dd1e88d29293e4&#45;&gt;dir_dd038f7b9d5ffa107a6117feec92b6ac</title>
<path fill="none" stroke="#63b8ff" d="M251.14,-258.1C278.09,-249.45 320.41,-235.85 351.25,-225.95"/>
<polygon fill="#63b8ff" stroke="#63b8ff" points="352.16,-229.33 360.61,-222.94 350.01,-222.67 352.16,-229.33"/>
<g id="a_edge10&#45;headlabel"><a xlink:href="dir_000003_000015.xhtml" target="_top" xlink:title="1">
<text text-anchor="middle" x="351.04" y="-230.17" font-family="Helvetica,sans-Serif" font-size="10.00" fill="#63b8ff">1</text>
</a>
</g>
</g>
<!-- dir_2cab4a4851285b5f16a60faeb6fea8d2 -->
<g id="node10" class="node">
<title>dir_2cab4a4851285b5f16a60faeb6fea8d2</title>
<g id="a_node10"><a xlink:href="dir_2cab4a4851285b5f16a60faeb6fea8d2.xhtml" target="_top" xlink:title="display_interface">
<polygon fill="#a2b4d6" stroke="#404040" points="165.5,-277 76.5,-277 76.5,-258 165.5,-258 165.5,-277"/>
<text text-anchor="middle" x="121" y="-265" font-family="Helvetica,sans-Serif" font-size="10.00">display_interface</text>
</a>
</g>
</g>
<!-- dir_2cab4a4851285b5f16a60faeb6fea8d2&#45;&gt;dir_6c970bd3e9ed525c032ca1b33f237f5b -->
<g id="edge11" class="edge">
<title>dir_2cab4a4851285b5f16a60faeb6fea8d2&#45;&gt;dir_6c970bd3e9ed525c032ca1b33f237f5b</title>
<path fill="none" stroke="#63b8ff" d="M95.85,-257.55C80.17,-250.52 61.28,-239.02 52,-222 46.26,-211.46 46.73,-205.78 52,-195 57.48,-183.8 67.55,-174.72 77.52,-167.91"/>
<polygon fill="#63b8ff" stroke="#63b8ff" points="79.34,-170.89 86,-162.65 75.66,-164.94 79.34,-170.89"/>
<g id="a_edge11&#45;headlabel"><a xlink:href="dir_000005_000022.xhtml" target="_top" xlink:title="1">
<text text-anchor="middle" x="79.07" y="-171.9" font-family="Helvetica,sans-Serif" font-size="10.00" fill="#63b8ff">1</text>
</a>
</g>
</g>
<!-- dir_8d1ee3be5d3bd43266cde43195651fe0&#45;&gt;dir_6c970bd3e9ed525c032ca1b33f237f5b -->
<g id="edge12" class="edge">
<title>dir_8d1ee3be5d3bd43266cde43195651fe0&#45;&gt;dir_6c970bd3e9ed525c032ca1b33f237f5b</title>
<path fill="none" stroke="#63b8ff" d="M129.02,-202.87C125.27,-194.75 119.53,-182.31 114.72,-171.89"/>
<polygon fill="#63b8ff" stroke="#63b8ff" points="118,-170.65 110.63,-163.04 111.65,-173.59 118,-170.65"/>
<g id="a_edge12&#45;headlabel"><a xlink:href="dir_000009_000022.xhtml" target="_top" xlink:title="1">
<text text-anchor="middle" x="121.45" y="-168.85" font-family="Helvetica,sans-Serif" font-size="10.00" fill="#63b8ff">1</text>
</a>
</g>
</g>
<!-- dir_5d3f509552af106634de565dc9d6f33a&#45;&gt;dir_6c970bd3e9ed525c032ca1b33f237f5b -->
<g id="edge13" class="edge">
<title>dir_5d3f509552af106634de565dc9d6f33a&#45;&gt;dir_6c970bd3e9ed525c032ca1b33f237f5b</title>
<path fill="none" stroke="#63b8ff" d="M238.84,-202.56C216.94,-195.47 185.86,-185.1 159,-175 151.82,-172.3 144.16,-169.23 136.96,-166.26"/>
<polygon fill="#63b8ff" stroke="#63b8ff" points="138.48,-163.11 127.91,-162.48 135.78,-169.56 138.48,-163.11"/>
<g id="a_edge13&#45;headlabel"><a xlink:href="dir_000013_000022.xhtml" target="_top" xlink:title="1">
<text text-anchor="middle" x="141.5" y="-158.79" font-family="Helvetica,sans-Serif" font-size="10.00" fill="#63b8ff">1</text>
</a>
</g>
</g>
<!-- dir_dd038f7b9d5ffa107a6117feec92b6ac&#45;&gt;dir_6c970bd3e9ed525c032ca1b33f237f5b -->
<g id="edge14" class="edge">
<title>dir_dd038f7b9d5ffa107a6117feec92b6ac&#45;&gt;dir_6c970bd3e9ed525c032ca1b33f237f5b</title>
<path fill="none" stroke="#63b8ff" d="M363.67,-202.56C354.66,-199.78 344.47,-196.94 335,-195 257.88,-179.18 235.21,-194.73 159,-175 150.74,-172.86 142.08,-169.69 134.2,-166.42"/>
<polygon fill="#63b8ff" stroke="#63b8ff" points="135.67,-163.24 125.11,-162.43 132.86,-169.65 135.67,-163.24"/>
<g id="a_edge14&#45;headlabel"><a xlink:href="dir_000015_000022.xhtml" target="_top" xlink:title="1">
<text text-anchor="middle" x="138.72" y="-158.98" font-family="Helvetica,sans-Serif" font-size="10.00" fill="#63b8ff">1</text>
</a>
</g>
</g>
</g>
</svg>
