<?xml version="1.0" encoding="UTF-8" standalone="no"?>
<!DOCTYPE svg PUBLIC "-//W3C//DTD SVG 1.1//EN"
 "http://www.w3.org/Graphics/SVG/1.1/DTD/svg11.dtd">
<!-- Generated by graphviz version 7.0.5 (20221223.1930)
 -->
<!-- Title: lib Pages: 1 -->
<svg width="468pt" height="359pt"
 viewBox="0.00 0.00 468.00 358.50" xmlns="http://www.w3.org/2000/svg" xmlns:xlink="http://www.w3.org/1999/xlink">
<g id="graph0" class="graph" transform="scale(1 1) rotate(0) translate(4 354.5)">
<title>lib</title>
<g id="clust1" class="cluster">
<title>clusterdir_97aefd0d527b934f1d99a682da8fe6a9</title>
<g id="a_clust1"><a xlink:href="dir_97aefd0d527b934f1d99a682da8fe6a9.xhtml" target="_top">
<polygon fill="#edf0f7" stroke="#404040" stroke-width="2" points="8,-8 8,-342.5 452,-342.5 452,-8 8,-8"/>
</a>
</g>
</g>
<g id="clust4" class="cluster">
<title>clusterdir_b49365647f74dff1c8dd1e88d29293e4</title>
<g id="a_clust4"><a xlink:href="dir_b49365647f74dff1c8dd1e88d29293e4.xhtml" target="_top" xlink:title="Package Board Adapters.">
<polygon fill="#c8d2e7" stroke="#404040" points="68,-184 68,-274 444,-274 444,-184 68,-184"/>
</a>
</g>
</g>
<g id="clust3" class="cluster">
<title>clusterdir_6dbb42d2342d9d7292a192bc1d024acc</title>
<g id="a_clust3"><a xlink:href="dir_6dbb42d2342d9d7292a192bc1d024acc.xhtml" target="_top" xlink:title="Package Application Business Rules.">
<polygon fill="#c8d2e7" stroke="#404040" points="55,-63 55,-164 283,-164 283,-63 55,-63"/>
</a>
</g>
</g>
<g id="clust2" class="cluster">
<title>clusterdir_e75212beacfa7863df067e044f07f232</title>
<g id="a_clust2"><a xlink:href="dir_e75212beacfa7863df067e044f07f232.xhtml" target="_top" xlink:title="Package 3rd Party Adapters.">
<polygon fill="#c8d2e7" stroke="#404040" points="177,-299.5 177,-334.5 423,-334.5 423,-299.5 177,-299.5"/>
</a>
</g>
</g>
<!-- dir_97aefd0d527b934f1d99a682da8fe6a9 -->
<g id="node1" class="node">
<title>dir_97aefd0d527b934f1d99a682da8fe6a9</title>
<text text-anchor="middle" x="153" y="-314.5" font-family="Helvetica,sans-Serif" font-size="10.00">lib</text>
</g>
<!-- dir_e75212beacfa7863df067e044f07f232 -->
<g id="node2" class="node">
<title>dir_e75212beacfa7863df067e044f07f232</title>
<text text-anchor="middle" x="365" y="-314.5" font-family="Helvetica,sans-Serif" font-size="10.00">3rd_party_adapters</text>
</g>
<!-- dir_e5c908e09902ac05aca8138811a01df8 -->
<g id="node3" class="node">
<title>dir_e5c908e09902ac05aca8138811a01df8</title>
<g id="a_node3"><a xlink:href="dir_e5c908e09902ac05aca8138811a01df8.xhtml" target="_top" xlink:title="Arduino">
<polygon fill="#a2b4d6" stroke="#404040" points="297,-326.5 247,-326.5 247,-307.5 297,-307.5 297,-326.5"/>
<text text-anchor="middle" x="272" y="-314.5" font-family="Helvetica,sans-Serif" font-size="10.00">Arduino</text>
</a>
</g>
</g>
<!-- dir_17a6007a5c84c34f300c622be50c188b -->
<g id="node6" class="node">
<title>dir_17a6007a5c84c34f300c622be50c188b</title>
<g id="a_node6"><a xlink:href="dir_17a6007a5c84c34f300c622be50c188b.xhtml" target="_top" xlink:title="serial_interface">
<polygon fill="#a2b4d6" stroke="#404040" points="146.5,-90 63.5,-90 63.5,-71 146.5,-71 146.5,-90"/>
<text text-anchor="middle" x="105" y="-78" font-family="Helvetica,sans-Serif" font-size="10.00">serial_interface</text>
</a>
</g>
</g>
<!-- dir_e5c908e09902ac05aca8138811a01df8&#45;&gt;dir_17a6007a5c84c34f300c622be50c188b -->
<g id="edge1" class="edge">
<title>dir_e5c908e09902ac05aca8138811a01df8&#45;&gt;dir_17a6007a5c84c34f300c622be50c188b</title>
<path fill="none" stroke="#63b8ff" d="M256.16,-307.06C250.57,-304.25 244.15,-301.39 238,-299.5 163.3,-276.5 123.92,-324.19 64,-274 13.46,-231.67 21.22,-183.2 54,-126 60.64,-114.41 71.44,-104.34 81.4,-96.72"/>
<polygon fill="#63b8ff" stroke="#63b8ff" points="83.18,-99.75 89.29,-91.08 79.11,-94.05 83.18,-99.75"/>
<g id="a_edge1&#45;headlabel"><a xlink:href="dir_000002_000012.xhtml" target="_top" xlink:title="1">
<text text-anchor="middle" x="83.14" y="-100.77" font-family="Helvetica,sans-Serif" font-size="10.00" fill="#63b8ff">1</text>
</a>
</g>
</g>
<!-- dir_b49365647f74dff1c8dd1e88d29293e4 -->
<g id="node9" class="node">
<title>dir_b49365647f74dff1c8dd1e88d29293e4</title>
<text text-anchor="middle" x="267" y="-254" font-family="Helvetica,sans-Serif" font-size="10.00">board_adapters</text>
</g>
<!-- dir_e5c908e09902ac05aca8138811a01df8&#45;&gt;dir_b49365647f74dff1c8dd1e88d29293e4 -->
<g id="edge2" class="edge">
<title>dir_e5c908e09902ac05aca8138811a01df8&#45;&gt;dir_b49365647f74dff1c8dd1e88d29293e4</title>
<path fill="none" stroke="#63b8ff" d="M271.26,-307.37C270.58,-299.41 269.55,-287.32 268.67,-277.04"/>
<polygon fill="#63b8ff" stroke="#63b8ff" points="272.18,-276.96 267.84,-267.3 265.2,-277.56 272.18,-276.96"/>
<g id="a_edge2&#45;headlabel"><a xlink:href="dir_000002_000003.xhtml" target="_top" xlink:title="1">
<text text-anchor="middle" x="275.18" y="-276.29" font-family="Helvetica,sans-Serif" font-size="10.00" fill="#63b8ff">1</text>
</a>
</g>
</g>
<!-- dir_673789fe363c8cf83b6beac9ec7c58fa -->
<g id="node4" class="node">
<title>dir_673789fe363c8cf83b6beac9ec7c58fa</title>
<g id="a_node4"><a xlink:href="dir_673789fe363c8cf83b6beac9ec7c58fa.xhtml" target="_top" xlink:title="LVGL">
<polygon fill="#a2b4d6" stroke="#404040" points="228.5,-326.5 185.5,-326.5 185.5,-307.5 228.5,-307.5 228.5,-326.5"/>
<text text-anchor="middle" x="207" y="-314.5" font-family="Helvetica,sans-Serif" font-size="10.00">LVGL</text>
</a>
</g>
</g>
<!-- dir_6dbb42d2342d9d7292a192bc1d024acc -->
<g id="node5" class="node">
<title>dir_6dbb42d2342d9d7292a192bc1d024acc</title>
<text text-anchor="start" x="175.5" y="-144" font-family="Helvetica,sans-Serif" font-size="10.00">application_business</text>
<text text-anchor="middle" x="221" y="-133" font-family="Helvetica,sans-Serif" font-size="10.00">_rules</text>
</g>
<!-- dir_3a2f33b0f26bc6229d595c2c354e6333 -->
<g id="node15" class="node">
<title>dir_3a2f33b0f26bc6229d595c2c354e6333</title>
<g id="a_node15"><a xlink:href="dir_3a2f33b0f26bc6229d595c2c354e6333.xhtml" target="_top" xlink:title="Package Utilities.">
<polygon fill="#c8d2e7" stroke="#404040" points="188.5,-35 141.5,-35 141.5,-16 188.5,-16 188.5,-35"/>
<text text-anchor="middle" x="165" y="-23" font-family="Helvetica,sans-Serif" font-size="10.00">utilities</text>
</a>
</g>
</g>
<!-- dir_17a6007a5c84c34f300c622be50c188b&#45;&gt;dir_3a2f33b0f26bc6229d595c2c354e6333 -->
<g id="edge3" class="edge">
<title>dir_17a6007a5c84c34f300c622be50c188b&#45;&gt;dir_3a2f33b0f26bc6229d595c2c354e6333</title>
<path fill="none" stroke="#63b8ff" d="M115.18,-70.51C123.76,-62.93 136.27,-51.88 146.6,-42.75"/>
<polygon fill="#63b8ff" stroke="#63b8ff" points="148.66,-45.6 153.84,-36.36 144.03,-40.36 148.66,-45.6"/>
<g id="a_edge3&#45;headlabel"><a xlink:href="dir_000012_000023.xhtml" target="_top" xlink:title="1">
<text text-anchor="middle" x="148.98" y="-46.61" font-family="Helvetica,sans-Serif" font-size="10.00" fill="#63b8ff">1</text>
</a>
</g>
</g>
<!-- dir_dab382b21b73aae3d74d7668eeeacf78 -->
<g id="node7" class="node">
<title>dir_dab382b21b73aae3d74d7668eeeacf78</title>
<g id="a_node7"><a xlink:href="dir_dab382b21b73aae3d74d7668eeeacf78.xhtml" target="_top" xlink:title="tasks">
<polygon fill="#a2b4d6" stroke="#404040" points="205.5,-90 164.5,-90 164.5,-71 205.5,-71 205.5,-90"/>
<text text-anchor="middle" x="185" y="-78" font-family="Helvetica,sans-Serif" font-size="10.00">tasks</text>
</a>
</g>
</g>
<!-- dir_6c970bd3e9ed525c032ca1b33f237f5b -->
<g id="node8" class="node">
<title>dir_6c970bd3e9ed525c032ca1b33f237f5b</title>
<g id="a_node8"><a xlink:href="dir_6c970bd3e9ed525c032ca1b33f237f5b.xhtml" target="_top" xlink:title="user_interaction">
<polygon fill="#a2b4d6" stroke="#404040" points="149,-150.5 63,-150.5 63,-131.5 149,-131.5 149,-150.5"/>
<text text-anchor="middle" x="106" y="-138.5" font-family="Helvetica,sans-Serif" font-size="10.00">user_interaction</text>
</a>
</g>
</g>
<!-- dir_6c970bd3e9ed525c032ca1b33f237f5b&#45;&gt;dir_17a6007a5c84c34f300c622be50c188b -->
<g id="edge4" class="edge">
<title>dir_6c970bd3e9ed525c032ca1b33f237f5b&#45;&gt;dir_17a6007a5c84c34f300c622be50c188b</title>
<path fill="none" stroke="#63b8ff" d="M105.85,-131.37C105.72,-123.5 105.51,-111.6 105.34,-101.39"/>
<polygon fill="#63b8ff" stroke="#63b8ff" points="108.84,-101.62 105.17,-91.68 101.85,-101.74 108.84,-101.62"/>
<g id="a_edge4&#45;headlabel"><a xlink:href="dir_000022_000012.xhtml" target="_top" xlink:title="1">
<text text-anchor="middle" x="111.72" y="-101.15" font-family="Helvetica,sans-Serif" font-size="10.00" fill="#63b8ff">1</text>
</a>
</g>
</g>
<!-- dir_6c970bd3e9ed525c032ca1b33f237f5b&#45;&gt;dir_dab382b21b73aae3d74d7668eeeacf78 -->
<g id="edge6" class="edge">
<title>dir_6c970bd3e9ed525c032ca1b33f237f5b&#45;&gt;dir_dab382b21b73aae3d74d7668eeeacf78</title>
<path fill="none" stroke="#63b8ff" d="M118,-131.12C130.18,-122.1 149.29,-107.95 163.98,-97.06"/>
<polygon fill="#63b8ff" stroke="#63b8ff" points="165.72,-100.13 171.67,-91.37 161.55,-94.51 165.72,-100.13"/>
<g id="a_edge6&#45;headlabel"><a xlink:href="dir_000022_000016.xhtml" target="_top" xlink:title="1">
<text text-anchor="middle" x="165.74" y="-101.15" font-family="Helvetica,sans-Serif" font-size="10.00" fill="#63b8ff">1</text>
</a>
</g>
</g>
<!-- dir_6c970bd3e9ed525c032ca1b33f237f5b&#45;&gt;dir_3a2f33b0f26bc6229d595c2c354e6333 -->
<g id="edge5" class="edge">
<title>dir_6c970bd3e9ed525c032ca1b33f237f5b&#45;&gt;dir_3a2f33b0f26bc6229d595c2c354e6333</title>
<path fill="none" stroke="#63b8ff" d="M134.01,-131.02C163.13,-121.05 205.73,-104.46 215,-90 221.48,-79.9 220.44,-73.7 215,-63 210.54,-54.21 202.85,-47.04 194.83,-41.45"/>
<polygon fill="#63b8ff" stroke="#63b8ff" points="196.7,-38.49 186.36,-36.21 193.02,-44.44 196.7,-38.49"/>
<g id="a_edge5&#45;headlabel"><a xlink:href="dir_000022_000023.xhtml" target="_top" xlink:title="1">
<text text-anchor="middle" x="199.97" y="-34.67" font-family="Helvetica,sans-Serif" font-size="10.00" fill="#63b8ff">1</text>
</a>
</g>
</g>
<!-- dir_b49365647f74dff1c8dd1e88d29293e4&#45;&gt;dir_6c970bd3e9ed525c032ca1b33f237f5b -->
<g id="edge8" class="edge">
<title>dir_b49365647f74dff1c8dd1e88d29293e4&#45;&gt;dir_6c970bd3e9ed525c032ca1b33f237f5b</title>
<path fill="none" stroke="#63b8ff" d="M225.9,-252.29C173.28,-247.23 86.53,-235.35 67,-211 53.71,-194.42 70.64,-172.74 86.17,-158.14"/>
<polygon fill="#63b8ff" stroke="#63b8ff" points="88.13,-161.08 93.32,-151.84 83.5,-155.83 88.13,-161.08"/>
<g id="a_edge8&#45;headlabel"><a xlink:href="dir_000003_000022.xhtml" target="_top" xlink:title="5">
<text text-anchor="middle" x="88.45" y="-162.09" font-family="Helvetica,sans-Serif" font-size="10.00" fill="#63b8ff">5</text>
</a>
</g>
</g>
<!-- dir_8d1ee3be5d3bd43266cde43195651fe0 -->
<g id="node11" class="node">
<title>dir_8d1ee3be5d3bd43266cde43195651fe0</title>
<g id="a_node11"><a xlink:href="dir_8d1ee3be5d3bd43266cde43195651fe0.xhtml" target="_top" xlink:title="input_device_interface">
<polygon fill="#a2b4d6" stroke="#404040" points="190,-211 76,-211 76,-192 190,-192 190,-211"/>
<text text-anchor="middle" x="133" y="-199" font-family="Helvetica,sans-Serif" font-size="10.00">input_device_interface</text>
</a>
</g>
</g>
<!-- dir_b49365647f74dff1c8dd1e88d29293e4&#45;&gt;dir_8d1ee3be5d3bd43266cde43195651fe0 -->
<g id="edge9" class="edge">
<title>dir_b49365647f74dff1c8dd1e88d29293e4&#45;&gt;dir_8d1ee3be5d3bd43266cde43195651fe0</title>
<path fill="none" stroke="#63b8ff" d="M245.77,-247.1C224.3,-238.61 190.81,-225.37 165.9,-215.51"/>
<polygon fill="#63b8ff" stroke="#63b8ff" points="167.47,-212.37 156.88,-211.95 164.89,-218.88 167.47,-212.37"/>
<g id="a_edge9&#45;headlabel"><a xlink:href="dir_000003_000009.xhtml" target="_top" xlink:title="1">
<text text-anchor="middle" x="170.45" y="-207.99" font-family="Helvetica,sans-Serif" font-size="10.00" fill="#63b8ff">1</text>
</a>
</g>
</g>
<!-- dir_5d3f509552af106634de565dc9d6f33a -->
<g id="node12" class="node">
<title>dir_5d3f509552af106634de565dc9d6f33a</title>
<g id="a_node12"><a xlink:href="dir_5d3f509552af106634de565dc9d6f33a.xhtml" target="_top" xlink:title="sound_output_interface">
<polygon fill="#a2b4d6" stroke="#404040" points="326,-211 208,-211 208,-192 326,-192 326,-211"/>
<text text-anchor="middle" x="267" y="-199" font-family="Helvetica,sans-Serif" font-size="10.00">sound_output_interface</text>
</a>
</g>
</g>
<!-- dir_b49365647f74dff1c8dd1e88d29293e4&#45;&gt;dir_5d3f509552af106634de565dc9d6f33a -->
<g id="edge7" class="edge">
<title>dir_b49365647f74dff1c8dd1e88d29293e4&#45;&gt;dir_5d3f509552af106634de565dc9d6f33a</title>
<path fill="none" stroke="#63b8ff" d="M267,-247.22C267,-240.65 267,-231.18 267,-222.64"/>
<polygon fill="#63b8ff" stroke="#63b8ff" points="270.5,-222.77 267,-212.77 263.5,-222.77 270.5,-222.77"/>
<g id="a_edge7&#45;headlabel"><a xlink:href="dir_000003_000013.xhtml" target="_top" xlink:title="1">
<text text-anchor="middle" x="273.34" y="-222.35" font-family="Helvetica,sans-Serif" font-size="10.00" fill="#63b8ff">1</text>
</a>
</g>
</g>
<!-- dir_dd038f7b9d5ffa107a6117feec92b6ac -->
<g id="node13" class="node">
<title>dir_dd038f7b9d5ffa107a6117feec92b6ac</title>
<g id="a_node13"><a xlink:href="dir_dd038f7b9d5ffa107a6117feec92b6ac.xhtml" target="_top" xlink:title="status_indicators">
<polygon fill="#a2b4d6" stroke="#404040" points="435.5,-211 344.5,-211 344.5,-192 435.5,-192 435.5,-211"/>
<text text-anchor="middle" x="390" y="-199" font-family="Helvetica,sans-Serif" font-size="10.00">status_indicators</text>
</a>
</g>
</g>
<!-- dir_b49365647f74dff1c8dd1e88d29293e4&#45;&gt;dir_dd038f7b9d5ffa107a6117feec92b6ac -->
<g id="edge10" class="edge">
<title>dir_b49365647f74dff1c8dd1e88d29293e4&#45;&gt;dir_dd038f7b9d5ffa107a6117feec92b6ac</title>
<path fill="none" stroke="#63b8ff" d="M286.49,-247.1C305.93,-238.72 336.11,-225.72 358.87,-215.91"/>
<polygon fill="#63b8ff" stroke="#63b8ff" points="360.18,-219.16 367.98,-211.99 357.41,-212.73 360.18,-219.16"/>
<g id="a_edge10&#45;headlabel"><a xlink:href="dir_000003_000015.xhtml" target="_top" xlink:title="1">
<text text-anchor="middle" x="359.39" y="-220.09" font-family="Helvetica,sans-Serif" font-size="10.00" fill="#63b8ff">1</text>
</a>
</g>
</g>
<!-- dir_2cab4a4851285b5f16a60faeb6fea8d2 -->
<g id="node10" class="node">
<title>dir_2cab4a4851285b5f16a60faeb6fea8d2</title>
<g id="a_node10"><a xlink:href="dir_2cab4a4851285b5f16a60faeb6fea8d2.xhtml" target="_top" xlink:title="display_interface">
<polygon fill="#a2b4d6" stroke="#404040" points="165.5,-266 76.5,-266 76.5,-247 165.5,-247 165.5,-266"/>
<text text-anchor="middle" x="121" y="-254" font-family="Helvetica,sans-Serif" font-size="10.00">display_interface</text>
</a>
</g>
</g>
<!-- dir_2cab4a4851285b5f16a60faeb6fea8d2&#45;&gt;dir_6c970bd3e9ed525c032ca1b33f237f5b -->
<g id="edge11" class="edge">
<title>dir_2cab4a4851285b5f16a60faeb6fea8d2&#45;&gt;dir_6c970bd3e9ed525c032ca1b33f237f5b</title>
<path fill="none" stroke="#63b8ff" d="M95.85,-246.55C80.17,-239.52 61.28,-228.02 52,-211 46.26,-200.46 46.73,-194.78 52,-184 57.48,-172.8 67.55,-163.72 77.52,-156.91"/>
<polygon fill="#63b8ff" stroke="#63b8ff" points="79.34,-159.89 86,-151.65 75.66,-153.94 79.34,-159.89"/>
<g id="a_edge11&#45;headlabel"><a xlink:href="dir_000005_000022.xhtml" target="_top" xlink:title="1">
<text text-anchor="middle" x="79.07" y="-160.9" font-family="Helvetica,sans-Serif" font-size="10.00" fill="#63b8ff">1</text>
</a>
</g>
</g>
<!-- dir_8d1ee3be5d3bd43266cde43195651fe0&#45;&gt;dir_6c970bd3e9ed525c032ca1b33f237f5b -->
<g id="edge12" class="edge">
<title>dir_8d1ee3be5d3bd43266cde43195651fe0&#45;&gt;dir_6c970bd3e9ed525c032ca1b33f237f5b</title>
<path fill="none" stroke="#63b8ff" d="M129.02,-191.87C125.27,-183.75 119.53,-171.31 114.72,-160.89"/>
<polygon fill="#63b8ff" stroke="#63b8ff" points="118,-159.65 110.63,-152.04 111.65,-162.59 118,-159.65"/>
<g id="a_edge12&#45;headlabel"><a xlink:href="dir_000009_000022.xhtml" target="_top" xlink:title="1">
<text text-anchor="middle" x="121.45" y="-157.85" font-family="Helvetica,sans-Serif" font-size="10.00" fill="#63b8ff">1</text>
</a>
</g>
</g>
<!-- dir_5d3f509552af106634de565dc9d6f33a&#45;&gt;dir_6c970bd3e9ed525c032ca1b33f237f5b -->
<g id="edge13" class="edge">
<title>dir_5d3f509552af106634de565dc9d6f33a&#45;&gt;dir_6c970bd3e9ed525c032ca1b33f237f5b</title>
<path fill="none" stroke="#63b8ff" d="M238.84,-191.56C216.94,-184.47 185.86,-174.1 159,-164 151.82,-161.3 144.16,-158.23 136.96,-155.26"/>
<polygon fill="#63b8ff" stroke="#63b8ff" points="138.48,-152.11 127.91,-151.48 135.78,-158.56 138.48,-152.11"/>
<g id="a_edge13&#45;headlabel"><a xlink:href="dir_000013_000022.xhtml" target="_top" xlink:title="1">
<text text-anchor="middle" x="141.5" y="-147.79" font-family="Helvetica,sans-Serif" font-size="10.00" fill="#63b8ff">1</text>
</a>
</g>
</g>
<!-- dir_dd038f7b9d5ffa107a6117feec92b6ac&#45;&gt;dir_6c970bd3e9ed525c032ca1b33f237f5b -->
<g id="edge14" class="edge">
<title>dir_dd038f7b9d5ffa107a6117feec92b6ac&#45;&gt;dir_6c970bd3e9ed525c032ca1b33f237f5b</title>
<path fill="none" stroke="#63b8ff" d="M363.67,-191.56C354.66,-188.78 344.47,-185.94 335,-184 257.88,-168.18 235.21,-183.73 159,-164 150.74,-161.86 142.08,-158.69 134.2,-155.42"/>
<polygon fill="#63b8ff" stroke="#63b8ff" points="135.67,-152.24 125.11,-151.43 132.86,-158.65 135.67,-152.24"/>
<g id="a_edge14&#45;headlabel"><a xlink:href="dir_000015_000022.xhtml" target="_top" xlink:title="1">
<text text-anchor="middle" x="138.72" y="-147.98" font-family="Helvetica,sans-Serif" font-size="10.00" fill="#63b8ff">1</text>
</a>
</g>
</g>
<!-- dir_71046b38222792489c3876836d4fbdbc -->
<g id="node14" class="node">
<title>dir_71046b38222792489c3876836d4fbdbc</title>
<g id="a_node14"><a xlink:href="dir_71046b38222792489c3876836d4fbdbc.xhtml" target="_top" xlink:title="Package Enterprise Business Rules.">
<polygon fill="#c8d2e7" stroke="#404040" points="120,-332 16,-332 16,-302 120,-302 120,-332"/>
<text text-anchor="start" x="24" y="-320" font-family="Helvetica,sans-Serif" font-size="10.00">enterprise_business</text>
<text text-anchor="middle" x="68" y="-309" font-family="Helvetica,sans-Serif" font-size="10.00">_rules</text>
</a>
</g>
</g>
</g>
</svg>
