<?xml version="1.0" encoding="UTF-8" standalone="no"?>
<!DOCTYPE svg PUBLIC "-//W3C//DTD SVG 1.1//EN"
 "http://www.w3.org/Graphics/SVG/1.1/DTD/svg11.dtd">
<!-- Generated by graphviz version 7.0.5 (20221223.1930)
 -->
<!-- Title: lib Pages: 1 -->
<svg width="325pt" height="257pt"
 viewBox="0.00 0.00 325.00 256.50" xmlns="http://www.w3.org/2000/svg" xmlns:xlink="http://www.w3.org/1999/xlink">
<g id="graph0" class="graph" transform="scale(1 1) rotate(0) translate(4 252.5)">
<title>lib</title>
<g id="clust1" class="cluster">
<title>clusterdir_97aefd0d527b934f1d99a682da8fe6a9</title>
<g id="a_clust1"><a xlink:href="dir_97aefd0d527b934f1d99a682da8fe6a9.xhtml" target="_top">
<polygon fill="#edf0f7" stroke="#404040" stroke-width="2" points="8,-8 8,-240.5 309,-240.5 309,-8 8,-8"/>
</a>
</g>
</g>
<g id="clust3" class="cluster">
<title>clusterdir_6dbb42d2342d9d7292a192bc1d024acc</title>
<g id="a_clust3"><a xlink:href="dir_6dbb42d2342d9d7292a192bc1d024acc.xhtml" target="_top" xlink:title="Package Application Business Rules.">
<polygon fill="#c8d2e7" stroke="#404040" points="42,-16 42,-122.5 166,-122.5 166,-16 42,-16"/>
</a>
</g>
</g>
<g id="clust4" class="cluster">
<title>clusterdir_b49365647f74dff1c8dd1e88d29293e4</title>
<g id="a_clust4"><a xlink:href="dir_b49365647f74dff1c8dd1e88d29293e4.xhtml" target="_top" xlink:title="Package Board Adapters.">
<polygon fill="#c8d2e7" stroke="#404040" points="51,-142.5 51,-177.5 258,-177.5 258,-142.5 51,-142.5"/>
</a>
</g>
</g>
<g id="clust2" class="cluster">
<title>clusterdir_e75212beacfa7863df067e044f07f232</title>
<g id="a_clust2"><a xlink:href="dir_e75212beacfa7863df067e044f07f232.xhtml" target="_top" xlink:title="Package 3rd Party Adapters.">
<polygon fill="#c8d2e7" stroke="#404040" points="55,-197.5 55,-232.5 301,-232.5 301,-197.5 55,-197.5"/>
</a>
</g>
</g>
<!-- dir_97aefd0d527b934f1d99a682da8fe6a9 -->
<g id="node1" class="node">
<title>dir_97aefd0d527b934f1d99a682da8fe6a9</title>
<text text-anchor="middle" x="31" y="-212.5" font-family="Helvetica,sans-Serif" font-size="10.00">lib</text>
</g>
<!-- dir_e75212beacfa7863df067e044f07f232 -->
<g id="node2" class="node">
<title>dir_e75212beacfa7863df067e044f07f232</title>
<text text-anchor="middle" x="243" y="-212.5" font-family="Helvetica,sans-Serif" font-size="10.00">3rd_party_adapters</text>
</g>
<!-- dir_e5c908e09902ac05aca8138811a01df8 -->
<g id="node3" class="node">
<title>dir_e5c908e09902ac05aca8138811a01df8</title>
<g id="a_node3"><a xlink:href="dir_e5c908e09902ac05aca8138811a01df8.xhtml" target="_top" xlink:title="Arduino">
<polygon fill="#a2b4d6" stroke="#404040" points="175,-224.5 125,-224.5 125,-205.5 175,-205.5 175,-224.5"/>
<text text-anchor="middle" x="150" y="-212.5" font-family="Helvetica,sans-Serif" font-size="10.00">Arduino</text>
</a>
</g>
</g>
<!-- dir_6dbb42d2342d9d7292a192bc1d024acc -->
<g id="node5" class="node">
<title>dir_6dbb42d2342d9d7292a192bc1d024acc</title>
<text text-anchor="start" x="58.5" y="-102.5" font-family="Helvetica,sans-Serif" font-size="10.00">application_business</text>
<text text-anchor="middle" x="104" y="-91.5" font-family="Helvetica,sans-Serif" font-size="10.00">_rules</text>
</g>
<!-- dir_e5c908e09902ac05aca8138811a01df8&#45;&gt;dir_6dbb42d2342d9d7292a192bc1d024acc -->
<g id="edge1" class="edge">
<title>dir_e5c908e09902ac05aca8138811a01df8&#45;&gt;dir_6dbb42d2342d9d7292a192bc1d024acc</title>
<path fill="none" stroke="#63b8ff" d="M132.95,-205.03C127.61,-202.41 121.63,-199.67 116,-197.5 86.2,-186.04 66.18,-203.03 47,-177.5 37.66,-165.06 39.98,-156.38 47,-142.5 51.34,-133.9 58.37,-126.64 66.02,-120.69"/>
<polygon fill="#63b8ff" stroke="#63b8ff" points="67.73,-123.76 73.94,-115.18 63.73,-118.02 67.73,-123.76"/>
<g id="a_edge1&#45;headlabel"><a xlink:href="dir_000002_000001.xhtml" target="_top" xlink:title="1">
<text text-anchor="middle" x="67.65" y="-124.78" font-family="Helvetica,sans-Serif" font-size="10.00" fill="#63b8ff">1</text>
</a>
</g>
</g>
<!-- dir_b49365647f74dff1c8dd1e88d29293e4 -->
<g id="node7" class="node">
<title>dir_b49365647f74dff1c8dd1e88d29293e4</title>
<text text-anchor="middle" x="208" y="-157.5" font-family="Helvetica,sans-Serif" font-size="10.00">board_adapters</text>
</g>
<!-- dir_e5c908e09902ac05aca8138811a01df8&#45;&gt;dir_b49365647f74dff1c8dd1e88d29293e4 -->
<g id="edge2" class="edge">
<title>dir_e5c908e09902ac05aca8138811a01df8&#45;&gt;dir_b49365647f74dff1c8dd1e88d29293e4</title>
<path fill="none" stroke="#63b8ff" d="M159.84,-205.01C168.25,-197.32 180.56,-186.07 190.63,-176.88"/>
<polygon fill="#63b8ff" stroke="#63b8ff" points="192.93,-179.51 197.95,-170.18 188.21,-174.35 192.93,-179.51"/>
<g id="a_edge2&#45;headlabel"><a xlink:href="dir_000002_000003.xhtml" target="_top" xlink:title="1">
<text text-anchor="middle" x="193.31" y="-180.51" font-family="Helvetica,sans-Serif" font-size="10.00" fill="#63b8ff">1</text>
</a>
</g>
</g>
<!-- dir_673789fe363c8cf83b6beac9ec7c58fa -->
<g id="node4" class="node">
<title>dir_673789fe363c8cf83b6beac9ec7c58fa</title>
<g id="a_node4"><a xlink:href="dir_673789fe363c8cf83b6beac9ec7c58fa.xhtml" target="_top" xlink:title="LVGL">
<polygon fill="#a2b4d6" stroke="#404040" points="106.5,-224.5 63.5,-224.5 63.5,-205.5 106.5,-205.5 106.5,-224.5"/>
<text text-anchor="middle" x="85" y="-212.5" font-family="Helvetica,sans-Serif" font-size="10.00">LVGL</text>
</a>
</g>
</g>
<!-- dir_dab382b21b73aae3d74d7668eeeacf78 -->
<g id="node6" class="node">
<title>dir_dab382b21b73aae3d74d7668eeeacf78</title>
<g id="a_node6"><a xlink:href="dir_dab382b21b73aae3d74d7668eeeacf78.xhtml" target="_top" xlink:title="tasks">
<polygon fill="#a2b4d6" stroke="#404040" points="124.5,-43 83.5,-43 83.5,-24 124.5,-24 124.5,-43"/>
<text text-anchor="middle" x="104" y="-31" font-family="Helvetica,sans-Serif" font-size="10.00">tasks</text>
</a>
</g>
</g>
<!-- dir_6dbb42d2342d9d7292a192bc1d024acc&#45;&gt;dir_dab382b21b73aae3d74d7668eeeacf78 -->
<g id="edge4" class="edge">
<title>dir_6dbb42d2342d9d7292a192bc1d024acc&#45;&gt;dir_dab382b21b73aae3d74d7668eeeacf78</title>
<path fill="none" stroke="#63b8ff" d="M104,-84.61C104,-75.92 104,-64.57 104,-54.87"/>
<polygon fill="#63b8ff" stroke="#63b8ff" points="107.5,-54.95 104,-44.95 100.5,-54.95 107.5,-54.95"/>
<g id="a_edge4&#45;headlabel"><a xlink:href="dir_000001_000012.xhtml" target="_top" xlink:title="1">
<text text-anchor="middle" x="110.34" y="-54.53" font-family="Helvetica,sans-Serif" font-size="10.00" fill="#63b8ff">1</text>
</a>
</g>
</g>
<!-- dir_71046b38222792489c3876836d4fbdbc -->
<g id="node9" class="node">
<title>dir_71046b38222792489c3876836d4fbdbc</title>
<g id="a_node9"><a xlink:href="dir_71046b38222792489c3876836d4fbdbc.xhtml" target="_top" xlink:title="Package Enterprise Business Rules.">
<polygon fill="#c8d2e7" stroke="#404040" points="278,-48.5 174,-48.5 174,-18.5 278,-18.5 278,-48.5"/>
<text text-anchor="start" x="182" y="-36.5" font-family="Helvetica,sans-Serif" font-size="10.00">enterprise_business</text>
<text text-anchor="middle" x="226" y="-25.5" font-family="Helvetica,sans-Serif" font-size="10.00">_rules</text>
</a>
</g>
</g>
<!-- dir_6dbb42d2342d9d7292a192bc1d024acc&#45;&gt;dir_71046b38222792489c3876836d4fbdbc -->
<g id="edge3" class="edge">
<title>dir_6dbb42d2342d9d7292a192bc1d024acc&#45;&gt;dir_71046b38222792489c3876836d4fbdbc</title>
<path fill="none" stroke="#63b8ff" d="M130.47,-84.61C147.5,-75.68 169.88,-63.94 188.7,-54.07"/>
<polygon fill="#63b8ff" stroke="#63b8ff" points="190.16,-57.25 197.39,-49.51 186.91,-51.05 190.16,-57.25"/>
<g id="a_edge3&#45;headlabel"><a xlink:href="dir_000001_000007.xhtml" target="_top" xlink:title="2">
<text text-anchor="middle" x="189.64" y="-58.23" font-family="Helvetica,sans-Serif" font-size="10.00" fill="#63b8ff">2</text>
</a>
</g>
</g>
<!-- dir_b49365647f74dff1c8dd1e88d29293e4&#45;&gt;dir_6dbb42d2342d9d7292a192bc1d024acc -->
<g id="edge5" class="edge">
<title>dir_b49365647f74dff1c8dd1e88d29293e4&#45;&gt;dir_6dbb42d2342d9d7292a192bc1d024acc</title>
<path fill="none" stroke="#63b8ff" d="M193.1,-150.62C178.88,-142.62 156.95,-130.28 138.4,-119.85"/>
<polygon fill="#63b8ff" stroke="#63b8ff" points="140.26,-116.88 129.83,-115.03 136.83,-122.98 140.26,-116.88"/>
<g id="a_edge5&#45;headlabel"><a xlink:href="dir_000003_000001.xhtml" target="_top" xlink:title="2">
<text text-anchor="middle" x="143.47" y="-112.93" font-family="Helvetica,sans-Serif" font-size="10.00" fill="#63b8ff">2</text>
</a>
</g>
</g>
<!-- dir_2cab4a4851285b5f16a60faeb6fea8d2 -->
<g id="node8" class="node">
<title>dir_2cab4a4851285b5f16a60faeb6fea8d2</title>
<g id="a_node8"><a xlink:href="dir_2cab4a4851285b5f16a60faeb6fea8d2.xhtml" target="_top" xlink:title="display_interface">
<polygon fill="#a2b4d6" stroke="#404040" points="148.5,-169.5 59.5,-169.5 59.5,-150.5 148.5,-150.5 148.5,-169.5"/>
<text text-anchor="middle" x="104" y="-157.5" font-family="Helvetica,sans-Serif" font-size="10.00">display_interface</text>
</a>
</g>
</g>
<!-- dir_2cab4a4851285b5f16a60faeb6fea8d2&#45;&gt;dir_6dbb42d2342d9d7292a192bc1d024acc -->
<g id="edge6" class="edge">
<title>dir_2cab4a4851285b5f16a60faeb6fea8d2&#45;&gt;dir_6dbb42d2342d9d7292a192bc1d024acc</title>
<path fill="none" stroke="#63b8ff" d="M104,-150.37C104,-143.81 104,-134.45 104,-125.6"/>
<polygon fill="#63b8ff" stroke="#63b8ff" points="107.5,-125.68 104,-115.68 100.5,-125.68 107.5,-125.68"/>
<g id="a_edge6&#45;headlabel"><a xlink:href="dir_000005_000001.xhtml" target="_top" xlink:title="1">
<text text-anchor="middle" x="110.34" y="-125.26" font-family="Helvetica,sans-Serif" font-size="10.00" fill="#63b8ff">1</text>
</a>
</g>
</g>
</g>
</svg>
