<?xml version="1.0" encoding="UTF-8" standalone="no"?>
<!DOCTYPE svg PUBLIC "-//W3C//DTD SVG 1.1//EN"
 "http://www.w3.org/Graphics/SVG/1.1/DTD/svg11.dtd">
<!-- Generated by graphviz version 7.0.5 (20221223.1930)
 -->
<!-- Title: lib/application_business_rules Pages: 1 -->
<svg width="268pt" height="218pt"
 viewBox="0.00 0.00 268.00 218.00" xmlns="http://www.w3.org/2000/svg" xmlns:xlink="http://www.w3.org/1999/xlink">
<g id="graph0" class="graph" transform="scale(1 1) rotate(0) translate(4 214)">
<title>lib/application_business_rules</title>
<g id="clust1" class="cluster">
<title>clusterdir_97aefd0d527b934f1d99a682da8fe6a9</title>
<g id="a_clust1"><a xlink:href="dir_97aefd0d527b934f1d99a682da8fe6a9.xhtml" target="_top" xlink:title="lib">
<polygon fill="#edf0f7" stroke="#404040" stroke-dasharray="5,2" points="8,-8 8,-202 252,-202 252,-8 8,-8"/>
<text text-anchor="middle" x="130" y="-190" font-family="Helvetica,sans-Serif" font-size="10.00">lib</text>
</a>
</g>
</g>
<g id="clust2" class="cluster">
<title>clusterdir_6dbb42d2342d9d7292a192bc1d024acc</title>
<g id="a_clust2"><a xlink:href="dir_6dbb42d2342d9d7292a192bc1d024acc.xhtml" target="_top" xlink:title="Package Application Business Rules.">
<polygon fill="#edf0f7" stroke="#404040" stroke-width="2" points="16,-74 16,-175 244,-175 244,-74 16,-74"/>
</a>
</g>
</g>
<!-- dir_71046b38222792489c3876836d4fbdbc -->
<g id="node1" class="node">
<title>dir_71046b38222792489c3876836d4fbdbc</title>
<g id="a_node1"><a xlink:href="dir_71046b38222792489c3876836d4fbdbc.xhtml" target="_top" xlink:title="Package Enterprise Business Rules.">
<polygon fill="#c8d2e7" stroke="#404040" points="179,-46 75,-46 75,-16 179,-16 179,-46"/>
<text text-anchor="start" x="83" y="-34" font-family="Helvetica,sans-Serif" font-size="10.00">enterprise_business</text>
<text text-anchor="middle" x="127" y="-23" font-family="Helvetica,sans-Serif" font-size="10.00">_rules</text>
</a>
</g>
</g>
<!-- dir_6dbb42d2342d9d7292a192bc1d024acc -->
<g id="node2" class="node">
<title>dir_6dbb42d2342d9d7292a192bc1d024acc</title>
<text text-anchor="start" x="136.5" y="-155" font-family="Helvetica,sans-Serif" font-size="10.00">application_business</text>
<text text-anchor="middle" x="182" y="-144" font-family="Helvetica,sans-Serif" font-size="10.00">_rules</text>
</g>
<!-- dir_17a6007a5c84c34f300c622be50c188b -->
<g id="node3" class="node">
<title>dir_17a6007a5c84c34f300c622be50c188b</title>
<g id="a_node3"><a xlink:href="dir_17a6007a5c84c34f300c622be50c188b.xhtml" target="_top" xlink:title="serial_interface">
<polygon fill="#c8d2e7" stroke="#404040" points="107.5,-101 24.5,-101 24.5,-82 107.5,-82 107.5,-101"/>
<text text-anchor="middle" x="66" y="-89" font-family="Helvetica,sans-Serif" font-size="10.00">serial_interface</text>
</a>
</g>
</g>
<!-- dir_17a6007a5c84c34f300c622be50c188b&#45;&gt;dir_71046b38222792489c3876836d4fbdbc -->
<g id="edge1" class="edge">
<title>dir_17a6007a5c84c34f300c622be50c188b&#45;&gt;dir_71046b38222792489c3876836d4fbdbc</title>
<path fill="none" stroke="#63b8ff" d="M75.26,-81.62C82.79,-74.4 93.74,-63.89 103.64,-54.41"/>
<polygon fill="#63b8ff" stroke="#63b8ff" points="106.06,-56.93 110.85,-47.49 101.21,-51.88 106.06,-56.93"/>
<g id="a_edge1&#45;headlabel"><a xlink:href="dir_000012_000007.xhtml" target="_top" xlink:title="1">
<text text-anchor="middle" x="106.52" y="-57.92" font-family="Helvetica,sans-Serif" font-size="10.00" fill="#63b8ff">1</text>
</a>
</g>
</g>
<!-- dir_dab382b21b73aae3d74d7668eeeacf78 -->
<g id="node4" class="node">
<title>dir_dab382b21b73aae3d74d7668eeeacf78</title>
<g id="a_node4"><a xlink:href="dir_dab382b21b73aae3d74d7668eeeacf78.xhtml" target="_top" xlink:title="tasks">
<polygon fill="#c8d2e7" stroke="#404040" points="166.5,-101 125.5,-101 125.5,-82 166.5,-82 166.5,-101"/>
<text text-anchor="middle" x="146" y="-89" font-family="Helvetica,sans-Serif" font-size="10.00">tasks</text>
</a>
</g>
</g>
<!-- dir_6c970bd3e9ed525c032ca1b33f237f5b -->
<g id="node5" class="node">
<title>dir_6c970bd3e9ed525c032ca1b33f237f5b</title>
<g id="a_node5"><a xlink:href="dir_6c970bd3e9ed525c032ca1b33f237f5b.xhtml" target="_top" xlink:title="user_interaction">
<polygon fill="#c8d2e7" stroke="#404040" points="110,-161.5 24,-161.5 24,-142.5 110,-142.5 110,-161.5"/>
<text text-anchor="middle" x="67" y="-149.5" font-family="Helvetica,sans-Serif" font-size="10.00">user_interaction</text>
</a>
</g>
</g>
<!-- dir_6c970bd3e9ed525c032ca1b33f237f5b&#45;&gt;dir_71046b38222792489c3876836d4fbdbc -->
<g id="edge3" class="edge">
<title>dir_6c970bd3e9ed525c032ca1b33f237f5b&#45;&gt;dir_71046b38222792489c3876836d4fbdbc</title>
<path fill="none" stroke="#63b8ff" d="M95.01,-142.02C124.13,-132.05 166.73,-115.46 176,-101 182.48,-90.9 181.01,-84.9 176,-74 172.46,-66.3 166.73,-59.49 160.42,-53.7"/>
<polygon fill="#63b8ff" stroke="#63b8ff" points="162.73,-51.07 152.78,-47.43 158.29,-56.48 162.73,-51.07"/>
<g id="a_edge3&#45;headlabel"><a xlink:href="dir_000022_000007.xhtml" target="_top" xlink:title="1">
<text text-anchor="middle" x="166.14" y="-47.69" font-family="Helvetica,sans-Serif" font-size="10.00" fill="#63b8ff">1</text>
</a>
</g>
</g>
<!-- dir_6c970bd3e9ed525c032ca1b33f237f5b&#45;&gt;dir_17a6007a5c84c34f300c622be50c188b -->
<g id="edge2" class="edge">
<title>dir_6c970bd3e9ed525c032ca1b33f237f5b&#45;&gt;dir_17a6007a5c84c34f300c622be50c188b</title>
<path fill="none" stroke="#63b8ff" d="M66.85,-142.37C66.72,-134.5 66.51,-122.6 66.34,-112.39"/>
<polygon fill="#63b8ff" stroke="#63b8ff" points="69.84,-112.62 66.17,-102.68 62.85,-112.74 69.84,-112.62"/>
<g id="a_edge2&#45;headlabel"><a xlink:href="dir_000022_000012.xhtml" target="_top" xlink:title="1">
<text text-anchor="middle" x="72.72" y="-112.15" font-family="Helvetica,sans-Serif" font-size="10.00" fill="#63b8ff">1</text>
</a>
</g>
</g>
<!-- dir_6c970bd3e9ed525c032ca1b33f237f5b&#45;&gt;dir_dab382b21b73aae3d74d7668eeeacf78 -->
<g id="edge4" class="edge">
<title>dir_6c970bd3e9ed525c032ca1b33f237f5b&#45;&gt;dir_dab382b21b73aae3d74d7668eeeacf78</title>
<path fill="none" stroke="#63b8ff" d="M79,-142.12C91.18,-133.1 110.29,-118.95 124.98,-108.06"/>
<polygon fill="#63b8ff" stroke="#63b8ff" points="126.72,-111.13 132.67,-102.37 122.55,-105.51 126.72,-111.13"/>
<g id="a_edge4&#45;headlabel"><a xlink:href="dir_000022_000016.xhtml" target="_top" xlink:title="1">
<text text-anchor="middle" x="126.74" y="-112.15" font-family="Helvetica,sans-Serif" font-size="10.00" fill="#63b8ff">1</text>
</a>
</g>
</g>
</g>
</svg>
