<?xml version="1.0" encoding="UTF-8" standalone="no"?>
<!DOCTYPE svg PUBLIC "-//W3C//DTD SVG 1.1//EN"
 "http://www.w3.org/Graphics/SVG/1.1/DTD/svg11.dtd">
<!-- Generated by graphviz version 7.0.5 (20221223.1930)
 -->
<!-- Title: lib Pages: 1 -->
<svg width="447pt" height="359pt"
 viewBox="0.00 0.00 447.00 358.50" xmlns="http://www.w3.org/2000/svg" xmlns:xlink="http://www.w3.org/1999/xlink">
<g id="graph0" class="graph" transform="scale(1 1) rotate(0) translate(4 354.5)">
<title>lib</title>
<g id="clust1" class="cluster">
<title>clusterdir_97aefd0d527b934f1d99a682da8fe6a9</title>
<g id="a_clust1"><a xlink:href="dir_97aefd0d527b934f1d99a682da8fe6a9.xhtml" target="_top">
<polygon fill="#edf0f7" stroke="#404040" stroke-width="2" points="8,-8 8,-342.5 431,-342.5 431,-8 8,-8"/>
</a>
</g>
</g>
<g id="clust4" class="cluster">
<title>clusterdir_b49365647f74dff1c8dd1e88d29293e4</title>
<g id="a_clust4"><a xlink:href="dir_b49365647f74dff1c8dd1e88d29293e4.xhtml" target="_top" xlink:title="Package Board Adapters.">
<polygon fill="#c8d2e7" stroke="#404040" points="28,-184 28,-274 369,-274 369,-184 28,-184"/>
</a>
</g>
</g>
<g id="clust3" class="cluster">
<title>clusterdir_6dbb42d2342d9d7292a192bc1d024acc</title>
<g id="a_clust3"><a xlink:href="dir_6dbb42d2342d9d7292a192bc1d024acc.xhtml" target="_top" xlink:title="Package Application Business Rules.">
<polygon fill="#c8d2e7" stroke="#404040" points="171,-63 171,-164 399,-164 399,-63 171,-63"/>
</a>
</g>
</g>
<g id="clust2" class="cluster">
<title>clusterdir_e75212beacfa7863df067e044f07f232</title>
<g id="a_clust2"><a xlink:href="dir_e75212beacfa7863df067e044f07f232.xhtml" target="_top" xlink:title="Package 3rd Party Adapters.">
<polygon fill="#c8d2e7" stroke="#404040" points="178,-299.5 178,-334.5 423,-334.5 423,-299.5 178,-299.5"/>
</a>
</g>
</g>
<!-- dir_97aefd0d527b934f1d99a682da8fe6a9 -->
<g id="node1" class="node">
<title>dir_97aefd0d527b934f1d99a682da8fe6a9</title>
<text text-anchor="middle" x="153" y="-314.5" font-family="Helvetica,sans-Serif" font-size="10.00">lib</text>
</g>
<!-- dir_e75212beacfa7863df067e044f07f232 -->
<g id="node2" class="node">
<title>dir_e75212beacfa7863df067e044f07f232</title>
<text text-anchor="middle" x="365" y="-314.5" font-family="Helvetica,sans-Serif" font-size="10.00">3rd_party_adapters</text>
</g>
<!-- dir_e5c908e09902ac05aca8138811a01df8 -->
<g id="node3" class="node">
<title>dir_e5c908e09902ac05aca8138811a01df8</title>
<g id="a_node3"><a xlink:href="dir_e5c908e09902ac05aca8138811a01df8.xhtml" target="_top" xlink:title="Arduino">
<polygon fill="#a2b4d6" stroke="#404040" points="236,-326.5 186,-326.5 186,-307.5 236,-307.5 236,-326.5"/>
<text text-anchor="middle" x="211" y="-314.5" font-family="Helvetica,sans-Serif" font-size="10.00">Arduino</text>
</a>
</g>
</g>
<!-- dir_17a6007a5c84c34f300c622be50c188b -->
<g id="node6" class="node">
<title>dir_17a6007a5c84c34f300c622be50c188b</title>
<g id="a_node6"><a xlink:href="dir_17a6007a5c84c34f300c622be50c188b.xhtml" target="_top" xlink:title="serial_interface">
<polygon fill="#a2b4d6" stroke="#404040" points="262.5,-90 179.5,-90 179.5,-71 262.5,-71 262.5,-90"/>
<text text-anchor="middle" x="221" y="-78" font-family="Helvetica,sans-Serif" font-size="10.00">serial_interface</text>
</a>
</g>
</g>
<!-- dir_e5c908e09902ac05aca8138811a01df8&#45;&gt;dir_17a6007a5c84c34f300c622be50c188b -->
<g id="edge1" class="edge">
<title>dir_e5c908e09902ac05aca8138811a01df8&#45;&gt;dir_17a6007a5c84c34f300c622be50c188b</title>
<path fill="none" stroke="#63b8ff" d="M197.61,-307.06C192.86,-304.25 187.35,-301.39 182,-299.5 148.45,-287.68 47.06,-301.08 24,-274 -1.93,-243.55 3.25,-218.19 24,-184 55.11,-132.74 121.14,-105.93 168.17,-92.78"/>
<polygon fill="#63b8ff" stroke="#63b8ff" points="168.86,-96.22 177.62,-90.27 167.06,-89.46 168.86,-96.22"/>
<g id="a_edge1&#45;headlabel"><a xlink:href="dir_000002_000011.xhtml" target="_top" xlink:title="1">
<text text-anchor="middle" x="167.57" y="-97" font-family="Helvetica,sans-Serif" font-size="10.00" fill="#63b8ff">1</text>
</a>
</g>
</g>
<!-- dir_b49365647f74dff1c8dd1e88d29293e4 -->
<g id="node9" class="node">
<title>dir_b49365647f74dff1c8dd1e88d29293e4</title>
<text text-anchor="middle" x="319" y="-254" font-family="Helvetica,sans-Serif" font-size="10.00">board_adapters</text>
</g>
<!-- dir_e5c908e09902ac05aca8138811a01df8&#45;&gt;dir_b49365647f74dff1c8dd1e88d29293e4 -->
<g id="edge2" class="edge">
<title>dir_e5c908e09902ac05aca8138811a01df8&#45;&gt;dir_b49365647f74dff1c8dd1e88d29293e4</title>
<path fill="none" stroke="#63b8ff" d="M227.4,-307.12C244.99,-297.59 273.14,-282.34 293.6,-271.26"/>
<polygon fill="#63b8ff" stroke="#63b8ff" points="295.04,-274.46 302.16,-266.62 291.7,-268.3 295.04,-274.46"/>
<g id="a_edge2&#45;headlabel"><a xlink:href="dir_000002_000003.xhtml" target="_top" xlink:title="1">
<text text-anchor="middle" x="294.56" y="-275.45" font-family="Helvetica,sans-Serif" font-size="10.00" fill="#63b8ff">1</text>
</a>
</g>
</g>
<!-- dir_673789fe363c8cf83b6beac9ec7c58fa -->
<g id="node4" class="node">
<title>dir_673789fe363c8cf83b6beac9ec7c58fa</title>
<g id="a_node4"><a xlink:href="dir_673789fe363c8cf83b6beac9ec7c58fa.xhtml" target="_top" xlink:title="LVGL">
<polygon fill="#a2b4d6" stroke="#404040" points="297.5,-326.5 254.5,-326.5 254.5,-307.5 297.5,-307.5 297.5,-326.5"/>
<text text-anchor="middle" x="276" y="-314.5" font-family="Helvetica,sans-Serif" font-size="10.00">LVGL</text>
</a>
</g>
</g>
<!-- dir_6c970bd3e9ed525c032ca1b33f237f5b -->
<g id="node8" class="node">
<title>dir_6c970bd3e9ed525c032ca1b33f237f5b</title>
<g id="a_node8"><a xlink:href="dir_6c970bd3e9ed525c032ca1b33f237f5b.xhtml" target="_top" xlink:title="user_interaction">
<polygon fill="#a2b4d6" stroke="#404040" points="265,-150.5 179,-150.5 179,-131.5 265,-131.5 265,-150.5"/>
<text text-anchor="middle" x="222" y="-138.5" font-family="Helvetica,sans-Serif" font-size="10.00">user_interaction</text>
</a>
</g>
</g>
<!-- dir_673789fe363c8cf83b6beac9ec7c58fa&#45;&gt;dir_6c970bd3e9ed525c032ca1b33f237f5b -->
<g id="edge3" class="edge">
<title>dir_673789fe363c8cf83b6beac9ec7c58fa&#45;&gt;dir_6c970bd3e9ed525c032ca1b33f237f5b</title>
<path fill="none" stroke="#63b8ff" d="M291.9,-307.06C296.7,-304.5 302.01,-301.78 307,-299.5 335.6,-286.42 355.22,-299.94 373,-274 395.62,-241.01 398.3,-214.98 373,-184 344.88,-149.57 317.5,-177.03 275,-164 267.19,-161.61 258.95,-158.49 251.35,-155.36"/>
<polygon fill="#63b8ff" stroke="#63b8ff" points="252.77,-152.16 242.2,-151.44 250.02,-158.6 252.77,-152.16"/>
<g id="a_edge3&#45;headlabel"><a xlink:href="dir_000010_000023.xhtml" target="_top" xlink:title="2">
<text text-anchor="middle" x="255.8" y="-147.87" font-family="Helvetica,sans-Serif" font-size="10.00" fill="#63b8ff">2</text>
</a>
</g>
</g>
<!-- dir_673789fe363c8cf83b6beac9ec7c58fa&#45;&gt;dir_b49365647f74dff1c8dd1e88d29293e4 -->
<g id="edge4" class="edge">
<title>dir_673789fe363c8cf83b6beac9ec7c58fa&#45;&gt;dir_b49365647f74dff1c8dd1e88d29293e4</title>
<path fill="none" stroke="#63b8ff" d="M282.34,-307.37C288.58,-298.89 298.26,-285.71 306.12,-275.03"/>
<polygon fill="#63b8ff" stroke="#63b8ff" points="308.91,-277.14 312.01,-267.01 303.27,-272.99 308.91,-277.14"/>
<g id="a_edge4&#45;headlabel"><a xlink:href="dir_000010_000003.xhtml" target="_top" xlink:title="1">
<text text-anchor="middle" x="309.96" y="-278" font-family="Helvetica,sans-Serif" font-size="10.00" fill="#63b8ff">1</text>
</a>
</g>
</g>
<!-- dir_6dbb42d2342d9d7292a192bc1d024acc -->
<g id="node5" class="node">
<title>dir_6dbb42d2342d9d7292a192bc1d024acc</title>
<text text-anchor="start" x="291.5" y="-144" font-family="Helvetica,sans-Serif" font-size="10.00">application_business</text>
<text text-anchor="middle" x="337" y="-133" font-family="Helvetica,sans-Serif" font-size="10.00">_rules</text>
</g>
<!-- dir_3a2f33b0f26bc6229d595c2c354e6333 -->
<g id="node14" class="node">
<title>dir_3a2f33b0f26bc6229d595c2c354e6333</title>
<g id="a_node14"><a xlink:href="dir_3a2f33b0f26bc6229d595c2c354e6333.xhtml" target="_top" xlink:title="Package Utilities.">
<polygon fill="#c8d2e7" stroke="#404040" points="304.5,-35 257.5,-35 257.5,-16 304.5,-16 304.5,-35"/>
<text text-anchor="middle" x="281" y="-23" font-family="Helvetica,sans-Serif" font-size="10.00">utilities</text>
</a>
</g>
</g>
<!-- dir_17a6007a5c84c34f300c622be50c188b&#45;&gt;dir_3a2f33b0f26bc6229d595c2c354e6333 -->
<g id="edge5" class="edge">
<title>dir_17a6007a5c84c34f300c622be50c188b&#45;&gt;dir_3a2f33b0f26bc6229d595c2c354e6333</title>
<path fill="none" stroke="#63b8ff" d="M231.18,-70.51C239.76,-62.93 252.27,-51.88 262.6,-42.75"/>
<polygon fill="#63b8ff" stroke="#63b8ff" points="264.66,-45.6 269.84,-36.36 260.03,-40.36 264.66,-45.6"/>
<g id="a_edge5&#45;headlabel"><a xlink:href="dir_000011_000024.xhtml" target="_top" xlink:title="1">
<text text-anchor="middle" x="264.98" y="-46.61" font-family="Helvetica,sans-Serif" font-size="10.00" fill="#63b8ff">1</text>
</a>
</g>
</g>
<!-- dir_dab382b21b73aae3d74d7668eeeacf78 -->
<g id="node7" class="node">
<title>dir_dab382b21b73aae3d74d7668eeeacf78</title>
<g id="a_node7"><a xlink:href="dir_dab382b21b73aae3d74d7668eeeacf78.xhtml" target="_top" xlink:title="tasks">
<polygon fill="#a2b4d6" stroke="#404040" points="321.5,-90 280.5,-90 280.5,-71 321.5,-71 321.5,-90"/>
<text text-anchor="middle" x="301" y="-78" font-family="Helvetica,sans-Serif" font-size="10.00">tasks</text>
</a>
</g>
</g>
<!-- dir_6c970bd3e9ed525c032ca1b33f237f5b&#45;&gt;dir_17a6007a5c84c34f300c622be50c188b -->
<g id="edge6" class="edge">
<title>dir_6c970bd3e9ed525c032ca1b33f237f5b&#45;&gt;dir_17a6007a5c84c34f300c622be50c188b</title>
<path fill="none" stroke="#63b8ff" d="M221.85,-131.37C221.72,-123.5 221.51,-111.6 221.34,-101.39"/>
<polygon fill="#63b8ff" stroke="#63b8ff" points="224.84,-101.62 221.17,-91.68 217.85,-101.74 224.84,-101.62"/>
<g id="a_edge6&#45;headlabel"><a xlink:href="dir_000023_000011.xhtml" target="_top" xlink:title="1">
<text text-anchor="middle" x="227.72" y="-101.15" font-family="Helvetica,sans-Serif" font-size="10.00" fill="#63b8ff">1</text>
</a>
</g>
</g>
<!-- dir_6c970bd3e9ed525c032ca1b33f237f5b&#45;&gt;dir_dab382b21b73aae3d74d7668eeeacf78 -->
<g id="edge8" class="edge">
<title>dir_6c970bd3e9ed525c032ca1b33f237f5b&#45;&gt;dir_dab382b21b73aae3d74d7668eeeacf78</title>
<path fill="none" stroke="#63b8ff" d="M234,-131.12C246.18,-122.1 265.29,-107.95 279.98,-97.06"/>
<polygon fill="#63b8ff" stroke="#63b8ff" points="281.72,-100.13 287.67,-91.37 277.55,-94.51 281.72,-100.13"/>
<g id="a_edge8&#45;headlabel"><a xlink:href="dir_000023_000015.xhtml" target="_top" xlink:title="1">
<text text-anchor="middle" x="281.74" y="-101.15" font-family="Helvetica,sans-Serif" font-size="10.00" fill="#63b8ff">1</text>
</a>
</g>
</g>
<!-- dir_6c970bd3e9ed525c032ca1b33f237f5b&#45;&gt;dir_3a2f33b0f26bc6229d595c2c354e6333 -->
<g id="edge7" class="edge">
<title>dir_6c970bd3e9ed525c032ca1b33f237f5b&#45;&gt;dir_3a2f33b0f26bc6229d595c2c354e6333</title>
<path fill="none" stroke="#63b8ff" d="M250.01,-131.02C279.13,-121.05 321.73,-104.46 331,-90 337.48,-79.9 336.44,-73.7 331,-63 326.54,-54.21 318.85,-47.04 310.83,-41.45"/>
<polygon fill="#63b8ff" stroke="#63b8ff" points="312.7,-38.49 302.36,-36.21 309.02,-44.44 312.7,-38.49"/>
<g id="a_edge7&#45;headlabel"><a xlink:href="dir_000023_000024.xhtml" target="_top" xlink:title="2">
<text text-anchor="middle" x="315.97" y="-34.67" font-family="Helvetica,sans-Serif" font-size="10.00" fill="#63b8ff">2</text>
</a>
</g>
</g>
<!-- dir_b49365647f74dff1c8dd1e88d29293e4&#45;&gt;dir_6c970bd3e9ed525c032ca1b33f237f5b -->
<g id="edge10" class="edge">
<title>dir_b49365647f74dff1c8dd1e88d29293e4&#45;&gt;dir_6c970bd3e9ed525c032ca1b33f237f5b</title>
<path fill="none" stroke="#63b8ff" d="M323.59,-247.14C330.76,-232.84 342.46,-203.34 329,-184 314.38,-162.99 298.82,-173.35 275,-164 268.06,-161.28 260.65,-158.27 253.64,-155.37"/>
<polygon fill="#63b8ff" stroke="#63b8ff" points="255.05,-152.16 244.47,-151.55 252.35,-158.62 255.05,-152.16"/>
<g id="a_edge10&#45;headlabel"><a xlink:href="dir_000003_000023.xhtml" target="_top" xlink:title="6">
<text text-anchor="middle" x="258.06" y="-147.84" font-family="Helvetica,sans-Serif" font-size="10.00" fill="#63b8ff">6</text>
</a>
</g>
</g>
<!-- dir_5d3f509552af106634de565dc9d6f33a -->
<g id="node11" class="node">
<title>dir_5d3f509552af106634de565dc9d6f33a</title>
<g id="a_node11"><a xlink:href="dir_5d3f509552af106634de565dc9d6f33a.xhtml" target="_top" xlink:title="sound_output_interface">
<polygon fill="#a2b4d6" stroke="#404040" points="320,-211 202,-211 202,-192 320,-192 320,-211"/>
<text text-anchor="middle" x="261" y="-199" font-family="Helvetica,sans-Serif" font-size="10.00">sound_output_interface</text>
</a>
</g>
</g>
<!-- dir_b49365647f74dff1c8dd1e88d29293e4&#45;&gt;dir_5d3f509552af106634de565dc9d6f33a -->
<g id="edge9" class="edge">
<title>dir_b49365647f74dff1c8dd1e88d29293e4&#45;&gt;dir_5d3f509552af106634de565dc9d6f33a</title>
<path fill="none" stroke="#63b8ff" d="M309.94,-247.22C301.66,-239.65 289.18,-228.25 278.89,-218.85"/>
<polygon fill="#63b8ff" stroke="#63b8ff" points="281.44,-216.43 271.69,-212.27 276.72,-221.6 281.44,-216.43"/>
<g id="a_edge9&#45;headlabel"><a xlink:href="dir_000003_000012.xhtml" target="_top" xlink:title="1">
<text text-anchor="middle" x="284.89" y="-213.24" font-family="Helvetica,sans-Serif" font-size="10.00" fill="#63b8ff">1</text>
</a>
</g>
</g>
<!-- dir_8d1ee3be5d3bd43266cde43195651fe0 -->
<g id="node10" class="node">
<title>dir_8d1ee3be5d3bd43266cde43195651fe0</title>
<g id="a_node10"><a xlink:href="dir_8d1ee3be5d3bd43266cde43195651fe0.xhtml" target="_top" xlink:title="input_device_interface">
<polygon fill="#a2b4d6" stroke="#404040" points="150,-266 36,-266 36,-247 150,-247 150,-266"/>
<text text-anchor="middle" x="93" y="-254" font-family="Helvetica,sans-Serif" font-size="10.00">input_device_interface</text>
</a>
</g>
</g>
<!-- dir_8d1ee3be5d3bd43266cde43195651fe0&#45;&gt;dir_6c970bd3e9ed525c032ca1b33f237f5b -->
<g id="edge11" class="edge">
<title>dir_8d1ee3be5d3bd43266cde43195651fe0&#45;&gt;dir_6c970bd3e9ed525c032ca1b33f237f5b</title>
<path fill="none" stroke="#63b8ff" d="M103.12,-246.59C124.79,-227.53 175.92,-182.54 203.54,-158.24"/>
<polygon fill="#63b8ff" stroke="#63b8ff" points="205.59,-161.1 210.79,-151.86 200.97,-155.84 205.59,-161.1"/>
<g id="a_edge11&#45;headlabel"><a xlink:href="dir_000008_000023.xhtml" target="_top" xlink:title="2">
<text text-anchor="middle" x="205.91" y="-162.1" font-family="Helvetica,sans-Serif" font-size="10.00" fill="#63b8ff">2</text>
</a>
</g>
</g>
<!-- dir_5d3f509552af106634de565dc9d6f33a&#45;&gt;dir_6c970bd3e9ed525c032ca1b33f237f5b -->
<g id="edge12" class="edge">
<title>dir_5d3f509552af106634de565dc9d6f33a&#45;&gt;dir_6c970bd3e9ed525c032ca1b33f237f5b</title>
<path fill="none" stroke="#63b8ff" d="M255.25,-191.87C249.72,-183.57 241.18,-170.78 234.15,-160.22"/>
<polygon fill="#63b8ff" stroke="#63b8ff" points="237.08,-158.31 228.62,-151.93 231.25,-162.19 237.08,-158.31"/>
<g id="a_edge12&#45;headlabel"><a xlink:href="dir_000012_000023.xhtml" target="_top" xlink:title="1">
<text text-anchor="middle" x="240.59" y="-155.96" font-family="Helvetica,sans-Serif" font-size="10.00" fill="#63b8ff">1</text>
</a>
</g>
</g>
<!-- dir_dd038f7b9d5ffa107a6117feec92b6ac -->
<g id="node12" class="node">
<title>dir_dd038f7b9d5ffa107a6117feec92b6ac</title>
<g id="a_node12"><a xlink:href="dir_dd038f7b9d5ffa107a6117feec92b6ac.xhtml" target="_top" xlink:title="status_indicators">
<polygon fill="#a2b4d6" stroke="#404040" points="259.5,-266 168.5,-266 168.5,-247 259.5,-247 259.5,-266"/>
<text text-anchor="middle" x="214" y="-254" font-family="Helvetica,sans-Serif" font-size="10.00">status_indicators</text>
</a>
</g>
</g>
<!-- dir_dd038f7b9d5ffa107a6117feec92b6ac&#45;&gt;dir_6c970bd3e9ed525c032ca1b33f237f5b -->
<g id="edge13" class="edge">
<title>dir_dd038f7b9d5ffa107a6117feec92b6ac&#45;&gt;dir_6c970bd3e9ed525c032ca1b33f237f5b</title>
<path fill="none" stroke="#63b8ff" d="M207.99,-246.67C199.56,-233.13 185.99,-206.48 193,-184 195.76,-175.16 201.09,-166.54 206.45,-159.43"/>
<polygon fill="#63b8ff" stroke="#63b8ff" points="208.93,-161.92 212.56,-151.97 203.51,-157.49 208.93,-161.92"/>
<g id="a_edge13&#45;headlabel"><a xlink:href="dir_000014_000023.xhtml" target="_top" xlink:title="2">
<text text-anchor="middle" x="209.81" y="-162.83" font-family="Helvetica,sans-Serif" font-size="10.00" fill="#63b8ff">2</text>
</a>
</g>
</g>
<!-- dir_71046b38222792489c3876836d4fbdbc -->
<g id="node13" class="node">
<title>dir_71046b38222792489c3876836d4fbdbc</title>
<g id="a_node13"><a xlink:href="dir_71046b38222792489c3876836d4fbdbc.xhtml" target="_top" xlink:title="Package Enterprise Business Rules.">
<polygon fill="#c8d2e7" stroke="#404040" points="120,-332 16,-332 16,-302 120,-302 120,-332"/>
<text text-anchor="start" x="24" y="-320" font-family="Helvetica,sans-Serif" font-size="10.00">enterprise_business</text>
<text text-anchor="middle" x="68" y="-309" font-family="Helvetica,sans-Serif" font-size="10.00">_rules</text>
</a>
</g>
</g>
</g>
</svg>
