<?xml version="1.0" encoding="UTF-8" standalone="no"?>
<!DOCTYPE svg PUBLIC "-//W3C//DTD SVG 1.1//EN"
 "http://www.w3.org/Graphics/SVG/1.1/DTD/svg11.dtd">
<!-- Generated by graphviz version 7.0.5 (20221223.1930)
 -->
<!-- Title: lib/board_adapters/display_interface/display.cpp Pages: 1 -->
<svg width="545pt" height="159pt"
 viewBox="0.00 0.00 544.50 159.00" xmlns="http://www.w3.org/2000/svg" xmlns:xlink="http://www.w3.org/1999/xlink">
<g id="graph0" class="graph" transform="scale(1 1) rotate(0) translate(4 155)">
<title>lib/board_adapters/display_interface/display.cpp</title>
<!-- Node1 -->
<g id="node1" class="node">
<title>Node1</title>
<g id="a_node1"><a xlink:title=" ">
<polygon fill="#999999" stroke="#666666" points="331.5,-151 188.5,-151 188.5,-121 331.5,-121 331.5,-151"/>
<text text-anchor="start" x="196.5" y="-139" font-family="Helvetica,sans-Serif" font-size="10.00">lib/board_adapters</text>
<text text-anchor="middle" x="260" y="-128" font-family="Helvetica,sans-Serif" font-size="10.00">/display_interface/display.cpp</text>
</a>
</g>
</g>
<!-- Node2 -->
<g id="node2" class="node">
<title>Node2</title>
<g id="a_node2"><a xlink:title=" ">
<polygon fill="#e0e0e0" stroke="#999999" points="104,-79.5 0,-79.5 0,-60.5 104,-60.5 104,-79.5"/>
<text text-anchor="middle" x="52" y="-67.5" font-family="Helvetica,sans-Serif" font-size="10.00">Adafruit_SSD1306.h</text>
</a>
</g>
</g>
<!-- Node1&#45;&gt;Node2 -->
<g id="edge1" class="edge">
<title>Node1&#45;&gt;Node2</title>
<path fill="none" stroke="#63b8ff" d="M213.06,-120.56C176.52,-109.31 126.36,-93.88 91.77,-83.24"/>
<polygon fill="#63b8ff" stroke="#63b8ff" points="93.16,-80 82.58,-80.41 91.1,-86.69 93.16,-80"/>
</g>
<!-- Node3 -->
<g id="node3" class="node">
<title>Node3</title>
<g id="a_node3"><a xlink:title=" ">
<polygon fill="#e0e0e0" stroke="#999999" points="179.5,-79.5 122.5,-79.5 122.5,-60.5 179.5,-60.5 179.5,-79.5"/>
<text text-anchor="middle" x="151" y="-67.5" font-family="Helvetica,sans-Serif" font-size="10.00">Arduino.h</text>
</a>
</g>
</g>
<!-- Node1&#45;&gt;Node3 -->
<g id="edge2" class="edge">
<title>Node1&#45;&gt;Node3</title>
<path fill="none" stroke="#63b8ff" d="M235.54,-120.64C217.8,-110.22 193.9,-96.19 176.03,-85.7"/>
<polygon fill="#63b8ff" stroke="#63b8ff" points="178,-82.8 167.61,-80.75 174.46,-88.83 178,-82.8"/>
</g>
<!-- Node4 -->
<g id="node4" class="node">
<title>Node4</title>
<g id="a_node4"><a xlink:title=" ">
<polygon fill="#e0e0e0" stroke="#999999" points="242,-79.5 198,-79.5 198,-60.5 242,-60.5 242,-79.5"/>
<text text-anchor="middle" x="220" y="-67.5" font-family="Helvetica,sans-Serif" font-size="10.00">Wire.h</text>
</a>
</g>
</g>
<!-- Node1&#45;&gt;Node4 -->
<g id="edge3" class="edge">
<title>Node1&#45;&gt;Node4</title>
<path fill="none" stroke="#63b8ff" d="M251.12,-120.8C245.38,-111.6 237.83,-99.53 231.61,-89.58"/>
<polygon fill="#63b8ff" stroke="#63b8ff" points="234.6,-87.75 226.33,-81.13 228.66,-91.46 234.6,-87.75"/>
</g>
<!-- Node5 -->
<g id="node5" class="node">
<title>Node5</title>
<g id="a_node5"><a xlink:href="board__pins_8hpp.xhtml" target="_top" xlink:title="Provides named objects for the pins provided by the board.">
<polygon fill="white" stroke="#666666" points="342,-79.5 260,-79.5 260,-60.5 342,-60.5 342,-79.5"/>
<text text-anchor="middle" x="301" y="-67.5" font-family="Helvetica,sans-Serif" font-size="10.00">board_pins.hpp</text>
</a>
</g>
</g>
<!-- Node1&#45;&gt;Node5 -->
<g id="edge4" class="edge">
<title>Node1&#45;&gt;Node5</title>
<path fill="none" stroke="#63b8ff" d="M269.1,-120.8C275.05,-111.5 282.89,-99.27 289.3,-89.26"/>
<polygon fill="#63b8ff" stroke="#63b8ff" points="292.07,-91.43 294.52,-81.12 286.18,-87.65 292.07,-91.43"/>
</g>
<!-- Node7 -->
<g id="node7" class="node">
<title>Node7</title>
<g id="a_node7"><a xlink:title=" ">
<polygon fill="#e0e0e0" stroke="#999999" points="399.5,-79.5 360.5,-79.5 360.5,-60.5 399.5,-60.5 399.5,-79.5"/>
<text text-anchor="middle" x="380" y="-67.5" font-family="Helvetica,sans-Serif" font-size="10.00">lvgl.h</text>
</a>
</g>
</g>
<!-- Node1&#45;&gt;Node7 -->
<g id="edge6" class="edge">
<title>Node1&#45;&gt;Node7</title>
<path fill="none" stroke="#63b8ff" d="M286.93,-120.64C306.73,-110.08 333.51,-95.79 353.26,-85.26"/>
<polygon fill="#63b8ff" stroke="#63b8ff" points="354.64,-88.49 361.82,-80.7 351.35,-82.32 354.64,-88.49"/>
</g>
<!-- Node8 -->
<g id="node8" class="node">
<title>Node8</title>
<g id="a_node8"><a xlink:href="display__interface_8hpp.xhtml" target="_top" xlink:title=" ">
<polygon fill="white" stroke="#666666" points="536.5,-85 417.5,-85 417.5,-55 536.5,-55 536.5,-85"/>
<text text-anchor="start" x="425.5" y="-73" font-family="Helvetica,sans-Serif" font-size="10.00">user_interaction/display</text>
<text text-anchor="middle" x="477" y="-62" font-family="Helvetica,sans-Serif" font-size="10.00">_interface.hpp</text>
</a>
</g>
</g>
<!-- Node1&#45;&gt;Node8 -->
<g id="edge7" class="edge">
<title>Node1&#45;&gt;Node8</title>
<path fill="none" stroke="#63b8ff" d="M308.97,-120.56C341.12,-111.08 383.36,-98.62 417.45,-88.56"/>
<polygon fill="#63b8ff" stroke="#63b8ff" points="418.16,-92 426.76,-85.82 416.18,-85.29 418.16,-92"/>
</g>
<!-- Node6 -->
<g id="node6" class="node">
<title>Node6</title>
<g id="a_node6"><a xlink:title=" ">
<polygon fill="#e0e0e0" stroke="#999999" points="324,-19 278,-19 278,0 324,0 324,-19"/>
<text text-anchor="middle" x="301" y="-7" font-family="Helvetica,sans-Serif" font-size="10.00">cstdint</text>
</a>
</g>
</g>
<!-- Node5&#45;&gt;Node6 -->
<g id="edge5" class="edge">
<title>Node5&#45;&gt;Node6</title>
<path fill="none" stroke="#63b8ff" d="M301,-60.37C301,-52.5 301,-40.6 301,-30.39"/>
<polygon fill="#63b8ff" stroke="#63b8ff" points="304.5,-30.68 301,-20.68 297.5,-30.68 304.5,-30.68"/>
</g>
</g>
</svg>
