<?xml version="1.0" encoding="UTF-8" standalone="no"?>
<!DOCTYPE svg PUBLIC "-//W3C//DTD SVG 1.1//EN"
 "http://www.w3.org/Graphics/SVG/1.1/DTD/svg11.dtd">
<!-- Generated by graphviz version 9.0.0 (20230911.1827)
 -->
<!-- Title: lib/layer4_drivers_libraries_adapters/src/display_factory_interface.cpp Pages: 1 -->
<svg width="377pt" height="227pt"
 viewBox="0.00 0.00 376.88 226.75" xmlns="http://www.w3.org/2000/svg" xmlns:xlink="http://www.w3.org/1999/xlink">
<g id="graph0" class="graph" transform="scale(1 1) rotate(0) translate(4 222.75)">
<title>lib/layer4_drivers_libraries_adapters/src/display_factory_interface.cpp</title>
<!-- Node1 -->
<g id="Node000001" class="node">
<title>Node1</title>
<g id="a_Node000001"><a xlink:title=" ">
<polygon fill="#999999" stroke="#666666" points="241.62,-218.75 141.62,-218.75 141.62,-165.75 241.62,-165.75 241.62,-218.75"/>
<text text-anchor="start" x="149.62" y="-205.25" font-family="Helvetica,sans-Serif" font-size="10.00">lib/layer4_drivers</text>
<text text-anchor="start" x="149.62" y="-194" font-family="Helvetica,sans-Serif" font-size="10.00">_libraries_adapters</text>
<text text-anchor="start" x="149.62" y="-182.75" font-family="Helvetica,sans-Serif" font-size="10.00">/src/display_factory</text>
<text text-anchor="middle" x="191.62" y="-171.5" font-family="Helvetica,sans-Serif" font-size="10.00">_interface.cpp</text>
</a>
</g>
</g>
<!-- Node2 -->
<g id="Node000002" class="node">
<title>Node2</title>
<g id="a_Node000002"><a xlink:href="display__factory__interface_8hpp.xhtml" target="_top" xlink:title=" ">
<polygon fill="white" stroke="#666666" points="141.25,-129.75 0,-129.75 0,-110.5 141.25,-110.5 141.25,-129.75"/>
<text text-anchor="middle" x="70.62" y="-116.25" font-family="Helvetica,sans-Serif" font-size="10.00">display_factory_interface.hpp</text>
</a>
</g>
</g>
<!-- Node1&#45;&gt;Node2 -->
<g id="edge1_Node000001_Node000002" class="edge">
<title>Node1&#45;&gt;Node2</title>
<g id="a_edge1_Node000001_Node000002"><a xlink:title=" ">
<path fill="none" stroke="#63b8ff" d="M146.91,-165.34C129.79,-155.42 110.86,-144.44 96.14,-135.91"/>
<polygon fill="#63b8ff" stroke="#63b8ff" points="97.97,-132.93 87.56,-130.94 94.46,-138.98 97.97,-132.93"/>
</a>
</g>
</g>
<!-- Node4 -->
<g id="Node000004" class="node">
<title>Node4</title>
<g id="a_Node000004"><a xlink:href="Display_8hpp.xhtml" target="_top" xlink:title=" ">
<polygon fill="white" stroke="#666666" points="224.38,-129.75 158.88,-129.75 158.88,-110.5 224.38,-110.5 224.38,-129.75"/>
<text text-anchor="middle" x="191.62" y="-116.25" font-family="Helvetica,sans-Serif" font-size="10.00">Display.hpp</text>
</a>
</g>
</g>
<!-- Node1&#45;&gt;Node4 -->
<g id="edge3_Node000001_Node000004" class="edge">
<title>Node1&#45;&gt;Node4</title>
<g id="a_edge3_Node000001_Node000004"><a xlink:title=" ">
<path fill="none" stroke="#63b8ff" d="M191.62,-165.54C191.62,-157.62 191.62,-149.02 191.62,-141.52"/>
<polygon fill="#63b8ff" stroke="#63b8ff" points="195.13,-141.75 191.63,-131.75 188.13,-141.75 195.13,-141.75"/>
</a>
</g>
</g>
<!-- Node7 -->
<g id="Node000007" class="node">
<title>Node7</title>
<g id="a_Node000007"><a xlink:href="board__config_8hpp.xhtml" target="_top" xlink:title="Provides named objects for the pins provided by the board.">
<polygon fill="white" stroke="#666666" points="350,-129.75 261.25,-129.75 261.25,-110.5 350,-110.5 350,-129.75"/>
<text text-anchor="middle" x="305.62" y="-116.25" font-family="Helvetica,sans-Serif" font-size="10.00">board_config.hpp</text>
</a>
</g>
</g>
<!-- Node1&#45;&gt;Node7 -->
<g id="edge7_Node000001_Node000007" class="edge">
<title>Node1&#45;&gt;Node7</title>
<g id="a_edge7_Node000001_Node000007"><a xlink:title=" ">
<path fill="none" stroke="#63b8ff" d="M233.75,-165.34C249.72,-155.51 267.37,-144.66 281.18,-136.16"/>
<polygon fill="#63b8ff" stroke="#63b8ff" points="282.93,-139.2 289.61,-130.97 279.26,-133.23 282.93,-139.2"/>
</a>
</g>
</g>
<!-- Node3 -->
<g id="Node000003" class="node">
<title>Node3</title>
<g id="a_Node000003"><a xlink:href="IDisplay_8hpp.xhtml" target="_top" xlink:title=" ">
<polygon fill="white" stroke="#666666" points="104.88,-74.5 36.38,-74.5 36.38,-55.25 104.88,-55.25 104.88,-74.5"/>
<text text-anchor="middle" x="70.62" y="-61" font-family="Helvetica,sans-Serif" font-size="10.00">IDisplay.hpp</text>
</a>
</g>
</g>
<!-- Node2&#45;&gt;Node3 -->
<g id="edge2_Node000002_Node000003" class="edge">
<title>Node2&#45;&gt;Node3</title>
<g id="a_edge2_Node000002_Node000003"><a xlink:title=" ">
<path fill="none" stroke="#63b8ff" d="M70.62,-110.33C70.62,-103.82 70.62,-94.67 70.62,-86.37"/>
<polygon fill="#63b8ff" stroke="#63b8ff" points="74.13,-86.37 70.63,-76.37 67.13,-86.37 74.13,-86.37"/>
</a>
</g>
</g>
<!-- Node4&#45;&gt;Node3 -->
<g id="edge4_Node000004_Node000003" class="edge">
<title>Node4&#45;&gt;Node3</title>
<g id="a_edge4_Node000004_Node000003"><a xlink:title=" ">
<path fill="none" stroke="#63b8ff" d="M171.1,-110.09C152.06,-101.72 123.47,-89.13 101.65,-79.53"/>
<polygon fill="#63b8ff" stroke="#63b8ff" points="103.2,-76.39 92.64,-75.56 100.38,-82.79 103.2,-76.39"/>
</a>
</g>
</g>
<!-- Node5 -->
<g id="Node000005" class="node">
<title>Node5</title>
<g id="a_Node000005"><a xlink:title=" ">
<polygon fill="#e0e0e0" stroke="#999999" points="226.5,-74.5 122.75,-74.5 122.75,-55.25 226.5,-55.25 226.5,-74.5"/>
<text text-anchor="middle" x="174.62" y="-61" font-family="Helvetica,sans-Serif" font-size="10.00">Adafruit_SSD1306.h</text>
</a>
</g>
</g>
<!-- Node4&#45;&gt;Node5 -->
<g id="edge5_Node000004_Node000005" class="edge">
<title>Node4&#45;&gt;Node5</title>
<g id="a_edge5_Node000004_Node000005"><a xlink:title=" ">
<path fill="none" stroke="#63b8ff" d="M188.82,-110.33C186.69,-103.67 183.68,-94.24 180.98,-85.78"/>
<polygon fill="#63b8ff" stroke="#63b8ff" points="184.33,-84.76 177.95,-76.3 177.66,-86.89 184.33,-84.76"/>
</a>
</g>
</g>
<!-- Node6 -->
<g id="Node000006" class="node">
<title>Node6</title>
<g id="a_Node000006"><a xlink:title=" ">
<polygon fill="#e0e0e0" stroke="#999999" points="312.25,-19.25 267,-19.25 267,0 312.25,0 312.25,-19.25"/>
<text text-anchor="middle" x="289.62" y="-5.75" font-family="Helvetica,sans-Serif" font-size="10.00">cstdint</text>
</a>
</g>
</g>
<!-- Node4&#45;&gt;Node6 -->
<g id="edge6_Node000004_Node000006" class="edge">
<title>Node4&#45;&gt;Node6</title>
<g id="a_edge6_Node000004_Node000006"><a xlink:title=" ">
<path fill="none" stroke="#63b8ff" d="M200.94,-110.09C209.99,-101.22 224.03,-87.19 235.62,-74.5 249.51,-59.29 264.59,-41.33 275.27,-28.33"/>
<polygon fill="#63b8ff" stroke="#63b8ff" points="277.92,-30.62 281.54,-20.66 272.5,-26.19 277.92,-30.62"/>
</a>
</g>
</g>
<!-- Node8 -->
<g id="Node000008" class="node">
<title>Node8</title>
<g id="a_Node000008"><a xlink:href="board__types_8hpp.xhtml" target="_top" xlink:title=" ">
<polygon fill="white" stroke="#666666" points="368.88,-74.5 282.38,-74.5 282.38,-55.25 368.88,-55.25 368.88,-74.5"/>
<text text-anchor="middle" x="325.62" y="-61" font-family="Helvetica,sans-Serif" font-size="10.00">board_types.hpp</text>
</a>
</g>
</g>
<!-- Node7&#45;&gt;Node8 -->
<g id="edge8_Node000007_Node000008" class="edge">
<title>Node7&#45;&gt;Node8</title>
<g id="a_edge8_Node000007_Node000008"><a xlink:title=" ">
<path fill="none" stroke="#63b8ff" d="M308.93,-110.33C311.46,-103.59 315.05,-94.02 318.26,-85.49"/>
<polygon fill="#63b8ff" stroke="#63b8ff" points="321.48,-86.87 321.72,-76.28 314.93,-84.41 321.48,-86.87"/>
</a>
</g>
</g>
<!-- Node8&#45;&gt;Node6 -->
<g id="edge9_Node000008_Node000006" class="edge">
<title>Node8&#45;&gt;Node6</title>
<g id="a_edge9_Node000008_Node000006"><a xlink:title=" ">
<path fill="none" stroke="#63b8ff" d="M319.68,-55.08C314.91,-48.03 308.06,-37.9 302.1,-29.08"/>
<polygon fill="#63b8ff" stroke="#63b8ff" points="305.05,-27.19 296.55,-20.86 299.25,-31.11 305.05,-27.19"/>
</a>
</g>
</g>
</g>
</svg>
