<?xml version="1.0" encoding="UTF-8" standalone="no"?>
<!DOCTYPE svg PUBLIC "-//W3C//DTD SVG 1.1//EN"
 "http://www.w3.org/Graphics/SVG/1.1/DTD/svg11.dtd">
<!-- Generated by graphviz version 7.0.5 (20221223.1930)
 -->
<!-- Title: lib/3rd_party_adapters/LVGL/display_factory_interface.cpp Pages: 1 -->
<svg width="541pt" height="225pt"
 viewBox="0.00 0.00 540.50 225.00" xmlns="http://www.w3.org/2000/svg" xmlns:xlink="http://www.w3.org/1999/xlink">
<g id="graph0" class="graph" transform="scale(1 1) rotate(0) translate(4 221)">
<title>lib/3rd_party_adapters/LVGL/display_factory_interface.cpp</title>
<!-- Node1 -->
<g id="node1" class="node">
<title>Node1</title>
<g id="a_node1"><a xlink:title=" ">
<polygon fill="#999999" stroke="#666666" points="369.5,-217 256.5,-217 256.5,-176 369.5,-176 369.5,-217"/>
<text text-anchor="start" x="264.5" y="-205" font-family="Helvetica,sans-Serif" font-size="10.00">lib/3rd_party_adapters</text>
<text text-anchor="start" x="264.5" y="-194" font-family="Helvetica,sans-Serif" font-size="10.00">/LVGL/display_factory</text>
<text text-anchor="middle" x="313" y="-183" font-family="Helvetica,sans-Serif" font-size="10.00">_interface.cpp</text>
</a>
</g>
</g>
<!-- Node2 -->
<g id="node2" class="node">
<title>Node2</title>
<g id="a_node2"><a xlink:href="Display_8hpp.xhtml" target="_top" xlink:title=" ">
<polygon fill="white" stroke="#666666" points="213,-134.5 147,-134.5 147,-115.5 213,-115.5 213,-134.5"/>
<text text-anchor="middle" x="180" y="-122.5" font-family="Helvetica,sans-Serif" font-size="10.00">Display.hpp</text>
</a>
</g>
</g>
<!-- Node1&#45;&gt;Node2 -->
<g id="edge1" class="edge">
<title>Node1&#45;&gt;Node2</title>
<path fill="none" stroke="#63b8ff" d="M274.89,-175.58C253.26,-164.28 226.69,-150.4 207.18,-140.2"/>
<polygon fill="#63b8ff" stroke="#63b8ff" points="208.96,-137.18 198.48,-135.66 205.72,-143.39 208.96,-137.18"/>
</g>
<!-- Node8 -->
<g id="node8" class="node">
<title>Node8</title>
<g id="a_node8"><a xlink:title=" ">
<polygon fill="#e0e0e0" stroke="#999999" points="288.5,-134.5 231.5,-134.5 231.5,-115.5 288.5,-115.5 288.5,-134.5"/>
<text text-anchor="middle" x="260" y="-122.5" font-family="Helvetica,sans-Serif" font-size="10.00">Arduino.h</text>
</a>
</g>
</g>
<!-- Node1&#45;&gt;Node8 -->
<g id="edge7" class="edge">
<title>Node1&#45;&gt;Node8</title>
<path fill="none" stroke="#63b8ff" d="M297.95,-175.77C290.32,-165.76 281.12,-153.7 273.69,-143.95"/>
<polygon fill="#63b8ff" stroke="#63b8ff" points="276.49,-141.85 267.64,-136.02 270.92,-146.1 276.49,-141.85"/>
</g>
<!-- Node9 -->
<g id="node9" class="node">
<title>Node9</title>
<g id="a_node9"><a xlink:href="board__pins_8hpp.xhtml" target="_top" xlink:title="Provides named objects for the pins provided by the board.">
<polygon fill="white" stroke="#666666" points="528,-134.5 446,-134.5 446,-115.5 528,-115.5 528,-134.5"/>
<text text-anchor="middle" x="487" y="-122.5" font-family="Helvetica,sans-Serif" font-size="10.00">board_pins.hpp</text>
</a>
</g>
</g>
<!-- Node1&#45;&gt;Node9 -->
<g id="edge8" class="edge">
<title>Node1&#45;&gt;Node9</title>
<path fill="none" stroke="#63b8ff" d="M362.86,-175.58C392.08,-163.91 428.18,-149.5 453.9,-139.22"/>
<polygon fill="#63b8ff" stroke="#63b8ff" points="455.19,-142.48 463.18,-135.52 452.59,-135.97 455.19,-142.48"/>
</g>
<!-- Node11 -->
<g id="node11" class="node">
<title>Node11</title>
<g id="a_node11"><a xlink:href="display__factory__interface_8hpp.xhtml" target="_top" xlink:title="Dependency injection for the display.">
<polygon fill="white" stroke="#666666" points="425.5,-140 306.5,-140 306.5,-110 425.5,-110 425.5,-140"/>
<text text-anchor="start" x="314.5" y="-128" font-family="Helvetica,sans-Serif" font-size="10.00">user_interaction/display</text>
<text text-anchor="middle" x="366" y="-117" font-family="Helvetica,sans-Serif" font-size="10.00">_factory_interface.hpp</text>
</a>
</g>
</g>
<!-- Node1&#45;&gt;Node11 -->
<g id="edge11" class="edge">
<title>Node1&#45;&gt;Node11</title>
<path fill="none" stroke="#63b8ff" d="M328.05,-175.77C334.27,-167.61 341.54,-158.07 348.04,-149.55"/>
<polygon fill="#63b8ff" stroke="#63b8ff" points="350.76,-151.75 354.04,-141.68 345.2,-147.51 350.76,-151.75"/>
</g>
<!-- Node3 -->
<g id="node3" class="node">
<title>Node3</title>
<g id="a_node3"><a xlink:title=" ">
<polygon fill="#e0e0e0" stroke="#999999" points="104,-74 0,-74 0,-55 104,-55 104,-74"/>
<text text-anchor="middle" x="52" y="-62" font-family="Helvetica,sans-Serif" font-size="10.00">Adafruit_SSD1306.h</text>
</a>
</g>
</g>
<!-- Node2&#45;&gt;Node3 -->
<g id="edge2" class="edge">
<title>Node2&#45;&gt;Node3</title>
<path fill="none" stroke="#63b8ff" d="M160.56,-115.12C139.7,-105.58 106.29,-90.31 82.04,-79.23"/>
<polygon fill="#63b8ff" stroke="#63b8ff" points="83.55,-76.07 73,-75.1 80.64,-82.44 83.55,-76.07"/>
</g>
<!-- Node4 -->
<g id="node4" class="node">
<title>Node4</title>
<g id="a_node4"><a xlink:title=" ">
<polygon fill="#e0e0e0" stroke="#999999" points="333,-19 287,-19 287,0 333,0 333,-19"/>
<text text-anchor="middle" x="310" y="-7" font-family="Helvetica,sans-Serif" font-size="10.00">cstdint</text>
</a>
</g>
</g>
<!-- Node2&#45;&gt;Node4 -->
<g id="edge3" class="edge">
<title>Node2&#45;&gt;Node4</title>
<path fill="none" stroke="#63b8ff" d="M170.98,-115.22C157.85,-101.36 136.55,-74.05 151,-55 166,-35.22 233.5,-21.83 275.58,-15.25"/>
<polygon fill="#63b8ff" stroke="#63b8ff" points="275.85,-18.75 285.21,-13.79 274.8,-11.82 275.85,-18.75"/>
</g>
<!-- Node5 -->
<g id="node5" class="node">
<title>Node5</title>
<g id="a_node5"><a xlink:title=" ">
<polygon fill="#e0e0e0" stroke="#999999" points="199.5,-74 160.5,-74 160.5,-55 199.5,-55 199.5,-74"/>
<text text-anchor="middle" x="180" y="-62" font-family="Helvetica,sans-Serif" font-size="10.00">lvgl.h</text>
</a>
</g>
</g>
<!-- Node2&#45;&gt;Node5 -->
<g id="edge4" class="edge">
<title>Node2&#45;&gt;Node5</title>
<path fill="none" stroke="#63b8ff" d="M180,-115.37C180,-107.5 180,-95.6 180,-85.39"/>
<polygon fill="#63b8ff" stroke="#63b8ff" points="183.5,-85.68 180,-75.68 176.5,-85.68 183.5,-85.68"/>
</g>
<!-- Node6 -->
<g id="node6" class="node">
<title>Node6</title>
<g id="a_node6"><a xlink:title=" ">
<polygon fill="#e0e0e0" stroke="#999999" points="268.5,-74 217.5,-74 217.5,-55 268.5,-55 268.5,-74"/>
<text text-anchor="middle" x="243" y="-62" font-family="Helvetica,sans-Serif" font-size="10.00">memory</text>
</a>
</g>
</g>
<!-- Node2&#45;&gt;Node6 -->
<g id="edge5" class="edge">
<title>Node2&#45;&gt;Node6</title>
<path fill="none" stroke="#63b8ff" d="M189.57,-115.12C199,-106.35 213.65,-92.75 225.23,-82"/>
<polygon fill="#63b8ff" stroke="#63b8ff" points="227.29,-84.87 232.23,-75.5 222.52,-79.74 227.29,-84.87"/>
</g>
<!-- Node7 -->
<g id="node7" class="node">
<title>Node7</title>
<g id="a_node7"><a xlink:href="IDisplay_8hpp.xhtml" target="_top" xlink:title=" ">
<polygon fill="white" stroke="#666666" points="427.5,-74 286.5,-74 286.5,-55 427.5,-55 427.5,-74"/>
<text text-anchor="middle" x="357" y="-62" font-family="Helvetica,sans-Serif" font-size="10.00">user_interaction/IDisplay.hpp</text>
</a>
</g>
</g>
<!-- Node2&#45;&gt;Node7 -->
<g id="edge6" class="edge">
<title>Node2&#45;&gt;Node7</title>
<path fill="none" stroke="#63b8ff" d="M206.66,-115.1C211.75,-113.4 217.04,-111.64 222,-110 254.69,-99.16 291.86,-86.92 318.91,-78.02"/>
<polygon fill="#63b8ff" stroke="#63b8ff" points="320,-81.35 328.4,-74.9 317.81,-74.7 320,-81.35"/>
</g>
<!-- Node10 -->
<g id="node10" class="node">
<title>Node10</title>
<g id="a_node10"><a xlink:href="board__types_8hpp.xhtml" target="_top" xlink:title=" ">
<polygon fill="white" stroke="#666666" points="532.5,-74 445.5,-74 445.5,-55 532.5,-55 532.5,-74"/>
<text text-anchor="middle" x="489" y="-62" font-family="Helvetica,sans-Serif" font-size="10.00">board_types.hpp</text>
</a>
</g>
</g>
<!-- Node9&#45;&gt;Node10 -->
<g id="edge9" class="edge">
<title>Node9&#45;&gt;Node10</title>
<path fill="none" stroke="#63b8ff" d="M487.3,-115.37C487.56,-107.5 487.97,-95.6 488.32,-85.39"/>
<polygon fill="#63b8ff" stroke="#63b8ff" points="491.81,-85.79 488.65,-75.68 484.81,-85.55 491.81,-85.79"/>
</g>
<!-- Node10&#45;&gt;Node4 -->
<g id="edge10" class="edge">
<title>Node10&#45;&gt;Node4</title>
<path fill="none" stroke="#63b8ff" d="M458.64,-54.51C426.96,-45.13 377.4,-30.46 344.32,-20.66"/>
<polygon fill="#63b8ff" stroke="#63b8ff" points="345.4,-17.33 334.82,-17.85 343.41,-24.04 345.4,-17.33"/>
</g>
<!-- Node11&#45;&gt;Node7 -->
<g id="edge12" class="edge">
<title>Node11&#45;&gt;Node7</title>
<path fill="none" stroke="#63b8ff" d="M363.78,-109.54C362.65,-102.26 361.28,-93.31 360.06,-85.39"/>
<polygon fill="#63b8ff" stroke="#63b8ff" points="363.54,-85.02 358.56,-75.67 356.63,-86.09 363.54,-85.02"/>
</g>
</g>
</svg>
