<?xml version="1.0" encoding="UTF-8" standalone="no"?>
<!DOCTYPE svg PUBLIC "-//W3C//DTD SVG 1.1//EN"
 "http://www.w3.org/Graphics/SVG/1.1/DTD/svg11.dtd">
<!-- Generated by graphviz version 9.0.0 (20230911.1827)
 -->
<!-- Title: lib/layer4_drivers_libraries_adapters/src/Display.cpp Pages: 1 -->
<svg width="278pt" height="160pt"
 viewBox="0.00 0.00 278.38 160.25" xmlns="http://www.w3.org/2000/svg" xmlns:xlink="http://www.w3.org/1999/xlink">
<g id="graph0" class="graph" transform="scale(1 1) rotate(0) translate(4 156.25)">
<title>lib/layer4_drivers_libraries_adapters/src/Display.cpp</title>
<!-- Node1 -->
<g id="Node000001" class="node">
<title>Node1</title>
<g id="a_Node000001"><a xlink:title=" ">
<polygon fill="#999999" stroke="#666666" points="243.12,-152.25 145.38,-152.25 145.38,-110.5 243.12,-110.5 243.12,-152.25"/>
<text text-anchor="start" x="153.38" y="-138.75" font-family="Helvetica,sans-Serif" font-size="10.00">lib/layer4_drivers</text>
<text text-anchor="start" x="153.38" y="-127.5" font-family="Helvetica,sans-Serif" font-size="10.00">_libraries_adapters</text>
<text text-anchor="middle" x="194.25" y="-116.25" font-family="Helvetica,sans-Serif" font-size="10.00">/src/Display.cpp</text>
</a>
</g>
</g>
<!-- Node2 -->
<g id="Node000002" class="node">
<title>Node2</title>
<g id="a_Node000002"><a xlink:href="Display_8hpp.xhtml" target="_top" xlink:title=" ">
<polygon fill="white" stroke="#666666" points="158,-74.5 92.5,-74.5 92.5,-55.25 158,-55.25 158,-74.5"/>
<text text-anchor="middle" x="125.25" y="-61" font-family="Helvetica,sans-Serif" font-size="10.00">Display.hpp</text>
</a>
</g>
</g>
<!-- Node1&#45;&gt;Node2 -->
<g id="edge1_Node000001_Node000002" class="edge">
<title>Node1&#45;&gt;Node2</title>
<g id="a_edge1_Node000001_Node000002"><a xlink:title=" ">
<path fill="none" stroke="#63b8ff" d="M172.8,-110.32C163.3,-101.44 152.26,-91.12 143.21,-82.66"/>
<polygon fill="#63b8ff" stroke="#63b8ff" points="145.75,-80.25 136.06,-75.98 140.97,-85.36 145.75,-80.25"/>
</a>
</g>
</g>
<!-- Node4 -->
<g id="Node000004" class="node">
<title>Node4</title>
<g id="a_Node000004"><a xlink:title=" ">
<polygon fill="#e0e0e0" stroke="#999999" points="254.12,-19.25 150.38,-19.25 150.38,0 254.12,0 254.12,-19.25"/>
<text text-anchor="middle" x="202.25" y="-5.75" font-family="Helvetica,sans-Serif" font-size="10.00">Adafruit_SSD1306.h</text>
</a>
</g>
</g>
<!-- Node1&#45;&gt;Node4 -->
<g id="edge5_Node000001_Node000004" class="edge">
<title>Node1&#45;&gt;Node4</title>
<g id="a_edge5_Node000001_Node000004"><a xlink:title=" ">
<path fill="none" stroke="#63b8ff" d="M195.61,-110.06C197.08,-87.97 199.43,-52.88 200.9,-30.83"/>
<polygon fill="#63b8ff" stroke="#63b8ff" points="204.38,-31.28 201.55,-21.07 197.39,-30.81 204.38,-31.28"/>
</a>
</g>
</g>
<!-- Node6 -->
<g id="Node000006" class="node">
<title>Node6</title>
<g id="a_Node000006"><a xlink:title=" ">
<polygon fill="#e0e0e0" stroke="#999999" points="270.38,-74.5 222.12,-74.5 222.12,-55.25 270.38,-55.25 270.38,-74.5"/>
<text text-anchor="middle" x="246.25" y="-61" font-family="Helvetica,sans-Serif" font-size="10.00">cassert</text>
</a>
</g>
</g>
<!-- Node1&#45;&gt;Node6 -->
<g id="edge6_Node000001_Node000006" class="edge">
<title>Node1&#45;&gt;Node6</title>
<g id="a_edge6_Node000001_Node000006"><a xlink:title=" ">
<path fill="none" stroke="#63b8ff" d="M210.42,-110.32C217.28,-101.81 225.2,-91.98 231.85,-83.73"/>
<polygon fill="#63b8ff" stroke="#63b8ff" points="234.44,-86.11 237.99,-76.12 228.99,-81.71 234.44,-86.11"/>
</a>
</g>
</g>
<!-- Node3 -->
<g id="Node000003" class="node">
<title>Node3</title>
<g id="a_Node000003"><a xlink:href="IDisplay_8hpp.xhtml" target="_top" xlink:title=" ">
<polygon fill="white" stroke="#666666" points="68.5,-19.25 0,-19.25 0,0 68.5,0 68.5,-19.25"/>
<text text-anchor="middle" x="34.25" y="-5.75" font-family="Helvetica,sans-Serif" font-size="10.00">IDisplay.hpp</text>
</a>
</g>
</g>
<!-- Node2&#45;&gt;Node3 -->
<g id="edge2_Node000002_Node000003" class="edge">
<title>Node2&#45;&gt;Node3</title>
<g id="a_edge2_Node000002_Node000003"><a xlink:title=" ">
<path fill="none" stroke="#63b8ff" d="M109.81,-54.84C96.09,-46.81 75.75,-34.91 59.63,-25.48"/>
<polygon fill="#63b8ff" stroke="#63b8ff" points="61.47,-22.5 51.07,-20.47 57.93,-28.54 61.47,-22.5"/>
</a>
</g>
</g>
<!-- Node2&#45;&gt;Node4 -->
<g id="edge3_Node000002_Node000004" class="edge">
<title>Node2&#45;&gt;Node4</title>
<g id="a_edge3_Node000002_Node000004"><a xlink:title=" ">
<path fill="none" stroke="#63b8ff" d="M138.31,-54.84C149.71,-46.96 166.48,-35.36 179.99,-26.02"/>
<polygon fill="#63b8ff" stroke="#63b8ff" points="181.65,-29.13 187.88,-20.56 177.66,-23.37 181.65,-29.13"/>
</a>
</g>
</g>
<!-- Node5 -->
<g id="Node000005" class="node">
<title>Node5</title>
<g id="a_Node000005"><a xlink:title=" ">
<polygon fill="#e0e0e0" stroke="#999999" points="131.88,-19.25 86.62,-19.25 86.62,0 131.88,0 131.88,-19.25"/>
<text text-anchor="middle" x="109.25" y="-5.75" font-family="Helvetica,sans-Serif" font-size="10.00">cstdint</text>
</a>
</g>
</g>
<!-- Node2&#45;&gt;Node5 -->
<g id="edge4_Node000002_Node000005" class="edge">
<title>Node2&#45;&gt;Node5</title>
<g id="a_edge4_Node000002_Node000005"><a xlink:title=" ">
<path fill="none" stroke="#63b8ff" d="M122.61,-55.08C120.61,-48.42 117.77,-38.99 115.23,-30.53"/>
<polygon fill="#63b8ff" stroke="#63b8ff" points="118.61,-29.63 112.39,-21.06 111.91,-31.64 118.61,-29.63"/>
</a>
</g>
</g>
</g>
</svg>
