<?xml version="1.0" encoding="UTF-8" standalone="no"?>
<!DOCTYPE svg PUBLIC "-//W3C//DTD SVG 1.1//EN"
 "http://www.w3.org/Graphics/SVG/1.1/DTD/svg11.dtd">
<!-- Generated by graphviz version 7.0.5 (20221223.1930)
 -->
<!-- Title: component_architecture Pages: 1 -->
<svg width="548pt" height="611pt"
 viewBox="0.00 0.00 548.00 611.07" xmlns="http://www.w3.org/2000/svg" xmlns:xlink="http://www.w3.org/1999/xlink">
<g id="graph0" class="graph" transform="scale(1 1) rotate(0) translate(4 607.07)">
<title>component_architecture</title>
<polygon fill="white" stroke="none" points="-4,4 -4,-607.07 544,-607.07 544,4 -4,4"/>
<g id="clust2" class="cluster">
<title>cluster_app</title>
<g id="a_clust2"><a xlink:href="application_business_rules.xhtml#application_business_rules" target="_top" xlink:title="application business rules">
<polygon fill="none" stroke="black" stroke-width="2" points="210,-302 210,-491 524.5,-491 524.5,-302 210,-302"/>
<text text-anchor="middle" x="367.25" y="-475.8" font-family="Times,serif" font-size="14.00">application business rules</text>
</a>
</g>
</g>
<g id="clust4" class="cluster">
<title>cluster_util</title>
<g id="a_clust4"><a xlink:href="utilities.xhtml#utilities" target="_top" xlink:title="utilities">
<polygon fill="none" stroke="black" stroke-width="2" points="8,-191 8,-322 182,-322 182,-191 8,-191"/>
<text text-anchor="middle" x="95" y="-306.8" font-family="Times,serif" font-size="14.00">utilities</text>
</a>
</g>
</g>
<g id="clust6" class="cluster">
<title>cluster_ebr</title>
<g id="a_clust6"><a xlink:href="enterprise_business_rules.xhtml#enterprise_business_rules" target="_top" xlink:title="enterprise business rules">
<polygon fill="none" stroke="black" stroke-width="2" points="202,-499 202,-574 351,-574 351,-499 202,-499"/>
<text text-anchor="middle" x="276.5" y="-558.8" font-family="Times,serif" font-size="14.00">enterprise business rules</text>
</a>
</g>
</g>
<g id="clust8" class="cluster">
<title>cluster_thirdparty</title>
<polygon fill="none" stroke="black" stroke-width="2" stroke-dasharray="5,2" points="10,-8 10,-161 324,-161 324,-8 10,-8"/>
<text text-anchor="middle" x="167" y="-145.8" font-family="Times,serif" font-size="14.00">frameworks and libraries</text>
</g>
<g id="clust10" class="cluster">
<title>cluster_ia</title>
<g id="a_clust10"><a xlink:href="third_party_adapters.xhtml#third_party_adapters" target="_top" xlink:title="3rd party adapters">
<polygon fill="none" stroke="black" stroke-width="2" points="392.5,-114 392.5,-189 518.5,-189 518.5,-114 392.5,-114"/>
<text text-anchor="middle" x="455.5" y="-173.8" font-family="Times,serif" font-size="14.00">3rd party adapters</text>
</a>
</g>
</g>
<g id="clust12" class="cluster">
<title>cluster_board</title>
<g id="a_clust12"><a xlink:href="board_adapters.xhtml#board_adapters" target="_top" xlink:title="board adapters">
<polygon fill="none" stroke="black" stroke-width="2" points="212.5,-197 212.5,-294 532,-294 532,-197 212.5,-197"/>
<text text-anchor="middle" x="372.25" y="-278.8" font-family="Times,serif" font-size="14.00">board adapters</text>
</a>
</g>
</g>
<!-- app -->
<!-- helpers -->
<g id="node6" class="node">
<title>helpers</title>
<polygon fill="#ffffcc" stroke="black" points="123,-291 67,-291 67,-287 63,-287 63,-283 67,-283 67,-263 63,-263 63,-259 67,-259 67,-255 123,-255 123,-291"/>
<polyline fill="none" stroke="black" points="67,-287 71,-287 71,-283 67,-283"/>
<polyline fill="none" stroke="black" points="67,-263 71,-263 71,-259 67,-259"/>
<text text-anchor="middle" x="95" y="-269.3" font-family="Times,serif" font-size="14.00">helpers</text>
</g>
<!-- app&#45;&gt;helpers -->
<!-- output_boundaries -->
<g id="node2" class="node">
<title>output_boundaries</title>
<polygon fill="#b3cde3" stroke="black" points="336,-404 218,-404 218,-400 214,-400 214,-396 218,-396 218,-374 214,-374 214,-370 218,-370 218,-366 336,-366 336,-404"/>
<polyline fill="none" stroke="black" points="218,-400 222,-400 222,-396 218,-396"/>
<polyline fill="none" stroke="black" points="218,-374 222,-374 222,-370 218,-370"/>
<text text-anchor="middle" x="277" y="-388.8" font-family="Times,serif" font-size="14.00">«interface»</text>
<text text-anchor="middle" x="277" y="-373.8" font-family="Times,serif" font-size="14.00"> output boundaries</text>
</g>
<!-- use_cases -->
<g id="node3" class="node">
<title>use_cases</title>
<polygon fill="#b3cde3" stroke="black" points="516.5,-420 394.5,-420 394.5,-416 390.5,-416 390.5,-412 394.5,-412 394.5,-392 390.5,-392 390.5,-388 394.5,-388 394.5,-384 516.5,-384 516.5,-420"/>
<polyline fill="none" stroke="black" points="394.5,-416 398.5,-416 398.5,-412 394.5,-412"/>
<polyline fill="none" stroke="black" points="394.5,-392 398.5,-392 398.5,-388 394.5,-388"/>
<text text-anchor="middle" x="455.5" y="-398.3" font-family="Times,serif" font-size="14.00">use case interactors</text>
</g>
<!-- use_cases&#45;&gt;output_boundaries -->
<g id="edge2" class="edge">
<title>use_cases&#45;&gt;output_boundaries</title>
<path fill="none" stroke="black" stroke-dasharray="5,2" d="M394.25,-396.2C378.79,-394.71 362.04,-393.09 346.21,-391.57"/>
<polygon fill="black" stroke="black" points="336.48,-390.63 346.87,-387.11 341.46,-391.11 346.44,-391.59 346.44,-391.59 346.44,-391.59 341.46,-391.11 346.01,-396.07 336.48,-390.63 336.48,-390.63"/>
</g>
<!-- input_boundaries -->
<g id="node4" class="node">
<title>input_boundaries</title>
<polygon fill="#b3cde3" stroke="black" points="332.5,-460 221.5,-460 221.5,-456 217.5,-456 217.5,-452 221.5,-452 221.5,-430 217.5,-430 217.5,-426 221.5,-426 221.5,-422 332.5,-422 332.5,-460"/>
<polyline fill="none" stroke="black" points="221.5,-456 225.5,-456 225.5,-452 221.5,-452"/>
<polyline fill="none" stroke="black" points="221.5,-430 225.5,-430 225.5,-426 221.5,-426"/>
<text text-anchor="middle" x="277" y="-444.8" font-family="Times,serif" font-size="14.00">«interface»</text>
<text text-anchor="middle" x="277" y="-429.8" font-family="Times,serif" font-size="14.00"> input boundaries</text>
</g>
<!-- use_cases&#45;&gt;input_boundaries -->
<g id="edge13" class="edge">
<title>use_cases&#45;&gt;input_boundaries</title>
<path fill="none" stroke="black" stroke-dasharray="5,2" d="M394.25,-415.31C378.11,-418.88 360.56,-422.76 344.12,-426.39"/>
<polygon fill="none" stroke="black" points="343.42,-422.96 334.42,-428.53 344.94,-429.79 343.42,-422.96"/>
</g>
<!-- data_interface -->
<g id="node5" class="node">
<title>data_interface</title>
<polygon fill="#b3cde3" stroke="black" points="322.5,-348 231.5,-348 231.5,-344 227.5,-344 227.5,-340 231.5,-340 231.5,-318 227.5,-318 227.5,-314 231.5,-314 231.5,-310 322.5,-310 322.5,-348"/>
<polyline fill="none" stroke="black" points="231.5,-344 235.5,-344 235.5,-340 231.5,-340"/>
<polyline fill="none" stroke="black" points="231.5,-318 235.5,-318 235.5,-314 231.5,-314"/>
<text text-anchor="middle" x="277" y="-332.8" font-family="Times,serif" font-size="14.00">«interface»</text>
<text text-anchor="middle" x="277" y="-317.8" font-family="Times,serif" font-size="14.00"> data gateway</text>
</g>
<!-- use_cases&#45;&gt;data_interface -->
<g id="edge5" class="edge">
<title>use_cases&#45;&gt;data_interface</title>
<path fill="none" stroke="black" stroke-dasharray="5,2" d="M413.38,-383.63C394.46,-375.3 371.67,-365.45 351,-357 344.92,-354.51 338.53,-351.97 332.17,-349.47"/>
<polygon fill="black" stroke="black" points="322.91,-345.87 333.86,-345.3 327.56,-347.68 332.22,-349.49 332.22,-349.49 332.22,-349.49 327.56,-347.68 330.59,-353.69 322.91,-345.87 322.91,-345.87"/>
</g>
<!-- entities -->
<g id="node8" class="node">
<title>entities</title>
<polygon fill="#fbb4ae" stroke="black" points="305,-543 249,-543 249,-539 245,-539 245,-535 249,-535 249,-515 245,-515 245,-511 249,-511 249,-507 305,-507 305,-543"/>
<polyline fill="none" stroke="black" points="249,-539 253,-539 253,-535 249,-535"/>
<polyline fill="none" stroke="black" points="249,-515 253,-515 253,-511 249,-511"/>
<text text-anchor="middle" x="277" y="-521.3" font-family="Times,serif" font-size="14.00">entities</text>
</g>
<!-- use_cases&#45;&gt;entities -->
<g id="edge1" class="edge">
<title>use_cases&#45;&gt;entities</title>
<path fill="none" stroke="black" stroke-dasharray="5,2" d="M422.28,-420.33C410.52,-427.8 397.54,-437.03 387,-447 367.63,-465.33 372.09,-478.68 351,-495 340.29,-503.29 326.97,-509.65 314.66,-514.33"/>
<polygon fill="black" stroke="black" points="305.49,-517.59 313.41,-510 310.2,-515.91 314.91,-514.24 314.91,-514.24 314.91,-514.24 310.2,-515.91 316.42,-518.48 305.49,-517.59 305.49,-517.59"/>
</g>
<!-- n2 -->
<g id="node7" class="node">
<title>n2</title>
<polygon fill="#ffffcc" stroke="black" points="168,-237 16,-237 16,-199 174,-199 174,-231 168,-237"/>
<polyline fill="none" stroke="black" points="168,-237 168,-231"/>
<polyline fill="none" stroke="black" points="174,-231 168,-231"/>
<text text-anchor="middle" x="95" y="-221.8" font-family="Times,serif" font-size="14.00">May be used by anything.</text>
<text text-anchor="middle" x="95" y="-206.8" font-family="Times,serif" font-size="14.00"> Has no dependencies.</text>
</g>
<!-- entities&#45;&gt;helpers -->
<!-- thirdparty -->
<!-- thirdparty&#45;&gt;helpers -->
<!-- n1 -->
<g id="node10" class="node">
<title>n1</title>
<polygon fill="#fed9a6" stroke="black" stroke-dasharray="5,2" points="310,-108 238,-108 238,-70 316,-70 316,-102 310,-108"/>
<polyline fill="none" stroke="black" stroke-dasharray="5,2" points="310,-108 310,-102"/>
<polyline fill="none" stroke="black" stroke-dasharray="5,2" points="316,-102 310,-102"/>
<text text-anchor="middle" x="277" y="-92.8" font-family="Times,serif" font-size="14.00">Not part of</text>
<text text-anchor="middle" x="277" y="-77.8" font-family="Times,serif" font-size="14.00">the project.</text>
</g>
<!-- sdk -->
<g id="node11" class="node">
<title>sdk</title>
<polygon fill="#fed9a6" stroke="black" stroke-dasharray="5,2" points="172,-52 18,-52 18,-48 14,-48 14,-44 18,-44 18,-24 14,-24 14,-20 18,-20 18,-16 172,-16 172,-52"/>
<polyline fill="none" stroke="black" stroke-dasharray="5,2" points="18,-48 22,-48 22,-44 18,-44"/>
<polyline fill="none" stroke="black" stroke-dasharray="5,2" points="18,-24 22,-24 22,-20 18,-20"/>
<text text-anchor="middle" x="95" y="-30.3" font-family="Times,serif" font-size="14.00">software development kit</text>
</g>
<!-- libraries -->
<g id="node12" class="node">
<title>libraries</title>
<polygon fill="#fed9a6" stroke="black" stroke-dasharray="5,2" points="307.5,-52 246.5,-52 246.5,-48 242.5,-48 242.5,-44 246.5,-44 246.5,-24 242.5,-24 242.5,-20 246.5,-20 246.5,-16 307.5,-16 307.5,-52"/>
<polyline fill="none" stroke="black" stroke-dasharray="5,2" points="246.5,-48 250.5,-48 250.5,-44 246.5,-44"/>
<polyline fill="none" stroke="black" stroke-dasharray="5,2" points="246.5,-24 250.5,-24 250.5,-20 246.5,-20"/>
<text text-anchor="middle" x="277" y="-30.3" font-family="Times,serif" font-size="14.00">libraries</text>
</g>
<!-- libraries&#45;&gt;sdk -->
<g id="edge6" class="edge">
<title>libraries&#45;&gt;sdk</title>
<path fill="none" stroke="black" stroke-dasharray="5,2" d="M246.28,-34C228.63,-34 205.25,-34 182.21,-34"/>
<polygon fill="black" stroke="black" points="172.38,-34 182.38,-29.5 177.38,-34 182.38,-34 182.38,-34 182.38,-34 177.38,-34 182.38,-38.5 172.38,-34 172.38,-34"/>
</g>
<!-- liberaries_adapters -->
<g id="node13" class="node">
<title>liberaries_adapters</title>
<polygon fill="#decbe4" stroke="black" points="510.5,-158 400.5,-158 400.5,-154 396.5,-154 396.5,-150 400.5,-150 400.5,-130 396.5,-130 396.5,-126 400.5,-126 400.5,-122 510.5,-122 510.5,-158"/>
<polyline fill="none" stroke="black" points="400.5,-154 404.5,-154 404.5,-150 400.5,-150"/>
<polyline fill="none" stroke="black" points="400.5,-130 404.5,-130 404.5,-126 400.5,-126"/>
<text text-anchor="middle" x="455.5" y="-136.3" font-family="Times,serif" font-size="14.00">libraries adapters</text>
</g>
<!-- liberaries_adapters&#45;&gt;helpers -->
<!-- liberaries_adapters&#45;&gt;libraries -->
<g id="edge7" class="edge">
<title>liberaries_adapters&#45;&gt;libraries</title>
<path fill="none" stroke="black" stroke-dasharray="5,2" d="M434.37,-121.7C414.38,-104.28 382.29,-78.22 351,-61 340.36,-55.15 328.2,-50.08 316.9,-45.96"/>
<polygon fill="black" stroke="black" points="307.65,-42.73 318.58,-41.78 312.37,-44.38 317.09,-46.03 317.09,-46.03 317.09,-46.03 312.37,-44.38 315.61,-50.28 307.65,-42.73 307.65,-42.73"/>
</g>
<!-- library_interfaces -->
<g id="node15" class="node">
<title>library_interfaces</title>
<polygon fill="#ccebc5" stroke="black" points="333.5,-245 220.5,-245 220.5,-241 216.5,-241 216.5,-237 220.5,-237 220.5,-215 216.5,-215 216.5,-211 220.5,-211 220.5,-207 333.5,-207 333.5,-245"/>
<polyline fill="none" stroke="black" points="220.5,-241 224.5,-241 224.5,-237 220.5,-237"/>
<polyline fill="none" stroke="black" points="220.5,-215 224.5,-215 224.5,-211 220.5,-211"/>
<text text-anchor="middle" x="277" y="-229.8" font-family="Times,serif" font-size="14.00">«interface»</text>
<text text-anchor="middle" x="277" y="-214.8" font-family="Times,serif" font-size="14.00"> library interfaces</text>
</g>
<!-- liberaries_adapters&#45;&gt;library_interfaces -->
<g id="edge15" class="edge">
<title>liberaries_adapters&#45;&gt;library_interfaces</title>
<path fill="none" stroke="black" stroke-dasharray="5,2" d="M419.74,-158.33C399.75,-168.74 374.1,-181.87 351,-193 344.83,-195.97 338.34,-199.02 331.87,-202.01"/>
<polygon fill="none" stroke="black" points="330.79,-198.65 323.16,-206 333.71,-205.01 330.79,-198.65"/>
</g>
<!-- board -->
<!-- board&#45;&gt;helpers -->
<!-- board_impl -->
<g id="node16" class="node">
<title>board_impl</title>
<polygon fill="#ccebc5" stroke="black" points="524,-263 387,-263 387,-259 383,-259 383,-255 387,-255 387,-235 383,-235 383,-231 387,-231 387,-227 524,-227 524,-263"/>
<polyline fill="none" stroke="black" points="387,-259 391,-259 391,-255 387,-255"/>
<polyline fill="none" stroke="black" points="387,-235 391,-235 391,-231 387,-231"/>
<text text-anchor="middle" x="455.5" y="-241.3" font-family="Times,serif" font-size="14.00">board implementation</text>
</g>
<!-- board_impl&#45;&gt;output_boundaries -->
<g id="edge14" class="edge">
<title>board_impl&#45;&gt;output_boundaries</title>
<path fill="none" stroke="black" stroke-dasharray="5,2" d="M426.65,-263.38C413.67,-272.78 398.58,-284.97 387,-298 366.6,-320.96 374.6,-337.34 351,-357 349.32,-358.4 347.56,-359.74 345.74,-361.01"/>
<polygon fill="none" stroke="black" points="344.18,-357.86 337.49,-366.07 347.84,-363.82 344.18,-357.86"/>
</g>
<!-- board_impl&#45;&gt;input_boundaries -->
<g id="edge3" class="edge">
<title>board_impl&#45;&gt;input_boundaries</title>
<path fill="none" stroke="black" stroke-dasharray="5,2" d="M423.45,-263.41C410.59,-272.41 396.48,-284.27 387,-298 356.57,-342.07 387.66,-373.96 351,-413 348.13,-416.06 344.88,-418.79 341.39,-421.23"/>
<polygon fill="black" stroke="black" points="332.89,-426.39 339.1,-417.35 337.16,-423.79 341.44,-421.2 341.44,-421.2 341.44,-421.2 337.16,-423.79 343.77,-425.05 332.89,-426.39 332.89,-426.39"/>
</g>
<!-- board_impl&#45;&gt;data_interface -->
<g id="edge16" class="edge">
<title>board_impl&#45;&gt;data_interface</title>
<path fill="none" stroke="black" stroke-dasharray="5,2" d="M420.31,-263.29C400.28,-273.8 374.41,-287.05 351,-298 345.17,-300.73 339.03,-303.49 332.89,-306.19"/>
<polygon fill="none" stroke="black" points="331.79,-302.86 324.01,-310.05 334.57,-309.28 331.79,-302.86"/>
</g>
<!-- board_impl&#45;&gt;library_interfaces -->
<g id="edge4" class="edge">
<title>board_impl&#45;&gt;library_interfaces</title>
<path fill="none" stroke="black" stroke-dasharray="5,2" d="M386.51,-237.68C372.39,-236.16 357.53,-234.56 343.5,-233.05"/>
<polygon fill="black" stroke="black" points="333.94,-232.02 344.36,-228.62 338.91,-232.56 343.88,-233.09 343.88,-233.09 343.88,-233.09 338.91,-232.56 343.4,-237.57 333.94,-232.02 333.94,-232.02"/>
</g>
</g>
</svg>
