<?xml version="1.0" encoding="UTF-8" standalone="no"?>
<!DOCTYPE svg PUBLIC "-//W3C//DTD SVG 1.1//EN"
 "http://www.w3.org/Graphics/SVG/1.1/DTD/svg11.dtd">
<!-- Generated by graphviz version 9.0.0 (20230911.1827)
 -->
<!-- Title: lib/layer4_drivers_libraries_adapters/src/framework_config.cpp Pages: 1 -->
<svg width="249pt" height="160pt"
 viewBox="0.00 0.00 248.75 160.25" xmlns="http://www.w3.org/2000/svg" xmlns:xlink="http://www.w3.org/1999/xlink">
<g id="graph0" class="graph" transform="scale(1 1) rotate(0) translate(4 156.25)">
<title>lib/layer4_drivers_libraries_adapters/src/framework_config.cpp</title>
<!-- Node1 -->
<g id="Node000001" class="node">
<title>Node1</title>
<g id="a_Node000001"><a xlink:title=" ">
<polygon fill="#999999" stroke="#666666" points="198.25,-152.25 68.25,-152.25 68.25,-110.5 198.25,-110.5 198.25,-152.25"/>
<text text-anchor="start" x="76.25" y="-138.75" font-family="Helvetica,sans-Serif" font-size="10.00">lib/layer4_drivers</text>
<text text-anchor="start" x="76.25" y="-127.5" font-family="Helvetica,sans-Serif" font-size="10.00">_libraries_adapters</text>
<text text-anchor="middle" x="133.25" y="-116.25" font-family="Helvetica,sans-Serif" font-size="10.00">/src/framework_config.cpp</text>
</a>
</g>
</g>
<!-- Node2 -->
<g id="Node000002" class="node">
<title>Node2</title>
<g id="a_Node000002"><a xlink:href="board__types_8hpp.xhtml" target="_top" xlink:title=" ">
<polygon fill="white" stroke="#666666" points="86.5,-74.5 0,-74.5 0,-55.25 86.5,-55.25 86.5,-74.5"/>
<text text-anchor="middle" x="43.25" y="-61" font-family="Helvetica,sans-Serif" font-size="10.00">board_types.hpp</text>
</a>
</g>
</g>
<!-- Node1&#45;&gt;Node2 -->
<g id="edge1_Node000001_Node000002" class="edge">
<title>Node1&#45;&gt;Node2</title>
<g id="a_edge1_Node000001_Node000002"><a xlink:title=" ">
<path fill="none" stroke="#63b8ff" d="M105.27,-110.32C92.37,-101.08 77.28,-90.26 65.21,-81.62"/>
<polygon fill="#63b8ff" stroke="#63b8ff" points="67.3,-78.81 57.14,-75.83 63.23,-84.5 67.3,-78.81"/>
</a>
</g>
</g>
<!-- Node4 -->
<g id="Node000004" class="node">
<title>Node4</title>
<g id="a_Node000004"><a xlink:title=" ">
<polygon fill="#e0e0e0" stroke="#999999" points="161.5,-74.5 105,-74.5 105,-55.25 161.5,-55.25 161.5,-74.5"/>
<text text-anchor="middle" x="133.25" y="-61" font-family="Helvetica,sans-Serif" font-size="10.00">Arduino.h</text>
</a>
</g>
</g>
<!-- Node1&#45;&gt;Node4 -->
<g id="edge3_Node000001_Node000004" class="edge">
<title>Node1&#45;&gt;Node4</title>
<g id="a_edge3_Node000001_Node000004"><a xlink:title=" ">
<path fill="none" stroke="#63b8ff" d="M133.25,-110.32C133.25,-102.65 133.25,-93.89 133.25,-86.2"/>
<polygon fill="#63b8ff" stroke="#63b8ff" points="136.75,-86.46 133.25,-76.46 129.75,-86.46 136.75,-86.46"/>
</a>
</g>
</g>
<!-- Node5 -->
<g id="Node000005" class="node">
<title>Node5</title>
<g id="a_Node000005"><a xlink:title=" ">
<polygon fill="#e0e0e0" stroke="#999999" points="240.75,-74.5 179.75,-74.5 179.75,-55.25 240.75,-55.25 240.75,-74.5"/>
<text text-anchor="middle" x="210.25" y="-61" font-family="Helvetica,sans-Serif" font-size="10.00">type_traits</text>
</a>
</g>
</g>
<!-- Node1&#45;&gt;Node5 -->
<g id="edge4_Node000001_Node000005" class="edge">
<title>Node1&#45;&gt;Node5</title>
<g id="a_edge4_Node000001_Node000005"><a xlink:title=" ">
<path fill="none" stroke="#63b8ff" d="M157.19,-110.32C168.01,-101.26 180.62,-90.69 190.84,-82.14"/>
<polygon fill="#63b8ff" stroke="#63b8ff" points="192.84,-85.02 198.26,-75.92 188.35,-79.66 192.84,-85.02"/>
</a>
</g>
</g>
<!-- Node3 -->
<g id="Node000003" class="node">
<title>Node3</title>
<g id="a_Node000003"><a xlink:title=" ">
<polygon fill="#e0e0e0" stroke="#999999" points="65.88,-19.25 20.62,-19.25 20.62,0 65.88,0 65.88,-19.25"/>
<text text-anchor="middle" x="43.25" y="-5.75" font-family="Helvetica,sans-Serif" font-size="10.00">cstdint</text>
</a>
</g>
</g>
<!-- Node2&#45;&gt;Node3 -->
<g id="edge2_Node000002_Node000003" class="edge">
<title>Node2&#45;&gt;Node3</title>
<g id="a_edge2_Node000002_Node000003"><a xlink:title=" ">
<path fill="none" stroke="#63b8ff" d="M43.25,-55.08C43.25,-48.57 43.25,-39.42 43.25,-31.12"/>
<polygon fill="#63b8ff" stroke="#63b8ff" points="46.75,-31.12 43.25,-21.12 39.75,-31.12 46.75,-31.12"/>
</a>
</g>
</g>
</g>
</svg>
