<?xml version="1.0" encoding="UTF-8" standalone="no"?>
<!DOCTYPE svg PUBLIC "-//W3C//DTD SVG 1.1//EN"
 "http://www.w3.org/Graphics/SVG/1.1/DTD/svg11.dtd">
<!-- Generated by graphviz version 7.0.5 (20221223.1930)
 -->
<!-- Title: lib/3rd_party_adapters/Arduino/framework_adapter.cpp Pages: 1 -->
<svg width="246pt" height="203pt"
 viewBox="0.00 0.00 245.50 203.00" xmlns="http://www.w3.org/2000/svg" xmlns:xlink="http://www.w3.org/1999/xlink">
<g id="graph0" class="graph" transform="scale(1 1) rotate(0) translate(4 199)">
<title>lib/3rd_party_adapters/Arduino/framework_adapter.cpp</title>
<!-- Node1 -->
<g id="node1" class="node">
<title>Node1</title>
<g id="a_node1"><a xlink:title=" ">
<polygon fill="#999999" stroke="#666666" points="195,-195 38,-195 38,-165 195,-165 195,-195"/>
<text text-anchor="start" x="46" y="-183" font-family="Helvetica,sans-Serif" font-size="10.00">lib/3rd_party_adapters</text>
<text text-anchor="middle" x="116.5" y="-172" font-family="Helvetica,sans-Serif" font-size="10.00">/Arduino/framework_adapter.cpp</text>
</a>
</g>
</g>
<!-- Node2 -->
<g id="node2" class="node">
<title>Node2</title>
<g id="a_node2"><a xlink:title=" ">
<polygon fill="#e0e0e0" stroke="#999999" points="57,-129 0,-129 0,-110 57,-110 57,-129"/>
<text text-anchor="middle" x="28.5" y="-117" font-family="Helvetica,sans-Serif" font-size="10.00">Arduino.h</text>
</a>
</g>
</g>
<!-- Node1&#45;&gt;Node2 -->
<g id="edge1" class="edge">
<title>Node1&#45;&gt;Node2</title>
<path fill="none" stroke="#63b8ff" d="M94.75,-164.54C81.53,-155.75 64.67,-144.54 51.26,-135.63"/>
<polygon fill="#63b8ff" stroke="#63b8ff" points="53.33,-132.81 43.07,-130.18 49.46,-138.63 53.33,-132.81"/>
</g>
<!-- Node3 -->
<g id="node3" class="node">
<title>Node3</title>
<g id="a_node3"><a xlink:href="board__pins_8hpp.xhtml" target="_top" xlink:title="Provides named objects for the pins provided by the board.">
<polygon fill="white" stroke="#666666" points="157.5,-129 75.5,-129 75.5,-110 157.5,-110 157.5,-129"/>
<text text-anchor="middle" x="116.5" y="-117" font-family="Helvetica,sans-Serif" font-size="10.00">board_pins.hpp</text>
</a>
</g>
</g>
<!-- Node1&#45;&gt;Node3 -->
<g id="edge2" class="edge">
<title>Node1&#45;&gt;Node3</title>
<path fill="none" stroke="#63b8ff" d="M116.5,-164.54C116.5,-157.34 116.5,-148.53 116.5,-140.68"/>
<polygon fill="#63b8ff" stroke="#63b8ff" points="120,-140.69 116.5,-130.69 113,-140.69 120,-140.69"/>
</g>
<!-- Node6 -->
<g id="node6" class="node">
<title>Node6</title>
<g id="a_node6"><a xlink:title=" ">
<polygon fill="#e0e0e0" stroke="#999999" points="237.5,-129 175.5,-129 175.5,-110 237.5,-110 237.5,-129"/>
<text text-anchor="middle" x="206.5" y="-117" font-family="Helvetica,sans-Serif" font-size="10.00">type_traits</text>
</a>
</g>
</g>
<!-- Node1&#45;&gt;Node6 -->
<g id="edge5" class="edge">
<title>Node1&#45;&gt;Node6</title>
<path fill="none" stroke="#63b8ff" d="M138.75,-164.54C152.4,-155.66 169.85,-144.32 183.62,-135.37"/>
<polygon fill="#63b8ff" stroke="#63b8ff" points="185.14,-138.56 191.62,-130.17 181.33,-132.69 185.14,-138.56"/>
</g>
<!-- Node4 -->
<g id="node4" class="node">
<title>Node4</title>
<g id="a_node4"><a xlink:href="board__types_8hpp.xhtml" target="_top" xlink:title=" ">
<polygon fill="white" stroke="#666666" points="160,-74 73,-74 73,-55 160,-55 160,-74"/>
<text text-anchor="middle" x="116.5" y="-62" font-family="Helvetica,sans-Serif" font-size="10.00">board_types.hpp</text>
</a>
</g>
</g>
<!-- Node3&#45;&gt;Node4 -->
<g id="edge3" class="edge">
<title>Node3&#45;&gt;Node4</title>
<path fill="none" stroke="#63b8ff" d="M116.5,-109.75C116.5,-103.27 116.5,-94.16 116.5,-85.9"/>
<polygon fill="#63b8ff" stroke="#63b8ff" points="120,-85.96 116.5,-75.96 113,-85.96 120,-85.96"/>
</g>
<!-- Node5 -->
<g id="node5" class="node">
<title>Node5</title>
<g id="a_node5"><a xlink:title=" ">
<polygon fill="#e0e0e0" stroke="#999999" points="139.5,-19 93.5,-19 93.5,0 139.5,0 139.5,-19"/>
<text text-anchor="middle" x="116.5" y="-7" font-family="Helvetica,sans-Serif" font-size="10.00">cstdint</text>
</a>
</g>
</g>
<!-- Node4&#45;&gt;Node5 -->
<g id="edge4" class="edge">
<title>Node4&#45;&gt;Node5</title>
<path fill="none" stroke="#63b8ff" d="M116.5,-54.75C116.5,-48.27 116.5,-39.16 116.5,-30.9"/>
<polygon fill="#63b8ff" stroke="#63b8ff" points="120,-30.96 116.5,-20.96 113,-30.96 120,-30.96"/>
</g>
</g>
</svg>
