<?xml version="1.0" encoding="UTF-8" standalone="no"?>
<!DOCTYPE svg PUBLIC "-//W3C//DTD SVG 1.1//EN"
 "http://www.w3.org/Graphics/SVG/1.1/DTD/svg11.dtd">
<!-- Generated by graphviz version 9.0.0 (20230911.1827)
 -->
<!-- Title: lib/layer2_hmi/include/hmi_configuration.hpp Pages: 1 -->
<svg width="413pt" height="194pt"
 viewBox="0.00 0.00 413.12 194.00" xmlns="http://www.w3.org/2000/svg" xmlns:xlink="http://www.w3.org/1999/xlink">
<g id="graph0" class="graph" transform="scale(1 1) rotate(0) translate(4 190)">
<title>lib/layer2_hmi/include/hmi_configuration.hpp</title>
<!-- Node1 -->
<g id="Node000001" class="node">
<title>Node1</title>
<g id="a_Node000001"><a xlink:title=" ">
<polygon fill="#999999" stroke="#666666" points="273.62,-186 160.88,-186 160.88,-155.5 273.62,-155.5 273.62,-186"/>
<text text-anchor="start" x="168.88" y="-172.5" font-family="Helvetica,sans-Serif" font-size="10.00">lib/layer2_hmi/include</text>
<text text-anchor="middle" x="217.25" y="-161.25" font-family="Helvetica,sans-Serif" font-size="10.00">/hmi_configuration.hpp</text>
</a>
</g>
</g>
<!-- Node2 -->
<g id="Node000002" class="node">
<title>Node2</title>
<g id="a_Node000002"><a xlink:href="statusindicators__factory__interface_8hpp.xhtml" target="_top" xlink:title=" ">
<polygon fill="white" stroke="#666666" points="216.5,-119.5 94,-119.5 94,-77.75 216.5,-77.75 216.5,-119.5"/>
<text text-anchor="start" x="102" y="-106" font-family="Helvetica,sans-Serif" font-size="10.00">lib/layer2_hmi/include</text>
<text text-anchor="start" x="102" y="-94.75" font-family="Helvetica,sans-Serif" font-size="10.00">/statusindicators_factory</text>
<text text-anchor="middle" x="155.25" y="-83.5" font-family="Helvetica,sans-Serif" font-size="10.00">_interface.hpp</text>
</a>
</g>
</g>
<!-- Node1&#45;&gt;Node2 -->
<g id="edge1_Node000001_Node000002" class="edge">
<title>Node1&#45;&gt;Node2</title>
<g id="a_edge1_Node000001_Node000002"><a xlink:title=" ">
<path fill="none" stroke="#63b8ff" d="M196.9,-146.73C189.27,-138.1 180.66,-128.36 173.25,-119.99"/>
<polygon fill="#63b8ff" stroke="#63b8ff" points="194.16,-148.91 203.4,-154.09 199.4,-144.28 194.16,-148.91"/>
</a>
</g>
</g>
<!-- Node5 -->
<g id="Node000005" class="node">
<title>Node5</title>
<g id="a_Node000005"><a xlink:href="Presenter_8hpp.xhtml" target="_top" xlink:title=" ">
<polygon fill="white" stroke="#666666" points="326.12,-113.88 234.38,-113.88 234.38,-83.38 326.12,-83.38 326.12,-113.88"/>
<text text-anchor="start" x="242.38" y="-100.38" font-family="Helvetica,sans-Serif" font-size="10.00">lib/layer2_hmi/src</text>
<text text-anchor="middle" x="280.25" y="-89.12" font-family="Helvetica,sans-Serif" font-size="10.00">/Presenter.hpp</text>
</a>
</g>
</g>
<!-- Node1&#45;&gt;Node5 -->
<g id="edge4_Node000001_Node000005" class="edge">
<title>Node1&#45;&gt;Node5</title>
<g id="a_edge4_Node000001_Node000005"><a xlink:title=" ">
<path fill="none" stroke="#63b8ff" d="M237.95,-146.71C247.59,-135.98 258.77,-123.53 267.21,-114.14"/>
<polygon fill="#63b8ff" stroke="#63b8ff" points="235.39,-144.32 231.32,-154.09 240.6,-148.99 235.39,-144.32"/>
</a>
</g>
</g>
<!-- Node3 -->
<g id="Node000003" class="node">
<title>Node3</title>
<g id="a_Node000003"><a xlink:href="presenter__factory__interface_8cpp.xhtml" target="_top" xlink:title=" ">
<polygon fill="white" stroke="#666666" points="295.62,-36.12 140.88,-36.12 140.88,-5.62 295.62,-5.62 295.62,-36.12"/>
<text text-anchor="start" x="148.88" y="-22.62" font-family="Helvetica,sans-Serif" font-size="10.00">lib/layer2_hmi/src</text>
<text text-anchor="middle" x="218.25" y="-11.38" font-family="Helvetica,sans-Serif" font-size="10.00">/presenter_factory_interface.cpp</text>
</a>
</g>
</g>
<!-- Node2&#45;&gt;Node3 -->
<g id="edge2_Node000002_Node000003" class="edge">
<title>Node2&#45;&gt;Node3</title>
<g id="a_edge2_Node000002_Node000003"><a xlink:title=" ">
<path fill="none" stroke="#63b8ff" d="M179.29,-68.72C188.53,-57.61 198.69,-45.4 206.31,-36.23"/>
<polygon fill="#63b8ff" stroke="#63b8ff" points="176.8,-66.24 173.1,-76.16 182.19,-70.71 176.8,-66.24"/>
</a>
</g>
</g>
<!-- Node4 -->
<g id="Node000004" class="node">
<title>Node4</title>
<g id="a_Node000004"><a xlink:href="statusindicators__factory__interface_8cpp.xhtml" target="_top" xlink:title=" ">
<polygon fill="white" stroke="#666666" points="122.5,-41.75 0,-41.75 0,0 122.5,0 122.5,-41.75"/>
<text text-anchor="start" x="8" y="-28.25" font-family="Helvetica,sans-Serif" font-size="10.00">lib/layer3_board/src</text>
<text text-anchor="start" x="8" y="-17" font-family="Helvetica,sans-Serif" font-size="10.00">/statusindicators_factory</text>
<text text-anchor="middle" x="61.25" y="-5.75" font-family="Helvetica,sans-Serif" font-size="10.00">_interface.cpp</text>
</a>
</g>
</g>
<!-- Node2&#45;&gt;Node4 -->
<g id="edge3_Node000002_Node000004" class="edge">
<title>Node2&#45;&gt;Node4</title>
<g id="a_edge3_Node000002_Node000004"><a xlink:title=" ">
<path fill="none" stroke="#63b8ff" d="M121.17,-70.16C109.72,-60.94 97.16,-50.81 86.51,-42.23"/>
<polygon fill="#63b8ff" stroke="#63b8ff" points="118.9,-72.83 128.88,-76.38 123.29,-67.38 118.9,-72.83"/>
</a>
</g>
</g>
<!-- Node5&#45;&gt;Node3 -->
<g id="edge6_Node000005_Node000003" class="edge">
<title>Node5&#45;&gt;Node3</title>
<g id="a_edge6_Node000005_Node000003"><a xlink:title=" ">
<path fill="none" stroke="#63b8ff" d="M261.05,-74.17C250.96,-61.84 238.91,-47.11 230.17,-36.44"/>
<polygon fill="#63b8ff" stroke="#63b8ff" points="258.29,-76.33 267.34,-81.85 263.71,-71.89 258.29,-76.33"/>
</a>
</g>
</g>
<!-- Node6 -->
<g id="Node000006" class="node">
<title>Node6</title>
<g id="a_Node000006"><a xlink:href="Presenter_8cpp.xhtml" target="_top" xlink:title=" ">
<polygon fill="white" stroke="#666666" points="405.12,-36.12 313.38,-36.12 313.38,-5.62 405.12,-5.62 405.12,-36.12"/>
<text text-anchor="start" x="321.38" y="-22.62" font-family="Helvetica,sans-Serif" font-size="10.00">lib/layer2_hmi/src</text>
<text text-anchor="middle" x="359.25" y="-11.38" font-family="Helvetica,sans-Serif" font-size="10.00">/Presenter.cpp</text>
</a>
</g>
</g>
<!-- Node5&#45;&gt;Node6 -->
<g id="edge5_Node000005_Node000006" class="edge">
<title>Node5&#45;&gt;Node6</title>
<g id="a_edge5_Node000005_Node000006"><a xlink:title=" ">
<path fill="none" stroke="#63b8ff" d="M303.59,-75.25C316.67,-62.71 332.6,-47.43 344.06,-36.44"/>
<polygon fill="#63b8ff" stroke="#63b8ff" points="301.37,-72.52 296.57,-81.97 306.21,-77.58 301.37,-72.52"/>
</a>
</g>
</g>
</g>
</svg>
