<?xml version="1.0" encoding="UTF-8" standalone="no"?>
<!DOCTYPE svg PUBLIC "-//W3C//DTD SVG 1.1//EN"
 "http://www.w3.org/Graphics/SVG/1.1/DTD/svg11.dtd">
<!-- Generated by graphviz version 7.0.5 (20221223.1930)
 -->
<!-- Title: lib/application_business_rules/HmiCoordinator.cpp Pages: 1 -->
<svg width="438pt" height="203pt"
 viewBox="0.00 0.00 437.50 203.00" xmlns="http://www.w3.org/2000/svg" xmlns:xlink="http://www.w3.org/1999/xlink">
<g id="graph0" class="graph" transform="scale(1 1) rotate(0) translate(4 199)">
<title>lib/application_business_rules/HmiCoordinator.cpp</title>
<!-- Node1 -->
<g id="node1" class="node">
<title>Node1</title>
<g id="a_node1"><a xlink:title=" ">
<polygon fill="#999999" stroke="#666666" points="321,-195 190,-195 190,-165 321,-165 321,-195"/>
<text text-anchor="start" x="198" y="-183" font-family="Helvetica,sans-Serif" font-size="10.00">lib/application_business</text>
<text text-anchor="middle" x="255.5" y="-172" font-family="Helvetica,sans-Serif" font-size="10.00">_rules/HmiCoordinator.cpp</text>
</a>
</g>
</g>
<!-- Node2 -->
<g id="node2" class="node">
<title>Node2</title>
<g id="a_node2"><a xlink:href="HmiCoordinator_8hpp.xhtml" target="_top" xlink:title=" ">
<polygon fill="white" stroke="#666666" points="108.5,-129 6.5,-129 6.5,-110 108.5,-110 108.5,-129"/>
<text text-anchor="middle" x="57.5" y="-117" font-family="Helvetica,sans-Serif" font-size="10.00">HmiCoordinator.hpp</text>
</a>
</g>
</g>
<!-- Node1&#45;&gt;Node2 -->
<g id="edge1" class="edge">
<title>Node1&#45;&gt;Node2</title>
<path fill="none" stroke="#63b8ff" d="M206.56,-164.54C173.41,-154.75 130.1,-141.95 98.71,-132.68"/>
<polygon fill="#63b8ff" stroke="#63b8ff" points="99.77,-129.34 89.18,-129.86 97.78,-136.05 99.77,-129.34"/>
</g>
<!-- Node6 -->
<g id="node6" class="node">
<title>Node6</title>
<g id="a_node6"><a xlink:href="Task_8hpp.xhtml" target="_top" xlink:title=" ">
<polygon fill="white" stroke="#666666" points="213,-129 130,-129 130,-110 213,-110 213,-129"/>
<text text-anchor="middle" x="171.5" y="-117" font-family="Helvetica,sans-Serif" font-size="10.00">tasks/Task.hpp</text>
</a>
</g>
</g>
<!-- Node1&#45;&gt;Node6 -->
<g id="edge5" class="edge">
<title>Node1&#45;&gt;Node6</title>
<path fill="none" stroke="#63b8ff" d="M234.74,-164.54C222.16,-155.78 206.14,-144.63 193.37,-135.73"/>
<polygon fill="#63b8ff" stroke="#63b8ff" points="195.4,-132.88 185.2,-130.04 191.4,-138.63 195.4,-132.88"/>
</g>
<!-- Node9 -->
<g id="node9" class="node">
<title>Node9</title>
<g id="a_node9"><a xlink:title=" ">
<polygon fill="#e0e0e0" stroke="#999999" points="280,-129 231,-129 231,-110 280,-110 280,-129"/>
<text text-anchor="middle" x="255.5" y="-117" font-family="Helvetica,sans-Serif" font-size="10.00">cstddef</text>
</a>
</g>
</g>
<!-- Node1&#45;&gt;Node9 -->
<g id="edge9" class="edge">
<title>Node1&#45;&gt;Node9</title>
<path fill="none" stroke="#63b8ff" d="M255.5,-164.54C255.5,-157.34 255.5,-148.53 255.5,-140.68"/>
<polygon fill="#63b8ff" stroke="#63b8ff" points="259,-140.69 255.5,-130.69 252,-140.69 259,-140.69"/>
</g>
<!-- Node10 -->
<g id="node10" class="node">
<title>Node10</title>
<g id="a_node10"><a xlink:title=" ">
<polygon fill="#e0e0e0" stroke="#999999" points="345,-129 298,-129 298,-110 345,-110 345,-129"/>
<text text-anchor="middle" x="321.5" y="-117" font-family="Helvetica,sans-Serif" font-size="10.00">iterator</text>
</a>
</g>
</g>
<!-- Node1&#45;&gt;Node10 -->
<g id="edge10" class="edge">
<title>Node1&#45;&gt;Node10</title>
<path fill="none" stroke="#63b8ff" d="M271.81,-164.54C281.3,-156.13 293.29,-145.51 303.11,-136.8"/>
<polygon fill="#63b8ff" stroke="#63b8ff" points="305.42,-139.43 310.58,-130.18 300.77,-134.19 305.42,-139.43"/>
</g>
<!-- Node11 -->
<g id="node11" class="node">
<title>Node11</title>
<g id="a_node11"><a xlink:href="pitches_8hpp.xhtml" target="_top" xlink:title=" ">
<polygon fill="white" stroke="#666666" points="429.5,-129 363.5,-129 363.5,-110 429.5,-110 429.5,-129"/>
<text text-anchor="middle" x="396.5" y="-117" font-family="Helvetica,sans-Serif" font-size="10.00">pitches.hpp</text>
</a>
</g>
</g>
<!-- Node1&#45;&gt;Node11 -->
<g id="edge11" class="edge">
<title>Node1&#45;&gt;Node11</title>
<path fill="none" stroke="#63b8ff" d="M290.35,-164.54C313.1,-155.1 342.56,-142.88 364.67,-133.71"/>
<polygon fill="#63b8ff" stroke="#63b8ff" points="365.89,-136.99 373.78,-129.93 363.2,-130.53 365.89,-136.99"/>
</g>
<!-- Node3 -->
<g id="node3" class="node">
<title>Node3</title>
<g id="a_node3"><a xlink:href="board__interface_8hpp.xhtml" target="_top" xlink:title=" ">
<polygon fill="white" stroke="#666666" points="101,-74 0,-74 0,-55 101,-55 101,-74"/>
<text text-anchor="middle" x="50.5" y="-62" font-family="Helvetica,sans-Serif" font-size="10.00">board_interface.hpp</text>
</a>
</g>
</g>
<!-- Node2&#45;&gt;Node3 -->
<g id="edge2" class="edge">
<title>Node2&#45;&gt;Node3</title>
<path fill="none" stroke="#63b8ff" d="M56.34,-109.75C55.48,-103.19 54.26,-93.95 53.16,-85.6"/>
<polygon fill="#63b8ff" stroke="#63b8ff" points="56.66,-85.4 51.88,-75.94 49.72,-86.31 56.66,-85.4"/>
</g>
<!-- Node4 -->
<g id="node4" class="node">
<title>Node4</title>
<g id="a_node4"><a xlink:title=" ">
<polygon fill="#e0e0e0" stroke="#999999" points="148.5,-19 102.5,-19 102.5,0 148.5,0 148.5,-19"/>
<text text-anchor="middle" x="125.5" y="-7" font-family="Helvetica,sans-Serif" font-size="10.00">chrono</text>
</a>
</g>
</g>
<!-- Node3&#45;&gt;Node4 -->
<g id="edge3" class="edge">
<title>Node3&#45;&gt;Node4</title>
<path fill="none" stroke="#63b8ff" d="M63.22,-54.51C74.28,-46.7 90.54,-35.21 103.67,-25.93"/>
<polygon fill="#63b8ff" stroke="#63b8ff" points="105.58,-28.86 111.73,-20.23 101.54,-23.14 105.58,-28.86"/>
</g>
<!-- Node5 -->
<g id="node5" class="node">
<title>Node5</title>
<g id="a_node5"><a xlink:title=" ">
<polygon fill="#e0e0e0" stroke="#999999" points="80,-19 21,-19 21,0 80,0 80,-19"/>
<text text-anchor="middle" x="50.5" y="-7" font-family="Helvetica,sans-Serif" font-size="10.00">functional</text>
</a>
</g>
</g>
<!-- Node3&#45;&gt;Node5 -->
<g id="edge4" class="edge">
<title>Node3&#45;&gt;Node5</title>
<path fill="none" stroke="#63b8ff" d="M50.5,-54.75C50.5,-48.27 50.5,-39.16 50.5,-30.9"/>
<polygon fill="#63b8ff" stroke="#63b8ff" points="54,-30.96 50.5,-20.96 47,-30.96 54,-30.96"/>
</g>
<!-- Node6&#45;&gt;Node4 -->
<g id="edge6" class="edge">
<title>Node6&#45;&gt;Node4</title>
<path fill="none" stroke="#63b8ff" d="M166.57,-109.8C161.67,-100.94 154.08,-86.75 148.5,-74 142.16,-59.51 136.12,-42.66 131.82,-29.96"/>
<polygon fill="#63b8ff" stroke="#63b8ff" points="135.22,-29.1 128.75,-20.7 128.57,-31.3 135.22,-29.1"/>
</g>
<!-- Node7 -->
<g id="node7" class="node">
<title>Node7</title>
<g id="a_node7"><a xlink:title=" ">
<polygon fill="#e0e0e0" stroke="#999999" points="193,-74 158,-74 158,-55 193,-55 193,-74"/>
<text text-anchor="middle" x="175.5" y="-62" font-family="Helvetica,sans-Serif" font-size="10.00">map</text>
</a>
</g>
</g>
<!-- Node6&#45;&gt;Node7 -->
<g id="edge7" class="edge">
<title>Node6&#45;&gt;Node7</title>
<path fill="none" stroke="#63b8ff" d="M172.16,-109.75C172.65,-103.27 173.34,-94.16 173.96,-85.9"/>
<polygon fill="#63b8ff" stroke="#63b8ff" points="177.45,-86.19 174.71,-75.95 170.47,-85.66 177.45,-86.19"/>
</g>
<!-- Node8 -->
<g id="node8" class="node">
<title>Node8</title>
<g id="a_node8"><a xlink:title=" ">
<polygon fill="#e0e0e0" stroke="#999999" points="252,-74 211,-74 211,-55 252,-55 252,-74"/>
<text text-anchor="middle" x="231.5" y="-62" font-family="Helvetica,sans-Serif" font-size="10.00">string</text>
</a>
</g>
</g>
<!-- Node6&#45;&gt;Node8 -->
<g id="edge8" class="edge">
<title>Node6&#45;&gt;Node8</title>
<path fill="none" stroke="#63b8ff" d="M181.68,-109.51C190.26,-101.93 202.77,-90.88 213.1,-81.75"/>
<polygon fill="#63b8ff" stroke="#63b8ff" points="215.16,-84.6 220.34,-75.36 210.53,-79.36 215.16,-84.6"/>
</g>
<!-- Node12 -->
<g id="node12" class="node">
<title>Node12</title>
<g id="a_node12"><a xlink:title=" ">
<polygon fill="#e0e0e0" stroke="#999999" points="419.5,-74 373.5,-74 373.5,-55 419.5,-55 419.5,-74"/>
<text text-anchor="middle" x="396.5" y="-62" font-family="Helvetica,sans-Serif" font-size="10.00">cstdint</text>
</a>
</g>
</g>
<!-- Node11&#45;&gt;Node12 -->
<g id="edge12" class="edge">
<title>Node11&#45;&gt;Node12</title>
<path fill="none" stroke="#63b8ff" d="M396.5,-109.75C396.5,-103.27 396.5,-94.16 396.5,-85.9"/>
<polygon fill="#63b8ff" stroke="#63b8ff" points="400,-85.96 396.5,-75.96 393,-85.96 400,-85.96"/>
</g>
</g>
</svg>
