<?xml version="1.0" encoding="UTF-8" standalone="no"?>
<!DOCTYPE svg PUBLIC "-//W3C//DTD SVG 1.1//EN"
 "http://www.w3.org/Graphics/SVG/1.1/DTD/svg11.dtd">
<!-- Generated by graphviz version 7.0.5 (20221223.1930)
 -->
<!-- Title: lib/application_business_rules/user_interaction/HmiCoordinator.cpp Pages: 1 -->
<svg width="752pt" height="170pt"
 viewBox="0.00 0.00 751.50 170.00" xmlns="http://www.w3.org/2000/svg" xmlns:xlink="http://www.w3.org/1999/xlink">
<g id="graph0" class="graph" transform="scale(1 1) rotate(0) translate(4 166)">
<title>lib/application_business_rules/user_interaction/HmiCoordinator.cpp</title>
<!-- Node1 -->
<g id="node1" class="node">
<title>Node1</title>
<g id="a_node1"><a xlink:title=" ">
<polygon fill="#999999" stroke="#666666" points="503,-162 383,-162 383,-121 503,-121 503,-162"/>
<text text-anchor="start" x="391" y="-150" font-family="Helvetica,sans-Serif" font-size="10.00">lib/application_business</text>
<text text-anchor="start" x="391" y="-139" font-family="Helvetica,sans-Serif" font-size="10.00">_rules/user_interaction</text>
<text text-anchor="middle" x="443" y="-128" font-family="Helvetica,sans-Serif" font-size="10.00">/HmiCoordinator.cpp</text>
</a>
</g>
</g>
<!-- Node2 -->
<g id="node2" class="node">
<title>Node2</title>
<g id="a_node2"><a xlink:href="HmiCoordinator_8hpp.xhtml" target="_top" xlink:title=" ">
<polygon fill="white" stroke="#666666" points="102,-79.5 0,-79.5 0,-60.5 102,-60.5 102,-79.5"/>
<text text-anchor="middle" x="51" y="-67.5" font-family="Helvetica,sans-Serif" font-size="10.00">HmiCoordinator.hpp</text>
</a>
</g>
</g>
<!-- Node1&#45;&gt;Node2 -->
<g id="edge1" class="edge">
<title>Node1&#45;&gt;Node2</title>
<path fill="none" stroke="#63b8ff" d="M382.51,-131.57C315.8,-121.45 205.41,-103.89 111,-85 106.99,-84.2 102.84,-83.32 98.67,-82.41"/>
<polygon fill="#63b8ff" stroke="#63b8ff" points="99.73,-79.06 89.2,-80.29 98.2,-85.89 99.73,-79.06"/>
</g>
<!-- Node3 -->
<g id="node3" class="node">
<title>Node3</title>
<g id="a_node3"><a xlink:href="board__interface_8hpp.xhtml" target="_top" xlink:title=" ">
<polygon fill="white" stroke="#666666" points="322.5,-79.5 221.5,-79.5 221.5,-60.5 322.5,-60.5 322.5,-79.5"/>
<text text-anchor="middle" x="272" y="-67.5" font-family="Helvetica,sans-Serif" font-size="10.00">board_interface.hpp</text>
</a>
</g>
</g>
<!-- Node1&#45;&gt;Node3 -->
<g id="edge2" class="edge">
<title>Node1&#45;&gt;Node3</title>
<path fill="none" stroke="#63b8ff" d="M394,-120.58C365.28,-108.91 329.81,-94.5 304.53,-84.22"/>
<polygon fill="#63b8ff" stroke="#63b8ff" points="306.02,-81.05 295.43,-80.52 303.38,-87.53 306.02,-81.05"/>
</g>
<!-- Node6 -->
<g id="node6" class="node">
<title>Node6</title>
<g id="a_node6"><a xlink:href="Task_8hpp.xhtml" target="_top" xlink:title=" ">
<polygon fill="white" stroke="#666666" points="203.5,-79.5 120.5,-79.5 120.5,-60.5 203.5,-60.5 203.5,-79.5"/>
<text text-anchor="middle" x="162" y="-67.5" font-family="Helvetica,sans-Serif" font-size="10.00">tasks/Task.hpp</text>
</a>
</g>
</g>
<!-- Node1&#45;&gt;Node6 -->
<g id="edge5" class="edge">
<title>Node1&#45;&gt;Node6</title>
<path fill="none" stroke="#63b8ff" d="M382.54,-126.62C335.84,-115.75 269.68,-100 212,-85 209.55,-84.36 207.05,-83.7 204.51,-83.02"/>
<polygon fill="#63b8ff" stroke="#63b8ff" points="205.45,-79.65 194.88,-80.39 203.61,-86.4 205.45,-79.65"/>
</g>
<!-- Node9 -->
<g id="node9" class="node">
<title>Node9</title>
<g id="a_node9"><a xlink:title=" ">
<polygon fill="#e0e0e0" stroke="#999999" points="516.5,-79.5 467.5,-79.5 467.5,-60.5 516.5,-60.5 516.5,-79.5"/>
<text text-anchor="middle" x="492" y="-67.5" font-family="Helvetica,sans-Serif" font-size="10.00">cstddef</text>
</a>
</g>
</g>
<!-- Node1&#45;&gt;Node9 -->
<g id="edge9" class="edge">
<title>Node1&#45;&gt;Node9</title>
<path fill="none" stroke="#63b8ff" d="M456.91,-120.77C463.97,-110.76 472.47,-98.7 479.34,-88.95"/>
<polygon fill="#63b8ff" stroke="#63b8ff" points="482.01,-91.25 484.91,-81.06 476.29,-87.21 482.01,-91.25"/>
</g>
<!-- Node10 -->
<g id="node10" class="node">
<title>Node10</title>
<g id="a_node10"><a xlink:title=" ">
<polygon fill="#e0e0e0" stroke="#999999" points="581.5,-79.5 534.5,-79.5 534.5,-60.5 581.5,-60.5 581.5,-79.5"/>
<text text-anchor="middle" x="558" y="-67.5" font-family="Helvetica,sans-Serif" font-size="10.00">iterator</text>
</a>
</g>
</g>
<!-- Node1&#45;&gt;Node10 -->
<g id="edge10" class="edge">
<title>Node1&#45;&gt;Node10</title>
<path fill="none" stroke="#63b8ff" d="M475.95,-120.58C494.31,-109.49 516.78,-95.91 533.56,-85.77"/>
<polygon fill="#63b8ff" stroke="#63b8ff" points="535.14,-88.9 541.89,-80.74 531.52,-82.91 535.14,-88.9"/>
</g>
<!-- Node11 -->
<g id="node11" class="node">
<title>Node11</title>
<g id="a_node11"><a xlink:href="pitches_8hpp.xhtml" target="_top" xlink:title=" ">
<polygon fill="white" stroke="#666666" points="666,-79.5 600,-79.5 600,-60.5 666,-60.5 666,-79.5"/>
<text text-anchor="middle" x="633" y="-67.5" font-family="Helvetica,sans-Serif" font-size="10.00">pitches.hpp</text>
</a>
</g>
</g>
<!-- Node1&#45;&gt;Node11 -->
<g id="edge11" class="edge">
<title>Node1&#45;&gt;Node11</title>
<path fill="none" stroke="#63b8ff" d="M497.45,-120.58C529.78,-108.76 569.83,-94.11 597.98,-83.81"/>
<polygon fill="#63b8ff" stroke="#63b8ff" points="598.91,-87.2 607.1,-80.47 596.51,-80.62 598.91,-87.2"/>
</g>
<!-- Node13 -->
<g id="node13" class="node">
<title>Node13</title>
<g id="a_node13"><a xlink:href="serial__port__interface_8hpp.xhtml" target="_top" xlink:title=" ">
<polygon fill="white" stroke="#666666" points="449.5,-85 340.5,-85 340.5,-55 449.5,-55 449.5,-85"/>
<text text-anchor="start" x="348.5" y="-73" font-family="Helvetica,sans-Serif" font-size="10.00">serial_interface/serial</text>
<text text-anchor="middle" x="395" y="-62" font-family="Helvetica,sans-Serif" font-size="10.00">_port_interface.hpp</text>
</a>
</g>
</g>
<!-- Node1&#45;&gt;Node13 -->
<g id="edge13" class="edge">
<title>Node1&#45;&gt;Node13</title>
<path fill="none" stroke="#63b8ff" d="M429.37,-120.77C423.8,-112.69 417.29,-103.28 411.45,-94.82"/>
<polygon fill="#63b8ff" stroke="#63b8ff" points="414.42,-92.96 405.86,-86.72 408.66,-96.94 414.42,-92.96"/>
</g>
<!-- Node17 -->
<g id="node17" class="node">
<title>Node17</title>
<g id="a_node17"><a xlink:title=" ">
<polygon fill="#e0e0e0" stroke="#999999" points="743.5,-79.5 684.5,-79.5 684.5,-60.5 743.5,-60.5 743.5,-79.5"/>
<text text-anchor="middle" x="714" y="-67.5" font-family="Helvetica,sans-Serif" font-size="10.00">stdexcept</text>
</a>
</g>
</g>
<!-- Node1&#45;&gt;Node17 -->
<g id="edge19" class="edge">
<title>Node1&#45;&gt;Node17</title>
<path fill="none" stroke="#63b8ff" d="M503.08,-128.03C550.21,-117.79 617.25,-102.22 675,-85 676.59,-84.52 678.22,-84.02 679.85,-83.5"/>
<polygon fill="#63b8ff" stroke="#63b8ff" points="680.84,-86.86 689.19,-80.34 678.6,-80.23 680.84,-86.86"/>
</g>
<!-- Node4 -->
<g id="node4" class="node">
<title>Node4</title>
<g id="a_node4"><a xlink:title=" ">
<polygon fill="#e0e0e0" stroke="#999999" points="203,-19 157,-19 157,0 203,0 203,-19"/>
<text text-anchor="middle" x="180" y="-7" font-family="Helvetica,sans-Serif" font-size="10.00">chrono</text>
</a>
</g>
</g>
<!-- Node3&#45;&gt;Node4 -->
<g id="edge3" class="edge">
<title>Node3&#45;&gt;Node4</title>
<path fill="none" stroke="#63b8ff" d="M258.03,-60.12C243.57,-50.92 220.74,-36.41 203.5,-25.44"/>
<polygon fill="#63b8ff" stroke="#63b8ff" points="205.7,-22.69 195.38,-20.28 201.94,-28.6 205.7,-22.69"/>
</g>
<!-- Node5 -->
<g id="node5" class="node">
<title>Node5</title>
<g id="a_node5"><a xlink:title=" ">
<polygon fill="#e0e0e0" stroke="#999999" points="339.5,-19 280.5,-19 280.5,0 339.5,0 339.5,-19"/>
<text text-anchor="middle" x="310" y="-7" font-family="Helvetica,sans-Serif" font-size="10.00">functional</text>
</a>
</g>
</g>
<!-- Node3&#45;&gt;Node5 -->
<g id="edge4" class="edge">
<title>Node3&#45;&gt;Node5</title>
<path fill="none" stroke="#63b8ff" d="M277.61,-60.37C283,-52.07 291.31,-39.28 298.16,-28.72"/>
<polygon fill="#63b8ff" stroke="#63b8ff" points="301.03,-30.73 303.55,-20.44 295.16,-26.92 301.03,-30.73"/>
</g>
<!-- Node6&#45;&gt;Node4 -->
<g id="edge6" class="edge">
<title>Node6&#45;&gt;Node4</title>
<path fill="none" stroke="#63b8ff" d="M164.66,-60.37C167.1,-52.42 170.82,-40.33 173.98,-30.05"/>
<polygon fill="#63b8ff" stroke="#63b8ff" points="177.29,-31.2 176.89,-20.61 170.6,-29.14 177.29,-31.2"/>
</g>
<!-- Node7 -->
<g id="node7" class="node">
<title>Node7</title>
<g id="a_node7"><a xlink:title=" ">
<polygon fill="#e0e0e0" stroke="#999999" points="138.5,-19 103.5,-19 103.5,0 138.5,0 138.5,-19"/>
<text text-anchor="middle" x="121" y="-7" font-family="Helvetica,sans-Serif" font-size="10.00">map</text>
</a>
</g>
</g>
<!-- Node6&#45;&gt;Node7 -->
<g id="edge7" class="edge">
<title>Node6&#45;&gt;Node7</title>
<path fill="none" stroke="#63b8ff" d="M155.95,-60.37C150.08,-51.99 140.98,-39.01 133.54,-28.39"/>
<polygon fill="#63b8ff" stroke="#63b8ff" points="136.55,-26.59 127.94,-20.41 130.82,-30.6 136.55,-26.59"/>
</g>
<!-- Node8 -->
<g id="node8" class="node">
<title>Node8</title>
<g id="a_node8"><a xlink:title=" ">
<polygon fill="#e0e0e0" stroke="#999999" points="262.5,-19 221.5,-19 221.5,0 262.5,0 262.5,-19"/>
<text text-anchor="middle" x="242" y="-7" font-family="Helvetica,sans-Serif" font-size="10.00">string</text>
</a>
</g>
</g>
<!-- Node6&#45;&gt;Node8 -->
<g id="edge8" class="edge">
<title>Node6&#45;&gt;Node8</title>
<path fill="none" stroke="#63b8ff" d="M174.15,-60.12C186.48,-51.1 205.83,-36.95 220.72,-26.06"/>
<polygon fill="#63b8ff" stroke="#63b8ff" points="222.51,-29.09 228.51,-20.36 218.38,-23.44 222.51,-29.09"/>
</g>
<!-- Node12 -->
<g id="node12" class="node">
<title>Node12</title>
<g id="a_node12"><a xlink:title=" ">
<polygon fill="#e0e0e0" stroke="#999999" points="656,-19 610,-19 610,0 656,0 656,-19"/>
<text text-anchor="middle" x="633" y="-7" font-family="Helvetica,sans-Serif" font-size="10.00">cstdint</text>
</a>
</g>
</g>
<!-- Node11&#45;&gt;Node12 -->
<g id="edge12" class="edge">
<title>Node11&#45;&gt;Node12</title>
<path fill="none" stroke="#63b8ff" d="M633,-60.37C633,-52.5 633,-40.6 633,-30.39"/>
<polygon fill="#63b8ff" stroke="#63b8ff" points="636.5,-30.68 633,-20.68 629.5,-30.68 636.5,-30.68"/>
</g>
<!-- Node13&#45;&gt;Node5 -->
<g id="edge15" class="edge">
<title>Node13&#45;&gt;Node5</title>
<path fill="none" stroke="#63b8ff" d="M373.99,-54.54C361.14,-45.7 344.73,-34.4 331.75,-25.47"/>
<polygon fill="#63b8ff" stroke="#63b8ff" points="334.07,-22.82 323.85,-20.03 330.11,-28.59 334.07,-22.82"/>
</g>
<!-- Node13&#45;&gt;Node8 -->
<g id="edge18" class="edge">
<title>Node13&#45;&gt;Node8</title>
<path fill="none" stroke="#63b8ff" d="M357.18,-54.54C331.4,-44.68 297.66,-31.78 273.37,-22.49"/>
<polygon fill="#63b8ff" stroke="#63b8ff" points="274.94,-19.35 264.35,-19.04 272.44,-25.89 274.94,-19.35"/>
</g>
<!-- Node14 -->
<g id="node14" class="node">
<title>Node14</title>
<g id="a_node14"><a xlink:title=" ">
<polygon fill="#e0e0e0" stroke="#999999" points="396,-19 358,-19 358,0 396,0 396,-19"/>
<text text-anchor="middle" x="377" y="-7" font-family="Helvetica,sans-Serif" font-size="10.00">array</text>
</a>
</g>
</g>
<!-- Node13&#45;&gt;Node14 -->
<g id="edge14" class="edge">
<title>Node13&#45;&gt;Node14</title>
<path fill="none" stroke="#63b8ff" d="M390.55,-54.54C388.28,-47.17 385.49,-38.1 383.03,-30.11"/>
<polygon fill="#63b8ff" stroke="#63b8ff" points="386.4,-29.15 380.11,-20.62 379.71,-31.21 386.4,-29.15"/>
</g>
<!-- Node15 -->
<g id="node15" class="node">
<title>Node15</title>
<g id="a_node15"><a xlink:title=" ">
<polygon fill="#e0e0e0" stroke="#999999" points="464,-19 414,-19 414,0 464,0 464,-19"/>
<text text-anchor="middle" x="439" y="-7" font-family="Helvetica,sans-Serif" font-size="10.00">optional</text>
</a>
</g>
</g>
<!-- Node13&#45;&gt;Node15 -->
<g id="edge16" class="edge">
<title>Node13&#45;&gt;Node15</title>
<path fill="none" stroke="#63b8ff" d="M405.88,-54.54C411.88,-46.56 419.37,-36.59 425.72,-28.16"/>
<polygon fill="#63b8ff" stroke="#63b8ff" points="428.35,-30.48 431.57,-20.38 422.76,-26.27 428.35,-30.48"/>
</g>
<!-- Node16 -->
<g id="node16" class="node">
<title>Node16</title>
<g id="a_node16"><a xlink:title=" ">
<polygon fill="#e0e0e0" stroke="#999999" points="534,-19 482,-19 482,0 534,0 534,-19"/>
<text text-anchor="middle" x="508" y="-7" font-family="Helvetica,sans-Serif" font-size="10.00">ostream</text>
</a>
</g>
</g>
<!-- Node13&#45;&gt;Node16 -->
<g id="edge17" class="edge">
<title>Node13&#45;&gt;Node16</title>
<path fill="none" stroke="#63b8ff" d="M422.93,-54.54C440.58,-45.4 463.27,-33.66 480.77,-24.6"/>
<polygon fill="#63b8ff" stroke="#63b8ff" points="482.3,-27.75 489.57,-20.04 479.08,-21.53 482.3,-27.75"/>
</g>
</g>
</svg>
