<?xml version="1.0" encoding="UTF-8" standalone="no"?>
<!DOCTYPE svg PUBLIC "-//W3C//DTD SVG 1.1//EN"
 "http://www.w3.org/Graphics/SVG/1.1/DTD/svg11.dtd">
<!-- Generated by graphviz version 9.0.0 (20230911.1827)
 -->
<!-- Title: lib/layer1_use_cases/include/IController.hpp Pages: 1 -->
<svg width="140pt" height="149pt"
 viewBox="0.00 0.00 139.88 149.00" xmlns="http://www.w3.org/2000/svg" xmlns:xlink="http://www.w3.org/1999/xlink">
<g id="graph0" class="graph" transform="scale(1 1) rotate(0) translate(4 145)">
<title>lib/layer1_use_cases/include/IController.hpp</title>
<!-- Node1 -->
<g id="Node000001" class="node">
<title>Node1</title>
<g id="a_Node000001"><a xlink:title=" ">
<polygon fill="#999999" stroke="#666666" points="126.5,-141 11.5,-141 11.5,-110.5 126.5,-110.5 126.5,-141"/>
<text text-anchor="start" x="19.5" y="-127.5" font-family="Helvetica,sans-Serif" font-size="10.00">lib/layer1_use_cases</text>
<text text-anchor="middle" x="69" y="-116.25" font-family="Helvetica,sans-Serif" font-size="10.00">/include/IController.hpp</text>
</a>
</g>
</g>
<!-- Node2 -->
<g id="Node000002" class="node">
<title>Node2</title>
<g id="a_Node000002"><a xlink:href="KeyIds_8hpp.xhtml" target="_top" xlink:title=" ">
<polygon fill="white" stroke="#666666" points="64,-74.5 0,-74.5 0,-55.25 64,-55.25 64,-74.5"/>
<text text-anchor="middle" x="32" y="-61" font-family="Helvetica,sans-Serif" font-size="10.00">KeyIds.hpp</text>
</a>
</g>
</g>
<!-- Node1&#45;&gt;Node2 -->
<g id="edge1_Node000001_Node000002" class="edge">
<title>Node1&#45;&gt;Node2</title>
<g id="a_edge1_Node000001_Node000002"><a xlink:title=" ">
<path fill="none" stroke="#63b8ff" d="M59.85,-110.2C54.98,-102.44 48.93,-92.81 43.71,-84.51"/>
<polygon fill="#63b8ff" stroke="#63b8ff" points="46.79,-82.84 38.51,-76.23 40.87,-86.56 46.79,-82.84"/>
</a>
</g>
</g>
<!-- Node4 -->
<g id="Node000004" class="node">
<title>Node4</title>
<g id="a_Node000004"><a xlink:title=" ">
<polygon fill="#e0e0e0" stroke="#999999" points="131.88,-74.5 82.12,-74.5 82.12,-55.25 131.88,-55.25 131.88,-74.5"/>
<text text-anchor="middle" x="107" y="-61" font-family="Helvetica,sans-Serif" font-size="10.00">optional</text>
</a>
</g>
</g>
<!-- Node1&#45;&gt;Node4 -->
<g id="edge3_Node000001_Node000004" class="edge">
<title>Node1&#45;&gt;Node4</title>
<g id="a_edge3_Node000001_Node000004"><a xlink:title=" ">
<path fill="none" stroke="#63b8ff" d="M78.39,-110.2C83.4,-102.44 89.61,-92.81 94.97,-84.51"/>
<polygon fill="#63b8ff" stroke="#63b8ff" points="97.84,-86.52 100.32,-76.22 91.96,-82.73 97.84,-86.52"/>
</a>
</g>
</g>
<!-- Node3 -->
<g id="Node000003" class="node">
<title>Node3</title>
<g id="a_Node000003"><a xlink:title=" ">
<polygon fill="#e0e0e0" stroke="#999999" points="57.62,-19.25 6.38,-19.25 6.38,0 57.62,0 57.62,-19.25"/>
<text text-anchor="middle" x="32" y="-5.75" font-family="Helvetica,sans-Serif" font-size="10.00">ostream</text>
</a>
</g>
</g>
<!-- Node2&#45;&gt;Node3 -->
<g id="edge2_Node000002_Node000003" class="edge">
<title>Node2&#45;&gt;Node3</title>
<g id="a_edge2_Node000002_Node000003"><a xlink:title=" ">
<path fill="none" stroke="#63b8ff" d="M32,-55.08C32,-48.57 32,-39.42 32,-31.12"/>
<polygon fill="#63b8ff" stroke="#63b8ff" points="35.5,-31.12 32,-21.12 28.5,-31.12 35.5,-31.12"/>
</a>
</g>
</g>
</g>
</svg>
