<?xml version="1.0" encoding="UTF-8" standalone="no"?>
<!DOCTYPE svg PUBLIC "-//W3C//DTD SVG 1.1//EN"
 "http://www.w3.org/Graphics/SVG/1.1/DTD/svg11.dtd">
<!-- Generated by graphviz version 9.0.0 (20230911.1827)
 -->
<!-- Title: lib/layer1_use_cases/include/IController.hpp Pages: 1 -->
<svg width="564pt" height="194pt"
 viewBox="0.00 0.00 563.50 194.00" xmlns="http://www.w3.org/2000/svg" xmlns:xlink="http://www.w3.org/1999/xlink">
<g id="graph0" class="graph" transform="scale(1 1) rotate(0) translate(4 190)">
<title>lib/layer1_use_cases/include/IController.hpp</title>
<!-- Node1 -->
<g id="Node000001" class="node">
<title>Node1</title>
<g id="a_Node000001"><a xlink:title=" ">
<polygon fill="#999999" stroke="#666666" points="329.75,-186 214.75,-186 214.75,-155.5 329.75,-155.5 329.75,-186"/>
<text text-anchor="start" x="222.75" y="-172.5" font-family="Helvetica,sans-Serif" font-size="10.00">lib/layer1_use_cases</text>
<text text-anchor="middle" x="272.25" y="-161.25" font-family="Helvetica,sans-Serif" font-size="10.00">/include/IController.hpp</text>
</a>
</g>
</g>
<!-- Node2 -->
<g id="Node000002" class="node">
<title>Node2</title>
<g id="a_Node000002"><a xlink:href="ProcessHmiInputs_8hpp.xhtml" target="_top" xlink:title=" ">
<polygon fill="white" stroke="#666666" points="191.12,-113.88 39.38,-113.88 39.38,-83.38 191.12,-83.38 191.12,-113.88"/>
<text text-anchor="start" x="47.38" y="-100.38" font-family="Helvetica,sans-Serif" font-size="10.00">lib/layer1_use_cases</text>
<text text-anchor="middle" x="115.25" y="-89.12" font-family="Helvetica,sans-Serif" font-size="10.00">/include/ProcessHmiInputs.hpp</text>
</a>
</g>
</g>
<!-- Node1&#45;&gt;Node2 -->
<g id="edge1_Node000001_Node000002" class="edge">
<title>Node1&#45;&gt;Node2</title>
<g id="a_edge1_Node000001_Node000002"><a xlink:title=" ">
<path fill="none" stroke="#63b8ff" d="M229.16,-150.51C203.59,-139.08 171.66,-124.82 148.12,-114.31"/>
<polygon fill="#63b8ff" stroke="#63b8ff" points="227.4,-153.55 237.96,-154.43 230.25,-147.16 227.4,-153.55"/>
</a>
</g>
</g>
<!-- Node5 -->
<g id="Node000005" class="node">
<title>Node5</title>
<g id="a_Node000005"><a xlink:href="controller__factory__interface_8hpp.xhtml" target="_top" xlink:title=" ">
<polygon fill="white" stroke="#666666" points="335.75,-119.5 208.75,-119.5 208.75,-77.75 335.75,-77.75 335.75,-119.5"/>
<text text-anchor="start" x="216.75" y="-106" font-family="Helvetica,sans-Serif" font-size="10.00">lib/layer1_use_cases</text>
<text text-anchor="start" x="216.75" y="-94.75" font-family="Helvetica,sans-Serif" font-size="10.00">/include/controller_factory</text>
<text text-anchor="middle" x="272.25" y="-83.5" font-family="Helvetica,sans-Serif" font-size="10.00">_interface.hpp</text>
</a>
</g>
</g>
<!-- Node1&#45;&gt;Node5 -->
<g id="edge4_Node000001_Node000005" class="edge">
<title>Node1&#45;&gt;Node5</title>
<g id="a_edge4_Node000001_Node000005"><a xlink:title=" ">
<path fill="none" stroke="#63b8ff" d="M272.25,-143.97C272.25,-136.06 272.25,-127.48 272.25,-119.99"/>
<polygon fill="#63b8ff" stroke="#63b8ff" points="268.75,-143.71 272.25,-153.71 275.75,-143.71 268.75,-143.71"/>
</a>
</g>
</g>
<!-- Node7 -->
<g id="Node000007" class="node">
<title>Node7</title>
<g id="a_Node000007"><a xlink:href="Controller_8hpp.xhtml" target="_top" xlink:title=" ">
<polygon fill="white" stroke="#666666" points="445.12,-113.88 353.38,-113.88 353.38,-83.38 445.12,-83.38 445.12,-113.88"/>
<text text-anchor="start" x="361.38" y="-100.38" font-family="Helvetica,sans-Serif" font-size="10.00">lib/layer2_hmi/src</text>
<text text-anchor="middle" x="399.25" y="-89.12" font-family="Helvetica,sans-Serif" font-size="10.00">/Controller.hpp</text>
</a>
</g>
</g>
<!-- Node1&#45;&gt;Node7 -->
<g id="edge7_Node000001_Node000007" class="edge">
<title>Node1&#45;&gt;Node7</title>
<g id="a_edge7_Node000001_Node000007"><a xlink:title=" ">
<path fill="none" stroke="#63b8ff" d="M308.77,-149.59C329.17,-138.32 354.13,-124.54 372.66,-114.31"/>
<polygon fill="#63b8ff" stroke="#63b8ff" points="307.26,-146.42 300.2,-154.32 310.64,-152.55 307.26,-146.42"/>
</a>
</g>
</g>
<!-- Node3 -->
<g id="Node000003" class="node">
<title>Node3</title>
<g id="a_Node000003"><a xlink:href="ProcessHmiInputs_8cpp.xhtml" target="_top" xlink:title=" ">
<polygon fill="white" stroke="#666666" points="134.5,-36.12 0,-36.12 0,-5.62 134.5,-5.62 134.5,-36.12"/>
<text text-anchor="start" x="8" y="-22.62" font-family="Helvetica,sans-Serif" font-size="10.00">lib/layer1_use_cases</text>
<text text-anchor="middle" x="67.25" y="-11.38" font-family="Helvetica,sans-Serif" font-size="10.00">/src/ProcessHmiInputs.cpp</text>
</a>
</g>
</g>
<!-- Node2&#45;&gt;Node3 -->
<g id="edge2_Node000002_Node000003" class="edge">
<title>Node2&#45;&gt;Node3</title>
<g id="a_edge2_Node000002_Node000003"><a xlink:title=" ">
<path fill="none" stroke="#63b8ff" d="M99.92,-73.44C92.21,-61.26 83.11,-46.9 76.48,-36.44"/>
<polygon fill="#63b8ff" stroke="#63b8ff" points="96.88,-75.17 105.18,-81.74 102.79,-71.42 96.88,-75.17"/>
</a>
</g>
</g>
<!-- Node4 -->
<g id="Node000004" class="node">
<title>Node4</title>
<g id="a_Node000004"><a xlink:href="main_8cpp.xhtml" target="_top" xlink:title=" ">
<polygon fill="white" stroke="#666666" points="224,-30.5 152.5,-30.5 152.5,-11.25 224,-11.25 224,-30.5"/>
<text text-anchor="middle" x="188.25" y="-17" font-family="Helvetica,sans-Serif" font-size="10.00">src/main.cpp</text>
</a>
</g>
</g>
<!-- Node2&#45;&gt;Node4 -->
<g id="edge3_Node000002_Node000004" class="edge">
<title>Node2&#45;&gt;Node4</title>
<g id="a_edge3_Node000002_Node000004"><a xlink:title=" ">
<path fill="none" stroke="#63b8ff" d="M137.24,-74.8C151.52,-59.99 169.34,-41.49 179.7,-30.75"/>
<polygon fill="#63b8ff" stroke="#63b8ff" points="134.79,-72.3 130.38,-81.93 139.83,-77.16 134.79,-72.3"/>
</a>
</g>
</g>
<!-- Node5&#45;&gt;Node4 -->
<g id="edge6_Node000005_Node000004" class="edge">
<title>Node5&#45;&gt;Node4</title>
<g id="a_edge6_Node000005_Node000004"><a xlink:title=" ">
<path fill="none" stroke="#63b8ff" d="M241.57,-69.96C226.37,-56.25 209.04,-40.62 198.37,-31"/>
<polygon fill="#63b8ff" stroke="#63b8ff" points="238.85,-72.21 248.62,-76.31 243.53,-67.02 238.85,-72.21"/>
</a>
</g>
</g>
<!-- Node6 -->
<g id="Node000006" class="node">
<title>Node6</title>
<g id="a_Node000006"><a xlink:href="controller__factory__interface_8cpp.xhtml" target="_top" xlink:title=" ">
<polygon fill="white" stroke="#666666" points="334.88,-41.75 241.62,-41.75 241.62,0 334.88,0 334.88,-41.75"/>
<text text-anchor="start" x="249.62" y="-28.25" font-family="Helvetica,sans-Serif" font-size="10.00">lib/layer2_hmi/src</text>
<text text-anchor="start" x="249.62" y="-17" font-family="Helvetica,sans-Serif" font-size="10.00">/controller_factory</text>
<text text-anchor="middle" x="288.25" y="-5.75" font-family="Helvetica,sans-Serif" font-size="10.00">_interface.cpp</text>
</a>
</g>
</g>
<!-- Node5&#45;&gt;Node6 -->
<g id="edge5_Node000005_Node000006" class="edge">
<title>Node5&#45;&gt;Node6</title>
<g id="a_edge5_Node000005_Node000006"><a xlink:title=" ">
<path fill="none" stroke="#63b8ff" d="M278.87,-66.28C280.59,-58.16 282.39,-49.62 283.95,-42.23"/>
<polygon fill="#63b8ff" stroke="#63b8ff" points="275.49,-65.34 276.85,-75.84 282.34,-66.78 275.49,-65.34"/>
</a>
</g>
</g>
<!-- Node7&#45;&gt;Node6 -->
<g id="edge9_Node000007_Node000006" class="edge">
<title>Node7&#45;&gt;Node6</title>
<g id="a_edge9_Node000007_Node000006"><a xlink:title=" ">
<path fill="none" stroke="#63b8ff" d="M368.52,-76.65C352.74,-65.89 333.61,-52.83 317.98,-42.16"/>
<polygon fill="#63b8ff" stroke="#63b8ff" points="366.37,-79.42 376.6,-82.17 370.31,-73.64 366.37,-79.42"/>
</a>
</g>
</g>
<!-- Node8 -->
<g id="Node000008" class="node">
<title>Node8</title>
<g id="a_Node000008"><a xlink:href="Controller_8cpp.xhtml" target="_top" xlink:title=" ">
<polygon fill="white" stroke="#666666" points="445.12,-36.12 353.38,-36.12 353.38,-5.62 445.12,-5.62 445.12,-36.12"/>
<text text-anchor="start" x="361.38" y="-22.62" font-family="Helvetica,sans-Serif" font-size="10.00">lib/layer2_hmi/src</text>
<text text-anchor="middle" x="399.25" y="-11.38" font-family="Helvetica,sans-Serif" font-size="10.00">/Controller.cpp</text>
</a>
</g>
</g>
<!-- Node7&#45;&gt;Node8 -->
<g id="edge8_Node000007_Node000008" class="edge">
<title>Node7&#45;&gt;Node8</title>
<g id="a_edge8_Node000007_Node000008"><a xlink:title=" ">
<path fill="none" stroke="#63b8ff" d="M399.25,-71.6C399.25,-59.84 399.25,-46.38 399.25,-36.44"/>
<polygon fill="#63b8ff" stroke="#63b8ff" points="395.75,-71.51 399.25,-81.51 402.75,-71.51 395.75,-71.51"/>
</a>
</g>
</g>
<!-- Node9 -->
<g id="Node000009" class="node">
<title>Node9</title>
<g id="a_Node000009"><a xlink:href="test__hmi_8cpp.xhtml" target="_top" xlink:title=" ">
<polygon fill="white" stroke="#666666" points="555.5,-36.12 463,-36.12 463,-5.62 555.5,-5.62 555.5,-36.12"/>
<text text-anchor="start" x="471" y="-22.62" font-family="Helvetica,sans-Serif" font-size="10.00">test/test_hmi/test</text>
<text text-anchor="middle" x="509.25" y="-11.38" font-family="Helvetica,sans-Serif" font-size="10.00">_hmi.cpp</text>
</a>
</g>
</g>
<!-- Node7&#45;&gt;Node9 -->
<g id="edge10_Node000007_Node000009" class="edge">
<title>Node7&#45;&gt;Node9</title>
<g id="a_edge10_Node000007_Node000009"><a xlink:title=" ">
<path fill="none" stroke="#63b8ff" d="M429.94,-76.49C448.47,-63.73 471.61,-47.79 488.11,-36.44"/>
<polygon fill="#63b8ff" stroke="#63b8ff" points="427.96,-73.61 421.71,-82.16 431.93,-79.37 427.96,-73.61"/>
</a>
</g>
</g>
</g>
</svg>
