<?xml version="1.0" encoding="UTF-8" standalone="no"?>
<!DOCTYPE svg PUBLIC "-//W3C//DTD SVG 1.1//EN"
 "http://www.w3.org/Graphics/SVG/1.1/DTD/svg11.dtd">
<!-- Generated by graphviz version 7.0.5 (20221223.1930)
 -->
<!-- Title: lib/application_business_rules/user_interaction/IDisplay.hpp Pages: 1 -->
<svg width="604pt" height="280pt"
 viewBox="0.00 0.00 604.00 280.00" xmlns="http://www.w3.org/2000/svg" xmlns:xlink="http://www.w3.org/1999/xlink">
<g id="graph0" class="graph" transform="scale(1 1) rotate(0) translate(4 276)">
<title>lib/application_business_rules/user_interaction/IDisplay.hpp</title>
<!-- Node1 -->
<g id="node1" class="node">
<title>Node1</title>
<g id="a_node1"><a xlink:title=" ">
<polygon fill="#999999" stroke="#666666" points="307,-272 187,-272 187,-231 307,-231 307,-272"/>
<text text-anchor="start" x="195" y="-260" font-family="Helvetica,sans-Serif" font-size="10.00">lib/application_business</text>
<text text-anchor="start" x="195" y="-249" font-family="Helvetica,sans-Serif" font-size="10.00">_rules/user_interaction</text>
<text text-anchor="middle" x="247" y="-238" font-family="Helvetica,sans-Serif" font-size="10.00">/IDisplay.hpp</text>
</a>
</g>
</g>
<!-- Node2 -->
<g id="node2" class="node">
<title>Node2</title>
<g id="a_node2"><a xlink:href="Display_8hpp.xhtml" target="_top" xlink:title=" ">
<polygon fill="white" stroke="#666666" points="156,-189.5 44,-189.5 44,-159.5 156,-159.5 156,-189.5"/>
<text text-anchor="start" x="52" y="-177.5" font-family="Helvetica,sans-Serif" font-size="10.00">lib/3rd_party_adapters</text>
<text text-anchor="middle" x="100" y="-166.5" font-family="Helvetica,sans-Serif" font-size="10.00">/LVGL/Display.hpp</text>
</a>
</g>
</g>
<!-- Node1&#45;&gt;Node2 -->
<g id="edge1" class="edge">
<title>Node1&#45;&gt;Node2</title>
<path fill="none" stroke="#63b8ff" d="M197.94,-225.47C174.68,-213.6 147.74,-199.85 128,-189.79"/>
<polygon fill="#63b8ff" stroke="#63b8ff" points="196.15,-228.48 206.64,-229.91 199.33,-222.25 196.15,-228.48"/>
</g>
<!-- Node5 -->
<g id="node5" class="node">
<title>Node5</title>
<g id="a_node5"><a xlink:href="Menu_8hpp.xhtml" target="_top" xlink:title=" ">
<polygon fill="white" stroke="#666666" points="458,-195 338,-195 338,-154 458,-154 458,-195"/>
<text text-anchor="start" x="346" y="-183" font-family="Helvetica,sans-Serif" font-size="10.00">lib/application_business</text>
<text text-anchor="start" x="346" y="-172" font-family="Helvetica,sans-Serif" font-size="10.00">_rules/user_interaction</text>
<text text-anchor="middle" x="398" y="-161" font-family="Helvetica,sans-Serif" font-size="10.00">/Menu.hpp</text>
</a>
</g>
</g>
<!-- Node1&#45;&gt;Node5 -->
<g id="edge4" class="edge">
<title>Node1&#45;&gt;Node5</title>
<path fill="none" stroke="#63b8ff" d="M297.37,-225.48C317.01,-215.73 339.2,-204.7 357.74,-195.49"/>
<polygon fill="#63b8ff" stroke="#63b8ff" points="295.82,-222.34 288.42,-229.92 298.94,-228.61 295.82,-222.34"/>
</g>
<!-- Node11 -->
<g id="node11" class="node">
<title>Node11</title>
<g id="a_node11"><a xlink:href="display__factory__interface_8hpp.xhtml" target="_top" xlink:title=" ">
<polygon fill="white" stroke="#666666" points="319.5,-195 174.5,-195 174.5,-154 319.5,-154 319.5,-195"/>
<text text-anchor="start" x="182.5" y="-183" font-family="Helvetica,sans-Serif" font-size="10.00">lib/application_business</text>
<text text-anchor="start" x="182.5" y="-172" font-family="Helvetica,sans-Serif" font-size="10.00">_rules/user_interaction</text>
<text text-anchor="middle" x="247" y="-161" font-family="Helvetica,sans-Serif" font-size="10.00">/display_factory_interface.hpp</text>
</a>
</g>
</g>
<!-- Node1&#45;&gt;Node11 -->
<g id="edge11" class="edge">
<title>Node1&#45;&gt;Node11</title>
<path fill="none" stroke="#63b8ff" d="M247,-219.36C247,-211.24 247,-202.7 247,-195.33"/>
<polygon fill="#63b8ff" stroke="#63b8ff" points="243.5,-219.28 247,-229.28 250.5,-219.28 243.5,-219.28"/>
</g>
<!-- Node3 -->
<g id="node3" class="node">
<title>Node3</title>
<g id="a_node3"><a xlink:href="Display_8cpp.xhtml" target="_top" xlink:title=" ">
<polygon fill="white" stroke="#666666" points="112,-112.5 0,-112.5 0,-82.5 112,-82.5 112,-112.5"/>
<text text-anchor="start" x="8" y="-100.5" font-family="Helvetica,sans-Serif" font-size="10.00">lib/3rd_party_adapters</text>
<text text-anchor="middle" x="56" y="-89.5" font-family="Helvetica,sans-Serif" font-size="10.00">/LVGL/Display.cpp</text>
</a>
</g>
</g>
<!-- Node2&#45;&gt;Node3 -->
<g id="edge2" class="edge">
<title>Node2&#45;&gt;Node3</title>
<path fill="none" stroke="#63b8ff" d="M85.74,-149.19C78.71,-137.21 70.48,-123.18 64.46,-112.92"/>
<polygon fill="#63b8ff" stroke="#63b8ff" points="82.67,-150.88 90.75,-157.73 88.71,-147.34 82.67,-150.88"/>
</g>
<!-- Node4 -->
<g id="node4" class="node">
<title>Node4</title>
<g id="a_node4"><a xlink:href="display__factory__interface_8cpp.xhtml" target="_top" xlink:title=" ">
<polygon fill="white" stroke="#666666" points="243.5,-118 130.5,-118 130.5,-77 243.5,-77 243.5,-118"/>
<text text-anchor="start" x="138.5" y="-106" font-family="Helvetica,sans-Serif" font-size="10.00">lib/3rd_party_adapters</text>
<text text-anchor="start" x="138.5" y="-95" font-family="Helvetica,sans-Serif" font-size="10.00">/LVGL/display_factory</text>
<text text-anchor="middle" x="187" y="-84" font-family="Helvetica,sans-Serif" font-size="10.00">_interface.cpp</text>
</a>
</g>
</g>
<!-- Node2&#45;&gt;Node4 -->
<g id="edge3" class="edge">
<title>Node2&#45;&gt;Node4</title>
<path fill="none" stroke="#63b8ff" d="M125.21,-151.77C137.46,-141.21 152.08,-128.6 164.03,-118.3"/>
<polygon fill="#63b8ff" stroke="#63b8ff" points="123.21,-148.87 117.92,-158.05 127.78,-154.17 123.21,-148.87"/>
</g>
<!-- Node6 -->
<g id="node6" class="node">
<title>Node6</title>
<g id="a_node6"><a xlink:href="Menu_8cpp.xhtml" target="_top" xlink:title=" ">
<polygon fill="white" stroke="#666666" points="596,-118 476,-118 476,-77 596,-77 596,-118"/>
<text text-anchor="start" x="484" y="-106" font-family="Helvetica,sans-Serif" font-size="10.00">lib/application_business</text>
<text text-anchor="start" x="484" y="-95" font-family="Helvetica,sans-Serif" font-size="10.00">_rules/user_interaction</text>
<text text-anchor="middle" x="536" y="-84" font-family="Helvetica,sans-Serif" font-size="10.00">/Menu.cpp</text>
</a>
</g>
</g>
<!-- Node5&#45;&gt;Node6 -->
<g id="edge5" class="edge">
<title>Node5&#45;&gt;Node6</title>
<path fill="none" stroke="#63b8ff" d="M444.28,-148.35C462.17,-138.63 482.34,-127.66 499.21,-118.49"/>
<polygon fill="#63b8ff" stroke="#63b8ff" points="443.06,-145.03 435.95,-152.88 446.41,-151.18 443.06,-145.03"/>
</g>
<!-- Node7 -->
<g id="node7" class="node">
<title>Node7</title>
<g id="a_node7"><a xlink:href="Presenter_8hpp.xhtml" target="_top" xlink:title=" ">
<polygon fill="white" stroke="#666666" points="458,-118 338,-118 338,-77 458,-77 458,-118"/>
<text text-anchor="start" x="346" y="-106" font-family="Helvetica,sans-Serif" font-size="10.00">lib/application_business</text>
<text text-anchor="start" x="346" y="-95" font-family="Helvetica,sans-Serif" font-size="10.00">_rules/user_interaction</text>
<text text-anchor="middle" x="398" y="-84" font-family="Helvetica,sans-Serif" font-size="10.00">/Presenter.hpp</text>
</a>
</g>
</g>
<!-- Node5&#45;&gt;Node7 -->
<g id="edge6" class="edge">
<title>Node5&#45;&gt;Node7</title>
<path fill="none" stroke="#63b8ff" d="M398,-142.36C398,-134.24 398,-125.7 398,-118.33"/>
<polygon fill="#63b8ff" stroke="#63b8ff" points="394.5,-142.28 398,-152.28 401.5,-142.28 394.5,-142.28"/>
</g>
<!-- Node10 -->
<g id="node10" class="node">
<title>Node10</title>
<g id="a_node10"><a xlink:href="main_8cpp.xhtml" target="_top" xlink:title=" ">
<polygon fill="white" stroke="#666666" points="320,-30 248,-30 248,-11 320,-11 320,-30"/>
<text text-anchor="middle" x="284" y="-18" font-family="Helvetica,sans-Serif" font-size="10.00">src/main.cpp</text>
</a>
</g>
</g>
<!-- Node5&#45;&gt;Node10 -->
<g id="edge10" class="edge">
<title>Node5&#45;&gt;Node10</title>
<path fill="none" stroke="#63b8ff" d="M358.42,-146.75C347.96,-138.4 337.29,-128.57 329,-118 306.76,-89.63 292.29,-48.49 286.66,-30.49"/>
<polygon fill="#63b8ff" stroke="#63b8ff" points="356.23,-149.48 366.29,-152.77 360.48,-143.92 356.23,-149.48"/>
</g>
<!-- Node8 -->
<g id="node8" class="node">
<title>Node8</title>
<g id="a_node8"><a xlink:href="Presenter_8cpp.xhtml" target="_top" xlink:title=" ">
<polygon fill="white" stroke="#666666" points="458,-41 338,-41 338,0 458,0 458,-41"/>
<text text-anchor="start" x="346" y="-29" font-family="Helvetica,sans-Serif" font-size="10.00">lib/application_business</text>
<text text-anchor="start" x="346" y="-18" font-family="Helvetica,sans-Serif" font-size="10.00">_rules/user_interaction</text>
<text text-anchor="middle" x="398" y="-7" font-family="Helvetica,sans-Serif" font-size="10.00">/Presenter.cpp</text>
</a>
</g>
</g>
<!-- Node7&#45;&gt;Node8 -->
<g id="edge7" class="edge">
<title>Node7&#45;&gt;Node8</title>
<path fill="none" stroke="#63b8ff" d="M398,-65.36C398,-57.24 398,-48.7 398,-41.33"/>
<polygon fill="#63b8ff" stroke="#63b8ff" points="394.5,-65.28 398,-75.28 401.5,-65.28 394.5,-65.28"/>
</g>
<!-- Node9 -->
<g id="node9" class="node">
<title>Node9</title>
<g id="a_node9"><a xlink:href="ProcessHmiInputs_8cpp.xhtml" target="_top" xlink:title=" ">
<polygon fill="white" stroke="#666666" points="596,-41 476,-41 476,0 596,0 596,-41"/>
<text text-anchor="start" x="484" y="-29" font-family="Helvetica,sans-Serif" font-size="10.00">lib/application_business</text>
<text text-anchor="start" x="484" y="-18" font-family="Helvetica,sans-Serif" font-size="10.00">_rules/user_interaction</text>
<text text-anchor="middle" x="536" y="-7" font-family="Helvetica,sans-Serif" font-size="10.00">/ProcessHmiInputs.cpp</text>
</a>
</g>
</g>
<!-- Node7&#45;&gt;Node9 -->
<g id="edge8" class="edge">
<title>Node7&#45;&gt;Node9</title>
<path fill="none" stroke="#63b8ff" d="M444.28,-71.35C462.17,-61.63 482.34,-50.66 499.21,-41.49"/>
<polygon fill="#63b8ff" stroke="#63b8ff" points="443.06,-68.03 435.95,-75.88 446.41,-74.18 443.06,-68.03"/>
</g>
<!-- Node7&#45;&gt;Node10 -->
<g id="edge9" class="edge">
<title>Node7&#45;&gt;Node10</title>
<path fill="none" stroke="#63b8ff" d="M358.31,-70.39C337.13,-56.45 312.42,-40.2 297.5,-30.38"/>
<polygon fill="#63b8ff" stroke="#63b8ff" points="356.21,-73.19 366.48,-75.77 360.05,-67.35 356.21,-73.19"/>
</g>
<!-- Node11&#45;&gt;Node4 -->
<g id="edge12" class="edge">
<title>Node11&#45;&gt;Node4</title>
<path fill="none" stroke="#63b8ff" d="M224.12,-144.9C217.03,-136.04 209.37,-126.47 202.87,-118.33"/>
<polygon fill="#63b8ff" stroke="#63b8ff" points="221.31,-146.99 230.29,-152.61 226.78,-142.62 221.31,-146.99"/>
</g>
<!-- Node11&#45;&gt;Node10 -->
<g id="edge13" class="edge">
<title>Node11&#45;&gt;Node10</title>
<path fill="none" stroke="#63b8ff" d="M254.55,-142.49C263.16,-107.12 276.71,-51.44 281.89,-30.16"/>
<polygon fill="#63b8ff" stroke="#63b8ff" points="251.16,-141.61 252.2,-152.16 257.96,-143.27 251.16,-141.61"/>
</g>
</g>
</svg>
