<?xml version="1.0" encoding="UTF-8" standalone="no"?>
<!DOCTYPE svg PUBLIC "-//W3C//DTD SVG 1.1//EN"
 "http://www.w3.org/Graphics/SVG/1.1/DTD/svg11.dtd">
<!-- Generated by graphviz version 9.0.0 (20230911.1827)
 -->
<!-- Title: lib/layer2_hmi/include/IDisplay.hpp Pages: 1 -->
<svg width="559pt" height="272pt"
 viewBox="0.00 0.00 559.00 271.75" xmlns="http://www.w3.org/2000/svg" xmlns:xlink="http://www.w3.org/1999/xlink">
<g id="graph0" class="graph" transform="scale(1 1) rotate(0) translate(4 267.75)">
<title>lib/layer2_hmi/include/IDisplay.hpp</title>
<!-- Node1 -->
<g id="Node000001" class="node">
<title>Node1</title>
<g id="a_Node000001"><a xlink:title=" ">
<polygon fill="#999999" stroke="#666666" points="265.62,-263.75 156.62,-263.75 156.62,-233.25 265.62,-233.25 265.62,-263.75"/>
<text text-anchor="start" x="164.62" y="-250.25" font-family="Helvetica,sans-Serif" font-size="10.00">lib/layer2_hmi/include</text>
<text text-anchor="middle" x="211.12" y="-239" font-family="Helvetica,sans-Serif" font-size="10.00">/IDisplay.hpp</text>
</a>
</g>
</g>
<!-- Node2 -->
<g id="Node000002" class="node">
<title>Node2</title>
<g id="a_Node000002"><a xlink:href="display__factory__interface_8hpp.xhtml" target="_top" xlink:title=" ">
<polygon fill="white" stroke="#666666" points="144.25,-191.62 0,-191.62 0,-161.12 144.25,-161.12 144.25,-191.62"/>
<text text-anchor="start" x="8" y="-178.12" font-family="Helvetica,sans-Serif" font-size="10.00">lib/layer2_hmi/include</text>
<text text-anchor="middle" x="72.12" y="-166.88" font-family="Helvetica,sans-Serif" font-size="10.00">/display_factory_interface.hpp</text>
</a>
</g>
</g>
<!-- Node1&#45;&gt;Node2 -->
<g id="edge1_Node000001_Node000002" class="edge">
<title>Node1&#45;&gt;Node2</title>
<g id="a_edge1_Node000001_Node000002"><a xlink:title=" ">
<path fill="none" stroke="#63b8ff" d="M171.77,-227.64C149.33,-216.32 121.7,-202.38 101.23,-192.06"/>
<polygon fill="#63b8ff" stroke="#63b8ff" points="170.13,-230.74 180.63,-232.12 173.28,-224.49 170.13,-230.74"/>
</a>
</g>
</g>
<!-- Node5 -->
<g id="Node000005" class="node">
<title>Node5</title>
<g id="a_Node000005"><a xlink:href="Menu_8hpp.xhtml" target="_top" xlink:title=" ">
<polygon fill="white" stroke="#666666" points="407,-191.62 315.25,-191.62 315.25,-161.12 407,-161.12 407,-191.62"/>
<text text-anchor="start" x="323.25" y="-178.12" font-family="Helvetica,sans-Serif" font-size="10.00">lib/layer2_hmi/src</text>
<text text-anchor="middle" x="361.12" y="-166.88" font-family="Helvetica,sans-Serif" font-size="10.00">/Menu.hpp</text>
</a>
</g>
</g>
<!-- Node1&#45;&gt;Node5 -->
<g id="edge4_Node000001_Node000005" class="edge">
<title>Node1&#45;&gt;Node5</title>
<g id="a_edge4_Node000001_Node000005"><a xlink:title=" ">
<path fill="none" stroke="#63b8ff" d="M252.94,-227.95C277.27,-216.58 307.43,-202.48 329.72,-192.06"/>
<polygon fill="#63b8ff" stroke="#63b8ff" points="251.52,-224.75 243.94,-232.16 254.48,-231.09 251.52,-224.75"/>
</a>
</g>
</g>
<!-- Node9 -->
<g id="Node000009" class="node">
<title>Node9</title>
<g id="a_Node000009"><a xlink:href="Display_8hpp.xhtml" target="_top" xlink:title=" ">
<polygon fill="white" stroke="#666666" points="260,-197.25 162.25,-197.25 162.25,-155.5 260,-155.5 260,-197.25"/>
<text text-anchor="start" x="170.25" y="-183.75" font-family="Helvetica,sans-Serif" font-size="10.00">lib/layer4_drivers</text>
<text text-anchor="start" x="170.25" y="-172.5" font-family="Helvetica,sans-Serif" font-size="10.00">_libraries_adapters</text>
<text text-anchor="middle" x="211.12" y="-161.25" font-family="Helvetica,sans-Serif" font-size="10.00">/src/Display.hpp</text>
</a>
</g>
</g>
<!-- Node1&#45;&gt;Node9 -->
<g id="edge10_Node000001_Node000009" class="edge">
<title>Node1&#45;&gt;Node9</title>
<g id="a_edge10_Node000001_Node000009"><a xlink:title=" ">
<path fill="none" stroke="#63b8ff" d="M211.12,-221.72C211.12,-213.81 211.12,-205.23 211.12,-197.74"/>
<polygon fill="#63b8ff" stroke="#63b8ff" points="207.63,-221.46 211.13,-231.46 214.63,-221.46 207.63,-221.46"/>
</a>
</g>
</g>
<!-- Node3 -->
<g id="Node000003" class="node">
<title>Node3</title>
<g id="a_Node000003"><a xlink:href="presenter__factory__interface_8cpp.xhtml" target="_top" xlink:title=" ">
<polygon fill="white" stroke="#666666" points="441.5,-30.5 286.75,-30.5 286.75,0 441.5,0 441.5,-30.5"/>
<text text-anchor="start" x="294.75" y="-17" font-family="Helvetica,sans-Serif" font-size="10.00">lib/layer2_hmi/src</text>
<text text-anchor="middle" x="364.12" y="-5.75" font-family="Helvetica,sans-Serif" font-size="10.00">/presenter_factory_interface.cpp</text>
</a>
</g>
</g>
<!-- Node2&#45;&gt;Node3 -->
<g id="edge2_Node000002_Node000003" class="edge">
<title>Node2&#45;&gt;Node3</title>
<g id="a_edge2_Node000002_Node000003"><a xlink:title=" ">
<path fill="none" stroke="#63b8ff" d="M52.15,-151.84C34.36,-127.91 14.11,-90.97 35.12,-66.5 66.89,-29.52 199.73,-19.46 286.6,-16.89"/>
<polygon fill="#63b8ff" stroke="#63b8ff" points="49.16,-153.7 58.08,-159.43 54.68,-149.4 49.16,-153.7"/>
</a>
</g>
</g>
<!-- Node4 -->
<g id="Node000004" class="node">
<title>Node4</title>
<g id="a_Node000004"><a xlink:href="display__factory__interface_8cpp.xhtml" target="_top" xlink:title=" ">
<polygon fill="white" stroke="#666666" points="144.12,-119.5 44.12,-119.5 44.12,-66.5 144.12,-66.5 144.12,-119.5"/>
<text text-anchor="start" x="52.12" y="-106" font-family="Helvetica,sans-Serif" font-size="10.00">lib/layer4_drivers</text>
<text text-anchor="start" x="52.12" y="-94.75" font-family="Helvetica,sans-Serif" font-size="10.00">_libraries_adapters</text>
<text text-anchor="start" x="52.12" y="-83.5" font-family="Helvetica,sans-Serif" font-size="10.00">/src/display_factory</text>
<text text-anchor="middle" x="94.12" y="-72.25" font-family="Helvetica,sans-Serif" font-size="10.00">_interface.cpp</text>
</a>
</g>
</g>
<!-- Node2&#45;&gt;Node4 -->
<g id="edge3_Node000002_Node000004" class="edge">
<title>Node2&#45;&gt;Node4</title>
<g id="a_edge3_Node000002_Node000004"><a xlink:title=" ">
<path fill="none" stroke="#63b8ff" d="M78.99,-149.99C81.57,-140.43 84.51,-129.55 87.11,-119.94"/>
<polygon fill="#63b8ff" stroke="#63b8ff" points="75.68,-148.8 76.45,-159.37 82.44,-150.63 75.68,-148.8"/>
</a>
</g>
</g>
<!-- Node5&#45;&gt;Node3 -->
<g id="edge9_Node000005_Node000003" class="edge">
<title>Node5&#45;&gt;Node3</title>
<g id="a_edge9_Node000005_Node000003"><a xlink:title=" ">
<path fill="none" stroke="#63b8ff" d="M371.04,-150.3C374.3,-140.81 377.51,-129.81 379.12,-119.5 382.78,-96.23 382.53,-89.81 379.12,-66.5 377.34,-54.25 373.21,-40.83 369.74,-30.95"/>
<polygon fill="#63b8ff" stroke="#63b8ff" points="367.8,-148.96 367.66,-159.55 374.38,-151.36 367.8,-148.96"/>
</a>
</g>
</g>
<!-- Node6 -->
<g id="Node000006" class="node">
<title>Node6</title>
<g id="a_Node000006"><a xlink:href="Menu_8cpp.xhtml" target="_top" xlink:title=" ">
<polygon fill="white" stroke="#666666" points="370,-108.25 278.25,-108.25 278.25,-77.75 370,-77.75 370,-108.25"/>
<text text-anchor="start" x="286.25" y="-94.75" font-family="Helvetica,sans-Serif" font-size="10.00">lib/layer2_hmi/src</text>
<text text-anchor="middle" x="324.12" y="-83.5" font-family="Helvetica,sans-Serif" font-size="10.00">/Menu.cpp</text>
</a>
</g>
</g>
<!-- Node5&#45;&gt;Node6 -->
<g id="edge5_Node000005_Node000006" class="edge">
<title>Node5&#45;&gt;Node6</title>
<g id="a_edge5_Node000005_Node000006"><a xlink:title=" ">
<path fill="none" stroke="#63b8ff" d="M349.86,-150.6C343.63,-136.91 336.11,-120.35 330.81,-108.7"/>
<polygon fill="#63b8ff" stroke="#63b8ff" points="346.56,-151.79 353.88,-159.45 352.93,-148.9 346.56,-151.79"/>
</a>
</g>
</g>
<!-- Node7 -->
<g id="Node000007" class="node">
<title>Node7</title>
<g id="a_Node000007"><a xlink:href="Presenter_8hpp.xhtml" target="_top" xlink:title=" ">
<polygon fill="white" stroke="#666666" points="518,-108.25 426.25,-108.25 426.25,-77.75 518,-77.75 518,-108.25"/>
<text text-anchor="start" x="434.25" y="-94.75" font-family="Helvetica,sans-Serif" font-size="10.00">lib/layer2_hmi/src</text>
<text text-anchor="middle" x="472.12" y="-83.5" font-family="Helvetica,sans-Serif" font-size="10.00">/Presenter.hpp</text>
</a>
</g>
</g>
<!-- Node5&#45;&gt;Node7 -->
<g id="edge6_Node000005_Node000007" class="edge">
<title>Node5&#45;&gt;Node7</title>
<g id="a_edge6_Node000005_Node000007"><a xlink:title=" ">
<path fill="none" stroke="#63b8ff" d="M390.29,-154C409.78,-139.7 434.93,-121.27 452.17,-108.63"/>
<polygon fill="#63b8ff" stroke="#63b8ff" points="388.44,-151.01 382.45,-159.74 392.58,-156.65 388.44,-151.01"/>
</a>
</g>
</g>
<!-- Node7&#45;&gt;Node3 -->
<g id="edge8_Node000007_Node000003" class="edge">
<title>Node7&#45;&gt;Node3</title>
<g id="a_edge8_Node000007_Node000003"><a xlink:title=" ">
<path fill="none" stroke="#63b8ff" d="M441.99,-70.87C423.8,-58.1 401.08,-42.17 384.88,-30.81"/>
<polygon fill="#63b8ff" stroke="#63b8ff" points="439.87,-73.65 450.06,-76.53 443.89,-67.92 439.87,-73.65"/>
</a>
</g>
</g>
<!-- Node8 -->
<g id="Node000008" class="node">
<title>Node8</title>
<g id="a_Node000008"><a xlink:href="Presenter_8cpp.xhtml" target="_top" xlink:title=" ">
<polygon fill="white" stroke="#666666" points="551,-30.5 459.25,-30.5 459.25,0 551,0 551,-30.5"/>
<text text-anchor="start" x="467.25" y="-17" font-family="Helvetica,sans-Serif" font-size="10.00">lib/layer2_hmi/src</text>
<text text-anchor="middle" x="505.12" y="-5.75" font-family="Helvetica,sans-Serif" font-size="10.00">/Presenter.cpp</text>
</a>
</g>
</g>
<!-- Node7&#45;&gt;Node8 -->
<g id="edge7_Node000007_Node000008" class="edge">
<title>Node7&#45;&gt;Node8</title>
<g id="a_edge7_Node000007_Node000008"><a xlink:title=" ">
<path fill="none" stroke="#63b8ff" d="M482.98,-67.08C488.22,-55.06 494.31,-41.07 498.78,-30.81"/>
<polygon fill="#63b8ff" stroke="#63b8ff" points="479.88,-65.44 479.09,-76.01 486.29,-68.24 479.88,-65.44"/>
</a>
</g>
</g>
<!-- Node9&#45;&gt;Node4 -->
<g id="edge12_Node000009_Node000004" class="edge">
<title>Node9&#45;&gt;Node4</title>
<g id="a_edge12_Node000009_Node000004"><a xlink:title=" ">
<path fill="none" stroke="#63b8ff" d="M172.57,-148.56C159.32,-139.35 144.52,-129.05 131.37,-119.91"/>
<polygon fill="#63b8ff" stroke="#63b8ff" points="170.45,-151.35 180.66,-154.19 174.45,-145.6 170.45,-151.35"/>
</a>
</g>
</g>
<!-- Node10 -->
<g id="Node000010" class="node">
<title>Node10</title>
<g id="a_Node000010"><a xlink:href="Display_8cpp.xhtml" target="_top" xlink:title=" ">
<polygon fill="white" stroke="#666666" points="260,-113.88 162.25,-113.88 162.25,-72.12 260,-72.12 260,-113.88"/>
<text text-anchor="start" x="170.25" y="-100.38" font-family="Helvetica,sans-Serif" font-size="10.00">lib/layer4_drivers</text>
<text text-anchor="start" x="170.25" y="-89.12" font-family="Helvetica,sans-Serif" font-size="10.00">_libraries_adapters</text>
<text text-anchor="middle" x="211.12" y="-77.88" font-family="Helvetica,sans-Serif" font-size="10.00">/src/Display.cpp</text>
</a>
</g>
</g>
<!-- Node9&#45;&gt;Node10 -->
<g id="edge11_Node000009_Node000010" class="edge">
<title>Node9&#45;&gt;Node10</title>
<g id="a_edge11_Node000009_Node000010"><a xlink:title=" ">
<path fill="none" stroke="#63b8ff" d="M211.12,-144.02C211.12,-133.99 211.12,-123.17 211.12,-114.17"/>
<polygon fill="#63b8ff" stroke="#63b8ff" points="207.63,-143.75 211.13,-153.75 214.63,-143.75 207.63,-143.75"/>
</a>
</g>
</g>
</g>
</svg>
