<?xml version="1.0" encoding="UTF-8" standalone="no"?>
<!DOCTYPE svg PUBLIC "-//W3C//DTD SVG 1.1//EN"
 "http://www.w3.org/Graphics/SVG/1.1/DTD/svg11.dtd">
<!-- Generated by graphviz version 7.0.5 (20221223.1930)
 -->
<!-- Title: lib/application_business_rules/user_interaction/IKeypad.hpp Pages: 1 -->
<svg width="547pt" height="203pt"
 viewBox="0.00 0.00 546.50 203.00" xmlns="http://www.w3.org/2000/svg" xmlns:xlink="http://www.w3.org/1999/xlink">
<g id="graph0" class="graph" transform="scale(1 1) rotate(0) translate(4 199)">
<title>lib/application_business_rules/user_interaction/IKeypad.hpp</title>
<!-- Node1 -->
<g id="node1" class="node">
<title>Node1</title>
<g id="a_node1"><a xlink:title=" ">
<polygon fill="#999999" stroke="#666666" points="346,-195 226,-195 226,-154 346,-154 346,-195"/>
<text text-anchor="start" x="234" y="-183" font-family="Helvetica,sans-Serif" font-size="10.00">lib/application_business</text>
<text text-anchor="start" x="234" y="-172" font-family="Helvetica,sans-Serif" font-size="10.00">_rules/user_interaction</text>
<text text-anchor="middle" x="286" y="-161" font-family="Helvetica,sans-Serif" font-size="10.00">/IKeypad.hpp</text>
</a>
</g>
</g>
<!-- Node2 -->
<g id="node2" class="node">
<title>Node2</title>
<g id="a_node2"><a xlink:href="ProcessHmiInputs_8cpp.xhtml" target="_top" xlink:title=" ">
<polygon fill="white" stroke="#666666" points="120,-118 0,-118 0,-77 120,-77 120,-118"/>
<text text-anchor="start" x="8" y="-106" font-family="Helvetica,sans-Serif" font-size="10.00">lib/application_business</text>
<text text-anchor="start" x="8" y="-95" font-family="Helvetica,sans-Serif" font-size="10.00">_rules/user_interaction</text>
<text text-anchor="middle" x="60" y="-84" font-family="Helvetica,sans-Serif" font-size="10.00">/ProcessHmiInputs.cpp</text>
</a>
</g>
</g>
<!-- Node1&#45;&gt;Node2 -->
<g id="edge1" class="edge">
<title>Node1&#45;&gt;Node2</title>
<path fill="none" stroke="#63b8ff" d="M215.45,-150.09C184.91,-139.95 149.53,-128.21 120.25,-118.49"/>
<polygon fill="#63b8ff" stroke="#63b8ff" points="214,-153.29 224.59,-153.12 216.2,-146.65 214,-153.29"/>
</g>
<!-- Node3 -->
<g id="node3" class="node">
<title>Node3</title>
<g id="a_node3"><a xlink:href="keypad__factory__interface_8hpp.xhtml" target="_top" xlink:title=" ">
<polygon fill="white" stroke="#666666" points="284,-118 138,-118 138,-77 284,-77 284,-118"/>
<text text-anchor="start" x="146" y="-106" font-family="Helvetica,sans-Serif" font-size="10.00">lib/application_business</text>
<text text-anchor="start" x="146" y="-95" font-family="Helvetica,sans-Serif" font-size="10.00">_rules/user_interaction</text>
<text text-anchor="middle" x="211" y="-84" font-family="Helvetica,sans-Serif" font-size="10.00">/keypad_factory_interface.hpp</text>
</a>
</g>
</g>
<!-- Node1&#45;&gt;Node3 -->
<g id="edge2" class="edge">
<title>Node1&#45;&gt;Node3</title>
<path fill="none" stroke="#63b8ff" d="M258.24,-145.74C249.14,-136.64 239.22,-126.72 230.83,-118.33"/>
<polygon fill="#63b8ff" stroke="#63b8ff" points="255.68,-148.13 265.22,-152.72 260.63,-143.18 255.68,-148.13"/>
</g>
<!-- Node6 -->
<g id="node6" class="node">
<title>Node6</title>
<g id="a_node6"><a xlink:href="Keypad_8hpp.xhtml" target="_top" xlink:title=" ">
<polygon fill="white" stroke="#666666" points="419.5,-118 302.5,-118 302.5,-77 419.5,-77 419.5,-118"/>
<text text-anchor="start" x="310.5" y="-106" font-family="Helvetica,sans-Serif" font-size="10.00">lib/board_adapters</text>
<text text-anchor="start" x="310.5" y="-95" font-family="Helvetica,sans-Serif" font-size="10.00">/input_device_interface</text>
<text text-anchor="middle" x="361" y="-84" font-family="Helvetica,sans-Serif" font-size="10.00">/Keypad.hpp</text>
</a>
</g>
</g>
<!-- Node1&#45;&gt;Node6 -->
<g id="edge5" class="edge">
<title>Node1&#45;&gt;Node6</title>
<path fill="none" stroke="#63b8ff" d="M313.76,-145.74C322.86,-136.64 332.78,-126.72 341.17,-118.33"/>
<polygon fill="#63b8ff" stroke="#63b8ff" points="311.37,-143.18 306.78,-152.72 316.32,-148.13 311.37,-143.18"/>
</g>
<!-- Node9 -->
<g id="node9" class="node">
<title>Node9</title>
<g id="a_node9"><a xlink:href="test__hmi_8cpp.xhtml" target="_top" xlink:title=" ">
<polygon fill="white" stroke="#666666" points="530.5,-112.5 437.5,-112.5 437.5,-82.5 530.5,-82.5 530.5,-112.5"/>
<text text-anchor="start" x="445.5" y="-100.5" font-family="Helvetica,sans-Serif" font-size="10.00">test/test_hmi/test</text>
<text text-anchor="middle" x="484" y="-89.5" font-family="Helvetica,sans-Serif" font-size="10.00">_hmi.cpp</text>
</a>
</g>
</g>
<!-- Node1&#45;&gt;Node9 -->
<g id="edge9" class="edge">
<title>Node1&#45;&gt;Node9</title>
<path fill="none" stroke="#63b8ff" d="M349.1,-149.6C380.97,-137.53 418.58,-123.28 445.97,-112.9"/>
<polygon fill="#63b8ff" stroke="#63b8ff" points="348.07,-146.25 339.96,-153.06 350.55,-152.79 348.07,-146.25"/>
</g>
<!-- Node4 -->
<g id="node4" class="node">
<title>Node4</title>
<g id="a_node4"><a xlink:href="keypad__factory__interface_8cpp.xhtml" target="_top" xlink:title=" ">
<polygon fill="white" stroke="#666666" points="284,-41 138,-41 138,0 284,0 284,-41"/>
<text text-anchor="start" x="146" y="-29" font-family="Helvetica,sans-Serif" font-size="10.00">lib/board_adapters</text>
<text text-anchor="start" x="146" y="-18" font-family="Helvetica,sans-Serif" font-size="10.00">/input_device_interface</text>
<text text-anchor="middle" x="211" y="-7" font-family="Helvetica,sans-Serif" font-size="10.00">/keypad_factory_interface.cpp</text>
</a>
</g>
</g>
<!-- Node3&#45;&gt;Node4 -->
<g id="edge3" class="edge">
<title>Node3&#45;&gt;Node4</title>
<path fill="none" stroke="#63b8ff" d="M211,-65.36C211,-57.24 211,-48.7 211,-41.33"/>
<polygon fill="#63b8ff" stroke="#63b8ff" points="207.5,-65.28 211,-75.28 214.5,-65.28 207.5,-65.28"/>
</g>
<!-- Node5 -->
<g id="node5" class="node">
<title>Node5</title>
<g id="a_node5"><a xlink:href="main_8cpp.xhtml" target="_top" xlink:title=" ">
<polygon fill="white" stroke="#666666" points="120,-30 48,-30 48,-11 120,-11 120,-30"/>
<text text-anchor="middle" x="84" y="-18" font-family="Helvetica,sans-Serif" font-size="10.00">src/main.cpp</text>
</a>
</g>
</g>
<!-- Node3&#45;&gt;Node5 -->
<g id="edge4" class="edge">
<title>Node3&#45;&gt;Node5</title>
<path fill="none" stroke="#63b8ff" d="M167.42,-70.77C143.68,-56.75 115.81,-40.29 99.04,-30.38"/>
<polygon fill="#63b8ff" stroke="#63b8ff" points="165.61,-73.76 176,-75.83 169.17,-67.73 165.61,-73.76"/>
</g>
<!-- Node6&#45;&gt;Node4 -->
<g id="edge7" class="edge">
<title>Node6&#45;&gt;Node4</title>
<path fill="none" stroke="#63b8ff" d="M310.96,-71.48C291.46,-61.73 269.41,-50.7 250.99,-41.49"/>
<polygon fill="#63b8ff" stroke="#63b8ff" points="309.33,-74.58 319.84,-75.92 312.46,-68.32 309.33,-74.58"/>
</g>
<!-- Node7 -->
<g id="node7" class="node">
<title>Node7</title>
<g id="a_node7"><a xlink:href="Keypad_8cpp.xhtml" target="_top" xlink:title=" ">
<polygon fill="white" stroke="#666666" points="419.5,-41 302.5,-41 302.5,0 419.5,0 419.5,-41"/>
<text text-anchor="start" x="310.5" y="-29" font-family="Helvetica,sans-Serif" font-size="10.00">lib/board_adapters</text>
<text text-anchor="start" x="310.5" y="-18" font-family="Helvetica,sans-Serif" font-size="10.00">/input_device_interface</text>
<text text-anchor="middle" x="361" y="-7" font-family="Helvetica,sans-Serif" font-size="10.00">/Keypad.cpp</text>
</a>
</g>
</g>
<!-- Node6&#45;&gt;Node7 -->
<g id="edge6" class="edge">
<title>Node6&#45;&gt;Node7</title>
<path fill="none" stroke="#63b8ff" d="M361,-65.36C361,-57.24 361,-48.7 361,-41.33"/>
<polygon fill="#63b8ff" stroke="#63b8ff" points="357.5,-65.28 361,-75.28 364.5,-65.28 357.5,-65.28"/>
</g>
<!-- Node8 -->
<g id="node8" class="node">
<title>Node8</title>
<g id="a_node8"><a xlink:href="test__board_8cpp.xhtml" target="_top" xlink:title=" ">
<polygon fill="white" stroke="#666666" points="538.5,-35.5 437.5,-35.5 437.5,-5.5 538.5,-5.5 538.5,-35.5"/>
<text text-anchor="start" x="445.5" y="-23.5" font-family="Helvetica,sans-Serif" font-size="10.00">test/test_board/test</text>
<text text-anchor="middle" x="488" y="-12.5" font-family="Helvetica,sans-Serif" font-size="10.00">_board.cpp</text>
</a>
</g>
</g>
<!-- Node6&#45;&gt;Node8 -->
<g id="edge8" class="edge">
<title>Node6&#45;&gt;Node8</title>
<path fill="none" stroke="#63b8ff" d="M404.47,-70.83C424.31,-59.11 447.07,-45.67 463.81,-35.79"/>
<polygon fill="#63b8ff" stroke="#63b8ff" points="402.83,-67.73 396,-75.83 406.39,-73.76 402.83,-67.73"/>
</g>
</g>
</svg>
