<?xml version="1.0" encoding="UTF-8" standalone="no"?>
<!DOCTYPE svg PUBLIC "-//W3C//DTD SVG 1.1//EN"
 "http://www.w3.org/Graphics/SVG/1.1/DTD/svg11.dtd">
<!-- Generated by graphviz version 9.0.0 (20230911.1827)
 -->
<!-- Title: Graphical Class Hierarchy Pages: 1 -->
<svg width="267pt" height="64pt"
 viewBox="0.00 0.00 267.25 64.25" xmlns="http://www.w3.org/2000/svg" xmlns:xlink="http://www.w3.org/1999/xlink">
<g id="graph0" class="graph" transform="scale(1 1) rotate(0) translate(4 60.25)">
<title>Graphical Class Hierarchy</title>
<!-- Node0 -->
<g id="Node000000" class="node">
<title>Node0</title>
<g id="a_Node000000"><a xlink:href="classIStatusIndicator.xhtml" target="_top" xlink:title=" ">
<polygon fill="white" stroke="#666666" points="85,-37.25 0,-37.25 0,-18 85,-18 85,-37.25"/>
<text text-anchor="middle" x="42.5" y="-23.75" font-family="Helvetica,sans-Serif" font-size="10.00">IStatusIndicator</text>
</a>
</g>
</g>
<!-- Node1 -->
<g id="Node000001" class="node">
<title>Node1</title>
<g id="a_Node000001"><a xlink:href="classLedStatusIndicator.xhtml" target="_top" xlink:title=" ">
<polygon fill="white" stroke="#666666" points="239.38,-56.25 140.88,-56.25 140.88,-37 239.38,-37 239.38,-56.25"/>
<text text-anchor="middle" x="190.12" y="-42.75" font-family="Helvetica,sans-Serif" font-size="10.00">LedStatusIndicator</text>
</a>
</g>
</g>
<!-- Node0&#45;&gt;Node1 -->
<g id="edge7_Node000000_Node000001" class="edge">
<title>Node0&#45;&gt;Node1</title>
<g id="a_edge7_Node000000_Node000001"><a xlink:title=" ">
<path fill="none" stroke="#63b8ff" d="M96.47,-34.54C110.84,-36.41 126.32,-38.43 140.44,-40.27"/>
<polygon fill="#63b8ff" stroke="#63b8ff" points="97.1,-31.09 86.73,-33.27 96.19,-38.03 97.1,-31.09"/>
</a>
</g>
</g>
<!-- Node2 -->
<g id="Node000002" class="node">
<title>Node2</title>
<g id="a_Node000002"><a xlink:href="classShiftRegisterStatusIndicator.xhtml" target="_top" xlink:title=" ">
<polygon fill="white" stroke="#666666" points="259.25,-19.25 121,-19.25 121,0 259.25,0 259.25,-19.25"/>
<text text-anchor="middle" x="190.12" y="-5.75" font-family="Helvetica,sans-Serif" font-size="10.00">ShiftRegisterStatusIndicator</text>
</a>
</g>
</g>
<!-- Node0&#45;&gt;Node2 -->
<g id="edge8_Node000000_Node000002" class="edge">
<title>Node0&#45;&gt;Node2</title>
<g id="a_edge8_Node000000_Node000002"><a xlink:title=" ">
<path fill="none" stroke="#63b8ff" d="M96.49,-21.08C104.37,-20.1 112.58,-19.09 120.72,-18.08"/>
<polygon fill="#63b8ff" stroke="#63b8ff" points="96.23,-17.58 86.73,-22.28 97.09,-24.53 96.23,-17.58"/>
</a>
</g>
</g>
</g>
</svg>
