<?xml version="1.0" encoding="UTF-8" standalone="no"?>
<!DOCTYPE svg PUBLIC "-//W3C//DTD SVG 1.1//EN"
 "http://www.w3.org/Graphics/SVG/1.1/DTD/svg11.dtd">
<!-- Generated by graphviz version 9.0.0 (20230911.1827)
 -->
<!-- Title: lib/layer4_drivers_libraries_adapters/src/InputShiftRegister.hpp Pages: 1 -->
<svg width="299pt" height="160pt"
 viewBox="0.00 0.00 299.00 160.25" xmlns="http://www.w3.org/2000/svg" xmlns:xlink="http://www.w3.org/1999/xlink">
<g id="graph0" class="graph" transform="scale(1 1) rotate(0) translate(4 156.25)">
<title>lib/layer4_drivers_libraries_adapters/src/InputShiftRegister.hpp</title>
<!-- Node1 -->
<g id="Node000001" class="node">
<title>Node1</title>
<g id="a_Node000001"><a xlink:title=" ">
<polygon fill="#999999" stroke="#666666" points="237.25,-152.25 105.75,-152.25 105.75,-110.5 237.25,-110.5 237.25,-152.25"/>
<text text-anchor="start" x="113.75" y="-138.75" font-family="Helvetica,sans-Serif" font-size="10.00">lib/layer4_drivers</text>
<text text-anchor="start" x="113.75" y="-127.5" font-family="Helvetica,sans-Serif" font-size="10.00">_libraries_adapters</text>
<text text-anchor="middle" x="171.5" y="-116.25" font-family="Helvetica,sans-Serif" font-size="10.00">/src/InputShiftRegister.hpp</text>
</a>
</g>
</g>
<!-- Node2 -->
<g id="Node000002" class="node">
<title>Node2</title>
<g id="a_Node000002"><a xlink:href="IInputShiftRegister_8hpp.xhtml" target="_top" xlink:title=" ">
<polygon fill="white" stroke="#666666" points="115,-74.5 0,-74.5 0,-55.25 115,-55.25 115,-74.5"/>
<text text-anchor="middle" x="57.5" y="-61" font-family="Helvetica,sans-Serif" font-size="10.00">IInputShiftRegister.hpp</text>
</a>
</g>
</g>
<!-- Node1&#45;&gt;Node2 -->
<g id="edge1_Node000001_Node000002" class="edge">
<title>Node1&#45;&gt;Node2</title>
<g id="a_edge1_Node000001_Node000002"><a xlink:title=" ">
<path fill="none" stroke="#63b8ff" d="M135.74,-110.14C118.77,-100.54 98.85,-89.27 83.37,-80.51"/>
<polygon fill="#63b8ff" stroke="#63b8ff" points="85.19,-77.52 74.76,-75.64 81.74,-83.61 85.19,-77.52"/>
</a>
</g>
</g>
<!-- Node4 -->
<g id="Node000004" class="node">
<title>Node4</title>
<g id="a_Node000004"><a xlink:title=" ">
<polygon fill="#e0e0e0" stroke="#999999" points="154.62,-19.25 106.38,-19.25 106.38,0 154.62,0 154.62,-19.25"/>
<text text-anchor="middle" x="130.5" y="-5.75" font-family="Helvetica,sans-Serif" font-size="10.00">cstddef</text>
</a>
</g>
</g>
<!-- Node1&#45;&gt;Node4 -->
<g id="edge6_Node000001_Node000004" class="edge">
<title>Node1&#45;&gt;Node4</title>
<g id="a_edge6_Node000001_Node000004"><a xlink:title=" ">
<path fill="none" stroke="#63b8ff" d="M164.54,-110.06C156.91,-87.77 144.74,-52.22 137.21,-30.22"/>
<polygon fill="#63b8ff" stroke="#63b8ff" points="140.6,-29.31 134.05,-20.99 133.98,-31.58 140.6,-29.31"/>
</a>
</g>
</g>
<!-- Node5 -->
<g id="Node000005" class="node">
<title>Node5</title>
<g id="a_Node000005"><a xlink:title=" ">
<polygon fill="#e0e0e0" stroke="#999999" points="229.5,-74.5 171.5,-74.5 171.5,-55.25 229.5,-55.25 229.5,-74.5"/>
<text text-anchor="middle" x="200.5" y="-61" font-family="Helvetica,sans-Serif" font-size="10.00">RoxMux.h</text>
</a>
</g>
</g>
<!-- Node1&#45;&gt;Node5 -->
<g id="edge4_Node000001_Node000005" class="edge">
<title>Node1&#45;&gt;Node5</title>
<g id="a_edge4_Node000001_Node000005"><a xlink:title=" ">
<path fill="none" stroke="#63b8ff" d="M180.52,-110.32C184.09,-102.37 188.19,-93.26 191.74,-85.36"/>
<polygon fill="#63b8ff" stroke="#63b8ff" points="194.89,-86.88 195.8,-76.33 188.51,-84.01 194.89,-86.88"/>
</a>
</g>
</g>
<!-- Node6 -->
<g id="Node000006" class="node">
<title>Node6</title>
<g id="a_Node000006"><a xlink:title=" ">
<polygon fill="#e0e0e0" stroke="#999999" points="291,-74.5 248,-74.5 248,-55.25 291,-55.25 291,-74.5"/>
<text text-anchor="middle" x="269.5" y="-61" font-family="Helvetica,sans-Serif" font-size="10.00">Wire.h</text>
</a>
</g>
</g>
<!-- Node1&#45;&gt;Node6 -->
<g id="edge5_Node000001_Node000006" class="edge">
<title>Node1&#45;&gt;Node6</title>
<g id="a_edge5_Node000001_Node000006"><a xlink:title=" ">
<path fill="none" stroke="#63b8ff" d="M202.24,-110.14C216.55,-100.72 233.29,-89.71 246.49,-81.02"/>
<polygon fill="#63b8ff" stroke="#63b8ff" points="248.1,-84.15 254.53,-75.73 244.25,-78.3 248.1,-84.15"/>
</a>
</g>
</g>
<!-- Node3 -->
<g id="Node000003" class="node">
<title>Node3</title>
<g id="a_Node000003"><a xlink:title=" ">
<polygon fill="#e0e0e0" stroke="#999999" points="76,-19.25 39,-19.25 39,0 76,0 76,-19.25"/>
<text text-anchor="middle" x="57.5" y="-5.75" font-family="Helvetica,sans-Serif" font-size="10.00">array</text>
</a>
</g>
</g>
<!-- Node2&#45;&gt;Node3 -->
<g id="edge2_Node000002_Node000003" class="edge">
<title>Node2&#45;&gt;Node3</title>
<g id="a_edge2_Node000002_Node000003"><a xlink:title=" ">
<path fill="none" stroke="#63b8ff" d="M57.5,-55.08C57.5,-48.57 57.5,-39.42 57.5,-31.12"/>
<polygon fill="#63b8ff" stroke="#63b8ff" points="61,-31.12 57.5,-21.12 54,-31.12 61,-31.12"/>
</a>
</g>
</g>
<!-- Node2&#45;&gt;Node4 -->
<g id="edge3_Node000002_Node000004" class="edge">
<title>Node2&#45;&gt;Node4</title>
<g id="a_edge3_Node000002_Node000004"><a xlink:title=" ">
<path fill="none" stroke="#63b8ff" d="M69.88,-54.84C80.65,-46.99 96.47,-35.45 109.25,-26.12"/>
<polygon fill="#63b8ff" stroke="#63b8ff" points="111.06,-29.14 117.08,-20.42 106.94,-23.48 111.06,-29.14"/>
</a>
</g>
</g>
</g>
</svg>
