<?xml version="1.0" encoding="UTF-8" standalone="no"?>
<!DOCTYPE svg PUBLIC "-//W3C//DTD SVG 1.1//EN"
 "http://www.w3.org/Graphics/SVG/1.1/DTD/svg11.dtd">
<!-- Generated by graphviz version 7.0.5 (20221223.1930)
 -->
<!-- Title: lib/board_adapters/input_device_interface/input_devices.hpp Pages: 1 -->
<svg width="132pt" height="170pt"
 viewBox="0.00 0.00 132.00 170.00" xmlns="http://www.w3.org/2000/svg" xmlns:xlink="http://www.w3.org/1999/xlink">
<g id="graph0" class="graph" transform="scale(1 1) rotate(0) translate(4 166)">
<title>lib/board_adapters/input_device_interface/input_devices.hpp</title>
<!-- Node1 -->
<g id="node1" class="node">
<title>Node1</title>
<g id="a_node1"><a xlink:title=" ">
<polygon fill="#999999" stroke="#666666" points="117,-162 0,-162 0,-121 117,-121 117,-162"/>
<text text-anchor="start" x="8" y="-150" font-family="Helvetica,sans-Serif" font-size="10.00">lib/board_adapters</text>
<text text-anchor="start" x="8" y="-139" font-family="Helvetica,sans-Serif" font-size="10.00">/input_device_interface</text>
<text text-anchor="middle" x="58.5" y="-128" font-family="Helvetica,sans-Serif" font-size="10.00">/input_devices.hpp</text>
</a>
</g>
</g>
<!-- Node2 -->
<g id="node2" class="node">
<title>Node2</title>
<g id="a_node2"><a xlink:href="board__interface_8hpp.xhtml" target="_top" xlink:title=" ">
<polygon fill="white" stroke="#666666" points="115,-85 2,-85 2,-55 115,-55 115,-85"/>
<text text-anchor="start" x="10" y="-73" font-family="Helvetica,sans-Serif" font-size="10.00">user_interaction/board</text>
<text text-anchor="middle" x="58.5" y="-62" font-family="Helvetica,sans-Serif" font-size="10.00">_interface.hpp</text>
</a>
</g>
</g>
<!-- Node1&#45;&gt;Node2 -->
<g id="edge1" class="edge">
<title>Node1&#45;&gt;Node2</title>
<path fill="none" stroke="#63b8ff" d="M58.5,-120.77C58.5,-113.31 58.5,-104.7 58.5,-96.77"/>
<polygon fill="#63b8ff" stroke="#63b8ff" points="62,-96.99 58.5,-86.99 55,-96.99 62,-96.99"/>
</g>
<!-- Node3 -->
<g id="node3" class="node">
<title>Node3</title>
<g id="a_node3"><a xlink:title=" ">
<polygon fill="#e0e0e0" stroke="#999999" points="46.5,-19 0.5,-19 0.5,0 46.5,0 46.5,-19"/>
<text text-anchor="middle" x="23.5" y="-7" font-family="Helvetica,sans-Serif" font-size="10.00">chrono</text>
</a>
</g>
</g>
<!-- Node2&#45;&gt;Node3 -->
<g id="edge2" class="edge">
<title>Node2&#45;&gt;Node3</title>
<path fill="none" stroke="#63b8ff" d="M49.85,-54.54C45.23,-46.82 39.5,-37.24 34.56,-28.99"/>
<polygon fill="#63b8ff" stroke="#63b8ff" points="37.61,-27.26 29.47,-20.47 31.6,-30.85 37.61,-27.26"/>
</g>
<!-- Node4 -->
<g id="node4" class="node">
<title>Node4</title>
<g id="a_node4"><a xlink:title=" ">
<polygon fill="#e0e0e0" stroke="#999999" points="124,-19 65,-19 65,0 124,0 124,-19"/>
<text text-anchor="middle" x="94.5" y="-7" font-family="Helvetica,sans-Serif" font-size="10.00">functional</text>
</a>
</g>
</g>
<!-- Node2&#45;&gt;Node4 -->
<g id="edge3" class="edge">
<title>Node2&#45;&gt;Node4</title>
<path fill="none" stroke="#63b8ff" d="M67.4,-54.54C72.2,-46.74 78.18,-37.03 83.29,-28.71"/>
<polygon fill="#63b8ff" stroke="#63b8ff" points="86.11,-30.82 88.37,-20.46 80.15,-27.15 86.11,-30.82"/>
</g>
</g>
</svg>
