<?xml version="1.0" encoding="UTF-8" standalone="no"?>
<!DOCTYPE svg PUBLIC "-//W3C//DTD SVG 1.1//EN"
 "http://www.w3.org/Graphics/SVG/1.1/DTD/svg11.dtd">
<!-- Generated by graphviz version 7.0.5 (20221223.1930)
 -->
<!-- Title: lib/board_adapters/input_device_interface/input_devices.cpp Pages: 1 -->
<svg width="613pt" height="225pt"
 viewBox="0.00 0.00 612.50 225.00" xmlns="http://www.w3.org/2000/svg" xmlns:xlink="http://www.w3.org/1999/xlink">
<g id="graph0" class="graph" transform="scale(1 1) rotate(0) translate(4 221)">
<title>lib/board_adapters/input_device_interface/input_devices.cpp</title>
<!-- Node1 -->
<g id="node1" class="node">
<title>Node1</title>
<g id="a_node1"><a xlink:title=" ">
<polygon fill="#999999" stroke="#666666" points="396.5,-217 279.5,-217 279.5,-176 396.5,-176 396.5,-217"/>
<text text-anchor="start" x="287.5" y="-205" font-family="Helvetica,sans-Serif" font-size="10.00">lib/board_adapters</text>
<text text-anchor="start" x="287.5" y="-194" font-family="Helvetica,sans-Serif" font-size="10.00">/input_device_interface</text>
<text text-anchor="middle" x="338" y="-183" font-family="Helvetica,sans-Serif" font-size="10.00">/input_devices.cpp</text>
</a>
</g>
</g>
<!-- Node2 -->
<g id="node2" class="node">
<title>Node2</title>
<g id="a_node2"><a xlink:href="input__devices_8hpp.xhtml" target="_top" xlink:title=" ">
<polygon fill="white" stroke="#666666" points="105.5,-140 10.5,-140 10.5,-121 105.5,-121 105.5,-140"/>
<text text-anchor="middle" x="58" y="-128" font-family="Helvetica,sans-Serif" font-size="10.00">input_devices.hpp</text>
</a>
</g>
</g>
<!-- Node1&#45;&gt;Node2 -->
<g id="edge1" class="edge">
<title>Node1&#45;&gt;Node2</title>
<path fill="none" stroke="#63b8ff" d="M279.3,-182.08C228.68,-170.51 156.35,-153.98 108.33,-143"/>
<polygon fill="#63b8ff" stroke="#63b8ff" points="109.27,-139.63 98.74,-140.81 107.71,-146.45 109.27,-139.63"/>
</g>
<!-- Node6 -->
<g id="node6" class="node">
<title>Node6</title>
<g id="a_node6"><a xlink:title=" ">
<polygon fill="#e0e0e0" stroke="#999999" points="180.5,-140 123.5,-140 123.5,-121 180.5,-121 180.5,-140"/>
<text text-anchor="middle" x="152" y="-128" font-family="Helvetica,sans-Serif" font-size="10.00">Arduino.h</text>
</a>
</g>
</g>
<!-- Node1&#45;&gt;Node6 -->
<g id="edge5" class="edge">
<title>Node1&#45;&gt;Node6</title>
<path fill="none" stroke="#63b8ff" d="M279.91,-175.51C250.2,-165.29 214.93,-153.15 188.95,-144.22"/>
<polygon fill="#63b8ff" stroke="#63b8ff" points="190.11,-140.91 179.51,-140.97 187.83,-147.53 190.11,-140.91"/>
</g>
<!-- Node7 -->
<g id="node7" class="node">
<title>Node7</title>
<g id="a_node7"><a xlink:title=" ">
<polygon fill="#e0e0e0" stroke="#999999" points="237,-140 199,-140 199,-121 237,-121 237,-140"/>
<text text-anchor="middle" x="218" y="-128" font-family="Helvetica,sans-Serif" font-size="10.00">array</text>
</a>
</g>
</g>
<!-- Node1&#45;&gt;Node7 -->
<g id="edge6" class="edge">
<title>Node1&#45;&gt;Node7</title>
<path fill="none" stroke="#63b8ff" d="M300.69,-175.6C282.52,-165.91 261.09,-154.48 244.6,-145.68"/>
<polygon fill="#63b8ff" stroke="#63b8ff" points="246.36,-142.66 235.89,-141.04 243.07,-148.84 246.36,-142.66"/>
</g>
<!-- Node8 -->
<g id="node8" class="node">
<title>Node8</title>
<g id="a_node8"><a xlink:href="board__pins_8hpp.xhtml" target="_top" xlink:title="Provides named objects for the pins provided by the board.">
<polygon fill="white" stroke="#666666" points="337,-140 255,-140 255,-121 337,-121 337,-140"/>
<text text-anchor="middle" x="296" y="-128" font-family="Helvetica,sans-Serif" font-size="10.00">board_pins.hpp</text>
</a>
</g>
</g>
<!-- Node1&#45;&gt;Node8 -->
<g id="edge7" class="edge">
<title>Node1&#45;&gt;Node8</title>
<path fill="none" stroke="#63b8ff" d="M324.94,-175.6C319.52,-167.33 313.26,-157.8 307.96,-149.72"/>
<polygon fill="#63b8ff" stroke="#63b8ff" points="310.93,-147.87 302.52,-141.43 305.08,-151.71 310.93,-147.87"/>
</g>
<!-- Node10 -->
<g id="node10" class="node">
<title>Node10</title>
<g id="a_node10"><a xlink:title=" ">
<polygon fill="#e0e0e0" stroke="#999999" points="404.5,-140 355.5,-140 355.5,-121 404.5,-121 404.5,-140"/>
<text text-anchor="middle" x="380" y="-128" font-family="Helvetica,sans-Serif" font-size="10.00">cstddef</text>
</a>
</g>
</g>
<!-- Node1&#45;&gt;Node10 -->
<g id="edge9" class="edge">
<title>Node1&#45;&gt;Node10</title>
<path fill="none" stroke="#63b8ff" d="M351.06,-175.6C356.48,-167.33 362.74,-157.8 368.04,-149.72"/>
<polygon fill="#63b8ff" stroke="#63b8ff" points="370.92,-151.71 373.48,-141.43 365.07,-147.87 370.92,-151.71"/>
</g>
<!-- Node11 -->
<g id="node11" class="node">
<title>Node11</title>
<g id="a_node11"><a xlink:title=" ">
<polygon fill="#e0e0e0" stroke="#999999" points="467,-140 423,-140 423,-121 467,-121 467,-140"/>
<text text-anchor="middle" x="445" y="-128" font-family="Helvetica,sans-Serif" font-size="10.00">thread</text>
</a>
</g>
</g>
<!-- Node1&#45;&gt;Node11 -->
<g id="edge10" class="edge">
<title>Node1&#45;&gt;Node11</title>
<path fill="none" stroke="#63b8ff" d="M371.27,-175.6C387.16,-166.09 405.85,-154.91 420.44,-146.19"/>
<polygon fill="#63b8ff" stroke="#63b8ff" points="422.15,-149.24 428.94,-141.11 418.56,-143.24 422.15,-149.24"/>
</g>
<!-- Node12 -->
<g id="node12" class="node">
<title>Node12</title>
<g id="a_node12"><a xlink:title=" ">
<polygon fill="#e0e0e0" stroke="#999999" points="547,-140 485,-140 485,-121 547,-121 547,-140"/>
<text text-anchor="middle" x="516" y="-128" font-family="Helvetica,sans-Serif" font-size="10.00">type_traits</text>
</a>
</g>
</g>
<!-- Node1&#45;&gt;Node12 -->
<g id="edge11" class="edge">
<title>Node1&#45;&gt;Node12</title>
<path fill="none" stroke="#63b8ff" d="M393.34,-175.6C421.84,-165.35 455.74,-153.17 480.67,-144.2"/>
<polygon fill="#63b8ff" stroke="#63b8ff" points="481.79,-147.52 490.02,-140.84 479.42,-140.93 481.79,-147.52"/>
</g>
<!-- Node13 -->
<g id="node13" class="node">
<title>Node13</title>
<g id="a_node13"><a xlink:title=" ">
<polygon fill="#e0e0e0" stroke="#999999" points="604.5,-140 565.5,-140 565.5,-121 604.5,-121 604.5,-140"/>
<text text-anchor="middle" x="585" y="-128" font-family="Helvetica,sans-Serif" font-size="10.00">utility</text>
</a>
</g>
</g>
<!-- Node1&#45;&gt;Node13 -->
<g id="edge12" class="edge">
<title>Node1&#45;&gt;Node13</title>
<path fill="none" stroke="#63b8ff" d="M396.9,-181.11C438.28,-170.86 495.18,-156.5 554.05,-140.46"/>
<polygon fill="#63b8ff" stroke="#63b8ff" points="554.88,-143.86 563.6,-137.85 553.03,-137.11 554.88,-143.86"/>
</g>
<!-- Node3 -->
<g id="node3" class="node">
<title>Node3</title>
<g id="a_node3"><a xlink:href="board__interface_8hpp.xhtml" target="_top" xlink:title=" ">
<polygon fill="white" stroke="#666666" points="114.5,-85 1.5,-85 1.5,-55 114.5,-55 114.5,-85"/>
<text text-anchor="start" x="9.5" y="-73" font-family="Helvetica,sans-Serif" font-size="10.00">user_interaction/board</text>
<text text-anchor="middle" x="58" y="-62" font-family="Helvetica,sans-Serif" font-size="10.00">_interface.hpp</text>
</a>
</g>
</g>
<!-- Node2&#45;&gt;Node3 -->
<g id="edge2" class="edge">
<title>Node2&#45;&gt;Node3</title>
<path fill="none" stroke="#63b8ff" d="M58,-120.87C58,-114.4 58,-105.2 58,-96.45"/>
<polygon fill="#63b8ff" stroke="#63b8ff" points="61.5,-96.63 58,-86.63 54.5,-96.63 61.5,-96.63"/>
</g>
<!-- Node4 -->
<g id="node4" class="node">
<title>Node4</title>
<g id="a_node4"><a xlink:title=" ">
<polygon fill="#e0e0e0" stroke="#999999" points="46,-19 0,-19 0,0 46,0 46,-19"/>
<text text-anchor="middle" x="23" y="-7" font-family="Helvetica,sans-Serif" font-size="10.00">chrono</text>
</a>
</g>
</g>
<!-- Node3&#45;&gt;Node4 -->
<g id="edge3" class="edge">
<title>Node3&#45;&gt;Node4</title>
<path fill="none" stroke="#63b8ff" d="M49.35,-54.54C44.73,-46.82 39,-37.24 34.06,-28.99"/>
<polygon fill="#63b8ff" stroke="#63b8ff" points="37.11,-27.26 28.97,-20.47 31.1,-30.85 37.11,-27.26"/>
</g>
<!-- Node5 -->
<g id="node5" class="node">
<title>Node5</title>
<g id="a_node5"><a xlink:title=" ">
<polygon fill="#e0e0e0" stroke="#999999" points="123.5,-19 64.5,-19 64.5,0 123.5,0 123.5,-19"/>
<text text-anchor="middle" x="94" y="-7" font-family="Helvetica,sans-Serif" font-size="10.00">functional</text>
</a>
</g>
</g>
<!-- Node3&#45;&gt;Node5 -->
<g id="edge4" class="edge">
<title>Node3&#45;&gt;Node5</title>
<path fill="none" stroke="#63b8ff" d="M66.9,-54.54C71.7,-46.74 77.68,-37.03 82.79,-28.71"/>
<polygon fill="#63b8ff" stroke="#63b8ff" points="85.61,-30.82 87.87,-20.46 79.65,-27.15 85.61,-30.82"/>
</g>
<!-- Node9 -->
<g id="node9" class="node">
<title>Node9</title>
<g id="a_node9"><a xlink:title=" ">
<polygon fill="#e0e0e0" stroke="#999999" points="319,-79.5 273,-79.5 273,-60.5 319,-60.5 319,-79.5"/>
<text text-anchor="middle" x="296" y="-67.5" font-family="Helvetica,sans-Serif" font-size="10.00">cstdint</text>
</a>
</g>
</g>
<!-- Node8&#45;&gt;Node9 -->
<g id="edge8" class="edge">
<title>Node8&#45;&gt;Node9</title>
<path fill="none" stroke="#63b8ff" d="M296,-120.87C296,-113 296,-101.1 296,-90.89"/>
<polygon fill="#63b8ff" stroke="#63b8ff" points="299.5,-91.18 296,-81.18 292.5,-91.18 299.5,-91.18"/>
</g>
</g>
</svg>
