<?xml version="1.0" encoding="UTF-8" standalone="no"?>
<!DOCTYPE svg PUBLIC "-//W3C//DTD SVG 1.1//EN"
 "http://www.w3.org/Graphics/SVG/1.1/DTD/svg11.dtd">
<!-- Generated by graphviz version 7.0.5 (20221223.1930)
 -->
<!-- Title: lib/board_adapters/input_device_interface/input_devices.cpp Pages: 1 -->
<svg width="620pt" height="214pt"
 viewBox="0.00 0.00 619.50 214.00" xmlns="http://www.w3.org/2000/svg" xmlns:xlink="http://www.w3.org/1999/xlink">
<g id="graph0" class="graph" transform="scale(1 1) rotate(0) translate(4 210)">
<title>lib/board_adapters/input_device_interface/input_devices.cpp</title>
<!-- Node1 -->
<g id="node1" class="node">
<title>Node1</title>
<g id="a_node1"><a xlink:title=" ">
<polygon fill="#999999" stroke="#666666" points="414.5,-206 297.5,-206 297.5,-165 414.5,-165 414.5,-206"/>
<text text-anchor="start" x="305.5" y="-194" font-family="Helvetica,sans-Serif" font-size="10.00">lib/board_adapters</text>
<text text-anchor="start" x="305.5" y="-183" font-family="Helvetica,sans-Serif" font-size="10.00">/input_device_interface</text>
<text text-anchor="middle" x="356" y="-172" font-family="Helvetica,sans-Serif" font-size="10.00">/input_devices.cpp</text>
</a>
</g>
</g>
<!-- Node2 -->
<g id="node2" class="node">
<title>Node2</title>
<g id="a_node2"><a xlink:href="input__devices_8hpp.xhtml" target="_top" xlink:title=" ">
<polygon fill="white" stroke="#666666" points="105.5,-129 10.5,-129 10.5,-110 105.5,-110 105.5,-129"/>
<text text-anchor="middle" x="58" y="-117" font-family="Helvetica,sans-Serif" font-size="10.00">input_devices.hpp</text>
</a>
</g>
</g>
<!-- Node1&#45;&gt;Node2 -->
<g id="edge1" class="edge">
<title>Node1&#45;&gt;Node2</title>
<path fill="none" stroke="#63b8ff" d="M297.12,-171.86C242.76,-160.18 162.77,-143 110.52,-131.78"/>
<polygon fill="#63b8ff" stroke="#63b8ff" points="111.49,-128.41 100.97,-129.73 110.02,-135.25 111.49,-128.41"/>
</g>
<!-- Node6 -->
<g id="node6" class="node">
<title>Node6</title>
<g id="a_node6"><a xlink:href="board__pins_8hpp.xhtml" target="_top" xlink:title="Provides named objects for the pins provided by the board.">
<polygon fill="white" stroke="#666666" points="212.5,-129 123.5,-129 123.5,-110 212.5,-110 212.5,-129"/>
<text text-anchor="middle" x="168" y="-117" font-family="Helvetica,sans-Serif" font-size="10.00">../board_pins.hpp</text>
</a>
</g>
</g>
<!-- Node1&#45;&gt;Node6 -->
<g id="edge5" class="edge">
<title>Node1&#45;&gt;Node6</title>
<path fill="none" stroke="#63b8ff" d="M297.29,-164.51C267.12,-154.24 231.28,-142.04 205,-133.1"/>
<polygon fill="#63b8ff" stroke="#63b8ff" points="206.39,-129.87 195.8,-129.96 204.13,-136.5 206.39,-129.87"/>
</g>
<!-- Node8 -->
<g id="node8" class="node">
<title>Node8</title>
<g id="a_node8"><a xlink:title=" ">
<polygon fill="#e0e0e0" stroke="#999999" points="287.5,-129 230.5,-129 230.5,-110 287.5,-110 287.5,-129"/>
<text text-anchor="middle" x="259" y="-117" font-family="Helvetica,sans-Serif" font-size="10.00">Arduino.h</text>
</a>
</g>
</g>
<!-- Node1&#45;&gt;Node8 -->
<g id="edge7" class="edge">
<title>Node1&#45;&gt;Node8</title>
<path fill="none" stroke="#63b8ff" d="M325.84,-164.6C311.57,-155.19 294.82,-144.13 281.65,-135.44"/>
<polygon fill="#63b8ff" stroke="#63b8ff" points="283.92,-132.75 273.65,-130.16 280.07,-138.59 283.92,-132.75"/>
</g>
<!-- Node9 -->
<g id="node9" class="node">
<title>Node9</title>
<g id="a_node9"><a xlink:title=" ">
<polygon fill="#e0e0e0" stroke="#999999" points="344,-129 306,-129 306,-110 344,-110 344,-129"/>
<text text-anchor="middle" x="325" y="-117" font-family="Helvetica,sans-Serif" font-size="10.00">array</text>
</a>
</g>
</g>
<!-- Node1&#45;&gt;Node9 -->
<g id="edge8" class="edge">
<title>Node1&#45;&gt;Node9</title>
<path fill="none" stroke="#63b8ff" d="M346.36,-164.6C342.45,-156.52 337.95,-147.23 334.09,-139.27"/>
<polygon fill="#63b8ff" stroke="#63b8ff" points="337.36,-138 329.86,-130.52 331.07,-141.05 337.36,-138"/>
</g>
<!-- Node10 -->
<g id="node10" class="node">
<title>Node10</title>
<g id="a_node10"><a xlink:title=" ">
<polygon fill="#e0e0e0" stroke="#999999" points="411.5,-129 362.5,-129 362.5,-110 411.5,-110 411.5,-129"/>
<text text-anchor="middle" x="387" y="-117" font-family="Helvetica,sans-Serif" font-size="10.00">cstddef</text>
</a>
</g>
</g>
<!-- Node1&#45;&gt;Node10 -->
<g id="edge9" class="edge">
<title>Node1&#45;&gt;Node10</title>
<path fill="none" stroke="#63b8ff" d="M365.64,-164.6C369.55,-156.52 374.05,-147.23 377.91,-139.27"/>
<polygon fill="#63b8ff" stroke="#63b8ff" points="380.93,-141.05 382.14,-130.52 374.64,-138 380.93,-141.05"/>
</g>
<!-- Node11 -->
<g id="node11" class="node">
<title>Node11</title>
<g id="a_node11"><a xlink:title=" ">
<polygon fill="#e0e0e0" stroke="#999999" points="474,-129 430,-129 430,-110 474,-110 474,-129"/>
<text text-anchor="middle" x="452" y="-117" font-family="Helvetica,sans-Serif" font-size="10.00">thread</text>
</a>
</g>
</g>
<!-- Node1&#45;&gt;Node11 -->
<g id="edge10" class="edge">
<title>Node1&#45;&gt;Node11</title>
<path fill="none" stroke="#63b8ff" d="M385.85,-164.6C399.92,-155.22 416.43,-144.21 429.44,-135.54"/>
<polygon fill="#63b8ff" stroke="#63b8ff" points="431.37,-138.46 437.75,-130 427.48,-132.64 431.37,-138.46"/>
</g>
<!-- Node12 -->
<g id="node12" class="node">
<title>Node12</title>
<g id="a_node12"><a xlink:title=" ">
<polygon fill="#e0e0e0" stroke="#999999" points="554,-129 492,-129 492,-110 554,-110 554,-129"/>
<text text-anchor="middle" x="523" y="-117" font-family="Helvetica,sans-Serif" font-size="10.00">type_traits</text>
</a>
</g>
</g>
<!-- Node1&#45;&gt;Node12 -->
<g id="edge11" class="edge">
<title>Node1&#45;&gt;Node12</title>
<path fill="none" stroke="#63b8ff" d="M407.92,-164.6C434.42,-154.45 465.89,-142.39 489.22,-133.45"/>
<polygon fill="#63b8ff" stroke="#63b8ff" points="490.46,-136.72 498.54,-129.87 487.95,-130.18 490.46,-136.72"/>
</g>
<!-- Node13 -->
<g id="node13" class="node">
<title>Node13</title>
<g id="a_node13"><a xlink:title=" ">
<polygon fill="#e0e0e0" stroke="#999999" points="611.5,-129 572.5,-129 572.5,-110 611.5,-110 611.5,-129"/>
<text text-anchor="middle" x="592" y="-117" font-family="Helvetica,sans-Serif" font-size="10.00">utility</text>
</a>
</g>
</g>
<!-- Node1&#45;&gt;Node13 -->
<g id="edge12" class="edge">
<title>Node1&#45;&gt;Node13</title>
<path fill="none" stroke="#63b8ff" d="M414.99,-169.07C453.87,-158.82 506.17,-144.85 561.04,-129.5"/>
<polygon fill="#63b8ff" stroke="#63b8ff" points="561.91,-132.89 570.59,-126.82 560.02,-126.15 561.91,-132.89"/>
</g>
<!-- Node3 -->
<g id="node3" class="node">
<title>Node3</title>
<g id="a_node3"><a xlink:href="board__interface_8hpp.xhtml" target="_top" xlink:title=" ">
<polygon fill="white" stroke="#666666" points="108.5,-74 7.5,-74 7.5,-55 108.5,-55 108.5,-74"/>
<text text-anchor="middle" x="58" y="-62" font-family="Helvetica,sans-Serif" font-size="10.00">board_interface.hpp</text>
</a>
</g>
</g>
<!-- Node2&#45;&gt;Node3 -->
<g id="edge2" class="edge">
<title>Node2&#45;&gt;Node3</title>
<path fill="none" stroke="#63b8ff" d="M58,-109.75C58,-103.27 58,-94.16 58,-85.9"/>
<polygon fill="#63b8ff" stroke="#63b8ff" points="61.5,-85.96 58,-75.96 54.5,-85.96 61.5,-85.96"/>
</g>
<!-- Node4 -->
<g id="node4" class="node">
<title>Node4</title>
<g id="a_node4"><a xlink:title=" ">
<polygon fill="#e0e0e0" stroke="#999999" points="46,-19 0,-19 0,0 46,0 46,-19"/>
<text text-anchor="middle" x="23" y="-7" font-family="Helvetica,sans-Serif" font-size="10.00">chrono</text>
</a>
</g>
</g>
<!-- Node3&#45;&gt;Node4 -->
<g id="edge3" class="edge">
<title>Node3&#45;&gt;Node4</title>
<path fill="none" stroke="#63b8ff" d="M52.22,-54.75C47.59,-47.73 40.93,-37.64 35.13,-28.87"/>
<polygon fill="#63b8ff" stroke="#63b8ff" points="38.17,-27.12 29.74,-20.71 32.33,-30.98 38.17,-27.12"/>
</g>
<!-- Node5 -->
<g id="node5" class="node">
<title>Node5</title>
<g id="a_node5"><a xlink:title=" ">
<polygon fill="#e0e0e0" stroke="#999999" points="123.5,-19 64.5,-19 64.5,0 123.5,0 123.5,-19"/>
<text text-anchor="middle" x="94" y="-7" font-family="Helvetica,sans-Serif" font-size="10.00">functional</text>
</a>
</g>
</g>
<!-- Node3&#45;&gt;Node5 -->
<g id="edge4" class="edge">
<title>Node3&#45;&gt;Node5</title>
<path fill="none" stroke="#63b8ff" d="M63.94,-54.75C68.71,-47.73 75.56,-37.64 81.52,-28.87"/>
<polygon fill="#63b8ff" stroke="#63b8ff" points="84.35,-30.93 87.08,-20.69 78.56,-27 84.35,-30.93"/>
</g>
<!-- Node7 -->
<g id="node7" class="node">
<title>Node7</title>
<g id="a_node7"><a xlink:title=" ">
<polygon fill="#e0e0e0" stroke="#999999" points="191,-74 145,-74 145,-55 191,-55 191,-74"/>
<text text-anchor="middle" x="168" y="-62" font-family="Helvetica,sans-Serif" font-size="10.00">cstdint</text>
</a>
</g>
</g>
<!-- Node6&#45;&gt;Node7 -->
<g id="edge6" class="edge">
<title>Node6&#45;&gt;Node7</title>
<path fill="none" stroke="#63b8ff" d="M168,-109.75C168,-103.27 168,-94.16 168,-85.9"/>
<polygon fill="#63b8ff" stroke="#63b8ff" points="171.5,-85.96 168,-75.96 164.5,-85.96 171.5,-85.96"/>
</g>
</g>
</svg>
