<?xml version="1.0" encoding="UTF-8" standalone="no"?>
<!DOCTYPE svg PUBLIC "-//W3C//DTD SVG 1.1//EN"
 "http://www.w3.org/Graphics/SVG/1.1/DTD/svg11.dtd">
<!-- Generated by graphviz version 9.0.0 (20230911.1827)
 -->
<!-- Title: lib/layer1_use_cases/include/IPresenter.hpp Pages: 1 -->
<svg width="514pt" height="183pt"
 viewBox="0.00 0.00 514.12 182.75" xmlns="http://www.w3.org/2000/svg" xmlns:xlink="http://www.w3.org/1999/xlink">
<g id="graph0" class="graph" transform="scale(1 1) rotate(0) translate(4 178.75)">
<title>lib/layer1_use_cases/include/IPresenter.hpp</title>
<!-- Node1 -->
<g id="Node000001" class="node">
<title>Node1</title>
<g id="a_Node000001"><a xlink:title=" ">
<polygon fill="#999999" stroke="#666666" points="330.12,-174.75 214.38,-174.75 214.38,-144.25 330.12,-144.25 330.12,-174.75"/>
<text text-anchor="start" x="222.38" y="-161.25" font-family="Helvetica,sans-Serif" font-size="10.00">lib/layer1_use_cases</text>
<text text-anchor="middle" x="272.25" y="-150" font-family="Helvetica,sans-Serif" font-size="10.00">/include/IPresenter.hpp</text>
</a>
</g>
</g>
<!-- Node2 -->
<g id="Node000002" class="node">
<title>Node2</title>
<g id="a_Node000002"><a xlink:href="ProcessHmiInputs_8hpp.xhtml" target="_top" xlink:title=" ">
<polygon fill="white" stroke="#666666" points="190.12,-102.62 38.38,-102.62 38.38,-72.12 190.12,-72.12 190.12,-102.62"/>
<text text-anchor="start" x="46.38" y="-89.12" font-family="Helvetica,sans-Serif" font-size="10.00">lib/layer1_use_cases</text>
<text text-anchor="middle" x="114.25" y="-77.88" font-family="Helvetica,sans-Serif" font-size="10.00">/include/ProcessHmiInputs.hpp</text>
</a>
</g>
</g>
<!-- Node1&#45;&gt;Node2 -->
<g id="edge1_Node000001_Node000002" class="edge">
<title>Node1&#45;&gt;Node2</title>
<g id="a_edge1_Node000001_Node000002"><a xlink:title=" ">
<path fill="none" stroke="#63b8ff" d="M228.89,-139.26C203.15,-127.83 171.02,-113.57 147.33,-103.06"/>
<polygon fill="#63b8ff" stroke="#63b8ff" points="227.18,-142.33 237.74,-143.19 230.02,-135.93 227.18,-142.33"/>
</a>
</g>
</g>
<!-- Node5 -->
<g id="Node000005" class="node">
<title>Node5</title>
<g id="a_Node000005"><a xlink:href="presenter__factory__interface_8hpp.xhtml" target="_top" xlink:title=" ">
<polygon fill="white" stroke="#666666" points="336.12,-108.25 208.38,-108.25 208.38,-66.5 336.12,-66.5 336.12,-108.25"/>
<text text-anchor="start" x="216.38" y="-94.75" font-family="Helvetica,sans-Serif" font-size="10.00">lib/layer1_use_cases</text>
<text text-anchor="start" x="216.38" y="-83.5" font-family="Helvetica,sans-Serif" font-size="10.00">/include/presenter_factory</text>
<text text-anchor="middle" x="272.25" y="-72.25" font-family="Helvetica,sans-Serif" font-size="10.00">_interface.hpp</text>
</a>
</g>
</g>
<!-- Node1&#45;&gt;Node5 -->
<g id="edge4_Node000001_Node000005" class="edge">
<title>Node1&#45;&gt;Node5</title>
<g id="a_edge4_Node000001_Node000005"><a xlink:title=" ">
<path fill="none" stroke="#63b8ff" d="M272.25,-132.72C272.25,-124.81 272.25,-116.23 272.25,-108.74"/>
<polygon fill="#63b8ff" stroke="#63b8ff" points="268.75,-132.46 272.25,-142.46 275.75,-132.46 268.75,-132.46"/>
</a>
</g>
</g>
<!-- Node7 -->
<g id="Node000007" class="node">
<title>Node7</title>
<g id="a_Node000007"><a xlink:href="Presenter_8hpp.xhtml" target="_top" xlink:title=" ">
<polygon fill="white" stroke="#666666" points="446.12,-102.62 354.38,-102.62 354.38,-72.12 446.12,-72.12 446.12,-102.62"/>
<text text-anchor="start" x="362.38" y="-89.12" font-family="Helvetica,sans-Serif" font-size="10.00">lib/layer2_hmi/src</text>
<text text-anchor="middle" x="400.25" y="-77.88" font-family="Helvetica,sans-Serif" font-size="10.00">/Presenter.hpp</text>
</a>
</g>
</g>
<!-- Node1&#45;&gt;Node7 -->
<g id="edge7_Node000001_Node000007" class="edge">
<title>Node1&#45;&gt;Node7</title>
<g id="a_edge7_Node000001_Node000007"><a xlink:title=" ">
<path fill="none" stroke="#63b8ff" d="M309.06,-138.34C329.61,-127.07 354.77,-113.29 373.45,-103.06"/>
<polygon fill="#63b8ff" stroke="#63b8ff" points="307.5,-135.2 300.41,-143.07 310.86,-141.34 307.5,-135.2"/>
</a>
</g>
</g>
<!-- Node3 -->
<g id="Node000003" class="node">
<title>Node3</title>
<g id="a_Node000003"><a xlink:href="ProcessHmiInputs_8cpp.xhtml" target="_top" xlink:title=" ">
<polygon fill="white" stroke="#666666" points="134.5,-30.5 0,-30.5 0,0 134.5,0 134.5,-30.5"/>
<text text-anchor="start" x="8" y="-17" font-family="Helvetica,sans-Serif" font-size="10.00">lib/layer1_use_cases</text>
<text text-anchor="middle" x="67.25" y="-5.75" font-family="Helvetica,sans-Serif" font-size="10.00">/src/ProcessHmiInputs.cpp</text>
</a>
</g>
</g>
<!-- Node2&#45;&gt;Node3 -->
<g id="edge2_Node000002_Node000003" class="edge">
<title>Node2&#45;&gt;Node3</title>
<g id="a_edge2_Node000002_Node000003"><a xlink:title=" ">
<path fill="none" stroke="#63b8ff" d="M98.16,-62.37C91.12,-51.86 83.09,-39.88 76.98,-30.76"/>
<polygon fill="#63b8ff" stroke="#63b8ff" points="95.19,-64.23 103.67,-70.59 101.01,-60.33 95.19,-64.23"/>
</a>
</g>
</g>
<!-- Node4 -->
<g id="Node000004" class="node">
<title>Node4</title>
<g id="a_Node000004"><a xlink:href="main_8cpp.xhtml" target="_top" xlink:title=" ">
<polygon fill="white" stroke="#666666" points="224,-24.88 152.5,-24.88 152.5,-5.63 224,-5.63 224,-24.88"/>
<text text-anchor="middle" x="188.25" y="-11.38" font-family="Helvetica,sans-Serif" font-size="10.00">src/main.cpp</text>
</a>
</g>
</g>
<!-- Node2&#45;&gt;Node4 -->
<g id="edge3_Node000002_Node000004" class="edge">
<title>Node2&#45;&gt;Node4</title>
<g id="a_edge3_Node000002_Node000004"><a xlink:title=" ">
<path fill="none" stroke="#63b8ff" d="M137.82,-64.04C151.81,-50.78 168.75,-34.73 179.01,-25.01"/>
<polygon fill="#63b8ff" stroke="#63b8ff" points="135.53,-61.38 130.68,-70.8 140.35,-66.47 135.53,-61.38"/>
</a>
</g>
</g>
<!-- Node5&#45;&gt;Node4 -->
<g id="edge6_Node000005_Node000004" class="edge">
<title>Node5&#45;&gt;Node4</title>
<g id="a_edge6_Node000005_Node000004"><a xlink:title=" ">
<path fill="none" stroke="#63b8ff" d="M239.24,-58.82C224.83,-46.79 208.94,-33.52 198.79,-25.05"/>
<polygon fill="#63b8ff" stroke="#63b8ff" points="236.87,-61.4 246.79,-65.12 241.36,-56.03 236.87,-61.4"/>
</a>
</g>
</g>
<!-- Node6 -->
<g id="Node000006" class="node">
<title>Node6</title>
<g id="a_Node000006"><a xlink:href="presenter__factory__interface_8cpp.xhtml" target="_top" xlink:title=" ">
<polygon fill="white" stroke="#666666" points="396.62,-30.5 241.88,-30.5 241.88,0 396.62,0 396.62,-30.5"/>
<text text-anchor="start" x="249.88" y="-17" font-family="Helvetica,sans-Serif" font-size="10.00">lib/layer2_hmi/src</text>
<text text-anchor="middle" x="319.25" y="-5.75" font-family="Helvetica,sans-Serif" font-size="10.00">/presenter_factory_interface.cpp</text>
</a>
</g>
</g>
<!-- Node5&#45;&gt;Node6 -->
<g id="edge5_Node000005_Node000006" class="edge">
<title>Node5&#45;&gt;Node6</title>
<g id="a_edge5_Node000005_Node000006"><a xlink:title=" ">
<path fill="none" stroke="#63b8ff" d="M292.17,-56.65C298.19,-47.67 304.53,-38.21 309.56,-30.7"/>
<polygon fill="#63b8ff" stroke="#63b8ff" points="289.35,-54.58 286.69,-64.83 295.16,-58.48 289.35,-54.58"/>
</a>
</g>
</g>
<!-- Node7&#45;&gt;Node6 -->
<g id="edge9_Node000007_Node000006" class="edge">
<title>Node7&#45;&gt;Node6</title>
<g id="a_edge9_Node000007_Node000006"><a xlink:title=" ">
<path fill="none" stroke="#63b8ff" d="M375.12,-64.62C362.4,-53.6 347.3,-40.54 336.01,-30.76"/>
<polygon fill="#63b8ff" stroke="#63b8ff" points="372.47,-66.96 382.32,-70.85 377.05,-61.66 372.47,-66.96"/>
</a>
</g>
</g>
<!-- Node8 -->
<g id="Node000008" class="node">
<title>Node8</title>
<g id="a_Node000008"><a xlink:href="Presenter_8cpp.xhtml" target="_top" xlink:title=" ">
<polygon fill="white" stroke="#666666" points="506.12,-30.5 414.38,-30.5 414.38,0 506.12,0 506.12,-30.5"/>
<text text-anchor="start" x="422.38" y="-17" font-family="Helvetica,sans-Serif" font-size="10.00">lib/layer2_hmi/src</text>
<text text-anchor="middle" x="460.25" y="-5.75" font-family="Helvetica,sans-Serif" font-size="10.00">/Presenter.cpp</text>
</a>
</g>
</g>
<!-- Node7&#45;&gt;Node8 -->
<g id="edge8_Node000007_Node000008" class="edge">
<title>Node7&#45;&gt;Node8</title>
<g id="a_edge8_Node000007_Node000008"><a xlink:title=" ">
<path fill="none" stroke="#63b8ff" d="M419.96,-63.34C429.15,-52.6 439.79,-40.16 447.83,-30.76"/>
<polygon fill="#63b8ff" stroke="#63b8ff" points="417.51,-60.82 413.67,-70.7 422.83,-65.37 417.51,-60.82"/>
</a>
</g>
</g>
</g>
</svg>
