<?xml version="1.0" encoding="UTF-8" standalone="no"?>
<!DOCTYPE svg PUBLIC "-//W3C//DTD SVG 1.1//EN"
 "http://www.w3.org/Graphics/SVG/1.1/DTD/svg11.dtd">
<!-- Generated by graphviz version 9.0.0 (20230911.1827)
 -->
<!-- Title: lib/layer3_board/include/isr_factory_interface.hpp Pages: 1 -->
<svg width="186pt" height="149pt"
 viewBox="0.00 0.00 186.12 149.00" xmlns="http://www.w3.org/2000/svg" xmlns:xlink="http://www.w3.org/1999/xlink">
<g id="graph0" class="graph" transform="scale(1 1) rotate(0) translate(4 145)">
<title>lib/layer3_board/include/isr_factory_interface.hpp</title>
<!-- Node1 -->
<g id="Node000001" class="node">
<title>Node1</title>
<g id="a_Node000001"><a xlink:title=" ">
<polygon fill="#999999" stroke="#666666" points="168.88,-141 44.13,-141 44.13,-110.5 168.88,-110.5 168.88,-141"/>
<text text-anchor="start" x="52.12" y="-127.5" font-family="Helvetica,sans-Serif" font-size="10.00">lib/layer3_board/include</text>
<text text-anchor="middle" x="106.5" y="-116.25" font-family="Helvetica,sans-Serif" font-size="10.00">/isr_factory_interface.hpp</text>
</a>
</g>
</g>
<!-- Node2 -->
<g id="Node000002" class="node">
<title>Node2</title>
<g id="a_Node000002"><a xlink:href="IInputShiftRegister_8hpp.xhtml" target="_top" xlink:title=" ">
<polygon fill="white" stroke="#666666" points="115,-74.5 0,-74.5 0,-55.25 115,-55.25 115,-74.5"/>
<text text-anchor="middle" x="57.5" y="-61" font-family="Helvetica,sans-Serif" font-size="10.00">IInputShiftRegister.hpp</text>
</a>
</g>
</g>
<!-- Node1&#45;&gt;Node2 -->
<g id="edge1_Node000001_Node000002" class="edge">
<title>Node1&#45;&gt;Node2</title>
<g id="a_edge1_Node000001_Node000002"><a xlink:title=" ">
<path fill="none" stroke="#63b8ff" d="M94.39,-110.2C87.72,-102.18 79.38,-92.17 72.32,-83.69"/>
<polygon fill="#63b8ff" stroke="#63b8ff" points="75.11,-81.56 66.02,-76.11 69.73,-86.04 75.11,-81.56"/>
</a>
</g>
</g>
<!-- Node5 -->
<g id="Node000005" class="node">
<title>Node5</title>
<g id="a_Node000005"><a xlink:title=" ">
<polygon fill="#e0e0e0" stroke="#999999" points="178.12,-74.5 132.88,-74.5 132.88,-55.25 178.12,-55.25 178.12,-74.5"/>
<text text-anchor="middle" x="155.5" y="-61" font-family="Helvetica,sans-Serif" font-size="10.00">cstdint</text>
</a>
</g>
</g>
<!-- Node1&#45;&gt;Node5 -->
<g id="edge4_Node000001_Node000005" class="edge">
<title>Node1&#45;&gt;Node5</title>
<g id="a_edge4_Node000001_Node000005"><a xlink:title=" ">
<path fill="none" stroke="#63b8ff" d="M118.61,-110.2C125.28,-102.18 133.62,-92.17 140.68,-83.69"/>
<polygon fill="#63b8ff" stroke="#63b8ff" points="143.27,-86.04 146.98,-76.11 137.89,-81.56 143.27,-86.04"/>
</a>
</g>
</g>
<!-- Node3 -->
<g id="Node000003" class="node">
<title>Node3</title>
<g id="a_Node000003"><a xlink:title=" ">
<polygon fill="#e0e0e0" stroke="#999999" points="46,-19.25 9,-19.25 9,0 46,0 46,-19.25"/>
<text text-anchor="middle" x="27.5" y="-5.75" font-family="Helvetica,sans-Serif" font-size="10.00">array</text>
</a>
</g>
</g>
<!-- Node2&#45;&gt;Node3 -->
<g id="edge2_Node000002_Node000003" class="edge">
<title>Node2&#45;&gt;Node3</title>
<g id="a_edge2_Node000002_Node000003"><a xlink:title=" ">
<path fill="none" stroke="#63b8ff" d="M52.55,-55.08C48.62,-48.11 42.99,-38.12 38.06,-29.37"/>
<polygon fill="#63b8ff" stroke="#63b8ff" points="41.26,-27.92 33.3,-20.93 35.16,-31.36 41.26,-27.92"/>
</a>
</g>
</g>
<!-- Node4 -->
<g id="Node000004" class="node">
<title>Node4</title>
<g id="a_Node000004"><a xlink:title=" ">
<polygon fill="#e0e0e0" stroke="#999999" points="112.62,-19.25 64.38,-19.25 64.38,0 112.62,0 112.62,-19.25"/>
<text text-anchor="middle" x="88.5" y="-5.75" font-family="Helvetica,sans-Serif" font-size="10.00">cstddef</text>
</a>
</g>
</g>
<!-- Node2&#45;&gt;Node4 -->
<g id="edge3_Node000002_Node000004" class="edge">
<title>Node2&#45;&gt;Node4</title>
<g id="a_edge3_Node000002_Node000004"><a xlink:title=" ">
<path fill="none" stroke="#63b8ff" d="M62.62,-55.08C66.68,-48.11 72.49,-38.12 77.59,-29.37"/>
<polygon fill="#63b8ff" stroke="#63b8ff" points="80.5,-31.32 82.51,-20.92 74.45,-27.8 80.5,-31.32"/>
</a>
</g>
</g>
</g>
</svg>
