<?xml version="1.0" encoding="UTF-8" standalone="no"?>
<!DOCTYPE svg PUBLIC "-//W3C//DTD SVG 1.1//EN"
 "http://www.w3.org/Graphics/SVG/1.1/DTD/svg11.dtd">
<!-- Generated by graphviz version 9.0.0 (20230911.1827)
 -->
<!-- Title: lib/layer3_board/include/isr_factory_interface.hpp Pages: 1 -->
<svg width="312pt" height="116pt"
 viewBox="0.00 0.00 312.12 116.25" xmlns="http://www.w3.org/2000/svg" xmlns:xlink="http://www.w3.org/1999/xlink">
<g id="graph0" class="graph" transform="scale(1 1) rotate(0) translate(4 112.25)">
<title>lib/layer3_board/include/isr_factory_interface.hpp</title>
<!-- Node1 -->
<g id="Node000001" class="node">
<title>Node1</title>
<g id="a_Node000001"><a xlink:title=" ">
<polygon fill="#999999" stroke="#666666" points="214.88,-108.25 90.12,-108.25 90.12,-77.75 214.88,-77.75 214.88,-108.25"/>
<text text-anchor="start" x="98.12" y="-94.75" font-family="Helvetica,sans-Serif" font-size="10.00">lib/layer3_board/include</text>
<text text-anchor="middle" x="152.5" y="-83.5" font-family="Helvetica,sans-Serif" font-size="10.00">/isr_factory_interface.hpp</text>
</a>
</g>
</g>
<!-- Node2 -->
<g id="Node000002" class="node">
<title>Node2</title>
<g id="a_Node000002"><a xlink:href="keypad__factory__interface_8cpp.xhtml" target="_top" xlink:title=" ">
<polygon fill="white" stroke="#666666" points="145,-36.12 0,-36.12 0,-5.62 145,-5.62 145,-36.12"/>
<text text-anchor="start" x="8" y="-22.62" font-family="Helvetica,sans-Serif" font-size="10.00">lib/layer3_board/src</text>
<text text-anchor="middle" x="72.5" y="-11.38" font-family="Helvetica,sans-Serif" font-size="10.00">/keypad_factory_interface.cpp</text>
</a>
</g>
</g>
<!-- Node1&#45;&gt;Node2 -->
<g id="edge1_Node000001_Node000002" class="edge">
<title>Node1&#45;&gt;Node2</title>
<g id="a_edge1_Node000001_Node000002"><a xlink:title=" ">
<path fill="none" stroke="#63b8ff" d="M127.31,-69.92C114.83,-58.98 100.1,-46.07 89.05,-36.39"/>
<polygon fill="#63b8ff" stroke="#63b8ff" points="124.96,-72.51 134.79,-76.47 129.57,-67.25 124.96,-72.51"/>
</a>
</g>
</g>
<!-- Node3 -->
<g id="Node000003" class="node">
<title>Node3</title>
<g id="a_Node000003"><a xlink:href="isr__factory__interface_8cpp.xhtml" target="_top" xlink:title=" ">
<polygon fill="white" stroke="#666666" points="304.12,-41.75 162.88,-41.75 162.88,0 304.12,0 304.12,-41.75"/>
<text text-anchor="start" x="170.88" y="-28.25" font-family="Helvetica,sans-Serif" font-size="10.00">lib/layer4_drivers</text>
<text text-anchor="start" x="170.88" y="-17" font-family="Helvetica,sans-Serif" font-size="10.00">_libraries_adapters</text>
<text text-anchor="middle" x="233.5" y="-5.75" font-family="Helvetica,sans-Serif" font-size="10.00">/src/isr_factory_interface.cpp</text>
</a>
</g>
</g>
<!-- Node1&#45;&gt;Node3 -->
<g id="edge2_Node000001_Node000003" class="edge">
<title>Node1&#45;&gt;Node3</title>
<g id="a_edge2_Node000001_Node000003"><a xlink:title=" ">
<path fill="none" stroke="#63b8ff" d="M177.84,-70.06C188.11,-61.17 199.9,-50.96 209.98,-42.24"/>
<polygon fill="#63b8ff" stroke="#63b8ff" points="175.7,-67.29 170.43,-76.48 180.28,-72.58 175.7,-67.29"/>
</a>
</g>
</g>
</g>
</svg>
