<?xml version="1.0" encoding="UTF-8" standalone="no"?>
<!DOCTYPE svg PUBLIC "-//W3C//DTD SVG 1.1//EN"
 "http://www.w3.org/Graphics/SVG/1.1/DTD/svg11.dtd">
<!-- Generated by graphviz version 7.0.5 (20221223.1930)
 -->
<!-- Title: lib/application_business_rules/user_interaction/KeyIds.hpp Pages: 1 -->
<svg width="1088pt" height="280pt"
 viewBox="0.00 0.00 1088.00 280.00" xmlns="http://www.w3.org/2000/svg" xmlns:xlink="http://www.w3.org/1999/xlink">
<g id="graph0" class="graph" transform="scale(1 1) rotate(0) translate(4 276)">
<title>lib/application_business_rules/user_interaction/KeyIds.hpp</title>
<!-- Node1 -->
<g id="node1" class="node">
<title>Node1</title>
<g id="a_node1"><a xlink:title=" ">
<polygon fill="#999999" stroke="#666666" points="744.5,-272 624.5,-272 624.5,-231 744.5,-231 744.5,-272"/>
<text text-anchor="start" x="632.5" y="-260" font-family="Helvetica,sans-Serif" font-size="10.00">lib/application_business</text>
<text text-anchor="start" x="632.5" y="-249" font-family="Helvetica,sans-Serif" font-size="10.00">_rules/user_interaction</text>
<text text-anchor="middle" x="684.5" y="-238" font-family="Helvetica,sans-Serif" font-size="10.00">/KeyIds.hpp</text>
</a>
</g>
</g>
<!-- Node2 -->
<g id="node2" class="node">
<title>Node2</title>
<g id="a_node2"><a xlink:href="IKeypad_8hpp.xhtml" target="_top" xlink:title=" ">
<polygon fill="white" stroke="#666666" points="525.5,-195 405.5,-195 405.5,-154 525.5,-154 525.5,-195"/>
<text text-anchor="start" x="413.5" y="-183" font-family="Helvetica,sans-Serif" font-size="10.00">lib/application_business</text>
<text text-anchor="start" x="413.5" y="-172" font-family="Helvetica,sans-Serif" font-size="10.00">_rules/user_interaction</text>
<text text-anchor="middle" x="465.5" y="-161" font-family="Helvetica,sans-Serif" font-size="10.00">/IKeypad.hpp</text>
</a>
</g>
</g>
<!-- Node1&#45;&gt;Node2 -->
<g id="edge1" class="edge">
<title>Node1&#45;&gt;Node2</title>
<path fill="none" stroke="#63b8ff" d="M615.75,-226.95C586.24,-216.85 552.14,-205.17 523.88,-195.49"/>
<polygon fill="#63b8ff" stroke="#63b8ff" points="614.36,-230.18 624.96,-230.11 616.63,-223.56 614.36,-230.18"/>
</g>
<!-- Node11 -->
<g id="node11" class="node">
<title>Node11</title>
<g id="a_node11"><a xlink:href="KeyIds_8cpp.xhtml" target="_top" xlink:title=" ">
<polygon fill="white" stroke="#666666" points="957.5,-195 837.5,-195 837.5,-154 957.5,-154 957.5,-195"/>
<text text-anchor="start" x="845.5" y="-183" font-family="Helvetica,sans-Serif" font-size="10.00">lib/application_business</text>
<text text-anchor="start" x="845.5" y="-172" font-family="Helvetica,sans-Serif" font-size="10.00">_rules/user_interaction</text>
<text text-anchor="middle" x="897.5" y="-161" font-family="Helvetica,sans-Serif" font-size="10.00">/KeyIds.cpp</text>
</a>
</g>
</g>
<!-- Node1&#45;&gt;Node11 -->
<g id="edge11" class="edge">
<title>Node1&#45;&gt;Node11</title>
<path fill="none" stroke="#63b8ff" d="M751.75,-226.82C780.36,-216.75 813.36,-205.13 840.72,-195.49"/>
<polygon fill="#63b8ff" stroke="#63b8ff" points="750.72,-223.47 742.45,-230.1 753.04,-230.08 750.72,-223.47"/>
</g>
<!-- Node12 -->
<g id="node12" class="node">
<title>Node12</title>
<g id="a_node12"><a xlink:href="ProcessHmiInputs_8hpp.xhtml" target="_top" xlink:title=" ">
<polygon fill="white" stroke="#666666" points="675.5,-195 555.5,-195 555.5,-154 675.5,-154 675.5,-195"/>
<text text-anchor="start" x="563.5" y="-183" font-family="Helvetica,sans-Serif" font-size="10.00">lib/application_business</text>
<text text-anchor="start" x="563.5" y="-172" font-family="Helvetica,sans-Serif" font-size="10.00">_rules/user_interaction</text>
<text text-anchor="middle" x="615.5" y="-161" font-family="Helvetica,sans-Serif" font-size="10.00">/ProcessHmiInputs.hpp</text>
</a>
</g>
</g>
<!-- Node1&#45;&gt;Node12 -->
<g id="edge12" class="edge">
<title>Node1&#45;&gt;Node12</title>
<path fill="none" stroke="#63b8ff" d="M658.7,-222.46C650.4,-213.44 641.39,-203.64 633.75,-195.33"/>
<polygon fill="#63b8ff" stroke="#63b8ff" points="656,-224.69 665.35,-229.68 661.15,-219.95 656,-224.69"/>
</g>
<!-- Node13 -->
<g id="node13" class="node">
<title>Node13</title>
<g id="a_node13"><a xlink:href="board__interface_8hpp.xhtml" target="_top" xlink:title=" ">
<polygon fill="white" stroke="#666666" points="819.5,-195 699.5,-195 699.5,-154 819.5,-154 819.5,-195"/>
<text text-anchor="start" x="707.5" y="-183" font-family="Helvetica,sans-Serif" font-size="10.00">lib/application_business</text>
<text text-anchor="start" x="707.5" y="-172" font-family="Helvetica,sans-Serif" font-size="10.00">_rules/user_interaction</text>
<text text-anchor="middle" x="759.5" y="-161" font-family="Helvetica,sans-Serif" font-size="10.00">/board_interface.hpp</text>
</a>
</g>
</g>
<!-- Node1&#45;&gt;Node13 -->
<g id="edge16" class="edge">
<title>Node1&#45;&gt;Node13</title>
<path fill="none" stroke="#63b8ff" d="M712.26,-222.74C721.36,-213.64 731.28,-203.72 739.67,-195.33"/>
<polygon fill="#63b8ff" stroke="#63b8ff" points="709.87,-220.18 705.28,-229.72 714.82,-225.13 709.87,-220.18"/>
</g>
<!-- Node3 -->
<g id="node3" class="node">
<title>Node3</title>
<g id="a_node3"><a xlink:href="ProcessHmiInputs_8cpp.xhtml" target="_top" xlink:title=" ">
<polygon fill="white" stroke="#666666" points="650.5,-118 530.5,-118 530.5,-77 650.5,-77 650.5,-118"/>
<text text-anchor="start" x="538.5" y="-106" font-family="Helvetica,sans-Serif" font-size="10.00">lib/application_business</text>
<text text-anchor="start" x="538.5" y="-95" font-family="Helvetica,sans-Serif" font-size="10.00">_rules/user_interaction</text>
<text text-anchor="middle" x="590.5" y="-84" font-family="Helvetica,sans-Serif" font-size="10.00">/ProcessHmiInputs.cpp</text>
</a>
</g>
</g>
<!-- Node2&#45;&gt;Node3 -->
<g id="edge2" class="edge">
<title>Node2&#45;&gt;Node3</title>
<path fill="none" stroke="#63b8ff" d="M508.33,-147.8C524.3,-138.22 542.18,-127.49 557.18,-118.49"/>
<polygon fill="#63b8ff" stroke="#63b8ff" points="506.74,-144.67 499.97,-152.82 510.34,-150.68 506.74,-144.67"/>
</g>
<!-- Node4 -->
<g id="node4" class="node">
<title>Node4</title>
<g id="a_node4"><a xlink:href="keypad__factory__interface_8hpp.xhtml" target="_top" xlink:title=" ">
<polygon fill="white" stroke="#666666" points="400.5,-118 254.5,-118 254.5,-77 400.5,-77 400.5,-118"/>
<text text-anchor="start" x="262.5" y="-106" font-family="Helvetica,sans-Serif" font-size="10.00">lib/application_business</text>
<text text-anchor="start" x="262.5" y="-95" font-family="Helvetica,sans-Serif" font-size="10.00">_rules/user_interaction</text>
<text text-anchor="middle" x="327.5" y="-84" font-family="Helvetica,sans-Serif" font-size="10.00">/keypad_factory_interface.hpp</text>
</a>
</g>
</g>
<!-- Node2&#45;&gt;Node4 -->
<g id="edge3" class="edge">
<title>Node2&#45;&gt;Node4</title>
<path fill="none" stroke="#63b8ff" d="M419.22,-148.35C401.33,-138.63 381.16,-127.66 364.29,-118.49"/>
<polygon fill="#63b8ff" stroke="#63b8ff" points="417.09,-151.18 427.55,-152.88 420.44,-145.03 417.09,-151.18"/>
</g>
<!-- Node7 -->
<g id="node7" class="node">
<title>Node7</title>
<g id="a_node7"><a xlink:href="Keypad_8hpp.xhtml" target="_top" xlink:title=" ">
<polygon fill="white" stroke="#666666" points="236,-118 119,-118 119,-77 236,-77 236,-118"/>
<text text-anchor="start" x="127" y="-106" font-family="Helvetica,sans-Serif" font-size="10.00">lib/board_adapters</text>
<text text-anchor="start" x="127" y="-95" font-family="Helvetica,sans-Serif" font-size="10.00">/input_device_interface</text>
<text text-anchor="middle" x="177.5" y="-84" font-family="Helvetica,sans-Serif" font-size="10.00">/Keypad.hpp</text>
</a>
</g>
</g>
<!-- Node2&#45;&gt;Node7 -->
<g id="edge6" class="edge">
<title>Node2&#45;&gt;Node7</title>
<path fill="none" stroke="#63b8ff" d="M394.18,-156.12C351.05,-145.46 295.01,-131.34 245.5,-118 242.54,-117.2 239.5,-116.37 236.44,-115.53"/>
<polygon fill="#63b8ff" stroke="#63b8ff" points="393.12,-159.47 403.67,-158.46 394.8,-152.67 393.12,-159.47"/>
</g>
<!-- Node10 -->
<g id="node10" class="node">
<title>Node10</title>
<g id="a_node10"><a xlink:href="test__hmi_8cpp.xhtml" target="_top" xlink:title=" ">
<polygon fill="white" stroke="#666666" points="512,-112.5 419,-112.5 419,-82.5 512,-82.5 512,-112.5"/>
<text text-anchor="start" x="427" y="-100.5" font-family="Helvetica,sans-Serif" font-size="10.00">test/test_hmi/test</text>
<text text-anchor="middle" x="465.5" y="-89.5" font-family="Helvetica,sans-Serif" font-size="10.00">_hmi.cpp</text>
</a>
</g>
</g>
<!-- Node2&#45;&gt;Node10 -->
<g id="edge10" class="edge">
<title>Node2&#45;&gt;Node10</title>
<path fill="none" stroke="#63b8ff" d="M465.5,-142.28C465.5,-132.07 465.5,-121.21 465.5,-112.86"/>
<polygon fill="#63b8ff" stroke="#63b8ff" points="462,-142.28 465.5,-152.28 469,-142.28 462,-142.28"/>
</g>
<!-- Node5 -->
<g id="node5" class="node">
<title>Node5</title>
<g id="a_node5"><a xlink:href="keypad__factory__interface_8cpp.xhtml" target="_top" xlink:title=" ">
<polygon fill="white" stroke="#666666" points="400.5,-41 254.5,-41 254.5,0 400.5,0 400.5,-41"/>
<text text-anchor="start" x="262.5" y="-29" font-family="Helvetica,sans-Serif" font-size="10.00">lib/board_adapters</text>
<text text-anchor="start" x="262.5" y="-18" font-family="Helvetica,sans-Serif" font-size="10.00">/input_device_interface</text>
<text text-anchor="middle" x="327.5" y="-7" font-family="Helvetica,sans-Serif" font-size="10.00">/keypad_factory_interface.cpp</text>
</a>
</g>
</g>
<!-- Node4&#45;&gt;Node5 -->
<g id="edge4" class="edge">
<title>Node4&#45;&gt;Node5</title>
<path fill="none" stroke="#63b8ff" d="M327.5,-65.36C327.5,-57.24 327.5,-48.7 327.5,-41.33"/>
<polygon fill="#63b8ff" stroke="#63b8ff" points="324,-65.28 327.5,-75.28 331,-65.28 324,-65.28"/>
</g>
<!-- Node6 -->
<g id="node6" class="node">
<title>Node6</title>
<g id="a_node6"><a xlink:href="main_8cpp.xhtml" target="_top" xlink:title=" ">
<polygon fill="white" stroke="#666666" points="602.5,-30 530.5,-30 530.5,-11 602.5,-11 602.5,-30"/>
<text text-anchor="middle" x="566.5" y="-18" font-family="Helvetica,sans-Serif" font-size="10.00">src/main.cpp</text>
</a>
</g>
</g>
<!-- Node4&#45;&gt;Node6 -->
<g id="edge5" class="edge">
<title>Node4&#45;&gt;Node6</title>
<path fill="none" stroke="#63b8ff" d="M401.78,-73.19C447.85,-58.73 504.44,-40.97 537.87,-30.48"/>
<polygon fill="#63b8ff" stroke="#63b8ff" points="400.86,-69.81 392.36,-76.15 402.95,-76.49 400.86,-69.81"/>
</g>
<!-- Node7&#45;&gt;Node5 -->
<g id="edge8" class="edge">
<title>Node7&#45;&gt;Node5</title>
<path fill="none" stroke="#63b8ff" d="M227.54,-71.48C247.04,-61.73 269.09,-50.7 287.51,-41.49"/>
<polygon fill="#63b8ff" stroke="#63b8ff" points="226.04,-68.32 218.66,-75.92 229.17,-74.58 226.04,-68.32"/>
</g>
<!-- Node8 -->
<g id="node8" class="node">
<title>Node8</title>
<g id="a_node8"><a xlink:href="Keypad_8cpp.xhtml" target="_top" xlink:title=" ">
<polygon fill="white" stroke="#666666" points="236,-41 119,-41 119,0 236,0 236,-41"/>
<text text-anchor="start" x="127" y="-29" font-family="Helvetica,sans-Serif" font-size="10.00">lib/board_adapters</text>
<text text-anchor="start" x="127" y="-18" font-family="Helvetica,sans-Serif" font-size="10.00">/input_device_interface</text>
<text text-anchor="middle" x="177.5" y="-7" font-family="Helvetica,sans-Serif" font-size="10.00">/Keypad.cpp</text>
</a>
</g>
</g>
<!-- Node7&#45;&gt;Node8 -->
<g id="edge7" class="edge">
<title>Node7&#45;&gt;Node8</title>
<path fill="none" stroke="#63b8ff" d="M177.5,-65.36C177.5,-57.24 177.5,-48.7 177.5,-41.33"/>
<polygon fill="#63b8ff" stroke="#63b8ff" points="174,-65.28 177.5,-75.28 181,-65.28 174,-65.28"/>
</g>
<!-- Node9 -->
<g id="node9" class="node">
<title>Node9</title>
<g id="a_node9"><a xlink:href="test__board_8cpp.xhtml" target="_top" xlink:title=" ">
<polygon fill="white" stroke="#666666" points="101,-35.5 0,-35.5 0,-5.5 101,-5.5 101,-35.5"/>
<text text-anchor="start" x="8" y="-23.5" font-family="Helvetica,sans-Serif" font-size="10.00">test/test_board/test</text>
<text text-anchor="middle" x="50.5" y="-12.5" font-family="Helvetica,sans-Serif" font-size="10.00">_board.cpp</text>
</a>
</g>
</g>
<!-- Node7&#45;&gt;Node9 -->
<g id="edge9" class="edge">
<title>Node7&#45;&gt;Node9</title>
<path fill="none" stroke="#63b8ff" d="M134.03,-70.83C114.19,-59.11 91.43,-45.67 74.69,-35.79"/>
<polygon fill="#63b8ff" stroke="#63b8ff" points="132.11,-73.76 142.5,-75.83 135.67,-67.73 132.11,-73.76"/>
</g>
<!-- Node12&#45;&gt;Node3 -->
<g id="edge13" class="edge">
<title>Node12&#45;&gt;Node3</title>
<path fill="none" stroke="#63b8ff" d="M605.31,-142.93C602.54,-134.63 599.62,-125.87 597.11,-118.33"/>
<polygon fill="#63b8ff" stroke="#63b8ff" points="601.97,-143.98 608.45,-152.36 608.61,-141.77 601.97,-143.98"/>
</g>
<!-- Node12&#45;&gt;Node6 -->
<g id="edge14" class="edge">
<title>Node12&#45;&gt;Node6</title>
<path fill="none" stroke="#63b8ff" d="M643.9,-145.08C650.26,-136.98 656.12,-127.7 659.5,-118 665.49,-100.79 668.5,-92.85 659.5,-77 646.04,-53.29 617.99,-38.63 596.2,-30.38"/>
<polygon fill="#63b8ff" stroke="#63b8ff" points="641.38,-142.64 637.59,-152.54 646.72,-147.17 641.38,-142.64"/>
</g>
<!-- Node12&#45;&gt;Node10 -->
<g id="edge15" class="edge">
<title>Node12&#45;&gt;Node10</title>
<path fill="none" stroke="#63b8ff" d="M565.44,-148.47C541.71,-136.6 514.21,-122.85 494.07,-112.79"/>
<polygon fill="#63b8ff" stroke="#63b8ff" points="563.83,-151.58 574.34,-152.92 566.96,-145.32 563.83,-151.58"/>
</g>
<!-- Node13&#45;&gt;Node3 -->
<g id="edge18" class="edge">
<title>Node13&#45;&gt;Node3</title>
<path fill="none" stroke="#63b8ff" d="M704.34,-149.02C682.06,-139.13 656.69,-127.87 635.55,-118.49"/>
<polygon fill="#63b8ff" stroke="#63b8ff" points="702.71,-152.13 713.27,-152.98 705.55,-145.73 702.71,-152.13"/>
</g>
<!-- Node14 -->
<g id="node14" class="node">
<title>Node14</title>
<g id="a_node14"><a xlink:href="Presenter_8cpp.xhtml" target="_top" xlink:title=" ">
<polygon fill="white" stroke="#666666" points="826.5,-118 706.5,-118 706.5,-77 826.5,-77 826.5,-118"/>
<text text-anchor="start" x="714.5" y="-106" font-family="Helvetica,sans-Serif" font-size="10.00">lib/application_business</text>
<text text-anchor="start" x="714.5" y="-95" font-family="Helvetica,sans-Serif" font-size="10.00">_rules/user_interaction</text>
<text text-anchor="middle" x="766.5" y="-84" font-family="Helvetica,sans-Serif" font-size="10.00">/Presenter.cpp</text>
</a>
</g>
</g>
<!-- Node13&#45;&gt;Node14 -->
<g id="edge17" class="edge">
<title>Node13&#45;&gt;Node14</title>
<path fill="none" stroke="#63b8ff" d="M762.41,-142.36C763.16,-134.24 763.96,-125.7 764.65,-118.33"/>
<polygon fill="#63b8ff" stroke="#63b8ff" points="758.92,-142.01 761.48,-152.29 765.89,-142.66 758.92,-142.01"/>
</g>
<!-- Node15 -->
<g id="node15" class="node">
<title>Node15</title>
<g id="a_node15"><a xlink:href="board_8cpp.xhtml" target="_top" xlink:title=" ">
<polygon fill="white" stroke="#666666" points="940.5,-112.5 844.5,-112.5 844.5,-82.5 940.5,-82.5 940.5,-112.5"/>
<text text-anchor="start" x="852.5" y="-100.5" font-family="Helvetica,sans-Serif" font-size="10.00">lib/board_adapters</text>
<text text-anchor="middle" x="892.5" y="-89.5" font-family="Helvetica,sans-Serif" font-size="10.00">/board.cpp</text>
</a>
</g>
</g>
<!-- Node13&#45;&gt;Node15 -->
<g id="edge19" class="edge">
<title>Node13&#45;&gt;Node15</title>
<path fill="none" stroke="#63b8ff" d="M804.74,-147.99C825.59,-136.23 849.55,-122.72 867.17,-112.79"/>
<polygon fill="#63b8ff" stroke="#63b8ff" points="803.1,-144.89 796.11,-152.85 806.54,-150.99 803.1,-144.89"/>
</g>
<!-- Node16 -->
<g id="node16" class="node">
<title>Node16</title>
<g id="a_node16"><a xlink:href="sound__output_8cpp.xhtml" target="_top" xlink:title=" ">
<polygon fill="white" stroke="#666666" points="1080,-118 959,-118 959,-77 1080,-77 1080,-118"/>
<text text-anchor="start" x="967" y="-106" font-family="Helvetica,sans-Serif" font-size="10.00">lib/board_adapters</text>
<text text-anchor="start" x="967" y="-95" font-family="Helvetica,sans-Serif" font-size="10.00">/sound_output_interface</text>
<text text-anchor="middle" x="1019.5" y="-84" font-family="Helvetica,sans-Serif" font-size="10.00">/sound_output.cpp</text>
</a>
</g>
</g>
<!-- Node13&#45;&gt;Node16 -->
<g id="edge20" class="edge">
<title>Node13&#45;&gt;Node16</title>
<path fill="none" stroke="#63b8ff" d="M830.84,-152.92C870.91,-141.36 920.39,-127.09 958.62,-116.06"/>
<polygon fill="#63b8ff" stroke="#63b8ff" points="829.9,-149.55 821.26,-155.69 831.84,-156.28 829.9,-149.55"/>
</g>
</g>
</svg>
