<?xml version="1.0" encoding="UTF-8" standalone="no"?>
<!DOCTYPE svg PUBLIC "-//W3C//DTD SVG 1.1//EN"
 "http://www.w3.org/Graphics/SVG/1.1/DTD/svg11.dtd">
<!-- Generated by graphviz version 7.0.5 (20221223.1930)
 -->
<!-- Title: lib/application_business_rules/user_interaction/KeyIds.hpp Pages: 1 -->
<svg width="1052pt" height="280pt"
 viewBox="0.00 0.00 1052.00 280.00" xmlns="http://www.w3.org/2000/svg" xmlns:xlink="http://www.w3.org/1999/xlink">
<g id="graph0" class="graph" transform="scale(1 1) rotate(0) translate(4 276)">
<title>lib/application_business_rules/user_interaction/KeyIds.hpp</title>
<!-- Node1 -->
<g id="node1" class="node">
<title>Node1</title>
<g id="a_node1"><a xlink:title=" ">
<polygon fill="#999999" stroke="#666666" points="727.5,-272 607.5,-272 607.5,-231 727.5,-231 727.5,-272"/>
<text text-anchor="start" x="615.5" y="-260" font-family="Helvetica,sans-Serif" font-size="10.00">lib/application_business</text>
<text text-anchor="start" x="615.5" y="-249" font-family="Helvetica,sans-Serif" font-size="10.00">_rules/user_interaction</text>
<text text-anchor="middle" x="667.5" y="-238" font-family="Helvetica,sans-Serif" font-size="10.00">/KeyIds.hpp</text>
</a>
</g>
</g>
<!-- Node2 -->
<g id="node2" class="node">
<title>Node2</title>
<g id="a_node2"><a xlink:href="IKeypad_8hpp.xhtml" target="_top" xlink:title=" ">
<polygon fill="white" stroke="#666666" points="425.5,-195 305.5,-195 305.5,-154 425.5,-154 425.5,-195"/>
<text text-anchor="start" x="313.5" y="-183" font-family="Helvetica,sans-Serif" font-size="10.00">lib/application_business</text>
<text text-anchor="start" x="313.5" y="-172" font-family="Helvetica,sans-Serif" font-size="10.00">_rules/user_interaction</text>
<text text-anchor="middle" x="365.5" y="-161" font-family="Helvetica,sans-Serif" font-size="10.00">/IKeypad.hpp</text>
</a>
</g>
</g>
<!-- Node1&#45;&gt;Node2 -->
<g id="edge1" class="edge">
<title>Node1&#45;&gt;Node2</title>
<path fill="none" stroke="#63b8ff" d="M596,-232.74C544.16,-219.87 474.83,-202.65 425.78,-190.47"/>
<polygon fill="#63b8ff" stroke="#63b8ff" points="595.09,-236.12 605.64,-235.14 596.78,-229.33 595.09,-236.12"/>
</g>
<!-- Node11 -->
<g id="node11" class="node">
<title>Node11</title>
<g id="a_node11"><a xlink:href="KeyIds_8cpp.xhtml" target="_top" xlink:title=" ">
<polygon fill="white" stroke="#666666" points="934.5,-195 814.5,-195 814.5,-154 934.5,-154 934.5,-195"/>
<text text-anchor="start" x="822.5" y="-183" font-family="Helvetica,sans-Serif" font-size="10.00">lib/application_business</text>
<text text-anchor="start" x="822.5" y="-172" font-family="Helvetica,sans-Serif" font-size="10.00">_rules/user_interaction</text>
<text text-anchor="middle" x="874.5" y="-161" font-family="Helvetica,sans-Serif" font-size="10.00">/KeyIds.cpp</text>
</a>
</g>
</g>
<!-- Node1&#45;&gt;Node11 -->
<g id="edge12" class="edge">
<title>Node1&#45;&gt;Node11</title>
<path fill="none" stroke="#63b8ff" d="M733.22,-226.69C760.94,-216.65 792.84,-205.09 819.31,-195.49"/>
<polygon fill="#63b8ff" stroke="#63b8ff" points="732.06,-223.39 723.85,-230.08 734.45,-229.97 732.06,-223.39"/>
</g>
<!-- Node12 -->
<g id="node12" class="node">
<title>Node12</title>
<g id="a_node12"><a xlink:href="ProcessHmiInputs_8hpp.xhtml" target="_top" xlink:title=" ">
<polygon fill="white" stroke="#666666" points="658.5,-195 538.5,-195 538.5,-154 658.5,-154 658.5,-195"/>
<text text-anchor="start" x="546.5" y="-183" font-family="Helvetica,sans-Serif" font-size="10.00">lib/application_business</text>
<text text-anchor="start" x="546.5" y="-172" font-family="Helvetica,sans-Serif" font-size="10.00">_rules/user_interaction</text>
<text text-anchor="middle" x="598.5" y="-161" font-family="Helvetica,sans-Serif" font-size="10.00">/ProcessHmiInputs.hpp</text>
</a>
</g>
</g>
<!-- Node1&#45;&gt;Node12 -->
<g id="edge13" class="edge">
<title>Node1&#45;&gt;Node12</title>
<path fill="none" stroke="#63b8ff" d="M641.7,-222.46C633.4,-213.44 624.39,-203.64 616.75,-195.33"/>
<polygon fill="#63b8ff" stroke="#63b8ff" points="639,-224.69 648.35,-229.68 644.15,-219.95 639,-224.69"/>
</g>
<!-- Node13 -->
<g id="node13" class="node">
<title>Node13</title>
<g id="a_node13"><a xlink:href="board__interface_8hpp.xhtml" target="_top" xlink:title=" ">
<polygon fill="white" stroke="#666666" points="796.5,-195 676.5,-195 676.5,-154 796.5,-154 796.5,-195"/>
<text text-anchor="start" x="684.5" y="-183" font-family="Helvetica,sans-Serif" font-size="10.00">lib/application_business</text>
<text text-anchor="start" x="684.5" y="-172" font-family="Helvetica,sans-Serif" font-size="10.00">_rules/user_interaction</text>
<text text-anchor="middle" x="736.5" y="-161" font-family="Helvetica,sans-Serif" font-size="10.00">/board_interface.hpp</text>
</a>
</g>
</g>
<!-- Node1&#45;&gt;Node13 -->
<g id="edge17" class="edge">
<title>Node1&#45;&gt;Node13</title>
<path fill="none" stroke="#63b8ff" d="M693.3,-222.46C701.6,-213.44 710.61,-203.64 718.25,-195.33"/>
<polygon fill="#63b8ff" stroke="#63b8ff" points="690.85,-219.95 686.65,-229.68 696,-224.69 690.85,-219.95"/>
</g>
<!-- Node3 -->
<g id="node3" class="node">
<title>Node3</title>
<g id="a_node3"><a xlink:href="ProcessHmiInputs_8cpp.xhtml" target="_top" xlink:title=" ">
<polygon fill="white" stroke="#666666" points="576.5,-118 456.5,-118 456.5,-77 576.5,-77 576.5,-118"/>
<text text-anchor="start" x="464.5" y="-106" font-family="Helvetica,sans-Serif" font-size="10.00">lib/application_business</text>
<text text-anchor="start" x="464.5" y="-95" font-family="Helvetica,sans-Serif" font-size="10.00">_rules/user_interaction</text>
<text text-anchor="middle" x="516.5" y="-84" font-family="Helvetica,sans-Serif" font-size="10.00">/ProcessHmiInputs.cpp</text>
</a>
</g>
</g>
<!-- Node2&#45;&gt;Node3 -->
<g id="edge2" class="edge">
<title>Node2&#45;&gt;Node3</title>
<path fill="none" stroke="#63b8ff" d="M415.87,-148.48C435.51,-138.73 457.7,-127.7 476.24,-118.49"/>
<polygon fill="#63b8ff" stroke="#63b8ff" points="414.32,-145.34 406.92,-152.92 417.44,-151.61 414.32,-145.34"/>
</g>
<!-- Node4 -->
<g id="node4" class="node">
<title>Node4</title>
<g id="a_node4"><a xlink:href="keypad__factory__interface_8hpp.xhtml" target="_top" xlink:title=" ">
<polygon fill="white" stroke="#666666" points="438.5,-118 292.5,-118 292.5,-77 438.5,-77 438.5,-118"/>
<text text-anchor="start" x="300.5" y="-106" font-family="Helvetica,sans-Serif" font-size="10.00">lib/application_business</text>
<text text-anchor="start" x="300.5" y="-95" font-family="Helvetica,sans-Serif" font-size="10.00">_rules/user_interaction</text>
<text text-anchor="middle" x="365.5" y="-84" font-family="Helvetica,sans-Serif" font-size="10.00">/keypad_factory_interface.hpp</text>
</a>
</g>
</g>
<!-- Node2&#45;&gt;Node4 -->
<g id="edge3" class="edge">
<title>Node2&#45;&gt;Node4</title>
<path fill="none" stroke="#63b8ff" d="M365.5,-142.36C365.5,-134.24 365.5,-125.7 365.5,-118.33"/>
<polygon fill="#63b8ff" stroke="#63b8ff" points="362,-142.28 365.5,-152.28 369,-142.28 362,-142.28"/>
</g>
<!-- Node7 -->
<g id="node7" class="node">
<title>Node7</title>
<g id="a_node7"><a xlink:href="test__hmi_8cpp.xhtml" target="_top" xlink:title=" ">
<polygon fill="white" stroke="#666666" points="512,-35.5 419,-35.5 419,-5.5 512,-5.5 512,-35.5"/>
<text text-anchor="start" x="427" y="-23.5" font-family="Helvetica,sans-Serif" font-size="10.00">test/test_hmi/test</text>
<text text-anchor="middle" x="465.5" y="-12.5" font-family="Helvetica,sans-Serif" font-size="10.00">_hmi.cpp</text>
</a>
</g>
</g>
<!-- Node2&#45;&gt;Node7 -->
<g id="edge11" class="edge">
<title>Node2&#45;&gt;Node7</title>
<path fill="none" stroke="#63b8ff" d="M310.87,-147.53C299.89,-139.65 289.8,-129.86 283.5,-118 274.96,-101.9 272.53,-91.55 283.5,-77 318.57,-30.5 353.98,-58.58 409.5,-41 414.51,-39.41 419.74,-37.69 424.91,-35.94"/>
<polygon fill="#63b8ff" stroke="#63b8ff" points="308.7,-150.3 318.97,-152.87 312.55,-144.45 308.7,-150.3"/>
</g>
<!-- Node8 -->
<g id="node8" class="node">
<title>Node8</title>
<g id="a_node8"><a xlink:href="Keypad_8hpp.xhtml" target="_top" xlink:title=" ">
<polygon fill="white" stroke="#666666" points="236,-118 119,-118 119,-77 236,-77 236,-118"/>
<text text-anchor="start" x="127" y="-106" font-family="Helvetica,sans-Serif" font-size="10.00">lib/board_adapters</text>
<text text-anchor="start" x="127" y="-95" font-family="Helvetica,sans-Serif" font-size="10.00">/input_device_interface</text>
<text text-anchor="middle" x="177.5" y="-84" font-family="Helvetica,sans-Serif" font-size="10.00">/Keypad.hpp</text>
</a>
</g>
</g>
<!-- Node2&#45;&gt;Node8 -->
<g id="edge7" class="edge">
<title>Node2&#45;&gt;Node8</title>
<path fill="none" stroke="#63b8ff" d="M305.14,-149.42C280.13,-139.44 251.45,-128 227.62,-118.49"/>
<polygon fill="#63b8ff" stroke="#63b8ff" points="303.62,-152.58 314.21,-153.04 306.22,-146.08 303.62,-152.58"/>
</g>
<!-- Node5 -->
<g id="node5" class="node">
<title>Node5</title>
<g id="a_node5"><a xlink:href="keypad__factory__interface_8cpp.xhtml" target="_top" xlink:title=" ">
<polygon fill="white" stroke="#666666" points="400.5,-41 254.5,-41 254.5,0 400.5,0 400.5,-41"/>
<text text-anchor="start" x="262.5" y="-29" font-family="Helvetica,sans-Serif" font-size="10.00">lib/board_adapters</text>
<text text-anchor="start" x="262.5" y="-18" font-family="Helvetica,sans-Serif" font-size="10.00">/input_device_interface</text>
<text text-anchor="middle" x="327.5" y="-7" font-family="Helvetica,sans-Serif" font-size="10.00">/keypad_factory_interface.cpp</text>
</a>
</g>
</g>
<!-- Node4&#45;&gt;Node5 -->
<g id="edge4" class="edge">
<title>Node4&#45;&gt;Node5</title>
<path fill="none" stroke="#63b8ff" d="M350.44,-66.78C346.11,-58.23 341.5,-49.12 337.55,-41.33"/>
<polygon fill="#63b8ff" stroke="#63b8ff" points="347.19,-68.11 354.83,-75.44 353.43,-64.94 347.19,-68.11"/>
</g>
<!-- Node6 -->
<g id="node6" class="node">
<title>Node6</title>
<g id="a_node6"><a xlink:href="main_8cpp.xhtml" target="_top" xlink:title=" ">
<polygon fill="white" stroke="#666666" points="640.5,-30 568.5,-30 568.5,-11 640.5,-11 640.5,-30"/>
<text text-anchor="middle" x="604.5" y="-18" font-family="Helvetica,sans-Serif" font-size="10.00">src/main.cpp</text>
</a>
</g>
</g>
<!-- Node4&#45;&gt;Node6 -->
<g id="edge5" class="edge">
<title>Node4&#45;&gt;Node6</title>
<path fill="none" stroke="#63b8ff" d="M439.78,-73.19C485.85,-58.73 542.44,-40.97 575.87,-30.48"/>
<polygon fill="#63b8ff" stroke="#63b8ff" points="438.86,-69.81 430.36,-76.15 440.95,-76.49 438.86,-69.81"/>
</g>
<!-- Node4&#45;&gt;Node7 -->
<g id="edge6" class="edge">
<title>Node4&#45;&gt;Node7</title>
<path fill="none" stroke="#63b8ff" d="M401.23,-69.7C416.49,-58.26 433.69,-45.36 446.45,-35.79"/>
<polygon fill="#63b8ff" stroke="#63b8ff" points="399.15,-66.89 393.25,-75.69 403.35,-72.49 399.15,-66.89"/>
</g>
<!-- Node8&#45;&gt;Node5 -->
<g id="edge9" class="edge">
<title>Node8&#45;&gt;Node5</title>
<path fill="none" stroke="#63b8ff" d="M227.54,-71.48C247.04,-61.73 269.09,-50.7 287.51,-41.49"/>
<polygon fill="#63b8ff" stroke="#63b8ff" points="226.04,-68.32 218.66,-75.92 229.17,-74.58 226.04,-68.32"/>
</g>
<!-- Node9 -->
<g id="node9" class="node">
<title>Node9</title>
<g id="a_node9"><a xlink:href="Keypad_8cpp.xhtml" target="_top" xlink:title=" ">
<polygon fill="white" stroke="#666666" points="236,-41 119,-41 119,0 236,0 236,-41"/>
<text text-anchor="start" x="127" y="-29" font-family="Helvetica,sans-Serif" font-size="10.00">lib/board_adapters</text>
<text text-anchor="start" x="127" y="-18" font-family="Helvetica,sans-Serif" font-size="10.00">/input_device_interface</text>
<text text-anchor="middle" x="177.5" y="-7" font-family="Helvetica,sans-Serif" font-size="10.00">/Keypad.cpp</text>
</a>
</g>
</g>
<!-- Node8&#45;&gt;Node9 -->
<g id="edge8" class="edge">
<title>Node8&#45;&gt;Node9</title>
<path fill="none" stroke="#63b8ff" d="M177.5,-65.36C177.5,-57.24 177.5,-48.7 177.5,-41.33"/>
<polygon fill="#63b8ff" stroke="#63b8ff" points="174,-65.28 177.5,-75.28 181,-65.28 174,-65.28"/>
</g>
<!-- Node10 -->
<g id="node10" class="node">
<title>Node10</title>
<g id="a_node10"><a xlink:href="test__board_8cpp.xhtml" target="_top" xlink:title=" ">
<polygon fill="white" stroke="#666666" points="101,-35.5 0,-35.5 0,-5.5 101,-5.5 101,-35.5"/>
<text text-anchor="start" x="8" y="-23.5" font-family="Helvetica,sans-Serif" font-size="10.00">test/test_board/test</text>
<text text-anchor="middle" x="50.5" y="-12.5" font-family="Helvetica,sans-Serif" font-size="10.00">_board.cpp</text>
</a>
</g>
</g>
<!-- Node8&#45;&gt;Node10 -->
<g id="edge10" class="edge">
<title>Node8&#45;&gt;Node10</title>
<path fill="none" stroke="#63b8ff" d="M134.03,-70.83C114.19,-59.11 91.43,-45.67 74.69,-35.79"/>
<polygon fill="#63b8ff" stroke="#63b8ff" points="132.11,-73.76 142.5,-75.83 135.67,-67.73 132.11,-73.76"/>
</g>
<!-- Node12&#45;&gt;Node3 -->
<g id="edge14" class="edge">
<title>Node12&#45;&gt;Node3</title>
<path fill="none" stroke="#63b8ff" d="M568.76,-146.29C558.65,-137.05 547.54,-126.89 538.19,-118.33"/>
<polygon fill="#63b8ff" stroke="#63b8ff" points="566.1,-148.61 575.84,-152.77 570.82,-143.44 566.1,-148.61"/>
</g>
<!-- Node12&#45;&gt;Node6 -->
<g id="edge15" class="edge">
<title>Node12&#45;&gt;Node6</title>
<path fill="none" stroke="#63b8ff" d="M611.63,-142.97C614.47,-134.99 617.05,-126.3 618.5,-118 624.12,-85.81 613.31,-47.31 607.65,-30.31"/>
<polygon fill="#63b8ff" stroke="#63b8ff" points="608.39,-141.66 608.08,-152.25 614.92,-144.16 608.39,-141.66"/>
</g>
<!-- Node12&#45;&gt;Node7 -->
<g id="edge16" class="edge">
<title>Node12&#45;&gt;Node7</title>
<path fill="none" stroke="#63b8ff" d="M601.6,-142.45C602.01,-122 599.26,-95.65 585.5,-77 568.05,-53.36 538.05,-39.48 512.42,-31.52"/>
<polygon fill="#63b8ff" stroke="#63b8ff" points="598.11,-142.04 601.12,-152.2 605.11,-142.38 598.11,-142.04"/>
</g>
<!-- Node13&#45;&gt;Node3 -->
<g id="edge19" class="edge">
<title>Node13&#45;&gt;Node3</title>
<path fill="none" stroke="#63b8ff" d="M667.43,-149.95C637.79,-139.85 603.53,-128.17 575.15,-118.49"/>
<polygon fill="#63b8ff" stroke="#63b8ff" points="666.09,-153.2 676.69,-153.11 668.35,-146.57 666.09,-153.2"/>
</g>
<!-- Node14 -->
<g id="node14" class="node">
<title>Node14</title>
<g id="a_node14"><a xlink:href="Presenter_8cpp.xhtml" target="_top" xlink:title=" ">
<polygon fill="white" stroke="#666666" points="790.5,-118 670.5,-118 670.5,-77 790.5,-77 790.5,-118"/>
<text text-anchor="start" x="678.5" y="-106" font-family="Helvetica,sans-Serif" font-size="10.00">lib/application_business</text>
<text text-anchor="start" x="678.5" y="-95" font-family="Helvetica,sans-Serif" font-size="10.00">_rules/user_interaction</text>
<text text-anchor="middle" x="730.5" y="-84" font-family="Helvetica,sans-Serif" font-size="10.00">/Presenter.cpp</text>
</a>
</g>
</g>
<!-- Node13&#45;&gt;Node14 -->
<g id="edge18" class="edge">
<title>Node13&#45;&gt;Node14</title>
<path fill="none" stroke="#63b8ff" d="M734.01,-142.36C733.36,-134.24 732.68,-125.7 732.09,-118.33"/>
<polygon fill="#63b8ff" stroke="#63b8ff" points="730.52,-142.6 734.8,-152.29 737.49,-142.04 730.52,-142.6"/>
</g>
<!-- Node15 -->
<g id="node15" class="node">
<title>Node15</title>
<g id="a_node15"><a xlink:href="board_8cpp.xhtml" target="_top" xlink:title=" ">
<polygon fill="white" stroke="#666666" points="904.5,-112.5 808.5,-112.5 808.5,-82.5 904.5,-82.5 904.5,-112.5"/>
<text text-anchor="start" x="816.5" y="-100.5" font-family="Helvetica,sans-Serif" font-size="10.00">lib/board_adapters</text>
<text text-anchor="middle" x="856.5" y="-89.5" font-family="Helvetica,sans-Serif" font-size="10.00">/board.cpp</text>
</a>
</g>
</g>
<!-- Node13&#45;&gt;Node15 -->
<g id="edge20" class="edge">
<title>Node13&#45;&gt;Node15</title>
<path fill="none" stroke="#63b8ff" d="M778.09,-147.51C796.71,-135.87 817.97,-122.58 833.64,-112.79"/>
<polygon fill="#63b8ff" stroke="#63b8ff" points="776.25,-144.53 769.63,-152.8 779.96,-150.46 776.25,-144.53"/>
</g>
<!-- Node16 -->
<g id="node16" class="node">
<title>Node16</title>
<g id="a_node16"><a xlink:href="sound__output_8cpp.xhtml" target="_top" xlink:title=" ">
<polygon fill="white" stroke="#666666" points="1044,-118 923,-118 923,-77 1044,-77 1044,-118"/>
<text text-anchor="start" x="931" y="-106" font-family="Helvetica,sans-Serif" font-size="10.00">lib/board_adapters</text>
<text text-anchor="start" x="931" y="-95" font-family="Helvetica,sans-Serif" font-size="10.00">/sound_output_interface</text>
<text text-anchor="middle" x="983.5" y="-84" font-family="Helvetica,sans-Serif" font-size="10.00">/sound_output.cpp</text>
</a>
</g>
</g>
<!-- Node13&#45;&gt;Node16 -->
<g id="edge21" class="edge">
<title>Node13&#45;&gt;Node16</title>
<path fill="none" stroke="#63b8ff" d="M807.49,-151.94C843.97,-140.87 887.97,-127.51 922.84,-116.92"/>
<polygon fill="#63b8ff" stroke="#63b8ff" points="806.92,-148.46 798.37,-154.71 808.96,-155.16 806.92,-148.46"/>
</g>
</g>
</svg>
