<?xml version="1.0" encoding="UTF-8" standalone="no"?>
<!DOCTYPE svg PUBLIC "-//W3C//DTD SVG 1.1//EN"
 "http://www.w3.org/Graphics/SVG/1.1/DTD/svg11.dtd">
<!-- Generated by graphviz version 9.0.0 (20230911.1827)
 -->
<!-- Title: lib/layer1_use_cases/include/KeyIds.hpp Pages: 1 -->
<svg width="963pt" height="261pt"
 viewBox="0.00 0.00 963.25 260.50" xmlns="http://www.w3.org/2000/svg" xmlns:xlink="http://www.w3.org/1999/xlink">
<g id="graph0" class="graph" transform="scale(1 1) rotate(0) translate(4 256.5)">
<title>lib/layer1_use_cases/include/KeyIds.hpp</title>
<!-- Node1 -->
<g id="Node000001" class="node">
<title>Node1</title>
<g id="a_Node000001"><a xlink:title=" ">
<polygon fill="#999999" stroke="#666666" points="501.62,-252.5 394.88,-252.5 394.88,-222 501.62,-222 501.62,-252.5"/>
<text text-anchor="start" x="402.88" y="-239" font-family="Helvetica,sans-Serif" font-size="10.00">lib/layer1_use_cases</text>
<text text-anchor="middle" x="448.25" y="-227.75" font-family="Helvetica,sans-Serif" font-size="10.00">/include/KeyIds.hpp</text>
</a>
</g>
</g>
<!-- Node2 -->
<g id="Node000002" class="node">
<title>Node2</title>
<g id="a_Node000002"><a xlink:href="IController_8hpp.xhtml" target="_top" xlink:title=" ">
<polygon fill="white" stroke="#666666" points="358.75,-186 243.75,-186 243.75,-155.5 358.75,-155.5 358.75,-186"/>
<text text-anchor="start" x="251.75" y="-172.5" font-family="Helvetica,sans-Serif" font-size="10.00">lib/layer1_use_cases</text>
<text text-anchor="middle" x="301.25" y="-161.25" font-family="Helvetica,sans-Serif" font-size="10.00">/include/IController.hpp</text>
</a>
</g>
</g>
<!-- Node1&#45;&gt;Node2 -->
<g id="edge1_Node000001_Node000002" class="edge">
<title>Node1&#45;&gt;Node2</title>
<g id="a_edge1_Node000001_Node000002"><a xlink:title=" ">
<path fill="none" stroke="#63b8ff" d="M404.64,-217.12C382.27,-207.3 355.45,-195.53 334.73,-186.44"/>
<polygon fill="#63b8ff" stroke="#63b8ff" points="402.94,-220.19 413.51,-221.01 405.76,-213.78 402.94,-220.19"/>
</a>
</g>
</g>
<!-- Node8 -->
<g id="Node000008" class="node">
<title>Node8</title>
<g id="a_Node000008"><a xlink:href="Controller_8hpp.xhtml" target="_top" xlink:title=" ">
<polygon fill="white" stroke="#666666" points="453.12,-113.88 361.38,-113.88 361.38,-83.38 453.12,-83.38 453.12,-113.88"/>
<text text-anchor="start" x="369.38" y="-100.38" font-family="Helvetica,sans-Serif" font-size="10.00">lib/layer2_hmi/src</text>
<text text-anchor="middle" x="407.25" y="-89.12" font-family="Helvetica,sans-Serif" font-size="10.00">/Controller.hpp</text>
</a>
</g>
</g>
<!-- Node1&#45;&gt;Node8 -->
<g id="edge22_Node000001_Node000008" class="edge">
<title>Node1&#45;&gt;Node8</title>
<g id="a_edge22_Node000001_Node000008"><a xlink:title=" ">
<path fill="none" stroke="#63b8ff" d="M436.12,-211.18C432.6,-203.25 428.97,-194.37 426.25,-186 418.22,-161.32 412.51,-131.59 409.56,-114.22"/>
<polygon fill="#63b8ff" stroke="#63b8ff" points="432.92,-212.6 440.29,-220.22 439.28,-209.67 432.92,-212.6"/>
</a>
</g>
</g>
<!-- Node11 -->
<g id="Node000011" class="node">
<title>Node11</title>
<g id="a_Node000011"><a xlink:href="KeyIds_8cpp.xhtml" target="_top" xlink:title=" ">
<polygon fill="white" stroke="#666666" points="669.62,-186 562.88,-186 562.88,-155.5 669.62,-155.5 669.62,-186"/>
<text text-anchor="start" x="570.88" y="-172.5" font-family="Helvetica,sans-Serif" font-size="10.00">lib/layer1_use_cases</text>
<text text-anchor="middle" x="616.25" y="-161.25" font-family="Helvetica,sans-Serif" font-size="10.00">/src/KeyIds.cpp</text>
</a>
</g>
</g>
<!-- Node1&#45;&gt;Node11 -->
<g id="edge12_Node000001_Node000011" class="edge">
<title>Node1&#45;&gt;Node11</title>
<g id="a_edge12_Node000001_Node000011"><a xlink:title=" ">
<path fill="none" stroke="#63b8ff" d="M497.05,-217.51C522.82,-207.62 553.99,-195.65 577.99,-186.44"/>
<polygon fill="#63b8ff" stroke="#63b8ff" points="495.87,-214.22 487.78,-221.07 498.37,-220.75 495.87,-214.22"/>
</a>
</g>
</g>
<!-- Node12 -->
<g id="Node000012" class="node">
<title>Node12</title>
<g id="a_Node000012"><a xlink:href="IKeypad_8hpp.xhtml" target="_top" xlink:title=" ">
<polygon fill="white" stroke="#666666" points="544.75,-186 435.75,-186 435.75,-155.5 544.75,-155.5 544.75,-186"/>
<text text-anchor="start" x="443.75" y="-172.5" font-family="Helvetica,sans-Serif" font-size="10.00">lib/layer2_hmi/include</text>
<text text-anchor="middle" x="490.25" y="-161.25" font-family="Helvetica,sans-Serif" font-size="10.00">/IKeypad.hpp</text>
</a>
</g>
</g>
<!-- Node1&#45;&gt;Node12 -->
<g id="edge13_Node000001_Node000012" class="edge">
<title>Node1&#45;&gt;Node12</title>
<g id="a_edge13_Node000001_Node000012"><a xlink:title=" ">
<path fill="none" stroke="#63b8ff" d="M464.04,-212.01C469.66,-203.37 475.82,-193.91 480.76,-186.33"/>
<polygon fill="#63b8ff" stroke="#63b8ff" points="461.13,-210.06 458.61,-220.35 467,-213.88 461.13,-210.06"/>
</a>
</g>
</g>
<!-- Node3 -->
<g id="Node000003" class="node">
<title>Node3</title>
<g id="a_Node000003"><a xlink:href="ProcessHmiInputs_8hpp.xhtml" target="_top" xlink:title=" ">
<polygon fill="white" stroke="#666666" points="199.12,-113.88 47.38,-113.88 47.38,-83.38 199.12,-83.38 199.12,-113.88"/>
<text text-anchor="start" x="55.38" y="-100.38" font-family="Helvetica,sans-Serif" font-size="10.00">lib/layer1_use_cases</text>
<text text-anchor="middle" x="123.25" y="-89.12" font-family="Helvetica,sans-Serif" font-size="10.00">/include/ProcessHmiInputs.hpp</text>
</a>
</g>
</g>
<!-- Node2&#45;&gt;Node3 -->
<g id="edge2_Node000002_Node000003" class="edge">
<title>Node2&#45;&gt;Node3</title>
<g id="a_edge2_Node000002_Node000003"><a xlink:title=" ">
<path fill="none" stroke="#63b8ff" d="M253.56,-150.96C224.37,-139.46 187.56,-124.96 160.52,-114.31"/>
<polygon fill="#63b8ff" stroke="#63b8ff" points="251.94,-154.09 262.53,-154.49 254.51,-147.57 251.94,-154.09"/>
</a>
</g>
</g>
<!-- Node6 -->
<g id="Node000006" class="node">
<title>Node6</title>
<g id="a_Node000006"><a xlink:href="controller__factory__interface_8hpp.xhtml" target="_top" xlink:title=" ">
<polygon fill="white" stroke="#666666" points="343.75,-119.5 216.75,-119.5 216.75,-77.75 343.75,-77.75 343.75,-119.5"/>
<text text-anchor="start" x="224.75" y="-106" font-family="Helvetica,sans-Serif" font-size="10.00">lib/layer1_use_cases</text>
<text text-anchor="start" x="224.75" y="-94.75" font-family="Helvetica,sans-Serif" font-size="10.00">/include/controller_factory</text>
<text text-anchor="middle" x="280.25" y="-83.5" font-family="Helvetica,sans-Serif" font-size="10.00">_interface.hpp</text>
</a>
</g>
</g>
<!-- Node2&#45;&gt;Node6 -->
<g id="edge5_Node000002_Node000006" class="edge">
<title>Node2&#45;&gt;Node6</title>
<g id="a_edge5_Node000002_Node000006"><a xlink:title=" ">
<path fill="none" stroke="#63b8ff" d="M293.61,-144.25C291.22,-136.27 288.62,-127.57 286.35,-119.99"/>
<polygon fill="#63b8ff" stroke="#63b8ff" points="290.24,-145.19 296.46,-153.77 296.95,-143.19 290.24,-145.19"/>
</a>
</g>
</g>
<!-- Node2&#45;&gt;Node8 -->
<g id="edge8_Node000002_Node000008" class="edge">
<title>Node2&#45;&gt;Node8</title>
<g id="a_edge8_Node000002_Node000008"><a xlink:title=" ">
<path fill="none" stroke="#63b8ff" d="M332.9,-148.81C349.7,-137.7 369.94,-124.31 385.06,-114.31"/>
<polygon fill="#63b8ff" stroke="#63b8ff" points="331.14,-145.78 324.73,-154.21 335,-151.62 331.14,-145.78"/>
</a>
</g>
</g>
<!-- Node4 -->
<g id="Node000004" class="node">
<title>Node4</title>
<g id="a_Node000004"><a xlink:href="ProcessHmiInputs_8cpp.xhtml" target="_top" xlink:title=" ">
<polygon fill="white" stroke="#666666" points="134.5,-36.12 0,-36.12 0,-5.62 134.5,-5.62 134.5,-36.12"/>
<text text-anchor="start" x="8" y="-22.62" font-family="Helvetica,sans-Serif" font-size="10.00">lib/layer1_use_cases</text>
<text text-anchor="middle" x="67.25" y="-11.38" font-family="Helvetica,sans-Serif" font-size="10.00">/src/ProcessHmiInputs.cpp</text>
</a>
</g>
</g>
<!-- Node3&#45;&gt;Node4 -->
<g id="edge3_Node000003_Node000004" class="edge">
<title>Node3&#45;&gt;Node4</title>
<g id="a_edge3_Node000003_Node000004"><a xlink:title=" ">
<path fill="none" stroke="#63b8ff" d="M105.64,-73.8C96.58,-61.55 85.83,-47.01 78.01,-36.44"/>
<polygon fill="#63b8ff" stroke="#63b8ff" points="102.79,-75.84 111.55,-81.8 108.42,-71.68 102.79,-75.84"/>
</a>
</g>
</g>
<!-- Node5 -->
<g id="Node000005" class="node">
<title>Node5</title>
<g id="a_Node000005"><a xlink:href="main_8cpp.xhtml" target="_top" xlink:title=" ">
<polygon fill="white" stroke="#666666" points="224,-30.5 152.5,-30.5 152.5,-11.25 224,-11.25 224,-30.5"/>
<text text-anchor="middle" x="188.25" y="-17" font-family="Helvetica,sans-Serif" font-size="10.00">src/main.cpp</text>
</a>
</g>
</g>
<!-- Node3&#45;&gt;Node5 -->
<g id="edge4_Node000003_Node000005" class="edge">
<title>Node3&#45;&gt;Node5</title>
<g id="a_edge4_Node000003_Node000005"><a xlink:title=" ">
<path fill="none" stroke="#63b8ff" d="M143.19,-74.39C155.84,-59.64 171.5,-41.39 180.63,-30.75"/>
<polygon fill="#63b8ff" stroke="#63b8ff" points="140.62,-72 136.77,-81.87 145.94,-76.56 140.62,-72"/>
</a>
</g>
</g>
<!-- Node6&#45;&gt;Node5 -->
<g id="edge7_Node000006_Node000005" class="edge">
<title>Node6&#45;&gt;Node5</title>
<g id="a_edge7_Node000006_Node000005"><a xlink:title=" ">
<path fill="none" stroke="#63b8ff" d="M247.11,-70.34C230.36,-56.54 211.12,-40.71 199.33,-31"/>
<polygon fill="#63b8ff" stroke="#63b8ff" points="244.48,-72.71 254.43,-76.36 248.93,-67.3 244.48,-72.71"/>
</a>
</g>
</g>
<!-- Node7 -->
<g id="Node000007" class="node">
<title>Node7</title>
<g id="a_Node000007"><a xlink:href="controller__factory__interface_8cpp.xhtml" target="_top" xlink:title=" ">
<polygon fill="white" stroke="#666666" points="334.88,-41.75 241.62,-41.75 241.62,0 334.88,0 334.88,-41.75"/>
<text text-anchor="start" x="249.62" y="-28.25" font-family="Helvetica,sans-Serif" font-size="10.00">lib/layer2_hmi/src</text>
<text text-anchor="start" x="249.62" y="-17" font-family="Helvetica,sans-Serif" font-size="10.00">/controller_factory</text>
<text text-anchor="middle" x="288.25" y="-5.75" font-family="Helvetica,sans-Serif" font-size="10.00">_interface.cpp</text>
</a>
</g>
</g>
<!-- Node6&#45;&gt;Node7 -->
<g id="edge6_Node000006_Node000007" class="edge">
<title>Node6&#45;&gt;Node7</title>
<g id="a_edge6_Node000006_Node000007"><a xlink:title=" ">
<path fill="none" stroke="#63b8ff" d="M283.59,-66C284.44,-57.96 285.33,-49.54 286.1,-42.23"/>
<polygon fill="#63b8ff" stroke="#63b8ff" points="280.12,-65.51 282.55,-75.82 287.08,-66.24 280.12,-65.51"/>
</a>
</g>
</g>
<!-- Node8&#45;&gt;Node7 -->
<g id="edge10_Node000008_Node000007" class="edge">
<title>Node8&#45;&gt;Node7</title>
<g id="a_edge10_Node000008_Node000007"><a xlink:title=" ">
<path fill="none" stroke="#63b8ff" d="M374.78,-76.96C357.78,-66.13 337.04,-52.93 320.12,-42.16"/>
<polygon fill="#63b8ff" stroke="#63b8ff" points="372.71,-79.79 383.03,-82.21 376.47,-73.88 372.71,-79.79"/>
</a>
</g>
</g>
<!-- Node9 -->
<g id="Node000009" class="node">
<title>Node9</title>
<g id="a_Node000009"><a xlink:href="Controller_8cpp.xhtml" target="_top" xlink:title=" ">
<polygon fill="white" stroke="#666666" points="445.12,-36.12 353.38,-36.12 353.38,-5.62 445.12,-5.62 445.12,-36.12"/>
<text text-anchor="start" x="361.38" y="-22.62" font-family="Helvetica,sans-Serif" font-size="10.00">lib/layer2_hmi/src</text>
<text text-anchor="middle" x="399.25" y="-11.38" font-family="Helvetica,sans-Serif" font-size="10.00">/Controller.cpp</text>
</a>
</g>
</g>
<!-- Node8&#45;&gt;Node9 -->
<g id="edge9_Node000008_Node000009" class="edge">
<title>Node8&#45;&gt;Node9</title>
<g id="a_edge9_Node000008_Node000009"><a xlink:title=" ">
<path fill="none" stroke="#63b8ff" d="M404.5,-71.6C403.26,-59.84 401.84,-46.38 400.79,-36.44"/>
<polygon fill="#63b8ff" stroke="#63b8ff" points="401.02,-71.94 405.55,-81.51 407.98,-71.2 401.02,-71.94"/>
</a>
</g>
</g>
<!-- Node10 -->
<g id="Node000010" class="node">
<title>Node10</title>
<g id="a_Node000010"><a xlink:href="test__hmi_8cpp.xhtml" target="_top" xlink:title=" ">
<polygon fill="white" stroke="#666666" points="555.5,-36.12 463,-36.12 463,-5.62 555.5,-5.62 555.5,-36.12"/>
<text text-anchor="start" x="471" y="-22.62" font-family="Helvetica,sans-Serif" font-size="10.00">test/test_hmi/test</text>
<text text-anchor="middle" x="509.25" y="-11.38" font-family="Helvetica,sans-Serif" font-size="10.00">_hmi.cpp</text>
</a>
</g>
</g>
<!-- Node8&#45;&gt;Node10 -->
<g id="edge11_Node000008_Node000010" class="edge">
<title>Node8&#45;&gt;Node10</title>
<g id="a_edge11_Node000008_Node000010"><a xlink:title=" ">
<path fill="none" stroke="#63b8ff" d="M435.94,-76.31C453.09,-63.58 474.42,-47.74 489.64,-36.44"/>
<polygon fill="#63b8ff" stroke="#63b8ff" points="434.07,-73.35 428.13,-82.12 438.25,-78.96 434.07,-73.35"/>
</a>
</g>
</g>
<!-- Node12&#45;&gt;Node8 -->
<g id="edge17_Node000012_Node000008" class="edge">
<title>Node12&#45;&gt;Node8</title>
<g id="a_edge17_Node000012_Node000008"><a xlink:title=" ">
<path fill="none" stroke="#63b8ff" d="M464.5,-147.99C451.46,-136.98 435.99,-123.91 424.43,-114.14"/>
<polygon fill="#63b8ff" stroke="#63b8ff" points="462,-150.46 471.9,-154.24 466.52,-145.12 462,-150.46"/>
</a>
</g>
</g>
<!-- Node13 -->
<g id="Node000013" class="node">
<title>Node13</title>
<g id="a_Node000013"><a xlink:href="keypad__factory__interface_8hpp.xhtml" target="_top" xlink:title=" ">
<polygon fill="white" stroke="#666666" points="615.75,-113.88 470.75,-113.88 470.75,-83.38 615.75,-83.38 615.75,-113.88"/>
<text text-anchor="start" x="478.75" y="-100.38" font-family="Helvetica,sans-Serif" font-size="10.00">lib/layer2_hmi/include</text>
<text text-anchor="middle" x="543.25" y="-89.12" font-family="Helvetica,sans-Serif" font-size="10.00">/keypad_factory_interface.hpp</text>
</a>
</g>
</g>
<!-- Node12&#45;&gt;Node13 -->
<g id="edge14_Node000012_Node000013" class="edge">
<title>Node12&#45;&gt;Node13</title>
<g id="a_edge14_Node000012_Node000013"><a xlink:title=" ">
<path fill="none" stroke="#63b8ff" d="M508.15,-146.06C516.15,-135.48 525.32,-123.35 532.28,-114.14"/>
<polygon fill="#63b8ff" stroke="#63b8ff" points="505.38,-143.92 502.14,-154.01 510.97,-148.15 505.38,-143.92"/>
</a>
</g>
</g>
<!-- Node15 -->
<g id="Node000015" class="node">
<title>Node15</title>
<g id="a_Node000015"><a xlink:href="Keypad_8hpp.xhtml" target="_top" xlink:title=" ">
<polygon fill="white" stroke="#666666" points="789.25,-113.88 689.25,-113.88 689.25,-83.38 789.25,-83.38 789.25,-113.88"/>
<text text-anchor="start" x="697.25" y="-100.38" font-family="Helvetica,sans-Serif" font-size="10.00">lib/layer3_board/src</text>
<text text-anchor="middle" x="739.25" y="-89.12" font-family="Helvetica,sans-Serif" font-size="10.00">/Keypad.hpp</text>
</a>
</g>
</g>
<!-- Node12&#45;&gt;Node15 -->
<g id="edge18_Node000012_Node000015" class="edge">
<title>Node12&#45;&gt;Node15</title>
<g id="a_edge18_Node000012_Node000015"><a xlink:title=" ">
<path fill="none" stroke="#63b8ff" d="M553.38,-151.97C595.36,-140.15 649.74,-124.83 688.82,-113.83"/>
<polygon fill="#63b8ff" stroke="#63b8ff" points="552.58,-148.56 543.91,-154.64 554.48,-155.3 552.58,-148.56"/>
</a>
</g>
</g>
<!-- Node13&#45;&gt;Node7 -->
<g id="edge15_Node000013_Node000007" class="edge">
<title>Node13&#45;&gt;Node7</title>
<g id="a_edge15_Node000013_Node000007"><a xlink:title=" ">
<path fill="none" stroke="#63b8ff" d="M476.56,-80.1C437.76,-69.61 388.02,-55.64 344.25,-41.75 341.3,-40.81 338.27,-39.82 335.23,-38.81"/>
<polygon fill="#63b8ff" stroke="#63b8ff" points="475.17,-83.35 485.73,-82.57 476.99,-76.59 475.17,-83.35"/>
</a>
</g>
</g>
<!-- Node14 -->
<g id="Node000014" class="node">
<title>Node14</title>
<g id="a_Node000014"><a xlink:href="keypad__factory__interface_8cpp.xhtml" target="_top" xlink:title=" ">
<polygon fill="white" stroke="#666666" points="718.75,-36.12 573.75,-36.12 573.75,-5.62 718.75,-5.62 718.75,-36.12"/>
<text text-anchor="start" x="581.75" y="-22.62" font-family="Helvetica,sans-Serif" font-size="10.00">lib/layer3_board/src</text>
<text text-anchor="middle" x="646.25" y="-11.38" font-family="Helvetica,sans-Serif" font-size="10.00">/keypad_factory_interface.cpp</text>
</a>
</g>
</g>
<!-- Node13&#45;&gt;Node14 -->
<g id="edge16_Node000013_Node000014" class="edge">
<title>Node13&#45;&gt;Node14</title>
<g id="a_edge16_Node000013_Node000014"><a xlink:title=" ">
<path fill="none" stroke="#63b8ff" d="M572.23,-76.31C589.54,-63.58 611.08,-47.74 626.45,-36.44"/>
<polygon fill="#63b8ff" stroke="#63b8ff" points="570.31,-73.38 564.33,-82.12 574.46,-79.02 570.31,-73.38"/>
</a>
</g>
</g>
<!-- Node15&#45;&gt;Node14 -->
<g id="edge20_Node000015_Node000014" class="edge">
<title>Node15&#45;&gt;Node14</title>
<g id="a_edge20_Node000015_Node000014"><a xlink:title=" ">
<path fill="none" stroke="#63b8ff" d="M712.65,-75.96C697.1,-63.29 677.88,-47.64 664.13,-36.44"/>
<polygon fill="#63b8ff" stroke="#63b8ff" points="710.18,-78.46 720.15,-82.06 714.6,-73.03 710.18,-78.46"/>
</a>
</g>
</g>
<!-- Node16 -->
<g id="Node000016" class="node">
<title>Node16</title>
<g id="a_Node000016"><a xlink:href="Keypad_8cpp.xhtml" target="_top" xlink:title=" ">
<polygon fill="white" stroke="#666666" points="955.25,-36.12 855.25,-36.12 855.25,-5.62 955.25,-5.62 955.25,-36.12"/>
<text text-anchor="start" x="863.25" y="-22.62" font-family="Helvetica,sans-Serif" font-size="10.00">lib/layer3_board/src</text>
<text text-anchor="middle" x="905.25" y="-11.38" font-family="Helvetica,sans-Serif" font-size="10.00">/Keypad.cpp</text>
</a>
</g>
</g>
<!-- Node15&#45;&gt;Node16 -->
<g id="edge19_Node000015_Node000016" class="edge">
<title>Node15&#45;&gt;Node16</title>
<g id="a_edge19_Node000015_Node000016"><a xlink:title=" ">
<path fill="none" stroke="#63b8ff" d="M781.71,-78.25C810.15,-65.27 847.03,-48.44 873.06,-36.56"/>
<polygon fill="#63b8ff" stroke="#63b8ff" points="780.28,-75.06 772.63,-82.39 783.18,-81.42 780.28,-75.06"/>
</a>
</g>
</g>
<!-- Node17 -->
<g id="Node000017" class="node">
<title>Node17</title>
<g id="a_Node000017"><a xlink:href="test__board_8cpp.xhtml" target="_top" xlink:title=" ">
<polygon fill="white" stroke="#666666" points="837.62,-36.12 736.88,-36.12 736.88,-5.62 837.62,-5.62 837.62,-36.12"/>
<text text-anchor="start" x="744.88" y="-22.62" font-family="Helvetica,sans-Serif" font-size="10.00">test/test_board/test</text>
<text text-anchor="middle" x="787.25" y="-11.38" font-family="Helvetica,sans-Serif" font-size="10.00">_board.cpp</text>
</a>
</g>
</g>
<!-- Node15&#45;&gt;Node17 -->
<g id="edge21_Node000015_Node000017" class="edge">
<title>Node15&#45;&gt;Node17</title>
<g id="a_edge21_Node000015_Node000017"><a xlink:title=" ">
<path fill="none" stroke="#63b8ff" d="M754.58,-73.44C762.29,-61.26 771.39,-46.9 778.02,-36.44"/>
<polygon fill="#63b8ff" stroke="#63b8ff" points="751.71,-71.42 749.32,-81.74 757.62,-75.17 751.71,-71.42"/>
</a>
</g>
</g>
</g>
</svg>
