<?xml version="1.0" encoding="UTF-8" standalone="no"?>
<!DOCTYPE svg PUBLIC "-//W3C//DTD SVG 1.1//EN"
 "http://www.w3.org/Graphics/SVG/1.1/DTD/svg11.dtd">
<!-- Generated by graphviz version 7.0.5 (20221223.1930)
 -->
<!-- Title: lib/application_business_rules/user_interaction/KeyIds.hpp Pages: 1 -->
<svg width="995pt" height="280pt"
 viewBox="0.00 0.00 995.00 280.00" xmlns="http://www.w3.org/2000/svg" xmlns:xlink="http://www.w3.org/1999/xlink">
<g id="graph0" class="graph" transform="scale(1 1) rotate(0) translate(4 276)">
<title>lib/application_business_rules/user_interaction/KeyIds.hpp</title>
<!-- Node1 -->
<g id="node1" class="node">
<title>Node1</title>
<g id="a_node1"><a xlink:title=" ">
<polygon fill="#999999" stroke="#666666" points="512.5,-272 392.5,-272 392.5,-231 512.5,-231 512.5,-272"/>
<text text-anchor="start" x="400.5" y="-260" font-family="Helvetica,sans-Serif" font-size="10.00">lib/application_business</text>
<text text-anchor="start" x="400.5" y="-249" font-family="Helvetica,sans-Serif" font-size="10.00">_rules/user_interaction</text>
<text text-anchor="middle" x="452.5" y="-238" font-family="Helvetica,sans-Serif" font-size="10.00">/KeyIds.hpp</text>
</a>
</g>
</g>
<!-- Node2 -->
<g id="node2" class="node">
<title>Node2</title>
<g id="a_node2"><a xlink:href="IKeypad_8hpp.xhtml" target="_top" xlink:title=" ">
<polygon fill="white" stroke="#666666" points="305.5,-195 185.5,-195 185.5,-154 305.5,-154 305.5,-195"/>
<text text-anchor="start" x="193.5" y="-183" font-family="Helvetica,sans-Serif" font-size="10.00">lib/application_business</text>
<text text-anchor="start" x="193.5" y="-172" font-family="Helvetica,sans-Serif" font-size="10.00">_rules/user_interaction</text>
<text text-anchor="middle" x="245.5" y="-161" font-family="Helvetica,sans-Serif" font-size="10.00">/IKeypad.hpp</text>
</a>
</g>
</g>
<!-- Node1&#45;&gt;Node2 -->
<g id="edge1" class="edge">
<title>Node1&#45;&gt;Node2</title>
<path fill="none" stroke="#63b8ff" d="M386.78,-226.69C359.06,-216.65 327.16,-205.09 300.69,-195.49"/>
<polygon fill="#63b8ff" stroke="#63b8ff" points="385.55,-229.97 396.15,-230.08 387.94,-223.39 385.55,-229.97"/>
</g>
<!-- Node9 -->
<g id="node9" class="node">
<title>Node9</title>
<g id="a_node9"><a xlink:href="KeyIds_8cpp.xhtml" target="_top" xlink:title=" ">
<polygon fill="white" stroke="#666666" points="443.5,-195 323.5,-195 323.5,-154 443.5,-154 443.5,-195"/>
<text text-anchor="start" x="331.5" y="-183" font-family="Helvetica,sans-Serif" font-size="10.00">lib/application_business</text>
<text text-anchor="start" x="331.5" y="-172" font-family="Helvetica,sans-Serif" font-size="10.00">_rules/user_interaction</text>
<text text-anchor="middle" x="383.5" y="-161" font-family="Helvetica,sans-Serif" font-size="10.00">/KeyIds.cpp</text>
</a>
</g>
</g>
<!-- Node1&#45;&gt;Node9 -->
<g id="edge9" class="edge">
<title>Node1&#45;&gt;Node9</title>
<path fill="none" stroke="#63b8ff" d="M426.7,-222.46C418.4,-213.44 409.39,-203.64 401.75,-195.33"/>
<polygon fill="#63b8ff" stroke="#63b8ff" points="424,-224.69 433.35,-229.68 429.15,-219.95 424,-224.69"/>
</g>
<!-- Node10 -->
<g id="node10" class="node">
<title>Node10</title>
<g id="a_node10"><a xlink:href="ProcessHmiInputs_8hpp.xhtml" target="_top" xlink:title=" ">
<polygon fill="white" stroke="#666666" points="581.5,-195 461.5,-195 461.5,-154 581.5,-154 581.5,-195"/>
<text text-anchor="start" x="469.5" y="-183" font-family="Helvetica,sans-Serif" font-size="10.00">lib/application_business</text>
<text text-anchor="start" x="469.5" y="-172" font-family="Helvetica,sans-Serif" font-size="10.00">_rules/user_interaction</text>
<text text-anchor="middle" x="521.5" y="-161" font-family="Helvetica,sans-Serif" font-size="10.00">/ProcessHmiInputs.hpp</text>
</a>
</g>
</g>
<!-- Node1&#45;&gt;Node10 -->
<g id="edge10" class="edge">
<title>Node1&#45;&gt;Node10</title>
<path fill="none" stroke="#63b8ff" d="M478.3,-222.46C486.6,-213.44 495.61,-203.64 503.25,-195.33"/>
<polygon fill="#63b8ff" stroke="#63b8ff" points="475.85,-219.95 471.65,-229.68 481,-224.69 475.85,-219.95"/>
</g>
<!-- Node12 -->
<g id="node12" class="node">
<title>Node12</title>
<g id="a_node12"><a xlink:href="board__interface_8hpp.xhtml" target="_top" xlink:title=" ">
<polygon fill="white" stroke="#666666" points="733.5,-195 613.5,-195 613.5,-154 733.5,-154 733.5,-195"/>
<text text-anchor="start" x="621.5" y="-183" font-family="Helvetica,sans-Serif" font-size="10.00">lib/application_business</text>
<text text-anchor="start" x="621.5" y="-172" font-family="Helvetica,sans-Serif" font-size="10.00">_rules/user_interaction</text>
<text text-anchor="middle" x="673.5" y="-161" font-family="Helvetica,sans-Serif" font-size="10.00">/board_interface.hpp</text>
</a>
</g>
</g>
<!-- Node1&#45;&gt;Node12 -->
<g id="edge13" class="edge">
<title>Node1&#45;&gt;Node12</title>
<path fill="none" stroke="#63b8ff" d="M521.88,-226.95C551.66,-216.85 586.07,-205.17 614.58,-195.49"/>
<polygon fill="#63b8ff" stroke="#63b8ff" points="520.92,-223.58 512.58,-230.11 523.17,-230.21 520.92,-223.58"/>
</g>
<!-- Node3 -->
<g id="node3" class="node">
<title>Node3</title>
<g id="a_node3"><a xlink:href="keypad__factory__interface_8hpp.xhtml" target="_top" xlink:title=" ">
<polygon fill="white" stroke="#666666" points="408.5,-118 262.5,-118 262.5,-77 408.5,-77 408.5,-118"/>
<text text-anchor="start" x="270.5" y="-106" font-family="Helvetica,sans-Serif" font-size="10.00">lib/application_business</text>
<text text-anchor="start" x="270.5" y="-95" font-family="Helvetica,sans-Serif" font-size="10.00">_rules/user_interaction</text>
<text text-anchor="middle" x="335.5" y="-84" font-family="Helvetica,sans-Serif" font-size="10.00">/keypad_factory_interface.hpp</text>
</a>
</g>
</g>
<!-- Node2&#45;&gt;Node3 -->
<g id="edge2" class="edge">
<title>Node2&#45;&gt;Node3</title>
<path fill="none" stroke="#63b8ff" d="M277.81,-146.57C289,-137.25 301.32,-126.98 311.7,-118.33"/>
<polygon fill="#63b8ff" stroke="#63b8ff" points="275.75,-143.74 270.31,-152.83 280.23,-149.11 275.75,-143.74"/>
</g>
<!-- Node6 -->
<g id="node6" class="node">
<title>Node6</title>
<g id="a_node6"><a xlink:href="Keypad_8hpp.xhtml" target="_top" xlink:title=" ">
<polygon fill="white" stroke="#666666" points="244,-118 127,-118 127,-77 244,-77 244,-118"/>
<text text-anchor="start" x="135" y="-106" font-family="Helvetica,sans-Serif" font-size="10.00">lib/board_adapters</text>
<text text-anchor="start" x="135" y="-95" font-family="Helvetica,sans-Serif" font-size="10.00">/input_device_interface</text>
<text text-anchor="middle" x="185.5" y="-84" font-family="Helvetica,sans-Serif" font-size="10.00">/Keypad.hpp</text>
</a>
</g>
</g>
<!-- Node2&#45;&gt;Node6 -->
<g id="edge5" class="edge">
<title>Node2&#45;&gt;Node6</title>
<path fill="none" stroke="#63b8ff" d="M222.62,-144.9C215.53,-136.04 207.87,-126.47 201.37,-118.33"/>
<polygon fill="#63b8ff" stroke="#63b8ff" points="219.81,-146.99 228.79,-152.61 225.28,-142.62 219.81,-146.99"/>
</g>
<!-- Node4 -->
<g id="node4" class="node">
<title>Node4</title>
<g id="a_node4"><a xlink:href="ProcessHmiInputs_8cpp.xhtml" target="_top" xlink:title=" ">
<polygon fill="white" stroke="#666666" points="538.5,-41 418.5,-41 418.5,0 538.5,0 538.5,-41"/>
<text text-anchor="start" x="426.5" y="-29" font-family="Helvetica,sans-Serif" font-size="10.00">lib/application_business</text>
<text text-anchor="start" x="426.5" y="-18" font-family="Helvetica,sans-Serif" font-size="10.00">_rules/user_interaction</text>
<text text-anchor="middle" x="478.5" y="-7" font-family="Helvetica,sans-Serif" font-size="10.00">/ProcessHmiInputs.cpp</text>
</a>
</g>
</g>
<!-- Node3&#45;&gt;Node4 -->
<g id="edge3" class="edge">
<title>Node3&#45;&gt;Node4</title>
<path fill="none" stroke="#63b8ff" d="M383.46,-71.35C401.99,-61.63 422.9,-50.66 440.38,-41.49"/>
<polygon fill="#63b8ff" stroke="#63b8ff" points="382.02,-68.15 374.79,-75.9 385.27,-74.35 382.02,-68.15"/>
</g>
<!-- Node5 -->
<g id="node5" class="node">
<title>Node5</title>
<g id="a_node5"><a xlink:href="keypad__factory__interface_8cpp.xhtml" target="_top" xlink:title=" ">
<polygon fill="white" stroke="#666666" points="400.5,-41 254.5,-41 254.5,0 400.5,0 400.5,-41"/>
<text text-anchor="start" x="262.5" y="-29" font-family="Helvetica,sans-Serif" font-size="10.00">lib/board_adapters</text>
<text text-anchor="start" x="262.5" y="-18" font-family="Helvetica,sans-Serif" font-size="10.00">/input_device_interface</text>
<text text-anchor="middle" x="327.5" y="-7" font-family="Helvetica,sans-Serif" font-size="10.00">/keypad_factory_interface.cpp</text>
</a>
</g>
</g>
<!-- Node3&#45;&gt;Node5 -->
<g id="edge4" class="edge">
<title>Node3&#45;&gt;Node5</title>
<path fill="none" stroke="#63b8ff" d="M332.18,-65.36C331.31,-57.24 330.4,-48.7 329.62,-41.33"/>
<polygon fill="#63b8ff" stroke="#63b8ff" points="328.7,-65.72 333.24,-75.29 335.66,-64.97 328.7,-65.72"/>
</g>
<!-- Node6&#45;&gt;Node5 -->
<g id="edge7" class="edge">
<title>Node6&#45;&gt;Node5</title>
<path fill="none" stroke="#63b8ff" d="M233.13,-71.35C251.53,-61.63 272.29,-50.66 289.64,-41.49"/>
<polygon fill="#63b8ff" stroke="#63b8ff" points="231.73,-68.13 224.52,-75.89 235,-74.32 231.73,-68.13"/>
</g>
<!-- Node7 -->
<g id="node7" class="node">
<title>Node7</title>
<g id="a_node7"><a xlink:href="Keypad_8cpp.xhtml" target="_top" xlink:title=" ">
<polygon fill="white" stroke="#666666" points="117,-41 0,-41 0,0 117,0 117,-41"/>
<text text-anchor="start" x="8" y="-29" font-family="Helvetica,sans-Serif" font-size="10.00">lib/board_adapters</text>
<text text-anchor="start" x="8" y="-18" font-family="Helvetica,sans-Serif" font-size="10.00">/input_device_interface</text>
<text text-anchor="middle" x="58.5" y="-7" font-family="Helvetica,sans-Serif" font-size="10.00">/Keypad.cpp</text>
</a>
</g>
</g>
<!-- Node6&#45;&gt;Node7 -->
<g id="edge6" class="edge">
<title>Node6&#45;&gt;Node7</title>
<path fill="none" stroke="#63b8ff" d="M141.99,-70.8C125.76,-61.22 107.59,-50.49 92.36,-41.49"/>
<polygon fill="#63b8ff" stroke="#63b8ff" points="140.11,-73.76 150.5,-75.83 143.67,-67.73 140.11,-73.76"/>
</g>
<!-- Node8 -->
<g id="node8" class="node">
<title>Node8</title>
<g id="a_node8"><a xlink:href="test__board_8cpp.xhtml" target="_top" xlink:title=" ">
<polygon fill="white" stroke="#666666" points="236,-35.5 135,-35.5 135,-5.5 236,-5.5 236,-35.5"/>
<text text-anchor="start" x="143" y="-23.5" font-family="Helvetica,sans-Serif" font-size="10.00">test/test_board/test</text>
<text text-anchor="middle" x="185.5" y="-12.5" font-family="Helvetica,sans-Serif" font-size="10.00">_board.cpp</text>
</a>
</g>
</g>
<!-- Node6&#45;&gt;Node8 -->
<g id="edge8" class="edge">
<title>Node6&#45;&gt;Node8</title>
<path fill="none" stroke="#63b8ff" d="M185.5,-65.28C185.5,-55.07 185.5,-44.21 185.5,-35.86"/>
<polygon fill="#63b8ff" stroke="#63b8ff" points="182,-65.28 185.5,-75.28 189,-65.28 182,-65.28"/>
</g>
<!-- Node10&#45;&gt;Node4 -->
<g id="edge11" class="edge">
<title>Node10&#45;&gt;Node4</title>
<path fill="none" stroke="#63b8ff" d="M492.3,-144.96C485.85,-136.91 479.93,-127.68 476.5,-118 467.54,-92.73 470.56,-61.35 474.09,-41.37"/>
<polygon fill="#63b8ff" stroke="#63b8ff" points="489.51,-147.09 498.69,-152.37 494.81,-142.52 489.51,-147.09"/>
</g>
<!-- Node11 -->
<g id="node11" class="node">
<title>Node11</title>
<g id="a_node11"><a xlink:href="main_8cpp.xhtml" target="_top" xlink:title=" ">
<polygon fill="white" stroke="#666666" points="557.5,-107 485.5,-107 485.5,-88 557.5,-88 557.5,-107"/>
<text text-anchor="middle" x="521.5" y="-95" font-family="Helvetica,sans-Serif" font-size="10.00">src/main.cpp</text>
</a>
</g>
</g>
<!-- Node10&#45;&gt;Node11 -->
<g id="edge12" class="edge">
<title>Node10&#45;&gt;Node11</title>
<path fill="none" stroke="#63b8ff" d="M521.5,-142.53C521.5,-129.74 521.5,-115.92 521.5,-107.24"/>
<polygon fill="#63b8ff" stroke="#63b8ff" points="518,-142.28 521.5,-152.28 525,-142.28 518,-142.28"/>
</g>
<!-- Node12&#45;&gt;Node4 -->
<g id="edge15" class="edge">
<title>Node12&#45;&gt;Node4</title>
<path fill="none" stroke="#63b8ff" d="M637.91,-146.5C626.92,-137.73 614.95,-127.75 604.5,-118 586.33,-101.06 585.61,-92.87 566.5,-77 550.52,-63.73 531.14,-51.18 514.64,-41.39"/>
<polygon fill="#63b8ff" stroke="#63b8ff" points="635.65,-149.18 645.67,-152.61 639.98,-143.68 635.65,-149.18"/>
</g>
<!-- Node13 -->
<g id="node13" class="node">
<title>Node13</title>
<g id="a_node13"><a xlink:href="Presenter_8cpp.xhtml" target="_top" xlink:title=" ">
<polygon fill="white" stroke="#666666" points="733.5,-118 613.5,-118 613.5,-77 733.5,-77 733.5,-118"/>
<text text-anchor="start" x="621.5" y="-106" font-family="Helvetica,sans-Serif" font-size="10.00">lib/application_business</text>
<text text-anchor="start" x="621.5" y="-95" font-family="Helvetica,sans-Serif" font-size="10.00">_rules/user_interaction</text>
<text text-anchor="middle" x="673.5" y="-84" font-family="Helvetica,sans-Serif" font-size="10.00">/Presenter.cpp</text>
</a>
</g>
</g>
<!-- Node12&#45;&gt;Node13 -->
<g id="edge14" class="edge">
<title>Node12&#45;&gt;Node13</title>
<path fill="none" stroke="#63b8ff" d="M673.5,-142.36C673.5,-134.24 673.5,-125.7 673.5,-118.33"/>
<polygon fill="#63b8ff" stroke="#63b8ff" points="670,-142.28 673.5,-152.28 677,-142.28 670,-142.28"/>
</g>
<!-- Node14 -->
<g id="node14" class="node">
<title>Node14</title>
<g id="a_node14"><a xlink:href="board_8cpp.xhtml" target="_top" xlink:title=" ">
<polygon fill="white" stroke="#666666" points="847.5,-112.5 751.5,-112.5 751.5,-82.5 847.5,-82.5 847.5,-112.5"/>
<text text-anchor="start" x="759.5" y="-100.5" font-family="Helvetica,sans-Serif" font-size="10.00">lib/board_adapters</text>
<text text-anchor="middle" x="799.5" y="-89.5" font-family="Helvetica,sans-Serif" font-size="10.00">/board.cpp</text>
</a>
</g>
</g>
<!-- Node12&#45;&gt;Node14 -->
<g id="edge16" class="edge">
<title>Node12&#45;&gt;Node14</title>
<path fill="none" stroke="#63b8ff" d="M716.62,-147.83C736.31,-136.11 758.89,-122.67 775.5,-112.79"/>
<polygon fill="#63b8ff" stroke="#63b8ff" points="715.04,-144.7 708.24,-152.82 718.62,-150.72 715.04,-144.7"/>
</g>
<!-- Node15 -->
<g id="node15" class="node">
<title>Node15</title>
<g id="a_node15"><a xlink:href="sound__output_8cpp.xhtml" target="_top" xlink:title=" ">
<polygon fill="white" stroke="#666666" points="987,-118 866,-118 866,-77 987,-77 987,-118"/>
<text text-anchor="start" x="874" y="-106" font-family="Helvetica,sans-Serif" font-size="10.00">lib/board_adapters</text>
<text text-anchor="start" x="874" y="-95" font-family="Helvetica,sans-Serif" font-size="10.00">/sound_output_interface</text>
<text text-anchor="middle" x="926.5" y="-84" font-family="Helvetica,sans-Serif" font-size="10.00">/sound_output.cpp</text>
</a>
</g>
</g>
<!-- Node12&#45;&gt;Node15 -->
<g id="edge17" class="edge">
<title>Node12&#45;&gt;Node15</title>
<path fill="none" stroke="#63b8ff" d="M744.81,-152.36C782.95,-141.05 829.41,-127.28 865.81,-116.49"/>
<polygon fill="#63b8ff" stroke="#63b8ff" points="743.82,-149 735.23,-155.2 745.81,-155.71 743.82,-149"/>
</g>
</g>
</svg>
