<?xml version="1.0" encoding="UTF-8" standalone="no"?>
<!DOCTYPE svg PUBLIC "-//W3C//DTD SVG 1.1//EN"
 "http://www.w3.org/Graphics/SVG/1.1/DTD/svg11.dtd">
<!-- Generated by graphviz version 7.0.5 (20221223.1930)
 -->
<!-- Title: lib/board_adapters/input_device_interface/Keypad.hpp Pages: 1 -->
<svg width="290pt" height="126pt"
 viewBox="0.00 0.00 289.50 126.00" xmlns="http://www.w3.org/2000/svg" xmlns:xlink="http://www.w3.org/1999/xlink">
<g id="graph0" class="graph" transform="scale(1 1) rotate(0) translate(4 122)">
<title>lib/board_adapters/input_device_interface/Keypad.hpp</title>
<!-- Node1 -->
<g id="node1" class="node">
<title>Node1</title>
<g id="a_node1"><a xlink:title=" ">
<polygon fill="#999999" stroke="#666666" points="192,-118 75,-118 75,-77 192,-77 192,-118"/>
<text text-anchor="start" x="83" y="-106" font-family="Helvetica,sans-Serif" font-size="10.00">lib/board_adapters</text>
<text text-anchor="start" x="83" y="-95" font-family="Helvetica,sans-Serif" font-size="10.00">/input_device_interface</text>
<text text-anchor="middle" x="133.5" y="-84" font-family="Helvetica,sans-Serif" font-size="10.00">/Keypad.hpp</text>
</a>
</g>
</g>
<!-- Node2 -->
<g id="node2" class="node">
<title>Node2</title>
<g id="a_node2"><a xlink:href="Keypad_8cpp.xhtml" target="_top" xlink:title=" ">
<polygon fill="white" stroke="#666666" points="117,-41 0,-41 0,0 117,0 117,-41"/>
<text text-anchor="start" x="8" y="-29" font-family="Helvetica,sans-Serif" font-size="10.00">lib/board_adapters</text>
<text text-anchor="start" x="8" y="-18" font-family="Helvetica,sans-Serif" font-size="10.00">/input_device_interface</text>
<text text-anchor="middle" x="58.5" y="-7" font-family="Helvetica,sans-Serif" font-size="10.00">/Keypad.cpp</text>
</a>
</g>
</g>
<!-- Node1&#45;&gt;Node2 -->
<g id="edge1" class="edge">
<title>Node1&#45;&gt;Node2</title>
<path fill="none" stroke="#63b8ff" d="M105.74,-68.74C96.64,-59.64 86.72,-49.72 78.33,-41.33"/>
<polygon fill="#63b8ff" stroke="#63b8ff" points="103.18,-71.13 112.72,-75.72 108.13,-66.18 103.18,-71.13"/>
</g>
<!-- Node3 -->
<g id="node3" class="node">
<title>Node3</title>
<g id="a_node3"><a xlink:href="keypad__factory__interface_8cpp.xhtml" target="_top" xlink:title=" ">
<polygon fill="white" stroke="#666666" points="281.5,-41 135.5,-41 135.5,0 281.5,0 281.5,-41"/>
<text text-anchor="start" x="143.5" y="-29" font-family="Helvetica,sans-Serif" font-size="10.00">lib/board_adapters</text>
<text text-anchor="start" x="143.5" y="-18" font-family="Helvetica,sans-Serif" font-size="10.00">/input_device_interface</text>
<text text-anchor="middle" x="208.5" y="-7" font-family="Helvetica,sans-Serif" font-size="10.00">/keypad_factory_interface.cpp</text>
</a>
</g>
</g>
<!-- Node1&#45;&gt;Node3 -->
<g id="edge2" class="edge">
<title>Node1&#45;&gt;Node3</title>
<path fill="none" stroke="#63b8ff" d="M161.26,-68.74C170.36,-59.64 180.28,-49.72 188.67,-41.33"/>
<polygon fill="#63b8ff" stroke="#63b8ff" points="158.87,-66.18 154.28,-75.72 163.82,-71.13 158.87,-66.18"/>
</g>
</g>
</svg>
