<?xml version="1.0" encoding="UTF-8" standalone="no"?>
<!DOCTYPE svg PUBLIC "-//W3C//DTD SVG 1.1//EN"
 "http://www.w3.org/Graphics/SVG/1.1/DTD/svg11.dtd">
<!-- Generated by graphviz version 9.0.0 (20230911.1827)
 -->
<!-- Title: lib/layer2_hmi/include/keypad_factory_interface.hpp Pages: 1 -->
<svg width="153pt" height="204pt"
 viewBox="0.00 0.00 153.00 204.25" xmlns="http://www.w3.org/2000/svg" xmlns:xlink="http://www.w3.org/1999/xlink">
<g id="graph0" class="graph" transform="scale(1 1) rotate(0) translate(4 200.25)">
<title>lib/layer2_hmi/include/keypad_factory_interface.hpp</title>
<!-- Node1 -->
<g id="Node000001" class="node">
<title>Node1</title>
<g id="a_Node000001"><a xlink:title=" ">
<polygon fill="#999999" stroke="#666666" points="145,-196.25 0,-196.25 0,-165.75 145,-165.75 145,-196.25"/>
<text text-anchor="start" x="8" y="-182.75" font-family="Helvetica,sans-Serif" font-size="10.00">lib/layer2_hmi/include</text>
<text text-anchor="middle" x="72.5" y="-171.5" font-family="Helvetica,sans-Serif" font-size="10.00">/keypad_factory_interface.hpp</text>
</a>
</g>
</g>
<!-- Node2 -->
<g id="Node000002" class="node">
<title>Node2</title>
<g id="a_Node000002"><a xlink:href="IKeypad_8hpp.xhtml" target="_top" xlink:title=" ">
<polygon fill="white" stroke="#666666" points="107.12,-129.75 37.88,-129.75 37.88,-110.5 107.12,-110.5 107.12,-129.75"/>
<text text-anchor="middle" x="72.5" y="-116.25" font-family="Helvetica,sans-Serif" font-size="10.00">IKeypad.hpp</text>
</a>
</g>
</g>
<!-- Node1&#45;&gt;Node2 -->
<g id="edge1_Node000001_Node000002" class="edge">
<title>Node1&#45;&gt;Node2</title>
<g id="a_edge1_Node000001_Node000002"><a xlink:title=" ">
<path fill="none" stroke="#63b8ff" d="M72.5,-165.45C72.5,-158.21 72.5,-149.34 72.5,-141.44"/>
<polygon fill="#63b8ff" stroke="#63b8ff" points="76,-141.71 72.5,-131.71 69,-141.71 76,-141.71"/>
</a>
</g>
</g>
<!-- Node3 -->
<g id="Node000003" class="node">
<title>Node3</title>
<g id="a_Node000003"><a xlink:href="KeyIds_8hpp.xhtml" target="_top" xlink:title=" ">
<polygon fill="white" stroke="#666666" points="104.5,-74.5 40.5,-74.5 40.5,-55.25 104.5,-55.25 104.5,-74.5"/>
<text text-anchor="middle" x="72.5" y="-61" font-family="Helvetica,sans-Serif" font-size="10.00">KeyIds.hpp</text>
</a>
</g>
</g>
<!-- Node2&#45;&gt;Node3 -->
<g id="edge2_Node000002_Node000003" class="edge">
<title>Node2&#45;&gt;Node3</title>
<g id="a_edge2_Node000002_Node000003"><a xlink:title=" ">
<path fill="none" stroke="#63b8ff" d="M72.5,-110.33C72.5,-103.82 72.5,-94.67 72.5,-86.37"/>
<polygon fill="#63b8ff" stroke="#63b8ff" points="76,-86.37 72.5,-76.37 69,-86.37 76,-86.37"/>
</a>
</g>
</g>
<!-- Node4 -->
<g id="Node000004" class="node">
<title>Node4</title>
<g id="a_Node000004"><a xlink:title=" ">
<polygon fill="#e0e0e0" stroke="#999999" points="98.12,-19.25 46.88,-19.25 46.88,0 98.12,0 98.12,-19.25"/>
<text text-anchor="middle" x="72.5" y="-5.75" font-family="Helvetica,sans-Serif" font-size="10.00">ostream</text>
</a>
</g>
</g>
<!-- Node3&#45;&gt;Node4 -->
<g id="edge3_Node000003_Node000004" class="edge">
<title>Node3&#45;&gt;Node4</title>
<g id="a_edge3_Node000003_Node000004"><a xlink:title=" ">
<path fill="none" stroke="#63b8ff" d="M72.5,-55.08C72.5,-48.57 72.5,-39.42 72.5,-31.12"/>
<polygon fill="#63b8ff" stroke="#63b8ff" points="76,-31.12 72.5,-21.12 69,-31.12 76,-31.12"/>
</a>
</g>
</g>
</g>
</svg>
