<?xml version="1.0" encoding="UTF-8" standalone="no"?>
<!DOCTYPE svg PUBLIC "-//W3C//DTD SVG 1.1//EN"
 "http://www.w3.org/Graphics/SVG/1.1/DTD/svg11.dtd">
<!-- Generated by graphviz version 9.0.0 (20230911.1827)
 -->
<!-- Title: lib/layer3_board/src/keypad_factory_interface.cpp Pages: 1 -->
<svg width="533pt" height="260pt"
 viewBox="0.00 0.00 532.67 259.50" xmlns="http://www.w3.org/2000/svg" xmlns:xlink="http://www.w3.org/1999/xlink">
<g id="graph0" class="graph" transform="scale(1 1) rotate(0) translate(4 255.5)">
<title>lib/layer3_board/src/keypad_factory_interface.cpp</title>
<!-- Node1 -->
<g id="Node000001" class="node">
<title>Node1</title>
<g id="a_Node000001"><a xlink:title=" ">
<polygon fill="#999999" stroke="#666666" points="278.5,-251.5 133.5,-251.5 133.5,-221 278.5,-221 278.5,-251.5"/>
<text text-anchor="start" x="141.5" y="-238" font-family="Helvetica,sans-Serif" font-size="10.00">lib/layer3_board/src</text>
<text text-anchor="middle" x="206" y="-226.75" font-family="Helvetica,sans-Serif" font-size="10.00">/keypad_factory_interface.cpp</text>
</a>
</g>
</g>
<!-- Node2 -->
<g id="Node000002" class="node">
<title>Node2</title>
<g id="a_Node000002"><a xlink:href="keypad__factory__interface_8hpp.xhtml" target="_top" xlink:title=" ">
<polygon fill="white" stroke="#666666" points="142,-185 0,-185 0,-165.75 142,-165.75 142,-185"/>
<text text-anchor="middle" x="71" y="-171.5" font-family="Helvetica,sans-Serif" font-size="10.00">keypad_factory_interface.hpp</text>
</a>
</g>
</g>
<!-- Node1&#45;&gt;Node2 -->
<g id="edge1_Node000001_Node000002" class="edge">
<title>Node1&#45;&gt;Node2</title>
<g id="a_edge1_Node000001_Node000002"><a xlink:title=" ">
<path fill="none" stroke="#63b8ff" d="M172.28,-220.55C150.73,-211.15 123,-199.05 102,-189.89"/>
<polygon fill="#63b8ff" stroke="#63b8ff" points="103.66,-186.8 93.09,-186.01 100.86,-193.21 103.66,-186.8"/>
</a>
</g>
</g>
<!-- Node6 -->
<g id="Node000006" class="node">
<title>Node6</title>
<g id="a_Node000006"><a xlink:href="Keypad_8hpp.xhtml" target="_top" xlink:title=" ">
<polygon fill="white" stroke="#666666" points="273.12,-185 206.88,-185 206.88,-165.75 273.12,-165.75 273.12,-185"/>
<text text-anchor="middle" x="240" y="-171.5" font-family="Helvetica,sans-Serif" font-size="10.00">Keypad.hpp</text>
</a>
</g>
</g>
<!-- Node1&#45;&gt;Node6 -->
<g id="edge5_Node000001_Node000006" class="edge">
<title>Node1&#45;&gt;Node6</title>
<g id="a_edge5_Node000001_Node000006"><a xlink:title=" ">
<path fill="none" stroke="#63b8ff" d="M214.4,-220.7C218.83,-213.03 224.32,-203.52 229.08,-195.29"/>
<polygon fill="#63b8ff" stroke="#63b8ff" points="232.03,-197.17 234,-186.76 225.97,-193.67 232.03,-197.17"/>
</a>
</g>
</g>
<!-- Node7 -->
<g id="Node000007" class="node">
<title>Node7</title>
<g id="a_Node000007"><a xlink:href="board__config_8hpp.xhtml" target="_top" xlink:title="Provides named objects for the pins provided by the board.">
<polygon fill="white" stroke="#666666" points="209.38,-129.75 120.62,-129.75 120.62,-110.5 209.38,-110.5 209.38,-129.75"/>
<text text-anchor="middle" x="165" y="-116.25" font-family="Helvetica,sans-Serif" font-size="10.00">board_config.hpp</text>
</a>
</g>
</g>
<!-- Node1&#45;&gt;Node7 -->
<g id="edge18_Node000001_Node000007" class="edge">
<title>Node1&#45;&gt;Node7</title>
<g id="a_edge18_Node000001_Node000007"><a xlink:title=" ">
<path fill="none" stroke="#63b8ff" d="M200.81,-220.8C193.54,-200.56 180.3,-163.72 172.12,-140.94"/>
<polygon fill="#63b8ff" stroke="#63b8ff" points="175.45,-139.85 168.77,-131.62 168.86,-142.22 175.45,-139.85"/>
</a>
</g>
</g>
<!-- Node13 -->
<g id="Node000013" class="node">
<title>Node13</title>
<g id="a_Node000013"><a xlink:href="isr__factory__interface_8hpp.xhtml" target="_top" xlink:title=" ">
<polygon fill="white" stroke="#666666" points="515.88,-185 394.12,-185 394.12,-165.75 515.88,-165.75 515.88,-185"/>
<text text-anchor="middle" x="455" y="-171.5" font-family="Helvetica,sans-Serif" font-size="10.00">isr_factory_interface.hpp</text>
</a>
</g>
</g>
<!-- Node1&#45;&gt;Node13 -->
<g id="edge13_Node000001_Node000013" class="edge">
<title>Node1&#45;&gt;Node13</title>
<g id="a_edge13_Node000001_Node000013"><a xlink:title=" ">
<path fill="none" stroke="#63b8ff" d="M268.19,-220.55C310.54,-210.53 365.84,-197.46 405.26,-188.13"/>
<polygon fill="#63b8ff" stroke="#63b8ff" points="406.05,-191.55 414.97,-185.84 404.44,-184.73 406.05,-191.55"/>
</a>
</g>
</g>
<!-- Node3 -->
<g id="Node000003" class="node">
<title>Node3</title>
<g id="a_Node000003"><a xlink:href="IKeypad_8hpp.xhtml" target="_top" xlink:title=" ">
<polygon fill="white" stroke="#666666" points="102.62,-129.75 33.38,-129.75 33.38,-110.5 102.62,-110.5 102.62,-129.75"/>
<text text-anchor="middle" x="68" y="-116.25" font-family="Helvetica,sans-Serif" font-size="10.00">IKeypad.hpp</text>
</a>
</g>
</g>
<!-- Node2&#45;&gt;Node3 -->
<g id="edge2_Node000002_Node000003" class="edge">
<title>Node2&#45;&gt;Node3</title>
<g id="a_edge2_Node000002_Node000003"><a xlink:title=" ">
<path fill="none" stroke="#63b8ff" d="M70.5,-165.58C70.13,-158.99 69.61,-149.71 69.14,-141.32"/>
<polygon fill="#63b8ff" stroke="#63b8ff" points="72.65,-141.41 68.59,-131.62 65.66,-141.8 72.65,-141.41"/>
</a>
</g>
</g>
<!-- Node4 -->
<g id="Node000004" class="node">
<title>Node4</title>
<g id="a_Node000004"><a xlink:href="KeyIds_8hpp.xhtml" target="_top" xlink:title=" ">
<polygon fill="white" stroke="#666666" points="100,-74.5 36,-74.5 36,-55.25 100,-55.25 100,-74.5"/>
<text text-anchor="middle" x="68" y="-61" font-family="Helvetica,sans-Serif" font-size="10.00">KeyIds.hpp</text>
</a>
</g>
</g>
<!-- Node3&#45;&gt;Node4 -->
<g id="edge3_Node000003_Node000004" class="edge">
<title>Node3&#45;&gt;Node4</title>
<g id="a_edge3_Node000003_Node000004"><a xlink:title=" ">
<path fill="none" stroke="#63b8ff" d="M68,-110.33C68,-103.82 68,-94.67 68,-86.37"/>
<polygon fill="#63b8ff" stroke="#63b8ff" points="71.5,-86.37 68,-76.37 64.5,-86.37 71.5,-86.37"/>
</a>
</g>
</g>
<!-- Node5 -->
<g id="Node000005" class="node">
<title>Node5</title>
<g id="a_Node000005"><a xlink:title=" ">
<polygon fill="#e0e0e0" stroke="#999999" points="93.62,-19.25 42.38,-19.25 42.38,0 93.62,0 93.62,-19.25"/>
<text text-anchor="middle" x="68" y="-5.75" font-family="Helvetica,sans-Serif" font-size="10.00">ostream</text>
</a>
</g>
</g>
<!-- Node4&#45;&gt;Node5 -->
<g id="edge4_Node000004_Node000005" class="edge">
<title>Node4&#45;&gt;Node5</title>
<g id="a_edge4_Node000004_Node000005"><a xlink:title=" ">
<path fill="none" stroke="#63b8ff" d="M68,-55.08C68,-48.57 68,-39.42 68,-31.12"/>
<polygon fill="#63b8ff" stroke="#63b8ff" points="71.5,-31.12 68,-21.12 64.5,-31.12 71.5,-31.12"/>
</a>
</g>
</g>
<!-- Node6&#45;&gt;Node3 -->
<g id="edge6_Node000006_Node000003" class="edge">
<title>Node6&#45;&gt;Node3</title>
<g id="a_edge6_Node000006_Node000003"><a xlink:title=" ">
<path fill="none" stroke="#63b8ff" d="M210.82,-165.34C182.53,-156.58 139.39,-143.23 107.92,-133.48"/>
<polygon fill="#63b8ff" stroke="#63b8ff" points="109.35,-130.26 98.77,-130.65 107.28,-136.95 109.35,-130.26"/>
</a>
</g>
</g>
<!-- Node6&#45;&gt;Node7 -->
<g id="edge7_Node000006_Node000007" class="edge">
<title>Node6&#45;&gt;Node7</title>
<g id="a_edge7_Node000006_Node000007"><a xlink:title=" ">
<path fill="none" stroke="#63b8ff" d="M227.28,-165.34C216.29,-157.54 200.16,-146.09 187.07,-136.79"/>
<polygon fill="#63b8ff" stroke="#63b8ff" points="189.2,-134.01 179.02,-131.08 185.15,-139.72 189.2,-134.01"/>
</a>
</g>
</g>
<!-- Node10 -->
<g id="Node000010" class="node">
<title>Node10</title>
<g id="a_Node000010"><a xlink:title=" ">
<polygon fill="#e0e0e0" stroke="#999999" points="373.12,-74.5 324.88,-74.5 324.88,-55.25 373.12,-55.25 373.12,-74.5"/>
<text text-anchor="middle" x="349" y="-61" font-family="Helvetica,sans-Serif" font-size="10.00">cstddef</text>
</a>
</g>
</g>
<!-- Node6&#45;&gt;Node10 -->
<g id="edge10_Node000006_Node000010" class="edge">
<title>Node6&#45;&gt;Node10</title>
<g id="a_edge10_Node000006_Node000010"><a xlink:title=" ">
<path fill="none" stroke="#63b8ff" d="M249.22,-165.54C258.55,-156.58 273.36,-142.29 286,-129.75 301.99,-113.89 320.02,-95.56 332.68,-82.62"/>
<polygon fill="#63b8ff" stroke="#63b8ff" points="334.96,-85.3 339.44,-75.7 329.95,-80.41 334.96,-85.3"/>
</a>
</g>
</g>
<!-- Node11 -->
<g id="Node000011" class="node">
<title>Node11</title>
<g id="a_Node000011"><a xlink:title=" ">
<polygon fill="#e0e0e0" stroke="#999999" points="379,-129.75 333,-129.75 333,-110.5 379,-110.5 379,-129.75"/>
<text text-anchor="middle" x="356" y="-116.25" font-family="Helvetica,sans-Serif" font-size="10.00">iterator</text>
</a>
</g>
</g>
<!-- Node6&#45;&gt;Node11 -->
<g id="edge11_Node000006_Node000011" class="edge">
<title>Node6&#45;&gt;Node11</title>
<g id="a_edge11_Node000006_Node000011"><a xlink:title=" ">
<path fill="none" stroke="#63b8ff" d="M259.68,-165.34C277.84,-157 305.08,-144.5 325.97,-134.91"/>
<polygon fill="#63b8ff" stroke="#63b8ff" points="327.22,-138.19 334.85,-130.83 324.3,-131.83 327.22,-138.19"/>
</a>
</g>
</g>
<!-- Node12 -->
<g id="Node000012" class="node">
<title>Node12</title>
<g id="a_Node000012"><a xlink:title=" ">
<polygon fill="#e0e0e0" stroke="#999999" points="276.88,-129.75 227.12,-129.75 227.12,-110.5 276.88,-110.5 276.88,-129.75"/>
<text text-anchor="middle" x="252" y="-116.25" font-family="Helvetica,sans-Serif" font-size="10.00">optional</text>
</a>
</g>
</g>
<!-- Node6&#45;&gt;Node12 -->
<g id="edge12_Node000006_Node000012" class="edge">
<title>Node6&#45;&gt;Node12</title>
<g id="a_edge12_Node000006_Node000012"><a xlink:title=" ">
<path fill="none" stroke="#63b8ff" d="M241.98,-165.58C243.47,-158.99 245.56,-149.71 247.45,-141.32"/>
<polygon fill="#63b8ff" stroke="#63b8ff" points="250.86,-142.11 249.64,-131.59 244.03,-140.57 250.86,-142.11"/>
</a>
</g>
</g>
<!-- Node8 -->
<g id="Node000008" class="node">
<title>Node8</title>
<g id="a_Node000008"><a xlink:href="board__types_8hpp.xhtml" target="_top" xlink:title=" ">
<polygon fill="white" stroke="#666666" points="235.25,-74.5 148.75,-74.5 148.75,-55.25 235.25,-55.25 235.25,-74.5"/>
<text text-anchor="middle" x="192" y="-61" font-family="Helvetica,sans-Serif" font-size="10.00">board_types.hpp</text>
</a>
</g>
</g>
<!-- Node7&#45;&gt;Node8 -->
<g id="edge8_Node000007_Node000008" class="edge">
<title>Node7&#45;&gt;Node8</title>
<g id="a_edge8_Node000007_Node000008"><a xlink:title=" ">
<path fill="none" stroke="#63b8ff" d="M169.46,-110.33C172.95,-103.44 177.95,-93.59 182.35,-84.91"/>
<polygon fill="#63b8ff" stroke="#63b8ff" points="185.36,-86.71 186.76,-76.21 179.12,-83.55 185.36,-86.71"/>
</a>
</g>
</g>
<!-- Node9 -->
<g id="Node000009" class="node">
<title>Node9</title>
<g id="a_Node000009"><a xlink:title=" ">
<polygon fill="#e0e0e0" stroke="#999999" points="402.62,-19.25 357.38,-19.25 357.38,0 402.62,0 402.62,-19.25"/>
<text text-anchor="middle" x="380" y="-5.75" font-family="Helvetica,sans-Serif" font-size="10.00">cstdint</text>
</a>
</g>
</g>
<!-- Node8&#45;&gt;Node9 -->
<g id="edge9_Node000008_Node000009" class="edge">
<title>Node8&#45;&gt;Node9</title>
<g id="a_edge9_Node000008_Node000009"><a xlink:title=" ">
<path fill="none" stroke="#63b8ff" d="M223.89,-54.84C257.87,-45.22 311.44,-30.04 346.15,-20.21"/>
<polygon fill="#63b8ff" stroke="#63b8ff" points="347.02,-23.6 355.69,-17.51 345.11,-16.87 347.02,-23.6"/>
</a>
</g>
</g>
<!-- Node13&#45;&gt;Node9 -->
<g id="edge17_Node000013_Node000009" class="edge">
<title>Node13&#45;&gt;Node9</title>
<g id="a_edge17_Node000013_Node000009"><a xlink:title=" ">
<path fill="none" stroke="#63b8ff" d="M479.11,-165.35C494.41,-158.22 512.96,-146.63 522,-129.75 526.04,-122.21 524.59,-118.65 522,-110.5 512.91,-81.85 506.32,-74.21 483,-55.25 462.62,-38.68 435.15,-27.19 413.7,-20.02"/>
<polygon fill="#63b8ff" stroke="#63b8ff" points="414.83,-16.71 404.24,-17.03 412.72,-23.38 414.83,-16.71"/>
</a>
</g>
</g>
<!-- Node14 -->
<g id="Node000014" class="node">
<title>Node14</title>
<g id="a_Node000014"><a xlink:href="IInputShiftRegister_8hpp.xhtml" target="_top" xlink:title=" ">
<polygon fill="white" stroke="#666666" points="512.5,-129.75 397.5,-129.75 397.5,-110.5 512.5,-110.5 512.5,-129.75"/>
<text text-anchor="middle" x="455" y="-116.25" font-family="Helvetica,sans-Serif" font-size="10.00">IInputShiftRegister.hpp</text>
</a>
</g>
</g>
<!-- Node13&#45;&gt;Node14 -->
<g id="edge14_Node000013_Node000014" class="edge">
<title>Node13&#45;&gt;Node14</title>
<g id="a_edge14_Node000013_Node000014"><a xlink:title=" ">
<path fill="none" stroke="#63b8ff" d="M455,-165.58C455,-159.07 455,-149.92 455,-141.62"/>
<polygon fill="#63b8ff" stroke="#63b8ff" points="458.5,-141.62 455,-131.62 451.5,-141.62 458.5,-141.62"/>
</a>
</g>
</g>
<!-- Node14&#45;&gt;Node10 -->
<g id="edge16_Node000014_Node000010" class="edge">
<title>Node14&#45;&gt;Node10</title>
<g id="a_edge16_Node000014_Node000010"><a xlink:title=" ">
<path fill="none" stroke="#63b8ff" d="M437.02,-110.09C420.65,-101.87 396.21,-89.59 377.24,-80.06"/>
<polygon fill="#63b8ff" stroke="#63b8ff" points="378.93,-76.99 368.42,-75.63 375.79,-83.25 378.93,-76.99"/>
</a>
</g>
</g>
<!-- Node15 -->
<g id="Node000015" class="node">
<title>Node15</title>
<g id="a_Node000015"><a xlink:title=" ">
<polygon fill="#e0e0e0" stroke="#999999" points="473.5,-74.5 436.5,-74.5 436.5,-55.25 473.5,-55.25 473.5,-74.5"/>
<text text-anchor="middle" x="455" y="-61" font-family="Helvetica,sans-Serif" font-size="10.00">array</text>
</a>
</g>
</g>
<!-- Node14&#45;&gt;Node15 -->
<g id="edge15_Node000014_Node000015" class="edge">
<title>Node14&#45;&gt;Node15</title>
<g id="a_edge15_Node000014_Node000015"><a xlink:title=" ">
<path fill="none" stroke="#63b8ff" d="M455,-110.33C455,-103.82 455,-94.67 455,-86.37"/>
<polygon fill="#63b8ff" stroke="#63b8ff" points="458.5,-86.37 455,-76.37 451.5,-86.37 458.5,-86.37"/>
</a>
</g>
</g>
</g>
</svg>
