<?xml version="1.0" encoding="UTF-8" standalone="no"?>
<!DOCTYPE svg PUBLIC "-//W3C//DTD SVG 1.1//EN"
 "http://www.w3.org/Graphics/SVG/1.1/DTD/svg11.dtd">
<!-- Generated by graphviz version 7.0.5 (20221223.1930)
 -->
<!-- Title: lib/board_adapters/input_device_interface/keypad_factory_interface.cpp Pages: 1 -->
<svg width="315pt" height="280pt"
 viewBox="0.00 0.00 315.00 280.00" xmlns="http://www.w3.org/2000/svg" xmlns:xlink="http://www.w3.org/1999/xlink">
<g id="graph0" class="graph" transform="scale(1 1) rotate(0) translate(4 276)">
<title>lib/board_adapters/input_device_interface/keypad_factory_interface.cpp</title>
<!-- Node1 -->
<g id="node1" class="node">
<title>Node1</title>
<g id="a_node1"><a xlink:title=" ">
<polygon fill="#999999" stroke="#666666" points="217.5,-272 71.5,-272 71.5,-231 217.5,-231 217.5,-272"/>
<text text-anchor="start" x="79.5" y="-260" font-family="Helvetica,sans-Serif" font-size="10.00">lib/board_adapters</text>
<text text-anchor="start" x="79.5" y="-249" font-family="Helvetica,sans-Serif" font-size="10.00">/input_device_interface</text>
<text text-anchor="middle" x="144.5" y="-238" font-family="Helvetica,sans-Serif" font-size="10.00">/keypad_factory_interface.cpp</text>
</a>
</g>
</g>
<!-- Node2 -->
<g id="node2" class="node">
<title>Node2</title>
<g id="a_node2"><a xlink:href="Keypad_8hpp.xhtml" target="_top" xlink:title=" ">
<polygon fill="white" stroke="#666666" points="67,-189.5 0,-189.5 0,-170.5 67,-170.5 67,-189.5"/>
<text text-anchor="middle" x="33.5" y="-177.5" font-family="Helvetica,sans-Serif" font-size="10.00">Keypad.hpp</text>
</a>
</g>
</g>
<!-- Node1&#45;&gt;Node2 -->
<g id="edge1" class="edge">
<title>Node1&#45;&gt;Node2</title>
<path fill="none" stroke="#63b8ff" d="M112.69,-230.58C95.14,-219.59 73.7,-206.17 57.55,-196.06"/>
<polygon fill="#63b8ff" stroke="#63b8ff" points="59.42,-193.1 49.08,-190.76 55.7,-199.03 59.42,-193.1"/>
</g>
<!-- Node7 -->
<g id="node7" class="node">
<title>Node7</title>
<g id="a_node7"><a xlink:href="board__pins_8hpp.xhtml" target="_top" xlink:title="Provides named objects for the pins provided by the board.">
<polygon fill="white" stroke="#666666" points="304.5,-189.5 222.5,-189.5 222.5,-170.5 304.5,-170.5 304.5,-189.5"/>
<text text-anchor="middle" x="263.5" y="-177.5" font-family="Helvetica,sans-Serif" font-size="10.00">board_pins.hpp</text>
</a>
</g>
</g>
<!-- Node1&#45;&gt;Node7 -->
<g id="edge6" class="edge">
<title>Node1&#45;&gt;Node7</title>
<path fill="none" stroke="#63b8ff" d="M178.6,-230.58C197.78,-219.38 221.29,-205.65 238.7,-195.48"/>
<polygon fill="#63b8ff" stroke="#63b8ff" points="239.99,-198.78 246.86,-190.72 236.46,-192.74 239.99,-198.78"/>
</g>
<!-- Node10 -->
<g id="node10" class="node">
<title>Node10</title>
<g id="a_node10"><a xlink:href="keypad__factory__interface_8hpp.xhtml" target="_top" xlink:title=" ">
<polygon fill="white" stroke="#666666" points="204,-195 85,-195 85,-165 204,-165 204,-195"/>
<text text-anchor="start" x="93" y="-183" font-family="Helvetica,sans-Serif" font-size="10.00">user_interaction/keypad</text>
<text text-anchor="middle" x="144.5" y="-172" font-family="Helvetica,sans-Serif" font-size="10.00">_factory_interface.hpp</text>
</a>
</g>
</g>
<!-- Node1&#45;&gt;Node10 -->
<g id="edge9" class="edge">
<title>Node1&#45;&gt;Node10</title>
<path fill="none" stroke="#63b8ff" d="M144.5,-230.77C144.5,-223.31 144.5,-214.7 144.5,-206.77"/>
<polygon fill="#63b8ff" stroke="#63b8ff" points="148,-206.99 144.5,-196.99 141,-206.99 148,-206.99"/>
</g>
<!-- Node3 -->
<g id="node3" class="node">
<title>Node3</title>
<g id="a_node3"><a xlink:href="IKeypad_8hpp.xhtml" target="_top" xlink:title=" ">
<polygon fill="white" stroke="#666666" points="148.5,-129 6.5,-129 6.5,-110 148.5,-110 148.5,-129"/>
<text text-anchor="middle" x="77.5" y="-117" font-family="Helvetica,sans-Serif" font-size="10.00">user_interaction/IKeypad.hpp</text>
</a>
</g>
</g>
<!-- Node2&#45;&gt;Node3 -->
<g id="edge2" class="edge">
<title>Node2&#45;&gt;Node3</title>
<path fill="none" stroke="#63b8ff" d="M39.99,-170.37C46.36,-161.9 56.26,-148.74 64.29,-138.07"/>
<polygon fill="#63b8ff" stroke="#63b8ff" points="66.86,-140.47 70.07,-130.38 61.26,-136.26 66.86,-140.47"/>
</g>
<!-- Node4 -->
<g id="node4" class="node">
<title>Node4</title>
<g id="a_node4"><a xlink:href="KeyIds_8hpp.xhtml" target="_top" xlink:title=" ">
<polygon fill="white" stroke="#666666" points="101,-74 36,-74 36,-55 101,-55 101,-74"/>
<text text-anchor="middle" x="68.5" y="-62" font-family="Helvetica,sans-Serif" font-size="10.00">KeyIds.hpp</text>
</a>
</g>
</g>
<!-- Node3&#45;&gt;Node4 -->
<g id="edge3" class="edge">
<title>Node3&#45;&gt;Node4</title>
<path fill="none" stroke="#63b8ff" d="M76.01,-109.75C74.9,-103.19 73.33,-93.95 71.91,-85.6"/>
<polygon fill="#63b8ff" stroke="#63b8ff" points="75.4,-85.21 70.27,-75.93 68.5,-86.38 75.4,-85.21"/>
</g>
<!-- Node6 -->
<g id="node6" class="node">
<title>Node6</title>
<g id="a_node6"><a xlink:title=" ">
<polygon fill="#e0e0e0" stroke="#999999" points="178,-74 119,-74 119,-55 178,-55 178,-74"/>
<text text-anchor="middle" x="148.5" y="-62" font-family="Helvetica,sans-Serif" font-size="10.00">functional</text>
</a>
</g>
</g>
<!-- Node3&#45;&gt;Node6 -->
<g id="edge5" class="edge">
<title>Node3&#45;&gt;Node6</title>
<path fill="none" stroke="#63b8ff" d="M89.54,-109.51C99.91,-101.77 115.1,-90.43 127.47,-81.2"/>
<polygon fill="#63b8ff" stroke="#63b8ff" points="129.5,-84.05 135.42,-75.26 125.31,-78.44 129.5,-84.05"/>
</g>
<!-- Node5 -->
<g id="node5" class="node">
<title>Node5</title>
<g id="a_node5"><a xlink:title=" ">
<polygon fill="#e0e0e0" stroke="#999999" points="94.5,-19 42.5,-19 42.5,0 94.5,0 94.5,-19"/>
<text text-anchor="middle" x="68.5" y="-7" font-family="Helvetica,sans-Serif" font-size="10.00">ostream</text>
</a>
</g>
</g>
<!-- Node4&#45;&gt;Node5 -->
<g id="edge4" class="edge">
<title>Node4&#45;&gt;Node5</title>
<path fill="none" stroke="#63b8ff" d="M68.5,-54.75C68.5,-48.27 68.5,-39.16 68.5,-30.9"/>
<polygon fill="#63b8ff" stroke="#63b8ff" points="72,-30.96 68.5,-20.96 65,-30.96 72,-30.96"/>
</g>
<!-- Node8 -->
<g id="node8" class="node">
<title>Node8</title>
<g id="a_node8"><a xlink:href="board__types_8hpp.xhtml" target="_top" xlink:title=" ">
<polygon fill="white" stroke="#666666" points="307,-129 220,-129 220,-110 307,-110 307,-129"/>
<text text-anchor="middle" x="263.5" y="-117" font-family="Helvetica,sans-Serif" font-size="10.00">board_types.hpp</text>
</a>
</g>
</g>
<!-- Node7&#45;&gt;Node8 -->
<g id="edge7" class="edge">
<title>Node7&#45;&gt;Node8</title>
<path fill="none" stroke="#63b8ff" d="M263.5,-170.37C263.5,-162.5 263.5,-150.6 263.5,-140.39"/>
<polygon fill="#63b8ff" stroke="#63b8ff" points="267,-140.68 263.5,-130.68 260,-140.68 267,-140.68"/>
</g>
<!-- Node9 -->
<g id="node9" class="node">
<title>Node9</title>
<g id="a_node9"><a xlink:title=" ">
<polygon fill="#e0e0e0" stroke="#999999" points="286.5,-74 240.5,-74 240.5,-55 286.5,-55 286.5,-74"/>
<text text-anchor="middle" x="263.5" y="-62" font-family="Helvetica,sans-Serif" font-size="10.00">cstdint</text>
</a>
</g>
</g>
<!-- Node8&#45;&gt;Node9 -->
<g id="edge8" class="edge">
<title>Node8&#45;&gt;Node9</title>
<path fill="none" stroke="#63b8ff" d="M263.5,-109.75C263.5,-103.27 263.5,-94.16 263.5,-85.9"/>
<polygon fill="#63b8ff" stroke="#63b8ff" points="267,-85.96 263.5,-75.96 260,-85.96 267,-85.96"/>
</g>
<!-- Node10&#45;&gt;Node3 -->
<g id="edge10" class="edge">
<title>Node10&#45;&gt;Node3</title>
<path fill="none" stroke="#63b8ff" d="M127.94,-164.54C118.21,-156.04 105.89,-145.29 95.86,-136.53"/>
<polygon fill="#63b8ff" stroke="#63b8ff" points="98.41,-134.11 88.58,-130.17 93.81,-139.38 98.41,-134.11"/>
</g>
</g>
</svg>
