<?xml version="1.0" encoding="UTF-8" standalone="no"?>
<!DOCTYPE svg PUBLIC "-//W3C//DTD SVG 1.1//EN"
 "http://www.w3.org/Graphics/SVG/1.1/DTD/svg11.dtd">
<!-- Generated by graphviz version 9.0.0 (20230911.1827)
 -->
<!-- Title: lib/layer3_board/src/Keypad.hpp Pages: 1 -->
<svg width="383pt" height="204pt"
 viewBox="0.00 0.00 382.50 204.25" xmlns="http://www.w3.org/2000/svg" xmlns:xlink="http://www.w3.org/1999/xlink">
<g id="graph0" class="graph" transform="scale(1 1) rotate(0) translate(4 200.25)">
<title>lib/layer3_board/src/Keypad.hpp</title>
<!-- Node1 -->
<g id="Node000001" class="node">
<title>Node1</title>
<g id="a_Node000001"><a xlink:title=" ">
<polygon fill="#999999" stroke="#666666" points="268.62,-196.25 168.62,-196.25 168.62,-165.75 268.62,-165.75 268.62,-196.25"/>
<text text-anchor="start" x="176.62" y="-182.75" font-family="Helvetica,sans-Serif" font-size="10.00">lib/layer3_board/src</text>
<text text-anchor="middle" x="218.62" y="-171.5" font-family="Helvetica,sans-Serif" font-size="10.00">/Keypad.hpp</text>
</a>
</g>
</g>
<!-- Node2 -->
<g id="Node000002" class="node">
<title>Node2</title>
<g id="a_Node000002"><a xlink:href="IKeypad_8hpp.xhtml" target="_top" xlink:title=" ">
<polygon fill="white" stroke="#666666" points="69.25,-129.75 0,-129.75 0,-110.5 69.25,-110.5 69.25,-129.75"/>
<text text-anchor="middle" x="34.62" y="-116.25" font-family="Helvetica,sans-Serif" font-size="10.00">IKeypad.hpp</text>
</a>
</g>
</g>
<!-- Node1&#45;&gt;Node2 -->
<g id="edge1_Node000001_Node000002" class="edge">
<title>Node1&#45;&gt;Node2</title>
<g id="a_edge1_Node000001_Node000002"><a xlink:title=" ">
<path fill="none" stroke="#63b8ff" d="M172.67,-165.3C142.32,-155.58 102.95,-142.99 74.03,-133.73"/>
<polygon fill="#63b8ff" stroke="#63b8ff" points="75.15,-130.42 64.56,-130.7 73.01,-137.08 75.15,-130.42"/>
</a>
</g>
</g>
<!-- Node5 -->
<g id="Node000005" class="node">
<title>Node5</title>
<g id="a_Node000005"><a xlink:href="board__config_8hpp.xhtml" target="_top" xlink:title="Provides named objects for the pins provided by the board.">
<polygon fill="white" stroke="#666666" points="176,-129.75 87.25,-129.75 87.25,-110.5 176,-110.5 176,-129.75"/>
<text text-anchor="middle" x="131.62" y="-116.25" font-family="Helvetica,sans-Serif" font-size="10.00">board_config.hpp</text>
</a>
</g>
</g>
<!-- Node1&#45;&gt;Node5 -->
<g id="edge4_Node000001_Node000005" class="edge">
<title>Node1&#45;&gt;Node5</title>
<g id="a_edge4_Node000001_Node000005"><a xlink:title=" ">
<path fill="none" stroke="#63b8ff" d="M197.12,-165.45C184.13,-156.65 167.58,-145.46 154.37,-136.52"/>
<polygon fill="#63b8ff" stroke="#63b8ff" points="156.53,-133.76 146.29,-131.05 152.61,-139.55 156.53,-133.76"/>
</a>
</g>
</g>
<!-- Node8 -->
<g id="Node000008" class="node">
<title>Node8</title>
<g id="a_Node000008"><a xlink:title=" ">
<polygon fill="#e0e0e0" stroke="#999999" points="242.75,-129.75 194.5,-129.75 194.5,-110.5 242.75,-110.5 242.75,-129.75"/>
<text text-anchor="middle" x="218.62" y="-116.25" font-family="Helvetica,sans-Serif" font-size="10.00">cstddef</text>
</a>
</g>
</g>
<!-- Node1&#45;&gt;Node8 -->
<g id="edge7_Node000001_Node000008" class="edge">
<title>Node1&#45;&gt;Node8</title>
<g id="a_edge7_Node000001_Node000008"><a xlink:title=" ">
<path fill="none" stroke="#63b8ff" d="M218.62,-165.45C218.62,-158.21 218.62,-149.34 218.62,-141.44"/>
<polygon fill="#63b8ff" stroke="#63b8ff" points="222.13,-141.71 218.63,-131.71 215.13,-141.71 222.13,-141.71"/>
</a>
</g>
</g>
<!-- Node9 -->
<g id="Node000009" class="node">
<title>Node9</title>
<g id="a_Node000009"><a xlink:title=" ">
<polygon fill="#e0e0e0" stroke="#999999" points="306.62,-129.75 260.62,-129.75 260.62,-110.5 306.62,-110.5 306.62,-129.75"/>
<text text-anchor="middle" x="283.62" y="-116.25" font-family="Helvetica,sans-Serif" font-size="10.00">iterator</text>
</a>
</g>
</g>
<!-- Node1&#45;&gt;Node9 -->
<g id="edge8_Node000001_Node000009" class="edge">
<title>Node1&#45;&gt;Node9</title>
<g id="a_edge8_Node000001_Node000009"><a xlink:title=" ">
<path fill="none" stroke="#63b8ff" d="M234.69,-165.45C243.92,-157.09 255.55,-146.55 265.16,-137.85"/>
<polygon fill="#63b8ff" stroke="#63b8ff" points="267.42,-140.52 272.48,-131.22 262.72,-135.34 267.42,-140.52"/>
</a>
</g>
</g>
<!-- Node10 -->
<g id="Node000010" class="node">
<title>Node10</title>
<g id="a_Node000010"><a xlink:title=" ">
<polygon fill="#e0e0e0" stroke="#999999" points="374.5,-129.75 324.75,-129.75 324.75,-110.5 374.5,-110.5 374.5,-129.75"/>
<text text-anchor="middle" x="349.62" y="-116.25" font-family="Helvetica,sans-Serif" font-size="10.00">optional</text>
</a>
</g>
</g>
<!-- Node1&#45;&gt;Node10 -->
<g id="edge9_Node000001_Node000010" class="edge">
<title>Node1&#45;&gt;Node10</title>
<g id="a_edge9_Node000001_Node000010"><a xlink:title=" ">
<path fill="none" stroke="#63b8ff" d="M251.34,-165.3C272.16,-155.94 298.92,-143.91 319.26,-134.77"/>
<polygon fill="#63b8ff" stroke="#63b8ff" points="320.47,-138.07 328.15,-130.77 317.6,-131.68 320.47,-138.07"/>
</a>
</g>
</g>
<!-- Node3 -->
<g id="Node000003" class="node">
<title>Node3</title>
<g id="a_Node000003"><a xlink:href="KeyIds_8hpp.xhtml" target="_top" xlink:title=" ">
<polygon fill="white" stroke="#666666" points="66.62,-74.5 2.62,-74.5 2.62,-55.25 66.62,-55.25 66.62,-74.5"/>
<text text-anchor="middle" x="34.62" y="-61" font-family="Helvetica,sans-Serif" font-size="10.00">KeyIds.hpp</text>
</a>
</g>
</g>
<!-- Node2&#45;&gt;Node3 -->
<g id="edge2_Node000002_Node000003" class="edge">
<title>Node2&#45;&gt;Node3</title>
<g id="a_edge2_Node000002_Node000003"><a xlink:title=" ">
<path fill="none" stroke="#63b8ff" d="M34.62,-110.33C34.62,-103.82 34.62,-94.67 34.62,-86.37"/>
<polygon fill="#63b8ff" stroke="#63b8ff" points="38.13,-86.37 34.63,-76.37 31.13,-86.37 38.13,-86.37"/>
</a>
</g>
</g>
<!-- Node4 -->
<g id="Node000004" class="node">
<title>Node4</title>
<g id="a_Node000004"><a xlink:title=" ">
<polygon fill="#e0e0e0" stroke="#999999" points="60.25,-19.25 9,-19.25 9,0 60.25,0 60.25,-19.25"/>
<text text-anchor="middle" x="34.62" y="-5.75" font-family="Helvetica,sans-Serif" font-size="10.00">ostream</text>
</a>
</g>
</g>
<!-- Node3&#45;&gt;Node4 -->
<g id="edge3_Node000003_Node000004" class="edge">
<title>Node3&#45;&gt;Node4</title>
<g id="a_edge3_Node000003_Node000004"><a xlink:title=" ">
<path fill="none" stroke="#63b8ff" d="M34.62,-55.08C34.62,-48.57 34.62,-39.42 34.62,-31.12"/>
<polygon fill="#63b8ff" stroke="#63b8ff" points="38.13,-31.12 34.63,-21.12 31.13,-31.12 38.13,-31.12"/>
</a>
</g>
</g>
<!-- Node6 -->
<g id="Node000006" class="node">
<title>Node6</title>
<g id="a_Node000006"><a xlink:href="board__types_8hpp.xhtml" target="_top" xlink:title=" ">
<polygon fill="white" stroke="#666666" points="174.88,-74.5 88.38,-74.5 88.38,-55.25 174.88,-55.25 174.88,-74.5"/>
<text text-anchor="middle" x="131.62" y="-61" font-family="Helvetica,sans-Serif" font-size="10.00">board_types.hpp</text>
</a>
</g>
</g>
<!-- Node5&#45;&gt;Node6 -->
<g id="edge5_Node000005_Node000006" class="edge">
<title>Node5&#45;&gt;Node6</title>
<g id="a_edge5_Node000005_Node000006"><a xlink:title=" ">
<path fill="none" stroke="#63b8ff" d="M131.62,-110.33C131.62,-103.82 131.62,-94.67 131.62,-86.37"/>
<polygon fill="#63b8ff" stroke="#63b8ff" points="135.13,-86.37 131.63,-76.37 128.13,-86.37 135.13,-86.37"/>
</a>
</g>
</g>
<!-- Node7 -->
<g id="Node000007" class="node">
<title>Node7</title>
<g id="a_Node000007"><a xlink:title=" ">
<polygon fill="#e0e0e0" stroke="#999999" points="154.25,-19.25 109,-19.25 109,0 154.25,0 154.25,-19.25"/>
<text text-anchor="middle" x="131.62" y="-5.75" font-family="Helvetica,sans-Serif" font-size="10.00">cstdint</text>
</a>
</g>
</g>
<!-- Node6&#45;&gt;Node7 -->
<g id="edge6_Node000006_Node000007" class="edge">
<title>Node6&#45;&gt;Node7</title>
<g id="a_edge6_Node000006_Node000007"><a xlink:title=" ">
<path fill="none" stroke="#63b8ff" d="M131.62,-55.08C131.62,-48.57 131.62,-39.42 131.62,-31.12"/>
<polygon fill="#63b8ff" stroke="#63b8ff" points="135.13,-31.12 131.63,-21.12 128.13,-31.12 135.13,-31.12"/>
</a>
</g>
</g>
</g>
</svg>
