<?xml version="1.0" encoding="UTF-8" standalone="no"?>
<!DOCTYPE svg PUBLIC "-//W3C//DTD SVG 1.1//EN"
 "http://www.w3.org/Graphics/SVG/1.1/DTD/svg11.dtd">
<!-- Generated by graphviz version 7.0.5 (20221223.1930)
 -->
<!-- Title: lib/board_adapters/input_device_interface/keypad_factory_interface.cpp Pages: 1 -->
<svg width="212pt" height="280pt"
 viewBox="0.00 0.00 212.00 280.00" xmlns="http://www.w3.org/2000/svg" xmlns:xlink="http://www.w3.org/1999/xlink">
<g id="graph0" class="graph" transform="scale(1 1) rotate(0) translate(4 276)">
<title>lib/board_adapters/input_device_interface/keypad_factory_interface.cpp</title>
<!-- Node1 -->
<g id="node1" class="node">
<title>Node1</title>
<g id="a_node1"><a xlink:title=" ">
<polygon fill="#999999" stroke="#666666" points="161.5,-272 15.5,-272 15.5,-231 161.5,-231 161.5,-272"/>
<text text-anchor="start" x="23.5" y="-260" font-family="Helvetica,sans-Serif" font-size="10.00">lib/board_adapters</text>
<text text-anchor="start" x="23.5" y="-249" font-family="Helvetica,sans-Serif" font-size="10.00">/input_device_interface</text>
<text text-anchor="middle" x="88.5" y="-238" font-family="Helvetica,sans-Serif" font-size="10.00">/keypad_factory_interface.cpp</text>
</a>
</g>
</g>
<!-- Node2 -->
<g id="node2" class="node">
<title>Node2</title>
<g id="a_node2"><a xlink:href="Keypad_8hpp.xhtml" target="_top" xlink:title=" ">
<polygon fill="white" stroke="#666666" points="67,-189.5 0,-189.5 0,-170.5 67,-170.5 67,-189.5"/>
<text text-anchor="middle" x="33.5" y="-177.5" font-family="Helvetica,sans-Serif" font-size="10.00">Keypad.hpp</text>
</a>
</g>
</g>
<!-- Node1&#45;&gt;Node2 -->
<g id="edge1" class="edge">
<title>Node1&#45;&gt;Node2</title>
<path fill="none" stroke="#63b8ff" d="M72.89,-230.77C64.88,-220.66 55.22,-208.44 47.46,-198.64"/>
<polygon fill="#63b8ff" stroke="#63b8ff" points="50.37,-196.68 41.42,-191.01 44.88,-201.02 50.37,-196.68"/>
</g>
<!-- Node7 -->
<g id="node7" class="node">
<title>Node7</title>
<g id="a_node7"><a xlink:href="keypad__factory__interface_8hpp.xhtml" target="_top" xlink:title="Dependency injection for the keypad.">
<polygon fill="white" stroke="#666666" points="204,-195 85,-195 85,-165 204,-165 204,-195"/>
<text text-anchor="start" x="93" y="-183" font-family="Helvetica,sans-Serif" font-size="10.00">user_interaction/keypad</text>
<text text-anchor="middle" x="144.5" y="-172" font-family="Helvetica,sans-Serif" font-size="10.00">_factory_interface.hpp</text>
</a>
</g>
</g>
<!-- Node1&#45;&gt;Node7 -->
<g id="edge6" class="edge">
<title>Node1&#45;&gt;Node7</title>
<path fill="none" stroke="#63b8ff" d="M104.4,-230.77C111.05,-222.52 118.82,-212.87 125.75,-204.27"/>
<polygon fill="#63b8ff" stroke="#63b8ff" points="128.34,-206.64 131.89,-196.65 122.89,-202.24 128.34,-206.64"/>
</g>
<!-- Node3 -->
<g id="node3" class="node">
<title>Node3</title>
<g id="a_node3"><a xlink:href="IKeypad_8hpp.xhtml" target="_top" xlink:title=" ">
<polygon fill="white" stroke="#666666" points="159.5,-129 17.5,-129 17.5,-110 159.5,-110 159.5,-129"/>
<text text-anchor="middle" x="88.5" y="-117" font-family="Helvetica,sans-Serif" font-size="10.00">user_interaction/IKeypad.hpp</text>
</a>
</g>
</g>
<!-- Node2&#45;&gt;Node3 -->
<g id="edge2" class="edge">
<title>Node2&#45;&gt;Node3</title>
<path fill="none" stroke="#63b8ff" d="M41.62,-170.37C49.74,-161.73 62.46,-148.2 72.6,-137.42"/>
<polygon fill="#63b8ff" stroke="#63b8ff" points="75.01,-139.95 79.31,-130.27 69.91,-135.16 75.01,-139.95"/>
</g>
<!-- Node4 -->
<g id="node4" class="node">
<title>Node4</title>
<g id="a_node4"><a xlink:href="KeyIds_8hpp.xhtml" target="_top" xlink:title=" ">
<polygon fill="white" stroke="#666666" points="81,-74 16,-74 16,-55 81,-55 81,-74"/>
<text text-anchor="middle" x="48.5" y="-62" font-family="Helvetica,sans-Serif" font-size="10.00">KeyIds.hpp</text>
</a>
</g>
</g>
<!-- Node3&#45;&gt;Node4 -->
<g id="edge3" class="edge">
<title>Node3&#45;&gt;Node4</title>
<path fill="none" stroke="#63b8ff" d="M81.89,-109.75C76.54,-102.66 68.82,-92.42 62.15,-83.59"/>
<polygon fill="#63b8ff" stroke="#63b8ff" points="64.98,-81.52 56.16,-75.65 59.39,-85.74 64.98,-81.52"/>
</g>
<!-- Node6 -->
<g id="node6" class="node">
<title>Node6</title>
<g id="a_node6"><a xlink:title=" ">
<polygon fill="#e0e0e0" stroke="#999999" points="158,-74 99,-74 99,-55 158,-55 158,-74"/>
<text text-anchor="middle" x="128.5" y="-62" font-family="Helvetica,sans-Serif" font-size="10.00">functional</text>
</a>
</g>
</g>
<!-- Node3&#45;&gt;Node6 -->
<g id="edge5" class="edge">
<title>Node3&#45;&gt;Node6</title>
<path fill="none" stroke="#63b8ff" d="M95.11,-109.75C100.46,-102.66 108.18,-92.42 114.85,-83.59"/>
<polygon fill="#63b8ff" stroke="#63b8ff" points="117.61,-85.74 120.84,-75.65 112.02,-81.52 117.61,-85.74"/>
</g>
<!-- Node5 -->
<g id="node5" class="node">
<title>Node5</title>
<g id="a_node5"><a xlink:title=" ">
<polygon fill="#e0e0e0" stroke="#999999" points="74.5,-19 22.5,-19 22.5,0 74.5,0 74.5,-19"/>
<text text-anchor="middle" x="48.5" y="-7" font-family="Helvetica,sans-Serif" font-size="10.00">ostream</text>
</a>
</g>
</g>
<!-- Node4&#45;&gt;Node5 -->
<g id="edge4" class="edge">
<title>Node4&#45;&gt;Node5</title>
<path fill="none" stroke="#63b8ff" d="M48.5,-54.75C48.5,-48.27 48.5,-39.16 48.5,-30.9"/>
<polygon fill="#63b8ff" stroke="#63b8ff" points="52,-30.96 48.5,-20.96 45,-30.96 52,-30.96"/>
</g>
<!-- Node7&#45;&gt;Node3 -->
<g id="edge7" class="edge">
<title>Node7&#45;&gt;Node3</title>
<path fill="none" stroke="#63b8ff" d="M130.66,-164.54C122.77,-156.3 112.86,-145.94 104.62,-137.34"/>
<polygon fill="#63b8ff" stroke="#63b8ff" points="107.29,-135.07 97.85,-130.27 102.24,-139.91 107.29,-135.07"/>
</g>
</g>
</svg>
