<?xml version="1.0" encoding="UTF-8" standalone="no"?>
<!DOCTYPE svg PUBLIC "-//W3C//DTD SVG 1.1//EN"
 "http://www.w3.org/Graphics/SVG/1.1/DTD/svg11.dtd">
<!-- Generated by graphviz version 9.0.0 (20230911.1827)
 -->
<!-- Title: lib/layer3_board/src/Keypad.hpp Pages: 1 -->
<svg width="390pt" height="105pt"
 viewBox="0.00 0.00 390.38 105.00" xmlns="http://www.w3.org/2000/svg" xmlns:xlink="http://www.w3.org/1999/xlink">
<g id="graph0" class="graph" transform="scale(1 1) rotate(0) translate(4 101)">
<title>lib/layer3_board/src/Keypad.hpp</title>
<!-- Node1 -->
<g id="Node000001" class="node">
<title>Node1</title>
<g id="a_Node000001"><a xlink:title=" ">
<polygon fill="#999999" stroke="#666666" points="241,-97 141,-97 141,-66.5 241,-66.5 241,-97"/>
<text text-anchor="start" x="149" y="-83.5" font-family="Helvetica,sans-Serif" font-size="10.00">lib/layer3_board/src</text>
<text text-anchor="middle" x="191" y="-72.25" font-family="Helvetica,sans-Serif" font-size="10.00">/Keypad.hpp</text>
</a>
</g>
</g>
<!-- Node2 -->
<g id="Node000002" class="node">
<title>Node2</title>
<g id="a_Node000002"><a xlink:href="Keypad_8cpp.xhtml" target="_top" xlink:title=" ">
<polygon fill="white" stroke="#666666" points="100,-30.5 0,-30.5 0,0 100,0 100,-30.5"/>
<text text-anchor="start" x="8" y="-17" font-family="Helvetica,sans-Serif" font-size="10.00">lib/layer3_board/src</text>
<text text-anchor="middle" x="50" y="-5.75" font-family="Helvetica,sans-Serif" font-size="10.00">/Keypad.cpp</text>
</a>
</g>
</g>
<!-- Node1&#45;&gt;Node2 -->
<g id="edge1_Node000001_Node000002" class="edge">
<title>Node1&#45;&gt;Node2</title>
<g id="a_edge1_Node000001_Node000002"><a xlink:title=" ">
<path fill="none" stroke="#63b8ff" d="M148.55,-61.33C127.13,-51.53 101.58,-39.85 81.87,-30.83"/>
<polygon fill="#63b8ff" stroke="#63b8ff" points="147.08,-64.51 157.63,-65.48 149.99,-58.14 147.08,-64.51"/>
</a>
</g>
</g>
<!-- Node3 -->
<g id="Node000003" class="node">
<title>Node3</title>
<g id="a_Node000003"><a xlink:href="keypad__factory__interface_8cpp.xhtml" target="_top" xlink:title=" ">
<polygon fill="white" stroke="#666666" points="263.5,-30.5 118.5,-30.5 118.5,0 263.5,0 263.5,-30.5"/>
<text text-anchor="start" x="126.5" y="-17" font-family="Helvetica,sans-Serif" font-size="10.00">lib/layer3_board/src</text>
<text text-anchor="middle" x="191" y="-5.75" font-family="Helvetica,sans-Serif" font-size="10.00">/keypad_factory_interface.cpp</text>
</a>
</g>
</g>
<!-- Node1&#45;&gt;Node3 -->
<g id="edge2_Node000001_Node000003" class="edge">
<title>Node1&#45;&gt;Node3</title>
<g id="a_edge2_Node000001_Node000003"><a xlink:title=" ">
<path fill="none" stroke="#63b8ff" d="M191,-54.81C191,-46.64 191,-37.91 191,-30.83"/>
<polygon fill="#63b8ff" stroke="#63b8ff" points="187.5,-54.6 191,-64.6 194.5,-54.6 187.5,-54.6"/>
</a>
</g>
</g>
<!-- Node4 -->
<g id="Node000004" class="node">
<title>Node4</title>
<g id="a_Node000004"><a xlink:href="test__board_8cpp.xhtml" target="_top" xlink:title=" ">
<polygon fill="white" stroke="#666666" points="382.38,-30.5 281.62,-30.5 281.62,0 382.38,0 382.38,-30.5"/>
<text text-anchor="start" x="289.62" y="-17" font-family="Helvetica,sans-Serif" font-size="10.00">test/test_board/test</text>
<text text-anchor="middle" x="332" y="-5.75" font-family="Helvetica,sans-Serif" font-size="10.00">_board.cpp</text>
</a>
</g>
</g>
<!-- Node1&#45;&gt;Node4 -->
<g id="edge3_Node000001_Node000004" class="edge">
<title>Node1&#45;&gt;Node4</title>
<g id="a_edge3_Node000001_Node000004"><a xlink:title=" ">
<path fill="none" stroke="#63b8ff" d="M233.45,-61.33C254.87,-51.53 280.42,-39.85 300.13,-30.83"/>
<polygon fill="#63b8ff" stroke="#63b8ff" points="232.01,-58.14 224.37,-65.48 234.92,-64.51 232.01,-58.14"/>
</a>
</g>
</g>
</g>
</svg>
