<?xml version="1.0" encoding="UTF-8" standalone="no"?>
<!DOCTYPE svg PUBLIC "-//W3C//DTD SVG 1.1//EN"
 "http://www.w3.org/Graphics/SVG/1.1/DTD/svg11.dtd">
<!-- Generated by graphviz version 9.0.0 (20230911.1827)
 -->
<!-- Title: lib/layer3_board/src/LedStatusIndicator.hpp Pages: 1 -->
<svg width="216pt" height="149pt"
 viewBox="0.00 0.00 215.75 149.00" xmlns="http://www.w3.org/2000/svg" xmlns:xlink="http://www.w3.org/1999/xlink">
<g id="graph0" class="graph" transform="scale(1 1) rotate(0) translate(4 145)">
<title>lib/layer3_board/src/LedStatusIndicator.hpp</title>
<!-- Node1 -->
<g id="Node000001" class="node">
<title>Node1</title>
<g id="a_Node000001"><a xlink:title=" ">
<polygon fill="#999999" stroke="#666666" points="167.25,-141 47.75,-141 47.75,-110.5 167.25,-110.5 167.25,-141"/>
<text text-anchor="start" x="55.75" y="-127.5" font-family="Helvetica,sans-Serif" font-size="10.00">lib/layer3_board/src</text>
<text text-anchor="middle" x="107.5" y="-116.25" font-family="Helvetica,sans-Serif" font-size="10.00">/LedStatusIndicator.hpp</text>
</a>
</g>
</g>
<!-- Node2 -->
<g id="Node000002" class="node">
<title>Node2</title>
<g id="a_Node000002"><a xlink:href="IStatusIndicator_8hpp.xhtml" target="_top" xlink:title=" ">
<polygon fill="white" stroke="#666666" points="103,-74.5 0,-74.5 0,-55.25 103,-55.25 103,-74.5"/>
<text text-anchor="middle" x="51.5" y="-61" font-family="Helvetica,sans-Serif" font-size="10.00">IStatusIndicator.hpp</text>
</a>
</g>
</g>
<!-- Node1&#45;&gt;Node2 -->
<g id="edge1_Node000001_Node000002" class="edge">
<title>Node1&#45;&gt;Node2</title>
<g id="a_edge1_Node000001_Node000002"><a xlink:title=" ">
<path fill="none" stroke="#63b8ff" d="M93.66,-110.2C85.87,-102.01 76.1,-91.73 67.92,-83.14"/>
<polygon fill="#63b8ff" stroke="#63b8ff" points="70.6,-80.88 61.18,-76.05 65.53,-85.71 70.6,-80.88"/>
</a>
</g>
</g>
<!-- Node3 -->
<g id="Node000003" class="node">
<title>Node3</title>
<g id="a_Node000003"><a xlink:href="board__types_8hpp.xhtml" target="_top" xlink:title=" ">
<polygon fill="white" stroke="#666666" points="207.75,-74.5 121.25,-74.5 121.25,-55.25 207.75,-55.25 207.75,-74.5"/>
<text text-anchor="middle" x="164.5" y="-61" font-family="Helvetica,sans-Serif" font-size="10.00">board_types.hpp</text>
</a>
</g>
</g>
<!-- Node1&#45;&gt;Node3 -->
<g id="edge2_Node000001_Node000003" class="edge">
<title>Node1&#45;&gt;Node3</title>
<g id="a_edge2_Node000001_Node000003"><a xlink:title=" ">
<path fill="none" stroke="#63b8ff" d="M121.59,-110.2C129.52,-102.01 139.46,-91.73 147.78,-83.14"/>
<polygon fill="#63b8ff" stroke="#63b8ff" points="150.22,-85.66 154.66,-76.04 145.19,-80.79 150.22,-85.66"/>
</a>
</g>
</g>
<!-- Node4 -->
<g id="Node000004" class="node">
<title>Node4</title>
<g id="a_Node000004"><a xlink:title=" ">
<polygon fill="#e0e0e0" stroke="#999999" points="187.12,-19.25 141.88,-19.25 141.88,0 187.12,0 187.12,-19.25"/>
<text text-anchor="middle" x="164.5" y="-5.75" font-family="Helvetica,sans-Serif" font-size="10.00">cstdint</text>
</a>
</g>
</g>
<!-- Node3&#45;&gt;Node4 -->
<g id="edge3_Node000003_Node000004" class="edge">
<title>Node3&#45;&gt;Node4</title>
<g id="a_edge3_Node000003_Node000004"><a xlink:title=" ">
<path fill="none" stroke="#63b8ff" d="M164.5,-55.08C164.5,-48.57 164.5,-39.42 164.5,-31.12"/>
<polygon fill="#63b8ff" stroke="#63b8ff" points="168,-31.12 164.5,-21.12 161,-31.12 168,-31.12"/>
</a>
</g>
</g>
</g>
</svg>
