<?xml version="1.0" encoding="UTF-8" standalone="no"?>
<!DOCTYPE svg PUBLIC "-//W3C//DTD SVG 1.1//EN"
 "http://www.w3.org/Graphics/SVG/1.1/DTD/svg11.dtd">
<!-- Generated by graphviz version 9.0.0 (20230911.1827)
 -->
<!-- Title: lib/layer3_board/src/LedStatusIndicator.hpp Pages: 1 -->
<svg width="268pt" height="116pt"
 viewBox="0.00 0.00 268.00 116.25" xmlns="http://www.w3.org/2000/svg" xmlns:xlink="http://www.w3.org/1999/xlink">
<g id="graph0" class="graph" transform="scale(1 1) rotate(0) translate(4 112.25)">
<title>lib/layer3_board/src/LedStatusIndicator.hpp</title>
<!-- Node1 -->
<g id="Node000001" class="node">
<title>Node1</title>
<g id="a_Node000001"><a xlink:title=" ">
<polygon fill="#999999" stroke="#666666" points="188.5,-108.25 69,-108.25 69,-77.75 188.5,-77.75 188.5,-108.25"/>
<text text-anchor="start" x="77" y="-94.75" font-family="Helvetica,sans-Serif" font-size="10.00">lib/layer3_board/src</text>
<text text-anchor="middle" x="128.75" y="-83.5" font-family="Helvetica,sans-Serif" font-size="10.00">/LedStatusIndicator.hpp</text>
</a>
</g>
</g>
<!-- Node2 -->
<g id="Node000002" class="node">
<title>Node2</title>
<g id="a_Node000002"><a xlink:href="LedStatusIndicator_8cpp.xhtml" target="_top" xlink:title=" ">
<polygon fill="white" stroke="#666666" points="119.5,-36.12 0,-36.12 0,-5.62 119.5,-5.62 119.5,-36.12"/>
<text text-anchor="start" x="8" y="-22.62" font-family="Helvetica,sans-Serif" font-size="10.00">lib/layer3_board/src</text>
<text text-anchor="middle" x="59.75" y="-11.38" font-family="Helvetica,sans-Serif" font-size="10.00">/LedStatusIndicator.cpp</text>
</a>
</g>
</g>
<!-- Node1&#45;&gt;Node2 -->
<g id="edge1_Node000001_Node000002" class="edge">
<title>Node1&#45;&gt;Node2</title>
<g id="a_edge1_Node000001_Node000002"><a xlink:title=" ">
<path fill="none" stroke="#63b8ff" d="M106.4,-69.28C95.76,-58.48 83.37,-45.88 74.03,-36.39"/>
<polygon fill="#63b8ff" stroke="#63b8ff" points="103.88,-71.72 113.39,-76.39 108.87,-66.81 103.88,-71.72"/>
</a>
</g>
</g>
<!-- Node3 -->
<g id="Node000003" class="node">
<title>Node3</title>
<g id="a_Node000003"><a xlink:href="statusindicators__factory__interface_8cpp.xhtml" target="_top" xlink:title=" ">
<polygon fill="white" stroke="#666666" points="260,-41.75 137.5,-41.75 137.5,0 260,0 260,-41.75"/>
<text text-anchor="start" x="145.5" y="-28.25" font-family="Helvetica,sans-Serif" font-size="10.00">lib/layer3_board/src</text>
<text text-anchor="start" x="145.5" y="-17" font-family="Helvetica,sans-Serif" font-size="10.00">/statusindicators_factory</text>
<text text-anchor="middle" x="198.75" y="-5.75" font-family="Helvetica,sans-Serif" font-size="10.00">_interface.cpp</text>
</a>
</g>
</g>
<!-- Node1&#45;&gt;Node3 -->
<g id="edge2_Node000001_Node000003" class="edge">
<title>Node1&#45;&gt;Node3</title>
<g id="a_edge2_Node000001_Node000003"><a xlink:title=" ">
<path fill="none" stroke="#63b8ff" d="M151.19,-69.52C159.93,-60.76 169.89,-50.79 178.43,-42.24"/>
<polygon fill="#63b8ff" stroke="#63b8ff" points="148.91,-66.85 144.32,-76.4 153.87,-71.79 148.91,-66.85"/>
</a>
</g>
</g>
</g>
</svg>
