<?xml version="1.0" encoding="UTF-8" standalone="no"?>
<!DOCTYPE svg PUBLIC "-//W3C//DTD SVG 1.1//EN"
 "http://www.w3.org/Graphics/SVG/1.1/DTD/svg11.dtd">
<!-- Generated by graphviz version 9.0.0 (20230911.1827)
 -->
<!-- Title: lib/layer1_use_cases/include/logging.hpp Pages: 1 -->
<svg width="348pt" height="116pt"
 viewBox="0.00 0.00 348.00 116.25" xmlns="http://www.w3.org/2000/svg" xmlns:xlink="http://www.w3.org/1999/xlink">
<g id="graph0" class="graph" transform="scale(1 1) rotate(0) translate(4 112.25)">
<title>lib/layer1_use_cases/include/logging.hpp</title>
<!-- Node1 -->
<g id="Node000001" class="node">
<title>Node1</title>
<g id="a_Node000001"><a xlink:title=" ">
<polygon fill="#999999" stroke="#666666" points="254.62,-108.25 147.88,-108.25 147.88,-77.75 254.62,-77.75 254.62,-108.25"/>
<text text-anchor="start" x="155.88" y="-94.75" font-family="Helvetica,sans-Serif" font-size="10.00">lib/layer1_use_cases</text>
<text text-anchor="middle" x="201.25" y="-83.5" font-family="Helvetica,sans-Serif" font-size="10.00">/include/logging.hpp</text>
</a>
</g>
</g>
<!-- Node2 -->
<g id="Node000002" class="node">
<title>Node2</title>
<g id="a_Node000002"><a xlink:href="ProcessHmiInputs_8cpp.xhtml" target="_top" xlink:title=" ">
<polygon fill="white" stroke="#666666" points="134.5,-36.12 0,-36.12 0,-5.62 134.5,-5.62 134.5,-36.12"/>
<text text-anchor="start" x="8" y="-22.62" font-family="Helvetica,sans-Serif" font-size="10.00">lib/layer1_use_cases</text>
<text text-anchor="middle" x="67.25" y="-11.38" font-family="Helvetica,sans-Serif" font-size="10.00">/src/ProcessHmiInputs.cpp</text>
</a>
</g>
</g>
<!-- Node1&#45;&gt;Node2 -->
<g id="edge1_Node000001_Node000002" class="edge">
<title>Node1&#45;&gt;Node2</title>
<g id="a_edge1_Node000001_Node000002"><a xlink:title=" ">
<path fill="none" stroke="#63b8ff" d="M163.01,-71.99C141.44,-60.7 114.95,-46.84 95.3,-36.56"/>
<polygon fill="#63b8ff" stroke="#63b8ff" points="161.34,-75.06 171.82,-76.6 164.58,-68.86 161.34,-75.06"/>
</a>
</g>
</g>
<!-- Node3 -->
<g id="Node000003" class="node">
<title>Node3</title>
<g id="a_Node000003"><a xlink:href="logging_8cpp.xhtml" target="_top" xlink:title=" ">
<polygon fill="white" stroke="#666666" points="250.12,-41.75 152.38,-41.75 152.38,0 250.12,0 250.12,-41.75"/>
<text text-anchor="start" x="160.38" y="-28.25" font-family="Helvetica,sans-Serif" font-size="10.00">lib/layer4_drivers</text>
<text text-anchor="start" x="160.38" y="-17" font-family="Helvetica,sans-Serif" font-size="10.00">_libraries_adapters</text>
<text text-anchor="middle" x="201.25" y="-5.75" font-family="Helvetica,sans-Serif" font-size="10.00">/src/logging.cpp</text>
</a>
</g>
</g>
<!-- Node1&#45;&gt;Node3 -->
<g id="edge2_Node000001_Node000003" class="edge">
<title>Node1&#45;&gt;Node3</title>
<g id="a_edge2_Node000001_Node000003"><a xlink:title=" ">
<path fill="none" stroke="#63b8ff" d="M201.25,-66.22C201.25,-58.31 201.25,-49.73 201.25,-42.24"/>
<polygon fill="#63b8ff" stroke="#63b8ff" points="197.75,-65.96 201.25,-75.96 204.75,-65.96 197.75,-65.96"/>
</a>
</g>
</g>
<!-- Node4 -->
<g id="Node000004" class="node">
<title>Node4</title>
<g id="a_Node000004"><a xlink:href="main_8cpp.xhtml" target="_top" xlink:title=" ">
<polygon fill="white" stroke="#666666" points="340,-30.5 268.5,-30.5 268.5,-11.25 340,-11.25 340,-30.5"/>
<text text-anchor="middle" x="304.25" y="-17" font-family="Helvetica,sans-Serif" font-size="10.00">src/main.cpp</text>
</a>
</g>
</g>
<!-- Node1&#45;&gt;Node4 -->
<g id="edge3_Node000001_Node000004" class="edge">
<title>Node1&#45;&gt;Node4</title>
<g id="a_edge3_Node000001_Node000004"><a xlink:title=" ">
<path fill="none" stroke="#63b8ff" d="M232.09,-71C251.78,-57.6 276.3,-40.9 291.09,-30.83"/>
<polygon fill="#63b8ff" stroke="#63b8ff" points="230.14,-68.1 223.84,-76.62 234.08,-73.88 230.14,-68.1"/>
</a>
</g>
</g>
</g>
</svg>
