<?xml version="1.0" encoding="UTF-8" standalone="no"?>
<!DOCTYPE svg PUBLIC "-//W3C//DTD SVG 1.1//EN"
 "http://www.w3.org/Graphics/SVG/1.1/DTD/svg11.dtd">
<!-- Generated by graphviz version 9.0.0 (20230911.1827)
 -->
<!-- Title: lib/layer1_use_cases/include/logging.hpp Pages: 1 -->
<svg width="118pt" height="94pt"
 viewBox="0.00 0.00 118.00 93.75" xmlns="http://www.w3.org/2000/svg" xmlns:xlink="http://www.w3.org/1999/xlink">
<g id="graph0" class="graph" transform="scale(1 1) rotate(0) translate(4 89.75)">
<title>lib/layer1_use_cases/include/logging.hpp</title>
<!-- Node1 -->
<g id="Node000001" class="node">
<title>Node1</title>
<g id="a_Node000001"><a xlink:title=" ">
<polygon fill="#999999" stroke="#666666" points="106.75,-85.75 0,-85.75 0,-55.25 106.75,-55.25 106.75,-85.75"/>
<text text-anchor="start" x="8" y="-72.25" font-family="Helvetica,sans-Serif" font-size="10.00">lib/layer1_use_cases</text>
<text text-anchor="middle" x="53.38" y="-61" font-family="Helvetica,sans-Serif" font-size="10.00">/include/logging.hpp</text>
</a>
</g>
</g>
<!-- Node2 -->
<g id="Node000002" class="node">
<title>Node2</title>
<g id="a_Node000002"><a xlink:title=" ">
<polygon fill="#e0e0e0" stroke="#999999" points="40.88,-19.25 3.88,-19.25 3.88,0 40.88,0 40.88,-19.25"/>
<text text-anchor="middle" x="22.38" y="-5.75" font-family="Helvetica,sans-Serif" font-size="10.00">array</text>
</a>
</g>
</g>
<!-- Node1&#45;&gt;Node2 -->
<g id="edge1_Node000001_Node000002" class="edge">
<title>Node1&#45;&gt;Node2</title>
<g id="a_edge1_Node000001_Node000002"><a xlink:title=" ">
<path fill="none" stroke="#63b8ff" d="M45.71,-54.95C41.72,-47.36 36.78,-37.99 32.48,-29.82"/>
<polygon fill="#63b8ff" stroke="#63b8ff" points="35.62,-28.26 27.86,-21.04 29.42,-31.52 35.62,-28.26"/>
</a>
</g>
</g>
<!-- Node3 -->
<g id="Node000003" class="node">
<title>Node3</title>
<g id="a_Node000003"><a xlink:title=" ">
<polygon fill="#e0e0e0" stroke="#999999" points="110,-19.25 58.75,-19.25 58.75,0 110,0 110,-19.25"/>
<text text-anchor="middle" x="84.38" y="-5.75" font-family="Helvetica,sans-Serif" font-size="10.00">ostream</text>
</a>
</g>
</g>
<!-- Node1&#45;&gt;Node3 -->
<g id="edge2_Node000001_Node000003" class="edge">
<title>Node1&#45;&gt;Node3</title>
<g id="a_edge2_Node000001_Node000003"><a xlink:title=" ">
<path fill="none" stroke="#63b8ff" d="M61.04,-54.95C65.03,-47.36 69.97,-37.99 74.27,-29.82"/>
<polygon fill="#63b8ff" stroke="#63b8ff" points="77.33,-31.52 78.89,-21.04 71.13,-28.26 77.33,-31.52"/>
</a>
</g>
</g>
</g>
</svg>
