<?xml version="1.0" encoding="UTF-8" standalone="no"?>
<!DOCTYPE svg PUBLIC "-//W3C//DTD SVG 1.1//EN"
 "http://www.w3.org/Graphics/SVG/1.1/DTD/svg11.dtd">
<!-- Generated by graphviz version 7.0.5 (20221223.1930)
 -->
<!-- Title: src/main.cpp Pages: 1 -->
<svg width="667pt" height="137pt"
 viewBox="0.00 0.00 667.00 137.00" xmlns="http://www.w3.org/2000/svg" xmlns:xlink="http://www.w3.org/1999/xlink">
<g id="graph0" class="graph" transform="scale(1 1) rotate(0) translate(4 133)">
<title>src/main.cpp</title>
<!-- Node1 -->
<g id="node1" class="node">
<title>Node1</title>
<g id="a_node1"><a xlink:title=" ">
<polygon fill="#999999" stroke="#666666" points="440,-129 368,-129 368,-110 440,-110 440,-129"/>
<text text-anchor="middle" x="404" y="-117" font-family="Helvetica,sans-Serif" font-size="10.00">src/main.cpp</text>
</a>
</g>
</g>
<!-- Node2 -->
<g id="node2" class="node">
<title>Node2</title>
<g id="a_node2"><a xlink:href="HmiCoordinator_8hpp.xhtml" target="_top" xlink:title=" ">
<polygon fill="white" stroke="#666666" points="102,-74 0,-74 0,-55 102,-55 102,-74"/>
<text text-anchor="middle" x="51" y="-62" font-family="Helvetica,sans-Serif" font-size="10.00">HmiCoordinator.hpp</text>
</a>
</g>
</g>
<!-- Node1&#45;&gt;Node2 -->
<g id="edge1" class="edge">
<title>Node1&#45;&gt;Node2</title>
<path fill="none" stroke="#63b8ff" d="M367.55,-113.03C307.48,-104.01 187.02,-85.92 113.25,-74.85"/>
<polygon fill="#63b8ff" stroke="#63b8ff" points="114.17,-71.45 103.77,-73.42 113.14,-78.37 114.17,-71.45"/>
</g>
<!-- Node3 -->
<g id="node3" class="node">
<title>Node3</title>
<g id="a_node3"><a xlink:href="Protocol_8hpp.xhtml" target="_top" xlink:title=" ">
<polygon fill="white" stroke="#666666" points="191.5,-74 120.5,-74 120.5,-55 191.5,-55 191.5,-74"/>
<text text-anchor="middle" x="156" y="-62" font-family="Helvetica,sans-Serif" font-size="10.00">Protocol.hpp</text>
</a>
</g>
</g>
<!-- Node1&#45;&gt;Node3 -->
<g id="edge2" class="edge">
<title>Node1&#45;&gt;Node3</title>
<path fill="none" stroke="#63b8ff" d="M367.67,-110.74C323.95,-101.39 250.47,-85.69 202.61,-75.46"/>
<polygon fill="#63b8ff" stroke="#63b8ff" points="203.61,-72.1 193.1,-73.43 202.15,-78.94 203.61,-72.1"/>
</g>
<!-- Node4 -->
<g id="node4" class="node">
<title>Node4</title>
<g id="a_node4"><a xlink:title=" ">
<polygon fill="#e0e0e0" stroke="#999999" points="604,-19 558,-19 558,0 604,0 604,-19"/>
<text text-anchor="middle" x="581" y="-7" font-family="Helvetica,sans-Serif" font-size="10.00">chrono</text>
</a>
</g>
</g>
<!-- Node1&#45;&gt;Node4 -->
<g id="edge3" class="edge">
<title>Node1&#45;&gt;Node4</title>
<path fill="none" stroke="#63b8ff" d="M440.17,-119.03C477.6,-117.51 535.09,-109.06 568,-74 578.85,-62.44 581.7,-44.38 582.06,-30.46"/>
<polygon fill="#63b8ff" stroke="#63b8ff" points="585.56,-30.61 581.88,-20.67 578.57,-30.74 585.56,-30.61"/>
</g>
<!-- Node5 -->
<g id="node5" class="node">
<title>Node5</title>
<g id="a_node5"><a xlink:href="display__interface_8hpp.xhtml" target="_top" xlink:title=" ">
<polygon fill="white" stroke="#666666" points="457.5,-74 350.5,-74 350.5,-55 457.5,-55 457.5,-74"/>
<text text-anchor="middle" x="404" y="-62" font-family="Helvetica,sans-Serif" font-size="10.00">display_interface.hpp</text>
</a>
</g>
</g>
<!-- Node1&#45;&gt;Node5 -->
<g id="edge4" class="edge">
<title>Node1&#45;&gt;Node5</title>
<path fill="none" stroke="#63b8ff" d="M404,-109.75C404,-103.27 404,-94.16 404,-85.9"/>
<polygon fill="#63b8ff" stroke="#63b8ff" points="407.5,-85.96 404,-75.96 400.5,-85.96 407.5,-85.96"/>
</g>
<!-- Node6 -->
<g id="node6" class="node">
<title>Node6</title>
<g id="a_node6"><a xlink:href="serial__port__interface_8hpp.xhtml" target="_top" xlink:title=" ">
<polygon fill="white" stroke="#666666" points="332,-74 210,-74 210,-55 332,-55 332,-74"/>
<text text-anchor="middle" x="271" y="-62" font-family="Helvetica,sans-Serif" font-size="10.00">serial_port_interface.hpp</text>
</a>
</g>
</g>
<!-- Node1&#45;&gt;Node6 -->
<g id="edge5" class="edge">
<title>Node1&#45;&gt;Node6</title>
<path fill="none" stroke="#63b8ff" d="M381.44,-109.51C360.1,-101.01 327.84,-88.15 303.69,-78.53"/>
<polygon fill="#63b8ff" stroke="#63b8ff" points="305.22,-75.37 294.63,-74.92 302.63,-81.87 305.22,-75.37"/>
</g>
<!-- Node12 -->
<g id="node12" class="node">
<title>Node12</title>
<g id="a_node12"><a xlink:href="Task_8hpp.xhtml" target="_top" xlink:title=" ">
<polygon fill="white" stroke="#666666" points="558.5,-74 475.5,-74 475.5,-55 558.5,-55 558.5,-74"/>
<text text-anchor="middle" x="517" y="-62" font-family="Helvetica,sans-Serif" font-size="10.00">tasks/Task.hpp</text>
</a>
</g>
</g>
<!-- Node1&#45;&gt;Node12 -->
<g id="edge11" class="edge">
<title>Node1&#45;&gt;Node12</title>
<path fill="none" stroke="#63b8ff" d="M423.17,-109.51C440.89,-101.2 467.48,-88.73 487.83,-79.18"/>
<polygon fill="#63b8ff" stroke="#63b8ff" points="489.18,-82.42 496.74,-75 486.2,-76.08 489.18,-82.42"/>
</g>
<!-- Node14 -->
<g id="node14" class="node">
<title>Node14</title>
<g id="a_node14"><a xlink:title=" ">
<polygon fill="#e0e0e0" stroke="#999999" points="659,-74 615,-74 615,-55 659,-55 659,-74"/>
<text text-anchor="middle" x="637" y="-62" font-family="Helvetica,sans-Serif" font-size="10.00">thread</text>
</a>
</g>
</g>
<!-- Node1&#45;&gt;Node14 -->
<g id="edge15" class="edge">
<title>Node1&#45;&gt;Node14</title>
<path fill="none" stroke="#63b8ff" d="M440.33,-110.4C479.88,-101.56 544.97,-86.94 601,-74 601.82,-73.81 602.65,-73.62 603.49,-73.42"/>
<polygon fill="#63b8ff" stroke="#63b8ff" points="604.13,-76.87 613.07,-71.18 602.53,-70.05 604.13,-76.87"/>
</g>
<!-- Node7 -->
<g id="node7" class="node">
<title>Node7</title>
<g id="a_node7"><a xlink:title=" ">
<polygon fill="#e0e0e0" stroke="#999999" points="236,-19 198,-19 198,0 236,0 236,-19"/>
<text text-anchor="middle" x="217" y="-7" font-family="Helvetica,sans-Serif" font-size="10.00">array</text>
</a>
</g>
</g>
<!-- Node6&#45;&gt;Node7 -->
<g id="edge6" class="edge">
<title>Node6&#45;&gt;Node7</title>
<path fill="none" stroke="#63b8ff" d="M262.08,-54.75C254.55,-47.35 243.53,-36.54 234.27,-27.45"/>
<polygon fill="#63b8ff" stroke="#63b8ff" points="236.78,-25.01 227.19,-20.5 231.88,-30 236.78,-25.01"/>
</g>
<!-- Node8 -->
<g id="node8" class="node">
<title>Node8</title>
<g id="a_node8"><a xlink:title=" ">
<polygon fill="#e0e0e0" stroke="#999999" points="313.5,-19 254.5,-19 254.5,0 313.5,0 313.5,-19"/>
<text text-anchor="middle" x="284" y="-7" font-family="Helvetica,sans-Serif" font-size="10.00">functional</text>
</a>
</g>
</g>
<!-- Node6&#45;&gt;Node8 -->
<g id="edge7" class="edge">
<title>Node6&#45;&gt;Node8</title>
<path fill="none" stroke="#63b8ff" d="M273.15,-54.75C274.76,-48.19 277.02,-38.95 279.07,-30.6"/>
<polygon fill="#63b8ff" stroke="#63b8ff" points="282.46,-31.46 281.45,-20.91 275.66,-29.79 282.46,-31.46"/>
</g>
<!-- Node9 -->
<g id="node9" class="node">
<title>Node9</title>
<g id="a_node9"><a xlink:title=" ">
<polygon fill="#e0e0e0" stroke="#999999" points="382,-19 332,-19 332,0 382,0 382,-19"/>
<text text-anchor="middle" x="357" y="-7" font-family="Helvetica,sans-Serif" font-size="10.00">optional</text>
</a>
</g>
</g>
<!-- Node6&#45;&gt;Node9 -->
<g id="edge8" class="edge">
<title>Node6&#45;&gt;Node9</title>
<path fill="none" stroke="#63b8ff" d="M285.59,-54.51C298.52,-46.54 317.64,-34.75 332.85,-25.38"/>
<polygon fill="#63b8ff" stroke="#63b8ff" points="334.66,-28.38 341.34,-20.15 330.99,-22.42 334.66,-28.38"/>
</g>
<!-- Node10 -->
<g id="node10" class="node">
<title>Node10</title>
<g id="a_node10"><a xlink:title=" ">
<polygon fill="#e0e0e0" stroke="#999999" points="180,-19 128,-19 128,0 180,0 180,-19"/>
<text text-anchor="middle" x="154" y="-7" font-family="Helvetica,sans-Serif" font-size="10.00">ostream</text>
</a>
</g>
</g>
<!-- Node6&#45;&gt;Node10 -->
<g id="edge9" class="edge">
<title>Node6&#45;&gt;Node10</title>
<path fill="none" stroke="#63b8ff" d="M251.15,-54.51C232.72,-46.16 205.02,-33.61 183.91,-24.05"/>
<polygon fill="#63b8ff" stroke="#63b8ff" points="185.49,-20.92 174.93,-19.98 182.6,-27.3 185.49,-20.92"/>
</g>
<!-- Node11 -->
<g id="node11" class="node">
<title>Node11</title>
<g id="a_node11"><a xlink:title=" ">
<polygon fill="#e0e0e0" stroke="#999999" points="455.5,-19 414.5,-19 414.5,0 455.5,0 455.5,-19"/>
<text text-anchor="middle" x="435" y="-7" font-family="Helvetica,sans-Serif" font-size="10.00">string</text>
</a>
</g>
</g>
<!-- Node6&#45;&gt;Node11 -->
<g id="edge10" class="edge">
<title>Node6&#45;&gt;Node11</title>
<path fill="none" stroke="#63b8ff" d="M298.82,-54.51C327.83,-45.13 373.22,-30.47 403.52,-20.67"/>
<polygon fill="#63b8ff" stroke="#63b8ff" points="404.45,-24.05 412.89,-17.65 402.3,-17.39 404.45,-24.05"/>
</g>
<!-- Node12&#45;&gt;Node4 -->
<g id="edge12" class="edge">
<title>Node12&#45;&gt;Node4</title>
<path fill="none" stroke="#63b8ff" d="M527.86,-54.51C537.11,-46.85 550.62,-35.66 561.71,-26.47"/>
<polygon fill="#63b8ff" stroke="#63b8ff" points="563.67,-29.4 569.14,-20.32 559.2,-24.01 563.67,-29.4"/>
</g>
<!-- Node12&#45;&gt;Node11 -->
<g id="edge14" class="edge">
<title>Node12&#45;&gt;Node11</title>
<path fill="none" stroke="#63b8ff" d="M503.09,-54.51C490.76,-46.54 472.53,-34.75 458.03,-25.38"/>
<polygon fill="#63b8ff" stroke="#63b8ff" points="460.27,-22.67 449.98,-20.18 456.47,-28.55 460.27,-22.67"/>
</g>
<!-- Node13 -->
<g id="node13" class="node">
<title>Node13</title>
<g id="a_node13"><a xlink:title=" ">
<polygon fill="#e0e0e0" stroke="#999999" points="534.5,-19 499.5,-19 499.5,0 534.5,0 534.5,-19"/>
<text text-anchor="middle" x="517" y="-7" font-family="Helvetica,sans-Serif" font-size="10.00">map</text>
</a>
</g>
</g>
<!-- Node12&#45;&gt;Node13 -->
<g id="edge13" class="edge">
<title>Node12&#45;&gt;Node13</title>
<path fill="none" stroke="#63b8ff" d="M517,-54.75C517,-48.27 517,-39.16 517,-30.9"/>
<polygon fill="#63b8ff" stroke="#63b8ff" points="520.5,-30.96 517,-20.96 513.5,-30.96 520.5,-30.96"/>
</g>
</g>
</svg>
