<?xml version="1.0" encoding="UTF-8" standalone="no"?>
<!DOCTYPE svg PUBLIC "-//W3C//DTD SVG 1.1//EN"
 "http://www.w3.org/Graphics/SVG/1.1/DTD/svg11.dtd">
<!-- Generated by graphviz version 7.0.5 (20221223.1930)
 -->
<!-- Title: src/main.cpp Pages: 1 -->
<svg width="1258pt" height="258pt"
 viewBox="0.00 0.00 1257.87 258.00" xmlns="http://www.w3.org/2000/svg" xmlns:xlink="http://www.w3.org/1999/xlink">
<g id="graph0" class="graph" transform="scale(1 1) rotate(0) translate(4 254)">
<title>src/main.cpp</title>
<!-- Node1 -->
<g id="node1" class="node">
<title>Node1</title>
<g id="a_node1"><a xlink:title=" ">
<polygon fill="#999999" stroke="#666666" points="560.37,-250 488.37,-250 488.37,-231 560.37,-231 560.37,-250"/>
<text text-anchor="middle" x="524.37" y="-238" font-family="Helvetica,sans-Serif" font-size="10.00">src/main.cpp</text>
</a>
</g>
</g>
<!-- Node2 -->
<g id="node2" class="node">
<title>Node2</title>
<g id="a_node2"><a xlink:title=" ">
<polygon fill="#e0e0e0" stroke="#999999" points="62.37,-129 16.37,-129 16.37,-110 62.37,-110 62.37,-129"/>
<text text-anchor="middle" x="39.37" y="-117" font-family="Helvetica,sans-Serif" font-size="10.00">chrono</text>
</a>
</g>
</g>
<!-- Node1&#45;&gt;Node2 -->
<g id="edge1" class="edge">
<title>Node1&#45;&gt;Node2</title>
<path fill="none" stroke="#63b8ff" d="M488.19,-239.15C375.89,-237.7 38.87,-230.41 6.37,-195 -8.8,-178.47 7.5,-153.82 22.1,-137.46"/>
<polygon fill="#63b8ff" stroke="#63b8ff" points="24.43,-140.09 28.78,-130.43 19.35,-135.27 24.43,-140.09"/>
</g>
<!-- Node3 -->
<g id="node3" class="node">
<title>Node3</title>
<g id="a_node3"><a xlink:href="Protocol_8hpp.xhtml" target="_top" xlink:title=" ">
<polygon fill="white" stroke="#666666" points="155.37,-189.5 15.37,-189.5 15.37,-170.5 155.37,-170.5 155.37,-189.5"/>
<text text-anchor="middle" x="85.37" y="-177.5" font-family="Helvetica,sans-Serif" font-size="10.00">serial_interface/Protocol.hpp</text>
</a>
</g>
</g>
<!-- Node1&#45;&gt;Node3 -->
<g id="edge2" class="edge">
<title>Node1&#45;&gt;Node3</title>
<path fill="none" stroke="#63b8ff" d="M488.01,-235.64C422.95,-228.6 282.39,-212.74 164.37,-195 158.02,-194.05 151.39,-192.98 144.79,-191.87"/>
<polygon fill="#63b8ff" stroke="#63b8ff" points="145.71,-188.48 135.26,-190.25 144.53,-195.38 145.71,-188.48"/>
</g>
<!-- Node4 -->
<g id="node4" class="node">
<title>Node4</title>
<g id="a_node4"><a xlink:href="serial__port__interface_8hpp.xhtml" target="_top" xlink:title=" ">
<polygon fill="white" stroke="#666666" points="383.87,-195 274.87,-195 274.87,-165 383.87,-165 383.87,-195"/>
<text text-anchor="start" x="282.87" y="-183" font-family="Helvetica,sans-Serif" font-size="10.00">serial_interface/serial</text>
<text text-anchor="middle" x="329.37" y="-172" font-family="Helvetica,sans-Serif" font-size="10.00">_port_interface.hpp</text>
</a>
</g>
</g>
<!-- Node1&#45;&gt;Node4 -->
<g id="edge3" class="edge">
<title>Node1&#45;&gt;Node4</title>
<path fill="none" stroke="#63b8ff" d="M494.76,-230.62C466.56,-222.16 423.33,-209.19 388.14,-198.63"/>
<polygon fill="#63b8ff" stroke="#63b8ff" points="389.54,-195.4 378.96,-195.87 387.53,-202.1 389.54,-195.4"/>
</g>
<!-- Node10 -->
<g id="node10" class="node">
<title>Node10</title>
<g id="a_node10"><a xlink:href="Task_8hpp.xhtml" target="_top" xlink:title=" ">
<polygon fill="white" stroke="#666666" points="256.87,-189.5 173.87,-189.5 173.87,-170.5 256.87,-170.5 256.87,-189.5"/>
<text text-anchor="middle" x="215.37" y="-177.5" font-family="Helvetica,sans-Serif" font-size="10.00">tasks/Task.hpp</text>
</a>
</g>
</g>
<!-- Node1&#45;&gt;Node10 -->
<g id="edge9" class="edge">
<title>Node1&#45;&gt;Node10</title>
<path fill="none" stroke="#63b8ff" d="M488.11,-234.47C437.81,-227.23 344.15,-212.75 265.37,-195 262.43,-194.34 259.39,-193.61 256.34,-192.84"/>
<polygon fill="#63b8ff" stroke="#63b8ff" points="257.41,-189.5 246.85,-190.33 255.63,-196.27 257.41,-189.5"/>
</g>
<!-- Node12 -->
<g id="node12" class="node">
<title>Node12</title>
<g id="a_node12"><a xlink:title=" ">
<polygon fill="#e0e0e0" stroke="#999999" points="446.37,-189.5 402.37,-189.5 402.37,-170.5 446.37,-170.5 446.37,-189.5"/>
<text text-anchor="middle" x="424.37" y="-177.5" font-family="Helvetica,sans-Serif" font-size="10.00">thread</text>
</a>
</g>
</g>
<!-- Node1&#45;&gt;Node12 -->
<g id="edge13" class="edge">
<title>Node1&#45;&gt;Node12</title>
<path fill="none" stroke="#63b8ff" d="M509.19,-230.62C493.33,-221.34 468.19,-206.63 449.4,-195.64"/>
<polygon fill="#63b8ff" stroke="#63b8ff" points="451.41,-192.76 441.01,-190.73 447.88,-198.8 451.41,-192.76"/>
</g>
<!-- Node13 -->
<g id="node13" class="node">
<title>Node13</title>
<g id="a_node13"><a xlink:href="Menu_8hpp.xhtml" target="_top" xlink:title=" ">
<polygon fill="white" stroke="#666666" points="1162.87,-129 1031.87,-129 1031.87,-110 1162.87,-110 1162.87,-129"/>
<text text-anchor="middle" x="1097.37" y="-117" font-family="Helvetica,sans-Serif" font-size="10.00">user_interaction/Menu.hpp</text>
</a>
</g>
</g>
<!-- Node1&#45;&gt;Node13 -->
<g id="edge14" class="edge">
<title>Node1&#45;&gt;Node13</title>
<path fill="none" stroke="#63b8ff" d="M560.78,-239.04C678.14,-237.24 1041.15,-228.93 1080.37,-195 1095.72,-181.73 1098.8,-157.72 1098.79,-140.54"/>
<polygon fill="#63b8ff" stroke="#63b8ff" points="1102.29,-140.63 1098.41,-130.78 1095.3,-140.9 1102.29,-140.63"/>
</g>
<!-- Node15 -->
<g id="node15" class="node">
<title>Node15</title>
<g id="a_node15"><a xlink:href="Presenter_8hpp.xhtml" target="_top" xlink:title=" ">
<polygon fill="white" stroke="#666666" points="1070.87,-189.5 921.87,-189.5 921.87,-170.5 1070.87,-170.5 1070.87,-189.5"/>
<text text-anchor="middle" x="996.37" y="-177.5" font-family="Helvetica,sans-Serif" font-size="10.00">user_interaction/Presenter.hpp</text>
</a>
</g>
</g>
<!-- Node1&#45;&gt;Node15 -->
<g id="edge16" class="edge">
<title>Node1&#45;&gt;Node15</title>
<path fill="none" stroke="#63b8ff" d="M560.83,-235.95C629.67,-229.09 783.46,-213.12 912.37,-195 919.39,-194.01 926.72,-192.91 934,-191.76"/>
<polygon fill="#63b8ff" stroke="#63b8ff" points="934.54,-195.22 943.86,-190.17 933.43,-188.3 934.54,-195.22"/>
</g>
<!-- Node19 -->
<g id="node19" class="node">
<title>Node19</title>
<g id="a_node19"><a xlink:href="ProcessHmiInputs_8hpp.xhtml" target="_top" xlink:title=" ">
<polygon fill="white" stroke="#666666" points="726.87,-195 601.87,-195 601.87,-165 726.87,-165 726.87,-195"/>
<text text-anchor="start" x="609.87" y="-183" font-family="Helvetica,sans-Serif" font-size="10.00">user_interaction/Process</text>
<text text-anchor="middle" x="664.37" y="-172" font-family="Helvetica,sans-Serif" font-size="10.00">HmiInputs.hpp</text>
</a>
</g>
</g>
<!-- Node1&#45;&gt;Node19 -->
<g id="edge22" class="edge">
<title>Node1&#45;&gt;Node19</title>
<path fill="none" stroke="#63b8ff" d="M545.64,-230.62C565.09,-222.48 594.52,-210.19 619.22,-199.87"/>
<polygon fill="#63b8ff" stroke="#63b8ff" points="620.54,-203.11 628.42,-196.02 617.85,-196.65 620.54,-203.11"/>
</g>
<!-- Node21 -->
<g id="node21" class="node">
<title>Node21</title>
<g id="a_node21"><a xlink:href="display__factory__interface_8hpp.xhtml" target="_top" xlink:title=" ">
<polygon fill="white" stroke="#666666" points="1249.87,-195 1130.87,-195 1130.87,-165 1249.87,-165 1249.87,-195"/>
<text text-anchor="start" x="1138.87" y="-183" font-family="Helvetica,sans-Serif" font-size="10.00">user_interaction/display</text>
<text text-anchor="middle" x="1190.37" y="-172" font-family="Helvetica,sans-Serif" font-size="10.00">_factory_interface.hpp</text>
</a>
</g>
</g>
<!-- Node1&#45;&gt;Node21 -->
<g id="edge25" class="edge">
<title>Node1&#45;&gt;Node21</title>
<path fill="none" stroke="#63b8ff" d="M560.7,-238.08C653.21,-234.17 905.11,-221.73 1113.37,-195 1115.41,-194.74 1117.47,-194.46 1119.55,-194.17"/>
<polygon fill="#63b8ff" stroke="#63b8ff" points="1119.92,-197.65 1129.28,-192.7 1118.87,-190.73 1119.92,-197.65"/>
</g>
<!-- Node22 -->
<g id="node22" class="node">
<title>Node22</title>
<g id="a_node22"><a xlink:href="keypad__factory__interface_8hpp.xhtml" target="_top" xlink:title=" ">
<polygon fill="white" stroke="#666666" points="583.87,-195 464.87,-195 464.87,-165 583.87,-165 583.87,-195"/>
<text text-anchor="start" x="472.87" y="-183" font-family="Helvetica,sans-Serif" font-size="10.00">user_interaction/keypad</text>
<text text-anchor="middle" x="524.37" y="-172" font-family="Helvetica,sans-Serif" font-size="10.00">_factory_interface.hpp</text>
</a>
</g>
</g>
<!-- Node1&#45;&gt;Node22 -->
<g id="edge27" class="edge">
<title>Node1&#45;&gt;Node22</title>
<path fill="none" stroke="#63b8ff" d="M524.37,-230.87C524.37,-224.4 524.37,-215.2 524.37,-206.45"/>
<polygon fill="#63b8ff" stroke="#63b8ff" points="527.87,-206.63 524.37,-196.63 520.87,-206.63 527.87,-206.63"/>
</g>
<!-- Node24 -->
<g id="node24" class="node">
<title>Node24</title>
<g id="a_node24"><a xlink:href="statusindicators__factory__interface_8hpp.xhtml" target="_top" xlink:title=" ">
<polygon fill="white" stroke="#666666" points="903.37,-195 745.37,-195 745.37,-165 903.37,-165 903.37,-195"/>
<text text-anchor="start" x="753.37" y="-183" font-family="Helvetica,sans-Serif" font-size="10.00">user_interaction/statusindicators</text>
<text text-anchor="middle" x="824.37" y="-172" font-family="Helvetica,sans-Serif" font-size="10.00">_factory_interface.hpp</text>
</a>
</g>
</g>
<!-- Node1&#45;&gt;Node24 -->
<g id="edge31" class="edge">
<title>Node1&#45;&gt;Node24</title>
<path fill="none" stroke="#63b8ff" d="M560.86,-232.39C604.8,-223.82 680.02,-209.15 738.88,-197.67"/>
<polygon fill="#63b8ff" stroke="#63b8ff" points="739.41,-201.13 748.56,-195.78 738.07,-194.26 739.41,-201.13"/>
</g>
<!-- Node5 -->
<g id="node5" class="node">
<title>Node5</title>
<g id="a_node5"><a xlink:title=" ">
<polygon fill="#e0e0e0" stroke="#999999" points="373.37,-129 335.37,-129 335.37,-110 373.37,-110 373.37,-129"/>
<text text-anchor="middle" x="354.37" y="-117" font-family="Helvetica,sans-Serif" font-size="10.00">array</text>
</a>
</g>
</g>
<!-- Node4&#45;&gt;Node5 -->
<g id="edge4" class="edge">
<title>Node4&#45;&gt;Node5</title>
<path fill="none" stroke="#63b8ff" d="M335.55,-164.54C338.78,-157 342.76,-147.67 346.23,-139.55"/>
<polygon fill="#63b8ff" stroke="#63b8ff" points="349.36,-141.14 350.07,-130.57 342.92,-138.39 349.36,-141.14"/>
</g>
<!-- Node6 -->
<g id="node6" class="node">
<title>Node6</title>
<g id="a_node6"><a xlink:title=" ">
<polygon fill="#e0e0e0" stroke="#999999" points="488.87,-74 429.87,-74 429.87,-55 488.87,-55 488.87,-74"/>
<text text-anchor="middle" x="459.37" y="-62" font-family="Helvetica,sans-Serif" font-size="10.00">functional</text>
</a>
</g>
</g>
<!-- Node4&#45;&gt;Node6 -->
<g id="edge5" class="edge">
<title>Node4&#45;&gt;Node6</title>
<path fill="none" stroke="#63b8ff" d="M361.43,-164.63C378.64,-155.91 399.52,-143.65 415.37,-129 429.52,-115.93 441.64,-97.54 449.56,-83.91"/>
<polygon fill="#63b8ff" stroke="#63b8ff" points="452.43,-85.96 454.23,-75.52 446.31,-82.56 452.43,-85.96"/>
</g>
<!-- Node7 -->
<g id="node7" class="node">
<title>Node7</title>
<g id="a_node7"><a xlink:title=" ">
<polygon fill="#e0e0e0" stroke="#999999" points="317.37,-129 267.37,-129 267.37,-110 317.37,-110 317.37,-129"/>
<text text-anchor="middle" x="292.37" y="-117" font-family="Helvetica,sans-Serif" font-size="10.00">optional</text>
</a>
</g>
</g>
<!-- Node4&#45;&gt;Node7 -->
<g id="edge6" class="edge">
<title>Node4&#45;&gt;Node7</title>
<path fill="none" stroke="#63b8ff" d="M320.23,-164.54C315.29,-156.74 309.15,-147.03 303.89,-138.71"/>
<polygon fill="#63b8ff" stroke="#63b8ff" points="306.97,-137.03 298.67,-130.45 301.06,-140.78 306.97,-137.03"/>
</g>
<!-- Node8 -->
<g id="node8" class="node">
<title>Node8</title>
<g id="a_node8"><a xlink:title=" ">
<polygon fill="#e0e0e0" stroke="#999999" points="496.37,-19 444.37,-19 444.37,0 496.37,0 496.37,-19"/>
<text text-anchor="middle" x="470.37" y="-7" font-family="Helvetica,sans-Serif" font-size="10.00">ostream</text>
</a>
</g>
</g>
<!-- Node4&#45;&gt;Node8 -->
<g id="edge7" class="edge">
<title>Node4&#45;&gt;Node8</title>
<path fill="none" stroke="#63b8ff" d="M347.57,-164.57C358.57,-155.22 372.34,-142.35 382.37,-129 404.59,-99.44 397.74,-84.23 420.37,-55 428.59,-44.39 439.57,-34.29 449.15,-26.41"/>
<polygon fill="#63b8ff" stroke="#63b8ff" points="451.25,-29.21 456.92,-20.26 446.9,-23.72 451.25,-29.21"/>
</g>
<!-- Node9 -->
<g id="node9" class="node">
<title>Node9</title>
<g id="a_node9"><a xlink:title=" ">
<polygon fill="#e0e0e0" stroke="#999999" points="248.87,-129 207.87,-129 207.87,-110 248.87,-110 248.87,-129"/>
<text text-anchor="middle" x="228.37" y="-117" font-family="Helvetica,sans-Serif" font-size="10.00">string</text>
</a>
</g>
</g>
<!-- Node4&#45;&gt;Node9 -->
<g id="edge8" class="edge">
<title>Node4&#45;&gt;Node9</title>
<path fill="none" stroke="#63b8ff" d="M304.41,-164.54C288.93,-155.58 269.12,-144.1 253.6,-135.11"/>
<polygon fill="#63b8ff" stroke="#63b8ff" points="255.36,-132.09 244.96,-130.1 251.86,-138.15 255.36,-132.09"/>
</g>
<!-- Node10&#45;&gt;Node2 -->
<g id="edge10" class="edge">
<title>Node10&#45;&gt;Node2</title>
<path fill="none" stroke="#63b8ff" d="M188.64,-170.12C157.8,-159.86 107.02,-142.98 73.39,-131.81"/>
<polygon fill="#63b8ff" stroke="#63b8ff" points="74.72,-128.56 64.13,-128.73 72.51,-135.2 74.72,-128.56"/>
</g>
<!-- Node10&#45;&gt;Node9 -->
<g id="edge12" class="edge">
<title>Node10&#45;&gt;Node9</title>
<path fill="none" stroke="#63b8ff" d="M217.29,-170.37C219.04,-162.5 221.69,-150.6 223.95,-140.39"/>
<polygon fill="#63b8ff" stroke="#63b8ff" points="227.37,-141.17 226.12,-130.64 220.53,-139.65 227.37,-141.17"/>
</g>
<!-- Node11 -->
<g id="node11" class="node">
<title>Node11</title>
<g id="a_node11"><a xlink:title=" ">
<polygon fill="#e0e0e0" stroke="#999999" points="189.87,-129 154.87,-129 154.87,-110 189.87,-110 189.87,-129"/>
<text text-anchor="middle" x="172.37" y="-117" font-family="Helvetica,sans-Serif" font-size="10.00">map</text>
</a>
</g>
</g>
<!-- Node10&#45;&gt;Node11 -->
<g id="edge11" class="edge">
<title>Node10&#45;&gt;Node11</title>
<path fill="none" stroke="#63b8ff" d="M209.03,-170.37C202.87,-161.99 193.33,-149.01 185.53,-138.39"/>
<polygon fill="#63b8ff" stroke="#63b8ff" points="188.38,-136.37 179.64,-130.39 182.74,-140.52 188.38,-136.37"/>
</g>
<!-- Node14 -->
<g id="node14" class="node">
<title>Node14</title>
<g id="a_node14"><a xlink:href="IDisplay_8hpp.xhtml" target="_top" xlink:title=" ">
<polygon fill="white" stroke="#666666" points="1178.87,-74 1109.87,-74 1109.87,-55 1178.87,-55 1178.87,-74"/>
<text text-anchor="middle" x="1144.37" y="-62" font-family="Helvetica,sans-Serif" font-size="10.00">IDisplay.hpp</text>
</a>
</g>
</g>
<!-- Node13&#45;&gt;Node14 -->
<g id="edge15" class="edge">
<title>Node13&#45;&gt;Node14</title>
<path fill="none" stroke="#63b8ff" d="M1105.14,-109.75C1111.56,-102.5 1120.89,-91.98 1128.84,-83.02"/>
<polygon fill="#63b8ff" stroke="#63b8ff" points="1131.42,-85.38 1135.44,-75.57 1126.19,-80.73 1131.42,-85.38"/>
</g>
<!-- Node15&#45;&gt;Node13 -->
<g id="edge18" class="edge">
<title>Node15&#45;&gt;Node13</title>
<path fill="none" stroke="#63b8ff" d="M1011.71,-170.12C1027.73,-160.84 1053.12,-146.13 1072.1,-135.14"/>
<polygon fill="#63b8ff" stroke="#63b8ff" points="1073.68,-138.27 1080.58,-130.23 1070.17,-132.21 1073.68,-138.27"/>
</g>
<!-- Node16 -->
<g id="node16" class="node">
<title>Node16</title>
<g id="a_node16"><a xlink:href="IStatusIndicator_8hpp.xhtml" target="_top" xlink:title=" ">
<polygon fill="white" stroke="#666666" points="847.37,-129 743.37,-129 743.37,-110 847.37,-110 847.37,-129"/>
<text text-anchor="middle" x="795.37" y="-117" font-family="Helvetica,sans-Serif" font-size="10.00">IStatusIndicator.hpp</text>
</a>
</g>
</g>
<!-- Node15&#45;&gt;Node16 -->
<g id="edge17" class="edge">
<title>Node15&#45;&gt;Node16</title>
<path fill="none" stroke="#63b8ff" d="M965.85,-170.12C931.46,-160.11 875.38,-143.79 837,-132.62"/>
<polygon fill="#63b8ff" stroke="#63b8ff" points="838.22,-129.33 827.64,-129.89 836.27,-136.05 838.22,-129.33"/>
</g>
<!-- Node17 -->
<g id="node17" class="node">
<title>Node17</title>
<g id="a_node17"><a xlink:href="hmi__configuration_8hpp.xhtml" target="_top" xlink:title=" ">
<polygon fill="white" stroke="#666666" points="975.37,-129 865.37,-129 865.37,-110 975.37,-110 975.37,-129"/>
<text text-anchor="middle" x="920.37" y="-117" font-family="Helvetica,sans-Serif" font-size="10.00">hmi_configuration.hpp</text>
</a>
</g>
</g>
<!-- Node15&#45;&gt;Node17 -->
<g id="edge19" class="edge">
<title>Node15&#45;&gt;Node17</title>
<path fill="none" stroke="#63b8ff" d="M984.83,-170.12C973.23,-161.18 955.08,-147.22 941,-136.37"/>
<polygon fill="#63b8ff" stroke="#63b8ff" points="943.28,-133.72 933.23,-130.39 939.01,-139.26 943.28,-133.72"/>
</g>
<!-- Node18 -->
<g id="node18" class="node">
<title>Node18</title>
<g id="a_node18"><a xlink:title=" ">
<polygon fill="#e0e0e0" stroke="#999999" points="985.87,-74 936.87,-74 936.87,-55 985.87,-55 985.87,-74"/>
<text text-anchor="middle" x="961.37" y="-62" font-family="Helvetica,sans-Serif" font-size="10.00">cstddef</text>
</a>
</g>
</g>
<!-- Node15&#45;&gt;Node18 -->
<g id="edge21" class="edge">
<title>Node15&#45;&gt;Node18</title>
<path fill="none" stroke="#63b8ff" d="M995.72,-170.29C994.52,-157 991.43,-130.97 984.37,-110 981.4,-101.15 976.87,-91.89 972.62,-84.13"/>
<polygon fill="#63b8ff" stroke="#63b8ff" points="975.76,-82.57 967.73,-75.66 969.69,-86.07 975.76,-82.57"/>
</g>
<!-- Node17&#45;&gt;Node18 -->
<g id="edge20" class="edge">
<title>Node17&#45;&gt;Node18</title>
<path fill="none" stroke="#63b8ff" d="M927.14,-109.75C932.69,-102.58 940.72,-92.2 947.6,-83.3"/>
<polygon fill="#63b8ff" stroke="#63b8ff" points="950.18,-85.69 953.53,-75.64 944.64,-81.41 950.18,-85.69"/>
</g>
<!-- Node20 -->
<g id="node20" class="node">
<title>Node20</title>
<g id="a_node20"><a xlink:href="KeyIds_8hpp.xhtml" target="_top" xlink:title=" ">
<polygon fill="white" stroke="#666666" points="571.87,-74 506.87,-74 506.87,-55 571.87,-55 571.87,-74"/>
<text text-anchor="middle" x="539.37" y="-62" font-family="Helvetica,sans-Serif" font-size="10.00">KeyIds.hpp</text>
</a>
</g>
</g>
<!-- Node19&#45;&gt;Node20 -->
<g id="edge23" class="edge">
<title>Node19&#45;&gt;Node20</title>
<path fill="none" stroke="#63b8ff" d="M648.54,-164.63C625.24,-143.47 581.83,-104.05 557.36,-81.83"/>
<polygon fill="#63b8ff" stroke="#63b8ff" points="559.86,-79.38 550.11,-75.25 555.16,-84.56 559.86,-79.38"/>
</g>
<!-- Node20&#45;&gt;Node8 -->
<g id="edge24" class="edge">
<title>Node20&#45;&gt;Node8</title>
<path fill="none" stroke="#63b8ff" d="M527.67,-54.51C517.6,-46.77 502.83,-35.43 490.81,-26.2"/>
<polygon fill="#63b8ff" stroke="#63b8ff" points="493.17,-23.6 483.11,-20.28 488.91,-29.15 493.17,-23.6"/>
</g>
<!-- Node21&#45;&gt;Node14 -->
<g id="edge26" class="edge">
<title>Node21&#45;&gt;Node14</title>
<path fill="none" stroke="#63b8ff" d="M1187.95,-164.57C1185.24,-150.31 1180.19,-128.07 1172.37,-110 1168.39,-100.8 1162.67,-91.3 1157.44,-83.45"/>
<polygon fill="#63b8ff" stroke="#63b8ff" points="1160.48,-81.7 1151.89,-75.49 1154.74,-85.7 1160.48,-81.7"/>
</g>
<!-- Node23 -->
<g id="node23" class="node">
<title>Node23</title>
<g id="a_node23"><a xlink:href="IKeypad_8hpp.xhtml" target="_top" xlink:title=" ">
<polygon fill="white" stroke="#666666" points="559.37,-129 489.37,-129 489.37,-110 559.37,-110 559.37,-129"/>
<text text-anchor="middle" x="524.37" y="-117" font-family="Helvetica,sans-Serif" font-size="10.00">IKeypad.hpp</text>
</a>
</g>
</g>
<!-- Node22&#45;&gt;Node23 -->
<g id="edge28" class="edge">
<title>Node22&#45;&gt;Node23</title>
<path fill="none" stroke="#63b8ff" d="M524.37,-164.54C524.37,-157.34 524.37,-148.53 524.37,-140.68"/>
<polygon fill="#63b8ff" stroke="#63b8ff" points="527.87,-140.69 524.37,-130.69 520.87,-140.69 527.87,-140.69"/>
</g>
<!-- Node23&#45;&gt;Node6 -->
<g id="edge30" class="edge">
<title>Node23&#45;&gt;Node6</title>
<path fill="none" stroke="#63b8ff" d="M513.35,-109.51C503.95,-101.85 490.23,-90.66 478.97,-81.47"/>
<polygon fill="#63b8ff" stroke="#63b8ff" points="481.37,-78.92 471.41,-75.31 476.95,-84.35 481.37,-78.92"/>
</g>
<!-- Node23&#45;&gt;Node20 -->
<g id="edge29" class="edge">
<title>Node23&#45;&gt;Node20</title>
<path fill="none" stroke="#63b8ff" d="M526.85,-109.75C528.73,-103.11 531.38,-93.73 533.77,-85.31"/>
<polygon fill="#63b8ff" stroke="#63b8ff" points="537.08,-86.47 536.43,-75.9 530.34,-84.57 537.08,-86.47"/>
</g>
<!-- Node24&#45;&gt;Node16 -->
<g id="edge32" class="edge">
<title>Node24&#45;&gt;Node16</title>
<path fill="none" stroke="#63b8ff" d="M817.21,-164.54C813.42,-156.91 808.74,-147.46 804.68,-139.27"/>
<polygon fill="#63b8ff" stroke="#63b8ff" points="807.92,-137.94 800.35,-130.53 801.65,-141.05 807.92,-137.94"/>
</g>
<!-- Node24&#45;&gt;Node17 -->
<g id="edge33" class="edge">
<title>Node24&#45;&gt;Node17</title>
<path fill="none" stroke="#63b8ff" d="M848.1,-164.54C862.81,-155.58 881.64,-144.1 896.4,-135.11"/>
<polygon fill="#63b8ff" stroke="#63b8ff" points="897.85,-138.33 904.56,-130.13 894.2,-132.35 897.85,-138.33"/>
</g>
</g>
</svg>
