<?xml version="1.0" encoding="UTF-8" standalone="no"?>
<!DOCTYPE svg PUBLIC "-//W3C//DTD SVG 1.1//EN"
 "http://www.w3.org/Graphics/SVG/1.1/DTD/svg11.dtd">
<!-- Generated by graphviz version 7.0.5 (20221223.1930)
 -->
<!-- Title: src/main.cpp Pages: 1 -->
<svg width="647pt" height="137pt"
 viewBox="0.00 0.00 647.00 137.00" xmlns="http://www.w3.org/2000/svg" xmlns:xlink="http://www.w3.org/1999/xlink">
<g id="graph0" class="graph" transform="scale(1 1) rotate(0) translate(4 133)">
<title>src/main.cpp</title>
<!-- Node1 -->
<g id="node1" class="node">
<title>Node1</title>
<g id="a_node1"><a xlink:title=" ">
<polygon fill="#999999" stroke="#666666" points="304,-129 232,-129 232,-110 304,-110 304,-129"/>
<text text-anchor="middle" x="268" y="-117" font-family="Helvetica,sans-Serif" font-size="10.00">src/main.cpp</text>
</a>
</g>
</g>
<!-- Node2 -->
<g id="node2" class="node">
<title>Node2</title>
<g id="a_node2"><a xlink:href="Task_8hpp.xhtml" target="_top" xlink:title=" ">
<polygon fill="white" stroke="#666666" points="93.5,-74 10.5,-74 10.5,-55 93.5,-55 93.5,-74"/>
<text text-anchor="middle" x="52" y="-62" font-family="Helvetica,sans-Serif" font-size="10.00">tasks/Task.hpp</text>
</a>
</g>
</g>
<!-- Node1&#45;&gt;Node2 -->
<g id="edge1" class="edge">
<title>Node1&#45;&gt;Node2</title>
<path fill="none" stroke="#63b8ff" d="M231.85,-109.63C195.59,-100.73 139.56,-86.98 99.68,-77.2"/>
<polygon fill="#63b8ff" stroke="#63b8ff" points="100.65,-73.83 90.1,-74.85 98.98,-80.63 100.65,-73.83"/>
</g>
<!-- Node6 -->
<g id="node6" class="node">
<title>Node6</title>
<g id="a_node6"><a xlink:href="HmiCoordinator_8hpp.xhtml" target="_top" xlink:title=" ">
<polygon fill="white" stroke="#666666" points="214,-74 112,-74 112,-55 214,-55 214,-74"/>
<text text-anchor="middle" x="163" y="-62" font-family="Helvetica,sans-Serif" font-size="10.00">HmiCoordinator.hpp</text>
</a>
</g>
</g>
<!-- Node1&#45;&gt;Node6 -->
<g id="edge5" class="edge">
<title>Node1&#45;&gt;Node6</title>
<path fill="none" stroke="#63b8ff" d="M250.19,-109.51C233.87,-101.27 209.47,-88.96 190.63,-79.45"/>
<polygon fill="#63b8ff" stroke="#63b8ff" points="192.4,-76.42 181.9,-75.04 189.25,-82.67 192.4,-76.42"/>
</g>
<!-- Node7 -->
<g id="node7" class="node">
<title>Node7</title>
<g id="a_node7"><a xlink:href="Protocol_8hpp.xhtml" target="_top" xlink:title=" ">
<polygon fill="white" stroke="#666666" points="303.5,-74 232.5,-74 232.5,-55 303.5,-55 303.5,-74"/>
<text text-anchor="middle" x="268" y="-62" font-family="Helvetica,sans-Serif" font-size="10.00">Protocol.hpp</text>
</a>
</g>
</g>
<!-- Node1&#45;&gt;Node7 -->
<g id="edge6" class="edge">
<title>Node1&#45;&gt;Node7</title>
<path fill="none" stroke="#63b8ff" d="M268,-109.75C268,-103.27 268,-94.16 268,-85.9"/>
<polygon fill="#63b8ff" stroke="#63b8ff" points="271.5,-85.96 268,-75.96 264.5,-85.96 271.5,-85.96"/>
</g>
<!-- Node8 -->
<g id="node8" class="node">
<title>Node8</title>
<g id="a_node8"><a xlink:href="display__interface_8hpp.xhtml" target="_top" xlink:title=" ">
<polygon fill="white" stroke="#666666" points="428.5,-74 321.5,-74 321.5,-55 428.5,-55 428.5,-74"/>
<text text-anchor="middle" x="375" y="-62" font-family="Helvetica,sans-Serif" font-size="10.00">display_interface.hpp</text>
</a>
</g>
</g>
<!-- Node1&#45;&gt;Node8 -->
<g id="edge7" class="edge">
<title>Node1&#45;&gt;Node8</title>
<path fill="none" stroke="#63b8ff" d="M286.15,-109.51C302.78,-101.27 327.64,-88.96 346.85,-79.45"/>
<polygon fill="#63b8ff" stroke="#63b8ff" points="348.35,-82.6 355.76,-75.03 345.25,-76.33 348.35,-82.6"/>
</g>
<!-- Node9 -->
<g id="node9" class="node">
<title>Node9</title>
<g id="a_node9"><a xlink:href="serial__port__interface_8hpp.xhtml" target="_top" xlink:title=" ">
<polygon fill="white" stroke="#666666" points="569,-74 447,-74 447,-55 569,-55 569,-74"/>
<text text-anchor="middle" x="508" y="-62" font-family="Helvetica,sans-Serif" font-size="10.00">serial_port_interface.hpp</text>
</a>
</g>
</g>
<!-- Node1&#45;&gt;Node9 -->
<g id="edge8" class="edge">
<title>Node1&#45;&gt;Node9</title>
<path fill="none" stroke="#63b8ff" d="M304.45,-110.45C344.95,-101.51 410.65,-87 456.41,-76.89"/>
<polygon fill="#63b8ff" stroke="#63b8ff" points="457.1,-80.32 466.11,-74.75 455.59,-73.49 457.1,-80.32"/>
</g>
<!-- Node3 -->
<g id="node3" class="node">
<title>Node3</title>
<g id="a_node3"><a xlink:title=" ">
<polygon fill="#e0e0e0" stroke="#999999" points="46,-19 0,-19 0,0 46,0 46,-19"/>
<text text-anchor="middle" x="23" y="-7" font-family="Helvetica,sans-Serif" font-size="10.00">chrono</text>
</a>
</g>
</g>
<!-- Node2&#45;&gt;Node3 -->
<g id="edge2" class="edge">
<title>Node2&#45;&gt;Node3</title>
<path fill="none" stroke="#63b8ff" d="M47.21,-54.75C43.46,-47.88 38.09,-38.08 33.37,-29.45"/>
<polygon fill="#63b8ff" stroke="#63b8ff" points="36.49,-27.86 28.62,-20.77 30.35,-31.22 36.49,-27.86"/>
</g>
<!-- Node4 -->
<g id="node4" class="node">
<title>Node4</title>
<g id="a_node4"><a xlink:title=" ">
<polygon fill="#e0e0e0" stroke="#999999" points="99.5,-19 64.5,-19 64.5,0 99.5,0 99.5,-19"/>
<text text-anchor="middle" x="82" y="-7" font-family="Helvetica,sans-Serif" font-size="10.00">map</text>
</a>
</g>
</g>
<!-- Node2&#45;&gt;Node4 -->
<g id="edge3" class="edge">
<title>Node2&#45;&gt;Node4</title>
<path fill="none" stroke="#63b8ff" d="M56.95,-54.75C60.84,-47.88 66.39,-38.08 71.28,-29.45"/>
<polygon fill="#63b8ff" stroke="#63b8ff" points="74.31,-31.19 76.19,-20.76 68.22,-27.74 74.31,-31.19"/>
</g>
<!-- Node5 -->
<g id="node5" class="node">
<title>Node5</title>
<g id="a_node5"><a xlink:title=" ">
<polygon fill="#e0e0e0" stroke="#999999" points="280.5,-19 239.5,-19 239.5,0 280.5,0 280.5,-19"/>
<text text-anchor="middle" x="260" y="-7" font-family="Helvetica,sans-Serif" font-size="10.00">string</text>
</a>
</g>
</g>
<!-- Node2&#45;&gt;Node5 -->
<g id="edge4" class="edge">
<title>Node2&#45;&gt;Node5</title>
<path fill="none" stroke="#63b8ff" d="M87.28,-54.51C126.78,-44.45 190.2,-28.28 228.21,-18.6"/>
<polygon fill="#63b8ff" stroke="#63b8ff" points="228.85,-22.05 237.67,-16.19 227.12,-15.27 228.85,-22.05"/>
</g>
<!-- Node9&#45;&gt;Node5 -->
<g id="edge13" class="edge">
<title>Node9&#45;&gt;Node5</title>
<path fill="none" stroke="#63b8ff" d="M465.93,-54.51C416.71,-43.99 336.31,-26.81 291.94,-17.33"/>
<polygon fill="#63b8ff" stroke="#63b8ff" points="292.94,-13.96 282.43,-15.29 291.48,-20.81 292.94,-13.96"/>
</g>
<!-- Node10 -->
<g id="node10" class="node">
<title>Node10</title>
<g id="a_node10"><a xlink:title=" ">
<polygon fill="#e0e0e0" stroke="#999999" points="423,-19 385,-19 385,0 423,0 423,-19"/>
<text text-anchor="middle" x="404" y="-7" font-family="Helvetica,sans-Serif" font-size="10.00">array</text>
</a>
</g>
</g>
<!-- Node9&#45;&gt;Node10 -->
<g id="edge9" class="edge">
<title>Node9&#45;&gt;Node10</title>
<path fill="none" stroke="#63b8ff" d="M490.36,-54.51C474.27,-46.31 450.25,-34.07 431.63,-24.58"/>
<polygon fill="#63b8ff" stroke="#63b8ff" points="433.23,-21.47 422.73,-20.05 430.05,-27.7 433.23,-21.47"/>
</g>
<!-- Node11 -->
<g id="node11" class="node">
<title>Node11</title>
<g id="a_node11"><a xlink:title=" ">
<polygon fill="#e0e0e0" stroke="#999999" points="500.5,-19 441.5,-19 441.5,0 500.5,0 500.5,-19"/>
<text text-anchor="middle" x="471" y="-7" font-family="Helvetica,sans-Serif" font-size="10.00">functional</text>
</a>
</g>
</g>
<!-- Node9&#45;&gt;Node11 -->
<g id="edge10" class="edge">
<title>Node9&#45;&gt;Node11</title>
<path fill="none" stroke="#63b8ff" d="M501.89,-54.75C496.99,-47.73 489.95,-37.64 483.83,-28.87"/>
<polygon fill="#63b8ff" stroke="#63b8ff" points="486.7,-26.88 478.11,-20.68 480.96,-30.89 486.7,-26.88"/>
</g>
<!-- Node12 -->
<g id="node12" class="node">
<title>Node12</title>
<g id="a_node12"><a xlink:title=" ">
<polygon fill="#e0e0e0" stroke="#999999" points="569,-19 519,-19 519,0 569,0 569,-19"/>
<text text-anchor="middle" x="544" y="-7" font-family="Helvetica,sans-Serif" font-size="10.00">optional</text>
</a>
</g>
</g>
<!-- Node9&#45;&gt;Node12 -->
<g id="edge11" class="edge">
<title>Node9&#45;&gt;Node12</title>
<path fill="none" stroke="#63b8ff" d="M513.94,-54.75C518.71,-47.73 525.56,-37.64 531.52,-28.87"/>
<polygon fill="#63b8ff" stroke="#63b8ff" points="534.35,-30.93 537.08,-20.69 528.56,-27 534.35,-30.93"/>
</g>
<!-- Node13 -->
<g id="node13" class="node">
<title>Node13</title>
<g id="a_node13"><a xlink:title=" ">
<polygon fill="#e0e0e0" stroke="#999999" points="639,-19 587,-19 587,0 639,0 639,-19"/>
<text text-anchor="middle" x="613" y="-7" font-family="Helvetica,sans-Serif" font-size="10.00">ostream</text>
</a>
</g>
</g>
<!-- Node9&#45;&gt;Node13 -->
<g id="edge12" class="edge">
<title>Node9&#45;&gt;Node13</title>
<path fill="none" stroke="#63b8ff" d="M525.81,-54.51C542.13,-46.27 566.53,-33.96 585.37,-24.45"/>
<polygon fill="#63b8ff" stroke="#63b8ff" points="586.75,-27.67 594.1,-20.04 583.6,-21.42 586.75,-27.67"/>
</g>
</g>
</svg>
