<?xml version="1.0" encoding="UTF-8" standalone="no"?>
<!DOCTYPE svg PUBLIC "-//W3C//DTD SVG 1.1//EN"
 "http://www.w3.org/Graphics/SVG/1.1/DTD/svg11.dtd">
<!-- Generated by graphviz version 7.0.5 (20221223.1930)
 -->
<!-- Title: src/main.cpp Pages: 1 -->
<svg width="1200pt" height="203pt"
 viewBox="0.00 0.00 1200.00 203.00" xmlns="http://www.w3.org/2000/svg" xmlns:xlink="http://www.w3.org/1999/xlink">
<g id="graph0" class="graph" transform="scale(1 1) rotate(0) translate(4 199)">
<title>src/main.cpp</title>
<!-- Node1 -->
<g id="node1" class="node">
<title>Node1</title>
<g id="a_node1"><a xlink:title=" ">
<polygon fill="#999999" stroke="#666666" points="628,-195 556,-195 556,-176 628,-176 628,-195"/>
<text text-anchor="middle" x="592" y="-183" font-family="Helvetica,sans-Serif" font-size="10.00">src/main.cpp</text>
</a>
</g>
</g>
<!-- Node2 -->
<g id="node2" class="node">
<title>Node2</title>
<g id="a_node2"><a xlink:title=" ">
<polygon fill="#e0e0e0" stroke="#999999" points="46,-74 0,-74 0,-55 46,-55 46,-74"/>
<text text-anchor="middle" x="23" y="-62" font-family="Helvetica,sans-Serif" font-size="10.00">chrono</text>
</a>
</g>
</g>
<!-- Node1&#45;&gt;Node2 -->
<g id="edge1" class="edge">
<title>Node1&#45;&gt;Node2</title>
<path fill="none" stroke="#63b8ff" d="M555.88,-183.16C445.31,-178.79 116.45,-163.93 75,-140 53.59,-127.64 38.9,-102.48 30.73,-84.84"/>
<polygon fill="#63b8ff" stroke="#63b8ff" points="33.97,-83.5 26.8,-75.69 27.54,-86.26 33.97,-83.5"/>
</g>
<!-- Node3 -->
<g id="node3" class="node">
<title>Node3</title>
<g id="a_node3"><a xlink:href="Protocol_8hpp.xhtml" target="_top" xlink:title=" ">
<polygon fill="white" stroke="#666666" points="607,-134.5 467,-134.5 467,-115.5 607,-115.5 607,-134.5"/>
<text text-anchor="middle" x="537" y="-122.5" font-family="Helvetica,sans-Serif" font-size="10.00">serial_interface/Protocol.hpp</text>
</a>
</g>
</g>
<!-- Node1&#45;&gt;Node3 -->
<g id="edge2" class="edge">
<title>Node1&#45;&gt;Node3</title>
<path fill="none" stroke="#63b8ff" d="M583.88,-175.87C575.76,-167.23 563.04,-153.7 552.9,-142.92"/>
<polygon fill="#63b8ff" stroke="#63b8ff" points="555.59,-140.66 546.19,-135.77 550.49,-145.45 555.59,-140.66"/>
</g>
<!-- Node4 -->
<g id="node4" class="node">
<title>Node4</title>
<g id="a_node4"><a xlink:href="serial__port__interface_8hpp.xhtml" target="_top" xlink:title=" ">
<polygon fill="white" stroke="#666666" points="305.5,-140 196.5,-140 196.5,-110 305.5,-110 305.5,-140"/>
<text text-anchor="start" x="204.5" y="-128" font-family="Helvetica,sans-Serif" font-size="10.00">serial_interface/serial</text>
<text text-anchor="middle" x="251" y="-117" font-family="Helvetica,sans-Serif" font-size="10.00">_port_interface.hpp</text>
</a>
</g>
</g>
<!-- Node1&#45;&gt;Node4 -->
<g id="edge3" class="edge">
<title>Node1&#45;&gt;Node4</title>
<path fill="none" stroke="#63b8ff" d="M555.89,-179.43C504.83,-172.1 408.34,-157.69 317.04,-140.52"/>
<polygon fill="#63b8ff" stroke="#63b8ff" points="317.9,-137.12 307.42,-138.69 316.59,-144 317.9,-137.12"/>
</g>
<!-- Node10 -->
<g id="node10" class="node">
<title>Node10</title>
<g id="a_node10"><a xlink:href="Task_8hpp.xhtml" target="_top" xlink:title=" ">
<polygon fill="white" stroke="#666666" points="167.5,-134.5 84.5,-134.5 84.5,-115.5 167.5,-115.5 167.5,-134.5"/>
<text text-anchor="middle" x="126" y="-122.5" font-family="Helvetica,sans-Serif" font-size="10.00">tasks/Task.hpp</text>
</a>
</g>
</g>
<!-- Node1&#45;&gt;Node10 -->
<g id="edge9" class="edge">
<title>Node1&#45;&gt;Node10</title>
<path fill="none" stroke="#63b8ff" d="M555.78,-181.94C484.7,-176.6 322.13,-162.85 187,-140 182.42,-139.23 177.67,-138.32 172.93,-137.35"/>
<polygon fill="#63b8ff" stroke="#63b8ff" points="173.98,-133.99 163.47,-135.31 172.51,-140.84 173.98,-133.99"/>
</g>
<!-- Node12 -->
<g id="node12" class="node">
<title>Node12</title>
<g id="a_node12"><a xlink:title=" ">
<polygon fill="#e0e0e0" stroke="#999999" points="669,-134.5 625,-134.5 625,-115.5 669,-115.5 669,-134.5"/>
<text text-anchor="middle" x="647" y="-122.5" font-family="Helvetica,sans-Serif" font-size="10.00">thread</text>
</a>
</g>
</g>
<!-- Node1&#45;&gt;Node12 -->
<g id="edge13" class="edge">
<title>Node1&#45;&gt;Node12</title>
<path fill="none" stroke="#63b8ff" d="M600.12,-175.87C608.24,-167.23 620.96,-153.7 631.1,-142.92"/>
<polygon fill="#63b8ff" stroke="#63b8ff" points="633.51,-145.45 637.81,-135.77 628.41,-140.66 633.51,-145.45"/>
</g>
<!-- Node13 -->
<g id="node13" class="node">
<title>Node13</title>
<g id="a_node13"><a xlink:href="Menu_8hpp.xhtml" target="_top" xlink:title=" ">
<polygon fill="white" stroke="#666666" points="903.5,-74 772.5,-74 772.5,-55 903.5,-55 903.5,-74"/>
<text text-anchor="middle" x="838" y="-62" font-family="Helvetica,sans-Serif" font-size="10.00">user_interaction/Menu.hpp</text>
</a>
</g>
</g>
<!-- Node1&#45;&gt;Node13 -->
<g id="edge14" class="edge">
<title>Node1&#45;&gt;Node13</title>
<path fill="none" stroke="#63b8ff" d="M628.14,-181.74C684.07,-176.74 787.96,-164.4 815,-140 830.22,-126.27 835.48,-102.72 837.24,-85.77"/>
<polygon fill="#63b8ff" stroke="#63b8ff" points="840.73,-86.09 837.91,-75.88 833.74,-85.62 840.73,-86.09"/>
</g>
<!-- Node15 -->
<g id="node15" class="node">
<title>Node15</title>
<g id="a_node15"><a xlink:href="Presenter_8hpp.xhtml" target="_top" xlink:title=" ">
<polygon fill="white" stroke="#666666" points="1012.5,-134.5 863.5,-134.5 863.5,-115.5 1012.5,-115.5 1012.5,-134.5"/>
<text text-anchor="middle" x="938" y="-122.5" font-family="Helvetica,sans-Serif" font-size="10.00">user_interaction/Presenter.hpp</text>
</a>
</g>
</g>
<!-- Node1&#45;&gt;Node15 -->
<g id="edge16" class="edge">
<title>Node1&#45;&gt;Node15</title>
<path fill="none" stroke="#63b8ff" d="M628.37,-178.35C686.59,-168.51 801.49,-149.08 873.77,-136.86"/>
<polygon fill="#63b8ff" stroke="#63b8ff" points="874.22,-140.33 883.49,-135.22 873.05,-133.43 874.22,-140.33"/>
</g>
<!-- Node19 -->
<g id="node19" class="node">
<title>Node19</title>
<g id="a_node19"><a xlink:href="ProcessHmiInputs_8hpp.xhtml" target="_top" xlink:title=" ">
<polygon fill="white" stroke="#666666" points="448.5,-140 323.5,-140 323.5,-110 448.5,-110 448.5,-140"/>
<text text-anchor="start" x="331.5" y="-128" font-family="Helvetica,sans-Serif" font-size="10.00">user_interaction/Process</text>
<text text-anchor="middle" x="386" y="-117" font-family="Helvetica,sans-Serif" font-size="10.00">HmiInputs.hpp</text>
</a>
</g>
</g>
<!-- Node1&#45;&gt;Node19 -->
<g id="edge22" class="edge">
<title>Node1&#45;&gt;Node19</title>
<path fill="none" stroke="#63b8ff" d="M560.71,-175.62C530.8,-167.12 484.87,-154.08 447.6,-143.49"/>
<polygon fill="#63b8ff" stroke="#63b8ff" points="448.88,-140.22 438.3,-140.85 446.97,-146.95 448.88,-140.22"/>
</g>
<!-- Node21 -->
<g id="node21" class="node">
<title>Node21</title>
<g id="a_node21"><a xlink:href="display__factory__interface_8hpp.xhtml" target="_top" xlink:title=" ">
<polygon fill="white" stroke="#666666" points="806.5,-140 687.5,-140 687.5,-110 806.5,-110 806.5,-140"/>
<text text-anchor="start" x="695.5" y="-128" font-family="Helvetica,sans-Serif" font-size="10.00">user_interaction/display</text>
<text text-anchor="middle" x="747" y="-117" font-family="Helvetica,sans-Serif" font-size="10.00">_factory_interface.hpp</text>
</a>
</g>
</g>
<!-- Node1&#45;&gt;Node21 -->
<g id="edge25" class="edge">
<title>Node1&#45;&gt;Node21</title>
<path fill="none" stroke="#63b8ff" d="M615.54,-175.62C637.37,-167.38 670.54,-154.86 698.1,-144.45"/>
<polygon fill="#63b8ff" stroke="#63b8ff" points="699.21,-147.78 707.33,-140.97 696.73,-141.23 699.21,-147.78"/>
</g>
<!-- Node22 -->
<g id="node22" class="node">
<title>Node22</title>
<g id="a_node22"><a xlink:href="statusindicators__factory__interface_8hpp.xhtml" target="_top" xlink:title=" ">
<polygon fill="white" stroke="#666666" points="1189,-140 1031,-140 1031,-110 1189,-110 1189,-140"/>
<text text-anchor="start" x="1039" y="-128" font-family="Helvetica,sans-Serif" font-size="10.00">user_interaction/statusindicators</text>
<text text-anchor="middle" x="1110" y="-117" font-family="Helvetica,sans-Serif" font-size="10.00">_factory_interface.hpp</text>
</a>
</g>
</g>
<!-- Node1&#45;&gt;Node22 -->
<g id="edge27" class="edge">
<title>Node1&#45;&gt;Node22</title>
<path fill="none" stroke="#63b8ff" d="M628.32,-181.42C700.65,-175.13 868.08,-159.86 1019.54,-140.28"/>
<polygon fill="#63b8ff" stroke="#63b8ff" points="1019.91,-143.76 1029.37,-138.99 1019.01,-136.81 1019.91,-143.76"/>
</g>
<!-- Node5 -->
<g id="node5" class="node">
<title>Node5</title>
<g id="a_node5"><a xlink:title=" ">
<polygon fill="#e0e0e0" stroke="#999999" points="215,-74 177,-74 177,-55 215,-55 215,-74"/>
<text text-anchor="middle" x="196" y="-62" font-family="Helvetica,sans-Serif" font-size="10.00">array</text>
</a>
</g>
</g>
<!-- Node4&#45;&gt;Node5 -->
<g id="edge4" class="edge">
<title>Node4&#45;&gt;Node5</title>
<path fill="none" stroke="#63b8ff" d="M237.4,-109.54C229.66,-101.3 219.92,-90.94 211.83,-82.34"/>
<polygon fill="#63b8ff" stroke="#63b8ff" points="214.59,-80.17 205.19,-75.28 209.49,-84.96 214.59,-80.17"/>
</g>
<!-- Node6 -->
<g id="node6" class="node">
<title>Node6</title>
<g id="a_node6"><a xlink:title=" ">
<polygon fill="#e0e0e0" stroke="#999999" points="292.5,-74 233.5,-74 233.5,-55 292.5,-55 292.5,-74"/>
<text text-anchor="middle" x="263" y="-62" font-family="Helvetica,sans-Serif" font-size="10.00">functional</text>
</a>
</g>
</g>
<!-- Node4&#45;&gt;Node6 -->
<g id="edge5" class="edge">
<title>Node4&#45;&gt;Node6</title>
<path fill="none" stroke="#63b8ff" d="M253.97,-109.54C255.46,-102.26 257.29,-93.31 258.92,-85.39"/>
<polygon fill="#63b8ff" stroke="#63b8ff" points="262.34,-86.16 260.92,-75.66 255.48,-84.75 262.34,-86.16"/>
</g>
<!-- Node7 -->
<g id="node7" class="node">
<title>Node7</title>
<g id="a_node7"><a xlink:title=" ">
<polygon fill="#e0e0e0" stroke="#999999" points="361,-74 311,-74 311,-55 361,-55 361,-74"/>
<text text-anchor="middle" x="336" y="-62" font-family="Helvetica,sans-Serif" font-size="10.00">optional</text>
</a>
</g>
</g>
<!-- Node4&#45;&gt;Node7 -->
<g id="edge6" class="edge">
<title>Node4&#45;&gt;Node7</title>
<path fill="none" stroke="#63b8ff" d="M272.01,-109.54C284.86,-100.7 301.27,-89.4 314.25,-80.47"/>
<polygon fill="#63b8ff" stroke="#63b8ff" points="315.89,-83.59 322.15,-75.03 311.93,-77.82 315.89,-83.59"/>
</g>
<!-- Node8 -->
<g id="node8" class="node">
<title>Node8</title>
<g id="a_node8"><a xlink:title=" ">
<polygon fill="#e0e0e0" stroke="#999999" points="446,-19 394,-19 394,0 446,0 446,-19"/>
<text text-anchor="middle" x="420" y="-7" font-family="Helvetica,sans-Serif" font-size="10.00">ostream</text>
</a>
</g>
</g>
<!-- Node4&#45;&gt;Node8 -->
<g id="edge7" class="edge">
<title>Node4&#45;&gt;Node8</title>
<path fill="none" stroke="#63b8ff" d="M300.58,-109.52C323.17,-101.39 349.41,-89.68 370,-74 386.19,-61.67 400.08,-42.93 409.09,-29"/>
<polygon fill="#63b8ff" stroke="#63b8ff" points="411.9,-31.11 414.18,-20.76 405.95,-27.43 411.9,-31.11"/>
</g>
<!-- Node9 -->
<g id="node9" class="node">
<title>Node9</title>
<g id="a_node9"><a xlink:title=" ">
<polygon fill="#e0e0e0" stroke="#999999" points="158.5,-74 117.5,-74 117.5,-55 158.5,-55 158.5,-74"/>
<text text-anchor="middle" x="138" y="-62" font-family="Helvetica,sans-Serif" font-size="10.00">string</text>
</a>
</g>
</g>
<!-- Node4&#45;&gt;Node9 -->
<g id="edge8" class="edge">
<title>Node4&#45;&gt;Node9</title>
<path fill="none" stroke="#63b8ff" d="M223.07,-109.54C205.42,-100.4 182.73,-88.66 165.23,-79.6"/>
<polygon fill="#63b8ff" stroke="#63b8ff" points="166.92,-76.53 156.43,-75.04 163.7,-82.75 166.92,-76.53"/>
</g>
<!-- Node10&#45;&gt;Node2 -->
<g id="edge10" class="edge">
<title>Node10&#45;&gt;Node2</title>
<path fill="none" stroke="#63b8ff" d="M110.36,-115.12C94.02,-105.84 68.13,-91.13 48.77,-80.14"/>
<polygon fill="#63b8ff" stroke="#63b8ff" points="50.53,-77.11 40.11,-75.22 47.07,-83.2 50.53,-77.11"/>
</g>
<!-- Node10&#45;&gt;Node9 -->
<g id="edge12" class="edge">
<title>Node10&#45;&gt;Node9</title>
<path fill="none" stroke="#63b8ff" d="M127.77,-115.37C129.38,-107.5 131.83,-95.6 133.92,-85.39"/>
<polygon fill="#63b8ff" stroke="#63b8ff" points="137.34,-86.15 135.92,-75.65 130.48,-84.74 137.34,-86.15"/>
</g>
<!-- Node11 -->
<g id="node11" class="node">
<title>Node11</title>
<g id="a_node11"><a xlink:title=" ">
<polygon fill="#e0e0e0" stroke="#999999" points="99.5,-74 64.5,-74 64.5,-55 99.5,-55 99.5,-74"/>
<text text-anchor="middle" x="82" y="-62" font-family="Helvetica,sans-Serif" font-size="10.00">map</text>
</a>
</g>
</g>
<!-- Node10&#45;&gt;Node11 -->
<g id="edge11" class="edge">
<title>Node10&#45;&gt;Node11</title>
<path fill="none" stroke="#63b8ff" d="M119.51,-115.37C113.14,-106.9 103.24,-93.74 95.21,-83.07"/>
<polygon fill="#63b8ff" stroke="#63b8ff" points="98.24,-81.26 89.43,-75.38 92.64,-85.47 98.24,-81.26"/>
</g>
<!-- Node14 -->
<g id="node14" class="node">
<title>Node14</title>
<g id="a_node14"><a xlink:href="IDisplay_8hpp.xhtml" target="_top" xlink:title=" ">
<polygon fill="white" stroke="#666666" points="825.5,-19 756.5,-19 756.5,0 825.5,0 825.5,-19"/>
<text text-anchor="middle" x="791" y="-7" font-family="Helvetica,sans-Serif" font-size="10.00">IDisplay.hpp</text>
</a>
</g>
</g>
<!-- Node13&#45;&gt;Node14 -->
<g id="edge15" class="edge">
<title>Node13&#45;&gt;Node14</title>
<path fill="none" stroke="#63b8ff" d="M830.24,-54.75C823.81,-47.5 814.49,-36.98 806.54,-28.02"/>
<polygon fill="#63b8ff" stroke="#63b8ff" points="809.19,-25.73 799.93,-20.57 803.95,-30.38 809.19,-25.73"/>
</g>
<!-- Node15&#45;&gt;Node13 -->
<g id="edge18" class="edge">
<title>Node15&#45;&gt;Node13</title>
<path fill="none" stroke="#63b8ff" d="M922.81,-115.12C906.95,-105.84 881.82,-91.13 863.02,-80.14"/>
<polygon fill="#63b8ff" stroke="#63b8ff" points="865.04,-77.26 854.64,-75.23 861.5,-83.3 865.04,-77.26"/>
</g>
<!-- Node16 -->
<g id="node16" class="node">
<title>Node16</title>
<g id="a_node16"><a xlink:href="IStatusIndicator_8hpp.xhtml" target="_top" xlink:title=" ">
<polygon fill="white" stroke="#666666" points="1192,-74 1088,-74 1088,-55 1192,-55 1192,-74"/>
<text text-anchor="middle" x="1140" y="-62" font-family="Helvetica,sans-Serif" font-size="10.00">IStatusIndicator.hpp</text>
</a>
</g>
</g>
<!-- Node15&#45;&gt;Node16 -->
<g id="edge17" class="edge">
<title>Node15&#45;&gt;Node16</title>
<path fill="none" stroke="#63b8ff" d="M968.68,-115.12C1003.24,-105.11 1059.59,-88.79 1098.17,-77.62"/>
<polygon fill="#63b8ff" stroke="#63b8ff" points="1098.95,-81.03 1107.58,-74.89 1097,-74.31 1098.95,-81.03"/>
</g>
<!-- Node17 -->
<g id="node17" class="node">
<title>Node17</title>
<g id="a_node17"><a xlink:href="hmi__configuration_8hpp.xhtml" target="_top" xlink:title=" ">
<polygon fill="white" stroke="#666666" points="1070,-74 960,-74 960,-55 1070,-55 1070,-74"/>
<text text-anchor="middle" x="1015" y="-62" font-family="Helvetica,sans-Serif" font-size="10.00">hmi_configuration.hpp</text>
</a>
</g>
</g>
<!-- Node15&#45;&gt;Node17 -->
<g id="edge19" class="edge">
<title>Node15&#45;&gt;Node17</title>
<path fill="none" stroke="#63b8ff" d="M949.69,-115.12C961.45,-106.18 979.84,-92.22 994.11,-81.37"/>
<polygon fill="#63b8ff" stroke="#63b8ff" points="996.14,-84.22 1001.99,-75.38 991.91,-78.65 996.14,-84.22"/>
</g>
<!-- Node18 -->
<g id="node18" class="node">
<title>Node18</title>
<g id="a_node18"><a xlink:title=" ">
<polygon fill="#e0e0e0" stroke="#999999" points="997.5,-19 948.5,-19 948.5,0 997.5,0 997.5,-19"/>
<text text-anchor="middle" x="973" y="-7" font-family="Helvetica,sans-Serif" font-size="10.00">cstddef</text>
</a>
</g>
</g>
<!-- Node15&#45;&gt;Node18 -->
<g id="edge21" class="edge">
<title>Node15&#45;&gt;Node18</title>
<path fill="none" stroke="#63b8ff" d="M938.87,-115.31C940.36,-102.04 943.96,-76.04 951,-55 953.9,-46.32 958.18,-37.19 962.19,-29.47"/>
<polygon fill="#63b8ff" stroke="#63b8ff" points="965.25,-31.18 966.97,-20.72 959.11,-27.82 965.25,-31.18"/>
</g>
<!-- Node17&#45;&gt;Node18 -->
<g id="edge20" class="edge">
<title>Node17&#45;&gt;Node18</title>
<path fill="none" stroke="#63b8ff" d="M1008.06,-54.75C1002.38,-47.58 994.16,-37.2 987.11,-28.3"/>
<polygon fill="#63b8ff" stroke="#63b8ff" points="989.98,-26.29 981.03,-20.63 984.49,-30.64 989.98,-26.29"/>
</g>
<!-- Node20 -->
<g id="node20" class="node">
<title>Node20</title>
<g id="a_node20"><a xlink:href="KeyIds_8hpp.xhtml" target="_top" xlink:title=" ">
<polygon fill="white" stroke="#666666" points="482.5,-74 417.5,-74 417.5,-55 482.5,-55 482.5,-74"/>
<text text-anchor="middle" x="450" y="-62" font-family="Helvetica,sans-Serif" font-size="10.00">KeyIds.hpp</text>
</a>
</g>
</g>
<!-- Node19&#45;&gt;Node20 -->
<g id="edge23" class="edge">
<title>Node19&#45;&gt;Node20</title>
<path fill="none" stroke="#63b8ff" d="M401.82,-109.54C411.02,-101.13 422.64,-90.51 432.17,-81.8"/>
<polygon fill="#63b8ff" stroke="#63b8ff" points="434.37,-84.53 439.39,-75.2 429.65,-79.36 434.37,-84.53"/>
</g>
<!-- Node20&#45;&gt;Node8 -->
<g id="edge24" class="edge">
<title>Node20&#45;&gt;Node8</title>
<path fill="none" stroke="#63b8ff" d="M445.05,-54.75C441.16,-47.88 435.61,-38.08 430.72,-29.45"/>
<polygon fill="#63b8ff" stroke="#63b8ff" points="433.78,-27.74 425.81,-20.76 427.69,-31.19 433.78,-27.74"/>
</g>
<!-- Node21&#45;&gt;Node14 -->
<g id="edge26" class="edge">
<title>Node21&#45;&gt;Node14</title>
<path fill="none" stroke="#63b8ff" d="M748.91,-109.56C751.13,-95.29 755.48,-73.05 763,-55 766.86,-45.74 772.56,-36.24 777.81,-28.4"/>
<polygon fill="#63b8ff" stroke="#63b8ff" points="780.51,-30.65 783.4,-20.46 774.78,-26.62 780.51,-30.65"/>
</g>
<!-- Node22&#45;&gt;Node16 -->
<g id="edge28" class="edge">
<title>Node22&#45;&gt;Node16</title>
<path fill="none" stroke="#63b8ff" d="M1117.42,-109.54C1121.33,-101.91 1126.18,-92.46 1130.37,-84.27"/>
<polygon fill="#63b8ff" stroke="#63b8ff" points="1133.41,-86.02 1134.86,-75.52 1127.18,-82.82 1133.41,-86.02"/>
</g>
<!-- Node22&#45;&gt;Node17 -->
<g id="edge29" class="edge">
<title>Node22&#45;&gt;Node17</title>
<path fill="none" stroke="#63b8ff" d="M1086.52,-109.54C1072.1,-100.66 1053.69,-89.32 1039.15,-80.37"/>
<polygon fill="#63b8ff" stroke="#63b8ff" points="1041,-77.4 1030.65,-75.14 1037.33,-83.36 1041,-77.4"/>
</g>
</g>
</svg>
