<?xml version="1.0" encoding="UTF-8" standalone="no"?>
<!DOCTYPE svg PUBLIC "-//W3C//DTD SVG 1.1//EN"
 "http://www.w3.org/Graphics/SVG/1.1/DTD/svg11.dtd">
<!-- Generated by graphviz version 7.0.5 (20221223.1930)
 -->
<!-- Title: src/main.cpp Pages: 1 -->
<svg width="875pt" height="148pt"
 viewBox="0.00 0.00 874.50 148.00" xmlns="http://www.w3.org/2000/svg" xmlns:xlink="http://www.w3.org/1999/xlink">
<g id="graph0" class="graph" transform="scale(1 1) rotate(0) translate(4 144)">
<title>src/main.cpp</title>
<!-- Node1 -->
<g id="node1" class="node">
<title>Node1</title>
<g id="a_node1"><a xlink:title=" ">
<polygon fill="#999999" stroke="#666666" points="501,-140 429,-140 429,-121 501,-121 501,-140"/>
<text text-anchor="middle" x="465" y="-128" font-family="Helvetica,sans-Serif" font-size="10.00">src/main.cpp</text>
</a>
</g>
</g>
<!-- Node2 -->
<g id="node2" class="node">
<title>Node2</title>
<g id="a_node2"><a xlink:title=" ">
<polygon fill="#e0e0e0" stroke="#999999" points="483,-19 437,-19 437,0 483,0 483,-19"/>
<text text-anchor="middle" x="460" y="-7" font-family="Helvetica,sans-Serif" font-size="10.00">chrono</text>
</a>
</g>
</g>
<!-- Node1&#45;&gt;Node2 -->
<g id="edge1" class="edge">
<title>Node1&#45;&gt;Node2</title>
<path fill="none" stroke="#63b8ff" d="M464.62,-120.56C463.82,-101.51 461.94,-56.56 460.84,-30.37"/>
<polygon fill="#63b8ff" stroke="#63b8ff" points="464.35,-30.58 460.43,-20.74 457.35,-30.88 464.35,-30.58"/>
</g>
<!-- Node3 -->
<g id="node3" class="node">
<title>Node3</title>
<g id="a_node3"><a xlink:href="Protocol_8hpp.xhtml" target="_top" xlink:title=" ">
<polygon fill="white" stroke="#666666" points="335,-79.5 195,-79.5 195,-60.5 335,-60.5 335,-79.5"/>
<text text-anchor="middle" x="265" y="-67.5" font-family="Helvetica,sans-Serif" font-size="10.00">serial_interface/Protocol.hpp</text>
</a>
</g>
</g>
<!-- Node1&#45;&gt;Node3 -->
<g id="edge2" class="edge">
<title>Node1&#45;&gt;Node3</title>
<path fill="none" stroke="#63b8ff" d="M434.62,-120.62C400.41,-110.61 344.61,-94.29 306.42,-83.12"/>
<polygon fill="#63b8ff" stroke="#63b8ff" points="307.69,-79.84 297.11,-80.39 305.73,-86.56 307.69,-79.84"/>
</g>
<!-- Node4 -->
<g id="node4" class="node">
<title>Node4</title>
<g id="a_node4"><a xlink:href="serial__port__interface_8hpp.xhtml" target="_top" xlink:title=" ">
<polygon fill="white" stroke="#666666" points="176.5,-85 67.5,-85 67.5,-55 176.5,-55 176.5,-85"/>
<text text-anchor="start" x="75.5" y="-73" font-family="Helvetica,sans-Serif" font-size="10.00">serial_interface/serial</text>
<text text-anchor="middle" x="122" y="-62" font-family="Helvetica,sans-Serif" font-size="10.00">_port_interface.hpp</text>
</a>
</g>
</g>
<!-- Node1&#45;&gt;Node4 -->
<g id="edge3" class="edge">
<title>Node1&#45;&gt;Node4</title>
<path fill="none" stroke="#63b8ff" d="M428.77,-124.4C377.53,-117.03 280.7,-102.58 188.05,-85.32"/>
<polygon fill="#63b8ff" stroke="#63b8ff" points="188.73,-81.88 178.26,-83.48 187.44,-88.76 188.73,-81.88"/>
</g>
<!-- Node10 -->
<g id="node10" class="node">
<title>Node10</title>
<g id="a_node10"><a xlink:href="Task_8hpp.xhtml" target="_top" xlink:title=" ">
<polygon fill="white" stroke="#666666" points="436.5,-79.5 353.5,-79.5 353.5,-60.5 436.5,-60.5 436.5,-79.5"/>
<text text-anchor="middle" x="395" y="-67.5" font-family="Helvetica,sans-Serif" font-size="10.00">tasks/Task.hpp</text>
</a>
</g>
</g>
<!-- Node1&#45;&gt;Node10 -->
<g id="edge9" class="edge">
<title>Node1&#45;&gt;Node10</title>
<path fill="none" stroke="#63b8ff" d="M454.37,-120.62C443.78,-111.77 427.29,-97.98 414.37,-87.19"/>
<polygon fill="#63b8ff" stroke="#63b8ff" points="416.81,-84.67 406.89,-80.94 412.32,-90.04 416.81,-84.67"/>
</g>
<!-- Node12 -->
<g id="node12" class="node">
<title>Node12</title>
<g id="a_node12"><a xlink:title=" ">
<polygon fill="#e0e0e0" stroke="#999999" points="537,-79.5 493,-79.5 493,-60.5 537,-60.5 537,-79.5"/>
<text text-anchor="middle" x="515" y="-67.5" font-family="Helvetica,sans-Serif" font-size="10.00">thread</text>
</a>
</g>
</g>
<!-- Node1&#45;&gt;Node12 -->
<g id="edge13" class="edge">
<title>Node1&#45;&gt;Node12</title>
<path fill="none" stroke="#63b8ff" d="M472.38,-120.87C479.69,-112.31 491.09,-98.97 500.26,-88.24"/>
<polygon fill="#63b8ff" stroke="#63b8ff" points="502.77,-90.69 506.61,-80.82 497.45,-86.15 502.77,-90.69"/>
</g>
<!-- Node13 -->
<g id="node13" class="node">
<title>Node13</title>
<g id="a_node13"><a xlink:href="HmiCoordinator_8hpp.xhtml" target="_top" xlink:title=" ">
<polygon fill="white" stroke="#666666" points="729,-79.5 555,-79.5 555,-60.5 729,-60.5 729,-79.5"/>
<text text-anchor="middle" x="642" y="-67.5" font-family="Helvetica,sans-Serif" font-size="10.00">user_interaction/HmiCoordinator.hpp</text>
</a>
</g>
</g>
<!-- Node1&#45;&gt;Node13 -->
<g id="edge14" class="edge">
<title>Node1&#45;&gt;Node13</title>
<path fill="none" stroke="#63b8ff" d="M491.88,-120.62C521.77,-110.74 570.28,-94.71 604.03,-83.55"/>
<polygon fill="#63b8ff" stroke="#63b8ff" points="605.03,-86.9 613.43,-80.44 602.83,-80.26 605.03,-86.9"/>
</g>
<!-- Node14 -->
<g id="node14" class="node">
<title>Node14</title>
<g id="a_node14"><a xlink:href="display__interface_8hpp.xhtml" target="_top" xlink:title=" ">
<polygon fill="white" stroke="#666666" points="866.5,-85 747.5,-85 747.5,-55 866.5,-55 866.5,-85"/>
<text text-anchor="start" x="755.5" y="-73" font-family="Helvetica,sans-Serif" font-size="10.00">user_interaction/display</text>
<text text-anchor="middle" x="807" y="-62" font-family="Helvetica,sans-Serif" font-size="10.00">_interface.hpp</text>
</a>
</g>
</g>
<!-- Node1&#45;&gt;Node14 -->
<g id="edge15" class="edge">
<title>Node1&#45;&gt;Node14</title>
<path fill="none" stroke="#63b8ff" d="M501.29,-124.04C551.57,-116.38 645.53,-101.7 735.9,-85.34"/>
<polygon fill="#63b8ff" stroke="#63b8ff" points="736.49,-88.79 745.7,-83.55 735.23,-81.9 736.49,-88.79"/>
</g>
<!-- Node5 -->
<g id="node5" class="node">
<title>Node5</title>
<g id="a_node5"><a xlink:title=" ">
<polygon fill="#e0e0e0" stroke="#999999" points="108,-19 70,-19 70,0 108,0 108,-19"/>
<text text-anchor="middle" x="89" y="-7" font-family="Helvetica,sans-Serif" font-size="10.00">array</text>
</a>
</g>
</g>
<!-- Node4&#45;&gt;Node5 -->
<g id="edge4" class="edge">
<title>Node4&#45;&gt;Node5</title>
<path fill="none" stroke="#63b8ff" d="M113.84,-54.54C109.49,-46.82 104.09,-37.24 99.43,-28.99"/>
<polygon fill="#63b8ff" stroke="#63b8ff" points="102.6,-27.48 94.64,-20.49 96.5,-30.92 102.6,-27.48"/>
</g>
<!-- Node6 -->
<g id="node6" class="node">
<title>Node6</title>
<g id="a_node6"><a xlink:title=" ">
<polygon fill="#e0e0e0" stroke="#999999" points="185.5,-19 126.5,-19 126.5,0 185.5,0 185.5,-19"/>
<text text-anchor="middle" x="156" y="-7" font-family="Helvetica,sans-Serif" font-size="10.00">functional</text>
</a>
</g>
</g>
<!-- Node4&#45;&gt;Node6 -->
<g id="edge5" class="edge">
<title>Node4&#45;&gt;Node6</title>
<path fill="none" stroke="#63b8ff" d="M130.4,-54.54C134.89,-46.82 140.46,-37.24 145.25,-28.99"/>
<polygon fill="#63b8ff" stroke="#63b8ff" points="148.2,-30.89 150.2,-20.48 142.15,-27.37 148.2,-30.89"/>
</g>
<!-- Node7 -->
<g id="node7" class="node">
<title>Node7</title>
<g id="a_node7"><a xlink:title=" ">
<polygon fill="#e0e0e0" stroke="#999999" points="254,-19 204,-19 204,0 254,0 254,-19"/>
<text text-anchor="middle" x="229" y="-7" font-family="Helvetica,sans-Serif" font-size="10.00">optional</text>
</a>
</g>
</g>
<!-- Node4&#45;&gt;Node7 -->
<g id="edge6" class="edge">
<title>Node4&#45;&gt;Node7</title>
<path fill="none" stroke="#63b8ff" d="M148.45,-54.54C165,-45.49 186.24,-33.88 202.75,-24.85"/>
<polygon fill="#63b8ff" stroke="#63b8ff" points="204.4,-27.94 211.49,-20.07 201.04,-21.8 204.4,-27.94"/>
</g>
<!-- Node8 -->
<g id="node8" class="node">
<title>Node8</title>
<g id="a_node8"><a xlink:title=" ">
<polygon fill="#e0e0e0" stroke="#999999" points="52,-19 0,-19 0,0 52,0 52,-19"/>
<text text-anchor="middle" x="26" y="-7" font-family="Helvetica,sans-Serif" font-size="10.00">ostream</text>
</a>
</g>
</g>
<!-- Node4&#45;&gt;Node8 -->
<g id="edge7" class="edge">
<title>Node4&#45;&gt;Node8</title>
<path fill="none" stroke="#63b8ff" d="M98.27,-54.54C83.56,-45.58 64.73,-34.1 49.98,-25.11"/>
<polygon fill="#63b8ff" stroke="#63b8ff" points="52.17,-22.35 41.81,-20.13 48.53,-28.33 52.17,-22.35"/>
</g>
<!-- Node9 -->
<g id="node9" class="node">
<title>Node9</title>
<g id="a_node9"><a xlink:title=" ">
<polygon fill="#e0e0e0" stroke="#999999" points="336.5,-19 295.5,-19 295.5,0 336.5,0 336.5,-19"/>
<text text-anchor="middle" x="316" y="-7" font-family="Helvetica,sans-Serif" font-size="10.00">string</text>
</a>
</g>
</g>
<!-- Node4&#45;&gt;Node9 -->
<g id="edge8" class="edge">
<title>Node4&#45;&gt;Node9</title>
<path fill="none" stroke="#63b8ff" d="M169.96,-54.54C205.57,-43.8 253.17,-29.45 284.19,-20.09"/>
<polygon fill="#63b8ff" stroke="#63b8ff" points="285.2,-23.44 293.76,-17.21 283.18,-16.74 285.2,-23.44"/>
</g>
<!-- Node10&#45;&gt;Node2 -->
<g id="edge10" class="edge">
<title>Node10&#45;&gt;Node2</title>
<path fill="none" stroke="#63b8ff" d="M404.87,-60.12C414.61,-51.35 429.72,-37.75 441.66,-27"/>
<polygon fill="#63b8ff" stroke="#63b8ff" points="443.82,-29.77 448.91,-20.48 439.14,-24.57 443.82,-29.77"/>
</g>
<!-- Node10&#45;&gt;Node9 -->
<g id="edge12" class="edge">
<title>Node10&#45;&gt;Node9</title>
<path fill="none" stroke="#63b8ff" d="M383,-60.12C370.82,-51.1 351.71,-36.95 337.02,-26.06"/>
<polygon fill="#63b8ff" stroke="#63b8ff" points="339.45,-23.51 329.33,-20.37 335.28,-29.13 339.45,-23.51"/>
</g>
<!-- Node11 -->
<g id="node11" class="node">
<title>Node11</title>
<g id="a_node11"><a xlink:title=" ">
<polygon fill="#e0e0e0" stroke="#999999" points="412.5,-19 377.5,-19 377.5,0 412.5,0 412.5,-19"/>
<text text-anchor="middle" x="395" y="-7" font-family="Helvetica,sans-Serif" font-size="10.00">map</text>
</a>
</g>
</g>
<!-- Node10&#45;&gt;Node11 -->
<g id="edge11" class="edge">
<title>Node10&#45;&gt;Node11</title>
<path fill="none" stroke="#63b8ff" d="M395,-60.37C395,-52.5 395,-40.6 395,-30.39"/>
<polygon fill="#63b8ff" stroke="#63b8ff" points="398.5,-30.68 395,-20.68 391.5,-30.68 398.5,-30.68"/>
</g>
</g>
</svg>
