<?xml version="1.0" encoding="UTF-8" standalone="no"?>
<!DOCTYPE svg PUBLIC "-//W3C//DTD SVG 1.1//EN"
 "http://www.w3.org/Graphics/SVG/1.1/DTD/svg11.dtd">
<!-- Generated by graphviz version 7.0.5 (20221223.1930)
 -->
<!-- Title: src/main.cpp Pages: 1 -->
<svg width="554pt" height="137pt"
 viewBox="0.00 0.00 553.50 137.00" xmlns="http://www.w3.org/2000/svg" xmlns:xlink="http://www.w3.org/1999/xlink">
<g id="graph0" class="graph" transform="scale(1 1) rotate(0) translate(4 133)">
<title>src/main.cpp</title>
<!-- Node1 -->
<g id="node1" class="node">
<title>Node1</title>
<g id="a_node1"><a xlink:title=" ">
<polygon fill="#999999" stroke="#666666" points="246,-129 174,-129 174,-110 246,-110 246,-129"/>
<text text-anchor="middle" x="210" y="-117" font-family="Helvetica,sans-Serif" font-size="10.00">src/main.cpp</text>
</a>
</g>
</g>
<!-- Node2 -->
<g id="node2" class="node">
<title>Node2</title>
<g id="a_node2"><a xlink:href="board__pins_8hpp.xhtml" target="_top" xlink:title="Provides named objects for the pins provided by the board.">
<polygon fill="white" stroke="#666666" points="82,-74 0,-74 0,-55 82,-55 82,-74"/>
<text text-anchor="middle" x="41" y="-62" font-family="Helvetica,sans-Serif" font-size="10.00">board_pins.hpp</text>
</a>
</g>
</g>
<!-- Node1&#45;&gt;Node2 -->
<g id="edge1" class="edge">
<title>Node1&#45;&gt;Node2</title>
<path fill="none" stroke="#63b8ff" d="M181.33,-109.51C153.57,-100.8 111.25,-87.53 80.35,-77.84"/>
<polygon fill="#63b8ff" stroke="#63b8ff" points="81.56,-74.55 70.97,-74.9 79.47,-81.23 81.56,-74.55"/>
</g>
<!-- Node3 -->
<g id="node3" class="node">
<title>Node3</title>
<g id="a_node3"><a xlink:title=" ">
<polygon fill="#e0e0e0" stroke="#999999" points="133,-19 87,-19 87,0 133,0 133,-19"/>
<text text-anchor="middle" x="110" y="-7" font-family="Helvetica,sans-Serif" font-size="10.00">cstdint</text>
</a>
</g>
</g>
<!-- Node1&#45;&gt;Node3 -->
<g id="edge14" class="edge">
<title>Node1&#45;&gt;Node3</title>
<path fill="none" stroke="#63b8ff" d="M182.33,-109.52C164.72,-102.47 142.71,-90.97 129,-74 118.92,-61.53 114.19,-43.82 111.96,-30.27"/>
<polygon fill="#63b8ff" stroke="#63b8ff" points="115.49,-30.24 110.74,-20.77 108.55,-31.13 115.49,-30.24"/>
</g>
<!-- Node4 -->
<g id="node4" class="node">
<title>Node4</title>
<g id="a_node4"><a xlink:href="display_8h.xhtml" target="_top" xlink:title=" ">
<polygon fill="white" stroke="#666666" points="276,-74 222,-74 222,-55 276,-55 276,-74"/>
<text text-anchor="middle" x="249" y="-62" font-family="Helvetica,sans-Serif" font-size="10.00">display.h</text>
</a>
</g>
</g>
<!-- Node1&#45;&gt;Node4 -->
<g id="edge3" class="edge">
<title>Node1&#45;&gt;Node4</title>
<path fill="none" stroke="#63b8ff" d="M216.44,-109.75C221.66,-102.66 229.19,-92.42 235.69,-83.59"/>
<polygon fill="#63b8ff" stroke="#63b8ff" points="238.42,-85.79 241.52,-75.66 232.78,-81.64 238.42,-85.79"/>
</g>
<!-- Node6 -->
<g id="node6" class="node">
<title>Node6</title>
<g id="a_node6"><a xlink:href="pitches_8hpp.xhtml" target="_top" xlink:title=" ">
<polygon fill="white" stroke="#666666" points="204,-74 138,-74 138,-55 204,-55 204,-74"/>
<text text-anchor="middle" x="171" y="-62" font-family="Helvetica,sans-Serif" font-size="10.00">pitches.hpp</text>
</a>
</g>
</g>
<!-- Node1&#45;&gt;Node6 -->
<g id="edge5" class="edge">
<title>Node1&#45;&gt;Node6</title>
<path fill="none" stroke="#63b8ff" d="M203.56,-109.75C198.34,-102.66 190.81,-92.42 184.31,-83.59"/>
<polygon fill="#63b8ff" stroke="#63b8ff" points="187.22,-81.64 178.48,-75.66 181.58,-85.79 187.22,-81.64"/>
</g>
<!-- Node7 -->
<g id="node7" class="node">
<title>Node7</title>
<g id="a_node7"><a xlink:href="serial__port_8hpp.xhtml" target="_top" xlink:title=" ">
<polygon fill="white" stroke="#666666" points="374,-74 294,-74 294,-55 374,-55 374,-74"/>
<text text-anchor="middle" x="334" y="-62" font-family="Helvetica,sans-Serif" font-size="10.00">serial_port.hpp</text>
</a>
</g>
</g>
<!-- Node1&#45;&gt;Node7 -->
<g id="edge7" class="edge">
<title>Node1&#45;&gt;Node7</title>
<path fill="none" stroke="#63b8ff" d="M231.03,-109.51C250.75,-101.08 280.47,-88.38 302.91,-78.79"/>
<polygon fill="#63b8ff" stroke="#63b8ff" points="304.06,-82.1 311.88,-74.95 301.31,-75.66 304.06,-82.1"/>
</g>
<!-- Node13 -->
<g id="node13" class="node">
<title>Node13</title>
<g id="a_node13"><a xlink:title=" ">
<polygon fill="#e0e0e0" stroke="#999999" points="449.5,-74 392.5,-74 392.5,-55 449.5,-55 449.5,-74"/>
<text text-anchor="middle" x="421" y="-62" font-family="Helvetica,sans-Serif" font-size="10.00">Arduino.h</text>
</a>
</g>
</g>
<!-- Node1&#45;&gt;Node13 -->
<g id="edge13" class="edge">
<title>Node1&#45;&gt;Node13</title>
<path fill="none" stroke="#63b8ff" d="M245.79,-109.51C283.35,-100.07 342.25,-85.28 381.24,-75.49"/>
<polygon fill="#63b8ff" stroke="#63b8ff" points="381.85,-78.94 390.7,-73.11 380.14,-72.15 381.85,-78.94"/>
</g>
<!-- Node2&#45;&gt;Node3 -->
<g id="edge2" class="edge">
<title>Node2&#45;&gt;Node3</title>
<path fill="none" stroke="#63b8ff" d="M52.7,-54.51C62.78,-46.77 77.54,-35.43 89.56,-26.2"/>
<polygon fill="#63b8ff" stroke="#63b8ff" points="91.47,-29.15 97.27,-20.28 87.21,-23.6 91.47,-29.15"/>
</g>
<!-- Node5 -->
<g id="node5" class="node">
<title>Node5</title>
<g id="a_node5"><a xlink:title=" ">
<polygon fill="#e0e0e0" stroke="#999999" points="214,-19 166,-19 166,0 214,0 214,-19"/>
<text text-anchor="middle" x="190" y="-7" font-family="Helvetica,sans-Serif" font-size="10.00">stdint.h</text>
</a>
</g>
</g>
<!-- Node4&#45;&gt;Node5 -->
<g id="edge4" class="edge">
<title>Node4&#45;&gt;Node5</title>
<path fill="none" stroke="#63b8ff" d="M238.99,-54.51C230.63,-47 218.5,-36.1 208.4,-27.03"/>
<polygon fill="#63b8ff" stroke="#63b8ff" points="210.76,-24.45 200.99,-20.37 206.09,-29.66 210.76,-24.45"/>
</g>
<!-- Node6&#45;&gt;Node3 -->
<g id="edge6" class="edge">
<title>Node6&#45;&gt;Node3</title>
<path fill="none" stroke="#63b8ff" d="M160.65,-54.51C151.92,-46.93 139.21,-35.88 128.7,-26.75"/>
<polygon fill="#63b8ff" stroke="#63b8ff" points="131.18,-24.27 121.34,-20.35 126.59,-29.55 131.18,-24.27"/>
</g>
<!-- Node8 -->
<g id="node8" class="node">
<title>Node8</title>
<g id="a_node8"><a xlink:title=" ">
<polygon fill="#e0e0e0" stroke="#999999" points="270,-19 232,-19 232,0 270,0 270,-19"/>
<text text-anchor="middle" x="251" y="-7" font-family="Helvetica,sans-Serif" font-size="10.00">array</text>
</a>
</g>
</g>
<!-- Node7&#45;&gt;Node8 -->
<g id="edge8" class="edge">
<title>Node7&#45;&gt;Node8</title>
<path fill="none" stroke="#63b8ff" d="M319.92,-54.51C307.44,-46.54 288.98,-34.75 274.31,-25.38"/>
<polygon fill="#63b8ff" stroke="#63b8ff" points="276.46,-22.6 266.15,-20.17 272.69,-28.5 276.46,-22.6"/>
</g>
<!-- Node9 -->
<g id="node9" class="node">
<title>Node9</title>
<g id="a_node9"><a xlink:title=" ">
<polygon fill="#e0e0e0" stroke="#999999" points="347.5,-19 288.5,-19 288.5,0 347.5,0 347.5,-19"/>
<text text-anchor="middle" x="318" y="-7" font-family="Helvetica,sans-Serif" font-size="10.00">functional</text>
</a>
</g>
</g>
<!-- Node7&#45;&gt;Node9 -->
<g id="edge9" class="edge">
<title>Node7&#45;&gt;Node9</title>
<path fill="none" stroke="#63b8ff" d="M331.36,-54.75C329.36,-48.11 326.52,-38.73 323.98,-30.31"/>
<polygon fill="#63b8ff" stroke="#63b8ff" points="327.38,-29.45 321.14,-20.89 320.68,-31.48 327.38,-29.45"/>
</g>
<!-- Node10 -->
<g id="node10" class="node">
<title>Node10</title>
<g id="a_node10"><a xlink:title=" ">
<polygon fill="#e0e0e0" stroke="#999999" points="416,-19 366,-19 366,0 416,0 416,-19"/>
<text text-anchor="middle" x="391" y="-7" font-family="Helvetica,sans-Serif" font-size="10.00">optional</text>
</a>
</g>
</g>
<!-- Node7&#45;&gt;Node10 -->
<g id="edge10" class="edge">
<title>Node7&#45;&gt;Node10</title>
<path fill="none" stroke="#63b8ff" d="M343.67,-54.51C351.74,-47 363.47,-36.1 373.22,-27.03"/>
<polygon fill="#63b8ff" stroke="#63b8ff" points="375.43,-29.76 380.37,-20.39 370.66,-24.63 375.43,-29.76"/>
</g>
<!-- Node11 -->
<g id="node11" class="node">
<title>Node11</title>
<g id="a_node11"><a xlink:title=" ">
<polygon fill="#e0e0e0" stroke="#999999" points="486,-19 434,-19 434,0 486,0 486,-19"/>
<text text-anchor="middle" x="460" y="-7" font-family="Helvetica,sans-Serif" font-size="10.00">ostream</text>
</a>
</g>
</g>
<!-- Node7&#45;&gt;Node11 -->
<g id="edge11" class="edge">
<title>Node7&#45;&gt;Node11</title>
<path fill="none" stroke="#63b8ff" d="M355.37,-54.51C375.41,-46.08 405.6,-33.38 428.41,-23.79"/>
<polygon fill="#63b8ff" stroke="#63b8ff" points="429.69,-27.05 437.55,-19.94 426.97,-20.6 429.69,-27.05"/>
</g>
<!-- Node12 -->
<g id="node12" class="node">
<title>Node12</title>
<g id="a_node12"><a xlink:title=" ">
<polygon fill="#e0e0e0" stroke="#999999" points="545.5,-19 504.5,-19 504.5,0 545.5,0 545.5,-19"/>
<text text-anchor="middle" x="525" y="-7" font-family="Helvetica,sans-Serif" font-size="10.00">string</text>
</a>
</g>
</g>
<!-- Node7&#45;&gt;Node12 -->
<g id="edge12" class="edge">
<title>Node7&#45;&gt;Node12</title>
<path fill="none" stroke="#63b8ff" d="M366.7,-54.53C397.02,-46.19 443.66,-33.34 493.1,-19.52"/>
<polygon fill="#63b8ff" stroke="#63b8ff" points="493.88,-22.93 502.57,-16.87 491.99,-16.19 493.88,-22.93"/>
</g>
</g>
</svg>
