<?xml version="1.0" encoding="UTF-8" standalone="no"?>
<!DOCTYPE svg PUBLIC "-//W3C//DTD SVG 1.1//EN"
 "http://www.w3.org/Graphics/SVG/1.1/DTD/svg11.dtd">
<!-- Generated by graphviz version 7.0.5 (20221223.1930)
 -->
<!-- Title: src/main.cpp Pages: 1 -->
<svg width="608pt" height="137pt"
 viewBox="0.00 0.00 607.50 137.00" xmlns="http://www.w3.org/2000/svg" xmlns:xlink="http://www.w3.org/1999/xlink">
<g id="graph0" class="graph" transform="scale(1 1) rotate(0) translate(4 133)">
<title>src/main.cpp</title>
<!-- Node1 -->
<g id="node1" class="node">
<title>Node1</title>
<g id="a_node1"><a xlink:title=" ">
<polygon fill="#999999" stroke="#666666" points="246,-129 174,-129 174,-110 246,-110 246,-129"/>
<text text-anchor="middle" x="210" y="-117" font-family="Helvetica,sans-Serif" font-size="10.00">src/main.cpp</text>
</a>
</g>
</g>
<!-- Node2 -->
<g id="node2" class="node">
<title>Node2</title>
<g id="a_node2"><a xlink:href="board__pins_8hpp.xhtml" target="_top" xlink:title="Provides named objects for the pins provided by the board.">
<polygon fill="white" stroke="#666666" points="82,-74 0,-74 0,-55 82,-55 82,-74"/>
<text text-anchor="middle" x="41" y="-62" font-family="Helvetica,sans-Serif" font-size="10.00">board_pins.hpp</text>
</a>
</g>
</g>
<!-- Node1&#45;&gt;Node2 -->
<g id="edge1" class="edge">
<title>Node1&#45;&gt;Node2</title>
<path fill="none" stroke="#63b8ff" d="M181.33,-109.51C153.57,-100.8 111.25,-87.53 80.35,-77.84"/>
<polygon fill="#63b8ff" stroke="#63b8ff" points="81.56,-74.55 70.97,-74.9 79.47,-81.23 81.56,-74.55"/>
</g>
<!-- Node3 -->
<g id="node3" class="node">
<title>Node3</title>
<g id="a_node3"><a xlink:title=" ">
<polygon fill="#e0e0e0" stroke="#999999" points="133,-19 87,-19 87,0 133,0 133,-19"/>
<text text-anchor="middle" x="110" y="-7" font-family="Helvetica,sans-Serif" font-size="10.00">cstdint</text>
</a>
</g>
</g>
<!-- Node1&#45;&gt;Node3 -->
<g id="edge8" class="edge">
<title>Node1&#45;&gt;Node3</title>
<path fill="none" stroke="#63b8ff" d="M182.33,-109.52C164.72,-102.47 142.71,-90.97 129,-74 118.92,-61.53 114.19,-43.82 111.96,-30.27"/>
<polygon fill="#63b8ff" stroke="#63b8ff" points="115.49,-30.24 110.74,-20.77 108.55,-31.13 115.49,-30.24"/>
</g>
<!-- Node4 -->
<g id="node4" class="node">
<title>Node4</title>
<g id="a_node4"><a xlink:href="display_8h.xhtml" target="_top" xlink:title=" ">
<polygon fill="white" stroke="#666666" points="276,-74 222,-74 222,-55 276,-55 276,-74"/>
<text text-anchor="middle" x="249" y="-62" font-family="Helvetica,sans-Serif" font-size="10.00">display.h</text>
</a>
</g>
</g>
<!-- Node1&#45;&gt;Node4 -->
<g id="edge3" class="edge">
<title>Node1&#45;&gt;Node4</title>
<path fill="none" stroke="#63b8ff" d="M216.44,-109.75C221.66,-102.66 229.19,-92.42 235.69,-83.59"/>
<polygon fill="#63b8ff" stroke="#63b8ff" points="238.42,-85.79 241.52,-75.66 232.78,-81.64 238.42,-85.79"/>
</g>
<!-- Node6 -->
<g id="node6" class="node">
<title>Node6</title>
<g id="a_node6"><a xlink:href="pitches_8hpp.xhtml" target="_top" xlink:title=" ">
<polygon fill="white" stroke="#666666" points="204,-74 138,-74 138,-55 204,-55 204,-74"/>
<text text-anchor="middle" x="171" y="-62" font-family="Helvetica,sans-Serif" font-size="10.00">pitches.hpp</text>
</a>
</g>
</g>
<!-- Node1&#45;&gt;Node6 -->
<g id="edge5" class="edge">
<title>Node1&#45;&gt;Node6</title>
<path fill="none" stroke="#63b8ff" d="M203.56,-109.75C198.34,-102.66 190.81,-92.42 184.31,-83.59"/>
<polygon fill="#63b8ff" stroke="#63b8ff" points="187.22,-81.64 178.48,-75.66 181.58,-85.79 187.22,-81.64"/>
</g>
<!-- Node7 -->
<g id="node7" class="node">
<title>Node7</title>
<g id="a_node7"><a xlink:title=" ">
<polygon fill="#e0e0e0" stroke="#999999" points="351.5,-74 294.5,-74 294.5,-55 351.5,-55 351.5,-74"/>
<text text-anchor="middle" x="323" y="-62" font-family="Helvetica,sans-Serif" font-size="10.00">Arduino.h</text>
</a>
</g>
</g>
<!-- Node1&#45;&gt;Node7 -->
<g id="edge7" class="edge">
<title>Node1&#45;&gt;Node7</title>
<path fill="none" stroke="#63b8ff" d="M229.17,-109.51C246.89,-101.2 273.48,-88.73 293.83,-79.18"/>
<polygon fill="#63b8ff" stroke="#63b8ff" points="295.18,-82.42 302.74,-75 292.2,-76.08 295.18,-82.42"/>
</g>
<!-- Node8 -->
<g id="node8" class="node">
<title>Node8</title>
<g id="a_node8"><a xlink:href="serial__port__interface_8hpp.xhtml" target="_top" xlink:title=" ">
<polygon fill="white" stroke="#666666" points="501,-74 379,-74 379,-55 501,-55 501,-74"/>
<text text-anchor="middle" x="440" y="-62" font-family="Helvetica,sans-Serif" font-size="10.00">serial_port_interface.hpp</text>
</a>
</g>
</g>
<!-- Node1&#45;&gt;Node8 -->
<g id="edge9" class="edge">
<title>Node1&#45;&gt;Node8</title>
<path fill="none" stroke="#63b8ff" d="M246.44,-110.1C285.16,-101.18 346.64,-87.01 389.9,-77.04"/>
<polygon fill="#63b8ff" stroke="#63b8ff" points="390.6,-80.47 399.56,-74.82 389.03,-73.65 390.6,-80.47"/>
</g>
<!-- Node2&#45;&gt;Node3 -->
<g id="edge2" class="edge">
<title>Node2&#45;&gt;Node3</title>
<path fill="none" stroke="#63b8ff" d="M52.7,-54.51C62.78,-46.77 77.54,-35.43 89.56,-26.2"/>
<polygon fill="#63b8ff" stroke="#63b8ff" points="91.47,-29.15 97.27,-20.28 87.21,-23.6 91.47,-29.15"/>
</g>
<!-- Node5 -->
<g id="node5" class="node">
<title>Node5</title>
<g id="a_node5"><a xlink:title=" ">
<polygon fill="#e0e0e0" stroke="#999999" points="268,-19 220,-19 220,0 268,0 268,-19"/>
<text text-anchor="middle" x="244" y="-7" font-family="Helvetica,sans-Serif" font-size="10.00">stdint.h</text>
</a>
</g>
</g>
<!-- Node4&#45;&gt;Node5 -->
<g id="edge4" class="edge">
<title>Node4&#45;&gt;Node5</title>
<path fill="none" stroke="#63b8ff" d="M248.17,-54.75C247.56,-48.27 246.7,-39.16 245.92,-30.9"/>
<polygon fill="#63b8ff" stroke="#63b8ff" points="249.41,-30.58 244.99,-20.95 242.44,-31.23 249.41,-30.58"/>
</g>
<!-- Node6&#45;&gt;Node3 -->
<g id="edge6" class="edge">
<title>Node6&#45;&gt;Node3</title>
<path fill="none" stroke="#63b8ff" d="M160.65,-54.51C151.92,-46.93 139.21,-35.88 128.7,-26.75"/>
<polygon fill="#63b8ff" stroke="#63b8ff" points="131.18,-24.27 121.34,-20.35 126.59,-29.55 131.18,-24.27"/>
</g>
<!-- Node9 -->
<g id="node9" class="node">
<title>Node9</title>
<g id="a_node9"><a xlink:title=" ">
<polygon fill="#e0e0e0" stroke="#999999" points="324,-19 286,-19 286,0 324,0 324,-19"/>
<text text-anchor="middle" x="305" y="-7" font-family="Helvetica,sans-Serif" font-size="10.00">array</text>
</a>
</g>
</g>
<!-- Node8&#45;&gt;Node9 -->
<g id="edge10" class="edge">
<title>Node8&#45;&gt;Node9</title>
<path fill="none" stroke="#63b8ff" d="M417.1,-54.51C394.4,-45.6 359.51,-31.9 334.69,-22.16"/>
<polygon fill="#63b8ff" stroke="#63b8ff" points="336.07,-18.94 325.49,-18.54 333.52,-25.46 336.07,-18.94"/>
</g>
<!-- Node10 -->
<g id="node10" class="node">
<title>Node10</title>
<g id="a_node10"><a xlink:title=" ">
<polygon fill="#e0e0e0" stroke="#999999" points="401.5,-19 342.5,-19 342.5,0 401.5,0 401.5,-19"/>
<text text-anchor="middle" x="372" y="-7" font-family="Helvetica,sans-Serif" font-size="10.00">functional</text>
</a>
</g>
</g>
<!-- Node8&#45;&gt;Node10 -->
<g id="edge11" class="edge">
<title>Node8&#45;&gt;Node10</title>
<path fill="none" stroke="#63b8ff" d="M428.46,-54.51C418.54,-46.77 403.99,-35.43 392.14,-26.2"/>
<polygon fill="#63b8ff" stroke="#63b8ff" points="394.6,-23.68 384.56,-20.29 390.29,-29.2 394.6,-23.68"/>
</g>
<!-- Node11 -->
<g id="node11" class="node">
<title>Node11</title>
<g id="a_node11"><a xlink:title=" ">
<polygon fill="#e0e0e0" stroke="#999999" points="470,-19 420,-19 420,0 470,0 470,-19"/>
<text text-anchor="middle" x="445" y="-7" font-family="Helvetica,sans-Serif" font-size="10.00">optional</text>
</a>
</g>
</g>
<!-- Node8&#45;&gt;Node11 -->
<g id="edge12" class="edge">
<title>Node8&#45;&gt;Node11</title>
<path fill="none" stroke="#63b8ff" d="M440.83,-54.75C441.44,-48.27 442.3,-39.16 443.08,-30.9"/>
<polygon fill="#63b8ff" stroke="#63b8ff" points="446.56,-31.23 444.01,-20.95 439.59,-30.58 446.56,-31.23"/>
</g>
<!-- Node12 -->
<g id="node12" class="node">
<title>Node12</title>
<g id="a_node12"><a xlink:title=" ">
<polygon fill="#e0e0e0" stroke="#999999" points="540,-19 488,-19 488,0 540,0 540,-19"/>
<text text-anchor="middle" x="514" y="-7" font-family="Helvetica,sans-Serif" font-size="10.00">ostream</text>
</a>
</g>
</g>
<!-- Node8&#45;&gt;Node12 -->
<g id="edge13" class="edge">
<title>Node8&#45;&gt;Node12</title>
<path fill="none" stroke="#63b8ff" d="M452.55,-54.51C463.46,-46.7 479.5,-35.21 492.46,-25.93"/>
<polygon fill="#63b8ff" stroke="#63b8ff" points="494.31,-28.91 500.4,-20.24 490.23,-23.22 494.31,-28.91"/>
</g>
<!-- Node13 -->
<g id="node13" class="node">
<title>Node13</title>
<g id="a_node13"><a xlink:title=" ">
<polygon fill="#e0e0e0" stroke="#999999" points="599.5,-19 558.5,-19 558.5,0 599.5,0 599.5,-19"/>
<text text-anchor="middle" x="579" y="-7" font-family="Helvetica,sans-Serif" font-size="10.00">string</text>
</a>
</g>
</g>
<!-- Node8&#45;&gt;Node13 -->
<g id="edge14" class="edge">
<title>Node8&#45;&gt;Node13</title>
<path fill="none" stroke="#63b8ff" d="M463.58,-54.51C486.65,-45.71 521.95,-32.25 547.44,-22.53"/>
<polygon fill="#63b8ff" stroke="#63b8ff" points="548.53,-25.87 556.62,-19.03 546.03,-19.32 548.53,-25.87"/>
</g>
</g>
</svg>
