<?xml version="1.0" encoding="UTF-8" standalone="no"?>
<!DOCTYPE svg PUBLIC "-//W3C//DTD SVG 1.1//EN"
 "http://www.w3.org/Graphics/SVG/1.1/DTD/svg11.dtd">
<!-- Generated by graphviz version 7.0.5 (20221223.1930)
 -->
<!-- Title: src/main.cpp Pages: 1 -->
<svg width="715pt" height="159pt"
 viewBox="0.00 0.00 715.00 159.00" xmlns="http://www.w3.org/2000/svg" xmlns:xlink="http://www.w3.org/1999/xlink">
<g id="graph0" class="graph" transform="scale(1 1) rotate(0) translate(4 155)">
<title>src/main.cpp</title>
<!-- Node1 -->
<g id="node1" class="node">
<title>Node1</title>
<g id="a_node1"><a xlink:title=" ">
<polygon fill="#999999" stroke="#666666" points="287,-151 215,-151 215,-132 287,-132 287,-151"/>
<text text-anchor="middle" x="251" y="-139" font-family="Helvetica,sans-Serif" font-size="10.00">src/main.cpp</text>
</a>
</g>
</g>
<!-- Node2 -->
<g id="node2" class="node">
<title>Node2</title>
<g id="a_node2"><a xlink:href="board__pins_8hpp.xhtml" target="_top" xlink:title="Provides named objects for the pins provided by the board.">
<polygon fill="white" stroke="#666666" points="82,-85 0,-85 0,-66 82,-66 82,-85"/>
<text text-anchor="middle" x="41" y="-73" font-family="Helvetica,sans-Serif" font-size="10.00">board_pins.hpp</text>
</a>
</g>
</g>
<!-- Node1&#45;&gt;Node2 -->
<g id="edge1" class="edge">
<title>Node1&#45;&gt;Node2</title>
<path fill="none" stroke="#63b8ff" d="M217.56,-131.54C186.05,-122.94 137.59,-109.33 96,-96 89.51,-93.92 82.63,-91.59 76.02,-89.28"/>
<polygon fill="#63b8ff" stroke="#63b8ff" points="77.28,-86.01 66.69,-85.97 74.94,-92.61 77.28,-86.01"/>
</g>
<!-- Node3 -->
<g id="node3" class="node">
<title>Node3</title>
<g id="a_node3"><a xlink:title=" ">
<polygon fill="#e0e0e0" stroke="#999999" points="133,-19 87,-19 87,0 133,0 133,-19"/>
<text text-anchor="middle" x="110" y="-7" font-family="Helvetica,sans-Serif" font-size="10.00">cstdint</text>
</a>
</g>
</g>
<!-- Node1&#45;&gt;Node3 -->
<g id="edge7" class="edge">
<title>Node1&#45;&gt;Node3</title>
<path fill="none" stroke="#63b8ff" d="M214.52,-136.57C187.08,-131.67 150.63,-120.67 129,-96 113.28,-78.07 109.69,-50.03 109.27,-30.99"/>
<polygon fill="#63b8ff" stroke="#63b8ff" points="112.77,-31.02 109.36,-20.99 105.77,-30.96 112.77,-31.02"/>
</g>
<!-- Node4 -->
<g id="node4" class="node">
<title>Node4</title>
<g id="a_node4"><a xlink:href="pitches_8hpp.xhtml" target="_top" xlink:title=" ">
<polygon fill="white" stroke="#666666" points="204,-85 138,-85 138,-66 204,-66 204,-85"/>
<text text-anchor="middle" x="171" y="-73" font-family="Helvetica,sans-Serif" font-size="10.00">pitches.hpp</text>
</a>
</g>
</g>
<!-- Node1&#45;&gt;Node4 -->
<g id="edge3" class="edge">
<title>Node1&#45;&gt;Node4</title>
<path fill="none" stroke="#63b8ff" d="M239.88,-131.6C227.22,-121.48 206.3,-104.74 190.83,-92.37"/>
<polygon fill="#63b8ff" stroke="#63b8ff" points="193.21,-89.78 183.21,-86.27 188.83,-95.25 193.21,-89.78"/>
</g>
<!-- Node5 -->
<g id="node5" class="node">
<title>Node5</title>
<g id="a_node5"><a xlink:title=" ">
<polygon fill="#e0e0e0" stroke="#999999" points="279.5,-85 222.5,-85 222.5,-66 279.5,-66 279.5,-85"/>
<text text-anchor="middle" x="251" y="-73" font-family="Helvetica,sans-Serif" font-size="10.00">Arduino.h</text>
</a>
</g>
</g>
<!-- Node1&#45;&gt;Node5 -->
<g id="edge5" class="edge">
<title>Node1&#45;&gt;Node5</title>
<path fill="none" stroke="#63b8ff" d="M251,-131.6C251,-122.62 251,-108.45 251,-96.72"/>
<polygon fill="#63b8ff" stroke="#63b8ff" points="254.5,-96.84 251,-86.84 247.5,-96.84 254.5,-96.84"/>
</g>
<!-- Node6 -->
<g id="node6" class="node">
<title>Node6</title>
<g id="a_node6"><a xlink:href="HmiCoordinator_8hpp.xhtml" target="_top" xlink:title=" ">
<polygon fill="white" stroke="#666666" points="400,-85 298,-85 298,-66 400,-66 400,-85"/>
<text text-anchor="middle" x="349" y="-73" font-family="Helvetica,sans-Serif" font-size="10.00">HmiCoordinator.hpp</text>
</a>
</g>
</g>
<!-- Node1&#45;&gt;Node6 -->
<g id="edge6" class="edge">
<title>Node1&#45;&gt;Node6</title>
<path fill="none" stroke="#63b8ff" d="M264.63,-131.6C280.5,-121.24 306.97,-103.95 326.03,-91.5"/>
<polygon fill="#63b8ff" stroke="#63b8ff" points="327.76,-94.55 334.22,-86.15 323.94,-88.69 327.76,-94.55"/>
</g>
<!-- Node7 -->
<g id="node7" class="node">
<title>Node7</title>
<g id="a_node7"><a xlink:href="serial__port__interface_8hpp.xhtml" target="_top" xlink:title=" ">
<polygon fill="white" stroke="#666666" points="540,-85 418,-85 418,-66 540,-66 540,-85"/>
<text text-anchor="middle" x="479" y="-73" font-family="Helvetica,sans-Serif" font-size="10.00">serial_port_interface.hpp</text>
</a>
</g>
</g>
<!-- Node1&#45;&gt;Node7 -->
<g id="edge8" class="edge">
<title>Node1&#45;&gt;Node7</title>
<path fill="none" stroke="#63b8ff" d="M282.7,-131.6C322.66,-120.38 391.51,-101.06 436.13,-88.53"/>
<polygon fill="#63b8ff" stroke="#63b8ff" points="437.06,-91.91 445.74,-85.84 435.17,-85.17 437.06,-91.91"/>
</g>
<!-- Node13 -->
<g id="node13" class="node">
<title>Node13</title>
<g id="a_node13"><a xlink:href="display__interface_8hpp.xhtml" target="_top" xlink:title=" ">
<polygon fill="white" stroke="#666666" points="707,-96 587,-96 587,-55 707,-55 707,-96"/>
<text text-anchor="start" x="595" y="-84" font-family="Helvetica,sans-Serif" font-size="10.00">../lib/application</text>
<text text-anchor="start" x="595" y="-73" font-family="Helvetica,sans-Serif" font-size="10.00">_business_rules/display</text>
<text text-anchor="middle" x="647" y="-62" font-family="Helvetica,sans-Serif" font-size="10.00">_interface.hpp</text>
</a>
</g>
</g>
<!-- Node1&#45;&gt;Node13 -->
<g id="edge14" class="edge">
<title>Node1&#45;&gt;Node13</title>
<path fill="none" stroke="#63b8ff" d="M287.33,-135.65C343.55,-128.02 454.95,-112.37 549,-96 557.59,-94.5 566.59,-92.84 575.5,-91.14"/>
<polygon fill="#63b8ff" stroke="#63b8ff" points="576.07,-94.6 585.22,-89.26 574.74,-87.73 576.07,-94.6"/>
</g>
<!-- Node2&#45;&gt;Node3 -->
<g id="edge2" class="edge">
<title>Node2&#45;&gt;Node3</title>
<path fill="none" stroke="#63b8ff" d="M50.59,-65.6C61.31,-55.67 78.87,-39.37 92.13,-27.07"/>
<polygon fill="#63b8ff" stroke="#63b8ff" points="94.43,-29.72 99.38,-20.35 89.67,-24.59 94.43,-29.72"/>
</g>
<!-- Node4&#45;&gt;Node3 -->
<g id="edge4" class="edge">
<title>Node4&#45;&gt;Node3</title>
<path fill="none" stroke="#63b8ff" d="M162.52,-65.6C153.14,-55.76 137.82,-39.68 126.13,-27.43"/>
<polygon fill="#63b8ff" stroke="#63b8ff" points="128.89,-25.24 119.45,-20.42 123.82,-30.07 128.89,-25.24"/>
</g>
<!-- Node8 -->
<g id="node8" class="node">
<title>Node8</title>
<g id="a_node8"><a xlink:title=" ">
<polygon fill="#e0e0e0" stroke="#999999" points="343,-19 305,-19 305,0 343,0 343,-19"/>
<text text-anchor="middle" x="324" y="-7" font-family="Helvetica,sans-Serif" font-size="10.00">array</text>
</a>
</g>
</g>
<!-- Node7&#45;&gt;Node8 -->
<g id="edge9" class="edge">
<title>Node7&#45;&gt;Node8</title>
<path fill="none" stroke="#63b8ff" d="M457.45,-65.6C430.48,-54.47 384.16,-35.34 353.81,-22.81"/>
<polygon fill="#63b8ff" stroke="#63b8ff" points="355.39,-19.68 344.81,-19.09 352.72,-26.15 355.39,-19.68"/>
</g>
<!-- Node9 -->
<g id="node9" class="node">
<title>Node9</title>
<g id="a_node9"><a xlink:title=" ">
<polygon fill="#e0e0e0" stroke="#999999" points="420.5,-19 361.5,-19 361.5,0 420.5,0 420.5,-19"/>
<text text-anchor="middle" x="391" y="-7" font-family="Helvetica,sans-Serif" font-size="10.00">functional</text>
</a>
</g>
</g>
<!-- Node7&#45;&gt;Node9 -->
<g id="edge10" class="edge">
<title>Node7&#45;&gt;Node9</title>
<path fill="none" stroke="#63b8ff" d="M466.76,-65.6C452.71,-55.38 429.4,-38.43 412.34,-26.02"/>
<polygon fill="#63b8ff" stroke="#63b8ff" points="414.5,-23.26 404.36,-20.21 410.38,-28.93 414.5,-23.26"/>
</g>
<!-- Node10 -->
<g id="node10" class="node">
<title>Node10</title>
<g id="a_node10"><a xlink:title=" ">
<polygon fill="#e0e0e0" stroke="#999999" points="489,-19 439,-19 439,0 489,0 489,-19"/>
<text text-anchor="middle" x="464" y="-7" font-family="Helvetica,sans-Serif" font-size="10.00">optional</text>
</a>
</g>
</g>
<!-- Node7&#45;&gt;Node10 -->
<g id="edge11" class="edge">
<title>Node7&#45;&gt;Node10</title>
<path fill="none" stroke="#63b8ff" d="M476.91,-65.6C474.79,-56.53 471.42,-42.14 468.65,-30.35"/>
<polygon fill="#63b8ff" stroke="#63b8ff" points="472.1,-29.73 466.41,-20.8 465.29,-31.33 472.1,-29.73"/>
</g>
<!-- Node11 -->
<g id="node11" class="node">
<title>Node11</title>
<g id="a_node11"><a xlink:title=" ">
<polygon fill="#e0e0e0" stroke="#999999" points="559,-19 507,-19 507,0 559,0 559,-19"/>
<text text-anchor="middle" x="533" y="-7" font-family="Helvetica,sans-Serif" font-size="10.00">ostream</text>
</a>
</g>
</g>
<!-- Node7&#45;&gt;Node11 -->
<g id="edge12" class="edge">
<title>Node7&#45;&gt;Node11</title>
<path fill="none" stroke="#63b8ff" d="M486.51,-65.6C494.73,-55.86 508.11,-40 518.42,-27.79"/>
<polygon fill="#63b8ff" stroke="#63b8ff" points="520.81,-30.38 524.58,-20.48 515.46,-25.87 520.81,-30.38"/>
</g>
<!-- Node12 -->
<g id="node12" class="node">
<title>Node12</title>
<g id="a_node12"><a xlink:title=" ">
<polygon fill="#e0e0e0" stroke="#999999" points="618.5,-19 577.5,-19 577.5,0 618.5,0 618.5,-19"/>
<text text-anchor="middle" x="598" y="-7" font-family="Helvetica,sans-Serif" font-size="10.00">string</text>
</a>
</g>
</g>
<!-- Node7&#45;&gt;Node12 -->
<g id="edge13" class="edge">
<title>Node7&#45;&gt;Node12</title>
<path fill="none" stroke="#63b8ff" d="M495.55,-65.6C515.26,-55 548.45,-37.15 571.7,-24.65"/>
<polygon fill="#63b8ff" stroke="#63b8ff" points="573.11,-27.86 580.26,-20.04 569.8,-21.69 573.11,-27.86"/>
</g>
<!-- Node14 -->
<g id="node14" class="node">
<title>Node14</title>
<g id="a_node14"><a xlink:title=" ">
<polygon fill="#e0e0e0" stroke="#999999" points="685,-19 637,-19 637,0 685,0 685,-19"/>
<text text-anchor="middle" x="661" y="-7" font-family="Helvetica,sans-Serif" font-size="10.00">stdint.h</text>
</a>
</g>
</g>
<!-- Node13&#45;&gt;Node14 -->
<g id="edge15" class="edge">
<title>Node13&#45;&gt;Node14</title>
<path fill="none" stroke="#63b8ff" d="M651.35,-54.6C653.04,-46.89 654.97,-38.08 656.65,-30.38"/>
<polygon fill="#63b8ff" stroke="#63b8ff" points="660.06,-31.16 658.78,-20.64 653.23,-29.66 660.06,-31.16"/>
</g>
</g>
</svg>
