<?xml version="1.0" encoding="UTF-8" standalone="no"?>
<!DOCTYPE svg PUBLIC "-//W3C//DTD SVG 1.1//EN"
 "http://www.w3.org/Graphics/SVG/1.1/DTD/svg11.dtd">
<!-- Generated by graphviz version 9.0.0 (20230911.1827)
 -->
<!-- Title: lib/layer4_drivers_libraries_adapters/src/OutputShiftRegister_implementation.hpp Pages: 1 -->
<svg width="152pt" height="217pt"
 viewBox="0.00 0.00 152.25 216.50" xmlns="http://www.w3.org/2000/svg" xmlns:xlink="http://www.w3.org/1999/xlink">
<g id="graph0" class="graph" transform="scale(1 1) rotate(0) translate(4 212.5)">
<title>lib/layer4_drivers_libraries_adapters/src/OutputShiftRegister_implementation.hpp</title>
<!-- Node1 -->
<g id="Node000001" class="node">
<title>Node1</title>
<g id="a_Node000001"><a xlink:title=" ">
<polygon fill="#999999" stroke="#666666" points="132.62,-208.5 11.62,-208.5 11.62,-155.5 132.62,-155.5 132.62,-208.5"/>
<text text-anchor="start" x="19.62" y="-195" font-family="Helvetica,sans-Serif" font-size="10.00">lib/layer4_drivers</text>
<text text-anchor="start" x="19.62" y="-183.75" font-family="Helvetica,sans-Serif" font-size="10.00">_libraries_adapters</text>
<text text-anchor="start" x="19.62" y="-172.5" font-family="Helvetica,sans-Serif" font-size="10.00">/src/OutputShiftRegister</text>
<text text-anchor="middle" x="72.12" y="-161.25" font-family="Helvetica,sans-Serif" font-size="10.00">_implementation.hpp</text>
</a>
</g>
</g>
<!-- Node2 -->
<g id="Node000002" class="node">
<title>Node2</title>
<g id="a_Node000002"><a xlink:href="OutputShiftRegister_8hpp.xhtml" target="_top" xlink:title=" ">
<polygon fill="white" stroke="#666666" points="141.62,-119.5 2.62,-119.5 2.62,-77.75 141.62,-77.75 141.62,-119.5"/>
<text text-anchor="start" x="10.62" y="-106" font-family="Helvetica,sans-Serif" font-size="10.00">lib/layer4_drivers</text>
<text text-anchor="start" x="10.62" y="-94.75" font-family="Helvetica,sans-Serif" font-size="10.00">_libraries_adapters</text>
<text text-anchor="middle" x="72.12" y="-83.5" font-family="Helvetica,sans-Serif" font-size="10.00">/src/OutputShiftRegister.hpp</text>
</a>
</g>
</g>
<!-- Node1&#45;&gt;Node2 -->
<g id="edge1_Node000001_Node000002" class="edge">
<title>Node1&#45;&gt;Node2</title>
<g id="a_edge1_Node000001_Node000002"><a xlink:title=" ">
<path fill="none" stroke="#63b8ff" d="M65.4,-143.83C65.29,-135.55 65.56,-127.08 66.2,-119.79"/>
<polygon fill="#63b8ff" stroke="#63b8ff" points="61.9,-143.87 65.74,-153.74 68.89,-143.62 61.9,-143.87"/>
</a>
</g>
</g>
<!-- Node2&#45;&gt;Node1 -->
<g id="edge2_Node000002_Node000001" class="edge">
<title>Node2&#45;&gt;Node1</title>
<g id="a_edge2_Node000002_Node000001"><a xlink:title=" ">
<path fill="none" stroke="#63b8ff" d="M78.72,-131.02C78.99,-139.03 78.91,-147.56 78.45,-155.25"/>
<polygon fill="#63b8ff" stroke="#63b8ff" points="82.23,-131.08 78.14,-121.3 75.24,-131.49 82.23,-131.08"/>
</a>
</g>
</g>
<!-- Node3 -->
<g id="Node000003" class="node">
<title>Node3</title>
<g id="a_Node000003"><a xlink:href="osr__factory__interface_8cpp.xhtml" target="_top" xlink:title=" ">
<polygon fill="white" stroke="#666666" points="144.25,-41.75 0,-41.75 0,0 144.25,0 144.25,-41.75"/>
<text text-anchor="start" x="8" y="-28.25" font-family="Helvetica,sans-Serif" font-size="10.00">lib/layer4_drivers</text>
<text text-anchor="start" x="8" y="-17" font-family="Helvetica,sans-Serif" font-size="10.00">_libraries_adapters</text>
<text text-anchor="middle" x="72.12" y="-5.75" font-family="Helvetica,sans-Serif" font-size="10.00">/src/osr_factory_interface.cpp</text>
</a>
</g>
</g>
<!-- Node2&#45;&gt;Node3 -->
<g id="edge3_Node000002_Node000003" class="edge">
<title>Node2&#45;&gt;Node3</title>
<g id="a_edge3_Node000002_Node000003"><a xlink:title=" ">
<path fill="none" stroke="#63b8ff" d="M72.12,-66C72.12,-57.96 72.12,-49.54 72.12,-42.23"/>
<polygon fill="#63b8ff" stroke="#63b8ff" points="68.63,-65.81 72.13,-75.81 75.63,-65.81 68.63,-65.81"/>
</a>
</g>
</g>
</g>
</svg>
