<?xml version="1.0" encoding="UTF-8" standalone="no"?>
<!DOCTYPE svg PUBLIC "-//W3C//DTD SVG 1.1//EN"
 "http://www.w3.org/Graphics/SVG/1.1/DTD/svg11.dtd">
<!-- Generated by graphviz version 7.0.5 (20221223.1930)
 -->
<!-- Title: lib/application_business_rules/user_interaction/Presenter.cpp Pages: 1 -->
<svg width="720pt" height="214pt"
 viewBox="0.00 0.00 720.00 214.00" xmlns="http://www.w3.org/2000/svg" xmlns:xlink="http://www.w3.org/1999/xlink">
<g id="graph0" class="graph" transform="scale(1 1) rotate(0) translate(4 210)">
<title>lib/application_business_rules/user_interaction/Presenter.cpp</title>
<!-- Node1 -->
<g id="node1" class="node">
<title>Node1</title>
<g id="a_node1"><a xlink:title=" ">
<polygon fill="#999999" stroke="#666666" points="610,-206 490,-206 490,-165 610,-165 610,-206"/>
<text text-anchor="start" x="498" y="-194" font-family="Helvetica,sans-Serif" font-size="10.00">lib/application_business</text>
<text text-anchor="start" x="498" y="-183" font-family="Helvetica,sans-Serif" font-size="10.00">_rules/user_interaction</text>
<text text-anchor="middle" x="550" y="-172" font-family="Helvetica,sans-Serif" font-size="10.00">/Presenter.cpp</text>
</a>
</g>
</g>
<!-- Node2 -->
<g id="node2" class="node">
<title>Node2</title>
<g id="a_node2"><a xlink:href="Presenter_8hpp.xhtml" target="_top" xlink:title=" ">
<polygon fill="white" stroke="#666666" points="293.5,-129 216.5,-129 216.5,-110 293.5,-110 293.5,-129"/>
<text text-anchor="middle" x="255" y="-117" font-family="Helvetica,sans-Serif" font-size="10.00">Presenter.hpp</text>
</a>
</g>
</g>
<!-- Node1&#45;&gt;Node2 -->
<g id="edge1" class="edge">
<title>Node1&#45;&gt;Node2</title>
<path fill="none" stroke="#63b8ff" d="M489.59,-171.39C435.05,-159.56 355.77,-142.36 304.79,-131.3"/>
<polygon fill="#63b8ff" stroke="#63b8ff" points="305.73,-127.92 295.21,-129.22 304.24,-134.76 305.73,-127.92"/>
</g>
<!-- Node8 -->
<g id="node8" class="node">
<title>Node8</title>
<g id="a_node8"><a xlink:href="board__interface_8hpp.xhtml" target="_top" xlink:title=" ">
<polygon fill="white" stroke="#666666" points="521.5,-129 420.5,-129 420.5,-110 521.5,-110 521.5,-129"/>
<text text-anchor="middle" x="471" y="-117" font-family="Helvetica,sans-Serif" font-size="10.00">board_interface.hpp</text>
</a>
</g>
</g>
<!-- Node1&#45;&gt;Node8 -->
<g id="edge8" class="edge">
<title>Node1&#45;&gt;Node8</title>
<path fill="none" stroke="#63b8ff" d="M525.44,-164.6C514.2,-155.5 501.07,-144.86 490.53,-136.32"/>
<polygon fill="#63b8ff" stroke="#63b8ff" points="492.84,-133.69 482.87,-130.12 488.44,-139.13 492.84,-133.69"/>
</g>
<!-- Node11 -->
<g id="node11" class="node">
<title>Node11</title>
<g id="a_node11"><a xlink:title=" ">
<polygon fill="#e0e0e0" stroke="#999999" points="573,-74 527,-74 527,-55 573,-55 573,-74"/>
<text text-anchor="middle" x="550" y="-62" font-family="Helvetica,sans-Serif" font-size="10.00">chrono</text>
</a>
</g>
</g>
<!-- Node1&#45;&gt;Node11 -->
<g id="edge14" class="edge">
<title>Node1&#45;&gt;Node11</title>
<path fill="none" stroke="#63b8ff" d="M550,-164.58C550,-142.68 550,-107.68 550,-85.68"/>
<polygon fill="#63b8ff" stroke="#63b8ff" points="553.5,-85.93 550,-75.93 546.5,-85.93 553.5,-85.93"/>
</g>
<!-- Node13 -->
<g id="node13" class="node">
<title>Node13</title>
<g id="a_node13"><a xlink:title=" ">
<polygon fill="#e0e0e0" stroke="#999999" points="627.5,-129 578.5,-129 578.5,-110 627.5,-110 627.5,-129"/>
<text text-anchor="middle" x="603" y="-117" font-family="Helvetica,sans-Serif" font-size="10.00">cassert</text>
</a>
</g>
</g>
<!-- Node1&#45;&gt;Node13 -->
<g id="edge13" class="edge">
<title>Node1&#45;&gt;Node13</title>
<path fill="none" stroke="#63b8ff" d="M566.48,-164.6C573.56,-156.06 581.75,-146.16 588.58,-137.91"/>
<polygon fill="#63b8ff" stroke="#63b8ff" points="591.18,-140.26 594.86,-130.33 585.79,-135.8 591.18,-140.26"/>
</g>
<!-- Node14 -->
<g id="node14" class="node">
<title>Node14</title>
<g id="a_node14"><a xlink:href="pitches_8hpp.xhtml" target="_top" xlink:title=" ">
<polygon fill="white" stroke="#666666" points="712,-129 646,-129 646,-110 712,-110 712,-129"/>
<text text-anchor="middle" x="679" y="-117" font-family="Helvetica,sans-Serif" font-size="10.00">pitches.hpp</text>
</a>
</g>
</g>
<!-- Node1&#45;&gt;Node14 -->
<g id="edge15" class="edge">
<title>Node1&#45;&gt;Node14</title>
<path fill="none" stroke="#63b8ff" d="M590.11,-164.6C609.83,-154.82 633.12,-143.26 650.91,-134.43"/>
<polygon fill="#63b8ff" stroke="#63b8ff" points="652.44,-137.58 659.84,-130 649.33,-131.31 652.44,-137.58"/>
</g>
<!-- Node3 -->
<g id="node3" class="node">
<title>Node3</title>
<g id="a_node3"><a xlink:href="IStatusIndicator_8hpp.xhtml" target="_top" xlink:title=" ">
<polygon fill="white" stroke="#666666" points="104,-74 0,-74 0,-55 104,-55 104,-74"/>
<text text-anchor="middle" x="52" y="-62" font-family="Helvetica,sans-Serif" font-size="10.00">IStatusIndicator.hpp</text>
</a>
</g>
</g>
<!-- Node2&#45;&gt;Node3 -->
<g id="edge2" class="edge">
<title>Node2&#45;&gt;Node3</title>
<path fill="none" stroke="#63b8ff" d="M220.56,-109.51C186.63,-100.65 134.6,-87.07 97.32,-77.33"/>
<polygon fill="#63b8ff" stroke="#63b8ff" points="98.29,-73.97 87.73,-74.83 96.52,-80.74 98.29,-73.97"/>
</g>
<!-- Node4 -->
<g id="node4" class="node">
<title>Node4</title>
<g id="a_node4"><a xlink:href="Menu_8hpp.xhtml" target="_top" xlink:title=" ">
<polygon fill="white" stroke="#666666" points="181.5,-74 122.5,-74 122.5,-55 181.5,-55 181.5,-74"/>
<text text-anchor="middle" x="152" y="-62" font-family="Helvetica,sans-Serif" font-size="10.00">Menu.hpp</text>
</a>
</g>
</g>
<!-- Node2&#45;&gt;Node4 -->
<g id="edge3" class="edge">
<title>Node2&#45;&gt;Node4</title>
<path fill="none" stroke="#63b8ff" d="M237.53,-109.51C221.6,-101.31 197.81,-89.07 179.36,-79.58"/>
<polygon fill="#63b8ff" stroke="#63b8ff" points="181.05,-76.51 170.56,-75.05 177.85,-82.74 181.05,-76.51"/>
</g>
<!-- Node6 -->
<g id="node6" class="node">
<title>Node6</title>
<g id="a_node6"><a xlink:href="hmi__configuration_8hpp.xhtml" target="_top" xlink:title=" ">
<polygon fill="white" stroke="#666666" points="310,-74 200,-74 200,-55 310,-55 310,-74"/>
<text text-anchor="middle" x="255" y="-62" font-family="Helvetica,sans-Serif" font-size="10.00">hmi_configuration.hpp</text>
</a>
</g>
</g>
<!-- Node2&#45;&gt;Node6 -->
<g id="edge5" class="edge">
<title>Node2&#45;&gt;Node6</title>
<path fill="none" stroke="#63b8ff" d="M255,-109.75C255,-103.27 255,-94.16 255,-85.9"/>
<polygon fill="#63b8ff" stroke="#63b8ff" points="258.5,-85.96 255,-75.96 251.5,-85.96 258.5,-85.96"/>
</g>
<!-- Node7 -->
<g id="node7" class="node">
<title>Node7</title>
<g id="a_node7"><a xlink:title=" ">
<polygon fill="#e0e0e0" stroke="#999999" points="316.5,-19 267.5,-19 267.5,0 316.5,0 316.5,-19"/>
<text text-anchor="middle" x="292" y="-7" font-family="Helvetica,sans-Serif" font-size="10.00">cstddef</text>
</a>
</g>
</g>
<!-- Node2&#45;&gt;Node7 -->
<g id="edge7" class="edge">
<title>Node2&#45;&gt;Node7</title>
<path fill="none" stroke="#63b8ff" d="M277.43,-109.56C292.17,-102.36 310.29,-90.67 319,-74 326.87,-58.94 317.73,-41.07 308.01,-28.14"/>
<polygon fill="#63b8ff" stroke="#63b8ff" points="310.77,-25.98 301.71,-20.5 305.37,-30.44 310.77,-25.98"/>
</g>
<!-- Node5 -->
<g id="node5" class="node">
<title>Node5</title>
<g id="a_node5"><a xlink:href="IDisplay_8hpp.xhtml" target="_top" xlink:title=" ">
<polygon fill="white" stroke="#666666" points="186.5,-19 117.5,-19 117.5,0 186.5,0 186.5,-19"/>
<text text-anchor="middle" x="152" y="-7" font-family="Helvetica,sans-Serif" font-size="10.00">IDisplay.hpp</text>
</a>
</g>
</g>
<!-- Node4&#45;&gt;Node5 -->
<g id="edge4" class="edge">
<title>Node4&#45;&gt;Node5</title>
<path fill="none" stroke="#63b8ff" d="M152,-54.75C152,-48.27 152,-39.16 152,-30.9"/>
<polygon fill="#63b8ff" stroke="#63b8ff" points="155.5,-30.96 152,-20.96 148.5,-30.96 155.5,-30.96"/>
</g>
<!-- Node6&#45;&gt;Node7 -->
<g id="edge6" class="edge">
<title>Node6&#45;&gt;Node7</title>
<path fill="none" stroke="#63b8ff" d="M261.11,-54.75C266.01,-47.73 273.05,-37.64 279.17,-28.87"/>
<polygon fill="#63b8ff" stroke="#63b8ff" points="282.04,-30.89 284.89,-20.68 276.3,-26.88 282.04,-30.89"/>
</g>
<!-- Node9 -->
<g id="node9" class="node">
<title>Node9</title>
<g id="a_node9"><a xlink:href="KeyIds_8hpp.xhtml" target="_top" xlink:title=" ">
<polygon fill="white" stroke="#666666" points="431.5,-74 366.5,-74 366.5,-55 431.5,-55 431.5,-74"/>
<text text-anchor="middle" x="399" y="-62" font-family="Helvetica,sans-Serif" font-size="10.00">KeyIds.hpp</text>
</a>
</g>
</g>
<!-- Node8&#45;&gt;Node9 -->
<g id="edge9" class="edge">
<title>Node8&#45;&gt;Node9</title>
<path fill="none" stroke="#63b8ff" d="M458.79,-109.51C448.17,-101.7 432.56,-90.21 419.96,-80.93"/>
<polygon fill="#63b8ff" stroke="#63b8ff" points="422.38,-78.36 412.25,-75.26 418.23,-84 422.38,-78.36"/>
</g>
<!-- Node8&#45;&gt;Node11 -->
<g id="edge11" class="edge">
<title>Node8&#45;&gt;Node11</title>
<path fill="none" stroke="#63b8ff" d="M484.4,-109.51C496.16,-101.62 513.51,-89.98 527.41,-80.65"/>
<polygon fill="#63b8ff" stroke="#63b8ff" points="529.19,-83.68 535.54,-75.2 525.29,-77.87 529.19,-83.68"/>
</g>
<!-- Node12 -->
<g id="node12" class="node">
<title>Node12</title>
<g id="a_node12"><a xlink:title=" ">
<polygon fill="#e0e0e0" stroke="#999999" points="508.5,-74 449.5,-74 449.5,-55 508.5,-55 508.5,-74"/>
<text text-anchor="middle" x="479" y="-62" font-family="Helvetica,sans-Serif" font-size="10.00">functional</text>
</a>
</g>
</g>
<!-- Node8&#45;&gt;Node12 -->
<g id="edge12" class="edge">
<title>Node8&#45;&gt;Node12</title>
<path fill="none" stroke="#63b8ff" d="M472.32,-109.75C473.31,-103.19 474.71,-93.95 475.97,-85.6"/>
<polygon fill="#63b8ff" stroke="#63b8ff" points="479.39,-86.35 477.42,-75.94 472.47,-85.3 479.39,-86.35"/>
</g>
<!-- Node10 -->
<g id="node10" class="node">
<title>Node10</title>
<g id="a_node10"><a xlink:title=" ">
<polygon fill="#e0e0e0" stroke="#999999" points="425,-19 373,-19 373,0 425,0 425,-19"/>
<text text-anchor="middle" x="399" y="-7" font-family="Helvetica,sans-Serif" font-size="10.00">ostream</text>
</a>
</g>
</g>
<!-- Node9&#45;&gt;Node10 -->
<g id="edge10" class="edge">
<title>Node9&#45;&gt;Node10</title>
<path fill="none" stroke="#63b8ff" d="M399,-54.75C399,-48.27 399,-39.16 399,-30.9"/>
<polygon fill="#63b8ff" stroke="#63b8ff" points="402.5,-30.96 399,-20.96 395.5,-30.96 402.5,-30.96"/>
</g>
<!-- Node15 -->
<g id="node15" class="node">
<title>Node15</title>
<g id="a_node15"><a xlink:title=" ">
<polygon fill="#e0e0e0" stroke="#999999" points="702,-74 656,-74 656,-55 702,-55 702,-74"/>
<text text-anchor="middle" x="679" y="-62" font-family="Helvetica,sans-Serif" font-size="10.00">cstdint</text>
</a>
</g>
</g>
<!-- Node14&#45;&gt;Node15 -->
<g id="edge16" class="edge">
<title>Node14&#45;&gt;Node15</title>
<path fill="none" stroke="#63b8ff" d="M679,-109.75C679,-103.27 679,-94.16 679,-85.9"/>
<polygon fill="#63b8ff" stroke="#63b8ff" points="682.5,-85.96 679,-75.96 675.5,-85.96 682.5,-85.96"/>
</g>
</g>
</svg>
