<?xml version="1.0" encoding="UTF-8" standalone="no"?>
<!DOCTYPE svg PUBLIC "-//W3C//DTD SVG 1.1//EN"
 "http://www.w3.org/Graphics/SVG/1.1/DTD/svg11.dtd">
<!-- Generated by graphviz version 9.0.0 (20230911.1827)
 -->
<!-- Title: lib/layer2_hmi/src/Presenter.cpp Pages: 1 -->
<svg width="417pt" height="204pt"
 viewBox="0.00 0.00 416.75 204.25" xmlns="http://www.w3.org/2000/svg" xmlns:xlink="http://www.w3.org/1999/xlink">
<g id="graph0" class="graph" transform="scale(1 1) rotate(0) translate(4 200.25)">
<title>lib/layer2_hmi/src/Presenter.cpp</title>
<!-- Node1 -->
<g id="Node000001" class="node">
<title>Node1</title>
<g id="a_Node000001"><a xlink:title=" ">
<polygon fill="#999999" stroke="#666666" points="340.38,-196.25 248.62,-196.25 248.62,-165.75 340.38,-165.75 340.38,-196.25"/>
<text text-anchor="start" x="256.62" y="-182.75" font-family="Helvetica,sans-Serif" font-size="10.00">lib/layer2_hmi/src</text>
<text text-anchor="middle" x="294.5" y="-171.5" font-family="Helvetica,sans-Serif" font-size="10.00">/Presenter.cpp</text>
</a>
</g>
</g>
<!-- Node2 -->
<g id="Node000002" class="node">
<title>Node2</title>
<g id="a_Node000002"><a xlink:href="Presenter_8hpp.xhtml" target="_top" xlink:title=" ">
<polygon fill="white" stroke="#666666" points="248.5,-129.75 172.5,-129.75 172.5,-110.5 248.5,-110.5 248.5,-129.75"/>
<text text-anchor="middle" x="210.5" y="-116.25" font-family="Helvetica,sans-Serif" font-size="10.00">Presenter.hpp</text>
</a>
</g>
</g>
<!-- Node1&#45;&gt;Node2 -->
<g id="edge1_Node000001_Node000002" class="edge">
<title>Node1&#45;&gt;Node2</title>
<g id="a_edge1_Node000001_Node000002"><a xlink:title=" ">
<path fill="none" stroke="#63b8ff" d="M273.74,-165.45C261.32,-156.74 245.53,-145.68 232.84,-136.78"/>
<polygon fill="#63b8ff" stroke="#63b8ff" points="234.89,-133.94 224.69,-131.07 230.87,-139.68 234.89,-133.94"/>
</a>
</g>
</g>
<!-- Node9 -->
<g id="Node000009" class="node">
<title>Node9</title>
<g id="a_Node000009"><a xlink:title=" ">
<polygon fill="#e0e0e0" stroke="#999999" points="322.75,-129.75 266.25,-129.75 266.25,-110.5 322.75,-110.5 322.75,-129.75"/>
<text text-anchor="middle" x="294.5" y="-116.25" font-family="Helvetica,sans-Serif" font-size="10.00">Arduino.h</text>
</a>
</g>
</g>
<!-- Node1&#45;&gt;Node9 -->
<g id="edge9_Node000001_Node000009" class="edge">
<title>Node1&#45;&gt;Node9</title>
<g id="a_edge9_Node000001_Node000009"><a xlink:title=" ">
<path fill="none" stroke="#63b8ff" d="M294.5,-165.45C294.5,-158.21 294.5,-149.34 294.5,-141.44"/>
<polygon fill="#63b8ff" stroke="#63b8ff" points="298,-141.71 294.5,-131.71 291,-141.71 298,-141.71"/>
</a>
</g>
</g>
<!-- Node10 -->
<g id="Node000010" class="node">
<title>Node10</title>
<g id="a_Node000010"><a xlink:title=" ">
<polygon fill="#e0e0e0" stroke="#999999" points="388.62,-129.75 340.38,-129.75 340.38,-110.5 388.62,-110.5 388.62,-129.75"/>
<text text-anchor="middle" x="364.5" y="-116.25" font-family="Helvetica,sans-Serif" font-size="10.00">cassert</text>
</a>
</g>
</g>
<!-- Node1&#45;&gt;Node10 -->
<g id="edge10_Node000001_Node000010" class="edge">
<title>Node1&#45;&gt;Node10</title>
<g id="a_edge10_Node000001_Node000010"><a xlink:title=" ">
<path fill="none" stroke="#63b8ff" d="M311.8,-165.45C321.85,-157 334.53,-146.33 344.93,-137.58"/>
<polygon fill="#63b8ff" stroke="#63b8ff" points="347.15,-140.29 352.55,-131.18 342.64,-134.93 347.15,-140.29"/>
</a>
</g>
</g>
<!-- Node3 -->
<g id="Node000003" class="node">
<title>Node3</title>
<g id="a_Node000003"><a xlink:href="IPresenter_8hpp.xhtml" target="_top" xlink:title=" ">
<polygon fill="white" stroke="#666666" points="79,-74.5 0,-74.5 0,-55.25 79,-55.25 79,-74.5"/>
<text text-anchor="middle" x="39.5" y="-61" font-family="Helvetica,sans-Serif" font-size="10.00">IPresenter.hpp</text>
</a>
</g>
</g>
<!-- Node2&#45;&gt;Node3 -->
<g id="edge2_Node000002_Node000003" class="edge">
<title>Node2&#45;&gt;Node3</title>
<g id="a_edge2_Node000002_Node000003"><a xlink:title=" ">
<path fill="none" stroke="#63b8ff" d="M181.49,-110.09C153.49,-101.37 110.84,-88.09 79.6,-78.36"/>
<polygon fill="#63b8ff" stroke="#63b8ff" points="80.68,-75.03 70.1,-75.4 78.6,-81.72 80.68,-75.03"/>
</a>
</g>
</g>
<!-- Node5 -->
<g id="Node000005" class="node">
<title>Node5</title>
<g id="a_Node000005"><a xlink:href="IStatusIndicator_8hpp.xhtml" target="_top" xlink:title=" ">
<polygon fill="white" stroke="#666666" points="200,-74.5 97,-74.5 97,-55.25 200,-55.25 200,-74.5"/>
<text text-anchor="middle" x="148.5" y="-61" font-family="Helvetica,sans-Serif" font-size="10.00">IStatusIndicator.hpp</text>
</a>
</g>
</g>
<!-- Node2&#45;&gt;Node5 -->
<g id="edge4_Node000002_Node000005" class="edge">
<title>Node2&#45;&gt;Node5</title>
<g id="a_edge4_Node000002_Node000005"><a xlink:title=" ">
<path fill="none" stroke="#63b8ff" d="M199.98,-110.09C191.11,-102.47 178.19,-91.37 167.51,-82.2"/>
<polygon fill="#63b8ff" stroke="#63b8ff" points="169.88,-79.62 160.01,-75.76 165.32,-84.93 169.88,-79.62"/>
</a>
</g>
</g>
<!-- Node6 -->
<g id="Node000006" class="node">
<title>Node6</title>
<g id="a_Node000006"><a xlink:href="Menu_8hpp.xhtml" target="_top" xlink:title=" ">
<polygon fill="white" stroke="#666666" points="403.5,-74.5 345.5,-74.5 345.5,-55.25 403.5,-55.25 403.5,-74.5"/>
<text text-anchor="middle" x="374.5" y="-61" font-family="Helvetica,sans-Serif" font-size="10.00">Menu.hpp</text>
</a>
</g>
</g>
<!-- Node2&#45;&gt;Node6 -->
<g id="edge5_Node000002_Node000006" class="edge">
<title>Node2&#45;&gt;Node6</title>
<g id="a_edge5_Node000002_Node000006"><a xlink:title=" ">
<path fill="none" stroke="#63b8ff" d="M238.32,-110.09C265.06,-101.41 305.72,-88.21 335.65,-78.49"/>
<polygon fill="#63b8ff" stroke="#63b8ff" points="336.67,-81.84 345.1,-75.42 334.51,-75.18 336.67,-81.84"/>
</a>
</g>
</g>
<!-- Node8 -->
<g id="Node000008" class="node">
<title>Node8</title>
<g id="a_Node000008"><a xlink:href="hmi__configuration_8hpp.xhtml" target="_top" xlink:title=" ">
<polygon fill="white" stroke="#666666" points="327.38,-74.5 217.62,-74.5 217.62,-55.25 327.38,-55.25 327.38,-74.5"/>
<text text-anchor="middle" x="272.5" y="-61" font-family="Helvetica,sans-Serif" font-size="10.00">hmi_configuration.hpp</text>
</a>
</g>
</g>
<!-- Node2&#45;&gt;Node8 -->
<g id="edge7_Node000002_Node000008" class="edge">
<title>Node2&#45;&gt;Node8</title>
<g id="a_edge7_Node000002_Node000008"><a xlink:title=" ">
<path fill="none" stroke="#63b8ff" d="M221.02,-110.09C229.89,-102.47 242.81,-91.37 253.49,-82.2"/>
<polygon fill="#63b8ff" stroke="#63b8ff" points="255.68,-84.93 260.99,-75.76 251.12,-79.62 255.68,-84.93"/>
</a>
</g>
</g>
<!-- Node4 -->
<g id="Node000004" class="node">
<title>Node4</title>
<g id="a_Node000004"><a xlink:title=" ">
<polygon fill="#e0e0e0" stroke="#999999" points="180.62,-19.25 132.38,-19.25 132.38,0 180.62,0 180.62,-19.25"/>
<text text-anchor="middle" x="156.5" y="-5.75" font-family="Helvetica,sans-Serif" font-size="10.00">cstddef</text>
</a>
</g>
</g>
<!-- Node3&#45;&gt;Node4 -->
<g id="edge3_Node000003_Node000004" class="edge">
<title>Node3&#45;&gt;Node4</title>
<g id="a_edge3_Node000003_Node000004"><a xlink:title=" ">
<path fill="none" stroke="#63b8ff" d="M59.35,-54.84C77.67,-46.5 105.15,-34 126.21,-24.41"/>
<polygon fill="#63b8ff" stroke="#63b8ff" points="127.53,-27.66 135.18,-20.33 124.63,-21.29 127.53,-27.66"/>
</a>
</g>
</g>
<!-- Node7 -->
<g id="Node000007" class="node">
<title>Node7</title>
<g id="a_Node000007"><a xlink:href="IDisplay_8hpp.xhtml" target="_top" xlink:title=" ">
<polygon fill="white" stroke="#666666" points="408.75,-19.25 340.25,-19.25 340.25,0 408.75,0 408.75,-19.25"/>
<text text-anchor="middle" x="374.5" y="-5.75" font-family="Helvetica,sans-Serif" font-size="10.00">IDisplay.hpp</text>
</a>
</g>
</g>
<!-- Node6&#45;&gt;Node7 -->
<g id="edge6_Node000006_Node000007" class="edge">
<title>Node6&#45;&gt;Node7</title>
<g id="a_edge6_Node000006_Node000007"><a xlink:title=" ">
<path fill="none" stroke="#63b8ff" d="M374.5,-55.08C374.5,-48.57 374.5,-39.42 374.5,-31.12"/>
<polygon fill="#63b8ff" stroke="#63b8ff" points="378,-31.12 374.5,-21.12 371,-31.12 378,-31.12"/>
</a>
</g>
</g>
<!-- Node8&#45;&gt;Node4 -->
<g id="edge8_Node000008_Node000004" class="edge">
<title>Node8&#45;&gt;Node4</title>
<g id="a_edge8_Node000008_Node000004"><a xlink:title=" ">
<path fill="none" stroke="#63b8ff" d="M252.82,-54.84C234.66,-46.5 207.42,-34 186.53,-24.41"/>
<polygon fill="#63b8ff" stroke="#63b8ff" points="188.2,-21.33 177.65,-20.33 185.28,-27.69 188.2,-21.33"/>
</a>
</g>
</g>
</g>
</svg>
