<?xml version="1.0" encoding="UTF-8" standalone="no"?>
<!DOCTYPE svg PUBLIC "-//W3C//DTD SVG 1.1//EN"
 "http://www.w3.org/Graphics/SVG/1.1/DTD/svg11.dtd">
<!-- Generated by graphviz version 9.0.0 (20230911.1827)
 -->
<!-- Title: lib/layer2_hmi/src/Presenter.hpp Pages: 1 -->
<svg width="417pt" height="149pt"
 viewBox="0.00 0.00 416.75 149.00" xmlns="http://www.w3.org/2000/svg" xmlns:xlink="http://www.w3.org/1999/xlink">
<g id="graph0" class="graph" transform="scale(1 1) rotate(0) translate(4 145)">
<title>lib/layer2_hmi/src/Presenter.hpp</title>
<!-- Node1 -->
<g id="Node000001" class="node">
<title>Node1</title>
<g id="a_Node000001"><a xlink:title=" ">
<polygon fill="#999999" stroke="#666666" points="256.38,-141 164.62,-141 164.62,-110.5 256.38,-110.5 256.38,-141"/>
<text text-anchor="start" x="172.62" y="-127.5" font-family="Helvetica,sans-Serif" font-size="10.00">lib/layer2_hmi/src</text>
<text text-anchor="middle" x="210.5" y="-116.25" font-family="Helvetica,sans-Serif" font-size="10.00">/Presenter.hpp</text>
</a>
</g>
</g>
<!-- Node2 -->
<g id="Node000002" class="node">
<title>Node2</title>
<g id="a_Node000002"><a xlink:href="IPresenter_8hpp.xhtml" target="_top" xlink:title=" ">
<polygon fill="white" stroke="#666666" points="79,-74.5 0,-74.5 0,-55.25 79,-55.25 79,-74.5"/>
<text text-anchor="middle" x="39.5" y="-61" font-family="Helvetica,sans-Serif" font-size="10.00">IPresenter.hpp</text>
</a>
</g>
</g>
<!-- Node1&#45;&gt;Node2 -->
<g id="edge1_Node000001_Node000002" class="edge">
<title>Node1&#45;&gt;Node2</title>
<g id="a_edge1_Node000001_Node000002"><a xlink:title=" ">
<path fill="none" stroke="#63b8ff" d="M167.79,-110.05C139.83,-100.42 103.65,-87.96 76.84,-78.73"/>
<polygon fill="#63b8ff" stroke="#63b8ff" points="78,-75.43 67.41,-75.48 75.72,-82.05 78,-75.43"/>
</a>
</g>
</g>
<!-- Node4 -->
<g id="Node000004" class="node">
<title>Node4</title>
<g id="a_Node000004"><a xlink:href="IStatusIndicator_8hpp.xhtml" target="_top" xlink:title=" ">
<polygon fill="white" stroke="#666666" points="200,-74.5 97,-74.5 97,-55.25 200,-55.25 200,-74.5"/>
<text text-anchor="middle" x="148.5" y="-61" font-family="Helvetica,sans-Serif" font-size="10.00">IStatusIndicator.hpp</text>
</a>
</g>
</g>
<!-- Node1&#45;&gt;Node4 -->
<g id="edge3_Node000001_Node000004" class="edge">
<title>Node1&#45;&gt;Node4</title>
<g id="a_edge3_Node000001_Node000004"><a xlink:title=" ">
<path fill="none" stroke="#63b8ff" d="M195.17,-110.2C186.46,-101.92 175.5,-91.52 166.4,-82.87"/>
<polygon fill="#63b8ff" stroke="#63b8ff" points="168.82,-80.34 159.16,-75.99 164,-85.42 168.82,-80.34"/>
</a>
</g>
</g>
<!-- Node5 -->
<g id="Node000005" class="node">
<title>Node5</title>
<g id="a_Node000005"><a xlink:href="Menu_8hpp.xhtml" target="_top" xlink:title=" ">
<polygon fill="white" stroke="#666666" points="403.5,-74.5 345.5,-74.5 345.5,-55.25 403.5,-55.25 403.5,-74.5"/>
<text text-anchor="middle" x="374.5" y="-61" font-family="Helvetica,sans-Serif" font-size="10.00">Menu.hpp</text>
</a>
</g>
</g>
<!-- Node1&#45;&gt;Node5 -->
<g id="edge4_Node000001_Node000005" class="edge">
<title>Node1&#45;&gt;Node5</title>
<g id="a_edge4_Node000001_Node000005"><a xlink:title=" ">
<path fill="none" stroke="#63b8ff" d="M251.46,-110.05C278.24,-100.43 312.88,-88 338.58,-78.77"/>
<polygon fill="#63b8ff" stroke="#63b8ff" points="339.7,-82.09 347.92,-75.42 337.33,-75.5 339.7,-82.09"/>
</a>
</g>
</g>
<!-- Node7 -->
<g id="Node000007" class="node">
<title>Node7</title>
<g id="a_Node000007"><a xlink:href="hmi__configuration_8hpp.xhtml" target="_top" xlink:title=" ">
<polygon fill="white" stroke="#666666" points="327.38,-74.5 217.62,-74.5 217.62,-55.25 327.38,-55.25 327.38,-74.5"/>
<text text-anchor="middle" x="272.5" y="-61" font-family="Helvetica,sans-Serif" font-size="10.00">hmi_configuration.hpp</text>
</a>
</g>
</g>
<!-- Node1&#45;&gt;Node7 -->
<g id="edge6_Node000001_Node000007" class="edge">
<title>Node1&#45;&gt;Node7</title>
<g id="a_edge6_Node000001_Node000007"><a xlink:title=" ">
<path fill="none" stroke="#63b8ff" d="M225.83,-110.2C234.54,-101.92 245.5,-91.52 254.6,-82.87"/>
<polygon fill="#63b8ff" stroke="#63b8ff" points="257,-85.42 261.84,-75.99 252.18,-80.34 257,-85.42"/>
</a>
</g>
</g>
<!-- Node3 -->
<g id="Node000003" class="node">
<title>Node3</title>
<g id="a_Node000003"><a xlink:title=" ">
<polygon fill="#e0e0e0" stroke="#999999" points="180.62,-19.25 132.38,-19.25 132.38,0 180.62,0 180.62,-19.25"/>
<text text-anchor="middle" x="156.5" y="-5.75" font-family="Helvetica,sans-Serif" font-size="10.00">cstddef</text>
</a>
</g>
</g>
<!-- Node2&#45;&gt;Node3 -->
<g id="edge2_Node000002_Node000003" class="edge">
<title>Node2&#45;&gt;Node3</title>
<g id="a_edge2_Node000002_Node000003"><a xlink:title=" ">
<path fill="none" stroke="#63b8ff" d="M59.35,-54.84C77.67,-46.5 105.15,-34 126.21,-24.41"/>
<polygon fill="#63b8ff" stroke="#63b8ff" points="127.53,-27.66 135.18,-20.33 124.63,-21.29 127.53,-27.66"/>
</a>
</g>
</g>
<!-- Node6 -->
<g id="Node000006" class="node">
<title>Node6</title>
<g id="a_Node000006"><a xlink:href="IDisplay_8hpp.xhtml" target="_top" xlink:title=" ">
<polygon fill="white" stroke="#666666" points="408.75,-19.25 340.25,-19.25 340.25,0 408.75,0 408.75,-19.25"/>
<text text-anchor="middle" x="374.5" y="-5.75" font-family="Helvetica,sans-Serif" font-size="10.00">IDisplay.hpp</text>
</a>
</g>
</g>
<!-- Node5&#45;&gt;Node6 -->
<g id="edge5_Node000005_Node000006" class="edge">
<title>Node5&#45;&gt;Node6</title>
<g id="a_edge5_Node000005_Node000006"><a xlink:title=" ">
<path fill="none" stroke="#63b8ff" d="M374.5,-55.08C374.5,-48.57 374.5,-39.42 374.5,-31.12"/>
<polygon fill="#63b8ff" stroke="#63b8ff" points="378,-31.12 374.5,-21.12 371,-31.12 378,-31.12"/>
</a>
</g>
</g>
<!-- Node7&#45;&gt;Node3 -->
<g id="edge7_Node000007_Node000003" class="edge">
<title>Node7&#45;&gt;Node3</title>
<g id="a_edge7_Node000007_Node000003"><a xlink:title=" ">
<path fill="none" stroke="#63b8ff" d="M252.82,-54.84C234.66,-46.5 207.42,-34 186.53,-24.41"/>
<polygon fill="#63b8ff" stroke="#63b8ff" points="188.2,-21.33 177.65,-20.33 185.28,-27.69 188.2,-21.33"/>
</a>
</g>
</g>
</g>
</svg>
