<?xml version="1.0" encoding="UTF-8" standalone="no"?>
<!DOCTYPE svg PUBLIC "-//W3C//DTD SVG 1.1//EN"
 "http://www.w3.org/Graphics/SVG/1.1/DTD/svg11.dtd">
<!-- Generated by graphviz version 9.0.0 (20230911.1827)
 -->
<!-- Title: lib/layer1_use_cases/include/ProcessHmiInputs.hpp Pages: 1 -->
<svg width="232pt" height="105pt"
 viewBox="0.00 0.00 232.00 105.00" xmlns="http://www.w3.org/2000/svg" xmlns:xlink="http://www.w3.org/1999/xlink">
<g id="graph0" class="graph" transform="scale(1 1) rotate(0) translate(4 101)">
<title>lib/layer1_use_cases/include/ProcessHmiInputs.hpp</title>
<!-- Node1 -->
<g id="Node000001" class="node">
<title>Node1</title>
<g id="a_Node000001"><a xlink:title=" ">
<polygon fill="#999999" stroke="#666666" points="203.12,-97 51.38,-97 51.38,-66.5 203.12,-66.5 203.12,-97"/>
<text text-anchor="start" x="59.38" y="-83.5" font-family="Helvetica,sans-Serif" font-size="10.00">lib/layer1_use_cases</text>
<text text-anchor="middle" x="127.25" y="-72.25" font-family="Helvetica,sans-Serif" font-size="10.00">/include/ProcessHmiInputs.hpp</text>
</a>
</g>
</g>
<!-- Node2 -->
<g id="Node000002" class="node">
<title>Node2</title>
<g id="a_Node000002"><a xlink:href="ProcessHmiInputs_8cpp.xhtml" target="_top" xlink:title=" ">
<polygon fill="white" stroke="#666666" points="134.5,-30.5 0,-30.5 0,0 134.5,0 134.5,-30.5"/>
<text text-anchor="start" x="8" y="-17" font-family="Helvetica,sans-Serif" font-size="10.00">lib/layer1_use_cases</text>
<text text-anchor="middle" x="67.25" y="-5.75" font-family="Helvetica,sans-Serif" font-size="10.00">/src/ProcessHmiInputs.cpp</text>
</a>
</g>
</g>
<!-- Node1&#45;&gt;Node2 -->
<g id="edge1_Node000001_Node000002" class="edge">
<title>Node1&#45;&gt;Node2</title>
<g id="a_edge1_Node000001_Node000002"><a xlink:title=" ">
<path fill="none" stroke="#63b8ff" d="M106,-57.91C97.62,-48.9 88.24,-38.82 80.81,-30.83"/>
<polygon fill="#63b8ff" stroke="#63b8ff" points="103.23,-60.07 112.6,-65.01 108.36,-55.3 103.23,-60.07"/>
</a>
</g>
</g>
<!-- Node3 -->
<g id="Node000003" class="node">
<title>Node3</title>
<g id="a_Node000003"><a xlink:href="main_8cpp.xhtml" target="_top" xlink:title=" ">
<polygon fill="white" stroke="#666666" points="224,-24.88 152.5,-24.88 152.5,-5.63 224,-5.63 224,-24.88"/>
<text text-anchor="middle" x="188.25" y="-11.38" font-family="Helvetica,sans-Serif" font-size="10.00">src/main.cpp</text>
</a>
</g>
</g>
<!-- Node1&#45;&gt;Node3 -->
<g id="edge2_Node000001_Node000003" class="edge">
<title>Node1&#45;&gt;Node3</title>
<g id="a_edge2_Node000001_Node000003"><a xlink:title=" ">
<path fill="none" stroke="#63b8ff" d="M148.89,-57.87C159.61,-46.53 171.95,-33.49 179.91,-25.07"/>
<polygon fill="#63b8ff" stroke="#63b8ff" points="146.46,-55.34 142.13,-65.01 151.55,-60.15 146.46,-55.34"/>
</a>
</g>
</g>
</g>
</svg>
