<?xml version="1.0" encoding="UTF-8" standalone="no"?>
<!DOCTYPE svg PUBLIC "-//W3C//DTD SVG 1.1//EN"
 "http://www.w3.org/Graphics/SVG/1.1/DTD/svg11.dtd">
<!-- Generated by graphviz version 7.0.5 (20221223.1930)
 -->
<!-- Title: lib/application_business_rules/user_interaction/ProcessHmiInputs.cpp Pages: 1 -->
<svg width="1088pt" height="280pt"
 viewBox="0.00 0.00 1088.00 280.00" xmlns="http://www.w3.org/2000/svg" xmlns:xlink="http://www.w3.org/1999/xlink">
<g id="graph0" class="graph" transform="scale(1 1) rotate(0) translate(4 276)">
<title>lib/application_business_rules/user_interaction/ProcessHmiInputs.cpp</title>
<!-- Node1 -->
<g id="node1" class="node">
<title>Node1</title>
<g id="a_node1"><a xlink:title=" ">
<polygon fill="#999999" stroke="#666666" points="539,-272 419,-272 419,-231 539,-231 539,-272"/>
<text text-anchor="start" x="427" y="-260" font-family="Helvetica,sans-Serif" font-size="10.00">lib/application_business</text>
<text text-anchor="start" x="427" y="-249" font-family="Helvetica,sans-Serif" font-size="10.00">_rules/user_interaction</text>
<text text-anchor="middle" x="479" y="-238" font-family="Helvetica,sans-Serif" font-size="10.00">/ProcessHmiInputs.cpp</text>
</a>
</g>
</g>
<!-- Node2 -->
<g id="node2" class="node">
<title>Node2</title>
<g id="a_node2"><a xlink:href="ProcessHmiInputs_8hpp.xhtml" target="_top" xlink:title=" ">
<polygon fill="white" stroke="#666666" points="116,-195 0,-195 0,-176 116,-176 116,-195"/>
<text text-anchor="middle" x="58" y="-183" font-family="Helvetica,sans-Serif" font-size="10.00">ProcessHmiInputs.hpp</text>
</a>
</g>
</g>
<!-- Node1&#45;&gt;Node2 -->
<g id="edge1" class="edge">
<title>Node1&#45;&gt;Node2</title>
<path fill="none" stroke="#63b8ff" d="M418.68,-241.33C341.59,-229.61 208.43,-209.37 127.27,-197.03"/>
<polygon fill="#63b8ff" stroke="#63b8ff" points="128.08,-193.61 117.67,-195.57 127.03,-200.53 128.08,-193.61"/>
</g>
<!-- Node5 -->
<g id="node5" class="node">
<title>Node5</title>
<g id="a_node5"><a xlink:href="Presenter_8hpp.xhtml" target="_top" xlink:title=" ">
<polygon fill="white" stroke="#666666" points="768.5,-195 691.5,-195 691.5,-176 768.5,-176 768.5,-195"/>
<text text-anchor="middle" x="730" y="-183" font-family="Helvetica,sans-Serif" font-size="10.00">Presenter.hpp</text>
</a>
</g>
</g>
<!-- Node1&#45;&gt;Node5 -->
<g id="edge4" class="edge">
<title>Node1&#45;&gt;Node5</title>
<path fill="none" stroke="#63b8ff" d="M539.44,-235.09C583.86,-223.76 643.31,-208.6 683.92,-198.25"/>
<polygon fill="#63b8ff" stroke="#63b8ff" points="684.56,-201.7 693.38,-195.84 682.83,-194.92 684.56,-201.7"/>
</g>
<!-- Node11 -->
<g id="node11" class="node">
<title>Node11</title>
<g id="a_node11"><a xlink:href="board__interface_8hpp.xhtml" target="_top" xlink:title=" ">
<polygon fill="white" stroke="#666666" points="406.5,-134.5 305.5,-134.5 305.5,-115.5 406.5,-115.5 406.5,-134.5"/>
<text text-anchor="middle" x="356" y="-122.5" font-family="Helvetica,sans-Serif" font-size="10.00">board_interface.hpp</text>
</a>
</g>
</g>
<!-- Node1&#45;&gt;Node11 -->
<g id="edge11" class="edge">
<title>Node1&#45;&gt;Node11</title>
<path fill="none" stroke="#63b8ff" d="M459.51,-230.77C435.59,-206.56 395.43,-165.91 372.81,-143.01"/>
<polygon fill="#63b8ff" stroke="#63b8ff" points="375.38,-140.64 365.87,-135.99 370.4,-145.56 375.38,-140.64"/>
</g>
<!-- Node13 -->
<g id="node13" class="node">
<title>Node13</title>
<g id="a_node13"><a xlink:title=" ">
<polygon fill="#e0e0e0" stroke="#999999" points="310.5,-74 251.5,-74 251.5,-55 310.5,-55 310.5,-74"/>
<text text-anchor="middle" x="281" y="-62" font-family="Helvetica,sans-Serif" font-size="10.00">functional</text>
</a>
</g>
</g>
<!-- Node1&#45;&gt;Node13 -->
<g id="edge19" class="edge">
<title>Node1&#45;&gt;Node13</title>
<path fill="none" stroke="#63b8ff" d="M422.23,-230.65C380.81,-213.21 326.75,-183.71 296,-140 284.74,-123.99 281.49,-101.52 280.75,-85.45"/>
<polygon fill="#63b8ff" stroke="#63b8ff" points="284.26,-85.65 280.61,-75.7 277.26,-85.75 284.26,-85.65"/>
</g>
<!-- Node14 -->
<g id="node14" class="node">
<title>Node14</title>
<g id="a_node14"><a xlink:href="keypad__factory__interface_8hpp.xhtml" target="_top" xlink:title=" ">
<polygon fill="white" stroke="#666666" points="277.5,-195 134.5,-195 134.5,-176 277.5,-176 277.5,-195"/>
<text text-anchor="middle" x="206" y="-183" font-family="Helvetica,sans-Serif" font-size="10.00">keypad_factory_interface.hpp</text>
</a>
</g>
</g>
<!-- Node1&#45;&gt;Node14 -->
<g id="edge15" class="edge">
<title>Node1&#45;&gt;Node14</title>
<path fill="none" stroke="#63b8ff" d="M418.75,-236.38C369.68,-224.87 301.25,-208.83 255.37,-198.07"/>
<polygon fill="#63b8ff" stroke="#63b8ff" points="256.23,-194.68 245.7,-195.81 254.63,-201.5 256.23,-194.68"/>
</g>
<!-- Node16 -->
<g id="node16" class="node">
<title>Node16</title>
<g id="a_node16"><a xlink:href="serial__port__interface_8hpp.xhtml" target="_top" xlink:title=" ">
<polygon fill="white" stroke="#666666" points="533.5,-140 424.5,-140 424.5,-110 533.5,-110 533.5,-140"/>
<text text-anchor="start" x="432.5" y="-128" font-family="Helvetica,sans-Serif" font-size="10.00">serial_interface/serial</text>
<text text-anchor="middle" x="479" y="-117" font-family="Helvetica,sans-Serif" font-size="10.00">_port_interface.hpp</text>
</a>
</g>
</g>
<!-- Node1&#45;&gt;Node16 -->
<g id="edge20" class="edge">
<title>Node1&#45;&gt;Node16</title>
<path fill="none" stroke="#63b8ff" d="M479,-230.77C479,-209.38 479,-175.17 479,-151.69"/>
<polygon fill="#63b8ff" stroke="#63b8ff" points="482.5,-151.73 479,-141.73 475.5,-151.73 482.5,-151.73"/>
</g>
<!-- Node20 -->
<g id="node20" class="node">
<title>Node20</title>
<g id="a_node20"><a xlink:title=" ">
<polygon fill="#e0e0e0" stroke="#999999" points="845.5,-195 786.5,-195 786.5,-176 845.5,-176 845.5,-195"/>
<text text-anchor="middle" x="816" y="-183" font-family="Helvetica,sans-Serif" font-size="10.00">stdexcept</text>
</a>
</g>
</g>
<!-- Node1&#45;&gt;Node20 -->
<g id="edge26" class="edge">
<title>Node1&#45;&gt;Node20</title>
<path fill="none" stroke="#63b8ff" d="M539.32,-239.82C597.12,-229.47 687.1,-213.02 774.95,-195.36"/>
<polygon fill="#63b8ff" stroke="#63b8ff" points="775.62,-198.8 784.73,-193.39 774.23,-191.94 775.62,-198.8"/>
</g>
<!-- Node21 -->
<g id="node21" class="node">
<title>Node21</title>
<g id="a_node21"><a xlink:href="Task_8hpp.xhtml" target="_top" xlink:title=" ">
<polygon fill="white" stroke="#666666" points="634.5,-134.5 551.5,-134.5 551.5,-115.5 634.5,-115.5 634.5,-134.5"/>
<text text-anchor="middle" x="593" y="-122.5" font-family="Helvetica,sans-Serif" font-size="10.00">tasks/Task.hpp</text>
</a>
</g>
</g>
<!-- Node1&#45;&gt;Node21 -->
<g id="edge27" class="edge">
<title>Node1&#45;&gt;Node21</title>
<path fill="none" stroke="#63b8ff" d="M497.06,-230.77C519.14,-206.67 556.13,-166.27 577.15,-143.32"/>
<polygon fill="#63b8ff" stroke="#63b8ff" points="579.65,-145.77 583.82,-136.03 574.48,-141.04 579.65,-145.77"/>
</g>
<!-- Node23 -->
<g id="node23" class="node">
<title>Node23</title>
<g id="a_node23"><a xlink:href="type__traits_8hpp.xhtml" target="_top" xlink:title=" ">
<polygon fill="white" stroke="#666666" points="1040,-195 960,-195 960,-176 1040,-176 1040,-195"/>
<text text-anchor="middle" x="1000" y="-183" font-family="Helvetica,sans-Serif" font-size="10.00">type_traits.hpp</text>
</a>
</g>
</g>
<!-- Node1&#45;&gt;Node23 -->
<g id="edge31" class="edge">
<title>Node1&#45;&gt;Node23</title>
<path fill="none" stroke="#63b8ff" d="M539.27,-243.1C642.49,-230.42 851.31,-204.77 948.31,-192.85"/>
<polygon fill="#63b8ff" stroke="#63b8ff" points="948.57,-196.34 958.07,-191.65 947.72,-189.4 948.57,-196.34"/>
</g>
<!-- Node3 -->
<g id="node3" class="node">
<title>Node3</title>
<g id="a_node3"><a xlink:href="KeyIds_8hpp.xhtml" target="_top" xlink:title=" ">
<polygon fill="white" stroke="#666666" points="233.5,-74 168.5,-74 168.5,-55 233.5,-55 233.5,-74"/>
<text text-anchor="middle" x="201" y="-62" font-family="Helvetica,sans-Serif" font-size="10.00">KeyIds.hpp</text>
</a>
</g>
</g>
<!-- Node2&#45;&gt;Node3 -->
<g id="edge2" class="edge">
<title>Node2&#45;&gt;Node3</title>
<path fill="none" stroke="#63b8ff" d="M68.75,-175.56C92.88,-155.47 151.64,-106.58 182.06,-81.27"/>
<polygon fill="#63b8ff" stroke="#63b8ff" points="183.9,-84.28 189.35,-75.19 179.43,-78.9 183.9,-84.28"/>
</g>
<!-- Node4 -->
<g id="node4" class="node">
<title>Node4</title>
<g id="a_node4"><a xlink:title=" ">
<polygon fill="#e0e0e0" stroke="#999999" points="390,-19 338,-19 338,0 390,0 390,-19"/>
<text text-anchor="middle" x="364" y="-7" font-family="Helvetica,sans-Serif" font-size="10.00">ostream</text>
</a>
</g>
</g>
<!-- Node3&#45;&gt;Node4 -->
<g id="edge3" class="edge">
<title>Node3&#45;&gt;Node4</title>
<path fill="none" stroke="#63b8ff" d="M228.65,-54.51C255.63,-45.74 296.86,-32.33 326.73,-22.62"/>
<polygon fill="#63b8ff" stroke="#63b8ff" points="327.7,-25.98 336.13,-19.56 325.53,-19.33 327.7,-25.98"/>
</g>
<!-- Node6 -->
<g id="node6" class="node">
<title>Node6</title>
<g id="a_node6"><a xlink:href="IStatusIndicator_8hpp.xhtml" target="_top" xlink:title=" ">
<polygon fill="white" stroke="#666666" points="1000,-134.5 896,-134.5 896,-115.5 1000,-115.5 1000,-134.5"/>
<text text-anchor="middle" x="948" y="-122.5" font-family="Helvetica,sans-Serif" font-size="10.00">IStatusIndicator.hpp</text>
</a>
</g>
</g>
<!-- Node5&#45;&gt;Node6 -->
<g id="edge5" class="edge">
<title>Node5&#45;&gt;Node6</title>
<path fill="none" stroke="#63b8ff" d="M763.11,-175.62C800.64,-165.54 862.01,-149.08 903.65,-137.9"/>
<polygon fill="#63b8ff" stroke="#63b8ff" points="904.37,-141.33 913.12,-135.36 902.55,-134.57 904.37,-141.33"/>
</g>
<!-- Node7 -->
<g id="node7" class="node">
<title>Node7</title>
<g id="a_node7"><a xlink:href="Menu_8hpp.xhtml" target="_top" xlink:title=" ">
<polygon fill="white" stroke="#666666" points="711.5,-134.5 652.5,-134.5 652.5,-115.5 711.5,-115.5 711.5,-134.5"/>
<text text-anchor="middle" x="682" y="-122.5" font-family="Helvetica,sans-Serif" font-size="10.00">Menu.hpp</text>
</a>
</g>
</g>
<!-- Node5&#45;&gt;Node7 -->
<g id="edge6" class="edge">
<title>Node5&#45;&gt;Node7</title>
<path fill="none" stroke="#63b8ff" d="M722.92,-175.87C715.97,-167.4 705.17,-154.24 696.41,-143.57"/>
<polygon fill="#63b8ff" stroke="#63b8ff" points="699.12,-141.35 690.07,-135.84 693.71,-145.79 699.12,-141.35"/>
</g>
<!-- Node9 -->
<g id="node9" class="node">
<title>Node9</title>
<g id="a_node9"><a xlink:href="hmi__configuration_8hpp.xhtml" target="_top" xlink:title=" ">
<polygon fill="white" stroke="#666666" points="840,-134.5 730,-134.5 730,-115.5 840,-115.5 840,-134.5"/>
<text text-anchor="middle" x="785" y="-122.5" font-family="Helvetica,sans-Serif" font-size="10.00">hmi_configuration.hpp</text>
</a>
</g>
</g>
<!-- Node5&#45;&gt;Node9 -->
<g id="edge8" class="edge">
<title>Node5&#45;&gt;Node9</title>
<path fill="none" stroke="#63b8ff" d="M738.12,-175.87C746.24,-167.23 758.96,-153.7 769.1,-142.92"/>
<polygon fill="#63b8ff" stroke="#63b8ff" points="771.51,-145.45 775.81,-135.77 766.41,-140.66 771.51,-145.45"/>
</g>
<!-- Node10 -->
<g id="node10" class="node">
<title>Node10</title>
<g id="a_node10"><a xlink:title=" ">
<polygon fill="#e0e0e0" stroke="#999999" points="850.5,-74 801.5,-74 801.5,-55 850.5,-55 850.5,-74"/>
<text text-anchor="middle" x="826" y="-62" font-family="Helvetica,sans-Serif" font-size="10.00">cstddef</text>
</a>
</g>
</g>
<!-- Node5&#45;&gt;Node10 -->
<g id="edge10" class="edge">
<title>Node5&#45;&gt;Node10</title>
<path fill="none" stroke="#63b8ff" d="M767.31,-175.5C798.49,-167.14 839.35,-153.91 849,-140 860.9,-122.85 850.11,-99.32 839.66,-83.33"/>
<polygon fill="#63b8ff" stroke="#63b8ff" points="842.59,-81.42 833.95,-75.29 836.88,-85.47 842.59,-81.42"/>
</g>
<!-- Node8 -->
<g id="node8" class="node">
<title>Node8</title>
<g id="a_node8"><a xlink:href="IDisplay_8hpp.xhtml" target="_top" xlink:title=" ">
<polygon fill="white" stroke="#666666" points="736.5,-74 667.5,-74 667.5,-55 736.5,-55 736.5,-74"/>
<text text-anchor="middle" x="702" y="-62" font-family="Helvetica,sans-Serif" font-size="10.00">IDisplay.hpp</text>
</a>
</g>
</g>
<!-- Node7&#45;&gt;Node8 -->
<g id="edge7" class="edge">
<title>Node7&#45;&gt;Node8</title>
<path fill="none" stroke="#63b8ff" d="M684.95,-115.37C687.67,-107.42 691.8,-95.33 695.32,-85.05"/>
<polygon fill="#63b8ff" stroke="#63b8ff" points="698.62,-86.19 698.55,-75.6 692,-83.93 698.62,-86.19"/>
</g>
<!-- Node9&#45;&gt;Node10 -->
<g id="edge9" class="edge">
<title>Node9&#45;&gt;Node10</title>
<path fill="none" stroke="#63b8ff" d="M791.05,-115.37C796.92,-106.99 806.02,-94.01 813.46,-83.39"/>
<polygon fill="#63b8ff" stroke="#63b8ff" points="816.18,-85.6 819.06,-75.41 810.45,-81.59 816.18,-85.6"/>
</g>
<!-- Node11&#45;&gt;Node3 -->
<g id="edge12" class="edge">
<title>Node11&#45;&gt;Node3</title>
<path fill="none" stroke="#63b8ff" d="M332.46,-115.12C306.63,-105.37 264.91,-89.62 235.41,-78.49"/>
<polygon fill="#63b8ff" stroke="#63b8ff" points="236.77,-75.26 226.18,-75 234.3,-81.81 236.77,-75.26"/>
</g>
<!-- Node12 -->
<g id="node12" class="node">
<title>Node12</title>
<g id="a_node12"><a xlink:title=" ">
<polygon fill="#e0e0e0" stroke="#999999" points="499,-74 453,-74 453,-55 499,-55 499,-74"/>
<text text-anchor="middle" x="476" y="-62" font-family="Helvetica,sans-Serif" font-size="10.00">chrono</text>
</a>
</g>
</g>
<!-- Node11&#45;&gt;Node12 -->
<g id="edge13" class="edge">
<title>Node11&#45;&gt;Node12</title>
<path fill="none" stroke="#63b8ff" d="M374.23,-115.12C393.7,-105.62 424.82,-90.45 447.53,-79.38"/>
<polygon fill="#63b8ff" stroke="#63b8ff" points="448.79,-82.66 456.24,-75.13 445.72,-76.37 448.79,-82.66"/>
</g>
<!-- Node11&#45;&gt;Node13 -->
<g id="edge14" class="edge">
<title>Node11&#45;&gt;Node13</title>
<path fill="none" stroke="#63b8ff" d="M344.61,-115.12C333.16,-106.18 315.25,-92.22 301.35,-81.37"/>
<polygon fill="#63b8ff" stroke="#63b8ff" points="303.73,-78.79 293.69,-75.4 299.42,-84.31 303.73,-78.79"/>
</g>
<!-- Node15 -->
<g id="node15" class="node">
<title>Node15</title>
<g id="a_node15"><a xlink:href="IKeypad_8hpp.xhtml" target="_top" xlink:title=" ">
<polygon fill="white" stroke="#666666" points="241,-134.5 171,-134.5 171,-115.5 241,-115.5 241,-134.5"/>
<text text-anchor="middle" x="206" y="-122.5" font-family="Helvetica,sans-Serif" font-size="10.00">IKeypad.hpp</text>
</a>
</g>
</g>
<!-- Node14&#45;&gt;Node15 -->
<g id="edge16" class="edge">
<title>Node14&#45;&gt;Node15</title>
<path fill="none" stroke="#63b8ff" d="M206,-175.87C206,-168 206,-156.1 206,-145.89"/>
<polygon fill="#63b8ff" stroke="#63b8ff" points="209.5,-146.18 206,-136.18 202.5,-146.18 209.5,-146.18"/>
</g>
<!-- Node15&#45;&gt;Node3 -->
<g id="edge17" class="edge">
<title>Node15&#45;&gt;Node3</title>
<path fill="none" stroke="#63b8ff" d="M205.26,-115.37C204.59,-107.5 203.57,-95.6 202.7,-85.39"/>
<polygon fill="#63b8ff" stroke="#63b8ff" points="206.21,-85.34 201.87,-75.68 199.23,-85.94 206.21,-85.34"/>
</g>
<!-- Node15&#45;&gt;Node13 -->
<g id="edge18" class="edge">
<title>Node15&#45;&gt;Node13</title>
<path fill="none" stroke="#63b8ff" d="M217.39,-115.12C228.84,-106.18 246.75,-92.22 260.65,-81.37"/>
<polygon fill="#63b8ff" stroke="#63b8ff" points="262.58,-84.31 268.31,-75.4 258.27,-78.79 262.58,-84.31"/>
</g>
<!-- Node16&#45;&gt;Node4 -->
<g id="edge24" class="edge">
<title>Node16&#45;&gt;Node4</title>
<path fill="none" stroke="#63b8ff" d="M493.15,-109.5C505.75,-94.79 520.42,-71.84 508,-55 483.75,-22.13 435.54,-12.8 401.6,-10.52"/>
<polygon fill="#63b8ff" stroke="#63b8ff" points="401.92,-7.04 391.76,-10.06 401.59,-14.03 401.92,-7.04"/>
</g>
<!-- Node16&#45;&gt;Node13 -->
<g id="edge22" class="edge">
<title>Node16&#45;&gt;Node13</title>
<path fill="none" stroke="#63b8ff" d="M430.06,-109.54C396.81,-99.72 353.33,-86.87 321.93,-77.59"/>
<polygon fill="#63b8ff" stroke="#63b8ff" points="322.97,-74.25 312.39,-74.78 320.99,-80.97 322.97,-74.25"/>
</g>
<!-- Node17 -->
<g id="node17" class="node">
<title>Node17</title>
<g id="a_node17"><a xlink:title=" ">
<polygon fill="#e0e0e0" stroke="#999999" points="367,-74 329,-74 329,-55 367,-55 367,-74"/>
<text text-anchor="middle" x="348" y="-62" font-family="Helvetica,sans-Serif" font-size="10.00">array</text>
</a>
</g>
</g>
<!-- Node16&#45;&gt;Node17 -->
<g id="edge21" class="edge">
<title>Node16&#45;&gt;Node17</title>
<path fill="none" stroke="#63b8ff" d="M446.62,-109.54C425.55,-100.13 398.28,-87.96 377.76,-78.79"/>
<polygon fill="#63b8ff" stroke="#63b8ff" points="379.37,-75.67 368.81,-74.79 376.51,-82.07 379.37,-75.67"/>
</g>
<!-- Node18 -->
<g id="node18" class="node">
<title>Node18</title>
<g id="a_node18"><a xlink:title=" ">
<polygon fill="#e0e0e0" stroke="#999999" points="435,-74 385,-74 385,-55 435,-55 435,-74"/>
<text text-anchor="middle" x="410" y="-62" font-family="Helvetica,sans-Serif" font-size="10.00">optional</text>
</a>
</g>
</g>
<!-- Node16&#45;&gt;Node18 -->
<g id="edge23" class="edge">
<title>Node16&#45;&gt;Node18</title>
<path fill="none" stroke="#63b8ff" d="M461.94,-109.54C451.92,-101.04 439.24,-90.29 428.91,-81.53"/>
<polygon fill="#63b8ff" stroke="#63b8ff" points="431.28,-78.95 421.39,-75.15 426.75,-84.29 431.28,-78.95"/>
</g>
<!-- Node19 -->
<g id="node19" class="node">
<title>Node19</title>
<g id="a_node19"><a xlink:title=" ">
<polygon fill="#e0e0e0" stroke="#999999" points="596.5,-74 555.5,-74 555.5,-55 596.5,-55 596.5,-74"/>
<text text-anchor="middle" x="576" y="-62" font-family="Helvetica,sans-Serif" font-size="10.00">string</text>
</a>
</g>
</g>
<!-- Node16&#45;&gt;Node19 -->
<g id="edge25" class="edge">
<title>Node16&#45;&gt;Node19</title>
<path fill="none" stroke="#63b8ff" d="M502.98,-109.54C517.84,-100.58 536.87,-89.1 551.77,-80.11"/>
<polygon fill="#63b8ff" stroke="#63b8ff" points="553.28,-83.29 560.04,-75.13 549.67,-77.3 553.28,-83.29"/>
</g>
<!-- Node21&#45;&gt;Node12 -->
<g id="edge28" class="edge">
<title>Node21&#45;&gt;Node12</title>
<path fill="none" stroke="#63b8ff" d="M575.23,-115.12C556.33,-105.67 526.18,-90.59 504.06,-79.53"/>
<polygon fill="#63b8ff" stroke="#63b8ff" points="505.8,-76.49 495.29,-75.15 502.67,-82.75 505.8,-76.49"/>
</g>
<!-- Node21&#45;&gt;Node19 -->
<g id="edge30" class="edge">
<title>Node21&#45;&gt;Node19</title>
<path fill="none" stroke="#63b8ff" d="M590.49,-115.37C588.18,-107.42 584.67,-95.33 581.68,-85.05"/>
<polygon fill="#63b8ff" stroke="#63b8ff" points="585.09,-84.25 578.94,-75.62 578.37,-86.2 585.09,-84.25"/>
</g>
<!-- Node22 -->
<g id="node22" class="node">
<title>Node22</title>
<g id="a_node22"><a xlink:title=" ">
<polygon fill="#e0e0e0" stroke="#999999" points="649.5,-74 614.5,-74 614.5,-55 649.5,-55 649.5,-74"/>
<text text-anchor="middle" x="632" y="-62" font-family="Helvetica,sans-Serif" font-size="10.00">map</text>
</a>
</g>
</g>
<!-- Node21&#45;&gt;Node22 -->
<g id="edge29" class="edge">
<title>Node21&#45;&gt;Node22</title>
<path fill="none" stroke="#63b8ff" d="M598.75,-115.37C604.28,-107.07 612.82,-94.28 619.85,-83.72"/>
<polygon fill="#63b8ff" stroke="#63b8ff" points="622.75,-85.69 625.38,-75.43 616.92,-81.81 622.75,-85.69"/>
</g>
<!-- Node24 -->
<g id="node24" class="node">
<title>Node24</title>
<g id="a_node24"><a xlink:title=" ">
<polygon fill="#e0e0e0" stroke="#999999" points="1080,-134.5 1018,-134.5 1018,-115.5 1080,-115.5 1080,-134.5"/>
<text text-anchor="middle" x="1049" y="-122.5" font-family="Helvetica,sans-Serif" font-size="10.00">type_traits</text>
</a>
</g>
</g>
<!-- Node23&#45;&gt;Node24 -->
<g id="edge32" class="edge">
<title>Node23&#45;&gt;Node24</title>
<path fill="none" stroke="#63b8ff" d="M1007.23,-175.87C1014.4,-167.31 1025.57,-153.97 1034.56,-143.24"/>
<polygon fill="#63b8ff" stroke="#63b8ff" points="1037.03,-145.74 1040.77,-135.83 1031.66,-141.25 1037.03,-145.74"/>
</g>
</g>
</svg>
