<?xml version="1.0" encoding="UTF-8" standalone="no"?>
<!DOCTYPE svg PUBLIC "-//W3C//DTD SVG 1.1//EN"
 "http://www.w3.org/Graphics/SVG/1.1/DTD/svg11.dtd">
<!-- Generated by graphviz version 7.0.5 (20221223.1930)
 -->
<!-- Title: lib/application_business_rules/user_interaction/ProcessHmiInputs.cpp Pages: 1 -->
<svg width="1049pt" height="225pt"
 viewBox="0.00 0.00 1049.00 225.00" xmlns="http://www.w3.org/2000/svg" xmlns:xlink="http://www.w3.org/1999/xlink">
<g id="graph0" class="graph" transform="scale(1 1) rotate(0) translate(4 221)">
<title>lib/application_business_rules/user_interaction/ProcessHmiInputs.cpp</title>
<!-- Node1 -->
<g id="node1" class="node">
<title>Node1</title>
<g id="a_node1"><a xlink:title=" ">
<polygon fill="#999999" stroke="#666666" points="495,-217 375,-217 375,-176 495,-176 495,-217"/>
<text text-anchor="start" x="383" y="-205" font-family="Helvetica,sans-Serif" font-size="10.00">lib/application_business</text>
<text text-anchor="start" x="383" y="-194" font-family="Helvetica,sans-Serif" font-size="10.00">_rules/user_interaction</text>
<text text-anchor="middle" x="435" y="-183" font-family="Helvetica,sans-Serif" font-size="10.00">/ProcessHmiInputs.cpp</text>
</a>
</g>
</g>
<!-- Node2 -->
<g id="node2" class="node">
<title>Node2</title>
<g id="a_node2"><a xlink:href="ProcessHmiInputs_8hpp.xhtml" target="_top" xlink:title=" ">
<polygon fill="white" stroke="#666666" points="116,-134.5 0,-134.5 0,-115.5 116,-115.5 116,-134.5"/>
<text text-anchor="middle" x="58" y="-122.5" font-family="Helvetica,sans-Serif" font-size="10.00">ProcessHmiInputs.hpp</text>
</a>
</g>
</g>
<!-- Node1&#45;&gt;Node2 -->
<g id="edge1" class="edge">
<title>Node1&#45;&gt;Node2</title>
<path fill="none" stroke="#63b8ff" d="M374.61,-185.22C312.06,-174.45 211.55,-156.79 125,-140 120.47,-139.12 115.78,-138.19 111.07,-137.24"/>
<polygon fill="#63b8ff" stroke="#63b8ff" points="112.12,-133.88 101.62,-135.3 110.71,-140.74 112.12,-133.88"/>
</g>
<!-- Node5 -->
<g id="node5" class="node">
<title>Node5</title>
<g id="a_node5"><a xlink:href="IKeypad_8hpp.xhtml" target="_top" xlink:title=" ">
<polygon fill="white" stroke="#666666" points="204,-134.5 134,-134.5 134,-115.5 204,-115.5 204,-134.5"/>
<text text-anchor="middle" x="169" y="-122.5" font-family="Helvetica,sans-Serif" font-size="10.00">IKeypad.hpp</text>
</a>
</g>
</g>
<!-- Node1&#45;&gt;Node5 -->
<g id="edge4" class="edge">
<title>Node1&#45;&gt;Node5</title>
<path fill="none" stroke="#63b8ff" d="M374.9,-181.56C330.08,-170.9 267.46,-155.46 213,-140 211,-139.43 208.96,-138.84 206.91,-138.23"/>
<polygon fill="#63b8ff" stroke="#63b8ff" points="207.94,-134.89 197.36,-135.3 205.89,-141.58 207.94,-134.89"/>
</g>
<!-- Node6 -->
<g id="node6" class="node">
<title>Node6</title>
<g id="a_node6"><a xlink:title=" ">
<polygon fill="#e0e0e0" stroke="#999999" points="255.5,-74 196.5,-74 196.5,-55 255.5,-55 255.5,-74"/>
<text text-anchor="middle" x="226" y="-62" font-family="Helvetica,sans-Serif" font-size="10.00">functional</text>
</a>
</g>
</g>
<!-- Node1&#45;&gt;Node6 -->
<g id="edge18" class="edge">
<title>Node1&#45;&gt;Node6</title>
<path fill="none" stroke="#63b8ff" d="M413.01,-175.71C388.33,-153.75 349.59,-120.08 333,-110 311.57,-96.98 285.66,-86.1 264.69,-78.35"/>
<polygon fill="#63b8ff" stroke="#63b8ff" points="265.95,-75.08 255.35,-74.99 263.58,-81.67 265.95,-75.08"/>
</g>
<!-- Node7 -->
<g id="node7" class="node">
<title>Node7</title>
<g id="a_node7"><a xlink:href="Presenter_8hpp.xhtml" target="_top" xlink:title=" ">
<polygon fill="white" stroke="#666666" points="713.5,-134.5 636.5,-134.5 636.5,-115.5 713.5,-115.5 713.5,-134.5"/>
<text text-anchor="middle" x="675" y="-122.5" font-family="Helvetica,sans-Serif" font-size="10.00">Presenter.hpp</text>
</a>
</g>
</g>
<!-- Node1&#45;&gt;Node7 -->
<g id="edge7" class="edge">
<title>Node1&#45;&gt;Node7</title>
<path fill="none" stroke="#63b8ff" d="M495.25,-178.05C538.35,-165.57 595.24,-149.1 633.38,-138.05"/>
<polygon fill="#63b8ff" stroke="#63b8ff" points="634,-141.52 642.63,-135.37 632.05,-134.79 634,-141.52"/>
</g>
<!-- Node13 -->
<g id="node13" class="node">
<title>Node13</title>
<g id="a_node13"><a xlink:href="board__interface_8hpp.xhtml" target="_top" xlink:title=" ">
<polygon fill="white" stroke="#666666" points="323.5,-134.5 222.5,-134.5 222.5,-115.5 323.5,-115.5 323.5,-134.5"/>
<text text-anchor="middle" x="273" y="-122.5" font-family="Helvetica,sans-Serif" font-size="10.00">board_interface.hpp</text>
</a>
</g>
</g>
<!-- Node1&#45;&gt;Node13 -->
<g id="edge14" class="edge">
<title>Node1&#45;&gt;Node13</title>
<path fill="none" stroke="#63b8ff" d="M388.58,-175.58C361.5,-163.97 328.07,-149.62 304.14,-139.36"/>
<polygon fill="#63b8ff" stroke="#63b8ff" points="305.83,-136.28 295.26,-135.55 303.07,-142.71 305.83,-136.28"/>
</g>
<!-- Node15 -->
<g id="node15" class="node">
<title>Node15</title>
<g id="a_node15"><a xlink:href="serial__port__interface_8hpp.xhtml" target="_top" xlink:title=" ">
<polygon fill="white" stroke="#666666" points="489.5,-140 380.5,-140 380.5,-110 489.5,-110 489.5,-140"/>
<text text-anchor="start" x="388.5" y="-128" font-family="Helvetica,sans-Serif" font-size="10.00">serial_interface/serial</text>
<text text-anchor="middle" x="435" y="-117" font-family="Helvetica,sans-Serif" font-size="10.00">_port_interface.hpp</text>
</a>
</g>
</g>
<!-- Node1&#45;&gt;Node15 -->
<g id="edge19" class="edge">
<title>Node1&#45;&gt;Node15</title>
<path fill="none" stroke="#63b8ff" d="M435,-175.77C435,-168.31 435,-159.7 435,-151.77"/>
<polygon fill="#63b8ff" stroke="#63b8ff" points="438.5,-151.99 435,-141.99 431.5,-151.99 438.5,-151.99"/>
</g>
<!-- Node19 -->
<g id="node19" class="node">
<title>Node19</title>
<g id="a_node19"><a xlink:title=" ">
<polygon fill="#e0e0e0" stroke="#999999" points="790.5,-134.5 731.5,-134.5 731.5,-115.5 790.5,-115.5 790.5,-134.5"/>
<text text-anchor="middle" x="761" y="-122.5" font-family="Helvetica,sans-Serif" font-size="10.00">stdexcept</text>
</a>
</g>
</g>
<!-- Node1&#45;&gt;Node19 -->
<g id="edge25" class="edge">
<title>Node1&#45;&gt;Node19</title>
<path fill="none" stroke="#63b8ff" d="M495.23,-186.82C553.96,-177.67 645.5,-161.59 723,-140 724.61,-139.55 726.25,-139.07 727.89,-138.55"/>
<polygon fill="#63b8ff" stroke="#63b8ff" points="728.91,-141.91 737.26,-135.39 726.67,-135.27 728.91,-141.91"/>
</g>
<!-- Node20 -->
<g id="node20" class="node">
<title>Node20</title>
<g id="a_node20"><a xlink:href="Task_8hpp.xhtml" target="_top" xlink:title=" ">
<polygon fill="white" stroke="#666666" points="590.5,-134.5 507.5,-134.5 507.5,-115.5 590.5,-115.5 590.5,-134.5"/>
<text text-anchor="middle" x="549" y="-122.5" font-family="Helvetica,sans-Serif" font-size="10.00">tasks/Task.hpp</text>
</a>
</g>
</g>
<!-- Node1&#45;&gt;Node20 -->
<g id="edge26" class="edge">
<title>Node1&#45;&gt;Node20</title>
<path fill="none" stroke="#63b8ff" d="M467.67,-175.58C485.87,-164.49 508.14,-150.91 524.77,-140.77"/>
<polygon fill="#63b8ff" stroke="#63b8ff" points="526.3,-143.94 533.02,-135.74 522.66,-137.96 526.3,-143.94"/>
</g>
<!-- Node22 -->
<g id="node22" class="node">
<title>Node22</title>
<g id="a_node22"><a xlink:href="type__traits_8hpp.xhtml" target="_top" xlink:title=" ">
<polygon fill="white" stroke="#666666" points="955,-134.5 875,-134.5 875,-115.5 955,-115.5 955,-134.5"/>
<text text-anchor="middle" x="915" y="-122.5" font-family="Helvetica,sans-Serif" font-size="10.00">type_traits.hpp</text>
</a>
</g>
</g>
<!-- Node1&#45;&gt;Node22 -->
<g id="edge30" class="edge">
<title>Node1&#45;&gt;Node22</title>
<path fill="none" stroke="#63b8ff" d="M495.31,-186.77C590.47,-172.99 773.82,-146.44 863.32,-133.48"/>
<polygon fill="#63b8ff" stroke="#63b8ff" points="863.64,-136.97 873.03,-132.08 862.63,-130.05 863.64,-136.97"/>
</g>
<!-- Node3 -->
<g id="node3" class="node">
<title>Node3</title>
<g id="a_node3"><a xlink:href="KeyIds_8hpp.xhtml" target="_top" xlink:title=" ">
<polygon fill="white" stroke="#666666" points="178.5,-74 113.5,-74 113.5,-55 178.5,-55 178.5,-74"/>
<text text-anchor="middle" x="146" y="-62" font-family="Helvetica,sans-Serif" font-size="10.00">KeyIds.hpp</text>
</a>
</g>
</g>
<!-- Node2&#45;&gt;Node3 -->
<g id="edge2" class="edge">
<title>Node2&#45;&gt;Node3</title>
<path fill="none" stroke="#63b8ff" d="M71.37,-115.12C85.06,-106.01 106.62,-91.68 123.06,-80.75"/>
<polygon fill="#63b8ff" stroke="#63b8ff" points="124.86,-83.76 131.25,-75.31 120.98,-77.93 124.86,-83.76"/>
</g>
<!-- Node4 -->
<g id="node4" class="node">
<title>Node4</title>
<g id="a_node4"><a xlink:title=" ">
<polygon fill="#e0e0e0" stroke="#999999" points="241,-19 189,-19 189,0 241,0 241,-19"/>
<text text-anchor="middle" x="215" y="-7" font-family="Helvetica,sans-Serif" font-size="10.00">ostream</text>
</a>
</g>
</g>
<!-- Node3&#45;&gt;Node4 -->
<g id="edge3" class="edge">
<title>Node3&#45;&gt;Node4</title>
<path fill="none" stroke="#63b8ff" d="M157.7,-54.51C167.78,-46.77 182.54,-35.43 194.56,-26.2"/>
<polygon fill="#63b8ff" stroke="#63b8ff" points="196.47,-29.15 202.27,-20.28 192.21,-23.6 196.47,-29.15"/>
</g>
<!-- Node5&#45;&gt;Node3 -->
<g id="edge5" class="edge">
<title>Node5&#45;&gt;Node3</title>
<path fill="none" stroke="#63b8ff" d="M165.61,-115.37C162.45,-107.33 157.63,-95.07 153.56,-84.72"/>
<polygon fill="#63b8ff" stroke="#63b8ff" points="156.88,-83.6 149.96,-75.58 150.36,-86.16 156.88,-83.6"/>
</g>
<!-- Node5&#45;&gt;Node6 -->
<g id="edge6" class="edge">
<title>Node5&#45;&gt;Node6</title>
<path fill="none" stroke="#63b8ff" d="M177.41,-115.37C185.91,-106.64 199.27,-92.93 209.83,-82.09"/>
<polygon fill="#63b8ff" stroke="#63b8ff" points="212.03,-84.86 216.5,-75.25 207.01,-79.97 212.03,-84.86"/>
</g>
<!-- Node8 -->
<g id="node8" class="node">
<title>Node8</title>
<g id="a_node8"><a xlink:href="IStatusIndicator_8hpp.xhtml" target="_top" xlink:title=" ">
<polygon fill="white" stroke="#666666" points="755,-74 651,-74 651,-55 755,-55 755,-74"/>
<text text-anchor="middle" x="703" y="-62" font-family="Helvetica,sans-Serif" font-size="10.00">IStatusIndicator.hpp</text>
</a>
</g>
</g>
<!-- Node7&#45;&gt;Node8 -->
<g id="edge8" class="edge">
<title>Node7&#45;&gt;Node8</title>
<path fill="none" stroke="#63b8ff" d="M679.13,-115.37C683.02,-107.25 688.97,-94.81 693.96,-84.39"/>
<polygon fill="#63b8ff" stroke="#63b8ff" points="697.04,-86.06 698.2,-75.53 690.72,-83.04 697.04,-86.06"/>
</g>
<!-- Node9 -->
<g id="node9" class="node">
<title>Node9</title>
<g id="a_node9"><a xlink:href="Menu_8hpp.xhtml" target="_top" xlink:title=" ">
<polygon fill="white" stroke="#666666" points="960.5,-74 901.5,-74 901.5,-55 960.5,-55 960.5,-74"/>
<text text-anchor="middle" x="931" y="-62" font-family="Helvetica,sans-Serif" font-size="10.00">Menu.hpp</text>
</a>
</g>
</g>
<!-- Node7&#45;&gt;Node9 -->
<g id="edge9" class="edge">
<title>Node7&#45;&gt;Node9</title>
<path fill="none" stroke="#63b8ff" d="M704.35,-115.07C710.49,-113.3 716.94,-111.53 723,-110 794.12,-92.08 815.07,-90.31 890.22,-74.36"/>
<polygon fill="#63b8ff" stroke="#63b8ff" points="890.67,-77.84 899.71,-72.33 889.2,-71 890.67,-77.84"/>
</g>
<!-- Node11 -->
<g id="node11" class="node">
<title>Node11</title>
<g id="a_node11"><a xlink:href="hmi__configuration_8hpp.xhtml" target="_top" xlink:title=" ">
<polygon fill="white" stroke="#666666" points="883,-74 773,-74 773,-55 883,-55 883,-74"/>
<text text-anchor="middle" x="828" y="-62" font-family="Helvetica,sans-Serif" font-size="10.00">hmi_configuration.hpp</text>
</a>
</g>
</g>
<!-- Node7&#45;&gt;Node11 -->
<g id="edge11" class="edge">
<title>Node7&#45;&gt;Node11</title>
<path fill="none" stroke="#63b8ff" d="M698.24,-115.12C723.74,-105.37 764.91,-89.62 794.03,-78.49"/>
<polygon fill="#63b8ff" stroke="#63b8ff" points="795.04,-81.85 803.13,-75.01 792.54,-75.31 795.04,-81.85"/>
</g>
<!-- Node12 -->
<g id="node12" class="node">
<title>Node12</title>
<g id="a_node12"><a xlink:title=" ">
<polygon fill="#e0e0e0" stroke="#999999" points="749.5,-19 700.5,-19 700.5,0 749.5,0 749.5,-19"/>
<text text-anchor="middle" x="725" y="-7" font-family="Helvetica,sans-Serif" font-size="10.00">cstddef</text>
</a>
</g>
</g>
<!-- Node7&#45;&gt;Node12 -->
<g id="edge13" class="edge">
<title>Node7&#45;&gt;Node12</title>
<path fill="none" stroke="#63b8ff" d="M665.21,-115.23C651.5,-101.86 629.59,-75.74 642,-55 652.36,-37.69 672.02,-26.73 689.6,-20.02"/>
<polygon fill="#63b8ff" stroke="#63b8ff" points="690.43,-23.43 698.75,-16.86 688.15,-16.81 690.43,-23.43"/>
</g>
<!-- Node10 -->
<g id="node10" class="node">
<title>Node10</title>
<g id="a_node10"><a xlink:href="IDisplay_8hpp.xhtml" target="_top" xlink:title=" ">
<polygon fill="white" stroke="#666666" points="965.5,-19 896.5,-19 896.5,0 965.5,0 965.5,-19"/>
<text text-anchor="middle" x="931" y="-7" font-family="Helvetica,sans-Serif" font-size="10.00">IDisplay.hpp</text>
</a>
</g>
</g>
<!-- Node9&#45;&gt;Node10 -->
<g id="edge10" class="edge">
<title>Node9&#45;&gt;Node10</title>
<path fill="none" stroke="#63b8ff" d="M931,-54.75C931,-48.27 931,-39.16 931,-30.9"/>
<polygon fill="#63b8ff" stroke="#63b8ff" points="934.5,-30.96 931,-20.96 927.5,-30.96 934.5,-30.96"/>
</g>
<!-- Node11&#45;&gt;Node12 -->
<g id="edge12" class="edge">
<title>Node11&#45;&gt;Node12</title>
<path fill="none" stroke="#63b8ff" d="M810.53,-54.51C794.6,-46.31 770.81,-34.07 752.36,-24.58"/>
<polygon fill="#63b8ff" stroke="#63b8ff" points="754.05,-21.51 743.56,-20.05 750.85,-27.74 754.05,-21.51"/>
</g>
<!-- Node13&#45;&gt;Node3 -->
<g id="edge15" class="edge">
<title>Node13&#45;&gt;Node3</title>
<path fill="none" stroke="#63b8ff" d="M253.71,-115.12C233.01,-105.58 199.87,-90.31 175.81,-79.23"/>
<polygon fill="#63b8ff" stroke="#63b8ff" points="177.39,-76.11 166.84,-75.1 174.46,-82.46 177.39,-76.11"/>
</g>
<!-- Node13&#45;&gt;Node6 -->
<g id="edge17" class="edge">
<title>Node13&#45;&gt;Node6</title>
<path fill="none" stroke="#63b8ff" d="M266.06,-115.37C259.26,-106.9 248.69,-93.74 240.11,-83.07"/>
<polygon fill="#63b8ff" stroke="#63b8ff" points="242.9,-80.95 233.91,-75.35 237.45,-85.34 242.9,-80.95"/>
</g>
<!-- Node14 -->
<g id="node14" class="node">
<title>Node14</title>
<g id="a_node14"><a xlink:title=" ">
<polygon fill="#e0e0e0" stroke="#999999" points="414,-74 368,-74 368,-55 414,-55 414,-74"/>
<text text-anchor="middle" x="391" y="-62" font-family="Helvetica,sans-Serif" font-size="10.00">chrono</text>
</a>
</g>
</g>
<!-- Node13&#45;&gt;Node14 -->
<g id="edge16" class="edge">
<title>Node13&#45;&gt;Node14</title>
<path fill="none" stroke="#63b8ff" d="M290.92,-115.12C309.98,-105.67 340.4,-90.59 362.7,-79.53"/>
<polygon fill="#63b8ff" stroke="#63b8ff" points="364.15,-82.72 371.55,-75.14 361.04,-76.45 364.15,-82.72"/>
</g>
<!-- Node15&#45;&gt;Node4 -->
<g id="edge23" class="edge">
<title>Node15&#45;&gt;Node4</title>
<path fill="none" stroke="#63b8ff" d="M387.87,-109.52C362.08,-100.77 329.98,-88.51 303,-74 277.66,-60.37 251.24,-40.4 234.04,-26.51"/>
<polygon fill="#63b8ff" stroke="#63b8ff" points="236.62,-24.1 226.67,-20.46 232.18,-29.51 236.62,-24.1"/>
</g>
<!-- Node15&#45;&gt;Node6 -->
<g id="edge21" class="edge">
<title>Node15&#45;&gt;Node6</title>
<path fill="none" stroke="#63b8ff" d="M383.34,-109.54C347.28,-99.45 299.84,-86.17 266.51,-76.84"/>
<polygon fill="#63b8ff" stroke="#63b8ff" points="267.82,-73.57 257.24,-74.24 265.93,-80.31 267.82,-73.57"/>
</g>
<!-- Node16 -->
<g id="node16" class="node">
<title>Node16</title>
<g id="a_node16"><a xlink:title=" ">
<polygon fill="#e0e0e0" stroke="#999999" points="350,-74 312,-74 312,-55 350,-55 350,-74"/>
<text text-anchor="middle" x="331" y="-62" font-family="Helvetica,sans-Serif" font-size="10.00">array</text>
</a>
</g>
</g>
<!-- Node15&#45;&gt;Node16 -->
<g id="edge20" class="edge">
<title>Node15&#45;&gt;Node16</title>
<path fill="none" stroke="#63b8ff" d="M409.29,-109.54C393.21,-100.49 372.57,-88.88 356.52,-79.85"/>
<polygon fill="#63b8ff" stroke="#63b8ff" points="358.48,-76.94 348.05,-75.09 355.05,-83.04 358.48,-76.94"/>
</g>
<!-- Node17 -->
<g id="node17" class="node">
<title>Node17</title>
<g id="a_node17"><a xlink:title=" ">
<polygon fill="#e0e0e0" stroke="#999999" points="482,-74 432,-74 432,-55 482,-55 482,-74"/>
<text text-anchor="middle" x="457" y="-62" font-family="Helvetica,sans-Serif" font-size="10.00">optional</text>
</a>
</g>
</g>
<!-- Node15&#45;&gt;Node17 -->
<g id="edge22" class="edge">
<title>Node15&#45;&gt;Node17</title>
<path fill="none" stroke="#63b8ff" d="M440.44,-109.54C443.24,-102.08 446.7,-92.89 449.73,-84.83"/>
<polygon fill="#63b8ff" stroke="#63b8ff" points="452.96,-86.18 453.2,-75.59 446.41,-83.72 452.96,-86.18"/>
</g>
<!-- Node18 -->
<g id="node18" class="node">
<title>Node18</title>
<g id="a_node18"><a xlink:title=" ">
<polygon fill="#e0e0e0" stroke="#999999" points="541.5,-74 500.5,-74 500.5,-55 541.5,-55 541.5,-74"/>
<text text-anchor="middle" x="521" y="-62" font-family="Helvetica,sans-Serif" font-size="10.00">string</text>
</a>
</g>
</g>
<!-- Node15&#45;&gt;Node18 -->
<g id="edge24" class="edge">
<title>Node15&#45;&gt;Node18</title>
<path fill="none" stroke="#63b8ff" d="M456.26,-109.54C469.18,-100.75 485.66,-89.54 498.75,-80.63"/>
<polygon fill="#63b8ff" stroke="#63b8ff" points="500.44,-83.72 506.74,-75.2 496.51,-77.93 500.44,-83.72"/>
</g>
<!-- Node20&#45;&gt;Node14 -->
<g id="edge27" class="edge">
<title>Node20&#45;&gt;Node14</title>
<path fill="none" stroke="#63b8ff" d="M525,-115.12C498.32,-105.24 455.03,-89.21 424.9,-78.05"/>
<polygon fill="#63b8ff" stroke="#63b8ff" points="426.46,-74.9 415.87,-74.71 424.03,-81.46 426.46,-74.9"/>
</g>
<!-- Node20&#45;&gt;Node18 -->
<g id="edge29" class="edge">
<title>Node20&#45;&gt;Node18</title>
<path fill="none" stroke="#63b8ff" d="M544.87,-115.37C540.98,-107.25 535.03,-94.81 530.04,-84.39"/>
<polygon fill="#63b8ff" stroke="#63b8ff" points="533.28,-83.04 525.8,-75.53 526.96,-86.06 533.28,-83.04"/>
</g>
<!-- Node21 -->
<g id="node21" class="node">
<title>Node21</title>
<g id="a_node21"><a xlink:title=" ">
<polygon fill="#e0e0e0" stroke="#999999" points="594.5,-74 559.5,-74 559.5,-55 594.5,-55 594.5,-74"/>
<text text-anchor="middle" x="577" y="-62" font-family="Helvetica,sans-Serif" font-size="10.00">map</text>
</a>
</g>
</g>
<!-- Node20&#45;&gt;Node21 -->
<g id="edge28" class="edge">
<title>Node20&#45;&gt;Node21</title>
<path fill="none" stroke="#63b8ff" d="M553.13,-115.37C557.02,-107.25 562.97,-94.81 567.96,-84.39"/>
<polygon fill="#63b8ff" stroke="#63b8ff" points="571.04,-86.06 572.2,-75.53 564.72,-83.04 571.04,-86.06"/>
</g>
<!-- Node23 -->
<g id="node23" class="node">
<title>Node23</title>
<g id="a_node23"><a xlink:title=" ">
<polygon fill="#e0e0e0" stroke="#999999" points="1041,-74 979,-74 979,-55 1041,-55 1041,-74"/>
<text text-anchor="middle" x="1010" y="-62" font-family="Helvetica,sans-Serif" font-size="10.00">type_traits</text>
</a>
</g>
</g>
<!-- Node22&#45;&gt;Node23 -->
<g id="edge31" class="edge">
<title>Node22&#45;&gt;Node23</title>
<path fill="none" stroke="#63b8ff" d="M929.43,-115.12C944.35,-105.92 967.93,-91.41 985.73,-80.44"/>
<polygon fill="#63b8ff" stroke="#63b8ff" points="987.47,-83.49 994.15,-75.26 983.8,-77.53 987.47,-83.49"/>
</g>
</g>
</svg>
