<?xml version="1.0" encoding="UTF-8" standalone="no"?>
<!DOCTYPE svg PUBLIC "-//W3C//DTD SVG 1.1//EN"
 "http://www.w3.org/Graphics/SVG/1.1/DTD/svg11.dtd">
<!-- Generated by graphviz version 7.0.5 (20221223.1930)
 -->
<!-- Title: lib/application_business_rules/serial_interface/Protocol.cpp Pages: 1 -->
<svg width="865pt" height="214pt"
 viewBox="0.00 0.00 865.00 214.00" xmlns="http://www.w3.org/2000/svg" xmlns:xlink="http://www.w3.org/1999/xlink">
<g id="graph0" class="graph" transform="scale(1 1) rotate(0) translate(4 210)">
<title>lib/application_business_rules/serial_interface/Protocol.cpp</title>
<!-- Node1 -->
<g id="node1" class="node">
<title>Node1</title>
<g id="a_node1"><a xlink:title=" ">
<polygon fill="#999999" stroke="#666666" points="206.5,-206 86.5,-206 86.5,-165 206.5,-165 206.5,-206"/>
<text text-anchor="start" x="94.5" y="-194" font-family="Helvetica,sans-Serif" font-size="10.00">lib/application_business</text>
<text text-anchor="start" x="94.5" y="-183" font-family="Helvetica,sans-Serif" font-size="10.00">_rules/serial_interface</text>
<text text-anchor="middle" x="146.5" y="-172" font-family="Helvetica,sans-Serif" font-size="10.00">/Protocol.cpp</text>
</a>
</g>
</g>
<!-- Node2 -->
<g id="node2" class="node">
<title>Node2</title>
<g id="a_node2"><a xlink:href="Protocol_8hpp.xhtml" target="_top" xlink:title=" ">
<polygon fill="white" stroke="#666666" points="71,-129 0,-129 0,-110 71,-110 71,-129"/>
<text text-anchor="middle" x="35.5" y="-117" font-family="Helvetica,sans-Serif" font-size="10.00">Protocol.hpp</text>
</a>
</g>
</g>
<!-- Node1&#45;&gt;Node2 -->
<g id="edge1" class="edge">
<title>Node1&#45;&gt;Node2</title>
<path fill="none" stroke="#63b8ff" d="M111.99,-164.6C95.34,-155 75.73,-143.7 60.54,-134.94"/>
<polygon fill="#63b8ff" stroke="#63b8ff" points="62.54,-132.05 52.13,-130.09 59.04,-138.11 62.54,-132.05"/>
</g>
<!-- Node3 -->
<g id="node3" class="node">
<title>Node3</title>
<g id="a_node3"><a xlink:href="command__line__interpreter_8hpp.xhtml" target="_top" xlink:title=" ">
<polygon fill="white" stroke="#666666" points="668.5,-129 522.5,-129 522.5,-110 668.5,-110 668.5,-129"/>
<text text-anchor="middle" x="595.5" y="-117" font-family="Helvetica,sans-Serif" font-size="10.00">command_line_interpreter.hpp</text>
</a>
</g>
</g>
<!-- Node1&#45;&gt;Node3 -->
<g id="edge2" class="edge">
<title>Node1&#45;&gt;Node3</title>
<path fill="none" stroke="#63b8ff" d="M206.59,-175.94C287.97,-164.33 433.17,-143.64 521.27,-131.08"/>
<polygon fill="#63b8ff" stroke="#63b8ff" points="521.61,-134.57 531.02,-129.69 520.62,-127.64 521.61,-134.57"/>
</g>
<!-- Node12 -->
<g id="node12" class="node">
<title>Node12</title>
<g id="a_node12"><a xlink:title=" ">
<polygon fill="#e0e0e0" stroke="#999999" points="214,-19 173,-19 173,0 214,0 214,-19"/>
<text text-anchor="middle" x="193.5" y="-7" font-family="Helvetica,sans-Serif" font-size="10.00">string</text>
</a>
</g>
</g>
<!-- Node1&#45;&gt;Node12 -->
<g id="edge22" class="edge">
<title>Node1&#45;&gt;Node12</title>
<path fill="none" stroke="#63b8ff" d="M134.14,-164.77C119.21,-138.2 98.47,-90.18 118.5,-55 127.87,-38.54 146,-27.54 162.09,-20.59"/>
<polygon fill="#63b8ff" stroke="#63b8ff" points="163.32,-23.87 171.35,-16.97 160.77,-17.35 163.32,-23.87"/>
</g>
<!-- Node15 -->
<g id="node15" class="node">
<title>Node15</title>
<g id="a_node15"><a xlink:href="serial__port__interface_8hpp.xhtml" target="_top" xlink:title=" ">
<polygon fill="white" stroke="#666666" points="302.5,-129 180.5,-129 180.5,-110 302.5,-110 302.5,-129"/>
<text text-anchor="middle" x="241.5" y="-117" font-family="Helvetica,sans-Serif" font-size="10.00">serial_port_interface.hpp</text>
</a>
</g>
</g>
<!-- Node1&#45;&gt;Node15 -->
<g id="edge15" class="edge">
<title>Node1&#45;&gt;Node15</title>
<path fill="none" stroke="#63b8ff" d="M176.04,-164.6C189.96,-155.22 206.3,-144.21 219.17,-135.54"/>
<polygon fill="#63b8ff" stroke="#63b8ff" points="221.05,-138.5 227.39,-130.01 217.14,-132.69 221.05,-138.5"/>
</g>
<!-- Node16 -->
<g id="node16" class="node">
<title>Node16</title>
<g id="a_node16"><a xlink:title=" ">
<polygon fill="#e0e0e0" stroke="#999999" points="165.5,-74 127.5,-74 127.5,-55 165.5,-55 165.5,-74"/>
<text text-anchor="middle" x="146.5" y="-62" font-family="Helvetica,sans-Serif" font-size="10.00">array</text>
</a>
</g>
</g>
<!-- Node1&#45;&gt;Node16 -->
<g id="edge21" class="edge">
<title>Node1&#45;&gt;Node16</title>
<path fill="none" stroke="#63b8ff" d="M146.5,-164.58C146.5,-142.68 146.5,-107.68 146.5,-85.68"/>
<polygon fill="#63b8ff" stroke="#63b8ff" points="150,-85.93 146.5,-75.93 143,-85.93 150,-85.93"/>
</g>
<!-- Node4 -->
<g id="node4" class="node">
<title>Node4</title>
<g id="a_node4"><a xlink:title=" ">
<polygon fill="#e0e0e0" stroke="#999999" points="419,-74 360,-74 360,-55 419,-55 419,-74"/>
<text text-anchor="middle" x="389.5" y="-62" font-family="Helvetica,sans-Serif" font-size="10.00">functional</text>
</a>
</g>
</g>
<!-- Node3&#45;&gt;Node4 -->
<g id="edge3" class="edge">
<title>Node3&#45;&gt;Node4</title>
<path fill="none" stroke="#63b8ff" d="M560.55,-109.51C524.41,-100.21 468.01,-85.7 429.96,-75.91"/>
<polygon fill="#63b8ff" stroke="#63b8ff" points="431.28,-72.64 420.72,-73.53 429.54,-79.41 431.28,-72.64"/>
</g>
<!-- Node5 -->
<g id="node5" class="node">
<title>Node5</title>
<g id="a_node5"><a xlink:title=" ">
<polygon fill="#e0e0e0" stroke="#999999" points="677.5,-74 623.5,-74 623.5,-55 677.5,-55 677.5,-74"/>
<text text-anchor="middle" x="650.5" y="-62" font-family="Helvetica,sans-Serif" font-size="10.00">iostream</text>
</a>
</g>
</g>
<!-- Node3&#45;&gt;Node5 -->
<g id="edge4" class="edge">
<title>Node3&#45;&gt;Node5</title>
<path fill="none" stroke="#63b8ff" d="M604.58,-109.75C612.34,-102.27 623.71,-91.32 633.2,-82.17"/>
<polygon fill="#63b8ff" stroke="#63b8ff" points="635.36,-84.95 640.13,-75.49 630.5,-79.91 635.36,-84.95"/>
</g>
<!-- Node6 -->
<g id="node6" class="node">
<title>Node6</title>
<g id="a_node6"><a xlink:title=" ">
<polygon fill="#e0e0e0" stroke="#999999" points="743,-74 696,-74 696,-55 743,-55 743,-74"/>
<text text-anchor="middle" x="719.5" y="-62" font-family="Helvetica,sans-Serif" font-size="10.00">iterator</text>
</a>
</g>
</g>
<!-- Node3&#45;&gt;Node6 -->
<g id="edge5" class="edge">
<title>Node3&#45;&gt;Node6</title>
<path fill="none" stroke="#63b8ff" d="M616.53,-109.51C636.25,-101.08 665.97,-88.38 688.41,-78.79"/>
<polygon fill="#63b8ff" stroke="#63b8ff" points="689.56,-82.1 697.38,-74.95 686.81,-75.66 689.56,-82.1"/>
</g>
<!-- Node7 -->
<g id="node7" class="node">
<title>Node7</title>
<g id="a_node7"><a xlink:title=" ">
<polygon fill="#e0e0e0" stroke="#999999" points="477,-19 418,-19 418,0 477,0 477,-19"/>
<text text-anchor="middle" x="447.5" y="-7" font-family="Helvetica,sans-Serif" font-size="10.00">stdexcept</text>
</a>
</g>
</g>
<!-- Node3&#45;&gt;Node7 -->
<g id="edge6" class="edge">
<title>Node3&#45;&gt;Node7</title>
<path fill="none" stroke="#63b8ff" d="M535.03,-109.53C511.22,-103.2 485.36,-92.4 467.5,-74 456.16,-62.32 451.24,-44.26 449.11,-30.39"/>
<polygon fill="#63b8ff" stroke="#63b8ff" points="452.61,-30.17 448.01,-20.63 445.66,-30.96 452.61,-30.17"/>
</g>
<!-- Node8 -->
<g id="node8" class="node">
<title>Node8</title>
<g id="a_node8"><a xlink:title=" ">
<polygon fill="#e0e0e0" stroke="#999999" points="799.5,-74 761.5,-74 761.5,-55 799.5,-55 799.5,-74"/>
<text text-anchor="middle" x="780.5" y="-62" font-family="Helvetica,sans-Serif" font-size="10.00">tuple</text>
</a>
</g>
</g>
<!-- Node3&#45;&gt;Node8 -->
<g id="edge7" class="edge">
<title>Node3&#45;&gt;Node8</title>
<path fill="none" stroke="#63b8ff" d="M627.72,-109.55C657.26,-101.31 702.48,-88.59 750.34,-74.6"/>
<polygon fill="#63b8ff" stroke="#63b8ff" points="751.17,-78 759.78,-71.83 749.2,-71.28 751.17,-78"/>
</g>
<!-- Node9 -->
<g id="node9" class="node">
<title>Node9</title>
<g id="a_node9"><a xlink:href="string__helpers_8hpp.xhtml" target="_top" xlink:title=" ">
<polygon fill="white" stroke="#666666" points="605,-74 476,-74 476,-55 605,-55 605,-74"/>
<text text-anchor="middle" x="540.5" y="-62" font-family="Helvetica,sans-Serif" font-size="10.00">utilities/string_helpers.hpp</text>
</a>
</g>
</g>
<!-- Node3&#45;&gt;Node9 -->
<g id="edge8" class="edge">
<title>Node3&#45;&gt;Node9</title>
<path fill="none" stroke="#63b8ff" d="M586.42,-109.75C578.66,-102.27 567.29,-91.32 557.8,-82.17"/>
<polygon fill="#63b8ff" stroke="#63b8ff" points="560.5,-79.91 550.87,-75.49 555.64,-84.95 560.5,-79.91"/>
</g>
<!-- Node14 -->
<g id="node14" class="node">
<title>Node14</title>
<g id="a_node14"><a xlink:title=" ">
<polygon fill="#e0e0e0" stroke="#999999" points="857,-74 818,-74 818,-55 857,-55 857,-74"/>
<text text-anchor="middle" x="837.5" y="-62" font-family="Helvetica,sans-Serif" font-size="10.00">utility</text>
</a>
</g>
</g>
<!-- Node3&#45;&gt;Node14 -->
<g id="edge14" class="edge">
<title>Node3&#45;&gt;Node14</title>
<path fill="none" stroke="#63b8ff" d="M643.97,-109.51C684.85,-101.67 745.13,-89.52 806.52,-74.33"/>
<polygon fill="#63b8ff" stroke="#63b8ff" points="807.27,-77.75 816.12,-71.93 805.57,-70.96 807.27,-77.75"/>
</g>
<!-- Node9&#45;&gt;Node7 -->
<g id="edge11" class="edge">
<title>Node9&#45;&gt;Node7</title>
<path fill="none" stroke="#63b8ff" d="M524.72,-54.51C510.48,-46.39 489.26,-34.3 472.67,-24.85"/>
<polygon fill="#63b8ff" stroke="#63b8ff" points="474.78,-22.02 464.36,-20.11 471.31,-28.1 474.78,-22.02"/>
</g>
<!-- Node10 -->
<g id="node10" class="node">
<title>Node10</title>
<g id="a_node10"><a xlink:title=" ">
<polygon fill="#e0e0e0" stroke="#999999" points="545.5,-19 495.5,-19 495.5,0 545.5,0 545.5,-19"/>
<text text-anchor="middle" x="520.5" y="-7" font-family="Helvetica,sans-Serif" font-size="10.00">iomanip</text>
</a>
</g>
</g>
<!-- Node9&#45;&gt;Node10 -->
<g id="edge9" class="edge">
<title>Node9&#45;&gt;Node10</title>
<path fill="none" stroke="#63b8ff" d="M537.2,-54.75C534.67,-48.04 531.07,-38.52 527.87,-30.02"/>
<polygon fill="#63b8ff" stroke="#63b8ff" points="531.21,-28.98 524.41,-20.86 524.66,-31.45 531.21,-28.98"/>
</g>
<!-- Node11 -->
<g id="node11" class="node">
<title>Node11</title>
<g id="a_node11"><a xlink:title=" ">
<polygon fill="#e0e0e0" stroke="#999999" points="615.5,-19 563.5,-19 563.5,0 615.5,0 615.5,-19"/>
<text text-anchor="middle" x="589.5" y="-7" font-family="Helvetica,sans-Serif" font-size="10.00">sstream</text>
</a>
</g>
</g>
<!-- Node9&#45;&gt;Node11 -->
<g id="edge10" class="edge">
<title>Node9&#45;&gt;Node11</title>
<path fill="none" stroke="#63b8ff" d="M548.59,-54.75C555.36,-47.43 565.22,-36.76 573.56,-27.74"/>
<polygon fill="#63b8ff" stroke="#63b8ff" points="575.99,-30.27 580.21,-20.55 570.85,-25.52 575.99,-30.27"/>
</g>
<!-- Node9&#45;&gt;Node12 -->
<g id="edge12" class="edge">
<title>Node9&#45;&gt;Node12</title>
<path fill="none" stroke="#63b8ff" d="M481.64,-54.51C407.65,-43.21 283.32,-24.22 225.22,-15.34"/>
<polygon fill="#63b8ff" stroke="#63b8ff" points="226.1,-11.94 215.69,-13.89 225.04,-18.86 226.1,-11.94"/>
</g>
<!-- Node13 -->
<g id="node13" class="node">
<title>Node13</title>
<g id="a_node13"><a xlink:title=" ">
<polygon fill="#e0e0e0" stroke="#999999" points="677.5,-19 633.5,-19 633.5,0 677.5,0 677.5,-19"/>
<text text-anchor="middle" x="655.5" y="-7" font-family="Helvetica,sans-Serif" font-size="10.00">vector</text>
</a>
</g>
</g>
<!-- Node9&#45;&gt;Node13 -->
<g id="edge13" class="edge">
<title>Node9&#45;&gt;Node13</title>
<path fill="none" stroke="#63b8ff" d="M560.01,-54.51C578.13,-46.16 605.35,-33.61 626.1,-24.05"/>
<polygon fill="#63b8ff" stroke="#63b8ff" points="627.29,-27.36 634.91,-19.99 624.36,-21 627.29,-27.36"/>
</g>
<!-- Node15&#45;&gt;Node4 -->
<g id="edge17" class="edge">
<title>Node15&#45;&gt;Node4</title>
<path fill="none" stroke="#63b8ff" d="M266.61,-109.51C290.67,-100.89 327.22,-87.8 354.21,-78.14"/>
<polygon fill="#63b8ff" stroke="#63b8ff" points="355.11,-81.53 363.34,-74.87 352.75,-74.94 355.11,-81.53"/>
</g>
<!-- Node15&#45;&gt;Node12 -->
<g id="edge20" class="edge">
<title>Node15&#45;&gt;Node12</title>
<path fill="none" stroke="#63b8ff" d="M234.7,-109.74C228.24,-101.07 218.63,-87.22 212.5,-74 205.97,-59.92 201.05,-43.05 197.85,-30.23"/>
<polygon fill="#63b8ff" stroke="#63b8ff" points="201.35,-29.83 195.66,-20.89 194.53,-31.43 201.35,-29.83"/>
</g>
<!-- Node15&#45;&gt;Node16 -->
<g id="edge16" class="edge">
<title>Node15&#45;&gt;Node16</title>
<path fill="none" stroke="#63b8ff" d="M225.38,-109.51C210.83,-101.39 189.16,-89.3 172.21,-79.85"/>
<polygon fill="#63b8ff" stroke="#63b8ff" points="174.14,-76.91 163.7,-75.1 170.73,-83.02 174.14,-76.91"/>
</g>
<!-- Node17 -->
<g id="node17" class="node">
<title>Node17</title>
<g id="a_node17"><a xlink:title=" ">
<polygon fill="#e0e0e0" stroke="#999999" points="271.5,-74 221.5,-74 221.5,-55 271.5,-55 271.5,-74"/>
<text text-anchor="middle" x="246.5" y="-62" font-family="Helvetica,sans-Serif" font-size="10.00">optional</text>
</a>
</g>
</g>
<!-- Node15&#45;&gt;Node17 -->
<g id="edge18" class="edge">
<title>Node15&#45;&gt;Node17</title>
<path fill="none" stroke="#63b8ff" d="M242.33,-109.75C242.94,-103.27 243.8,-94.16 244.58,-85.9"/>
<polygon fill="#63b8ff" stroke="#63b8ff" points="248.06,-86.23 245.51,-75.95 241.09,-85.58 248.06,-86.23"/>
</g>
<!-- Node18 -->
<g id="node18" class="node">
<title>Node18</title>
<g id="a_node18"><a xlink:title=" ">
<polygon fill="#e0e0e0" stroke="#999999" points="341.5,-74 289.5,-74 289.5,-55 341.5,-55 341.5,-74"/>
<text text-anchor="middle" x="315.5" y="-62" font-family="Helvetica,sans-Serif" font-size="10.00">ostream</text>
</a>
</g>
</g>
<!-- Node15&#45;&gt;Node18 -->
<g id="edge19" class="edge">
<title>Node15&#45;&gt;Node18</title>
<path fill="none" stroke="#63b8ff" d="M254.05,-109.51C264.96,-101.7 281,-90.21 293.96,-80.93"/>
<polygon fill="#63b8ff" stroke="#63b8ff" points="295.81,-83.91 301.9,-75.24 291.73,-78.22 295.81,-83.91"/>
</g>
</g>
</svg>
