<?xml version="1.0" encoding="UTF-8" standalone="no"?>
<!DOCTYPE svg PUBLIC "-//W3C//DTD SVG 1.1//EN"
 "http://www.w3.org/Graphics/SVG/1.1/DTD/svg11.dtd">
<!-- Generated by graphviz version 7.0.5 (20221223.1930)
 -->
<!-- Title: lib/application_business_rules/serial_interface/serial_port_interface.hpp Pages: 1 -->
<svg width="697pt" height="258pt"
 viewBox="0.00 0.00 696.50 258.00" xmlns="http://www.w3.org/2000/svg" xmlns:xlink="http://www.w3.org/1999/xlink">
<g id="graph0" class="graph" transform="scale(1 1) rotate(0) translate(4 254)">
<title>lib/application_business_rules/serial_interface/serial_port_interface.hpp</title>
<!-- Node1 -->
<g id="node1" class="node">
<title>Node1</title>
<g id="a_node1"><a xlink:title=" ">
<polygon fill="#999999" stroke="#666666" points="532,-250 407,-250 407,-209 532,-209 532,-250"/>
<text text-anchor="start" x="415" y="-238" font-family="Helvetica,sans-Serif" font-size="10.00">lib/application_business</text>
<text text-anchor="start" x="415" y="-227" font-family="Helvetica,sans-Serif" font-size="10.00">_rules/serial_interface</text>
<text text-anchor="middle" x="469.5" y="-216" font-family="Helvetica,sans-Serif" font-size="10.00">/serial_port_interface.hpp</text>
</a>
</g>
</g>
<!-- Node2 -->
<g id="node2" class="node">
<title>Node2</title>
<g id="a_node2"><a xlink:href="serial__port_8hpp.xhtml" target="_top" xlink:title="This is a Proxy header.">
<polygon fill="white" stroke="#666666" points="322,-167.5 203,-167.5 203,-137.5 322,-137.5 322,-167.5"/>
<text text-anchor="start" x="211" y="-155.5" font-family="Helvetica,sans-Serif" font-size="10.00">lib/3rd_party_adapters</text>
<text text-anchor="middle" x="262.5" y="-144.5" font-family="Helvetica,sans-Serif" font-size="10.00">/Arduino/serial_port.hpp</text>
</a>
</g>
</g>
<!-- Node1&#45;&gt;Node2 -->
<g id="edge1" class="edge">
<title>Node1&#45;&gt;Node2</title>
<path fill="none" stroke="#63b8ff" d="M403.96,-204.75C370.55,-192.65 331.02,-178.33 302.25,-167.9"/>
<polygon fill="#63b8ff" stroke="#63b8ff" points="402.55,-207.97 413.15,-208.08 404.94,-201.39 402.55,-207.97"/>
</g>
<!-- Node7 -->
<g id="node7" class="node">
<title>Node7</title>
<g id="a_node7"><a xlink:href="Protocol_8cpp.xhtml" target="_top" xlink:title=" ">
<polygon fill="white" stroke="#666666" points="460.5,-173 340.5,-173 340.5,-132 460.5,-132 460.5,-173"/>
<text text-anchor="start" x="348.5" y="-161" font-family="Helvetica,sans-Serif" font-size="10.00">lib/application_business</text>
<text text-anchor="start" x="348.5" y="-150" font-family="Helvetica,sans-Serif" font-size="10.00">_rules/serial_interface</text>
<text text-anchor="middle" x="400.5" y="-139" font-family="Helvetica,sans-Serif" font-size="10.00">/Protocol.cpp</text>
</a>
</g>
</g>
<!-- Node1&#45;&gt;Node7 -->
<g id="edge7" class="edge">
<title>Node1&#45;&gt;Node7</title>
<path fill="none" stroke="#63b8ff" d="M443.7,-200.46C435.4,-191.44 426.39,-181.64 418.75,-173.33"/>
<polygon fill="#63b8ff" stroke="#63b8ff" points="441,-202.69 450.35,-207.68 446.15,-197.95 441,-202.69"/>
</g>
<!-- Node8 -->
<g id="node8" class="node">
<title>Node8</title>
<g id="a_node8"><a xlink:href="ProcessHmiInputs_8cpp.xhtml" target="_top" xlink:title=" ">
<polygon fill="white" stroke="#666666" points="598.5,-173 478.5,-173 478.5,-132 598.5,-132 598.5,-173"/>
<text text-anchor="start" x="486.5" y="-161" font-family="Helvetica,sans-Serif" font-size="10.00">lib/application_business</text>
<text text-anchor="start" x="486.5" y="-150" font-family="Helvetica,sans-Serif" font-size="10.00">_rules/user_interaction</text>
<text text-anchor="middle" x="538.5" y="-139" font-family="Helvetica,sans-Serif" font-size="10.00">/ProcessHmiInputs.cpp</text>
</a>
</g>
</g>
<!-- Node1&#45;&gt;Node8 -->
<g id="edge8" class="edge">
<title>Node1&#45;&gt;Node8</title>
<path fill="none" stroke="#63b8ff" d="M495.3,-200.46C503.6,-191.44 512.61,-181.64 520.25,-173.33"/>
<polygon fill="#63b8ff" stroke="#63b8ff" points="492.85,-197.95 488.65,-207.68 498,-202.69 492.85,-197.95"/>
</g>
<!-- Node9 -->
<g id="node9" class="node">
<title>Node9</title>
<g id="a_node9"><a xlink:href="main_8cpp.xhtml" target="_top" xlink:title=" ">
<polygon fill="white" stroke="#666666" points="688.5,-162 616.5,-162 616.5,-143 688.5,-143 688.5,-162"/>
<text text-anchor="middle" x="652.5" y="-150" font-family="Helvetica,sans-Serif" font-size="10.00">src/main.cpp</text>
</a>
</g>
</g>
<!-- Node1&#45;&gt;Node9 -->
<g id="edge9" class="edge">
<title>Node1&#45;&gt;Node9</title>
<path fill="none" stroke="#63b8ff" d="M530.51,-204.37C554.56,-194.75 582.38,-183.49 607.5,-173 615.67,-169.59 624.63,-165.73 632.39,-162.35"/>
<polygon fill="#63b8ff" stroke="#63b8ff" points="529.5,-201 521.51,-207.96 532.09,-207.5 529.5,-201"/>
</g>
<!-- Node3 -->
<g id="node3" class="node">
<title>Node3</title>
<g id="a_node3"><a xlink:href="SerialOutputStreamBuffer_8hpp.xhtml" target="_top" xlink:title=" ">
<polygon fill="white" stroke="#666666" points="234,-96 49,-96 49,-66 234,-66 234,-96"/>
<text text-anchor="start" x="57" y="-84" font-family="Helvetica,sans-Serif" font-size="10.00">lib/3rd_party_adapters</text>
<text text-anchor="middle" x="141.5" y="-73" font-family="Helvetica,sans-Serif" font-size="10.00">/Arduino/SerialOutputStreamBuffer.hpp</text>
</a>
</g>
</g>
<!-- Node2&#45;&gt;Node3 -->
<g id="edge2" class="edge">
<title>Node2&#45;&gt;Node3</title>
<path fill="none" stroke="#63b8ff" d="M227.67,-131.49C208.13,-120.27 184.22,-106.54 166.54,-96.38"/>
<polygon fill="#63b8ff" stroke="#63b8ff" points="225.7,-134.4 236.12,-136.35 229.19,-128.33 225.7,-134.4"/>
</g>
<!-- Node5 -->
<g id="node5" class="node">
<title>Node5</title>
<g id="a_node5"><a xlink:href="serial__port_8cpp.xhtml" target="_top" xlink:title=" ">
<polygon fill="white" stroke="#666666" points="322,-30 203,-30 203,0 322,0 322,-30"/>
<text text-anchor="start" x="211" y="-18" font-family="Helvetica,sans-Serif" font-size="10.00">lib/3rd_party_adapters</text>
<text text-anchor="middle" x="262.5" y="-7" font-family="Helvetica,sans-Serif" font-size="10.00">/Arduino/serial_port.cpp</text>
</a>
</g>
</g>
<!-- Node2&#45;&gt;Node5 -->
<g id="edge5" class="edge">
<title>Node2&#45;&gt;Node5</title>
<path fill="none" stroke="#63b8ff" d="M262.5,-125.91C262.5,-97.67 262.5,-53.21 262.5,-30.46"/>
<polygon fill="#63b8ff" stroke="#63b8ff" points="259,-125.74 262.5,-135.74 266,-125.74 259,-125.74"/>
</g>
<!-- Node6 -->
<g id="node6" class="node">
<title>Node6</title>
<g id="a_node6"><a xlink:href="test__serial__port_8cpp.xhtml" target="_top" xlink:title=" ">
<polygon fill="white" stroke="#666666" points="394.5,-96 290.5,-96 290.5,-66 394.5,-66 394.5,-96"/>
<text text-anchor="start" x="298.5" y="-84" font-family="Helvetica,sans-Serif" font-size="10.00">test/test_serial_port</text>
<text text-anchor="middle" x="342.5" y="-73" font-family="Helvetica,sans-Serif" font-size="10.00">/test_serial_port.cpp</text>
</a>
</g>
</g>
<!-- Node2&#45;&gt;Node6 -->
<g id="edge6" class="edge">
<title>Node2&#45;&gt;Node6</title>
<path fill="none" stroke="#63b8ff" d="M287.69,-129.62C300.17,-118.77 314.9,-105.98 325.95,-96.38"/>
<polygon fill="#63b8ff" stroke="#63b8ff" points="285.47,-126.91 280.22,-136.11 290.06,-132.19 285.47,-126.91"/>
</g>
<!-- Node4 -->
<g id="node4" class="node">
<title>Node4</title>
<g id="a_node4"><a xlink:href="SerialOutputStreamBuffer_8cpp.xhtml" target="_top" xlink:title=" ">
<polygon fill="white" stroke="#666666" points="185,-30 0,-30 0,0 185,0 185,-30"/>
<text text-anchor="start" x="8" y="-18" font-family="Helvetica,sans-Serif" font-size="10.00">lib/3rd_party_adapters</text>
<text text-anchor="middle" x="92.5" y="-7" font-family="Helvetica,sans-Serif" font-size="10.00">/Arduino/SerialOutputStreamBuffer.cpp</text>
</a>
</g>
</g>
<!-- Node3&#45;&gt;Node4 -->
<g id="edge3" class="edge">
<title>Node3&#45;&gt;Node4</title>
<path fill="none" stroke="#63b8ff" d="M123.64,-56.68C116.84,-47.79 109.3,-37.95 103.34,-30.16"/>
<polygon fill="#63b8ff" stroke="#63b8ff" points="120.85,-58.78 129.71,-64.59 126.41,-54.53 120.85,-58.78"/>
</g>
<!-- Node3&#45;&gt;Node5 -->
<g id="edge4" class="edge">
<title>Node3&#45;&gt;Node5</title>
<path fill="none" stroke="#63b8ff" d="M178.71,-60.32C197.03,-50.63 218.72,-39.16 235.44,-30.31"/>
<polygon fill="#63b8ff" stroke="#63b8ff" points="177.2,-57.16 169.99,-64.93 180.47,-63.35 177.2,-57.16"/>
</g>
</g>
</svg>
