<?xml version="1.0" encoding="UTF-8" standalone="no"?>
<!DOCTYPE svg PUBLIC "-//W3C//DTD SVG 1.1//EN"
 "http://www.w3.org/Graphics/SVG/1.1/DTD/svg11.dtd">
<!-- Generated by graphviz version 7.0.5 (20221223.1930)
 -->
<!-- Title: lib/3rd_party_adapters/serial_port/serial_port.cpp Pages: 1 -->
<svg width="555pt" height="258pt"
 viewBox="0.00 0.00 555.00 258.00" xmlns="http://www.w3.org/2000/svg" xmlns:xlink="http://www.w3.org/1999/xlink">
<g id="graph0" class="graph" transform="scale(1 1) rotate(0) translate(4 254)">
<title>lib/3rd_party_adapters/serial_port/serial_port.cpp</title>
<!-- Node1 -->
<g id="node1" class="node">
<title>Node1</title>
<g id="a_node1"><a xlink:title=" ">
<polygon fill="#999999" stroke="#666666" points="438.5,-250 307.5,-250 307.5,-220 438.5,-220 438.5,-250"/>
<text text-anchor="start" x="315.5" y="-238" font-family="Helvetica,sans-Serif" font-size="10.00">lib/3rd_party_adapters</text>
<text text-anchor="middle" x="373" y="-227" font-family="Helvetica,sans-Serif" font-size="10.00">/serial_port/serial_port.cpp</text>
</a>
</g>
</g>
<!-- Node2 -->
<g id="node2" class="node">
<title>Node2</title>
<g id="a_node2"><a xlink:href="serial__port_8hpp.xhtml" target="_top" xlink:title="This files serves as hint to the PlatformIO Library Dependency Finder to find the corresponding sourc...">
<polygon fill="white" stroke="#666666" points="199,-129 119,-129 119,-110 199,-110 199,-129"/>
<text text-anchor="middle" x="159" y="-117" font-family="Helvetica,sans-Serif" font-size="10.00">serial_port.hpp</text>
</a>
</g>
</g>
<!-- Node1&#45;&gt;Node2 -->
<g id="edge1" class="edge">
<title>Node1&#45;&gt;Node2</title>
<path fill="none" stroke="#63b8ff" d="M307.1,-225.47C255.55,-217.42 189.59,-203.65 171,-184 160.14,-172.52 157.6,-154.44 157.51,-140.51"/>
<polygon fill="#63b8ff" stroke="#63b8ff" points="161,-140.82 157.89,-130.7 154,-140.55 161,-140.82"/>
</g>
<!-- Node9 -->
<g id="node9" class="node">
<title>Node9</title>
<g id="a_node9"><a xlink:href="SerialOutputStreamBuffer_8hpp.xhtml" target="_top" xlink:title=" ">
<polygon fill="white" stroke="#666666" points="326,-184 180,-184 180,-165 326,-165 326,-184"/>
<text text-anchor="middle" x="253" y="-172" font-family="Helvetica,sans-Serif" font-size="10.00">SerialOutputStreamBuffer.hpp</text>
</a>
</g>
</g>
<!-- Node1&#45;&gt;Node9 -->
<g id="edge8" class="edge">
<title>Node1&#45;&gt;Node9</title>
<path fill="none" stroke="#63b8ff" d="M343.34,-219.54C324.42,-210.32 300.05,-198.44 281.39,-189.34"/>
<polygon fill="#63b8ff" stroke="#63b8ff" points="283.03,-186.25 272.51,-185.01 279.96,-192.54 283.03,-186.25"/>
</g>
<!-- Node11 -->
<g id="node11" class="node">
<title>Node11</title>
<g id="a_node11"><a xlink:title=" ">
<polygon fill="#e0e0e0" stroke="#999999" points="401.5,-184 344.5,-184 344.5,-165 401.5,-165 401.5,-184"/>
<text text-anchor="middle" x="373" y="-172" font-family="Helvetica,sans-Serif" font-size="10.00">Arduino.h</text>
</a>
</g>
</g>
<!-- Node1&#45;&gt;Node11 -->
<g id="edge11" class="edge">
<title>Node1&#45;&gt;Node11</title>
<path fill="none" stroke="#63b8ff" d="M373,-219.54C373,-212.34 373,-203.53 373,-195.68"/>
<polygon fill="#63b8ff" stroke="#63b8ff" points="376.5,-195.69 373,-185.69 369.5,-195.69 376.5,-195.69"/>
</g>
<!-- Node12 -->
<g id="node12" class="node">
<title>Node12</title>
<g id="a_node12"><a xlink:title=" ">
<polygon fill="#e0e0e0" stroke="#999999" points="466.5,-184 419.5,-184 419.5,-165 466.5,-165 466.5,-184"/>
<text text-anchor="middle" x="443" y="-172" font-family="Helvetica,sans-Serif" font-size="10.00">iterator</text>
</a>
</g>
</g>
<!-- Node1&#45;&gt;Node12 -->
<g id="edge12" class="edge">
<title>Node1&#45;&gt;Node12</title>
<path fill="none" stroke="#63b8ff" d="M390.3,-219.54C400.47,-211.04 413.34,-200.29 423.82,-191.53"/>
<polygon fill="#63b8ff" stroke="#63b8ff" points="426.03,-194.24 431.46,-185.15 421.54,-188.87 426.03,-194.24"/>
</g>
<!-- Node13 -->
<g id="node13" class="node">
<title>Node13</title>
<g id="a_node13"><a xlink:title=" ">
<polygon fill="#e0e0e0" stroke="#999999" points="547,-184 485,-184 485,-165 547,-165 547,-184"/>
<text text-anchor="middle" x="516" y="-172" font-family="Helvetica,sans-Serif" font-size="10.00">type_traits</text>
</a>
</g>
</g>
<!-- Node1&#45;&gt;Node13 -->
<g id="edge13" class="edge">
<title>Node1&#45;&gt;Node13</title>
<path fill="none" stroke="#63b8ff" d="M408.35,-219.54C431.52,-210.06 461.56,-197.77 484.02,-188.58"/>
<polygon fill="#63b8ff" stroke="#63b8ff" points="485.04,-191.95 492.98,-184.92 482.39,-185.47 485.04,-191.95"/>
</g>
<!-- Node3 -->
<g id="node3" class="node">
<title>Node3</title>
<g id="a_node3"><a xlink:href="serial__port__interface_8hpp.xhtml" target="_top" xlink:title=" ">
<polygon fill="white" stroke="#666666" points="220,-74 98,-74 98,-55 220,-55 220,-74"/>
<text text-anchor="middle" x="159" y="-62" font-family="Helvetica,sans-Serif" font-size="10.00">serial_port_interface.hpp</text>
</a>
</g>
</g>
<!-- Node2&#45;&gt;Node3 -->
<g id="edge2" class="edge">
<title>Node2&#45;&gt;Node3</title>
<path fill="none" stroke="#63b8ff" d="M159,-109.75C159,-103.27 159,-94.16 159,-85.9"/>
<polygon fill="#63b8ff" stroke="#63b8ff" points="162.5,-85.96 159,-75.96 155.5,-85.96 162.5,-85.96"/>
</g>
<!-- Node4 -->
<g id="node4" class="node">
<title>Node4</title>
<g id="a_node4"><a xlink:title=" ">
<polygon fill="#e0e0e0" stroke="#999999" points="38,-19 0,-19 0,0 38,0 38,-19"/>
<text text-anchor="middle" x="19" y="-7" font-family="Helvetica,sans-Serif" font-size="10.00">array</text>
</a>
</g>
</g>
<!-- Node3&#45;&gt;Node4 -->
<g id="edge3" class="edge">
<title>Node3&#45;&gt;Node4</title>
<path fill="none" stroke="#63b8ff" d="M135.25,-54.51C111.47,-45.51 74.79,-31.62 49,-21.86"/>
<polygon fill="#63b8ff" stroke="#63b8ff" points="50.36,-18.63 39.76,-18.36 47.88,-25.17 50.36,-18.63"/>
</g>
<!-- Node5 -->
<g id="node5" class="node">
<title>Node5</title>
<g id="a_node5"><a xlink:title=" ">
<polygon fill="#e0e0e0" stroke="#999999" points="115.5,-19 56.5,-19 56.5,0 115.5,0 115.5,-19"/>
<text text-anchor="middle" x="86" y="-7" font-family="Helvetica,sans-Serif" font-size="10.00">functional</text>
</a>
</g>
</g>
<!-- Node3&#45;&gt;Node5 -->
<g id="edge4" class="edge">
<title>Node3&#45;&gt;Node5</title>
<path fill="none" stroke="#63b8ff" d="M146.62,-54.51C135.85,-46.7 120.03,-35.21 107.25,-25.93"/>
<polygon fill="#63b8ff" stroke="#63b8ff" points="109.57,-23.29 99.43,-20.25 105.46,-28.95 109.57,-23.29"/>
</g>
<!-- Node6 -->
<g id="node6" class="node">
<title>Node6</title>
<g id="a_node6"><a xlink:title=" ">
<polygon fill="#e0e0e0" stroke="#999999" points="184,-19 134,-19 134,0 184,0 184,-19"/>
<text text-anchor="middle" x="159" y="-7" font-family="Helvetica,sans-Serif" font-size="10.00">optional</text>
</a>
</g>
</g>
<!-- Node3&#45;&gt;Node6 -->
<g id="edge5" class="edge">
<title>Node3&#45;&gt;Node6</title>
<path fill="none" stroke="#63b8ff" d="M159,-54.75C159,-48.27 159,-39.16 159,-30.9"/>
<polygon fill="#63b8ff" stroke="#63b8ff" points="162.5,-30.96 159,-20.96 155.5,-30.96 162.5,-30.96"/>
</g>
<!-- Node7 -->
<g id="node7" class="node">
<title>Node7</title>
<g id="a_node7"><a xlink:title=" ">
<polygon fill="#e0e0e0" stroke="#999999" points="254,-19 202,-19 202,0 254,0 254,-19"/>
<text text-anchor="middle" x="228" y="-7" font-family="Helvetica,sans-Serif" font-size="10.00">ostream</text>
</a>
</g>
</g>
<!-- Node3&#45;&gt;Node7 -->
<g id="edge6" class="edge">
<title>Node3&#45;&gt;Node7</title>
<path fill="none" stroke="#63b8ff" d="M170.7,-54.51C180.78,-46.77 195.54,-35.43 207.56,-26.2"/>
<polygon fill="#63b8ff" stroke="#63b8ff" points="209.47,-29.15 215.27,-20.28 205.21,-23.6 209.47,-29.15"/>
</g>
<!-- Node8 -->
<g id="node8" class="node">
<title>Node8</title>
<g id="a_node8"><a xlink:title=" ">
<polygon fill="#e0e0e0" stroke="#999999" points="313.5,-19 272.5,-19 272.5,0 313.5,0 313.5,-19"/>
<text text-anchor="middle" x="293" y="-7" font-family="Helvetica,sans-Serif" font-size="10.00">string</text>
</a>
</g>
</g>
<!-- Node3&#45;&gt;Node8 -->
<g id="edge7" class="edge">
<title>Node3&#45;&gt;Node8</title>
<path fill="none" stroke="#63b8ff" d="M181.73,-54.51C203.75,-45.8 237.31,-32.53 261.81,-22.84"/>
<polygon fill="#63b8ff" stroke="#63b8ff" points="262.94,-26.15 270.95,-19.22 260.37,-19.64 262.94,-26.15"/>
</g>
<!-- Node9&#45;&gt;Node2 -->
<g id="edge9" class="edge">
<title>Node9&#45;&gt;Node2</title>
<path fill="none" stroke="#63b8ff" d="M237.05,-164.51C222.65,-156.39 201.21,-144.3 184.44,-134.85"/>
<polygon fill="#63b8ff" stroke="#63b8ff" points="186.46,-131.96 176.03,-130.1 183.02,-138.06 186.46,-131.96"/>
</g>
<!-- Node10 -->
<g id="node10" class="node">
<title>Node10</title>
<g id="a_node10"><a xlink:title=" ">
<polygon fill="#e0e0e0" stroke="#999999" points="283,-129 223,-129 223,-110 283,-110 283,-129"/>
<text text-anchor="middle" x="253" y="-117" font-family="Helvetica,sans-Serif" font-size="10.00">streambuf</text>
</a>
</g>
</g>
<!-- Node9&#45;&gt;Node10 -->
<g id="edge10" class="edge">
<title>Node9&#45;&gt;Node10</title>
<path fill="none" stroke="#63b8ff" d="M253,-164.75C253,-158.27 253,-149.16 253,-140.9"/>
<polygon fill="#63b8ff" stroke="#63b8ff" points="256.5,-140.96 253,-130.96 249.5,-140.96 256.5,-140.96"/>
</g>
</g>
</svg>
