<?xml version="1.0" encoding="UTF-8" standalone="no"?>
<!DOCTYPE svg PUBLIC "-//W3C//DTD SVG 1.1//EN"
 "http://www.w3.org/Graphics/SVG/1.1/DTD/svg11.dtd">
<!-- Generated by graphviz version 7.0.5 (20221223.1930)
 -->
<!-- Title: lib/3rd_party_adapters/Arduino/serial_port.cpp Pages: 1 -->
<svg width="555pt" height="269pt"
 viewBox="0.00 0.00 555.00 269.00" xmlns="http://www.w3.org/2000/svg" xmlns:xlink="http://www.w3.org/1999/xlink">
<g id="graph0" class="graph" transform="scale(1 1) rotate(0) translate(4 265)">
<title>lib/3rd_party_adapters/Arduino/serial_port.cpp</title>
<!-- Node1 -->
<g id="node1" class="node">
<title>Node1</title>
<g id="a_node1"><a xlink:title=" ">
<polygon fill="#999999" stroke="#666666" points="432.5,-261 313.5,-261 313.5,-231 432.5,-231 432.5,-261"/>
<text text-anchor="start" x="321.5" y="-249" font-family="Helvetica,sans-Serif" font-size="10.00">lib/3rd_party_adapters</text>
<text text-anchor="middle" x="373" y="-238" font-family="Helvetica,sans-Serif" font-size="10.00">/Arduino/serial_port.cpp</text>
</a>
</g>
</g>
<!-- Node2 -->
<g id="node2" class="node">
<title>Node2</title>
<g id="a_node2"><a xlink:href="serial__port_8hpp.xhtml" target="_top" xlink:title="This is a Proxy header.">
<polygon fill="white" stroke="#666666" points="199,-140 119,-140 119,-121 199,-121 199,-140"/>
<text text-anchor="middle" x="159" y="-128" font-family="Helvetica,sans-Serif" font-size="10.00">serial_port.hpp</text>
</a>
</g>
</g>
<!-- Node1&#45;&gt;Node2 -->
<g id="edge1" class="edge">
<title>Node1&#45;&gt;Node2</title>
<path fill="none" stroke="#63b8ff" d="M313.22,-237.41C260.91,-229.52 190.33,-215.44 171,-195 160.14,-183.52 157.6,-165.44 157.51,-151.51"/>
<polygon fill="#63b8ff" stroke="#63b8ff" points="161,-151.82 157.89,-141.7 154,-151.55 161,-151.82"/>
</g>
<!-- Node9 -->
<g id="node9" class="node">
<title>Node9</title>
<g id="a_node9"><a xlink:href="SerialOutputStreamBuffer_8hpp.xhtml" target="_top" xlink:title=" ">
<polygon fill="white" stroke="#666666" points="326,-195 180,-195 180,-176 326,-176 326,-195"/>
<text text-anchor="middle" x="253" y="-183" font-family="Helvetica,sans-Serif" font-size="10.00">SerialOutputStreamBuffer.hpp</text>
</a>
</g>
</g>
<!-- Node1&#45;&gt;Node9 -->
<g id="edge8" class="edge">
<title>Node1&#45;&gt;Node9</title>
<path fill="none" stroke="#63b8ff" d="M343.34,-230.54C324.42,-221.32 300.05,-209.44 281.39,-200.34"/>
<polygon fill="#63b8ff" stroke="#63b8ff" points="283.03,-197.25 272.51,-196.01 279.96,-203.54 283.03,-197.25"/>
</g>
<!-- Node11 -->
<g id="node11" class="node">
<title>Node11</title>
<g id="a_node11"><a xlink:title=" ">
<polygon fill="#e0e0e0" stroke="#999999" points="401.5,-195 344.5,-195 344.5,-176 401.5,-176 401.5,-195"/>
<text text-anchor="middle" x="373" y="-183" font-family="Helvetica,sans-Serif" font-size="10.00">Arduino.h</text>
</a>
</g>
</g>
<!-- Node1&#45;&gt;Node11 -->
<g id="edge11" class="edge">
<title>Node1&#45;&gt;Node11</title>
<path fill="none" stroke="#63b8ff" d="M373,-230.54C373,-223.34 373,-214.53 373,-206.68"/>
<polygon fill="#63b8ff" stroke="#63b8ff" points="376.5,-206.69 373,-196.69 369.5,-206.69 376.5,-206.69"/>
</g>
<!-- Node12 -->
<g id="node12" class="node">
<title>Node12</title>
<g id="a_node12"><a xlink:title=" ">
<polygon fill="#e0e0e0" stroke="#999999" points="466.5,-195 419.5,-195 419.5,-176 466.5,-176 466.5,-195"/>
<text text-anchor="middle" x="443" y="-183" font-family="Helvetica,sans-Serif" font-size="10.00">iterator</text>
</a>
</g>
</g>
<!-- Node1&#45;&gt;Node12 -->
<g id="edge12" class="edge">
<title>Node1&#45;&gt;Node12</title>
<path fill="none" stroke="#63b8ff" d="M390.3,-230.54C400.47,-222.04 413.34,-211.29 423.82,-202.53"/>
<polygon fill="#63b8ff" stroke="#63b8ff" points="426.03,-205.24 431.46,-196.15 421.54,-199.87 426.03,-205.24"/>
</g>
<!-- Node13 -->
<g id="node13" class="node">
<title>Node13</title>
<g id="a_node13"><a xlink:title=" ">
<polygon fill="#e0e0e0" stroke="#999999" points="547,-195 485,-195 485,-176 547,-176 547,-195"/>
<text text-anchor="middle" x="516" y="-183" font-family="Helvetica,sans-Serif" font-size="10.00">type_traits</text>
</a>
</g>
</g>
<!-- Node1&#45;&gt;Node13 -->
<g id="edge13" class="edge">
<title>Node1&#45;&gt;Node13</title>
<path fill="none" stroke="#63b8ff" d="M408.35,-230.54C431.52,-221.06 461.56,-208.77 484.02,-199.58"/>
<polygon fill="#63b8ff" stroke="#63b8ff" points="485.04,-202.95 492.98,-195.92 482.39,-196.47 485.04,-202.95"/>
</g>
<!-- Node3 -->
<g id="node3" class="node">
<title>Node3</title>
<g id="a_node3"><a xlink:href="serial__port__interface_8hpp.xhtml" target="_top" xlink:title=" ">
<polygon fill="white" stroke="#666666" points="213.5,-85 104.5,-85 104.5,-55 213.5,-55 213.5,-85"/>
<text text-anchor="start" x="112.5" y="-73" font-family="Helvetica,sans-Serif" font-size="10.00">serial_interface/serial</text>
<text text-anchor="middle" x="159" y="-62" font-family="Helvetica,sans-Serif" font-size="10.00">_port_interface.hpp</text>
</a>
</g>
</g>
<!-- Node2&#45;&gt;Node3 -->
<g id="edge2" class="edge">
<title>Node2&#45;&gt;Node3</title>
<path fill="none" stroke="#63b8ff" d="M159,-120.87C159,-114.4 159,-105.2 159,-96.45"/>
<polygon fill="#63b8ff" stroke="#63b8ff" points="162.5,-96.63 159,-86.63 155.5,-96.63 162.5,-96.63"/>
</g>
<!-- Node4 -->
<g id="node4" class="node">
<title>Node4</title>
<g id="a_node4"><a xlink:title=" ">
<polygon fill="#e0e0e0" stroke="#999999" points="38,-19 0,-19 0,0 38,0 38,-19"/>
<text text-anchor="middle" x="19" y="-7" font-family="Helvetica,sans-Serif" font-size="10.00">array</text>
</a>
</g>
</g>
<!-- Node3&#45;&gt;Node4 -->
<g id="edge3" class="edge">
<title>Node3&#45;&gt;Node4</title>
<path fill="none" stroke="#63b8ff" d="M124.39,-54.54C101.12,-44.81 70.76,-32.13 48.61,-22.87"/>
<polygon fill="#63b8ff" stroke="#63b8ff" points="50.13,-19.71 39.55,-19.09 47.43,-26.17 50.13,-19.71"/>
</g>
<!-- Node5 -->
<g id="node5" class="node">
<title>Node5</title>
<g id="a_node5"><a xlink:title=" ">
<polygon fill="#e0e0e0" stroke="#999999" points="115.5,-19 56.5,-19 56.5,0 115.5,0 115.5,-19"/>
<text text-anchor="middle" x="86" y="-7" font-family="Helvetica,sans-Serif" font-size="10.00">functional</text>
</a>
</g>
</g>
<!-- Node3&#45;&gt;Node5 -->
<g id="edge4" class="edge">
<title>Node3&#45;&gt;Node5</title>
<path fill="none" stroke="#63b8ff" d="M140.96,-54.54C130.24,-45.96 116.66,-35.07 105.67,-26.26"/>
<polygon fill="#63b8ff" stroke="#63b8ff" points="108,-23.64 98.01,-20.12 103.62,-29.11 108,-23.64"/>
</g>
<!-- Node6 -->
<g id="node6" class="node">
<title>Node6</title>
<g id="a_node6"><a xlink:title=" ">
<polygon fill="#e0e0e0" stroke="#999999" points="184,-19 134,-19 134,0 184,0 184,-19"/>
<text text-anchor="middle" x="159" y="-7" font-family="Helvetica,sans-Serif" font-size="10.00">optional</text>
</a>
</g>
</g>
<!-- Node3&#45;&gt;Node6 -->
<g id="edge5" class="edge">
<title>Node3&#45;&gt;Node6</title>
<path fill="none" stroke="#63b8ff" d="M159,-54.54C159,-47.34 159,-38.53 159,-30.68"/>
<polygon fill="#63b8ff" stroke="#63b8ff" points="162.5,-30.69 159,-20.69 155.5,-30.69 162.5,-30.69"/>
</g>
<!-- Node7 -->
<g id="node7" class="node">
<title>Node7</title>
<g id="a_node7"><a xlink:title=" ">
<polygon fill="#e0e0e0" stroke="#999999" points="254,-19 202,-19 202,0 254,0 254,-19"/>
<text text-anchor="middle" x="228" y="-7" font-family="Helvetica,sans-Serif" font-size="10.00">ostream</text>
</a>
</g>
</g>
<!-- Node3&#45;&gt;Node7 -->
<g id="edge6" class="edge">
<title>Node3&#45;&gt;Node7</title>
<path fill="none" stroke="#63b8ff" d="M176.06,-54.54C186.08,-46.04 198.76,-35.29 209.09,-26.53"/>
<polygon fill="#63b8ff" stroke="#63b8ff" points="211.25,-29.29 216.61,-20.15 206.72,-23.95 211.25,-29.29"/>
</g>
<!-- Node8 -->
<g id="node8" class="node">
<title>Node8</title>
<g id="a_node8"><a xlink:title=" ">
<polygon fill="#e0e0e0" stroke="#999999" points="313.5,-19 272.5,-19 272.5,0 313.5,0 313.5,-19"/>
<text text-anchor="middle" x="293" y="-7" font-family="Helvetica,sans-Serif" font-size="10.00">string</text>
</a>
</g>
</g>
<!-- Node3&#45;&gt;Node8 -->
<g id="edge7" class="edge">
<title>Node3&#45;&gt;Node8</title>
<path fill="none" stroke="#63b8ff" d="M192.12,-54.54C213.64,-45.15 241.48,-32.99 262.46,-23.83"/>
<polygon fill="#63b8ff" stroke="#63b8ff" points="263.59,-27.16 271.35,-19.95 260.78,-20.75 263.59,-27.16"/>
</g>
<!-- Node9&#45;&gt;Node2 -->
<g id="edge9" class="edge">
<title>Node9&#45;&gt;Node2</title>
<path fill="none" stroke="#63b8ff" d="M237.05,-175.51C222.65,-167.39 201.21,-155.3 184.44,-145.85"/>
<polygon fill="#63b8ff" stroke="#63b8ff" points="186.46,-142.96 176.03,-141.1 183.02,-149.06 186.46,-142.96"/>
</g>
<!-- Node10 -->
<g id="node10" class="node">
<title>Node10</title>
<g id="a_node10"><a xlink:title=" ">
<polygon fill="#e0e0e0" stroke="#999999" points="283,-140 223,-140 223,-121 283,-121 283,-140"/>
<text text-anchor="middle" x="253" y="-128" font-family="Helvetica,sans-Serif" font-size="10.00">streambuf</text>
</a>
</g>
</g>
<!-- Node9&#45;&gt;Node10 -->
<g id="edge10" class="edge">
<title>Node9&#45;&gt;Node10</title>
<path fill="none" stroke="#63b8ff" d="M253,-175.75C253,-169.27 253,-160.16 253,-151.9"/>
<polygon fill="#63b8ff" stroke="#63b8ff" points="256.5,-151.96 253,-141.96 249.5,-151.96 256.5,-151.96"/>
</g>
</g>
</svg>
