<?xml version="1.0" encoding="UTF-8" standalone="no"?>
<!DOCTYPE svg PUBLIC "-//W3C//DTD SVG 1.1//EN"
 "http://www.w3.org/Graphics/SVG/1.1/DTD/svg11.dtd">
<!-- Generated by graphviz version 7.0.5 (20221223.1930)
 -->
<!-- Title: lib/application_business_rules/serial_interface/serial_port_interface.hpp Pages: 1 -->
<svg width="747pt" height="258pt"
 viewBox="0.00 0.00 747.00 258.00" xmlns="http://www.w3.org/2000/svg" xmlns:xlink="http://www.w3.org/1999/xlink">
<g id="graph0" class="graph" transform="scale(1 1) rotate(0) translate(4 254)">
<title>lib/application_business_rules/serial_interface/serial_port_interface.hpp</title>
<!-- Node1 -->
<g id="node1" class="node">
<title>Node1</title>
<g id="a_node1"><a xlink:title=" ">
<polygon fill="#999999" stroke="#666666" points="540,-250 415,-250 415,-209 540,-209 540,-250"/>
<text text-anchor="start" x="423" y="-238" font-family="Helvetica,sans-Serif" font-size="10.00">lib/application_business</text>
<text text-anchor="start" x="423" y="-227" font-family="Helvetica,sans-Serif" font-size="10.00">_rules/serial_interface</text>
<text text-anchor="middle" x="477.5" y="-216" font-family="Helvetica,sans-Serif" font-size="10.00">/serial_port_interface.hpp</text>
</a>
</g>
</g>
<!-- Node2 -->
<g id="node2" class="node">
<title>Node2</title>
<g id="a_node2"><a xlink:href="serial__port_8hpp.xhtml" target="_top" xlink:title="This is a Proxy header.">
<polygon fill="white" stroke="#666666" points="261,-167.5 142,-167.5 142,-137.5 261,-137.5 261,-167.5"/>
<text text-anchor="start" x="150" y="-155.5" font-family="Helvetica,sans-Serif" font-size="10.00">lib/3rd_party_adapters</text>
<text text-anchor="middle" x="201.5" y="-144.5" font-family="Helvetica,sans-Serif" font-size="10.00">/Arduino/serial_port.hpp</text>
</a>
</g>
</g>
<!-- Node1&#45;&gt;Node2 -->
<g id="edge1" class="edge">
<title>Node1&#45;&gt;Node2</title>
<path fill="none" stroke="#63b8ff" d="M404.05,-209.06C364.45,-198.52 314.77,-185.19 270.5,-173 264.62,-171.38 258.46,-169.67 252.35,-167.95"/>
<polygon fill="#63b8ff" stroke="#63b8ff" points="402.91,-212.38 413.48,-211.57 404.71,-205.62 402.91,-212.38"/>
</g>
<!-- Node6 -->
<g id="node6" class="node">
<title>Node6</title>
<g id="a_node6"><a xlink:href="Protocol_8cpp.xhtml" target="_top" xlink:title=" ">
<polygon fill="white" stroke="#666666" points="399.5,-173 279.5,-173 279.5,-132 399.5,-132 399.5,-173"/>
<text text-anchor="start" x="287.5" y="-161" font-family="Helvetica,sans-Serif" font-size="10.00">lib/application_business</text>
<text text-anchor="start" x="287.5" y="-150" font-family="Helvetica,sans-Serif" font-size="10.00">_rules/serial_interface</text>
<text text-anchor="middle" x="339.5" y="-139" font-family="Helvetica,sans-Serif" font-size="10.00">/Protocol.cpp</text>
</a>
</g>
</g>
<!-- Node1&#45;&gt;Node6 -->
<g id="edge6" class="edge">
<title>Node1&#45;&gt;Node6</title>
<path fill="none" stroke="#63b8ff" d="M431.22,-203.35C413.33,-193.63 393.16,-182.66 376.29,-173.49"/>
<polygon fill="#63b8ff" stroke="#63b8ff" points="429.09,-206.18 439.55,-207.88 432.44,-200.03 429.09,-206.18"/>
</g>
<!-- Node7 -->
<g id="node7" class="node">
<title>Node7</title>
<g id="a_node7"><a xlink:href="ProcessHmiInputs_8cpp.xhtml" target="_top" xlink:title=" ">
<polygon fill="white" stroke="#666666" points="537.5,-173 417.5,-173 417.5,-132 537.5,-132 537.5,-173"/>
<text text-anchor="start" x="425.5" y="-161" font-family="Helvetica,sans-Serif" font-size="10.00">lib/application_business</text>
<text text-anchor="start" x="425.5" y="-150" font-family="Helvetica,sans-Serif" font-size="10.00">_rules/user_interaction</text>
<text text-anchor="middle" x="477.5" y="-139" font-family="Helvetica,sans-Serif" font-size="10.00">/ProcessHmiInputs.cpp</text>
</a>
</g>
</g>
<!-- Node1&#45;&gt;Node7 -->
<g id="edge7" class="edge">
<title>Node1&#45;&gt;Node7</title>
<path fill="none" stroke="#63b8ff" d="M477.5,-197.36C477.5,-189.24 477.5,-180.7 477.5,-173.33"/>
<polygon fill="#63b8ff" stroke="#63b8ff" points="474,-197.28 477.5,-207.28 481,-197.28 474,-197.28"/>
</g>
<!-- Node8 -->
<g id="node8" class="node">
<title>Node8</title>
<g id="a_node8"><a xlink:href="main_8cpp.xhtml" target="_top" xlink:title=" ">
<polygon fill="white" stroke="#666666" points="627.5,-162 555.5,-162 555.5,-143 627.5,-143 627.5,-162"/>
<text text-anchor="middle" x="591.5" y="-150" font-family="Helvetica,sans-Serif" font-size="10.00">src/main.cpp</text>
</a>
</g>
</g>
<!-- Node1&#45;&gt;Node8 -->
<g id="edge8" class="edge">
<title>Node1&#45;&gt;Node8</title>
<path fill="none" stroke="#63b8ff" d="M517.19,-202.39C538.37,-188.45 563.08,-172.2 578,-162.38"/>
<polygon fill="#63b8ff" stroke="#63b8ff" points="515.45,-199.35 509.02,-207.77 519.29,-205.19 515.45,-199.35"/>
</g>
<!-- Node9 -->
<g id="node9" class="node">
<title>Node9</title>
<g id="a_node9"><a xlink:href="test__hmi_8cpp.xhtml" target="_top" xlink:title=" ">
<polygon fill="white" stroke="#666666" points="739,-167.5 646,-167.5 646,-137.5 739,-137.5 739,-167.5"/>
<text text-anchor="start" x="654" y="-155.5" font-family="Helvetica,sans-Serif" font-size="10.00">test/test_hmi/test</text>
<text text-anchor="middle" x="692.5" y="-144.5" font-family="Helvetica,sans-Serif" font-size="10.00">_hmi.cpp</text>
</a>
</g>
</g>
<!-- Node1&#45;&gt;Node9 -->
<g id="edge9" class="edge">
<title>Node1&#45;&gt;Node9</title>
<path fill="none" stroke="#63b8ff" d="M545.12,-204.91C579.91,-192.77 621.2,-178.37 651.21,-167.9"/>
<polygon fill="#63b8ff" stroke="#63b8ff" points="544.27,-201.5 535.98,-208.1 546.58,-208.11 544.27,-201.5"/>
</g>
<!-- Node3 -->
<g id="node3" class="node">
<title>Node3</title>
<g id="a_node3"><a xlink:href="SerialOutputStreamBuffer_8hpp.xhtml" target="_top" xlink:title=" ">
<polygon fill="white" stroke="#666666" points="234,-96 49,-96 49,-66 234,-66 234,-96"/>
<text text-anchor="start" x="57" y="-84" font-family="Helvetica,sans-Serif" font-size="10.00">lib/3rd_party_adapters</text>
<text text-anchor="middle" x="141.5" y="-73" font-family="Helvetica,sans-Serif" font-size="10.00">/Arduino/SerialOutputStreamBuffer.hpp</text>
</a>
</g>
</g>
<!-- Node2&#45;&gt;Node3 -->
<g id="edge2" class="edge">
<title>Node2&#45;&gt;Node3</title>
<path fill="none" stroke="#63b8ff" d="M181.79,-128.67C172.6,-118.03 161.96,-105.7 153.92,-96.38"/>
<polygon fill="#63b8ff" stroke="#63b8ff" points="178.89,-130.67 188.08,-135.95 184.19,-126.1 178.89,-130.67"/>
</g>
<!-- Node5 -->
<g id="node5" class="node">
<title>Node5</title>
<g id="a_node5"><a xlink:href="serial__port_8cpp.xhtml" target="_top" xlink:title=" ">
<polygon fill="white" stroke="#666666" points="322,-30 203,-30 203,0 322,0 322,-30"/>
<text text-anchor="start" x="211" y="-18" font-family="Helvetica,sans-Serif" font-size="10.00">lib/3rd_party_adapters</text>
<text text-anchor="middle" x="262.5" y="-7" font-family="Helvetica,sans-Serif" font-size="10.00">/Arduino/serial_port.cpp</text>
</a>
</g>
</g>
<!-- Node2&#45;&gt;Node5 -->
<g id="edge5" class="edge">
<title>Node2&#45;&gt;Node5</title>
<path fill="none" stroke="#63b8ff" d="M222.45,-128.33C230.05,-118.88 238.09,-107.48 243.5,-96 253.66,-74.44 258.65,-46.96 260.89,-30.47"/>
<polygon fill="#63b8ff" stroke="#63b8ff" points="219.84,-126 216.09,-135.91 225.2,-130.5 219.84,-126"/>
</g>
<!-- Node4 -->
<g id="node4" class="node">
<title>Node4</title>
<g id="a_node4"><a xlink:href="SerialOutputStreamBuffer_8cpp.xhtml" target="_top" xlink:title=" ">
<polygon fill="white" stroke="#666666" points="185,-30 0,-30 0,0 185,0 185,-30"/>
<text text-anchor="start" x="8" y="-18" font-family="Helvetica,sans-Serif" font-size="10.00">lib/3rd_party_adapters</text>
<text text-anchor="middle" x="92.5" y="-7" font-family="Helvetica,sans-Serif" font-size="10.00">/Arduino/SerialOutputStreamBuffer.cpp</text>
</a>
</g>
</g>
<!-- Node3&#45;&gt;Node4 -->
<g id="edge3" class="edge">
<title>Node3&#45;&gt;Node4</title>
<path fill="none" stroke="#63b8ff" d="M123.64,-56.68C116.84,-47.79 109.3,-37.95 103.34,-30.16"/>
<polygon fill="#63b8ff" stroke="#63b8ff" points="120.85,-58.78 129.71,-64.59 126.41,-54.53 120.85,-58.78"/>
</g>
<!-- Node3&#45;&gt;Node5 -->
<g id="edge4" class="edge">
<title>Node3&#45;&gt;Node5</title>
<path fill="none" stroke="#63b8ff" d="M178.71,-60.32C197.03,-50.63 218.72,-39.16 235.44,-30.31"/>
<polygon fill="#63b8ff" stroke="#63b8ff" points="177.2,-57.16 169.99,-64.93 180.47,-63.35 177.2,-57.16"/>
</g>
</g>
</svg>
