<?xml version="1.0" encoding="UTF-8" standalone="no"?>
<!DOCTYPE svg PUBLIC "-//W3C//DTD SVG 1.1//EN"
 "http://www.w3.org/Graphics/SVG/1.1/DTD/svg11.dtd">
<!-- Generated by graphviz version 7.0.5 (20221223.1930)
 -->
<!-- Title: lib/application_business_rules/serial_interface/serial_port_interface.hpp Pages: 1 -->
<svg width="808pt" height="258pt"
 viewBox="0.00 0.00 808.00 258.00" xmlns="http://www.w3.org/2000/svg" xmlns:xlink="http://www.w3.org/1999/xlink">
<g id="graph0" class="graph" transform="scale(1 1) rotate(0) translate(4 254)">
<title>lib/application_business_rules/serial_interface/serial_port_interface.hpp</title>
<!-- Node1 -->
<g id="node1" class="node">
<title>Node1</title>
<g id="a_node1"><a xlink:title=" ">
<polygon fill="#999999" stroke="#666666" points="601,-250 476,-250 476,-209 601,-209 601,-250"/>
<text text-anchor="start" x="484" y="-238" font-family="Helvetica,sans-Serif" font-size="10.00">lib/application_business</text>
<text text-anchor="start" x="484" y="-227" font-family="Helvetica,sans-Serif" font-size="10.00">_rules/serial_interface</text>
<text text-anchor="middle" x="538.5" y="-216" font-family="Helvetica,sans-Serif" font-size="10.00">/serial_port_interface.hpp</text>
</a>
</g>
</g>
<!-- Node2 -->
<g id="node2" class="node">
<title>Node2</title>
<g id="a_node2"><a xlink:href="serial__port_8hpp.xhtml" target="_top" xlink:title="This is a Proxy header.">
<polygon fill="white" stroke="#666666" points="322,-167.5 203,-167.5 203,-137.5 322,-137.5 322,-167.5"/>
<text text-anchor="start" x="211" y="-155.5" font-family="Helvetica,sans-Serif" font-size="10.00">lib/3rd_party_adapters</text>
<text text-anchor="middle" x="262.5" y="-144.5" font-family="Helvetica,sans-Serif" font-size="10.00">/Arduino/serial_port.hpp</text>
</a>
</g>
</g>
<!-- Node1&#45;&gt;Node2 -->
<g id="edge1" class="edge">
<title>Node1&#45;&gt;Node2</title>
<path fill="none" stroke="#63b8ff" d="M465.05,-209.06C425.45,-198.52 375.77,-185.19 331.5,-173 325.62,-171.38 319.46,-169.67 313.35,-167.95"/>
<polygon fill="#63b8ff" stroke="#63b8ff" points="463.91,-212.38 474.48,-211.57 465.71,-205.62 463.91,-212.38"/>
</g>
<!-- Node7 -->
<g id="node7" class="node">
<title>Node7</title>
<g id="a_node7"><a xlink:href="Protocol_8cpp.xhtml" target="_top" xlink:title=" ">
<polygon fill="white" stroke="#666666" points="460.5,-173 340.5,-173 340.5,-132 460.5,-132 460.5,-173"/>
<text text-anchor="start" x="348.5" y="-161" font-family="Helvetica,sans-Serif" font-size="10.00">lib/application_business</text>
<text text-anchor="start" x="348.5" y="-150" font-family="Helvetica,sans-Serif" font-size="10.00">_rules/serial_interface</text>
<text text-anchor="middle" x="400.5" y="-139" font-family="Helvetica,sans-Serif" font-size="10.00">/Protocol.cpp</text>
</a>
</g>
</g>
<!-- Node1&#45;&gt;Node7 -->
<g id="edge7" class="edge">
<title>Node1&#45;&gt;Node7</title>
<path fill="none" stroke="#63b8ff" d="M492.22,-203.35C474.33,-193.63 454.16,-182.66 437.29,-173.49"/>
<polygon fill="#63b8ff" stroke="#63b8ff" points="490.09,-206.18 500.55,-207.88 493.44,-200.03 490.09,-206.18"/>
</g>
<!-- Node8 -->
<g id="node8" class="node">
<title>Node8</title>
<g id="a_node8"><a xlink:href="ProcessHmiInputs_8cpp.xhtml" target="_top" xlink:title=" ">
<polygon fill="white" stroke="#666666" points="598.5,-173 478.5,-173 478.5,-132 598.5,-132 598.5,-173"/>
<text text-anchor="start" x="486.5" y="-161" font-family="Helvetica,sans-Serif" font-size="10.00">lib/application_business</text>
<text text-anchor="start" x="486.5" y="-150" font-family="Helvetica,sans-Serif" font-size="10.00">_rules/user_interaction</text>
<text text-anchor="middle" x="538.5" y="-139" font-family="Helvetica,sans-Serif" font-size="10.00">/ProcessHmiInputs.cpp</text>
</a>
</g>
</g>
<!-- Node1&#45;&gt;Node8 -->
<g id="edge8" class="edge">
<title>Node1&#45;&gt;Node8</title>
<path fill="none" stroke="#63b8ff" d="M538.5,-197.36C538.5,-189.24 538.5,-180.7 538.5,-173.33"/>
<polygon fill="#63b8ff" stroke="#63b8ff" points="535,-197.28 538.5,-207.28 542,-197.28 535,-197.28"/>
</g>
<!-- Node9 -->
<g id="node9" class="node">
<title>Node9</title>
<g id="a_node9"><a xlink:href="main_8cpp.xhtml" target="_top" xlink:title=" ">
<polygon fill="white" stroke="#666666" points="688.5,-162 616.5,-162 616.5,-143 688.5,-143 688.5,-162"/>
<text text-anchor="middle" x="652.5" y="-150" font-family="Helvetica,sans-Serif" font-size="10.00">src/main.cpp</text>
</a>
</g>
</g>
<!-- Node1&#45;&gt;Node9 -->
<g id="edge9" class="edge">
<title>Node1&#45;&gt;Node9</title>
<path fill="none" stroke="#63b8ff" d="M578.19,-202.39C599.37,-188.45 624.08,-172.2 639,-162.38"/>
<polygon fill="#63b8ff" stroke="#63b8ff" points="576.45,-199.35 570.02,-207.77 580.29,-205.19 576.45,-199.35"/>
</g>
<!-- Node10 -->
<g id="node10" class="node">
<title>Node10</title>
<g id="a_node10"><a xlink:href="test__hmi_8cpp.xhtml" target="_top" xlink:title=" ">
<polygon fill="white" stroke="#666666" points="800,-167.5 707,-167.5 707,-137.5 800,-137.5 800,-167.5"/>
<text text-anchor="start" x="715" y="-155.5" font-family="Helvetica,sans-Serif" font-size="10.00">test/test_hmi/test</text>
<text text-anchor="middle" x="753.5" y="-144.5" font-family="Helvetica,sans-Serif" font-size="10.00">_hmi.cpp</text>
</a>
</g>
</g>
<!-- Node1&#45;&gt;Node10 -->
<g id="edge10" class="edge">
<title>Node1&#45;&gt;Node10</title>
<path fill="none" stroke="#63b8ff" d="M606.12,-204.91C640.91,-192.77 682.2,-178.37 712.21,-167.9"/>
<polygon fill="#63b8ff" stroke="#63b8ff" points="605.27,-201.5 596.98,-208.1 607.58,-208.11 605.27,-201.5"/>
</g>
<!-- Node3 -->
<g id="node3" class="node">
<title>Node3</title>
<g id="a_node3"><a xlink:href="SerialOutputStreamBuffer_8hpp.xhtml" target="_top" xlink:title=" ">
<polygon fill="white" stroke="#666666" points="234,-96 49,-96 49,-66 234,-66 234,-96"/>
<text text-anchor="start" x="57" y="-84" font-family="Helvetica,sans-Serif" font-size="10.00">lib/3rd_party_adapters</text>
<text text-anchor="middle" x="141.5" y="-73" font-family="Helvetica,sans-Serif" font-size="10.00">/Arduino/SerialOutputStreamBuffer.hpp</text>
</a>
</g>
</g>
<!-- Node2&#45;&gt;Node3 -->
<g id="edge2" class="edge">
<title>Node2&#45;&gt;Node3</title>
<path fill="none" stroke="#63b8ff" d="M227.67,-131.49C208.13,-120.27 184.22,-106.54 166.54,-96.38"/>
<polygon fill="#63b8ff" stroke="#63b8ff" points="225.7,-134.4 236.12,-136.35 229.19,-128.33 225.7,-134.4"/>
</g>
<!-- Node5 -->
<g id="node5" class="node">
<title>Node5</title>
<g id="a_node5"><a xlink:href="serial__port_8cpp.xhtml" target="_top" xlink:title=" ">
<polygon fill="white" stroke="#666666" points="322,-30 203,-30 203,0 322,0 322,-30"/>
<text text-anchor="start" x="211" y="-18" font-family="Helvetica,sans-Serif" font-size="10.00">lib/3rd_party_adapters</text>
<text text-anchor="middle" x="262.5" y="-7" font-family="Helvetica,sans-Serif" font-size="10.00">/Arduino/serial_port.cpp</text>
</a>
</g>
</g>
<!-- Node2&#45;&gt;Node5 -->
<g id="edge5" class="edge">
<title>Node2&#45;&gt;Node5</title>
<path fill="none" stroke="#63b8ff" d="M262.5,-125.91C262.5,-97.67 262.5,-53.21 262.5,-30.46"/>
<polygon fill="#63b8ff" stroke="#63b8ff" points="259,-125.74 262.5,-135.74 266,-125.74 259,-125.74"/>
</g>
<!-- Node6 -->
<g id="node6" class="node">
<title>Node6</title>
<g id="a_node6"><a xlink:href="test__serial__port_8cpp.xhtml" target="_top" xlink:title=" ">
<polygon fill="white" stroke="#666666" points="394.5,-96 290.5,-96 290.5,-66 394.5,-66 394.5,-96"/>
<text text-anchor="start" x="298.5" y="-84" font-family="Helvetica,sans-Serif" font-size="10.00">test/test_serial_port</text>
<text text-anchor="middle" x="342.5" y="-73" font-family="Helvetica,sans-Serif" font-size="10.00">/test_serial_port.cpp</text>
</a>
</g>
</g>
<!-- Node2&#45;&gt;Node6 -->
<g id="edge6" class="edge">
<title>Node2&#45;&gt;Node6</title>
<path fill="none" stroke="#63b8ff" d="M287.69,-129.62C300.17,-118.77 314.9,-105.98 325.95,-96.38"/>
<polygon fill="#63b8ff" stroke="#63b8ff" points="285.47,-126.91 280.22,-136.11 290.06,-132.19 285.47,-126.91"/>
</g>
<!-- Node4 -->
<g id="node4" class="node">
<title>Node4</title>
<g id="a_node4"><a xlink:href="SerialOutputStreamBuffer_8cpp.xhtml" target="_top" xlink:title=" ">
<polygon fill="white" stroke="#666666" points="185,-30 0,-30 0,0 185,0 185,-30"/>
<text text-anchor="start" x="8" y="-18" font-family="Helvetica,sans-Serif" font-size="10.00">lib/3rd_party_adapters</text>
<text text-anchor="middle" x="92.5" y="-7" font-family="Helvetica,sans-Serif" font-size="10.00">/Arduino/SerialOutputStreamBuffer.cpp</text>
</a>
</g>
</g>
<!-- Node3&#45;&gt;Node4 -->
<g id="edge3" class="edge">
<title>Node3&#45;&gt;Node4</title>
<path fill="none" stroke="#63b8ff" d="M123.64,-56.68C116.84,-47.79 109.3,-37.95 103.34,-30.16"/>
<polygon fill="#63b8ff" stroke="#63b8ff" points="120.85,-58.78 129.71,-64.59 126.41,-54.53 120.85,-58.78"/>
</g>
<!-- Node3&#45;&gt;Node5 -->
<g id="edge4" class="edge">
<title>Node3&#45;&gt;Node5</title>
<path fill="none" stroke="#63b8ff" d="M178.71,-60.32C197.03,-50.63 218.72,-39.16 235.44,-30.31"/>
<polygon fill="#63b8ff" stroke="#63b8ff" points="177.2,-57.16 169.99,-64.93 180.47,-63.35 177.2,-57.16"/>
</g>
</g>
</svg>
