<?xml version="1.0" encoding="UTF-8" standalone="no"?>
<!DOCTYPE svg PUBLIC "-//W3C//DTD SVG 1.1//EN"
 "http://www.w3.org/Graphics/SVG/1.1/DTD/svg11.dtd">
<!-- Generated by graphviz version 7.0.5 (20221223.1930)
 -->
<!-- Title: lib/3rd_party_adapters/Arduino/serial_port.hpp Pages: 1 -->
<svg width="322pt" height="148pt"
 viewBox="0.00 0.00 321.50 148.00" xmlns="http://www.w3.org/2000/svg" xmlns:xlink="http://www.w3.org/1999/xlink">
<g id="graph0" class="graph" transform="scale(1 1) rotate(0) translate(4 144)">
<title>lib/3rd_party_adapters/Arduino/serial_port.hpp</title>
<!-- Node1 -->
<g id="node1" class="node">
<title>Node1</title>
<g id="a_node1"><a xlink:title="This is a Proxy header.">
<polygon fill="#999999" stroke="#666666" points="218.5,-140 99.5,-140 99.5,-110 218.5,-110 218.5,-140"/>
<text text-anchor="start" x="107.5" y="-128" font-family="Helvetica,sans-Serif" font-size="10.00">lib/3rd_party_adapters</text>
<text text-anchor="middle" x="159" y="-117" font-family="Helvetica,sans-Serif" font-size="10.00">/Arduino/serial_port.hpp</text>
</a>
</g>
</g>
<!-- Node2 -->
<g id="node2" class="node">
<title>Node2</title>
<g id="a_node2"><a xlink:href="serial__port__interface_8hpp.xhtml" target="_top" xlink:title=" ">
<polygon fill="white" stroke="#666666" points="220,-74 98,-74 98,-55 220,-55 220,-74"/>
<text text-anchor="middle" x="159" y="-62" font-family="Helvetica,sans-Serif" font-size="10.00">serial_port_interface.hpp</text>
</a>
</g>
</g>
<!-- Node1&#45;&gt;Node2 -->
<g id="edge1" class="edge">
<title>Node1&#45;&gt;Node2</title>
<path fill="none" stroke="#63b8ff" d="M159,-109.54C159,-102.34 159,-93.53 159,-85.68"/>
<polygon fill="#63b8ff" stroke="#63b8ff" points="162.5,-85.69 159,-75.69 155.5,-85.69 162.5,-85.69"/>
</g>
<!-- Node3 -->
<g id="node3" class="node">
<title>Node3</title>
<g id="a_node3"><a xlink:title=" ">
<polygon fill="#e0e0e0" stroke="#999999" points="38,-19 0,-19 0,0 38,0 38,-19"/>
<text text-anchor="middle" x="19" y="-7" font-family="Helvetica,sans-Serif" font-size="10.00">array</text>
</a>
</g>
</g>
<!-- Node2&#45;&gt;Node3 -->
<g id="edge2" class="edge">
<title>Node2&#45;&gt;Node3</title>
<path fill="none" stroke="#63b8ff" d="M135.25,-54.51C111.47,-45.51 74.79,-31.62 49,-21.86"/>
<polygon fill="#63b8ff" stroke="#63b8ff" points="50.36,-18.63 39.76,-18.36 47.88,-25.17 50.36,-18.63"/>
</g>
<!-- Node4 -->
<g id="node4" class="node">
<title>Node4</title>
<g id="a_node4"><a xlink:title=" ">
<polygon fill="#e0e0e0" stroke="#999999" points="115.5,-19 56.5,-19 56.5,0 115.5,0 115.5,-19"/>
<text text-anchor="middle" x="86" y="-7" font-family="Helvetica,sans-Serif" font-size="10.00">functional</text>
</a>
</g>
</g>
<!-- Node2&#45;&gt;Node4 -->
<g id="edge3" class="edge">
<title>Node2&#45;&gt;Node4</title>
<path fill="none" stroke="#63b8ff" d="M146.62,-54.51C135.85,-46.7 120.03,-35.21 107.25,-25.93"/>
<polygon fill="#63b8ff" stroke="#63b8ff" points="109.57,-23.29 99.43,-20.25 105.46,-28.95 109.57,-23.29"/>
</g>
<!-- Node5 -->
<g id="node5" class="node">
<title>Node5</title>
<g id="a_node5"><a xlink:title=" ">
<polygon fill="#e0e0e0" stroke="#999999" points="184,-19 134,-19 134,0 184,0 184,-19"/>
<text text-anchor="middle" x="159" y="-7" font-family="Helvetica,sans-Serif" font-size="10.00">optional</text>
</a>
</g>
</g>
<!-- Node2&#45;&gt;Node5 -->
<g id="edge4" class="edge">
<title>Node2&#45;&gt;Node5</title>
<path fill="none" stroke="#63b8ff" d="M159,-54.75C159,-48.27 159,-39.16 159,-30.9"/>
<polygon fill="#63b8ff" stroke="#63b8ff" points="162.5,-30.96 159,-20.96 155.5,-30.96 162.5,-30.96"/>
</g>
<!-- Node6 -->
<g id="node6" class="node">
<title>Node6</title>
<g id="a_node6"><a xlink:title=" ">
<polygon fill="#e0e0e0" stroke="#999999" points="254,-19 202,-19 202,0 254,0 254,-19"/>
<text text-anchor="middle" x="228" y="-7" font-family="Helvetica,sans-Serif" font-size="10.00">ostream</text>
</a>
</g>
</g>
<!-- Node2&#45;&gt;Node6 -->
<g id="edge5" class="edge">
<title>Node2&#45;&gt;Node6</title>
<path fill="none" stroke="#63b8ff" d="M170.7,-54.51C180.78,-46.77 195.54,-35.43 207.56,-26.2"/>
<polygon fill="#63b8ff" stroke="#63b8ff" points="209.47,-29.15 215.27,-20.28 205.21,-23.6 209.47,-29.15"/>
</g>
<!-- Node7 -->
<g id="node7" class="node">
<title>Node7</title>
<g id="a_node7"><a xlink:title=" ">
<polygon fill="#e0e0e0" stroke="#999999" points="313.5,-19 272.5,-19 272.5,0 313.5,0 313.5,-19"/>
<text text-anchor="middle" x="293" y="-7" font-family="Helvetica,sans-Serif" font-size="10.00">string</text>
</a>
</g>
</g>
<!-- Node2&#45;&gt;Node7 -->
<g id="edge6" class="edge">
<title>Node2&#45;&gt;Node7</title>
<path fill="none" stroke="#63b8ff" d="M181.73,-54.51C203.75,-45.8 237.31,-32.53 261.81,-22.84"/>
<polygon fill="#63b8ff" stroke="#63b8ff" points="262.94,-26.15 270.95,-19.22 260.37,-19.64 262.94,-26.15"/>
</g>
</g>
</svg>
