<?xml version="1.0" encoding="UTF-8" standalone="no"?>
<!DOCTYPE svg PUBLIC "-//W3C//DTD SVG 1.1//EN"
 "http://www.w3.org/Graphics/SVG/1.1/DTD/svg11.dtd">
<!-- Generated by graphviz version 7.0.5 (20221223.1930)
 -->
<!-- Title: lib/3rd_party_adapters/serial_port/serial_port.hpp Pages: 1 -->
<svg width="377pt" height="192pt"
 viewBox="0.00 0.00 376.50 192.00" xmlns="http://www.w3.org/2000/svg" xmlns:xlink="http://www.w3.org/1999/xlink">
<g id="graph0" class="graph" transform="scale(1 1) rotate(0) translate(4 188)">
<title>lib/3rd_party_adapters/serial_port/serial_port.hpp</title>
<!-- Node1 -->
<g id="node1" class="node">
<title>Node1</title>
<g id="a_node1"><a xlink:title="This is a Proxy header.">
<polygon fill="#999999" stroke="#666666" points="302,-184 171,-184 171,-154 302,-154 302,-184"/>
<text text-anchor="start" x="179" y="-172" font-family="Helvetica,sans-Serif" font-size="10.00">lib/3rd_party_adapters</text>
<text text-anchor="middle" x="236.5" y="-161" font-family="Helvetica,sans-Serif" font-size="10.00">/serial_port/serial_port.hpp</text>
</a>
</g>
</g>
<!-- Node2 -->
<g id="node2" class="node">
<title>Node2</title>
<g id="a_node2"><a xlink:href="SerialOutputStreamBuffer_8hpp.xhtml" target="_top" xlink:title=" ">
<polygon fill="white" stroke="#666666" points="208,-118 55,-118 55,-77 208,-77 208,-118"/>
<text text-anchor="start" x="63" y="-106" font-family="Helvetica,sans-Serif" font-size="10.00">lib/3rd_party_adapters</text>
<text text-anchor="start" x="63" y="-95" font-family="Helvetica,sans-Serif" font-size="10.00">/serial_port/SerialOutputStream</text>
<text text-anchor="middle" x="131.5" y="-84" font-family="Helvetica,sans-Serif" font-size="10.00">Buffer.hpp</text>
</a>
</g>
</g>
<!-- Node1&#45;&gt;Node2 -->
<g id="edge1" class="edge">
<title>Node1&#45;&gt;Node2</title>
<path fill="none" stroke="#63b8ff" d="M205.18,-147.27C191.38,-138.14 175.24,-127.45 161.59,-118.42"/>
<polygon fill="#63b8ff" stroke="#63b8ff" points="203.21,-150.16 213.48,-152.76 207.07,-144.33 203.21,-150.16"/>
</g>
<!-- Node4 -->
<g id="node4" class="node">
<title>Node4</title>
<g id="a_node4"><a xlink:href="serial__port_8cpp.xhtml" target="_top" xlink:title=" ">
<polygon fill="white" stroke="#666666" points="302,-35.5 171,-35.5 171,-5.5 302,-5.5 302,-35.5"/>
<text text-anchor="start" x="179" y="-23.5" font-family="Helvetica,sans-Serif" font-size="10.00">lib/3rd_party_adapters</text>
<text text-anchor="middle" x="236.5" y="-12.5" font-family="Helvetica,sans-Serif" font-size="10.00">/serial_port/serial_port.cpp</text>
</a>
</g>
</g>
<!-- Node1&#45;&gt;Node4 -->
<g id="edge4" class="edge">
<title>Node1&#45;&gt;Node4</title>
<path fill="none" stroke="#63b8ff" d="M236.5,-142.53C236.5,-111.54 236.5,-60.33 236.5,-35.66"/>
<polygon fill="#63b8ff" stroke="#63b8ff" points="233,-142.17 236.5,-152.17 240,-142.17 233,-142.17"/>
</g>
<!-- Node5 -->
<g id="node5" class="node">
<title>Node5</title>
<g id="a_node5"><a xlink:href="test__serial__port_8cpp.xhtml" target="_top" xlink:title=" ">
<polygon fill="white" stroke="#666666" points="368.5,-112.5 264.5,-112.5 264.5,-82.5 368.5,-82.5 368.5,-112.5"/>
<text text-anchor="start" x="272.5" y="-100.5" font-family="Helvetica,sans-Serif" font-size="10.00">test/test_serial_port</text>
<text text-anchor="middle" x="316.5" y="-89.5" font-family="Helvetica,sans-Serif" font-size="10.00">/test_serial_port.cpp</text>
</a>
</g>
</g>
<!-- Node1&#45;&gt;Node5 -->
<g id="edge5" class="edge">
<title>Node1&#45;&gt;Node5</title>
<path fill="none" stroke="#63b8ff" d="M261.69,-146.12C274.17,-135.27 288.9,-122.48 299.95,-112.88"/>
<polygon fill="#63b8ff" stroke="#63b8ff" points="259.47,-143.41 254.22,-152.61 264.06,-148.69 259.47,-143.41"/>
</g>
<!-- Node3 -->
<g id="node3" class="node">
<title>Node3</title>
<g id="a_node3"><a xlink:href="SerialOutputStreamBuffer_8cpp.xhtml" target="_top" xlink:title=" ">
<polygon fill="white" stroke="#666666" points="153,-41 0,-41 0,0 153,0 153,-41"/>
<text text-anchor="start" x="8" y="-29" font-family="Helvetica,sans-Serif" font-size="10.00">lib/3rd_party_adapters</text>
<text text-anchor="start" x="8" y="-18" font-family="Helvetica,sans-Serif" font-size="10.00">/serial_port/SerialOutputStream</text>
<text text-anchor="middle" x="76.5" y="-7" font-family="Helvetica,sans-Serif" font-size="10.00">Buffer.cpp</text>
</a>
</g>
</g>
<!-- Node2&#45;&gt;Node3 -->
<g id="edge2" class="edge">
<title>Node2&#45;&gt;Node3</title>
<path fill="none" stroke="#63b8ff" d="M110.32,-67.62C103.88,-58.83 96.95,-49.38 91.05,-41.33"/>
<polygon fill="#63b8ff" stroke="#63b8ff" points="107.42,-69.58 116.15,-75.57 113.06,-65.44 107.42,-69.58"/>
</g>
<!-- Node2&#45;&gt;Node4 -->
<g id="edge3" class="edge">
<title>Node2&#45;&gt;Node4</title>
<path fill="none" stroke="#63b8ff" d="M168.56,-70.03C184.7,-58.5 202.97,-45.45 216.5,-35.79"/>
<polygon fill="#63b8ff" stroke="#63b8ff" points="166.7,-67.06 160.59,-75.72 170.77,-72.75 166.7,-67.06"/>
</g>
</g>
</svg>
