<?xml version="1.0" encoding="UTF-8" standalone="no"?>
<!DOCTYPE svg PUBLIC "-//W3C//DTD SVG 1.1//EN"
 "http://www.w3.org/Graphics/SVG/1.1/DTD/svg11.dtd">
<!-- Generated by graphviz version 7.0.5 (20221223.1930)
 -->
<!-- Title: lib/3rd_party_adapters/Arduino/SerialOutputStreamBuffer.cpp Pages: 1 -->
<svg width="425pt" height="269pt"
 viewBox="0.00 0.00 424.50 269.00" xmlns="http://www.w3.org/2000/svg" xmlns:xlink="http://www.w3.org/1999/xlink">
<g id="graph0" class="graph" transform="scale(1 1) rotate(0) translate(4 265)">
<title>lib/3rd_party_adapters/Arduino/SerialOutputStreamBuffer.cpp</title>
<!-- Node1 -->
<g id="node1" class="node">
<title>Node1</title>
<g id="a_node1"><a xlink:title=" ">
<polygon fill="#999999" stroke="#666666" points="415.5,-261 230.5,-261 230.5,-231 415.5,-231 415.5,-261"/>
<text text-anchor="start" x="238.5" y="-249" font-family="Helvetica,sans-Serif" font-size="10.00">lib/3rd_party_adapters</text>
<text text-anchor="middle" x="323" y="-238" font-family="Helvetica,sans-Serif" font-size="10.00">/Arduino/SerialOutputStreamBuffer.cpp</text>
</a>
</g>
</g>
<!-- Node2 -->
<g id="node2" class="node">
<title>Node2</title>
<g id="a_node2"><a xlink:href="SerialOutputStreamBuffer_8hpp.xhtml" target="_top" xlink:title=" ">
<polygon fill="white" stroke="#666666" points="276,-195 130,-195 130,-176 276,-176 276,-195"/>
<text text-anchor="middle" x="203" y="-183" font-family="Helvetica,sans-Serif" font-size="10.00">SerialOutputStreamBuffer.hpp</text>
</a>
</g>
</g>
<!-- Node1&#45;&gt;Node2 -->
<g id="edge1" class="edge">
<title>Node1&#45;&gt;Node2</title>
<path fill="none" stroke="#63b8ff" d="M293.34,-230.54C274.42,-221.32 250.05,-209.44 231.39,-200.34"/>
<polygon fill="#63b8ff" stroke="#63b8ff" points="233.03,-197.25 222.51,-196.01 229.96,-203.54 233.03,-197.25"/>
</g>
<!-- Node11 -->
<g id="node11" class="node">
<title>Node11</title>
<g id="a_node11"><a xlink:title=" ">
<polygon fill="#e0e0e0" stroke="#999999" points="351.5,-195 294.5,-195 294.5,-176 351.5,-176 351.5,-195"/>
<text text-anchor="middle" x="323" y="-183" font-family="Helvetica,sans-Serif" font-size="10.00">Arduino.h</text>
</a>
</g>
</g>
<!-- Node1&#45;&gt;Node11 -->
<g id="edge10" class="edge">
<title>Node1&#45;&gt;Node11</title>
<path fill="none" stroke="#63b8ff" d="M323,-230.54C323,-223.34 323,-214.53 323,-206.68"/>
<polygon fill="#63b8ff" stroke="#63b8ff" points="326.5,-206.69 323,-196.69 319.5,-206.69 326.5,-206.69"/>
</g>
<!-- Node12 -->
<g id="node12" class="node">
<title>Node12</title>
<g id="a_node12"><a xlink:title=" ">
<polygon fill="#e0e0e0" stroke="#999999" points="416.5,-195 369.5,-195 369.5,-176 416.5,-176 416.5,-195"/>
<text text-anchor="middle" x="393" y="-183" font-family="Helvetica,sans-Serif" font-size="10.00">iterator</text>
</a>
</g>
</g>
<!-- Node1&#45;&gt;Node12 -->
<g id="edge11" class="edge">
<title>Node1&#45;&gt;Node12</title>
<path fill="none" stroke="#63b8ff" d="M340.3,-230.54C350.47,-222.04 363.34,-211.29 373.82,-202.53"/>
<polygon fill="#63b8ff" stroke="#63b8ff" points="376.03,-205.24 381.46,-196.15 371.54,-199.87 376.03,-205.24"/>
</g>
<!-- Node3 -->
<g id="node3" class="node">
<title>Node3</title>
<g id="a_node3"><a xlink:href="serial__port_8hpp.xhtml" target="_top" xlink:title="This is a Proxy header.">
<polygon fill="white" stroke="#666666" points="199,-140 119,-140 119,-121 199,-121 199,-140"/>
<text text-anchor="middle" x="159" y="-128" font-family="Helvetica,sans-Serif" font-size="10.00">serial_port.hpp</text>
</a>
</g>
</g>
<!-- Node2&#45;&gt;Node3 -->
<g id="edge2" class="edge">
<title>Node2&#45;&gt;Node3</title>
<path fill="none" stroke="#63b8ff" d="M195.73,-175.75C189.72,-168.5 180.99,-157.98 173.54,-149.02"/>
<polygon fill="#63b8ff" stroke="#63b8ff" points="176.47,-147.07 167.39,-141.61 171.08,-151.54 176.47,-147.07"/>
</g>
<!-- Node10 -->
<g id="node10" class="node">
<title>Node10</title>
<g id="a_node10"><a xlink:title=" ">
<polygon fill="#e0e0e0" stroke="#999999" points="277,-140 217,-140 217,-121 277,-121 277,-140"/>
<text text-anchor="middle" x="247" y="-128" font-family="Helvetica,sans-Serif" font-size="10.00">streambuf</text>
</a>
</g>
</g>
<!-- Node2&#45;&gt;Node10 -->
<g id="edge9" class="edge">
<title>Node2&#45;&gt;Node10</title>
<path fill="none" stroke="#63b8ff" d="M210.27,-175.75C216.28,-168.5 225.01,-157.98 232.46,-149.02"/>
<polygon fill="#63b8ff" stroke="#63b8ff" points="234.92,-151.54 238.61,-141.61 229.53,-147.07 234.92,-151.54"/>
</g>
<!-- Node4 -->
<g id="node4" class="node">
<title>Node4</title>
<g id="a_node4"><a xlink:href="serial__port__interface_8hpp.xhtml" target="_top" xlink:title=" ">
<polygon fill="white" stroke="#666666" points="213.5,-85 104.5,-85 104.5,-55 213.5,-55 213.5,-85"/>
<text text-anchor="start" x="112.5" y="-73" font-family="Helvetica,sans-Serif" font-size="10.00">serial_interface/serial</text>
<text text-anchor="middle" x="159" y="-62" font-family="Helvetica,sans-Serif" font-size="10.00">_port_interface.hpp</text>
</a>
</g>
</g>
<!-- Node3&#45;&gt;Node4 -->
<g id="edge3" class="edge">
<title>Node3&#45;&gt;Node4</title>
<path fill="none" stroke="#63b8ff" d="M159,-120.87C159,-114.4 159,-105.2 159,-96.45"/>
<polygon fill="#63b8ff" stroke="#63b8ff" points="162.5,-96.63 159,-86.63 155.5,-96.63 162.5,-96.63"/>
</g>
<!-- Node5 -->
<g id="node5" class="node">
<title>Node5</title>
<g id="a_node5"><a xlink:title=" ">
<polygon fill="#e0e0e0" stroke="#999999" points="38,-19 0,-19 0,0 38,0 38,-19"/>
<text text-anchor="middle" x="19" y="-7" font-family="Helvetica,sans-Serif" font-size="10.00">array</text>
</a>
</g>
</g>
<!-- Node4&#45;&gt;Node5 -->
<g id="edge4" class="edge">
<title>Node4&#45;&gt;Node5</title>
<path fill="none" stroke="#63b8ff" d="M124.39,-54.54C101.12,-44.81 70.76,-32.13 48.61,-22.87"/>
<polygon fill="#63b8ff" stroke="#63b8ff" points="50.13,-19.71 39.55,-19.09 47.43,-26.17 50.13,-19.71"/>
</g>
<!-- Node6 -->
<g id="node6" class="node">
<title>Node6</title>
<g id="a_node6"><a xlink:title=" ">
<polygon fill="#e0e0e0" stroke="#999999" points="115.5,-19 56.5,-19 56.5,0 115.5,0 115.5,-19"/>
<text text-anchor="middle" x="86" y="-7" font-family="Helvetica,sans-Serif" font-size="10.00">functional</text>
</a>
</g>
</g>
<!-- Node4&#45;&gt;Node6 -->
<g id="edge5" class="edge">
<title>Node4&#45;&gt;Node6</title>
<path fill="none" stroke="#63b8ff" d="M140.96,-54.54C130.24,-45.96 116.66,-35.07 105.67,-26.26"/>
<polygon fill="#63b8ff" stroke="#63b8ff" points="108,-23.64 98.01,-20.12 103.62,-29.11 108,-23.64"/>
</g>
<!-- Node7 -->
<g id="node7" class="node">
<title>Node7</title>
<g id="a_node7"><a xlink:title=" ">
<polygon fill="#e0e0e0" stroke="#999999" points="184,-19 134,-19 134,0 184,0 184,-19"/>
<text text-anchor="middle" x="159" y="-7" font-family="Helvetica,sans-Serif" font-size="10.00">optional</text>
</a>
</g>
</g>
<!-- Node4&#45;&gt;Node7 -->
<g id="edge6" class="edge">
<title>Node4&#45;&gt;Node7</title>
<path fill="none" stroke="#63b8ff" d="M159,-54.54C159,-47.34 159,-38.53 159,-30.68"/>
<polygon fill="#63b8ff" stroke="#63b8ff" points="162.5,-30.69 159,-20.69 155.5,-30.69 162.5,-30.69"/>
</g>
<!-- Node8 -->
<g id="node8" class="node">
<title>Node8</title>
<g id="a_node8"><a xlink:title=" ">
<polygon fill="#e0e0e0" stroke="#999999" points="254,-19 202,-19 202,0 254,0 254,-19"/>
<text text-anchor="middle" x="228" y="-7" font-family="Helvetica,sans-Serif" font-size="10.00">ostream</text>
</a>
</g>
</g>
<!-- Node4&#45;&gt;Node8 -->
<g id="edge7" class="edge">
<title>Node4&#45;&gt;Node8</title>
<path fill="none" stroke="#63b8ff" d="M176.06,-54.54C186.08,-46.04 198.76,-35.29 209.09,-26.53"/>
<polygon fill="#63b8ff" stroke="#63b8ff" points="211.25,-29.29 216.61,-20.15 206.72,-23.95 211.25,-29.29"/>
</g>
<!-- Node9 -->
<g id="node9" class="node">
<title>Node9</title>
<g id="a_node9"><a xlink:title=" ">
<polygon fill="#e0e0e0" stroke="#999999" points="313.5,-19 272.5,-19 272.5,0 313.5,0 313.5,-19"/>
<text text-anchor="middle" x="293" y="-7" font-family="Helvetica,sans-Serif" font-size="10.00">string</text>
</a>
</g>
</g>
<!-- Node4&#45;&gt;Node9 -->
<g id="edge8" class="edge">
<title>Node4&#45;&gt;Node9</title>
<path fill="none" stroke="#63b8ff" d="M192.12,-54.54C213.64,-45.15 241.48,-32.99 262.46,-23.83"/>
<polygon fill="#63b8ff" stroke="#63b8ff" points="263.59,-27.16 271.35,-19.95 260.78,-20.75 263.59,-27.16"/>
</g>
</g>
</svg>
