<?xml version="1.0" encoding="UTF-8" standalone="no"?>
<!DOCTYPE svg PUBLIC "-//W3C//DTD SVG 1.1//EN"
 "http://www.w3.org/Graphics/SVG/1.1/DTD/svg11.dtd">
<!-- Generated by graphviz version 7.0.5 (20221223.1930)
 -->
<!-- Title: lib/3rd_party_adapters/serial_port/SerialOutputStreamBuffer.cpp Pages: 1 -->
<svg width="337pt" height="269pt"
 viewBox="0.00 0.00 336.50 269.00" xmlns="http://www.w3.org/2000/svg" xmlns:xlink="http://www.w3.org/1999/xlink">
<g id="graph0" class="graph" transform="scale(1 1) rotate(0) translate(4 265)">
<title>lib/3rd_party_adapters/serial_port/SerialOutputStreamBuffer.cpp</title>
<!-- Node1 -->
<g id="node1" class="node">
<title>Node1</title>
<g id="a_node1"><a xlink:title=" ">
<polygon fill="#999999" stroke="#666666" points="311.5,-261 158.5,-261 158.5,-220 311.5,-220 311.5,-261"/>
<text text-anchor="start" x="166.5" y="-249" font-family="Helvetica,sans-Serif" font-size="10.00">lib/3rd_party_adapters</text>
<text text-anchor="start" x="166.5" y="-238" font-family="Helvetica,sans-Serif" font-size="10.00">/serial_port/SerialOutputStream</text>
<text text-anchor="middle" x="235" y="-227" font-family="Helvetica,sans-Serif" font-size="10.00">Buffer.cpp</text>
</a>
</g>
</g>
<!-- Node2 -->
<g id="node2" class="node">
<title>Node2</title>
<g id="a_node2"><a xlink:href="SerialOutputStreamBuffer_8hpp.xhtml" target="_top" xlink:title=" ">
<polygon fill="white" stroke="#666666" points="188,-184 42,-184 42,-165 188,-165 188,-184"/>
<text text-anchor="middle" x="115" y="-172" font-family="Helvetica,sans-Serif" font-size="10.00">SerialOutputStreamBuffer.hpp</text>
</a>
</g>
</g>
<!-- Node1&#45;&gt;Node2 -->
<g id="edge1" class="edge">
<title>Node1&#45;&gt;Node2</title>
<path fill="none" stroke="#63b8ff" d="M197.69,-219.6C179.52,-209.91 158.09,-198.48 141.6,-189.68"/>
<polygon fill="#63b8ff" stroke="#63b8ff" points="143.36,-186.66 132.89,-185.04 140.07,-192.84 143.36,-186.66"/>
</g>
<!-- Node11 -->
<g id="node11" class="node">
<title>Node11</title>
<g id="a_node11"><a xlink:title=" ">
<polygon fill="#e0e0e0" stroke="#999999" points="263.5,-184 206.5,-184 206.5,-165 263.5,-165 263.5,-184"/>
<text text-anchor="middle" x="235" y="-172" font-family="Helvetica,sans-Serif" font-size="10.00">Arduino.h</text>
</a>
</g>
</g>
<!-- Node1&#45;&gt;Node11 -->
<g id="edge10" class="edge">
<title>Node1&#45;&gt;Node11</title>
<path fill="none" stroke="#63b8ff" d="M235,-219.6C235,-211.98 235,-203.3 235,-195.66"/>
<polygon fill="#63b8ff" stroke="#63b8ff" points="238.5,-195.68 235,-185.68 231.5,-195.68 238.5,-195.68"/>
</g>
<!-- Node12 -->
<g id="node12" class="node">
<title>Node12</title>
<g id="a_node12"><a xlink:title=" ">
<polygon fill="#e0e0e0" stroke="#999999" points="328.5,-184 281.5,-184 281.5,-165 328.5,-165 328.5,-184"/>
<text text-anchor="middle" x="305" y="-172" font-family="Helvetica,sans-Serif" font-size="10.00">iterator</text>
</a>
</g>
</g>
<!-- Node1&#45;&gt;Node12 -->
<g id="edge11" class="edge">
<title>Node1&#45;&gt;Node12</title>
<path fill="none" stroke="#63b8ff" d="M256.76,-219.6C266.52,-210.68 277.88,-200.3 287.12,-191.84"/>
<polygon fill="#63b8ff" stroke="#63b8ff" points="289.39,-194.51 294.41,-185.18 284.67,-189.35 289.39,-194.51"/>
</g>
<!-- Node3 -->
<g id="node3" class="node">
<title>Node3</title>
<g id="a_node3"><a xlink:title=" ">
<polygon fill="#e0e0e0" stroke="#999999" points="101,-129 41,-129 41,-110 101,-110 101,-129"/>
<text text-anchor="middle" x="71" y="-117" font-family="Helvetica,sans-Serif" font-size="10.00">streambuf</text>
</a>
</g>
</g>
<!-- Node2&#45;&gt;Node3 -->
<g id="edge2" class="edge">
<title>Node2&#45;&gt;Node3</title>
<path fill="none" stroke="#63b8ff" d="M107.73,-164.75C101.72,-157.5 92.99,-146.98 85.54,-138.02"/>
<polygon fill="#63b8ff" stroke="#63b8ff" points="88.47,-136.07 79.39,-130.61 83.08,-140.54 88.47,-136.07"/>
</g>
<!-- Node4 -->
<g id="node4" class="node">
<title>Node4</title>
<g id="a_node4"><a xlink:href="serial__port_8hpp.xhtml" target="_top" xlink:title="This files serves as hint to the PlatformIO Library Dependency Finder to find the corresponding sourc...">
<polygon fill="white" stroke="#666666" points="199,-129 119,-129 119,-110 199,-110 199,-129"/>
<text text-anchor="middle" x="159" y="-117" font-family="Helvetica,sans-Serif" font-size="10.00">serial_port.hpp</text>
</a>
</g>
</g>
<!-- Node2&#45;&gt;Node4 -->
<g id="edge3" class="edge">
<title>Node2&#45;&gt;Node4</title>
<path fill="none" stroke="#63b8ff" d="M122.27,-164.75C128.28,-157.5 137.01,-146.98 144.46,-138.02"/>
<polygon fill="#63b8ff" stroke="#63b8ff" points="146.92,-140.54 150.61,-130.61 141.53,-136.07 146.92,-140.54"/>
</g>
<!-- Node5 -->
<g id="node5" class="node">
<title>Node5</title>
<g id="a_node5"><a xlink:href="serial__port__interface_8hpp.xhtml" target="_top" xlink:title=" ">
<polygon fill="white" stroke="#666666" points="220,-74 98,-74 98,-55 220,-55 220,-74"/>
<text text-anchor="middle" x="159" y="-62" font-family="Helvetica,sans-Serif" font-size="10.00">serial_port_interface.hpp</text>
</a>
</g>
</g>
<!-- Node4&#45;&gt;Node5 -->
<g id="edge4" class="edge">
<title>Node4&#45;&gt;Node5</title>
<path fill="none" stroke="#63b8ff" d="M159,-109.75C159,-103.27 159,-94.16 159,-85.9"/>
<polygon fill="#63b8ff" stroke="#63b8ff" points="162.5,-85.96 159,-75.96 155.5,-85.96 162.5,-85.96"/>
</g>
<!-- Node6 -->
<g id="node6" class="node">
<title>Node6</title>
<g id="a_node6"><a xlink:title=" ">
<polygon fill="#e0e0e0" stroke="#999999" points="38,-19 0,-19 0,0 38,0 38,-19"/>
<text text-anchor="middle" x="19" y="-7" font-family="Helvetica,sans-Serif" font-size="10.00">array</text>
</a>
</g>
</g>
<!-- Node5&#45;&gt;Node6 -->
<g id="edge5" class="edge">
<title>Node5&#45;&gt;Node6</title>
<path fill="none" stroke="#63b8ff" d="M135.25,-54.51C111.47,-45.51 74.79,-31.62 49,-21.86"/>
<polygon fill="#63b8ff" stroke="#63b8ff" points="50.36,-18.63 39.76,-18.36 47.88,-25.17 50.36,-18.63"/>
</g>
<!-- Node7 -->
<g id="node7" class="node">
<title>Node7</title>
<g id="a_node7"><a xlink:title=" ">
<polygon fill="#e0e0e0" stroke="#999999" points="115.5,-19 56.5,-19 56.5,0 115.5,0 115.5,-19"/>
<text text-anchor="middle" x="86" y="-7" font-family="Helvetica,sans-Serif" font-size="10.00">functional</text>
</a>
</g>
</g>
<!-- Node5&#45;&gt;Node7 -->
<g id="edge6" class="edge">
<title>Node5&#45;&gt;Node7</title>
<path fill="none" stroke="#63b8ff" d="M146.62,-54.51C135.85,-46.7 120.03,-35.21 107.25,-25.93"/>
<polygon fill="#63b8ff" stroke="#63b8ff" points="109.57,-23.29 99.43,-20.25 105.46,-28.95 109.57,-23.29"/>
</g>
<!-- Node8 -->
<g id="node8" class="node">
<title>Node8</title>
<g id="a_node8"><a xlink:title=" ">
<polygon fill="#e0e0e0" stroke="#999999" points="184,-19 134,-19 134,0 184,0 184,-19"/>
<text text-anchor="middle" x="159" y="-7" font-family="Helvetica,sans-Serif" font-size="10.00">optional</text>
</a>
</g>
</g>
<!-- Node5&#45;&gt;Node8 -->
<g id="edge7" class="edge">
<title>Node5&#45;&gt;Node8</title>
<path fill="none" stroke="#63b8ff" d="M159,-54.75C159,-48.27 159,-39.16 159,-30.9"/>
<polygon fill="#63b8ff" stroke="#63b8ff" points="162.5,-30.96 159,-20.96 155.5,-30.96 162.5,-30.96"/>
</g>
<!-- Node9 -->
<g id="node9" class="node">
<title>Node9</title>
<g id="a_node9"><a xlink:title=" ">
<polygon fill="#e0e0e0" stroke="#999999" points="254,-19 202,-19 202,0 254,0 254,-19"/>
<text text-anchor="middle" x="228" y="-7" font-family="Helvetica,sans-Serif" font-size="10.00">ostream</text>
</a>
</g>
</g>
<!-- Node5&#45;&gt;Node9 -->
<g id="edge8" class="edge">
<title>Node5&#45;&gt;Node9</title>
<path fill="none" stroke="#63b8ff" d="M170.7,-54.51C180.78,-46.77 195.54,-35.43 207.56,-26.2"/>
<polygon fill="#63b8ff" stroke="#63b8ff" points="209.47,-29.15 215.27,-20.28 205.21,-23.6 209.47,-29.15"/>
</g>
<!-- Node10 -->
<g id="node10" class="node">
<title>Node10</title>
<g id="a_node10"><a xlink:title=" ">
<polygon fill="#e0e0e0" stroke="#999999" points="313.5,-19 272.5,-19 272.5,0 313.5,0 313.5,-19"/>
<text text-anchor="middle" x="293" y="-7" font-family="Helvetica,sans-Serif" font-size="10.00">string</text>
</a>
</g>
</g>
<!-- Node5&#45;&gt;Node10 -->
<g id="edge9" class="edge">
<title>Node5&#45;&gt;Node10</title>
<path fill="none" stroke="#63b8ff" d="M181.73,-54.51C203.75,-45.8 237.31,-32.53 261.81,-22.84"/>
<polygon fill="#63b8ff" stroke="#63b8ff" points="262.94,-26.15 270.95,-19.22 260.37,-19.64 262.94,-26.15"/>
</g>
</g>
</svg>
