<?xml version="1.0" encoding="UTF-8" standalone="no"?>
<!DOCTYPE svg PUBLIC "-//W3C//DTD SVG 1.1//EN"
 "http://www.w3.org/Graphics/SVG/1.1/DTD/svg11.dtd">
<!-- Generated by graphviz version 7.0.5 (20221223.1930)
 -->
<!-- Title: lib/application_business_rules/serial_port_interface.hpp Pages: 1 -->
<svg width="708pt" height="236pt"
 viewBox="0.00 0.00 707.50 236.00" xmlns="http://www.w3.org/2000/svg" xmlns:xlink="http://www.w3.org/1999/xlink">
<g id="graph0" class="graph" transform="scale(1 1) rotate(0) translate(4 232)">
<title>lib/application_business_rules/serial_port_interface.hpp</title>
<!-- Node1 -->
<g id="node1" class="node">
<title>Node1</title>
<g id="a_node1"><a xlink:title=" ">
<polygon fill="#999999" stroke="#666666" points="553.5,-228 401.5,-228 401.5,-198 553.5,-198 553.5,-228"/>
<text text-anchor="start" x="409.5" y="-216" font-family="Helvetica,sans-Serif" font-size="10.00">lib/application_business</text>
<text text-anchor="middle" x="477.5" y="-205" font-family="Helvetica,sans-Serif" font-size="10.00">_rules/serial_port_interface.hpp</text>
</a>
</g>
</g>
<!-- Node2 -->
<g id="node2" class="node">
<title>Node2</title>
<g id="a_node2"><a xlink:href="serial__port_8hpp.xhtml" target="_top" xlink:title="This is a Proxy header.">
<polygon fill="white" stroke="#666666" points="322,-162 203,-162 203,-132 322,-132 322,-162"/>
<text text-anchor="start" x="211" y="-150" font-family="Helvetica,sans-Serif" font-size="10.00">lib/3rd_party_adapters</text>
<text text-anchor="middle" x="262.5" y="-139" font-family="Helvetica,sans-Serif" font-size="10.00">/Arduino/serial_port.hpp</text>
</a>
</g>
</g>
<!-- Node1&#45;&gt;Node2 -->
<g id="edge1" class="edge">
<title>Node1&#45;&gt;Node2</title>
<path fill="none" stroke="#63b8ff" d="M418.31,-194.38C384.51,-184.32 342.66,-171.86 310.84,-162.39"/>
<polygon fill="#63b8ff" stroke="#63b8ff" points="416.95,-197.63 427.53,-197.13 418.95,-190.92 416.95,-197.63"/>
</g>
<!-- Node7 -->
<g id="node7" class="node">
<title>Node7</title>
<g id="a_node7"><a xlink:href="HmiCoordinator_8cpp.xhtml" target="_top" xlink:title=" ">
<polygon fill="white" stroke="#666666" points="471,-162 340,-162 340,-132 471,-132 471,-162"/>
<text text-anchor="start" x="348" y="-150" font-family="Helvetica,sans-Serif" font-size="10.00">lib/application_business</text>
<text text-anchor="middle" x="405.5" y="-139" font-family="Helvetica,sans-Serif" font-size="10.00">_rules/HmiCoordinator.cpp</text>
</a>
</g>
</g>
<!-- Node1&#45;&gt;Node7 -->
<g id="edge7" class="edge">
<title>Node1&#45;&gt;Node7</title>
<path fill="none" stroke="#63b8ff" d="M453.22,-190.42C442.83,-181.18 430.98,-170.65 421.68,-162.39"/>
<polygon fill="#63b8ff" stroke="#63b8ff" points="450.59,-192.76 460.39,-196.79 455.24,-187.53 450.59,-192.76"/>
</g>
<!-- Node8 -->
<g id="node8" class="node">
<title>Node8</title>
<g id="a_node8"><a xlink:href="Protocol_8cpp.xhtml" target="_top" xlink:title=" ">
<polygon fill="white" stroke="#666666" points="609.5,-162 489.5,-162 489.5,-132 609.5,-132 609.5,-162"/>
<text text-anchor="start" x="497.5" y="-150" font-family="Helvetica,sans-Serif" font-size="10.00">lib/application_business</text>
<text text-anchor="middle" x="549.5" y="-139" font-family="Helvetica,sans-Serif" font-size="10.00">_rules/Protocol.cpp</text>
</a>
</g>
</g>
<!-- Node1&#45;&gt;Node8 -->
<g id="edge8" class="edge">
<title>Node1&#45;&gt;Node8</title>
<path fill="none" stroke="#63b8ff" d="M501.78,-190.42C512.17,-181.18 524.02,-170.65 533.32,-162.39"/>
<polygon fill="#63b8ff" stroke="#63b8ff" points="499.76,-187.53 494.61,-196.79 504.41,-192.76 499.76,-187.53"/>
</g>
<!-- Node9 -->
<g id="node9" class="node">
<title>Node9</title>
<g id="a_node9"><a xlink:href="main_8cpp.xhtml" target="_top" xlink:title=" ">
<polygon fill="white" stroke="#666666" points="699.5,-156.5 627.5,-156.5 627.5,-137.5 699.5,-137.5 699.5,-156.5"/>
<text text-anchor="middle" x="663.5" y="-144.5" font-family="Helvetica,sans-Serif" font-size="10.00">src/main.cpp</text>
</a>
</g>
</g>
<!-- Node1&#45;&gt;Node9 -->
<g id="edge9" class="edge">
<title>Node1&#45;&gt;Node9</title>
<path fill="none" stroke="#63b8ff" d="M529.79,-194.01C564.88,-181.93 609.59,-166.55 637.38,-156.99"/>
<polygon fill="#63b8ff" stroke="#63b8ff" points="528.99,-190.58 520.67,-197.14 531.27,-197.2 528.99,-190.58"/>
</g>
<!-- Node3 -->
<g id="node3" class="node">
<title>Node3</title>
<g id="a_node3"><a xlink:href="SerialOutputStreamBuffer_8hpp.xhtml" target="_top" xlink:title=" ">
<polygon fill="white" stroke="#666666" points="234,-96 49,-96 49,-66 234,-66 234,-96"/>
<text text-anchor="start" x="57" y="-84" font-family="Helvetica,sans-Serif" font-size="10.00">lib/3rd_party_adapters</text>
<text text-anchor="middle" x="141.5" y="-73" font-family="Helvetica,sans-Serif" font-size="10.00">/Arduino/SerialOutputStreamBuffer.hpp</text>
</a>
</g>
</g>
<!-- Node2&#45;&gt;Node3 -->
<g id="edge2" class="edge">
<title>Node2&#45;&gt;Node3</title>
<path fill="none" stroke="#63b8ff" d="M225.29,-126.32C206.97,-116.63 185.28,-105.16 168.56,-96.31"/>
<polygon fill="#63b8ff" stroke="#63b8ff" points="223.53,-129.35 234.01,-130.93 226.8,-123.16 223.53,-129.35"/>
</g>
<!-- Node5 -->
<g id="node5" class="node">
<title>Node5</title>
<g id="a_node5"><a xlink:href="serial__port_8cpp.xhtml" target="_top" xlink:title=" ">
<polygon fill="white" stroke="#666666" points="322,-30 203,-30 203,0 322,0 322,-30"/>
<text text-anchor="start" x="211" y="-18" font-family="Helvetica,sans-Serif" font-size="10.00">lib/3rd_party_adapters</text>
<text text-anchor="middle" x="262.5" y="-7" font-family="Helvetica,sans-Serif" font-size="10.00">/Arduino/serial_port.cpp</text>
</a>
</g>
</g>
<!-- Node2&#45;&gt;Node5 -->
<g id="edge5" class="edge">
<title>Node2&#45;&gt;Node5</title>
<path fill="none" stroke="#63b8ff" d="M262.5,-120.38C262.5,-93.49 262.5,-52.18 262.5,-30.47"/>
<polygon fill="#63b8ff" stroke="#63b8ff" points="259,-120.08 262.5,-130.08 266,-120.08 259,-120.08"/>
</g>
<!-- Node6 -->
<g id="node6" class="node">
<title>Node6</title>
<g id="a_node6"><a xlink:href="test__serial__port_8cpp.xhtml" target="_top" xlink:title=" ">
<polygon fill="white" stroke="#666666" points="394.5,-96 290.5,-96 290.5,-66 394.5,-66 394.5,-96"/>
<text text-anchor="start" x="298.5" y="-84" font-family="Helvetica,sans-Serif" font-size="10.00">test/test_serial_port</text>
<text text-anchor="middle" x="342.5" y="-73" font-family="Helvetica,sans-Serif" font-size="10.00">/test_serial_port.cpp</text>
</a>
</g>
</g>
<!-- Node2&#45;&gt;Node6 -->
<g id="edge6" class="edge">
<title>Node2&#45;&gt;Node6</title>
<path fill="none" stroke="#63b8ff" d="M289.13,-124.7C300.76,-115.4 314.09,-104.73 324.52,-96.39"/>
<polygon fill="#63b8ff" stroke="#63b8ff" points="287.06,-121.87 281.44,-130.85 291.43,-127.34 287.06,-121.87"/>
</g>
<!-- Node4 -->
<g id="node4" class="node">
<title>Node4</title>
<g id="a_node4"><a xlink:href="SerialOutputStreamBuffer_8cpp.xhtml" target="_top" xlink:title=" ">
<polygon fill="white" stroke="#666666" points="185,-30 0,-30 0,0 185,0 185,-30"/>
<text text-anchor="start" x="8" y="-18" font-family="Helvetica,sans-Serif" font-size="10.00">lib/3rd_party_adapters</text>
<text text-anchor="middle" x="92.5" y="-7" font-family="Helvetica,sans-Serif" font-size="10.00">/Arduino/SerialOutputStreamBuffer.cpp</text>
</a>
</g>
</g>
<!-- Node3&#45;&gt;Node4 -->
<g id="edge3" class="edge">
<title>Node3&#45;&gt;Node4</title>
<path fill="none" stroke="#63b8ff" d="M123.64,-56.68C116.84,-47.79 109.3,-37.95 103.34,-30.16"/>
<polygon fill="#63b8ff" stroke="#63b8ff" points="120.85,-58.78 129.71,-64.59 126.41,-54.53 120.85,-58.78"/>
</g>
<!-- Node3&#45;&gt;Node5 -->
<g id="edge4" class="edge">
<title>Node3&#45;&gt;Node5</title>
<path fill="none" stroke="#63b8ff" d="M178.71,-60.32C197.03,-50.63 218.72,-39.16 235.44,-30.31"/>
<polygon fill="#63b8ff" stroke="#63b8ff" points="177.2,-57.16 169.99,-64.93 180.47,-63.35 177.2,-57.16"/>
</g>
</g>
</svg>
