<?xml version="1.0" encoding="UTF-8" standalone="no"?>
<!DOCTYPE svg PUBLIC "-//W3C//DTD SVG 1.1//EN"
 "http://www.w3.org/Graphics/SVG/1.1/DTD/svg11.dtd">
<!-- Generated by graphviz version 9.0.0 (20230911.1827)
 -->
<!-- Title: lib/layer3_board/src/ShiftRegisterStatusIndicator.cpp Pages: 1 -->
<svg width="290pt" height="204pt"
 viewBox="0.00 0.00 289.75 204.25" xmlns="http://www.w3.org/2000/svg" xmlns:xlink="http://www.w3.org/1999/xlink">
<g id="graph0" class="graph" transform="scale(1 1) rotate(0) translate(4 200.25)">
<title>lib/layer3_board/src/ShiftRegisterStatusIndicator.cpp</title>
<!-- Node1 -->
<g id="Node000001" class="node">
<title>Node1</title>
<g id="a_Node000001"><a xlink:title=" ">
<polygon fill="#999999" stroke="#666666" points="229.88,-196.25 70.62,-196.25 70.62,-165.75 229.88,-165.75 229.88,-196.25"/>
<text text-anchor="start" x="78.62" y="-182.75" font-family="Helvetica,sans-Serif" font-size="10.00">lib/layer3_board/src</text>
<text text-anchor="middle" x="150.25" y="-171.5" font-family="Helvetica,sans-Serif" font-size="10.00">/ShiftRegisterStatusIndicator.cpp</text>
</a>
</g>
</g>
<!-- Node2 -->
<g id="Node000002" class="node">
<title>Node2</title>
<g id="a_Node000002"><a xlink:href="ShiftRegisterStatusIndicator_8hpp.xhtml" target="_top" xlink:title=" ">
<polygon fill="white" stroke="#666666" points="228.38,-129.75 72.12,-129.75 72.12,-110.5 228.38,-110.5 228.38,-129.75"/>
<text text-anchor="middle" x="150.25" y="-116.25" font-family="Helvetica,sans-Serif" font-size="10.00">ShiftRegisterStatusIndicator.hpp</text>
</a>
</g>
</g>
<!-- Node1&#45;&gt;Node2 -->
<g id="edge1_Node000001_Node000002" class="edge">
<title>Node1&#45;&gt;Node2</title>
<g id="a_edge1_Node000001_Node000002"><a xlink:title=" ">
<path fill="none" stroke="#63b8ff" d="M150.25,-165.45C150.25,-158.21 150.25,-149.34 150.25,-141.44"/>
<polygon fill="#63b8ff" stroke="#63b8ff" points="153.75,-141.71 150.25,-131.71 146.75,-141.71 153.75,-141.71"/>
</a>
</g>
</g>
<!-- Node3 -->
<g id="Node000003" class="node">
<title>Node3</title>
<g id="a_Node000003"><a xlink:href="IOutputShiftRegister_8hpp.xhtml" target="_top" xlink:title=" ">
<polygon fill="white" stroke="#666666" points="122.5,-74.5 0,-74.5 0,-55.25 122.5,-55.25 122.5,-74.5"/>
<text text-anchor="middle" x="61.25" y="-61" font-family="Helvetica,sans-Serif" font-size="10.00">IOutputShiftRegister.hpp</text>
</a>
</g>
</g>
<!-- Node2&#45;&gt;Node3 -->
<g id="edge2_Node000002_Node000003" class="edge">
<title>Node2&#45;&gt;Node3</title>
<g id="a_edge2_Node000002_Node000003"><a xlink:title=" ">
<path fill="none" stroke="#63b8ff" d="M135.15,-110.09C121.73,-102.06 101.84,-90.16 86.08,-80.73"/>
<polygon fill="#63b8ff" stroke="#63b8ff" points="88.1,-77.86 77.72,-75.73 84.5,-83.87 88.1,-77.86"/>
</a>
</g>
</g>
<!-- Node4 -->
<g id="Node000004" class="node">
<title>Node4</title>
<g id="a_Node000004"><a xlink:title=" ">
<polygon fill="#e0e0e0" stroke="#999999" points="129.38,-19.25 81.12,-19.25 81.12,0 129.38,0 129.38,-19.25"/>
<text text-anchor="middle" x="105.25" y="-5.75" font-family="Helvetica,sans-Serif" font-size="10.00">cstddef</text>
</a>
</g>
</g>
<!-- Node2&#45;&gt;Node4 -->
<g id="edge5_Node000002_Node000004" class="edge">
<title>Node2&#45;&gt;Node4</title>
<g id="a_edge5_Node000002_Node000004"><a xlink:title=" ">
<path fill="none" stroke="#63b8ff" d="M148.31,-110.21C145.42,-97.65 139.43,-74.15 131.25,-55.25 127.38,-46.31 122.12,-36.92 117.33,-29.08"/>
<polygon fill="#63b8ff" stroke="#63b8ff" points="120.4,-27.38 112.1,-20.8 114.49,-31.12 120.4,-27.38"/>
</a>
</g>
</g>
<!-- Node5 -->
<g id="Node000005" class="node">
<title>Node5</title>
<g id="a_Node000005"><a xlink:href="IStatusIndicator_8hpp.xhtml" target="_top" xlink:title=" ">
<polygon fill="white" stroke="#666666" points="281.75,-74.5 178.75,-74.5 178.75,-55.25 281.75,-55.25 281.75,-74.5"/>
<text text-anchor="middle" x="230.25" y="-61" font-family="Helvetica,sans-Serif" font-size="10.00">IStatusIndicator.hpp</text>
</a>
</g>
</g>
<!-- Node2&#45;&gt;Node5 -->
<g id="edge4_Node000002_Node000005" class="edge">
<title>Node2&#45;&gt;Node5</title>
<g id="a_edge4_Node000002_Node000005"><a xlink:title=" ">
<path fill="none" stroke="#63b8ff" d="M163.82,-110.09C175.66,-102.21 193.09,-90.61 207.12,-81.27"/>
<polygon fill="#63b8ff" stroke="#63b8ff" points="208.97,-84.25 215.35,-75.79 205.09,-78.42 208.97,-84.25"/>
</a>
</g>
</g>
<!-- Node3&#45;&gt;Node4 -->
<g id="edge3_Node000003_Node000004" class="edge">
<title>Node3&#45;&gt;Node4</title>
<g id="a_edge3_Node000003_Node000004"><a xlink:title=" ">
<path fill="none" stroke="#63b8ff" d="M68.52,-55.08C74.53,-47.8 83.26,-37.23 90.71,-28.23"/>
<polygon fill="#63b8ff" stroke="#63b8ff" points="93.19,-30.71 96.86,-20.78 87.79,-26.26 93.19,-30.71"/>
</a>
</g>
</g>
</g>
</svg>
