<?xml version="1.0" encoding="UTF-8" standalone="no"?>
<!DOCTYPE svg PUBLIC "-//W3C//DTD SVG 1.1//EN"
 "http://www.w3.org/Graphics/SVG/1.1/DTD/svg11.dtd">
<!-- Generated by graphviz version 7.0.5 (20221223.1930)
 -->
<!-- Title: lib/board_adapters/sound_output_interface/sound_output.cpp Pages: 1 -->
<svg width="533pt" height="225pt"
 viewBox="0.00 0.00 533.00 225.00" xmlns="http://www.w3.org/2000/svg" xmlns:xlink="http://www.w3.org/1999/xlink">
<g id="graph0" class="graph" transform="scale(1 1) rotate(0) translate(4 221)">
<title>lib/board_adapters/sound_output_interface/sound_output.cpp</title>
<!-- Node1 -->
<g id="node1" class="node">
<title>Node1</title>
<g id="a_node1"><a xlink:title=" ">
<polygon fill="#999999" stroke="#666666" points="272,-217 151,-217 151,-176 272,-176 272,-217"/>
<text text-anchor="start" x="159" y="-205" font-family="Helvetica,sans-Serif" font-size="10.00">lib/board_adapters</text>
<text text-anchor="start" x="159" y="-194" font-family="Helvetica,sans-Serif" font-size="10.00">/sound_output_interface</text>
<text text-anchor="middle" x="211.5" y="-183" font-family="Helvetica,sans-Serif" font-size="10.00">/sound_output.cpp</text>
</a>
</g>
</g>
<!-- Node2 -->
<g id="node2" class="node">
<title>Node2</title>
<g id="a_node2"><a xlink:href="sound__output_8hpp.xhtml" target="_top" xlink:title=" ">
<polygon fill="white" stroke="#666666" points="93,-134.5 0,-134.5 0,-115.5 93,-115.5 93,-134.5"/>
<text text-anchor="middle" x="46.5" y="-122.5" font-family="Helvetica,sans-Serif" font-size="10.00">sound_output.hpp</text>
</a>
</g>
</g>
<!-- Node1&#45;&gt;Node2 -->
<g id="edge1" class="edge">
<title>Node1&#45;&gt;Node2</title>
<path fill="none" stroke="#63b8ff" d="M164.22,-175.58C136.64,-163.97 102.59,-149.62 78.22,-139.36"/>
<polygon fill="#63b8ff" stroke="#63b8ff" points="79.73,-136.2 69.15,-135.54 77.01,-142.65 79.73,-136.2"/>
</g>
<!-- Node3 -->
<g id="node3" class="node">
<title>Node3</title>
<g id="a_node3"><a xlink:href="Arduino-wrapper_8h.xhtml" target="_top" xlink:title="Circumvents problematic processor macros defined by Arduino framework.">
<polygon fill="white" stroke="#666666" points="206,-134.5 111,-134.5 111,-115.5 206,-115.5 206,-134.5"/>
<text text-anchor="middle" x="158.5" y="-122.5" font-family="Helvetica,sans-Serif" font-size="10.00">Arduino&#45;wrapper.h</text>
</a>
</g>
</g>
<!-- Node1&#45;&gt;Node3 -->
<g id="edge2" class="edge">
<title>Node1&#45;&gt;Node3</title>
<path fill="none" stroke="#63b8ff" d="M196.45,-175.77C188.82,-165.76 179.62,-153.7 172.19,-143.95"/>
<polygon fill="#63b8ff" stroke="#63b8ff" points="174.99,-141.85 166.14,-136.02 169.42,-146.1 174.99,-141.85"/>
</g>
<!-- Node5 -->
<g id="node5" class="node">
<title>Node5</title>
<g id="a_node5"><a xlink:href="board__pins_8hpp.xhtml" target="_top" xlink:title="Provides named objects for the pins provided by the board.">
<polygon fill="white" stroke="#666666" points="306.5,-134.5 224.5,-134.5 224.5,-115.5 306.5,-115.5 306.5,-134.5"/>
<text text-anchor="middle" x="265.5" y="-122.5" font-family="Helvetica,sans-Serif" font-size="10.00">board_pins.hpp</text>
</a>
</g>
</g>
<!-- Node1&#45;&gt;Node5 -->
<g id="edge4" class="edge">
<title>Node1&#45;&gt;Node5</title>
<path fill="none" stroke="#63b8ff" d="M226.83,-175.77C234.69,-165.66 244.18,-153.44 251.79,-143.64"/>
<polygon fill="#63b8ff" stroke="#63b8ff" points="254.35,-146.06 257.72,-136.02 248.82,-141.76 254.35,-146.06"/>
</g>
<!-- Node8 -->
<g id="node8" class="node">
<title>Node8</title>
<g id="a_node8"><a xlink:href="board__interface_8hpp.xhtml" target="_top" xlink:title=" ">
<polygon fill="white" stroke="#666666" points="459,-140 346,-140 346,-110 459,-110 459,-140"/>
<text text-anchor="start" x="354" y="-128" font-family="Helvetica,sans-Serif" font-size="10.00">user_interaction/board</text>
<text text-anchor="middle" x="402.5" y="-117" font-family="Helvetica,sans-Serif" font-size="10.00">_interface.hpp</text>
</a>
</g>
</g>
<!-- Node1&#45;&gt;Node8 -->
<g id="edge7" class="edge">
<title>Node1&#45;&gt;Node8</title>
<path fill="none" stroke="#63b8ff" d="M266.23,-175.58C293.36,-165.71 325.89,-153.88 352.36,-144.24"/>
<polygon fill="#63b8ff" stroke="#63b8ff" points="353.31,-147.62 361.51,-140.92 350.92,-141.05 353.31,-147.62"/>
</g>
<!-- Node4 -->
<g id="node4" class="node">
<title>Node4</title>
<g id="a_node4"><a xlink:title=" ">
<polygon fill="#e0e0e0" stroke="#999999" points="187,-74 130,-74 130,-55 187,-55 187,-74"/>
<text text-anchor="middle" x="158.5" y="-62" font-family="Helvetica,sans-Serif" font-size="10.00">Arduino.h</text>
</a>
</g>
</g>
<!-- Node3&#45;&gt;Node4 -->
<g id="edge3" class="edge">
<title>Node3&#45;&gt;Node4</title>
<path fill="none" stroke="#63b8ff" d="M158.5,-115.37C158.5,-107.5 158.5,-95.6 158.5,-85.39"/>
<polygon fill="#63b8ff" stroke="#63b8ff" points="162,-85.68 158.5,-75.68 155,-85.68 162,-85.68"/>
</g>
<!-- Node6 -->
<g id="node6" class="node">
<title>Node6</title>
<g id="a_node6"><a xlink:href="board__types_8hpp.xhtml" target="_top" xlink:title=" ">
<polygon fill="white" stroke="#666666" points="300,-74 213,-74 213,-55 300,-55 300,-74"/>
<text text-anchor="middle" x="256.5" y="-62" font-family="Helvetica,sans-Serif" font-size="10.00">board_types.hpp</text>
</a>
</g>
</g>
<!-- Node5&#45;&gt;Node6 -->
<g id="edge5" class="edge">
<title>Node5&#45;&gt;Node6</title>
<path fill="none" stroke="#63b8ff" d="M264.17,-115.37C262.96,-107.5 261.13,-95.6 259.56,-85.39"/>
<polygon fill="#63b8ff" stroke="#63b8ff" points="263.04,-85.01 258.06,-75.66 256.12,-86.08 263.04,-85.01"/>
</g>
<!-- Node7 -->
<g id="node7" class="node">
<title>Node7</title>
<g id="a_node7"><a xlink:title=" ">
<polygon fill="#e0e0e0" stroke="#999999" points="279.5,-19 233.5,-19 233.5,0 279.5,0 279.5,-19"/>
<text text-anchor="middle" x="256.5" y="-7" font-family="Helvetica,sans-Serif" font-size="10.00">cstdint</text>
</a>
</g>
</g>
<!-- Node6&#45;&gt;Node7 -->
<g id="edge6" class="edge">
<title>Node6&#45;&gt;Node7</title>
<path fill="none" stroke="#63b8ff" d="M256.5,-54.75C256.5,-48.27 256.5,-39.16 256.5,-30.9"/>
<polygon fill="#63b8ff" stroke="#63b8ff" points="260,-30.96 256.5,-20.96 253,-30.96 260,-30.96"/>
</g>
<!-- Node9 -->
<g id="node9" class="node">
<title>Node9</title>
<g id="a_node9"><a xlink:href="KeyIds_8hpp.xhtml" target="_top" xlink:title=" ">
<polygon fill="white" stroke="#666666" points="383,-74 318,-74 318,-55 383,-55 383,-74"/>
<text text-anchor="middle" x="350.5" y="-62" font-family="Helvetica,sans-Serif" font-size="10.00">KeyIds.hpp</text>
</a>
</g>
</g>
<!-- Node8&#45;&gt;Node9 -->
<g id="edge8" class="edge">
<title>Node8&#45;&gt;Node9</title>
<path fill="none" stroke="#63b8ff" d="M389.65,-109.54C382.4,-101.39 373.31,-91.16 365.71,-82.61"/>
<polygon fill="#63b8ff" stroke="#63b8ff" points="368.48,-80.46 359.22,-75.31 363.24,-85.11 368.48,-80.46"/>
</g>
<!-- Node11 -->
<g id="node11" class="node">
<title>Node11</title>
<g id="a_node11"><a xlink:title=" ">
<polygon fill="#e0e0e0" stroke="#999999" points="447.5,-74 401.5,-74 401.5,-55 447.5,-55 447.5,-74"/>
<text text-anchor="middle" x="424.5" y="-62" font-family="Helvetica,sans-Serif" font-size="10.00">chrono</text>
</a>
</g>
</g>
<!-- Node8&#45;&gt;Node11 -->
<g id="edge10" class="edge">
<title>Node8&#45;&gt;Node11</title>
<path fill="none" stroke="#63b8ff" d="M407.94,-109.54C410.74,-102.08 414.2,-92.89 417.23,-84.83"/>
<polygon fill="#63b8ff" stroke="#63b8ff" points="420.46,-86.18 420.7,-75.59 413.91,-83.72 420.46,-86.18"/>
</g>
<!-- Node12 -->
<g id="node12" class="node">
<title>Node12</title>
<g id="a_node12"><a xlink:title=" ">
<polygon fill="#e0e0e0" stroke="#999999" points="525,-74 466,-74 466,-55 525,-55 525,-74"/>
<text text-anchor="middle" x="495.5" y="-62" font-family="Helvetica,sans-Serif" font-size="10.00">functional</text>
</a>
</g>
</g>
<!-- Node8&#45;&gt;Node12 -->
<g id="edge11" class="edge">
<title>Node8&#45;&gt;Node12</title>
<path fill="none" stroke="#63b8ff" d="M425.49,-109.54C439.6,-100.66 457.63,-89.32 471.86,-80.37"/>
<polygon fill="#63b8ff" stroke="#63b8ff" points="473.55,-83.44 480.16,-75.15 469.83,-77.51 473.55,-83.44"/>
</g>
<!-- Node10 -->
<g id="node10" class="node">
<title>Node10</title>
<g id="a_node10"><a xlink:title=" ">
<polygon fill="#e0e0e0" stroke="#999999" points="376.5,-19 324.5,-19 324.5,0 376.5,0 376.5,-19"/>
<text text-anchor="middle" x="350.5" y="-7" font-family="Helvetica,sans-Serif" font-size="10.00">ostream</text>
</a>
</g>
</g>
<!-- Node9&#45;&gt;Node10 -->
<g id="edge9" class="edge">
<title>Node9&#45;&gt;Node10</title>
<path fill="none" stroke="#63b8ff" d="M350.5,-54.75C350.5,-48.27 350.5,-39.16 350.5,-30.9"/>
<polygon fill="#63b8ff" stroke="#63b8ff" points="354,-30.96 350.5,-20.96 347,-30.96 354,-30.96"/>
</g>
</g>
</svg>
