<?xml version="1.0" encoding="UTF-8" standalone="no"?>
<!DOCTYPE svg PUBLIC "-//W3C//DTD SVG 1.1//EN"
 "http://www.w3.org/Graphics/SVG/1.1/DTD/svg11.dtd">
<!-- Generated by graphviz version 7.0.5 (20221223.1930)
 -->
<!-- Title: lib/board_adapters/sound_output_interface/sound_output.cpp Pages: 1 -->
<svg width="426pt" height="170pt"
 viewBox="0.00 0.00 426.00 170.00" xmlns="http://www.w3.org/2000/svg" xmlns:xlink="http://www.w3.org/1999/xlink">
<g id="graph0" class="graph" transform="scale(1 1) rotate(0) translate(4 166)">
<title>lib/board_adapters/sound_output_interface/sound_output.cpp</title>
<!-- Node1 -->
<g id="node1" class="node">
<title>Node1</title>
<g id="a_node1"><a xlink:title=" ">
<polygon fill="#999999" stroke="#666666" points="244,-162 123,-162 123,-121 244,-121 244,-162"/>
<text text-anchor="start" x="131" y="-150" font-family="Helvetica,sans-Serif" font-size="10.00">lib/board_adapters</text>
<text text-anchor="start" x="131" y="-139" font-family="Helvetica,sans-Serif" font-size="10.00">/sound_output_interface</text>
<text text-anchor="middle" x="183.5" y="-128" font-family="Helvetica,sans-Serif" font-size="10.00">/sound_output.cpp</text>
</a>
</g>
</g>
<!-- Node2 -->
<g id="node2" class="node">
<title>Node2</title>
<g id="a_node2"><a xlink:href="sound__output_8hpp.xhtml" target="_top" xlink:title=" ">
<polygon fill="white" stroke="#666666" points="93,-79.5 0,-79.5 0,-60.5 93,-60.5 93,-79.5"/>
<text text-anchor="middle" x="46.5" y="-67.5" font-family="Helvetica,sans-Serif" font-size="10.00">sound_output.hpp</text>
</a>
</g>
</g>
<!-- Node1&#45;&gt;Node2 -->
<g id="edge1" class="edge">
<title>Node1&#45;&gt;Node2</title>
<path fill="none" stroke="#63b8ff" d="M144.24,-120.58C121.86,-109.23 94.34,-95.27 74.21,-85.06"/>
<polygon fill="#63b8ff" stroke="#63b8ff" points="76,-82.04 65.5,-80.64 72.84,-88.28 76,-82.04"/>
</g>
<!-- Node3 -->
<g id="node3" class="node">
<title>Node3</title>
<g id="a_node3"><a xlink:title=" ">
<polygon fill="#e0e0e0" stroke="#999999" points="168,-79.5 111,-79.5 111,-60.5 168,-60.5 168,-79.5"/>
<text text-anchor="middle" x="139.5" y="-67.5" font-family="Helvetica,sans-Serif" font-size="10.00">Arduino.h</text>
</a>
</g>
</g>
<!-- Node1&#45;&gt;Node3 -->
<g id="edge2" class="edge">
<title>Node1&#45;&gt;Node3</title>
<path fill="none" stroke="#63b8ff" d="M171.01,-120.77C164.74,-110.87 157.2,-98.95 151.06,-89.26"/>
<polygon fill="#63b8ff" stroke="#63b8ff" points="154.2,-87.68 145.89,-81.1 148.29,-91.42 154.2,-87.68"/>
</g>
<!-- Node4 -->
<g id="node4" class="node">
<title>Node4</title>
<g id="a_node4"><a xlink:href="board__pins_8hpp.xhtml" target="_top" xlink:title="Provides named objects for the pins provided by the board.">
<polygon fill="white" stroke="#666666" points="268.5,-79.5 186.5,-79.5 186.5,-60.5 268.5,-60.5 268.5,-79.5"/>
<text text-anchor="middle" x="227.5" y="-67.5" font-family="Helvetica,sans-Serif" font-size="10.00">board_pins.hpp</text>
</a>
</g>
</g>
<!-- Node1&#45;&gt;Node4 -->
<g id="edge3" class="edge">
<title>Node1&#45;&gt;Node4</title>
<path fill="none" stroke="#63b8ff" d="M195.99,-120.77C202.26,-110.87 209.8,-98.95 215.94,-89.26"/>
<polygon fill="#63b8ff" stroke="#63b8ff" points="218.71,-91.42 221.11,-81.1 212.8,-87.68 218.71,-91.42"/>
</g>
<!-- Node6 -->
<g id="node6" class="node">
<title>Node6</title>
<g id="a_node6"><a xlink:href="board__interface_8hpp.xhtml" target="_top" xlink:title=" ">
<polygon fill="white" stroke="#666666" points="400,-85 287,-85 287,-55 400,-55 400,-85"/>
<text text-anchor="start" x="295" y="-73" font-family="Helvetica,sans-Serif" font-size="10.00">user_interaction/board</text>
<text text-anchor="middle" x="343.5" y="-62" font-family="Helvetica,sans-Serif" font-size="10.00">_interface.hpp</text>
</a>
</g>
</g>
<!-- Node1&#45;&gt;Node6 -->
<g id="edge5" class="edge">
<title>Node1&#45;&gt;Node6</title>
<path fill="none" stroke="#63b8ff" d="M229.35,-120.58C251.57,-110.93 278.12,-99.4 300.02,-89.89"/>
<polygon fill="#63b8ff" stroke="#63b8ff" points="301.19,-93.2 308.97,-86 298.4,-86.77 301.19,-93.2"/>
</g>
<!-- Node5 -->
<g id="node5" class="node">
<title>Node5</title>
<g id="a_node5"><a xlink:title=" ">
<polygon fill="#e0e0e0" stroke="#999999" points="250.5,-19 204.5,-19 204.5,0 250.5,0 250.5,-19"/>
<text text-anchor="middle" x="227.5" y="-7" font-family="Helvetica,sans-Serif" font-size="10.00">cstdint</text>
</a>
</g>
</g>
<!-- Node4&#45;&gt;Node5 -->
<g id="edge4" class="edge">
<title>Node4&#45;&gt;Node5</title>
<path fill="none" stroke="#63b8ff" d="M227.5,-60.37C227.5,-52.5 227.5,-40.6 227.5,-30.39"/>
<polygon fill="#63b8ff" stroke="#63b8ff" points="231,-30.68 227.5,-20.68 224,-30.68 231,-30.68"/>
</g>
<!-- Node7 -->
<g id="node7" class="node">
<title>Node7</title>
<g id="a_node7"><a xlink:title=" ">
<polygon fill="#e0e0e0" stroke="#999999" points="340.5,-19 294.5,-19 294.5,0 340.5,0 340.5,-19"/>
<text text-anchor="middle" x="317.5" y="-7" font-family="Helvetica,sans-Serif" font-size="10.00">chrono</text>
</a>
</g>
</g>
<!-- Node6&#45;&gt;Node7 -->
<g id="edge6" class="edge">
<title>Node6&#45;&gt;Node7</title>
<path fill="none" stroke="#63b8ff" d="M337.07,-54.54C333.72,-47 329.58,-37.67 325.97,-29.55"/>
<polygon fill="#63b8ff" stroke="#63b8ff" points="329.23,-28.27 321.97,-20.56 322.83,-31.12 329.23,-28.27"/>
</g>
<!-- Node8 -->
<g id="node8" class="node">
<title>Node8</title>
<g id="a_node8"><a xlink:title=" ">
<polygon fill="#e0e0e0" stroke="#999999" points="418,-19 359,-19 359,0 418,0 418,-19"/>
<text text-anchor="middle" x="388.5" y="-7" font-family="Helvetica,sans-Serif" font-size="10.00">functional</text>
</a>
</g>
</g>
<!-- Node6&#45;&gt;Node8 -->
<g id="edge7" class="edge">
<title>Node6&#45;&gt;Node8</title>
<path fill="none" stroke="#63b8ff" d="M354.62,-54.54C360.76,-46.56 368.43,-36.59 374.91,-28.16"/>
<polygon fill="#63b8ff" stroke="#63b8ff" points="377.58,-30.44 380.9,-20.37 372.03,-26.17 377.58,-30.44"/>
</g>
</g>
</svg>
