<?xml version="1.0" encoding="UTF-8" standalone="no"?>
<!DOCTYPE svg PUBLIC "-//W3C//DTD SVG 1.1//EN"
 "http://www.w3.org/Graphics/SVG/1.1/DTD/svg11.dtd">
<!-- Generated by graphviz version 7.0.5 (20221223.1930)
 -->
<!-- Title: lib/board_adapters/sound_output_interface/sound_output.cpp Pages: 1 -->
<svg width="491pt" height="225pt"
 viewBox="0.00 0.00 491.00 225.00" xmlns="http://www.w3.org/2000/svg" xmlns:xlink="http://www.w3.org/1999/xlink">
<g id="graph0" class="graph" transform="scale(1 1) rotate(0) translate(4 221)">
<title>lib/board_adapters/sound_output_interface/sound_output.cpp</title>
<!-- Node1 -->
<g id="node1" class="node">
<title>Node1</title>
<g id="a_node1"><a xlink:title=" ">
<polygon fill="#999999" stroke="#666666" points="244,-217 123,-217 123,-176 244,-176 244,-217"/>
<text text-anchor="start" x="131" y="-205" font-family="Helvetica,sans-Serif" font-size="10.00">lib/board_adapters</text>
<text text-anchor="start" x="131" y="-194" font-family="Helvetica,sans-Serif" font-size="10.00">/sound_output_interface</text>
<text text-anchor="middle" x="183.5" y="-183" font-family="Helvetica,sans-Serif" font-size="10.00">/sound_output.cpp</text>
</a>
</g>
</g>
<!-- Node2 -->
<g id="node2" class="node">
<title>Node2</title>
<g id="a_node2"><a xlink:href="sound__output_8hpp.xhtml" target="_top" xlink:title=" ">
<polygon fill="white" stroke="#666666" points="93,-134.5 0,-134.5 0,-115.5 93,-115.5 93,-134.5"/>
<text text-anchor="middle" x="46.5" y="-122.5" font-family="Helvetica,sans-Serif" font-size="10.00">sound_output.hpp</text>
</a>
</g>
</g>
<!-- Node1&#45;&gt;Node2 -->
<g id="edge1" class="edge">
<title>Node1&#45;&gt;Node2</title>
<path fill="none" stroke="#63b8ff" d="M144.24,-175.58C121.86,-164.23 94.34,-150.27 74.21,-140.06"/>
<polygon fill="#63b8ff" stroke="#63b8ff" points="76,-137.04 65.5,-135.64 72.84,-143.28 76,-137.04"/>
</g>
<!-- Node3 -->
<g id="node3" class="node">
<title>Node3</title>
<g id="a_node3"><a xlink:title=" ">
<polygon fill="#e0e0e0" stroke="#999999" points="168,-134.5 111,-134.5 111,-115.5 168,-115.5 168,-134.5"/>
<text text-anchor="middle" x="139.5" y="-122.5" font-family="Helvetica,sans-Serif" font-size="10.00">Arduino.h</text>
</a>
</g>
</g>
<!-- Node1&#45;&gt;Node3 -->
<g id="edge2" class="edge">
<title>Node1&#45;&gt;Node3</title>
<path fill="none" stroke="#63b8ff" d="M171.01,-175.77C164.74,-165.87 157.2,-153.95 151.06,-144.26"/>
<polygon fill="#63b8ff" stroke="#63b8ff" points="154.2,-142.68 145.89,-136.1 148.29,-146.42 154.2,-142.68"/>
</g>
<!-- Node4 -->
<g id="node4" class="node">
<title>Node4</title>
<g id="a_node4"><a xlink:href="board__pins_8hpp.xhtml" target="_top" xlink:title="Provides named objects for the pins provided by the board.">
<polygon fill="white" stroke="#666666" points="268.5,-134.5 186.5,-134.5 186.5,-115.5 268.5,-115.5 268.5,-134.5"/>
<text text-anchor="middle" x="227.5" y="-122.5" font-family="Helvetica,sans-Serif" font-size="10.00">board_pins.hpp</text>
</a>
</g>
</g>
<!-- Node1&#45;&gt;Node4 -->
<g id="edge3" class="edge">
<title>Node1&#45;&gt;Node4</title>
<path fill="none" stroke="#63b8ff" d="M195.99,-175.77C202.26,-165.87 209.8,-153.95 215.94,-144.26"/>
<polygon fill="#63b8ff" stroke="#63b8ff" points="218.71,-146.42 221.11,-136.1 212.8,-142.68 218.71,-146.42"/>
</g>
<!-- Node7 -->
<g id="node7" class="node">
<title>Node7</title>
<g id="a_node7"><a xlink:href="board__interface_8hpp.xhtml" target="_top" xlink:title=" ">
<polygon fill="white" stroke="#666666" points="426,-140 313,-140 313,-110 426,-110 426,-140"/>
<text text-anchor="start" x="321" y="-128" font-family="Helvetica,sans-Serif" font-size="10.00">user_interaction/board</text>
<text text-anchor="middle" x="369.5" y="-117" font-family="Helvetica,sans-Serif" font-size="10.00">_interface.hpp</text>
</a>
</g>
</g>
<!-- Node1&#45;&gt;Node7 -->
<g id="edge6" class="edge">
<title>Node1&#45;&gt;Node7</title>
<path fill="none" stroke="#63b8ff" d="M236.8,-175.58C263.1,-165.76 294.62,-153.98 320.33,-144.37"/>
<polygon fill="#63b8ff" stroke="#63b8ff" points="321.41,-147.71 329.55,-140.93 318.96,-141.15 321.41,-147.71"/>
</g>
<!-- Node5 -->
<g id="node5" class="node">
<title>Node5</title>
<g id="a_node5"><a xlink:href="board__types_8hpp.xhtml" target="_top" xlink:title=" ">
<polygon fill="white" stroke="#666666" points="258,-74 171,-74 171,-55 258,-55 258,-74"/>
<text text-anchor="middle" x="214.5" y="-62" font-family="Helvetica,sans-Serif" font-size="10.00">board_types.hpp</text>
</a>
</g>
</g>
<!-- Node4&#45;&gt;Node5 -->
<g id="edge4" class="edge">
<title>Node4&#45;&gt;Node5</title>
<path fill="none" stroke="#63b8ff" d="M225.58,-115.37C223.83,-107.5 221.19,-95.6 218.92,-85.39"/>
<polygon fill="#63b8ff" stroke="#63b8ff" points="222.34,-84.65 216.75,-75.64 215.51,-86.17 222.34,-84.65"/>
</g>
<!-- Node6 -->
<g id="node6" class="node">
<title>Node6</title>
<g id="a_node6"><a xlink:title=" ">
<polygon fill="#e0e0e0" stroke="#999999" points="237.5,-19 191.5,-19 191.5,0 237.5,0 237.5,-19"/>
<text text-anchor="middle" x="214.5" y="-7" font-family="Helvetica,sans-Serif" font-size="10.00">cstdint</text>
</a>
</g>
</g>
<!-- Node5&#45;&gt;Node6 -->
<g id="edge5" class="edge">
<title>Node5&#45;&gt;Node6</title>
<path fill="none" stroke="#63b8ff" d="M214.5,-54.75C214.5,-48.27 214.5,-39.16 214.5,-30.9"/>
<polygon fill="#63b8ff" stroke="#63b8ff" points="218,-30.96 214.5,-20.96 211,-30.96 218,-30.96"/>
</g>
<!-- Node8 -->
<g id="node8" class="node">
<title>Node8</title>
<g id="a_node8"><a xlink:href="KeyIds_8hpp.xhtml" target="_top" xlink:title=" ">
<polygon fill="white" stroke="#666666" points="341,-74 276,-74 276,-55 341,-55 341,-74"/>
<text text-anchor="middle" x="308.5" y="-62" font-family="Helvetica,sans-Serif" font-size="10.00">KeyIds.hpp</text>
</a>
</g>
</g>
<!-- Node7&#45;&gt;Node8 -->
<g id="edge7" class="edge">
<title>Node7&#45;&gt;Node8</title>
<path fill="none" stroke="#63b8ff" d="M354.42,-109.54C345.74,-101.22 334.8,-90.72 325.78,-82.07"/>
<polygon fill="#63b8ff" stroke="#63b8ff" points="328.28,-79.62 318.64,-75.22 323.43,-84.67 328.28,-79.62"/>
</g>
<!-- Node10 -->
<g id="node10" class="node">
<title>Node10</title>
<g id="a_node10"><a xlink:title=" ">
<polygon fill="#e0e0e0" stroke="#999999" points="405.5,-74 359.5,-74 359.5,-55 405.5,-55 405.5,-74"/>
<text text-anchor="middle" x="382.5" y="-62" font-family="Helvetica,sans-Serif" font-size="10.00">chrono</text>
</a>
</g>
</g>
<!-- Node7&#45;&gt;Node10 -->
<g id="edge9" class="edge">
<title>Node7&#45;&gt;Node10</title>
<path fill="none" stroke="#63b8ff" d="M372.71,-109.54C374.33,-102.26 376.32,-93.31 378.08,-85.39"/>
<polygon fill="#63b8ff" stroke="#63b8ff" points="381.49,-86.17 380.24,-75.65 374.66,-84.66 381.49,-86.17"/>
</g>
<!-- Node11 -->
<g id="node11" class="node">
<title>Node11</title>
<g id="a_node11"><a xlink:title=" ">
<polygon fill="#e0e0e0" stroke="#999999" points="483,-74 424,-74 424,-55 483,-55 483,-74"/>
<text text-anchor="middle" x="453.5" y="-62" font-family="Helvetica,sans-Serif" font-size="10.00">functional</text>
</a>
</g>
</g>
<!-- Node7&#45;&gt;Node11 -->
<g id="edge10" class="edge">
<title>Node7&#45;&gt;Node11</title>
<path fill="none" stroke="#63b8ff" d="M390.26,-109.54C402.84,-100.78 418.86,-89.63 431.63,-80.73"/>
<polygon fill="#63b8ff" stroke="#63b8ff" points="433.6,-83.63 439.8,-75.04 429.6,-77.88 433.6,-83.63"/>
</g>
<!-- Node9 -->
<g id="node9" class="node">
<title>Node9</title>
<g id="a_node9"><a xlink:title=" ">
<polygon fill="#e0e0e0" stroke="#999999" points="334.5,-19 282.5,-19 282.5,0 334.5,0 334.5,-19"/>
<text text-anchor="middle" x="308.5" y="-7" font-family="Helvetica,sans-Serif" font-size="10.00">ostream</text>
</a>
</g>
</g>
<!-- Node8&#45;&gt;Node9 -->
<g id="edge8" class="edge">
<title>Node8&#45;&gt;Node9</title>
<path fill="none" stroke="#63b8ff" d="M308.5,-54.75C308.5,-48.27 308.5,-39.16 308.5,-30.9"/>
<polygon fill="#63b8ff" stroke="#63b8ff" points="312,-30.96 308.5,-20.96 305,-30.96 312,-30.96"/>
</g>
</g>
</svg>
