<?xml version="1.0" encoding="UTF-8" standalone="no"?>
<!DOCTYPE svg PUBLIC "-//W3C//DTD SVG 1.1//EN"
 "http://www.w3.org/Graphics/SVG/1.1/DTD/svg11.dtd">
<!-- Generated by graphviz version 7.0.5 (20221223.1930)
 -->
<!-- Title: lib/board_adapters/status_indicators/statusindicators_factory_interface.cpp Pages: 1 -->
<svg width="394pt" height="236pt"
 viewBox="0.00 0.00 394.00 236.00" xmlns="http://www.w3.org/2000/svg" xmlns:xlink="http://www.w3.org/1999/xlink">
<g id="graph0" class="graph" transform="scale(1 1) rotate(0) translate(4 232)">
<title>lib/board_adapters/status_indicators/statusindicators_factory_interface.cpp</title>
<!-- Node1 -->
<g id="node1" class="node">
<title>Node1</title>
<g id="a_node1"><a xlink:title=" ">
<polygon fill="#999999" stroke="#666666" points="238,-228 72,-228 72,-187 238,-187 238,-228"/>
<text text-anchor="start" x="80" y="-216" font-family="Helvetica,sans-Serif" font-size="10.00">lib/board_adapters</text>
<text text-anchor="start" x="80" y="-205" font-family="Helvetica,sans-Serif" font-size="10.00">/status_indicators/statusindicators</text>
<text text-anchor="middle" x="155" y="-194" font-family="Helvetica,sans-Serif" font-size="10.00">_factory_interface.cpp</text>
</a>
</g>
</g>
<!-- Node2 -->
<g id="node2" class="node">
<title>Node2</title>
<g id="a_node2"><a xlink:href="status__indicators_8hpp.xhtml" target="_top" xlink:title=" ">
<polygon fill="white" stroke="#666666" points="209.5,-145.5 100.5,-145.5 100.5,-126.5 209.5,-126.5 209.5,-145.5"/>
<text text-anchor="middle" x="155" y="-133.5" font-family="Helvetica,sans-Serif" font-size="10.00">status_indicators.hpp</text>
</a>
</g>
</g>
<!-- Node1&#45;&gt;Node2 -->
<g id="edge1" class="edge">
<title>Node1&#45;&gt;Node2</title>
<path fill="none" stroke="#63b8ff" d="M155,-186.77C155,-177.5 155,-166.46 155,-157.14"/>
<polygon fill="#63b8ff" stroke="#63b8ff" points="158.5,-157.33 155,-147.33 151.5,-157.33 158.5,-157.33"/>
</g>
<!-- Node6 -->
<g id="node6" class="node">
<title>Node6</title>
<g id="a_node6"><a xlink:href="board__pins_8hpp.xhtml" target="_top" xlink:title="Provides named objects for the pins provided by the board.">
<polygon fill="white" stroke="#666666" points="82,-145.5 0,-145.5 0,-126.5 82,-126.5 82,-145.5"/>
<text text-anchor="middle" x="41" y="-133.5" font-family="Helvetica,sans-Serif" font-size="10.00">board_pins.hpp</text>
</a>
</g>
</g>
<!-- Node1&#45;&gt;Node6 -->
<g id="edge5" class="edge">
<title>Node1&#45;&gt;Node6</title>
<path fill="none" stroke="#63b8ff" d="M122.33,-186.58C104.13,-175.49 81.86,-161.91 65.23,-151.77"/>
<polygon fill="#63b8ff" stroke="#63b8ff" points="67.34,-148.96 56.98,-146.74 63.7,-154.94 67.34,-148.96"/>
</g>
<!-- Node7 -->
<g id="node7" class="node">
<title>Node7</title>
<g id="a_node7"><a xlink:href="statusindicators__factory__interface_8hpp.xhtml" target="_top" xlink:title="Dependency injection for the keypad.">
<polygon fill="white" stroke="#666666" points="386,-151 228,-151 228,-121 386,-121 386,-151"/>
<text text-anchor="start" x="236" y="-139" font-family="Helvetica,sans-Serif" font-size="10.00">user_interaction/statusindicators</text>
<text text-anchor="middle" x="307" y="-128" font-family="Helvetica,sans-Serif" font-size="10.00">_factory_interface.hpp</text>
</a>
</g>
</g>
<!-- Node1&#45;&gt;Node7 -->
<g id="edge7" class="edge">
<title>Node1&#45;&gt;Node7</title>
<path fill="none" stroke="#63b8ff" d="M198.56,-186.58C219.47,-177.02 244.43,-165.61 265.12,-156.15"/>
<polygon fill="#63b8ff" stroke="#63b8ff" points="266.5,-159.37 274.13,-152.03 263.58,-153 266.5,-159.37"/>
</g>
<!-- Node3 -->
<g id="node3" class="node">
<title>Node3</title>
<g id="a_node3"><a xlink:href="board__types_8hpp.xhtml" target="_top" xlink:title=" ">
<polygon fill="white" stroke="#666666" points="87.5,-79.5 0.5,-79.5 0.5,-60.5 87.5,-60.5 87.5,-79.5"/>
<text text-anchor="middle" x="44" y="-67.5" font-family="Helvetica,sans-Serif" font-size="10.00">board_types.hpp</text>
</a>
</g>
</g>
<!-- Node2&#45;&gt;Node3 -->
<g id="edge2" class="edge">
<title>Node2&#45;&gt;Node3</title>
<path fill="none" stroke="#63b8ff" d="M139.57,-126.1C121.34,-115.59 90.77,-97.97 69.12,-85.49"/>
<polygon fill="#63b8ff" stroke="#63b8ff" points="71.03,-82.54 60.61,-80.58 67.53,-88.61 71.03,-82.54"/>
</g>
<!-- Node5 -->
<g id="node5" class="node">
<title>Node5</title>
<g id="a_node5"><a xlink:href="IStatusIndicator_8hpp.xhtml" target="_top" xlink:title=" ">
<polygon fill="white" stroke="#666666" points="231,-85 111,-85 111,-55 231,-55 231,-85"/>
<text text-anchor="start" x="119" y="-73" font-family="Helvetica,sans-Serif" font-size="10.00">user_interaction/IStatus</text>
<text text-anchor="middle" x="171" y="-62" font-family="Helvetica,sans-Serif" font-size="10.00">Indicator.hpp</text>
</a>
</g>
</g>
<!-- Node2&#45;&gt;Node5 -->
<g id="edge4" class="edge">
<title>Node2&#45;&gt;Node5</title>
<path fill="none" stroke="#63b8ff" d="M157.22,-126.1C159.17,-118.33 162.08,-106.67 164.73,-96.08"/>
<polygon fill="#63b8ff" stroke="#63b8ff" points="168.04,-97.25 167.07,-86.7 161.25,-95.55 168.04,-97.25"/>
</g>
<!-- Node4 -->
<g id="node4" class="node">
<title>Node4</title>
<g id="a_node4"><a xlink:title=" ">
<polygon fill="#e0e0e0" stroke="#999999" points="67,-19 21,-19 21,0 67,0 67,-19"/>
<text text-anchor="middle" x="44" y="-7" font-family="Helvetica,sans-Serif" font-size="10.00">cstdint</text>
</a>
</g>
</g>
<!-- Node3&#45;&gt;Node4 -->
<g id="edge3" class="edge">
<title>Node3&#45;&gt;Node4</title>
<path fill="none" stroke="#63b8ff" d="M44,-60.37C44,-52.5 44,-40.6 44,-30.39"/>
<polygon fill="#63b8ff" stroke="#63b8ff" points="47.5,-30.68 44,-20.68 40.5,-30.68 47.5,-30.68"/>
</g>
<!-- Node6&#45;&gt;Node3 -->
<g id="edge6" class="edge">
<title>Node6&#45;&gt;Node3</title>
<path fill="none" stroke="#63b8ff" d="M41.42,-126.1C41.84,-117.12 42.5,-102.95 43.05,-91.22"/>
<polygon fill="#63b8ff" stroke="#63b8ff" points="46.54,-91.49 43.52,-81.34 39.55,-91.16 46.54,-91.49"/>
</g>
<!-- Node7&#45;&gt;Node5 -->
<g id="edge8" class="edge">
<title>Node7&#45;&gt;Node5</title>
<path fill="none" stroke="#63b8ff" d="M276.48,-120.64C257.32,-111.62 232.38,-99.89 211.57,-90.09"/>
<polygon fill="#63b8ff" stroke="#63b8ff" points="213.33,-87.05 202.79,-85.96 210.35,-93.38 213.33,-87.05"/>
</g>
<!-- Node8 -->
<g id="node8" class="node">
<title>Node8</title>
<g id="a_node8"><a xlink:href="hmi__configuration_8hpp.xhtml" target="_top" xlink:title=" ">
<polygon fill="white" stroke="#666666" points="362,-79.5 252,-79.5 252,-60.5 362,-60.5 362,-79.5"/>
<text text-anchor="middle" x="307" y="-67.5" font-family="Helvetica,sans-Serif" font-size="10.00">hmi_configuration.hpp</text>
</a>
</g>
</g>
<!-- Node7&#45;&gt;Node8 -->
<g id="edge9" class="edge">
<title>Node7&#45;&gt;Node8</title>
<path fill="none" stroke="#63b8ff" d="M307,-120.8C307,-112.09 307,-100.81 307,-91.18"/>
<polygon fill="#63b8ff" stroke="#63b8ff" points="310.5,-91.36 307,-81.36 303.5,-91.36 310.5,-91.36"/>
</g>
<!-- Node9 -->
<g id="node9" class="node">
<title>Node9</title>
<g id="a_node9"><a xlink:title=" ">
<polygon fill="#e0e0e0" stroke="#999999" points="331.5,-19 282.5,-19 282.5,0 331.5,0 331.5,-19"/>
<text text-anchor="middle" x="307" y="-7" font-family="Helvetica,sans-Serif" font-size="10.00">cstddef</text>
</a>
</g>
</g>
<!-- Node8&#45;&gt;Node9 -->
<g id="edge10" class="edge">
<title>Node8&#45;&gt;Node9</title>
<path fill="none" stroke="#63b8ff" d="M307,-60.37C307,-52.5 307,-40.6 307,-30.39"/>
<polygon fill="#63b8ff" stroke="#63b8ff" points="310.5,-30.68 307,-20.68 303.5,-30.68 310.5,-30.68"/>
</g>
</g>
</svg>
