<?xml version="1.0" encoding="UTF-8" standalone="no"?>
<!DOCTYPE svg PUBLIC "-//W3C//DTD SVG 1.1//EN"
 "http://www.w3.org/Graphics/SVG/1.1/DTD/svg11.dtd">
<!-- Generated by graphviz version 7.0.5 (20221223.1930)
 -->
<!-- Title: lib/board_adapters/status_indicators/status_indicators.cpp Pages: 1 -->
<svg width="442pt" height="170pt"
 viewBox="0.00 0.00 442.00 170.00" xmlns="http://www.w3.org/2000/svg" xmlns:xlink="http://www.w3.org/1999/xlink">
<g id="graph0" class="graph" transform="scale(1 1) rotate(0) translate(4 166)">
<title>lib/board_adapters/status_indicators/status_indicators.cpp</title>
<!-- Node1 -->
<g id="node1" class="node">
<title>Node1</title>
<g id="a_node1"><a xlink:title=" ">
<polygon fill="#999999" stroke="#666666" points="261.5,-162 137.5,-162 137.5,-121 261.5,-121 261.5,-162"/>
<text text-anchor="start" x="145.5" y="-150" font-family="Helvetica,sans-Serif" font-size="10.00">lib/board_adapters</text>
<text text-anchor="start" x="145.5" y="-139" font-family="Helvetica,sans-Serif" font-size="10.00">/status_indicators/status</text>
<text text-anchor="middle" x="199.5" y="-128" font-family="Helvetica,sans-Serif" font-size="10.00">_indicators.cpp</text>
</a>
</g>
</g>
<!-- Node2 -->
<g id="node2" class="node">
<title>Node2</title>
<g id="a_node2"><a xlink:href="status__indicators_8hpp.xhtml" target="_top" xlink:title=" ">
<polygon fill="white" stroke="#666666" points="109,-79.5 0,-79.5 0,-60.5 109,-60.5 109,-79.5"/>
<text text-anchor="middle" x="54.5" y="-67.5" font-family="Helvetica,sans-Serif" font-size="10.00">status_indicators.hpp</text>
</a>
</g>
</g>
<!-- Node1&#45;&gt;Node2 -->
<g id="edge1" class="edge">
<title>Node1&#45;&gt;Node2</title>
<path fill="none" stroke="#63b8ff" d="M157.95,-120.58C134.15,-109.18 104.87,-95.14 83.54,-84.92"/>
<polygon fill="#63b8ff" stroke="#63b8ff" points="85.08,-81.77 74.55,-80.61 82.05,-88.09 85.08,-81.77"/>
</g>
<!-- Node3 -->
<g id="node3" class="node">
<title>Node3</title>
<g id="a_node3"><a xlink:title=" ">
<polygon fill="#e0e0e0" stroke="#999999" points="184,-79.5 127,-79.5 127,-60.5 184,-60.5 184,-79.5"/>
<text text-anchor="middle" x="155.5" y="-67.5" font-family="Helvetica,sans-Serif" font-size="10.00">Arduino.h</text>
</a>
</g>
</g>
<!-- Node1&#45;&gt;Node3 -->
<g id="edge2" class="edge">
<title>Node1&#45;&gt;Node3</title>
<path fill="none" stroke="#63b8ff" d="M187.01,-120.77C180.74,-110.87 173.2,-98.95 167.06,-89.26"/>
<polygon fill="#63b8ff" stroke="#63b8ff" points="170.2,-87.68 161.89,-81.1 164.29,-91.42 170.2,-87.68"/>
</g>
<!-- Node4 -->
<g id="node4" class="node">
<title>Node4</title>
<g id="a_node4"><a xlink:href="board__pins_8hpp.xhtml" target="_top" xlink:title="Provides named objects for the pins provided by the board.">
<polygon fill="white" stroke="#666666" points="284.5,-79.5 202.5,-79.5 202.5,-60.5 284.5,-60.5 284.5,-79.5"/>
<text text-anchor="middle" x="243.5" y="-67.5" font-family="Helvetica,sans-Serif" font-size="10.00">board_pins.hpp</text>
</a>
</g>
</g>
<!-- Node1&#45;&gt;Node4 -->
<g id="edge3" class="edge">
<title>Node1&#45;&gt;Node4</title>
<path fill="none" stroke="#63b8ff" d="M211.99,-120.77C218.26,-110.87 225.8,-98.95 231.94,-89.26"/>
<polygon fill="#63b8ff" stroke="#63b8ff" points="234.71,-91.42 237.11,-81.1 228.8,-87.68 234.71,-91.42"/>
</g>
<!-- Node6 -->
<g id="node6" class="node">
<title>Node6</title>
<g id="a_node6"><a xlink:href="board__interface_8hpp.xhtml" target="_top" xlink:title=" ">
<polygon fill="white" stroke="#666666" points="416,-85 303,-85 303,-55 416,-55 416,-85"/>
<text text-anchor="start" x="311" y="-73" font-family="Helvetica,sans-Serif" font-size="10.00">user_interaction/board</text>
<text text-anchor="middle" x="359.5" y="-62" font-family="Helvetica,sans-Serif" font-size="10.00">_interface.hpp</text>
</a>
</g>
</g>
<!-- Node1&#45;&gt;Node6 -->
<g id="edge5" class="edge">
<title>Node1&#45;&gt;Node6</title>
<path fill="none" stroke="#63b8ff" d="M245.35,-120.58C267.57,-110.93 294.12,-99.4 316.02,-89.89"/>
<polygon fill="#63b8ff" stroke="#63b8ff" points="317.19,-93.2 324.97,-86 314.4,-86.77 317.19,-93.2"/>
</g>
<!-- Node5 -->
<g id="node5" class="node">
<title>Node5</title>
<g id="a_node5"><a xlink:title=" ">
<polygon fill="#e0e0e0" stroke="#999999" points="266.5,-19 220.5,-19 220.5,0 266.5,0 266.5,-19"/>
<text text-anchor="middle" x="243.5" y="-7" font-family="Helvetica,sans-Serif" font-size="10.00">cstdint</text>
</a>
</g>
</g>
<!-- Node4&#45;&gt;Node5 -->
<g id="edge4" class="edge">
<title>Node4&#45;&gt;Node5</title>
<path fill="none" stroke="#63b8ff" d="M243.5,-60.37C243.5,-52.5 243.5,-40.6 243.5,-30.39"/>
<polygon fill="#63b8ff" stroke="#63b8ff" points="247,-30.68 243.5,-20.68 240,-30.68 247,-30.68"/>
</g>
<!-- Node7 -->
<g id="node7" class="node">
<title>Node7</title>
<g id="a_node7"><a xlink:title=" ">
<polygon fill="#e0e0e0" stroke="#999999" points="356.5,-19 310.5,-19 310.5,0 356.5,0 356.5,-19"/>
<text text-anchor="middle" x="333.5" y="-7" font-family="Helvetica,sans-Serif" font-size="10.00">chrono</text>
</a>
</g>
</g>
<!-- Node6&#45;&gt;Node7 -->
<g id="edge6" class="edge">
<title>Node6&#45;&gt;Node7</title>
<path fill="none" stroke="#63b8ff" d="M353.07,-54.54C349.72,-47 345.58,-37.67 341.97,-29.55"/>
<polygon fill="#63b8ff" stroke="#63b8ff" points="345.23,-28.27 337.97,-20.56 338.83,-31.12 345.23,-28.27"/>
</g>
<!-- Node8 -->
<g id="node8" class="node">
<title>Node8</title>
<g id="a_node8"><a xlink:title=" ">
<polygon fill="#e0e0e0" stroke="#999999" points="434,-19 375,-19 375,0 434,0 434,-19"/>
<text text-anchor="middle" x="404.5" y="-7" font-family="Helvetica,sans-Serif" font-size="10.00">functional</text>
</a>
</g>
</g>
<!-- Node6&#45;&gt;Node8 -->
<g id="edge7" class="edge">
<title>Node6&#45;&gt;Node8</title>
<path fill="none" stroke="#63b8ff" d="M370.62,-54.54C376.76,-46.56 384.43,-36.59 390.91,-28.16"/>
<polygon fill="#63b8ff" stroke="#63b8ff" points="393.58,-30.44 396.9,-20.37 388.03,-26.17 393.58,-30.44"/>
</g>
</g>
</svg>
