<?xml version="1.0" encoding="UTF-8" standalone="no"?>
<!DOCTYPE svg PUBLIC "-//W3C//DTD SVG 1.1//EN"
 "http://www.w3.org/Graphics/SVG/1.1/DTD/svg11.dtd">
<!-- Generated by graphviz version 7.0.5 (20221223.1930)
 -->
<!-- Title: lib/board_adapters/status_indicators/status_indicators.cpp Pages: 1 -->
<svg width="242pt" height="225pt"
 viewBox="0.00 0.00 242.00 225.00" xmlns="http://www.w3.org/2000/svg" xmlns:xlink="http://www.w3.org/1999/xlink">
<g id="graph0" class="graph" transform="scale(1 1) rotate(0) translate(4 221)">
<title>lib/board_adapters/status_indicators/status_indicators.cpp</title>
<!-- Node1 -->
<g id="node1" class="node">
<title>Node1</title>
<g id="a_node1"><a xlink:title=" ">
<polygon fill="#999999" stroke="#666666" points="216.5,-217 92.5,-217 92.5,-176 216.5,-176 216.5,-217"/>
<text text-anchor="start" x="100.5" y="-205" font-family="Helvetica,sans-Serif" font-size="10.00">lib/board_adapters</text>
<text text-anchor="start" x="100.5" y="-194" font-family="Helvetica,sans-Serif" font-size="10.00">/status_indicators/status</text>
<text text-anchor="middle" x="154.5" y="-183" font-family="Helvetica,sans-Serif" font-size="10.00">_indicators.cpp</text>
</a>
</g>
</g>
<!-- Node2 -->
<g id="node2" class="node">
<title>Node2</title>
<g id="a_node2"><a xlink:href="status__indicators_8hpp.xhtml" target="_top" xlink:title=" ">
<polygon fill="white" stroke="#666666" points="159,-140 50,-140 50,-121 159,-121 159,-140"/>
<text text-anchor="middle" x="104.5" y="-128" font-family="Helvetica,sans-Serif" font-size="10.00">status_indicators.hpp</text>
</a>
</g>
</g>
<!-- Node1&#45;&gt;Node2 -->
<g id="edge1" class="edge">
<title>Node1&#45;&gt;Node2</title>
<path fill="none" stroke="#63b8ff" d="M138.95,-175.6C132.35,-167.15 124.72,-157.38 118.31,-149.18"/>
<polygon fill="#63b8ff" stroke="#63b8ff" points="121.11,-147.08 112.2,-141.36 115.6,-151.39 121.11,-147.08"/>
</g>
<!-- Node6 -->
<g id="node6" class="node">
<title>Node6</title>
<g id="a_node6"><a xlink:title=" ">
<polygon fill="#e0e0e0" stroke="#999999" points="234,-140 177,-140 177,-121 234,-121 234,-140"/>
<text text-anchor="middle" x="205.5" y="-128" font-family="Helvetica,sans-Serif" font-size="10.00">Arduino.h</text>
</a>
</g>
</g>
<!-- Node1&#45;&gt;Node6 -->
<g id="edge5" class="edge">
<title>Node1&#45;&gt;Node6</title>
<path fill="none" stroke="#63b8ff" d="M170.36,-175.6C177.17,-167.06 185.05,-157.16 191.63,-148.91"/>
<polygon fill="#63b8ff" stroke="#63b8ff" points="194.16,-151.35 197.65,-141.35 188.68,-146.99 194.16,-151.35"/>
</g>
<!-- Node3 -->
<g id="node3" class="node">
<title>Node3</title>
<g id="a_node3"><a xlink:href="board__types_8hpp.xhtml" target="_top" xlink:title=" ">
<polygon fill="white" stroke="#666666" points="87,-79.5 0,-79.5 0,-60.5 87,-60.5 87,-79.5"/>
<text text-anchor="middle" x="43.5" y="-67.5" font-family="Helvetica,sans-Serif" font-size="10.00">board_types.hpp</text>
</a>
</g>
</g>
<!-- Node2&#45;&gt;Node3 -->
<g id="edge2" class="edge">
<title>Node2&#45;&gt;Node3</title>
<path fill="none" stroke="#63b8ff" d="M95.24,-120.62C86.19,-111.94 72.19,-98.52 61.04,-87.82"/>
<polygon fill="#63b8ff" stroke="#63b8ff" points="63.58,-85.41 53.94,-81.02 58.74,-90.46 63.58,-85.41"/>
</g>
<!-- Node5 -->
<g id="node5" class="node">
<title>Node5</title>
<g id="a_node5"><a xlink:href="IStatusIndicator_8hpp.xhtml" target="_top" xlink:title=" ">
<polygon fill="white" stroke="#666666" points="225.5,-85 105.5,-85 105.5,-55 225.5,-55 225.5,-85"/>
<text text-anchor="start" x="113.5" y="-73" font-family="Helvetica,sans-Serif" font-size="10.00">user_interaction/IStatus</text>
<text text-anchor="middle" x="165.5" y="-62" font-family="Helvetica,sans-Serif" font-size="10.00">Indicator.hpp</text>
</a>
</g>
</g>
<!-- Node2&#45;&gt;Node5 -->
<g id="edge4" class="edge">
<title>Node2&#45;&gt;Node5</title>
<path fill="none" stroke="#63b8ff" d="M113.76,-120.62C121.29,-113.4 132.24,-102.89 142.14,-93.41"/>
<polygon fill="#63b8ff" stroke="#63b8ff" points="144.56,-95.93 149.35,-86.49 139.71,-90.88 144.56,-95.93"/>
</g>
<!-- Node4 -->
<g id="node4" class="node">
<title>Node4</title>
<g id="a_node4"><a xlink:title=" ">
<polygon fill="#e0e0e0" stroke="#999999" points="66.5,-19 20.5,-19 20.5,0 66.5,0 66.5,-19"/>
<text text-anchor="middle" x="43.5" y="-7" font-family="Helvetica,sans-Serif" font-size="10.00">cstdint</text>
</a>
</g>
</g>
<!-- Node3&#45;&gt;Node4 -->
<g id="edge3" class="edge">
<title>Node3&#45;&gt;Node4</title>
<path fill="none" stroke="#63b8ff" d="M43.5,-60.37C43.5,-52.5 43.5,-40.6 43.5,-30.39"/>
<polygon fill="#63b8ff" stroke="#63b8ff" points="47,-30.68 43.5,-20.68 40,-30.68 47,-30.68"/>
</g>
</g>
</svg>
