<?xml version="1.0" encoding="UTF-8" standalone="no"?>
<!DOCTYPE svg PUBLIC "-//W3C//DTD SVG 1.1//EN"
 "http://www.w3.org/Graphics/SVG/1.1/DTD/svg11.dtd">
<!-- Generated by graphviz version 9.0.0 (20230911.1827)
 -->
<!-- Title: lib/layer3_board/src/statusindicators_factory_interface.cpp Pages: 1 -->
<svg width="369pt" height="227pt"
 viewBox="0.00 0.00 369.12 226.75" xmlns="http://www.w3.org/2000/svg" xmlns:xlink="http://www.w3.org/1999/xlink">
<g id="graph0" class="graph" transform="scale(1 1) rotate(0) translate(4 222.75)">
<title>lib/layer3_board/src/statusindicators_factory_interface.cpp</title>
<!-- Node1 -->
<g id="Node000001" class="node">
<title>Node1</title>
<g id="a_Node000001"><a xlink:title=" ">
<polygon fill="#999999" stroke="#666666" points="257,-218.75 134.5,-218.75 134.5,-177 257,-177 257,-218.75"/>
<text text-anchor="start" x="142.5" y="-205.25" font-family="Helvetica,sans-Serif" font-size="10.00">lib/layer3_board/src</text>
<text text-anchor="start" x="142.5" y="-194" font-family="Helvetica,sans-Serif" font-size="10.00">/statusindicators_factory</text>
<text text-anchor="middle" x="195.75" y="-182.75" font-family="Helvetica,sans-Serif" font-size="10.00">_interface.cpp</text>
</a>
</g>
</g>
<!-- Node2 -->
<g id="Node000002" class="node">
<title>Node2</title>
<g id="a_Node000002"><a xlink:href="statusindicators__factory__interface_8hpp.xhtml" target="_top" xlink:title=" ">
<polygon fill="white" stroke="#666666" points="119.5,-141 0,-141 0,-110.5 119.5,-110.5 119.5,-141"/>
<text text-anchor="start" x="8" y="-127.5" font-family="Helvetica,sans-Serif" font-size="10.00">statusindicators_factory</text>
<text text-anchor="middle" x="59.75" y="-116.25" font-family="Helvetica,sans-Serif" font-size="10.00">_interface.hpp</text>
</a>
</g>
</g>
<!-- Node1&#45;&gt;Node2 -->
<g id="edge1_Node000001_Node000002" class="edge">
<title>Node1&#45;&gt;Node2</title>
<g id="a_edge1_Node000001_Node000002"><a xlink:title=" ">
<path fill="none" stroke="#63b8ff" d="M156.41,-176.59C138.1,-167.15 116.39,-155.95 98.18,-146.57"/>
<polygon fill="#63b8ff" stroke="#63b8ff" points="100.04,-143.59 89.55,-142.11 96.83,-149.81 100.04,-143.59"/>
</a>
</g>
</g>
<!-- Node6 -->
<g id="Node000006" class="node">
<title>Node6</title>
<g id="a_Node000006"><a xlink:href="LedStatusIndicator_8hpp.xhtml" target="_top" xlink:title=" ">
<polygon fill="white" stroke="#666666" points="254,-135.38 137.5,-135.38 137.5,-116.12 254,-116.12 254,-135.38"/>
<text text-anchor="middle" x="195.75" y="-121.88" font-family="Helvetica,sans-Serif" font-size="10.00">LedStatusIndicator.hpp</text>
</a>
</g>
</g>
<!-- Node1&#45;&gt;Node6 -->
<g id="edge5_Node000001_Node000006" class="edge">
<title>Node1&#45;&gt;Node6</title>
<g id="a_edge5_Node000001_Node000006"><a xlink:title=" ">
<path fill="none" stroke="#63b8ff" d="M195.75,-176.59C195.75,-167.25 195.75,-156.19 195.75,-146.87"/>
<polygon fill="#63b8ff" stroke="#63b8ff" points="199.25,-147.07 195.75,-137.07 192.25,-147.07 199.25,-147.07"/>
</a>
</g>
</g>
<!-- Node9 -->
<g id="Node000009" class="node">
<title>Node9</title>
<g id="a_Node000009"><a xlink:href="board__config_8hpp.xhtml" target="_top" xlink:title="Provides named objects for the pins provided by the board.">
<polygon fill="white" stroke="#666666" points="361.12,-135.38 272.38,-135.38 272.38,-116.12 361.12,-116.12 361.12,-135.38"/>
<text text-anchor="middle" x="316.75" y="-121.88" font-family="Helvetica,sans-Serif" font-size="10.00">board_config.hpp</text>
</a>
</g>
</g>
<!-- Node1&#45;&gt;Node9 -->
<g id="edge9_Node000001_Node000009" class="edge">
<title>Node1&#45;&gt;Node9</title>
<g id="a_edge9_Node000001_Node000009"><a xlink:title=" ">
<path fill="none" stroke="#63b8ff" d="M230.75,-176.59C250.24,-165.3 274.04,-151.5 291.67,-141.29"/>
<polygon fill="#63b8ff" stroke="#63b8ff" points="293.04,-144.54 299.94,-136.49 289.53,-138.48 293.04,-144.54"/>
</a>
</g>
</g>
<!-- Node3 -->
<g id="Node000003" class="node">
<title>Node3</title>
<g id="a_Node000003"><a xlink:href="IStatusIndicator_8hpp.xhtml" target="_top" xlink:title=" ">
<polygon fill="white" stroke="#666666" points="241.25,-74.5 138.25,-74.5 138.25,-55.25 241.25,-55.25 241.25,-74.5"/>
<text text-anchor="middle" x="189.75" y="-61" font-family="Helvetica,sans-Serif" font-size="10.00">IStatusIndicator.hpp</text>
</a>
</g>
</g>
<!-- Node2&#45;&gt;Node3 -->
<g id="edge2_Node000002_Node000003" class="edge">
<title>Node2&#45;&gt;Node3</title>
<g id="a_edge2_Node000002_Node000003"><a xlink:title=" ">
<path fill="none" stroke="#63b8ff" d="M92.22,-110.05C112.78,-100.73 139.19,-88.77 159.34,-79.65"/>
<polygon fill="#63b8ff" stroke="#63b8ff" points="160.77,-82.84 168.43,-75.53 157.88,-76.47 160.77,-82.84"/>
</a>
</g>
</g>
<!-- Node4 -->
<g id="Node000004" class="node">
<title>Node4</title>
<g id="a_Node000004"><a xlink:href="hmi__configuration_8hpp.xhtml" target="_top" xlink:title=" ">
<polygon fill="white" stroke="#666666" points="114.62,-74.5 4.88,-74.5 4.88,-55.25 114.62,-55.25 114.62,-74.5"/>
<text text-anchor="middle" x="59.75" y="-61" font-family="Helvetica,sans-Serif" font-size="10.00">hmi_configuration.hpp</text>
</a>
</g>
</g>
<!-- Node2&#45;&gt;Node4 -->
<g id="edge3_Node000002_Node000004" class="edge">
<title>Node2&#45;&gt;Node4</title>
<g id="a_edge3_Node000002_Node000004"><a xlink:title=" ">
<path fill="none" stroke="#63b8ff" d="M59.75,-110.2C59.75,-102.96 59.75,-94.09 59.75,-86.19"/>
<polygon fill="#63b8ff" stroke="#63b8ff" points="63.25,-86.46 59.75,-76.46 56.25,-86.46 63.25,-86.46"/>
</a>
</g>
</g>
<!-- Node5 -->
<g id="Node000005" class="node">
<title>Node5</title>
<g id="a_Node000005"><a xlink:title=" ">
<polygon fill="#e0e0e0" stroke="#999999" points="83.88,-19.25 35.62,-19.25 35.62,0 83.88,0 83.88,-19.25"/>
<text text-anchor="middle" x="59.75" y="-5.75" font-family="Helvetica,sans-Serif" font-size="10.00">cstddef</text>
</a>
</g>
</g>
<!-- Node4&#45;&gt;Node5 -->
<g id="edge4_Node000004_Node000005" class="edge">
<title>Node4&#45;&gt;Node5</title>
<g id="a_edge4_Node000004_Node000005"><a xlink:title=" ">
<path fill="none" stroke="#63b8ff" d="M59.75,-55.08C59.75,-48.57 59.75,-39.42 59.75,-31.12"/>
<polygon fill="#63b8ff" stroke="#63b8ff" points="63.25,-31.12 59.75,-21.12 56.25,-31.12 63.25,-31.12"/>
</a>
</g>
</g>
<!-- Node6&#45;&gt;Node3 -->
<g id="edge6_Node000006_Node000003" class="edge">
<title>Node6&#45;&gt;Node3</title>
<g id="a_edge6_Node000006_Node000003"><a xlink:title=" ">
<path fill="none" stroke="#63b8ff" d="M194.84,-115.81C194.04,-107.94 192.84,-96.2 191.81,-86.07"/>
<polygon fill="#63b8ff" stroke="#63b8ff" points="195.32,-86 190.82,-76.41 188.36,-86.71 195.32,-86"/>
</a>
</g>
</g>
<!-- Node7 -->
<g id="Node000007" class="node">
<title>Node7</title>
<g id="a_Node000007"><a xlink:href="board__types_8hpp.xhtml" target="_top" xlink:title=" ">
<polygon fill="white" stroke="#666666" points="353,-74.5 266.5,-74.5 266.5,-55.25 353,-55.25 353,-74.5"/>
<text text-anchor="middle" x="309.75" y="-61" font-family="Helvetica,sans-Serif" font-size="10.00">board_types.hpp</text>
</a>
</g>
</g>
<!-- Node6&#45;&gt;Node7 -->
<g id="edge7_Node000006_Node000007" class="edge">
<title>Node6&#45;&gt;Node7</title>
<g id="a_edge7_Node000006_Node000007"><a xlink:title=" ">
<path fill="none" stroke="#63b8ff" d="M213.06,-115.81C231.39,-106.34 260.59,-91.26 282.11,-80.15"/>
<polygon fill="#63b8ff" stroke="#63b8ff" points="283.65,-83.29 290.93,-75.6 280.44,-77.07 283.65,-83.29"/>
</a>
</g>
</g>
<!-- Node8 -->
<g id="Node000008" class="node">
<title>Node8</title>
<g id="a_Node000008"><a xlink:title=" ">
<polygon fill="#e0e0e0" stroke="#999999" points="332.38,-19.25 287.12,-19.25 287.12,0 332.38,0 332.38,-19.25"/>
<text text-anchor="middle" x="309.75" y="-5.75" font-family="Helvetica,sans-Serif" font-size="10.00">cstdint</text>
</a>
</g>
</g>
<!-- Node7&#45;&gt;Node8 -->
<g id="edge8_Node000007_Node000008" class="edge">
<title>Node7&#45;&gt;Node8</title>
<g id="a_edge8_Node000007_Node000008"><a xlink:title=" ">
<path fill="none" stroke="#63b8ff" d="M309.75,-55.08C309.75,-48.57 309.75,-39.42 309.75,-31.12"/>
<polygon fill="#63b8ff" stroke="#63b8ff" points="313.25,-31.12 309.75,-21.12 306.25,-31.12 313.25,-31.12"/>
</a>
</g>
</g>
<!-- Node9&#45;&gt;Node7 -->
<g id="edge10_Node000009_Node000007" class="edge">
<title>Node9&#45;&gt;Node7</title>
<g id="a_edge10_Node000009_Node000007"><a xlink:title=" ">
<path fill="none" stroke="#63b8ff" d="M315.69,-115.81C314.75,-107.94 313.36,-96.2 312.15,-86.07"/>
<polygon fill="#63b8ff" stroke="#63b8ff" points="315.66,-85.92 311,-76.4 308.71,-86.75 315.66,-85.92"/>
</a>
</g>
</g>
</g>
</svg>
