<?xml version="1.0" encoding="UTF-8" standalone="no"?>
<!DOCTYPE svg PUBLIC "-//W3C//DTD SVG 1.1//EN"
 "http://www.w3.org/Graphics/SVG/1.1/DTD/svg11.dtd">
<!-- Generated by graphviz version 7.0.5 (20221223.1930)
 -->
<!-- Title: lib/enterprise_business_rules/string_helpers.hpp Pages: 1 -->
<svg width="485pt" height="192pt"
 viewBox="0.00 0.00 485.00 192.00" xmlns="http://www.w3.org/2000/svg" xmlns:xlink="http://www.w3.org/1999/xlink">
<g id="graph0" class="graph" transform="scale(1 1) rotate(0) translate(4 188)">
<title>lib/enterprise_business_rules/string_helpers.hpp</title>
<!-- Node1 -->
<g id="node1" class="node">
<title>Node1</title>
<g id="a_node1"><a xlink:title=" ">
<polygon fill="#999999" stroke="#666666" points="338.5,-184 213.5,-184 213.5,-154 338.5,-154 338.5,-184"/>
<text text-anchor="start" x="221.5" y="-172" font-family="Helvetica,sans-Serif" font-size="10.00">lib/enterprise_business</text>
<text text-anchor="middle" x="276" y="-161" font-family="Helvetica,sans-Serif" font-size="10.00">_rules/string_helpers.hpp</text>
</a>
</g>
</g>
<!-- Node2 -->
<g id="node2" class="node">
<title>Node2</title>
<g id="a_node2"><a xlink:href="command__line__interpreter_8hpp.xhtml" target="_top" xlink:title=" ">
<polygon fill="white" stroke="#666666" points="195.5,-118 46.5,-118 46.5,-77 195.5,-77 195.5,-118"/>
<text text-anchor="start" x="54.5" y="-106" font-family="Helvetica,sans-Serif" font-size="10.00">lib/application_business</text>
<text text-anchor="start" x="54.5" y="-95" font-family="Helvetica,sans-Serif" font-size="10.00">_rules/serial_interface</text>
<text text-anchor="middle" x="121" y="-84" font-family="Helvetica,sans-Serif" font-size="10.00">/command_line_interpreter.hpp</text>
</a>
</g>
</g>
<!-- Node1&#45;&gt;Node2 -->
<g id="edge1" class="edge">
<title>Node1&#45;&gt;Node2</title>
<path fill="none" stroke="#63b8ff" d="M233.58,-148.98C212.42,-139.49 186.84,-128.02 165.42,-118.42"/>
<polygon fill="#63b8ff" stroke="#63b8ff" points="231.95,-152.08 242.5,-152.98 234.81,-145.7 231.95,-152.08"/>
</g>
<!-- Node5 -->
<g id="node5" class="node">
<title>Node5</title>
<g id="a_node5"><a xlink:href="string__helpers_8cpp.xhtml" target="_top" xlink:title=" ">
<polygon fill="white" stroke="#666666" points="338.5,-112.5 213.5,-112.5 213.5,-82.5 338.5,-82.5 338.5,-112.5"/>
<text text-anchor="start" x="221.5" y="-100.5" font-family="Helvetica,sans-Serif" font-size="10.00">lib/enterprise_business</text>
<text text-anchor="middle" x="276" y="-89.5" font-family="Helvetica,sans-Serif" font-size="10.00">_rules/string_helpers.cpp</text>
</a>
</g>
</g>
<!-- Node1&#45;&gt;Node5 -->
<g id="edge4" class="edge">
<title>Node1&#45;&gt;Node5</title>
<path fill="none" stroke="#63b8ff" d="M276,-142.26C276,-132.33 276,-121.36 276,-112.88"/>
<polygon fill="#63b8ff" stroke="#63b8ff" points="272.5,-142.09 276,-152.09 279.5,-142.09 272.5,-142.09"/>
</g>
<!-- Node6 -->
<g id="node6" class="node">
<title>Node6</title>
<g id="a_node6"><a xlink:href="test__string__helpers_8cpp.xhtml" target="_top" xlink:title=" ">
<polygon fill="white" stroke="#666666" points="477,-112.5 357,-112.5 357,-82.5 477,-82.5 477,-112.5"/>
<text text-anchor="start" x="365" y="-100.5" font-family="Helvetica,sans-Serif" font-size="10.00">test/test_string_helpers</text>
<text text-anchor="middle" x="417" y="-89.5" font-family="Helvetica,sans-Serif" font-size="10.00">/test_string_helpers.cpp</text>
</a>
</g>
</g>
<!-- Node1&#45;&gt;Node6 -->
<g id="edge5" class="edge">
<title>Node1&#45;&gt;Node6</title>
<path fill="none" stroke="#63b8ff" d="M315.34,-148.61C338.33,-137.28 366.85,-123.22 387.82,-112.88"/>
<polygon fill="#63b8ff" stroke="#63b8ff" points="314,-145.37 306.57,-152.93 317.09,-151.65 314,-145.37"/>
</g>
<!-- Node3 -->
<g id="node3" class="node">
<title>Node3</title>
<g id="a_node3"><a xlink:href="Protocol_8cpp.xhtml" target="_top" xlink:title=" ">
<polygon fill="white" stroke="#666666" points="120,-41 0,-41 0,0 120,0 120,-41"/>
<text text-anchor="start" x="8" y="-29" font-family="Helvetica,sans-Serif" font-size="10.00">lib/application_business</text>
<text text-anchor="start" x="8" y="-18" font-family="Helvetica,sans-Serif" font-size="10.00">_rules/serial_interface</text>
<text text-anchor="middle" x="60" y="-7" font-family="Helvetica,sans-Serif" font-size="10.00">/Protocol.cpp</text>
</a>
</g>
</g>
<!-- Node2&#45;&gt;Node3 -->
<g id="edge2" class="edge">
<title>Node2&#45;&gt;Node3</title>
<path fill="none" stroke="#63b8ff" d="M97.74,-67.9C90.53,-59.04 82.75,-49.47 76.13,-41.33"/>
<polygon fill="#63b8ff" stroke="#63b8ff" points="94.99,-70.07 104.02,-75.62 100.42,-65.65 94.99,-70.07"/>
</g>
<!-- Node4 -->
<g id="node4" class="node">
<title>Node4</title>
<g id="a_node4"><a xlink:href="test__cli_8cpp.xhtml" target="_top" xlink:title=" ">
<polygon fill="white" stroke="#666666" points="225.5,-35.5 138.5,-35.5 138.5,-5.5 225.5,-5.5 225.5,-35.5"/>
<text text-anchor="start" x="146.5" y="-23.5" font-family="Helvetica,sans-Serif" font-size="10.00">test/test_cli/test</text>
<text text-anchor="middle" x="182" y="-12.5" font-family="Helvetica,sans-Serif" font-size="10.00">_cli.cpp</text>
</a>
</g>
</g>
<!-- Node2&#45;&gt;Node4 -->
<g id="edge3" class="edge">
<title>Node2&#45;&gt;Node4</title>
<path fill="none" stroke="#63b8ff" d="M144.24,-67.93C153.15,-56.97 162.94,-44.93 170.32,-35.86"/>
<polygon fill="#63b8ff" stroke="#63b8ff" points="141.58,-65.65 137.98,-75.62 147.01,-70.07 141.58,-65.65"/>
</g>
</g>
</svg>
