<?xml version="1.0" encoding="UTF-8" standalone="no"?>
<!DOCTYPE svg PUBLIC "-//W3C//DTD SVG 1.1//EN"
 "http://www.w3.org/Graphics/SVG/1.1/DTD/svg11.dtd">
<!-- Generated by graphviz version 7.0.5 (20221223.1930)
 -->
<!-- Title: command_line_interpreter::Command&lt; CharType, ReturnType, ArgTypes &gt; Pages: 1 -->
<svg width="430pt" height="313pt"
 viewBox="0.00 0.00 430.00 313.00" xmlns="http://www.w3.org/2000/svg" xmlns:xlink="http://www.w3.org/1999/xlink">
<g id="graph0" class="graph" transform="scale(1 1) rotate(0) translate(4 309)">
<title>command_line_interpreter::Command&lt; CharType, ReturnType, ArgTypes &gt;</title>
<!-- Node1 -->
<g id="node1" class="node">
<title>Node1</title>
<g id="a_node1"><a xlink:title="Combines a command with a function.">
<polygon fill="#999999" stroke="#666666" points="314.5,-96 141.5,-96 141.5,0 314.5,0 314.5,-96"/>
<text text-anchor="start" x="149.5" y="-84" font-family="Helvetica,sans-Serif" font-size="10.00">{command_line_interpreter</text>
<text text-anchor="start" x="149.5" y="-73" font-family="Helvetica,sans-Serif" font-size="10.00">::Command&lt; CharType, ReturnType,</text>
<text text-anchor="middle" x="228" y="-62" font-family="Helvetica,sans-Serif" font-size="10.00"> ArgTypes &gt;</text>
<text text-anchor="start" x="149.5" y="-51" font-family="Helvetica,sans-Serif" font-size="10.00">||+ execute()</text>
<text text-anchor="start" x="149.5" y="-40" font-family="Helvetica,sans-Serif" font-size="10.00">+ execute()</text>
<text text-anchor="start" x="149.5" y="-29" font-family="Helvetica,sans-Serif" font-size="10.00">+ generateHelpMessage()</text>
<text text-anchor="start" x="149.5" y="-18" font-family="Helvetica,sans-Serif" font-size="10.00">+ Command()</text>
<text text-anchor="middle" x="228" y="-7" font-family="Helvetica,sans-Serif" font-size="10.00">}</text>
</a>
</g>
</g>
<!-- Node2 -->
<g id="node2" class="node">
<title>Node2</title>
<g id="a_node2"><a xlink:href="structcommand__line__interpreter_1_1BaseCommand.xhtml" target="_top" xlink:title="Interface for all Command.">
<polygon fill="white" stroke="#666666" points="146,-228 0,-228 0,-143 146,-143 146,-228"/>
<text text-anchor="start" x="8" y="-216" font-family="Helvetica,sans-Serif" font-size="10.00">{command_line_interpreter</text>
<text text-anchor="middle" x="73" y="-205" font-family="Helvetica,sans-Serif" font-size="10.00">::BaseCommand&lt; CharType &gt;</text>
<text text-anchor="start" x="8" y="-194" font-family="Helvetica,sans-Serif" font-size="10.00">||+ BaseCommand()</text>
<text text-anchor="start" x="8" y="-183" font-family="Helvetica,sans-Serif" font-size="10.00">+ execute()</text>
<text text-anchor="start" x="8" y="-172" font-family="Helvetica,sans-Serif" font-size="10.00">+ generateHelpMessage()</text>
<text text-anchor="start" x="8" y="-161" font-family="Helvetica,sans-Serif" font-size="10.00">+ ~BaseCommand()</text>
<text text-anchor="middle" x="73" y="-150" font-family="Helvetica,sans-Serif" font-size="10.00">}</text>
</a>
</g>
</g>
<!-- Node2&#45;&gt;Node1 -->
<g id="edge1" class="edge">
<title>Node2&#45;&gt;Node1</title>
<path fill="none" stroke="#63b8ff" d="M129.2,-135.37C143.77,-122.63 159.43,-108.94 173.89,-96.3"/>
<polygon fill="none" stroke="#63b8ff" points="127.13,-132.53 121.91,-141.74 131.74,-137.8 127.13,-132.53"/>
</g>
<!-- Node3 -->
<g id="node3" class="node">
<title>Node3</title>
<g id="a_node3"><a xlink:title=" ">
<polygon fill="white" stroke="#666666" points="112,-305 34,-305 34,-275 112,-275 112,-305"/>
<text text-anchor="middle" x="73" y="-293" font-family="Helvetica,sans-Serif" font-size="10.00">{const CharT *</text>
<text text-anchor="middle" x="73" y="-282" font-family="Helvetica,sans-Serif" font-size="10.00">||}</text>
</a>
</g>
</g>
<!-- Node3&#45;&gt;Node2 -->
<g id="edge2" class="edge">
<title>Node3&#45;&gt;Node2</title>
<path fill="none" stroke="#404040" d="M73,-274.75C73,-265.77 73,-253.54 73,-241.05"/>
<polygon fill="none" stroke="#404040" points="73,-240.96 69,-234.96 73,-228.96 77,-234.96 73,-240.96"/>
<text text-anchor="middle" x="112" y="-249" font-family="Helvetica,sans-Serif" font-size="10.00"> +commandName</text>
</g>
<!-- Node4 -->
<g id="node4" class="node">
<title>Node4</title>
<g id="a_node4"><a xlink:title=" ">
<polygon fill="white" stroke="#666666" points="291.5,-211.5 164.5,-211.5 164.5,-159.5 291.5,-159.5 291.5,-211.5"/>
<text text-anchor="start" x="172.5" y="-199.5" font-family="Helvetica,sans-Serif" font-size="10.00">{tuple&lt; const command</text>
<text text-anchor="start" x="172.5" y="-188.5" font-family="Helvetica,sans-Serif" font-size="10.00">_line_interpreter::Option</text>
<text text-anchor="middle" x="228" y="-177.5" font-family="Helvetica,sans-Serif" font-size="10.00">&lt; ArgTypes, CharT &gt; *... &gt;</text>
<text text-anchor="middle" x="228" y="-166.5" font-family="Helvetica,sans-Serif" font-size="10.00">||}</text>
</a>
</g>
</g>
<!-- Node4&#45;&gt;Node1 -->
<g id="edge3" class="edge">
<title>Node4&#45;&gt;Node1</title>
<path fill="none" stroke="#404040" d="M228,-159.01C228,-144.89 228,-126.7 228,-109.18"/>
<polygon fill="none" stroke="#404040" points="228,-109.21 224,-103.21 228,-97.21 232,-103.21 228,-109.21"/>
<text text-anchor="middle" x="248" y="-117" font-family="Helvetica,sans-Serif" font-size="10.00"> +options</text>
</g>
<!-- Node5 -->
<g id="node5" class="node">
<title>Node5</title>
<g id="a_node5"><a xlink:title=" ">
<polygon fill="white" stroke="#666666" points="422,-206 310,-206 310,-165 422,-165 422,-206"/>
<text text-anchor="start" x="318" y="-194" font-family="Helvetica,sans-Serif" font-size="10.00">{function&lt; ReturnType</text>
<text text-anchor="middle" x="366" y="-183" font-family="Helvetica,sans-Serif" font-size="10.00">(ArgTypes...)&gt;</text>
<text text-anchor="middle" x="366" y="-172" font-family="Helvetica,sans-Serif" font-size="10.00">||}</text>
</a>
</g>
</g>
<!-- Node5&#45;&gt;Node1 -->
<g id="edge4" class="edge">
<title>Node5&#45;&gt;Node1</title>
<path fill="none" stroke="#404040" d="M345.64,-164.51C329.7,-148.85 306.71,-126.28 285.27,-105.24"/>
<polygon fill="none" stroke="#404040" points="285.41,-105.37 278.33,-104.02 276.85,-96.97 283.94,-98.32 285.41,-105.37"/>
<text text-anchor="middle" x="325" y="-117" font-family="Helvetica,sans-Serif" font-size="10.00"> +handler</text>
</g>
</g>
</svg>
