<?xml version="1.0" encoding="UTF-8" standalone="no"?>
<!DOCTYPE svg PUBLIC "-//W3C//DTD SVG 1.1//EN"
 "http://www.w3.org/Graphics/SVG/1.1/DTD/svg11.dtd">
<!-- Generated by graphviz version 9.0.0 (20230911.1827)
 -->
<!-- Title: Display::Configuration Pages: 1 -->
<svg width="287pt" height="176pt"
 viewBox="0.00 0.00 286.75 175.75" xmlns="http://www.w3.org/2000/svg" xmlns:xlink="http://www.w3.org/1999/xlink">
<g id="graph0" class="graph" transform="scale(1 1) rotate(0) translate(4 171.75)">
<title>Display::Configuration</title>
<!-- Node1 -->
<g id="Node000001" class="node">
<title>Node1</title>
<g id="a_Node000001"><a xlink:title=" ">
<polygon fill="#999999" stroke="none" points="129.5,-49 27.5,-49 27.5,0 129.5,0 129.5,-49"/>
<text text-anchor="start" x="32.38" y="-35.5" font-family="Helvetica,sans-Serif" font-size="10.00">Display::Configuration</text>
<text text-anchor="start" x="77" y="-20.5" font-family="Helvetica,sans-Serif" font-size="10.00"> </text>
<text text-anchor="start" x="77" y="-5.5" font-family="Helvetica,sans-Serif" font-size="10.00"> </text>
<polygon fill="#666666" stroke="#666666" points="27.5,-32 27.5,-32 129.5,-32 129.5,-32 27.5,-32"/>
<polygon fill="#666666" stroke="#666666" points="27.5,-17 27.5,-17 129.5,-17 129.5,-17 27.5,-17"/>
<polygon fill="none" stroke="#666666" points="27.5,0 27.5,-49 129.5,-49 129.5,0 27.5,0"/>
</a>
</g>
</g>
<!-- Node2 -->
<g id="Node000002" class="node">
<title>Node2</title>
<g id="a_Node000002"><a xlink:title=" ">
<polygon fill="white" stroke="none" points="39,-167.75 0,-167.75 0,-118.75 39,-118.75 39,-167.75"/>
<text text-anchor="start" x="4.88" y="-154.25" font-family="Helvetica,sans-Serif" font-size="10.00">uint8_t</text>
<text text-anchor="start" x="18" y="-139.25" font-family="Helvetica,sans-Serif" font-size="10.00"> </text>
<text text-anchor="start" x="18" y="-124.25" font-family="Helvetica,sans-Serif" font-size="10.00"> </text>
<polygon fill="#666666" stroke="#666666" points="0,-150.75 0,-150.75 39,-150.75 39,-150.75 0,-150.75"/>
<polygon fill="#666666" stroke="#666666" points="0,-135.75 0,-135.75 39,-135.75 39,-135.75 0,-135.75"/>
<polygon fill="none" stroke="#666666" points="0,-118.75 0,-167.75 39,-167.75 39,-118.75 0,-118.75"/>
</a>
</g>
</g>
<!-- Node2&#45;&gt;Node1 -->
<g id="edge1_Node000001_Node000002" class="edge">
<title>Node2&#45;&gt;Node1</title>
<g id="a_edge1_Node000001_Node000002"><a xlink:title=" ">
<path fill="none" stroke="#63b8ff" d="M14.57,-118.87C12.51,-103.3 12.21,-82.86 20.5,-67 22.14,-63.87 24.13,-60.92 26.38,-58.15"/>
<polygon fill="none" stroke="#63b8ff" points="26.42,-58.11 27.78,-51.02 34.84,-49.55 33.48,-56.63 26.42,-58.11"/>
</a>
</g>
<text text-anchor="middle" x="68.5" y="-91.25" font-family="Helvetica,sans-Serif" font-size="10.00" fill="grey"> +display_i2c_address</text>
<text text-anchor="middle" x="68.5" y="-80" font-family="Helvetica,sans-Serif" font-size="10.00" fill="grey">+screen_height</text>
<text text-anchor="middle" x="68.5" y="-68.75" font-family="Helvetica,sans-Serif" font-size="10.00" fill="grey">+screen_width</text>
</g>
<!-- Node3 -->
<g id="Node000003" class="node">
<title>Node3</title>
<g id="a_Node000003"><a xlink:title=" ">
<polygon fill="white" stroke="none" points="152.5,-167.75 124.5,-167.75 124.5,-118.75 152.5,-118.75 152.5,-167.75"/>
<text text-anchor="start" x="129.5" y="-154.25" font-family="Helvetica,sans-Serif" font-size="10.00">bool</text>
<text text-anchor="start" x="137" y="-139.25" font-family="Helvetica,sans-Serif" font-size="10.00"> </text>
<text text-anchor="start" x="137" y="-124.25" font-family="Helvetica,sans-Serif" font-size="10.00"> </text>
<polygon fill="#666666" stroke="#666666" points="124.5,-150.75 124.5,-150.75 152.5,-150.75 152.5,-150.75 124.5,-150.75"/>
<polygon fill="#666666" stroke="#666666" points="124.5,-135.75 124.5,-135.75 152.5,-135.75 152.5,-135.75 124.5,-135.75"/>
<polygon fill="none" stroke="#666666" points="124.5,-118.75 124.5,-167.75 152.5,-167.75 152.5,-118.75 124.5,-118.75"/>
</a>
</g>
</g>
<!-- Node3&#45;&gt;Node1 -->
<g id="edge2_Node000001_Node000003" class="edge">
<title>Node3&#45;&gt;Node1</title>
<g id="a_edge2_Node000001_Node000003"><a xlink:title=" ">
<path fill="none" stroke="#63b8ff" d="M134.52,-118.78C131.23,-103.36 125.58,-83.13 116.5,-67 114.91,-64.17 113.09,-61.37 111.12,-58.65"/>
<polygon fill="none" stroke="#63b8ff" points="111.13,-58.66 104.25,-56.49 103.6,-49.31 110.48,-51.47 111.13,-58.66"/>
</a>
</g>
<text text-anchor="middle" x="204.12" y="-80" font-family="Helvetica,sans-Serif" font-size="10.00" fill="grey"> +generateDisplayVoltageInternally</text>
</g>
</g>
</svg>
