<?xml version="1.0" encoding="UTF-8" standalone="no"?>
<!DOCTYPE svg PUBLIC "-//W3C//DTD SVG 1.1//EN"
 "http://www.w3.org/Graphics/SVG/1.1/DTD/svg11.dtd">
<!-- Generated by graphviz version 7.0.5 (20221223.1930)
 -->
<!-- Title: command_line_interpreter::BaseCommand&lt; CharType &gt; Pages: 1 -->
<svg width="159pt" height="170pt"
 viewBox="0.00 0.00 159.00 170.00" xmlns="http://www.w3.org/2000/svg" xmlns:xlink="http://www.w3.org/1999/xlink">
<g id="graph0" class="graph" transform="scale(1 1) rotate(0) translate(4 166)">
<title>command_line_interpreter::BaseCommand&lt; CharType &gt;</title>
<!-- Node1 -->
<g id="node1" class="node">
<title>Node1</title>
<g id="a_node1"><a xlink:title="Interface for all Command.">
<polygon fill="#999999" stroke="#666666" points="146,-85 0,-85 0,0 146,0 146,-85"/>
<text text-anchor="start" x="8" y="-73" font-family="Helvetica,sans-Serif" font-size="10.00">{command_line_interpreter</text>
<text text-anchor="middle" x="73" y="-62" font-family="Helvetica,sans-Serif" font-size="10.00">::BaseCommand&lt; CharType &gt;</text>
<text text-anchor="start" x="8" y="-51" font-family="Helvetica,sans-Serif" font-size="10.00">||+ BaseCommand()</text>
<text text-anchor="start" x="8" y="-40" font-family="Helvetica,sans-Serif" font-size="10.00">+ execute()</text>
<text text-anchor="start" x="8" y="-29" font-family="Helvetica,sans-Serif" font-size="10.00">+ generateHelpMessage()</text>
<text text-anchor="start" x="8" y="-18" font-family="Helvetica,sans-Serif" font-size="10.00">+ ~BaseCommand()</text>
<text text-anchor="middle" x="73" y="-7" font-family="Helvetica,sans-Serif" font-size="10.00">}</text>
</a>
</g>
</g>
<!-- Node2 -->
<g id="node2" class="node">
<title>Node2</title>
<g id="a_node2"><a xlink:title=" ">
<polygon fill="white" stroke="#666666" points="112,-162 34,-162 34,-132 112,-132 112,-162"/>
<text text-anchor="middle" x="73" y="-150" font-family="Helvetica,sans-Serif" font-size="10.00">{const CharT *</text>
<text text-anchor="middle" x="73" y="-139" font-family="Helvetica,sans-Serif" font-size="10.00">||}</text>
</a>
</g>
</g>
<!-- Node2&#45;&gt;Node1 -->
<g id="edge1" class="edge">
<title>Node2&#45;&gt;Node1</title>
<path fill="none" stroke="#404040" d="M73,-131.75C73,-122.77 73,-110.54 73,-98.05"/>
<polygon fill="none" stroke="#404040" points="73,-97.96 69,-91.96 73,-85.96 77,-91.96 73,-97.96"/>
<text text-anchor="middle" x="112" y="-106" font-family="Helvetica,sans-Serif" font-size="10.00"> +commandName</text>
</g>
</g>
</svg>
