<?xml version="1.0" encoding="UTF-8" standalone="no"?>
<!DOCTYPE svg PUBLIC "-//W3C//DTD SVG 1.1//EN"
 "http://www.w3.org/Graphics/SVG/1.1/DTD/svg11.dtd">
<!-- Generated by graphviz version 7.0.5 (20221223.1930)
 -->
<!-- Title: test/test_tasks/task.cpp Pages: 1 -->
<svg width="228pt" height="137pt"
 viewBox="0.00 0.00 228.00 137.00" xmlns="http://www.w3.org/2000/svg" xmlns:xlink="http://www.w3.org/1999/xlink">
<g id="graph0" class="graph" transform="scale(1 1) rotate(0) translate(4 133)">
<title>test/test_tasks/task.cpp</title>
<!-- Node1 -->
<g id="node1" class="node">
<title>Node1</title>
<g id="a_node1"><a xlink:title=" ">
<polygon fill="#999999" stroke="#666666" points="197,-129 75,-129 75,-110 197,-110 197,-129"/>
<text text-anchor="middle" x="136" y="-117" font-family="Helvetica,sans-Serif" font-size="10.00">test/test_tasks/task.cpp</text>
</a>
</g>
</g>
<!-- Node2 -->
<g id="node2" class="node">
<title>Node2</title>
<g id="a_node2"><a xlink:href="Task_8hpp.xhtml" target="_top" xlink:title=" ">
<polygon fill="white" stroke="#666666" points="95.5,-74 12.5,-74 12.5,-55 95.5,-55 95.5,-74"/>
<text text-anchor="middle" x="54" y="-62" font-family="Helvetica,sans-Serif" font-size="10.00">tasks/Task.hpp</text>
</a>
</g>
</g>
<!-- Node1&#45;&gt;Node2 -->
<g id="edge1" class="edge">
<title>Node1&#45;&gt;Node2</title>
<path fill="none" stroke="#63b8ff" d="M122.09,-109.51C109.76,-101.54 91.53,-89.75 77.03,-80.38"/>
<polygon fill="#63b8ff" stroke="#63b8ff" points="79.27,-77.67 68.98,-75.18 75.47,-83.55 79.27,-77.67"/>
</g>
<!-- Node5 -->
<g id="node5" class="node">
<title>Node5</title>
<g id="a_node5"><a xlink:title=" ">
<polygon fill="#e0e0e0" stroke="#999999" points="158,-74 114,-74 114,-55 158,-55 158,-74"/>
<text text-anchor="middle" x="136" y="-62" font-family="Helvetica,sans-Serif" font-size="10.00">thread</text>
</a>
</g>
</g>
<!-- Node1&#45;&gt;Node5 -->
<g id="edge4" class="edge">
<title>Node1&#45;&gt;Node5</title>
<path fill="none" stroke="#63b8ff" d="M136,-109.75C136,-103.27 136,-94.16 136,-85.9"/>
<polygon fill="#63b8ff" stroke="#63b8ff" points="139.5,-85.96 136,-75.96 132.5,-85.96 139.5,-85.96"/>
</g>
<!-- Node6 -->
<g id="node6" class="node">
<title>Node6</title>
<g id="a_node6"><a xlink:title=" ">
<polygon fill="#e0e0e0" stroke="#999999" points="220,-74 176,-74 176,-55 220,-55 220,-74"/>
<text text-anchor="middle" x="198" y="-62" font-family="Helvetica,sans-Serif" font-size="10.00">unity.h</text>
</a>
</g>
</g>
<!-- Node1&#45;&gt;Node6 -->
<g id="edge5" class="edge">
<title>Node1&#45;&gt;Node6</title>
<path fill="none" stroke="#63b8ff" d="M146.52,-109.51C155.39,-101.93 168.31,-90.88 178.99,-81.75"/>
<polygon fill="#63b8ff" stroke="#63b8ff" points="181.16,-84.5 186.49,-75.34 176.61,-79.18 181.16,-84.5"/>
</g>
<!-- Node3 -->
<g id="node3" class="node">
<title>Node3</title>
<g id="a_node3"><a xlink:title=" ">
<polygon fill="#e0e0e0" stroke="#999999" points="46,-19 0,-19 0,0 46,0 46,-19"/>
<text text-anchor="middle" x="23" y="-7" font-family="Helvetica,sans-Serif" font-size="10.00">chrono</text>
</a>
</g>
</g>
<!-- Node2&#45;&gt;Node3 -->
<g id="edge2" class="edge">
<title>Node2&#45;&gt;Node3</title>
<path fill="none" stroke="#63b8ff" d="M48.88,-54.75C44.82,-47.81 39.01,-37.86 33.91,-29.16"/>
<polygon fill="#63b8ff" stroke="#63b8ff" points="37.06,-27.61 28.99,-20.75 31.02,-31.15 37.06,-27.61"/>
</g>
<!-- Node4 -->
<g id="node4" class="node">
<title>Node4</title>
<g id="a_node4"><a xlink:title=" ">
<polygon fill="#e0e0e0" stroke="#999999" points="105.5,-19 64.5,-19 64.5,0 105.5,0 105.5,-19"/>
<text text-anchor="middle" x="85" y="-7" font-family="Helvetica,sans-Serif" font-size="10.00">string</text>
</a>
</g>
</g>
<!-- Node2&#45;&gt;Node4 -->
<g id="edge3" class="edge">
<title>Node2&#45;&gt;Node4</title>
<path fill="none" stroke="#63b8ff" d="M59.12,-54.75C63.18,-47.81 68.99,-37.86 74.09,-29.16"/>
<polygon fill="#63b8ff" stroke="#63b8ff" points="76.98,-31.15 79.01,-20.75 70.94,-27.61 76.98,-31.15"/>
</g>
</g>
</svg>
