<?xml version="1.0" encoding="UTF-8" standalone="no"?>
<!DOCTYPE svg PUBLIC "-//W3C//DTD SVG 1.1//EN"
 "http://www.w3.org/Graphics/SVG/1.1/DTD/svg11.dtd">
<!-- Generated by graphviz version 7.0.5 (20221223.1930)
 -->
<!-- Title: lib/application_business_rules/tasks/Task.hpp Pages: 1 -->
<svg width="608pt" height="115pt"
 viewBox="0.00 0.00 608.00 115.00" xmlns="http://www.w3.org/2000/svg" xmlns:xlink="http://www.w3.org/1999/xlink">
<g id="graph0" class="graph" transform="scale(1 1) rotate(0) translate(4 111)">
<title>lib/application_business_rules/tasks/Task.hpp</title>
<!-- Node1 -->
<g id="node1" class="node">
<title>Node1</title>
<g id="a_node1"><a xlink:title=" ">
<polygon fill="#999999" stroke="#666666" points="372,-107 252,-107 252,-77 372,-77 372,-107"/>
<text text-anchor="start" x="260" y="-95" font-family="Helvetica,sans-Serif" font-size="10.00">lib/application_business</text>
<text text-anchor="middle" x="312" y="-84" font-family="Helvetica,sans-Serif" font-size="10.00">_rules/tasks/Task.hpp</text>
</a>
</g>
</g>
<!-- Node2 -->
<g id="node2" class="node">
<title>Node2</title>
<g id="a_node2"><a xlink:href="Task_8cpp.xhtml" target="_top" xlink:title=" ">
<polygon fill="white" stroke="#666666" points="120,-35.5 0,-35.5 0,-5.5 120,-5.5 120,-35.5"/>
<text text-anchor="start" x="8" y="-23.5" font-family="Helvetica,sans-Serif" font-size="10.00">lib/application_business</text>
<text text-anchor="middle" x="60" y="-12.5" font-family="Helvetica,sans-Serif" font-size="10.00">_rules/tasks/Task.cpp</text>
</a>
</g>
</g>
<!-- Node1&#45;&gt;Node2 -->
<g id="edge1" class="edge">
<title>Node1&#45;&gt;Node2</title>
<path fill="none" stroke="#63b8ff" d="M247.66,-73.57C212.56,-64.02 168.37,-51.94 129,-41 123.12,-39.37 116.97,-37.64 110.86,-35.93"/>
<polygon fill="#63b8ff" stroke="#63b8ff" points="246.69,-76.93 257.25,-76.18 248.52,-70.18 246.69,-76.93"/>
</g>
<!-- Node3 -->
<g id="node3" class="node">
<title>Node3</title>
<g id="a_node3"><a xlink:href="ProcessHmiInputs_8cpp.xhtml" target="_top" xlink:title=" ">
<polygon fill="white" stroke="#666666" points="258,-41 138,-41 138,0 258,0 258,-41"/>
<text text-anchor="start" x="146" y="-29" font-family="Helvetica,sans-Serif" font-size="10.00">lib/application_business</text>
<text text-anchor="start" x="146" y="-18" font-family="Helvetica,sans-Serif" font-size="10.00">_rules/user_interaction</text>
<text text-anchor="middle" x="198" y="-7" font-family="Helvetica,sans-Serif" font-size="10.00">/ProcessHmiInputs.cpp</text>
</a>
</g>
</g>
<!-- Node1&#45;&gt;Node3 -->
<g id="edge2" class="edge">
<title>Node1&#45;&gt;Node3</title>
<path fill="none" stroke="#63b8ff" d="M278.87,-70.8C263.7,-61.55 245.78,-50.63 230.67,-41.42"/>
<polygon fill="#63b8ff" stroke="#63b8ff" points="276.73,-73.59 287.09,-75.81 280.37,-67.62 276.73,-73.59"/>
</g>
<!-- Node4 -->
<g id="node4" class="node">
<title>Node4</title>
<g id="a_node4"><a xlink:href="main_8cpp.xhtml" target="_top" xlink:title=" ">
<polygon fill="white" stroke="#666666" points="348,-30 276,-30 276,-11 348,-11 348,-30"/>
<text text-anchor="middle" x="312" y="-18" font-family="Helvetica,sans-Serif" font-size="10.00">src/main.cpp</text>
</a>
</g>
</g>
<!-- Node1&#45;&gt;Node4 -->
<g id="edge3" class="edge">
<title>Node1&#45;&gt;Node4</title>
<path fill="none" stroke="#63b8ff" d="M312,-65.46C312,-53.07 312,-38.99 312,-30.18"/>
<polygon fill="#63b8ff" stroke="#63b8ff" points="308.5,-65.09 312,-75.09 315.5,-65.09 308.5,-65.09"/>
</g>
<!-- Node5 -->
<g id="node5" class="node">
<title>Node5</title>
<g id="a_node5"><a xlink:href="test__hmi_8cpp.xhtml" target="_top" xlink:title=" ">
<polygon fill="white" stroke="#666666" points="459.5,-35.5 366.5,-35.5 366.5,-5.5 459.5,-5.5 459.5,-35.5"/>
<text text-anchor="start" x="374.5" y="-23.5" font-family="Helvetica,sans-Serif" font-size="10.00">test/test_hmi/test</text>
<text text-anchor="middle" x="413" y="-12.5" font-family="Helvetica,sans-Serif" font-size="10.00">_hmi.cpp</text>
</a>
</g>
</g>
<!-- Node1&#45;&gt;Node5 -->
<g id="edge4" class="edge">
<title>Node1&#45;&gt;Node5</title>
<path fill="none" stroke="#63b8ff" d="M341.98,-70.37C358.11,-59.27 377.62,-45.85 392.1,-35.88"/>
<polygon fill="#63b8ff" stroke="#63b8ff" points="340.43,-67.19 334.17,-75.74 344.4,-72.96 340.43,-67.19"/>
</g>
<!-- Node6 -->
<g id="node6" class="node">
<title>Node6</title>
<g id="a_node6"><a xlink:href="task_8cpp.xhtml" target="_top" xlink:title=" ">
<polygon fill="white" stroke="#666666" points="600,-30 478,-30 478,-11 600,-11 600,-30"/>
<text text-anchor="middle" x="539" y="-18" font-family="Helvetica,sans-Serif" font-size="10.00">test/test_tasks/task.cpp</text>
</a>
</g>
</g>
<!-- Node1&#45;&gt;Node6 -->
<g id="edge5" class="edge">
<title>Node1&#45;&gt;Node6</title>
<path fill="none" stroke="#63b8ff" d="M370.31,-73.15C414.95,-59.48 474.65,-41.2 509.75,-30.46"/>
<polygon fill="#63b8ff" stroke="#63b8ff" points="369.29,-69.8 360.76,-76.07 371.34,-76.49 369.29,-69.8"/>
</g>
</g>
</svg>
