<?xml version="1.0" encoding="UTF-8" standalone="no"?>
<!DOCTYPE svg PUBLIC "-//W3C//DTD SVG 1.1//EN"
 "http://www.w3.org/Graphics/SVG/1.1/DTD/svg11.dtd">
<!-- Generated by graphviz version 7.0.5 (20221223.1930)
 -->
<!-- Title: lib/application_business_rules/tasks/Task.hpp Pages: 1 -->
<svg width="268pt" height="104pt"
 viewBox="0.00 0.00 268.00 104.00" xmlns="http://www.w3.org/2000/svg" xmlns:xlink="http://www.w3.org/1999/xlink">
<g id="graph0" class="graph" transform="scale(1 1) rotate(0) translate(4 100)">
<title>lib/application_business_rules/tasks/Task.hpp</title>
<!-- Node1 -->
<g id="node1" class="node">
<title>Node1</title>
<g id="a_node1"><a xlink:title=" ">
<polygon fill="#999999" stroke="#666666" points="189,-96 69,-96 69,-66 189,-66 189,-96"/>
<text text-anchor="start" x="77" y="-84" font-family="Helvetica,sans-Serif" font-size="10.00">lib/application_business</text>
<text text-anchor="middle" x="129" y="-73" font-family="Helvetica,sans-Serif" font-size="10.00">_rules/tasks/Task.hpp</text>
</a>
</g>
</g>
<!-- Node2 -->
<g id="node2" class="node">
<title>Node2</title>
<g id="a_node2"><a xlink:href="Task_8cpp.xhtml" target="_top" xlink:title=" ">
<polygon fill="white" stroke="#666666" points="120,-30 0,-30 0,0 120,0 120,-30"/>
<text text-anchor="start" x="8" y="-18" font-family="Helvetica,sans-Serif" font-size="10.00">lib/application_business</text>
<text text-anchor="middle" x="60" y="-7" font-family="Helvetica,sans-Serif" font-size="10.00">_rules/tasks/Task.cpp</text>
</a>
</g>
</g>
<!-- Node1&#45;&gt;Node2 -->
<g id="edge1" class="edge">
<title>Node1&#45;&gt;Node2</title>
<path fill="none" stroke="#63b8ff" d="M105.38,-58.09C95.41,-48.85 84.11,-38.36 75.27,-30.16"/>
<polygon fill="#63b8ff" stroke="#63b8ff" points="102.87,-60.53 112.58,-64.77 107.63,-55.4 102.87,-60.53"/>
</g>
<!-- Node3 -->
<g id="node3" class="node">
<title>Node3</title>
<g id="a_node3"><a xlink:href="task_8cpp.xhtml" target="_top" xlink:title=" ">
<polygon fill="white" stroke="#666666" points="260,-24.5 138,-24.5 138,-5.5 260,-5.5 260,-24.5"/>
<text text-anchor="middle" x="199" y="-12.5" font-family="Helvetica,sans-Serif" font-size="10.00">test/test_tasks/task.cpp</text>
</a>
</g>
</g>
<!-- Node1&#45;&gt;Node3 -->
<g id="edge2" class="edge">
<title>Node1&#45;&gt;Node3</title>
<path fill="none" stroke="#63b8ff" d="M152.76,-58.27C165.27,-46.84 179.92,-33.44 189.33,-24.84"/>
<polygon fill="#63b8ff" stroke="#63b8ff" points="150.67,-55.44 145.65,-64.78 155.39,-60.61 150.67,-55.44"/>
</g>
</g>
</svg>
