<?xml version="1.0" encoding="UTF-8" standalone="no"?>
<!DOCTYPE svg PUBLIC "-//W3C//DTD SVG 1.1//EN"
 "http://www.w3.org/Graphics/SVG/1.1/DTD/svg11.dtd">
<!-- Generated by graphviz version 7.0.5 (20221223.1930)
 -->
<!-- Title: component_architecture Pages: 1 -->
<svg width="544pt" height="554pt"
 viewBox="0.00 0.00 544.00 554.00" xmlns="http://www.w3.org/2000/svg" xmlns:xlink="http://www.w3.org/1999/xlink">
<g id="graph0" class="graph" transform="scale(1 1) rotate(0) translate(4 550)">
<title>component_architecture</title>
<polygon fill="white" stroke="none" points="-4,4 -4,-550 540,-550 540,4 -4,4"/>
<g id="clust2" class="cluster">
<title>cluster_app</title>
<polygon fill="none" stroke="black" stroke-width="2" points="206,-266 206,-455 520.5,-455 520.5,-266 206,-266"/>
<text text-anchor="middle" x="363.25" y="-439.8" font-family="Times,serif" font-size="14.00">application business rules</text>
</g>
<g id="clust4" class="cluster">
<title>cluster_ebr</title>
<polygon fill="none" stroke="black" stroke-width="2" points="198,-463 198,-538 347,-538 347,-463 198,-463"/>
<text text-anchor="middle" x="272.5" y="-522.8" font-family="Times,serif" font-size="14.00">enterprise business rules</text>
</g>
<g id="clust6" class="cluster">
<title>cluster_thirdparty</title>
<polygon fill="none" stroke="black" stroke-width="2" stroke-dasharray="5,2" points="8,-56 8,-153 311.5,-153 311.5,-56 8,-56"/>
<text text-anchor="middle" x="159.75" y="-137.8" font-family="Times,serif" font-size="14.00">frameworks and libraries</text>
</g>
<g id="clust9" class="cluster">
<title>cluster_ia</title>
<polygon fill="none" stroke="black" stroke-width="2" points="388.5,-98 388.5,-173 514.5,-173 514.5,-98 388.5,-98"/>
<text text-anchor="middle" x="451.5" y="-157.8" font-family="Times,serif" font-size="14.00">interface adapters</text>
</g>
<g id="clust11" class="cluster">
<title>cluster_board</title>
<polygon fill="none" stroke="black" stroke-width="2" points="208.5,-181 208.5,-258 528,-258 528,-181 208.5,-181"/>
<text text-anchor="middle" x="368.25" y="-242.8" font-family="Times,serif" font-size="14.00">board adapters</text>
</g>
<g id="clust7" class="cluster">
<title>clusterX_margin</title>
</g>
<!-- output_boundaries -->
<g id="node1" class="node">
<title>output_boundaries</title>
<polygon fill="#b3cde3" stroke="black" points="332,-424 214,-424 214,-420 210,-420 210,-416 214,-416 214,-394 210,-394 210,-390 214,-390 214,-386 332,-386 332,-424"/>
<polyline fill="none" stroke="black" points="214,-420 218,-420 218,-416 214,-416"/>
<polyline fill="none" stroke="black" points="214,-394 218,-394 218,-390 214,-390"/>
<text text-anchor="middle" x="273" y="-408.8" font-family="Times,serif" font-size="14.00">«interface»</text>
<text text-anchor="middle" x="273" y="-393.8" font-family="Times,serif" font-size="14.00"> output boundaries</text>
</g>
<!-- use_cases -->
<g id="node2" class="node">
<title>use_cases</title>
<polygon fill="#b3cde3" stroke="black" points="512.5,-395 390.5,-395 390.5,-391 386.5,-391 386.5,-387 390.5,-387 390.5,-367 386.5,-367 386.5,-363 390.5,-363 390.5,-359 512.5,-359 512.5,-395"/>
<polyline fill="none" stroke="black" points="390.5,-391 394.5,-391 394.5,-387 390.5,-387"/>
<polyline fill="none" stroke="black" points="390.5,-367 394.5,-367 394.5,-363 390.5,-363"/>
<text text-anchor="middle" x="451.5" y="-373.3" font-family="Times,serif" font-size="14.00">use case interactors</text>
</g>
<!-- use_cases&#45;&gt;output_boundaries -->
<g id="edge3" class="edge">
<title>use_cases&#45;&gt;output_boundaries</title>
<path fill="none" stroke="black" stroke-dasharray="5,2" d="M390.25,-386.56C374.79,-389.01 358.04,-391.67 342.21,-394.18"/>
<polygon fill="black" stroke="black" points="332.48,-395.72 341.66,-389.71 337.42,-394.94 342.36,-394.16 342.36,-394.16 342.36,-394.16 337.42,-394.94 343.07,-398.6 332.48,-395.72 332.48,-395.72"/>
</g>
<!-- input_boundaries -->
<g id="node3" class="node">
<title>input_boundaries</title>
<polygon fill="#b3cde3" stroke="black" points="328.5,-312 217.5,-312 217.5,-308 213.5,-308 213.5,-304 217.5,-304 217.5,-282 213.5,-282 213.5,-278 217.5,-278 217.5,-274 328.5,-274 328.5,-312"/>
<polyline fill="none" stroke="black" points="217.5,-308 221.5,-308 221.5,-304 217.5,-304"/>
<polyline fill="none" stroke="black" points="217.5,-282 221.5,-282 221.5,-278 217.5,-278"/>
<text text-anchor="middle" x="273" y="-296.8" font-family="Times,serif" font-size="14.00">«interface»</text>
<text text-anchor="middle" x="273" y="-281.8" font-family="Times,serif" font-size="14.00"> input boundaries</text>
</g>
<!-- use_cases&#45;&gt;input_boundaries -->
<g id="edge9" class="edge">
<title>use_cases&#45;&gt;input_boundaries</title>
<path fill="none" stroke="black" stroke-dasharray="5,2" d="M418.88,-358.5C398.66,-347.03 371.69,-332.35 347,-321 343.89,-319.57 340.69,-318.15 337.44,-316.76"/>
<polygon fill="none" stroke="black" points="338.94,-313.59 328.37,-312.97 336.25,-320.05 338.94,-313.59"/>
</g>
<!-- data_interface -->
<g id="node4" class="node">
<title>data_interface</title>
<polygon fill="#b3cde3" stroke="black" points="318.5,-368 227.5,-368 227.5,-364 223.5,-364 223.5,-360 227.5,-360 227.5,-338 223.5,-338 223.5,-334 227.5,-334 227.5,-330 318.5,-330 318.5,-368"/>
<polyline fill="none" stroke="black" points="227.5,-364 231.5,-364 231.5,-360 227.5,-360"/>
<polyline fill="none" stroke="black" points="227.5,-338 231.5,-338 231.5,-334 227.5,-334"/>
<text text-anchor="middle" x="273" y="-352.8" font-family="Times,serif" font-size="14.00">«interface»</text>
<text text-anchor="middle" x="273" y="-337.8" font-family="Times,serif" font-size="14.00"> data gateway</text>
</g>
<!-- use_cases&#45;&gt;data_interface -->
<g id="edge6" class="edge">
<title>use_cases&#45;&gt;data_interface</title>
<path fill="none" stroke="black" stroke-dasharray="5,2" d="M390.25,-367.44C370.26,-364.27 348.13,-360.76 328.59,-357.66"/>
<polygon fill="black" stroke="black" points="318.93,-356.13 329.51,-353.25 323.87,-356.91 328.81,-357.7 328.81,-357.7 328.81,-357.7 323.87,-356.91 328.1,-362.14 318.93,-356.13 318.93,-356.13"/>
</g>
<!-- entities -->
<g id="node5" class="node">
<title>entities</title>
<polygon fill="#fbb4ae" stroke="black" points="301,-507 245,-507 245,-503 241,-503 241,-499 245,-499 245,-479 241,-479 241,-475 245,-475 245,-471 301,-471 301,-507"/>
<polyline fill="none" stroke="black" points="245,-503 249,-503 249,-499 245,-499"/>
<polyline fill="none" stroke="black" points="245,-479 249,-479 249,-475 245,-475"/>
<text text-anchor="middle" x="273" y="-485.3" font-family="Times,serif" font-size="14.00">entities</text>
</g>
<!-- use_cases&#45;&gt;entities -->
<g id="edge2" class="edge">
<title>use_cases&#45;&gt;entities</title>
<path fill="none" stroke="black" stroke-dasharray="5,2" d="M430.73,-395.46C410.76,-413.4 378.45,-440.57 347,-459 335.62,-465.67 322.47,-471.56 310.5,-476.32"/>
<polygon fill="black" stroke="black" points="301.21,-479.89 308.93,-472.11 305.88,-478.1 310.54,-476.31 310.54,-476.31 310.54,-476.31 305.88,-478.1 312.16,-480.51 301.21,-479.89 301.21,-479.89"/>
</g>
<!-- thirdparty -->
<!-- sdk -->
<g id="node7" class="node">
<title>sdk</title>
<polygon fill="#fed9a6" stroke="black" stroke-dasharray="5,2" points="170,-122 16,-122 16,-118 12,-118 12,-114 16,-114 16,-94 12,-94 12,-90 16,-90 16,-86 170,-86 170,-122"/>
<polyline fill="none" stroke="black" stroke-dasharray="5,2" points="16,-118 20,-118 20,-114 16,-114"/>
<polyline fill="none" stroke="black" stroke-dasharray="5,2" points="16,-94 20,-94 20,-90 16,-90"/>
<text text-anchor="middle" x="93" y="-100.3" font-family="Times,serif" font-size="14.00">software development kit</text>
</g>
<!-- libraries -->
<g id="node8" class="node">
<title>libraries</title>
<polygon fill="#fed9a6" stroke="black" stroke-dasharray="5,2" points="303.5,-122 242.5,-122 242.5,-118 238.5,-118 238.5,-114 242.5,-114 242.5,-94 238.5,-94 238.5,-90 242.5,-90 242.5,-86 303.5,-86 303.5,-122"/>
<polyline fill="none" stroke="black" stroke-dasharray="5,2" points="242.5,-118 246.5,-118 246.5,-114 242.5,-114"/>
<polyline fill="none" stroke="black" stroke-dasharray="5,2" points="242.5,-94 246.5,-94 246.5,-90 242.5,-90"/>
<text text-anchor="middle" x="273" y="-100.3" font-family="Times,serif" font-size="14.00">libraries</text>
</g>
<!-- libraries&#45;&gt;sdk -->
<g id="edge7" class="edge">
<title>libraries&#45;&gt;sdk</title>
<path fill="none" stroke="black" stroke-dasharray="5,2" d="M242.21,-104C225.05,-104 202.52,-104 180.23,-104"/>
<polygon fill="black" stroke="black" points="170.36,-104 180.36,-99.5 175.36,-104 180.36,-104 180.36,-104 180.36,-104 175.36,-104 180.36,-108.5 170.36,-104 170.36,-104"/>
</g>
<!-- n1 -->
<g id="node9" class="node">
<title>n1</title>
<polygon fill="none" stroke="black" points="484.5,-66 412.5,-66 412.5,-28 490.5,-28 490.5,-60 484.5,-66"/>
<polyline fill="none" stroke="black" points="484.5,-66 484.5,-60"/>
<polyline fill="none" stroke="black" points="490.5,-60 484.5,-60"/>
<text text-anchor="middle" x="451.5" y="-50.8" font-family="Times,serif" font-size="14.00">Not part of</text>
<text text-anchor="middle" x="451.5" y="-35.8" font-family="Times,serif" font-size="14.00">the project.</text>
</g>
<!-- n1&#45;&gt;thirdparty -->
<g id="edge1" class="edge">
<title>n1&#45;&gt;thirdparty</title>
<path fill="none" stroke="black" d="M412.2,-51.12C385.97,-53.95 350.96,-57.72 322.74,-60.75"/>
<polygon fill="black" stroke="black" points="322.57,-57.25 313,-61.8 323.32,-64.21 322.57,-57.25"/>
</g>
<!-- liberaries_adapters -->
<g id="node10" class="node">
<title>liberaries_adapters</title>
<polygon fill="#decbe4" stroke="black" points="506.5,-142 396.5,-142 396.5,-138 392.5,-138 392.5,-134 396.5,-134 396.5,-114 392.5,-114 392.5,-110 396.5,-110 396.5,-106 506.5,-106 506.5,-142"/>
<polyline fill="none" stroke="black" points="396.5,-138 400.5,-138 400.5,-134 396.5,-134"/>
<polyline fill="none" stroke="black" points="396.5,-114 400.5,-114 400.5,-110 396.5,-110"/>
<text text-anchor="middle" x="451.5" y="-120.3" font-family="Times,serif" font-size="14.00">libraries adapters</text>
</g>
<!-- liberaries_adapters&#45;&gt;libraries -->
<g id="edge8" class="edge">
<title>liberaries_adapters&#45;&gt;libraries</title>
<path fill="none" stroke="black" stroke-dasharray="5,2" d="M396.1,-117.84C369.4,-114.81 337.81,-111.23 313.46,-108.47"/>
<polygon fill="black" stroke="black" points="303.84,-107.38 314.28,-104.04 308.81,-107.94 313.77,-108.51 313.77,-108.51 313.77,-108.51 308.81,-107.94 313.27,-112.98 303.84,-107.38 303.84,-107.38"/>
</g>
<!-- library_interfaces -->
<g id="node11" class="node">
<title>library_interfaces</title>
<polygon fill="#ccebc5" stroke="black" points="329.5,-227 216.5,-227 216.5,-223 212.5,-223 212.5,-219 216.5,-219 216.5,-197 212.5,-197 212.5,-193 216.5,-193 216.5,-189 329.5,-189 329.5,-227"/>
<polyline fill="none" stroke="black" points="216.5,-223 220.5,-223 220.5,-219 216.5,-219"/>
<polyline fill="none" stroke="black" points="216.5,-197 220.5,-197 220.5,-193 216.5,-193"/>
<text text-anchor="middle" x="273" y="-211.8" font-family="Times,serif" font-size="14.00">«interface»</text>
<text text-anchor="middle" x="273" y="-196.8" font-family="Times,serif" font-size="14.00"> library interfaces</text>
</g>
<!-- liberaries_adapters&#45;&gt;library_interfaces -->
<g id="edge11" class="edge">
<title>liberaries_adapters&#45;&gt;library_interfaces</title>
<path fill="none" stroke="black" stroke-dasharray="5,2" d="M411.77,-142.43C386.3,-154.55 352.7,-170.54 325.06,-183.7"/>
<polygon fill="none" stroke="black" points="323.68,-180.48 316.16,-187.94 326.69,-186.8 323.68,-180.48"/>
</g>
<!-- board_impl -->
<g id="node12" class="node">
<title>board_impl</title>
<polygon fill="#ccebc5" stroke="black" points="520,-227 383,-227 383,-223 379,-223 379,-219 383,-219 383,-199 379,-199 379,-195 383,-195 383,-191 520,-191 520,-227"/>
<polyline fill="none" stroke="black" points="383,-223 387,-223 387,-219 383,-219"/>
<polyline fill="none" stroke="black" points="383,-199 387,-199 387,-195 383,-195"/>
<text text-anchor="middle" x="451.5" y="-205.3" font-family="Times,serif" font-size="14.00">board implementation</text>
</g>
<!-- board_impl&#45;&gt;output_boundaries -->
<g id="edge10" class="edge">
<title>board_impl&#45;&gt;output_boundaries</title>
<path fill="none" stroke="black" stroke-dasharray="5,2" d="M419.45,-227.41C406.59,-236.41 392.48,-248.27 383,-262 352.57,-306.07 383.66,-337.96 347,-377 345.26,-378.85 343.39,-380.58 341.41,-382.19"/>
<polygon fill="none" stroke="black" points="339.64,-379.16 333.39,-387.72 343.61,-384.93 339.64,-379.16"/>
</g>
<!-- board_impl&#45;&gt;input_boundaries -->
<g id="edge4" class="edge">
<title>board_impl&#45;&gt;input_boundaries</title>
<path fill="none" stroke="black" stroke-dasharray="5,2" d="M416.31,-227.29C396.28,-237.8 370.41,-251.05 347,-262 341.52,-264.56 335.76,-267.16 329.99,-269.71"/>
<polygon fill="black" stroke="black" points="320.95,-273.65 328.32,-265.53 325.54,-271.65 330.12,-269.65 330.12,-269.65 330.12,-269.65 325.54,-271.65 331.92,-273.78 320.95,-273.65 320.95,-273.65"/>
</g>
<!-- board_impl&#45;&gt;data_interface -->
<g id="edge12" class="edge">
<title>board_impl&#45;&gt;data_interface</title>
<path fill="none" stroke="black" stroke-dasharray="5,2" d="M422.65,-227.38C409.67,-236.78 394.58,-248.97 383,-262 362.6,-284.96 370.6,-301.34 347,-321 341.59,-325.5 335.38,-329.33 328.92,-332.57"/>
<polygon fill="none" stroke="black" points="327.69,-329.29 320,-336.58 330.56,-335.67 327.69,-329.29"/>
</g>
<!-- board_impl&#45;&gt;library_interfaces -->
<g id="edge5" class="edge">
<title>board_impl&#45;&gt;library_interfaces</title>
<path fill="none" stroke="black" stroke-dasharray="5,2" d="M382.51,-208.61C368.53,-208.54 353.82,-208.45 339.91,-208.37"/>
<polygon fill="black" stroke="black" points="329.94,-208.32 339.96,-203.87 334.94,-208.35 339.94,-208.37 339.94,-208.37 339.94,-208.37 334.94,-208.35 339.91,-212.87 329.94,-208.32 329.94,-208.32"/>
</g>
</g>
</svg>
