<?xml version="1.0" encoding="UTF-8" standalone="no"?>
<!DOCTYPE svg PUBLIC "-//W3C//DTD SVG 1.1//EN"
 "http://www.w3.org/Graphics/SVG/1.1/DTD/svg11.dtd">
<!-- Generated by graphviz version 9.0.0 (20230911.1827)
 -->
<!-- Title: dependency_injection_interface_adapter Pages: 1 -->
<svg width="628pt" height="312pt"
 viewBox="0.00 0.00 628.00 311.91" xmlns="http://www.w3.org/2000/svg" xmlns:xlink="http://www.w3.org/1999/xlink">
<g id="graph0" class="graph" transform="scale(1 1) rotate(0) translate(4 307.91)">
<title>dependency_injection_interface_adapter</title>
<polygon fill="white" stroke="none" points="-4,4 -4,-307.91 624,-307.91 624,4 -4,4"/>
<g id="clust2" class="cluster">
<title>cluster_low</title>
<polygon fill="none" stroke="black" points="66,-8 66,-83.75 415,-83.75 415,-8 66,-8"/>
<text text-anchor="middle" x="240.5" y="-14.45" font-family="Times,serif" font-size="14.00">interface adapters package</text>
</g>
<g id="clust3" class="cluster">
<title>cluster_external</title>
<polygon fill="none" stroke="black" points="491,-8 491,-83.75 612,-83.75 612,-8 491,-8"/>
<text text-anchor="middle" x="551.5" y="-14.45" font-family="Times,serif" font-size="14.00">third party libraries</text>
</g>
<g id="clust1" class="cluster">
<title>cluster_high</title>
<polygon fill="none" stroke="black" points="8,-117.5 8,-295.91 319,-295.91 319,-117.5 8,-117.5"/>
<text text-anchor="middle" x="163.5" y="-123.95" font-family="Times,serif" font-size="14.00">high level policy package</text>
</g>
<!-- factory_interface -->
<g id="node1" class="node">
<title>factory_interface</title>
<ellipse fill="none" stroke="black" cx="218" cy="-174.71" rx="92.98" ry="25.46"/>
<text text-anchor="start" x="187.62" y="-176.41" font-family="Times,serif" font-size="14.00">«interface»</text>
<text text-anchor="start" x="160.25" y="-162.41" font-family="Courier New" font-size="14.00">B&amp; factoryB();</text>
</g>
<!-- interface_b -->
<g id="node3" class="node">
<title>interface_b</title>
<polygon fill="none" stroke="black" points="155.38,-287.91 78.62,-287.91 78.62,-251.91 155.38,-251.91 155.38,-287.91"/>
<text text-anchor="start" x="86.62" y="-271.61" font-family="Times,serif" font-size="14.00">«interface»</text>
<text text-anchor="start" x="112.88" y="-257.61" font-family="Courier New" font-size="14.00">B</text>
</g>
<!-- factory_interface&#45;&gt;interface_b -->
<g id="edge6" class="edge">
<title>factory_interface&#45;&gt;interface_b</title>
<path fill="none" stroke="black" stroke-dasharray="5,2" d="M199.58,-199.92C190.65,-210.9 179.4,-223.68 168,-233.91 163.76,-237.71 159.09,-241.44 154.35,-244.96"/>
<polygon fill="black" stroke="black" points="146.23,-250.74 151.77,-241.28 149.31,-248.55 154.38,-244.94 154.38,-244.94 154.38,-244.94 149.31,-248.55 156.99,-248.61 146.23,-250.74"/>
<text text-anchor="middle" x="219.5" y="-220.61" font-family="Times,serif" font-size="14.00">«depends on»</text>
</g>
<!-- component_a -->
<g id="node2" class="node">
<title>component_a</title>
<polygon fill="none" stroke="black" points="70,-192.71 16,-192.71 16,-188.71 12,-188.71 12,-184.71 16,-184.71 16,-164.71 12,-164.71 12,-160.71 16,-160.71 16,-156.71 70,-156.71 70,-192.71"/>
<polyline fill="none" stroke="black" points="16,-188.71 20,-188.71 20,-184.71 16,-184.71"/>
<polyline fill="none" stroke="black" points="16,-164.71 20,-164.71 20,-160.71 16,-160.71"/>
<text text-anchor="middle" x="43" y="-168.53" font-family="Courier New" font-size="14.00">A</text>
</g>
<!-- component_a&#45;&gt;factory_interface -->
<g id="edge5" class="edge">
<title>component_a&#45;&gt;factory_interface</title>
<path fill="none" stroke="black" stroke-dasharray="5,2" d="M70.34,-174.71C82.53,-174.71 97.73,-174.71 113.71,-174.71"/>
<polygon fill="black" stroke="black" points="123.65,-174.71 113.65,-179.21 119.86,-174.71 113.65,-174.71 113.65,-174.71 113.65,-174.71 119.86,-174.71 113.65,-170.21 123.65,-174.71"/>
<text text-anchor="middle" x="97.51" y="-158.41" font-family="Times,serif" font-size="14.00">«calls»</text>
</g>
<!-- component_a&#45;&gt;interface_b -->
<g id="edge4" class="edge">
<title>component_a&#45;&gt;interface_b</title>
<path fill="none" stroke="black" stroke-dasharray="5,2" d="M56.57,-192.8C67.77,-206.9 83.82,-227.13 96.57,-243.18"/>
<polygon fill="black" stroke="black" points="102.51,-250.65 92.76,-245.62 100.15,-247.69 96.29,-242.82 96.29,-242.82 96.29,-242.82 100.15,-247.69 99.81,-240.02 102.51,-250.65"/>
<text text-anchor="middle" x="126.5" y="-220.61" font-family="Times,serif" font-size="14.00">«depends on»</text>
</g>
<!-- factory_impl -->
<g id="node4" class="node">
<title>factory_impl</title>
<ellipse fill="none" stroke="black" cx="163" cy="-57.75" rx="88.88" ry="18"/>
<text text-anchor="middle" x="163" y="-51.58" font-family="Courier New" font-size="14.00">B&amp; factoryB(){}</text>
</g>
<!-- factory_impl&#45;&gt;factory_interface -->
<g id="edge7" class="edge">
<title>factory_impl&#45;&gt;factory_interface</title>
<path fill="none" stroke="black" stroke-dasharray="5,2" d="M171.12,-75.71C179.08,-92.35 191.45,-118.2 201.48,-139.18"/>
<polygon fill="black" stroke="black" points="205.66,-147.92 197.29,-140.85 204.03,-144.51 201.35,-138.9 201.35,-138.9 201.35,-138.9 204.03,-144.51 205.41,-136.96 205.66,-147.92"/>
<text text-anchor="middle" x="225.62" y="-96.2" font-family="Times,serif" font-size="14.00">«implements»</text>
</g>
<!-- component_b -->
<g id="node5" class="node">
<title>component_b</title>
<polygon fill="none" stroke="black" points="407,-75.75 353,-75.75 353,-71.75 349,-71.75 349,-67.75 353,-67.75 353,-47.75 349,-47.75 349,-43.75 353,-43.75 353,-39.75 407,-39.75 407,-75.75"/>
<polyline fill="none" stroke="black" points="353,-71.75 357,-71.75 357,-67.75 353,-67.75"/>
<polyline fill="none" stroke="black" points="353,-47.75 357,-47.75 357,-43.75 353,-43.75"/>
<text text-anchor="middle" x="380" y="-51.58" font-family="Courier New" font-size="14.00">B</text>
</g>
<!-- factory_impl&#45;&gt;component_b -->
<g id="edge3" class="edge">
<title>factory_impl&#45;&gt;component_b</title>
<path fill="none" stroke="black" stroke-dasharray="5,2" d="M252.2,-57.75C283.49,-57.75 316.98,-57.75 341.83,-57.75"/>
<polygon fill="black" stroke="black" points="351.72,-57.75 341.72,-62.25 347.94,-57.75 341.72,-57.75 341.72,-57.75 341.72,-57.75 347.94,-57.75 341.72,-53.25 351.72,-57.75"/>
<text text-anchor="middle" x="302.44" y="-41.45" font-family="Times,serif" font-size="14.00">«instantiates a»</text>
</g>
<!-- component_b&#45;&gt;interface_b -->
<g id="edge1" class="edge">
<title>component_b&#45;&gt;interface_b</title>
<path fill="none" stroke="black" stroke-dasharray="5,2" d="M376.49,-75.91C369.87,-104.61 353.12,-162.87 320,-200.16 281.16,-243.89 213.49,-259.84 167.03,-265.64"/>
<polygon fill="none" stroke="black" points="166.76,-262.14 157.21,-266.73 167.54,-269.1 166.76,-262.14"/>
<text text-anchor="middle" x="391.38" y="-169.28" font-family="Times,serif" font-size="14.00">«realizes»</text>
</g>
<!-- component_c -->
<g id="node6" class="node">
<title>component_c</title>
<polygon fill="none" stroke="black" points="601.62,-75.75 502.38,-75.75 502.38,-71.75 498.38,-71.75 498.38,-67.75 502.38,-67.75 502.38,-47.75 498.38,-47.75 498.38,-43.75 502.38,-43.75 502.38,-39.75 601.62,-39.75 601.62,-75.75"/>
<polyline fill="none" stroke="black" points="502.38,-71.75 506.38,-71.75 506.38,-67.75 502.38,-67.75"/>
<polyline fill="none" stroke="black" points="502.38,-47.75 506.38,-47.75 506.38,-43.75 502.38,-43.75"/>
<text text-anchor="middle" x="552" y="-52.33" font-family="Times,serif" font-size="14.00">external library</text>
</g>
<!-- component_b&#45;&gt;component_c -->
<g id="edge2" class="edge">
<title>component_b&#45;&gt;component_c</title>
<path fill="none" stroke="black" stroke-dasharray="5,2" d="M407.25,-57.75C429.67,-57.75 462.27,-57.75 490.87,-57.75"/>
<polygon fill="black" stroke="black" points="500.79,-57.75 490.79,-62.25 497.01,-57.75 490.79,-57.75 490.79,-57.75 490.79,-57.75 497.01,-57.75 490.79,-53.25 500.79,-57.75"/>
<text text-anchor="middle" x="454.69" y="-41.45" font-family="Times,serif" font-size="14.00">«delegates to»</text>
</g>
</g>
</svg>
