<?xml version="1.0" encoding="UTF-8" standalone="no"?>
<!DOCTYPE svg PUBLIC "-//W3C//DTD SVG 1.1//EN"
 "http://www.w3.org/Graphics/SVG/1.1/DTD/svg11.dtd">
<!-- Generated by graphviz version 9.0.0 (20230911.1827)
 -->
<!-- Title: component_architecture Pages: 1 -->
<svg width="540pt" height="568pt"
 viewBox="0.00 0.00 539.50 568.00" xmlns="http://www.w3.org/2000/svg" xmlns:xlink="http://www.w3.org/1999/xlink">
<g id="graph0" class="graph" transform="scale(1 1) rotate(0) translate(4 564)">
<title>component_architecture</title>
<polygon fill="white" stroke="none" points="-4,4 -4,-564 535.5,-564 535.5,4 -4,4"/>
<g id="clust2" class="cluster">
<title>cluster_app</title>
<polygon fill="none" stroke="black" stroke-width="2" points="204.25,-272 204.25,-468 516.38,-468 516.38,-272 204.25,-272"/>
<text text-anchor="middle" x="360.31" y="-450.7" font-family="Times,serif" font-size="14.00">application business rules</text>
</g>
<g id="clust4" class="cluster">
<title>cluster_ebr</title>
<polygon fill="none" stroke="black" stroke-width="2" points="196.38,-476 196.38,-552 344.38,-552 344.38,-476 196.38,-476"/>
<text text-anchor="middle" x="270.38" y="-534.7" font-family="Times,serif" font-size="14.00">enterprise business rules</text>
</g>
<g id="clust6" class="cluster">
<title>cluster_thirdparty</title>
<polygon fill="none" stroke="black" stroke-width="2" stroke-dasharray="5,2" points="8,-58 8,-156 309,-156 309,-58 8,-58"/>
<text text-anchor="middle" x="158.5" y="-138.7" font-family="Times,serif" font-size="14.00">frameworks and libraries</text>
</g>
<g id="clust9" class="cluster">
<title>cluster_ia</title>
<polygon fill="none" stroke="black" stroke-width="2" points="385,-100 385,-176 510,-176 510,-100 385,-100"/>
<text text-anchor="middle" x="447.5" y="-158.7" font-family="Times,serif" font-size="14.00">interface adapters</text>
</g>
<g id="clust11" class="cluster">
<title>cluster_board</title>
<polygon fill="none" stroke="black" stroke-width="2" points="206.88,-184 206.88,-264 523.5,-264 523.5,-184 206.88,-184"/>
<text text-anchor="middle" x="365.19" y="-246.7" font-family="Times,serif" font-size="14.00">board adapters</text>
</g>
<g id="clust7" class="cluster">
<title>clusterX_margin</title>
</g>
<!-- output_boundaries -->
<g id="node1" class="node">
<title>output_boundaries</title>
<polygon fill="#b3cde3" stroke="black" points="329.5,-435.75 212.25,-435.75 212.25,-431.75 208.25,-431.75 208.25,-427.75 212.25,-427.75 212.25,-404.25 208.25,-404.25 208.25,-400.25 212.25,-400.25 212.25,-396.25 329.5,-396.25 329.5,-435.75"/>
<polyline fill="none" stroke="black" points="212.25,-431.75 216.25,-431.75 216.25,-427.75 212.25,-427.75"/>
<polyline fill="none" stroke="black" points="212.25,-404.25 216.25,-404.25 216.25,-400.25 212.25,-400.25"/>
<text text-anchor="middle" x="270.88" y="-418.45" font-family="Times,serif" font-size="14.00">«interface»</text>
<text text-anchor="middle" x="270.88" y="-402.7" font-family="Times,serif" font-size="14.00"> output boundaries</text>
</g>
<!-- use_cases -->
<g id="node2" class="node">
<title>use_cases</title>
<polygon fill="#b3cde3" stroke="black" points="508.38,-405 386.62,-405 386.62,-401 382.62,-401 382.62,-397 386.62,-397 386.62,-377 382.62,-377 382.62,-373 386.62,-373 386.62,-369 508.38,-369 508.38,-405"/>
<polyline fill="none" stroke="black" points="386.62,-401 390.62,-401 390.62,-397 386.62,-397"/>
<polyline fill="none" stroke="black" points="386.62,-377 390.62,-377 390.62,-373 386.62,-373"/>
<text text-anchor="middle" x="447.5" y="-381.57" font-family="Times,serif" font-size="14.00">use case interactors</text>
</g>
<!-- use_cases&#45;&gt;output_boundaries -->
<g id="edge3" class="edge">
<title>use_cases&#45;&gt;output_boundaries</title>
<path fill="none" stroke="black" stroke-dasharray="5,2" d="M386.4,-396.98C371.64,-399.43 355.72,-402.08 340.58,-404.59"/>
<polygon fill="black" stroke="black" points="330.93,-406.19 340.05,-400.12 334.66,-405.57 340.79,-404.56 340.79,-404.56 340.79,-404.56 334.66,-405.57 341.53,-408.99 330.93,-406.19"/>
</g>
<!-- input_boundaries -->
<g id="node3" class="node">
<title>input_boundaries</title>
<polygon fill="#b3cde3" stroke="black" points="326.12,-319.75 215.62,-319.75 215.62,-315.75 211.62,-315.75 211.62,-311.75 215.62,-311.75 215.62,-288.25 211.62,-288.25 211.62,-284.25 215.62,-284.25 215.62,-280.25 326.12,-280.25 326.12,-319.75"/>
<polyline fill="none" stroke="black" points="215.62,-315.75 219.62,-315.75 219.62,-311.75 215.62,-311.75"/>
<polyline fill="none" stroke="black" points="215.62,-288.25 219.62,-288.25 219.62,-284.25 215.62,-284.25"/>
<text text-anchor="middle" x="270.88" y="-302.45" font-family="Times,serif" font-size="14.00">«interface»</text>
<text text-anchor="middle" x="270.88" y="-286.7" font-family="Times,serif" font-size="14.00"> input boundaries</text>
</g>
<!-- use_cases&#45;&gt;input_boundaries -->
<g id="edge9" class="edge">
<title>use_cases&#45;&gt;input_boundaries</title>
<path fill="none" stroke="black" stroke-dasharray="5,2" d="M416.69,-368.64C396.62,-356.64 369.36,-341.02 344.38,-329 341.45,-327.59 338.45,-326.2 335.4,-324.82"/>
<polygon fill="none" stroke="black" points="336.86,-321.64 326.29,-320.84 334.05,-328.06 336.86,-321.64"/>
</g>
<!-- data_interface -->
<g id="node4" class="node">
<title>data_interface</title>
<polygon fill="#b3cde3" stroke="black" points="316,-377.75 225.75,-377.75 225.75,-373.75 221.75,-373.75 221.75,-369.75 225.75,-369.75 225.75,-346.25 221.75,-346.25 221.75,-342.25 225.75,-342.25 225.75,-338.25 316,-338.25 316,-377.75"/>
<polyline fill="none" stroke="black" points="225.75,-373.75 229.75,-373.75 229.75,-369.75 225.75,-369.75"/>
<polyline fill="none" stroke="black" points="225.75,-346.25 229.75,-346.25 229.75,-342.25 225.75,-342.25"/>
<text text-anchor="middle" x="270.88" y="-360.45" font-family="Times,serif" font-size="14.00">«interface»</text>
<text text-anchor="middle" x="270.88" y="-344.7" font-family="Times,serif" font-size="14.00"> data gateway</text>
</g>
<!-- use_cases&#45;&gt;data_interface -->
<g id="edge6" class="edge">
<title>use_cases&#45;&gt;data_interface</title>
<path fill="none" stroke="black" stroke-dasharray="5,2" d="M386.4,-377.02C367.19,-373.83 346.02,-370.31 327.16,-367.18"/>
<polygon fill="black" stroke="black" points="317.56,-365.59 328.16,-362.79 321.29,-366.21 327.43,-367.23 327.43,-367.23 327.43,-367.23 321.29,-366.21 326.69,-371.66 317.56,-365.59"/>
</g>
<!-- entities -->
<g id="node5" class="node">
<title>entities</title>
<polygon fill="#fbb4ae" stroke="black" points="298.38,-520 243.38,-520 243.38,-516 239.38,-516 239.38,-512 243.38,-512 243.38,-492 239.38,-492 239.38,-488 243.38,-488 243.38,-484 298.38,-484 298.38,-520"/>
<polyline fill="none" stroke="black" points="243.38,-516 247.38,-516 247.38,-512 243.38,-512"/>
<polyline fill="none" stroke="black" points="243.38,-492 247.38,-492 247.38,-488 243.38,-488"/>
<text text-anchor="middle" x="270.88" y="-496.57" font-family="Times,serif" font-size="14.00">entities</text>
</g>
<!-- use_cases&#45;&gt;entities -->
<g id="edge2" class="edge">
<title>use_cases&#45;&gt;entities</title>
<path fill="none" stroke="black" stroke-dasharray="5,2" d="M427.88,-405.5C408.36,-424.13 376.17,-452.8 344.38,-472 333.39,-478.63 320.68,-484.44 309,-489.14"/>
<polygon fill="black" stroke="black" points="299.77,-492.7 307.48,-484.9 303.3,-491.34 309.1,-489.1 309.1,-489.1 309.1,-489.1 303.3,-491.34 310.72,-493.3 299.77,-492.7"/>
</g>
<!-- thirdparty -->
<!-- sdk -->
<g id="node7" class="node">
<title>sdk</title>
<polygon fill="#fed9a6" stroke="black" stroke-dasharray="5,2" points="169.25,-124 16,-124 16,-120 12,-120 12,-116 16,-116 16,-96 12,-96 12,-92 16,-92 16,-88 169.25,-88 169.25,-124"/>
<polyline fill="none" stroke="black" stroke-dasharray="5,2" points="16,-120 20,-120 20,-116 16,-116"/>
<polyline fill="none" stroke="black" stroke-dasharray="5,2" points="16,-96 20,-96 20,-92 16,-92"/>
<text text-anchor="middle" x="92.62" y="-100.58" font-family="Times,serif" font-size="14.00">software development kit</text>
</g>
<!-- libraries -->
<g id="node8" class="node">
<title>libraries</title>
<polygon fill="#fed9a6" stroke="black" stroke-dasharray="5,2" points="301,-124 240.75,-124 240.75,-120 236.75,-120 236.75,-116 240.75,-116 240.75,-96 236.75,-96 236.75,-92 240.75,-92 240.75,-88 301,-88 301,-124"/>
<polyline fill="none" stroke="black" stroke-dasharray="5,2" points="240.75,-120 244.75,-120 244.75,-116 240.75,-116"/>
<polyline fill="none" stroke="black" stroke-dasharray="5,2" points="240.75,-96 244.75,-96 244.75,-92 240.75,-92"/>
<text text-anchor="middle" x="270.88" y="-100.58" font-family="Times,serif" font-size="14.00">libraries</text>
</g>
<!-- libraries&#45;&gt;sdk -->
<g id="edge7" class="edge">
<title>libraries&#45;&gt;sdk</title>
<path fill="none" stroke="black" stroke-dasharray="5,2" d="M240.37,-106C223.85,-106 202.3,-106 180.82,-106"/>
<polygon fill="black" stroke="black" points="170.83,-106 180.83,-101.5 174.62,-106 180.83,-106 180.83,-106 180.83,-106 174.62,-106 180.83,-110.5 170.83,-106"/>
</g>
<!-- n1 -->
<g id="node9" class="node">
<title>n1</title>
<polygon fill="none" stroke="black" points="480.25,-67.75 408.75,-67.75 408.75,-28.25 486.25,-28.25 486.25,-61.75 480.25,-67.75"/>
<polyline fill="none" stroke="black" points="480.25,-67.75 480.25,-61.75"/>
<polyline fill="none" stroke="black" points="486.25,-61.75 480.25,-61.75"/>
<text text-anchor="middle" x="447.5" y="-50.45" font-family="Times,serif" font-size="14.00">Not part of</text>
<text text-anchor="middle" x="447.5" y="-34.7" font-family="Times,serif" font-size="14.00">the project.</text>
</g>
<!-- n1&#45;&gt;thirdparty -->
<g id="edge1" class="edge">
<title>n1&#45;&gt;thirdparty</title>
<path fill="none" stroke="black" d="M408.61,-52.34C382.66,-55.31 348.03,-59.28 320.11,-62.48"/>
<polygon fill="black" stroke="black" points="320.04,-58.96 310.5,-63.58 320.83,-65.92 320.04,-58.96"/>
</g>
<!-- liberaries_adapters -->
<g id="node10" class="node">
<title>liberaries_adapters</title>
<polygon fill="#decbe4" stroke="black" points="502,-144 393,-144 393,-140 389,-140 389,-136 393,-136 393,-116 389,-116 389,-112 393,-112 393,-108 502,-108 502,-144"/>
<polyline fill="none" stroke="black" points="393,-140 397,-140 397,-136 393,-136"/>
<polyline fill="none" stroke="black" points="393,-116 397,-116 397,-112 393,-112"/>
<text text-anchor="middle" x="447.5" y="-120.58" font-family="Times,serif" font-size="14.00">libraries adapters</text>
</g>
<!-- liberaries_adapters&#45;&gt;libraries -->
<g id="edge8" class="edge">
<title>liberaries_adapters&#45;&gt;libraries</title>
<path fill="none" stroke="black" stroke-dasharray="5,2" d="M392.68,-119.84C366.85,-116.88 336.4,-113.39 312.53,-110.66"/>
<polygon fill="black" stroke="black" points="302.61,-109.52 313.05,-106.19 306.36,-109.95 312.54,-110.66 312.54,-110.66 312.54,-110.66 306.36,-109.95 312.03,-115.13 302.61,-109.52"/>
</g>
<!-- library_interfaces -->
<g id="node11" class="node">
<title>library_interfaces</title>
<polygon fill="#ccebc5" stroke="black" points="326.88,-231.75 214.88,-231.75 214.88,-227.75 210.88,-227.75 210.88,-223.75 214.88,-223.75 214.88,-200.25 210.88,-200.25 210.88,-196.25 214.88,-196.25 214.88,-192.25 326.88,-192.25 326.88,-231.75"/>
<polyline fill="none" stroke="black" points="214.88,-227.75 218.88,-227.75 218.88,-223.75 214.88,-223.75"/>
<polyline fill="none" stroke="black" points="214.88,-200.25 218.88,-200.25 218.88,-196.25 214.88,-196.25"/>
<text text-anchor="middle" x="270.88" y="-214.45" font-family="Times,serif" font-size="14.00">«interface»</text>
<text text-anchor="middle" x="270.88" y="-198.7" font-family="Times,serif" font-size="14.00"> library interfaces</text>
</g>
<!-- liberaries_adapters&#45;&gt;library_interfaces -->
<g id="edge11" class="edge">
<title>liberaries_adapters&#45;&gt;library_interfaces</title>
<path fill="none" stroke="black" stroke-dasharray="5,2" d="M409.04,-144.45C383.98,-156.79 350.68,-173.19 323.17,-186.74"/>
<polygon fill="none" stroke="black" points="321.72,-183.55 314.29,-191.11 324.81,-189.83 321.72,-183.55"/>
</g>
<!-- board_impl -->
<g id="node12" class="node">
<title>board_impl</title>
<polygon fill="#ccebc5" stroke="black" points="515.5,-232 379.5,-232 379.5,-228 375.5,-228 375.5,-224 379.5,-224 379.5,-204 375.5,-204 375.5,-200 379.5,-200 379.5,-196 515.5,-196 515.5,-232"/>
<polyline fill="none" stroke="black" points="379.5,-228 383.5,-228 383.5,-224 379.5,-224"/>
<polyline fill="none" stroke="black" points="379.5,-204 383.5,-204 383.5,-200 379.5,-200"/>
<text text-anchor="middle" x="447.5" y="-208.57" font-family="Times,serif" font-size="14.00">board implementation</text>
</g>
<!-- board_impl&#45;&gt;output_boundaries -->
<g id="edge10" class="edge">
<title>board_impl&#45;&gt;output_boundaries</title>
<path fill="none" stroke="black" stroke-dasharray="5,2" d="M416.27,-232.35C403.29,-241.59 388.97,-253.85 379.5,-268 348.83,-313.83 381.5,-346.23 344.38,-387 342.67,-388.87 340.83,-390.63 338.88,-392.27"/>
<polygon fill="none" stroke="black" points="337.07,-389.26 330.95,-397.9 341.13,-394.96 337.07,-389.26"/>
</g>
<!-- board_impl&#45;&gt;input_boundaries -->
<g id="edge4" class="edge">
<title>board_impl&#45;&gt;input_boundaries</title>
<path fill="none" stroke="black" stroke-dasharray="5,2" d="M413.23,-232.36C393.41,-243.1 367.66,-256.72 344.38,-268 339.39,-270.41 334.19,-272.86 328.95,-275.26"/>
<polygon fill="black" stroke="black" points="320.01,-279.32 327.25,-271.09 323.45,-277.76 329.11,-275.19 329.11,-275.19 329.11,-275.19 323.45,-277.76 330.97,-279.29 320.01,-279.32"/>
</g>
<!-- board_impl&#45;&gt;data_interface -->
<g id="edge12" class="edge">
<title>board_impl&#45;&gt;data_interface</title>
<path fill="none" stroke="black" stroke-dasharray="5,2" d="M419.07,-232.48C406.09,-242.08 390.96,-254.6 379.5,-268 359.17,-291.78 368.01,-308.5 344.38,-329 339.07,-333.6 332.93,-337.53 326.53,-340.87"/>
<polygon fill="none" stroke="black" points="325.27,-337.6 317.69,-345 328.23,-343.94 325.27,-337.6"/>
</g>
<!-- board_impl&#45;&gt;library_interfaces -->
<g id="edge5" class="edge">
<title>board_impl&#45;&gt;library_interfaces</title>
<path fill="none" stroke="black" stroke-dasharray="5,2" d="M379.24,-213.23C365.8,-213.08 351.69,-212.91 338.29,-212.76"/>
<polygon fill="black" stroke="black" points="328.44,-212.65 338.49,-208.26 332.22,-212.69 338.44,-212.76 338.44,-212.76 338.44,-212.76 332.22,-212.69 338.38,-217.26 328.44,-212.65"/>
</g>
</g>
</svg>
