<?xml version="1.0" encoding="UTF-8" standalone="no"?>
<!DOCTYPE svg PUBLIC "-//W3C//DTD SVG 1.1//EN"
 "http://www.w3.org/Graphics/SVG/1.1/DTD/svg11.dtd">
<!-- Generated by graphviz version 7.0.5 (20221223.1930)
 -->
<!-- Title: lib/board_adapters/board.cpp Pages: 1 -->
<svg width="522pt" height="203pt"
 viewBox="0.00 0.00 522.00 203.00" xmlns="http://www.w3.org/2000/svg" xmlns:xlink="http://www.w3.org/1999/xlink">
<g id="graph0" class="graph" transform="scale(1 1) rotate(0) translate(4 199)">
<title>lib/board_adapters/board.cpp</title>
<!-- Node1 -->
<g id="node1" class="node">
<title>Node1</title>
<g id="a_node1"><a xlink:title=" ">
<polygon fill="#999999" stroke="#666666" points="334.5,-195 238.5,-195 238.5,-165 334.5,-165 334.5,-195"/>
<text text-anchor="start" x="246.5" y="-183" font-family="Helvetica,sans-Serif" font-size="10.00">lib/board_adapters</text>
<text text-anchor="middle" x="286.5" y="-172" font-family="Helvetica,sans-Serif" font-size="10.00">/board.cpp</text>
</a>
</g>
</g>
<!-- Node2 -->
<g id="node2" class="node">
<title>Node2</title>
<g id="a_node2"><a xlink:href="board_8hpp.xhtml" target="_top" xlink:title=" ">
<polygon fill="white" stroke="#666666" points="91,-129 32,-129 32,-110 91,-110 91,-129"/>
<text text-anchor="middle" x="61.5" y="-117" font-family="Helvetica,sans-Serif" font-size="10.00">board.hpp</text>
</a>
</g>
</g>
<!-- Node1&#45;&gt;Node2 -->
<g id="edge1" class="edge">
<title>Node1&#45;&gt;Node2</title>
<path fill="none" stroke="#63b8ff" d="M238.23,-166.45C197.69,-155.91 140.4,-141.01 102.16,-131.07"/>
<polygon fill="#63b8ff" stroke="#63b8ff" points="103.45,-127.79 92.89,-128.66 101.69,-134.56 103.45,-127.79"/>
</g>
<!-- Node5 -->
<g id="node5" class="node">
<title>Node5</title>
<g id="a_node5"><a xlink:title=" ">
<polygon fill="#e0e0e0" stroke="#999999" points="155,-19 96,-19 96,0 155,0 155,-19"/>
<text text-anchor="middle" x="125.5" y="-7" font-family="Helvetica,sans-Serif" font-size="10.00">functional</text>
</a>
</g>
</g>
<!-- Node1&#45;&gt;Node5 -->
<g id="edge8" class="edge">
<title>Node1&#45;&gt;Node5</title>
<path fill="none" stroke="#63b8ff" d="M238.14,-173.57C208.01,-167.62 170.86,-155.15 148.5,-129 124.85,-101.34 122.7,-56.68 123.77,-30.81"/>
<polygon fill="#63b8ff" stroke="#63b8ff" points="127.25,-31.19 124.4,-20.99 120.26,-30.74 127.25,-31.19"/>
</g>
<!-- Node6 -->
<g id="node6" class="node">
<title>Node6</title>
<g id="a_node6"><a xlink:href="board__pins_8hpp.xhtml" target="_top" xlink:title="Provides named objects for the pins provided by the board.">
<polygon fill="white" stroke="#666666" points="239.5,-129 157.5,-129 157.5,-110 239.5,-110 239.5,-129"/>
<text text-anchor="middle" x="198.5" y="-117" font-family="Helvetica,sans-Serif" font-size="10.00">board_pins.hpp</text>
</a>
</g>
</g>
<!-- Node1&#45;&gt;Node6 -->
<g id="edge5" class="edge">
<title>Node1&#45;&gt;Node6</title>
<path fill="none" stroke="#63b8ff" d="M264.75,-164.54C251.53,-155.75 234.67,-144.54 221.26,-135.63"/>
<polygon fill="#63b8ff" stroke="#63b8ff" points="223.33,-132.81 213.07,-130.18 219.46,-138.63 223.33,-132.81"/>
</g>
<!-- Node8 -->
<g id="node8" class="node">
<title>Node8</title>
<g id="a_node8"><a xlink:title=" ">
<polygon fill="#e0e0e0" stroke="#999999" points="315,-129 258,-129 258,-110 315,-110 315,-129"/>
<text text-anchor="middle" x="286.5" y="-117" font-family="Helvetica,sans-Serif" font-size="10.00">Arduino.h</text>
</a>
</g>
</g>
<!-- Node1&#45;&gt;Node8 -->
<g id="edge7" class="edge">
<title>Node1&#45;&gt;Node8</title>
<path fill="none" stroke="#63b8ff" d="M286.5,-164.54C286.5,-157.34 286.5,-148.53 286.5,-140.68"/>
<polygon fill="#63b8ff" stroke="#63b8ff" points="290,-140.69 286.5,-130.69 283,-140.69 290,-140.69"/>
</g>
<!-- Node9 -->
<g id="node9" class="node">
<title>Node9</title>
<g id="a_node9"><a xlink:title=" ">
<polygon fill="#e0e0e0" stroke="#999999" points="380,-129 333,-129 333,-110 380,-110 380,-129"/>
<text text-anchor="middle" x="356.5" y="-117" font-family="Helvetica,sans-Serif" font-size="10.00">iterator</text>
</a>
</g>
</g>
<!-- Node1&#45;&gt;Node9 -->
<g id="edge9" class="edge">
<title>Node1&#45;&gt;Node9</title>
<path fill="none" stroke="#63b8ff" d="M303.8,-164.54C313.97,-156.04 326.84,-145.29 337.32,-136.53"/>
<polygon fill="#63b8ff" stroke="#63b8ff" points="339.53,-139.24 344.96,-130.15 335.04,-133.87 339.53,-139.24"/>
</g>
<!-- Node10 -->
<g id="node10" class="node">
<title>Node10</title>
<g id="a_node10"><a xlink:title=" ">
<polygon fill="#e0e0e0" stroke="#999999" points="457,-129 398,-129 398,-110 457,-110 457,-129"/>
<text text-anchor="middle" x="427.5" y="-117" font-family="Helvetica,sans-Serif" font-size="10.00">stdexcept</text>
</a>
</g>
</g>
<!-- Node1&#45;&gt;Node10 -->
<g id="edge10" class="edge">
<title>Node1&#45;&gt;Node10</title>
<path fill="none" stroke="#63b8ff" d="M321.35,-164.54C344.1,-155.1 373.56,-142.88 395.67,-133.71"/>
<polygon fill="#63b8ff" stroke="#63b8ff" points="396.89,-136.99 404.78,-129.93 394.2,-130.53 396.89,-136.99"/>
</g>
<!-- Node11 -->
<g id="node11" class="node">
<title>Node11</title>
<g id="a_node11"><a xlink:title=" ">
<polygon fill="#e0e0e0" stroke="#999999" points="514,-129 475,-129 475,-110 514,-110 514,-129"/>
<text text-anchor="middle" x="494.5" y="-117" font-family="Helvetica,sans-Serif" font-size="10.00">utility</text>
</a>
</g>
</g>
<!-- Node1&#45;&gt;Node11 -->
<g id="edge11" class="edge">
<title>Node1&#45;&gt;Node11</title>
<path fill="none" stroke="#63b8ff" d="M334.72,-165.94C368.54,-156.71 415.07,-143.85 463.86,-129.72"/>
<polygon fill="#63b8ff" stroke="#63b8ff" points="464.55,-133.17 473.18,-127.02 462.6,-126.45 464.55,-133.17"/>
</g>
<!-- Node3 -->
<g id="node3" class="node">
<title>Node3</title>
<g id="a_node3"><a xlink:href="board__interface_8hpp.xhtml" target="_top" xlink:title=" ">
<polygon fill="white" stroke="#666666" points="101,-74 0,-74 0,-55 101,-55 101,-74"/>
<text text-anchor="middle" x="50.5" y="-62" font-family="Helvetica,sans-Serif" font-size="10.00">board_interface.hpp</text>
</a>
</g>
</g>
<!-- Node2&#45;&gt;Node3 -->
<g id="edge2" class="edge">
<title>Node2&#45;&gt;Node3</title>
<path fill="none" stroke="#63b8ff" d="M59.68,-109.75C58.32,-103.19 56.4,-93.95 54.67,-85.6"/>
<polygon fill="#63b8ff" stroke="#63b8ff" points="58.12,-85 52.66,-75.92 51.27,-86.43 58.12,-85"/>
</g>
<!-- Node4 -->
<g id="node4" class="node">
<title>Node4</title>
<g id="a_node4"><a xlink:title=" ">
<polygon fill="#e0e0e0" stroke="#999999" points="73.5,-19 27.5,-19 27.5,0 73.5,0 73.5,-19"/>
<text text-anchor="middle" x="50.5" y="-7" font-family="Helvetica,sans-Serif" font-size="10.00">chrono</text>
</a>
</g>
</g>
<!-- Node3&#45;&gt;Node4 -->
<g id="edge3" class="edge">
<title>Node3&#45;&gt;Node4</title>
<path fill="none" stroke="#63b8ff" d="M50.5,-54.75C50.5,-48.27 50.5,-39.16 50.5,-30.9"/>
<polygon fill="#63b8ff" stroke="#63b8ff" points="54,-30.96 50.5,-20.96 47,-30.96 54,-30.96"/>
</g>
<!-- Node3&#45;&gt;Node5 -->
<g id="edge4" class="edge">
<title>Node3&#45;&gt;Node5</title>
<path fill="none" stroke="#63b8ff" d="M63.22,-54.51C74.28,-46.7 90.54,-35.21 103.67,-25.93"/>
<polygon fill="#63b8ff" stroke="#63b8ff" points="105.58,-28.86 111.73,-20.23 101.54,-23.14 105.58,-28.86"/>
</g>
<!-- Node7 -->
<g id="node7" class="node">
<title>Node7</title>
<g id="a_node7"><a xlink:title=" ">
<polygon fill="#e0e0e0" stroke="#999999" points="221.5,-74 175.5,-74 175.5,-55 221.5,-55 221.5,-74"/>
<text text-anchor="middle" x="198.5" y="-62" font-family="Helvetica,sans-Serif" font-size="10.00">cstdint</text>
</a>
</g>
</g>
<!-- Node6&#45;&gt;Node7 -->
<g id="edge6" class="edge">
<title>Node6&#45;&gt;Node7</title>
<path fill="none" stroke="#63b8ff" d="M198.5,-109.75C198.5,-103.27 198.5,-94.16 198.5,-85.9"/>
<polygon fill="#63b8ff" stroke="#63b8ff" points="202,-85.96 198.5,-75.96 195,-85.96 202,-85.96"/>
</g>
</g>
</svg>
