<?xml version="1.0" encoding="UTF-8" standalone="no"?>
<!DOCTYPE svg PUBLIC "-//W3C//DTD SVG 1.1//EN"
 "http://www.w3.org/Graphics/SVG/1.1/DTD/svg11.dtd">
<!-- Generated by graphviz version 7.0.5 (20221223.1930)
 -->
<!-- Title: lib/application_business_rules/HmiCoordinator.cpp Pages: 1 -->
<svg width="766pt" height="148pt"
 viewBox="0.00 0.00 765.50 148.00" xmlns="http://www.w3.org/2000/svg" xmlns:xlink="http://www.w3.org/1999/xlink">
<g id="graph0" class="graph" transform="scale(1 1) rotate(0) translate(4 144)">
<title>lib/application_business_rules/HmiCoordinator.cpp</title>
<!-- Node1 -->
<g id="node1" class="node">
<title>Node1</title>
<g id="a_node1"><a xlink:title=" ">
<polygon fill="#999999" stroke="#666666" points="519.5,-140 388.5,-140 388.5,-110 519.5,-110 519.5,-140"/>
<text text-anchor="start" x="396.5" y="-128" font-family="Helvetica,sans-Serif" font-size="10.00">lib/application_business</text>
<text text-anchor="middle" x="454" y="-117" font-family="Helvetica,sans-Serif" font-size="10.00">_rules/HmiCoordinator.cpp</text>
</a>
</g>
</g>
<!-- Node2 -->
<g id="node2" class="node">
<title>Node2</title>
<g id="a_node2"><a xlink:href="HmiCoordinator_8hpp.xhtml" target="_top" xlink:title=" ">
<polygon fill="white" stroke="#666666" points="102,-74 0,-74 0,-55 102,-55 102,-74"/>
<text text-anchor="middle" x="51" y="-62" font-family="Helvetica,sans-Serif" font-size="10.00">HmiCoordinator.hpp</text>
</a>
</g>
</g>
<!-- Node1&#45;&gt;Node2 -->
<g id="edge1" class="edge">
<title>Node1&#45;&gt;Node2</title>
<path fill="none" stroke="#63b8ff" d="M388.35,-114.47C312.3,-103.43 187.91,-85.37 113.31,-74.54"/>
<polygon fill="#63b8ff" stroke="#63b8ff" points="114.12,-71.13 103.72,-73.15 113.12,-78.05 114.12,-71.13"/>
</g>
<!-- Node3 -->
<g id="node3" class="node">
<title>Node3</title>
<g id="a_node3"><a xlink:href="board__interface_8hpp.xhtml" target="_top" xlink:title=" ">
<polygon fill="white" stroke="#666666" points="221.5,-74 120.5,-74 120.5,-55 221.5,-55 221.5,-74"/>
<text text-anchor="middle" x="171" y="-62" font-family="Helvetica,sans-Serif" font-size="10.00">board_interface.hpp</text>
</a>
</g>
</g>
<!-- Node1&#45;&gt;Node3 -->
<g id="edge2" class="edge">
<title>Node1&#45;&gt;Node3</title>
<path fill="none" stroke="#63b8ff" d="M388.01,-110.36C338.52,-100.13 271.6,-86.29 225.21,-76.71"/>
<polygon fill="#63b8ff" stroke="#63b8ff" points="226.16,-73.33 215.66,-74.73 224.75,-80.18 226.16,-73.33"/>
</g>
<!-- Node6 -->
<g id="node6" class="node">
<title>Node6</title>
<g id="a_node6"><a xlink:href="serial__port__interface_8hpp.xhtml" target="_top" xlink:title=" ">
<polygon fill="white" stroke="#666666" points="463,-74 341,-74 341,-55 463,-55 463,-74"/>
<text text-anchor="middle" x="402" y="-62" font-family="Helvetica,sans-Serif" font-size="10.00">serial_port_interface.hpp</text>
</a>
</g>
</g>
<!-- Node1&#45;&gt;Node6 -->
<g id="edge5" class="edge">
<title>Node1&#45;&gt;Node6</title>
<path fill="none" stroke="#63b8ff" d="M441.15,-109.54C433.9,-101.39 424.81,-91.16 417.21,-82.61"/>
<polygon fill="#63b8ff" stroke="#63b8ff" points="419.98,-80.46 410.72,-75.31 414.74,-85.11 419.98,-80.46"/>
</g>
<!-- Node11 -->
<g id="node11" class="node">
<title>Node11</title>
<g id="a_node11"><a xlink:href="Task_8hpp.xhtml" target="_top" xlink:title=" ">
<polygon fill="white" stroke="#666666" points="322.5,-74 239.5,-74 239.5,-55 322.5,-55 322.5,-74"/>
<text text-anchor="middle" x="281" y="-62" font-family="Helvetica,sans-Serif" font-size="10.00">tasks/Task.hpp</text>
</a>
</g>
</g>
<!-- Node1&#45;&gt;Node11 -->
<g id="edge11" class="edge">
<title>Node1&#45;&gt;Node11</title>
<path fill="none" stroke="#63b8ff" d="M411.24,-109.54C382.65,-99.87 345.43,-87.29 318.1,-78.04"/>
<polygon fill="#63b8ff" stroke="#63b8ff" points="319.44,-74.8 308.85,-74.92 317.2,-81.44 319.44,-74.8"/>
</g>
<!-- Node13 -->
<g id="node13" class="node">
<title>Node13</title>
<g id="a_node13"><a xlink:title=" ">
<polygon fill="#e0e0e0" stroke="#999999" points="530.5,-74 481.5,-74 481.5,-55 530.5,-55 530.5,-74"/>
<text text-anchor="middle" x="506" y="-62" font-family="Helvetica,sans-Serif" font-size="10.00">cstddef</text>
</a>
</g>
</g>
<!-- Node1&#45;&gt;Node13 -->
<g id="edge15" class="edge">
<title>Node1&#45;&gt;Node13</title>
<path fill="none" stroke="#63b8ff" d="M466.85,-109.54C474.1,-101.39 483.19,-91.16 490.79,-82.61"/>
<polygon fill="#63b8ff" stroke="#63b8ff" points="493.26,-85.11 497.28,-75.31 488.02,-80.46 493.26,-85.11"/>
</g>
<!-- Node14 -->
<g id="node14" class="node">
<title>Node14</title>
<g id="a_node14"><a xlink:title=" ">
<polygon fill="#e0e0e0" stroke="#999999" points="595.5,-74 548.5,-74 548.5,-55 595.5,-55 595.5,-74"/>
<text text-anchor="middle" x="572" y="-62" font-family="Helvetica,sans-Serif" font-size="10.00">iterator</text>
</a>
</g>
</g>
<!-- Node1&#45;&gt;Node14 -->
<g id="edge16" class="edge">
<title>Node1&#45;&gt;Node14</title>
<path fill="none" stroke="#63b8ff" d="M483.17,-109.54C501.77,-100.32 525.73,-88.44 544.08,-79.34"/>
<polygon fill="#63b8ff" stroke="#63b8ff" points="545.4,-82.6 552.8,-75.02 542.29,-76.32 545.4,-82.6"/>
</g>
<!-- Node15 -->
<g id="node15" class="node">
<title>Node15</title>
<g id="a_node15"><a xlink:href="pitches_8hpp.xhtml" target="_top" xlink:title=" ">
<polygon fill="white" stroke="#666666" points="680,-74 614,-74 614,-55 680,-55 680,-74"/>
<text text-anchor="middle" x="647" y="-62" font-family="Helvetica,sans-Serif" font-size="10.00">pitches.hpp</text>
</a>
</g>
</g>
<!-- Node1&#45;&gt;Node15 -->
<g id="edge17" class="edge">
<title>Node1&#45;&gt;Node15</title>
<path fill="none" stroke="#63b8ff" d="M501.71,-109.54C534.02,-99.75 576.23,-86.95 606.83,-77.68"/>
<polygon fill="#63b8ff" stroke="#63b8ff" points="607.53,-81.12 616.08,-74.87 605.5,-74.42 607.53,-81.12"/>
</g>
<!-- Node17 -->
<g id="node17" class="node">
<title>Node17</title>
<g id="a_node17"><a xlink:title=" ">
<polygon fill="#e0e0e0" stroke="#999999" points="757.5,-74 698.5,-74 698.5,-55 757.5,-55 757.5,-74"/>
<text text-anchor="middle" x="728" y="-62" font-family="Helvetica,sans-Serif" font-size="10.00">stdexcept</text>
</a>
</g>
</g>
<!-- Node1&#45;&gt;Node17 -->
<g id="edge19" class="edge">
<title>Node1&#45;&gt;Node17</title>
<path fill="none" stroke="#63b8ff" d="M519.86,-110.08C564.31,-100.66 624.61,-87.85 686.95,-74.43"/>
<polygon fill="#63b8ff" stroke="#63b8ff" points="687.67,-77.86 696.71,-72.33 686.2,-71.01 687.67,-77.86"/>
</g>
<!-- Node4 -->
<g id="node4" class="node">
<title>Node4</title>
<g id="a_node4"><a xlink:title=" ">
<polygon fill="#e0e0e0" stroke="#999999" points="172,-19 126,-19 126,0 172,0 172,-19"/>
<text text-anchor="middle" x="149" y="-7" font-family="Helvetica,sans-Serif" font-size="10.00">chrono</text>
</a>
</g>
</g>
<!-- Node3&#45;&gt;Node4 -->
<g id="edge3" class="edge">
<title>Node3&#45;&gt;Node4</title>
<path fill="none" stroke="#63b8ff" d="M167.37,-54.75C164.58,-48.04 160.63,-38.52 157.1,-30.02"/>
<polygon fill="#63b8ff" stroke="#63b8ff" points="160.36,-28.73 153.29,-20.84 153.89,-31.42 160.36,-28.73"/>
</g>
<!-- Node5 -->
<g id="node5" class="node">
<title>Node5</title>
<g id="a_node5"><a xlink:title=" ">
<polygon fill="#e0e0e0" stroke="#999999" points="249.5,-19 190.5,-19 190.5,0 249.5,0 249.5,-19"/>
<text text-anchor="middle" x="220" y="-7" font-family="Helvetica,sans-Serif" font-size="10.00">functional</text>
</a>
</g>
</g>
<!-- Node3&#45;&gt;Node5 -->
<g id="edge4" class="edge">
<title>Node3&#45;&gt;Node5</title>
<path fill="none" stroke="#63b8ff" d="M179.09,-54.75C185.86,-47.43 195.72,-36.76 204.06,-27.74"/>
<polygon fill="#63b8ff" stroke="#63b8ff" points="206.49,-30.27 210.71,-20.55 201.35,-25.52 206.49,-30.27"/>
</g>
<!-- Node6&#45;&gt;Node5 -->
<g id="edge7" class="edge">
<title>Node6&#45;&gt;Node5</title>
<path fill="none" stroke="#63b8ff" d="M371.13,-54.51C340.69,-45.65 294.02,-32.06 260.6,-22.32"/>
<polygon fill="#63b8ff" stroke="#63b8ff" points="261.85,-19.04 251.27,-19.61 259.89,-25.76 261.85,-19.04"/>
</g>
<!-- Node7 -->
<g id="node7" class="node">
<title>Node7</title>
<g id="a_node7"><a xlink:title=" ">
<polygon fill="#e0e0e0" stroke="#999999" points="418,-19 380,-19 380,0 418,0 418,-19"/>
<text text-anchor="middle" x="399" y="-7" font-family="Helvetica,sans-Serif" font-size="10.00">array</text>
</a>
</g>
</g>
<!-- Node6&#45;&gt;Node7 -->
<g id="edge6" class="edge">
<title>Node6&#45;&gt;Node7</title>
<path fill="none" stroke="#63b8ff" d="M401.5,-54.75C401.14,-48.27 400.62,-39.16 400.15,-30.9"/>
<polygon fill="#63b8ff" stroke="#63b8ff" points="403.65,-30.74 399.59,-20.95 396.66,-31.13 403.65,-30.74"/>
</g>
<!-- Node8 -->
<g id="node8" class="node">
<title>Node8</title>
<g id="a_node8"><a xlink:title=" ">
<polygon fill="#e0e0e0" stroke="#999999" points="486,-19 436,-19 436,0 486,0 486,-19"/>
<text text-anchor="middle" x="461" y="-7" font-family="Helvetica,sans-Serif" font-size="10.00">optional</text>
</a>
</g>
</g>
<!-- Node6&#45;&gt;Node8 -->
<g id="edge8" class="edge">
<title>Node6&#45;&gt;Node8</title>
<path fill="none" stroke="#63b8ff" d="M412.01,-54.51C420.37,-47 432.5,-36.1 442.6,-27.03"/>
<polygon fill="#63b8ff" stroke="#63b8ff" points="444.91,-29.66 450.01,-20.37 440.24,-24.45 444.91,-29.66"/>
</g>
<!-- Node9 -->
<g id="node9" class="node">
<title>Node9</title>
<g id="a_node9"><a xlink:title=" ">
<polygon fill="#e0e0e0" stroke="#999999" points="556,-19 504,-19 504,0 556,0 556,-19"/>
<text text-anchor="middle" x="530" y="-7" font-family="Helvetica,sans-Serif" font-size="10.00">ostream</text>
</a>
</g>
</g>
<!-- Node6&#45;&gt;Node9 -->
<g id="edge9" class="edge">
<title>Node6&#45;&gt;Node9</title>
<path fill="none" stroke="#63b8ff" d="M423.71,-54.51C444.16,-46.04 475.02,-33.27 498.23,-23.66"/>
<polygon fill="#63b8ff" stroke="#63b8ff" points="499.31,-27 507.21,-19.94 496.63,-20.53 499.31,-27"/>
</g>
<!-- Node10 -->
<g id="node10" class="node">
<title>Node10</title>
<g id="a_node10"><a xlink:title=" ">
<polygon fill="#e0e0e0" stroke="#999999" points="361.5,-19 320.5,-19 320.5,0 361.5,0 361.5,-19"/>
<text text-anchor="middle" x="341" y="-7" font-family="Helvetica,sans-Serif" font-size="10.00">string</text>
</a>
</g>
</g>
<!-- Node6&#45;&gt;Node10 -->
<g id="edge10" class="edge">
<title>Node6&#45;&gt;Node10</title>
<path fill="none" stroke="#63b8ff" d="M391.65,-54.51C382.92,-46.93 370.21,-35.88 359.7,-26.75"/>
<polygon fill="#63b8ff" stroke="#63b8ff" points="362.18,-24.27 352.34,-20.35 357.59,-29.55 362.18,-24.27"/>
</g>
<!-- Node11&#45;&gt;Node4 -->
<g id="edge12" class="edge">
<title>Node11&#45;&gt;Node4</title>
<path fill="none" stroke="#63b8ff" d="M258.61,-54.51C237.43,-46.01 205.41,-33.15 181.44,-23.53"/>
<polygon fill="#63b8ff" stroke="#63b8ff" points="183.05,-20.4 172.47,-19.92 180.44,-26.9 183.05,-20.4"/>
</g>
<!-- Node11&#45;&gt;Node10 -->
<g id="edge14" class="edge">
<title>Node11&#45;&gt;Node10</title>
<path fill="none" stroke="#63b8ff" d="M291.18,-54.51C299.76,-46.93 312.27,-35.88 322.6,-26.75"/>
<polygon fill="#63b8ff" stroke="#63b8ff" points="324.66,-29.6 329.84,-20.36 320.03,-24.36 324.66,-29.6"/>
</g>
<!-- Node12 -->
<g id="node12" class="node">
<title>Node12</title>
<g id="a_node12"><a xlink:title=" ">
<polygon fill="#e0e0e0" stroke="#999999" points="302.5,-19 267.5,-19 267.5,0 302.5,0 302.5,-19"/>
<text text-anchor="middle" x="285" y="-7" font-family="Helvetica,sans-Serif" font-size="10.00">map</text>
</a>
</g>
</g>
<!-- Node11&#45;&gt;Node12 -->
<g id="edge13" class="edge">
<title>Node11&#45;&gt;Node12</title>
<path fill="none" stroke="#63b8ff" d="M281.66,-54.75C282.15,-48.27 282.84,-39.16 283.46,-30.9"/>
<polygon fill="#63b8ff" stroke="#63b8ff" points="286.95,-31.19 284.21,-20.95 279.97,-30.66 286.95,-31.19"/>
</g>
<!-- Node16 -->
<g id="node16" class="node">
<title>Node16</title>
<g id="a_node16"><a xlink:title=" ">
<polygon fill="#e0e0e0" stroke="#999999" points="670,-19 624,-19 624,0 670,0 670,-19"/>
<text text-anchor="middle" x="647" y="-7" font-family="Helvetica,sans-Serif" font-size="10.00">cstdint</text>
</a>
</g>
</g>
<!-- Node15&#45;&gt;Node16 -->
<g id="edge18" class="edge">
<title>Node15&#45;&gt;Node16</title>
<path fill="none" stroke="#63b8ff" d="M647,-54.75C647,-48.27 647,-39.16 647,-30.9"/>
<polygon fill="#63b8ff" stroke="#63b8ff" points="650.5,-30.96 647,-20.96 643.5,-30.96 650.5,-30.96"/>
</g>
</g>
</svg>
