<?xml version="1.0" encoding="UTF-8" standalone="no"?>
<!DOCTYPE svg PUBLIC "-//W3C//DTD SVG 1.1//EN"
 "http://www.w3.org/Graphics/SVG/1.1/DTD/svg11.dtd">
<!-- Generated by graphviz version 7.0.5 (20221223.1930)
 -->
<!-- Title: src/main.cpp Pages: 1 -->
<svg width="714pt" height="137pt"
 viewBox="0.00 0.00 713.50 137.00" xmlns="http://www.w3.org/2000/svg" xmlns:xlink="http://www.w3.org/1999/xlink">
<g id="graph0" class="graph" transform="scale(1 1) rotate(0) translate(4 133)">
<title>src/main.cpp</title>
<!-- Node1 -->
<g id="node1" class="node">
<title>Node1</title>
<g id="a_node1"><a xlink:title=" ">
<polygon fill="#999999" stroke="#666666" points="285,-129 213,-129 213,-110 285,-110 285,-129"/>
<text text-anchor="middle" x="249" y="-117" font-family="Helvetica,sans-Serif" font-size="10.00">src/main.cpp</text>
</a>
</g>
</g>
<!-- Node2 -->
<g id="node2" class="node">
<title>Node2</title>
<g id="a_node2"><a xlink:href="board__pins_8hpp.xhtml" target="_top" xlink:title="Provides named objects for the pins provided by the board.">
<polygon fill="white" stroke="#666666" points="82,-74 0,-74 0,-55 82,-55 82,-74"/>
<text text-anchor="middle" x="41" y="-62" font-family="Helvetica,sans-Serif" font-size="10.00">board_pins.hpp</text>
</a>
</g>
</g>
<!-- Node1&#45;&gt;Node2 -->
<g id="edge1" class="edge">
<title>Node1&#45;&gt;Node2</title>
<path fill="none" stroke="#63b8ff" d="M213.72,-109.51C178.8,-100.61 125.17,-86.95 86.95,-77.21"/>
<polygon fill="#63b8ff" stroke="#63b8ff" points="88.13,-73.9 77.58,-74.82 86.4,-80.68 88.13,-73.9"/>
</g>
<!-- Node3 -->
<g id="node3" class="node">
<title>Node3</title>
<g id="a_node3"><a xlink:title=" ">
<polygon fill="#e0e0e0" stroke="#999999" points="133,-19 87,-19 87,0 133,0 133,-19"/>
<text text-anchor="middle" x="110" y="-7" font-family="Helvetica,sans-Serif" font-size="10.00">cstdint</text>
</a>
</g>
</g>
<!-- Node1&#45;&gt;Node3 -->
<g id="edge9" class="edge">
<title>Node1&#45;&gt;Node3</title>
<path fill="none" stroke="#63b8ff" d="M212.76,-113.8C186.12,-108.5 150.88,-97.34 129,-74 117.91,-62.17 113.27,-44.13 111.34,-30.3"/>
<polygon fill="#63b8ff" stroke="#63b8ff" points="114.85,-30.19 110.38,-20.58 107.88,-30.88 114.85,-30.19"/>
</g>
<!-- Node4 -->
<g id="node4" class="node">
<title>Node4</title>
<g id="a_node4"><a xlink:href="display_8h.xhtml" target="_top" xlink:title=" ">
<polygon fill="white" stroke="#666666" points="276,-74 222,-74 222,-55 276,-55 276,-74"/>
<text text-anchor="middle" x="249" y="-62" font-family="Helvetica,sans-Serif" font-size="10.00">display.h</text>
</a>
</g>
</g>
<!-- Node1&#45;&gt;Node4 -->
<g id="edge3" class="edge">
<title>Node1&#45;&gt;Node4</title>
<path fill="none" stroke="#63b8ff" d="M249,-109.75C249,-103.27 249,-94.16 249,-85.9"/>
<polygon fill="#63b8ff" stroke="#63b8ff" points="252.5,-85.96 249,-75.96 245.5,-85.96 252.5,-85.96"/>
</g>
<!-- Node6 -->
<g id="node6" class="node">
<title>Node6</title>
<g id="a_node6"><a xlink:href="pitches_8hpp.xhtml" target="_top" xlink:title=" ">
<polygon fill="white" stroke="#666666" points="204,-74 138,-74 138,-55 204,-55 204,-74"/>
<text text-anchor="middle" x="171" y="-62" font-family="Helvetica,sans-Serif" font-size="10.00">pitches.hpp</text>
</a>
</g>
</g>
<!-- Node1&#45;&gt;Node6 -->
<g id="edge5" class="edge">
<title>Node1&#45;&gt;Node6</title>
<path fill="none" stroke="#63b8ff" d="M235.77,-109.51C224.16,-101.62 207.03,-89.98 193.3,-80.65"/>
<polygon fill="#63b8ff" stroke="#63b8ff" points="195.53,-77.93 185.29,-75.21 191.59,-83.72 195.53,-77.93"/>
</g>
<!-- Node7 -->
<g id="node7" class="node">
<title>Node7</title>
<g id="a_node7"><a xlink:title=" ">
<polygon fill="#e0e0e0" stroke="#999999" points="351.5,-74 294.5,-74 294.5,-55 351.5,-55 351.5,-74"/>
<text text-anchor="middle" x="323" y="-62" font-family="Helvetica,sans-Serif" font-size="10.00">Arduino.h</text>
</a>
</g>
</g>
<!-- Node1&#45;&gt;Node7 -->
<g id="edge7" class="edge">
<title>Node1&#45;&gt;Node7</title>
<path fill="none" stroke="#63b8ff" d="M261.55,-109.51C272.46,-101.7 288.5,-90.21 301.46,-80.93"/>
<polygon fill="#63b8ff" stroke="#63b8ff" points="303.31,-83.91 309.4,-75.24 299.23,-78.22 303.31,-83.91"/>
</g>
<!-- Node8 -->
<g id="node8" class="node">
<title>Node8</title>
<g id="a_node8"><a xlink:href="HmiCoordinator_8hpp.xhtml" target="_top" xlink:title=" ">
<polygon fill="white" stroke="#666666" points="472,-74 370,-74 370,-55 472,-55 472,-74"/>
<text text-anchor="middle" x="421" y="-62" font-family="Helvetica,sans-Serif" font-size="10.00">HmiCoordinator.hpp</text>
</a>
</g>
</g>
<!-- Node1&#45;&gt;Node8 -->
<g id="edge8" class="edge">
<title>Node1&#45;&gt;Node8</title>
<path fill="none" stroke="#63b8ff" d="M278.18,-109.51C306.56,-100.76 349.88,-87.42 381.37,-77.71"/>
<polygon fill="#63b8ff" stroke="#63b8ff" points="381.99,-81.18 390.52,-74.89 379.93,-74.49 381.99,-81.18"/>
</g>
<!-- Node9 -->
<g id="node9" class="node">
<title>Node9</title>
<g id="a_node9"><a xlink:href="serial__port__interface_8hpp.xhtml" target="_top" xlink:title=" ">
<polygon fill="white" stroke="#666666" points="612,-74 490,-74 490,-55 612,-55 612,-74"/>
<text text-anchor="middle" x="551" y="-62" font-family="Helvetica,sans-Serif" font-size="10.00">serial_port_interface.hpp</text>
</a>
</g>
</g>
<!-- Node1&#45;&gt;Node9 -->
<g id="edge10" class="edge">
<title>Node1&#45;&gt;Node9</title>
<path fill="none" stroke="#63b8ff" d="M285.43,-112.11C335.79,-103.27 427.4,-87.19 488.74,-76.43"/>
<polygon fill="#63b8ff" stroke="#63b8ff" points="489.08,-79.92 498.33,-74.74 487.87,-73.02 489.08,-79.92"/>
</g>
<!-- Node2&#45;&gt;Node3 -->
<g id="edge2" class="edge">
<title>Node2&#45;&gt;Node3</title>
<path fill="none" stroke="#63b8ff" d="M52.7,-54.51C62.78,-46.77 77.54,-35.43 89.56,-26.2"/>
<polygon fill="#63b8ff" stroke="#63b8ff" points="91.47,-29.15 97.27,-20.28 87.21,-23.6 91.47,-29.15"/>
</g>
<!-- Node5 -->
<g id="node5" class="node">
<title>Node5</title>
<g id="a_node5"><a xlink:title=" ">
<polygon fill="#e0e0e0" stroke="#999999" points="273,-19 225,-19 225,0 273,0 273,-19"/>
<text text-anchor="middle" x="249" y="-7" font-family="Helvetica,sans-Serif" font-size="10.00">stdint.h</text>
</a>
</g>
</g>
<!-- Node4&#45;&gt;Node5 -->
<g id="edge4" class="edge">
<title>Node4&#45;&gt;Node5</title>
<path fill="none" stroke="#63b8ff" d="M249,-54.75C249,-48.27 249,-39.16 249,-30.9"/>
<polygon fill="#63b8ff" stroke="#63b8ff" points="252.5,-30.96 249,-20.96 245.5,-30.96 252.5,-30.96"/>
</g>
<!-- Node6&#45;&gt;Node3 -->
<g id="edge6" class="edge">
<title>Node6&#45;&gt;Node3</title>
<path fill="none" stroke="#63b8ff" d="M160.65,-54.51C151.92,-46.93 139.21,-35.88 128.7,-26.75"/>
<polygon fill="#63b8ff" stroke="#63b8ff" points="131.18,-24.27 121.34,-20.35 126.59,-29.55 131.18,-24.27"/>
</g>
<!-- Node10 -->
<g id="node10" class="node">
<title>Node10</title>
<g id="a_node10"><a xlink:title=" ">
<polygon fill="#e0e0e0" stroke="#999999" points="430,-19 392,-19 392,0 430,0 430,-19"/>
<text text-anchor="middle" x="411" y="-7" font-family="Helvetica,sans-Serif" font-size="10.00">array</text>
</a>
</g>
</g>
<!-- Node9&#45;&gt;Node10 -->
<g id="edge11" class="edge">
<title>Node9&#45;&gt;Node10</title>
<path fill="none" stroke="#63b8ff" d="M527.25,-54.51C503.47,-45.51 466.79,-31.62 441,-21.86"/>
<polygon fill="#63b8ff" stroke="#63b8ff" points="442.36,-18.63 431.76,-18.36 439.88,-25.17 442.36,-18.63"/>
</g>
<!-- Node11 -->
<g id="node11" class="node">
<title>Node11</title>
<g id="a_node11"><a xlink:title=" ">
<polygon fill="#e0e0e0" stroke="#999999" points="507.5,-19 448.5,-19 448.5,0 507.5,0 507.5,-19"/>
<text text-anchor="middle" x="478" y="-7" font-family="Helvetica,sans-Serif" font-size="10.00">functional</text>
</a>
</g>
</g>
<!-- Node9&#45;&gt;Node11 -->
<g id="edge12" class="edge">
<title>Node9&#45;&gt;Node11</title>
<path fill="none" stroke="#63b8ff" d="M538.62,-54.51C527.85,-46.7 512.03,-35.21 499.25,-25.93"/>
<polygon fill="#63b8ff" stroke="#63b8ff" points="501.57,-23.29 491.43,-20.25 497.46,-28.95 501.57,-23.29"/>
</g>
<!-- Node12 -->
<g id="node12" class="node">
<title>Node12</title>
<g id="a_node12"><a xlink:title=" ">
<polygon fill="#e0e0e0" stroke="#999999" points="576,-19 526,-19 526,0 576,0 576,-19"/>
<text text-anchor="middle" x="551" y="-7" font-family="Helvetica,sans-Serif" font-size="10.00">optional</text>
</a>
</g>
</g>
<!-- Node9&#45;&gt;Node12 -->
<g id="edge13" class="edge">
<title>Node9&#45;&gt;Node12</title>
<path fill="none" stroke="#63b8ff" d="M551,-54.75C551,-48.27 551,-39.16 551,-30.9"/>
<polygon fill="#63b8ff" stroke="#63b8ff" points="554.5,-30.96 551,-20.96 547.5,-30.96 554.5,-30.96"/>
</g>
<!-- Node13 -->
<g id="node13" class="node">
<title>Node13</title>
<g id="a_node13"><a xlink:title=" ">
<polygon fill="#e0e0e0" stroke="#999999" points="646,-19 594,-19 594,0 646,0 646,-19"/>
<text text-anchor="middle" x="620" y="-7" font-family="Helvetica,sans-Serif" font-size="10.00">ostream</text>
</a>
</g>
</g>
<!-- Node9&#45;&gt;Node13 -->
<g id="edge14" class="edge">
<title>Node9&#45;&gt;Node13</title>
<path fill="none" stroke="#63b8ff" d="M562.7,-54.51C572.78,-46.77 587.54,-35.43 599.56,-26.2"/>
<polygon fill="#63b8ff" stroke="#63b8ff" points="601.47,-29.15 607.27,-20.28 597.21,-23.6 601.47,-29.15"/>
</g>
<!-- Node14 -->
<g id="node14" class="node">
<title>Node14</title>
<g id="a_node14"><a xlink:title=" ">
<polygon fill="#e0e0e0" stroke="#999999" points="705.5,-19 664.5,-19 664.5,0 705.5,0 705.5,-19"/>
<text text-anchor="middle" x="685" y="-7" font-family="Helvetica,sans-Serif" font-size="10.00">string</text>
</a>
</g>
</g>
<!-- Node9&#45;&gt;Node14 -->
<g id="edge15" class="edge">
<title>Node9&#45;&gt;Node14</title>
<path fill="none" stroke="#63b8ff" d="M573.73,-54.51C595.75,-45.8 629.31,-32.53 653.81,-22.84"/>
<polygon fill="#63b8ff" stroke="#63b8ff" points="654.94,-26.15 662.95,-19.22 652.37,-19.64 654.94,-26.15"/>
</g>
</g>
</svg>
