<?xml version="1.0" encoding="UTF-8" standalone="no"?>
<!DOCTYPE svg PUBLIC "-//W3C//DTD SVG 1.1//EN"
 "http://www.w3.org/Graphics/SVG/1.1/DTD/svg11.dtd">
<!-- Generated by graphviz version 7.0.5 (20221223.1930)
 -->
<!-- Title: src/display.cpp Pages: 1 -->
<svg width="471pt" height="192pt"
 viewBox="0.00 0.00 471.00 192.00" xmlns="http://www.w3.org/2000/svg" xmlns:xlink="http://www.w3.org/1999/xlink">
<g id="graph0" class="graph" transform="scale(1 1) rotate(0) translate(4 188)">
<title>src/display.cpp</title>
<!-- Node1 -->
<g id="node1" class="node">
<title>Node1</title>
<g id="a_node1"><a xlink:title=" ">
<polygon fill="#999999" stroke="#666666" points="276,-184 195,-184 195,-165 276,-165 276,-184"/>
<text text-anchor="middle" x="235.5" y="-172" font-family="Helvetica,sans-Serif" font-size="10.00">src/display.cpp</text>
</a>
</g>
</g>
<!-- Node2 -->
<g id="node2" class="node">
<title>Node2</title>
<g id="a_node2"><a xlink:href="HMI__Menu_8hpp.xhtml" target="_top" xlink:title=" ">
<polygon fill="white" stroke="#666666" points="83,-129 0,-129 0,-110 83,-110 83,-129"/>
<text text-anchor="middle" x="41.5" y="-117" font-family="Helvetica,sans-Serif" font-size="10.00">HMI_Menu.hpp</text>
</a>
</g>
</g>
<!-- Node1&#45;&gt;Node2 -->
<g id="edge1" class="edge">
<title>Node1&#45;&gt;Node2</title>
<path fill="none" stroke="#63b8ff" d="M202.59,-164.51C170.3,-155.69 120.87,-142.18 85.28,-132.46"/>
<polygon fill="#63b8ff" stroke="#63b8ff" points="86.28,-129.1 75.71,-129.85 84.43,-135.86 86.28,-129.1"/>
</g>
<!-- Node3 -->
<g id="node3" class="node">
<title>Node3</title>
<g id="a_node3"><a xlink:href="board__pins_8hpp.xhtml" target="_top" xlink:title="Provides named objects for the pins provided by the board.">
<polygon fill="white" stroke="#666666" points="221.5,-129 139.5,-129 139.5,-110 221.5,-110 221.5,-129"/>
<text text-anchor="middle" x="180.5" y="-117" font-family="Helvetica,sans-Serif" font-size="10.00">board_pins.hpp</text>
</a>
</g>
</g>
<!-- Node1&#45;&gt;Node3 -->
<g id="edge2" class="edge">
<title>Node1&#45;&gt;Node3</title>
<path fill="none" stroke="#63b8ff" d="M226.42,-164.75C218.66,-157.27 207.29,-146.32 197.8,-137.17"/>
<polygon fill="#63b8ff" stroke="#63b8ff" points="200.5,-134.91 190.87,-130.49 195.64,-139.95 200.5,-134.91"/>
</g>
<!-- Node5 -->
<g id="node5" class="node">
<title>Node5</title>
<g id="a_node5"><a xlink:title=" ">
<polygon fill="#e0e0e0" stroke="#999999" points="147,-19 90,-19 90,0 147,0 147,-19"/>
<text text-anchor="middle" x="118.5" y="-7" font-family="Helvetica,sans-Serif" font-size="10.00">Arduino.h</text>
</a>
</g>
</g>
<!-- Node1&#45;&gt;Node5 -->
<g id="edge8" class="edge">
<title>Node1&#45;&gt;Node5</title>
<path fill="none" stroke="#63b8ff" d="M194.54,-166.62C172,-160.61 145.6,-149.48 130.5,-129 109.19,-100.1 111.27,-55.88 114.81,-30.42"/>
<polygon fill="#63b8ff" stroke="#63b8ff" points="118.23,-31.22 116.38,-20.78 111.32,-30.09 118.23,-31.22"/>
</g>
<!-- Node8 -->
<g id="node8" class="node">
<title>Node8</title>
<g id="a_node8"><a xlink:title=" ">
<polygon fill="#e0e0e0" stroke="#999999" points="343.5,-129 239.5,-129 239.5,-110 343.5,-110 343.5,-129"/>
<text text-anchor="middle" x="291.5" y="-117" font-family="Helvetica,sans-Serif" font-size="10.00">Adafruit_SSD1306.h</text>
</a>
</g>
</g>
<!-- Node1&#45;&gt;Node8 -->
<g id="edge7" class="edge">
<title>Node1&#45;&gt;Node8</title>
<path fill="none" stroke="#63b8ff" d="M245,-164.51C252.93,-157 264.45,-146.1 274.04,-137.03"/>
<polygon fill="#63b8ff" stroke="#63b8ff" points="276.18,-139.81 281.04,-130.4 271.37,-134.73 276.18,-139.81"/>
</g>
<!-- Node9 -->
<g id="node9" class="node">
<title>Node9</title>
<g id="a_node9"><a xlink:title=" ">
<polygon fill="#e0e0e0" stroke="#999999" points="405.5,-129 361.5,-129 361.5,-110 405.5,-110 405.5,-129"/>
<text text-anchor="middle" x="383.5" y="-117" font-family="Helvetica,sans-Serif" font-size="10.00">Wire.h</text>
</a>
</g>
</g>
<!-- Node1&#45;&gt;Node9 -->
<g id="edge9" class="edge">
<title>Node1&#45;&gt;Node9</title>
<path fill="none" stroke="#63b8ff" d="M260.61,-164.51C285.4,-155.63 323.44,-142.01 350.62,-132.27"/>
<polygon fill="#63b8ff" stroke="#63b8ff" points="351.52,-135.67 359.76,-129 349.16,-129.08 351.52,-135.67"/>
</g>
<!-- Node10 -->
<g id="node10" class="node">
<title>Node10</title>
<g id="a_node10"><a xlink:title=" ">
<polygon fill="#e0e0e0" stroke="#999999" points="463,-129 424,-129 424,-110 463,-110 463,-129"/>
<text text-anchor="middle" x="443.5" y="-117" font-family="Helvetica,sans-Serif" font-size="10.00">lvgl.h</text>
</a>
</g>
</g>
<!-- Node1&#45;&gt;Node10 -->
<g id="edge10" class="edge">
<title>Node1&#45;&gt;Node10</title>
<path fill="none" stroke="#63b8ff" d="M273.33,-164.58C307.37,-156.44 359.01,-143.84 412.78,-129.38"/>
<polygon fill="#63b8ff" stroke="#63b8ff" points="413.36,-132.85 422.1,-126.86 411.53,-126.09 413.36,-132.85"/>
</g>
<!-- Node4 -->
<g id="node4" class="node">
<title>Node4</title>
<g id="a_node4"><a xlink:href="framework__config_8hpp.xhtml" target="_top" xlink:title="Provides defintions which are specific for the used framework.">
<polygon fill="white" stroke="#666666" points="251,-74 140,-74 140,-55 251,-55 251,-74"/>
<text text-anchor="middle" x="195.5" y="-62" font-family="Helvetica,sans-Serif" font-size="10.00">framework_config.hpp</text>
</a>
</g>
</g>
<!-- Node3&#45;&gt;Node4 -->
<g id="edge3" class="edge">
<title>Node3&#45;&gt;Node4</title>
<path fill="none" stroke="#63b8ff" d="M182.98,-109.75C184.85,-103.11 187.51,-93.73 189.89,-85.31"/>
<polygon fill="#63b8ff" stroke="#63b8ff" points="193.2,-86.47 192.56,-75.9 186.47,-84.57 193.2,-86.47"/>
</g>
<!-- Node4&#45;&gt;Node5 -->
<g id="edge4" class="edge">
<title>Node4&#45;&gt;Node5</title>
<path fill="none" stroke="#63b8ff" d="M182.44,-54.51C170.98,-46.62 154.07,-34.98 140.52,-25.65"/>
<polygon fill="#63b8ff" stroke="#63b8ff" points="142.84,-23 132.62,-20.22 138.87,-28.77 142.84,-23"/>
</g>
<!-- Node6 -->
<g id="node6" class="node">
<title>Node6</title>
<g id="a_node6"><a xlink:title=" ">
<polygon fill="#e0e0e0" stroke="#999999" points="214.5,-19 168.5,-19 168.5,0 214.5,0 214.5,-19"/>
<text text-anchor="middle" x="191.5" y="-7" font-family="Helvetica,sans-Serif" font-size="10.00">cstdint</text>
</a>
</g>
</g>
<!-- Node4&#45;&gt;Node6 -->
<g id="edge5" class="edge">
<title>Node4&#45;&gt;Node6</title>
<path fill="none" stroke="#63b8ff" d="M194.84,-54.75C194.35,-48.27 193.66,-39.16 193.04,-30.9"/>
<polygon fill="#63b8ff" stroke="#63b8ff" points="196.53,-30.66 192.29,-20.95 189.55,-31.19 196.53,-30.66"/>
</g>
<!-- Node7 -->
<g id="node7" class="node">
<title>Node7</title>
<g id="a_node7"><a xlink:title=" ">
<polygon fill="#e0e0e0" stroke="#999999" points="294.5,-19 232.5,-19 232.5,0 294.5,0 294.5,-19"/>
<text text-anchor="middle" x="263.5" y="-7" font-family="Helvetica,sans-Serif" font-size="10.00">type_traits</text>
</a>
</g>
</g>
<!-- Node4&#45;&gt;Node7 -->
<g id="edge6" class="edge">
<title>Node4&#45;&gt;Node7</title>
<path fill="none" stroke="#63b8ff" d="M207.04,-54.51C216.96,-46.77 231.51,-35.43 243.36,-26.2"/>
<polygon fill="#63b8ff" stroke="#63b8ff" points="245.21,-29.2 250.94,-20.29 240.9,-23.68 245.21,-29.2"/>
</g>
</g>
</svg>
