<?xml version="1.0" encoding="UTF-8" standalone="no"?>
<!DOCTYPE svg PUBLIC "-//W3C//DTD SVG 1.1//EN"
 "http://www.w3.org/Graphics/SVG/1.1/DTD/svg11.dtd">
<!-- Generated by graphviz version 7.0.5 (20221223.1930)
 -->
<!-- Title: Graphical Class Hierarchy Pages: 1 -->
<svg width="243pt" height="101pt"
 viewBox="0.00 0.00 243.00 101.00" xmlns="http://www.w3.org/2000/svg" xmlns:xlink="http://www.w3.org/1999/xlink">
<g id="graph0" class="graph" transform="scale(1 1) rotate(0) translate(4 97)">
<title>Graphical Class Hierarchy</title>
<!-- Node0 -->
<g id="node1" class="node">
<title>Node0</title>
<g id="a_node1"><a xlink:href="structHMI_1_1IMenuItem.xhtml" target="_top" xlink:title=" ">
<polygon fill="white" stroke="#666666" points="86,-56 0,-56 0,-37 86,-37 86,-56"/>
<text text-anchor="middle" x="43" y="-44" font-family="Helvetica,sans-Serif" font-size="10.00">HMI::IMenuItem</text>
</a>
</g>
</g>
<!-- Node1 -->
<g id="node2" class="node">
<title>Node1</title>
<g id="a_node2"><a xlink:href="structHMI_1_1MenuItemButton.xhtml" target="_top" xlink:title=" ">
<polygon fill="white" stroke="#666666" points="234.5,-93 122.5,-93 122.5,-74 234.5,-74 234.5,-93"/>
<text text-anchor="middle" x="178.5" y="-81" font-family="Helvetica,sans-Serif" font-size="10.00">HMI::MenuItemButton</text>
</a>
</g>
</g>
<!-- Node0&#45;&gt;Node1 -->
<g id="edge1" class="edge">
<title>Node0&#45;&gt;Node1</title>
<path fill="none" stroke="#63b8ff" d="M90.47,-59.38C107.24,-64.03 125.9,-69.2 141.63,-73.56"/>
<polygon fill="#63b8ff" stroke="#63b8ff" points="91.81,-56.12 81.23,-56.82 89.94,-62.86 91.81,-56.12"/>
</g>
<!-- Node2 -->
<g id="node3" class="node">
<title>Node2</title>
<g id="a_node3"><a xlink:href="structHMI_1_1MenuItemSwitch.xhtml" target="_top" xlink:title=" ">
<polygon fill="white" stroke="#666666" points="235,-56 122,-56 122,-37 235,-37 235,-56"/>
<text text-anchor="middle" x="178.5" y="-44" font-family="Helvetica,sans-Serif" font-size="10.00">HMI::MenuItemSwitch</text>
</a>
</g>
</g>
<!-- Node0&#45;&gt;Node2 -->
<g id="edge2" class="edge">
<title>Node0&#45;&gt;Node2</title>
<path fill="none" stroke="#63b8ff" d="M97.67,-46.5C105.63,-46.5 113.85,-46.5 121.85,-46.5"/>
<polygon fill="#63b8ff" stroke="#63b8ff" points="97.75,-43 87.75,-46.5 97.75,-50 97.75,-43"/>
</g>
<!-- Node3 -->
<g id="node4" class="node">
<title>Node3</title>
<g id="a_node4"><a xlink:href="structHMI_1_1MenuItemValue.xhtml" target="_top" xlink:title=" ">
<polygon fill="white" stroke="#666666" points="232.5,-19 124.5,-19 124.5,0 232.5,0 232.5,-19"/>
<text text-anchor="middle" x="178.5" y="-7" font-family="Helvetica,sans-Serif" font-size="10.00">HMI::MenuItemValue</text>
</a>
</g>
</g>
<!-- Node0&#45;&gt;Node3 -->
<g id="edge3" class="edge">
<title>Node0&#45;&gt;Node3</title>
<path fill="none" stroke="#63b8ff" d="M90.47,-33.62C107.24,-28.97 125.9,-23.8 141.63,-19.44"/>
<polygon fill="#63b8ff" stroke="#63b8ff" points="89.94,-30.14 81.23,-36.18 91.81,-36.88 89.94,-30.14"/>
</g>
</g>
</svg>
