<?xml version="1.0" encoding="UTF-8" standalone="no"?>
<!DOCTYPE svg PUBLIC "-//W3C//DTD SVG 1.1//EN"
 "http://www.w3.org/Graphics/SVG/1.1/DTD/svg11.dtd">
<!-- Generated by graphviz version 7.0.5 (20221223.1930)
 -->
<!-- Title: Graphical Class Hierarchy Pages: 1 -->
<svg width="247pt" height="64pt"
 viewBox="0.00 0.00 247.00 64.00" xmlns="http://www.w3.org/2000/svg" xmlns:xlink="http://www.w3.org/1999/xlink">
<g id="graph0" class="graph" transform="scale(1 1) rotate(0) translate(4 60)">
<title>Graphical Class Hierarchy</title>
<!-- Node0 -->
<g id="node1" class="node">
<title>Node0</title>
<g id="a_node1"><a xlink:href="structHMI_1_1IScreen.xhtml" target="_top" xlink:title=" ">
<polygon fill="white" stroke="#666666" points="74,-37 0,-37 0,-18 74,-18 74,-37"/>
<text text-anchor="middle" x="37" y="-25" font-family="Helvetica,sans-Serif" font-size="10.00">HMI::IScreen</text>
</a>
</g>
</g>
<!-- Node1 -->
<g id="node2" class="node">
<title>Node1</title>
<g id="a_node2"><a xlink:href="structHMI_1_1ScreenMenu.xhtml" target="_top" xlink:title=" ">
<polygon fill="white" stroke="#666666" points="222,-56 127,-56 127,-37 222,-37 222,-56"/>
<text text-anchor="middle" x="174.5" y="-44" font-family="Helvetica,sans-Serif" font-size="10.00">HMI::ScreenMenu</text>
</a>
</g>
</g>
<!-- Node0&#45;&gt;Node1 -->
<g id="edge1" class="edge">
<title>Node0&#45;&gt;Node1</title>
<path fill="none" stroke="#63b8ff" d="M85.64,-34.18C98.94,-36.04 113.37,-38.07 126.62,-39.93"/>
<polygon fill="#63b8ff" stroke="#63b8ff" points="86.2,-30.72 75.81,-32.8 85.23,-37.66 86.2,-30.72"/>
</g>
<!-- Node2 -->
<g id="node3" class="node">
<title>Node2</title>
<g id="a_node3"><a xlink:href="structHMI_1_1ScreenValueModifier.xhtml" target="_top" xlink:title=" ">
<polygon fill="white" stroke="#666666" points="239,-19 110,-19 110,0 239,0 239,-19"/>
<text text-anchor="middle" x="174.5" y="-7" font-family="Helvetica,sans-Serif" font-size="10.00">HMI::ScreenValueModifier</text>
</a>
</g>
</g>
<!-- Node0&#45;&gt;Node2 -->
<g id="edge2" class="edge">
<title>Node0&#45;&gt;Node2</title>
<path fill="none" stroke="#63b8ff" d="M85.71,-21.16C93.45,-20.13 101.57,-19.06 109.62,-17.99"/>
<polygon fill="#63b8ff" stroke="#63b8ff" points="85.26,-17.69 75.81,-22.48 86.19,-24.63 85.26,-17.69"/>
</g>
</g>
</svg>
