<?xml version="1.0" encoding="UTF-8" standalone="no"?>
<!DOCTYPE svg PUBLIC "-//W3C//DTD SVG 1.1//EN"
 "http://www.w3.org/Graphics/SVG/1.1/DTD/svg11.dtd">
<!-- Generated by graphviz version 7.0.5 (20221223.1930)
 -->
<!-- Title: lib/application_business_rules/serial_port.hpp Pages: 1 -->
<svg width="592pt" height="170pt"
 viewBox="0.00 0.00 591.50 170.00" xmlns="http://www.w3.org/2000/svg" xmlns:xlink="http://www.w3.org/1999/xlink">
<g id="graph0" class="graph" transform="scale(1 1) rotate(0) translate(4 166)">
<title>lib/application_business_rules/serial_port.hpp</title>
<!-- Node1 -->
<g id="node1" class="node">
<title>Node1</title>
<g id="a_node1"><a xlink:title=" ">
<polygon fill="#999999" stroke="#666666" points="371.5,-162 251.5,-162 251.5,-132 371.5,-132 371.5,-162"/>
<text text-anchor="start" x="259.5" y="-150" font-family="Helvetica,sans-Serif" font-size="10.00">lib/application_business</text>
<text text-anchor="middle" x="311.5" y="-139" font-family="Helvetica,sans-Serif" font-size="10.00">_rules/serial_port.hpp</text>
</a>
</g>
</g>
<!-- Node2 -->
<g id="node2" class="node">
<title>Node2</title>
<g id="a_node2"><a xlink:href="SerialOutputStreamBuffer_8hpp.xhtml" target="_top" xlink:title=" ">
<polygon fill="white" stroke="#666666" points="195,-96 46,-96 46,-66 195,-66 195,-96"/>
<text text-anchor="start" x="54" y="-84" font-family="Helvetica,sans-Serif" font-size="10.00">lib/3rd_party_adapters</text>
<text text-anchor="middle" x="120.5" y="-73" font-family="Helvetica,sans-Serif" font-size="10.00">/SerialOutputStreamBuffer.hpp</text>
</a>
</g>
</g>
<!-- Node1&#45;&gt;Node2 -->
<g id="edge1" class="edge">
<title>Node1&#45;&gt;Node2</title>
<path fill="none" stroke="#63b8ff" d="M257.98,-128.07C228.16,-118.07 191.51,-105.79 163.55,-96.43"/>
<polygon fill="#63b8ff" stroke="#63b8ff" points="256.61,-131.3 267.2,-131.16 258.83,-124.66 256.61,-131.3"/>
</g>
<!-- Node4 -->
<g id="node4" class="node">
<title>Node4</title>
<g id="a_node4"><a xlink:href="serial__port_8cpp.xhtml" target="_top" xlink:title=" ">
<polygon fill="white" stroke="#666666" points="279.5,-30 167.5,-30 167.5,0 279.5,0 279.5,-30"/>
<text text-anchor="start" x="175.5" y="-18" font-family="Helvetica,sans-Serif" font-size="10.00">lib/3rd_party_adapters</text>
<text text-anchor="middle" x="223.5" y="-7" font-family="Helvetica,sans-Serif" font-size="10.00">/serial_port.cpp</text>
</a>
</g>
</g>
<!-- Node1&#45;&gt;Node4 -->
<g id="edge4" class="edge">
<title>Node1&#45;&gt;Node4</title>
<path fill="none" stroke="#63b8ff" d="M273.32,-125.49C261.89,-117.65 250.33,-107.73 242.5,-96 229.11,-75.93 225.12,-47.5 223.95,-30.49"/>
<polygon fill="#63b8ff" stroke="#63b8ff" points="271.23,-128.31 281.54,-130.77 275.01,-122.42 271.23,-128.31"/>
</g>
<!-- Node5 -->
<g id="node5" class="node">
<title>Node5</title>
<g id="a_node5"><a xlink:href="Protocol_8cpp.xhtml" target="_top" xlink:title=" ">
<polygon fill="white" stroke="#666666" points="371.5,-96 251.5,-96 251.5,-66 371.5,-66 371.5,-96"/>
<text text-anchor="start" x="259.5" y="-84" font-family="Helvetica,sans-Serif" font-size="10.00">lib/application_business</text>
<text text-anchor="middle" x="311.5" y="-73" font-family="Helvetica,sans-Serif" font-size="10.00">_rules/Protocol.cpp</text>
</a>
</g>
</g>
<!-- Node1&#45;&gt;Node5 -->
<g id="edge5" class="edge">
<title>Node1&#45;&gt;Node5</title>
<path fill="none" stroke="#63b8ff" d="M311.5,-120.39C311.5,-112.13 311.5,-103.28 311.5,-96.16"/>
<polygon fill="#63b8ff" stroke="#63b8ff" points="308,-120.28 311.5,-130.28 315,-120.28 308,-120.28"/>
</g>
<!-- Node6 -->
<g id="node6" class="node">
<title>Node6</title>
<g id="a_node6"><a xlink:href="main_8cpp.xhtml" target="_top" xlink:title=" ">
<polygon fill="white" stroke="#666666" points="461.5,-90.5 389.5,-90.5 389.5,-71.5 461.5,-71.5 461.5,-90.5"/>
<text text-anchor="middle" x="425.5" y="-78.5" font-family="Helvetica,sans-Serif" font-size="10.00">src/main.cpp</text>
</a>
</g>
</g>
<!-- Node1&#45;&gt;Node6 -->
<g id="edge6" class="edge">
<title>Node1&#45;&gt;Node6</title>
<path fill="none" stroke="#63b8ff" d="M346.93,-126.11C367.86,-114.36 393.34,-100.05 409.49,-90.99"/>
<polygon fill="#63b8ff" stroke="#63b8ff" points="345.41,-122.95 338.4,-130.9 348.84,-129.05 345.41,-122.95"/>
</g>
<!-- Node7 -->
<g id="node7" class="node">
<title>Node7</title>
<g id="a_node7"><a xlink:href="test__serial__port_8cpp.xhtml" target="_top" xlink:title=" ">
<polygon fill="white" stroke="#666666" points="583.5,-96 479.5,-96 479.5,-66 583.5,-66 583.5,-96"/>
<text text-anchor="start" x="487.5" y="-84" font-family="Helvetica,sans-Serif" font-size="10.00">test/test_serial_port</text>
<text text-anchor="middle" x="531.5" y="-73" font-family="Helvetica,sans-Serif" font-size="10.00">/test_serial_port.cpp</text>
</a>
</g>
</g>
<!-- Node1&#45;&gt;Node7 -->
<g id="edge7" class="edge">
<title>Node1&#45;&gt;Node7</title>
<path fill="none" stroke="#63b8ff" d="M372.06,-128.38C406.66,-118.32 449.48,-105.86 482.03,-96.39"/>
<polygon fill="#63b8ff" stroke="#63b8ff" points="371.22,-124.98 362.6,-131.13 373.18,-131.7 371.22,-124.98"/>
</g>
<!-- Node3 -->
<g id="node3" class="node">
<title>Node3</title>
<g id="a_node3"><a xlink:href="SerialOutputStreamBuffer_8cpp.xhtml" target="_top" xlink:title=" ">
<polygon fill="white" stroke="#666666" points="149,-30 0,-30 0,0 149,0 149,-30"/>
<text text-anchor="start" x="8" y="-18" font-family="Helvetica,sans-Serif" font-size="10.00">lib/3rd_party_adapters</text>
<text text-anchor="middle" x="74.5" y="-7" font-family="Helvetica,sans-Serif" font-size="10.00">/SerialOutputStreamBuffer.cpp</text>
</a>
</g>
</g>
<!-- Node2&#45;&gt;Node3 -->
<g id="edge2" class="edge">
<title>Node2&#45;&gt;Node3</title>
<path fill="none" stroke="#63b8ff" d="M103.74,-56.68C97.35,-47.79 90.27,-37.95 84.68,-30.16"/>
<polygon fill="#63b8ff" stroke="#63b8ff" points="100.73,-58.49 109.41,-64.57 106.41,-54.4 100.73,-58.49"/>
</g>
<!-- Node2&#45;&gt;Node4 -->
<g id="edge3" class="edge">
<title>Node2&#45;&gt;Node4</title>
<path fill="none" stroke="#63b8ff" d="M153.27,-59.64C168.63,-50.09 186.56,-38.95 200.46,-30.31"/>
<polygon fill="#63b8ff" stroke="#63b8ff" points="151.55,-56.59 144.9,-64.84 155.24,-62.53 151.55,-56.59"/>
</g>
</g>
</svg>
