<?xml version="1.0" encoding="UTF-8" standalone="no"?>
<!DOCTYPE svg PUBLIC "-//W3C//DTD SVG 1.1//EN"
 "http://www.w3.org/Graphics/SVG/1.1/DTD/svg11.dtd">
<!-- Generated by graphviz version 7.0.5 (20221223.1930)
 -->
<!-- Title: HMI::MenuItemButton Pages: 1 -->
<svg width="208pt" height="225pt"
 viewBox="0.00 0.00 207.50 225.00" xmlns="http://www.w3.org/2000/svg" xmlns:xlink="http://www.w3.org/1999/xlink">
<g id="graph0" class="graph" transform="scale(1 1) rotate(0) translate(4 221)">
<title>HMI::MenuItemButton</title>
<!-- Node1 -->
<g id="node1" class="node">
<title>Node1</title>
<g id="a_node1"><a xlink:title=" ">
<polygon fill="#999999" stroke="#666666" points="152,-96 37,-96 37,0 152,0 152,-96"/>
<text text-anchor="middle" x="94.5" y="-84" font-family="Helvetica,sans-Serif" font-size="10.00">{HMI::MenuItemButton</text>
<text text-anchor="start" x="45" y="-73" font-family="Helvetica,sans-Serif" font-size="10.00">|# _text</text>
<text text-anchor="start" x="45" y="-62" font-family="Helvetica,sans-Serif" font-size="10.00">|+ MenuItemButton()</text>
<text text-anchor="start" x="45" y="-51" font-family="Helvetica,sans-Serif" font-size="10.00">+ ~MenuItemButton()</text>
<text text-anchor="start" x="45" y="-40" font-family="Helvetica,sans-Serif" font-size="10.00">+ getText()</text>
<text text-anchor="start" x="45" y="-29" font-family="Helvetica,sans-Serif" font-size="10.00">+ getType()</text>
<text text-anchor="start" x="45" y="-18" font-family="Helvetica,sans-Serif" font-size="10.00">+ getScreenOnClick()</text>
<text text-anchor="middle" x="94.5" y="-7" font-family="Helvetica,sans-Serif" font-size="10.00">}</text>
</a>
</g>
</g>
<!-- Node2 -->
<g id="node2" class="node">
<title>Node2</title>
<g id="a_node2"><a xlink:href="structHMI_1_1IMenuItem.xhtml" target="_top" xlink:title=" ">
<polygon fill="white" stroke="#666666" points="89,-217 0,-217 0,-143 89,-143 89,-217"/>
<text text-anchor="middle" x="44.5" y="-205" font-family="Helvetica,sans-Serif" font-size="10.00">{HMI::IMenuItem</text>
<text text-anchor="start" x="8" y="-194" font-family="Helvetica,sans-Serif" font-size="10.00">||+ IMenuItem()</text>
<text text-anchor="start" x="8" y="-183" font-family="Helvetica,sans-Serif" font-size="10.00">+ ~IMenuItem()</text>
<text text-anchor="start" x="8" y="-172" font-family="Helvetica,sans-Serif" font-size="10.00">+ getText()</text>
<text text-anchor="start" x="8" y="-161" font-family="Helvetica,sans-Serif" font-size="10.00">+ getType()</text>
<text text-anchor="middle" x="44.5" y="-150" font-family="Helvetica,sans-Serif" font-size="10.00">}</text>
</a>
</g>
</g>
<!-- Node2&#45;&gt;Node1 -->
<g id="edge1" class="edge">
<title>Node2&#45;&gt;Node1</title>
<path fill="none" stroke="#63b8ff" d="M62.46,-132.3C66.97,-120.57 71.82,-107.97 76.34,-96.21"/>
<polygon fill="none" stroke="#63b8ff" points="59.29,-130.79 58.97,-141.38 65.83,-133.3 59.29,-130.79"/>
</g>
<!-- Node3 -->
<g id="node3" class="node">
<title>Node3</title>
<g id="a_node3"><a xlink:href="structHMI_1_1IScreen.xhtml" target="_top" xlink:title=" ">
<polygon fill="white" stroke="#666666" points="184,-217 107,-217 107,-143 184,-143 184,-217"/>
<text text-anchor="middle" x="145.5" y="-205" font-family="Helvetica,sans-Serif" font-size="10.00">{HMI::IScreen</text>
<text text-anchor="start" x="115" y="-194" font-family="Helvetica,sans-Serif" font-size="10.00">||+ IScreen()</text>
<text text-anchor="start" x="115" y="-183" font-family="Helvetica,sans-Serif" font-size="10.00">+ ~IScreen()</text>
<text text-anchor="start" x="115" y="-172" font-family="Helvetica,sans-Serif" font-size="10.00">+ draw()</text>
<text text-anchor="start" x="115" y="-161" font-family="Helvetica,sans-Serif" font-size="10.00">+ exit()</text>
<text text-anchor="middle" x="145.5" y="-150" font-family="Helvetica,sans-Serif" font-size="10.00">}</text>
</a>
</g>
</g>
<!-- Node3&#45;&gt;Node1 -->
<g id="edge2" class="edge">
<title>Node3&#45;&gt;Node1</title>
<path fill="none" stroke="#404040" d="M131.29,-142.79C127.09,-132.08 122.38,-120.07 117.77,-108.31"/>
<polygon fill="none" stroke="#404040" points="117.73,-108.22 111.82,-104.09 113.35,-97.05 119.26,-101.17 117.73,-108.22"/>
<text text-anchor="middle" x="161" y="-117" font-family="Helvetica,sans-Serif" font-size="10.00"> #_screenOnClick</text>
</g>
</g>
</svg>
