<?xml version="1.0" encoding="UTF-8" standalone="no"?>
<!DOCTYPE svg PUBLIC "-//W3C//DTD SVG 1.1//EN"
 "http://www.w3.org/Graphics/SVG/1.1/DTD/svg11.dtd">
<!-- Generated by graphviz version 7.0.5 (20221223.1930)
 -->
<!-- Title: HMI::IScreen Pages: 1 -->
<svg width="256pt" height="192pt"
 viewBox="0.00 0.00 256.00 192.00" xmlns="http://www.w3.org/2000/svg" xmlns:xlink="http://www.w3.org/1999/xlink">
<g id="graph0" class="graph" transform="scale(1 1) rotate(0) translate(4 188)">
<title>HMI::IScreen</title>
<!-- Node1 -->
<g id="node1" class="node">
<title>Node1</title>
<g id="a_node1"><a xlink:title=" ">
<polygon fill="#999999" stroke="#666666" points="153.5,-184 76.5,-184 76.5,-110 153.5,-110 153.5,-184"/>
<text text-anchor="middle" x="115" y="-172" font-family="Helvetica,sans-Serif" font-size="10.00">{HMI::IScreen</text>
<text text-anchor="start" x="84.5" y="-161" font-family="Helvetica,sans-Serif" font-size="10.00">||+ IScreen()</text>
<text text-anchor="start" x="84.5" y="-150" font-family="Helvetica,sans-Serif" font-size="10.00">+ ~IScreen()</text>
<text text-anchor="start" x="84.5" y="-139" font-family="Helvetica,sans-Serif" font-size="10.00">+ draw()</text>
<text text-anchor="start" x="84.5" y="-128" font-family="Helvetica,sans-Serif" font-size="10.00">+ exit()</text>
<text text-anchor="middle" x="115" y="-117" font-family="Helvetica,sans-Serif" font-size="10.00">}</text>
</a>
</g>
</g>
<!-- Node2 -->
<g id="node2" class="node">
<title>Node2</title>
<g id="a_node2"><a xlink:href="structHMI_1_1ScreenMenu.xhtml" target="_top" xlink:title=" ">
<polygon fill="white" stroke="#666666" points="98,-74 0,-74 0,0 98,0 98,-74"/>
<text text-anchor="middle" x="49" y="-62" font-family="Helvetica,sans-Serif" font-size="10.00">{HMI::ScreenMenu</text>
<text text-anchor="start" x="8" y="-51" font-family="Helvetica,sans-Serif" font-size="10.00">||+ ScreenMenu()</text>
<text text-anchor="start" x="8" y="-40" font-family="Helvetica,sans-Serif" font-size="10.00">+ ~ScreenMenu()</text>
<text text-anchor="start" x="8" y="-29" font-family="Helvetica,sans-Serif" font-size="10.00">+ draw()</text>
<text text-anchor="start" x="8" y="-18" font-family="Helvetica,sans-Serif" font-size="10.00">+ addItem()</text>
<text text-anchor="middle" x="49" y="-7" font-family="Helvetica,sans-Serif" font-size="10.00">}</text>
</a>
</g>
</g>
<!-- Node1&#45;&gt;Node2 -->
<g id="edge1" class="edge">
<title>Node1&#45;&gt;Node2</title>
<path fill="none" stroke="#63b8ff" d="M86.99,-100.17C81.72,-91.55 76.28,-82.64 71.21,-74.35"/>
<polygon fill="none" stroke="#63b8ff" points="83.85,-101.74 92.05,-108.45 89.82,-98.09 83.85,-101.74"/>
</g>
<!-- Node3 -->
<g id="node3" class="node">
<title>Node3</title>
<g id="a_node3"><a xlink:href="structHMI_1_1ScreenValueModifier.xhtml" target="_top" xlink:title=" ">
<polygon fill="white" stroke="#666666" points="248,-74 116,-74 116,0 248,0 248,-74"/>
<text text-anchor="middle" x="182" y="-62" font-family="Helvetica,sans-Serif" font-size="10.00">{HMI::ScreenValueModifier</text>
<text text-anchor="start" x="124" y="-51" font-family="Helvetica,sans-Serif" font-size="10.00">||+ ScreenValueModifier()</text>
<text text-anchor="start" x="124" y="-40" font-family="Helvetica,sans-Serif" font-size="10.00">+ ~ScreenValueModifier()</text>
<text text-anchor="start" x="124" y="-29" font-family="Helvetica,sans-Serif" font-size="10.00">+ draw()</text>
<text text-anchor="start" x="124" y="-18" font-family="Helvetica,sans-Serif" font-size="10.00">+ set()</text>
<text text-anchor="middle" x="182" y="-7" font-family="Helvetica,sans-Serif" font-size="10.00">}</text>
</a>
</g>
</g>
<!-- Node1&#45;&gt;Node3 -->
<g id="edge2" class="edge">
<title>Node1&#45;&gt;Node3</title>
<path fill="none" stroke="#63b8ff" d="M143.43,-100.17C148.78,-91.55 154.31,-82.64 159.45,-74.35"/>
<polygon fill="none" stroke="#63b8ff" points="140.59,-98.11 138.29,-108.45 146.54,-101.8 140.59,-98.11"/>
</g>
</g>
</svg>
