<?xml version="1.0" encoding="UTF-8" standalone="no"?>
<!DOCTYPE svg PUBLIC "-//W3C//DTD SVG 1.1//EN"
 "http://www.w3.org/Graphics/SVG/1.1/DTD/svg11.dtd">
<!-- Generated by graphviz version 7.0.5 (20221223.1930)
 -->
<!-- Title: src/main.cpp Pages: 1 -->
<svg width="707pt" height="192pt"
 viewBox="0.00 0.00 706.50 192.00" xmlns="http://www.w3.org/2000/svg" xmlns:xlink="http://www.w3.org/1999/xlink">
<g id="graph0" class="graph" transform="scale(1 1) rotate(0) translate(4 188)">
<title>src/main.cpp</title>
<!-- Node1 -->
<g id="node1" class="node">
<title>Node1</title>
<g id="a_node1"><a xlink:title=" ">
<polygon fill="#999999" stroke="#666666" points="314,-184 242,-184 242,-165 314,-165 314,-184"/>
<text text-anchor="middle" x="278" y="-172" font-family="Helvetica,sans-Serif" font-size="10.00">src/main.cpp</text>
</a>
</g>
</g>
<!-- Node2 -->
<g id="node2" class="node">
<title>Node2</title>
<g id="a_node2"><a xlink:href="main_8hpp.xhtml" target="_top" xlink:title=" ">
<polygon fill="white" stroke="#666666" points="56,-129 0,-129 0,-110 56,-110 56,-129"/>
<text text-anchor="middle" x="28" y="-117" font-family="Helvetica,sans-Serif" font-size="10.00">main.hpp</text>
</a>
</g>
</g>
<!-- Node1&#45;&gt;Node2 -->
<g id="edge1" class="edge">
<title>Node1&#45;&gt;Node2</title>
<path fill="none" stroke="#63b8ff" d="M241.65,-165.79C195.23,-155.95 115.22,-138.99 67.39,-128.85"/>
<polygon fill="#63b8ff" stroke="#63b8ff" points="68.24,-125.45 57.73,-126.8 66.79,-132.3 68.24,-125.45"/>
</g>
<!-- Node3 -->
<g id="node3" class="node">
<title>Node3</title>
<g id="a_node3"><a xlink:href="board__pins_8hpp.xhtml" target="_top" xlink:title="Provides named objects for the pins provided by the board.">
<polygon fill="white" stroke="#666666" points="217,-129 135,-129 135,-110 217,-110 217,-129"/>
<text text-anchor="middle" x="176" y="-117" font-family="Helvetica,sans-Serif" font-size="10.00">board_pins.hpp</text>
</a>
</g>
</g>
<!-- Node1&#45;&gt;Node3 -->
<g id="edge2" class="edge">
<title>Node1&#45;&gt;Node3</title>
<path fill="none" stroke="#63b8ff" d="M260.7,-164.51C244.92,-156.31 221.36,-144.07 203.09,-134.58"/>
<polygon fill="#63b8ff" stroke="#63b8ff" points="204.88,-131.56 194.39,-130.06 201.65,-137.77 204.88,-131.56"/>
</g>
<!-- Node5 -->
<g id="node5" class="node">
<title>Node5</title>
<g id="a_node5"><a xlink:title=" ">
<polygon fill="#e0e0e0" stroke="#999999" points="115.5,-19 58.5,-19 58.5,0 115.5,0 115.5,-19"/>
<text text-anchor="middle" x="87" y="-7" font-family="Helvetica,sans-Serif" font-size="10.00">Arduino.h</text>
</a>
</g>
</g>
<!-- Node1&#45;&gt;Node5 -->
<g id="edge17" class="edge">
<title>Node1&#45;&gt;Node5</title>
<path fill="none" stroke="#63b8ff" d="M241.82,-171.59C208.06,-168 158.18,-157.78 126,-129 97.56,-103.56 89.79,-57.02 87.72,-30.46"/>
<polygon fill="#63b8ff" stroke="#63b8ff" points="91.22,-30.51 87.17,-20.72 84.23,-30.9 91.22,-30.51"/>
</g>
<!-- Node6 -->
<g id="node6" class="node">
<title>Node6</title>
<g id="a_node6"><a xlink:title=" ">
<polygon fill="#e0e0e0" stroke="#999999" points="275,-19 229,-19 229,0 275,0 275,-19"/>
<text text-anchor="middle" x="252" y="-7" font-family="Helvetica,sans-Serif" font-size="10.00">cstdint</text>
</a>
</g>
</g>
<!-- Node1&#45;&gt;Node6 -->
<g id="edge19" class="edge">
<title>Node1&#45;&gt;Node6</title>
<path fill="none" stroke="#63b8ff" d="M276.34,-164.65C274.67,-155.68 272.05,-141.39 270,-129 264.28,-94.53 258.32,-54.3 254.9,-30.69"/>
<polygon fill="#63b8ff" stroke="#63b8ff" points="258.38,-30.33 253.49,-20.93 251.45,-31.33 258.38,-30.33"/>
</g>
<!-- Node8 -->
<g id="node8" class="node">
<title>Node8</title>
<g id="a_node8"><a xlink:href="display_8h.xhtml" target="_top" xlink:title=" ">
<polygon fill="white" stroke="#666666" points="333,-129 279,-129 279,-110 333,-110 333,-129"/>
<text text-anchor="middle" x="306" y="-117" font-family="Helvetica,sans-Serif" font-size="10.00">display.h</text>
</a>
</g>
</g>
<!-- Node1&#45;&gt;Node8 -->
<g id="edge7" class="edge">
<title>Node1&#45;&gt;Node8</title>
<path fill="none" stroke="#63b8ff" d="M282.62,-164.75C286.25,-157.88 291.43,-148.08 295.99,-139.45"/>
<polygon fill="#63b8ff" stroke="#63b8ff" points="298.99,-141.26 300.57,-130.78 292.8,-137.99 298.99,-141.26"/>
</g>
<!-- Node10 -->
<g id="node10" class="node">
<title>Node10</title>
<g id="a_node10"><a xlink:href="pitches_8hpp.xhtml" target="_top" xlink:title=" ">
<polygon fill="white" stroke="#666666" points="417,-129 351,-129 351,-110 417,-110 417,-129"/>
<text text-anchor="middle" x="384" y="-117" font-family="Helvetica,sans-Serif" font-size="10.00">pitches.hpp</text>
</a>
</g>
</g>
<!-- Node1&#45;&gt;Node10 -->
<g id="edge9" class="edge">
<title>Node1&#45;&gt;Node10</title>
<path fill="none" stroke="#63b8ff" d="M295.98,-164.51C312.45,-156.27 337.09,-143.96 356.11,-134.45"/>
<polygon fill="#63b8ff" stroke="#63b8ff" points="357.55,-137.64 364.93,-130.03 354.42,-131.38 357.55,-137.64"/>
</g>
<!-- Node11 -->
<g id="node11" class="node">
<title>Node11</title>
<g id="a_node11"><a xlink:href="serial__port_8hpp.xhtml" target="_top" xlink:title=" ">
<polygon fill="white" stroke="#666666" points="515,-129 435,-129 435,-110 515,-110 515,-129"/>
<text text-anchor="middle" x="475" y="-117" font-family="Helvetica,sans-Serif" font-size="10.00">serial_port.hpp</text>
</a>
</g>
</g>
<!-- Node1&#45;&gt;Node11 -->
<g id="edge11" class="edge">
<title>Node1&#45;&gt;Node11</title>
<path fill="none" stroke="#63b8ff" d="M311.42,-164.51C344.35,-155.65 394.84,-142.07 431.02,-132.33"/>
<polygon fill="#63b8ff" stroke="#63b8ff" points="431.54,-135.82 440.29,-129.84 429.72,-129.06 431.54,-135.82"/>
</g>
<!-- Node17 -->
<g id="node17" class="node">
<title>Node17</title>
<g id="a_node17"><a xlink:href="Protocol_8hpp.xhtml" target="_top" xlink:title=" ">
<polygon fill="white" stroke="#666666" points="604.5,-129 533.5,-129 533.5,-110 604.5,-110 604.5,-129"/>
<text text-anchor="middle" x="569" y="-117" font-family="Helvetica,sans-Serif" font-size="10.00">Protocol.hpp</text>
</a>
</g>
</g>
<!-- Node1&#45;&gt;Node17 -->
<g id="edge18" class="edge">
<title>Node1&#45;&gt;Node17</title>
<path fill="none" stroke="#63b8ff" d="M314.28,-167.03C360.13,-158.83 441.77,-144.16 521.86,-129.38"/>
<polygon fill="#63b8ff" stroke="#63b8ff" points="522.46,-132.83 531.65,-127.57 521.19,-125.95 522.46,-132.83"/>
</g>
<!-- Node4 -->
<g id="node4" class="node">
<title>Node4</title>
<g id="a_node4"><a xlink:href="framework__config_8hpp.xhtml" target="_top" xlink:title="Provides defintions which are specific for the used framework.">
<polygon fill="white" stroke="#666666" points="223.5,-74 112.5,-74 112.5,-55 223.5,-55 223.5,-74"/>
<text text-anchor="middle" x="168" y="-62" font-family="Helvetica,sans-Serif" font-size="10.00">framework_config.hpp</text>
</a>
</g>
</g>
<!-- Node3&#45;&gt;Node4 -->
<g id="edge3" class="edge">
<title>Node3&#45;&gt;Node4</title>
<path fill="none" stroke="#63b8ff" d="M174.68,-109.75C173.69,-103.19 172.29,-93.95 171.03,-85.6"/>
<polygon fill="#63b8ff" stroke="#63b8ff" points="174.53,-85.3 169.58,-75.94 167.61,-86.35 174.53,-85.3"/>
</g>
<!-- Node4&#45;&gt;Node5 -->
<g id="edge4" class="edge">
<title>Node4&#45;&gt;Node5</title>
<path fill="none" stroke="#63b8ff" d="M154.26,-54.51C142.2,-46.62 124.41,-34.98 110.16,-25.65"/>
<polygon fill="#63b8ff" stroke="#63b8ff" points="112.09,-22.73 101.8,-20.19 108.26,-28.59 112.09,-22.73"/>
</g>
<!-- Node4&#45;&gt;Node6 -->
<g id="edge5" class="edge">
<title>Node4&#45;&gt;Node6</title>
<path fill="none" stroke="#63b8ff" d="M182.25,-54.51C194.88,-46.54 213.56,-34.75 228.41,-25.38"/>
<polygon fill="#63b8ff" stroke="#63b8ff" points="230.09,-28.46 236.68,-20.17 226.36,-22.54 230.09,-28.46"/>
</g>
<!-- Node7 -->
<g id="node7" class="node">
<title>Node7</title>
<g id="a_node7"><a xlink:title=" ">
<polygon fill="#e0e0e0" stroke="#999999" points="199,-19 137,-19 137,0 199,0 199,-19"/>
<text text-anchor="middle" x="168" y="-7" font-family="Helvetica,sans-Serif" font-size="10.00">type_traits</text>
</a>
</g>
</g>
<!-- Node4&#45;&gt;Node7 -->
<g id="edge6" class="edge">
<title>Node4&#45;&gt;Node7</title>
<path fill="none" stroke="#63b8ff" d="M168,-54.75C168,-48.27 168,-39.16 168,-30.9"/>
<polygon fill="#63b8ff" stroke="#63b8ff" points="171.5,-30.96 168,-20.96 164.5,-30.96 171.5,-30.96"/>
</g>
<!-- Node9 -->
<g id="node9" class="node">
<title>Node9</title>
<g id="a_node9"><a xlink:title=" ">
<polygon fill="#e0e0e0" stroke="#999999" points="329,-74 281,-74 281,-55 329,-55 329,-74"/>
<text text-anchor="middle" x="305" y="-62" font-family="Helvetica,sans-Serif" font-size="10.00">stdint.h</text>
</a>
</g>
</g>
<!-- Node8&#45;&gt;Node9 -->
<g id="edge8" class="edge">
<title>Node8&#45;&gt;Node9</title>
<path fill="none" stroke="#63b8ff" d="M305.83,-109.75C305.71,-103.27 305.54,-94.16 305.38,-85.9"/>
<polygon fill="#63b8ff" stroke="#63b8ff" points="308.89,-85.89 305.2,-75.96 301.89,-86.02 308.89,-85.89"/>
</g>
<!-- Node10&#45;&gt;Node6 -->
<g id="edge10" class="edge">
<title>Node10&#45;&gt;Node6</title>
<path fill="none" stroke="#63b8ff" d="M379.4,-109.7C372.11,-96.44 356.78,-71.16 338,-55 322.64,-41.78 302.66,-31.14 285.84,-23.58"/>
<polygon fill="#63b8ff" stroke="#63b8ff" points="287.27,-20.39 276.7,-19.66 284.51,-26.82 287.27,-20.39"/>
</g>
<!-- Node12 -->
<g id="node12" class="node">
<title>Node12</title>
<g id="a_node12"><a xlink:title=" ">
<polygon fill="#e0e0e0" stroke="#999999" points="423,-74 385,-74 385,-55 423,-55 423,-74"/>
<text text-anchor="middle" x="404" y="-62" font-family="Helvetica,sans-Serif" font-size="10.00">array</text>
</a>
</g>
</g>
<!-- Node11&#45;&gt;Node12 -->
<g id="edge12" class="edge">
<title>Node11&#45;&gt;Node12</title>
<path fill="none" stroke="#63b8ff" d="M462.96,-109.51C452.59,-101.77 437.4,-90.43 425.03,-81.2"/>
<polygon fill="#63b8ff" stroke="#63b8ff" points="427.19,-78.44 417.08,-75.26 423,-84.05 427.19,-78.44"/>
</g>
<!-- Node13 -->
<g id="node13" class="node">
<title>Node13</title>
<g id="a_node13"><a xlink:title=" ">
<polygon fill="#e0e0e0" stroke="#999999" points="500.5,-74 441.5,-74 441.5,-55 500.5,-55 500.5,-74"/>
<text text-anchor="middle" x="471" y="-62" font-family="Helvetica,sans-Serif" font-size="10.00">functional</text>
</a>
</g>
</g>
<!-- Node11&#45;&gt;Node13 -->
<g id="edge13" class="edge">
<title>Node11&#45;&gt;Node13</title>
<path fill="none" stroke="#63b8ff" d="M474.34,-109.75C473.85,-103.27 473.16,-94.16 472.54,-85.9"/>
<polygon fill="#63b8ff" stroke="#63b8ff" points="476.03,-85.66 471.79,-75.95 469.05,-86.19 476.03,-85.66"/>
</g>
<!-- Node14 -->
<g id="node14" class="node">
<title>Node14</title>
<g id="a_node14"><a xlink:title=" ">
<polygon fill="#e0e0e0" stroke="#999999" points="569,-74 519,-74 519,-55 569,-55 569,-74"/>
<text text-anchor="middle" x="544" y="-62" font-family="Helvetica,sans-Serif" font-size="10.00">optional</text>
</a>
</g>
</g>
<!-- Node11&#45;&gt;Node14 -->
<g id="edge14" class="edge">
<title>Node11&#45;&gt;Node14</title>
<path fill="none" stroke="#63b8ff" d="M486.7,-109.51C496.78,-101.77 511.54,-90.43 523.56,-81.2"/>
<polygon fill="#63b8ff" stroke="#63b8ff" points="525.47,-84.15 531.27,-75.28 521.21,-78.6 525.47,-84.15"/>
</g>
<!-- Node15 -->
<g id="node15" class="node">
<title>Node15</title>
<g id="a_node15"><a xlink:title=" ">
<polygon fill="#e0e0e0" stroke="#999999" points="639,-74 587,-74 587,-55 639,-55 639,-74"/>
<text text-anchor="middle" x="613" y="-62" font-family="Helvetica,sans-Serif" font-size="10.00">ostream</text>
</a>
</g>
</g>
<!-- Node11&#45;&gt;Node15 -->
<g id="edge15" class="edge">
<title>Node11&#45;&gt;Node15</title>
<path fill="none" stroke="#63b8ff" d="M498.41,-109.51C520.65,-100.97 554.33,-88.03 579.42,-78.4"/>
<polygon fill="#63b8ff" stroke="#63b8ff" points="580.44,-81.75 588.52,-74.9 577.93,-75.22 580.44,-81.75"/>
</g>
<!-- Node16 -->
<g id="node16" class="node">
<title>Node16</title>
<g id="a_node16"><a xlink:title=" ">
<polygon fill="#e0e0e0" stroke="#999999" points="698.5,-74 657.5,-74 657.5,-55 698.5,-55 698.5,-74"/>
<text text-anchor="middle" x="678" y="-62" font-family="Helvetica,sans-Serif" font-size="10.00">string</text>
</a>
</g>
</g>
<!-- Node11&#45;&gt;Node16 -->
<g id="edge16" class="edge">
<title>Node11&#45;&gt;Node16</title>
<path fill="none" stroke="#63b8ff" d="M510.85,-109.55C543.63,-101.31 593.71,-88.56 646.17,-74.45"/>
<polygon fill="#63b8ff" stroke="#63b8ff" points="646.83,-77.89 655.58,-71.9 645.01,-71.13 646.83,-77.89"/>
</g>
</g>
</svg>
