<?xml version="1.0" encoding="UTF-8" standalone="no"?>
<!DOCTYPE svg PUBLIC "-//W3C//DTD SVG 1.1//EN"
 "http://www.w3.org/Graphics/SVG/1.1/DTD/svg11.dtd">
<!-- Generated by graphviz version 7.0.5 (20221223.1930)
 -->
<!-- Title: lib/board_adapters/board.cpp Pages: 1 -->
<svg width="302pt" height="214pt"
 viewBox="0.00 0.00 301.50 214.00" xmlns="http://www.w3.org/2000/svg" xmlns:xlink="http://www.w3.org/1999/xlink">
<g id="graph0" class="graph" transform="scale(1 1) rotate(0) translate(4 210)">
<title>lib/board_adapters/board.cpp</title>
<!-- Node1 -->
<g id="node1" class="node">
<title>Node1</title>
<g id="a_node1"><a xlink:title=" ">
<polygon fill="#999999" stroke="#666666" points="174,-206 78,-206 78,-176 174,-176 174,-206"/>
<text text-anchor="start" x="86" y="-194" font-family="Helvetica,sans-Serif" font-size="10.00">lib/board_adapters</text>
<text text-anchor="middle" x="126" y="-183" font-family="Helvetica,sans-Serif" font-size="10.00">/board.cpp</text>
</a>
</g>
</g>
<!-- Node2 -->
<g id="node2" class="node">
<title>Node2</title>
<g id="a_node2"><a xlink:href="sound__output_8hpp.xhtml" target="_top" xlink:title=" ">
<polygon fill="white" stroke="#666666" points="118,-140 0,-140 0,-110 118,-110 118,-140"/>
<text text-anchor="start" x="8" y="-128" font-family="Helvetica,sans-Serif" font-size="10.00">sound_output_interface</text>
<text text-anchor="middle" x="59" y="-117" font-family="Helvetica,sans-Serif" font-size="10.00">/sound_output.hpp</text>
</a>
</g>
</g>
<!-- Node1&#45;&gt;Node2 -->
<g id="edge1" class="edge">
<title>Node1&#45;&gt;Node2</title>
<path fill="none" stroke="#63b8ff" d="M111.13,-175.8C102.54,-167.59 91.56,-157.1 81.89,-147.87"/>
<polygon fill="#63b8ff" stroke="#63b8ff" points="84.57,-145.59 74.92,-141.21 79.74,-150.65 84.57,-145.59"/>
</g>
<!-- Node3 -->
<g id="node3" class="node">
<title>Node3</title>
<g id="a_node3"><a xlink:href="board__interface_8hpp.xhtml" target="_top" xlink:title=" ">
<polygon fill="white" stroke="#666666" points="249.5,-140 136.5,-140 136.5,-110 249.5,-110 249.5,-140"/>
<text text-anchor="start" x="144.5" y="-128" font-family="Helvetica,sans-Serif" font-size="10.00">user_interaction/board</text>
<text text-anchor="middle" x="193" y="-117" font-family="Helvetica,sans-Serif" font-size="10.00">_interface.hpp</text>
</a>
</g>
</g>
<!-- Node1&#45;&gt;Node3 -->
<g id="edge2" class="edge">
<title>Node1&#45;&gt;Node3</title>
<path fill="none" stroke="#63b8ff" d="M140.87,-175.8C149.46,-167.59 160.44,-157.1 170.11,-147.87"/>
<polygon fill="#63b8ff" stroke="#63b8ff" points="172.26,-150.65 177.08,-141.21 167.43,-145.59 172.26,-150.65"/>
</g>
<!-- Node4 -->
<g id="node4" class="node">
<title>Node4</title>
<g id="a_node4"><a xlink:href="KeyIds_8hpp.xhtml" target="_top" xlink:title=" ">
<polygon fill="white" stroke="#666666" points="151.5,-74 86.5,-74 86.5,-55 151.5,-55 151.5,-74"/>
<text text-anchor="middle" x="119" y="-62" font-family="Helvetica,sans-Serif" font-size="10.00">KeyIds.hpp</text>
</a>
</g>
</g>
<!-- Node3&#45;&gt;Node4 -->
<g id="edge3" class="edge">
<title>Node3&#45;&gt;Node4</title>
<path fill="none" stroke="#63b8ff" d="M174.71,-109.54C163.85,-100.96 150.08,-90.07 138.94,-81.26"/>
<polygon fill="#63b8ff" stroke="#63b8ff" points="141.18,-78.57 131.16,-75.11 136.84,-84.06 141.18,-78.57"/>
</g>
<!-- Node6 -->
<g id="node6" class="node">
<title>Node6</title>
<g id="a_node6"><a xlink:title=" ">
<polygon fill="#e0e0e0" stroke="#999999" points="216,-74 170,-74 170,-55 216,-55 216,-74"/>
<text text-anchor="middle" x="193" y="-62" font-family="Helvetica,sans-Serif" font-size="10.00">chrono</text>
</a>
</g>
</g>
<!-- Node3&#45;&gt;Node6 -->
<g id="edge5" class="edge">
<title>Node3&#45;&gt;Node6</title>
<path fill="none" stroke="#63b8ff" d="M193,-109.54C193,-102.34 193,-93.53 193,-85.68"/>
<polygon fill="#63b8ff" stroke="#63b8ff" points="196.5,-85.69 193,-75.69 189.5,-85.69 196.5,-85.69"/>
</g>
<!-- Node7 -->
<g id="node7" class="node">
<title>Node7</title>
<g id="a_node7"><a xlink:title=" ">
<polygon fill="#e0e0e0" stroke="#999999" points="293.5,-74 234.5,-74 234.5,-55 293.5,-55 293.5,-74"/>
<text text-anchor="middle" x="264" y="-62" font-family="Helvetica,sans-Serif" font-size="10.00">functional</text>
</a>
</g>
</g>
<!-- Node3&#45;&gt;Node7 -->
<g id="edge6" class="edge">
<title>Node3&#45;&gt;Node7</title>
<path fill="none" stroke="#63b8ff" d="M210.55,-109.54C220.97,-100.96 234.18,-90.07 244.87,-81.26"/>
<polygon fill="#63b8ff" stroke="#63b8ff" points="246.81,-84.2 252.3,-75.14 242.36,-78.8 246.81,-84.2"/>
</g>
<!-- Node5 -->
<g id="node5" class="node">
<title>Node5</title>
<g id="a_node5"><a xlink:title=" ">
<polygon fill="#e0e0e0" stroke="#999999" points="145,-19 93,-19 93,0 145,0 145,-19"/>
<text text-anchor="middle" x="119" y="-7" font-family="Helvetica,sans-Serif" font-size="10.00">ostream</text>
</a>
</g>
</g>
<!-- Node4&#45;&gt;Node5 -->
<g id="edge4" class="edge">
<title>Node4&#45;&gt;Node5</title>
<path fill="none" stroke="#63b8ff" d="M119,-54.75C119,-48.27 119,-39.16 119,-30.9"/>
<polygon fill="#63b8ff" stroke="#63b8ff" points="122.5,-30.96 119,-20.96 115.5,-30.96 122.5,-30.96"/>
</g>
</g>
</svg>
