<?xml version="1.0" encoding="UTF-8" standalone="no"?>
<!DOCTYPE svg PUBLIC "-//W3C//DTD SVG 1.1//EN"
 "http://www.w3.org/Graphics/SVG/1.1/DTD/svg11.dtd">
<!-- Generated by graphviz version 7.0.5 (20221223.1930)
 -->
<!-- Title: src/main.cpp Pages: 1 -->
<svg width="1292pt" height="258pt"
 viewBox="0.00 0.00 1292.00 258.00" xmlns="http://www.w3.org/2000/svg" xmlns:xlink="http://www.w3.org/1999/xlink">
<g id="graph0" class="graph" transform="scale(1 1) rotate(0) translate(4 254)">
<title>src/main.cpp</title>
<!-- Node1 -->
<g id="node1" class="node">
<title>Node1</title>
<g id="a_node1"><a xlink:title=" ">
<polygon fill="#999999" stroke="#666666" points="666,-250 594,-250 594,-231 666,-231 666,-250"/>
<text text-anchor="middle" x="630" y="-238" font-family="Helvetica,sans-Serif" font-size="10.00">src/main.cpp</text>
</a>
</g>
</g>
<!-- Node2 -->
<g id="node2" class="node">
<title>Node2</title>
<g id="a_node2"><a xlink:title=" ">
<polygon fill="#e0e0e0" stroke="#999999" points="46,-129 0,-129 0,-110 46,-110 46,-129"/>
<text text-anchor="middle" x="23" y="-117" font-family="Helvetica,sans-Serif" font-size="10.00">chrono</text>
</a>
</g>
</g>
<!-- Node1&#45;&gt;Node2 -->
<g id="edge1" class="edge">
<title>Node1&#45;&gt;Node2</title>
<path fill="none" stroke="#63b8ff" d="M593.68,-239.17C472.04,-237.75 84.24,-230.46 42,-195 26.36,-181.87 22.63,-157.84 22.16,-140.62"/>
<polygon fill="#63b8ff" stroke="#63b8ff" points="25.65,-140.85 22.26,-130.81 18.65,-140.78 25.65,-140.85"/>
</g>
<!-- Node3 -->
<g id="node3" class="node">
<title>Node3</title>
<g id="a_node3"><a xlink:href="Protocol_8hpp.xhtml" target="_top" xlink:title=" ">
<polygon fill="white" stroke="#666666" points="700,-189.5 560,-189.5 560,-170.5 700,-170.5 700,-189.5"/>
<text text-anchor="middle" x="630" y="-177.5" font-family="Helvetica,sans-Serif" font-size="10.00">serial_interface/Protocol.hpp</text>
</a>
</g>
</g>
<!-- Node1&#45;&gt;Node3 -->
<g id="edge2" class="edge">
<title>Node1&#45;&gt;Node3</title>
<path fill="none" stroke="#63b8ff" d="M630,-230.87C630,-223 630,-211.1 630,-200.89"/>
<polygon fill="#63b8ff" stroke="#63b8ff" points="633.5,-201.18 630,-191.18 626.5,-201.18 633.5,-201.18"/>
</g>
<!-- Node4 -->
<g id="node4" class="node">
<title>Node4</title>
<g id="a_node4"><a xlink:href="serial__port_8hpp.xhtml" target="_top" xlink:title=" ">
<polygon fill="white" stroke="#666666" points="261.5,-195 152.5,-195 152.5,-165 261.5,-165 261.5,-195"/>
<text text-anchor="start" x="160.5" y="-183" font-family="Helvetica,sans-Serif" font-size="10.00">serial_interface/serial</text>
<text text-anchor="middle" x="207" y="-172" font-family="Helvetica,sans-Serif" font-size="10.00">_port.hpp</text>
</a>
</g>
</g>
<!-- Node1&#45;&gt;Node4 -->
<g id="edge3" class="edge">
<title>Node1&#45;&gt;Node4</title>
<path fill="none" stroke="#63b8ff" d="M593.55,-236.16C530.27,-230.11 395.78,-216.14 273,-195.42"/>
<polygon fill="#63b8ff" stroke="#63b8ff" points="273.85,-192.02 263.41,-193.78 272.67,-198.92 273.85,-192.02"/>
</g>
<!-- Node10 -->
<g id="node10" class="node">
<title>Node10</title>
<g id="a_node10"><a xlink:href="Task_8hpp.xhtml" target="_top" xlink:title=" ">
<polygon fill="white" stroke="#666666" points="134.5,-189.5 51.5,-189.5 51.5,-170.5 134.5,-170.5 134.5,-189.5"/>
<text text-anchor="middle" x="93" y="-177.5" font-family="Helvetica,sans-Serif" font-size="10.00">tasks/Task.hpp</text>
</a>
</g>
</g>
<!-- Node1&#45;&gt;Node10 -->
<g id="edge9" class="edge">
<title>Node1&#45;&gt;Node10</title>
<path fill="none" stroke="#63b8ff" d="M593.65,-238.44C512.29,-235.56 309.58,-225.67 143,-195 139.61,-194.38 136.11,-193.62 132.62,-192.8"/>
<polygon fill="#63b8ff" stroke="#63b8ff" points="133.63,-189.45 123.08,-190.35 131.89,-196.23 133.63,-189.45"/>
</g>
<!-- Node12 -->
<g id="node12" class="node">
<title>Node12</title>
<g id="a_node12"><a xlink:title=" ">
<polygon fill="#e0e0e0" stroke="#999999" points="762,-189.5 718,-189.5 718,-170.5 762,-170.5 762,-189.5"/>
<text text-anchor="middle" x="740" y="-177.5" font-family="Helvetica,sans-Serif" font-size="10.00">thread</text>
</a>
</g>
</g>
<!-- Node1&#45;&gt;Node12 -->
<g id="edge13" class="edge">
<title>Node1&#45;&gt;Node12</title>
<path fill="none" stroke="#63b8ff" d="M646.71,-230.62C664.31,-221.25 692.31,-206.36 713.05,-195.33"/>
<polygon fill="#63b8ff" stroke="#63b8ff" points="714.61,-198.46 721.8,-190.68 711.33,-192.28 714.61,-198.46"/>
</g>
<!-- Node13 -->
<g id="node13" class="node">
<title>Node13</title>
<g id="a_node13"><a xlink:href="Menu_8hpp.xhtml" target="_top" xlink:title=" ">
<polygon fill="white" stroke="#666666" points="991.5,-129 860.5,-129 860.5,-110 991.5,-110 991.5,-129"/>
<text text-anchor="middle" x="926" y="-117" font-family="Helvetica,sans-Serif" font-size="10.00">user_interaction/Menu.hpp</text>
</a>
</g>
</g>
<!-- Node1&#45;&gt;Node13 -->
<g id="edge14" class="edge">
<title>Node1&#45;&gt;Node13</title>
<path fill="none" stroke="#63b8ff" d="M666.45,-238.54C733.67,-236.01 873.46,-226.94 908,-195 922.79,-181.32 926.38,-157.76 926.85,-140.8"/>
<polygon fill="#63b8ff" stroke="#63b8ff" points="930.35,-140.86 926.75,-130.89 923.35,-140.93 930.35,-140.86"/>
</g>
<!-- Node15 -->
<g id="node15" class="node">
<title>Node15</title>
<g id="a_node15"><a xlink:href="Presenter_8hpp.xhtml" target="_top" xlink:title=" ">
<polygon fill="white" stroke="#666666" points="1107.5,-189.5 958.5,-189.5 958.5,-170.5 1107.5,-170.5 1107.5,-189.5"/>
<text text-anchor="middle" x="1033" y="-177.5" font-family="Helvetica,sans-Serif" font-size="10.00">user_interaction/Presenter.hpp</text>
</a>
</g>
</g>
<!-- Node1&#45;&gt;Node15 -->
<g id="edge16" class="edge">
<title>Node1&#45;&gt;Node15</title>
<path fill="none" stroke="#63b8ff" d="M666.05,-234.49C724.16,-226.38 842.14,-209.8 942,-195 949.14,-193.94 956.59,-192.82 964.03,-191.69"/>
<polygon fill="#63b8ff" stroke="#63b8ff" points="964.39,-195.18 973.75,-190.21 963.34,-188.26 964.39,-195.18"/>
</g>
<!-- Node19 -->
<g id="node19" class="node">
<title>Node19</title>
<g id="a_node19"><a xlink:href="ProcessHmiInputs_8hpp.xhtml" target="_top" xlink:title=" ">
<polygon fill="white" stroke="#666666" points="541.5,-195 416.5,-195 416.5,-165 541.5,-165 541.5,-195"/>
<text text-anchor="start" x="424.5" y="-183" font-family="Helvetica,sans-Serif" font-size="10.00">user_interaction/Process</text>
<text text-anchor="middle" x="479" y="-172" font-family="Helvetica,sans-Serif" font-size="10.00">HmiInputs.hpp</text>
</a>
</g>
</g>
<!-- Node1&#45;&gt;Node19 -->
<g id="edge21" class="edge">
<title>Node1&#45;&gt;Node19</title>
<path fill="none" stroke="#63b8ff" d="M607.07,-230.62C585.89,-222.41 553.77,-209.97 526.99,-199.59"/>
<polygon fill="#63b8ff" stroke="#63b8ff" points="528.27,-196.34 517.68,-195.99 525.74,-202.86 528.27,-196.34"/>
</g>
<!-- Node21 -->
<g id="node21" class="node">
<title>Node21</title>
<g id="a_node21"><a xlink:href="display__factory__interface_8hpp.xhtml" target="_top" xlink:title="Dependency injection for the display.">
<polygon fill="white" stroke="#666666" points="899.5,-195 780.5,-195 780.5,-165 899.5,-165 899.5,-195"/>
<text text-anchor="start" x="788.5" y="-183" font-family="Helvetica,sans-Serif" font-size="10.00">user_interaction/display</text>
<text text-anchor="middle" x="840" y="-172" font-family="Helvetica,sans-Serif" font-size="10.00">_factory_interface.hpp</text>
</a>
</g>
</g>
<!-- Node1&#45;&gt;Node21 -->
<g id="edge24" class="edge">
<title>Node1&#45;&gt;Node21</title>
<path fill="none" stroke="#63b8ff" d="M661.89,-230.62C692.39,-222.12 739.21,-209.08 777.2,-198.49"/>
<polygon fill="#63b8ff" stroke="#63b8ff" points="778.01,-201.9 786.71,-195.85 776.14,-195.16 778.01,-201.9"/>
</g>
<!-- Node22 -->
<g id="node22" class="node">
<title>Node22</title>
<g id="a_node22"><a xlink:href="keypad__factory__interface_8hpp.xhtml" target="_top" xlink:title="Dependency injection for the keypad.">
<polygon fill="white" stroke="#666666" points="398.5,-195 279.5,-195 279.5,-165 398.5,-165 398.5,-195"/>
<text text-anchor="start" x="287.5" y="-183" font-family="Helvetica,sans-Serif" font-size="10.00">user_interaction/keypad</text>
<text text-anchor="middle" x="339" y="-172" font-family="Helvetica,sans-Serif" font-size="10.00">_factory_interface.hpp</text>
</a>
</g>
</g>
<!-- Node1&#45;&gt;Node22 -->
<g id="edge26" class="edge">
<title>Node1&#45;&gt;Node22</title>
<path fill="none" stroke="#63b8ff" d="M593.68,-232.32C551.69,-224.01 480.19,-209.81 409.57,-195.51"/>
<polygon fill="#63b8ff" stroke="#63b8ff" points="410.68,-192.17 400.18,-193.61 409.29,-199.03 410.68,-192.17"/>
</g>
<!-- Node24 -->
<g id="node24" class="node">
<title>Node24</title>
<g id="a_node24"><a xlink:href="statusindicators__factory__interface_8hpp.xhtml" target="_top" xlink:title="Dependency injection for the keypad.">
<polygon fill="white" stroke="#666666" points="1284,-195 1126,-195 1126,-165 1284,-165 1284,-195"/>
<text text-anchor="start" x="1134" y="-183" font-family="Helvetica,sans-Serif" font-size="10.00">user_interaction/statusindicators</text>
<text text-anchor="middle" x="1205" y="-172" font-family="Helvetica,sans-Serif" font-size="10.00">_factory_interface.hpp</text>
</a>
</g>
</g>
<!-- Node1&#45;&gt;Node24 -->
<g id="edge30" class="edge">
<title>Node1&#45;&gt;Node24</title>
<path fill="none" stroke="#63b8ff" d="M666.44,-237C745.82,-231.39 940.54,-216.65 1114.46,-195.26"/>
<polygon fill="#63b8ff" stroke="#63b8ff" points="1114.89,-198.73 1124.38,-194.03 1114.02,-191.79 1114.89,-198.73"/>
</g>
<!-- Node5 -->
<g id="node5" class="node">
<title>Node5</title>
<g id="a_node5"><a xlink:title=" ">
<polygon fill="#e0e0e0" stroke="#999999" points="321,-129 283,-129 283,-110 321,-110 321,-129"/>
<text text-anchor="middle" x="302" y="-117" font-family="Helvetica,sans-Serif" font-size="10.00">array</text>
</a>
</g>
</g>
<!-- Node4&#45;&gt;Node5 -->
<g id="edge4" class="edge">
<title>Node4&#45;&gt;Node5</title>
<path fill="none" stroke="#63b8ff" d="M230.48,-164.54C244.9,-155.66 263.31,-144.32 277.85,-135.37"/>
<polygon fill="#63b8ff" stroke="#63b8ff" points="279.67,-138.36 286.35,-130.14 276,-132.4 279.67,-138.36"/>
</g>
<!-- Node6 -->
<g id="node6" class="node">
<title>Node6</title>
<g id="a_node6"><a xlink:title=" ">
<polygon fill="#e0e0e0" stroke="#999999" points="378.5,-74 319.5,-74 319.5,-55 378.5,-55 378.5,-74"/>
<text text-anchor="middle" x="349" y="-62" font-family="Helvetica,sans-Serif" font-size="10.00">functional</text>
</a>
</g>
</g>
<!-- Node4&#45;&gt;Node6 -->
<g id="edge5" class="edge">
<title>Node4&#45;&gt;Node6</title>
<path fill="none" stroke="#63b8ff" d="M254.16,-164.53C284.14,-154.48 319.26,-140.81 330,-129 340.78,-117.13 345.46,-99.37 347.48,-85.65"/>
<polygon fill="#63b8ff" stroke="#63b8ff" points="350.93,-86.29 348.52,-75.97 343.97,-85.54 350.93,-86.29"/>
</g>
<!-- Node7 -->
<g id="node7" class="node">
<title>Node7</title>
<g id="a_node7"><a xlink:title=" ">
<polygon fill="#e0e0e0" stroke="#999999" points="265,-129 215,-129 215,-110 265,-110 265,-129"/>
<text text-anchor="middle" x="240" y="-117" font-family="Helvetica,sans-Serif" font-size="10.00">optional</text>
</a>
</g>
</g>
<!-- Node4&#45;&gt;Node7 -->
<g id="edge6" class="edge">
<title>Node4&#45;&gt;Node7</title>
<path fill="none" stroke="#63b8ff" d="M215.16,-164.54C219.51,-156.82 224.91,-147.24 229.57,-138.99"/>
<polygon fill="#63b8ff" stroke="#63b8ff" points="232.5,-140.92 234.36,-130.49 226.4,-137.48 232.5,-140.92"/>
</g>
<!-- Node8 -->
<g id="node8" class="node">
<title>Node8</title>
<g id="a_node8"><a xlink:title=" ">
<polygon fill="#e0e0e0" stroke="#999999" points="334,-19 282,-19 282,0 334,0 334,-19"/>
<text text-anchor="middle" x="308" y="-7" font-family="Helvetica,sans-Serif" font-size="10.00">ostream</text>
</a>
</g>
</g>
<!-- Node4&#45;&gt;Node8 -->
<g id="edge7" class="edge">
<title>Node4&#45;&gt;Node8</title>
<path fill="none" stroke="#63b8ff" d="M203.54,-164.62C200.81,-150.2 198.55,-127.66 206,-110 221.62,-72.93 258.55,-42.81 283.41,-25.77"/>
<polygon fill="#63b8ff" stroke="#63b8ff" points="285.24,-28.75 291.65,-20.32 281.38,-22.92 285.24,-28.75"/>
</g>
<!-- Node9 -->
<g id="node9" class="node">
<title>Node9</title>
<g id="a_node9"><a xlink:title=" ">
<polygon fill="#e0e0e0" stroke="#999999" points="158.5,-129 117.5,-129 117.5,-110 158.5,-110 158.5,-129"/>
<text text-anchor="middle" x="138" y="-117" font-family="Helvetica,sans-Serif" font-size="10.00">string</text>
</a>
</g>
</g>
<!-- Node4&#45;&gt;Node9 -->
<g id="edge8" class="edge">
<title>Node4&#45;&gt;Node9</title>
<path fill="none" stroke="#63b8ff" d="M189.94,-164.54C179.92,-156.04 167.24,-145.29 156.91,-136.53"/>
<polygon fill="#63b8ff" stroke="#63b8ff" points="159.28,-133.95 149.39,-130.15 154.75,-139.29 159.28,-133.95"/>
</g>
<!-- Node10&#45;&gt;Node2 -->
<g id="edge10" class="edge">
<title>Node10&#45;&gt;Node2</title>
<path fill="none" stroke="#63b8ff" d="M82.37,-170.12C71.78,-161.27 55.29,-147.48 42.37,-136.69"/>
<polygon fill="#63b8ff" stroke="#63b8ff" points="44.81,-134.17 34.89,-130.44 40.32,-139.54 44.81,-134.17"/>
</g>
<!-- Node10&#45;&gt;Node9 -->
<g id="edge12" class="edge">
<title>Node10&#45;&gt;Node9</title>
<path fill="none" stroke="#63b8ff" d="M99.64,-170.37C106.15,-161.9 116.28,-148.74 124.49,-138.07"/>
<polygon fill="#63b8ff" stroke="#63b8ff" points="127.09,-140.43 130.41,-130.37 121.54,-136.16 127.09,-140.43"/>
</g>
<!-- Node11 -->
<g id="node11" class="node">
<title>Node11</title>
<g id="a_node11"><a xlink:title=" ">
<polygon fill="#e0e0e0" stroke="#999999" points="99.5,-129 64.5,-129 64.5,-110 99.5,-110 99.5,-129"/>
<text text-anchor="middle" x="82" y="-117" font-family="Helvetica,sans-Serif" font-size="10.00">map</text>
</a>
</g>
</g>
<!-- Node10&#45;&gt;Node11 -->
<g id="edge11" class="edge">
<title>Node10&#45;&gt;Node11</title>
<path fill="none" stroke="#63b8ff" d="M91.38,-170.37C89.9,-162.5 87.66,-150.6 85.74,-140.39"/>
<polygon fill="#63b8ff" stroke="#63b8ff" points="89.2,-139.84 83.91,-130.65 82.32,-141.13 89.2,-139.84"/>
</g>
<!-- Node14 -->
<g id="node14" class="node">
<title>Node14</title>
<g id="a_node14"><a xlink:href="IDisplay_8hpp.xhtml" target="_top" xlink:title=" ">
<polygon fill="white" stroke="#666666" points="913.5,-74 844.5,-74 844.5,-55 913.5,-55 913.5,-74"/>
<text text-anchor="middle" x="879" y="-62" font-family="Helvetica,sans-Serif" font-size="10.00">IDisplay.hpp</text>
</a>
</g>
</g>
<!-- Node13&#45;&gt;Node14 -->
<g id="edge15" class="edge">
<title>Node13&#45;&gt;Node14</title>
<path fill="none" stroke="#63b8ff" d="M918.24,-109.75C911.81,-102.5 902.49,-91.98 894.54,-83.02"/>
<polygon fill="#63b8ff" stroke="#63b8ff" points="897.19,-80.73 887.93,-75.57 891.95,-85.38 897.19,-80.73"/>
</g>
<!-- Node15&#45;&gt;Node13 -->
<g id="edge18" class="edge">
<title>Node15&#45;&gt;Node13</title>
<path fill="none" stroke="#63b8ff" d="M1016.75,-170.12C999.7,-160.79 972.64,-146 952.49,-134.99"/>
<polygon fill="#63b8ff" stroke="#63b8ff" points="954.19,-131.92 943.73,-130.19 950.83,-138.06 954.19,-131.92"/>
</g>
<!-- Node16 -->
<g id="node16" class="node">
<title>Node16</title>
<g id="a_node16"><a xlink:href="IStatusIndicator_8hpp.xhtml" target="_top" xlink:title=" ">
<polygon fill="white" stroke="#666666" points="1181,-129 1077,-129 1077,-110 1181,-110 1181,-129"/>
<text text-anchor="middle" x="1129" y="-117" font-family="Helvetica,sans-Serif" font-size="10.00">IStatusIndicator.hpp</text>
</a>
</g>
</g>
<!-- Node15&#45;&gt;Node16 -->
<g id="edge17" class="edge">
<title>Node15&#45;&gt;Node16</title>
<path fill="none" stroke="#63b8ff" d="M1047.58,-170.12C1062.66,-160.92 1086.49,-146.41 1104.48,-135.44"/>
<polygon fill="#63b8ff" stroke="#63b8ff" points="1106.27,-138.45 1112.99,-130.26 1102.63,-132.47 1106.27,-138.45"/>
</g>
<!-- Node17 -->
<g id="node17" class="node">
<title>Node17</title>
<g id="a_node17"><a xlink:title=" ">
<polygon fill="#e0e0e0" stroke="#999999" points="1058.5,-129 1009.5,-129 1009.5,-110 1058.5,-110 1058.5,-129"/>
<text text-anchor="middle" x="1034" y="-117" font-family="Helvetica,sans-Serif" font-size="10.00">cstddef</text>
</a>
</g>
</g>
<!-- Node15&#45;&gt;Node17 -->
<g id="edge19" class="edge">
<title>Node15&#45;&gt;Node17</title>
<path fill="none" stroke="#63b8ff" d="M1033.15,-170.37C1033.28,-162.5 1033.49,-150.6 1033.66,-140.39"/>
<polygon fill="#63b8ff" stroke="#63b8ff" points="1037.15,-140.74 1033.83,-130.68 1030.16,-140.62 1037.15,-140.74"/>
</g>
<!-- Node18 -->
<g id="node18" class="node">
<title>Node18</title>
<g id="a_node18"><a xlink:title=" ">
<polygon fill="#e0e0e0" stroke="#999999" points="1243,-129 1199,-129 1199,-110 1243,-110 1243,-129"/>
<text text-anchor="middle" x="1221" y="-117" font-family="Helvetica,sans-Serif" font-size="10.00">vector</text>
</a>
</g>
</g>
<!-- Node15&#45;&gt;Node18 -->
<g id="edge20" class="edge">
<title>Node15&#45;&gt;Node18</title>
<path fill="none" stroke="#63b8ff" d="M1061.55,-170.12C1095.48,-159.56 1151.98,-141.98 1187.81,-130.83"/>
<polygon fill="#63b8ff" stroke="#63b8ff" points="1188.72,-134.21 1197.22,-127.9 1186.64,-127.53 1188.72,-134.21"/>
</g>
<!-- Node20 -->
<g id="node20" class="node">
<title>Node20</title>
<g id="a_node20"><a xlink:href="KeyIds_8hpp.xhtml" target="_top" xlink:title=" ">
<polygon fill="white" stroke="#666666" points="461.5,-74 396.5,-74 396.5,-55 461.5,-55 461.5,-74"/>
<text text-anchor="middle" x="429" y="-62" font-family="Helvetica,sans-Serif" font-size="10.00">KeyIds.hpp</text>
</a>
</g>
</g>
<!-- Node19&#45;&gt;Node20 -->
<g id="edge22" class="edge">
<title>Node19&#45;&gt;Node20</title>
<path fill="none" stroke="#63b8ff" d="M475.23,-164.64C471.26,-150.42 464.43,-128.22 456,-110 451.88,-101.09 446.39,-91.73 441.44,-83.91"/>
<polygon fill="#63b8ff" stroke="#63b8ff" points="444.44,-82.09 436.03,-75.64 438.58,-85.93 444.44,-82.09"/>
</g>
<!-- Node20&#45;&gt;Node8 -->
<g id="edge23" class="edge">
<title>Node20&#45;&gt;Node8</title>
<path fill="none" stroke="#63b8ff" d="M408.47,-54.51C389.32,-46.12 360.5,-33.5 338.63,-23.92"/>
<polygon fill="#63b8ff" stroke="#63b8ff" points="340.17,-20.77 329.61,-19.97 337.36,-27.18 340.17,-20.77"/>
</g>
<!-- Node21&#45;&gt;Node14 -->
<g id="edge25" class="edge">
<title>Node21&#45;&gt;Node14</title>
<path fill="none" stroke="#63b8ff" d="M840.62,-164.56C841.61,-150.3 844.21,-128.05 851,-110 854.49,-100.73 860.05,-91.33 865.29,-83.57"/>
<polygon fill="#63b8ff" stroke="#63b8ff" points="867.96,-85.86 870.93,-75.7 862.27,-81.79 867.96,-85.86"/>
</g>
<!-- Node23 -->
<g id="node23" class="node">
<title>Node23</title>
<g id="a_node23"><a xlink:href="IKeypad_8hpp.xhtml" target="_top" xlink:title=" ">
<polygon fill="white" stroke="#666666" points="447,-129 377,-129 377,-110 447,-110 447,-129"/>
<text text-anchor="middle" x="412" y="-117" font-family="Helvetica,sans-Serif" font-size="10.00">IKeypad.hpp</text>
</a>
</g>
</g>
<!-- Node22&#45;&gt;Node23 -->
<g id="edge27" class="edge">
<title>Node22&#45;&gt;Node23</title>
<path fill="none" stroke="#63b8ff" d="M357.04,-164.54C367.76,-155.96 381.34,-145.07 392.33,-136.26"/>
<polygon fill="#63b8ff" stroke="#63b8ff" points="394.38,-139.11 399.99,-130.12 390,-133.64 394.38,-139.11"/>
</g>
<!-- Node23&#45;&gt;Node6 -->
<g id="edge29" class="edge">
<title>Node23&#45;&gt;Node6</title>
<path fill="none" stroke="#63b8ff" d="M401.31,-109.51C392.3,-101.93 379.17,-90.88 368.32,-81.75"/>
<polygon fill="#63b8ff" stroke="#63b8ff" points="370.59,-79.09 360.69,-75.33 366.09,-84.45 370.59,-79.09"/>
</g>
<!-- Node23&#45;&gt;Node20 -->
<g id="edge28" class="edge">
<title>Node23&#45;&gt;Node20</title>
<path fill="none" stroke="#63b8ff" d="M414.81,-109.75C416.94,-103.11 419.94,-93.73 422.64,-85.31"/>
<polygon fill="#63b8ff" stroke="#63b8ff" points="425.95,-86.47 425.67,-75.88 419.28,-84.34 425.95,-86.47"/>
</g>
<!-- Node24&#45;&gt;Node16 -->
<g id="edge31" class="edge">
<title>Node24&#45;&gt;Node16</title>
<path fill="none" stroke="#63b8ff" d="M1186.21,-164.54C1174.95,-155.87 1160.63,-144.85 1149.13,-136"/>
<polygon fill="#63b8ff" stroke="#63b8ff" points="1151.53,-133.42 1141.47,-130.1 1147.26,-138.97 1151.53,-133.42"/>
</g>
<!-- Node24&#45;&gt;Node18 -->
<g id="edge32" class="edge">
<title>Node24&#45;&gt;Node18</title>
<path fill="none" stroke="#63b8ff" d="M1208.96,-164.54C1210.97,-157.17 1213.45,-148.1 1215.64,-140.11"/>
<polygon fill="#63b8ff" stroke="#63b8ff" points="1218.97,-141.2 1218.23,-130.64 1212.21,-139.36 1218.97,-141.2"/>
</g>
</g>
</svg>
