<?xml version="1.0" encoding="UTF-8" standalone="no"?>
<!DOCTYPE svg PUBLIC "-//W3C//DTD SVG 1.1//EN"
 "http://www.w3.org/Graphics/SVG/1.1/DTD/svg11.dtd">
<!-- Generated by graphviz version 7.0.5 (20221223.1930)
 -->
<!-- Title: lib/board_adapters/status_indicators/status_indicators.hpp Pages: 1 -->
<svg width="234pt" height="170pt"
 viewBox="0.00 0.00 233.50 170.00" xmlns="http://www.w3.org/2000/svg" xmlns:xlink="http://www.w3.org/1999/xlink">
<g id="graph0" class="graph" transform="scale(1 1) rotate(0) translate(4 166)">
<title>lib/board_adapters/status_indicators/status_indicators.hpp</title>
<!-- Node1 -->
<g id="node1" class="node">
<title>Node1</title>
<g id="a_node1"><a xlink:title=" ">
<polygon fill="#999999" stroke="#666666" points="166.5,-162 42.5,-162 42.5,-121 166.5,-121 166.5,-162"/>
<text text-anchor="start" x="50.5" y="-150" font-family="Helvetica,sans-Serif" font-size="10.00">lib/board_adapters</text>
<text text-anchor="start" x="50.5" y="-139" font-family="Helvetica,sans-Serif" font-size="10.00">/status_indicators/status</text>
<text text-anchor="middle" x="104.5" y="-128" font-family="Helvetica,sans-Serif" font-size="10.00">_indicators.hpp</text>
</a>
</g>
</g>
<!-- Node2 -->
<g id="node2" class="node">
<title>Node2</title>
<g id="a_node2"><a xlink:href="board__types_8hpp.xhtml" target="_top" xlink:title=" ">
<polygon fill="white" stroke="#666666" points="87,-79.5 0,-79.5 0,-60.5 87,-60.5 87,-79.5"/>
<text text-anchor="middle" x="43.5" y="-67.5" font-family="Helvetica,sans-Serif" font-size="10.00">board_types.hpp</text>
</a>
</g>
</g>
<!-- Node1&#45;&gt;Node2 -->
<g id="edge1" class="edge">
<title>Node1&#45;&gt;Node2</title>
<path fill="none" stroke="#63b8ff" d="M87.18,-120.77C78.21,-110.55 67.36,-98.19 58.72,-88.34"/>
<polygon fill="#63b8ff" stroke="#63b8ff" points="61.47,-86.16 52.24,-80.96 56.21,-90.78 61.47,-86.16"/>
</g>
<!-- Node4 -->
<g id="node4" class="node">
<title>Node4</title>
<g id="a_node4"><a xlink:href="IStatusIndicator_8hpp.xhtml" target="_top" xlink:title=" ">
<polygon fill="white" stroke="#666666" points="225.5,-85 105.5,-85 105.5,-55 225.5,-55 225.5,-85"/>
<text text-anchor="start" x="113.5" y="-73" font-family="Helvetica,sans-Serif" font-size="10.00">user_interaction/IStatus</text>
<text text-anchor="middle" x="165.5" y="-62" font-family="Helvetica,sans-Serif" font-size="10.00">Indicator.hpp</text>
</a>
</g>
</g>
<!-- Node1&#45;&gt;Node4 -->
<g id="edge3" class="edge">
<title>Node1&#45;&gt;Node4</title>
<path fill="none" stroke="#63b8ff" d="M121.82,-120.77C129.14,-112.43 137.71,-102.66 145.32,-94"/>
<polygon fill="#63b8ff" stroke="#63b8ff" points="147.83,-96.44 151.8,-86.61 142.57,-91.82 147.83,-96.44"/>
</g>
<!-- Node3 -->
<g id="node3" class="node">
<title>Node3</title>
<g id="a_node3"><a xlink:title=" ">
<polygon fill="#e0e0e0" stroke="#999999" points="66.5,-19 20.5,-19 20.5,0 66.5,0 66.5,-19"/>
<text text-anchor="middle" x="43.5" y="-7" font-family="Helvetica,sans-Serif" font-size="10.00">cstdint</text>
</a>
</g>
</g>
<!-- Node2&#45;&gt;Node3 -->
<g id="edge2" class="edge">
<title>Node2&#45;&gt;Node3</title>
<path fill="none" stroke="#63b8ff" d="M43.5,-60.37C43.5,-52.5 43.5,-40.6 43.5,-30.39"/>
<polygon fill="#63b8ff" stroke="#63b8ff" points="47,-30.68 43.5,-20.68 40,-30.68 47,-30.68"/>
</g>
</g>
</svg>
