<?xml version="1.0" encoding="UTF-8" standalone="no"?>
<!DOCTYPE svg PUBLIC "-//W3C//DTD SVG 1.1//EN"
 "http://www.w3.org/Graphics/SVG/1.1/DTD/svg11.dtd">
<!-- Generated by graphviz version 7.0.5 (20221223.1930)
 -->
<!-- Title: lib/application_business_rules/user_interaction/ProcessHmiInputs.cpp Pages: 1 -->
<svg width="1012pt" height="225pt"
 viewBox="0.00 0.00 1012.00 225.00" xmlns="http://www.w3.org/2000/svg" xmlns:xlink="http://www.w3.org/1999/xlink">
<g id="graph0" class="graph" transform="scale(1 1) rotate(0) translate(4 221)">
<title>lib/application_business_rules/user_interaction/ProcessHmiInputs.cpp</title>
<!-- Node1 -->
<g id="node1" class="node">
<title>Node1</title>
<g id="a_node1"><a xlink:title=" ">
<polygon fill="#999999" stroke="#666666" points="495,-217 375,-217 375,-176 495,-176 495,-217"/>
<text text-anchor="start" x="383" y="-205" font-family="Helvetica,sans-Serif" font-size="10.00">lib/application_business</text>
<text text-anchor="start" x="383" y="-194" font-family="Helvetica,sans-Serif" font-size="10.00">_rules/user_interaction</text>
<text text-anchor="middle" x="435" y="-183" font-family="Helvetica,sans-Serif" font-size="10.00">/ProcessHmiInputs.cpp</text>
</a>
</g>
</g>
<!-- Node2 -->
<g id="node2" class="node">
<title>Node2</title>
<g id="a_node2"><a xlink:href="ProcessHmiInputs_8hpp.xhtml" target="_top" xlink:title=" ">
<polygon fill="white" stroke="#666666" points="116,-134.5 0,-134.5 0,-115.5 116,-115.5 116,-134.5"/>
<text text-anchor="middle" x="58" y="-122.5" font-family="Helvetica,sans-Serif" font-size="10.00">ProcessHmiInputs.hpp</text>
</a>
</g>
</g>
<!-- Node1&#45;&gt;Node2 -->
<g id="edge1" class="edge">
<title>Node1&#45;&gt;Node2</title>
<path fill="none" stroke="#63b8ff" d="M374.61,-185.22C312.06,-174.45 211.55,-156.79 125,-140 120.47,-139.12 115.78,-138.19 111.07,-137.24"/>
<polygon fill="#63b8ff" stroke="#63b8ff" points="112.12,-133.88 101.62,-135.3 110.71,-140.74 112.12,-133.88"/>
</g>
<!-- Node5 -->
<g id="node5" class="node">
<title>Node5</title>
<g id="a_node5"><a xlink:href="IKeypad_8hpp.xhtml" target="_top" xlink:title=" ">
<polygon fill="white" stroke="#666666" points="204,-134.5 134,-134.5 134,-115.5 204,-115.5 204,-134.5"/>
<text text-anchor="middle" x="169" y="-122.5" font-family="Helvetica,sans-Serif" font-size="10.00">IKeypad.hpp</text>
</a>
</g>
</g>
<!-- Node1&#45;&gt;Node5 -->
<g id="edge4" class="edge">
<title>Node1&#45;&gt;Node5</title>
<path fill="none" stroke="#63b8ff" d="M374.73,-181.32C330.16,-170.61 268.08,-155.19 214,-140 212.02,-139.44 209.99,-138.86 207.95,-138.26"/>
<polygon fill="#63b8ff" stroke="#63b8ff" points="209.05,-134.94 198.46,-135.41 207.03,-141.64 209.05,-134.94"/>
</g>
<!-- Node6 -->
<g id="node6" class="node">
<title>Node6</title>
<g id="a_node6"><a xlink:title=" ">
<polygon fill="#e0e0e0" stroke="#999999" points="255.5,-74 196.5,-74 196.5,-55 255.5,-55 255.5,-74"/>
<text text-anchor="middle" x="226" y="-62" font-family="Helvetica,sans-Serif" font-size="10.00">functional</text>
</a>
</g>
</g>
<!-- Node1&#45;&gt;Node6 -->
<g id="edge17" class="edge">
<title>Node1&#45;&gt;Node6</title>
<path fill="none" stroke="#63b8ff" d="M413.01,-175.71C388.33,-153.75 349.59,-120.08 333,-110 311.57,-96.98 285.66,-86.1 264.69,-78.35"/>
<polygon fill="#63b8ff" stroke="#63b8ff" points="265.95,-75.08 255.35,-74.99 263.58,-81.67 265.95,-75.08"/>
</g>
<!-- Node7 -->
<g id="node7" class="node">
<title>Node7</title>
<g id="a_node7"><a xlink:href="Presenter_8hpp.xhtml" target="_top" xlink:title=" ">
<polygon fill="white" stroke="#666666" points="725.5,-134.5 648.5,-134.5 648.5,-115.5 725.5,-115.5 725.5,-134.5"/>
<text text-anchor="middle" x="687" y="-122.5" font-family="Helvetica,sans-Serif" font-size="10.00">Presenter.hpp</text>
</a>
</g>
</g>
<!-- Node1&#45;&gt;Node7 -->
<g id="edge7" class="edge">
<title>Node1&#45;&gt;Node7</title>
<path fill="none" stroke="#63b8ff" d="M495.36,-178.85C541.01,-166.26 602.61,-149.27 643.51,-137.99"/>
<polygon fill="#63b8ff" stroke="#63b8ff" points="644.3,-141.41 653.01,-135.37 642.44,-134.66 644.3,-141.41"/>
</g>
<!-- Node13 -->
<g id="node13" class="node">
<title>Node13</title>
<g id="a_node13"><a xlink:href="board__interface_8hpp.xhtml" target="_top" xlink:title=" ">
<polygon fill="white" stroke="#666666" points="323.5,-134.5 222.5,-134.5 222.5,-115.5 323.5,-115.5 323.5,-134.5"/>
<text text-anchor="middle" x="273" y="-122.5" font-family="Helvetica,sans-Serif" font-size="10.00">board_interface.hpp</text>
</a>
</g>
</g>
<!-- Node1&#45;&gt;Node13 -->
<g id="edge13" class="edge">
<title>Node1&#45;&gt;Node13</title>
<path fill="none" stroke="#63b8ff" d="M388.58,-175.58C361.5,-163.97 328.07,-149.62 304.14,-139.36"/>
<polygon fill="#63b8ff" stroke="#63b8ff" points="305.83,-136.28 295.26,-135.55 303.07,-142.71 305.83,-136.28"/>
</g>
<!-- Node15 -->
<g id="node15" class="node">
<title>Node15</title>
<g id="a_node15"><a xlink:href="serial__port_8hpp.xhtml" target="_top" xlink:title=" ">
<polygon fill="white" stroke="#666666" points="489.5,-140 380.5,-140 380.5,-110 489.5,-110 489.5,-140"/>
<text text-anchor="start" x="388.5" y="-128" font-family="Helvetica,sans-Serif" font-size="10.00">serial_interface/serial</text>
<text text-anchor="middle" x="435" y="-117" font-family="Helvetica,sans-Serif" font-size="10.00">_port.hpp</text>
</a>
</g>
</g>
<!-- Node1&#45;&gt;Node15 -->
<g id="edge18" class="edge">
<title>Node1&#45;&gt;Node15</title>
<path fill="none" stroke="#63b8ff" d="M435,-175.77C435,-168.31 435,-159.7 435,-151.77"/>
<polygon fill="#63b8ff" stroke="#63b8ff" points="438.5,-151.99 435,-141.99 431.5,-151.99 438.5,-151.99"/>
</g>
<!-- Node19 -->
<g id="node19" class="node">
<title>Node19</title>
<g id="a_node19"><a xlink:title=" ">
<polygon fill="#e0e0e0" stroke="#999999" points="802.5,-134.5 743.5,-134.5 743.5,-115.5 802.5,-115.5 802.5,-134.5"/>
<text text-anchor="middle" x="773" y="-122.5" font-family="Helvetica,sans-Serif" font-size="10.00">stdexcept</text>
</a>
</g>
</g>
<!-- Node1&#45;&gt;Node19 -->
<g id="edge24" class="edge">
<title>Node1&#45;&gt;Node19</title>
<path fill="none" stroke="#63b8ff" d="M495.44,-187.41C556.52,-178.51 653.28,-162.44 735,-140 736.61,-139.56 738.25,-139.08 739.9,-138.57"/>
<polygon fill="#63b8ff" stroke="#63b8ff" points="740.91,-141.92 749.27,-135.42 738.67,-135.29 740.91,-141.92"/>
</g>
<!-- Node20 -->
<g id="node20" class="node">
<title>Node20</title>
<g id="a_node20"><a xlink:href="Task_8hpp.xhtml" target="_top" xlink:title=" ">
<polygon fill="white" stroke="#666666" points="590.5,-134.5 507.5,-134.5 507.5,-115.5 590.5,-115.5 590.5,-134.5"/>
<text text-anchor="middle" x="549" y="-122.5" font-family="Helvetica,sans-Serif" font-size="10.00">tasks/Task.hpp</text>
</a>
</g>
</g>
<!-- Node1&#45;&gt;Node20 -->
<g id="edge25" class="edge">
<title>Node1&#45;&gt;Node20</title>
<path fill="none" stroke="#63b8ff" d="M467.67,-175.58C485.87,-164.49 508.14,-150.91 524.77,-140.77"/>
<polygon fill="#63b8ff" stroke="#63b8ff" points="526.3,-143.94 533.02,-135.74 522.66,-137.96 526.3,-143.94"/>
</g>
<!-- Node22 -->
<g id="node22" class="node">
<title>Node22</title>
<g id="a_node22"><a xlink:href="type__traits_8hpp.xhtml" target="_top" xlink:title=" ">
<polygon fill="white" stroke="#666666" points="937,-134.5 857,-134.5 857,-115.5 937,-115.5 937,-134.5"/>
<text text-anchor="middle" x="897" y="-122.5" font-family="Helvetica,sans-Serif" font-size="10.00">type_traits.hpp</text>
</a>
</g>
</g>
<!-- Node1&#45;&gt;Node22 -->
<g id="edge29" class="edge">
<title>Node1&#45;&gt;Node22</title>
<path fill="none" stroke="#63b8ff" d="M495.45,-186.93C569.94,-176.28 700.39,-157.41 812,-140 822.86,-138.31 834.48,-136.43 845.55,-134.62"/>
<polygon fill="#63b8ff" stroke="#63b8ff" points="846.02,-138.09 855.32,-133.01 844.88,-131.18 846.02,-138.09"/>
</g>
<!-- Node3 -->
<g id="node3" class="node">
<title>Node3</title>
<g id="a_node3"><a xlink:href="KeyIds_8hpp.xhtml" target="_top" xlink:title=" ">
<polygon fill="white" stroke="#666666" points="178.5,-74 113.5,-74 113.5,-55 178.5,-55 178.5,-74"/>
<text text-anchor="middle" x="146" y="-62" font-family="Helvetica,sans-Serif" font-size="10.00">KeyIds.hpp</text>
</a>
</g>
</g>
<!-- Node2&#45;&gt;Node3 -->
<g id="edge2" class="edge">
<title>Node2&#45;&gt;Node3</title>
<path fill="none" stroke="#63b8ff" d="M71.37,-115.12C85.06,-106.01 106.62,-91.68 123.06,-80.75"/>
<polygon fill="#63b8ff" stroke="#63b8ff" points="124.86,-83.76 131.25,-75.31 120.98,-77.93 124.86,-83.76"/>
</g>
<!-- Node4 -->
<g id="node4" class="node">
<title>Node4</title>
<g id="a_node4"><a xlink:title=" ">
<polygon fill="#e0e0e0" stroke="#999999" points="241,-19 189,-19 189,0 241,0 241,-19"/>
<text text-anchor="middle" x="215" y="-7" font-family="Helvetica,sans-Serif" font-size="10.00">ostream</text>
</a>
</g>
</g>
<!-- Node3&#45;&gt;Node4 -->
<g id="edge3" class="edge">
<title>Node3&#45;&gt;Node4</title>
<path fill="none" stroke="#63b8ff" d="M157.7,-54.51C167.78,-46.77 182.54,-35.43 194.56,-26.2"/>
<polygon fill="#63b8ff" stroke="#63b8ff" points="196.47,-29.15 202.27,-20.28 192.21,-23.6 196.47,-29.15"/>
</g>
<!-- Node5&#45;&gt;Node3 -->
<g id="edge5" class="edge">
<title>Node5&#45;&gt;Node3</title>
<path fill="none" stroke="#63b8ff" d="M165.61,-115.37C162.45,-107.33 157.63,-95.07 153.56,-84.72"/>
<polygon fill="#63b8ff" stroke="#63b8ff" points="156.88,-83.6 149.96,-75.58 150.36,-86.16 156.88,-83.6"/>
</g>
<!-- Node5&#45;&gt;Node6 -->
<g id="edge6" class="edge">
<title>Node5&#45;&gt;Node6</title>
<path fill="none" stroke="#63b8ff" d="M177.41,-115.37C185.91,-106.64 199.27,-92.93 209.83,-82.09"/>
<polygon fill="#63b8ff" stroke="#63b8ff" points="212.03,-84.86 216.5,-75.25 207.01,-79.97 212.03,-84.86"/>
</g>
<!-- Node8 -->
<g id="node8" class="node">
<title>Node8</title>
<g id="a_node8"><a xlink:href="IStatusIndicator_8hpp.xhtml" target="_top" xlink:title=" ">
<polygon fill="white" stroke="#666666" points="779,-74 675,-74 675,-55 779,-55 779,-74"/>
<text text-anchor="middle" x="727" y="-62" font-family="Helvetica,sans-Serif" font-size="10.00">IStatusIndicator.hpp</text>
</a>
</g>
</g>
<!-- Node7&#45;&gt;Node8 -->
<g id="edge8" class="edge">
<title>Node7&#45;&gt;Node8</title>
<path fill="none" stroke="#63b8ff" d="M692.9,-115.37C698.63,-106.99 707.51,-94.01 714.76,-83.39"/>
<polygon fill="#63b8ff" stroke="#63b8ff" points="717.46,-85.65 720.22,-75.42 711.69,-81.7 717.46,-85.65"/>
</g>
<!-- Node9 -->
<g id="node9" class="node">
<title>Node9</title>
<g id="a_node9"><a xlink:href="Menu_8hpp.xhtml" target="_top" xlink:title=" ">
<polygon fill="white" stroke="#666666" points="856.5,-74 797.5,-74 797.5,-55 856.5,-55 856.5,-74"/>
<text text-anchor="middle" x="827" y="-62" font-family="Helvetica,sans-Serif" font-size="10.00">Menu.hpp</text>
</a>
</g>
</g>
<!-- Node7&#45;&gt;Node9 -->
<g id="edge9" class="edge">
<title>Node7&#45;&gt;Node9</title>
<path fill="none" stroke="#63b8ff" d="M708.26,-115.12C731.39,-105.45 768.61,-89.9 795.21,-78.78"/>
<polygon fill="#63b8ff" stroke="#63b8ff" points="796.26,-82.14 804.14,-75.05 793.56,-75.68 796.26,-82.14"/>
</g>
<!-- Node11 -->
<g id="node11" class="node">
<title>Node11</title>
<g id="a_node11"><a xlink:title=" ">
<polygon fill="#e0e0e0" stroke="#999999" points="923.5,-74 874.5,-74 874.5,-55 923.5,-55 923.5,-74"/>
<text text-anchor="middle" x="899" y="-62" font-family="Helvetica,sans-Serif" font-size="10.00">cstddef</text>
</a>
</g>
</g>
<!-- Node7&#45;&gt;Node11 -->
<g id="edge11" class="edge">
<title>Node7&#45;&gt;Node11</title>
<path fill="none" stroke="#63b8ff" d="M717.45,-115.03C723.27,-113.34 729.32,-111.6 735,-110 779.07,-97.59 829.99,-83.87 863.24,-74.99"/>
<polygon fill="#63b8ff" stroke="#63b8ff" points="864.01,-78.41 872.77,-72.45 862.21,-71.65 864.01,-78.41"/>
</g>
<!-- Node12 -->
<g id="node12" class="node">
<title>Node12</title>
<g id="a_node12"><a xlink:title=" ">
<polygon fill="#e0e0e0" stroke="#999999" points="657,-74 613,-74 613,-55 657,-55 657,-74"/>
<text text-anchor="middle" x="635" y="-62" font-family="Helvetica,sans-Serif" font-size="10.00">vector</text>
</a>
</g>
</g>
<!-- Node7&#45;&gt;Node12 -->
<g id="edge12" class="edge">
<title>Node7&#45;&gt;Node12</title>
<path fill="none" stroke="#63b8ff" d="M679.33,-115.37C671.72,-106.81 659.86,-93.47 650.32,-82.74"/>
<polygon fill="#63b8ff" stroke="#63b8ff" points="652.97,-80.45 643.71,-75.3 647.74,-85.1 652.97,-80.45"/>
</g>
<!-- Node10 -->
<g id="node10" class="node">
<title>Node10</title>
<g id="a_node10"><a xlink:href="IDisplay_8hpp.xhtml" target="_top" xlink:title=" ">
<polygon fill="white" stroke="#666666" points="861.5,-19 792.5,-19 792.5,0 861.5,0 861.5,-19"/>
<text text-anchor="middle" x="827" y="-7" font-family="Helvetica,sans-Serif" font-size="10.00">IDisplay.hpp</text>
</a>
</g>
</g>
<!-- Node9&#45;&gt;Node10 -->
<g id="edge10" class="edge">
<title>Node9&#45;&gt;Node10</title>
<path fill="none" stroke="#63b8ff" d="M827,-54.75C827,-48.27 827,-39.16 827,-30.9"/>
<polygon fill="#63b8ff" stroke="#63b8ff" points="830.5,-30.96 827,-20.96 823.5,-30.96 830.5,-30.96"/>
</g>
<!-- Node13&#45;&gt;Node3 -->
<g id="edge14" class="edge">
<title>Node13&#45;&gt;Node3</title>
<path fill="none" stroke="#63b8ff" d="M253.71,-115.12C233.01,-105.58 199.87,-90.31 175.81,-79.23"/>
<polygon fill="#63b8ff" stroke="#63b8ff" points="177.39,-76.11 166.84,-75.1 174.46,-82.46 177.39,-76.11"/>
</g>
<!-- Node13&#45;&gt;Node6 -->
<g id="edge16" class="edge">
<title>Node13&#45;&gt;Node6</title>
<path fill="none" stroke="#63b8ff" d="M266.06,-115.37C259.26,-106.9 248.69,-93.74 240.11,-83.07"/>
<polygon fill="#63b8ff" stroke="#63b8ff" points="242.9,-80.95 233.91,-75.35 237.45,-85.34 242.9,-80.95"/>
</g>
<!-- Node14 -->
<g id="node14" class="node">
<title>Node14</title>
<g id="a_node14"><a xlink:title=" ">
<polygon fill="#e0e0e0" stroke="#999999" points="414,-74 368,-74 368,-55 414,-55 414,-74"/>
<text text-anchor="middle" x="391" y="-62" font-family="Helvetica,sans-Serif" font-size="10.00">chrono</text>
</a>
</g>
</g>
<!-- Node13&#45;&gt;Node14 -->
<g id="edge15" class="edge">
<title>Node13&#45;&gt;Node14</title>
<path fill="none" stroke="#63b8ff" d="M290.92,-115.12C309.98,-105.67 340.4,-90.59 362.7,-79.53"/>
<polygon fill="#63b8ff" stroke="#63b8ff" points="364.15,-82.72 371.55,-75.14 361.04,-76.45 364.15,-82.72"/>
</g>
<!-- Node15&#45;&gt;Node4 -->
<g id="edge22" class="edge">
<title>Node15&#45;&gt;Node4</title>
<path fill="none" stroke="#63b8ff" d="M387.87,-109.52C362.08,-100.77 329.98,-88.51 303,-74 277.66,-60.37 251.24,-40.4 234.04,-26.51"/>
<polygon fill="#63b8ff" stroke="#63b8ff" points="236.62,-24.1 226.67,-20.46 232.18,-29.51 236.62,-24.1"/>
</g>
<!-- Node15&#45;&gt;Node6 -->
<g id="edge20" class="edge">
<title>Node15&#45;&gt;Node6</title>
<path fill="none" stroke="#63b8ff" d="M383.34,-109.54C347.28,-99.45 299.84,-86.17 266.51,-76.84"/>
<polygon fill="#63b8ff" stroke="#63b8ff" points="267.82,-73.57 257.24,-74.24 265.93,-80.31 267.82,-73.57"/>
</g>
<!-- Node16 -->
<g id="node16" class="node">
<title>Node16</title>
<g id="a_node16"><a xlink:title=" ">
<polygon fill="#e0e0e0" stroke="#999999" points="350,-74 312,-74 312,-55 350,-55 350,-74"/>
<text text-anchor="middle" x="331" y="-62" font-family="Helvetica,sans-Serif" font-size="10.00">array</text>
</a>
</g>
</g>
<!-- Node15&#45;&gt;Node16 -->
<g id="edge19" class="edge">
<title>Node15&#45;&gt;Node16</title>
<path fill="none" stroke="#63b8ff" d="M409.29,-109.54C393.21,-100.49 372.57,-88.88 356.52,-79.85"/>
<polygon fill="#63b8ff" stroke="#63b8ff" points="358.48,-76.94 348.05,-75.09 355.05,-83.04 358.48,-76.94"/>
</g>
<!-- Node17 -->
<g id="node17" class="node">
<title>Node17</title>
<g id="a_node17"><a xlink:title=" ">
<polygon fill="#e0e0e0" stroke="#999999" points="482,-74 432,-74 432,-55 482,-55 482,-74"/>
<text text-anchor="middle" x="457" y="-62" font-family="Helvetica,sans-Serif" font-size="10.00">optional</text>
</a>
</g>
</g>
<!-- Node15&#45;&gt;Node17 -->
<g id="edge21" class="edge">
<title>Node15&#45;&gt;Node17</title>
<path fill="none" stroke="#63b8ff" d="M440.44,-109.54C443.24,-102.08 446.7,-92.89 449.73,-84.83"/>
<polygon fill="#63b8ff" stroke="#63b8ff" points="452.96,-86.18 453.2,-75.59 446.41,-83.72 452.96,-86.18"/>
</g>
<!-- Node18 -->
<g id="node18" class="node">
<title>Node18</title>
<g id="a_node18"><a xlink:title=" ">
<polygon fill="#e0e0e0" stroke="#999999" points="541.5,-74 500.5,-74 500.5,-55 541.5,-55 541.5,-74"/>
<text text-anchor="middle" x="521" y="-62" font-family="Helvetica,sans-Serif" font-size="10.00">string</text>
</a>
</g>
</g>
<!-- Node15&#45;&gt;Node18 -->
<g id="edge23" class="edge">
<title>Node15&#45;&gt;Node18</title>
<path fill="none" stroke="#63b8ff" d="M456.26,-109.54C469.18,-100.75 485.66,-89.54 498.75,-80.63"/>
<polygon fill="#63b8ff" stroke="#63b8ff" points="500.44,-83.72 506.74,-75.2 496.51,-77.93 500.44,-83.72"/>
</g>
<!-- Node20&#45;&gt;Node14 -->
<g id="edge26" class="edge">
<title>Node20&#45;&gt;Node14</title>
<path fill="none" stroke="#63b8ff" d="M525,-115.12C498.32,-105.24 455.03,-89.21 424.9,-78.05"/>
<polygon fill="#63b8ff" stroke="#63b8ff" points="426.46,-74.9 415.87,-74.71 424.03,-81.46 426.46,-74.9"/>
</g>
<!-- Node20&#45;&gt;Node18 -->
<g id="edge28" class="edge">
<title>Node20&#45;&gt;Node18</title>
<path fill="none" stroke="#63b8ff" d="M544.87,-115.37C540.98,-107.25 535.03,-94.81 530.04,-84.39"/>
<polygon fill="#63b8ff" stroke="#63b8ff" points="533.28,-83.04 525.8,-75.53 526.96,-86.06 533.28,-83.04"/>
</g>
<!-- Node21 -->
<g id="node21" class="node">
<title>Node21</title>
<g id="a_node21"><a xlink:title=" ">
<polygon fill="#e0e0e0" stroke="#999999" points="594.5,-74 559.5,-74 559.5,-55 594.5,-55 594.5,-74"/>
<text text-anchor="middle" x="577" y="-62" font-family="Helvetica,sans-Serif" font-size="10.00">map</text>
</a>
</g>
</g>
<!-- Node20&#45;&gt;Node21 -->
<g id="edge27" class="edge">
<title>Node20&#45;&gt;Node21</title>
<path fill="none" stroke="#63b8ff" d="M553.13,-115.37C557.02,-107.25 562.97,-94.81 567.96,-84.39"/>
<polygon fill="#63b8ff" stroke="#63b8ff" points="571.04,-86.06 572.2,-75.53 564.72,-83.04 571.04,-86.06"/>
</g>
<!-- Node23 -->
<g id="node23" class="node">
<title>Node23</title>
<g id="a_node23"><a xlink:title=" ">
<polygon fill="#e0e0e0" stroke="#999999" points="1004,-74 942,-74 942,-55 1004,-55 1004,-74"/>
<text text-anchor="middle" x="973" y="-62" font-family="Helvetica,sans-Serif" font-size="10.00">type_traits</text>
</a>
</g>
</g>
<!-- Node22&#45;&gt;Node23 -->
<g id="edge30" class="edge">
<title>Node22&#45;&gt;Node23</title>
<path fill="none" stroke="#63b8ff" d="M908.54,-115.12C920.15,-106.18 938.29,-92.22 952.38,-81.37"/>
<polygon fill="#63b8ff" stroke="#63b8ff" points="954.36,-84.26 960.15,-75.39 950.09,-78.72 954.36,-84.26"/>
</g>
</g>
</svg>
