<?xml version="1.0" encoding="UTF-8" standalone="no"?>
<!DOCTYPE svg PUBLIC "-//W3C//DTD SVG 1.1//EN"
 "http://www.w3.org/Graphics/SVG/1.1/DTD/svg11.dtd">
<!-- Generated by graphviz version 7.0.5 (20221223.1930)
 -->
<!-- Title: lib/utilities/string_helpers.hpp Pages: 1 -->
<svg width="327pt" height="93pt"
 viewBox="0.00 0.00 327.00 93.00" xmlns="http://www.w3.org/2000/svg" xmlns:xlink="http://www.w3.org/1999/xlink">
<g id="graph0" class="graph" transform="scale(1 1) rotate(0) translate(4 89)">
<title>lib/utilities/string_helpers.hpp</title>
<!-- Node1 -->
<g id="node1" class="node">
<title>Node1</title>
<g id="a_node1"><a xlink:title=" ">
<polygon fill="#999999" stroke="#666666" points="211.5,-85 124.5,-85 124.5,-55 211.5,-55 211.5,-85"/>
<text text-anchor="start" x="132.5" y="-73" font-family="Helvetica,sans-Serif" font-size="10.00">lib/utilities/string</text>
<text text-anchor="middle" x="168" y="-62" font-family="Helvetica,sans-Serif" font-size="10.00">_helpers.hpp</text>
</a>
</g>
</g>
<!-- Node2 -->
<g id="node2" class="node">
<title>Node2</title>
<g id="a_node2"><a xlink:title=" ">
<polygon fill="#e0e0e0" stroke="#999999" points="50,-19 0,-19 0,0 50,0 50,-19"/>
<text text-anchor="middle" x="25" y="-7" font-family="Helvetica,sans-Serif" font-size="10.00">iomanip</text>
</a>
</g>
</g>
<!-- Node1&#45;&gt;Node2 -->
<g id="edge1" class="edge">
<title>Node1&#45;&gt;Node2</title>
<path fill="none" stroke="#63b8ff" d="M132.65,-54.54C109.48,-45.06 79.44,-32.77 56.98,-23.58"/>
<polygon fill="#63b8ff" stroke="#63b8ff" points="58.61,-20.47 48.02,-19.92 55.96,-26.95 58.61,-20.47"/>
</g>
<!-- Node3 -->
<g id="node3" class="node">
<title>Node3</title>
<g id="a_node3"><a xlink:title=" ">
<polygon fill="#e0e0e0" stroke="#999999" points="120,-19 68,-19 68,0 120,0 120,-19"/>
<text text-anchor="middle" x="94" y="-7" font-family="Helvetica,sans-Serif" font-size="10.00">sstream</text>
</a>
</g>
</g>
<!-- Node1&#45;&gt;Node3 -->
<g id="edge2" class="edge">
<title>Node1&#45;&gt;Node3</title>
<path fill="none" stroke="#63b8ff" d="M149.71,-54.54C138.85,-45.96 125.08,-35.07 113.94,-26.26"/>
<polygon fill="#63b8ff" stroke="#63b8ff" points="116.18,-23.57 106.16,-20.11 111.84,-29.06 116.18,-23.57"/>
</g>
<!-- Node4 -->
<g id="node4" class="node">
<title>Node4</title>
<g id="a_node4"><a xlink:title=" ">
<polygon fill="#e0e0e0" stroke="#999999" points="197.5,-19 138.5,-19 138.5,0 197.5,0 197.5,-19"/>
<text text-anchor="middle" x="168" y="-7" font-family="Helvetica,sans-Serif" font-size="10.00">stdexcept</text>
</a>
</g>
</g>
<!-- Node1&#45;&gt;Node4 -->
<g id="edge3" class="edge">
<title>Node1&#45;&gt;Node4</title>
<path fill="none" stroke="#63b8ff" d="M168,-54.54C168,-47.34 168,-38.53 168,-30.68"/>
<polygon fill="#63b8ff" stroke="#63b8ff" points="171.5,-30.69 168,-20.69 164.5,-30.69 171.5,-30.69"/>
</g>
<!-- Node5 -->
<g id="node5" class="node">
<title>Node5</title>
<g id="a_node5"><a xlink:title=" ">
<polygon fill="#e0e0e0" stroke="#999999" points="256.5,-19 215.5,-19 215.5,0 256.5,0 256.5,-19"/>
<text text-anchor="middle" x="236" y="-7" font-family="Helvetica,sans-Serif" font-size="10.00">string</text>
</a>
</g>
</g>
<!-- Node1&#45;&gt;Node5 -->
<g id="edge4" class="edge">
<title>Node1&#45;&gt;Node5</title>
<path fill="none" stroke="#63b8ff" d="M184.81,-54.54C194.69,-46.04 207.19,-35.29 217.37,-26.53"/>
<polygon fill="#63b8ff" stroke="#63b8ff" points="219.47,-29.34 224.77,-20.16 214.91,-24.03 219.47,-29.34"/>
</g>
<!-- Node6 -->
<g id="node6" class="node">
<title>Node6</title>
<g id="a_node6"><a xlink:title=" ">
<polygon fill="#e0e0e0" stroke="#999999" points="319,-19 275,-19 275,0 319,0 319,-19"/>
<text text-anchor="middle" x="297" y="-7" font-family="Helvetica,sans-Serif" font-size="10.00">vector</text>
</a>
</g>
</g>
<!-- Node1&#45;&gt;Node6 -->
<g id="edge5" class="edge">
<title>Node1&#45;&gt;Node6</title>
<path fill="none" stroke="#63b8ff" d="M199.89,-54.54C220.41,-45.23 246.91,-33.22 267.04,-24.09"/>
<polygon fill="#63b8ff" stroke="#63b8ff" points="268.45,-27.29 276.11,-19.97 265.56,-20.91 268.45,-27.29"/>
</g>
</g>
</svg>
