<?xml version="1.0" encoding="UTF-8" standalone="no"?>
<!DOCTYPE svg PUBLIC "-//W3C//DTD SVG 1.1//EN"
 "http://www.w3.org/Graphics/SVG/1.1/DTD/svg11.dtd">
<!-- Generated by graphviz version 9.0.0 (20230911.1827)
 -->
<!-- Title: src/display.cpp Pages: 1 -->
<svg width="329pt" height="193pt"
 viewBox="0.00 0.00 328.75 193.00" xmlns="http://www.w3.org/2000/svg" xmlns:xlink="http://www.w3.org/1999/xlink">
<g id="graph0" class="graph" transform="scale(1 1) rotate(0) translate(4 189)">
<title>src/display.cpp</title>
<!-- Node1 -->
<g id="Node000001" class="node">
<title>Node1</title>
<g id="a_Node000001"><a xlink:title=" ">
<polygon fill="#999999" stroke="#666666" points="192.5,-185 112,-185 112,-165.75 192.5,-165.75 192.5,-185"/>
<text text-anchor="middle" x="152.25" y="-171.5" font-family="Helvetica,sans-Serif" font-size="10.00">src/display.cpp</text>
</a>
</g>
</g>
<!-- Node2 -->
<g id="Node000002" class="node">
<title>Node2</title>
<g id="a_Node000002"><a xlink:href="board__pins_8hpp.xhtml" target="_top" xlink:title="Provides named objects for the pins provided by the board.">
<polygon fill="white" stroke="#666666" points="137.88,-129.75 56.62,-129.75 56.62,-110.5 137.88,-110.5 137.88,-129.75"/>
<text text-anchor="middle" x="97.25" y="-116.25" font-family="Helvetica,sans-Serif" font-size="10.00">board_pins.hpp</text>
</a>
</g>
</g>
<!-- Node1&#45;&gt;Node2 -->
<g id="edge1_Node000001_Node000002" class="edge">
<title>Node1&#45;&gt;Node2</title>
<g id="a_edge1_Node000001_Node000002"><a xlink:title=" ">
<path fill="none" stroke="#63b8ff" d="M143.17,-165.58C135.41,-158.07 124.04,-147.06 114.55,-137.88"/>
<polygon fill="#63b8ff" stroke="#63b8ff" points="117.24,-135.6 107.62,-131.16 112.37,-140.63 117.24,-135.6"/>
</a>
</g>
</g>
<!-- Node4 -->
<g id="Node000004" class="node">
<title>Node4</title>
<g id="a_Node000004"><a xlink:title=" ">
<polygon fill="#e0e0e0" stroke="#999999" points="56.5,-19.25 0,-19.25 0,0 56.5,0 56.5,-19.25"/>
<text text-anchor="middle" x="28.25" y="-5.75" font-family="Helvetica,sans-Serif" font-size="10.00">Arduino.h</text>
</a>
</g>
</g>
<!-- Node1&#45;&gt;Node4 -->
<g id="edge7_Node000001_Node000004" class="edge">
<title>Node1&#45;&gt;Node4</title>
<g id="a_edge7_Node000001_Node000004"><a xlink:title=" ">
<path fill="none" stroke="#63b8ff" d="M111.72,-167.11C89.32,-160.97 62.93,-149.8 47.25,-129.75 24.85,-101.1 24.1,-56.5 25.93,-30.78"/>
<polygon fill="#63b8ff" stroke="#63b8ff" points="29.4,-31.31 26.85,-21.03 22.43,-30.66 29.4,-31.31"/>
</a>
</g>
</g>
<!-- Node7 -->
<g id="Node000007" class="node">
<title>Node7</title>
<g id="a_Node000007"><a xlink:title=" ">
<polygon fill="#e0e0e0" stroke="#999999" points="260.12,-129.75 156.38,-129.75 156.38,-110.5 260.12,-110.5 260.12,-129.75"/>
<text text-anchor="middle" x="208.25" y="-116.25" font-family="Helvetica,sans-Serif" font-size="10.00">Adafruit_SSD1306.h</text>
</a>
</g>
</g>
<!-- Node1&#45;&gt;Node7 -->
<g id="edge6_Node000001_Node000007" class="edge">
<title>Node1&#45;&gt;Node7</title>
<g id="a_edge6_Node000001_Node000007"><a xlink:title=" ">
<path fill="none" stroke="#63b8ff" d="M161.75,-165.34C169.68,-157.8 181.2,-146.85 190.79,-137.73"/>
<polygon fill="#63b8ff" stroke="#63b8ff" points="192.96,-140.49 197.79,-131.07 188.14,-135.42 192.96,-140.49"/>
</a>
</g>
</g>
<!-- Node8 -->
<g id="Node000008" class="node">
<title>Node8</title>
<g id="a_Node000008"><a xlink:title=" ">
<polygon fill="#e0e0e0" stroke="#999999" points="320.75,-129.75 277.75,-129.75 277.75,-110.5 320.75,-110.5 320.75,-129.75"/>
<text text-anchor="middle" x="299.25" y="-116.25" font-family="Helvetica,sans-Serif" font-size="10.00">Wire.h</text>
</a>
</g>
</g>
<!-- Node1&#45;&gt;Node8 -->
<g id="edge8_Node000001_Node000008" class="edge">
<title>Node1&#45;&gt;Node8</title>
<g id="a_edge8_Node000001_Node000008"><a xlink:title=" ">
<path fill="none" stroke="#63b8ff" d="M177.19,-165.34C201.95,-156.37 240.03,-142.58 267.07,-132.78"/>
<polygon fill="#63b8ff" stroke="#63b8ff" points="267.92,-136.2 276.13,-129.5 265.53,-129.62 267.92,-136.2"/>
</a>
</g>
</g>
<!-- Node3 -->
<g id="Node000003" class="node">
<title>Node3</title>
<g id="a_Node000003"><a xlink:href="framework__config_8hpp.xhtml" target="_top" xlink:title="Provides defintions which are specific for the used framework.">
<polygon fill="white" stroke="#666666" points="159.5,-74.5 49,-74.5 49,-55.25 159.5,-55.25 159.5,-74.5"/>
<text text-anchor="middle" x="104.25" y="-61" font-family="Helvetica,sans-Serif" font-size="10.00">framework_config.hpp</text>
</a>
</g>
</g>
<!-- Node2&#45;&gt;Node3 -->
<g id="edge2_Node000002_Node000003" class="edge">
<title>Node2&#45;&gt;Node3</title>
<g id="a_edge2_Node000002_Node000003"><a xlink:title=" ">
<path fill="none" stroke="#63b8ff" d="M98.41,-110.33C99.27,-103.74 100.49,-94.46 101.59,-86.07"/>
<polygon fill="#63b8ff" stroke="#63b8ff" points="105.04,-86.73 102.87,-76.36 98.1,-85.82 105.04,-86.73"/>
</a>
</g>
</g>
<!-- Node3&#45;&gt;Node4 -->
<g id="edge3_Node000003_Node000004" class="edge">
<title>Node3&#45;&gt;Node4</title>
<g id="a_edge3_Node000003_Node000004"><a xlink:title=" ">
<path fill="none" stroke="#63b8ff" d="M91.36,-54.84C80.22,-47.04 63.88,-35.59 50.61,-26.29"/>
<polygon fill="#63b8ff" stroke="#63b8ff" points="52.64,-23.44 42.45,-20.57 48.63,-29.18 52.64,-23.44"/>
</a>
</g>
</g>
<!-- Node5 -->
<g id="Node000005" class="node">
<title>Node5</title>
<g id="a_Node000005"><a xlink:title=" ">
<polygon fill="#e0e0e0" stroke="#999999" points="122.88,-19.25 77.62,-19.25 77.62,0 122.88,0 122.88,-19.25"/>
<text text-anchor="middle" x="100.25" y="-5.75" font-family="Helvetica,sans-Serif" font-size="10.00">cstdint</text>
</a>
</g>
</g>
<!-- Node3&#45;&gt;Node5 -->
<g id="edge4_Node000003_Node000005" class="edge">
<title>Node3&#45;&gt;Node5</title>
<g id="a_edge4_Node000003_Node000005"><a xlink:title=" ">
<path fill="none" stroke="#63b8ff" d="M103.59,-55.08C103.09,-48.49 102.4,-39.21 101.77,-30.82"/>
<polygon fill="#63b8ff" stroke="#63b8ff" points="105.28,-30.83 101.04,-21.12 98.3,-31.35 105.28,-30.83"/>
</a>
</g>
</g>
<!-- Node6 -->
<g id="Node000006" class="node">
<title>Node6</title>
<g id="a_Node000006"><a xlink:title=" ">
<polygon fill="#e0e0e0" stroke="#999999" points="201.75,-19.25 140.75,-19.25 140.75,0 201.75,0 201.75,-19.25"/>
<text text-anchor="middle" x="171.25" y="-5.75" font-family="Helvetica,sans-Serif" font-size="10.00">type_traits</text>
</a>
</g>
</g>
<!-- Node3&#45;&gt;Node6 -->
<g id="edge5_Node000003_Node000006" class="edge">
<title>Node3&#45;&gt;Node6</title>
<g id="a_edge5_Node000003_Node000006"><a xlink:title=" ">
<path fill="none" stroke="#63b8ff" d="M115.62,-54.84C125.3,-47.15 139.45,-35.9 151.06,-26.68"/>
<polygon fill="#63b8ff" stroke="#63b8ff" points="153.22,-29.43 158.87,-20.47 148.86,-23.95 153.22,-29.43"/>
</a>
</g>
</g>
</g>
</svg>
