<?xml version="1.0" encoding="UTF-8" standalone="no"?>
<!DOCTYPE svg PUBLIC "-//W3C//DTD SVG 1.1//EN"
 "http://www.w3.org/Graphics/SVG/1.1/DTD/svg11.dtd">
<!-- Generated by graphviz version 7.0.5 (20221223.1930)
 -->
<!-- Title: src/display.cpp Pages: 1 -->
<svg width="489pt" height="192pt"
 viewBox="0.00 0.00 489.00 192.00" xmlns="http://www.w3.org/2000/svg" xmlns:xlink="http://www.w3.org/1999/xlink">
<g id="graph0" class="graph" transform="scale(1 1) rotate(0) translate(4 188)">
<title>src/display.cpp</title>
<!-- Node1 -->
<g id="node1" class="node">
<title>Node1</title>
<g id="a_node1"><a xlink:title=" ">
<polygon fill="#999999" stroke="#666666" points="295,-184 214,-184 214,-165 295,-165 295,-184"/>
<text text-anchor="middle" x="254.5" y="-172" font-family="Helvetica,sans-Serif" font-size="10.00">src/display.cpp</text>
</a>
</g>
</g>
<!-- Node2 -->
<g id="node2" class="node">
<title>Node2</title>
<g id="a_node2"><a xlink:href="board__pins_8hpp.xhtml" target="_top" xlink:title="Provides named objects for the pins provided by the board.">
<polygon fill="white" stroke="#666666" points="138.5,-129 56.5,-129 56.5,-110 138.5,-110 138.5,-129"/>
<text text-anchor="middle" x="97.5" y="-117" font-family="Helvetica,sans-Serif" font-size="10.00">board_pins.hpp</text>
</a>
</g>
</g>
<!-- Node1&#45;&gt;Node2 -->
<g id="edge1" class="edge">
<title>Node1&#45;&gt;Node2</title>
<path fill="none" stroke="#63b8ff" d="M227.87,-164.51C202.3,-155.88 163.45,-142.76 134.81,-133.1"/>
<polygon fill="#63b8ff" stroke="#63b8ff" points="136.03,-129.81 125.44,-129.93 133.79,-136.45 136.03,-129.81"/>
</g>
<!-- Node4 -->
<g id="node4" class="node">
<title>Node4</title>
<g id="a_node4"><a xlink:title=" ">
<polygon fill="#e0e0e0" stroke="#999999" points="57,-19 0,-19 0,0 57,0 57,-19"/>
<text text-anchor="middle" x="28.5" y="-7" font-family="Helvetica,sans-Serif" font-size="10.00">Arduino.h</text>
</a>
</g>
</g>
<!-- Node1&#45;&gt;Node4 -->
<g id="edge7" class="edge">
<title>Node1&#45;&gt;Node4</title>
<path fill="none" stroke="#63b8ff" d="M213.92,-170.15C160.27,-164.84 69.89,-152.6 47.5,-129 22.36,-102.5 22.74,-56.72 25.48,-30.5"/>
<polygon fill="#63b8ff" stroke="#63b8ff" points="28.92,-31.23 26.72,-20.87 21.97,-30.34 28.92,-31.23"/>
</g>
<!-- Node7 -->
<g id="node7" class="node">
<title>Node7</title>
<g id="a_node7"><a xlink:title=" ">
<polygon fill="#e0e0e0" stroke="#999999" points="260.5,-129 156.5,-129 156.5,-110 260.5,-110 260.5,-129"/>
<text text-anchor="middle" x="208.5" y="-117" font-family="Helvetica,sans-Serif" font-size="10.00">Adafruit_SSD1306.h</text>
</a>
</g>
</g>
<!-- Node1&#45;&gt;Node7 -->
<g id="edge6" class="edge">
<title>Node1&#45;&gt;Node7</title>
<path fill="none" stroke="#63b8ff" d="M246.9,-164.75C240.62,-157.5 231.49,-146.98 223.7,-138.02"/>
<polygon fill="#63b8ff" stroke="#63b8ff" points="226.45,-135.84 217.25,-130.59 221.16,-140.43 226.45,-135.84"/>
</g>
<!-- Node8 -->
<g id="node8" class="node">
<title>Node8</title>
<g id="a_node8"><a xlink:title=" ">
<polygon fill="#e0e0e0" stroke="#999999" points="322.5,-129 278.5,-129 278.5,-110 322.5,-110 322.5,-129"/>
<text text-anchor="middle" x="300.5" y="-117" font-family="Helvetica,sans-Serif" font-size="10.00">Wire.h</text>
</a>
</g>
</g>
<!-- Node1&#45;&gt;Node8 -->
<g id="edge8" class="edge">
<title>Node1&#45;&gt;Node8</title>
<path fill="none" stroke="#63b8ff" d="M262.1,-164.75C268.38,-157.5 277.51,-146.98 285.3,-138.02"/>
<polygon fill="#63b8ff" stroke="#63b8ff" points="287.84,-140.43 291.75,-130.59 282.55,-135.84 287.84,-140.43"/>
</g>
<!-- Node9 -->
<g id="node9" class="node">
<title>Node9</title>
<g id="a_node9"><a xlink:title=" ">
<polygon fill="#e0e0e0" stroke="#999999" points="380,-129 341,-129 341,-110 380,-110 380,-129"/>
<text text-anchor="middle" x="360.5" y="-117" font-family="Helvetica,sans-Serif" font-size="10.00">lvgl.h</text>
</a>
</g>
</g>
<!-- Node1&#45;&gt;Node9 -->
<g id="edge9" class="edge">
<title>Node1&#45;&gt;Node9</title>
<path fill="none" stroke="#63b8ff" d="M272.48,-164.51C288.95,-156.27 313.59,-143.96 332.61,-134.45"/>
<polygon fill="#63b8ff" stroke="#63b8ff" points="334.05,-137.64 341.43,-130.03 330.92,-131.38 334.05,-137.64"/>
</g>
<!-- Node10 -->
<g id="node10" class="node">
<title>Node10</title>
<g id="a_node10"><a xlink:href="HMI__Menu_8hpp.xhtml" target="_top" xlink:title=" ">
<polygon fill="white" stroke="#666666" points="481,-129 398,-129 398,-110 481,-110 481,-129"/>
<text text-anchor="middle" x="439.5" y="-117" font-family="Helvetica,sans-Serif" font-size="10.00">HMI_Menu.hpp</text>
</a>
</g>
</g>
<!-- Node1&#45;&gt;Node10 -->
<g id="edge10" class="edge">
<title>Node1&#45;&gt;Node10</title>
<path fill="none" stroke="#63b8ff" d="M285.88,-164.51C316.54,-155.73 363.41,-142.3 397.31,-132.59"/>
<polygon fill="#63b8ff" stroke="#63b8ff" points="398.17,-135.98 406.82,-129.86 396.24,-129.25 398.17,-135.98"/>
</g>
<!-- Node3 -->
<g id="node3" class="node">
<title>Node3</title>
<g id="a_node3"><a xlink:href="framework__config_8hpp.xhtml" target="_top" xlink:title="Provides defintions which are specific for the used framework.">
<polygon fill="white" stroke="#666666" points="161,-74 50,-74 50,-55 161,-55 161,-74"/>
<text text-anchor="middle" x="105.5" y="-62" font-family="Helvetica,sans-Serif" font-size="10.00">framework_config.hpp</text>
</a>
</g>
</g>
<!-- Node2&#45;&gt;Node3 -->
<g id="edge2" class="edge">
<title>Node2&#45;&gt;Node3</title>
<path fill="none" stroke="#63b8ff" d="M98.82,-109.75C99.81,-103.19 101.21,-93.95 102.47,-85.6"/>
<polygon fill="#63b8ff" stroke="#63b8ff" points="105.89,-86.35 103.92,-75.94 98.97,-85.3 105.89,-86.35"/>
</g>
<!-- Node3&#45;&gt;Node4 -->
<g id="edge3" class="edge">
<title>Node3&#45;&gt;Node4</title>
<path fill="none" stroke="#63b8ff" d="M92.44,-54.51C80.98,-46.62 64.07,-34.98 50.52,-25.65"/>
<polygon fill="#63b8ff" stroke="#63b8ff" points="52.84,-23 42.62,-20.22 48.87,-28.77 52.84,-23"/>
</g>
<!-- Node5 -->
<g id="node5" class="node">
<title>Node5</title>
<g id="a_node5"><a xlink:title=" ">
<polygon fill="#e0e0e0" stroke="#999999" points="124.5,-19 78.5,-19 78.5,0 124.5,0 124.5,-19"/>
<text text-anchor="middle" x="101.5" y="-7" font-family="Helvetica,sans-Serif" font-size="10.00">cstdint</text>
</a>
</g>
</g>
<!-- Node3&#45;&gt;Node5 -->
<g id="edge4" class="edge">
<title>Node3&#45;&gt;Node5</title>
<path fill="none" stroke="#63b8ff" d="M104.84,-54.75C104.35,-48.27 103.66,-39.16 103.04,-30.9"/>
<polygon fill="#63b8ff" stroke="#63b8ff" points="106.53,-30.66 102.29,-20.95 99.55,-31.19 106.53,-30.66"/>
</g>
<!-- Node6 -->
<g id="node6" class="node">
<title>Node6</title>
<g id="a_node6"><a xlink:title=" ">
<polygon fill="#e0e0e0" stroke="#999999" points="204.5,-19 142.5,-19 142.5,0 204.5,0 204.5,-19"/>
<text text-anchor="middle" x="173.5" y="-7" font-family="Helvetica,sans-Serif" font-size="10.00">type_traits</text>
</a>
</g>
</g>
<!-- Node3&#45;&gt;Node6 -->
<g id="edge5" class="edge">
<title>Node3&#45;&gt;Node6</title>
<path fill="none" stroke="#63b8ff" d="M117.04,-54.51C126.96,-46.77 141.51,-35.43 153.36,-26.2"/>
<polygon fill="#63b8ff" stroke="#63b8ff" points="155.21,-29.2 160.94,-20.29 150.9,-23.68 155.21,-29.2"/>
</g>
</g>
</svg>
